<?xml version="1.0" encoding="UTF-8"?><svg id="Layer_2" xmlns="http://www.w3.org/2000/svg" xmlns:xlink="http://www.w3.org/1999/xlink" viewBox="0 0 1978.86 1030.54"><defs><style>.cls-1{stroke:url(#linear-gradient-2);}.cls-1,.cls-2,.cls-3,.cls-4,.cls-5,.cls-6,.cls-7,.cls-8,.cls-9,.cls-10,.cls-11,.cls-12{fill:none;}.cls-1,.cls-2,.cls-3,.cls-4,.cls-5,.cls-6,.cls-7,.cls-8,.cls-9,.cls-10,.cls-12{stroke-miterlimit:10;}.cls-13{letter-spacing:-.03em;}.cls-2{stroke:url(#linear-gradient-3);}.cls-3,.cls-6,.cls-8{stroke:#231f20;}.cls-14{fill:#f47725;}.cls-4{stroke:url(#linear-gradient-4);}.cls-5{stroke:url(#linear-gradient-6);}.cls-15{fill:#f2f0ef;}.cls-16{letter-spacing:0em;}.cls-17{fill:#231f20;font-family:MyriadPro-Regular, 'Myriad Pro';font-size:12px;}.cls-18{letter-spacing:-.01em;}.cls-19{letter-spacing:0em;}.cls-20{clip-path:url(#clippath-1);}.cls-21{font-family:Axiforma-Bold, Axiforma;font-size:27.74px;font-weight:700;}.cls-21,.cls-22{fill:#ec7123;}.cls-6{stroke-width:2px;}.cls-7{stroke:url(#linear-gradient-7);}.cls-8{stroke-linecap:square;}.cls-9{stroke:url(#linear-gradient-5);}.cls-23{fill:#f1f2f2;}.cls-24{clip-path:url(#clippath);}.cls-25{letter-spacing:-.01em;}.cls-10{stroke:url(#linear-gradient);}.cls-26{fill:#1d1e1c;fill-rule:evenodd;}.cls-27{letter-spacing:-.01em;}.cls-12{stroke:url(#linear-gradient-8);}.cls-28{letter-spacing:-.01em;}</style><clipPath id="clippath"><rect class="cls-11" x="704.3" y="84.3" width="1191" height="842"/></clipPath><clipPath id="clippath-1"><rect class="cls-11" x="700" y="73.04" width="1191" height="842"/></clipPath><linearGradient id="linear-gradient" x1="1419.18" y1="702.87" x2="1458.59" y2="702.87" gradientUnits="userSpaceOnUse"><stop offset="0" stop-color="#fff"/><stop offset="0" stop-color="#e1e1e0"/><stop offset="0" stop-color="#b8b8b7"/><stop offset="0" stop-color="#939392"/><stop offset="0" stop-color="#727271"/><stop offset="0" stop-color="#575756"/><stop offset="0" stop-color="#424240"/><stop offset="0" stop-color="#31312f"/><stop offset="0" stop-color="#252523"/><stop offset="0" stop-color="#1e1e1c"/><stop offset="0" stop-color="#1d1d1b"/></linearGradient><linearGradient id="linear-gradient-2" x1="1468.99" y1="702.93" x2="1559.3" y2="702.93" xlink:href="#linear-gradient"/><linearGradient id="linear-gradient-3" x1="1543.03" y1="695.34" x2="1559.18" y2="695.34" xlink:href="#linear-gradient"/><linearGradient id="linear-gradient-4" x1="1568.95" y1="702.73" x2="1606.42" y2="702.73" xlink:href="#linear-gradient"/><linearGradient id="linear-gradient-5" x1="1607.01" y1="702.94" x2="1622.72" y2="702.94" xlink:href="#linear-gradient"/><linearGradient id="linear-gradient-6" x1="1623.22" y1="702.9" x2="1649.33" y2="702.9" xlink:href="#linear-gradient"/><linearGradient id="linear-gradient-7" x1="1649.65" y1="691.85" x2="1671.53" y2="691.85" xlink:href="#linear-gradient"/><linearGradient id="linear-gradient-8" x1="1649.65" y1="713.25" x2="1671.27" y2="713.25" xlink:href="#linear-gradient"/></defs><g id="Layer_1"><polygon class="cls-15" points="1350.76 1030.54 1739.2 1030.54 1739.2 882.65 1799.76 882.65 1799.76 509.8 1560.65 508.58 1560.27 570.93 1212.31 573.96 1210.96 408.47 1233.3 408.47 1232.98 353.52 1194.37 352.51 1189.76 95.31 796.76 92.5 796.76 92.5 796.76 580.34 851.42 580.34 851.42 757.15 852.76 922.39 1014.76 922.39 1199.76 922.39 1198.76 971.49 1350.49 972.4 1350.76 1030.54"/><path class="cls-11" d="m1085.38,675.34v-2h-182.04v-141.6h-58.68V107.94h303.08v265.68h34.44v235.08h440.2v-32.16h132.56v194.36h-55.2v117h-318.68v-15.29s0-2,0-2h-90.19v-34.55h-2"/><g class="cls-24"><path class="cls-14" d="m1978.86,601.13c0-1.09-.89-1.97-1.97-1.97h-12.88c-1.09,0-1.97.88-1.97,1.97v12.88c0,1.09.88,1.97,1.97,1.97h12.88c1.09,0,1.97-.88,1.97-1.97v-12.88Zm-4.75.52c.55,0,.99.44.99.98s-.44.99-.99.99-.98-.44-.98-.99.44-.98.98-.98m-7.59,0c.55,0,.99.44.99.98s-.44.99-.99.99-.98-.44-.98-.99.44-.98.98-.98m1.96,2.82l-.27,3.29c-.02.21-.15.39-.35.46-.2.08-.33.26-.34.47l-.26,4.27c-.02.29-.26.51-.55.51h-.37c-.29,0-.53-.23-.55-.51l-.26-4.27c-.01-.21-.15-.4-.34-.47-.2-.07-.33-.26-.35-.46l-.27-3.29c-.02-.27.16-.52.43-.58l.27-.06c.18-.04.37.01.5.14l.38.38c.21.21.56.21.77,0l.38-.38c.13-.13.32-.18.5-.14l.27.06c.24.07.42.32.41.58m2.09,9.01c0,.14-.12.26-.26.26s-.27-.12-.27-.26v-11.83c0-.15.12-.26.27-.26s.26.12.26.26v11.83Zm5.46-5.26c-.19.05-.31.22-.28.41l.12.85c.03.2-.11.39-.31.42l-.25.03c-.17.03-.3.17-.31.34l-.17,2.71c-.02.29-.26.51-.54.51h-.37c-.29,0-.53-.22-.55-.51l-.17-2.71c-.01-.18-.15-.32-.31-.34l-.25-.03c-.19-.03-.34-.22-.31-.42l.12-.85c.03-.18-.09-.36-.28-.41-.19-.05-.31-.24-.27-.43l.74-3.52c.05-.25.34-.38.56-.23l.7.45c.12.08.27.08.4,0l.69-.45c.22-.14.51-.02.56.23l.75,3.52c.03.19-.09.38-.28.43"/><path class="cls-14" d="m1141.23,279.29c0-.96-.78-1.74-1.74-1.74h-11.37c-.96,0-1.74.78-1.74,1.74v11.37c0,.96.78,1.74,1.74,1.74h11.37c.96,0,1.74-.78,1.74-1.74v-11.37Zm-4.19.46c.48,0,.87.39.87.87s-.39.87-.87.87-.87-.39-.87-.87.39-.87.87-.87m-6.7,0c.48,0,.87.39.87.87s-.39.87-.87.87-.87-.39-.87-.87.39-.87.87-.87m1.73,2.49l-.24,2.91c-.02.19-.13.34-.31.4-.17.07-.29.23-.3.42l-.23,3.77c-.02.25-.23.45-.49.45h-.32c-.26,0-.47-.2-.48-.45l-.23-3.77c-.01-.19-.13-.35-.3-.42-.18-.06-.29-.23-.31-.41l-.24-2.91c-.02-.24.14-.46.38-.51l.24-.05c.16-.04.32.01.44.13l.33.34c.19.19.49.19.68,0l.34-.34c.12-.12.28-.16.44-.13l.24.05c.21.06.37.28.36.52m1.85,7.95c0,.13-.11.23-.23.23s-.23-.1-.23-.23v-10.44c0-.13.11-.23.23-.23s.23.1.23.23v10.44Zm4.82-4.64c-.17.04-.27.2-.24.36l.1.75c.03.17-.1.34-.27.37l-.22.03c-.15.02-.27.15-.28.3l-.15,2.39c-.02.26-.23.45-.48.45h-.32c-.26,0-.47-.2-.48-.45l-.15-2.39c0-.16-.13-.28-.28-.3l-.22-.03c-.17-.02-.3-.19-.27-.37l.1-.75c.03-.16-.08-.32-.24-.36-.17-.04-.27-.21-.24-.38l.66-3.11c.05-.22.3-.33.49-.2l.62.4c.1.07.24.07.35,0l.61-.4c.19-.12.45-.02.49.2l.66,3.11c.03.17-.08.34-.24.38"/><polygon class="cls-14" points="1207.75 139.94 1212.86 149.01 1206.69 149.01 1201.58 139.94 1206.68 130.86 1212.84 130.86 1207.75 139.94"/><polygon class="cls-14" points="1216.2 139.93 1221.31 149.01 1215.14 149.01 1210.03 139.94 1215.13 130.85 1221.29 130.85 1216.2 139.93"/><polygon class="cls-14" points="1224.65 139.93 1229.75 149.01 1223.59 149.01 1218.48 139.93 1223.58 130.85 1229.75 130.85 1224.65 139.93"/><polygon class="cls-14" points="1676.26 492.04 1685.33 486.93 1685.33 493.1 1676.26 498.21 1667.18 493.11 1667.18 486.94 1676.26 492.04"/><polygon class="cls-14" points="1676.25 483.59 1685.32 478.48 1685.33 484.65 1676.26 489.76 1667.17 484.66 1667.17 478.49 1676.25 483.59"/><polygon class="cls-14" points="1676.25 475.14 1685.32 470.03 1685.33 476.2 1676.25 481.3 1667.17 476.21 1667.17 470.04 1676.25 475.14"/></g><g class="cls-20"><text class="cls-21" transform="translate(1416.38 401.73)"><tspan x="0" y="0">× </tspan><tspan class="cls-16" x="22.27" y="0">1</tspan><tspan class="cls-13" x="39.38" y="0">,</tspan><tspan class="cls-27" x="45.83" y="0">0</tspan><tspan class="cls-25" x="62.58" y="0">5</tspan><tspan x="79.46" y="0">0</tspan></text><path class="cls-22" d="m1350.16,408.12l1.51-2.26c.85-1.27,2.27-2.03,3.8-2.03h24.14c1.53,0,2.95.76,3.8,2.03l1.51,2.26c.77-.11,1.54-.25,2.3-.41l9.24-2.05v-7.14c-.29.09-.6.17-.91.24-1.74.4-3.26.51-5.18.51-.99,0-2.5-.1-3.73-.3-1.7-.27-2.89-.64-3.47-1.41-2.68,1.05-5.59,1.39-8.45.99-3.76-.53-6.19-.8-7.18-.8s-3.42.27-7.18.8c-2.94.42-5.94.04-8.68-1.08-.03.02-.07.05-.1.07-.93.55-2,.95-3.21,1.23-1.74.4-3.26.51-5.18.51-.99,0-2.5-.1-3.73-.3-.29-.05-.57-.1-.84-.15v6.84l9.24,2.05c.76.17,1.53.31,2.3.41Zm3.48.27c.16,0,.33,0,.49,0h26.8c.16,0,.33,0,.49,0l-.56-.84c-.28-.42-.76-.68-1.27-.68h-24.14c-.51,0-.98.25-1.27.68l-.56.84Zm-15.02-12.74c.31.11.77.22,1.32.31,1.05.17,2.41.26,3.25.26,1.71,0,3.04-.09,4.49-.43.06-.01.12-.03.17-.04-3.42-1.42-6.5-2.24-9.23-2.49,0,.05,0,.09,0,.14v2.26Zm-3.04.57s0,0,0,0v-2.82c0-1.04.27-2.06.78-2.97l2.93-5.23-5.49-.87h0c-.13-.02-.25-.06-.36-.12-.62-.31-.87-1.06-.56-1.67l.45-.9c.2-.4.56-.69.99-.8h0l4.02-1.01c.78-.19,1.57.25,1.82,1.01h0l.5,1.55,4.22-11.6c1.09-3.01,3.95-5.01,7.15-5.01h31.04c3.2,0,6.06,2,7.15,5.01l4.11,11.3.31-1.18c.21-.8,1.02-1.29,1.82-1.09l4.27,1.02c.43.1.79.38.99.77l.48.91c.32.6.08,1.35-.52,1.67-.12.06-.25.1-.38.13l-5.5.87,2.93,5.23c.51.91.78,1.93.78,2.97v2.77s0,.07,0,.11v15.17c0,2.52-2.04,4.57-4.57,4.57h-7.61c-2.52,0-4.57-2.04-4.57-4.57,0-.02,0-.03,0-.05-.61.03-1.21.05-1.82.05h-26.8c-.61,0-1.21-.02-1.82-.05,0,.02,0,.03,0,.05,0,2.52-2.04,4.57-4.57,4.57h-7.61c-2.52,0-4.57-2.04-4.57-4.57v-15.22Zm60.87-.94v-1.89s0-.09,0-.13c-2.86.27-6.06,1.15-9.61,2.65.09.02.18.03.28.05,1.05.17,2.41.26,3.25.26,1.71,0,3.04-.09,4.49-.43.59-.14,1.12-.31,1.6-.51Zm-56.56-4.95c3.63.48,7.69,1.81,12.17,3.97,2.44,1.18,5.18,1.6,7.87,1.22,3.92-.55,6.42-.83,7.61-.83s3.69.28,7.61.83c2.68.38,5.42-.05,7.86-1.22,4.46-2.15,8.52-3.47,12.18-3.96l-2.59-4.62-6.83,1.14c-.91.15-1.83.23-2.75.23h-30.96c-.92,0-1.84-.08-2.75-.23l-6.83-1.14-2.58,4.61Zm45.87,20.74c.03.12.04.24.04.37,0,.84.68,1.52,1.52,1.52h7.61c.84,0,1.52-.68,1.52-1.52v-2.67l-8.58,1.91c-.7.16-1.41.29-2.11.4Zm-36.44,0c-.71-.11-1.41-.24-2.11-.4l-8.58-1.91v2.67c0,.84.68,1.52,1.52,1.52h7.61c.84,0,1.52-.68,1.52-1.52,0-.13.02-.25.04-.37Zm38.03-39.24c-.66-1.8-2.37-3.01-4.29-3.01h-31.04c-1.92,0-3.63,1.2-4.29,3.01l-4,11.01,6.08,1.01c.74.12,1.5.19,2.25.19h30.96c.75,0,1.51-.06,2.25-.19l6.08-1.01-4-11.01Z"/><text class="cls-17" transform="translate(0 10.04)"><tspan class="cls-18" x="0" y="0">L</tspan><tspan x="5.5" y="0">o</tspan><tspan class="cls-28" x="12.08" y="0">r</tspan><tspan class="cls-19" x="15.89" y="0">em ipsum</tspan></text></g><path class="cls-23" d="m834.02,119.02l176.16.89,39.29.14,95.33.42-80.86-.35,80.86.35-.44,52.67-.32,53.72-.02.61-1.11,150,36.45.5v19.5l-.31,203.33.03,5.57,25.05.1,15.56.22,18.67.56h199.56s154.44-.78,154.44-.78l27.5-.27v-32.55h.24s42.46-.42,42.46-.42h0s0,0,.89,0h-.89s0-15.69,0-15.69l42,.3.22,15,54.02-.37-.09,9.11-.22,71.44-.02-3.32.02,3.33h0s.22,33.53.22,33.53l.09,93.7h-53.55l-.64,162.06h-1l-40.59-.67-.62-25.88-32.96.02s-.3-.01-.59-.01c-.23,0-.45,0-.45.03h-2.03s.98,83.9.98,83.9l-93.54-.9-.44-62.44-119.16.12-.03,16.93-33.92-.05-.69-37.53-126.2-.36.67-48.83-227.11.39,1.56-158.1h49.03v-35.15h-186.81l1.78-135.97h-60.94l2.5-418.78m924.78,453.44h0s0,0,0,0h0m.15,0v.75h-.15v-.75s.15,0,.15,0M824.08,108.97l-.06,9.99-2.5,418.78-.06,10.06h60.87l-1.65,125.84-.13,10.13h186.94v15.15h-48.93l-.1,9.9-1.56,158.1-.1,10.12,10.12-.02,216.96-.37-.53,38.68-.14,10.11,10.11.03,116.41.33.51,27.74.18,9.8,9.8.02,33.92.05,10,.02.02-10v-6.96s99.26-.1,99.26-.1l.37,52.51.07,9.83,9.83.09,93.54.9,10.21.1-.12-10.21-.86-73.81h16.16s.39,16.1.39,16.1l.23,9.6,9.6.16,40.59.67h.08s.08,0,.08,0h10.96l.04-9.96.6-152.09h53.59v-10.01s-.11-93.7-.11-93.7v-.05s-.22-33.49-.22-33.49l.21-69.78h.25v-20.82h-.04s0,0,0,0l-10.17.07h-.08s-9.88.07-9.88.07l-34.14.23-.08-5.08-.15-9.78-9.78-.07-42-.3-10.07-.07v15.86l-32.56.32h-.11s-.11,0-.11,0h-.24s-9.69.31-9.69.31v32.34l-17.6.17-154.37.78h-32.31s-167.07,0-167.07,0l-18.52-.55h-.08s-.08,0-.08,0l-15.56-.22h-.05s-.05,0-.05,0l-15.12-.06.3-198.92v-29.38l-9.86-.14-26.51-.37,1.04-139.95v-.51s.02-.11.02-.11v-.11s.32-53.72.32-53.72l.44-52.64.08-10.04-10.04-.04-95.33-.42-39.3-.14-176.14-.89-9.99-.05h0Z"/><path class="cls-6" d="m834.02,119.02l176.16.89,39.29.14,95.33.42-80.86-.35,80.86.35-.44,52.67-.32,53.72-.02.61h0l-1.12,150,36.45.5v19.5l-.31,203.33.03,5.57,25.05.1h0l15.56.22,18.67.56h199.56s154.44-.78,154.44-.78l27.5-.27v-32.55h.24s43.36-.43,43.36-.43q-.89.01-.89.01v-15.7l42,.3.22,15,54.17-.37v.75h-.15v-.75s-.09,9.11-.09,9.11l-.22,71.45-.02-3.33.24,36.86.09,93.7h-53.55l-.64,162.06h-1l-40.59-.67-.62-25.88-32.96.02s-1.03-.03-1.04.02h-2.03s.98,83.9.98,83.9l-93.54-.9-.44-62.44-119.16.12-.03,16.93-33.92-.05-.69-37.53-126.2-.36.67-48.83-227.11.39,1.56-158.1h49.03v-35.15h-186.81l1.78-135.97h-60.94l2.5-418.78Z"/><rect class="cls-8" x="1029.89" y="207.04" width="32.22" height="14.44"/><polygon class="cls-8" points="1029.89 187.49 1029.89 207.04 1073.67 207.04 1073.67 177.04 1029.89 187.49"/><polyline class="cls-8" points="1073.67 177.04 1094.89 172.04 1095.44 234.27 1087.56 234.27 1087.47 221.49 1029.89 221.49 1029.89 187.49 1073.67 177.04"/><polygon class="cls-8" points="1029.89 221.49 1029.89 250.21 1088.17 250.21 1088.17 235.04 1087.36 235.02 1087.23 221.85 1029.89 221.49"/><polygon class="cls-8" points="1087.95 234.54 1101.67 234.54 1101.67 246.82 1088.17 246.82 1087.95 234.54"/><polyline class="cls-8" points="1095.67 171.86 1122.17 166.21 1122.17 215.21 1144.46 215.21 1144 230.21 1130 230.21 1130 232.49 1101.67 232.38 1101.67 234.54 1095.45 234.54 1094.89 172.38"/><polygon class="cls-8" points="1122.94 165.99 1144.46 160.22 1144.37 171.63 1144.35 173.13 1143.85 215.21 1122.17 215.21 1122.17 166.21 1122.94 165.99"/><polygon class="cls-8" points="1128.78 250.21 1128.78 232.93 1130.23 232.9 1130.14 230.21 1144 230.21 1143.85 250.1 1128.78 250.21"/><polygon class="cls-8" points="1036.78 250.21 1036.78 259.9 1143.78 260.05 1143.85 250.1 1128.78 250.21 1128.78 232.48 1101.67 232.38 1101.67 246.82 1088.17 246.82 1088.17 250.21 1036.78 250.21"/><polygon class="cls-8" points="1029.89 260.05 1029.89 286.04 1120.83 286.04 1120.83 259.9 1029.89 260.05"/><polygon class="cls-8" points="1029.89 334.88 1029.89 286.04 1120.83 286.04 1120.83 305.71 1143.44 305.94 1143.36 316.71 1111 316.71 1111 334.88 1029.89 334.88"/><polygon class="cls-8" points="1130.02 316.71 1130.02 348.54 1143.12 348.54 1143.83 316.71 1130.02 316.71"/><polygon class="cls-8" points="1130.02 367.04 1130.02 348.54 1143.12 348.54 1142.98 367.04 1130.02 367.04"/><polygon class="cls-8" points="1036.78 367.04 1142.98 367.04 1143.44 377.54 1036.78 377.54 1036.78 367.04"/><polygon class="cls-8" points="1029.89 334.88 1029.89 367.04 1142.98 367.04 1143.83 316.71 1111 316.71 1111 334.88 1029.89 334.88"/><polygon class="cls-8" points="1035.67 377.54 1029.17 377.54 1053 479.88 1179.33 479.88 1180 377.54 1035.67 377.54"/><polygon class="cls-8" points="1039.83 419.71 1085.17 419.71 1085.17 436.54 1042.91 436.54 1038.99 419.71 1039.83 419.71"/><line class="cls-8" x1="1085.17" y1="424.88" x2="1179.69" y2="424.88"/><polyline class="cls-8" points="1062.08 479.88 1062.08 488.16 1179.39 488.37 1179.33 479.88 1062.08 479.88"/><polyline class="cls-8" points="1055.63 488.37 1179.39 488.37 1179.39 545.71 1148 545.71 1147.67 533.6 1068.44 533.71 1055.63 488.82"/><polygon class="cls-8" points="1068.44 533.71 1076.5 563.38 1179.39 563.38 1179.39 545.71 1148 545.71 1147.67 533.6 1068.44 533.71"/><polygon class="cls-8" points="1076.5 563.38 1084.33 589.88 1179.39 589.88 1179.39 563.38 1076.5 563.38"/><polygon class="cls-8" points="1027.17 119.29 1027.17 119.04 1027.17 134.71 1009.75 134.71 1009.66 128.46 1002.33 128.54 1002.33 119.04 1027.17 119.29"/><polygon class="cls-8" points="1002.33 129.93 1003 157.38 1050.11 145.49 1050.11 119.63 1027.17 119.29 1011.82 119.04 1002.33 119.04 1002.33 129.93"/><polygon class="cls-8" points="925.33 119.04 925.33 156.21 974 156.21 974 164.21 1003 157.38 1002.33 119.04 925.33 119.04"/><polygon class="cls-8" points="974.83 237.38 974 164.21 974 156.21 925.33 156.21 925.33 119.04 835.67 118.6 834.79 266.04 858.33 266.04 857.71 237.71 974.83 237.38"/><polyline class="cls-8" points="857.71 237.71 974.83 237.38 980.33 266.04 858.33 266.04 834.79 266.04 974.83 266.04 974.83 275.93 834.73 275.93 834.61 295.21 858 295.21 858 288.71 856.17 288.71 856.17 280.88 852.5 280.88 852.5 275.93 836 275.93"/><rect class="cls-8" x="834.61" y="295.21" width="23.39" height="9.83"/><polyline class="cls-8" points="834.32 343.93 834.61 305.04 856.67 305.04 856.67 332.63 846.31 332.63 846.31 345.04 834.32 345.04 834.09 382.62 1001 382.62 993.89 349.79 856.67 349.79 856.67 332.63"/><polygon class="cls-8" points="858 305.04 866.67 305.04 866.67 319.01 989 319.01 982.58 276.13 852.5 275.93 852.5 280.88 856.17 280.88 856.17 288.71 858 288.71 858 305.04"/><polygon class="cls-8" points="856.67 305.04 856.67 349.79 993.89 349.79 989 319.01 866.67 319.01 866.67 305.04 856.67 305.04"/><polygon class="cls-8" points="834.09 431.38 1011 431.38 1001 382.62 834.09 382.62 834.09 431.38"/><polygon class="cls-8" points="917.89 494.04 1025.67 494.04 1011 431.38 834.09 431.38 831.67 537.38 917.89 537.38 917.89 494.04"/><polyline class="cls-8" points="894.11 537.38 1033 537.93 1033 546.18 894.11 546.18"/><polyline class="cls-8" points="1025.67 494.04 1037.67 537.93 1033 537.93"/><polygon class="cls-8" points="907 546.82 1042 546.82 1055.63 592.04 907 592.04 907 546.82"/><path class="cls-8" d="m907,592.04h148.63l14.7,47h-134.33l-.33,34.3s-29.33,1.63-28.67,0,0-81.3,0-81.3Z"/><polygon class="cls-8" points="936 639.04 1070.33 639.04 1080.67 669.04 1080.67 673.34 935.67 673.34 936 639.04"/><polygon class="cls-8" points="1084.33 589.88 1092.01 613.04 1109.6 616.21 1109.6 597.54 1109.6 589.88 1084.33 589.88"/><polyline class="cls-8" points="1124.38 619.59 1150.39 630.32 1150.39 589.88 1109.6 589.88 1109.6 597.47 1122.8 597.47 1123.88 597.47 1124.38 619.59 1110.1 616.33"/><path class="cls-8" d="m1150.39,630.32c1.13.46,27.5,15.17,27.5,15.17v-38.67h2.11l-.61-16.94h-28.89l-.11,40.44Z"/><polygon class="cls-8" points="1180 606.82 1221.33 606.82 1221.33 621.04 1216.33 621.04 1216.65 652.16 1186.66 652.39 1177.89 645.49 1177.89 606.82 1180 606.82"/><rect class="cls-8" x="1221.33" y="606.82" width="17.67" height="14.22"/><polygon class="cls-8" points="1239 652.23 1239 652.23 1239 621.04 1216.33 621.04 1216.21 652.16 1239 652.23"/><polygon class="cls-8" points="1239 606.82 1248.33 606.82 1248.5 647.71 1239 647.71 1239 606.82"/><polygon class="cls-8" points="1249.33 606.82 1295.5 606.82 1295.5 652.23 1248.5 652.23 1248.33 606.82 1249.33 606.82"/><polygon class="cls-8" points="1295.5 606.82 1320.78 606.82 1320.78 652.39 1295.5 652.23 1295.5 606.82"/><polygon class="cls-8" points="1322 606.82 1342.92 606.82 1342.92 652.39 1320.78 652.39 1320.78 606.82 1322 606.82"/><polygon class="cls-8" points="1343.67 606.82 1351.58 606.82 1351.56 647.29 1342.92 647.29 1342.92 606.82 1343.67 606.82"/><polygon class="cls-8" points="1352.44 606.82 1397.56 606.82 1397.56 652.39 1351.56 652.39 1351.58 606.82 1352.44 606.82"/><rect class="cls-8" x="1381" y="627.27" width="16.56" height="25.12"/><polygon class="cls-8" points="1398.56 606.82 1459.44 606.82 1459.44 629.61 1438.56 629.61 1438.78 652.39 1397.56 652.39 1397.56 606.82 1398.56 606.82"/><polygon class="cls-8" points="1438.78 652.39 1459.44 652.23 1459.44 629.61 1438.56 629.61 1438.78 652.39"/><polygon class="cls-8" points="1459.44 606.82 1469.67 606.82 1469.67 646.99 1459.44 646.93 1459.44 606.82"/><rect class="cls-8" x="1469.67" y="606.82" width="42.83" height="22.78"/><rect class="cls-8" x="1469.67" y="629.61" width="20.42" height="22.78"/><polygon class="cls-8" points="1491.08 652.39 1512.5 652.39 1512.5 629.61 1490.08 629.61 1490.08 652.39 1491.08 652.39"/><polygon class="cls-8" points="1513.56 606.82 1534.71 606.82 1534.89 652.39 1512.5 652.39 1512.5 606.82 1513.56 606.82"/><polygon class="cls-8" points="1535.67 606.82 1559.56 606.82 1559.56 652.39 1534.89 652.39 1534.71 606.82 1535.67 606.82"/><path class="cls-8" d="m1559.56,606.82h9.94l.19,40.39c-1.04.08-9.32-.07-10.04.08-.5.1-.09-40.47-.09-40.47Z"/><polyline class="cls-8" points="1570.44 606.82 1602.33 606.82 1602.33 652.39 1568.78 652.39 1568.78 647.29"/><polygon class="cls-8" points="1603.67 606.82 1620.5 606.82 1620.5 652.39 1602.33 652.39 1602.33 606.82 1603.67 606.82"/><rect class="cls-8" x="1620.5" y="623.88" width="20.5" height="28.51"/><polygon class="cls-8" points="1642.33 652.39 1653.22 652.39 1659.44 644.16 1661.22 631.93 1662.56 623.88 1641 623.88 1641 652.39 1642.33 652.39"/><path class="cls-8" d="m1620.5,590.71h46.67l-4.61,33.17h-42.06v-33.17Z"/><polygon class="cls-8" points="1620.09 573.99 1668.76 573.72 1667.17 590.71 1620.5 590.71 1620.09 573.99"/><polygon class="cls-8" points="1699.67 573.43 1759.44 573.43 1759.53 593.72 1699.67 593.71 1699.67 573.43"/><polygon class="cls-8" points="1699.67 613.13 1699.67 593.71 1759.53 593.72 1759.44 613.13 1699.67 613.13"/><polygon class="cls-8" points="1699.67 613.13 1759.44 613.13 1759.53 632.93 1705.83 632.93 1699.67 632.93 1699.67 613.13"/><polygon class="cls-8" points="1705.83 640.21 1705.83 632.93 1759.7 632.93 1759.67 640.54 1705.83 640.21"/><rect class="cls-8" x="1699.11" y="640.54" width="28.33" height="17.5"/><rect class="cls-8" x="1699.11" y="658.04" width="28.33" height="15.78"/><polyline class="cls-8" points="1699.11 674.93 1699.11 688.93 1699.11 732.27 1710.56 732.27 1710.56 760.38 1759.42 760.38 1759.67 640.54 1699.11 640.54"/><polygon class="cls-8" points="1704.89 733.04 1705.33 779.82 1715 779.82 1715 760.38 1710.56 760.38 1710.56 732.27 1704.89 732.27 1704.89 733.04"/><polygon class="cls-8" points="1715 779.82 1759.44 779.82 1759.42 760.38 1715 760.38 1715 779.82"/><polygon class="cls-8" points="1379.56 739.49 1704.89 740.71 1704.72 915.04 1704.62 941.88 1663.02 941.63 1662.37 915.42 1642.78 915.77 1626.36 915.8 1626.52 929.26 1627.33 998.59 1533.79 997.27 1533.35 936.35 1414.2 936.47 1414.17 953.4 1380.24 952.62 1379.52 915.04 1379.56 739.49"/><polyline class="cls-8" points="1380.24 952.62 1380.25 953.35 1379.56 915.82 1379.56 915.82 1379.56 753.93"/><rect class="cls-8" x="1379.56" y="739.49" width="16.78" height="14.44"/><polygon class="cls-8" points="1397.11 739.49 1409.17 739.49 1409.17 753.93 1396.33 753.93 1396.33 739.49 1397.11 739.49"/><polygon class="cls-8" points="1409.17 739.49 1421.33 739.49 1421.34 753.93 1409.17 753.93 1409.17 739.49"/><polygon class="cls-8" points="1649.44 681.49 1665 681.49 1671.61 690.04 1671.61 702.16 1649.44 702.16 1649.44 681.49"/><polygon class="cls-8" points="1649.44 724.6 1649.44 702.16 1671.61 702.16 1671.28 716.04 1662.56 724.6 1649.44 724.6"/><rect class="cls-8" x="1623" y="681.49" width="26.44" height="43.11"/><path class="cls-8" d="m1606.78,681.49h16.22v43.11h-16.22v-43.11Z"/><rect class="cls-8" x="1568.78" y="681.49" width="38" height="43.11"/><polygon class="cls-8" points="1559.56 685.71 1568.78 685.71 1568.78 719.04 1559.56 719.16 1559.56 685.71"/><polygon class="cls-8" points="1542.83 681.49 1559.56 681.49 1559.56 709.49 1542.83 709.46 1542.83 681.49"/><polygon class="cls-8" points="1468.67 681.49 1542.83 681.49 1542.83 709.46 1559.56 709.49 1559.56 719.16 1556.61 719.16 1556.56 724.6 1468.67 724.6 1468.67 681.49"/><rect class="cls-8" x="1459.44" y="685.71" width="9.22" height="33.44"/><rect class="cls-8" x="1418.97" y="681.49" width="40.07" height="43.11"/><polyline class="cls-8" points="1418.85 681.49 1459.31 681.49 1459.31 724.6 1418.85 724.6 1418.85 681.49"/><rect class="cls-8" x="1394.22" y="681.49" width="24" height="43.11"/><polygon class="cls-8" points="1379.56 745.04 1370.67 745.04 1370.67 915.82 1379.56 915.82 1379.56 753.93 1379.56 753.93 1379.56 745.04"/><polygon class="cls-8" points="1302 681.49 1311 681.49 1370.67 741.04 1370.67 745.04 1370.67 915.82 1254 915.04 1254.02 887.9 1300.47 887.9 1302 681.49"/><polygon class="cls-8" points="1237.89 681.49 1302 681.49 1300.47 887.9 1254.02 887.9 1254.67 866.21 1214.56 866.28 1214.56 727.71 1238.33 727.49 1237.89 681.49"/><polygon class="cls-8" points="1214.56 681.49 1237.89 681.49 1238.33 727.49 1214.56 727.71 1214.56 681.49"/><polygon class="cls-8" points="1149.22 681.49 1214.56 681.49 1214.56 866.28 1105.44 866.28 1105.44 819.38 1149.22 819.6 1149.22 681.49"/><polygon class="cls-14" points="1085.2 77.13 1094.26 72.01 1094.27 78.18 1085.21 83.31 1076.12 78.23 1076.1 72.06 1085.2 77.13"/><polygon class="cls-14" points="1085.17 68.68 1094.24 63.55 1094.25 69.73 1085.19 74.86 1076.09 69.77 1076.08 63.61 1085.17 68.68"/><polygon class="cls-14" points="1085.15 60.24 1094.22 55.11 1094.23 61.27 1085.17 66.4 1076.08 61.33 1076.06 55.15 1085.15 60.24"/><polygon class="cls-8" points="1078.14 681.49 1149.22 681.49 1149.22 819.6 1028.02 819.6 1029.11 708.5 1078.14 708.5 1078.14 681.49"/><path class="cls-14" d="m1498.51,612.53c0-.96-.78-1.74-1.74-1.74h-11.37c-.96,0-1.74.78-1.74,1.74v11.37c0,.96.78,1.74,1.74,1.74h11.37c.96,0,1.74-.78,1.74-1.74v-11.37Zm-4.19.46c.48,0,.87.39.87.87s-.39.87-.87.87-.87-.39-.87-.87.39-.87.87-.87m-6.7,0c.48,0,.87.39.87.87s-.39.87-.87.87-.87-.39-.87-.87.39-.87.87-.87m1.73,2.49l-.24,2.91c-.02.19-.13.34-.31.4-.17.07-.29.23-.3.42l-.23,3.77c-.02.25-.23.45-.49.45h-.32c-.26,0-.47-.2-.48-.45l-.23-3.77c-.01-.19-.13-.35-.3-.42-.18-.06-.29-.23-.31-.41l-.24-2.91c-.02-.24.14-.46.38-.51l.24-.05c.16-.04.32.01.44.13l.33.34c.19.19.49.19.68,0l.34-.34c.12-.12.28-.16.44-.13l.24.05c.21.06.37.28.36.52m1.85,7.95c0,.13-.11.23-.23.23s-.23-.1-.23-.23v-10.44c0-.13.11-.23.23-.23s.23.1.23.23v10.44Zm4.82-4.64c-.17.04-.27.2-.24.36l.1.75c.03.17-.1.34-.27.37l-.22.03c-.15.02-.27.15-.28.3l-.15,2.39c-.02.26-.23.45-.48.45h-.32c-.26,0-.47-.2-.48-.45l-.15-2.39c0-.16-.13-.28-.28-.3l-.22-.03c-.17-.02-.3-.19-.27-.37l.1-.75c.03-.16-.08-.32-.24-.36-.17-.04-.27-.21-.24-.38l.66-3.11c.05-.22.3-.33.49-.2l.62.4c.1.07.24.07.35,0l.61-.4c.19-.12.45-.02.49.2l.66,3.11c.03.17-.08.34-.24.38"/><polygon class="cls-8" points="1394.22 724.6 1378.96 724.6 1372.48 716.04 1372.48 703.93 1394.22 703.93 1394.22 724.6"/><polygon class="cls-8" points="1394.22 681.49 1394.22 703.93 1372.48 703.93 1372.81 690.04 1381.36 681.49 1394.22 681.49"/><line class="cls-8" x1="1101.67" y1="246.82" x2="1128.78" y2="246.82"/></g><g id="Logos"><g id="Carrefour"><path class="cls-26" d="m1428.16,821.94c1.29,0,2.31.96,2.31,2.41,0,1.35-.37,2.5-.37,3.85,0,1.06.37,2.12.37,3.08,0,1.73-1.57,2.6-3.04,2.6-2.03,0-2.95-.96-2.77-3.08,0-1.06,0-1.64-.65-2.5-.83-.87-2.03-1.16-3.14-1.16-4.61,0-5.07,4.82-5.07,8.48,0,3.95.46,8.28,5.26,8.28,1.01,0,2.12-.19,2.86-.87.92-.87.92-1.64.92-2.79,0-.96-.09-1.54.46-2.31.46-.77,1.29-1.16,2.21-1.16,2.31,0,3.41,1.83,3.41,4.14,0,5.78-5.26,8.48-10.15,8.48-3.32,0-6.46-1.06-8.86-3.66-2.21-2.5-3.14-6.74-3.14-10.02,0-3.08.55-6.84,2.21-9.44,1.84-2.99,5.17-4.53,8.49-4.53,2.49,0,4.61.77,6.36,2.7-.28-1.54.74-2.6,2.31-2.5h0Z"/><path class="cls-26" d="m1440.15,833.59c0,1.73-1.57,2.5-3.14,2.5-1.75,0-3.32-1.35-3.32-3.18,0-3.95,5.17-4.62,8.02-4.62,1.84,0,4.34.19,5.9,1.16,2.12,1.35,2.31,3.56,2.31,5.87v7.13c0,.48-.09,1.83.55,1.83.37,0,.55-.1.92-.1,1.2,0,1.84,1.06,1.84,2.22,0,2.12-2.12,2.99-3.78,2.99s-3.6-.67-4.15-2.5c-1.75,1.73-3.97,2.5-6.27,2.5-3.32,0-6.55-1.83-6.55-5.78,0-9.05,11.35-4.33,11.35-9.44,0-1.44-1.2-2.12-2.4-2.12-.65,0-1.2.1-1.2.87l-.09.67h0Zm3.6,6.45c-1.01,1.25-5.26.58-5.26,2.7,0,1.35,1.01,1.73,2.03,1.73,2.12,0,3.14-1.35,3.14-3.56l.09-.87h0Z"/><path class="cls-26" d="m1458.05,836.1c0-.48.18-2.7-.65-2.7-.37,0-.74.29-1.2.29-1.2,0-1.57-1.06-1.57-2.22,0-1.44.65-2.6,1.84-2.6,1.11,0,1.84.39,2.49.39.83,0,1.57-.39,2.4-.39,1.11,0,1.2.67,1.2,1.54v2.89c.65-3.08,2.95-4.82,6-4.82,2.49,0,4.8,2.02,4.8,4.82,0,1.93-1.2,3.76-3.14,3.76-1.38,0-2.58-.96-2.58-2.41,0-.58.28-1.06.46-1.54-4.06-.29-4.15,5.59-4.15,8.57,0,.48-.18,2.7.65,2.7.37,0,.74-.29,1.2-.29,1.2,0,1.66.96,1.66,2.22,0,1.35-.65,2.6-1.84,2.6-2.03-.1-3.51-.48-4.98-.48-1.29,0-2.77.39-4.06.48-1.2,0-1.84-1.25-1.84-2.6,0-1.25.46-2.22,1.57-2.22.46,0,.92.29,1.2.29.83,0,.65-2.22.65-2.7l-.09-5.59h0Z"/><path class="cls-26" d="m1478.07,836.1c0-.48.18-2.7-.65-2.7-.37,0-.74.29-1.2.29-1.2,0-1.66-1.06-1.66-2.22,0-1.44.65-2.6,1.84-2.6,1.11,0,1.84.39,2.58.39s1.57-.39,2.4-.39c1.01,0,1.11.67,1.11,1.54v2.89c.65-3.08,2.95-4.82,6-4.82,2.58,0,4.8,2.02,4.8,4.82,0,1.93-1.2,3.76-3.14,3.76-1.38,0-2.58-.96-2.58-2.41,0-.58.28-1.06.46-1.54-4.15-.29-4.24,5.59-4.24,8.57,0,.48-.18,2.7.65,2.7.37,0,.74-.29,1.2-.29,1.2,0,1.57.96,1.57,2.22,0,1.35-.65,2.6-1.84,2.6-2.03-.1-3.41-.48-4.89-.48-1.38,0-2.86.39-4.15.48-1.2,0-1.84-1.25-1.84-2.6,0-1.25.46-2.22,1.66-2.22.46,0,.83.29,1.2.29.83,0,.65-2.22.65-2.7l.09-5.59h0Z"/><path class="cls-26" d="m1501.49,839.85c-.74,0-1.66-.29-1.66.77,0,2.12,1.66,3.85,3.78,3.85,3.14,0,2.95-2.99,5.72-2.99,1.38,0,2.58.87,2.58,2.31,0,1.73-1.2,3.08-2.58,3.95-1.66,1.16-3.78,1.54-5.81,1.54-6,0-9.69-4.24-9.69-10.4s3.6-10.59,9.59-10.59c2.12,0,4.52.48,6.18,2.12,1.75,1.64,2.67,4.24,2.67,6.74,0,2.22-.28,2.79-2.4,2.79l-8.39-.1h0Zm3.41-4.24c.55,0,1.2.29,1.2-.58,0-.58-.37-1.35-.74-1.64-.55-.48-1.2-.67-2.03-.67-1.01,0-1.75.19-2.49.96-.37.39-.92.96-.92,1.44,0,.77,1.2.48,1.57.48h3.41Z"/><path class="cls-26" d="m1522.06,841.59c0,.48-.18,2.7.65,2.7.37,0,.65-.29,1.2-.29,1.2,0,1.57.96,1.57,2.22,0,1.35-.55,2.6-2.12,2.6-1.48-.1-2.95-.48-4.52-.48-1.38,0-2.77.39-3.97.48-1.38,0-2.03-1.25-2.03-2.6,0-1.25.46-2.22,1.57-2.22.46,0,.83.29,1.2.29.74,0,.65-2.22.65-2.7v-7.03c0-1.35.09-1.44-1.2-1.44-1.38,0-2.21-.39-2.21-2.02,0-1.54.55-2.31,2.03-2.31,1.11,0,1.38.1,1.38-1.25.18-4.14,3.6-5.87,7.19-5.87,1.2,0,2.67.29,3.78.77,1.2.67,2.12,1.93,2.12,3.37,0,1.73-1.11,3.08-2.77,3.08-1.2,0-2.49-.96-2.49-2.31,0-.48.18-.67.37-1.06-.28-.19-.46-.19-.65-.19-1.38,0-1.84.87-1.84,2.22,0,1.25.09,1.25,1.2,1.25,1.48,0,2.58.1,2.58,2.12,0,1.73-.74,2.22-2.31,2.22-1.48,0-1.48-.1-1.48,1.44l.09,7.03h0Z"/><path class="cls-26" d="m1545.68,838.6c0,6.36-2.95,10.79-9.41,10.79s-9.78-3.95-9.78-10.5,3.41-10.5,9.69-10.5c6-.1,9.5,4.04,9.5,10.21h0Zm-9.5-5.39c-2.95-.1-3.69,3.08-3.69,5.68,0,2.31.65,5.68,3.41,5.68,1.2,0,2.31-.39,2.95-1.64.55-1.16.83-2.7.83-3.95,0-2.6-.65-5.87-3.51-5.78h0Z"/><path class="cls-26" d="m1548.26,836.1c0-.48.09-2.7-.65-2.7-.46,0-.74.29-1.2.29-1.2,0-1.57-1.06-1.57-2.22,0-1.44.55-2.6,3.32-2.6.74,0,1.48.39,2.31.39s1.66-.39,2.58-.39c1.2,0,1.01,1.16,1.01,2.12v9.05c0,.87,0,2.22.46,2.99.46.67,1.2,1.16,2.03,1.16,1.11,0,2.03-.48,2.67-1.44.74-1.25.83-2.5.83-3.95v-2.5c0-.48.18-2.7-.65-2.7-.37,0-.74.29-1.2.29-1.29,0-1.66-1.06-1.66-2.22,0-1.44.65-2.6,3.14-2.6.74,0,1.48.39,2.31.39s1.66-.39,2.58-.39c1.29,0,1.2.87,1.2,1.83v10.88c0,.48-.18,2.7.65,2.7.37,0,.74-.29,1.2-.29,1.2,0,1.57.96,1.57,2.22,0,1.35-.65,2.6-2.12,2.6-.92-.1-1.75-.48-2.58-.48s-1.66.39-2.31.48c-1.38-.1-1.29-1.25-1.29-2.02v-.77c-1.38,2.12-3.97,3.18-6.46,3.18-1.84,0-3.97-.67-5.07-2.41-1.11-1.54-.92-3.85-.92-5.78l-.18-5.1h0Z"/><path class="cls-26" d="m1574.18,836.1c0-.48.09-2.7-.65-2.7-.46,0-.74.29-1.2.29-1.2,0-1.57-1.06-1.57-2.22,0-1.44.55-2.6,1.84-2.6,1.11,0,1.75.39,2.49.39.83,0,1.57-.39,2.4-.39,1.11,0,1.2.67,1.2,1.54v2.89c.65-3.08,2.95-4.82,5.9-4.82,2.58,0,4.8,2.02,4.8,4.82,0,1.93-1.2,3.76-3.04,3.76-1.38,0-2.58-.96-2.58-2.41,0-.58.28-1.06.46-1.54-4.06-.29-4.15,5.59-4.15,8.57,0,.48-.18,2.7.65,2.7.37,0,.65-.29,1.2-.29,1.2,0,1.57.96,1.57,2.22,0,1.35-.55,2.6-1.84,2.6-1.94-.1-3.41-.48-4.89-.48-1.38,0-2.77.39-4.06.48-1.29,0-1.84-1.25-1.84-2.6,0-1.25.46-2.22,1.57-2.22.46,0,.83.29,1.2.29.74,0,.65-2.22.65-2.7l-.09-5.59h0Z"/><path class="cls-26" d="m1681.46,838.41c0,.48-.37.87-.37.87l-19.92,20.8c-.74.77-1.29.29-1.01-.39.46-1.06,1.29-2.12,2.03-4.72,1.01-3.66,1.01-6.74.55-8.48-.46-1.73-2.4-5.1-6.55-5.1-5.44,0-7.01,5.2-6.92,7.13.09,1.25,0,3.18,1.94,4.91,1.38,1.35,2.86.77,3.14.77.37-.1,1.11-.48,1.11.67,0,1.44-1.2,3.18-2.03,3.95-.74.77-3.51,3.08-7.29,3.08-2.31,0-4.98-1.16-7.01-3.47-1.48-1.73-2.4-3.85-3.32-6.74-1.66-5.3-2.03-9.25-2.03-13.48,0-3.76.37-7.9,2.03-13.19.83-2.79,2.03-5.39,3.32-6.93,1.84-2.41,4.7-3.37,7.01-3.37,3.87,0,6.55,2.22,7.29,2.99.83.77,2.03,2.5,2.03,3.95,0,1.25-.74.77-1.11.67-.37,0-1.75-.48-3.14.77-1.94,1.73-1.84,3.76-1.94,5.01-.09,1.83,1.48,7.03,6.92,7.03,4.15,0,6.18-3.37,6.55-5.1s.37-4.82-.55-8.48c-.74-2.6-1.48-3.66-2.03-4.62-.28-.58.28-1.25,1.01-.39l19.92,20.71c0,.29.37.67.37,1.16h0Z"/><path class="cls-26" d="m1608.12,838.21c0,.48.37.87.37.87l21.31,21.28c.46.48.65,0,.46-.48-.09-.29-.18-.48-.83-1.44-5.81-8.57-5.63-20.22-5.63-20.22,0,0-.18-11.65,5.63-20.22.65-1.06.74-1.25.83-1.44.18-.48,0-.96-.46-.48l-21.31,21.28s-.37.48-.37.87h0Z"/></g></g><polygon id="Alba_IuliaGF41" class="cls-3" points="836.35 120.46 835.71 264.93 857.43 264.93 856.95 236.55 973.69 236.23 973.04 156.94 924.4 156.94 924.56 120.46 836.35 120.46"/><polygon id="Alba_IuliaGF42" class="cls-3" points="926.02 120.46 926.18 155.32 974.82 155.16 974.82 163.1 1001.9 156.61 1001.25 121.27 926.02 120.46"/><polygon id="Alba_IuliaGF43" class="cls-3" points="1003.36 129.21 1003.85 156.29 1049.09 144.94 1049.09 121.43 1027.85 121.27 1027.85 135.54 1008.87 135.54 1008.87 129.05 1003.36 129.21"/><polygon id="Alba_IuliaGF40" class="cls-3" points="858.34 238.37 859.13 265.03 979.29 265.23 974.01 238.17 858.34 238.37"/><polygon id="Alba_IuliaGF38-39" class="cls-3" points="853.24 276.71 853.24 280.18 857.03 280.18 857.03 287.77 858.88 287.77 858.88 304.15 867.45 304.15 867.45 318.14 987.84 318.14 981.88 276.92 853.24 276.71"/><polygon id="Alba_IuliaGF37" class="cls-3" points="857.47 305.78 857.47 348.95 992.94 348.95 988.28 319.77 865.71 319.77 865.71 305.78 857.47 305.78"/><path id="Alba_IuliaGF36" class="cls-3" d="m835.25,345.68v35.76h164.68l-6.8-30.97h-137.48v-17h-8.56v12.34s-12.09.13-11.83-.13Z"/><path id="Alba_IuliaGF35" class="cls-3" d="m834.94,383.35v47.06h174.88l-9.56-47.21s-165.55.38-165.32.15Z"/><polygon id="Alba_IuliaGF34" class="cls-3" points="834.94 432.24 832.67 536.38 916.92 536.53 917.07 492.96 1024.55 493.11 1010.13 431.93 834.94 432.24"/><polygon id="Alba_IuliaGF33" class="cls-3" points="918.74 494.78 918.74 536.68 1036.85 537.29 1025.01 494.78 918.74 494.78"/><polygon id="Alba_IuliaGF31-32" class="cls-3" points="907.66 547.61 907.66 591.18 1054.61 591.18 1041.4 547.61 907.66 547.61"/><polygon id="Alba_IuliaGF30" class="cls-3" points="907.81 592.85 907.96 672.4 934.83 672.25 935.29 637.94 1069.03 638.09 1054.91 592.55 907.81 592.85"/><path id="Alba_IuliaGF29" class="cls-3" d="m936.96,639.76l-.3,32.49,143,.3v-3.95l-10.17-29s-132.83.46-132.53.15Z"/><polygon id="Alba_IuliaGF28" class="cls-3" points="1030.04 710.11 1029.23 818.36 1148.05 818.57 1148.05 682.28 1078.99 682.28 1078.99 710.51 1030.04 710.11"/><path id="Alba_IuliaGF27" class="cls-3" d="m1150.08,682.48v138.52l-43.87-.41.2,44.89,107.24-.2v-183s-63.98-.2-63.57.2Z"/><path id="Alba_IuliaGF26" class="cls-3" d="m1215.38,682.18l.09,44.65h21.93l-.27-44.73s-21.84.18-21.75.09Z"/><path id="Alba_IuliaGF25" class="cls-3" d="m1215.43,864.84h40.17l-.24,22.04h44.08l1.47-204.26h-61.96l.49,46.04-23.76.24s0,135.68-.24,135.93Z"/><polygon id="Alba_IuliaGF24" class="cls-3" points="1302.87 682.65 1301.49 889.14 1255.36 889.14 1255.09 914.4 1369.32 914.4 1369.32 741.41 1310.83 682.65 1302.87 682.65"/><polygon id="Alba_IuliaG43" class="cls-3" points="1380.23 740.2 1380.23 753.23 1395.53 753.3 1395.6 740.2 1380.23 740.2"/><polygon id="Alba_IuliaG44" class="cls-3" points="1397.02 740.27 1397.02 753.16 1408.35 753.23 1408.35 740.34 1397.02 740.27"/><path id="Alba_IuliaG45" class="cls-3" d="m1409.84,740.27v12.82h10.76v-12.75s-10.84-.14-10.76-.07Z"/><polygon id="Alba_IuliaG46" class="cls-3" points="1380.31 754.72 1380.23 914.63 1380.87 914.7 1381.44 951.89 1413.1 952.24 1412.88 935.17 1534.63 935.24 1535.05 996.65 1626.06 997.85 1625.21 914.49 1663.59 914.56 1664.23 940.41 1703.47 941.12 1704.17 741.33 1422.02 740.34 1421.95 754.79 1380.31 754.72"/><path id="Alba_IuliaG26-27" class="cls-3" d="m1728.32,641.25v33.59h-28.37v56.6h11.29v27.95h46.02v-118s-29.08-.14-28.94-.14Z"/><polygon id="Alba_IuliaG25" class="cls-3" points="1700.09 658.75 1700.09 672.73 1726.48 672.73 1726.48 658.9 1700.09 658.75"/><path id="Alba_IuliaG24" class="cls-3" d="m1699.8,641.25v15.95h26.82v-15.95s-26.82.28-26.82,0Z"/><path id="Alba_IuliaG23" class="cls-3" d="m1700.38,613.76v18.39h56.87v-18.39s-56.95.07-56.87,0Z"/><path id="Alba_IuliaG22" class="cls-3" d="m1700.38,594.41v17.88h56.8v-17.88s-56.8-.07-56.8,0Z"/><polygon id="Alba_IuliaG21" class="cls-3" points="1700.38 574.18 1700.38 592.94 1757.33 593.08 1757.33 574.03 1700.38 574.18"/><polygon id="Alba_IuliaG20" class="cls-3" points="1621.13 574.84 1621.13 589.87 1666.38 589.87 1667.91 574.39 1621.13 574.84"/><polygon id="Alba_IuliaG19" class="cls-3" points="1621.22 591.4 1621.22 623.15 1661.7 623.15 1666.29 591.49 1621.22 591.4"/><polygon id="Alba_IuliaG18" class="cls-3" points="1641.73 624.5 1641.73 651.48 1652.61 651.48 1658.73 643.93 1661.7 624.59 1641.73 624.5"/><path id="Alba_IuliaG17" class="cls-3" d="m1621.22,624.5v27.17h19.07v-26.99s-19.16-.09-19.07-.18Z"/><polygon id="Alba_IuliaG16" class="cls-3" points="1602.96 607.5 1602.96 651.66 1619.6 651.66 1619.6 607.59 1602.96 607.5"/><polygon id="Alba_IuliaG15" class="cls-3" points="1570.22 607.77 1570.39 647.89 1569.5 647.8 1569.5 651.57 1601.61 651.66 1601.61 607.5 1570.22 607.77"/><polygon id="Alba_IuliaG14" class="cls-3" points="1535.4 607.95 1535.67 651.57 1558.88 651.57 1558.7 607.68 1535.4 607.95"/><polygon id="Alba_IuliaG13" class="cls-3" points="1513.18 608.04 1513.18 651.57 1534.05 651.57 1533.87 607.86 1513.18 608.04"/><path id="Alba_IuliaG12" class="cls-3" d="m1490.79,630.26v21.41h20.78v-21.32s-20.91.04-20.78-.09Z"/><path id="Alba_IuliaG11" class="cls-3" d="m1470.37,630.35v21.32h18.89v-21.32s-19.03.13-18.89,0Z"/><polygon id="Alba_IuliaG10" class="cls-3" points="1439.33 630.26 1439.6 651.66 1458.67 651.57 1458.58 630.35 1439.33 630.26"/><polygon id="Alba_IuliaG08-09" class="cls-3" points="1398.22 608.4 1398.22 651.57 1437.98 651.57 1437.8 628.91 1458.67 628.91 1458.58 608.31 1398.22 608.4"/><path id="Alba_IuliaG07" class="cls-3" d="m1381.67,628.01v23.48h15.02v-23.48s-14.93.09-15.02,0Z"/><polygon id="Alba_IuliaG05-06" class="cls-3" points="1352.26 608.58 1352.26 651.57 1380.05 651.57 1380.32 626.66 1396.69 626.48 1396.78 608.31 1352.26 608.58"/><polygon id="Alba_IuliaG04" class="cls-3" points="1321.49 608.49 1321.49 651.66 1342.18 651.66 1342.18 608.4 1321.49 608.49"/><path id="Alba_IuliaG03" class="cls-3" d="m1296.21,608.4v43h23.75v-42.91s-23.48-.09-23.75-.09Z"/><path id="Alba_IuliaG01-02" class="cls-3" d="m1249.08,608.4v43h45.7v-43s-45.7.18-45.7,0Z"/><polygon id="Alba_IuliaGF23" class="cls-3" points="1217.05 621.8 1217.41 651.39 1238.1 651.39 1238.28 621.71 1217.05 621.8"/><polygon id="Alba_IuliaGF21-22" class="cls-3" points="1178.55 607.59 1178.55 645.28 1186.74 651.66 1215.53 651.39 1215.53 620.27 1220.74 620.27 1220.65 607.86 1178.55 607.59"/><polygon id="Alba_IuliaGF20" class="cls-3" points="1151.21 590.59 1151.12 629.99 1177.11 644.29 1177.2 606.15 1177.83 606.06 1177.74 590.59 1151.21 590.59"/><path id="Alba_IuliaGF19" class="cls-3" d="m1110.37,590.59v6.21h14.21l.45,22.49,24.65,10.07v-38.86s-39.22.09-39.31.09Z"/><polygon id="Alba_IuliaGF18" class="cls-3" points="1110.28 598.23 1110.28 615.5 1123.5 618.65 1123.05 598.23 1110.28 598.23"/><path id="Alba_IuliaGF17" class="cls-3" d="m1085.27,590.5c.09.27,7.38,21.86,7.38,21.86l16.1,2.97v-24.92l-23.48.09Z"/><path id="Alba_IuliaGF16" class="cls-3" d="m1077.45,564.05l7.47,25.1h92.83v-25.1s-100.16.13-100.3,0Z"/><path id="Alba_IuliaGF15" class="cls-3" d="m1069.53,534.45l7.56,28.07h100.57v-16.1h-30.4l-.27-12.23s-77.36.18-77.45.27Z"/><polygon id="Alba_IuliaGF13-14" class="cls-3" points="1056.4 489.03 1068.99 532.83 1148.42 532.83 1148.78 544.98 1177.74 544.89 1178.01 489.03 1056.4 489.03"/><polygon id="Alba_IuliaGF12" class="cls-3" points="1043.74 437.41 1053.63 479.07 1177.95 479.07 1177.95 425.39 1085.94 425.39 1085.94 437.14 1043.74 437.41"/><polygon id="Alba_IuliaGF11" class="cls-3" points="1040 420.45 1043.88 435.81 1084.21 435.67 1084.07 420.45 1040 420.45"/><path id="Alba_IuliaGF10" class="cls-3" d="m1029.99,378.25l9.75,40.73h46.2v5.21h92.01v-45l-36.86-.53s-110.9-.2-111.1-.4Z"/><path id="Alba_IuliaGF09" class="cls-3" d="m1030.52,335.65v30.58h98.69v-48.74l-17.49-.13v18.29h-81.19Z"/><polygon id="Alba_IuliaGF07-08" class="cls-3" points="1030.66 286.78 1030.66 333.78 1110.25 333.78 1110.25 316.02 1141.76 316.02 1141.76 306.67 1119.99 306.67 1119.99 286.78 1030.66 286.78"/><path id="Alba_IuliaGF06" class="cls-3" d="m1030.79,260.87v24.3h89.07v-24.44s-89.2,0-89.07.13Z"/><polygon id="Alba_IuliaGF05" class="cls-3" points="1030.5 222.15 1030.5 249.61 1087.5 249.61 1087.5 235.63 1086.49 235.63 1086.49 222.51 1030.5 222.15"/><polygon id="Alba_IuliaGF04_B" class="cls-3" points="1030.71 207.67 1030.57 220.78 1061.48 220.78 1061.41 207.67 1030.71 207.67"/><polygon id="Alba_IuliaGF04_A" class="cls-3" points="1030.57 188.07 1030.57 206.3 1073.01 206.44 1072.94 177.84 1030.57 188.07"/><polygon id="Alba_IuliaGF03" class="cls-3" points="1074.38 177.55 1074.31 207.74 1062.71 207.67 1062.78 220.57 1088.22 220.64 1088.29 233.68 1094.7 233.68 1094.2 172.79 1074.38 177.55"/><polygon id="Alba_IuliaGF02" class="cls-3" points="1095.63 172.5 1096.18 233.69 1100.99 233.61 1100.83 231.33 1129.22 231.64 1129.06 229.36 1142.78 229.44 1142.86 215.87 1121.41 215.87 1121.49 166.98 1095.63 172.5"/><polygon id="Alba_IuliaGF01" class="cls-3" points="1122.76 166.83 1122.76 214.53 1142.78 214.53 1143.26 161.15 1122.76 166.83"/><polygon id="Alba_IuliaG41" class="cls-3" points="1381.62 682.08 1373.5 690.33 1373.14 703.17 1393.5 703.29 1393.5 682.08 1381.62 682.08"/><polygon id="Alba_IuliaG42" class="cls-3" points="1373.26 704.75 1373.26 715.65 1379.44 723.89 1393.26 723.89 1393.26 704.63 1373.26 704.75"/><path id="Alba_IuliaG40" class="cls-3" d="m1395.08,682.21v41.57h22.3v-41.57s-22.3.36-22.3,0Z"/><polygon id="Alba_IuliaG38-39" class="cls-10" points="1419.68 682.08 1419.68 723.65 1458.09 723.65 1458.09 682.33 1419.68 682.08"/><path id="Alba_IuliaG34-37" class="cls-1" d="m1469.49,682.21v41.57h86.17v-5.7h3.15v-7.88h-16.85v-28.12s-72.47.36-72.47.12Z"/><path id="Alba_IuliaG33" class="cls-2" d="m1543.53,682.08v26.54h15.15v-26.42s-15.15-.24-15.15-.12Z"/><path id="Alba_IuliaG31" class="cls-4" d="m1569.45,682.24v41.67h36.47v-41.76s-36.34.22-36.47.09Z"/><polygon id="Alba_IuliaG30" class="cls-9" points="1607.51 682.24 1607.51 723.83 1622.22 723.83 1622.22 682.07 1607.51 682.24"/><rect id="Alba_IuliaG32" class="cls-5" x="1623.72" y="682.15" width="25.11" height="41.5"/><polygon id="Alba_IuliaG29" class="cls-7" points="1650.15 682.24 1650.15 701.54 1671.03 701.54 1671.03 690.52 1664.6 682.15 1650.15 682.24"/><polygon id="Alba_IuliaG28" class="cls-12" points="1650.15 702.77 1650.15 723.74 1662.13 723.74 1670.59 715.72 1670.77 702.86 1650.15 702.77"/></svg>