<?xml version="1.0" encoding="utf-8"?>
<!-- Generator: Adobe Illustrator 25.4.1, SVG Export Plug-In . SVG Version: 6.00 Build 0)  -->
<svg version="1.0" id="Layer_4" xmlns="http://www.w3.org/2000/svg" xmlns:xlink="http://www.w3.org/1999/xlink" x="0px" y="0px"
	 viewBox="0 0 754.1 726.4" style="enable-background:new 0 0 754.1 726.4;" xml:space="preserve">
<style type="text/css">
	.st0{fill:#F1F2F2;}
	.st1{fill:none;stroke:#000000;stroke-width:2;stroke-miterlimit:10;}
	.st2{fill:none;stroke:#000000;stroke-miterlimit:10;}
	.st3{fill:#F47725;}
</style>
<g id="cladire">
	<g>
		<path class="st0" d="M561.9,719.6l-9-9.3H46.5v-77.1H26.8c-3.3,0-6-2.6-6.3-5.8L7.3,469.2V105.3h119.3l97.9-97.9L349.2,132
			c8.5-4.5,16.6-6.8,23.9-6.8c8.7,0,16.5,3.2,23.2,9.4l0.1,0.1l240.9,240.9c12.3,13,13.3,30.2,2.8,48.9l88.1,88.1v106.1l-44.9,44.9
			l56,56H561.9z"/>
		<path class="st0" d="M224.5,14.5l76.3,76.3l47.5,47.5c8.9-5.3,17.2-8,24.7-8c7.3,0,13.9,2.6,19.8,8l240.8,240.8
			c12.3,12.9,10.7,29.4,0.1,46.2l1.3,1.3l88,88v101.9l-47,47l51,51H564l-9-9.3l-9.3,0l-404.6,0H51.5v-75.7c0-0.7-0.6-1.3-1.3-1.3
			H26.8c-0.7,0-1.3-0.5-1.3-1.2L12.3,469V110.3h116.3L224.5,14.5 M224.5,0.3l-7.1,7.1l-92.9,92.9H12.3h-10v10V469v0.4l0,0.4
			l13.1,157.9c0.5,5.8,5.4,10.4,11.3,10.4h14.7v67.1v10h10H141l404.6,0l5.1,0l6.1,6.3l2.9,3h4.2h163.1h24.1l-17.1-17.1l-43.9-43.9
			l39.9-39.9l2.9-2.9v-4.1V514.7v-4.1l-2.9-2.9l-84-84c3.9-7.8,5.9-15.4,6.1-22.6c0.3-10.7-3.7-20.7-11.4-28.8l-0.1-0.1l-0.1-0.1
			L399.9,131.2l-0.1-0.1l-0.1-0.1c-7.7-7.1-16.6-10.7-26.6-10.7c-7.2,0-14.8,1.9-22.9,5.7l-42.2-42.2L231.6,7.4L224.5,0.3L224.5,0.3
			z"/>
		<path class="st1" d="M12.3,110.3h116.3l95.9-95.9l76.3,76.3l47.5,47.5c17.5-10.3,32.5-11.1,44.5,0l240.8,240.8
			c12.3,12.9,10.7,29.4,0.1,46.2l1.3,1.3l88,88v101.9l-47,47l51,51H564l-9-9.3l-9.3,0l-404.6,0H51.5v-75.7c0-0.7-0.6-1.3-1.3-1.3
			H26.8c-0.7,0-1.3-0.5-1.3-1.2L12.3,469V110.3z"/>
	</g>
</g>
<g id="magazine">
	<polygon class="st2" points="83.2,590.6 83.2,480.1 19.2,481.6 36,590.6 82.7,590.6 	"/>
	<polyline class="st2" points="187.9,705.3 187.9,649.7 135.9,649.7 135.9,705.3 	"/>
	<polyline class="st2" points="290.7,274.2 241.8,228.7 246.8,223.9 239.3,216.8 248.4,208.1 227.9,188.7 164.5,248.8 129.7,244.5 
		129.7,274.7 12.5,274.7 	"/>
	<line class="st2" x1="82.7" y1="328.3" x2="19.5" y2="328.3"/>
	<line class="st2" x1="19.5" y1="363.7" x2="82.7" y2="363.7"/>
	<polyline class="st2" points="12.5,450.9 57.2,450.9 57.2,471 82.7,471 82.7,328.3 82.7,288.1 31.8,288.1 31.8,292.4 19.5,292.4 
		19.5,403.4 	"/>
	<line class="st2" x1="82.7" y1="534.3" x2="27.4" y2="534.3"/>
	<line class="st2" x1="54.4" y1="480.7" x2="54.4" y2="534.3"/>
	<polyline class="st2" points="217,705.3 217,649.9 286.7,649.9 504.6,649.9 552.9,603.7 663.6,714.3 	"/>
	<polygon class="st2" points="558.9,529.5 508.6,577.2 352.8,429.4 373.5,409.7 397.8,432.7 427.3,404.7 	"/>
	<line class="st2" x1="295.6" y1="502.3" x2="325.1" y2="530.3"/>
	<polyline class="st2" points="318.6,536.5 326.3,543.9 334,536.7 347.9,549.9 366.7,532.1 	"/>
	<polyline class="st2" points="337.8,595.8 318.3,577.4 347.6,549.6 	"/>
	<polyline class="st2" points="318.3,577.4 290.2,550.7 267.4,529.1 275,521.9 304.3,550.1 325.5,530 345,511.5 	"/>
	<polyline class="st2" points="290.1,550.6 281.5,558.7 258.8,537.2 	"/>
	<path class="st2" d="M321.5,580.4l-8.1,7.7l-3,2.9l-0.4,0.3l5.4,5.2c35.5,0.9,68.5-7.2,93.4-24.3l-64.5-61.2l-27.9-26.5l-1.1-0.9
		l-46.5,44.1l-46.8,44.4c26,14.4,55.8,22.4,85.1,24.1l-13-12.8l-15-14.2l-3.7,3.5l-4.3-4.1l10.4-9.9"/>
	<path class="st2" d="M283.5,593.5"/>
	<path class="st2" d="M294.1,583.4"/>
	<line class="st2" x1="233.5" y1="561.3" x2="262" y2="588.3"/>
	<polyline class="st2" points="348.3,138.3 390,180 290.7,274.2 390,368.3 340.5,415.2 171.1,254.5 212.2,215.6 278.8,278.8 
		287.2,270.9 	"/>
	<line class="st2" x1="502.3" y1="476.4" x2="452" y2="524.1"/>
	<line class="st2" x1="19.5" y1="382.6" x2="82.7" y2="382.6"/>
	<polyline class="st2" points="82.7,403.4 19.5,403.4 19.5,424.9 	"/>
	<line class="st2" x1="12.5" y1="424.9" x2="82.7" y2="424.9"/>
	<polyline class="st2" points="23,598.1 51.1,598.1 51.1,628.8 	"/>
	<polyline class="st2" points="217,649.9 200.7,649.9 200.7,671.4 217,671.4 	"/>
	<polyline class="st2" points="465.5,649.9 465.5,678.4 481.9,678.4 481.9,705.3 	"/>
	<polyline class="st2" points="543,613.1 530.1,600.2 571.5,558.7 676.3,663.4 	"/>
	<polyline class="st2" points="530.1,600.2 516.2,586.3 533.7,568.8 547.5,582.7 	"/>
	<path class="st2" d="M302.5,379.2"/>
	<polyline class="st2" points="369.7,387.5 343.9,363.1 350.7,356.2 337.9,343.9 350.7,331 	"/>
	<line class="st2" x1="344.1" y1="363" x2="315.6" y2="391.4"/>
</g>
<g id="logo">
	<g>
		<path d="M94.6,214.6c-4.3-4-3.9-9.9-0.1-13.6c2.6-2.4,5.9-3.4,8.8-2.9l0,3.5c-2.1-0.2-4.3,0.3-5.9,1.8c-2.5,2.3-2.5,6,0.1,8.5
			c2.6,2.4,6.3,2.4,8.8,0c1.6-1.5,2.2-3.7,2-5.7l3.6-0.2c0.4,2.7-0.5,6-3.2,8.6C104.8,218.3,98.8,218.6,94.6,214.6z"/>
		<path d="M105.5,191l13.8,13.1l-2.8,2.6l-13.8-13.1L105.5,191z"/>
		<path d="M120.4,177l13.8,13.1l-1.9,1.8l-15.6-1.2l8.5,8l-2.7,2.6l-13.8-13.1l1.8-1.7l15.8,1.2l-8.5-8.1L120.4,177z"/>
		<path d="M123.4,174l9.4-8.9l2.6,2.4l-6.6,6.2l3,2.8l6.1-5.8l2.6,2.4l-6.1,5.8l3.1,2.9l6.6-6.2l2.6,2.4l-9.4,8.9L123.4,174z"/>
		<path d="M135.3,162.7l1.8-1.7l13.3,2.3l-2.5-12.5l1.9-1.8l13.8,13.1l-2.8,2.6l-7.8-7.4l1.8,9.3l-1,0.9l-9.8-1.7l7.8,7.4l-2.7,2.6
			L135.3,162.7z"/>
		<path d="M171.1,149.4l-4.8,4.6l1.9,3.8l-2.9,2.7l-8.5-18.1l2.3-2.1l19,8.2l-2.9,2.8L171.1,149.4z M164.6,150.8l3.3-3.1l-6.2-2.8
			L164.6,150.8z"/>
		<path d="M176.2,137.2c-4.3-4-3.9-9.9-0.1-13.6c2.6-2.4,5.9-3.4,8.8-2.9l0,3.5c-2.1-0.2-4.3,0.3-5.9,1.8c-2.5,2.3-2.5,6,0.1,8.5
			c2.6,2.4,6.3,2.4,8.8,0c1.6-1.5,2.2-3.7,2-5.7l3.6-0.2c0.4,2.7-0.5,6-3.2,8.6C186.5,140.9,180.5,141.2,176.2,137.2z"/>
		<path d="M187.1,113.6l13.8,13.1l-2.8,2.6l-13.8-13.1L187.1,113.6z"/>
		<path d="M191.6,114.4l-2.7-2.5l10.7-10.1l2.7,2.5l-3.9,3.7l11.1,10.6l-2.8,2.7l-11.1-10.6L191.6,114.4z"/>
		<path d="M216.7,102.8l4.8,4.5l-2.8,2.6l-4.8-4.5l-13.8-4.1l3.2-3l9,3l-3.1-8.6l3.2-3L216.7,102.8z"/>
	</g>
	<g>
		<path d="M20.9,308.6h0.8l2.3,3.2l2.3-3.2h0.8v5.7h-1.2V311l-1.7,2.4h-0.4l-1.7-2.4v3.2h-1.2V308.6z"/>
		<path d="M28.5,308.6h4.1v1.1h-2.8v1.2h2.6v1.1h-2.6v1.3h2.8v1.1h-4.1V308.6z"/>
		<path d="M33.1,313.3l0.7-0.8c0.4,0.5,1,0.8,1.6,0.8c0.5,0,0.9-0.3,0.9-0.6c0-0.3-0.2-0.5-0.5-0.6c-0.4-0.2-0.9-0.3-1.3-0.5
			c-0.5-0.3-0.9-0.7-0.9-1.4c0-0.9,0.8-1.7,2-1.7c0.7,0,1.4,0.2,2,0.8l-0.6,0.8c-0.4-0.4-0.9-0.5-1.3-0.5c-0.5,0-0.8,0.2-0.8,0.5
			c0,0.3,0.2,0.4,0.5,0.6c0.3,0.1,0.9,0.4,1.3,0.5c0.6,0.3,1,0.7,1,1.4c0,1-0.9,1.7-2.2,1.7C34.5,314.3,33.6,314,33.1,313.3z"/>
		<path d="M38.2,311.4c0-1.6,1.4-3,3.1-3c1.7,0,3.1,1.3,3.1,2.9c0,1.6-1.4,2.9-3.1,2.9C39.5,314.3,38.2,313,38.2,311.4z M43.1,311.4
			c0-1.1-0.8-1.8-1.9-1.8c-1,0-1.9,0.8-1.9,1.8c0,1,0.8,1.8,1.9,1.8C42.3,313.2,43.1,312.4,43.1,311.4z"/>
		<path d="M49.7,310.4c0,1-0.6,1.8-2.2,1.8h-0.9v2h-1.2v-5.7h2.2C49.1,308.6,49.7,309.5,49.7,310.4z M48.5,310.4
			c0-0.4-0.3-0.8-0.9-0.8h-1v1.6h1C48.2,311.2,48.5,310.8,48.5,310.4z"/>
		<path d="M50.2,311.4c0-1.6,1.4-3,3.1-3c1.7,0,3.1,1.3,3.1,2.9c0,1.6-1.4,2.9-3.1,2.9C51.5,314.3,50.2,313,50.2,311.4z M55.2,311.4
			c0-1.1-0.8-1.8-1.9-1.8c-1,0-1.9,0.8-1.9,1.8c0,1,0.8,1.8,1.9,1.8C54.4,313.2,55.2,312.4,55.2,311.4z"/>
		<path d="M56.6,309.7v-1.1h4.6v1.1h-1.7v4.6h-1.2v-4.6H56.6z"/>
		<path d="M64.7,313h-2.1l-0.5,1.2h-1.3l2.3-5.7h1l2.2,5.7h-1.3L64.7,313z M62.9,312h1.4l-0.7-1.9L62.9,312z"/>
		<path d="M67.1,308.6h0.8l2.3,3.2l2.3-3.2h0.8v5.7h-1.2V311l-1.7,2.4H70l-1.7-2.4v3.2h-1.2V308.6z"/>
		<path d="M75.9,308.6v5.7h-1.2v-5.7H75.9z"/>
		<path d="M80.4,313h-2.1l-0.5,1.2h-1.3l2.3-5.7h1l2.2,5.7h-1.3L80.4,313z M78.7,312h1.4l-0.7-1.9L78.7,312z"/>
	</g>
	<g>
		<path d="M32.7,348.5l-0.7,0.8v1.4h-1.2v-5.7h1.2v2.7l2.3-2.7h1.4l-2.2,2.6l2.3,3.1h-1.5L32.7,348.5z"/>
		<path d="M36.4,345.1h4.1v1.1h-2.8v1.2h2.6v1.1h-2.6v1.3h2.8v1.1h-4.1V345.1z"/>
		<path d="M46.6,345.1v5.7h-0.8l-3.1-3.5v3.5h-1.2v-5.7h0.8l3.2,3.5v-3.5H46.6z"/>
		<path d="M49.1,345.1h1.3l1.2,3.8l1.4-3.8h0.8l1.4,3.8l1.2-3.8h1.3l-2,5.7h-1l-1.3-3.7l-1.3,3.7h-1L49.1,345.1z"/>
		<path d="M57.9,347.9c0-1.6,1.4-3,3.1-3c1.7,0,3.1,1.3,3.1,2.9c0,1.6-1.4,2.9-3.1,2.9C59.2,350.9,57.9,349.6,57.9,347.9z
			 M62.9,347.9c0-1.1-0.8-1.8-1.9-1.8c-1,0-1.9,0.8-1.9,1.8c0,1,0.8,1.8,1.9,1.8C62,349.7,62.9,349,62.9,347.9z"/>
		<path d="M67,348.5l-0.7,0.8v1.4h-1.2v-5.7h1.2v2.7l2.3-2.7H70l-2.2,2.6l2.3,3.1h-1.5L67,348.5z"/>
	</g>
	<g>
		<path d="M38.1,443.6l1.2-2.2c1.3,0.8,2.5,1,3.4,1c1.5,0,2.4-0.7,2.4-1.7s-0.9-1.7-2.3-1.7H41v-2.5h1.6c1.4,0,2.2-0.7,2.2-1.6
			c0-1-0.9-1.6-2-1.6c-0.9,0-1.7,0.3-2.9,1.1l-1.4-2c1.1-1,2.9-1.7,4.7-1.7c2.7,0,4.6,1.6,4.6,3.6c0,1.5-1.1,2.7-2.5,3.1v0.1
			c1.9,0.4,2.9,1.8,2.9,3.4c0,2.4-2.2,4.1-5.3,4.1C41.1,445,39.6,444.4,38.1,443.6z"/>
		<path d="M51.3,430.9h9.8v2.6h-6.8v3.1h6v2.6h-6v5.5h-2.9V430.9z"/>
	</g>
	<g>
		<path d="M481.5,546.9l3.9-3.9l1,1l-2.7,2.7l1.2,1.2l2.4-2.4l1,1l-2.4,2.4l2.2,2.2l-1.2,1.2L481.5,546.9z"/>
		<path d="M493.2,543.8l-2,2l0.7,1.6l-1.2,1.2l-3.3-7.7l0.9-0.9l7.7,3.3l-1.2,1.2L493.2,543.8z M490.6,544.5l1.4-1.4l-2.5-1.2
			L490.6,544.5z"/>
		<path d="M492.5,536l5.5,5.5l-1.2,1.2l-5.5-5.5L492.5,536z"/>
		<path d="M499.1,536.3l-0.7,0.7l2,2l-1.2,1.2l-5.5-5.5l2.2-2.2c1.4-1.4,2.8-1.2,3.7-0.2c0.7,0.7,1,1.7,0.4,2.8l3.5,0.7l-1.4,1.4
			L499.1,536.3z M497.4,536l0.9-0.9c0.6-0.6,0.5-1.3,0.2-1.6c-0.4-0.4-1-0.5-1.5,0.1l-1,1L497.4,536z"/>
		<path d="M504.9,530.7l1.9,1.9l-1.2,1.2l-1.9-1.9l-5.6-1.6l1.3-1.3l3.6,1.2l-1.2-3.6l1.3-1.3L504.9,530.7z"/>
		<path d="M504.1,524.4l1.2-1.2l4.4,4.4l2.9-2.9l1.1,1.1l-4.1,4.1L504.1,524.4z"/>
		<path d="M516.3,520.7l-2,2l0.7,1.6l-1.2,1.2l-3.3-7.7l0.9-0.9l7.7,3.3l-1.2,1.2L516.3,520.7z M513.6,521.4l1.4-1.4l-2.5-1.2
			L513.6,521.4z"/>
		<path d="M519.3,509.1l5.5,5.5l-0.8,0.8l-6.4-0.4l3.4,3.4l-1.1,1.1l-5.5-5.5l0.7-0.7l6.4,0.3l-3.4-3.4L519.3,509.1z"/>
		<path d="M520.6,507.9l2.3-2.3c1.7-1.7,3.8-1.7,5.5,0c1.7,1.7,1.7,3.8-0.1,5.6l-2.2,2.2L520.6,507.9z M527.3,510
			c1-1,0.8-2.3-0.1-3.3c-0.9-0.9-2.2-1.1-3.2-0.1l-1.1,1.1l3.4,3.4L527.3,510z"/>
	</g>
	<g>
		<path d="M140.6,672.2h0.9l2.5,3.5l2.5-3.5h0.9v6.1H146v-3.5l-1.9,2.6h-0.4l-1.9-2.6v3.5h-1.3V672.2z"/>
		<path d="M148.8,672.2h4.4v1.1h-3.1v1.3h2.9v1.1h-2.9v1.4h3.1v1.1h-4.4V672.2z"/>
		<path d="M156.4,676.1h-0.8v2.2h-1.3v-6.1h2.5c1.5,0,2.2,0.9,2.2,1.9c0,0.7-0.4,1.5-1.3,1.8l1.6,2.4h-1.5L156.4,676.1z
			 M155.7,674.9h1.1c0.7,0,1-0.4,1-0.8c0-0.4-0.3-0.8-0.9-0.8h-1.2V674.9z"/>
		<path d="M159.8,675.2c0-1.9,1.5-3.2,3.3-3.2c1.2,0,2.2,0.5,2.8,1.3l-0.9,0.8c-0.4-0.5-1.1-0.9-1.8-0.9c-1.2,0-2.1,0.8-2.1,2
			c0,1.1,0.9,2,2.1,2c0.8,0,1.4-0.4,1.9-0.9l0.9,0.8c-0.6,0.7-1.6,1.3-2.9,1.3C161.3,678.4,159.8,677.1,159.8,675.2z"/>
		<path d="M170.2,677H168l-0.5,1.3h-1.4l2.5-6.1h1.1l2.4,6.1h-1.4L170.2,677z M168.3,675.9h1.5l-0.8-2L168.3,675.9z"/>
		<path d="M171.7,673.3v-1.2h5v1.2h-1.8v4.9h-1.3v-4.9H171.7z"/>
		<path d="M176.9,675.2c0-1.8,1.5-3.2,3.4-3.2c1.9,0,3.4,1.4,3.4,3.2c0,1.8-1.5,3.2-3.4,3.2C178.3,678.4,176.9,677,176.9,675.2z
			 M182.3,675.2c0-1.1-0.9-2-2-2c-1.1,0-2,0.8-2,2c0,1.1,0.9,2,2,2C181.4,677.2,182.3,676.3,182.3,675.2z"/>
	</g>
	<g>
		<path d="M204.9,659.2l0.3-0.4c0.2,0.2,0.5,0.4,0.7,0.4c0.2,0,0.4-0.1,0.4-0.3c0-0.1-0.1-0.2-0.3-0.3c-0.2-0.1-0.4-0.1-0.6-0.2
			c-0.2-0.1-0.4-0.3-0.4-0.7c0-0.4,0.4-0.8,1-0.8c0.3,0,0.7,0.1,0.9,0.4l-0.3,0.4c-0.2-0.2-0.4-0.2-0.6-0.2c-0.2,0-0.4,0.1-0.4,0.3
			c0,0.1,0.1,0.2,0.2,0.3c0.1,0.1,0.4,0.2,0.6,0.3c0.3,0.1,0.5,0.3,0.5,0.7c0,0.5-0.4,0.8-1,0.8
			C205.5,659.7,205.1,659.6,204.9,659.2z"/>
		<path d="M207.4,658.7V657h0.6v1.6c0,0.4,0.2,0.5,0.5,0.5c0.3,0,0.5-0.2,0.5-0.5V657h0.6v1.7c0,0.7-0.5,1-1.1,1
			C207.9,659.7,207.4,659.4,207.4,658.7z"/>
		<path d="M212.6,657v2.7h-0.4l-1.4-1.6v1.6h-0.6V657h0.4l1.5,1.6V657H212.6z"/>
		<path d="M203.3,663.4h-1l-0.2,0.6h-0.6l1.1-2.7h0.5l1.1,2.7h-0.6L203.3,663.4z M202.5,662.9h0.7l-0.3-0.9L202.5,662.9z"/>
		<path d="M204.5,661.3h0.4l1.1,1.5l1.1-1.5h0.4v2.7h-0.6v-1.5l-0.8,1.1h-0.2l-0.8-1.1v1.5h-0.6V661.3z"/>
		<path d="M207.8,662.7c0-0.8,0.6-1.4,1.5-1.4s1.5,0.6,1.5,1.4c0,0.8-0.6,1.4-1.5,1.4C208.5,664,207.8,663.4,207.8,662.7z
			 M210.2,662.7c0-0.5-0.4-0.8-0.9-0.8c-0.5,0-0.9,0.4-0.9,0.8c0,0.5,0.4,0.8,0.9,0.8S210.2,663.1,210.2,662.7z"/>
		<path d="M211.2,663v-1.7h0.6v1.6c0,0.4,0.2,0.5,0.5,0.5c0.3,0,0.5-0.2,0.5-0.5v-1.6h0.6v1.7c0,0.7-0.5,1-1.1,1
			C211.7,664,211.2,663.7,211.2,663z"/>
		<path d="M214.8,663h-0.3v1h-0.6v-2.7h1.1c0.7,0,1,0.4,1,0.8c0,0.3-0.2,0.6-0.6,0.8l0.7,1h-0.7L214.8,663z M214.5,662.5h0.5
			c0.3,0,0.4-0.2,0.4-0.4c0-0.2-0.1-0.4-0.4-0.4h-0.5V662.5z"/>
	</g>
	<g>
		<path d="M287.2,671.7c0-2.7,2.2-4.6,4.9-4.6c1.6,0,2.9,0.6,3.8,1.4l-1.2,1.3c-0.6-0.6-1.6-1-2.5-1c-1.7,0-3,1.2-3,2.9
			c0,1.6,1.2,2.9,3,2.9c1,0,1.9-0.4,2.5-0.9v-1.2H292v-1.5h4.3v3.6c-1.1,1.1-2.6,1.8-4.2,1.8C289.2,676.2,287.2,674.3,287.2,671.7z"
			/>
		<path d="M301.6,673v3.1h-1.9V673l-3.2-5.8h2.2l2,3.9l2-3.9h2.2L301.6,673z"/>
		<path d="M306,667.2h1.2l3.7,5l3.6-5h1.3v8.8h-1.9v-5l-2.7,3.7h-0.6l-2.7-3.7v5H306V667.2z"/>
		<path d="M320.4,671.7c0-2.6,2.1-4.6,4.9-4.6c2.7,0,4.9,2,4.9,4.6c0,2.5-2.1,4.6-4.9,4.6C322.5,676.2,320.4,674.2,320.4,671.7z
			 M328.2,671.7c0-1.7-1.3-2.8-2.9-2.8c-1.6,0-2.9,1.2-2.9,2.8c0,1.6,1.3,2.8,2.9,2.8C326.9,674.5,328.2,673.3,328.2,671.7z"/>
		<path d="M339.6,667.2v8.8h-1.3l-4.8-5.4v5.4h-1.8v-8.8h1.2l4.9,5.5v-5.5H339.6z"/>
		<path d="M341.7,667.2h6.3v1.7h-4.4v1.9h4.1v1.7h-4.1v2h4.4v1.7h-6.3V667.2z"/>
	</g>
	<g>
		<path d="M591.9,640l0.4-0.4l3.2,0.6l-0.6-3l0.5-0.4l3.3,3.2l-0.7,0.6l-1.9-1.8l0.4,2.2l-0.2,0.2l-2.4-0.4l1.9,1.8l-0.7,0.6
			L591.9,640z"/>
		<path d="M596.2,636l2.3-2.1l0.6,0.6l-1.6,1.5l0.7,0.7l1.5-1.4l0.6,0.6l-1.5,1.4l0.7,0.7l1.6-1.5l0.6,0.6l-2.3,2.1L596.2,636z"/>
		<path d="M599.4,634.1l-0.6-0.6l2.6-2.5l0.6,0.6l-1,0.9l2.7,2.6l-0.7,0.6l-2.7-2.6L599.4,634.1z"/>
		<path d="M604.9,631.7l-0.4,0.4l1.2,1.2l-0.7,0.6l-3.3-3.2l1.3-1.2c0.8-0.7,1.6-0.6,2.2-0.1c0.4,0.4,0.6,1,0.3,1.6l2.1,0.5
			l-0.8,0.7L604.9,631.7z M604,631.5l0.5-0.5c0.4-0.4,0.3-0.7,0.1-0.9c-0.2-0.2-0.6-0.3-0.9,0l-0.6,0.6L604,631.5z"/>
		<path d="M606.3,629.6c-1-0.9-1-2.4,0-3.3c1-0.9,2.5-0.9,3.5,0c1,0.9,1,2.3,0,3.3C608.7,630.5,607.2,630.5,606.3,629.6z M609,626.9
			c-0.6-0.6-1.5-0.6-2.1,0c-0.6,0.5-0.6,1.4,0,2c0.6,0.6,1.5,0.6,2.1,0C609.6,628.4,609.7,627.5,609,626.9z"/>
		<path d="M612.1,622.9c0.6,0.5,0.7,1.4-0.1,2.2l-0.5,0.5l1.2,1.1l-0.7,0.6l-3.3-3.2l1.2-1.2C610.7,622.2,611.6,622.4,612.1,622.9z
			 M611.4,623.6c-0.2-0.2-0.6-0.3-1,0l-0.6,0.5l1,0.9l0.5-0.5C611.8,624.2,611.7,623.8,611.4,623.6z"/>
		<path d="M613,623.2c-1-0.9-1-2.4,0-3.3c1-0.9,2.5-0.9,3.5,0c1,0.9,1,2.3,0,3.3C615.4,624.1,613.9,624.1,613,623.2z M615.8,620.6
			c-0.6-0.6-1.5-0.6-2.1,0c-0.6,0.5-0.6,1.4,0,2c0.6,0.6,1.5,0.6,2.1,0C616.4,622,616.4,621.1,615.8,620.6z"/>
		<path d="M615.3,617.8l0.7-0.6l2.7,2.6l1.7-1.6l0.6,0.6l-2.4,2.2L615.3,617.8z"/>
		<path d="M618.8,614.5l3.3,3.2l-0.7,0.6l-3.3-3.2L618.8,614.5z"/>
		<path d="M622,616.7l-0.1-0.8c0.5,0.1,1-0.1,1.4-0.4c0.3-0.3,0.3-0.6,0.1-0.8c-0.2-0.2-0.4-0.1-0.7,0c-0.3,0.1-0.7,0.3-1,0.4
			c-0.5,0.1-0.9,0.1-1.4-0.3c-0.6-0.5-0.5-1.4,0.2-2c0.4-0.4,0.9-0.6,1.5-0.6l0.1,0.8c-0.4,0-0.8,0.2-1,0.4
			c-0.3,0.3-0.3,0.5-0.1,0.7c0.2,0.2,0.4,0.1,0.6,0.1c0.3-0.1,0.7-0.3,1.1-0.4c0.5-0.2,1-0.2,1.4,0.2c0.6,0.6,0.5,1.4-0.2,2.1
			C623.4,616.6,622.7,616.8,622,616.7z"/>
	</g>
	<g>
		<path d="M265.7,327.5c1,1,1.2,2.6-0.2,3.8l-3,2.9l-6.6-6.3l2.9-2.7c1.3-1.2,2.7-1,3.5-0.2c0.6,0.6,0.8,1.4,0.4,2.1
			C263.8,326.4,264.9,326.7,265.7,327.5z M258.4,327.7l1.4,1.4l1.3-1.2c0.6-0.6,0.5-1.2,0.1-1.5s-1-0.4-1.5,0.1L258.4,327.7z
			 M264.2,328.6c-0.4-0.4-1.2-0.5-1.9,0.1l-1.4,1.4l1.7,1.7l1.4-1.4C264.8,329.8,264.6,329,264.2,328.6z"/>
		<path d="M265,325.5c-1.9-1.8-1.9-4.7,0-6.5c1.9-1.8,5-1.8,6.9,0c1.9,1.8,1.9,4.6,0,6.5C269.9,327.3,266.9,327.3,265,325.5z
			 M270.5,320.3c-1.2-1.2-3-1.1-4.2-0.1c-1.1,1.1-1.2,2.8,0.1,4c1.2,1.1,3,1.1,4.2,0C271.7,323.1,271.7,321.4,270.5,320.3z"/>
		<path d="M268.8,315.6l1.4-1.4l5.8,2.9l-2.9-5.6l0.8-0.8l6,2.8l-3.1-5.5l1.4-1.4l4.4,8.3l-1.1,1.1l-5.7-2.8l2.9,5.4l-1.1,1.1
			L268.8,315.6z"/>
		<path d="M279,305.9l1.3-1.3l5.3,5.1l3.4-3.2l1.3,1.2l-4.7,4.4L279,305.9z"/>
		<path d="M285.9,299.4l6.6,6.3l-1.3,1.3l-6.6-6.3L285.9,299.4z"/>
		<path d="M293,292.7l6.6,6.3l-0.9,0.9l-7.5-0.6l4,3.8l-1.3,1.2l-6.6-6.3l0.8-0.8l7.6,0.6l-4.1-3.9L293,292.7z"/>
		<path d="M297.4,294.8c-2-1.9-1.9-4.7,0.1-6.6c1.1-1.1,2.6-1.5,3.7-1.5l0.1,1.7c-0.9,0-1.8,0.3-2.5,1c-1.2,1.2-1.2,2.9,0,4.1
			c1.2,1.1,3,1.2,4.3,0c0.7-0.7,1.1-1.6,1.1-2.3l-0.9-0.9l-1.8,1.7l-1.2-1.1l3-2.9l2.7,2.6c0,1.6-0.5,3-1.7,4.1
			C302.2,296.7,299.3,296.7,297.4,294.8z"/>
	</g>
	<g>
		<path d="M231.4,569.2l0.7,0.4c0.6,0.3,0.7,0.8,0.4,1.3c-0.3,0.5-0.8,0.7-1.4,0.4l-0.7-0.3L231.4,569.2z M231.3,570.9
			c0.3,0.2,0.6,0,0.8-0.3c0.2-0.3,0.1-0.6-0.2-0.8l-0.4-0.2l-0.6,1.1L231.3,570.9z"/>
		<path d="M233.3,570.1l1.2,0.6l-0.2,0.3l-0.9-0.4l-0.2,0.4l0.8,0.4l-0.2,0.3l-0.8-0.4l-0.2,0.4l0.9,0.4l-0.2,0.3l-1.2-0.6
			L233.3,570.1z"/>
		<path d="M234.9,570.9l0.4,0.2l-0.8,1.4l0.9,0.5l-0.2,0.3l-1.3-0.6L234.9,570.9z"/>
		<path d="M236.8,571.8l-1,1.7l-0.4-0.2l1-1.7L236.8,571.8z"/>
		<path d="M236.3,573.5l1.6-0.7l-0.9-0.4l0.2-0.3l1.4,0.7l-0.1,0.3l-1.5,0.7l0.9,0.5l-0.2,0.3l-1.4-0.7L236.3,573.5z"/>
		<path d="M239.2,573l-1,1.7l-0.4-0.2l1-1.7L239.2,573z"/>
		<path d="M239,574c0.3-0.5,0.9-0.7,1.5-0.4c0.5,0.3,0.7,0.9,0.5,1.4c-0.3,0.5-0.9,0.7-1.5,0.4C238.9,575.1,238.8,574.5,239,574z
			 M240.6,574.8c0.2-0.3,0-0.7-0.3-0.8c-0.3-0.2-0.7,0-0.9,0.3c-0.2,0.3-0.1,0.7,0.3,0.8C240,575.2,240.4,575.1,240.6,574.8z"/>
		<path d="M240.8,575.6l0.3-0.1c0,0.2,0.2,0.4,0.4,0.5c0.2,0.1,0.3,0.1,0.4-0.1c0-0.1,0-0.2-0.1-0.3c-0.1-0.1-0.2-0.2-0.3-0.4
			c-0.1-0.2-0.2-0.4-0.1-0.6c0.2-0.3,0.5-0.4,0.9-0.2c0.2,0.1,0.4,0.3,0.5,0.5l-0.3,0.2c0-0.2-0.2-0.3-0.3-0.4c-0.1-0.1-0.3,0-0.3,0
			c0,0.1,0,0.2,0.1,0.2c0.1,0.1,0.2,0.2,0.3,0.4c0.1,0.2,0.2,0.4,0.1,0.6c-0.2,0.3-0.6,0.4-1,0.2C241,576.1,240.8,575.9,240.8,575.6
			z"/>
		<path d="M242.6,575.8c0.3-0.5,0.9-0.7,1.5-0.4c0.5,0.3,0.7,0.9,0.5,1.4c-0.3,0.5-0.9,0.7-1.5,0.4
			C242.5,576.9,242.3,576.3,242.6,575.8z M244.2,576.6c0.2-0.3,0-0.7-0.3-0.8c-0.3-0.2-0.7,0-0.9,0.3c-0.2,0.3-0.1,0.7,0.3,0.8
			C243.6,577,244,576.9,244.2,576.6z"/>
	</g>
	<g>
		<path d="M270.6,541.3c0.2,0.2,0.3,0.6,0,0.9l-0.7,0.7l-1.5-1.5l0.7-0.6c0.3-0.3,0.6-0.2,0.8-0.1c0.1,0.1,0.2,0.3,0.1,0.5
			C270.2,541,270.5,541.1,270.6,541.3z M268.9,541.3l0.3,0.3l0.3-0.3c0.1-0.1,0.1-0.3,0-0.4c-0.1-0.1-0.2-0.1-0.3,0L268.9,541.3z
			 M270.3,541.5c-0.1-0.1-0.3-0.1-0.4,0l-0.3,0.3l0.4,0.4l0.3-0.3C270.4,541.8,270.4,541.6,270.3,541.5z"/>
		<path d="M270.1,539.7l1.5,1.5l-0.3,0.3l-1.5-1.5L270.1,539.7z"/>
		<path d="M271.1,540.2c-0.5-0.4-0.4-1.1,0-1.5c0.3-0.2,0.6-0.4,0.9-0.4l0,0.4c-0.2,0-0.4,0.1-0.6,0.2c-0.3,0.3-0.3,0.7,0,0.9
			c0.3,0.3,0.7,0.3,1,0c0.2-0.2,0.2-0.4,0.2-0.5l-0.2-0.2l-0.4,0.4l-0.3-0.3l0.7-0.7l0.6,0.6c0,0.4-0.1,0.7-0.4,1
			C272.3,540.6,271.6,540.6,271.1,540.2z"/>
		<path d="M271.8,544.9c0.2,0.2,0.3,0.6,0,0.9l-0.7,0.7l-1.5-1.5l0.7-0.6c0.3-0.3,0.6-0.2,0.8-0.1c0.1,0.1,0.2,0.3,0.1,0.5
			C271.3,544.7,271.6,544.8,271.8,544.9z M270.1,545l0.3,0.3l0.3-0.3c0.1-0.1,0.1-0.3,0-0.4c-0.1-0.1-0.2-0.1-0.3,0L270.1,545z
			 M271.4,545.2c-0.1-0.1-0.3-0.1-0.4,0l-0.3,0.3l0.4,0.4l0.3-0.3C271.6,545.5,271.5,545.3,271.4,545.2z"/>
		<path d="M270.9,543.7l1-1l0.3,0.3l-0.7,0.7l0.3,0.3l0.7-0.6l0.3,0.3l-0.7,0.6l0.3,0.3l0.7-0.7l0.3,0.3l-1,1L270.9,543.7z"/>
		<path d="M272.3,542.4l0.3-0.3l1.2,1.2l0.8-0.7l0.3,0.3l-1.1,1L272.3,542.4z"/>
		<path d="M273.6,541.2l0.3-0.3l1.2,1.2l0.8-0.7l0.3,0.3l-1.1,1L273.6,541.2z"/>
		<path d="M276.3,540.4l0.5,0.5l-0.3,0.3l-0.5-0.5l-1.5-0.5l0.4-0.3l1,0.3l-0.3-1l0.4-0.3L276.3,540.4z"/>
	</g>
	<g>
		<path d="M296.7,526.3c0.5,0.4,0.5,1.1-0.1,1.7l-1.3,1.3l-2.9-2.7l1.3-1.2c0.6-0.5,1.2-0.4,1.5-0.1c0.3,0.2,0.3,0.6,0.2,0.9
			C295.9,525.8,296.4,526,296.7,526.3z M293.5,526.4l0.6,0.6l0.6-0.5c0.3-0.2,0.2-0.5,0-0.7c-0.2-0.1-0.4-0.2-0.6,0L293.5,526.4z
			 M296.1,526.8c-0.2-0.2-0.5-0.2-0.8,0l-0.6,0.6l0.8,0.7l0.6-0.6C296.3,527.3,296.2,527,296.1,526.8z"/>
		<path d="M296.4,525.4c-0.8-0.8-0.8-2.1,0-2.9c0.8-0.8,2.2-0.8,3,0c0.8,0.8,0.8,2,0,2.9C298.5,526.2,297.2,526.2,296.4,525.4z
			 M298.8,523.1c-0.5-0.5-1.3-0.5-1.8,0c-0.5,0.5-0.5,1.2,0,1.7c0.5,0.5,1.3,0.5,1.8,0C299.3,524.4,299.4,523.6,298.8,523.1z"/>
		<path d="M300.9,518.4l2.9,2.7l-0.4,0.4l-3.3-0.3l1.8,1.7l-0.6,0.5l-2.9-2.7l0.4-0.3l3.3,0.2l-1.8-1.7L300.9,518.4z"/>
		<path d="M299.8,530.2c0.5,0.5,0.6,1.2-0.1,1.9l-0.4,0.4l1,0.9l-0.6,0.5l-2.9-2.7l1.1-1C298.5,529.6,299.3,529.8,299.8,530.2z
			 M299.2,530.8c-0.2-0.2-0.6-0.2-0.8,0l-0.5,0.5l0.8,0.8l0.5-0.4C299.4,531.3,299.4,531,299.2,530.8z"/>
		<path d="M302.8,529.8l-1,1l0.4,0.8l-0.6,0.6l-1.8-3.8l0.5-0.5l4,1.7l-0.6,0.6L302.8,529.8z M301.5,530.1l0.7-0.6l-1.3-0.6
			L301.5,530.1z"/>
		<path d="M304.8,525.5c0.5,0.5,0.6,1.2-0.1,1.9l-0.4,0.4l1,0.9l-0.6,0.5l-2.9-2.7l1.1-1C303.5,524.8,304.3,525,304.8,525.5z
			 M304.2,526c-0.2-0.2-0.6-0.2-0.8,0l-0.5,0.5l0.8,0.8l0.5-0.4C304.5,526.5,304.4,526.2,304.2,526z"/>
		<path d="M307.9,525l-1,1l0.4,0.8l-0.6,0.6l-1.8-3.8l0.5-0.4l4,1.7l-0.6,0.6L307.9,525z M306.5,525.3l0.7-0.6l-1.3-0.6L306.5,525.3
			z"/>
	</g>
	<g>
		<path d="M310,510.9c-1-0.9-0.9-2.3,0-3.1c0.6-0.6,1.4-0.8,2-0.7l0,0.8c-0.5,0-1,0.1-1.4,0.4c-0.6,0.5-0.6,1.4,0,1.9
			c0.6,0.6,1.4,0.5,2,0c0.4-0.4,0.5-0.8,0.5-1.3l0.8,0c0.1,0.6-0.1,1.4-0.7,2C312.4,511.8,311,511.9,310,510.9z"/>
		<path d="M314.9,507.1l-0.4,0.4l1.1,1.1l-0.6,0.6l-3.2-3l1.2-1.1c0.7-0.7,1.6-0.6,2.1-0.1c0.4,0.4,0.6,0.9,0.3,1.5l2,0.4l-0.7,0.7
			L314.9,507.1z M314,506.9l0.5-0.5c0.4-0.3,0.3-0.7,0.1-0.9c-0.2-0.2-0.6-0.3-0.9,0l-0.6,0.5L314,506.9z"/>
		<path d="M315.4,502.9l3.2,3l-0.6,0.6l-3.2-3L315.4,502.9z"/>
		<path d="M318.4,504.9l-0.1-0.8c0.5,0.1,1-0.1,1.3-0.4c0.3-0.2,0.3-0.6,0.1-0.7c-0.2-0.1-0.4-0.1-0.6,0c-0.3,0.1-0.6,0.3-1,0.4
			c-0.4,0.1-0.9,0.1-1.3-0.3c-0.5-0.5-0.5-1.3,0.2-1.9c0.4-0.3,0.9-0.6,1.5-0.6l0.1,0.8c-0.4,0-0.8,0.2-1,0.4
			c-0.3,0.2-0.3,0.5-0.1,0.7c0.2,0.1,0.4,0.1,0.6,0.1c0.2-0.1,0.7-0.3,1-0.4c0.5-0.1,0.9-0.1,1.3,0.2c0.6,0.5,0.5,1.3-0.2,2
			C319.7,504.8,319.1,505,318.4,504.9z"/>
		<path d="M322,498.6c0.5,0.5,0.7,1.3-0.1,2.1l-0.5,0.5l1.1,1l-0.6,0.6l-3.2-3l1.2-1.1C320.6,497.9,321.5,498.1,322,498.6z
			 M321.4,499.2c-0.2-0.2-0.6-0.3-0.9,0l-0.5,0.5l0.9,0.9l0.5-0.5C321.7,499.7,321.6,499.4,321.4,499.2z"/>
		<path d="M324.8,497.9l1.1,1l-0.6,0.6l-1.1-1l-3.1-0.9l0.7-0.7l2,0.7l-0.7-2l0.7-0.7L324.8,497.9z"/>
		<path d="M313.8,514l0.6-0.6l1.3,1.2l1.3-1.3l-1.3-1.2l0.6-0.6l3.2,3l-0.6,0.6l-1.3-1.2l-1.3,1.3l1.3,1.2L317,517L313.8,514z"/>
		<path d="M318.5,512.6c-0.9-0.9-0.9-2.2,0-3.1c0.9-0.9,2.4-0.9,3.3,0c0.9,0.9,0.9,2.2,0,3.1C320.8,513.5,319.4,513.5,318.5,512.6z
			 M321.1,510.1c-0.6-0.6-1.5-0.5-2,0c-0.5,0.5-0.6,1.3,0,1.9c0.6,0.5,1.4,0.5,2,0C321.7,511.5,321.7,510.6,321.1,510.1z"/>
		<path d="M322.7,509.4l-2-1.9l0.6-0.6l2,1.9c0.4,0.4,0.9,0.4,1.2,0c0.3-0.3,0.4-0.8,0-1.2l-2-1.9l0.6-0.6l2,1.9
			c0.8,0.8,0.6,1.7,0,2.3C324.5,510,323.5,510.2,322.7,509.4z"/>
		<path d="M326.2,507.3l-0.1-0.8c0.5,0.1,1-0.1,1.3-0.4c0.3-0.3,0.3-0.6,0.1-0.7c-0.2-0.1-0.4-0.1-0.6,0c-0.3,0.1-0.6,0.3-1,0.4
			c-0.4,0.1-0.9,0.1-1.3-0.3c-0.5-0.5-0.5-1.3,0.2-1.9c0.4-0.3,0.9-0.6,1.5-0.6l0.1,0.8c-0.4,0-0.8,0.2-1,0.4
			c-0.3,0.2-0.3,0.5-0.1,0.7c0.2,0.1,0.4,0.1,0.6,0.1c0.2-0.1,0.7-0.3,1-0.4c0.5-0.2,0.9-0.1,1.3,0.2c0.6,0.5,0.5,1.4-0.2,2
			C327.5,507.2,326.8,507.4,326.2,507.3z"/>
		<path d="M326.4,502.1l2.1-2l0.6,0.6l-1.5,1.4l0.7,0.6l1.4-1.3l0.6,0.6l-1.4,1.3l0.7,0.7l1.5-1.4l0.6,0.6l-2.1,2L326.4,502.1z"/>
	</g>
	<g>
		<path d="M341.3,579l0.9-0.8l3.6,3.4l2.2-2.1l0.8,0.8l-3.1,3L341.3,579z"/>
		<path d="M345,575.5l3-2.8l0.8,0.8l-2.1,2l0.9,0.9l1.9-1.8l0.8,0.8l-1.9,1.8l1,0.9l2.1-2l0.8,0.8l-3,2.8L345,575.5z"/>
		<path d="M354.5,571.8l-0.5,0.5l1.6,1.5l-0.9,0.8l-4.4-4.2l1.7-1.6c1-1,2.2-0.8,2.9-0.1c0.5,0.5,0.8,1.3,0.4,2.1l2.8,0.6l-1,1
			L354.5,571.8z M353.1,571.6l0.7-0.7c0.5-0.5,0.4-0.9,0.1-1.2c-0.3-0.3-0.8-0.4-1.2,0l-0.8,0.8L353.1,571.6z"/>
		<path d="M354.3,566.7l3-2.8l0.8,0.8l-2.1,2l0.9,0.9l1.9-1.8l0.8,0.8l-1.9,1.8l1,0.9l2.1-2l0.8,0.8l-3,2.8L354.3,566.7z"/>
		<path d="M358.1,563.1l0.9-0.8l3.6,3.4l2.2-2.1l0.8,0.8l-3.1,3L358.1,563.1z"/>
		<path d="M367.6,560.6l-1.5,1.5l0.6,1.2l-0.9,0.9l-2.7-5.8l0.7-0.7l6.1,2.6l-0.9,0.9L367.6,560.6z M365.5,561.1l1-1l-2-0.9
			L365.5,561.1z"/>
		<path d="M366.8,554.8l4.4,4.2l-0.9,0.8l-4.4-4.2L366.8,554.8z"/>
		<path d="M371.1,557.7l-0.1-1.1c0.7,0.1,1.3-0.1,1.8-0.5c0.4-0.4,0.4-0.8,0.2-1c-0.2-0.2-0.5-0.2-0.9-0.1c-0.4,0.1-0.9,0.4-1.4,0.5
			c-0.6,0.2-1.2,0.1-1.8-0.4c-0.7-0.7-0.7-1.8,0.2-2.6c0.5-0.5,1.2-0.8,2-0.8l0.2,1.1c-0.5,0-1.1,0.2-1.4,0.5
			c-0.4,0.3-0.4,0.7-0.1,0.9c0.2,0.2,0.5,0.2,0.8,0.1c0.3-0.1,0.9-0.4,1.4-0.5c0.6-0.2,1.3-0.2,1.8,0.3c0.8,0.7,0.7,1.9-0.3,2.8
			C372.9,557.5,372,557.8,371.1,557.7z"/>
	</g>
	<path class="st3" d="M50,501.7c0-1.2-1-2.1-2.3-2.1H32.9c-1.3,0-2.3,1-2.3,2.1v14c0,1.2,1,2.1,2.3,2.1h14.8c1.3,0,2.3-1,2.3-2.1
		V501.7z M44.5,502.3c0.6,0,1.1,0.5,1.1,1.1c0,0.6-0.5,1.1-1.1,1.1c-0.6,0-1.1-0.5-1.1-1.1C43.4,502.8,43.9,502.3,44.5,502.3z
		 M35.8,502.3c0.6,0,1.1,0.5,1.1,1.1c0,0.6-0.5,1.1-1.1,1.1c-0.6,0-1.1-0.5-1.1-1.1C34.7,502.8,35.2,502.3,35.8,502.3z M38,505.3
		l-0.3,3.6c0,0.2-0.2,0.4-0.4,0.5l0,0c-0.2,0.1-0.4,0.3-0.4,0.5l-0.3,4.7c0,0.3-0.3,0.6-0.6,0.6h-0.2h-0.2c-0.3,0-0.6-0.2-0.6-0.6
		l-0.3-4.7c0-0.2-0.2-0.4-0.4-0.5c-0.2-0.1-0.4-0.3-0.4-0.5l-0.3-3.6c0-0.3,0.2-0.6,0.5-0.6l0.3-0.1c0.2,0,0.4,0,0.6,0.2l0.4,0.4
		c0.2,0.2,0.6,0.2,0.9,0l0.4-0.4c0.2-0.1,0.4-0.2,0.6-0.2l0.3,0.1C37.8,504.8,38.1,505.1,38,505.3z M40.4,515.2
		c0,0.2-0.1,0.3-0.3,0.3c-0.2,0-0.3-0.1-0.3-0.3v-12.9c0-0.2,0.1-0.3,0.3-0.3c0.2,0,0.3,0.1,0.3,0.3V515.2z M46.7,509.4
		c-0.2,0.1-0.4,0.2-0.3,0.4l0.1,0.9c0,0.2-0.1,0.4-0.4,0.5l-0.3,0c-0.2,0-0.3,0.2-0.4,0.4l-0.2,3c0,0.3-0.3,0.6-0.6,0.6h-0.2h-0.2
		c-0.3,0-0.6-0.2-0.6-0.6l-0.2-3c0-0.2-0.2-0.3-0.4-0.4l-0.3,0c-0.2,0-0.4-0.2-0.4-0.5l0.1-0.9c0-0.2-0.1-0.4-0.3-0.4
		c-0.2-0.1-0.4-0.3-0.3-0.5l0.9-3.8c0.1-0.3,0.4-0.4,0.6-0.3l0.8,0.5c0.1,0.1,0.3,0.1,0.5,0l0.8-0.5c0.3-0.1,0.6,0,0.6,0.3L47,509
		C47.1,509.2,46.9,509.4,46.7,509.4z"/>
	<path class="st3" d="M367.7,351.2c-0.8-0.8-2.2-0.8-3.1,0.1l-10.5,10.5c-0.9,0.9-0.9,2.3-0.1,3.1l9.9,9.9c0.8,0.8,2.2,0.8,3.1-0.1
		l10.5-10.5c0.9-0.9,0.9-2.3,0.1-3.1L367.7,351.2z M364.2,355.5c0.4-0.4,1.1-0.5,1.6,0c0.4,0.4,0.4,1.1,0,1.6
		c-0.4,0.4-1.1,0.5-1.6,0C363.7,356.6,363.8,355.9,364.2,355.5z M358,361.6c0.4-0.4,1.1-0.5,1.6,0c0.4,0.4,0.4,1.1,0,1.6
		c-0.4,0.4-1.1,0.5-1.6,0C357.6,362.8,357.6,362.1,358,361.6z M361.8,362.2l2.3,2.8c0.1,0.2,0.2,0.4,0.1,0.6l0,0
		c-0.1,0.2-0.1,0.5,0.1,0.6l3.1,3.5c0.2,0.2,0.2,0.6-0.1,0.8l-0.1,0.1l-0.1,0.1c-0.2,0.2-0.6,0.3-0.8,0l-3.5-3.1
		c-0.2-0.2-0.4-0.2-0.6-0.1c-0.2,0.1-0.5,0.1-0.6-0.1l-2.8-2.3c-0.2-0.2-0.3-0.5-0.1-0.8l0.2-0.3c0.1-0.2,0.3-0.3,0.5-0.3l0.6,0
		c0.3,0,0.6-0.3,0.6-0.6l0-0.6c0-0.2,0.1-0.4,0.3-0.5l0.3-0.2C361.3,362,361.6,362,361.8,362.2z M370.5,367.5c0.1,0.1,0.1,0.3,0,0.4
		c-0.1,0.1-0.3,0.1-0.4,0l-9.1-9.1c-0.1-0.1-0.1-0.3,0-0.4c0.1-0.1,0.3-0.1,0.4,0L370.5,367.5z M370.8,359c-0.1,0.2-0.1,0.4,0.1,0.5
		l0.7,0.6c0.2,0.1,0.2,0.4,0.1,0.6l-0.2,0.2c-0.1,0.2-0.1,0.4,0,0.5l2,2.2c0.2,0.2,0.2,0.6,0,0.8l-0.1,0.1l-0.1,0.1
		c-0.2,0.2-0.6,0.3-0.8,0l-2.2-2c-0.1-0.1-0.4-0.1-0.5,0l-0.2,0.2c-0.2,0.1-0.4,0.1-0.6-0.1l-0.6-0.7c-0.1-0.2-0.4-0.2-0.5-0.1
		c-0.2,0.1-0.4,0.1-0.5-0.1l-2.1-3.3c-0.2-0.2,0-0.6,0.3-0.6l0.9-0.2c0.2,0,0.3-0.2,0.3-0.3l0.2-0.9c0.1-0.3,0.4-0.4,0.6-0.3
		l3.3,2.1C370.9,358.5,371,358.8,370.8,359z"/>
	<g>
		<polygon class="st3" points="442,364 448.9,365.7 446,368.6 439,366.9 437,360.4 439.9,357.5 		"/>
		<polygon class="st3" points="446,360 452.9,361.7 450,364.6 443.1,362.9 441,356.4 443.9,353.5 		"/>
		<polygon class="st3" points="450,356 457,357.7 454,360.6 447.1,358.9 445,352.4 448,349.5 		"/>
	</g>
	<path class="st3" d="M178,371.3c-0.4,0.1-2.1,0.5-3.7,0.9c-11.8,3.1-21.3,12.6-24.7,24.7c-1,3.7-1.4,10.9-0.8,14.8
		c1.7,10.7,8.5,20.3,18.1,25.4c4,2.1,11.1,4.4,11.1,3.5c0-0.9-3.9-21.1-4.2-21.9c-0.2-0.5-1.7-2.2-3.5-3.8c-3.6-3.3-4.5-4.6-5.2-7.6
		c-0.6-2.5-3.3-19.6-3.3-20.7c0-0.8,1.1-1.5,1.6-0.9c0.2,0.2,1.3,4.6,2.4,10c2,9,2.2,9.7,2.9,9.8c0.4,0.1,0.8-0.1,0.9-0.3
		c0.1-0.2-0.8-4.8-2-10.1c-1.2-5.3-2.1-9.8-2-9.9c0.1-0.1,0.5-0.2,1-0.2h0.9l2.2,9.9c2.3,10.1,2.4,10.6,3.7,9.8
		c0.4-0.3,0.1-1.8-1.7-10c-1.2-5.3-2.1-9.9-2-10.2c0.1-0.3,0.5-0.5,0.9-0.5c0.7,0,0.8,0.3,2.1,6.1c3.2,14.5,3,13.8,3.7,13.8
		c0.4,0.1,0.8-0.1,0.9-0.3c0.1-0.2-0.8-4.8-2-10.1c-2-8.8-2.1-9.7-1.7-10.1c1.2-0.9,1.4-0.4,4.6,10.6c3,10.2,3.1,10.9,3,13.2
		c-0.1,2-0.3,3-1.6,5.7c-1,2.3-1.5,3.8-1.5,4.8c0,1.7,5.9,22.3,6.2,21.6c0.1-0.3,0.8-3.6,1.6-7.4l1.5-6.9l-0.5-1.6
		c-0.6-1.8-0.5-3.3,0.4-12.1c0.6-6,1.7-11.1,3.6-17.7c2.1-7,4.2-11.2,6.8-13.9c3.3-3.4,5.3-3.1,5.3,0.8c0,2.7-7.8,43.1-8.6,44.7
		c-0.4,0.8-1,3.6-1.7,7.6c-0.6,3.5-1.2,6.7-1.3,7.2l-0.2,0.9l1.7-0.5c6.7-1.9,11.8-5,16.5-9.9c6.3-6.6,9.5-14.6,9.5-23.9
		c0-9.9-3.5-18.5-10.4-25.3c-4.9-4.8-11.4-8.2-18.2-9.5C188,371.1,180,370.9,178,371.3L178,371.3z M178,371.3"/>
	<g>
		<g>
			<path d="M257.6,556.6c-0.2,0.2-0.5,0.5-0.7,0.7c-0.2,0.2-0.1,0.3,0.1,0.3c0.5,0.2,0.9,0.2,1.4-0.1c0.3-0.2,0.5-0.2,0.7,0.1
				c0.8,0.8,1.8,1.3,2.8,1.8c0.1,0,0.2,0,0.2,0.1c0,0.1-0.1,0.1-0.2,0.2c-1,0.5-2.1,1.1-3,1.8c-0.8,0.6-1.4,1.4-2,2.2
				c-0.2,0.4-0.3,0.4-0.5,0c-0.7-1-1.6-1.6-2.6-2.3c-2.3-1.6-1.8-4.3-0.6-5.6c0.6-0.7,1.5-1,2.5-1c1.6-0.1,3.1,0.3,4.6,0.8
				c0.1,0,0.4,0,0.3,0.3c-0.1,0.3-0.4,0.5-0.6,0.4c-0.4-0.2-0.7-0.3-1-0.5c-0.2-0.1-0.4-0.1-0.6,0.1
				C258,556.2,257.8,556.4,257.6,556.6C257.6,556.6,257.6,556.6,257.6,556.6z"/>
			<path d="M253.9,565.9c-0.1-0.2-0.2-0.5-0.4-0.7c-0.3-0.4-0.6-0.6-1-0.8c-1.2-0.5-2.4-1.2-3.3-2.2c-2-1.9-2.4-4.7-1.2-7.2
				c0.5-1.1,1.3-2.2,2.1-3.1c0.7-0.8,1.5-1.5,2.4-2.2c0.2-0.2,0.3-0.2,0.4,0.1c0.2,0.7,0.5,1.4,0.8,2.1c0.1,0.3,0,0.4-0.2,0.5
				c-1.1,0.5-2,1.3-2.8,2.1c-1.4,1.5-1.8,4.1-0.9,5.9c0.4,0.8,1.2,1.4,1.9,2c0.6,0.4,1.2,0.9,1.6,1.4
				C253.7,564.5,253.9,565.1,253.9,565.9z"/>
			<path d="M251.3,554.4c0.1-0.1,0.3-0.3,0.4-0.4c0.1-0.1,0.2-0.1,0.2,0.1c0.1,0.6,0.5,1,0.8,1.5c0.1,0.1,0.1,0.2,0,0.4
				c-0.8,1.1-1,2.3-0.8,3.5c0,0.2,0,0.2-0.2,0.2c-0.6,0.1-1.1,0.3-1.5,0.7c-0.2,0.2-0.3,0-0.3-0.1c-0.4-0.7-0.5-1.4-0.5-2.2
				C249.6,556.5,250.2,555.5,251.3,554.4z"/>
			<path d="M270.8,554.5l2.5,2.6c0,0-4.5-0.1-4.6,0l2.1,2.2c0.1,0,0.2-0.1,0.4-0.2l0.1,0.1l-1,1l-0.1-0.1c0.1-0.2,0.2-0.3,0.2-0.4
				c-0.6-0.6-1.2-1.3-1.8-1.9c-0.4-0.4-0.8-1.1-1.5-0.7c0,0,0.5-0.5,0.7-0.7l4.3,0.2l-1.8-1.8c-0.2-0.2-0.4-0.4-0.7-0.1l0.9-0.9
				C270.3,554.1,270.6,554.3,270.8,554.5z"/>
			<path d="M262.1,568l0.1,0.1l-1,1l-0.1-0.1c0.1-0.1,0.1-0.2,0.2-0.3c-0.1-0.1-0.2-0.1-0.3-0.2c-0.8-0.4-1.6-0.8-2.4-1.1
				c-0.1-0.1-0.2-0.1-0.4-0.2c0,0,0,0-0.1,0.1c0.3,0.7,0.6,1.4,0.9,2.1c0.1,0.2,0.2,0.4,0.3,0.6c0.1,0.1,0.1,0.3,0.2,0.3l0,0
				c0.1,0,0.1-0.1,0.2-0.2l0.1,0.1l-1,1l-0.1-0.1c0.1-0.1,0.1-0.2,0.2-0.3c-0.1-0.5-0.4-1-0.5-1.5c-0.3-0.9-0.7-1.7-1.1-2.6
				c0-0.1-0.1-0.1-0.1-0.2c0-0.1-0.1-0.2,0-0.3c0.1-0.1,0.2,0,0.3,0c0.6,0.2,1.1,0.5,1.7,0.8c0.7,0.3,1.3,0.6,2,0.9
				c0,0,0.1,0,0.1,0.1c0.1,0,0.1,0.1,0.2,0.1c0.1,0,0.1,0,0.2,0C261.9,568.1,262,568.1,262.1,568z"/>
			<path d="M255.2,568.8c-0.6,0.3-0.9,0.9-1.3,1.4c0.3-0.2,0.5,0,0.7,0.2l2.1,2.2c0.1,0.1,0.2,0.2,0.3,0.3c0,0,0,0,0,0l0,0
				c0,0.1-0.1,0.2-0.2,0.4l0.1,0.1l1-1l-0.1-0.1c-0.1,0.1-0.2,0.2-0.3,0.2c-0.1,0-0.1,0-0.2-0.1l-1-1c-0.2-0.1-0.2-0.3,0-0.4
				c0.2-0.2,0.3-0.4,0.4-0.6c0.3-0.5,0.1-1.1-0.4-1.6C256.2,568.6,255.6,568.6,255.2,568.8z M256.3,569.6c0.2,0.4,0.1,0.9-0.3,1.2
				c-0.1,0.1-0.2,0.1-0.3,0l-0.4-0.4c0,0-0.5-0.4-0.4-0.6c0.2-0.3,0.4-0.6,0.8-0.6C256,569.1,256.2,569.3,256.3,569.6z"/>
			<path d="M254.4,574.7c0.5,0.1,0.8-0.1,1-0.4c0.4-0.5,0.2-1-0.4-1.1c-0.3-0.1-0.6,0-0.9,0c-0.4,0-0.7,0.1-1.1,0
				c-0.7-0.2-1-1-0.7-1.6c0.2-0.3,0.5-0.5,0.7-0.7c0.1-0.3,0.1-0.4,0.1-0.4l0.7,0.8c-0.5-0.2-0.7,0.1-0.9,0.5
				c-0.3,0.4-0.1,0.8,0.4,1c0.5,0.1,0.9,0,1.4,0c0.3,0,0.7,0,1,0.2c0.5,0.3,0.6,1,0.3,1.5c-0.2,0.3-0.4,0.5-0.7,0.7
				c-0.1,0.1-0.3,0.2-0.2,0.4C255,575.5,254.6,575,254.4,574.7z"/>
			<path d="M264.1,559.8l0.7,0.7c-0.2-0.1-0.4,0-0.6,0.2l-0.5,0.4c-0.2,0.2-0.2,0.3,0,0.5l2.2,2.2c0.1,0.1,0.2,0.2,0.3,0.2
				c0.1,0,0.2-0.1,0.3-0.2l0.1,0.1l-1,1l-0.1-0.1c0.1-0.1,0.1-0.2,0.2-0.3c0-0.1-0.2-0.2-0.3-0.4l-2-2.1c-0.2-0.2-0.3-0.2-0.5,0
				c0,0-0.5,0.5-0.6,0.6c0,0,0,0,0,0c-0.1,0.1-0.1,0.2-0.1,0.2c0,0,0,0,0,0c0,0.1,0,0.1,0,0.2l-0.7-0.7c0.1,0,0.3,0,0.4-0.2
				c0.1-0.1,0.4-0.4,0.5-0.5c0.3-0.3,0.6-0.6,0.9-0.9c0.2-0.2,0.4-0.4,0.6-0.6C264,560.1,264.1,560,264.1,559.8z"/>
			<circle cx="259.1" cy="568.2" r="0.2"/>
			<circle cx="267.1" cy="560.2" r="0.2"/>
			<path d="M270.1,560.1l0.1,0.1l-1,1l-0.1-0.1c0.1-0.1,0.1-0.2,0.2-0.3c-0.1-0.1-0.2-0.1-0.3-0.2c-0.8-0.4-1.6-0.8-2.4-1.1
				c-0.1-0.1-0.2-0.1-0.4-0.2c0,0,0,0-0.1,0.1c0.3,0.7,0.6,1.4,0.9,2.1c0.1,0.2,0.2,0.4,0.3,0.6c0.1,0.1,0.1,0.3,0.2,0.3l0,0
				c0.1,0,0.1-0.1,0.2-0.2l0.1,0.1l-1,1l-0.1-0.1c0.1-0.1,0.1-0.2,0.2-0.3c-0.1-0.5-0.4-1-0.5-1.5c-0.3-0.9-0.7-1.7-1.1-2.6
				c0-0.1-0.1-0.1-0.1-0.2c0-0.1-0.1-0.2,0-0.3c0.1-0.1,0.2,0,0.3,0c0.6,0.2,1.1,0.5,1.7,0.8c0.7,0.3,1.3,0.6,2,0.9
				c0,0,0.1,0,0.1,0.1c0.1,0,0.1,0.1,0.2,0.1c0.1,0,0.1,0,0.2,0C269.9,560.2,270,560.2,270.1,560.1z"/>
		</g>
		<path d="M264.8,565.4l0.1,0.1l-0.7,0.7l-0.1-0.1c0,0,0,0-0.1,0c-0.3,0-0.3-0.1-0.5-0.1c-0.6-0.1-1.2-0.2-1.8-0.3
			c-0.4-0.1-0.5-0.2-0.3-0.5c0-0.1,0.1-0.1,0.1-0.2c0.2-0.5,0.1-0.8-0.3-1c-0.3-0.2-0.7,0-1,0.4c-0.1,0.2,0,0.3,0.1,0.4
			c0.5,0.5,1,1,1.5,1.5c0.2,0.2,0.4,0.5,0.7,0.7c0.1,0.1,0.2,0.2,0.4,0.3c0.1,0,0.2-0.1,0.3-0.2l0.1,0.1l-1,1l-0.1-0.1
			c0.1-0.1,0.2-0.2,0.2-0.4l0,0c-0.1-0.1-0.2-0.2-0.3-0.3c-0.8-0.8-1.5-1.5-2.2-2.3c-0.2-0.2-0.3-0.3-0.6-0.2
			c0.5-0.5,0.8-1.1,1.4-1.4c0.7-0.3,1.4,0.3,1.4,1.1c0,0,0,0.1,0,0.1c-0.1,0.6-0.1,0.6,0.5,0.7c0.4,0.1,0.8,0.2,1.2,0.2
			c0.1,0,0.3,0.1,0.4,0.1c0,0,0,0,0,0c0.1,0,0.2,0,0.3,0C264.7,565.5,264.7,565.4,264.8,565.4z"/>
	</g>
	<g>
		<path d="M51.7,556.2h-0.9l-0.2,0.7c0.4,0,1,0.4,0.5,0.8c-0.1,0.1-4.8,3.7-4.8,3.7l1-3.7c0.2-0.7,1-0.8,1-0.8l0.2-0.7l-5.7,0
			l-0.2,0.7c0.3,0.1,1.1,0.2,0.8,1.2c-1.9,6.9-1.7,6.2-1.8,6.6c-0.5,2-1.4,1.9-1.7,1.9l-0.2,0.7l0,0.1h0h6l0.2-0.8
			c0,0-1-0.2-0.8-0.9c0.2-0.7,0.9-3.4,0.9-3.4c2.6,4.2,3.3,5,5.6,5.1c0.8,0,1.8,0,3,0l0.2-0.8c-0.8,0-1.3-0.5-1.6-0.9
			c-0.2-0.2-1-1.4-1.7-2.5c-0.7-1-1.3-1.9-1.3-1.9l1.3-1l3.6-2.9c0.8-0.7,1.4-0.6,1.4-0.6l0.2-0.7L51.7,556.2z"/>
		<path d="M76,556.1c-0.6,0-1.2,0-1.8,0.1c-4.8,0.6-7.7,3.6-7.7,6.6c0,2.5,2.1,5,6.8,5c0.3,0,0.6,0,0.9,0c1.2-0.1,2.2-0.2,3.1-0.4
			l0.6-2.4c-0.9,0.3-2.1,0.6-3,0.6c-0.2,0-0.4,0-0.6,0c-2.2-0.2-3.6-1.6-3.6-3.4c0-1.9,1.3-3.3,3.6-3.7c0.4-0.1,0.8-0.1,1.2-0.1
			c1.5,0,2.2,0.5,2.7,1.1h0.4l0.8-2.8C78.4,556.4,77.2,556.1,76,556.1z"/>
		<path d="M63.3,556.2h-5.7l-0.2,0.7c0,0,1.1,0.1,0.8,1.2l-2.6,9.3l5.1,0l0.2-0.8c0,0-1-0.2-0.7-1.1c0-0.1,0.8-2.8,0.8-2.8l2.3,0
			h0.1c1.2,0,1.6,0.6,1.6,0.6l0.7-2.8h-2.3h-1.6l0.6-2.2h1l2.4,0c0.6,0,1.1,0.4,1.1,0.7h0.4l0.8-3H63.3z"/>
	</g>
</g>
<polygon id="Atrium_AradS268_x5F_269" class="st2" points="82.1,288.6 82.1,327.4 20.4,327.4 20.4,293.1 32.5,293.1 32.5,288.6 "/>
<rect id="Atrium_AradS267" x="20.4" y="329.2" class="st2" width="61.8" height="33.6"/>
<rect id="Atrium_AradS266" x="20.4" y="364.5" class="st2" width="61.8" height="17.3"/>
<rect id="Atrium_AradS265" x="20.4" y="383.5" class="st2" width="61.8" height="19.1"/>
<rect id="Atrium_AradS264" x="20.4" y="404.4" class="st2" width="61.8" height="19.8"/>
<polygon id="Atrium_AradS292" class="st2" points="13.5,425.5 82.1,425.5 82.1,470.2 58.1,470.2 58.1,450 13.5,450 "/>
<polygon id="Atrium_AradS201" class="st2" points="82.7,480.7 82.7,533.5 55,533.5 55,481.5 "/>
<polygon id="Atrium_AradS245" class="st2" points="82.7,534.9 82.7,590 36.9,590 28.3,534.9 "/>
<polygon id="Atrium_AradS288" class="st2" points="24.2,598.6 50.5,598.6 50.5,626.9 26.8,626.9 "/>
<rect id="Atrium_AradS287" x="136.6" y="650.4" class="st2" width="50.7" height="53.6"/>
<rect id="Atrium_AradS286" x="201.5" y="650.4" class="st2" width="14.5" height="20.1"/>
<polygon id="Atrium_AradS283" class="st2" points="217.7,650.4 217.7,704 481.1,704 481.1,679.5 464.6,679.5 464.6,650.4 "/>
<polygon id="Atrium_AradS282B" class="st2" points="466.3,650.4 466.3,677.6 482.6,677.6 482.6,704 555.6,704 564.6,713.1 
	661.4,713.1 552.9,604.7 505,650.4 "/>
<polygon id="Atrium_AradS282A_x5E_T02" class="st2" points="663.6,713.1 723.8,713.1 674.3,663.7 674.8,662.9 571.6,559.7 
	531.2,600.1 543.2,612.1 553,602.2 "/>
<polygon id="Atrium_AradS281" class="st2" points="546.5,582.7 533.7,569.9 517.3,586.3 530,599 "/>
<polygon id="Atrium_AradS279_x5F_280" class="st2" points="508.5,576.2 453.4,523.7 502.7,477.2 557.8,529.5 "/>
<polygon id="Atrium_AradS275_x5F_276_x5F_277_x5F_278" class="st2" points="452.4,522.6 501.2,475.9 427.3,405.5 397.8,433.7 
	373.5,410.7 353.8,429.4 "/>
<polygon id="Atrium_AradS274" class="st2" points="344.1,363.9 368.7,387.5 340.5,414.3 316.4,391.4 "/>
<polygon id="Atrium_AradS273" class="st2" points="349.2,331 336.6,343.6 349.2,356.2 315.4,390.1 172,254.4 212.1,216.6 
	278.6,279.8 287.1,271.9 "/>
<polygon id="Atrium_AradS215A" class="st2" points="13.4,273.8 13.4,111.5 129.4,111.5 224.6,16.3 348,139.7 348.4,139.2 
	389.1,179.9 290.7,273.1 242.7,228.7 247.6,223.8 240.4,216.7 249.4,207.7 228.1,187.3 164.2,247.9 128.7,243.4 128.7,273.8 "/>
<path id="Atrium_AradS255D" class="st2" d="M233.5,562.3l-10.2,9.6c9.9,5.8,36.6,15.2,36.6,15.2L233.5,562.3z"/>
<path id="Atrium_AradS255B_x5E_S255C-E_00000085244022519894299330000016426702516933681822_" class="st2" d="M293.2,583.4
	l-14.4-13.3l-3.3,3.3l-5.3-4.8l10.1-9.9l-21.5-20.5l-24.1,23.1l27.9,26.4c15,5.4,42.7,7.8,42.7,7.8L293.2,583.4z"/>
<polygon id="Atrium_AradS255A" class="st2" points="259.8,537.2 267.4,529.9 288.8,550.5 281.7,557.7 "/>
<polygon id="Atrium_AradS250A_x5E_S5" class="st2" points="275.9,521.8 295.6,503.3 324.1,530.3 304.3,549 "/>
<polygon id="Atrium_AradDS4_x5E_R-001_x5E_S250B" class="st2" points="296.8,502.3 315.5,484.7 343.9,511.5 325.1,529.3 "/>
<polygon id="Atrium_AradS251" class="st2" points="345,512.6 319.8,536.7 326.2,542.9 333.8,535.8 347.6,549 365.8,532.1 "/>
<path id="Atrium_AradS252" class="st2" d="M366.7,533.1l41.1,38.9c-38.6,24.2-69.8,23.1-69.8,23.1l-18.5-17.7L366.7,533.1z"/>
</svg>
