<?xml version="1.0" encoding="UTF-8"?><svg id="Layer_4" xmlns="http://www.w3.org/2000/svg" viewBox="0 0 748.91 724.26"><defs><style>.cls-1{letter-spacing:-.05em;}.cls-2{fill:#13110c;}.cls-3{letter-spacing:0em;}.cls-4{letter-spacing:-.02em;}.cls-5{letter-spacing:-.03em;}.cls-6{letter-spacing:0em;}.cls-7{letter-spacing:-.07em;}.cls-8{fill:#ed7013;}.cls-9{font-size:7.67px;}.cls-9,.cls-10,.cls-11,.cls-12,.cls-13,.cls-14,.cls-15,.cls-16,.cls-17,.cls-18,.cls-19{font-family:Axiforma-Bold, Axiforma;font-weight:700;}.cls-9,.cls-10,.cls-11,.cls-12,.cls-13,.cls-14,.cls-15,.cls-16,.cls-17,.cls-18,.cls-19,.cls-20{fill:#1d1d1b;}.cls-21{letter-spacing:-.05em;}.cls-22{letter-spacing:0em;}.cls-23{fill:#f6f6f6;}.cls-24{letter-spacing:-.03em;}.cls-10{font-size:5.4px;}.cls-11{font-size:11.96px;}.cls-12{font-size:10.49px;}.cls-13{font-size:25.77px;}.cls-14{font-size:8.3px;}.cls-15{font-size:2.69px;}.cls-25{letter-spacing:0em;}.cls-26{letter-spacing:0em;}.cls-27{letter-spacing:-.02em;}.cls-28{letter-spacing:-.05em;}.cls-16{font-size:7.46px;}.cls-29,.cls-30,.cls-31{fill:none;stroke-miterlimit:10;}.cls-29,.cls-31{stroke:#1d1d1b;}.cls-17{font-size:6.23px;}.cls-32{letter-spacing:0em;}.cls-33{letter-spacing:0em;}.cls-34{letter-spacing:-.02em;}.cls-18{font-size:4.87px;}.cls-30{stroke:#12100b;}.cls-31{stroke-width:2px;}.cls-35{letter-spacing:0em;}.cls-36{letter-spacing:-.07em;}.cls-37{letter-spacing:-.02em;}.cls-38{letter-spacing:0em;}.cls-39{letter-spacing:0em;}.cls-40{letter-spacing:-.03em;}.cls-41{letter-spacing:-.02em;}.cls-42{letter-spacing:-.03em;}.cls-19{font-size:18.78px;}.cls-43{letter-spacing:0em;}.cls-44{letter-spacing:-.04em;}</style></defs><g id="cladire"><g><path class="cls-23" d="M559.55,719.26l-9.04-9.3H44.15v-77.07H24.44c-3.27,0-6.04-2.55-6.31-5.81L5,468.92V105.02H124.26L222.2,7.07l124.66,124.66c8.54-4.53,16.56-6.83,23.87-6.83,8.67,0,16.48,3.15,23.2,9.37l.14,.13,240.92,240.93c12.32,12.96,13.26,30.21,2.77,48.89l88.06,88.06v106.06l-44.95,44.95,55.97,55.97h-177.29Z"/><path class="cls-23" d="M222.2,14.14l76.33,76.33,47.47,47.47c8.9-5.25,17.17-8.04,24.73-8.04s13.91,2.58,19.8,8.04l240.84,240.84c12.29,12.92,10.72,29.4,.1,46.23l1.33,1.33,88.02,88.02v101.92l-47.02,47.02,50.97,50.97h-163.1l-9.04-9.3h-9.3s-404.64,0-404.64,0H49.15v-75.74c0-.74-.6-1.33-1.33-1.33H24.44c-.69,0-1.27-.53-1.33-1.22l-13.11-157.95V110.02H126.33L222.2,14.14m0-14.14l-7.07,7.07L122.19,100.02H0V469.13l.03,.41,13.11,157.95c.48,5.83,5.44,10.4,11.29,10.4h14.71v77.07h504.18s5.07,0,5.07,0l6.09,6.27,2.95,3.03h191.47l-17.07-17.07-43.9-43.9,39.95-39.95,2.93-2.93v-110.2l-2.93-2.93-83.98-83.98c3.88-7.78,5.93-15.37,6.1-22.64,.25-10.73-3.69-20.68-11.39-28.77l-.09-.09-.09-.09-240.84-240.84-.14-.14-.14-.13c-7.67-7.1-16.62-10.7-26.59-10.7-7.16,0-14.83,1.93-22.89,5.74l-42.24-42.24L229.27,7.07l-7.07-7.07h0Z"/><path class="cls-31" d="M10,110.02H126.33L222.2,14.14l76.33,76.33,47.47,47.47c17.47-10.31,32.52-11.12,44.53,0l240.84,240.84c12.29,12.92,10.72,29.4,.1,46.23l1.33,1.33,88.02,88.02v101.92l-47.02,47.02,50.97,50.97h-163.1l-9.04-9.3h-9.3s-404.64,0-404.64,0H49.15v-75.74c0-.74-.6-1.33-1.33-1.33H24.44c-.69,0-1.27-.53-1.33-1.22l-13.11-157.95V110.02Z"/></g></g><g id="magazine"><polygon class="cls-29" points="80.88 590.3 80.88 479.82 16.89 481.24 33.72 590.3 80.38 590.3 80.88 590.3"/><polyline class="cls-29" points="185.61 704.95 185.61 649.37 133.57 649.37 133.57 704.95"/><polyline class="cls-29" points="288.42 273.87 239.44 228.36 244.49 223.57 236.98 216.45 246.07 207.83 225.55 188.37 162.18 248.48 127.34 244.17 127.34 274.34 10.19 274.34"/><line class="cls-29" x1="80.38" y1="327.99" x2="17.18" y2="327.99"/><line class="cls-29" x1="17.18" y1="363.43" x2="80.38" y2="363.43"/><polyline class="cls-29" points="10.19 450.6 54.92 450.6 54.92 470.72 80.38 470.72 80.38 327.99 80.38 287.76 29.46 287.76 29.46 292.07 17.18 292.07 17.18 403.07"/><line class="cls-29" x1="80.38" y1="533.94" x2="25.06" y2="533.94"/><line class="cls-29" x1="52.12" y1="480.4" x2="52.12" y2="533.94"/><polyline class="cls-29" points="214.7 704.95 214.7 649.61 284.38 649.61 502.26 649.61 550.61 603.35 661.26 714"/><line class="cls-29" x1="293.31" y1="502" x2="322.82" y2="529.98"/><polyline class="cls-29" points="316.23 536.23 324 543.6 331.65 536.35 345.58 549.57 364.37 531.75"/><polyline class="cls-29" points="335.44 595.49 316.01 577.06 345.29 549.29"/><polyline class="cls-29" points="316.01 577.06 287.91 550.4 265.1 528.76 272.71 521.54 301.96 549.77 323.16 529.66 342.67 511.16"/><polyline class="cls-29" points="287.76 550.26 279.16 558.42 256.49 536.92"/><path class="cls-29" d="M319.18,580.06l-8.08,7.67-3.03,2.87-.35,.33,5.44,5.16c35.52,.93,68.51-7.21,93.42-24.32l-64.5-61.18-27.91-26.47-1.07-.9-46.52,44.13-46.83,44.42c25.99,14.4,55.82,22.38,85.1,24.15l-13.02-12.84-15.02-14.24-3.72,3.52-4.32-4.1,10.39-9.85"/><line class="cls-29" x1="231.16" y1="560.95" x2="259.7" y2="588.02"/><polyline class="cls-29" points="346 137.94 387.73 179.67 288.42 273.87 387.64 367.98 338.16 414.92 168.75 254.23 209.84 215.25 276.49 278.48 284.85 270.55"/><line class="cls-29" x1="499.95" y1="476.12" x2="449.67" y2="523.81"/><line class="cls-29" x1="17.18" y1="402.3" x2="80.38" y2="402.3"/><polyline class="cls-29" points="80.38 403.07 17.18 403.07 17.18 424.61"/><line class="cls-29" x1="10.19" y1="424.61" x2="80.38" y2="424.61"/><polyline class="cls-30" points="20.71 597.79 48.78 597.79 48.78 628.44"/><polyline class="cls-29" points="214.7 649.61 198.37 649.61 198.37 671.04 214.7 671.04"/><polyline class="cls-29" points="540.72 612.82 527.74 599.84 569.23 558.35 673.98 663.1"/><polyline class="cls-29" points="527.74 599.84 513.91 586.01 531.4 568.53 545.23 582.35"/><line class="cls-29" x1="440.87" y1="465.56" x2="475.05" y2="499.73"/><line class="cls-29" x1="455.11" y1="479.79" x2="430.21" y2="504.69"/><polyline class="cls-29" points="396.15 431.76 432.13 467.75 412.52 487.93 350.49 429.09 371.23 409.41 395.47 432.4 425.01 404.38 556.55 529.15 506.26 576.85 416.4 491.61 415.59 490.8 464.66 441.99"/><line class="cls-29" x1="418.82" y1="454.43" x2="398.57" y2="474.67"/><line class="cls-29" x1="400.33" y1="435.95" x2="379.58" y2="456.7"/><line class="cls-29" x1="534.28" y1="618.98" x2="629.14" y2="713.83"/><line class="cls-29" x1="607.76" y1="660.5" x2="591.78" y2="676.47"/><polyline class="cls-29" points="432.86 649.67 432.86 673.4 463.06 673.4"/></g><g id="logo"><text class="cls-13" transform="translate(98.4 221.49) rotate(-43.49) skewX(3.02)"><tspan x="0" y="0">CINEM</tspan><tspan class="cls-34" x="88.85" y="0">A</tspan><tspan x="106.14" y="0" xml:space="preserve"> CIT</tspan><tspan class="cls-41" x="155.75" y="0">Y</tspan></text><text class="cls-9" transform="translate(17.9 313.92) scale(1.05 1)"><tspan x="0" y="0">ME</tspan><tspan class="cls-22" x="12.09" y="0">S</tspan><tspan x="16.72" y="0">OP</tspan><tspan class="cls-42" x="28.13" y="0">O</tspan><tspan class="cls-36" x="34.43" y="0">T</tspan><tspan class="cls-38" x="38.5" y="0">AMI</tspan><tspan class="cls-37" x="53.44" y="0">A</tspan></text><g><path class="cls-20" d="M25.78,340.01h3.99v1.07h-2.79v1.27h2.45v1.07h-2.45v2.26h-1.2v-5.67Z"/><path class="cls-20" d="M33.46,344.45h-2.09l-.46,1.23h-1.25l2.28-5.67h.98l2.25,5.67h-1.26l-.44-1.23Zm-1.75-1.01h1.41l-.7-1.89-.71,1.89Z"/><path class="cls-20" d="M35.21,344.71l.69-.79c.4,.51,.98,.79,1.58,.79,.5,0,.86-.25,.86-.61,0-.28-.23-.45-.54-.59-.38-.17-.87-.31-1.29-.53-.53-.28-.95-.71-.95-1.41,0-.94,.82-1.66,2.04-1.66,.7,0,1.41,.23,1.96,.77l-.64,.83c-.36-.35-.9-.53-1.31-.53-.48,0-.77,.22-.77,.54,0,.28,.24,.45,.49,.56,.32,.14,.91,.35,1.32,.54,.58,.27,1.02,.69,1.02,1.41,0,1.01-.88,1.73-2.19,1.73-.91,0-1.75-.36-2.26-1.06Z"/><path class="cls-20" d="M39.98,341.1v-1.1h4.63v1.1h-1.71v4.57h-1.21v-4.57h-1.71Z"/><path class="cls-20" d="M47.11,340.01h3.99v1.07h-2.79v1.27h2.45v1.07h-2.45v2.26h-1.2v-5.67Z"/><path class="cls-20" d="M51.55,342.86c0-1.65,1.37-2.95,3.11-2.95s3.11,1.31,3.11,2.94-1.35,2.92-3.12,2.92-3.11-1.28-3.11-2.91Zm4.98-.02c0-1.06-.84-1.82-1.87-1.82s-1.87,.78-1.87,1.82,.82,1.8,1.87,1.8,1.88-.77,1.87-1.8Z"/><path class="cls-20" d="M58.41,342.86c0-1.65,1.37-2.95,3.11-2.95s3.11,1.31,3.11,2.94-1.35,2.92-3.12,2.92-3.11-1.28-3.11-2.91Zm4.98-.02c0-1.06-.84-1.82-1.87-1.82s-1.87,.78-1.87,1.82,.82,1.8,1.87,1.8,1.88-.77,1.87-1.8Z"/><path class="cls-20" d="M65.62,340.01h2.34c1.8,0,2.88,1.1,2.88,2.85s-1.09,2.82-2.93,2.82h-2.29v-5.67Zm2.35,4.58c1.08,0,1.63-.8,1.63-1.76s-.55-1.73-1.63-1.73h-1.15v3.49h1.15Z"/><path class="cls-20" d="M24.47,352.07c0-1.75,1.41-2.95,3.09-2.95,1.11,0,2.05,.48,2.57,1.17l-.8,.74c-.41-.48-1-.82-1.71-.82-1.07,0-1.91,.78-1.91,1.86s.83,1.81,1.9,1.81c.7,0,1.32-.33,1.74-.83l.83,.71c-.53,.68-1.49,1.21-2.64,1.21-1.71,0-3.07-1.17-3.07-2.9Z"/><path class="cls-20" d="M31,349.21h1.2v2.26h2.51v-2.26h1.2v5.67h-1.2v-2.31h-2.51v2.31h-1.2v-5.67Z"/><path class="cls-20" d="M38.43,349.21v5.67h-1.21v-5.67h1.21Z"/><path class="cls-20" d="M44.85,349.21v5.67h-.82l-3.1-3.48v3.48h-1.18v-5.67h.76l3.15,3.51v-3.51h1.18Z"/><path class="cls-20" d="M46.18,349.21h4.05v1.06h-2.85v1.22h2.64v1.06h-2.64v1.27h2.85v1.06h-4.05v-5.67Z"/><path class="cls-20" d="M50.95,354.07l2.96-3.81h-2.85v-1.05h4.48v.84l-2.9,3.78h2.99v1.05h-4.68v-.81Z"/><path class="cls-20" d="M56.59,349.21h4.05v1.06h-2.85v1.22h2.64v1.06h-2.64v1.27h2.85v1.06h-4.05v-5.67Z"/><path class="cls-20" d="M61.23,353.92l.69-.79c.4,.51,.98,.79,1.59,.79,.5,0,.86-.25,.86-.61,0-.28-.23-.45-.54-.59-.38-.17-.87-.31-1.29-.53-.53-.28-.95-.71-.95-1.41,0-.94,.82-1.66,2.04-1.66,.7,0,1.41,.23,1.96,.77l-.64,.83c-.36-.35-.9-.53-1.31-.53-.48,0-.77,.22-.77,.54,0,.28,.24,.45,.49,.56,.32,.14,.91,.35,1.32,.54,.58,.27,1.02,.69,1.02,1.41,0,1.01-.88,1.73-2.19,1.73-.91,0-1.75-.36-2.26-1.06Z"/><path class="cls-20" d="M66.29,352.07c0-1.75,1.41-2.95,3.09-2.95,1.11,0,2.05,.48,2.57,1.17l-.8,.74c-.41-.48-1-.82-1.71-.82-1.07,0-1.91,.78-1.91,1.86s.83,1.81,1.9,1.81c.7,0,1.32-.33,1.74-.83l.83,.71c-.53,.68-1.49,1.21-2.64,1.21-1.71,0-3.07-1.17-3.07-2.9Z"/></g><text class="cls-19" transform="translate(35.14 444.42) scale(1.05 1)"><tspan x="0" y="0">3</tspan><tspan class="cls-5" x="11.63" y="0">F</tspan></text><text class="cls-12" transform="translate(484.03 552.73) rotate(-45) scale(1.05 1)"><tspan class="cls-28" x="0" y="0">F</tspan><tspan x="5.82" y="0">AI</tspan><tspan class="cls-24" x="16.41" y="0">R</tspan><tspan x="23.13" y="0">YLAND</tspan></text><text class="cls-14" transform="translate(137.52 677.97) scale(1.05 1)"><tspan x="0" y="0">ME</tspan><tspan class="cls-32" x="13.09" y="0">R</tspan><tspan class="cls-4" x="18.63" y="0">C</tspan><tspan class="cls-7" x="24.85" y="0">A</tspan><tspan class="cls-40" x="30.06" y="0">T</tspan><tspan x="34.82" y="0">O</tspan></text><g><path class="cls-20" d="M202.59,658.92l.32-.37c.19,.24,.46,.37,.74,.37,.23,0,.4-.12,.4-.28,0-.13-.11-.21-.25-.28-.18-.08-.41-.14-.61-.25-.25-.13-.44-.33-.44-.66,0-.44,.39-.78,.95-.78,.33,0,.66,.11,.92,.36l-.3,.39c-.17-.17-.42-.25-.61-.25-.22,0-.36,.1-.36,.25,0,.13,.11,.21,.23,.26,.15,.06,.43,.16,.62,.25,.27,.13,.48,.32,.48,.66,0,.47-.41,.81-1.03,.81-.43,0-.82-.17-1.06-.5Z"/><path class="cls-20" d="M205.09,658.4v-1.68h.56v1.65c0,.36,.22,.53,.53,.53s.52-.18,.52-.53v-1.65h.57v1.68c0,.7-.5,1.01-1.09,1.01s-1.09-.32-1.09-1.01Z"/><path class="cls-20" d="M210.24,656.72v2.65h-.38l-1.45-1.62v1.62h-.55v-2.65h.36l1.48,1.64v-1.64h.55Z"/><path class="cls-20" d="M201,663.1h-.98l-.22,.57h-.59l1.07-2.65h.46l1.05,2.65h-.59l-.21-.57Zm-.82-.47h.66l-.33-.88-.33,.88Z"/><path class="cls-20" d="M202.13,661.02h.37l1.1,1.5,1.09-1.5h.38v2.65h-.56v-1.5l-.81,1.11h-.19l-.81-1.11v1.5h-.55v-2.65Z"/><path class="cls-20" d="M205.52,662.36c0-.77,.64-1.38,1.46-1.38s1.46,.61,1.46,1.37-.63,1.37-1.46,1.37-1.45-.6-1.45-1.36Zm2.33,0c0-.5-.39-.85-.87-.85s-.87,.36-.87,.85,.38,.84,.87,.84,.88-.36,.87-.84Z"/><path class="cls-20" d="M208.86,662.7v-1.68h.56v1.65c0,.36,.22,.53,.53,.53s.52-.18,.52-.53v-1.65h.57v1.68c0,.7-.5,1.01-1.09,1.01s-1.09-.32-1.09-1.01Z"/><path class="cls-20" d="M212.52,662.71h-.33v.96h-.56v-2.65h1.07c.65,0,.96,.4,.96,.84,0,.32-.17,.64-.57,.78l.68,1.03h-.65l-.59-.96Zm-.33-.48h.46c.31,0,.44-.18,.44-.36s-.13-.35-.39-.35h-.51v.72Z"/></g><text class="cls-11" transform="translate(284.35 675.77) scale(1.05 1)"><tspan class="cls-44" x="0" y="0">G</tspan><tspan class="cls-33" x="9.27" y="0">YM ONE</tspan></text><text class="cls-17" transform="translate(592.58 643.2) rotate(-43.49) skewX(3.02)"><tspan x="0" y="0">MET</tspan><tspan class="cls-6" x="13.55" y="0">R</tspan><tspan class="cls-25" x="17.71" y="0">OPOLIS</tspan></text><g><path class="cls-20" d="M277.56,328.68c.91,.86,1.16,2.18-.23,3.5l-.82,.78,1.84,1.74-1.07,1.01-5.33-5.05,1.97-1.87c1.34-1.27,2.75-.96,3.64-.12Zm-1.1,1.02c-.4-.38-1.03-.46-1.53,.02l-.92,.87,1.53,1.46,.86-.81c.58-.55,.45-1.16,.06-1.53Z"/><path class="cls-20" d="M276.56,326.29l1.07-1.02,4.3,4.08,2.7-2.56,1.02,.97-3.78,3.58-5.33-5.05Z"/><path class="cls-20" d="M288.05,323.31l-1.86,1.76,.74,1.48-1.12,1.06-3.29-6.98,.87-.83,7.33,3.15-1.12,1.07-1.55-.72Zm-2.51,.57l1.25-1.19-2.39-1.09,1.14,2.28Z"/><path class="cls-20" d="M290.59,312.99l5.33,5.05-.73,.69-6.02-.48,3.26,3.1-1.05,1-5.33-5.05,.68-.64,6.1,.46-3.29-3.12,1.05-1Z"/><path class="cls-20" d="M291.77,311.86l3.61-3.42,1,.94-2.54,2.41,1.15,1.09,2.35-2.23,1,.94-2.35,2.23,1.2,1.13,2.54-2.41,1,.94-3.61,3.42-5.33-5.05Z"/><path class="cls-20" d="M296.9,308.95l-1.03-.98,4.12-3.91,1.03,.98-1.52,1.44,4.29,4.07-1.08,1.03-4.29-4.07-1.52,1.44Z"/><path class="cls-20" d="M285.17,341.7c.84,.79,.93,2.06-.14,3.07l-2.43,2.3-5.33-5.05,2.32-2.2c1.02-.96,2.19-.79,2.84-.18,.47,.44,.63,1.15,.35,1.72,.86-.49,1.76-.25,2.38,.34Zm-5.91,.21l1.16,1.1,1.04-.99c.47-.44,.37-.94,.08-1.21-.29-.27-.79-.32-1.2,.07l-1.09,1.03Zm4.72,.76c-.35-.33-.95-.44-1.5,.08l-1.17,1.11,1.41,1.33,1.17-1.11c.54-.51,.43-1.09,.09-1.42Z"/><path class="cls-20" d="M284.64,340.13c-1.55-1.47-1.56-3.79,0-5.26s4.01-1.46,5.54-.01c1.52,1.44,1.54,3.75-.04,5.24-1.59,1.5-3.97,1.48-5.5,.03Zm4.43-4.22c-1-.94-2.46-.91-3.37-.04-.92,.88-.94,2.27,.04,3.2,.97,.92,2.42,.92,3.36,.03s.95-2.27-.03-3.19Z"/><path class="cls-20" d="M287.69,332.14l1.17-1.11,4.66,2.38-2.37-4.55,.68-.64,4.81,2.23-2.52-4.4,1.17-1.11,3.57,6.72-.9,.85-4.62-2.24,2.36,4.38-.9,.85-7.09-3.38Z"/><path class="cls-20" d="M295.92,324.34l1.07-1.02,4.3,4.08,2.7-2.56,1.02,.97-3.78,3.58-5.33-5.05Z"/><path class="cls-20" d="M301.46,319.08l5.33,5.05-1.07,1.02-5.33-5.05,1.07-1.02Z"/><path class="cls-20" d="M307.19,313.65l5.33,5.05-.73,.69-6.03-.48,3.27,3.1-1.05,1-5.33-5.05,.68-.64,6.1,.46-3.29-3.12,1.05-1Z"/><path class="cls-20" d="M310.73,315.35c-1.62-1.54-1.51-3.8,.06-5.29,.89-.85,2.06-1.24,3.01-1.22l.07,1.39c-.73,0-1.48,.27-2.05,.81-.99,.94-.99,2.33,0,3.27,.96,.91,2.42,.97,3.43,.01,.57-.54,.86-1.28,.86-1.89l-.73-.69-1.47,1.4-.93-.88,2.44-2.32,2.19,2.08c.03,1.26-.43,2.42-1.37,3.31-1.61,1.53-3.94,1.53-5.51,.03Z"/></g><text class="cls-15" transform="translate(227.92 570.48) rotate(26.28) scale(1.03 1) skewX(-2.4)"><tspan x="0" y="0">DELIZI</tspan><tspan class="cls-43" x="8.9" y="0">O</tspan><tspan class="cls-35" x="11.16" y="0">S</tspan><tspan class="cls-26" x="12.79" y="0">O</tspan></text><g><path class="cls-20" d="M268.33,540.95c.24,.23,.27,.6-.04,.89l-.71,.67-1.55-1.47,.67-.64c.29-.28,.64-.23,.82-.05,.14,.13,.18,.33,.1,.5,.25-.14,.51-.07,.69,.1Zm-1.72,.06l.34,.32,.3-.29c.14-.13,.11-.27,.02-.35-.08-.08-.23-.09-.35,.02l-.32,.3Zm1.37,.22c-.1-.1-.28-.13-.44,.02l-.34,.32,.41,.39,.34-.32c.16-.15,.12-.32,.03-.41Z"/><path class="cls-20" d="M267.79,539.37l1.55,1.47-.31,.3-1.55-1.47,.31-.3Z"/><path class="cls-20" d="M268.82,539.87c-.47-.45-.44-1.1,.02-1.54,.26-.25,.6-.36,.87-.35l.02,.4c-.21,0-.43,.08-.59,.23-.29,.27-.29,.68,0,.95,.28,.26,.7,.28,1,0,.17-.16,.25-.37,.25-.55l-.21-.2-.43,.4-.27-.26,.71-.67,.64,.6c0,.37-.13,.7-.4,.96-.47,.44-1.14,.45-1.6,.01Z"/><path class="cls-20" d="M269.47,544.61c.24,.23,.27,.6-.04,.89l-.71,.67-1.55-1.47,.67-.64c.29-.28,.64-.23,.82-.05,.14,.13,.19,.33,.1,.5,.25-.14,.51-.07,.69,.1Zm-1.72,.06l.34,.32,.3-.29c.14-.13,.11-.27,.02-.35-.08-.08-.23-.09-.35,.02l-.32,.3Zm1.37,.22c-.1-.1-.28-.13-.44,.02l-.34,.32,.41,.39,.34-.32c.16-.15,.13-.32,.03-.41Z"/><path class="cls-20" d="M268.63,543.33l1.05-.99,.29,.27-.74,.7,.33,.32,.68-.65,.29,.27-.68,.65,.35,.33,.74-.7,.29,.27-1.05,.99-1.55-1.47Z"/><path class="cls-20" d="M269.96,542.07l.31-.3,1.25,1.18,.78-.74,.3,.28-1.1,1.04-1.55-1.47Z"/><path class="cls-20" d="M271.25,540.84l.31-.29,1.25,1.18,.78-.74,.3,.28-1.1,1.04-1.55-1.47Z"/><path class="cls-20" d="M274.03,540.13l.54,.51-.31,.29-.54-.51-1.54-.46,.36-.34,1,.33-.35-.96,.36-.34,.48,1.47Z"/></g><text class="cls-10" transform="translate(292.67 529.2) rotate(-43.49) skewX(3.02)"><tspan x="0" y="0">BON</tspan><tspan class="cls-1" x="-.57" y="6.48">P</tspan><tspan class="cls-3" x="2.61" y="6.48">A</tspan><tspan class="cls-21" x="6.37" y="6.48">P</tspan><tspan class="cls-27" x="9.55" y="6.48">A</tspan></text><g><path class="cls-20" d="M307.72,510.63c-.97-.92-.9-2.26-.01-3.1,.58-.55,1.35-.77,2.01-.67v.79c-.49-.05-.99,.07-1.36,.42-.56,.53-.58,1.36,.03,1.93,.58,.55,1.44,.54,2.01,0,.37-.35,.51-.83,.46-1.31l.83-.04c.1,.62-.12,1.38-.72,1.95-.9,.85-2.27,.92-3.23,0Z"/><path class="cls-20" d="M312.59,506.81l-.38,.36,1.15,1.09-.63,.6-3.15-2.99,1.21-1.14c.74-.7,1.55-.57,2.08-.08,.38,.36,.57,.91,.29,1.48l1.99,.44-.74,.7-1.81-.46Zm-.94-.18l.52-.49c.35-.34,.28-.67,.06-.87-.23-.21-.57-.26-.86,.01l-.57,.54,.85,.81Z"/><path class="cls-20" d="M313.09,502.54l3.15,2.99-.64,.6-3.15-2.99,.64-.6Z"/><path class="cls-20" d="M316.13,504.61l-.08-.76c.5,.07,.96-.07,1.27-.38,.26-.25,.31-.56,.12-.75-.16-.15-.38-.12-.61-.04-.29,.1-.63,.27-.98,.37-.44,.11-.89,.1-1.28-.27-.52-.49-.49-1.29,.15-1.89,.37-.35,.87-.58,1.46-.58l.12,.76c-.38,0-.77,.17-.99,.38-.25,.24-.28,.5-.1,.67,.16,.15,.38,.11,.57,.05,.24-.08,.68-.27,1-.37,.46-.15,.92-.15,1.32,.23,.56,.53,.49,1.35-.2,2-.48,.46-1.12,.69-1.78,.58Z"/><path class="cls-20" d="M319.69,498.25c.54,.51,.69,1.29-.14,2.07l-.49,.46,1.09,1.03-.63,.6-3.15-2.99,1.16-1.1c.79-.75,1.63-.57,2.15-.07Zm-.65,.6c-.23-.22-.61-.27-.91,.01l-.54,.51,.91,.86,.51-.48c.35-.33,.27-.69,.03-.91Z"/><path class="cls-20" d="M322.45,497.57l1.09,1.04-.63,.6-1.09-1.04-3.14-.93,.73-.69,2.05,.68-.7-1.95,.73-.69,.97,2.99Z"/><path class="cls-20" d="M311.52,513.72l.63-.6,1.26,1.19,1.32-1.25-1.26-1.19,.63-.6,3.15,2.99-.63,.6-1.28-1.22-1.32,1.25,1.28,1.22-.63,.6-3.15-2.99Z"/><path class="cls-20" d="M316.2,512.29c-.92-.87-.92-2.24,0-3.11,.92-.87,2.37-.87,3.27,0,.9,.85,.91,2.22-.02,3.1-.94,.89-2.35,.88-3.25,.02Zm2.62-2.5c-.59-.56-1.45-.54-1.99-.02-.55,.52-.55,1.34,.03,1.89,.58,.55,1.43,.54,1.99,.02,.55-.53,.56-1.34-.02-1.88Z"/><path class="cls-20" d="M320.38,509.12l-2-1.9,.64-.6,1.96,1.86c.43,.41,.88,.37,1.23,.04,.35-.33,.37-.76-.05-1.16l-1.96-1.86,.64-.61,2,1.9c.83,.79,.64,1.68-.02,2.31-.67,.63-1.61,.81-2.44,.03Z"/><path class="cls-20" d="M323.84,507l-.08-.76c.49,.07,.96-.07,1.27-.38,.26-.25,.31-.56,.11-.75-.16-.15-.38-.12-.61-.04-.29,.1-.63,.27-.98,.37-.44,.11-.89,.1-1.28-.27-.52-.49-.49-1.29,.15-1.89,.37-.35,.87-.58,1.46-.58l.12,.76c-.38,0-.77,.17-.99,.38-.25,.24-.28,.5-.1,.67,.16,.15,.37,.11,.57,.05,.24-.08,.68-.27,1-.37,.46-.15,.92-.15,1.32,.23,.56,.53,.49,1.35-.2,2-.48,.46-1.13,.69-1.78,.57Z"/><path class="cls-20" d="M324.07,501.82l2.14-2.03,.59,.56-1.5,1.42,.68,.64,1.39-1.32,.59,.56-1.39,1.32,.71,.67,1.5-1.42,.59,.56-2.14,2.03-3.15-2.99Z"/></g><path class="cls-8" d="M47.64,501.39c0-1.19-1.02-2.15-2.27-2.15h-14.8c-1.25,0-2.27,.96-2.27,2.15v14.04c0,1.19,1.02,2.15,2.27,2.15h14.8c1.25,0,2.27-.96,2.27-2.15v-14.04Zm-5.45,.57c.63,0,1.13,.48,1.13,1.07s-.51,1.07-1.13,1.07-1.13-.48-1.13-1.07,.5-1.07,1.13-1.07Zm-8.72,0c.63,0,1.13,.48,1.13,1.07s-.51,1.07-1.13,1.07-1.13-.48-1.13-1.07,.51-1.07,1.13-1.07Zm2.26,3.07l-.31,3.59c-.02,.23-.17,.42-.4,.5h0c-.23,.09-.38,.29-.4,.52l-.3,4.66c-.02,.31-.3,.56-.63,.56h-.42c-.33,0-.61-.25-.63-.56l-.3-4.66c-.01-.23-.17-.44-.4-.52-.23-.08-.38-.28-.4-.51l-.31-3.59c-.02-.29,.18-.57,.49-.63l.31-.06c.21-.04,.42,.01,.58,.16l.43,.42c.24,.23,.64,.23,.89,0l.44-.42c.15-.14,.37-.2,.57-.16l.31,.06c.28,.07,.49,.34,.47,.64Zm2.41,9.82c0,.16-.14,.29-.3,.29s-.31-.13-.31-.29v-12.89c0-.16,.14-.29,.31-.29s.3,.13,.3,.29v12.89Zm6.28-5.73c-.21,.05-.35,.24-.32,.45l.13,.92c.03,.22-.13,.43-.35,.45l-.29,.03c-.2,.03-.35,.19-.36,.37l-.19,2.95c-.02,.32-.3,.56-.63,.56h-.42c-.33,0-.61-.24-.63-.56l-.19-2.95c-.01-.19-.17-.34-.36-.37l-.29-.03c-.22-.03-.39-.24-.35-.45l.13-.92c.03-.2-.1-.39-.32-.45-.22-.05-.35-.26-.31-.47l.85-3.84c.06-.27,.39-.41,.64-.25l.8,.49c.13,.09,.31,.09,.46,0l.8-.49c.25-.15,.58-.02,.64,.25l.86,3.84c.04,.21-.1,.42-.32,.47Z"/><path class="cls-8" d="M430.06,422.11c-.84-.84-2.24-.8-3.12,.08l-10.47,10.47c-.89,.89-.92,2.28-.08,3.12l9.93,9.93c.84,.84,2.24,.8,3.12-.08l10.47-10.47c.88-.88,.92-2.28,.08-3.12l-9.93-9.93Zm-3.45,4.26c.44-.44,1.14-.46,1.56-.04s.4,1.12-.04,1.56-1.14,.46-1.56,.04-.4-1.11,.04-1.56Zm-6.17,6.17c.44-.44,1.14-.46,1.56-.04s.4,1.12-.04,1.56-1.14,.46-1.56,.04-.4-1.12,.04-1.56Zm3.77,.58l2.32,2.76c.15,.18,.17,.42,.07,.64h0c-.1,.22-.07,.47,.09,.64l3.08,3.5c.21,.24,.19,.6-.05,.84l-.15,.15-.15,.15c-.23,.23-.6,.25-.84,.05l-3.5-3.08c-.17-.15-.43-.19-.64-.09-.22,.11-.47,.07-.64-.07l-2.76-2.32c-.22-.19-.27-.53-.1-.79l.17-.26c.12-.18,.31-.29,.52-.3h.6c.33-.02,.62-.3,.63-.64l.02-.6c0-.21,.12-.4,.29-.52l.27-.18c.25-.15,.59-.1,.78,.12Zm8.65,5.24c.11,.11,.1,.3-.01,.42s-.31,.13-.42,.01l-9.12-9.12c-.11-.11-.1-.3,.01-.42s.3-.12,.42-.01l9.12,9.12Zm.39-8.49c-.12,.19-.07,.42,.09,.54l.75,.56c.18,.13,.21,.39,.07,.57l-.18,.23c-.12,.16-.11,.38,.01,.52l1.95,2.22c.21,.24,.18,.6-.05,.84l-.15,.15-.15,.15c-.23,.23-.6,.26-.84,.05l-2.22-1.95c-.15-.13-.36-.13-.52-.01l-.23,.18c-.18,.14-.44,.11-.57-.07l-.56-.75c-.12-.17-.35-.21-.54-.09-.19,.12-.43,.07-.55-.12l-2.11-3.32c-.15-.23-.01-.57,.27-.63l.91-.22c.15-.03,.28-.16,.33-.33l.22-.91c.07-.28,.4-.42,.63-.28l3.32,2.11c.17,.12,.22,.36,.11,.56Z"/><g><polygon class="cls-8" points="439.65 363.65 446.58 365.36 443.64 368.26 436.71 366.56 434.64 360.05 437.58 357.15 439.65 363.65"/><polygon class="cls-8" points="443.68 359.68 450.61 361.38 447.67 364.29 440.74 362.58 438.66 356.08 441.6 353.18 443.68 359.68"/><polygon class="cls-8" points="447.7 355.71 454.64 357.41 451.7 360.31 444.76 358.61 442.7 352.1 445.64 349.2 447.7 355.71"/></g><path class="cls-8" d="M175.72,370.98c-.44,.06-2.13,.48-3.75,.89-11.78,3.08-21.34,12.64-24.71,24.68-1.02,3.65-1.4,10.89-.76,14.8,1.72,10.74,8.51,20.3,18.1,25.41,3.97,2.13,11.12,4.35,11.12,3.46s-3.87-21.12-4.19-21.91c-.19-.48-1.75-2.19-3.49-3.81-3.59-3.3-4.48-4.61-5.18-7.59-.57-2.51-3.33-19.6-3.33-20.71,0-.83,1.08-1.46,1.62-.92,.16,.16,1.27,4.64,2.45,9.97,2,8.99,2.19,9.66,2.86,9.75,.38,.06,.76-.09,.86-.32,.1-.22-.83-4.76-2.03-10.1-1.21-5.34-2.13-9.78-2.03-9.94,.06-.13,.51-.22,.98-.22h.89l2.19,9.91c2.26,10.13,2.45,10.58,3.65,9.81,.38-.25,.13-1.78-1.71-10-1.21-5.34-2.1-9.94-1.97-10.19,.1-.25,.51-.48,.92-.48,.7,0,.83,.29,2.13,6.1,3.24,14.55,3.02,13.75,3.75,13.85,.38,.06,.76-.09,.86-.32,.1-.22-.83-4.76-2.03-10.1-2-8.83-2.13-9.72-1.68-10.1,1.21-.92,1.4-.45,4.57,10.58,2.95,10.16,3.11,10.93,2.99,13.18-.1,1.97-.35,2.95-1.59,5.72-1.02,2.35-1.46,3.78-1.46,4.76,0,1.68,5.88,22.33,6.16,21.6,.1-.25,.83-3.59,1.62-7.37l1.46-6.89-.54-1.62c-.57-1.78-.54-3.27,.38-12.07,.6-6.03,1.65-11.12,3.62-17.69,2.1-6.99,4.19-11.24,6.8-13.91,3.3-3.37,5.27-3.08,5.27,.76,0,2.67-7.78,43.1-8.61,44.66-.41,.79-1.05,3.59-1.75,7.62-.6,3.49-1.17,6.73-1.27,7.21l-.16,.86,1.68-.48c6.73-1.94,11.81-4.99,16.52-9.91,6.29-6.57,9.5-14.64,9.53-23.88,.03-9.88-3.49-18.45-10.42-25.28-4.86-4.83-11.37-8.23-18.17-9.53-2.16-.41-10.13-.57-12.13-.22h0Zm0,0"/><g><g><path d="M255.26,556.3c-.23,.23-.46,.47-.7,.7-.19,.18-.12,.27,.08,.35,.47,.19,.93,.22,1.35-.11,.27-.21,.45-.17,.7,.06,.83,.75,1.77,1.35,2.82,1.78,.08,.03,.2,.05,.2,.14,0,.11-.12,.12-.19,.16-1.04,.54-2.07,1.09-3,1.82-.79,.63-1.44,1.39-2.01,2.23-.25,.37-.26,.38-.51,.03-.69-.95-1.63-1.6-2.58-2.26-2.34-1.64-1.79-4.27-.57-5.62,.64-.71,1.54-.96,2.48-1.02,1.59-.09,3.1,.26,4.57,.8,.12,.04,.36,.03,.25,.28-.13,.31-.35,.45-.57,.36-.35-.15-.71-.32-1.05-.5-.24-.13-.43-.1-.61,.11-.21,.24-.45,.46-.68,.68,0,0,0,0,0,0Z"/><path d="M251.59,565.54c-.14-.24-.2-.51-.37-.73-.28-.36-.6-.64-1.02-.82-1.24-.53-2.39-1.21-3.35-2.16-1.95-1.95-2.42-4.68-1.24-7.17,.54-1.15,1.28-2.16,2.15-3.08,.74-.79,1.53-1.52,2.38-2.2,.23-.19,.34-.17,.44,.12,.25,.72,.51,1.44,.78,2.15,.1,.26,.04,.41-.21,.53-1.09,.5-1.99,1.25-2.8,2.13-1.42,1.54-1.83,4.13-.89,5.87,.45,.83,1.17,1.39,1.9,1.96,.57,.44,1.15,.85,1.59,1.44,.43,.59,.63,1.25,.66,1.97Z"/><path d="M248.94,554.08c.15-.15,.3-.3,.45-.44,.11-.11,.21-.08,.23,.07,.09,.6,.46,1.04,.82,1.49,.11,.13,.12,.24,.01,.38-.77,1.07-1.03,2.25-.83,3.55,.02,.16-.02,.22-.18,.24-.57,.06-1.06,.28-1.45,.71-.17,.19-.26,.04-.34-.1-.39-.69-.52-1.44-.45-2.21,.13-1.54,.65-2.6,1.74-3.68Z"/><path d="M268.52,554.16l2.48,2.61s-4.52-.11-4.56-.02l2.06,2.17c.09-.01,.2-.09,.38-.23l.12,.12-.98,.96-.14-.14c.12-.16,.24-.25,.23-.35-.6-.62-1.22-1.27-1.82-1.89-.43-.39-.83-1.14-1.52-.66,0,0,.49-.5,.73-.73l4.32,.25-1.78-1.81c-.21-.23-.4-.38-.71-.15l.92-.92c-.27,.39,.06,.57,.27,.79Z"/><path d="M259.8,567.69l.12,.12-.97,.97-.12-.12c.08-.1,.13-.18,.17-.26-.06-.09-.16-.14-.26-.19-.79-.38-1.57-.75-2.36-1.13-.12-.06-.24-.1-.36-.15-.02,.02-.04,.04-.07,.06,.3,.7,.6,1.39,.9,2.09,.09,.21,.18,.42,.28,.64,.06,.14,.12,.29,.25,.33h0c.07-.04,.15-.1,.24-.17l.12,.12-.97,.97-.12-.12c.08-.11,.14-.19,.17-.27-.09-.55-.35-1.01-.53-1.49-.31-.87-.7-1.72-1.06-2.57-.03-.07-.06-.14-.08-.22-.03-.09-.09-.19,0-.28s.19-.02,.28,.02c.55,.25,1.1,.5,1.66,.75,.66,.3,1.32,.59,1.98,.89,.05,.02,.1,.04,.14,.07,.06,.03,.11,.05,.17,.08,.07,.03,.14,.04,.2,.04,.07-.04,.15-.1,.24-.17Z"/><path d="M252.91,568.47c-.58,.34-.89,.94-1.34,1.41,.3-.18,.49-.03,.68,.17l2.13,2.22c.11,.11,.22,.22,.31,.35,0,.01,.01,.02,.02,.03h0c-.01,.13-.08,.22-.19,.37l.12,.12,.97-.97-.12-.12c-.12,.1-.21,.16-.29,.2-.05,0-.11-.04-.16-.12l-.99-1.01c-.17-.14-.19-.28-.02-.44,.19-.17,.32-.39,.44-.62,.26-.51,.12-1.12-.39-1.62-.21-.2-.77-.21-1.16,.02Zm1.05,.78c.21,.39,.07,.93-.29,1.19-.11,.08-.2,.06-.29-.02l-.38-.37s-.52-.42-.42-.61c.16-.3,.41-.56,.79-.59,.29-.02,.47,.17,.59,.4Z"/><path d="M252.06,574.42c.47,.1,.77-.12,1.02-.42,.38-.45,.19-.97-.38-1.1-.29-.07-.59-.04-.89-.01-.36,.03-.73,.08-1.09-.02-.73-.19-1.05-.96-.67-1.62,.17-.29,.47-.48,.65-.74,.15-.27,.11-.41,.11-.41l.67,.75c-.46-.19-.67,.15-.88,.47-.26,.4-.1,.82,.37,.96,.45,.14,.92,.04,1.38,.03,.35,0,.68,0,.99,.19,.48,.31,.64,1.03,.34,1.51-.18,.28-.42,.51-.68,.72-.12,.1-.31,.22-.25,.44-.03,0-.48-.52-.7-.76Z"/><path d="M261.75,559.46l.65,.68c-.21-.12-.4,0-.57,.16l-.46,.43c-.2,.16-.22,.31-.03,.49l2.21,2.18c.1,.08,.17,.17,.26,.21,.08-.04,.17-.1,.3-.21l.12,.12-.97,.97-.12-.12c.09-.11,.15-.19,.17-.28-.05-.14-.2-.24-.3-.37l-2.04-2.12c-.2-.21-.35-.22-.54,0,0,0-.48,.48-.55,.63h0c-.05,.08-.09,.16-.1,.24,0,0,0,0,0,0,0,.06,0,.13,.05,.19l-.68-.65c.11,.04,.31-.05,.42-.16,.06-.06,.41-.4,.52-.5,.31-.3,.61-.6,.91-.91,.2-.2,.39-.39,.59-.59,.12-.12,.19-.23,.16-.42Z"/><circle cx="256.81" cy="567.85" r=".23"/><circle cx="264.75" cy="559.9" r=".23"/><path d="M267.8,559.78l.12,.12-.97,.98-.12-.12c.08-.1,.13-.18,.17-.26-.06-.09-.16-.14-.26-.19-.79-.38-1.57-.75-2.36-1.13-.12-.06-.24-.1-.36-.15-.02,.02-.04,.04-.07,.06,.3,.7,.6,1.39,.9,2.09,.09,.21,.18,.42,.28,.64,.06,.14,.12,.29,.25,.33h0c.07-.04,.15-.1,.24-.17l.12,.12-.97,.97-.12-.12c.08-.11,.14-.19,.17-.27-.09-.55-.35-1.01-.53-1.49-.31-.87-.7-1.72-1.06-2.57-.03-.07-.06-.14-.08-.22-.03-.09-.09-.19,0-.28s.19-.02,.28,.02c.55,.25,1.1,.5,1.66,.75,.66,.3,1.32,.59,1.98,.89,.05,.02,.1,.04,.14,.07,.06,.03,.11,.05,.17,.08,.07,.03,.14,.04,.2,.04,.07-.04,.15-.1,.24-.17Z"/></g><path d="M262.49,565.04l.12,.12-.71,.71-.1-.1s-.03-.02-.05-.03c-.28-.05-.34-.06-.51-.1-.59-.15-1.19-.24-1.79-.34-.39-.06-.45-.18-.26-.53,.04-.07,.07-.14,.1-.21,.19-.45,.1-.81-.26-.99-.34-.17-.74-.02-.99,.36-.13,.19,0,.29,.11,.39,.48,.49,.97,.96,1.45,1.45,.23,.23,.44,.47,.66,.7,.11,.12,.22,.25,.38,.29,.07-.04,.16-.1,.27-.19l.12,.12-.97,.97-.12-.12c.11-.14,.17-.24,.19-.35h0c-.05-.12-.17-.22-.27-.32-.75-.76-1.49-1.53-2.24-2.3-.15-.15-.32-.27-.58-.18,.48-.45,.78-1.07,1.39-1.38,.65-.33,1.43,.25,1.42,1.06,0,.04,0,.09,0,.13-.07,.58-.07,.59,.5,.7,.41,.08,.82,.15,1.23,.23,.13,.03,.26,.05,.39,.08,0,0,0,0,0,0,.12,.03,.23,0,.34-.04,.05-.04,.11-.08,.18-.14Z"/></g><g><path class="cls-20" d="M49.37,555.91h-.85l-.18,.74c.41,.03,.98,.39,.51,.83-.06,.05-4.82,3.69-4.82,3.69l1.02-3.71c.21-.72,.98-.8,.98-.8l.18-.74h-5.73s-.18,.75-.18,.75c.27,.07,1.05,.22,.78,1.25-1.91,6.91-1.69,6.22-1.82,6.6-.52,2-1.37,1.9-1.67,1.92l-.18,.74v.05s0,0,0,0h5.98l.2-.81s-.95-.19-.77-.88c.18-.67,.93-3.4,.93-3.4,2.65,4.25,3.3,4.99,5.61,5.09,.78,.04,1.75,0,3.05,0l.2-.8c-.76,0-1.25-.54-1.56-.87-.16-.17-.96-1.39-1.69-2.5-.66-1.01-1.25-1.94-1.25-1.94l1.25-1,3.57-2.86c.81-.68,1.39-.61,1.39-.61l.19-.74h-5.15Z"/><path class="cls-20" d="M73.65,555.8c-.64,0-1.25,.02-1.83,.09-4.8,.56-7.7,3.58-7.69,6.61,0,2.54,2.06,4.98,6.81,4.96,.3,0,.59-.01,.88-.03,1.15-.06,2.17-.22,3.09-.41l.55-2.36c-.92,.31-2.09,.56-3.02,.57-.21,0-.42,0-.63-.03-2.18-.22-3.61-1.63-3.61-3.43,0-1.87,1.35-3.33,3.61-3.71,.38-.07,.78-.1,1.21-.1,1.46,0,2.2,.48,2.68,1.12h.39l.78-2.79c-.8-.26-1.99-.48-3.23-.5Z"/><path class="cls-20" d="M61.03,555.91h-5.65l-.18,.74s1.13,.13,.78,1.25l-2.56,9.32h5.13s.19-.79,.19-.79c0,0-.96-.23-.71-1.11,.02-.08,.75-2.77,.75-2.77h2.26s.09,0,.09,0c1.17,0,1.55,.61,1.55,.61l.68-2.77h-3.96l.59-2.17h3.44c.63,0,1.08,.42,1.08,.73h.39l.76-3.03h-4.62Z"/></g><g><path class="cls-2" d="M576.34,642.49l-.65,.65-1.65-1.65c-.13-.13-.34-.13-.47,0l-1.76,1.76c-.13,.13-.13,.34,0,.47l1.65,1.65-.65,.65c-.13,.13-.13,.34,0,.47l1.76,1.76c.13,.13,.34,.13,.47,0l3.53-3.53c.13-.13,.13-.34,0-.47l-1.76-1.76c-.13-.13-.34-.13-.47,0Zm-3.83,1l.41-.41,.24,.24c.13,.13,.34,.13,.47,0s.13-.34,0-.47l-.24-.24,.42-.42,1.29,1.29-1.29,1.29-1.3-1.29Zm1,2.76l.35-.35,.24,.24c.13,.13,.34,.13,.47,0s.13-.34,0-.47l-.24-.24,.47-.47,1.29,1.29-1.29,1.29-1.29-1.29Zm4.36-1.77l-1.3,1.3-1.29-1.29,.47-.47,.24,.24c.13,.13,.34,.13,.47,0s.13-.34,0-.47l-.24-.24,.36-.36,1.29,1.29Z"/><path class="cls-2" d="M574.92,634.04s-.02-.02-.03-.03c0,0-.01-.01-.02-.02,0,0-.01-.01-.03-.02,0,0-.02-.01-.03-.01,0,0-.02,0-.03,0h-.03s-.03-.01-.03-.01c-.01,0-.02,0-.03,0h-.03s-.04,0-.04,0h0l-8.23,1.88c-.12,.03-.22,.13-.25,.25l-1.88,8.23h0v.04s0,.03,0,.03c0,.01,0,.02,0,.03v.03s0,.04,0,.04c0,0,0,.02,0,.03,0,0,0,.02,.01,.03,0,0,0,.02,.02,.03,0,0,.01,.01,.02,.02,0,.01,.02,.03,.03,.04l6.93,6.93c.13,.13,.34,.13,.47,0l2.12-2.12c.13-.13,.13-.34,0-.47l-4.58-4.58,5.41-5.41,4.58,4.58c.13,.13,.34,.13,.47,0,.02-.01,.03-.03,.04-.04,.02-.01,.03-.03,.04-.04l2.03-2.03c.13-.13,.13-.34,0-.47l-6.93-6.93Zm-6.11,9.87l-.24-.24,5.41-5.41,.24,.24-5.41,5.41Zm10.7-1.06l-5.29-5.29c-.13-.13-.34-.13-.47,0l-5.88,5.88c-.13,.13-.13,.34,0,.47l5.29,5.29-1.65,1.65-6.57-6.57,1.79-7.84,7.84-1.79,6.57,6.57-1.65,1.65Z"/><path class="cls-2" d="M569.17,637.68l-1.29,1.29c-.13,.13-.13,.34,0,.47s.34,.13,.47,0l1.29-1.29c.13-.13,.13-.34,0-.47s-.34-.13-.47,0Z"/><path class="cls-2" d="M569.87,638.39l-1.29,1.29c-.13,.13-.13,.34,0,.47s.34,.13,.47,0l1.29-1.29c.13-.13,.13-.34,0-.47s-.34-.13-.47,0Z"/></g><g><path class="cls-2" d="M474.7,484.25l-.38,.38-.95-.95c-.08-.08-.2-.08-.27,0l-1.02,1.02c-.08,.08-.08,.2,0,.27l.95,.95-.38,.38c-.08,.08-.08,.2,0,.27l1.02,1.02c.08,.08,.2,.08,.27,0l2.04-2.04c.08-.08,.08-.2,0-.27l-1.02-1.02c-.08-.08-.2-.08-.27,0Zm-2.21,.58l.24-.24,.14,.14c.08,.08,.2,.08,.27,0s.08-.2,0-.27l-.14-.14,.24-.24,.75,.75-.75,.75-.75-.75Zm.58,1.6l.2-.2,.14,.14c.08,.08,.2,.08,.27,0s.08-.2,0-.27l-.14-.14,.27-.27,.75,.75-.75,.75-.75-.75Zm2.52-1.02l-.75,.75-.75-.75,.27-.27,.14,.14c.08,.08,.2,.08,.27,0s.08-.2,0-.27l-.14-.14,.21-.21,.75,.75Z"/><path class="cls-2" d="M473.88,479.35s-.01-.01-.02-.02c0,0,0,0-.01-.01,0,0,0,0-.02,0,0,0-.01,0-.02,0,0,0-.01,0-.02,0h-.02s-.02,0-.02,0c0,0-.01,0-.02,0h-.01s-.02,0-.02,0h0l-4.76,1.09c-.07,.02-.13,.07-.14,.14l-1.09,4.76h0v.02s0,.01,0,.01c0,0,0,.01,0,.02v.02s0,.02,0,.02c0,0,0,.01,0,.02,0,0,0,.01,0,.02,0,0,0,.01,0,.02,0,0,0,0,.01,.01,0,0,.01,.02,.02,.02l4.01,4.01c.08,.08,.2,.08,.27,0l1.22-1.22c.08-.08,.08-.2,0-.27l-2.65-2.65,3.13-3.13,2.65,2.65c.08,.08,.2,.08,.27,0,0,0,.02-.02,.02-.02,0,0,.02-.01,.02-.02l1.18-1.18c.08-.08,.08-.2,0-.27l-4.01-4.01Zm-3.54,5.71l-.14-.14,3.13-3.13,.14,.14-3.13,3.13Zm6.19-.61l-3.06-3.06c-.08-.08-.2-.08-.27,0l-3.4,3.4c-.08,.08-.08,.2,0,.27l3.06,3.06-.95,.95-3.8-3.8,1.04-4.54,4.54-1.04,3.8,3.8-.95,.95Z"/><path class="cls-2" d="M470.55,481.46l-.75,.75c-.08,.08-.08,.2,0,.27s.2,.08,.27,0l.75-.75c.08-.08,.08-.2,0-.27s-.2-.08-.27,0Z"/><path class="cls-2" d="M470.95,481.87l-.75,.75c-.08,.08-.08,.2,0,.27s.2,.08,.27,0l.75-.75c.08-.08,.08-.2,0-.27s-.2-.08-.27,0Z"/></g><g><path class="cls-2" d="M487.86,474.5l-.38,.38-.95-.95c-.08-.08-.2-.08-.27,0l-1.02,1.02c-.08,.08-.08,.2,0,.27l.95,.95-.38,.38c-.08,.08-.08,.2,0,.27l1.02,1.02c.08,.08,.2,.08,.27,0l2.04-2.04c.08-.08,.08-.2,0-.27l-1.02-1.02c-.08-.08-.2-.08-.27,0Zm-2.21,.58l.24-.24,.14,.14c.08,.08,.2,.08,.27,0s.08-.2,0-.27l-.14-.14,.24-.24,.75,.75-.75,.75-.75-.75Zm.58,1.6l.2-.2,.14,.14c.08,.08,.2,.08,.27,0s.08-.2,0-.27l-.14-.14,.27-.27,.75,.75-.75,.75-.75-.75Zm2.52-1.02l-.75,.75-.75-.75,.27-.27,.14,.14c.08,.08,.2,.08,.27,0s.08-.2,0-.27l-.14-.14,.21-.21,.75,.75Z"/><path class="cls-2" d="M487.04,469.61s-.01-.01-.02-.02c0,0,0,0-.01-.01,0,0,0,0-.02,0,0,0-.01,0-.02,0,0,0-.01,0-.02,0h-.02s-.02,0-.02,0c0,0-.01,0-.02,0h-.01s-.02,0-.02,0h0l-4.76,1.09c-.07,.02-.13,.07-.14,.14l-1.09,4.76h0v.02s0,.01,0,.01c0,0,0,.01,0,.02v.02s0,.02,0,.02c0,0,0,.01,0,.02,0,0,0,.01,0,.02,0,0,0,.01,0,.02,0,0,0,0,.01,.01,0,0,.01,.02,.02,.02l4.01,4.01c.08,.08,.2,.08,.27,0l1.22-1.22c.08-.08,.08-.2,0-.27l-2.65-2.65,3.13-3.13,2.65,2.65c.08,.08,.2,.08,.27,0,0,0,.02-.02,.02-.02,0,0,.02-.01,.02-.02l1.18-1.18c.08-.08,.08-.2,0-.27l-4.01-4.01Zm-3.54,5.71l-.14-.14,3.13-3.13,.14,.14-3.13,3.13Zm6.19-.61l-3.06-3.06c-.08-.08-.2-.08-.27,0l-3.4,3.4c-.08,.08-.08,.2,0,.27l3.06,3.06-.95,.95-3.8-3.8,1.04-4.54,4.54-1.04,3.8,3.8-.95,.95Z"/><path class="cls-2" d="M483.71,471.72l-.75,.75c-.08,.08-.08,.2,0,.27s.2,.08,.27,0l.75-.75c.08-.08,.08-.2,0-.27s-.2-.08-.27,0Z"/><path class="cls-2" d="M484.12,472.13l-.75,.75c-.08,.08-.08,.2,0,.27s.2,.08,.27,0l.75-.75c.08-.08,.08-.2,0-.27s-.2-.08-.27,0Z"/></g><g><path class="cls-2" d="M623.53,688.37l-.65,.65-1.65-1.65c-.13-.13-.34-.13-.47,0l-1.76,1.76c-.13,.13-.13,.34,0,.47l1.65,1.65-.65,.65c-.13,.13-.13,.34,0,.47l1.76,1.76c.13,.13,.34,.13,.47,0l3.53-3.53c.13-.13,.13-.34,0-.47l-1.76-1.76c-.13-.13-.34-.13-.47,0Zm-3.83,1l.41-.41,.24,.24c.13,.13,.34,.13,.47,0s.13-.34,0-.47l-.24-.24,.42-.42,1.29,1.29-1.29,1.29-1.3-1.29Zm1,2.76l.35-.35,.24,.24c.13,.13,.34,.13,.47,0s.13-.34,0-.47l-.24-.24,.47-.47,1.29,1.29-1.29,1.29-1.29-1.29Zm4.36-1.77l-1.3,1.3-1.29-1.29,.47-.47,.24,.24c.13,.13,.34,.13,.47,0s.13-.34,0-.47l-.24-.24,.36-.36,1.29,1.29Z"/><path class="cls-2" d="M622.11,679.91s-.02-.02-.03-.03c0,0-.01-.01-.02-.02,0,0-.01-.01-.03-.02,0,0-.02-.01-.03-.01,0,0-.02,0-.03,0h-.03s-.03-.01-.03-.01c-.01,0-.02,0-.03,0h-.03s-.04,0-.04,0h0l-8.23,1.88c-.12,.03-.22,.13-.25,.25l-1.88,8.23h0v.04s0,.03,0,.03c0,.01,0,.02,0,.03v.03s0,.04,0,.04c0,0,0,.02,0,.03,0,0,0,.02,.01,.03,0,0,0,.02,.02,.03,0,0,.01,.01,.02,.02,0,.01,.02,.03,.03,.04l6.93,6.93c.13,.13,.34,.13,.47,0l2.12-2.12c.13-.13,.13-.34,0-.47l-4.58-4.58,5.41-5.41,4.58,4.58c.13,.13,.34,.13,.47,0,.02-.01,.03-.03,.04-.04,.02-.01,.03-.03,.04-.04l2.03-2.03c.13-.13,.13-.34,0-.47l-6.93-6.93Zm-6.11,9.87l-.24-.24,5.41-5.41,.24,.24-5.41,5.41Zm10.7-1.06l-5.29-5.29c-.13-.13-.34-.13-.47,0l-5.88,5.88c-.13,.13-.13,.34,0,.47l5.29,5.29-1.65,1.65-6.57-6.57,1.79-7.84,7.84-1.79,6.57,6.57-1.65,1.65Z"/><path class="cls-2" d="M616.35,683.56l-1.29,1.29c-.13,.13-.13,.34,0,.47s.34,.13,.47,0l1.29-1.29c.13-.13,.13-.34,0-.47s-.34-.13-.47,0Z"/><path class="cls-2" d="M617.06,684.26l-1.29,1.29c-.13,.13-.13,.34,0,.47s.34,.13,.47,0l1.29-1.29c.13-.13,.13-.34,0-.47s-.34-.13-.47,0Z"/></g><line class="cls-29" x1="464.07" y1="649.67" x2="464.07" y2="704.95"/><text class="cls-16" transform="translate(364.44 424.06) rotate(44.12) skewX(3.02)"><tspan x="0" y="0">XPRESS</tspan></text><text class="cls-18" transform="translate(333.52 523.19) rotate(42.99) skewX(3.02)"><tspan x="0" y="0">BU</tspan><tspan class="cls-39" x="6.9" y="0">R</tspan><tspan x="10.15" y="0">GER 1</tspan></text></g><polygon id="Atrium_AradS268_269" class="cls-30" points="79.8 288.24 79.8 327.09 18.05 327.09 18.05 292.8 30.16 292.8 30.16 288.24 79.8 288.24"/><rect id="Atrium_AradS267" class="cls-30" x="18.05" y="328.89" width="61.75" height="33.58"/><rect id="Atrium_AradS264" class="cls-29" x="18.05" y="404.07" width="61.75" height="19.79"/><polygon id="Atrium_AradS292" class="cls-29" points="11.22 425.18 79.8 425.18 79.8 469.91 55.82 469.91 55.82 449.64 11.22 449.64 11.22 425.18"/><polygon id="Atrium_AradS201" class="cls-29" points="80.38 480.4 80.38 533.22 52.72 533.22 52.72 481.18 80.38 480.4"/><polygon id="Atrium_AradS290" class="cls-29" points="80.38 534.54 80.38 589.7 34.6 589.7 25.97 534.54 80.38 534.54"/><polygon id="Atrium_AradS288" class="cls-29" points="21.89 598.33 48.15 598.33 48.15 626.63 24.53 626.63 21.89 598.33"/><rect id="Atrium_AradS287" class="cls-29" x="134.23" y="650.36" width="50.72" height="53.6"/><rect id="Atrium_AradS286" class="cls-29" x="199.22" y="650.13" width="14.55" height="20.15"/><polygon id="Atrium_AradS284" class="cls-29" points="479.48 703.63 552.78 703.63 561.89 712.71 627.14 712.91 533.68 619.9 501.94 650.03 463.06 650.03 463.06 677.18 463.06 703.73 479.48 703.63"/><polygon id="Atrium_AradS282A" class="cls-29" points="661.26 712.81 721.47 712.81 672 663.34 672.47 662.55 569.29 559.37 528.89 599.77 540.86 611.74 550.69 601.92 661.26 712.81"/><polygon id="Atrium_AradS281" class="cls-29" points="544.13 582.38 531.37 569.62 514.99 586 527.7 598.71 544.13 582.38"/><polygon id="Atrium_AradS279_280" class="cls-29" points="506.16 575.89 451.07 523.36 500.39 476.88 555.48 529.22 506.16 575.89"/><polygon id="Atrium_AradS215" class="cls-29" points="313.07 389.77 169.69 254.13 209.82 216.31 276.3 279.47 284.81 271.61 346.92 330.73 386.81 368.26 338.27 413.46 313.07 389.77"/><polygon id="Atrium_AradS215A" class="cls-29" points="11.08 273.45 11.08 111.18 127.05 111.18 222.27 15.95 345.66 139.35 346.12 138.9 386.81 179.59 288.42 272.8 240.39 228.37 245.25 223.51 238.13 216.39 247.12 207.4 225.8 186.99 161.93 247.59 126.43 243.06 126.43 273.45 11.08 273.45"/><path id="Atrium_AradS255D" class="cls-29" d="M231.16,561.99l-10.24,9.62c9.93,5.83,36.58,15.25,36.58,15.25l-26.34-24.87Z"/><path id="Atrium_AradS255B_S255C-E" class="cls-29" d="M290.92,583.09l-14.36-13.26-3.31,3.31-5.34-4.85,10.12-9.88-21.54-20.52-24.05,23.05,27.92,26.35c14.95,5.41,42.73,7.8,42.73,7.8l-12.17-12.01Z"/><polygon id="Atrium_AradS255A" class="cls-29" points="257.5 536.92 265.1 529.57 286.49 550.18 279.35 557.4 257.5 536.92"/><polygon id="Atrium_AradS250A" class="cls-29" points="273.63 521.48 293.31 502.98 321.8 529.98 301.97 548.69 273.63 521.48"/><polygon id="Atrium_AradDS4_R-001_S250B" class="cls-29" points="294.51 502 313.16 484.42 341.63 511.16 322.82 529 294.51 502"/><polygon id="Atrium_AradS251" class="cls-29" points="342.67 512.26 317.44 536.38 323.91 542.57 331.5 535.47 345.29 548.69 363.49 531.75 342.67 512.26"/><path id="Atrium_AradS252" class="cls-29" d="M364.37,532.8l41.1,38.89c-38.6,24.19-69.83,23.06-69.83,23.06l-18.49-17.69,47.22-44.26Z"/><polygon id="Atrium_AradS274" class="cls-29" points="351.36 429.13 371.29 410.21 395.71 433.53 396.15 432.8 399.39 435.95 379.58 455.57 351.36 429.13"/><polygon id="Atrium_AradS275" class="cls-29" points="380.75 456.7 398.57 473.78 417.75 454.43 400.33 437.02 380.75 456.7"/><polyline id="Atrium_AradS276" class="cls-29" points="431.72 468.31 418.82 455.57 399.39 474.67 412.52 487.25"/><polygon id="Atrium_AradS277" class="cls-29" points="416.93 490.85 440.87 466.5 454.11 479.79 430.21 503.6 416.93 490.85"/><polygon id="Atrium_AradS278" class="cls-29" points="431.25 504.69 449.67 522.42 474.13 499.73 455.11 480.92 431.25 504.69"/><polyline class="cls-29" points="457.32 482 475.15 464.17 478.36 467.38 471.93 473.81 486.74 488.63"/><line class="cls-29" x1="478.36" y1="467.38" x2="484.73" y2="461.01"/><rect id="Atrium_AradS285" class="cls-29" x="433.49" y="650.29" width="29.57" height="22.64"/><polygon id="Atrium_AradS283" class="cls-29" points="215.52 650.29 215.52 703.5 463.06 703.5 463.06 674.37 433.14 674.37 433.14 650.29 215.52 650.29"/><polygon class="cls-29" points="18.39 364.57 18.39 400.97 79.48 400.97 79.48 364.98 18.39 364.57"/></svg>