<?xml version="1.0" encoding="UTF-8"?><svg id="Layer_4" xmlns="http://www.w3.org/2000/svg" viewBox="0 0 748.91 724.26"><defs><style>.cls-1{font-size:8.39px;}.cls-1,.cls-2,.cls-3,.cls-4,.cls-5,.cls-6,.cls-7,.cls-8,.cls-9,.cls-10,.cls-11,.cls-12,.cls-13,.cls-14,.cls-15,.cls-16,.cls-17,.cls-18,.cls-19{fill:#1d1d1b;}.cls-1,.cls-2,.cls-3,.cls-4,.cls-5,.cls-6,.cls-7,.cls-8,.cls-10,.cls-11,.cls-12,.cls-13,.cls-14,.cls-15,.cls-16,.cls-17,.cls-19{font-family:Axiforma-Bold, Axiforma;}.cls-20{letter-spacing:-.02em;}.cls-21{letter-spacing:0em;}.cls-2{font-size:5.43px;}.cls-22{letter-spacing:-.02em;}.cls-3{font-size:9.29px;}.cls-23{fill:#ed7013;}.cls-24{letter-spacing:0em;}.cls-25{letter-spacing:0em;}.cls-26{fill:#f6f6f6;}.cls-27{letter-spacing:0em;}.cls-28{letter-spacing:-.02em;}.cls-29{letter-spacing:-.01em;}.cls-30{letter-spacing:-.01em;}.cls-4{font-size:9.25px;}.cls-31{letter-spacing:-.03em;}.cls-32{letter-spacing:-.03em;}.cls-33{letter-spacing:0em;}.cls-34{letter-spacing:0em;}.cls-35{letter-spacing:-.08em;}.cls-36{letter-spacing:-.02em;}.cls-5{font-size:4.35px;}.cls-37,.cls-38,.cls-39,.cls-40{fill:none;}.cls-37,.cls-38,.cls-40{stroke:#1d1d1b;}.cls-38,.cls-39,.cls-40{stroke-miterlimit:10;}.cls-41{letter-spacing:0em;}.cls-6{font-size:7.02px;}.cls-42{letter-spacing:-.03em;}.cls-43{letter-spacing:-.02em;}.cls-7{font-size:5.43px;}.cls-8{font-size:3.32px;}.cls-44{letter-spacing:-.03em;}.cls-45{letter-spacing:-.03em;}.cls-46{letter-spacing:-.03em;}.cls-9{fill-rule:evenodd;}.cls-47{letter-spacing:-.05em;}.cls-10{font-size:4.81px;}.cls-48{letter-spacing:-.03em;}.cls-49{letter-spacing:0em;}.cls-11{font-size:5.7px;}.cls-39{stroke:#12100b;}.cls-50{letter-spacing:-.02em;}.cls-40{stroke-width:2px;}.cls-51{letter-spacing:-.09em;}.cls-12{font-size:2.88px;}.cls-13{font-size:6.07px;}.cls-52{letter-spacing:0em;}.cls-14{font-size:7.22px;}.cls-53{letter-spacing:-.01em;}.cls-54{letter-spacing:0em;}.cls-15{font-size:5.78px;}.cls-16{font-size:17.23px;}.cls-55{letter-spacing:0em;}.cls-17{font-size:4.44px;}.cls-56{letter-spacing:-.05em;}.cls-19{font-size:6.01px;}.cls-57{letter-spacing:-.03em;}</style></defs><g id="cladire"><g><path class="cls-26" d="M559.55,719.26l-9.04-9.3H44.15v-77.07H24.44c-3.27,0-6.04-2.55-6.31-5.81L5,468.92V105.02H124.26L222.2,7.07l124.66,124.66c8.54-4.53,16.56-6.83,23.87-6.83,8.67,0,16.48,3.15,23.2,9.37l.14,.13,240.92,240.93c12.32,12.96,13.26,30.21,2.77,48.89l88.06,88.06v106.06l-44.95,44.95,55.97,55.97h-177.29Z"/><path class="cls-26" d="M222.2,14.14l76.33,76.33,47.47,47.47c8.9-5.25,17.17-8.04,24.73-8.04s13.91,2.58,19.8,8.04l240.84,240.84c12.29,12.92,10.72,29.4,.1,46.23l1.33,1.33,88.02,88.02v101.92l-47.02,47.02,50.97,50.97h-163.1l-9.04-9.3H49.15v-75.74c0-.74-.6-1.33-1.33-1.33H24.44c-.69,0-1.27-.53-1.33-1.22l-13.11-157.95V110.02H126.33L222.2,14.14m0-14.14l-7.07,7.07L122.19,100.02H0V469.13l.03,.41,13.11,157.95c.48,5.83,5.44,10.4,11.29,10.4h14.71v77.07h509.25l6.09,6.27,2.95,3.03h191.47l-17.07-17.07-43.9-43.9,39.95-39.95,2.93-2.93v-110.2l-2.93-2.93-83.98-83.98c3.88-7.78,5.93-15.37,6.1-22.64,.25-10.73-3.69-20.68-11.39-28.77l-.09-.09-.09-.09-240.84-240.84-.14-.14-.14-.13c-7.67-7.1-16.62-10.7-26.59-10.7-7.16,0-14.83,1.93-22.89,5.74l-42.24-42.24L229.27,7.07l-7.07-7.07h0Z"/><path class="cls-40" d="M10,110.02H126.33L222.2,14.14l76.33,76.33,47.47,47.47c17.47-10.31,32.52-11.12,44.53,0l240.84,240.84c12.29,12.92,10.72,29.4,.1,46.23l1.33,1.33,88.02,88.02v101.92l-47.02,47.02,50.97,50.97h-163.1l-9.04-9.3H49.15v-75.74c0-.74-.6-1.33-1.33-1.33H24.44c-.69,0-1.27-.53-1.33-1.22l-13.11-157.95V110.02Z"/></g></g><g id="magazine"><polyline class="cls-38" points="302.47 94.41 218.13 175.38 242.82 199.08 197.3 242.77 182.18 228.26 165.22 244.54 334.19 406.73 383.4 359.49 301.6 280.98 368.11 217.13 337.38 187.63 389.81 137.3"/><path class="cls-38" d="M296.32,90l-40.74,40.72-55.59,53.36,7.56,7.25-48.88,46.92c-31.58-42.56-84.32-28.37-79.61,25.8H10"/><polyline class="cls-38" points="150.46 136.22 91.85 192.49 91.85 222.6"/><line class="cls-38" x1="123.16" y1="110.02" x2="150.46" y2="136.22"/><polyline class="cls-38" points="79.06 264.05 79.06 351.16 79.06 459.78 50.9 459.78 50.9 439.79 10 439.79"/><line class="cls-38" x1="10" y1="351.16" x2="79.06" y2="351.16"/><polyline class="cls-38" points="79.06 316.84 42.85 316.84 42.85 351.16"/><polyline class="cls-38" points="10 372.75 34.09 372.75 34.09 400.24 79.06 400.24"/><path class="cls-38" d="M202.39,704.95v-67.92h-13.7l-16.47-15.81-12.4-11.9c-30.68-3.55-48.38-19.27-51.09-49.04l-29.28-28.1v-63.58H10"/><line class="cls-38" x1="79.06" y1="521.89" x2="14.41" y2="521.89"/><line class="cls-38" x1="51.35" y1="468.59" x2="51.35" y2="521.89"/><polyline class="cls-38" points="231.64 704.95 231.64 663.33 211.28 663.33 211.28 637.03"/><polyline class="cls-38" points="685.1 674.59 655.1 703.39 621.48 703.39 594.18 677.19 567.37 702.93 567.37 714.26"/><polyline class="cls-38" points="211.28 637.03 494.4 637.03 534.36 598.68 505.09 570.59 525.88 550.63 539.29 563.5 567.66 536.27 686.62 650.46"/><polyline class="cls-38" points="231.64 663.33 252.29 663.33 252.29 637.03"/><line class="cls-38" x1="494.01" y1="637.03" x2="494.01" y2="704.95"/><line class="cls-38" x1="534.36" y1="598.68" x2="583.52" y2="551.49"/><polygon class="cls-38" points="498.48 564.25 547.64 517.06 417.65 392.28 389.08 419.7 366.71 398.22 345.72 418.37 397.18 467.51 498.48 564.25"/><polyline class="cls-38" points="396.21 466.58 417.07 446.56 389.08 419.7 368.16 439.79"/><path class="cls-38" d="M295.78,457.7l106.78,102.5c-66.68,32.93-130.32,30.41-191.28-3.08,8.52-29.71,27.49-54.92,53.88-76.92l45.93,44.08-20.6,19.77,20.92,20.08,27.78-26.67-67.22-64.52c6.86-6.75,14.75-11.91,23.81-15.24Z"/><path class="cls-38" d="M158.8,328.17l105.91,101.66c-20.34,37.94-56.17,63.79-102.37,81.57-36.41-65.6-35.16-126.36-3.54-183.23Z"/><line class="cls-38" x1="317.51" y1="516.66" x2="337.36" y2="497.61"/><polyline class="cls-38" points="359.03 518.41 339.18 537.46 374.94 571.78"/><polyline class="cls-38" points="344.36 579.8 319.72 556.15 292.25 582.52"/><line class="cls-38" x1="290.49" y1="544.05" x2="257.08" y2="576.12"/><polyline class="cls-38" points="228.56 565.74 252.29 542.97 270.63 525.36 244.35 500.13"/><line class="cls-38" x1="228.17" y1="520.66" x2="251.85" y2="543.39"/><line class="cls-38" x1="205.24" y1="372.75" x2="136.75" y2="438.53"/><polyline class="cls-38" points="137.58 386.37 182.58 429.56 204.39 408.63 213.66 417.52 249.86 452.27"/><line class="cls-38" x1="233.89" y1="400.24" x2="214.77" y2="418.59"/><polyline class="cls-38" points="182.58 429.56 177.09 434.84 222.71 478.64"/><polyline class="cls-38" points="143.02 466.58 176.58 434.36 158.82 417.31"/><line class="cls-38" x1="153.21" y1="493.33" x2="195.61" y2="452.62"/><polyline class="cls-38" points="199.88 367.6 180.79 385.93 186.15 391.08"/><line class="cls-37" x1="318.3" y1="637.03" x2="318.3" y2="704.95"/><line class="cls-38" x1="301.6" y1="280.98" x2="252.39" y2="328.22"/><line class="cls-38" x1="197.3" y1="242.77" x2="180.46" y2="259.17"/><polyline class="cls-38" points="89.31 541.64 78.44 552.51 16.96 552.51"/><polyline class="cls-38" points="124.61 595.38 108.6 611.39 108.6 627.8 47.04 627.8"/><polyline class="cls-38" points="166.26 615.49 155.76 625.99 155.76 686.35 144.88 686.35 144.88 704.95"/></g><g id="logo"><text class="cls-15" transform="translate(159.44 381.74) rotate(-43.83) scale(.96 1) skewX(2.45)"><tspan x="0" y="0">VLA</tspan><tspan class="cls-47" x="11.88" y="0">D</tspan><tspan x="16.05" y="0">Y</tspan><tspan class="cls-43" x="19.97" y="0">’</tspan><tspan class="cls-33" x="21.3" y="0">S</tspan></text><text class="cls-12" transform="translate(186.72 386.9) rotate(-43.83) scale(.96 1) skewX(2.45)"><tspan x="0" y="0">SMITH&amp;SMITH</tspan></text><text class="cls-8" transform="translate(176.07 250.35) rotate(-43.83) scale(.96 1) skewX(2.45)"><tspan x="0" y="0">SMAR</tspan><tspan class="cls-46" x="9.67" y="0">A</tspan><tspan class="cls-54" x="11.88" y="0">GD</tspan></text><text class="cls-6" transform="translate(17.69 302.32) scale(1.04 1)"><tspan x="0" y="0">ARMAN SPO</tspan><tspan class="cls-53" x="43.08" y="0">R</tspan><tspan class="cls-57" x="47.73" y="0">T</tspan></text><g><path class="cls-18" d="M51.82,330.05l-1.63-2.58h1.26l1.06,1.79,1.11-1.79h1.28l-1.72,2.58,1.71,2.64h-1.26l-1.14-1.83-1.15,1.83h-1.28l1.75-2.64Z"/><path class="cls-18" d="M58.49,331.56h-1.9l-.42,1.13h-1.14l2.08-5.22h.89l2.05,5.22h-1.15l-.41-1.13Zm-1.59-.93h1.28l-.63-1.74-.65,1.74Z"/><path class="cls-18" d="M62.44,330.79h-.65v1.9h-1.09v-5.22h2.09c1.27,0,1.86,.78,1.86,1.65,0,.63-.33,1.26-1.11,1.53l1.32,2.03h-1.28l-1.15-1.9Zm-.65-.94h.89c.61,0,.85-.35,.85-.71s-.26-.7-.75-.7h-.99v1.41Z"/><path class="cls-18" d="M68.58,331.56h-1.9l-.42,1.13h-1.14l2.08-5.22h.89l2.05,5.22h-1.15l-.41-1.13Zm-1.59-.93h1.28l-.63-1.74-.65,1.74Z"/><path class="cls-18" d="M47.4,340.28l.63-.73c.36,.47,.89,.73,1.44,.73,.46,0,.78-.23,.78-.56,0-.26-.21-.42-.49-.54-.35-.16-.8-.28-1.18-.49-.48-.26-.86-.65-.86-1.3,0-.86,.75-1.53,1.86-1.53,.63,0,1.28,.21,1.79,.71l-.58,.76c-.32-.32-.82-.49-1.19-.49-.44,0-.7,.21-.7,.5,0,.26,.22,.41,.44,.52,.29,.13,.83,.32,1.2,.5,.53,.25,.93,.64,.93,1.3,0,.93-.8,1.59-2,1.59-.83,0-1.6-.33-2.06-.98Z"/><path class="cls-18" d="M52.33,335.95h1.09v2.08h2.28v-2.08h1.09v5.22h-1.09v-2.13h-2.28v2.13h-1.09v-5.22Z"/><path class="cls-18" d="M57.68,338.58c0-1.52,1.25-2.72,2.84-2.72s2.84,1.21,2.84,2.71-1.23,2.69-2.84,2.69-2.83-1.18-2.83-2.68Zm4.54-.01c0-.98-.77-1.67-1.7-1.67s-1.7,.71-1.7,1.67,.74,1.66,1.7,1.66,1.71-.71,1.7-1.66Z"/><path class="cls-18" d="M64.24,335.95h3.69v.97h-2.59v1.12h2.4v.97h-2.4v1.17h2.59v.98h-3.69v-5.22Z"/><path class="cls-18" d="M68.47,340.28l.63-.73c.36,.47,.89,.73,1.44,.73,.46,0,.78-.23,.78-.56,0-.26-.21-.42-.49-.54-.35-.16-.8-.28-1.18-.49-.48-.26-.86-.65-.86-1.3,0-.86,.75-1.53,1.86-1.53,.63,0,1.28,.21,1.79,.71l-.58,.76c-.32-.32-.82-.49-1.19-.49-.44,0-.7,.21-.7,.5,0,.26,.22,.41,.44,.52,.29,.13,.83,.32,1.2,.5,.53,.25,.93,.64,.93,1.3,0,.93-.8,1.59-2,1.59-.83,0-1.6-.33-2.06-.98Z"/></g><text class="cls-1" transform="translate(30.31 366.25) scale(1.04 1)"><tspan x="0" y="0">ALESSI</tspan><tspan class="cls-32" x="29.17" y="0">A</tspan></text><text class="cls-3" transform="translate(20.18 422.93) scale(1.04 1)"><tspan x="0" y="0">MAXXIM</tspan><tspan class="cls-55" x="39.24" y="0">U</tspan><tspan x="45.95" y="0">S</tspan></text><text class="cls-11" transform="translate(53.04 493.18)"><tspan x="0" y="0">GINETTE</tspan></text><g><path class="cls-18" d="M220.02,642.98h3.7v1.05h-2.6v1.21h2.41v1.05h-2.41v1.27h2.6v1.05h-3.7v-5.64Z"/><path class="cls-18" d="M224.73,642.98h1.1v4.55h2.77v1.08h-3.87v-5.64Z"/><path class="cls-18" d="M229.31,642.98h1.1v4.55h2.77v1.08h-3.87v-5.64Z"/><path class="cls-18" d="M233.89,642.98h3.7v1.05h-2.6v1.21h2.41v1.05h-2.41v1.27h2.6v1.05h-3.7v-5.64Z"/><path class="cls-18" d="M243.25,642.98v5.64h-.75l-2.83-3.46v3.46h-1.08v-5.64h.69l2.88,3.49v-3.49h1.08Z"/><path class="cls-18" d="M218.97,656.82l.63-.79c.36,.51,.89,.79,1.45,.79,.46,0,.78-.25,.78-.6,0-.28-.21-.45-.5-.59-.35-.17-.8-.31-1.18-.53-.48-.28-.86-.7-.86-1.4,0-.93,.75-1.65,1.86-1.65,.64,0,1.29,.23,1.79,.76l-.58,.82c-.33-.35-.82-.53-1.2-.53-.44,0-.7,.22-.7,.54,0,.28,.22,.44,.44,.56,.29,.14,.83,.35,1.2,.54,.53,.27,.93,.69,.93,1.4,0,1-.8,1.72-2,1.72-.83,0-1.6-.36-2.07-1.05Z"/><path class="cls-18" d="M223.91,652.14h1.09v2.25h2.29v-2.25h1.09v5.64h-1.09v-2.3h-2.29v2.3h-1.09v-5.64Z"/><path class="cls-18" d="M229.29,654.98c0-1.64,1.25-2.94,2.84-2.94s2.84,1.3,2.84,2.92-1.23,2.91-2.85,2.91-2.84-1.27-2.84-2.89Zm4.55-.02c0-1.05-.77-1.81-1.71-1.81s-1.71,.77-1.71,1.81,.75,1.79,1.71,1.79,1.71-.76,1.71-1.79Z"/><path class="cls-18" d="M235.87,652.14h3.7v1.05h-2.6v1.21h2.41v1.05h-2.41v1.27h2.6v1.05h-3.7v-5.64Z"/><path class="cls-18" d="M240.11,656.82l.63-.79c.36,.51,.89,.79,1.45,.79,.46,0,.78-.25,.78-.6,0-.28-.21-.45-.5-.59-.35-.17-.8-.31-1.18-.53-.48-.28-.86-.7-.86-1.4,0-.93,.75-1.65,1.86-1.65,.64,0,1.29,.23,1.79,.76l-.58,.82c-.33-.35-.82-.53-1.2-.53-.44,0-.7,.22-.7,.54,0,.28,.22,.44,.44,.56,.29,.14,.83,.35,1.2,.54,.53,.27,.93,.69,.93,1.4,0,1-.8,1.72-2,1.72-.83,0-1.6-.36-2.07-1.05Z"/></g><g><path class="cls-18" d="M309.35,679.27c.09-.31,.09-.53,.06-.64-.03-.17-.12-.25-.29-.31l-.73-.08-.84,.08c-.17,.08-.32,.17-.44,.31-.12,.14-.2,.36-.29,.64-.06,.28-.06,.45-.03,.59,.03,.14,.12,.25,.29,.33l.73,.08,.52-.03,.41-.08,.35-.2,.17-.28,.03-.06h-.84l-.17,.2-.32,.03c-.17,0-.29-.03-.35-.11-.06-.06-.03-.2,.06-.39h1.66l.03-.08Zm-.87-.59c.09,0,.12,.03,.15,.08l-.06,.25h-.84v-.03c.06-.14,.12-.22,.17-.28l.35-.06,.23,.03Z"/><path class="cls-18" d="M300.32,677.38h-.81l-.81,2.87,.84,.03,.32-1.12c0-.14,.09-.25,.15-.31,.09-.11,.23-.14,.44-.14,.15,0,.23,.03,.26,.08,.03,.06,.03,.11,.03,.22l-.35,1.23,.81,.03,.38-1.42c.06-.22,.03-.36-.06-.45-.09-.11-.32-.17-.58-.17l-.49,.08c-.15,.06-.29,.17-.41,.31l-.03-.03,.32-1.23Z"/><path class="cls-18" d="M297.62,679.86l-.06-.03,.03-1.56h-.96l-.87,1.59-.06-.03,.17-1.56-.81-.03-.09,2.01,1.22,.03,.73-1.45h.06l-.03,1.42,1.16,.03,.99-2.01h-.73l-.76,1.59Z"/><path class="cls-18" d="M302.44,678.33c-.2,.08-.38,.17-.46,.31-.12,.2-.23,.39-.26,.64-.09,.22-.09,.42-.06,.59,.03,.14,.12,.25,.26,.33l.78,.08,.49-.03,.44-.08,.29-.2,.2-.31,.03-.03h-.81l-.2,.2-.32,.03c-.17,0-.29-.03-.35-.11-.03-.06-.03-.2,.03-.39h1.68l.03-.08c.09-.28,.12-.5,.09-.64-.06-.17-.15-.25-.32-.31l-.73-.08-.81,.08Zm.67,.33l.23,.03c.09,0,.12,.03,.15,.08l-.03,.25h-.87l.03-.03c0-.14,.09-.22,.15-.28l.35-.06Z"/><path class="cls-18" d="M306.33,678.24l-.41,.06c-.12,.06-.23,.14-.32,.28l-.09-.03,.12-.25v-.03l-.81-.03-.58,2.01,.84,.03,.32-1.23c.06-.11,.09-.17,.15-.22,.09-.08,.2-.11,.29-.11,.12,0,.2,.03,.2,.11l-.03,.2-.03,.08,.73,.03,.06-.17,.06-.36c0-.11-.03-.17-.12-.28-.06-.06-.2-.08-.38-.08Z"/><path class="cls-18" d="M287.8,679.05h-.26c-.32,0-.58,.03-.73,.14-.17,.08-.32,.25-.35,.5-.06,.14-.06,.28,0,.36,.03,.11,.12,.14,.23,.17l.49,.06,.32-.03,.29-.08,.23-.2h.06l-.12,.28,.81,.03,.35-1.28c.06-.22,.06-.39,0-.5l-.32-.22h-1.28c-.17,0-.35,.06-.46,.17-.12,.06-.2,.17-.29,.33l-.03,.06,.84,.03c.03-.11,.06-.17,.15-.22l.29-.03,.23,.03,.12,.14-.03,.17-.12,.33h-.06l-.12-.14-.26-.08Zm.35,.59l-.17,.2-.38,.06h-.15l-.15-.06-.06-.11v-.08c.06-.08,.12-.14,.2-.2l.26-.03,.35,.03,.09,.14v.06Z"/><path class="cls-18" d="M290.5,678.33l.03-.06h-.84l-.55,1.98,.84,.03,.29-1.14c.03-.11,.09-.22,.15-.28,.12-.11,.26-.14,.44-.14,.15,0,.23,0,.29,.06,.03,.08,.03,.14,0,.25l-.35,1.23,.81,.03,.41-1.42c.03-.2,0-.36-.09-.45-.09-.11-.29-.17-.55-.17l-.52,.06c-.15,.06-.26,.17-.41,.33l-.03-.03,.09-.28Z"/><path class="cls-18" d="M292.94,680.3l-.2,.31c-.09,.08-.2,.11-.41,.11h-.09l-.15,.36v.06l.29,.03,.58-.08,.38-.22,.32-.42,1.25-2.17h-.84l-.87,1.64h-.03l-.03-1.64-.87-.03,.17,2.01,.46,.03v.03h.03Z"/><path class="cls-18" d="M309.93,672.97c0-.56-.09-1-.29-1.31-.2-.28-.49-.5-.84-.64-.38-.11-.81-.17-1.31-.17h-2.76l-1.34,.17c-.35,.14-.64,.36-.84,.64-.2,.31-.29,.75-.29,1.31v1.7c0,.53,.09,.98,.29,1.31,.2,.28,.49,.47,.84,.61l1.34,.17h2.76c.49,0,.93-.06,1.31-.17,.35-.14,.64-.33,.84-.61,.2-.33,.29-.78,.29-1.31v-1.7Zm-5.9,.5c0-.28,.03-.5,.06-.72,.06-.2,.15-.33,.32-.47,.17-.08,.38-.14,.67-.14h2.03c.29,0,.52,.06,.67,.14,.17,.14,.26,.28,.32,.47l.06,1.42c.03,.47-.03,.81-.17,1.03-.15,.2-.41,.28-.78,.28h-2.18c-.41,0-.67-.08-.81-.28-.15-.22-.2-.56-.17-1.03v-.7Z"/><path class="cls-18" d="M301.8,676.71v-1.51h-4.15v-4.24h-1.8v5.74h5.95Z"/><path class="cls-18" d="M294.92,672.28v-1.31h-6.3v5.74h6.42v-1.39h-4.62v-.92h4.07v-1.2h-4.07v-.92h4.5Z"/><path class="cls-18" d="M287.98,670.96h-2.06l-2.09,4.38-2.09-4.38h-1.95l2.73,5.74h2.73l2.73-5.74Z"/><path class="cls-18" d="M279.23,670.96h-1.92l-.03,4.18-3.05-4.18h-2.9v5.74h1.8v-4.18l3.08,4.18h3.02v-5.74Z"/><path class="cls-18" d="M270.35,672.28v-1.31h-6.33v5.74h6.42v-1.39h-4.62v-.92h4.07v-1.2h-4.07v-.92h4.53Z"/><path class="cls-18" d="M263.32,676.71v-.03l-3.83-2.93,3.49-2.79h-2.56l-2.58,2.09h-.76v-2.09h-1.77v5.74h1.77v-2.2h.7l2.93,2.2h2.61Z"/><path class="cls-18" d="M252.63,670.99c-.06-.45-.32-.75-.81-.86l-4.21,3.35c-.03,.06-.06,.08-.09,.14v.14l.09,.14,4.62,3.62c.23-.2,.38-.45,.44-.75,.38-1.92,.38-3.85-.03-5.77Z"/><path class="cls-18" d="M249.78,669.93v-.03c-2.61-.17-5.23-.11-7.75,.2-.67,.03-1.02,.33-1.05,.92-.41,1.92-.41,3.85,0,5.74,.03,.61,.38,.95,1.05,.95l7.26,.2-4.1-3.26-.81,2.04h-1.83l-.2-.06c-.23-.08-.29-.22-.2-.45l2.18-5.46h2.41l-.96,2.4,4.01-3.18Z"/></g><g><path class="cls-18" d="M426.95,657.01c-.93,.4-1.65-.02-2.79,2.22-3.57,7.04-6.34,12.75-9.65,20.97,.1-6.75,1.35-12.12,2.1-18.69,.14-1.21,.33-2.88,.3-4.14-.02-.97-1.03-1.09-3.05-.14-1.12,.53-2.48,.49-2.99,1.77-2.2,5.47-7.28,20.66-9.63,29.26-.57,2.07,1.56,2.41,2.2,.29,1.55-5.12,5.09-16.45,7.2-22.29-.21,5.34-1.73,13.79-1.02,18.22,.22,1.39,1.58,2,2.27,3.17,.5,.84,1.29,.92,1.73-.22,2.06-5.4,6.08-14.94,9.96-22.56-.76,3.36-3.68,17.6-4.48,23.28-.16,1.14,1.29,1.17,2.58,2.88,.29,.38,1.41,.8,1.61-.18,.69-3.4,5.19-25.52,6.95-32.54,.47-1.89,.34-2.85-3.29-1.3Z"/><path class="cls-18" d="M397.51,673.08c1.55-2.22,2-1.77,2.37-2.44,.47-.85,.16-1.64-1.5-1.45,0,0-.63,.04-1.78,.17,1.84-4.54,3.44-8.39,4.6-11.32,.39-.99,.44-1.72-.2-1.87-.69-.16-2.67,.87-3.89,1.07-.39,.06-.76,.46-.89,.74-1.95,4.31-3.7,8.41-5.22,12.15-1.94,.32-4.21,.74-6.75,1.28,1.81-4.48,3.65-8.89,5.44-13.14,.88-2.09-1.44-2.29-2.34-.17-1.17,2.75-3.36,7.9-5.79,13.91-1.78,.42-3.67,.9-5.65,1.45-1.43,.4-1.5,.76-.88,1.59,.35,.46,1.05,.41,1.38,.74,.84,.85,1.34,1.87,2.84,2.02-1.34,3.43-2.68,6.97-3.89,10.38-.76,2.14,1.41,2.58,2.24,.31,1.34-3.65,2.76-7.34,4.21-11.02,1.21-.27,4.14-.88,6.84-1.44-2.15,5.65-3.56,9.94-4.09,12.02-.1,.4,.07,.62,.16,.79,.72,1.01,1.41,1.05,2.34,2.3,.25,.34,1.1,.52,1.39-.31,1.99-5.77,4.03-11.18,5.94-16.03,.79-.17,2.22-.5,3.09-1.75Z"/><path class="cls-18" d="M398.98,681.89c-.14,.12-.28,.25-.43,.39-.17-.49-.34-1-.49-1.47,.47-.55,.92-1.09,1.3-1.67,1.6-2.39-1.56-3.76-2.92-2.21-.73,.83-.55,1.64-.35,2.33,.06,.22,.16,.52,.27,.89-.39,.38-.85,.86-1.47,1.55-1.54,1.72-1.12,3.95,.53,4.44,1,.3,1.94-.14,2.75-.83,.04,.1,.08,.2,.12,.29,.43,1.04,1.77,.72,1.26-.53-.09-.22-.2-.51-.32-.85,.26-.32,.5-.64,.71-.94,.98-1.4,.03-2.22-.96-1.39Zm-1.05-3.28c-.15,.16-.29,.31-.43,.45-.03-.12-.07-.23-.09-.33-.46-1.67,1.53-1.21,.53-.12Zm-1.08,5.07c-.6,.35-1.08-.03-.27-1.1,.14-.18,.27-.35,.41-.53,.14,.4,.28,.82,.43,1.23-.19,.15-.38,.29-.57,.4Z"/></g><g><polygon class="cls-18" points="542.85 629.63 548.01 631.66 553.99 641.41 553.99 633.44 558.25 634.48 558.25 649.68 554.36 649.68 547.34 638.44 547.34 649.68 542.85 649.68 542.85 629.63 542.85 629.63"/><polygon class="cls-18" points="560.1 634.9 560.1 649.68 570 649.68 570 646.22 564.64 646.22 564.64 643.89 568.97 643.94 568.97 641.27 564.64 640.92 564.64 639.04 569.07 639.49 569.07 636.31 560.1 634.9 560.1 634.9"/><polygon class="cls-18" points="570.09 636.46 573.13 649.68 576.95 649.68 579.53 642.7 581.38 649.68 585.12 649.68 588.45 638.3 584.82 638.1 583.14 643.89 581.49 637.75 577.93 637.45 575.61 643.94 574.19 637.03 570.09 636.46 570.09 636.46"/><polygon class="cls-18" points="592.43 649.68 594.91 649.68 594.91 638.49 602.54 627.75 597.02 627.75 592.43 635.05 587.84 627.75 582.32 627.75 589.96 638.49 589.96 649.68 592.43 649.68 592.43 649.68"/><path class="cls-18" d="M601.83,637.76l-3.72,.24-1.8,1.62v8.22l1.85,1.85h3.59l1.75-1.88v-8.48l-1.68-1.56h0Zm-.93,9.69h-1.87v-6.88h1.87v6.88h0Z"/><path class="cls-18" d="M611.89,638.43l-1.37-1.34-5.84,.53v12.05h2.87v-4.85h1.57v4.85h2.76v-5.47l-.9-.96,.9-1.02v-3.79h0Zm-2.76,3.84h-1.57v-2.66h1.57v2.66h0Z"/><polygon class="cls-18" points="613.33 636.66 613.33 649.68 616.78 649.68 616.78 644.3 619.57 649.68 623.18 649.68 619.27 642.06 622.7 635.22 619.09 635.84 616.78 640.27 616.78 636.21 613.33 636.66 613.33 636.66"/><polygon class="cls-18" points="623.39 635.12 630.61 633.51 630.61 636.58 627.31 637.35 627.31 639.58 630.58 639.18 630.58 642.74 627.31 642.99 627.31 646.11 630.79 646.11 630.79 649.68 623.39 649.68 623.39 635.12 623.39 635.12"/><path class="cls-9" d="M635.84,638.93v-3.6l2.32-.61v3.93l-2.32,.28h0Zm-3.71,10.74h3.71v-7.05l2.32-.13v7.18h3.95v-7.67l-1.32-1.73,1.21-1.86v-6.04l-1.67-1.86-8.2,2.6v16.56h0Z"/></g><text class="cls-14" transform="translate(534.67 585.91) rotate(-43.83) skewX(2.34)"><tspan x="0" y="0">MEN</tspan><tspan class="cls-28" x="17.1" y="0">’</tspan><tspan x="18.76" y="0">S </tspan><tspan class="cls-29" x="24.92" y="0">S</tspan><tspan class="cls-27" x="29.21" y="0">TYLE</tspan></text><text class="cls-16" transform="translate(35.03 594.67) rotate(1.17) skewX(2.34)"><tspan x="0" y="0">NORIE</tspan><tspan class="cls-45" x="56.28" y="0">L</tspan></text><text class="cls-4" transform="translate(21.03 538.93) rotate(1.17) skewX(2.34)"><tspan class="cls-30" x="0" y="0">C</tspan><tspan class="cls-20" x="6.98" y="0">O</tspan><tspan class="cls-34" x="14.66" y="0">Z</tspan><tspan class="cls-42" x="20.68" y="0">A</tspan><tspan class="cls-25" x="26.86" y="0">C</tspan><tspan x="33.84" y="0">ONE</tspan></text><g id="Brandingmodul_Deichmann_quadratisch_vertikal"><path id="Deichmann" class="cls-18" d="M449.74,504.12c.55,.52,.87,1.28,.22,1.91l-.84,.81-2.2-2.09,.75-.73c.61-.59,1.33-.62,2.07,.09m1.17-1.12c-1.1-1.04-2.65-1.25-3.97,.02-.08,.08-2.06,2-2.06,2l3.99,3.78s1.97-1.91,2.06-2c1.31-1.28,1.08-2.76-.03-3.81m2.66,1.25l3.33-3.24-.86-.82-2.19,2.13-.72-.68,1.82-1.77-.83-.78-1.82,1.77-.72-.68,2.19-2.13-.86-.82-3.33,3.24,3.99,3.79Zm4.14-4.03l1.14-1.11-3.99-3.78-1.14,1.11,3.99,3.79Zm1.05-4.86c-.67-.64-1.01-1.41-.31-2.09,.48-.47,1.01-.41,1.45-.18l1.13-1.1c-.95-.79-2.33-.65-3.46,.44-1.42,1.38-1.15,2.95,.03,4.06,1.18,1.11,2.81,1.36,4.23-.03,1.18-1.15,1.21-2.47,.4-3.35l-1.13,1.1c.29,.4,.35,.9-.17,1.41-.7,.68-1.5,.38-2.17-.25m8.32-4.25l1.14-1.11-3.99-3.79-1.14,1.11,1.52,1.44-1.67,1.62-1.52-1.44-1.14,1.11,3.99,3.79,1.14-1.11-1.58-1.5,1.67-1.62,1.58,1.5Zm5.95-5.78l1.05-1.02-3.99-3.78-1.64,1.6,1.85,3.26h0l-3.41-1.73-1.64,1.6,3.99,3.79,1.05-1.02-2.99-2.83h0l3.89,1.95,.94-.91-2.09-3.71h0l2.99,2.82Zm2.75-5.51l-.96,.93-1.03-1.89h.01l1.98,.96Zm1.95,.94l1.22-1.19-5.46-2.36-1.39,1.35,2.51,5.23,1.22-1.19-.44-.81,1.49-1.45,.85,.41Zm4.42-4.3l1.26-1.22-3.99-3.79-1.1,1.07,2.5,2.37h0l-4.08-.82-1.31,1.27,3.99,3.79,1.1-1.07-2.52-2.39h0l4.16,.79Zm6.28-6.1l-3.99-3.79-1.1,1.07,2.5,2.37h0l-4.08-.82-1.31,1.27,3.99,3.79,1.1-1.07-2.52-2.39h0l4.16,.79,1.26-1.22Z"/></g><g><path class="cls-18" d="M383.62,448.59c-1.21-1.16-1.13-2.87,.04-4,.67-.64,1.54-.94,2.25-.92l.05,1.05c-.55,0-1.11,.21-1.53,.61-.74,.71-.74,1.76,0,2.47,.72,.69,1.81,.73,2.56,.01,.42-.41,.64-.97,.64-1.43l-.54-.52-1.1,1.05-.69-.67,1.82-1.75,1.64,1.57c.02,.95-.32,1.83-1.02,2.5-1.21,1.16-2.94,1.16-4.12,.03Z"/><path class="cls-18" d="M387.02,441.51l3.98,3.82-.8,.77-3.98-3.82,.8-.77Z"/><path class="cls-18" d="M387.9,440.66l2.65-2.55,.75,.72-1.86,1.78,.89,.86,1.63-1.57,.75,.72-1.63,1.57,1.58,1.52-.8,.76-3.98-3.82Z"/><path class="cls-18" d="M391.55,438.63l-.77-.74,3.08-2.96,.77,.74-1.14,1.09,3.21,3.08-.81,.78-3.21-3.08-1.14,1.09Z"/><path class="cls-18" d="M390.49,456.91l-.1-.97c.62,.09,1.21-.09,1.61-.48,.33-.32,.39-.72,.15-.96-.2-.19-.47-.16-.78-.05-.37,.13-.8,.35-1.23,.47-.55,.14-1.12,.13-1.62-.35-.66-.63-.61-1.64,.19-2.42,.46-.44,1.1-.75,1.85-.74l.16,.97c-.48,0-.97,.22-1.24,.48-.32,.31-.36,.64-.13,.86,.2,.19,.47,.14,.72,.07,.31-.11,.86-.35,1.26-.48,.58-.19,1.16-.19,1.67,.3,.71,.68,.62,1.73-.25,2.56-.61,.58-1.42,.88-2.25,.73Z"/><path class="cls-18" d="M390.8,450.29l.8-.77,1.59,1.52,1.67-1.6-1.59-1.52,.8-.76,3.98,3.82-.8,.76-1.62-1.56-1.67,1.6,1.62,1.56-.8,.76-3.98-3.82Z"/><path class="cls-18" d="M396.71,448.45c-1.16-1.11-1.16-2.86,0-3.98,1.16-1.12,2.99-1.11,4.13,0,1.14,1.09,1.15,2.83-.03,3.96-1.18,1.14-2.97,1.12-4.11,.03Zm3.31-3.19c-.74-.71-1.83-.69-2.52-.03-.69,.66-.7,1.71,.03,2.42,.73,.7,1.81,.69,2.51,.02,.7-.67,.71-1.71-.02-2.41Z"/><path class="cls-18" d="M403.69,440.43c.68,.65,.87,1.65-.17,2.65l-.61,.59,1.37,1.32-.8,.77-3.98-3.82,1.47-1.41c1-.96,2.06-.72,2.72-.09Zm-.82,.77c-.3-.29-.77-.35-1.15,.01l-.68,.66,1.15,1.1,.64-.61c.44-.42,.33-.88,.04-1.16Z"/></g><g><g><path class="cls-18" d="M329.87,338.52c.37-.07,.7-.25,1.01-.53,.3-.29,.51-.64,.63-1.04,.12-.4,.14-.81,.07-1.23-.07-.43-.24-.82-.52-1.2-.23-.29-.51-.5-.85-.61-.34-.11-.69-.13-1.05-.06-.36,.08-.7,.26-1,.54-.3,.29-.51,.64-.64,1.03-.13,.39-.16,.78-.12,1.18,.05,.39,.18,.74,.41,1.04,.28,.37,.61,.63,.97,.77,.36,.15,.73,.18,1.1,.11Z"/><path class="cls-18" d="M307.55,354.12c-.18,.13-.37,.29-.56,.48l-.25,.24,1.21,1.6,.25-.24c.19-.17,.35-.35,.5-.53,.14-.18,.23-.37,.24-.58,.02-.21-.07-.44-.26-.7-.2-.26-.4-.4-.58-.42-.18-.02-.37,.03-.55,.16Z"/><path class="cls-18" d="M312.66,339.29c-9.24,8.87-13.68,18.99-9.92,22.6s14.3-.65,23.54-9.52c9.24-8.87,13.68-18.99,9.92-22.6s-14.3,.65-23.54,9.52Zm13.58-.16c-.48-.66-.76-1.38-.84-2.15-.08-.78,.02-1.54,.29-2.27,.27-.74,.68-1.38,1.24-1.92,.57-.54,1.19-.89,1.88-1.08,.69-.19,1.37-.17,2.04,.04,.67,.21,1.26,.63,1.76,1.27,.52,.7,.85,1.44,.97,2.23,.13,.79,.07,1.56-.18,2.32-.25,.75-.69,1.43-1.3,2.03-.62,.59-1.29,.97-1.99,1.13-.7,.16-1.39,.1-2.06-.16-.67-.27-1.27-.75-1.8-1.43Zm-15.32,15.87c-.08,.69-.46,1.34-1.11,1.97l-.85,.81,1.6,2.12-1.49,1.43-4.84-6.4,2.29-2.2c.41-.4,.83-.68,1.26-.83,.43-.15,.84-.16,1.25-.01,.41,.14,.8,.46,1.17,.94,.57,.75,.81,1.47,.72,2.16Zm4.23-6.26l1.07,1.41-2.56,2.46,.84,1.1,2.65-2.55,1.06,1.41-4.15,3.98-4.84-6.39,4.15-3.98,1.07,1.41-2.65,2.55,.81,1.07,2.56-2.46Zm4.97-5.42c.56,.76,.8,1.47,.72,2.16-.09,.69-.45,1.34-1.11,1.97l-.85,.81,1.6,2.12-1.49,1.43-4.84-6.4,2.29-2.2c.41-.4,.83-.67,1.26-.83,.43-.15,.84-.16,1.25-.01,.41,.14,.8,.46,1.17,.94Zm1.28,.68c-.33-.44-.58-.93-.74-1.47-.16-.54-.22-1.1-.19-1.68,.04-.6,.18-1.17,.43-1.72,.25-.55,.57-1.02,.98-1.41,.48-.45,1.01-.78,1.61-.99l1.51,1.99c-.33-.08-.66-.07-.97,.03-.32,.1-.61,.28-.87,.53-.3,.3-.51,.64-.62,1.01-.11,.38-.13,.76-.06,1.15,.08,.39,.24,.75,.49,1.09,.4,.51,.85,.79,1.37,.84,.52,.05,1.02-.15,1.5-.59,.25-.24,.44-.53,.57-.87,.14-.34,.2-.69,.2-1.05l1.51,1.99c-.18,.32-.35,.61-.51,.86-.16,.25-.36,.49-.58,.71-.4,.39-.85,.67-1.34,.87-.49,.19-1,.28-1.53,.27-.56-.02-1.06-.16-1.53-.42-.46-.26-.87-.63-1.23-1.11Zm8.7,3.4c-3.01,3.65-2.77,3.22-.23-.11,5.04-6.62,7.14-13.4,4.19-16.23-.92-.88-2.34-1.53-4-1.41,.88-.21,1.93-.4,2.74-.25,.99,.13,1.95,.58,2.58,1.19,2.95,2.83,.29,10.07-5.29,16.81Z"/><path class="cls-18" d="M317.47,344.59c-.18,.13-.37,.29-.56,.48l-.25,.24,1.21,1.59,.25-.24c.19-.17,.35-.35,.5-.53,.15-.18,.23-.38,.25-.59,.02-.21-.07-.44-.26-.7-.2-.26-.4-.4-.58-.43-.18-.02-.37,.03-.55,.16Z"/></g><path class="cls-18" d="M304.14,347.43c15.48-22.79,30.25-24.22,33.63-19.17,.05,.08,.11,.14,.16,.21-1.43-6.92-11.36-12.41-24.8,3.74-2.88,3.47-6.33,9.42-8.99,15.21"/><path class="cls-18" d="M334.8,344.24c-15.48,22.79-30.25,24.22-33.63,19.17-.05-.07-.11-.14-.16-.21,1.43,6.92,11.36,12.41,24.8-3.75,2.88-3.47,6.33-9.42,8.99-15.21"/></g><g><path class="cls-18" d="M264.36,216.23c-14.44,13.86-19.22,31-10.87,39.01,8.35,8.01,26.2,3.43,40.64-10.44,14.44-13.86,19.22-31,10.87-39.01s-26.2-3.43-40.64,10.44Zm27.98,26.86c-13.24,12.71-29.84,17.38-37.07,10.44-7.23-6.94-2.37-22.87,10.87-35.58,13.24-12.71,29.84-17.38,37.07-10.44s2.37,22.87-10.87,35.58Z"/><path class="cls-18" d="M273.05,251.84c-.81-.78-1.66,.27-1.99-.04-.1-.1-.1-.26,.1-.45,.16-.15,.34-.27,.53-.38l-.58-.63c-.19,.13-.38,.29-.52,.42-.69,.66-.75,1.36-.24,1.85,.89,.85,1.64-.29,2.02,.07,.12,.11,.08,.29-.09,.46-.2,.19-.46,.36-.65,.44l.62,.67c.21-.13,.41-.29,.59-.46,.69-.67,.72-1.45,.2-1.95"/><path class="cls-9" d="M274.74,248.55c.22,.21,.17,.48-.02,.66-.01,.01-.03,.03-.06,.05l-.64-.61s.05-.06,.07-.07c.25-.24,.48-.18,.65-.02m.72-.73c-.57-.55-1.25-.47-1.95,.2-.29,.27-.54,.53-.77,.78l2.6,2.5,.72-.69-.8-.77c.05-.04,.1-.08,.11-.1,.7-.67,.59-1.42,.08-1.91Z"/><path class="cls-9" d="M278.96,245.3c.55,.53,.41,.97,.18,1.18-.35,.33-.76,.21-1.2-.21-.49-.47-.43-.9-.18-1.14,.34-.33,.74-.26,1.2,.17m.73-.77c-.94-.91-1.85-.74-2.53-.09-.73,.7-.77,1.8,.07,2.6s1.72,.88,2.54,.1c.74-.71,.77-1.8-.08-2.61Z"/><path class="cls-9" d="M281.87,241.66c.19,.18,.16,.41-.04,.6-.04,.04-.1,.09-.13,.11l-.56-.54s.08-.09,.13-.14c.24-.23,.44-.19,.59-.04m2.69,.78l-1.26-.31c-.16-.04-.32-.07-.49-.11,.19-.39,.07-.84-.24-1.14-.58-.55-1.18-.43-1.85,.21-.33,.31-.64,.63-.87,.87l2.6,2.5,.72-.69-.95-.91,.03-.03,1.44,.44,.87-.84Z"/><polyline class="cls-18" points="285.51 237.72 284.9 237.13 283.05 238.9 283.67 239.49 284.23 238.95 286.22 240.85 286.94 240.16 284.95 238.26 285.51 237.72"/><path class="cls-18" d="M289.68,235.87c-.81-.78-1.66,.27-1.99-.04-.1-.1-.1-.26,.1-.45,.16-.15,.34-.27,.53-.38l-.58-.63c-.19,.13-.38,.29-.52,.42-.69,.66-.75,1.36-.23,1.85,.89,.85,1.64-.29,2.02,.07,.12,.11,.08,.29-.09,.46-.2,.19-.46,.36-.65,.44l.62,.67c.21-.13,.41-.29,.59-.46,.69-.67,.72-1.45,.2-1.95"/><path class="cls-18" d="M263.67,241.79l-2.75,2.64s-4.13-3.96-4.52-4.33c-.61-.58-.5-1.17-.5-1.17l-3.35,3.21s.62-.11,1.23,.47l10.33,9.92c.61,.58,.49,1.19,.49,1.19l3.36-3.22s-.62,.11-1.23-.48c-.4-.38-3.13-2.99-4.8-4.6l2.76-2.65,4.8,4.6c.61,.58,.49,1.18,.49,1.18l3.36-3.22s-.62,.11-1.23-.47c-.4-.38-9.94-9.54-10.33-9.91-.61-.58-.48-1.19-.48-1.19l-3.36,3.22s.62-.11,1.22,.48c.39,.38,4.52,4.34,4.52,4.34"/><path class="cls-18" d="M277.04,233.81c-2.38-2.27-5.75-2.73-7.79-.78s-1.77,5.4,.61,7.69,5.97,2.55,8.01,.59c1.73-1.66,1.7-4.29,.23-6.47l-.94,.9s.58,.86,.72,2.19c.12,1.13-.58,1.83-1.14,2.24-1.26,.93-2.62-.16-4.38-1.86l4.68-4.49h0Zm-5.53,3.56c-1.37-1.41-2.03-2.63-1.22-3.41s2.12-.25,3.58,1.13l-2.37,2.27Z"/><path class="cls-18" d="M277.65,225.3c.87-.84,1.42-1.26,1.54-1.33,.89-.52,1.85-.34,2.35,.14,.61,.59,.54,1.6-.16,2.27s-1.75,.74-2.36,.15c-.33-.32-.46-.76-.4-1.21,0,0-1.01,.51-.98,1.57,.01,.5,.35,.83,.35,.83,0,0,5.58,5.36,5.97,5.74,.61,.58,1.23,.48,1.23,.48l-3.34,3.21s.11-.59-.5-1.18l-6.55-6.28c-.61-.59-1.24-.47-1.24-.47l4.08-3.92"/><path class="cls-18" d="M290.23,229.11l-2.48-5.54c-.25-.54-.85-.29-.85-.29l2.06-1.97s-.38,.53-.13,1.23l4.31,9.53-1.69,1.62-9.48-4.57c-.54-.25-1.11-.04-1.11-.04l3.56-3.42c-.24,.64,.31,.81,.31,.81l5.5,2.64"/><path class="cls-18" d="M288.6,214.79l-3.25,3.12s.61-.11,1.22,.48l6.55,6.28c.61,.58,.5,1.18,.5,1.18l3.25-3.12s-.61,.1-1.22-.48l-6.55-6.28c-.61-.59-.5-1.17-.5-1.17"/><path class="cls-18" d="M283.96,215.87c-.61-.59-.54-1.6,.16-2.27s1.75-.74,2.36-.15,.54,1.6-.16,2.27-1.75,.74-2.36,.15"/><path class="cls-18" d="M295.69,216.68c1.01-.31,1.86-.75,2.54-.96,.68-.21,1.36-.11,1.79,.31,.71,.68,.52,1.97-.43,2.88-.35,.34-.78,.58-1.19,.71,.19-.45,.29-1.1-.27-1.63-.61-.59-1.67-.52-2.36,.15-.52,.5-.69,1.2-.49,1.77,0,0,.19,.46,.6,.7,.09,.05,.31,.16,.41,.19,1.25,.4,2.8-.05,4.86-1.93,2.19-2.2,2.6-4.72,1.2-6.06-.61-.59-1.39-.93-2.35-.84-.64,.06-1.24,.1-2.59,.61-.81,.3-1.55,.67-2.05,.83-.64,.24-1.33,.17-1.77-.26-.64-.61-.53-1.71,.25-2.45,.17-.16,.35-.29,.54-.39l-.03,.13c-.06,.45,.07,.89,.4,1.21,.61,.58,1.67,.52,2.36-.15s.77-1.68,.16-2.27c-.4-.38-1.08-.49-1.79-.32-.92,.23-1.85,.73-2.64,1.49-1.88,1.8-2.26,4.36-.84,5.72,.9,.86,2.3,1.03,3.68,.58h.01"/></g><text class="cls-10" transform="translate(138.59 420.26) rotate(-43.83) skewX(2.34)"><tspan class="cls-22" x="0" y="0">G</tspan><tspan x="3.78" y="0">AD C&amp;E</tspan></text><text class="cls-10" transform="translate(147.58 448.17) rotate(-43.83) skewX(2.34)"><tspan x="0" y="0">MONDE</tspan><tspan class="cls-24" x="19.16" y="0">X</tspan></text><text class="cls-10" transform="translate(160.74 471.67) rotate(-43.83) skewX(2.34)"><tspan x="0" y="0">SURPRISE</tspan></text><text class="cls-13" transform="translate(232.67 414.8) rotate(43.63) skewX(2.34)"><tspan x="0" y="0">AN</tspan><tspan class="cls-31" x="9.04" y="0">T</tspan><tspan x="12.52" y="0">ONI</tspan><tspan x="-1.02" y="7.28">ZEEMAN</tspan></text><text class="cls-2" transform="translate(181.05 492.16) rotate(-43.83) skewX(2.34)"><tspan x="0" y="0">MIZAR</tspan></text><text class="cls-7" transform="translate(205.28 457.77) rotate(-43.83) skewX(2.34)"><tspan x="0" y="0">SNEAKE</tspan><tspan class="cls-21" x="22.1" y="0">R</tspan><tspan x="25.75" y="0">S</tspan></text><text class="cls-17" transform="translate(240.72 530.75) rotate(-43.83) scale(.74 1) skewX(3.16)"><tspan x="0" y="0">NOM</tspan><tspan class="cls-36" x="11.47" y="0">A</tspan><tspan class="cls-44" x="14.46" y="0">S</tspan><tspan x="17.03" y="0">VEL</tspan><tspan class="cls-48" x="25.89" y="0">L</tspan><tspan class="cls-41" x="28.5" y="0">O</tspan></text><g><path class="cls-18" d="M272.11,532.68l2.86,2.74-.39,.38-3.23-.26,1.75,1.68-.56,.54-2.86-2.74,.36-.35,3.27,.25-1.77-1.69,.56-.54Z"/><path class="cls-18" d="M274.02,533.61c-.83-.8-.83-2.05,0-2.86,.83-.8,2.15-.79,2.97,0,.82,.78,.83,2.03-.02,2.84-.85,.82-2.13,.8-2.95,.02Zm2.37-2.29c-.53-.51-1.32-.49-1.81-.02-.49,.47-.5,1.23,.02,1.74,.52,.5,1.3,.5,1.8,.01,.5-.48,.51-1.23-.02-1.73Z"/><path class="cls-18" d="M280.26,528.75c.45,.43,.5,1.12-.07,1.67l-1.3,1.25-2.86-2.74,1.24-1.19c.54-.52,1.18-.43,1.52-.1,.25,.24,.34,.62,.19,.93,.46-.26,.94-.13,1.28,.19Zm-3.17,.11l.62,.6,.56-.54c.25-.24,.2-.51,.04-.66-.15-.15-.42-.17-.64,.04l-.58,.56Zm2.53,.41c-.19-.18-.51-.24-.8,.04l-.63,.6,.75,.72,.63-.6c.29-.28,.23-.59,.05-.77Z"/><path class="cls-18" d="M279.27,525.8l2.86,2.74-.58,.55-2.86-2.74,.58-.55Z"/><path class="cls-18" d="M279.91,525.19l.58-.55,2.31,2.21,1.45-1.39,.55,.53-2.02,1.94-2.86-2.74Z"/><path class="cls-18" d="M286.07,523.58l-1,.96,.4,.8-.6,.58-1.77-3.79,.47-.45,3.93,1.71-.6,.58-.83-.39Zm-1.35,.31l.67-.65-1.28-.59,.61,1.24Z"/><path class="cls-18" d="M278.03,538.66c-.88-.85-.81-2.07-.01-2.84,.53-.51,1.22-.71,1.82-.61v.73c-.45-.04-.9,.06-1.24,.39-.51,.49-.52,1.25,.02,1.77,.53,.51,1.31,.5,1.82,0,.34-.32,.46-.76,.41-1.2l.75-.03c.09,.57-.1,1.26-.65,1.79-.82,.78-2.06,.85-2.93,0Z"/><path class="cls-18" d="M283.41,535.03l-1,.96,.4,.8-.6,.58-1.77-3.79,.47-.45,3.93,1.71-.6,.58-.83-.39Zm-1.34,.31l.67-.64-1.28-.59,.61,1.24Z"/><path class="cls-18" d="M284.37,534.36l-.07-.7c.45,.07,.87-.07,1.16-.34,.24-.23,.28-.52,.1-.69-.14-.14-.34-.11-.56-.04-.27,.09-.57,.25-.88,.34-.4,.1-.81,.09-1.16-.25-.47-.45-.44-1.18,.14-1.74,.33-.32,.79-.53,1.33-.53l.11,.69c-.35,0-.7,.16-.89,.35-.23,.22-.25,.46-.09,.62,.14,.14,.34,.1,.51,.05,.22-.08,.62-.25,.9-.34,.41-.14,.83-.13,1.2,.21,.51,.49,.45,1.24-.18,1.84-.44,.42-1.02,.63-1.62,.53Z"/><path class="cls-18" d="M288.27,530.37l-1,.96,.4,.8-.6,.58-1.77-3.79,.47-.45,3.93,1.71-.6,.58-.83-.39Zm-1.34,.31l.67-.65-1.28-.59,.61,1.24Z"/></g><text class="cls-5" transform="translate(331.56 525.88) rotate(-43.83) skewX(2.34)"><tspan x="0" y="0">ARIAN</tspan><tspan class="cls-51" x="13.82" y="0">A</tspan><tspan class="cls-50" x="16.47" y="0">’</tspan><tspan x="17.47" y="0">S</tspan></text><g><path class="cls-18" d="M299.02,485.76l1.57-1.51,.43,.42-1.1,1.06,.5,.48,1.02-.98,.43,.42-1.02,.98,.52,.5,1.1-1.06,.43,.42-1.57,1.51-2.32-2.23Z"/><path class="cls-18" d="M303.24,484.54l-.28,.27,.84,.81-.46,.45-2.32-2.23,.89-.85c.54-.52,1.14-.43,1.53-.06,.28,.27,.42,.67,.21,1.1l1.47,.33-.54,.52-1.33-.34Zm-.69-.13l.38-.36c.26-.25,.2-.5,.04-.65-.17-.16-.42-.19-.63,0l-.42,.4,.63,.6Z"/><path class="cls-18" d="M303.61,481.36l2.32,2.23-.47,.45-2.32-2.23,.47-.45Z"/><path class="cls-18" d="M307.18,481.42l-.81,.78,.32,.65-.49,.47-1.43-3.08,.38-.36,3.19,1.39-.49,.47-.68-.32Zm-1.09,.25l.55-.52-1.04-.48,.5,1.01Z"/><path class="cls-18" d="M303.57,491.78c.36,.35,.4,.91-.06,1.35l-1.06,1.01-2.32-2.23,1.01-.97c.44-.42,.95-.35,1.24-.08,.2,.2,.28,.51,.15,.76,.37-.21,.77-.11,1.04,.15Zm-2.57,.09l.5,.49,.46-.44c.2-.2,.16-.41,.03-.53-.12-.12-.34-.14-.52,.03l-.47,.46Zm2.05,.33c-.15-.15-.41-.19-.65,.04l-.51,.49,.61,.59,.51-.49c.24-.23,.19-.48,.04-.62Z"/><path class="cls-18" d="M302.31,489.84l1.57-1.51,.43,.42-1.1,1.06,.5,.48,1.02-.98,.43,.42-1.02,.98,.52,.5,1.1-1.06,.43,.42-1.57,1.51-2.32-2.23Z"/><path class="cls-18" d="M307.37,488.47l-.81,.78,.32,.65-.49,.47-1.43-3.08,.38-.36,3.19,1.39-.49,.47-.67-.32Zm-1.09,.25l.55-.52-1.04-.48,.5,1.01Z"/><path class="cls-18" d="M307.89,487.31l-1.47-1.41,.47-.45,1.44,1.38c.32,.3,.65,.28,.91,.03,.26-.25,.28-.57-.03-.86l-1.44-1.38,.47-.45,1.47,1.41c.61,.59,.47,1.25-.02,1.72-.49,.47-1.18,.61-1.79,.02Z"/><path class="cls-18" d="M308.95,484.33l-.45-.43,1.79-1.72,.45,.43-.66,.64,1.87,1.79-.47,.45-1.87-1.79-.66,.64Z"/><path class="cls-18" d="M313.16,482.34l.8,.77-.46,.45-.8-.77-2.31-.69,.54-.51,1.51,.51-.52-1.46,.54-.51,.71,2.23Z"/><path class="cls-18" d="M306.38,496.86l-.06-.57c.36,.05,.7-.05,.94-.28,.19-.19,.23-.42,.08-.56-.12-.11-.28-.09-.45-.03-.22,.08-.46,.21-.72,.27-.32,.08-.66,.08-.94-.2-.38-.37-.36-.96,.11-1.41,.27-.26,.64-.43,1.08-.43l.09,.56c-.28,0-.56,.13-.72,.28-.19,.18-.21,.37-.08,.5,.12,.11,.28,.08,.42,.04,.18-.06,.5-.2,.73-.28,.34-.11,.68-.11,.97,.17,.41,.39,.36,1.01-.14,1.49-.35,.34-.83,.51-1.31,.43Z"/><path class="cls-18" d="M309.55,493.62l-.81,.78,.32,.65-.49,.47-1.43-3.08,.38-.36,3.19,1.39-.49,.47-.67-.32Zm-1.09,.25l.55-.52-1.04-.48,.5,1.01Z"/><path class="cls-18" d="M308.68,490.97l.47-.45,1.87,1.8,1.18-1.13,.45,.43-1.64,1.58-2.32-2.23Z"/><path class="cls-18" d="M311.55,490.45c-.67-.65-.68-1.67,0-2.32s1.74-.64,2.41,0c.66,.63,.67,1.65-.02,2.31-.69,.66-1.73,.65-2.39,.02Zm1.93-1.86c-.43-.42-1.07-.4-1.47-.02-.4,.39-.41,1,.02,1.41,.42,.41,1.05,.4,1.46,.01,.41-.39,.41-1-.01-1.4Z"/><path class="cls-18" d="M315.16,484.74l2.32,2.23-.32,.3-2.62-.21,1.42,1.36-.46,.44-2.32-2.23,.29-.28,2.66,.2-1.43-1.38,.46-.44Z"/></g><text class="cls-19" transform="translate(355.02 535.63) rotate(44.75) skewX(2.34)"><tspan x="0" y="0">ELE</tspan><tspan class="cls-56" x="11.38" y="0">F</tspan><tspan x="14.72" y="0">AN</tspan><tspan class="cls-35" x="23.67" y="0">T</tspan><tspan class="cls-52" x="26.81" y="0">.</tspan><tspan class="cls-49" x="28.27" y="0">R</tspan><tspan x="32.28" y="0">O</tspan></text><g><path class="cls-18" d="M333.33,566.64l-.48-.46,1.93-1.85,.48,.46-.71,.68,2.01,1.93-.51,.49-2.01-1.93-.71,.68Z"/><path class="cls-18" d="M335.1,564.02l.5-.48,.99,.95,1.04-1-.99-.95,.5-.48,2.49,2.39-.5,.48-1.01-.97-1.04,1,1.01,.97-.5,.48-2.49-2.39Z"/><path class="cls-18" d="M338.66,561.52l-.48-.46,1.93-1.85,.48,.46-.71,.68,2.01,1.93-.51,.49-2.01-1.93-.71,.68Z"/><path class="cls-18" d="M342.81,559.66l-.3,.28,.91,.87-.5,.48-2.49-2.39,.95-.92c.58-.56,1.23-.46,1.64-.06,.3,.29,.45,.72,.23,1.19l1.57,.35-.58,.56-1.43-.37Zm-.74-.15l.41-.39c.28-.27,.22-.53,.05-.7-.18-.17-.45-.21-.68,0l-.45,.43,.67,.65Z"/><path class="cls-18" d="M342.7,556.72l1.69-1.62,.46,.45-1.19,1.14,.54,.51,1.1-1.05,.46,.45-1.1,1.05,.56,.54,1.19-1.14,.46,.45-1.69,1.62-2.49-2.39Z"/><path class="cls-18" d="M346.97,552.62l2.49,2.39-.34,.33-2.82-.23,1.53,1.46-.49,.47-2.49-2.39,.32-.3,2.85,.22-1.54-1.48,.49-.47Z"/><path class="cls-18" d="M347.52,552.09l.97-.93c.75-.72,1.68-.69,2.45,.05,.76,.73,.79,1.63,.02,2.36l-.95,.92-2.49-2.39Zm2.99,.99c.45-.43,.33-.99-.09-1.39-.41-.4-.99-.51-1.44-.08l-.48,.46,1.53,1.47,.48-.46Z"/><path class="cls-18" d="M339.61,567.45l.5-.48,.99,.95,1.04-1-.99-.95,.5-.48,2.49,2.39-.5,.48-1.01-.97-1.04,1,1.01,.97-.5,.48-2.49-2.39Z"/><path class="cls-18" d="M343.3,566.3c-.72-.7-.73-1.79,0-2.49,.73-.7,1.87-.69,2.59,0,.71,.68,.72,1.77-.02,2.48-.74,.71-1.86,.7-2.57,.02Zm2.07-2c-.46-.45-1.15-.43-1.58-.02-.43,.41-.44,1.07,.02,1.51,.45,.44,1.13,.43,1.57,.01,.44-.42,.44-1.07-.01-1.51Z"/><path class="cls-18" d="M346.6,563.76l-1.58-1.52,.5-.48,1.55,1.48c.34,.33,.69,.3,.97,.03,.28-.26,.3-.61-.04-.93l-1.55-1.48,.51-.48,1.58,1.52c.66,.63,.5,1.35-.02,1.85-.53,.5-1.27,.65-1.93,.02Z"/><path class="cls-18" d="M349.34,562.07l-.06-.61c.39,.06,.75-.06,1.01-.3,.21-.2,.25-.45,.09-.6-.12-.12-.3-.1-.49-.03-.23,.08-.5,.22-.77,.29-.34,.09-.7,.08-1.01-.22-.41-.39-.38-1.03,.12-1.51,.29-.28,.69-.47,1.16-.46l.1,.61c-.3,0-.61,.14-.78,.3-.2,.19-.22,.4-.08,.54,.12,.12,.3,.09,.45,.04,.19-.07,.54-.22,.79-.3,.36-.12,.73-.12,1.04,.19,.44,.42,.39,1.08-.16,1.6-.38,.37-.89,.55-1.41,.46Z"/><path class="cls-18" d="M349.53,557.93l1.69-1.62,.46,.45-1.19,1.14,.54,.51,1.1-1.05,.46,.45-1.1,1.05,.56,.54,1.19-1.14,.47,.45-1.69,1.62-2.49-2.39Z"/></g><path class="cls-23" d="M39.74,488.93c0-.91-.77-1.64-1.71-1.64h-11.15c-.94,0-1.71,.73-1.71,1.64v10.71c0,.91,.76,1.64,1.71,1.64h11.15c.94,0,1.71-.73,1.71-1.64v-10.71Zm-4.11,.43c.47,0,.85,.37,.85,.82s-.38,.82-.85,.82-.85-.37-.85-.82,.38-.82,.85-.82Zm-6.57,0c.47,0,.85,.37,.85,.82s-.38,.82-.85,.82-.85-.37-.85-.82,.38-.82,.85-.82Zm1.7,2.34l-.24,2.74c-.02,.17-.13,.32-.3,.38h0c-.17,.07-.29,.22-.3,.39l-.22,3.55c-.02,.24-.22,.43-.48,.43h-.32c-.25,0-.46-.19-.47-.43l-.22-3.55c-.01-.17-.13-.33-.3-.39-.17-.06-.29-.21-.3-.39l-.23-2.74c-.02-.22,.14-.43,.37-.48l.23-.05c.16-.03,.32,.01,.43,.12l.33,.32c.18,.17,.48,.17,.67,0l.33-.32c.12-.11,.28-.15,.43-.12l.24,.05c.21,.06,.37,.26,.35,.48Zm1.81,7.49c0,.12-.1,.22-.23,.22s-.23-.1-.23-.22v-9.83c0-.12,.11-.22,.23-.22s.23,.1,.23,.22v9.83Zm4.73-4.37c-.16,.04-.26,.18-.24,.34l.1,.7c.03,.16-.1,.32-.27,.34l-.22,.03c-.15,.02-.26,.14-.27,.28l-.14,2.25c-.02,.24-.22,.42-.47,.42h-.32c-.25,0-.46-.18-.47-.42l-.14-2.25c0-.15-.13-.26-.27-.28l-.22-.03c-.17-.02-.29-.18-.27-.34l.1-.7c.03-.15-.08-.3-.24-.34-.16-.04-.27-.2-.23-.36l.64-2.93c.04-.21,.29-.31,.48-.19l.61,.37c.1,.07,.24,.07,.35,0l.6-.37c.19-.11,.44-.02,.48,.19l.65,2.93c.03,.16-.07,.32-.24,.36Z"/><g><polygon class="cls-23" points="418.85 363.27 426.04 365.05 422.99 368.1 415.8 366.31 413.65 359.49 416.7 356.44 418.85 363.27"/><polygon class="cls-23" points="423.03 359.09 430.22 360.88 427.17 363.93 419.98 362.14 417.83 355.31 420.88 352.27 423.03 359.09"/><polygon class="cls-23" points="427.2 354.92 434.39 356.71 431.35 359.76 424.15 357.97 422.01 351.14 425.06 348.1 427.2 354.92"/></g><g><path d="M94.92,164.99c-2.52,0-5.05-.02-7.57,.01-.76,.01-1.1-.25-1.02-1.02,0-.03,0-.06,0-.09q-.02-2.08,2.05-2.32c1-.11,1.36-.58,1.07-1.55-.56-1.88-1.17-3.75-1.8-5.61-.07-.22-.44-.47-.67-.47-3.9-.03-7.81-.03-11.71,0-.23,0-.58,.26-.67,.48-.72,1.67-1.42,3.34-2.06,5.04-.54,1.43-.15,2,1.39,2.15,.41,.04,.82,.02,1.23,.03,.18,0,.4-.05,.52,.03,.99,.69,.33,1.71,.47,2.58,.09,.54-.31,.75-.84,.74-2.11-.01-4.23,0-6.34,0-1.35,0-2.7-.02-4.05,0-.64,.01-.94-.24-.87-.89,0-.03,0-.06,0-.09,.02-.7-.19-1.56,.15-2.05,.26-.38,1.2-.34,1.84-.42,1.1-.14,1.66-.84,2.06-1.8,2.98-7.17,5.98-14.33,8.97-21.49,1.59-3.81,3.2-7.62,4.76-11.44,.3-.74,.72-1.03,1.52-.99,1.14,.06,2.29,.05,3.43,0,.8-.04,1.19,.25,1.46,1.03,3.19,9.19,6.42,18.36,9.63,27.53,.63,1.8,1.25,3.59,1.9,5.38,.53,1.46,1.06,1.83,2.61,1.87q1.29,.03,1.29,1.26c0,2.32,.2,2.09-2.07,2.09-2.23,0-4.46,0-6.69,0Zm-12.87-29.19c-2.08,5.16-4.05,10.08-6.06,15.06h10.62c-1.51-4.97-2.99-9.88-4.56-15.06Z"/><path d="M57.75,159.42c0,1.55-.03,3.11,.01,4.66,.02,.7-.25,.96-.92,.91-.56-.03-1.12,.04-1.67-.03-.3-.04-.68-.2-.85-.43-.39-.55-.85-.61-1.46-.49-2.09,.41-4.18,.99-6.29,1.15-9.03,.66-15.83-4.1-18.32-12.83-1.72-6.02-1.39-11.97,1.43-17.63,3.34-6.71,9.92-9.73,17.03-9.08,1.77,.16,3.45,.61,5.05,1.39,1.1,.53,1.53,.34,2.18-.65,.17-.26,.56-.48,.88-.53,.57-.08,1.17-.01,1.76-.03,.61-.02,.82,.26,.82,.86-.02,3.14-.02,6.28,0,9.42,0,.65-.27,.87-.89,.89-2.3,.09-2.28,.1-2.86-2.14-.55-2.13-1.36-4.14-3.51-5.1-3.77-1.66-7.17-.92-9.3,2.62-1.4,2.33-2.1,4.9-2.4,7.57-.6,5.25-.51,10.49,.99,15.6,.4,1.38,1.14,2.7,1.94,3.9,2.54,3.81,10.57,3.4,12.18-1.87,.3-.98,.56-1.97,.77-2.97,.11-.54,.36-.74,.89-.72,3.08,.07,2.47-.45,2.54,2.45,.02,1.03,0,2.05,0,3.08Z"/><path d="M63.77,143.3l2.07,3.09c.5-1.06,.98-1.95,1.33-2.89,.19-.51,.41-.69,.94-.68,1.08,.03,2.16,0,3.42,0-.38,.78-.27,1.7-1.45,1.66-.24,0-.54,.32-.71,.57-.76,1.04-1.48,2.1-2.25,3.21,.62,.98,1.71,1.05,2.8,1.07-.19,1.48-.33,1.58-1.73,1.6-1.14,.02-2.23-.09-3.17-.86-1.59,1.06-3.34,1.35-5.21,1.04-2.01-.33-3.43-1.57-3.77-3.32-.31-1.61,.49-3.18,2.2-4.25,.42-.26,.87-.47,1.17-.62-.23-.99-.63-1.94-.59-2.88,.03-.74,.44-1.6,.95-2.17,1.34-1.49,4.3-1.67,5.93-.5,1.52,1.09,1.65,3.24,.21,4.48-.64,.55-1.39,.95-2.13,1.45Zm-.11,5.22l-3.06-4.21c-1.11,.81-1.58,1.85-1.45,3.13,.1,.97,.58,1.73,1.56,2.02,1.14,.34,2.13,.05,2.96-.95Zm-1.24-6.62c1.21-.59,1.68-1.35,1.77-2.35,.07-.87-.47-1.55-1.18-1.56-.74,0-1.39,.61-1.29,1.45,.1,.8,.44,1.57,.7,2.45Z"/></g><g><path class="cls-18" d="M374.93,409.04c.08,.08,.08,.22,0,.3s-.22,.08-.3,0-.08-.22,0-.3,.22-.08,.3,0"/><g><path class="cls-18" d="M375.7,410.71c.52,.82,1.28,2.02,1.28,2.02l-.87,.87s-1.2-.77-2.02-1.28c-.2-.12-.72-.44-.92-.55-.08-.05-.02-.16,.06-.13,.13,.04,.38,.13,.65,.22,.28,.1,.6,.2,.83,.27,.03,0,.03,0,.04,0,0,0,0,0-.02-.04,0,0-.26-.26-.54-.53-.34-.33-.66-.64-.71-.68-.06-.06,.02-.15,.09-.11,.18,.12,.52,.34,.85,.55,.28,.17,.55,.34,.65,.41,.02,.01,.03,0,.04,0,0,0,0-.02,0-.04-.06-.1-.23-.37-.41-.65-.21-.33-.43-.68-.55-.85-.05-.07,.05-.15,.11-.09,.4,.42,.8,.84,1.21,1.25,.02,.02,.03,.03,.04,.02,0,0,.01,0,0-.04-.07-.23-.17-.55-.27-.83-.09-.27-.18-.52-.22-.65-.03-.08,.09-.13,.13-.06,.11,.2,.43,.72,.55,.92"/><path class="cls-18" d="M372.72,411.25c.08,.08,.08,.22,0,.3s-.22,.08-.3,0-.08-.22,0-.3,.22-.08,.3,0"/><path class="cls-18" d="M373.13,410.25c.08,.08,.08,.22,0,.3s-.22,.08-.3,0-.08-.22,0-.3,.22-.08,.3,0"/><path class="cls-18" d="M373.93,409.44c.08,.08,.08,.22,0,.3s-.22,.08-.3,0-.08-.22,0-.3,.22-.08,.3,0"/><path class="cls-18" d="M374.02,415.7l-1.33-1.33c-.22-.22-.34-.31-.49-.34-.17-.03-.33,.02-.46,.15-.33,.33-.31,.65,0,.95l1.43,1.43-.47,.47-2.87-2.87,.47-.47,.77,.77c0-.23,.12-.49,.29-.66,.66-.66,1.29-.41,1.76,.06l1.38,1.38"/><path class="cls-18" d="M369.04,417.04c-.07-.07-.08-.08-.04-.12,.04-.06,.12-.14,.19-.21,.03-.03,.05-.05,.08-.08,.4-.38,.97-.26,1.38,.15,.38,.38,.61,.83,.13,1.37-.01,.01-.02,.03-.04,.04-.07,.07-.16,.15-.25,.23-.04,.03-.04,.03-.07,0m.66-2.09c-.34-.34-.82-.55-1.17-.55-.16,0-.55,0-1.02,.46,0,0-.35,.35-.49,.53-.15,.2-.18,.36,0,.54l2.88,2.88,.45-.45-.86-.86s.15-.12,.29-.26c.39-.39,.49-.75,.49-1.14,0-.51-.33-.91-.58-1.15"/><path class="cls-18" d="M369.44,420.27l-1.33-1.33c-.22-.22-.34-.31-.49-.34-.17-.03-.33,.02-.46,.15-.32,.32-.21,.55,.09,.85l1.43,1.43-.47,.47-1.43-1.43c-.31-.31-.52-.42-.85-.09-.13,.13-.19,.29-.16,.44,.03,.15,.15,.31,.36,.53l1.32,1.32-.47,.47-1.3-1.3c-.44-.44-.55-.67-.53-1.04,.01-.28,.15-.55,.4-.8,.22-.22,.55-.34,.9-.33-.01-.35,.11-.68,.33-.9,.66-.66,1.29-.41,1.76,.06l1.38,1.38"/><path class="cls-18" d="M366.04,423.22c.01,.34-.13,.68-.42,.97s-.64,.44-.99,.43c-.34,0-.62-.15-.94-.47l-1.31-1.31,.47-.47,1.24,1.24c.32,.32,.67,.6,1.1,.17s.15-.79-.16-1.1l-1.24-1.24,.47-.47,1.31,1.31c.32,.32,.47,.61,.48,.95"/><rect class="cls-18" x="362.37" y="423.16" width=".67" height="3.19" transform="translate(-194.11 380.88) rotate(-45)"/><path class="cls-18" d="M361.25,422.77c.15,.15,.15,.39,0,.53s-.39,.15-.53,0-.15-.39,0-.53,.39-.15,.53,0"/><path class="cls-18" d="M361.14,424.8c-.36,.39-.14,.71,.14,.99l1.32,1.32-.47,.47-1.28-1.28c-.34-.34-.51-.65-.52-.97-.02-.38,.11-.67,.42-.95l.12-.11,.4,.4s-.07,.06-.14,.12"/><polyline class="cls-18" points="358.91 425.88 361.37 428.35 360.9 428.81 358.44 426.35 357.45 427.34 357.04 426.94 359.51 424.47 359.92 424.88"/></g></g><g><path class="cls-18" d="M199.44,390.76l.5,.5c-.47-.1-1.28-.04-2.05,.73s-1.13,1.89-.91,2.99l-.88-.88-.68,.68-1.57-1.57-1.41,1.41,1.57,1.57-.57,.57-.16-.16c-.81,.81-.63,1.49-.51,1.88l-.53-.53-1.32,1.32,2.02,2.02c-.59-.47-1.29-.74-2.11-.77-.91-.03-1.8,.31-2.52,1.03-.87,.87-1.14,2.04-.93,3.12l-.6-1.27-1.46,1.46,2.02,3.84-3.84-2.02-2.76,2.76,4.7,4.7,1.41-1.41-4.42-4.42,6.01,2.84,1.35-1.35-1.65-3.51c.07,.09,.15,.18,.23,.26,1.4,1.4,3.63,1.35,4.98,0,.48-.48,.8-1.09,.91-1.76,.13-.67,.05-1.41-.25-2.16l-1.44,1.44c.08,.42,.03,.85-.41,1.3-.55,.55-1.36,.69-1.91,.25l3.5-3.5s-.06-.07-.08-.11l1.96,1.96,1.41-1.41-2.52-2.52c-.66-.66-.58-1.26,.14-1.98l.05-.05-.19-.19,.57-.57,3.63,3.63,1.41-1.41-3.63-3.63,.57-.57c.17,.55,.49,1.09,.98,1.58,1.35,1.35,3.39,1.64,4.88,.15,.55-.55,.92-1.35,.72-2.06l.51,.51,1.41-1.41-4.7-4.7-1.41,1.41h0Zm-10.23,13.77h0c-.19-.25-.42-1.07,.3-1.8s1.54-.49,1.8-.3l-2.1,2.1h0Zm12.65-11.35h0c.19,.23,.34,.49,.41,.8,.11,.47,.04,1.01-.46,1.51-.85,.85-1.91,.42-2.35,0h0c-.53-.54-.86-1.58-.05-2.38,.59-.59,1.24-.58,1.72-.41,.29,.1,.54,.27,.74,.5h0Zm-21.26,13.28h0l-1.41,1.41,1.07,1.07,1.41-1.41-1.07-1.07h0Zm-1.14,5.07h0c-.3,0-1.11,0-1.94,.82-1.19,1.19-1.42,3.24,.17,4.83,1.41,1.41,3.45,1.58,4.87,.16,.95-.95,.82-1.75,.76-2.08l.51,.51,1.34-1.34-6.27-6.27-1.41,1.41,1.96,1.96h0Zm2.53,3.04h0c0,.44-.18,.89-.52,1.23-.66,.66-1.66,.69-2.38-.03h0c-.54-.55-.8-1.57,.02-2.38,.33-.33,.75-.51,1.17-.51,.41,0,.84,.14,1.18,.48,.36,.33,.54,.76,.54,1.2h0Z"/><path class="cls-18" d="M211.9,386.51h0c-.21,.21-.21,.55,0,.76s.55,.21,.75,0h0c.21-.21,.21-.55,0-.76s-.55-.21-.75,0h0Z"/><path class="cls-18" d="M210.76,387.64h0c-.21,.21-.21,.55,0,.76s.55,.21,.75,0h0c.21-.21,.21-.55,0-.76s-.55-.21-.75,0h0Z"/><path class="cls-18" d="M209.63,388.78h0c-.21,.21-.21,.55,0,.76s.55,.21,.75,0h0c.21-.21,.21-.55,0-.76s-.55-.21-.75,0h0Z"/><path class="cls-18" d="M208.5,389.91h0c-.21,.21-.21,.55,0,.76s.55,.21,.75,0h0c.21-.21,.21-.55,0-.76s-.55-.21-.75,0h0Z"/><path class="cls-18" d="M207.36,391.04h0c-.21,.21-.21,.55,0,.76s.55,.21,.75,0h0c.21-.21,.21-.55,0-.76s-.55-.21-.75,0h0Z"/><path class="cls-18" d="M206.23,392.18h0c-.21,.21-.21,.55,0,.76s.55,.21,.75,0h0c.21-.21,.21-.55,0-.76s-.55-.21-.75,0h0Z"/><path class="cls-18" d="M210.76,385.37h0c-.21,.21-.21,.55,0,.76s.55,.21,.75,0h0c.21-.21,.21-.55,0-.76s-.55-.21-.75,0h0Z"/><path class="cls-18" d="M209.63,386.51h0c-.21,.21-.21,.55,0,.76s.55,.21,.75,0h0c.21-.21,.21-.55,0-.76s-.55-.21-.75,0h0Z"/><path class="cls-18" d="M208.5,387.64h0c-.21,.21-.21,.55,0,.76s.55,.21,.75,0h0c.21-.21,.21-.55,0-.76s-.55-.21-.75,0h0Z"/><path class="cls-18" d="M207.36,388.78h0c-.21,.21-.21,.55,0,.76s.55,.21,.75,0h0c.21-.21,.21-.55,0-.76s-.55-.21-.75,0h0Z"/><path class="cls-18" d="M206.23,389.91h0c-.21,.21-.21,.55,0,.76s.55,.21,.75,0h0c.21-.21,.21-.55,0-.76s-.55-.21-.75,0h0Z"/><path class="cls-18" d="M205.09,391.04h0c-.21,.21-.21,.55,0,.76s.55,.21,.75,0h0c.21-.21,.21-.55,0-.76s-.55-.21-.75,0h0Z"/><path class="cls-18" d="M206.23,380.84h0c-.21,.21-.21,.55,0,.76s.55,.21,.75,0h0c.21-.21,.21-.55,0-.76s-.55-.21-.75,0h0Z"/><path class="cls-18" d="M205.09,381.97h0c-.21,.21-.21,.55,0,.76s.55,.21,.75,0h0c.21-.21,.21-.55,0-.76s-.55-.21-.75,0h0Z"/><path class="cls-18" d="M203.96,383.1h0c-.21,.21-.21,.55,0,.76s.55,.21,.75,0h0c.21-.21,.21-.55,0-.76s-.55-.21-.75,0h0Z"/><path class="cls-18" d="M202.82,384.24h0c-.21,.21-.21,.55,0,.76s.55,.21,.75,0h0c.21-.21,.21-.55,0-.76s-.55-.21-.75,0h0Z"/><path class="cls-18" d="M201.69,385.37h0c-.21,.21-.21,.55,0,.76s.55,.21,.75,0h0c.21-.21,.21-.55,0-.76s-.55-.21-.75,0h0Z"/><path class="cls-18" d="M200.55,386.51h0c-.21,.21-.21,.55,0,.76s.55,.21,.75,0h0c.21-.21,.21-.55,0-.76s-.55-.21-.75,0h0Z"/><path class="cls-18" d="M207.36,381.97h0c-.21,.21-.21,.55,0,.76s.55,.21,.75,0h0c.21-.21,.21-.55,0-.76s-.55-.21-.75,0h0Z"/><path class="cls-18" d="M206.23,383.1h0c-.21,.21-.21,.55,0,.76s.55,.21,.75,0h0c.21-.21,.21-.55,0-.76s-.55-.21-.75,0h0Z"/><path class="cls-18" d="M205.09,384.24h0c-.21,.21-.21,.55,0,.76s.55,.21,.75,0h0c.21-.21,.21-.55,0-.76s-.55-.21-.75,0h0Z"/><path class="cls-18" d="M203.96,385.37h0c-.21,.21-.21,.55,0,.76s.55,.21,.75,0h0c.21-.21,.21-.55,0-.76s-.55-.21-.75,0h0Z"/><path class="cls-18" d="M202.82,386.51h0c-.21,.21-.21,.55,0,.76s.55,.21,.75,0h0c.21-.21,.21-.55,0-.76s-.55-.21-.75,0h0Z"/><path class="cls-18" d="M201.69,387.64h0c-.21,.21-.21,.55,0,.76s.55,.21,.75,0h0c.21-.21,.21-.55,0-.76s-.55-.21-.75,0h0Z"/><path class="cls-18" d="M208.5,383.1h0c-.21,.21-.21,.55,0,.76s.55,.21,.75,0h0c.21-.21,.21-.55,0-.76s-.55-.21-.75,0h0Z"/><path class="cls-18" d="M207.36,384.24h0c-.21,.21-.21,.55,0,.76s.55,.21,.75,0h0c.21-.21,.21-.55,0-.76s-.55-.21-.75,0h0Z"/><path class="cls-18" d="M206.23,385.37h0c-.21,.21-.21,.55,0,.76s.55,.21,.75,0h0c.21-.21,.21-.55,0-.76s-.55-.21-.75,0h0Z"/><path class="cls-18" d="M205.09,386.51h0c-.21,.21-.21,.55,0,.76s.55,.21,.75,0h0c.21-.21,.21-.55,0-.76s-.55-.21-.75,0h0Z"/><path class="cls-18" d="M203.96,387.64h0c-.21,.21-.21,.55,0,.76s.55,.21,.75,0h0c.21-.21,.21-.55,0-.76s-.55-.21-.75,0h0Z"/><path class="cls-18" d="M202.82,388.78h0c-.21,.21-.21,.55,0,.76s.55,.21,.75,0h0c.21-.21,.21-.55,0-.76s-.55-.21-.75,0h0Z"/><path class="cls-18" d="M209.63,384.24h0c-.21,.21-.21,.55,0,.76s.55,.21,.75,0h0c.21-.21,.21-.55,0-.76s-.55-.21-.75,0h0Z"/><path class="cls-18" d="M208.5,385.37h0c-.21,.21-.21,.55,0,.76s.55,.21,.75,0h0c.21-.21,.21-.55,0-.76s-.55-.21-.75,0h0Z"/><path class="cls-18" d="M207.36,386.51h0c-.21,.21-.21,.55,0,.76s.55,.21,.75,0h0c.21-.21,.21-.55,0-.76s-.55-.21-.75,0h0Z"/><path class="cls-18" d="M206.23,387.64h0c-.21,.21-.21,.55,0,.76s.55,.21,.75,0h0c.21-.21,.21-.55,0-.76s-.55-.21-.75,0h0Z"/><path class="cls-18" d="M205.09,388.78h0c-.21,.21-.21,.55,0,.76,.21,.21,.55,.21,.75,0h0c.21-.21,.21-.55,0-.76-.21-.21-.55-.21-.75,0h0Z"/><path class="cls-18" d="M203.96,389.91h0c-.21,.21-.21,.55,0,.76,.21,.21,.55,.21,.75,0h0c.21-.21,.21-.55,0-.76-.21-.21-.55-.21-.75,0h0Z"/><path class="cls-18" d="M197.75,405.79l-.58-.58c-.11-.11-.18-.23-.22-.36-.05-.14-.06-.27-.02-.41,.03-.13,.09-.24,.18-.33s.2-.15,.35-.19c.1-.03,.18-.04,.26-.02,0-.08,0-.16,.02-.24,.04-.14,.1-.26,.19-.35s.2-.15,.33-.18c.13-.03,.27-.03,.41,.02,.14,.05,.26,.12,.36,.22l.58,.58-.23,.23-.58-.58c-.06-.06-.12-.11-.19-.15-.09-.04-.17-.04-.24-.02-.07,.02-.14,.06-.2,.12-.05,.05-.09,.12-.11,.19-.02,.07-.02,.14,0,.22,.03,.07,.08,.15,.15,.22l.58,.58-.23,.23-.58-.58s-.05-.05-.07-.07c-.03-.03-.08-.05-.13-.07-.08-.03-.17-.03-.24-.01-.08,.02-.14,.05-.2,.11s-.09,.11-.11,.17c-.02,.06-.01,.14,.02,.23,.03,.07,.08,.15,.15,.22l.58,.58-.23,.23h0Zm2.02-4.01s.09,.04,.12,.09c.03,.04,.05,.1,.05,.17v1.02c.08-.02,.14-.06,.2-.12,.06-.06,.11-.13,.13-.22,.02-.09,.02-.17,0-.26l.31-.08h0c.04,.14,.04,.28,0,.42-.04,.14-.11,.27-.21,.37-.11,.1-.23,.17-.36,.21-.14,.04-.28,.04-.43,0-.14-.04-.27-.11-.37-.22-.1-.11-.17-.23-.21-.36-.04-.13-.04-.27,0-.41,.03-.14,.11-.27,.21-.37,.06-.06,.12-.11,.18-.15,.06-.04,.13-.07,.2-.08,.07-.01,.13-.01,.17,0h0Zm-.15,1.27v-.82c-.01-.08-.07-.08-.18,0-.06,.07-.1,.14-.12,.23-.02,.09-.02,.17,0,.25,.02,.08,.06,.15,.12,.22,.05,.05,.11,.09,.17,.12h0Zm1.07-1.36l.58,.58-.23,.23-.58-.58c-.1-.1-.17-.22-.21-.37-.04-.14-.04-.29,0-.43,.04-.14,.11-.26,.21-.36s.22-.17,.36-.21c.05-.01,.09-.02,.14-.03l.04,.33s-.06,0-.09,.02c-.08,.03-.15,.07-.21,.13s-.1,.13-.13,.21c-.03,.08-.03,.17,0,.26,.02,.08,.07,.16,.12,.22h0Zm1.4-2.23s.09,.04,.12,.09c.03,.04,.05,.1,.05,.17v1.02c.08-.02,.14-.06,.2-.12,.06-.06,.11-.13,.13-.22,.02-.09,.02-.17,0-.26l.31-.08h0c.04,.14,.04,.28,0,.42-.04,.14-.11,.27-.21,.37-.11,.1-.23,.17-.36,.21-.14,.04-.28,.04-.43,0-.14-.04-.27-.11-.37-.22-.1-.11-.17-.23-.21-.36-.04-.13-.04-.27,0-.41,.03-.14,.11-.27,.21-.37,.06-.06,.12-.11,.18-.15,.06-.04,.13-.07,.2-.08,.07-.01,.13-.01,.17,0h0Zm-.15,1.27v-.82c-.01-.08-.07-.08-.18,0-.06,.07-.1,.14-.12,.23-.02,.09-.02,.17,0,.25,.02,.08,.06,.15,.12,.22,.05,.05,.11,.09,.17,.12h0Zm1.05-1.34c.06,.06,.13,.1,.22,.13,.08,.02,.17,.02,.26,0,.09-.02,.16-.07,.22-.13s.1-.13,.13-.22c.02-.09,.02-.17,0-.26-.02-.08-.06-.16-.12-.22l-.58-.58,.23-.23,.58,.58c.1,.1,.17,.22,.21,.36,.04,.14,.04,.29,0,.43-.04,.14-.11,.26-.21,.36s-.22,.17-.36,.21c-.14,.04-.29,.04-.43,0-.14-.04-.26-.11-.36-.21l-.58-.58,.23-.23,.58,.58h0Zm2.28-2.8s-.07,0-.1,.02c-.08,.03-.16,.07-.21,.13s-.1,.13-.13,.21c-.03,.08-.03,.17,0,.26,.02,.09,.07,.16,.13,.22s.13,.1,.22,.13c.08,.02,.17,.02,.26,0,.09-.02,.16-.07,.22-.13s.1-.13,.13-.22c.01-.05,.02-.09,.02-.14h.33c0,.07,0,.14-.03,.22-.04,.14-.11,.26-.21,.36s-.22,.17-.36,.21c-.14,.04-.29,.04-.43,0-.14-.04-.26-.11-.37-.21s-.17-.22-.21-.37c-.04-.14-.04-.29,0-.43,.04-.14,.11-.26,.21-.36s.22-.17,.36-.21c.05-.01,.1-.02,.15-.03l.04,.34h0Zm1.17-1.49s.09,.04,.12,.09c.03,.04,.05,.1,.05,.17v1.02c.08-.02,.14-.06,.2-.12,.06-.06,.11-.13,.13-.22,.02-.09,.02-.17,0-.26l.31-.08h0c.04,.14,.04,.28,0,.42-.04,.14-.11,.27-.21,.37-.11,.1-.23,.17-.36,.21-.14,.04-.28,.04-.43,0-.14-.04-.27-.11-.37-.22-.1-.11-.17-.23-.21-.36-.04-.13-.04-.27,0-.41,.03-.14,.11-.27,.21-.37,.06-.06,.12-.11,.18-.15,.06-.04,.13-.07,.2-.08,.07-.01,.13-.01,.17,0h0Zm-.15,1.27v-.82c-.01-.08-.07-.08-.18,0-.06,.07-.1,.14-.12,.23-.02,.09-.02,.17,0,.25,.02,.08,.06,.15,.12,.22,.05,.05,.11,.09,.17,.12h0Zm1.53-1.59l-.29-1.09,.27-.27,.49,1.81-1.82-.48,.27-.27,1.09,.29h0Zm.84-1.07c.06,.06,.13,.1,.22,.13,.08,.02,.17,.02,.26,0,.09-.02,.16-.07,.22-.13s.1-.13,.13-.22c.02-.09,.02-.17,0-.26-.02-.09-.07-.16-.13-.22s-.13-.1-.22-.13c-.09-.02-.17-.02-.26,0-.08,.03-.16,.07-.21,.12s-.1,.13-.13,.21c-.03,.08-.03,.17,0,.26,.02,.09,.07,.16,.13,.22h0Zm1.5-.35l-.23,.23-.11-.11s-.01,.06-.02,.09c-.04,.14-.11,.26-.21,.36s-.22,.17-.36,.21c-.14,.04-.29,.04-.43,0-.14-.04-.26-.11-.37-.21s-.17-.22-.21-.37c-.04-.14-.04-.29,0-.43,.04-.14,.11-.26,.21-.36s.22-.17,.36-.21c.14-.04,.29-.04,.43,0,.14,.04,.27,.11,.37,.22l.58,.58h0Zm.49-1.64l.58,.58-.23,.23-.58-.58h0c-.1-.1-.17-.22-.21-.37-.04-.14-.04-.29,0-.43,.04-.14,.11-.26,.21-.36s.22-.17,.36-.21c.14-.04,.29-.04,.43,0,.15,.04,.27,.11,.37,.22l.58,.58-.23,.23-.58-.58c-.06-.06-.13-.1-.22-.12-.09-.02-.17-.02-.26,0-.08,.02-.16,.07-.21,.12s-.1,.13-.13,.21c-.03,.08-.03,.17,0,.26,.02,.08,.07,.16,.13,.22h0Zm1.23-1.82c-.03,.08-.03,.17,0,.26,.02,.09,.07,.16,.13,.22s.13,.1,.22,.13c.08,.02,.17,.02,.26,0,.09-.02,.16-.07,.22-.13s.1-.13,.13-.22c.02-.09,.02-.17,0-.26-.02-.08-.07-.16-.13-.22s-.13-.1-.22-.13c-.09-.02-.17-.02-.26,0-.08,.03-.16,.07-.22,.13s-.1,.13-.13,.21h0Zm-.11-.45c.1-.1,.22-.17,.36-.21,.14-.04,.29-.04,.43,0,.15,.04,.27,.11,.37,.21s.17,.22,.21,.37c.04,.14,.04,.29,0,.43-.04,.14-.11,.26-.21,.36s-.22,.17-.36,.21c-.14,.04-.29,.04-.43,0-.14-.04-.26-.11-.36-.21s-.17-.22-.21-.37c-.04-.14-.04-.29,0-.43,.04-.14,.11-.26,.21-.36h0Zm1.55-.39c.06,.06,.13,.1,.22,.13,.08,.02,.17,.02,.26,0,.09-.02,.16-.07,.22-.13s.1-.13,.13-.22c.02-.09,.02-.17,0-.26-.02-.08-.06-.16-.12-.22l-.58-.58,.23-.23,.58,.58c.1,.1,.17,.22,.21,.36,.04,.14,.04,.29,0,.43-.04,.14-.11,.26-.21,.36s-.22,.17-.36,.21c-.14,.04-.29,.04-.43,0-.14-.04-.26-.11-.36-.21l-.58-.58,.23-.23,.58,.58h0Z"/></g><g><path class="cls-9" d="M184.65,659.71c-.07-.03-.17-.04-.24-.01l-5.96,1.79v9.87l6.15-1.84c.1-.03,.15-.09,.15-.17v-9.49c0-.05-.04-.11-.11-.14h0Zm-6.19-.46l2.72-.83c.1-.04,.1-.13,.07-.21-.03-.09-.11-.13-.19-.12l-2.6,.79v.37h0Zm0,1.9v-.3l4.94-1.49,.42,.17-5.36,1.62h0Zm0-.63v-.3l4.07-1.23,.43,.17-4.5,1.36h0Zm0-.63v-.3l3.19-.96,.43,.18-3.63,1.08Zm0,1.61l-1.06,.33c-.28,.08-1.26-.25-2.01-.58-.75-.34-1.13-.59-1.11-.71l4.18-1.28v-.37l-4.46,1.36c-.11,.04-.21,.11-.25,.18-.03,.03-.04,.05-.04,.08v2.62c-.21,.05-.42,.12-.61,.21v.92c.19-.14,.4-.25,.61-.3v3.37c-.21-.09-.43-.21-.61-.37v.96c.19,.11,.4,.2,.61,.26v1.81c0,.08,0,.25,.93,.67,.03,.01,2.28,1.17,2.96,.96l.86-.26v-9.87h0Zm0-1.91v.3l-3.24,.97c-.14-.07-.26-.12-.37-.18h0l3.61-1.09h0Zm0,.63v.3l-2.35,.71c-.15-.05-.31-.12-.46-.17l2.81-.84h0Zm0,.63v.3l-1.29,.38c-.15-.01-.35-.07-.56-.13l1.85-.55Zm-5.36,2.49c-.76,.33-1.46,1.01-1.46,2.25s.69,1.92,1.46,2.33v-.96c-.35-.29-.61-.72-.61-1.37s.26-1.08,.61-1.33v-.92Z"/><g><path class="cls-9" d="M184.69,676.46v-.54h.07c.22,0,.5-.04,.86-.13,.14-.03,.25-.05,.31-.05,.07,0,.14,.03,.19,.08,.06,.05,.08,.12,.08,.2,0,.07-.03,.12-.08,.17-.08,.07-.26,.13-.56,.18-.29,.05-.58,.09-.85,.09h-.03Zm0-1v-.54h.86c-.08-.14-.21-.26-.35-.34-.14-.08-.32-.12-.51-.12h0v-.53c.24,0,.44,.04,.64,.12,.19,.07,.35,.16,.44,.24,.14,.13,.25,.29,.33,.49,.06,.13,.1,.28,.1,.46v.22h-1.51Zm12.54-2.48h-.69v.57h.69v-.57h0Zm1.07,2.92c-.06-.05-.15-.08-.29-.08h-.69v-1.83h-1.06c-.14,0-.24,.03-.29,.08-.07,.05-.1,.12-.1,.2s.03,.13,.1,.18c.06,.05,.15,.08,.29,.08h.47v1.29h-.69c-.14,0-.25,.03-.31,.08-.06,.05-.08,.12-.08,.2s.03,.14,.08,.18c.06,.05,.17,.08,.31,.08h1.97c.14,0,.24-.03,.29-.08,.07-.04,.1-.11,.1-.18s-.03-.14-.1-.2h0Zm-8.14-.21c0-.14-.06-.28-.15-.4-.11-.13-.26-.22-.47-.29-.14-.05-.42-.11-.81-.14-.21-.03-.33-.05-.4-.09-.07-.03-.11-.07-.11-.11s.03-.07,.08-.11c.14-.07,.31-.11,.54-.11,.11,0,.22,.03,.32,.05,.11,.03,.21,.07,.31,.12,.01,.07,.04,.12,.1,.16,.06,.04,.11,.05,.18,.05,.11,0,.19-.04,.25-.12,.03-.04,.04-.12,.04-.24v-.13c0-.12-.03-.21-.08-.28-.04-.05-.11-.08-.19-.08-.03,0-.06,.01-.08,.03-.03,.01-.07,.03-.1,.05-.11-.05-.24-.09-.36-.11-.12-.03-.25-.04-.39-.04-.39,0-.69,.09-.93,.26-.18,.12-.26,.28-.26,.47,0,.18,.08,.34,.24,.47,.15,.12,.47,.21,.93,.25,.32,.04,.53,.08,.63,.12,.1,.05,.15,.11,.15,.17,0,.04-.04,.08-.11,.12-.07,.04-.17,.08-.28,.09l.12-.24h-.72l-.07,.22s-.07,0-.11-.01c-.12-.04-.22-.09-.32-.16-.03-.09-.06-.14-.11-.18-.04-.04-.1-.05-.17-.05-.1,0-.17,.03-.21,.08-.06,.05-.08,.14-.08,.28v.18c0,.12,.03,.21,.08,.28,.04,.05,.12,.08,.21,.08,.04,0,.07-.01,.1-.03,.04,0,.07-.03,.1-.04,.11,.04,.22,.08,.36,.11l-.15,.53s-.03,.08-.03,.11c0,.04,.01,.07,.06,.09,.03,.03,.07,.04,.11,.04,.07,0,.13-.04,.18-.12l.33-.59c.42-.01,.75-.11,1.01-.29,.19-.12,.28-.29,.28-.47h0Zm2.32,.54c.17,.14,.44,.22,.81,.22,.18,0,.42-.04,.69-.11,.26-.07,.44-.14,.54-.22,.07-.05,.1-.12,.1-.18,0-.08-.03-.14-.08-.2-.06-.04-.13-.07-.21-.07-.04,0-.13,.01-.22,.07-.25,.12-.53,.17-.82,.17-.21,0-.35-.03-.43-.09-.04-.03-.07-.11-.07-.22v-1.07h1.07c.14,0,.24-.03,.31-.08,.06-.05,.08-.11,.08-.18s-.03-.14-.08-.2c-.07-.05-.17-.08-.31-.08h-1.07v-.47c0-.13-.03-.22-.08-.28-.06-.05-.13-.08-.21-.08s-.15,.03-.21,.08c-.06,.05-.08,.14-.08,.28v.47h-.21c-.14,0-.24,.03-.31,.08-.06,.05-.08,.12-.08,.2s.03,.13,.08,.18c.07,.05,.17,.08,.31,.08h.21v1.17c0,.21,.08,.38,.28,.53Zm-28.39-2.57c.07,.01,.15,.03,.24,.03,.26,0,.49-.07,.67-.21,.17-.13,.25-.28,.25-.42,0-.05-.01-.11-.06-.13-.03-.04-.07-.05-.12-.05s-.1,.01-.13,.03c-.03,.03-.04,.08-.07,.16-.03,.07-.08,.13-.18,.2-.1,.05-.21,.08-.36,.08-.08,0-.17,0-.24-.03v.36h0Zm20.6,.26v.53c-.19,0-.36,.04-.51,.12-.14,.08-.25,.2-.35,.34h.86v.54h-.88c.06,.13,.17,.25,.32,.33,.14,.08,.33,.12,.56,.13v.54c-.44-.01-.82-.13-1.08-.37-.28-.24-.42-.54-.42-.9s.14-.67,.44-.91c.31-.24,.65-.36,1.04-.36h.01Zm-20.6,2.52v-.54c.07-.01,.15-.04,.24-.07,.18-.04,.33-.12,.47-.2v-.24c-.24-.04-.44-.05-.64-.05h-.07v-.54h.1c.18,0,.37,.01,.61,.05v-.13c0-.08-.04-.14-.11-.2-.07-.05-.22-.08-.43-.08-.06,0-.11,.01-.17,.01v-.54h.15c.36,0,.64,.07,.83,.21,.21,.14,.31,.34,.31,.59v1.09h.1c.14,0,.24,.03,.29,.08,.07,.05,.1,.12,.1,.2s-.03,.14-.1,.18c-.06,.05-.15,.08-.29,.08h-.68v-.13c-.15,.08-.31,.13-.49,.17-.07,.01-.15,.03-.22,.04h0Zm4.99-.08c.14,0,.24-.03,.31-.08,.06-.04,.08-.11,.08-.18s-.03-.14-.08-.2c-.07-.05-.17-.08-.31-.08h-.83v-.8c.25-.18,.44-.33,.61-.42,.17-.09,.28-.14,.36-.14,.07,0,.14,.04,.22,.11,.07,.07,.15,.11,.22,.11,.08,0,.15-.03,.21-.08,.06-.07,.08-.12,.08-.2,0-.09-.06-.18-.18-.26-.18-.13-.36-.2-.54-.2-.13,0-.26,.03-.4,.08-.14,.05-.33,.16-.58,.33v-.34h-.79c-.14,0-.24,.03-.29,.08-.06,.05-.08,.12-.08,.2s.03,.13,.08,.18c.06,.05,.15,.08,.29,.08h.22v1.29h-.35c-.14,0-.25,.03-.31,.08-.06,.05-.08,.12-.08,.2s.03,.14,.08,.18c.06,.05,.17,.08,.31,.08h1.75Zm4.43-.01c.28-.07,.46-.14,.56-.22,.06-.05,.1-.12,.1-.18,0-.08-.03-.14-.08-.2-.06-.04-.12-.07-.21-.07-.06,0-.12,.01-.22,.07-.25,.12-.53,.17-.82,.17-.21,0-.35-.03-.43-.09-.04-.03-.07-.11-.07-.22v-1.07h1.07c.14,0,.24-.03,.31-.08,.06-.05,.08-.11,.08-.18s-.03-.14-.08-.2c-.07-.05-.17-.08-.31-.08h-1.07v-.47c0-.13-.03-.22-.08-.28s-.13-.08-.21-.08-.15,.03-.21,.08c-.06,.05-.08,.14-.08,.28v.47h-.21c-.14,0-.25,.03-.31,.08-.06,.05-.08,.12-.08,.2s.03,.13,.08,.18c.06,.05,.17,.08,.31,.08h.21v1.17c0,.21,.08,.38,.26,.53s.46,.22,.82,.22c.18,0,.42-.04,.68-.11h0Zm6.08,.01h1.76c.14,0,.24-.03,.29-.08,.06-.04,.1-.11,.1-.18s-.04-.14-.1-.2c-.06-.05-.15-.08-.29-.08h-.83v-.8c.24-.18,.44-.33,.61-.42,.15-.09,.28-.14,.36-.14,.06,0,.12,.04,.21,.11,.08,.07,.15,.11,.22,.11,.08,0,.15-.03,.21-.08,.07-.07,.1-.12,.1-.2,0-.09-.07-.18-.18-.26-.18-.13-.36-.2-.56-.2-.13,0-.25,.03-.39,.08-.15,.05-.33,.16-.58,.33v-.34h-.79c-.14,0-.24,.03-.31,.08-.06,.05-.08,.12-.08,.2s.03,.13,.08,.18c.07,.05,.17,.08,.31,.08h.21v1.29h-.35c-.14,0-.24,.03-.29,.08-.07,.05-.1,.12-.1,.2s.03,.14,.1,.18c.06,.05,.15,.08,.29,.08h0Zm-2.38-.12v.12h.56c.14,0,.24-.03,.29-.08,.06-.04,.1-.11,.1-.18s-.03-.14-.1-.2c-.06-.05-.14-.08-.26-.08v-1.83h-.79c-.14,0-.25,.03-.31,.08-.06,.05-.08,.12-.08,.2s.03,.13,.08,.18c.06,.05,.17,.08,.31,.08h.21v1.09c-.19,.11-.36,.18-.5,.22-.14,.04-.26,.07-.37,.07-.13,0-.22-.03-.28-.08-.06-.05-.1-.13-.1-.25v-1.59h-.68c-.14,0-.24,.03-.29,.08-.06,.05-.08,.12-.08,.2s.03,.13,.08,.18c.06,.05,.15,.08,.29,.08h.11v1.15c0,.14,.03,.26,.08,.36,.08,.13,.19,.24,.33,.3,.14,.08,.31,.12,.5,.12,.13,0,.28-.03,.43-.05,.15-.04,.31-.09,.47-.16Zm-13.54-2.77c.11,.09,.25,.16,.42,.18v-.36c-.06-.01-.1-.04-.14-.07-.08-.05-.14-.12-.17-.18-.01-.08-.04-.13-.07-.16-.03-.01-.07-.03-.11-.03-.06,0-.11,.01-.14,.05-.04,.03-.06,.08-.06,.13,0,.14,.08,.29,.26,.42h0Zm.42,.45v.54c-.14,.01-.31,.04-.5,.09-.1,.01-.18,.03-.24,.03-.08,0-.14-.03-.19-.08s-.08-.12-.08-.2c0-.04,.01-.08,.03-.12,.01-.03,.04-.05,.08-.08,.03-.01,.1-.04,.21-.07,.14-.04,.29-.07,.44-.09,.08-.01,.17-.01,.25-.03h0Zm0,.88v.54c-.21,0-.39,.05-.54,.16-.11,.07-.17,.13-.17,.2,0,.05,.03,.09,.08,.13,.1,.05,.22,.08,.39,.08,.07,0,.15,0,.24-.01v.54c-.08,0-.17,.01-.25,.01-.32,0-.57-.08-.76-.24-.19-.14-.29-.32-.29-.5,0-.22,.12-.43,.37-.62,.22-.18,.54-.28,.93-.29h0Zm-4.82,1.38c.25,.17,.6,.26,1.06,.26,.5,0,.89-.08,1.14-.24,.18-.11,.26-.22,.26-.34,0-.07-.03-.13-.08-.18-.06-.05-.13-.08-.21-.08-.06,0-.14,.03-.21,.09-.08,.07-.18,.12-.26,.14-.15,.04-.35,.07-.6,.07-.36,0-.63-.05-.79-.18-.15-.12-.24-.28-.24-.49,0-.22,.08-.41,.25-.57,.17-.14,.39-.22,.65-.22,.25,0,.44,.05,.6,.13,.08,.05,.14,.12,.17,.21,.01,.11,.04,.17,.08,.2,.06,.04,.13,.07,.21,.07s.15-.03,.21-.08c.06-.07,.08-.14,.08-.28v-.34c0-.13-.03-.22-.08-.28s-.13-.08-.21-.08c-.07,0-.14,.03-.21,.09-.12-.07-.25-.11-.39-.13-.14-.03-.29-.04-.44-.04-.44,0-.81,.12-1.08,.37-.28,.25-.42,.57-.42,.95,0,.41,.18,.72,.51,.95Z"/><g><path class="cls-18" d="M190.73,679.01v-.22c.11,0,.19-.03,.25-.08,.07-.05,.1-.12,.1-.2,0-.09-.03-.17-.1-.24-.07-.07-.15-.09-.25-.09v-.22c.06,0,.11,.01,.17,.03,.07,.01,.13,.04,.18,.08v-.28h-.04c-.06,0-.1-.01-.13-.03-.01-.03-.03-.05-.03-.09,0-.03,.01-.05,.03-.08,.03-.01,.07-.03,.13-.03h.28v1.19h.04c.06,0,.1,.01,.12,.04,.01,.01,.03,.04,.03,.08,0,.03-.01,.05-.03,.08-.03,.03-.07,.03-.12,.03h-.28v-.05c-.06,.03-.11,.05-.17,.07-.06,.01-.13,.03-.18,.03h0Zm1.54-1.45v.24h-.28v-.24h.28Zm.03,.42v.76h.29c.06,0,.1,.01,.11,.04,.03,.01,.04,.04,.04,.08,0,.03-.01,.05-.04,.08-.01,.03-.06,.03-.11,.03h-.81c-.06,0-.1,0-.12-.03s-.03-.05-.03-.08c0-.04,0-.07,.03-.08,.03-.03,.07-.04,.12-.04h.28v-.54h-.18c-.06,0-.1-.01-.12-.03-.03-.03-.04-.05-.04-.08,0-.04,.01-.07,.04-.09,.03-.01,.06-.03,.12-.03h.42Zm1.67,.04s.06-.04,.08-.04c.04,0,.07,.01,.08,.04,.03,.03,.04,.07,.04,.12v.14c0,.05-.01,.08-.04,.11-.01,.03-.04,.04-.08,.04-.03,0-.06-.01-.08-.03-.01-.01-.03-.04-.03-.08-.01-.04-.04-.08-.07-.09-.07-.04-.14-.05-.24-.05-.11,0-.21,.03-.28,.09-.06,.07-.1,.14-.1,.24,0,.08,.03,.16,.1,.2,.07,.05,.17,.08,.32,.08,.1,0,.18-.01,.24-.03,.04-.01,.08-.03,.11-.07,.03-.03,.07-.04,.08-.04,.04,0,.07,.01,.08,.04,.03,.03,.04,.05,.04,.08,0,.05-.04,.09-.11,.14-.1,.07-.25,.09-.46,.09-.18,0-.33-.04-.43-.11-.14-.09-.21-.22-.21-.4,0-.16,.06-.29,.17-.4,.11-.11,.26-.16,.44-.16,.06,0,.12,0,.18,.01,.06,.01,.11,.03,.15,.05h0Zm.81-.46v.47s.1-.05,.15-.07c.04-.01,.1-.01,.15-.01,.07,0,.15,.01,.21,.04,.07,.03,.12,.07,.17,.12,.04,.07,.06,.13,.06,.21v.42c.06,0,.1,.01,.13,.03,.03,.01,.04,.05,.04,.09,0,.03,0,.05-.03,.08s-.07,.03-.12,.03h-.26c-.06,0-.1,0-.12-.03s-.03-.05-.03-.08c0-.04,.01-.08,.06-.09,.01-.01,.06-.03,.11-.03v-.4c0-.07-.01-.11-.04-.13-.04-.03-.08-.04-.15-.04-.06,0-.11,.01-.14,.03-.04,.03-.1,.07-.17,.13v.41c.06,0,.1,.01,.11,.03,.04,.01,.06,.05,.06,.09,0,.03-.01,.05-.03,.08-.03,.03-.07,.03-.12,.03h-.26c-.06,0-.1,0-.12-.03s-.04-.05-.04-.08c0-.04,.03-.08,.06-.09,.03-.01,.07-.03,.13-.03v-.96h-.04c-.06,0-.1-.01-.13-.03-.03-.03-.03-.05-.03-.09,0-.03,0-.05,.03-.08,.03-.01,.07-.03,.13-.03h.28Zm1.74,0v.24h-.28v-.24h.28Zm.04,.42v.76h.28c.06,0,.1,.01,.12,.04,.01,.01,.03,.04,.03,.08,0,.03-.01,.05-.03,.08-.03,.03-.07,.03-.12,.03h-.81c-.06,0-.1,0-.13-.03-.01-.03-.03-.05-.03-.08,0-.04,.01-.07,.03-.08,.03-.03,.07-.04,.13-.04h.29v-.54h-.19c-.06,0-.1-.01-.13-.03-.03-.03-.03-.05-.03-.08,0-.04,0-.07,.03-.09,.03-.01,.07-.03,.13-.03h.43Zm-5.82-.03v.22h0c-.1,0-.18,.03-.25,.09-.07,.07-.11,.14-.11,.24,0,.08,.03,.14,.1,.2,.06,.05,.15,.08,.26,.08h0v.22c-.18,0-.32-.05-.43-.14-.11-.09-.17-.22-.17-.37s.06-.28,.18-.38c.11-.11,.25-.16,.4-.16h.01Zm-4.86,1.05v-.24s.06,0,.1-.01c.07-.03,.12-.05,.19-.09v-.09c-.1-.01-.19-.03-.26-.03h-.03v-.22h.04c.07,0,.15,0,.25,.03v-.07s-.03-.05-.06-.08c-.03-.01-.08-.03-.17-.03h-.07v-.22h.06c.15,0,.26,.03,.35,.09,.08,.05,.11,.14,.11,.24v.46h.04c.06,0,.1,.01,.13,.04,.03,.01,.04,.04,.04,.08,0,.03-.01,.05-.04,.08-.03,.03-.07,.03-.13,.03h-.26v-.05c-.07,.04-.13,.05-.21,.07-.03,.01-.06,.01-.08,.03h0Zm0-1.16v-.16s.06,.01,.1,.01c.06,0,.11-.01,.14-.04,.04-.01,.07-.04,.08-.08,0-.03,.01-.05,.03-.07,.01,0,.03-.01,.04-.01,.03,0,.04,.01,.06,.03,.01,.01,.03,.03,.03,.05,0,.07-.04,.12-.11,.18-.07,.05-.15,.08-.26,.08h-.1Zm1.43,.82h.32l-.35,.62s-.04,.05-.07,.05-.04-.01-.06-.03c-.01-.01-.01-.03-.01-.04v-.04l.17-.57Zm-1.43-.97v.16c-.07-.01-.13-.04-.17-.08-.08-.07-.11-.12-.11-.18,0-.03,0-.04,.03-.05,.01-.01,.03-.03,.06-.03,.01,0,.03,.01,.04,.01,.01,.01,.01,.04,.03,.07,.01,.04,.03,.07,.07,.08,.01,.01,.03,.03,.06,.03h0Zm0,.26v.22c-.06,.01-.13,.01-.21,.04-.04,.01-.07,.01-.1,.01s-.06-.01-.07-.04c-.03-.01-.04-.04-.04-.08,0-.01,0-.03,.01-.04t.03-.04s.04-.01,.1-.03l.17-.04s.08-.01,.11-.01h0Zm0,.37v.22c-.08,0-.17,.03-.22,.07-.04,.03-.07,.05-.07,.09,0,.01,.01,.03,.04,.04,.03,.03,.08,.04,.15,.04,.03,0,.06,0,.1-.01v.24h-.11c-.13,0-.22-.03-.31-.09-.07-.07-.11-.13-.11-.21,0-.09,.04-.18,.15-.26,.08-.08,.21-.12,.38-.12h0Zm-6.24,.59v-.11s.01,.03,.01,.05c0,.01-.01,.04-.01,.05h0Zm0-.76s.01,.01,.01,.03c.03,.01,.07,.03,.12,.03h.04v.49c0,.05,.01,.11,.04,.14,.03,.05,.07,.09,.13,.13,.06,.03,.13,.04,.21,.04,.06,0,.11,0,.17-.03,.07-.01,.12-.03,.19-.07v.05h.22c.06,0,.1,0,.13-.03,.03-.03,.04-.05,.04-.08,0-.04-.01-.07-.04-.08-.03-.03-.06-.04-.11-.04v-.76h-.32c-.06,0-.1,.01-.13,.03-.01,.03-.03,.05-.03,.09,0,.03,.01,.05,.03,.08,.03,.01,.07,.03,.13,.03h.08v.46c-.08,.04-.14,.08-.19,.09-.06,.01-.11,.03-.15,.03-.06,0-.1-.01-.11-.03-.03-.03-.04-.07-.04-.11v-.67h-.28c-.06,0-.1,.01-.12,.03,0,.01-.01,.03-.01,.04v.11h0Zm1.94,.59h.42s.01-.07,.03-.09c.03-.01,.06-.03,.08-.03,.04,0,.07,.01,.08,.04,.03,.01,.04,.05,.04,.11v.2h-1.03v-.18l.61-.58h-.36v.03c0,.05,0,.09-.03,.11-.01,.03-.06,.04-.08,.04-.04,0-.07-.01-.08-.04-.03-.01-.04-.05-.04-.11v-.25h.99v.18l-.63,.58h0Zm1.63-1.19v.24h-.28v-.24h.28Zm.03,.42v.76h.28c.07,0,.1,.01,.13,.04,.03,.01,.04,.04,.04,.08,0,.03-.01,.05-.04,.08-.03,.03-.06,.03-.13,.03h-.79c-.06,0-.1,0-.12-.03-.03-.03-.04-.05-.04-.08,0-.04,.01-.07,.04-.08,.03-.03,.07-.04,.12-.04h.28v-.54h-.19c-.06,0-.08-.01-.11-.03-.03-.03-.04-.05-.04-.08,0-.04,.01-.07,.04-.09,.01-.01,.06-.03,.11-.03h.43Zm1.67,.04s.06-.04,.08-.04c.04,0,.07,.01,.08,.04,.03,.03,.04,.07,.04,.12v.14c0,.05-.01,.08-.04,.11-.01,.03-.04,.04-.08,.04-.03,0-.06-.01-.08-.03-.01-.01-.03-.04-.04-.08,0-.04-.03-.08-.06-.09-.07-.04-.15-.05-.24-.05-.11,0-.21,.03-.28,.09-.07,.07-.1,.14-.1,.24,0,.08,.03,.16,.1,.2,.07,.05,.17,.08,.32,.08,.1,0,.18-.01,.24-.03,.04-.01,.08-.03,.11-.07,.03-.03,.06-.04,.08-.04,.04,0,.07,.01,.08,.04,.03,.03,.04,.05,.04,.08,0,.05-.04,.09-.11,.14-.1,.07-.26,.09-.46,.09-.18,0-.33-.04-.43-.11-.14-.09-.21-.22-.21-.4,0-.16,.06-.29,.17-.4,.11-.11,.26-.16,.44-.16,.06,0,.12,0,.18,.01,.06,.01,.11,.03,.15,.05Zm-5.26,.03v.11s-.01-.04-.01-.05c0-.03,0-.04,.01-.05h0Zm0,.76s-.01-.03-.03-.03c-.03-.03-.06-.04-.11-.04v-.5c0-.09-.03-.17-.11-.22-.06-.04-.12-.07-.21-.07-.04,0-.08,.01-.12,.03-.04,.01-.08,.04-.12,.07-.03-.03-.07-.05-.1-.07-.04-.03-.07-.03-.11-.03-.03,0-.07,0-.1,.01-.04,.01-.07,.04-.11,.08v-.07h-.21c-.06,0-.1,.01-.12,.03-.01,.03-.03,.05-.03,.09,0,.03,.01,.05,.03,.08,.03,.01,.07,.03,.11,.03v.54s-.08,.01-.11,.04c-.01,.01-.03,.04-.03,.08,0,.03,.01,.05,.03,.08,.03,.03,.07,.03,.12,.03h.19c.06,0,.1,0,.13-.03,.03-.03,.04-.05,.04-.08,0-.04-.01-.07-.04-.08-.03-.03-.06-.04-.11-.04v-.45c.04-.05,.07-.08,.1-.09,.03-.03,.06-.03,.08-.03s.04,0,.06,.01c.01,.01,.03,.04,.03,.08v.7h.22c.06,0,.1,0,.13-.03,.01-.03,.03-.05,.03-.08,0-.04-.01-.07-.03-.08-.03-.03-.07-.04-.11-.04v-.45c.04-.05,.07-.08,.1-.11,.03-.01,.06-.01,.07-.01,.03,0,.06,0,.07,.01,.01,.01,.01,.04,.01,.08v.7h.22c.06,0,.1,0,.13-.03l.03-.03v-.11h0Zm-7.06,.2v-.24s.06,0,.08-.01c.08-.03,.14-.05,.19-.09v-.09c-.1-.01-.18-.03-.26-.03h-.01v-.22h.03c.07,0,.15,0,.25,.03v-.07s-.01-.05-.04-.08c-.03-.01-.08-.03-.18-.03h-.06v-.22h.06c.14,0,.26,.03,.33,.09,.08,.05,.12,.14,.12,.24v.46h.04c.06,0,.1,.01,.13,.04,.01,.01,.03,.04,.03,.08,0,.03-.01,.05-.03,.08-.03,.03-.07,.03-.13,.03h-.28v-.05c-.06,.04-.13,.05-.19,.07-.03,.01-.06,.01-.08,.03h0Zm1.57-1.45v.24h-.28v-.24h.28Zm.03,.42v.76h.28c.06,0,.1,.01,.12,.04,.03,.01,.04,.04,.04,.08,0,.03-.01,.05-.04,.08s-.07,.03-.12,.03h-.79c-.06,0-.1,0-.13-.03-.03-.03-.04-.05-.04-.08,0-.04,.01-.07,.04-.08,.03-.03,.07-.04,.13-.04h.28v-.54h-.19c-.06,0-.1-.01-.11-.03-.03-.03-.04-.05-.04-.08,0-.04,.01-.07,.04-.09,.01-.01,.06-.03,.11-.03h.43Zm1.24,.69h.32l-.33,.62s-.06,.05-.08,.05c-.01,0-.03-.01-.04-.03-.01-.01-.03-.03-.03-.04s0-.03,.01-.04l.15-.57Zm-2.83-.71v.22c-.07,.01-.14,.01-.21,.04-.04,.01-.07,.01-.1,.01s-.06-.01-.08-.04c-.01-.01-.03-.04-.03-.08,0-.01,0-.03,.01-.04,0-.03,.01-.03,.03-.04,.01-.01,.04-.01,.08-.03,.06-.01,.13-.03,.18-.04,.04,0,.07-.01,.11-.01h0Zm0,.37v.22c-.1,0-.17,.03-.22,.07-.06,.03-.07,.05-.07,.09,0,.01,.01,.03,.03,.04,.04,.03,.1,.04,.15,.04,.04,0,.07,0,.11-.01v.24h-.11c-.13,0-.22-.03-.31-.09-.08-.07-.13-.13-.13-.21,0-.09,.06-.18,.15-.26,.1-.08,.22-.12,.39-.12h0Zm-1.36,.69v-.22h.03c.08,0,.19-.01,.35-.05,.06-.01,.1-.03,.13-.03s.06,.01,.07,.04c.03,.01,.04,.04,.04,.08,0,.03-.01,.05-.04,.07-.03,.03-.1,.05-.22,.08-.11,.03-.24,.04-.35,.04h0Zm0-.42v-.22h.35c-.04-.05-.08-.11-.14-.14-.06-.03-.13-.04-.21-.04v-.22c.08,0,.18,.01,.25,.05,.08,.03,.14,.07,.18,.09,.06,.05,.1,.13,.14,.21,.03,.05,.04,.12,.04,.18v.09h-.61Zm0-.63v.22c-.08,0-.15,.01-.21,.04-.06,.04-.11,.09-.14,.14h.35v.22h-.36c.03,.07,.07,.11,.13,.14,.07,.03,.14,.05,.24,.05v.22c-.19,0-.33-.05-.44-.14-.11-.11-.17-.24-.17-.38,0-.16,.06-.28,.18-.38,.12-.09,.26-.14,.42-.14h.01Zm-6.25,1.05v-.22h.03c.08,0,.21-.01,.35-.05,.07-.01,.11-.03,.13-.03,.03,0,.06,.01,.08,.04,.01,.01,.03,.04,.03,.08,0,.03-.01,.05-.03,.07-.03,.03-.11,.05-.22,.08-.13,.03-.24,.04-.35,.04h-.01Zm0-.42v-.22h.35c-.03-.05-.08-.11-.14-.14-.06-.03-.13-.04-.21-.04v-.22c.1,0,.18,.01,.26,.05,.08,.03,.14,.07,.18,.09,.06,.05,.1,.13,.14,.21,.01,.05,.03,.12,.03,.18v.09h-.61Zm1.38,.08h.32l-.33,.62s-.06,.05-.08,.05c-.01,0-.03-.01-.04-.03-.03-.01-.03-.03-.03-.04s0-.03,.01-.04l.15-.57h0Zm3.85-.65s.06-.04,.08-.04,.06,.01,.08,.04c.03,.03,.03,.07,.03,.12v.14c0,.05,0,.08-.03,.11-.03,.03-.06,.04-.08,.04s-.06-.01-.08-.03c-.01-.01-.03-.04-.04-.08,0-.04-.03-.08-.07-.09-.06-.04-.14-.05-.24-.05-.11,0-.19,.03-.26,.09-.07,.07-.1,.14-.1,.24,0,.08,.03,.16,.1,.2,.06,.05,.17,.08,.32,.08,.1,0,.18-.01,.24-.03,.04-.01,.07-.03,.11-.07,.03-.03,.06-.04,.08-.04,.04,0,.07,.01,.08,.04,.03,.03,.04,.05,.04,.08,0,.05-.04,.09-.11,.14-.11,.07-.26,.09-.46,.09s-.33-.04-.43-.11c-.14-.09-.21-.22-.21-.4,0-.16,.06-.29,.17-.4,.11-.11,.26-.16,.43-.16,.07,0,.14,0,.19,.01,.06,.01,.1,.03,.15,.05Zm-5.22-.07v.22h0c-.08,0-.15,.01-.21,.04-.06,.04-.1,.09-.14,.14h.35v.22h-.35c.01,.07,.06,.11,.12,.14,.06,.03,.13,.05,.22,.05v.22c-.18,0-.33-.05-.44-.14-.11-.11-.17-.24-.17-.38,0-.16,.07-.28,.18-.38,.13-.09,.26-.14,.43-.14h0Zm-4.29,1.05v-.24s.06,0,.1-.01c.07-.03,.13-.05,.19-.09v-.09c-.1-.01-.19-.03-.26-.03h-.03v-.22h.04c.07,0,.15,0,.25,.03v-.07s-.03-.05-.06-.08c-.03-.01-.08-.03-.17-.03h-.07v-.22h.06c.15,0,.26,.03,.35,.09,.08,.05,.11,.14,.11,.24v.46h.04c.06,0,.1,.01,.13,.04,.03,.01,.04,.04,.04,.08,0,.03-.01,.05-.04,.08-.03,.03-.07,.03-.13,.03h-.26v-.05c-.07,.04-.13,.05-.21,.07-.03,.01-.06,.01-.08,.03h0Zm1.43-1.03v.14c.11-.07,.18-.12,.24-.14,.06-.01,.11-.03,.17-.03,.07,0,.15,.03,.22,.08,.04,.04,.07,.08,.07,.11,0,.04-.01,.07-.03,.09-.03,.01-.06,.03-.08,.03s-.07-.01-.1-.04c-.03-.03-.06-.04-.08-.04-.04,0-.08,.01-.15,.05-.07,.04-.14,.11-.25,.18v.33h.35c.06,0,.1,.01,.11,.04,.03,.01,.04,.04,.04,.08,0,.03-.01,.05-.04,.08-.01,.03-.06,.03-.11,.03h-.72c-.06,0-.1,0-.11-.03-.03-.03-.04-.05-.04-.08,0-.04,.01-.07,.04-.08,.01-.03,.06-.04,.11-.04h.15v-.54h-.1c-.06,0-.1-.01-.11-.03-.03-.03-.04-.05-.04-.08,0-.04,.01-.07,.04-.09,.01-.01,.06-.03,.11-.03h.32Zm1.42,.22v.45c0,.05,0,.08,.03,.09,.03,.03,.08,.04,.17,.04,.13,0,.24-.03,.33-.07,.04-.03,.07-.04,.1-.04s.06,.01,.08,.04c.01,.03,.03,.05,.03,.08s-.01,.05-.04,.08c-.03,.03-.11,.07-.22,.09-.11,.03-.19,.04-.28,.04-.14,0-.25-.03-.32-.09-.08-.05-.11-.13-.11-.22v-.49h-.1c-.06,0-.1-.01-.11-.03-.03-.03-.04-.05-.04-.08,0-.04,.01-.07,.04-.09,.01-.01,.06-.03,.11-.03h.1v-.2c0-.05,0-.09,.03-.12s.06-.04,.08-.04c.04,0,.07,.01,.08,.04,.03,.03,.04,.07,.04,.12v.2h.43c.06,0,.1,.01,.13,.03,.01,.03,.03,.05,.03,.09,0,.03-.01,.05-.03,.08-.03,.01-.07,.03-.13,.03h-.43Zm-3.82-.18s.06-.04,.08-.04c.04,0,.07,.01,.08,.04,.03,.03,.04,.07,.04,.12v.14c0,.05-.01,.08-.04,.11-.01,.03-.04,.04-.08,.04-.03,0-.06-.01-.08-.03-.01-.01-.03-.04-.04-.08,0-.04-.03-.08-.06-.09-.07-.04-.15-.05-.25-.05-.11,0-.19,.03-.26,.09-.07,.07-.1,.14-.1,.24,0,.08,.03,.16,.1,.2,.07,.05,.17,.08,.32,.08,.1,0,.18-.01,.24-.03,.04-.01,.08-.03,.11-.07,.03-.03,.06-.04,.08-.04,.04,0,.07,.01,.08,.04,.03,.03,.04,.05,.04,.08,0,.05-.04,.09-.11,.14-.1,.07-.26,.09-.46,.09-.18,0-.33-.04-.43-.11-.14-.09-.21-.22-.21-.4,0-.16,.06-.29,.17-.4,.11-.11,.26-.16,.44-.16,.06,0,.12,0,.18,.01,.06,.01,.1,.03,.15,.05h0Zm.97-.07v.22c-.06,.01-.12,.01-.21,.04-.04,.01-.07,.01-.1,.01s-.06-.01-.07-.04c-.03-.01-.04-.04-.04-.08,0-.01,0-.03,.01-.04t.03-.04s.04-.01,.1-.03l.17-.04s.08-.01,.11-.01h0Zm0,.37v.22c-.08,0-.17,.03-.22,.07-.04,.03-.07,.05-.07,.09,0,.01,.01,.03,.04,.04,.03,.03,.08,.04,.15,.04,.03,0,.06,0,.1-.01v.24h-.11c-.13,0-.22-.03-.31-.09-.07-.07-.11-.13-.11-.21,0-.09,.04-.18,.15-.26,.08-.08,.21-.12,.38-.12Z"/><path class="cls-18" d="M198.1,678.24s-.07-.04-.11-.05c-.06-.01-.1-.01-.14-.01-.1,0-.17,.01-.22,.04-.01,.01-.03,.03-.03,.04s.01,.04,.04,.05c.03,.01,.08,.03,.17,.03,.15,.03,.26,.05,.33,.07,.07,.03,.14,.07,.18,.12,.04,.05,.07,.11,.07,.17,0,.08-.04,.14-.11,.2-.11,.08-.25,.12-.42,.12-.07,0-.14,0-.19-.01-.06-.01-.11-.03-.15-.05-.01,.01-.03,.01-.04,.03h-.04s-.07-.01-.08-.03c-.03-.03-.04-.07-.04-.12v-.08c0-.05,.01-.09,.04-.12,.01-.01,.04-.03,.08-.03,.03,0,.06,0,.07,.03,.03,.01,.04,.04,.04,.07,.04,.04,.08,.05,.14,.07,.04,.03,.11,.03,.17,.03,.11,0,.19-.01,.25-.05,.04-.01,.06-.03,.06-.04,0-.04-.03-.05-.07-.08-.04-.01-.12-.03-.25-.04-.19-.03-.32-.07-.37-.12-.07-.05-.1-.12-.1-.2s.03-.14,.11-.2c.08-.07,.22-.11,.37-.11,.06,0,.11,0,.15,.01,.06,.01,.1,.03,.15,.04,.01,0,.03-.01,.03-.01,.01-.01,.03-.01,.04-.01,.03,0,.06,.01,.08,.04,.01,.01,.03,.05,.03,.11v.07s0,.08-.01,.09c-.03,.04-.06,.05-.1,.05-.03,0-.06-.01-.08-.03-.01-.01-.03-.04-.04-.07Z"/></g></g></g><g><path class="cls-9" d="M236.52,541.81c0,.06-.02,.14-.04,.21-.03,.12-.07,.26-.15,.33-.05,.05-.11,.07-.17,.07-.03,0-.05,0-.07,0-.02,0-.03,0-.05-.01-.05-.01-.12-.04-.19-.07,.02,.27-.08,.61-.39,.93-.27,.27-.57,.4-.89,.38-.32-.02-.64-.18-.98-.51l-1.91-1.91c-.08-.08-.12-.15-.12-.24,0-.1,.08-.21,.21-.33s.23-.2,.33-.2c.09,0,.16,.04,.24,.12l1.82,1.82c.27,.27,.5,.31,.77,.04s.24-.62-.03-.88l-1.77-1.77c-.08-.08-.12-.15-.12-.24,0-.1,.08-.2,.2-.33s.23-.2,.33-.2c.09,0,.16,.04,.24,.12l2.12,2.12c.07,.07,.14,.12,.2,.16,.06,.04,.11,.06,.14,.08,.07,.03,.14,.06,.21,.13,.06,.06,.07,.13,.07,.19h0Z"/><path class="cls-9" d="M231.38,542.53l2.12,2.12c.08,.08,.12,.15,.12,.24,0,.1-.08,.21-.2,.33s-.23,.2-.33,.21c-.09,0-.16-.04-.24-.12l-2.06-2.06-.28,.33c-.25,.29-.53,.03-.68-.12-.3-.3-.32-.5-.15-.67l1.3-1.3c.13-.13,.27-.18,.53,0,.28,.2,.44,.39,.23,.63l-.35,.42h0Z"/><path class="cls-9" d="M237.79,540.72c0,.1-.08,.21-.2,.33s-.23,.2-.33,.21c-.09,0-.16-.04-.24-.12l-2.62-2.62c-.08-.08-.12-.15-.12-.24,0-.1,.08-.21,.21-.33s.23-.2,.33-.2c.09,0,.16,.04,.24,.12l2.62,2.62c.08,.08,.12,.15,.12,.24h0Z"/><path class="cls-9" d="M219.7,549.87l1.74-1.74c.17-.17,.36-.23,.7,0,.38,.26,.58,.51,.3,.84l-.5,.59c3.42,2.62,6.75,1.26,4.77-3.27-.33-.75-.36-.92-.06-1.08,.41-.22,.64-.07,1.03,.62,2.91,5.11-.4,9.23-6.49,4.6l-.4,.48c-.33,.39-.71,.04-.91-.16-.4-.4-.42-.67-.19-.89h0Z"/><path class="cls-9" d="M224.07,541.62c.36-.36,.99-.3,1.41,.12s.48,1.06,.12,1.41-.99,.3-1.41-.12-.48-1.06-.12-1.41h0Z"/></g><g id="g10" transform="matrix(1.25,0,0,-1.25,0,172)"><g id="g12" transform="matrix(0.9991569,0,0,0.99581555,-1938.4245,-1808.7215)"><path id="path14" class="cls-18" d="M175.71,155.14c1.09,1.09,1.77,2.3,2.03,3.64,.51,2.81-.65,5.64-3.49,8.47-1.94,1.94-4.03,3.15-6.29,3.66-2.53,.54-4.64-.02-6.34-1.68l4.17-4.17c.75,.75,1.65,1,2.72,.77,.94-.21,1.83-.74,2.67-1.58,.75-.75,1.25-1.53,1.5-2.35,.25-.86,.14-1.53-.34-2.01-.63-.63-1.94-.31-3.93,.95-2.97,1.86-4.92,2.96-5.86,3.28-2.41,.85-4.43,.46-6.05-1.17-.96-.96-1.59-2.05-1.92-3.3-.32-1.24-.17-2.64,.47-4.19,.61-1.57,1.56-2.99,2.82-4.25,1.73-1.73,3.58-2.76,5.57-3.11,2.26-.42,4.28,.16,6.05,1.74l-4,4c-1.57-1.15-3.15-.92-4.74,.67-.65,.65-1.07,1.36-1.27,2.13-.19,.77-.07,1.37,.37,1.81,.57,.57,1.86,.22,3.88-1.07,2.93-1.86,4.9-2.97,5.92-3.34,2.45-.85,4.47-.47,6.05,1.11Z"/><path id="path16" class="cls-18" d="M200.66,139.93l-4.06,4.06-9.23-9.23c-1.07-1.07-1.99-1.66-2.75-1.78-.92-.11-1.89,.35-2.93,1.38-2.09,2.09-1.96,4.31,.39,6.66l8.74,8.74-4.05,4.05-15.27-15.27,3.88-3.88,1.43,1.43c.55,.55,.84,.82,.86,.8-.02-.02-.02-.04,0-.06-.36-1.32-.33-2.65,.09-3.99,.42-1.38,1.13-2.57,2.13-3.56,2.03-2.03,4.3-2.72,6.81-2.05,1.19,.34,2.31,1.05,3.38,2.12l10.57,10.57Z"/><path id="path18" class="cls-18" d="M210.82,120.02c1.09,1.09,1.77,2.3,2.03,3.64,.51,2.81-.65,5.63-3.49,8.47-1.94,1.94-4.03,3.16-6.29,3.66-2.53,.54-4.64-.02-6.34-1.68l4.17-4.17c.75,.75,1.65,1,2.72,.77,.94-.21,1.83-.74,2.67-1.58,.75-.75,1.25-1.53,1.5-2.36,.25-.86,.13-1.53-.34-2.01-.63-.63-1.94-.31-3.93,.95-2.97,1.86-4.92,2.96-5.86,3.28-2.41,.85-4.43,.46-6.05-1.17-.96-.96-1.59-2.05-1.92-3.3-.32-1.24-.17-2.64,.47-4.19,.62-1.57,1.55-2.98,2.82-4.25,1.72-1.72,3.58-2.76,5.57-3.11,2.26-.42,4.28,.16,6.05,1.74l-4,4c-1.57-1.14-3.15-.92-4.74,.67-.65,.65-1.07,1.36-1.27,2.13-.19,.77-.07,1.37,.37,1.81,.57,.57,1.86,.22,3.88-1.07,2.93-1.86,4.9-2.97,5.92-3.34,2.45-.85,4.47-.47,6.05,1.11Z"/><path id="path20" class="cls-18" d="M218.6,107.09c-.08,.73-.53,1.7-1.35,2.9-.94,1.36-1.49,2.31-1.64,2.84-.35,1.07-.07,2.06,.83,2.95,1.15,1.15,2.32,1.12,3.53-.09,.55-.55,1.01-1.26,1.35-2.1,.33-.86,.46-1.63,.41-2.3-.1-.9-.63-1.83-1.6-2.81-.17-.17-.43-.41-.77-.72-.34-.3-.59-.53-.75-.69h0Zm11.73,3.17l-3.77,3.77c-.33-.09-.86-.38-1.61-.86,.09,1.97-.89,3.98-2.94,6.03-1.42,1.42-2.91,2.26-4.48,2.53-1.84,.31-3.48-.26-4.93-1.71-2.08-2.08-2.7-4.33-1.85-6.74,.38-1.11,1.58-2.96,3.59-5.55,1.42-1.84,1.8-3.09,1.13-3.76-.59-.59-1.31-.81-2.15-.66-.84,.12-1.59,.5-2.24,1.15s-1.06,1.43-1.18,2.27c-.11,.78,.05,1.52,.48,2.21l-3.92,3.92c-.96-1.2-1.54-2.41-1.79-3.54-.27-1.26-.06-2.65,.61-4.16,.63-1.4,1.59-2.74,2.88-4.02,4.39-4.31,8.64-4.41,12.74-.31l9.43,9.43h0Z"/><path id="path22" class="cls-18" d="M168.32,137.76l-4.05,4.05-4.04-4.04,4.05-4.05,4.04,4.04Z"/><path id="path24" class="cls-18" d="M185.57,155.01l-4.05,4.05-7.64-7.64,4.05-4.05,7.64,7.64Z"/><path id="path26" class="cls-18" d="M246.15,96.15c2.03,2.03,2.92,4.38,2.69,7.06-.25,2.43-1.32,4.58-3.2,6.46s-3.93,2.86-6.26,3.05c-2.6,.2-4.95-.75-7.03-2.83l3.76-3.76c.97,.97,2.03,1.45,3.16,1.43,.99,0,1.88-.39,2.64-1.15,.84-.84,1.29-1.87,1.35-3.07,.02-1.32-.49-2.5-1.54-3.56l-2.35-2.35c.4,.98,.41,2.04,.02,3.19-.37,1.13-1.02,2.16-1.96,3.1-1.5,1.5-3.21,2.33-5.14,2.51-2.22,.2-4.22-.6-5.99-2.37l-10.06-10.06,4.05-4.05,9.46,9.46c1.89,1.89,3.7,1.98,5.42,.25,.92-.92,1.4-1.94,1.44-3.05,.04-1.11-.35-2.08-1.17-2.9l-9.46-9.46,4.02-4.02,16.13,16.13Z"/></g></g><g><path class="cls-9" d="M137.45,668.09c1.34,1.46,4.02,1.87,6.89,.88h0c.34-.08,.38-.69,.34-1.57l3.71-1.26c.5-.15,.76-.61,.65-1.11-.23-.5-.69-.69-1.19-.57l-3.52,1.19c-.08-.34-.15-.69-.31-1.03-.12-.34-.27-.69-.42-1.03l3.64-1.19c.42-.15,.69-.61,.53-1.11-.11-.42-.69-.69-1.11-.54l-3.82,1.22c-.46-.77-.88-1.19-1.15-1.11h0c-2.87,.92-4.78,2.83-5.01,4.78h0c0,.15-.19,.34-.34,.34,0,0-15.38,3.25-35.2,3.21-23.95-.08-35.16-5.01-41.05-6.62-.34-.11-.69-.11-.92,.23-.15,.34,.08,.69,.42,.84,.19,.11,15.3,9.26,41.47,9.26,18.17,0,29.72-3.17,35.84-4.97h.19c.15,0,.23,0,.27,.15h.08Z"/><path class="cls-9" d="M92.38,659.67l.08-.11,1.95-4.36,.69,4.47h-2.72Zm3.25-8.57c-1.8,0-2.99,.34-3.79,2.07,0,0-5.28,10.75-5.43,10.94h4.02s.73-1.64,.73-1.64h4.36s.19,1.53,.19,1.64h4.51c0-.19-2.29-12.66-2.29-12.74-.84-.23-1.53-.27-2.29-.27h0Zm-17.79,3.44c0-.12,.46-3.02,.46-3.18h-5.47c-2.72,0-3.45,1.3-3.83,3.6,0,0-1.15,7.77-1.22,7.92,.12,.08,3.75,.96,3.86,1.04,.08-.23,.65-3.9,.65-3.9h3.18c0-.11,.42-2.91,.5-3.1h-3.21l.42-2.37h4.67Zm5.93-3.18h-4.02c0,.15-1.45,9.41-1.45,9.41l-.12,1.19c0,.61,.12,1.11,.42,1.45,.38,.5,1.11,.69,2.26,.69h4.32c.08-.11,.53-3.52,.61-3.75h-3.41s1.38-8.8,1.38-8.99h0Zm52.79,6.39c-.23,2.14-1.68,2.99-2.95,2.99-.61,0-1.15-.31-1.57-.73-.5-.54-.69-1.38-.57-2.33,.23-2.03,1.53-2.91,2.87-2.91,.69,0,1.22,.19,1.64,.69,.5,.46,.69,1.3,.57,2.29h0Zm3.02-4.86c-1.03-1.19-2.75-1.8-4.86-1.8-3.52,0-7.34,2.56-7.69,6.85v.69c0,1.61,.5,2.98,1.41,4.02,1.03,1.11,2.68,1.76,4.78,1.76,.61,0,1.22-.08,1.88-.23,.8-2.14,2.83-4.02,5.55-4.97,.12-.57,.27-1.19,.34-1.76v-.69c0-1.57-.5-2.91-1.42-3.86h0Zm-15.19,1.65c.65,0,1.41,.15,1.95,.27,.08-.12,.92-3.29,.92-3.52-.69-.15-1.61-.19-2.1-.19-5.13,0-7.96,3.6-8.53,7-.27,1.91,0,3.44,.99,4.55,.88,1.11,2.56,1.68,4.63,1.68,1,0,2.11-.15,3.06-.34,0-.15,.19-3.4,.27-3.63-.61,.23-1.22,.31-1.95,.31-.8,0-1.57-.31-1.99-.84-.5-.57-.69-1.3-.5-2.22,.3-2.07,1.95-3.06,3.25-3.06h0Zm-12.82,1.53c-.08,.84-.19,1.87-.19,1.87l-.15,1.11-.53-1.65c-.35-1.11-1.19-3.75-1.61-6.05h-5.74c0,.15-2.03,12.55-2.03,12.74h3.87c0-.11,.76-4.48,.84-5.32,.15-.92,.34-2.64,.34-2.64,0,0,.42,1.53,.58,2.07,.11,.65,.76,2.79,.96,3.4,.76,2.49,1.95,2.8,4.09,2.8,.77,0,1.46-.08,2.22-.31,0-.04,2.03-12.55,2.03-12.74h-3.9c0,.15-.61,3.83-.76,4.71h0Z"/></g></g><path id="Atrium_AradS014-111" class="cls-39" d="M123.16,111.5H11.53v151.44H78.13c-1.44-25.8,12.82-40.33,12.82-40.33v-30.6l58.12-55.77-25.91-24.73Z"/><polygon id="Atrium_AradS106" class="cls-39" points="11.53 265.07 11.53 349.96 41.85 349.96 41.85 316 78.13 316 78.13 265.07 11.53 265.07"/><rect id="Atrium_AradS107" class="cls-39" x="43.66" y="317.98" width="34.47" height="31.97"/><polygon id="Atrium_AradS104B" class="cls-39" points="78.13 352.04 11.24 352.04 11.24 372.07 34.89 372.07 34.89 399.49 78.13 399.49 78.13 352.04"/><polygon id="Atrium_AradS103" class="cls-39" points="11.24 373.57 11.24 439.09 51.63 439.09 51.63 459.05 78.13 459.05 78.13 401.14 33.4 401.14 33.4 373.57 11.24 373.57"/><rect id="Atrium_AradS102" class="cls-39" x="51.94" y="469.26" width="26.71" height="52.09"/><polygon id="Atrium_AradS174" class="cls-39" points="78.65 522.68 15.72 522.68 18.08 551.83 78.1 551.83 88.27 541.67 78.65 532.5 78.65 522.68"/><path id="Atrium_AradS173" class="cls-39" d="M89.31,542.64l-10.58,10.61H18.31l6.05,73.54h24.59l.71,.55h58.14v-16.26l15.79-15.79c-15.43-13.75-15.43-34.84-15.43-34.84l-18.85-17.8Z"/><path id="Atrium_AradS172" class="cls-39" d="M50.33,628.55v75.2h93.83v-18.12h10.71v-60.08l10.26-10.26-5.34-5.34c-8.93,.89-31.64-8.76-35.18-13.43l-15.31,15.31v16.83l-58.97-.1Z"/><polygon id="Atrium_AradS171" class="cls-39" points="145.76 703.75 201.73 703.75 201.73 637.66 188.12 637.66 166.26 616.63 156.57 626.45 156.57 687.33 145.76 687.33 145.76 703.75"/><rect id="Atrium_AradS135" class="cls-39" x="211.95" y="637.66" width="39.65" height="25.03"/><polygon id="Atrium_AradS134" class="cls-39" points="232.37 664.1 232.37 703.75 317.69 703.75 317.69 637.66 252.94 637.66 252.94 664.1 232.37 664.1"/><rect id="Atrium_AradS031-133" class="cls-39" x="319.07" y="637.66" width="173.93" height="66.09"/><polygon id="Atrium_AradS030-131" class="cls-39" points="494.81 637.76 494.81 703.75 553.31 703.75 562.16 712.6 566.51 712.6 566.51 702.41 594.07 675.78 621.89 702.44 654.51 702.44 683.49 674.59 671.98 662.97 685.1 649.68 583.52 552.71 494.81 637.76"/><polygon id="Atrium_AradS130" class="cls-39" points="582.32 551.49 567.67 537.44 539.46 564.87 526 551.49 506.2 570.57 534.36 597.36 582.32 551.49"/><polygon id="Atrium_AradS123B" class="cls-39" points="546.32 516.86 498.69 562.8 397.75 466.58 418.46 446.46 390.51 419.7 417.68 393.66 546.32 516.86"/><polygon id="Atrium_AradS123A" class="cls-39" points="388.99 420.27 415.74 446.3 396.3 465.23 369.44 439.47 388.99 420.27"/><polygon id="Atrium_AradS122" class="cls-39" points="387.79 419.7 368.29 438.57 346.9 418.45 366.7 399.36 387.79 419.7"/><polygon id="Atrium_AradS118" class="cls-39" points="334.29 405.81 253.58 328.17 301.6 281.95 382.3 359.33 334.29 405.81"/><path id="Atrium_AradS115" class="cls-39" d="M252.55,326.72l-70.71-67.55,62.14-60.05-24.55-23.86,82.67-79.06,43.97,43.69c14.98-10.4,31.3-11.6,42.3-2.36l-52.15,50.21,30.51,29.4-114.17,109.57Z"/><path id="Atrium_AradS112A" class="cls-39" d="M278.09,107.58l-79.34,76.42,7.63,7.35-47.57,45.77c-33.98-41.2-63.89-19.01-66.02-16.19v-27.78l58.81-57-25.8-24.66L202.92,35.18l19.1-19.14,73.53,73.53-17.46,18.01Z"/><polygon id="Atrium_AradS113" class="cls-39" points="180.46 257.93 196.26 242.77 182.19 229.32 166.19 244.48 180.46 257.93"/><path id="Atrium_AradS146A" class="cls-39" d="M164.29,410.78l20.88-19.71-5.43-5.32,19.18-18.15-39.85-38.26c-9.98,18.65-18.62,41.22-20.7,57.03l25.92,24.41Z"/><path id="Atrium_AradS146B" class="cls-39" d="M163.27,412.1l-25.33-24.56c-2.41,14.95-2.81,44.05-.75,49.68l26.08-25.12Z"/><polygon id="Atrium_AradS147A" class="cls-39" points="181.99 386.02 186.13 390.01 204.17 372.75 199.9 368.72 181.99 386.02"/><polygon id="Atrium_AradS148" class="cls-38" points="165.22 412.1 182.63 428.71 204.5 407.7 214.77 417.66 232.87 400.28 205.32 373.8 165.22 412.1"/><path id="Atrium_AradS145" class="cls-38" d="M158.81,418.33l16.81,16.07-32.33,31.02c-2.95-8.45-5.88-23.95-5.72-26.63l21.23-20.47Z"/><path id="Atrium_AradS144" class="cls-38" d="M176.56,435.37l17.94,17.26-40.97,39.54c-4.8-9.33-9.85-24.88-9.81-25.59l32.84-31.21Z"/><path id="Atrium_AradS143" class="cls-38" d="M195.61,453.69l26.07,24.95c-21.07,15.48-52.5,30.65-59.02,31.95l-8.65-17.26,41.6-39.64Z"/><path id="Atrium_AradS150" class="cls-38" d="M178.17,434.82l26-24.98,44.48,42.44c-3.48,5.47-22.43,24.27-25.94,25.3l-44.55-42.76Z"/><path id="Atrium_AradS149" class="cls-38" d="M215.98,418.59l33.88,32.7c3.53-4.46,13.96-19.49,14.03-21.34l-30-28.69-17.91,17.34Z"/><path id="Atrium_AradS160" class="cls-38" d="M228.29,521.6l22.7,21.79-22.43,21.56c-4.98-1.51-16.63-8.08-16.63-8.08,3.52-11.1,10.53-27.46,16.36-35.26Z"/><path id="Atrium_AradS158" class="cls-38" d="M251.85,542.57l17.91-17.23-25.5-24.48c-5.05,5.42-14.78,17.27-15.26,19.79l22.85,21.91Z"/><path id="Atrium_AradS157-159" class="cls-38" d="M265.08,481.05l45.06,43.17-53.07,51.33c-8.52-2.36-27.51-10.12-27.51-10.12l42.06-40.13-26.51-25.16c2.32-3.47,19.97-19.08,19.97-19.08Z"/><path id="Atrium_AradS152" class="cls-38" d="M273.18,472.98l44.33,42.3,18.68-17.5-40.47-39.11c-6.5,1.86-18.65,9.61-22.54,14.31Z"/><polygon id="Atrium_AradS153" class="cls-38" points="318.78 516.66 339.18 536.27 357.84 518.41 337.36 498.75 318.78 516.66"/><path id="Atrium_AradS154" class="cls-38" d="M358.99,519.5l-18.57,18.25,34.51,32.86c8.7-1.97,13.77-4.5,26.19-10.51l-42.14-40.59Z"/><path id="Atrium_AradS151" class="cls-38" d="M339.18,538.67l34.58,32.83c-7.45,2.86-28.86,7.94-28.86,7.94l-24.02-23.3,18.31-17.48Z"/><path id="Atrium_AradS155" class="cls-38" d="M319.67,557.23l23.56,22.53c-15.02,2.42-32.8,4.55-49.84,2.76l26.29-25.29Z"/><path id="Atrium_AradS156" class="cls-38" d="M290.49,545.1l19.9,19.15-18.62,17.81c-9.44-.37-33.64-5.93-33.64-5.93l32.36-31.03Z"/></svg>