<?xml version="1.0" encoding="UTF-8"?>
<svg id="Layer_4" data-name="Layer 4" xmlns="http://www.w3.org/2000/svg" viewBox="0 0 748.91 724.26">
  <defs>
    <style>
      .cls-1 {
        stroke-width: 2px;
      }

      .cls-1, .cls-2, .cls-3 {
        fill: none;
        stroke-miterlimit: 10;
      }

      .cls-1, .cls-3 {
        stroke: #231f20;
      }

      .cls-2 {
        stroke: #000;
      }

      .cls-4 {
        fill: #f47725;
      }

      .cls-5 {
        font-size: 11.96px;
      }

      .cls-5, .cls-6, .cls-7, .cls-8, .cls-9, .cls-10, .cls-11, .cls-12, .cls-13, .cls-14, .cls-15, .cls-16 {
        fill: #231f20;
      }

      .cls-5, .cls-9, .cls-12, .cls-15 {
        font-family: Bauhaus93, 'Bauhaus 93';
      }

      .cls-6 {
        font-size: 5.4px;
      }

      .cls-6, .cls-8, .cls-10, .cls-11, .cls-13, .cls-14, .cls-16 {
        font-family: BerlinSansFBDemi-Bold, 'Berlin Sans FB Demi';
        font-weight: 700;
      }

      .cls-17 {
        fill: #f1f2f2;
      }

      .cls-8 {
        font-size: 25.77px;
      }

      .cls-9 {
        font-size: 7.47px;
      }

      .cls-10 {
        font-size: 8.07px;
      }

      .cls-11 {
        font-size: 2.69px;
      }

      .cls-12 {
        font-size: 7.67px;
      }

      .cls-18 {
        fill: #010101;
      }

      .cls-13 {
        font-size: 12.72px;
      }

      .cls-14 {
        font-size: 12.99px;
      }

      .cls-15 {
        font-size: 5.82px;
      }

      .cls-16 {
        font-size: 18.78px;
      }
    </style>
  </defs>
  <g id="cladire">
    <g>
      <path class="cls-17" d="M559.55,719.26l-9.04-9.3H44.15v-77.07h-19.71c-3.27,0-6.04-2.55-6.31-5.81l-13.13-158.15V105.02h119.26L222.2,7.07l124.66,124.66c8.54-4.53,16.56-6.83,23.87-6.83,8.67,0,16.48,3.15,23.2,9.37l.14.13,240.92,240.93c12.32,12.96,13.26,30.21,2.77,48.89l88.06,88.06v106.06l-44.95,44.95,55.97,55.97h-177.29Z"/>
      <path class="cls-17" d="M222.2,14.14l76.33,76.33,47.47,47.47c8.9-5.25,17.17-8.04,24.73-8.04s13.91,2.58,19.8,8.04l240.84,240.84c12.29,12.92,10.72,29.4.1,46.23l1.33,1.33,88.02,88.02v101.92l-47.02,47.02,50.97,50.97h-163.1l-9.04-9.3h-9.3s-404.64,0-404.64,0H49.15v-75.74c0-.74-.6-1.33-1.33-1.33h-23.37c-.69,0-1.27-.53-1.33-1.22l-13.11-157.95V110.02h116.33L222.2,14.14M222.2,0l-7.07,7.07-92.94,92.94H0v369.12l.03.41,13.11,157.95c.48,5.83,5.44,10.4,11.29,10.4h14.71v77.07h504.18s5.07,0,5.07,0l6.09,6.27,2.95,3.03h191.47l-17.07-17.07-43.9-43.9,39.95-39.95,2.93-2.93v-110.2l-2.93-2.93-83.98-83.98c3.88-7.78,5.93-15.37,6.1-22.64.25-10.73-3.69-20.68-11.39-28.77l-.09-.09-.09-.09-240.84-240.84-.14-.14-.14-.13c-7.67-7.1-16.62-10.7-26.59-10.7-7.16,0-14.83,1.93-22.89,5.74l-42.24-42.24L229.27,7.07l-7.07-7.07h0Z"/>
      <path class="cls-1" d="M10,110.02h116.33L222.2,14.14l76.33,76.33,47.47,47.47c17.47-10.31,32.52-11.12,44.53,0l240.84,240.84c12.29,12.92,10.72,29.4.1,46.23l1.33,1.33,88.02,88.02v101.92l-47.02,47.02,50.97,50.97h-163.1l-9.04-9.3h-9.3s-404.64,0-404.64,0H49.15v-75.74c0-.74-.6-1.33-1.33-1.33h-23.37c-.69,0-1.27-.53-1.33-1.22l-13.11-157.95V110.02Z"/>
    </g>
  </g>
  <g id="magazine">
    <polygon class="cls-3" points="80.88 590.3 80.88 479.82 16.89 481.24 33.72 590.3 80.38 590.3 80.88 590.3"/>
    <polyline class="cls-3" points="185.61 704.95 185.61 649.37 133.57 649.37 133.57 704.95"/>
    <polyline class="cls-3" points="288.42 273.87 239.44 228.36 244.49 223.57 236.98 216.45 246.07 207.83 225.55 188.37 162.18 248.48 127.34 244.17 127.34 274.34 10.19 274.34"/>
    <line class="cls-3" x1="80.38" y1="327.99" x2="17.18" y2="327.99"/>
    <line class="cls-3" x1="17.18" y1="363.43" x2="80.38" y2="363.43"/>
    <polyline class="cls-3" points="10.19 450.6 54.92 450.6 54.92 470.72 80.38 470.72 80.38 327.99 80.38 287.76 29.46 287.76 29.46 292.07 17.18 292.07 17.18 403.07"/>
    <line class="cls-3" x1="80.38" y1="533.94" x2="25.06" y2="533.94"/>
    <line class="cls-3" x1="52.12" y1="480.4" x2="52.12" y2="533.94"/>
    <polyline class="cls-3" points="214.7 704.95 214.7 649.61 284.38 649.61 502.26 649.61 550.61 603.35 661.26 714"/>
    <line class="cls-3" x1="293.31" y1="502" x2="322.82" y2="529.98"/>
    <polyline class="cls-3" points="316.23 536.23 324 543.6 331.65 536.35 345.58 549.57 364.37 531.75"/>
    <polyline class="cls-3" points="335.44 595.49 316.01 577.06 345.29 549.29"/>
    <polyline class="cls-3" points="316.01 577.06 287.91 550.4 265.1 528.76 272.71 521.54 301.96 549.77 323.16 529.66 342.67 511.16"/>
    <polyline class="cls-3" points="287.76 550.26 279.16 558.42 256.49 536.92"/>
    <path class="cls-3" d="M319.18,580.06l-8.08,7.67-3.03,2.87-.35.33,5.44,5.16c35.52.93,68.51-7.21,93.42-24.32l-64.5-61.18-27.91-26.47-1.07-.9-46.52,44.13-46.83,44.42c25.99,14.4,55.82,22.38,85.1,24.15l-13.02-12.84-15.02-14.24-3.72,3.52-4.32-4.1,10.39-9.85"/>
    <line class="cls-3" x1="231.16" y1="560.95" x2="259.7" y2="588.02"/>
    <polyline class="cls-3" points="346 137.94 387.73 179.67 288.42 273.87 387.64 367.98 338.16 414.92 168.75 254.23 209.84 215.25 276.49 278.48 284.85 270.55"/>
    <line class="cls-3" x1="499.95" y1="476.12" x2="449.67" y2="523.81"/>
    <line class="cls-3" x1="17.18" y1="402.3" x2="80.38" y2="402.3"/>
    <polyline class="cls-3" points="80.38 403.07 17.18 403.07 17.18 424.61"/>
    <line class="cls-3" x1="10.19" y1="424.61" x2="80.38" y2="424.61"/>
    <polyline class="cls-2" points="20.71 597.79 48.78 597.79 48.78 628.44"/>
    <polyline class="cls-3" points="214.7 649.61 198.37 649.61 198.37 671.04 214.7 671.04"/>
    <polyline class="cls-3" points="540.72 612.82 527.74 599.84 569.23 558.35 673.98 663.1"/>
    <polyline class="cls-3" points="527.74 599.84 513.91 586.01 531.4 568.53 545.23 582.35"/>
    <line class="cls-3" x1="440.87" y1="465.56" x2="475.05" y2="499.73"/>
    <line class="cls-3" x1="455.11" y1="479.79" x2="430.21" y2="504.69"/>
    <polyline class="cls-3" points="396.15 431.76 432.13 467.75 412.52 487.93 350.49 429.09 371.23 409.41 395.47 432.4 425.01 404.38 556.55 529.15 506.26 576.85 416.4 491.61 415.59 490.8 464.66 441.99"/>
    <line class="cls-3" x1="418.82" y1="454.43" x2="398.57" y2="474.67"/>
    <line class="cls-3" x1="400.33" y1="435.95" x2="379.58" y2="456.7"/>
    <line class="cls-3" x1="534.28" y1="618.98" x2="629.14" y2="713.83"/>
    <line class="cls-3" x1="607.76" y1="660.5" x2="591.78" y2="676.47"/>
    <polyline class="cls-3" points="432.86 649.67 432.86 673.4 463.06 673.4"/>
    <line class="cls-3" x1="269.27" y1="271.86" x2="229.3" y2="311.83"/>
    <line class="cls-3" x1="17.11" y1="382.56" x2="80.31" y2="382.56"/>
  </g>
  <g id="logo">
    <text class="cls-8" transform="translate(104.34 215.85) rotate(-43.49) skewX(3.02)"><tspan x="0" y="0">CINEMA CITY</tspan></text>
    <text class="cls-12" transform="translate(22.02 313.92) scale(1.05 1)"><tspan x="0" y="0">MESOPOTAMIA</tspan></text>
    <g>
      <path class="cls-7" d="M27.97,338.86v1.58h-.61v1.53h-1.84v-3.65c0-.69.22-1.25.67-1.7.45-.45,1.01-.67,1.69-.67.75,0,1.37.31,1.88.92l-1.51,1.05c-.08-.22-.23-.34-.45-.34-.28,0-.43.19-.43.56v.73h.61Z"/>
      <path class="cls-7" d="M32.37,339.02v1.55h-.53v1.4h-1.84v-3.74c0-.72.21-1.29.62-1.69.42-.4,1-.6,1.76-.6s1.26.18,1.61.55c.35.36.52.92.52,1.68v3.8h-1.84v-3.68c0-.23-.03-.39-.09-.48s-.16-.13-.31-.13c-.29,0-.43.2-.43.61v.73h.53Z"/>
      <path class="cls-7" d="M38.54,336.06v1.68c-.13-.04-.24-.06-.31-.06-.14,0-.26.05-.36.15-.1.1-.15.22-.15.35,0,.12.05.27.16.45l.14.23c.25.42.38.82.38,1.22,0,.57-.21,1.06-.64,1.45s-.95.59-1.57.59c-.3,0-.59-.06-.88-.19v-1.7c.18.11.33.16.47.16.16,0,.29-.04.4-.13.11-.09.16-.2.16-.33,0-.09-.09-.27-.26-.56-.28-.46-.41-.92-.41-1.38,0-.55.21-1.03.62-1.43.42-.4.91-.6,1.49-.6.25,0,.5.04.75.12Z"/>
      <path class="cls-7" d="M42.17,337.78v4.19h-1.84v-4.19h-1.41v-1.69h4.67v1.69h-1.41Z"/>
      <path class="cls-7" d="M48.92,338.86v1.58h-.61v1.53h-1.84v-3.65c0-.69.22-1.25.67-1.7.45-.45,1.01-.67,1.69-.67.75,0,1.37.31,1.88.92l-1.51,1.05c-.08-.22-.23-.34-.45-.34-.28,0-.43.19-.43.56v.73h.61Z"/>
      <path class="cls-7" d="M54.01,335.94c.88,0,1.63.3,2.26.91.63.61.94,1.33.94,2.18s-.32,1.59-.95,2.19c-.63.6-1.4.9-2.31.9s-1.67-.3-2.3-.9c-.64-.6-.95-1.33-.95-2.19s.32-1.59.96-2.19,1.42-.9,2.35-.9ZM53.96,337.67c-.38,0-.7.13-.97.4-.27.26-.4.58-.4.96s.13.69.4.96c.27.26.59.4.97.4s.7-.13.97-.39c.27-.26.4-.58.4-.96s-.13-.7-.4-.96c-.27-.26-.59-.39-.97-.39Z"/>
      <path class="cls-7" d="M61.02,335.94c.88,0,1.63.3,2.26.91.63.61.94,1.33.94,2.18s-.32,1.59-.95,2.19c-.63.6-1.4.9-2.31.9s-1.67-.3-2.3-.9c-.64-.6-.95-1.33-.95-2.19s.32-1.59.96-2.19,1.42-.9,2.35-.9ZM60.97,337.67c-.38,0-.7.13-.97.4-.27.26-.4.58-.4.96s.13.69.4.96c.27.26.59.4.97.4s.7-.13.97-.39c.27-.26.4-.58.4-.96s-.13-.7-.4-.96c-.27-.26-.59-.39-.97-.39Z"/>
      <path class="cls-7" d="M66.94,337.78v4.19h-1.84v-5.88h2.4c1.05,0,1.88.23,2.48.68.71.54,1.06,1.28,1.06,2.21s-.3,1.62-.91,2.18c-.61.56-1.39.84-2.34.84-.11,0-.3,0-.55-.02v-1.73h.3c1.08,0,1.61-.43,1.61-1.28,0-.8-.53-1.2-1.59-1.2h-.62Z"/>
      <path class="cls-7" d="M29.99,349.69l1.93.05c-.13.95-.47,1.68-1.04,2.2-.56.52-1.3.78-2.21.78s-1.7-.29-2.32-.88c-.62-.59-.93-1.32-.93-2.19s.32-1.61.95-2.21c.63-.6,1.42-.9,2.35-.9s1.68.29,2.29.88c.42.4.72.97.9,1.69l-1.98.12c-.22-.64-.64-.97-1.26-.97-.39,0-.72.13-.97.39-.26.26-.38.59-.38.99s.13.7.38.95.57.38.95.38.7-.11.93-.33c.23-.22.37-.54.41-.95Z"/>
      <path class="cls-7" d="M35.15,348.78v1.55h-.51v2.23h-1.84v-5.88h1.84v2.1h.51ZM37.31,346.68v5.88h-1.84v-5.88h1.84Z"/>
      <path class="cls-7" d="M40.4,346.68v5.88h-1.84v-5.88h1.84Z"/>
      <path class="cls-7" d="M41.51,352.56v-3.82c0-.67.21-1.21.63-1.61.42-.4.99-.6,1.69-.6s1.24.2,1.61.59c.37.39.56.95.56,1.69v3.76h-1.84v-3.76c0-.36-.14-.54-.4-.54s-.39.18-.39.54v3.76h-1.84Z"/>
      <path class="cls-7" d="M50.43,348.97v1.31h-1.2c-.16,0-.28.02-.35.07-.07.05-.1.12-.1.23,0,.12.03.2.1.24.07.04.21.06.43.06h1.24v1.68h-1.45c-.68,0-1.2-.15-1.56-.46-.36-.31-.54-.75-.54-1.34v-2.31c0-.56.17-1,.51-1.31.34-.31.82-.47,1.44-.47h1.6v1.69h-1.18c-.32,0-.48.1-.48.29,0,.12.04.19.11.24s.21.07.4.07h1.02Z"/>
      <path class="cls-7" d="M55.79,346.68l-1.93,4.19h1.9v1.69h-4.68l1.92-4.19h-2.03v-1.69h4.81Z"/>
      <path class="cls-7" d="M59.72,348.97v1.31h-1.2c-.16,0-.28.02-.35.07-.07.05-.1.12-.1.23,0,.12.03.2.1.24.07.04.21.06.43.06h1.24v1.68h-1.45c-.68,0-1.2-.15-1.56-.46-.36-.31-.54-.75-.54-1.34v-2.31c0-.56.17-1,.51-1.31.34-.31.82-.47,1.44-.47h1.6v1.69h-1.18c-.32,0-.48.1-.48.29,0,.12.04.19.11.24s.21.07.4.07h1.02Z"/>
      <path class="cls-7" d="M63.81,346.65v1.68c-.13-.04-.24-.06-.31-.06-.14,0-.26.05-.36.15-.1.1-.15.22-.15.35,0,.12.05.27.16.45l.14.23c.25.42.38.82.38,1.22,0,.57-.21,1.06-.64,1.45s-.95.59-1.57.59c-.3,0-.59-.06-.88-.19v-1.7c.18.11.33.16.47.16.16,0,.29-.04.4-.13.11-.09.16-.2.16-.33,0-.09-.09-.27-.26-.56-.28-.46-.41-.92-.41-1.38,0-.55.21-1.03.62-1.43.42-.4.91-.6,1.49-.6.25,0,.5.04.75.12Z"/>
      <path class="cls-7" d="M68.94,349.69l1.93.05c-.13.95-.47,1.68-1.04,2.2-.56.52-1.3.78-2.21.78s-1.7-.29-2.32-.88c-.62-.59-.93-1.32-.93-2.19s.32-1.61.95-2.21c.63-.6,1.42-.9,2.35-.9s1.68.29,2.29.88c.42.4.72.97.9,1.69l-1.98.12c-.22-.64-.64-.97-1.26-.97-.39,0-.72.13-.97.39-.26.26-.38.59-.38.99s.13.7.38.95.57.38.95.38.7-.11.93-.33c.23-.22.37-.54.41-.95Z"/>
    </g>
    <text class="cls-16" transform="translate(36.6 444.42) scale(1.05 1)"><tspan x="0" y="0">3F</tspan></text>
    <g>
      <path class="cls-7" d="M490.26,536.02c.1.1.27.32.51.64.26.35.39.57.42.66.01.08,0,.14-.06.2-.02.02-.07.06-.13.1-.21.16-.76.69-1.66,1.59-.2.2-.49.49-.88.87-.39.38-.68.67-.87.87-.08.08-.16.09-.23.02-.27-.27-.66-.69-1.17-1.27-.51-.57-.9-1-1.17-1.27s-.8-.77-1.59-1.49c-.2-.19-.5-.46-.91-.82l-.05-.05c-.06-.05-.06-.11.01-.18.19-.19.48-.47.86-.84.39-.37.68-.65.86-.83s.46-.47.83-.85c.37-.38.64-.67.83-.86.13-.13.26-.16.37-.09.07.04.26.19.56.45.31.25.49.41.55.47.05.05.05.1,0,.15-.02.02-.04.04-.08.08-.73.62-1.37,1.21-1.91,1.75-.13.13-.19.25-.16.34.02.04.1.14.26.3.16.16.3.25.4.25.09,0,.19-.06.32-.18.03-.03.07-.08.14-.15.07-.08.13-.14.18-.19.32-.32.64-.65.95-1,.03-.03.09-.11.19-.23.08-.1.14-.17.19-.22.06-.06.12-.06.17,0-.05-.05.11.16.49.62.17.21.35.42.55.61.05.05.04.11-.04.18l-.38.31c-.16.13-.5.46-1.02.97l-.4.41c-.1.1-.14.19-.11.25,0,.01.08.09.22.23.18.18.31.29.39.32.13.05.35-.06.65-.33,0,0,.18-.18.56-.56.14-.14.33-.35.57-.64s.43-.5.56-.63c.06-.06.13-.04.21.05Z"/>
      <path class="cls-7" d="M492.03,526.56c.28.28.68.7,1.21,1.28.53.58.93,1,1.21,1.28l2.39,2.39c.07.07.06.14-.01.21-.06.06-.15.16-.27.28s-.21.22-.27.28c-.07.07-.17.16-.31.29-.14.12-.25.22-.31.28-.05.05-.14.06-.28.04-.42-.05-1.35-.16-2.79-.32-.4-.05-1-.11-1.79-.19-.02,0-.06,0-.1.01,0,.04.01.07.05.11.28.28.71.69,1.29,1.24s1.01.96,1.29,1.24c.08.08.09.16.02.23l-1.32,1.32c-.07.07-.15.07-.22,0-.26-.26-.64-.67-1.14-1.22-.5-.55-.88-.96-1.14-1.22-.28-.28-.71-.68-1.28-1.21-.58-.53-1-.93-1.28-1.21-.05-.05-.03-.13.07-.23.15-.15.32-.34.52-.58.05-.06.13-.17.25-.35.11-.15.19-.26.27-.33.03-.03.12-.04.27-.02l3.28.43c.29.04.73.09,1.31.16.14.01.23,0,.28-.05.03-.03-.04-.14-.23-.33-.25-.25-.65-.62-1.19-1.1s-.94-.85-1.19-1.1c-.09-.09-.11-.16-.05-.21.15-.15.38-.39.67-.71s.52-.56.67-.71c.05-.05.11-.03.18.04Z"/>
      <path class="cls-7" d="M500.5,525.78c.1.1.27.32.51.64.26.35.39.57.42.66.01.08,0,.14-.06.2-.02.02-.07.06-.13.1-.21.16-.76.69-1.66,1.59-.2.2-.49.49-.88.87-.39.38-.68.67-.87.87-.08.08-.16.09-.23.02-.27-.27-.66-.69-1.17-1.27-.51-.57-.9-1-1.17-1.27s-.8-.77-1.59-1.49c-.2-.19-.5-.46-.91-.82l-.05-.05c-.06-.05-.06-.11.01-.18.19-.19.48-.47.86-.84.39-.37.68-.65.86-.83s.46-.47.83-.85c.37-.38.64-.67.83-.85.13-.13.26-.16.37-.09.07.04.26.19.56.45.31.25.49.41.55.47.05.05.05.1,0,.15-.02.02-.04.04-.08.08-.73.62-1.37,1.21-1.91,1.75-.13.13-.19.25-.16.34.02.04.1.14.26.3.16.16.3.25.4.25.09,0,.19-.06.32-.18.03-.03.07-.08.14-.15.07-.08.13-.14.18-.19.32-.32.64-.65.95-1,.03-.03.09-.11.19-.23.08-.1.14-.17.19-.22.06-.06.12-.06.17,0-.05-.05.11.16.49.62.17.21.35.42.55.61.05.05.04.11-.04.18l-.38.31c-.16.13-.5.46-1.02.97l-.4.41c-.1.1-.14.19-.11.25,0,.01.08.09.22.23.18.18.31.29.39.32.13.05.35-.06.65-.33,0,0,.18-.18.56-.56.14-.14.32-.35.57-.64.24-.29.43-.5.56-.63.06-.06.13-.04.21.05Z"/>
      <path class="cls-7" d="M506.65,521.81s0,.05-.04.11c-.08.11-.32.36-.71.75-.33.33-.57.55-.7.66-.06.05-.1.07-.11.08-.02,0-.06,0-.13-.02-.13-.06-.33-.14-.59-.25-.34-.14-.85-.34-1.53-.6-.14-.05-.3,0-.47.16.08-.07-.05.06-.39.4-.04.04,0,.12.13.24.16.16.43.39.78.69.36.29.62.52.78.69.04.04.05.08.04.11-.03.04-.07.08-.1.11-.14.16-.37.4-.69.72-.36.36-.59.58-.68.64-.09.06-.16.06-.22,0-.26-.27-.65-.68-1.16-1.24-.51-.56-.9-.98-1.17-1.25-1.02-1.02-1.84-1.79-2.46-2.32l-.05-.05s-.03-.11.04-.2.44-.5,1.12-1.21c.46-.48.83-.86,1.11-1.14.58-.58,1.18-.93,1.79-1.05.7-.13,1.31.06,1.84.59.35.35.58.69.68,1,.1.32.11.72.02,1.21-.02.1-.01.16.02.2,0,0,.46.14,1.38.44.92.3,1.41.48,1.47.54ZM501.79,520.17c-.29-.29-.6-.4-.92-.31-.25.07-.54.27-.87.61-.24.24-.33.41-.28.49.07.1.3.34.69.73.06.06.14.14.25.24.11.11.19.19.25.24.01.01.07-.02.16-.09.18-.13.35-.29.52-.46.56-.56.63-1.05.21-1.47Z"/>
      <path class="cls-7" d="M512.02,516.28c.07.06.07.13,0,.21-.05.05-.21.16-.5.34s-.46.28-.54.32c-.33.73-.74,1.34-1.23,1.83-.79.79-1.68,1.18-2.68,1.19-.99,0-1.86-.36-2.61-1.11s-1.16-1.64-1.18-2.63c-.02-1.02.37-1.93,1.16-2.73.39-.39.82-.68,1.3-.88.52-.21,1.03-.29,1.52-.22.1.01.16.03.19.06.08.08.14.36.18.86.04.5.03.78-.04.85-.02.01-.12.02-.32.03-.24,0-.46.04-.66.11-.29.09-.55.26-.79.49-.38.38-.55.82-.5,1.31.04.46.25.87.62,1.25.39.39.81.6,1.26.61.46.01.9-.19,1.31-.6.26-.26.49-.61.69-1.06-.09-.07-.31-.25-.68-.54-.28-.22-.5-.4-.66-.56-.04-.05-.06-.09-.03-.13,0-.02.03-.04.05-.07.07-.07.19-.18.35-.31.16-.14.28-.24.36-.32.08-.08.2-.21.35-.38.15-.17.27-.3.35-.38.06-.06.14-.06.22.02.12.12.28.3.5.55.22.25.39.43.5.55.31.31.8.75,1.47,1.32l.04.04Z"/>
      <path class="cls-7" d="M513.29,507.71c.1.1.17.21.21.33.29.96.5,2.07.61,3.34.02.18.07.32.15.4.13.13.33.31.6.55.27.24.47.42.6.55.04.04.06.08.05.11,0,0-.03.05-.08.12-.08.11-.3.34-.67.71-.37.37-.61.6-.73.69-.08.06-.15.06-.21,0-.13-.13-.31-.33-.55-.62s-.42-.49-.56-.62c-.08-.08-.19-.13-.34-.16-.72-.1-1.79-.3-3.22-.58-.15-.04-.26-.08-.32-.14-.15-.15-.37-.36-.68-.63-.3-.28-.53-.48-.67-.63-.08-.08-.09-.15-.04-.2.16-.15.4-.38.73-.69.33-.3.57-.53.73-.69.06-.06.11-.07.14-.03.12.12.3.31.54.57.24.26.42.45.54.57.07.07.37.14.88.21.4.05.73.08.96.09-.01-.22-.05-.53-.11-.94-.07-.51-.14-.79-.2-.85-.12-.12-.31-.29-.58-.52-.27-.23-.46-.4-.58-.52-.05-.05-.07-.09-.05-.12l.1-.1c.15-.15.38-.39.67-.71.29-.32.52-.56.67-.71.05-.05.13-.02.23.08.13.13.32.32.59.57.26.25.46.44.59.57Z"/>
      <path class="cls-7" d="M507.76,538.17c.1.1.12.22.06.34-.05.1-.24.31-.57.64-.31.31-.55.53-.72.65-.08.06-.14.09-.17.1s-.1,0-.19-.02c-.51-.14-1.02-.28-1.52-.42-.83-.22-1.29-.33-1.41-.32-.18.37-.25.57-.21.62.18.18.46.45.84.8.38.35.66.62.85.8.08.08.08.15.02.23-.11.15-.34.4-.69.75-.33.33-.56.54-.69.63-.09.06-.16.06-.22,0-.26-.26-.64-.67-1.14-1.22-.5-.55-.88-.96-1.14-1.22-.28-.28-.71-.69-1.3-1.22-.59-.54-1.02-.94-1.3-1.22-.05-.05-.05-.11,0-.16.08-.08.2-.19.37-.35s.29-.27.37-.35.2-.21.35-.37c.15-.17.27-.29.35-.37.04-.04.09-.04.13,0,.18.18.44.46.78.84.34.38.6.66.78.84.21.21.37.25.49.13.3-.3.46-.62.47-.94,0-.24-.08-.58-.26-1.01-.15-.31-.36-.79-.63-1.44-.03-.09,0-.18.08-.26.07-.07.17-.16.31-.29.14-.13.24-.22.31-.29s.17-.17.3-.31c.13-.14.23-.24.3-.31.06-.06.12-.06.18,0,.08.08.22.33.42.74.6,1.23.8,2.16.62,2.8-.04.13-.04.21-.01.24,0,0,.59.12,1.79.38s1.86.45,2,.59Z"/>
      <path class="cls-7" d="M507.28,533.71c.29.29.72.71,1.31,1.26.59.56,1.02.98,1.31,1.26.05.05.07.09.05.12,0,0-.03.04-.08.11-.15.18-.36.42-.64.69-.37.37-.62.6-.74.68-.09.06-.16.06-.22,0,.04.04-.16-.19-.6-.67-.93-1.02-1.55-1.69-1.86-2-.26-.26-.66-.64-1.19-1.13-.54-.5-.93-.88-1.19-1.14-.05-.05-.05-.11,0-.17.08-.08.2-.19.37-.35.17-.15.29-.27.37-.35s.19-.2.34-.36c.15-.16.26-.28.34-.36.07-.07.14-.08.19-.03.26.26.63.66,1.12,1.21.49.54.86.95,1.12,1.21Z"/>
      <path class="cls-7" d="M513.15,528.05c.71.71,1.08,1.57,1.12,2.57.04.89-.31,1.73-1.06,2.53-.14.15-.55.56-1.21,1.23-.12.12-.32.31-.57.55-.26.24-.45.43-.57.55-.07.07-.14.08-.19.03-.27-.27-.65-.67-1.16-1.23-.51-.55-.9-.96-1.17-1.23s-.71-.68-1.28-1.21c-.58-.53-1-.94-1.28-1.21-.05-.05-.04-.12.02-.2.16-.2.45-.51.86-.92.79-.78,1.3-1.28,1.56-1.49.66-.55,1.28-.87,1.85-.98.54-.1,1.1-.05,1.67.15.55.19,1.02.48,1.41.87ZM511.69,529.51c-.41-.41-.87-.61-1.39-.61-.53,0-1,.2-1.43.63-.39.39-.54.64-.44.74.14.14.36.36.64.65.28.29.49.51.63.65.14.14.35.35.64.62.29.28.5.49.64.63.1.1.36-.05.77-.46.44-.44.65-.93.62-1.46-.03-.5-.25-.96-.68-1.39Z"/>
      <path class="cls-7" d="M517.25,525.76c.49.49.69,1.13.61,1.91-.07.69-.34,1.35-.8,1.99-.02.02-.03.04-.05.05-.06.06-.36.02-.9-.12-.54-.14-.85-.24-.92-.32-.03-.03-.02-.06,0-.11.29-.45.46-.76.53-.94.14-.39.09-.71-.16-.96-.16-.16-.42-.25-.79-.26-.63-.03-.97-.05-1.04-.06-.43-.08-.79-.27-1.1-.57-.44-.44-.59-1.02-.46-1.75.11-.59.38-1.18.82-1.77.03-.03.05-.05.06-.07.04-.04.1-.04.18,0,.24.11.71.28,1.42.5.02,0,.04.01.05.02.04.04.04.08,0,.13-.02.02-.06.05-.11.09-.06.04-.1.07-.12.1-.18.18-.3.38-.36.6-.07.26-.03.47.14.63.15.15.42.24.82.27.71.06,1.08.1,1.12.1.45.09.8.26,1.06.52Z"/>
    </g>
    <text class="cls-5" transform="translate(290.13 675.77) scale(1.05 1)"><tspan x="0" y="0">GYM ONE</tspan></text>
    <text class="cls-14" transform="translate(597.22 624.91) rotate(45.64) skewX(3.02)"><tspan x="0" y="0">MAGNUM</tspan></text>
    <text class="cls-11" transform="translate(228.81 570.92) rotate(26.28) scale(1.03 1) skewX(-2.4)"><tspan x="0" y="0">DELIZIOSO</tspan></text>
    <g>
      <path class="cls-7" d="M270.43,545.14s.06.07.08.12.03.1.03.17c0,.06-.01.13-.04.2-.03.07-.08.13-.15.2-.05.05-.1.09-.15.12-.05.03-.1.05-.16.06-.05.01-.11.02-.17.01-.06,0-.11-.02-.17-.04-.06-.02-.11-.04-.16-.08-.05-.03-.1-.07-.15-.12-.08-.07-.14-.15-.18-.23-.04-.08-.06-.16-.06-.24,0-.08.01-.16.05-.23.03-.08.08-.14.15-.2.08-.07.16-.13.26-.15.09-.03.18-.04.26-.02.08.01.14.04.18.08.02.02.04.05.04.08,0,.03,0,.06-.03.08-.02.02-.05.04-.07.04-.02,0-.06,0-.1-.02-.07-.02-.14-.03-.2-.02-.06.01-.11.04-.16.09-.08.08-.11.17-.1.27.01.1.08.21.19.31.08.07.15.12.22.15s.14.03.2.02c.06-.01.12-.04.17-.09.06-.05.09-.11.1-.17.01-.06,0-.13-.04-.2-.02-.03-.03-.06-.03-.09,0-.03,0-.05.04-.08.02-.02.05-.03.08-.03.03,0,.06,0,.09.03Z"/>
      <path class="cls-7" d="M270.76,544.62l-.07.06.31.29s.06.08.06.11c0,.04-.01.07-.04.09-.03.03-.06.04-.1.04-.04,0-.08-.02-.12-.06l-.74-.7s-.06-.08-.06-.11c0-.04.02-.07.06-.11l.32-.3s.08-.08.12-.1c.04-.03.07-.05.11-.06.04-.02.09-.02.13-.02.05,0,.09,0,.14.03.04.02.08.04.12.08.07.07.11.14.11.22,0,.08-.03.17-.09.26.05-.02.11-.02.18-.02.07,0,.13.01.2.03.06.01.12.03.17.05.05.02.07.03.09.04.01.01.02.03.03.05,0,.02,0,.04,0,.06,0,.02-.02.04-.04.06-.02.02-.05.03-.07.04-.02,0-.05,0-.08,0-.03,0-.06-.01-.11-.02l-.21-.05c-.08-.02-.14-.03-.18-.03s-.09,0-.12.02c-.03.01-.07.04-.1.07ZM270.47,544.13l-.18.17.27.25.17-.17s.08-.08.11-.12c.02-.04.04-.08.03-.11,0-.03-.02-.07-.05-.1-.03-.03-.06-.04-.09-.05-.03,0-.07,0-.1.01-.03.01-.08.05-.15.11Z"/>
      <path class="cls-7" d="M272.39,543.66l-.17-.07-.39.37.08.16c.03.06.05.11.05.13,0,.03,0,.06-.04.08-.02.02-.05.04-.09.04-.04,0-.07,0-.09-.03-.01-.01-.02-.03-.03-.04,0-.02-.02-.04-.04-.08l-.38-.83s-.02-.05-.04-.09-.03-.06-.03-.09,0-.05,0-.08c0-.03.02-.05.05-.08.03-.03.06-.04.08-.05.03,0,.06,0,.08,0,.03,0,.05.01.08.02.03,0,.06.02.1.04l.87.35c.07.03.11.05.13.07.02.02.03.05.03.08,0,.04-.01.07-.04.09-.02.01-.03.02-.05.03-.02,0-.03,0-.05,0-.02,0-.04,0-.07-.02-.03-.01-.05-.02-.07-.03ZM271.73,543.77l.29-.27-.54-.24.25.51Z"/>
      <path class="cls-7" d="M272.6,543.24l-.1-1.03-.43.4s-.06.04-.09.05c-.03,0-.05,0-.08-.03-.02-.02-.03-.05-.03-.07,0-.03.02-.06.05-.08l.55-.52c.07-.07.14-.07.21,0,.03.03.05.06.06.09,0,.03.01.08.02.15l.09.96.51-.48s.06-.04.09-.05c.03,0,.05,0,.07.03.02.02.03.05.03.07,0,.03-.02.05-.05.08l-.63.59s-.08.06-.12.06c-.04,0-.08-.01-.11-.04-.01-.01-.02-.02-.02-.03,0-.01,0-.02-.01-.04,0-.01,0-.03,0-.05,0-.02,0-.04,0-.06Z"/>
      <path class="cls-7" d="M273.83,542.3l-.3-.29-.6-.12c-.05-.01-.09-.02-.12-.03-.03,0-.05-.02-.06-.03-.02-.02-.03-.05-.03-.08,0-.03.01-.06.04-.08.03-.03.05-.04.08-.04.03,0,.08,0,.15.03l.47.11-.11-.45s-.01-.05-.02-.07,0-.04,0-.06c0-.02,0-.04,0-.05,0-.02.02-.03.03-.05.02-.02.05-.04.09-.04.03,0,.06,0,.08.03.02.02.03.04.04.06,0,.02.02.06.03.11l.13.58.3.29s.06.08.06.11c0,.04-.01.07-.04.1s-.06.04-.1.04c-.04,0-.08-.02-.12-.06Z"/>
      <path class="cls-7" d="M271.47,547.8l-.29.28s-.08.06-.12.06c-.04,0-.08-.02-.12-.06l-.72-.69s-.06-.08-.06-.11.02-.07.06-.11l.31-.3s.09-.08.13-.11c.04-.03.08-.04.12-.05.04,0,.07-.01.11,0,.04,0,.07.01.11.03.03.01.07.04.09.06.1.09.12.2.07.34.17-.08.31-.07.43.04.05.05.09.11.1.18.02.07.01.13-.02.2-.02.04-.04.08-.07.12-.03.04-.07.09-.13.13ZM270.43,547.23l.25.24.18-.17s.08-.09.1-.12c.02-.03.02-.07,0-.11,0-.03-.02-.05-.05-.07-.05-.05-.1-.06-.15-.04-.05.02-.11.06-.18.13l-.16.15ZM271.03,547.41l-.2.19.28.27.21-.2c.13-.12.15-.23.06-.32-.05-.05-.1-.06-.16-.05-.06.01-.12.05-.19.11Z"/>
      <path class="cls-7" d="M271.58,546.94l-.46-.44s-.06-.07-.06-.11c0-.04.01-.07.04-.09.03-.03.06-.04.1-.04.04,0,.08.02.12.06l.47.45c.05.05.1.09.15.11.05.02.1.03.15.02s.1-.04.16-.09c.08-.07.11-.14.1-.21,0-.07-.06-.14-.14-.22l-.48-.45s-.06-.07-.06-.11c0-.04.01-.07.04-.09.03-.03.06-.04.1-.04.04,0,.08.02.12.06l.46.44c.08.07.13.14.17.2.04.06.05.13.05.2,0,.06-.02.13-.05.18-.03.06-.08.12-.14.17-.07.07-.15.12-.21.16-.07.04-.14.05-.21.05-.07,0-.13-.02-.2-.05-.07-.04-.14-.09-.21-.16Z"/>
      <path class="cls-7" d="M273.41,545.96l-.29.28s-.08.06-.12.06c-.04,0-.08-.02-.12-.06l-.72-.69s-.06-.08-.06-.11.02-.07.06-.11l.31-.3s.09-.08.13-.11c.04-.03.08-.04.12-.05.04,0,.07-.01.11,0,.04,0,.07.01.11.03.03.02.07.04.09.06.1.09.12.2.07.34.17-.08.31-.07.43.04.05.05.09.11.1.18.02.07.01.13-.02.2-.02.04-.04.08-.07.12-.03.04-.08.09-.13.13ZM272.37,545.39l.25.24.18-.17s.08-.09.1-.12c.02-.03.02-.07,0-.11,0-.03-.02-.05-.04-.07-.05-.05-.1-.06-.15-.04-.05.02-.11.06-.18.13l-.16.15ZM272.97,545.57l-.2.19.28.27.21-.2c.13-.13.15-.23.06-.32-.05-.05-.1-.06-.16-.05-.06.01-.12.05-.19.11Z"/>
      <path class="cls-7" d="M274.38,545.04l-.29.28s-.08.06-.12.06c-.04,0-.08-.02-.12-.06l-.72-.69s-.06-.08-.06-.11c0-.04.02-.07.06-.11l.31-.3s.09-.08.13-.11c.04-.03.08-.04.12-.05.04,0,.07-.01.11,0,.04,0,.07.01.11.03.03.02.07.04.09.06.1.09.12.21.07.34.17-.08.31-.07.43.04.05.05.09.11.1.18.02.07.01.13-.02.2-.02.04-.04.08-.08.12-.03.04-.07.09-.13.13ZM273.34,544.47l.25.24.18-.17s.08-.09.1-.12c.02-.03.02-.07,0-.11,0-.03-.02-.05-.04-.07-.05-.05-.1-.06-.15-.04-.05.02-.11.06-.18.13l-.16.15ZM273.93,544.65l-.2.19.28.27.21-.2c.13-.12.15-.23.06-.32-.05-.05-.1-.06-.16-.05-.06.01-.12.05-.19.11Z"/>
      <path class="cls-7" d="M274.26,543.51l.7.67.4-.38s.06-.05.1-.05c.03,0,.06,0,.08.03s.03.05.03.08-.02.06-.05.09l-.47.45s-.08.06-.12.06-.08-.02-.12-.06l-.74-.7s-.06-.07-.06-.11c0-.04.01-.07.04-.09.03-.03.06-.04.1-.04.04,0,.08.02.12.06Z"/>
      <path class="cls-7" d="M275.57,542.37l-.44.42.24.22.41-.38s.06-.04.09-.04c.03,0,.05,0,.08.03.02.02.03.04.03.07,0,.03-.02.05-.05.08l-.41.38.27.26.46-.43s.06-.04.09-.05c.03,0,.06,0,.08.03s.03.05.03.08c0,.03-.02.06-.05.09l-.53.5s-.08.06-.12.06c-.04,0-.08-.02-.12-.06l-.72-.69s-.05-.05-.06-.08c0-.02,0-.05,0-.07,0-.02.03-.05.06-.08l.52-.49s.06-.05.09-.05c.03,0,.05,0,.08.03.02.02.03.05.03.07,0,.03-.02.06-.05.09Z"/>
    </g>
    <text class="cls-6" transform="translate(293.06 528.83) rotate(-43.49) skewX(3.02)"><tspan x="0" y="0">BON</tspan><tspan x="-1.5" y="6.48">PAPA</tspan></text>
    <g>
      <path class="cls-7" d="M312.08,508.58s.04.06.04.12c.05.53-.14,1-.56,1.4-.43.41-.93.6-1.5.58-.55-.02-1.04-.24-1.47-.65-.42-.4-.65-.86-.69-1.38-.04-.55.15-1.01.56-1.41.45-.43.94-.63,1.47-.61.06,0,.1.01.12.04.03.03.08.16.15.42.07.25.11.4.1.44,0,.02,0,.04-.02.06,0,0-.07.01-.19.02-.14,0-.27.03-.38.06-.17.05-.31.13-.42.24-.2.19-.29.42-.26.68.03.24.15.46.36.66.21.2.44.31.7.34.28.03.52-.05.72-.24.12-.12.21-.25.26-.4.04-.1.06-.21.07-.34,0-.11.02-.17.02-.17.01-.01.04-.02.06-.02.05,0,.19.03.44.08.26.05.39.08.4.1Z"/>
      <path class="cls-7" d="M315.23,506.44s0,.03-.02.06c-.04.06-.17.19-.38.39-.18.17-.31.29-.38.34-.03.03-.06.04-.06.04-.01,0-.04,0-.07-.01-.08-.03-.19-.08-.33-.14-.19-.08-.48-.19-.87-.34-.08-.03-.17,0-.26.08.04-.04-.03.03-.21.21-.02.02,0,.06.07.13.09.09.24.21.45.38.2.16.35.29.45.38.02.02.03.04.02.06-.02.02-.04.04-.05.06-.08.08-.2.21-.37.37-.2.19-.32.3-.37.33-.05.03-.09.03-.12,0-.15-.14-.38-.37-.67-.68-.29-.31-.52-.53-.67-.68-.59-.56-1.06-.98-1.41-1.26l-.03-.03s-.02-.06.02-.11c.04-.05.24-.26.61-.63.25-.25.45-.45.61-.59.32-.3.65-.48.99-.53.39-.06.73.05,1.04.34.2.19.33.37.4.54.06.17.07.38.03.64,0,.05,0,.09.01.1,0,0,.26.08.78.25.52.17.8.27.83.31ZM312.49,505.5c-.17-.16-.34-.22-.52-.18-.14.03-.3.14-.48.31-.13.12-.18.21-.15.26.04.05.17.19.4.4.03.03.08.07.14.13.06.06.11.1.14.13,0,0,.04,0,.09-.04.1-.07.19-.15.29-.23.3-.29.33-.55.09-.78Z"/>
      <path class="cls-7" d="M314.8,503.98c.16.16.41.38.75.69.34.3.59.53.75.69.03.03.04.05.03.07,0,0-.02.02-.05.06-.08.1-.19.22-.35.36-.2.19-.34.31-.4.35-.05.03-.09.03-.12,0,.02.02-.09-.1-.35-.37-.54-.56-.89-.92-1.07-1.08-.15-.14-.38-.35-.68-.62s-.53-.48-.68-.62c-.03-.03-.03-.06,0-.09.04-.04.11-.1.2-.18.09-.08.16-.14.2-.18.04-.04.1-.1.18-.19.08-.08.14-.14.19-.19.04-.04.08-.04.11-.01.15.14.36.36.64.66.28.3.5.51.64.66Z"/>
      <path class="cls-7" d="M317.22,502.78c.28.27.4.61.37,1.02-.03.37-.17.71-.42,1.04-.01.01-.02.02-.02.03-.03.03-.2,0-.51-.08-.3-.08-.48-.14-.52-.18-.02-.01-.02-.03,0-.06.15-.23.25-.4.28-.49.07-.21.04-.37-.1-.51-.09-.09-.24-.14-.44-.15-.35-.02-.55-.04-.58-.04-.24-.05-.45-.15-.62-.32-.25-.24-.35-.55-.28-.93.05-.31.2-.62.43-.93.01-.02.02-.03.03-.04.02-.02.05-.02.1,0,.14.06.4.16.8.28.01,0,.02,0,.03.01.02.02.02.05,0,.07-.01.01-.03.03-.06.05-.03.02-.05.04-.07.05-.1.09-.16.2-.19.31-.04.14,0,.25.09.34.08.08.24.13.46.15.4.04.61.07.62.07.25.05.45.15.6.29Z"/>
      <path class="cls-7" d="M319.21,499.28c.34.32.52.66.55,1.02.03.39-.12.74-.45,1.05-.06.05-.14.13-.26.23-.12.1-.2.18-.26.23-.06.06-.06.11-.01.16.06.06.17.15.31.25.14.11.24.19.3.25.03.03.03.06,0,.09-.08.08-.21.2-.39.35-.17.16-.3.27-.39.35-.04.04-.08.04-.12,0-.15-.15-.38-.37-.69-.67-.3-.3-.53-.52-.69-.67-.43-.41-.91-.83-1.43-1.25l-.03-.03s-.02-.06.01-.1c.09-.12.33-.35.7-.7.22-.21.43-.4.63-.59.34-.3.71-.46,1.1-.46.41,0,.78.15,1.1.46ZM318.41,500.1c-.32-.31-.64-.31-.96-.01-.22.21-.33.33-.31.37,0,.03.16.18.47.47.04.04.11.1.2.18.09.08.15.14.2.18.03.03.17-.08.42-.32.3-.29.3-.57,0-.86Z"/>
      <path class="cls-7" d="M321.52,496.41c.06.06.1.12.12.18.18.51.31,1.11.39,1.78.01.1.04.17.09.21.07.07.19.17.34.3.15.13.27.23.34.3.02.02.03.04.03.06,0,0-.02.03-.05.06-.04.06-.16.18-.36.37-.2.19-.33.31-.4.35-.04.03-.08.03-.12,0-.07-.07-.18-.18-.32-.34-.14-.16-.25-.27-.32-.34-.04-.04-.11-.07-.19-.09-.41-.07-1.01-.18-1.81-.35-.09-.02-.15-.05-.18-.08-.08-.08-.21-.19-.39-.34-.17-.15-.3-.26-.39-.34-.05-.04-.05-.08-.03-.1.08-.08.22-.2.39-.36.18-.16.31-.27.4-.36.03-.03.06-.04.08-.02.07.07.17.17.31.31.14.14.24.25.31.31.04.04.21.08.5.12.23.03.41.05.54.06,0-.12-.03-.28-.07-.5-.05-.27-.09-.42-.12-.46-.07-.07-.18-.16-.33-.28-.15-.12-.26-.22-.33-.28-.03-.03-.04-.05-.03-.06l.05-.05c.08-.08.2-.2.36-.37.16-.17.28-.29.37-.37.03-.03.07-.01.13.04.07.07.19.17.34.31s.26.24.34.31Z"/>
      <path class="cls-7" d="M318.15,513.29s.04.05.03.07c0,0-.02.03-.05.07-.08.09-.19.21-.35.35-.22.21-.35.32-.4.35-.05.03-.08.03-.11,0-.11-.1-.27-.26-.48-.48-.21-.22-.37-.38-.48-.48-.05-.05-.1-.07-.14-.04-.06.03-.23.19-.52.46-.29.27-.45.44-.49.5-.02.04,0,.08.05.13.11.1.27.25.5.45.22.2.39.35.5.45.04.04.05.08.02.12-.04.05-.16.18-.38.38-.19.18-.31.29-.37.33-.05.03-.09.03-.12,0-.15-.14-.37-.36-.66-.66s-.51-.52-.66-.67c-.16-.15-.41-.38-.75-.67-.34-.29-.59-.51-.75-.67-.03-.03-.03-.06,0-.08.04-.04.11-.1.2-.18.09-.08.16-.14.2-.18.04-.04.11-.11.19-.2s.15-.15.19-.2c.02-.02.05-.02.07,0,.1.1.25.25.44.46.19.21.34.37.44.46.05.04.09.06.12.04.05-.02.23-.19.55-.49.3-.28.46-.45.5-.5.02-.04.01-.08-.04-.13-.1-.09-.26-.23-.47-.42s-.37-.32-.47-.42c-.04-.04-.05-.08-.01-.11.04-.04.1-.09.19-.17s.15-.13.19-.17c.04-.04.1-.1.18-.18s.14-.14.18-.18c.04-.04.08-.04.11-.01.16.15.39.39.7.7.31.32.54.55.7.71.15.14.38.35.7.62.32.27.55.48.7.62Z"/>
      <path class="cls-7" d="M320.03,508.86c.43.41.66.88.67,1.42.02.55-.19,1.03-.62,1.44-.43.41-.94.6-1.52.58-.57-.01-1.07-.22-1.5-.63-.43-.41-.66-.88-.67-1.43-.02-.55.19-1.03.62-1.44.43-.4.93-.6,1.52-.58.58.02,1.08.23,1.51.64ZM319.24,509.6c-.21-.2-.45-.3-.72-.32-.28-.02-.53.07-.73.26-.2.19-.28.42-.26.7.02.27.13.5.33.69.21.2.45.31.71.33.28.02.52-.07.73-.27.2-.19.28-.42.26-.7-.02-.27-.13-.49-.33-.68Z"/>
      <path class="cls-7" d="M323.26,506.62c.35.34.55.6.6.81.08.37-.19.85-.81,1.44-.28.27-.52.45-.71.55-.31.16-.6.19-.87.07-.13-.06-.32-.2-.57-.43-.06-.05-.14-.14-.25-.25-.11-.11-.19-.19-.24-.24-.16-.15-.41-.38-.75-.67-.34-.29-.59-.51-.74-.66-.03-.03-.04-.06,0-.09.08-.08.22-.2.39-.35.18-.16.31-.27.39-.35.03-.03.07-.04.1,0,.18.17.45.44.81.8.35.36.62.62.8.8.22.21.39.32.51.35.16.04.34-.03.54-.22.28-.27.29-.54.01-.8-.2-.19-.51-.47-.92-.84s-.72-.65-.92-.84c-.04-.04-.05-.08-.01-.11.08-.08.2-.2.36-.36.16-.16.28-.28.36-.36.04-.04.08-.04.11,0,.16.15.39.39.7.7.31.32.54.55.71.71.04.04.11.11.2.19.09.08.16.15.2.19Z"/>
      <path class="cls-7" d="M325.15,504.95c.28.27.4.61.37,1.02-.03.37-.17.71-.42,1.04,0,.01-.02.02-.02.03-.03.03-.2,0-.5-.08-.31-.08-.48-.14-.52-.18-.02-.01-.02-.03,0-.06.16-.23.25-.4.28-.49.07-.21.04-.38-.1-.51-.09-.09-.24-.14-.44-.15-.35-.02-.55-.04-.58-.04-.24-.05-.45-.15-.62-.32-.25-.24-.35-.55-.28-.93.05-.31.2-.62.43-.93.01-.02.03-.03.03-.04.02-.02.05-.02.1,0,.14.06.4.16.8.28.01,0,.02,0,.03.01.02.02.02.04,0,.07-.01.01-.03.03-.06.05-.03.02-.05.04-.07.05-.1.09-.16.2-.19.31-.04.14,0,.25.09.34.08.08.24.13.46.15.4.04.61.07.63.07.25.05.45.15.6.29Z"/>
      <path class="cls-7" d="M327.94,502.9c.06.06.16.17.29.35.15.19.23.31.24.36,0,.04,0,.08-.03.1-.01.01-.04.03-.07.05-.11.08-.42.36-.91.82-.11.1-.27.25-.48.45-.21.2-.37.35-.48.45-.05.04-.09.05-.13,0-.16-.15-.38-.38-.67-.69-.29-.31-.52-.54-.67-.69-.16-.15-.46-.42-.91-.81-.12-.1-.29-.25-.52-.45l-.03-.03s-.03-.06,0-.09c.1-.1.26-.24.47-.43.21-.19.37-.33.47-.43.1-.1.25-.24.45-.44.2-.2.35-.35.45-.44.07-.07.14-.08.21-.04.04.02.15.11.32.25.18.14.28.22.32.26.03.03.03.05,0,.08,0,0-.02.02-.05.04-.4.32-.75.62-1.04.9-.07.07-.1.13-.08.18,0,.02.06.08.15.16.09.09.17.13.23.14.05,0,.11-.03.18-.09.01-.01.04-.04.08-.08.04-.04.07-.07.1-.1.17-.17.35-.34.52-.52.01-.01.05-.05.1-.12.04-.05.08-.09.1-.12.03-.03.07-.03.1,0-.03-.03.06.08.28.34.1.12.21.23.32.33.03.03.02.06-.02.1l-.21.16c-.09.07-.27.23-.55.5l-.22.21c-.06.05-.08.1-.06.13,0,0,.05.05.13.12.11.1.18.16.22.17.08.03.2-.03.36-.16,0,0,.1-.09.3-.29.07-.07.18-.18.31-.33.13-.15.23-.26.3-.33.03-.03.07-.02.12.03Z"/>
    </g>
    <path class="cls-4" d="M47.64,501.39c0-1.19-1.02-2.15-2.27-2.15h-14.8c-1.25,0-2.27.96-2.27,2.15v14.04c0,1.19,1.02,2.15,2.27,2.15h14.8c1.25,0,2.27-.96,2.27-2.15v-14.04ZM42.19,501.96c.63,0,1.13.48,1.13,1.07s-.51,1.07-1.13,1.07-1.13-.48-1.13-1.07.5-1.07,1.13-1.07ZM33.46,501.96c.63,0,1.13.48,1.13,1.07s-.51,1.07-1.13,1.07-1.13-.48-1.13-1.07.51-1.07,1.13-1.07ZM35.72,505.03l-.31,3.59c-.02.23-.17.42-.4.5h0c-.23.09-.38.29-.4.52l-.3,4.66c-.02.31-.3.56-.63.56h-.42c-.33,0-.61-.25-.63-.56l-.3-4.66c-.01-.23-.17-.44-.4-.52-.23-.08-.38-.28-.4-.51l-.31-3.59c-.02-.29.18-.57.49-.63l.31-.06c.21-.04.42.01.58.16l.43.42c.24.23.64.23.89,0l.44-.42c.15-.14.37-.2.57-.16l.31.06c.28.07.49.34.47.64ZM38.13,514.85c0,.16-.14.29-.3.29s-.31-.13-.31-.29v-12.89c0-.16.14-.29.31-.29s.3.13.3.29v12.89ZM44.4,509.12c-.21.05-.35.24-.32.45l.13.92c.03.22-.13.43-.35.45l-.29.03c-.2.03-.35.19-.36.37l-.19,2.95c-.02.32-.3.56-.63.56h-.42c-.33,0-.61-.24-.63-.56l-.19-2.95c-.01-.19-.17-.34-.36-.37l-.29-.03c-.22-.03-.39-.24-.35-.45l.13-.92c.03-.2-.1-.39-.32-.45-.22-.05-.35-.26-.31-.47l.85-3.84c.06-.27.39-.41.64-.25l.8.49c.13.09.31.09.46,0l.8-.49c.25-.15.58-.02.64.25l.86,3.84c.04.21-.1.42-.32.47Z"/>
    <path class="cls-4" d="M430.06,422.11c-.84-.84-2.24-.8-3.12.08l-10.47,10.47c-.89.89-.92,2.28-.08,3.12l9.93,9.93c.84.84,2.24.8,3.12-.08l10.47-10.47c.88-.88.92-2.28.08-3.12l-9.93-9.93ZM426.6,426.37c.44-.44,1.14-.46,1.56-.04s.4,1.12-.04,1.56-1.14.46-1.56.04-.4-1.11.04-1.56ZM420.43,432.54c.44-.44,1.14-.46,1.56-.04s.4,1.12-.04,1.56-1.14.46-1.56.04-.4-1.12.04-1.56ZM424.2,433.12l2.32,2.76c.15.18.17.42.07.64h0c-.1.22-.07.47.09.64l3.08,3.5c.21.24.19.6-.05.84l-.15.15-.15.15c-.23.23-.6.25-.84.05l-3.5-3.08c-.17-.15-.43-.19-.64-.09-.22.11-.47.07-.64-.07l-2.76-2.32c-.22-.19-.27-.53-.1-.79l.17-.26c.12-.18.31-.29.52-.3h.6c.33-.02.62-.3.63-.64l.02-.6c0-.21.12-.4.29-.52l.27-.18c.25-.15.59-.1.78.12ZM432.85,438.36c.11.11.1.3-.01.42s-.31.13-.42.01l-9.12-9.12c-.11-.11-.1-.3.01-.42s.3-.12.42-.01l9.12,9.12ZM433.23,429.87c-.12.19-.07.42.09.54l.75.56c.18.13.21.39.07.57l-.18.23c-.12.16-.11.38.01.52l1.95,2.22c.21.24.18.6-.05.84l-.15.15-.15.15c-.23.23-.6.26-.84.05l-2.22-1.95c-.15-.13-.36-.13-.52-.01l-.23.18c-.18.14-.44.11-.57-.07l-.56-.75c-.12-.17-.35-.21-.54-.09-.19.12-.43.07-.55-.12l-2.11-3.32c-.15-.23-.01-.57.27-.63l.91-.22c.15-.03.28-.16.33-.33l.22-.91c.07-.28.4-.42.63-.28l3.32,2.11c.17.12.22.36.11.56Z"/>
    <g>
      <polygon class="cls-4" points="439.65 363.65 446.58 365.36 443.64 368.26 436.71 366.56 434.64 360.05 437.58 357.15 439.65 363.65"/>
      <polygon class="cls-4" points="443.68 359.68 450.61 361.38 447.67 364.29 440.74 362.58 438.66 356.08 441.6 353.18 443.68 359.68"/>
      <polygon class="cls-4" points="447.7 355.71 454.64 357.41 451.7 360.31 444.76 358.61 442.7 352.1 445.64 349.2 447.7 355.71"/>
    </g>
    <path class="cls-4" d="M175.72,370.98c-.44.06-2.13.48-3.75.89-11.78,3.08-21.34,12.64-24.71,24.68-1.02,3.65-1.4,10.89-.76,14.8,1.72,10.74,8.51,20.3,18.1,25.41,3.97,2.13,11.12,4.35,11.12,3.46s-3.87-21.12-4.19-21.91c-.19-.48-1.75-2.19-3.49-3.81-3.59-3.3-4.48-4.61-5.18-7.59-.57-2.51-3.33-19.6-3.33-20.71,0-.83,1.08-1.46,1.62-.92.16.16,1.27,4.64,2.45,9.97,2,8.99,2.19,9.66,2.86,9.75.38.06.76-.09.86-.32.1-.22-.83-4.76-2.03-10.1-1.21-5.34-2.13-9.78-2.03-9.94.06-.13.51-.22.98-.22h.89l2.19,9.91c2.26,10.13,2.45,10.58,3.65,9.81.38-.25.13-1.78-1.71-10-1.21-5.34-2.1-9.94-1.97-10.19.1-.25.51-.48.92-.48.7,0,.83.29,2.13,6.1,3.24,14.55,3.02,13.75,3.75,13.85.38.06.76-.09.86-.32.1-.22-.83-4.76-2.03-10.1-2-8.83-2.13-9.72-1.68-10.1,1.21-.92,1.4-.45,4.57,10.58,2.95,10.16,3.11,10.93,2.99,13.18-.1,1.97-.35,2.95-1.59,5.72-1.02,2.35-1.46,3.78-1.46,4.76,0,1.68,5.88,22.33,6.16,21.6.1-.25.83-3.59,1.62-7.37l1.46-6.89-.54-1.62c-.57-1.78-.54-3.27.38-12.07.6-6.03,1.65-11.12,3.62-17.69,2.1-6.99,4.19-11.24,6.8-13.91,3.3-3.37,5.27-3.08,5.27.76,0,2.67-7.78,43.1-8.61,44.66-.41.79-1.05,3.59-1.75,7.62-.6,3.49-1.17,6.73-1.27,7.21l-.16.86,1.68-.48c6.73-1.94,11.81-4.99,16.52-9.91,6.29-6.57,9.5-14.64,9.53-23.88.03-9.88-3.49-18.45-10.42-25.28-4.86-4.83-11.37-8.23-18.17-9.53-2.16-.41-10.13-.57-12.13-.22h0ZM175.72,370.98"/>
    <g>
      <g>
        <path d="M255.26,556.3c-.23.23-.46.47-.7.7-.19.18-.12.27.08.35.47.19.93.22,1.35-.11.27-.21.45-.17.7.06.83.75,1.77,1.35,2.82,1.78.08.03.2.05.2.14,0,.11-.12.12-.19.16-1.04.54-2.07,1.09-3,1.82-.79.63-1.44,1.39-2.01,2.23-.25.37-.26.38-.51.03-.69-.95-1.63-1.6-2.58-2.26-2.34-1.64-1.79-4.27-.57-5.62.64-.71,1.54-.96,2.48-1.02,1.59-.09,3.1.26,4.57.8.12.04.36.03.25.28-.13.31-.35.45-.57.36-.35-.15-.71-.32-1.05-.5-.24-.13-.43-.1-.61.11-.21.24-.45.46-.68.68,0,0,0,0,0,0Z"/>
        <path d="M251.59,565.54c-.14-.24-.2-.51-.37-.73-.28-.36-.6-.64-1.02-.82-1.24-.53-2.39-1.21-3.35-2.16-1.95-1.95-2.42-4.68-1.24-7.17.54-1.15,1.28-2.16,2.15-3.08.74-.79,1.53-1.52,2.38-2.2.23-.19.34-.17.44.12.25.72.51,1.44.78,2.15.1.26.04.41-.21.53-1.09.5-1.99,1.25-2.8,2.13-1.42,1.54-1.83,4.13-.89,5.87.45.83,1.17,1.39,1.9,1.96.57.44,1.15.85,1.59,1.44.43.59.63,1.25.66,1.97Z"/>
        <path d="M248.94,554.08c.15-.15.3-.3.45-.44.11-.11.21-.08.23.07.09.6.46,1.04.82,1.49.11.13.12.24.01.38-.77,1.07-1.03,2.25-.83,3.55.02.16-.02.22-.18.24-.57.06-1.06.28-1.45.71-.17.19-.26.04-.34-.1-.39-.69-.52-1.44-.45-2.21.13-1.54.65-2.6,1.74-3.68Z"/>
        <path d="M268.52,554.16l2.48,2.61s-4.52-.11-4.56-.02l2.06,2.17c.09-.01.2-.09.38-.23l.12.12-.98.96-.14-.14c.12-.16.24-.25.23-.35-.6-.62-1.22-1.27-1.82-1.89-.43-.39-.83-1.14-1.52-.66,0,0,.49-.5.73-.73l4.32.25-1.78-1.81c-.21-.23-.4-.38-.71-.15l.92-.92c-.27.39.06.57.27.79Z"/>
        <path d="M259.8,567.69l.12.12-.97.97-.12-.12c.08-.1.13-.18.17-.26-.06-.09-.16-.14-.26-.19-.79-.38-1.57-.75-2.36-1.13-.12-.06-.24-.1-.36-.15-.02.02-.04.04-.07.06.3.7.6,1.39.9,2.09.09.21.18.42.28.64.06.14.12.29.25.33h0c.07-.04.15-.1.24-.17l.12.12-.97.97-.12-.12c.08-.11.14-.19.17-.27-.09-.55-.35-1.01-.53-1.49-.31-.87-.7-1.72-1.06-2.57-.03-.07-.06-.14-.08-.22-.03-.09-.09-.19,0-.28s.19-.02.28.02c.55.25,1.1.5,1.66.75.66.3,1.32.59,1.98.89.05.02.1.04.14.07.06.03.11.05.17.08.07.03.14.04.2.04.07-.04.15-.1.24-.17Z"/>
        <path d="M252.91,568.47c-.58.34-.89.94-1.34,1.41.3-.18.49-.03.68.17l2.13,2.22c.11.11.22.22.31.35,0,.01.01.02.02.03h0c-.01.13-.08.22-.19.37l.12.12.97-.97-.12-.12c-.12.1-.21.16-.29.2-.05,0-.11-.04-.16-.12l-.99-1.01c-.17-.14-.19-.28-.02-.44.19-.17.32-.39.44-.62.26-.51.12-1.12-.39-1.62-.21-.2-.77-.21-1.16.02ZM253.96,569.25c.21.39.07.93-.29,1.19-.11.08-.2.06-.29-.02l-.38-.37s-.52-.42-.42-.61c.16-.3.41-.56.79-.59.29-.02.47.17.59.4Z"/>
        <path d="M252.06,574.42c.47.1.77-.12,1.02-.42.38-.45.19-.97-.38-1.1-.29-.07-.59-.04-.89-.01-.36.03-.73.08-1.09-.02-.73-.19-1.05-.96-.67-1.62.17-.29.47-.48.65-.74.15-.27.11-.41.11-.41l.67.75c-.46-.19-.67.15-.88.47-.26.4-.1.82.37.96.45.14.92.04,1.38.03.35,0,.68,0,.99.19.48.31.64,1.03.34,1.51-.18.28-.42.51-.68.72-.12.1-.31.22-.25.44-.03,0-.48-.52-.7-.76Z"/>
        <path d="M261.75,559.46l.65.68c-.21-.12-.4,0-.57.16l-.46.43c-.2.16-.22.31-.03.49l2.21,2.18c.1.08.17.17.26.21.08-.04.17-.1.3-.21l.12.12-.97.97-.12-.12c.09-.11.15-.19.17-.28-.05-.14-.2-.24-.3-.37l-2.04-2.12c-.2-.21-.35-.22-.54,0,0,0-.48.48-.55.63h0c-.05.08-.09.16-.1.24,0,0,0,0,0,0,0,.06,0,.13.05.19l-.68-.65c.11.04.31-.05.42-.16.06-.06.41-.4.52-.5.31-.3.61-.6.91-.91.2-.2.39-.39.59-.59.12-.12.19-.23.16-.42Z"/>
        <circle cx="256.81" cy="567.85" r=".23"/>
        <circle cx="264.75" cy="559.9" r=".23"/>
        <path d="M267.8,559.78l.12.12-.97.98-.12-.12c.08-.1.13-.18.17-.26-.06-.09-.16-.14-.26-.19-.79-.38-1.57-.75-2.36-1.13-.12-.06-.24-.1-.36-.15-.02.02-.04.04-.07.06.3.7.6,1.39.9,2.09.09.21.18.42.28.64.06.14.12.29.25.33h0c.07-.04.15-.1.24-.17l.12.12-.97.97-.12-.12c.08-.11.14-.19.17-.27-.09-.55-.35-1.01-.53-1.49-.31-.87-.7-1.72-1.06-2.57-.03-.07-.06-.14-.08-.22-.03-.09-.09-.19,0-.28s.19-.02.28.02c.55.25,1.1.5,1.66.75.66.3,1.32.59,1.98.89.05.02.1.04.14.07.06.03.11.05.17.08.07.03.14.04.2.04.07-.04.15-.1.24-.17Z"/>
      </g>
      <path d="M262.49,565.04l.12.12-.71.71-.1-.1s-.03-.02-.05-.03c-.28-.05-.34-.06-.51-.1-.59-.15-1.19-.24-1.79-.34-.39-.06-.45-.18-.26-.53.04-.07.07-.14.1-.21.19-.45.1-.81-.26-.99-.34-.17-.74-.02-.99.36-.13.19,0,.29.11.39.48.49.97.96,1.45,1.45.23.23.44.47.66.7.11.12.22.25.38.29.07-.04.16-.1.27-.19l.12.12-.97.97-.12-.12c.11-.14.17-.24.19-.35h0c-.05-.12-.17-.22-.27-.32-.75-.76-1.49-1.53-2.24-2.3-.15-.15-.32-.27-.58-.18.48-.45.78-1.07,1.39-1.38.65-.33,1.43.25,1.42,1.06,0,.04,0,.09,0,.13-.07.58-.07.59.5.7.41.08.82.15,1.23.23.13.03.26.05.39.08,0,0,0,0,0,0,.12.03.23,0,.34-.04.05-.04.11-.08.18-.14Z"/>
    </g>
    <g>
      <path class="cls-7" d="M49.37,555.91h-.85l-.18.74c.41.03.98.39.51.83-.06.05-4.82,3.69-4.82,3.69l1.02-3.71c.21-.72.98-.8.98-.8l.18-.74h-5.73s-.18.75-.18.75c.27.07,1.05.22.78,1.25-1.91,6.91-1.69,6.22-1.82,6.6-.52,2-1.37,1.9-1.67,1.92l-.18.74v.05s0,0,0,0h5.98l.2-.81s-.95-.19-.77-.88c.18-.67.93-3.4.93-3.4,2.65,4.25,3.3,4.99,5.61,5.09.78.04,1.75,0,3.05,0l.2-.8c-.76,0-1.25-.54-1.56-.87-.16-.17-.96-1.39-1.69-2.5-.66-1.01-1.25-1.94-1.25-1.94l1.25-1,3.57-2.86c.81-.68,1.39-.61,1.39-.61l.19-.74h-5.15Z"/>
      <path class="cls-7" d="M73.65,555.8c-.64,0-1.25.02-1.83.09-4.8.56-7.7,3.58-7.69,6.61,0,2.54,2.06,4.98,6.81,4.96.3,0,.59-.01.88-.03,1.15-.06,2.17-.22,3.09-.41l.55-2.36c-.92.31-2.09.56-3.02.57-.21,0-.42,0-.63-.03-2.18-.22-3.61-1.63-3.61-3.43,0-1.87,1.35-3.33,3.61-3.71.38-.07.78-.1,1.21-.1,1.46,0,2.2.48,2.68,1.12h.39l.78-2.79c-.8-.26-1.99-.48-3.23-.5Z"/>
      <path class="cls-7" d="M61.03,555.91h-5.65l-.18.74s1.13.13.78,1.25l-2.56,9.32h5.13s.19-.79.19-.79c0,0-.96-.23-.71-1.11.02-.08.75-2.77.75-2.77h2.26s.09,0,.09,0c1.17,0,1.55.61,1.55.61l.68-2.77h-3.96l.59-2.17h3.44c.63,0,1.08.42,1.08.73h.39l.76-3.03h-4.62Z"/>
    </g>
    <g>
      <path class="cls-18" d="M576.34,642.49l-.65.65-1.65-1.65c-.13-.13-.34-.13-.47,0l-1.76,1.76c-.13.13-.13.34,0,.47l1.65,1.65-.65.65c-.13.13-.13.34,0,.47l1.76,1.76c.13.13.34.13.47,0l3.53-3.53c.13-.13.13-.34,0-.47l-1.76-1.76c-.13-.13-.34-.13-.47,0ZM572.52,643.5l.41-.41.24.24c.13.13.34.13.47,0s.13-.34,0-.47l-.24-.24.42-.42,1.29,1.29-1.29,1.29-1.3-1.29ZM573.51,646.26l.35-.35.24.24c.13.13.34.13.47,0s.13-.34,0-.47l-.24-.24.47-.47,1.29,1.29-1.29,1.29-1.29-1.29ZM577.87,644.49l-1.3,1.3-1.29-1.29.47-.47.24.24c.13.13.34.13.47,0s.13-.34,0-.47l-.24-.24.36-.36,1.29,1.29Z"/>
      <path class="cls-18" d="M574.92,634.04s-.02-.02-.03-.03c0,0-.01-.01-.02-.02,0,0-.01-.01-.03-.02,0,0-.02-.01-.03-.01,0,0-.02,0-.03,0h-.03s-.03-.01-.03-.01c-.01,0-.02,0-.03,0h-.03s-.04,0-.04,0h0l-8.23,1.88c-.12.03-.22.13-.25.25l-1.88,8.23h0v.04s0,.03,0,.03c0,.01,0,.02,0,.03v.03s0,.04,0,.04c0,0,0,.02,0,.03,0,0,0,.02.01.03,0,0,0,.02.02.03,0,0,.01.01.02.02,0,.01.02.03.03.04l6.93,6.93c.13.13.34.13.47,0l2.12-2.12c.13-.13.13-.34,0-.47l-4.58-4.58,5.41-5.41,4.58,4.58c.13.13.34.13.47,0,.02-.01.03-.03.04-.04.02-.01.03-.03.04-.04l2.03-2.03c.13-.13.13-.34,0-.47l-6.93-6.93ZM568.81,643.91l-.24-.24,5.41-5.41.24.24-5.41,5.41ZM579.51,642.85l-5.29-5.29c-.13-.13-.34-.13-.47,0l-5.88,5.88c-.13.13-.13.34,0,.47l5.29,5.29-1.65,1.65-6.57-6.57,1.79-7.84,7.84-1.79,6.57,6.57-1.65,1.65Z"/>
      <path class="cls-18" d="M569.17,637.68l-1.29,1.29c-.13.13-.13.34,0,.47s.34.13.47,0l1.29-1.29c.13-.13.13-.34,0-.47s-.34-.13-.47,0Z"/>
      <path class="cls-18" d="M569.87,638.39l-1.29,1.29c-.13.13-.13.34,0,.47s.34.13.47,0l1.29-1.29c.13-.13.13-.34,0-.47s-.34-.13-.47,0Z"/>
    </g>
    <g>
      <path class="cls-18" d="M474.7,484.25l-.38.38-.95-.95c-.08-.08-.2-.08-.27,0l-1.02,1.02c-.08.08-.08.2,0,.27l.95.95-.38.38c-.08.08-.08.2,0,.27l1.02,1.02c.08.08.2.08.27,0l2.04-2.04c.08-.08.08-.2,0-.27l-1.02-1.02c-.08-.08-.2-.08-.27,0ZM472.48,484.83l.24-.24.14.14c.08.08.2.08.27,0s.08-.2,0-.27l-.14-.14.24-.24.75.75-.75.75-.75-.75ZM473.06,486.43l.2-.2.14.14c.08.08.2.08.27,0s.08-.2,0-.27l-.14-.14.27-.27.75.75-.75.75-.75-.75ZM475.58,485.4l-.75.75-.75-.75.27-.27.14.14c.08.08.2.08.27,0s.08-.2,0-.27l-.14-.14.21-.21.75.75Z"/>
      <path class="cls-18" d="M473.88,479.35s-.01-.01-.02-.02c0,0,0,0-.01-.01,0,0,0,0-.02,0,0,0-.01,0-.02,0,0,0-.01,0-.02,0h-.02s-.02,0-.02,0c0,0-.01,0-.02,0h-.01s-.02,0-.02,0h0l-4.76,1.09c-.07.02-.13.07-.14.14l-1.09,4.76h0v.02s0,.01,0,.01c0,0,0,.01,0,.02v.02s0,.02,0,.02c0,0,0,.01,0,.02,0,0,0,.01,0,.02,0,0,0,.01,0,.02,0,0,0,0,.01.01,0,0,.01.02.02.02l4.01,4.01c.08.08.2.08.27,0l1.22-1.22c.08-.08.08-.2,0-.27l-2.65-2.65,3.13-3.13,2.65,2.65c.08.08.2.08.27,0,0,0,.02-.02.02-.02,0,0,.02-.01.02-.02l1.18-1.18c.08-.08.08-.2,0-.27l-4.01-4.01ZM470.34,485.07l-.14-.14,3.13-3.13.14.14-3.13,3.13ZM476.53,484.45l-3.06-3.06c-.08-.08-.2-.08-.27,0l-3.4,3.4c-.08.08-.08.2,0,.27l3.06,3.06-.95.95-3.8-3.8,1.04-4.54,4.54-1.04,3.8,3.8-.95.95Z"/>
      <path class="cls-18" d="M470.55,481.46l-.75.75c-.08.08-.08.2,0,.27s.2.08.27,0l.75-.75c.08-.08.08-.2,0-.27s-.2-.08-.27,0Z"/>
      <path class="cls-18" d="M470.95,481.87l-.75.75c-.08.08-.08.2,0,.27s.2.08.27,0l.75-.75c.08-.08.08-.2,0-.27s-.2-.08-.27,0Z"/>
    </g>
    <g>
      <path class="cls-18" d="M487.86,474.5l-.38.38-.95-.95c-.08-.08-.2-.08-.27,0l-1.02,1.02c-.08.08-.08.2,0,.27l.95.95-.38.38c-.08.08-.08.2,0,.27l1.02,1.02c.08.08.2.08.27,0l2.04-2.04c.08-.08.08-.2,0-.27l-1.02-1.02c-.08-.08-.2-.08-.27,0ZM485.65,475.08l.24-.24.14.14c.08.08.2.08.27,0s.08-.2,0-.27l-.14-.14.24-.24.75.75-.75.75-.75-.75ZM486.23,476.68l.2-.2.14.14c.08.08.2.08.27,0s.08-.2,0-.27l-.14-.14.27-.27.75.75-.75.75-.75-.75ZM488.75,475.66l-.75.75-.75-.75.27-.27.14.14c.08.08.2.08.27,0s.08-.2,0-.27l-.14-.14.21-.21.75.75Z"/>
      <path class="cls-18" d="M487.04,469.61s-.01-.01-.02-.02c0,0,0,0-.01-.01,0,0,0,0-.02,0,0,0-.01,0-.02,0,0,0-.01,0-.02,0h-.02s-.02,0-.02,0c0,0-.01,0-.02,0h-.01s-.02,0-.02,0h0l-4.76,1.09c-.07.02-.13.07-.14.14l-1.09,4.76h0v.02s0,.01,0,.01c0,0,0,.01,0,.02v.02s0,.02,0,.02c0,0,0,.01,0,.02,0,0,0,.01,0,.02,0,0,0,.01,0,.02,0,0,0,0,.01.01,0,0,.01.02.02.02l4.01,4.01c.08.08.2.08.27,0l1.22-1.22c.08-.08.08-.2,0-.27l-2.65-2.65,3.13-3.13,2.65,2.65c.08.08.2.08.27,0,0,0,.02-.02.02-.02,0,0,.02-.01.02-.02l1.18-1.18c.08-.08.08-.2,0-.27l-4.01-4.01ZM483.51,475.32l-.14-.14,3.13-3.13.14.14-3.13,3.13ZM489.7,474.71l-3.06-3.06c-.08-.08-.2-.08-.27,0l-3.4,3.4c-.08.08-.08.2,0,.27l3.06,3.06-.95.95-3.8-3.8,1.04-4.54,4.54-1.04,3.8,3.8-.95.95Z"/>
      <path class="cls-18" d="M483.71,471.72l-.75.75c-.08.08-.08.2,0,.27s.2.08.27,0l.75-.75c.08-.08.08-.2,0-.27s-.2-.08-.27,0Z"/>
      <path class="cls-18" d="M484.12,472.13l-.75.75c-.08.08-.08.2,0,.27s.2.08.27,0l.75-.75c.08-.08.08-.2,0-.27s-.2-.08-.27,0Z"/>
    </g>
    <g>
      <path class="cls-18" d="M623.53,688.37l-.65.65-1.65-1.65c-.13-.13-.34-.13-.47,0l-1.76,1.76c-.13.13-.13.34,0,.47l1.65,1.65-.65.65c-.13.13-.13.34,0,.47l1.76,1.76c.13.13.34.13.47,0l3.53-3.53c.13-.13.13-.34,0-.47l-1.76-1.76c-.13-.13-.34-.13-.47,0ZM619.7,689.37l.41-.41.24.24c.13.13.34.13.47,0s.13-.34,0-.47l-.24-.24.42-.42,1.29,1.29-1.29,1.29-1.3-1.29ZM620.7,692.14l.35-.35.24.24c.13.13.34.13.47,0s.13-.34,0-.47l-.24-.24.47-.47,1.29,1.29-1.29,1.29-1.29-1.29ZM625.06,690.37l-1.3,1.3-1.29-1.29.47-.47.24.24c.13.13.34.13.47,0s.13-.34,0-.47l-.24-.24.36-.36,1.29,1.29Z"/>
      <path class="cls-18" d="M622.11,679.91s-.02-.02-.03-.03c0,0-.01-.01-.02-.02,0,0-.01-.01-.03-.02,0,0-.02-.01-.03-.01,0,0-.02,0-.03,0h-.03s-.03-.01-.03-.01c-.01,0-.02,0-.03,0h-.03s-.04,0-.04,0h0l-8.23,1.88c-.12.03-.22.13-.25.25l-1.88,8.23h0v.04s0,.03,0,.03c0,.01,0,.02,0,.03v.03s0,.04,0,.04c0,0,0,.02,0,.03,0,0,0,.02.01.03,0,0,0,.02.02.03,0,0,.01.01.02.02,0,.01.02.03.03.04l6.93,6.93c.13.13.34.13.47,0l2.12-2.12c.13-.13.13-.34,0-.47l-4.58-4.58,5.41-5.41,4.58,4.58c.13.13.34.13.47,0,.02-.01.03-.03.04-.04.02-.01.03-.03.04-.04l2.03-2.03c.13-.13.13-.34,0-.47l-6.93-6.93ZM616,689.79l-.24-.24,5.41-5.41.24.24-5.41,5.41ZM626.69,688.73l-5.29-5.29c-.13-.13-.34-.13-.47,0l-5.88,5.88c-.13.13-.13.34,0,.47l5.29,5.29-1.65,1.65-6.57-6.57,1.79-7.84,7.84-1.79,6.57,6.57-1.65,1.65Z"/>
      <path class="cls-18" d="M616.35,683.56l-1.29,1.29c-.13.13-.13.34,0,.47s.34.13.47,0l1.29-1.29c.13-.13.13-.34,0-.47s-.34-.13-.47,0Z"/>
      <path class="cls-18" d="M617.06,684.26l-1.29,1.29c-.13.13-.13.34,0,.47s.34.13.47,0l1.29-1.29c.13-.13.13-.34,0-.47s-.34-.13-.47,0Z"/>
    </g>
    <line class="cls-3" x1="464.07" y1="649.67" x2="464.07" y2="704.95"/>
    <text class="cls-10" transform="translate(363.26 424.76) rotate(44.12) skewX(3.02)"><tspan x="0" y="0">XPRESS</tspan></text>
    <text class="cls-9" transform="translate(59.87 518.3) rotate(-45) scale(1.05 1)"><tspan x="0" y="0">FRYDAY</tspan></text>
    <g>
      <path class="cls-7" d="M505.11,671.93c.02.8-.3,1.48-.96,2.04-.58.49-1.29.79-2.14.91-.03,0-.06,0-.08,0-.09,0-.3-.29-.63-.85-.33-.56-.49-.91-.49-1.03,0-.04.03-.07.09-.08.57-.12.95-.22,1.13-.3.41-.2.6-.49.59-.9,0-.26-.15-.55-.43-.87-.48-.55-.74-.85-.78-.92-.28-.42-.43-.88-.44-1.37-.02-.72.3-1.31.95-1.78.53-.38,1.2-.62,1.99-.72.04,0,.08,0,.1,0,.06,0,.11.05.15.15.11.29.36.82.76,1.58.01.02.02.04.02.06,0,.07-.03.1-.1.1-.03,0-.08,0-.16-.02s-.13-.02-.17-.02c-.28,0-.53.05-.74.18-.25.14-.38.35-.37.62,0,.24.16.54.45.9.52.65.79.99.82,1.02.29.44.44.88.45,1.31Z"/>
      <path class="cls-7" d="M512.19,673c0,.17-.02.48-.08.93-.06.49-.11.78-.17.88-.05.07-.11.11-.19.11-.04,0-.09,0-.18-.02-.29-.05-1.13-.09-2.53-.13-.3,0-.76-.02-1.36-.04-.6-.02-1.05-.03-1.35-.04-.13,0-.2-.06-.2-.18-.01-.44,0-1.11.02-1.99.03-.89.03-1.55.02-1.99-.01-.45-.06-1.29-.14-2.52-.02-.32-.05-.79-.1-1.42v-.08c-.02-.09.03-.14.14-.13.29,0,.73.03,1.32.06.59.03,1.03.05,1.32.06.29,0,.72.01,1.3,0,.58,0,1.01,0,1.3.01.21,0,.33.09.36.24.02.09.06.37.11.83.05.46.08.74.08.84,0,.08-.04.12-.12.12-.02,0-.06,0-.12,0-1.05-.11-2-.18-2.84-.21-.21,0-.34.04-.38.14-.02.05-.02.2-.02.46,0,.27.05.45.13.54.07.08.2.12.39.12.04,0,.12,0,.23,0s.21,0,.28,0c.5.01,1,.01,1.51,0,.04,0,.15,0,.33-.02.13-.01.24-.02.32-.02.09,0,.14.05.15.14,0-.08-.03.22-.08.9-.02.32-.03.63-.02.95,0,.08-.05.12-.17.11l-.54-.07c-.23-.03-.74-.05-1.54-.08l-.63-.02c-.16,0-.26.03-.28.11,0,.02,0,.14,0,.37,0,.3.03.5.07.58.07.15.33.25.77.29,0,0,.28,0,.87.02.21,0,.52,0,.93-.03.41-.03.72-.04.93-.03.09,0,.13.07.14.22Z"/>
      <path class="cls-7" d="M520.09,674.99s-.04.05-.12.06c-.15.02-.53.02-1.13,0-.52-.01-.87-.03-1.06-.06-.09-.01-.14-.03-.15-.03-.02-.01-.05-.05-.09-.12-.06-.16-.16-.39-.28-.69-.17-.4-.42-.99-.77-1.77-.08-.16-.24-.25-.5-.27.12.01-.08,0-.61,0-.06,0-.09.1-.08.3,0,.27.04.67.11,1.21s.1.94.11,1.21c0,.07-.02.11-.05.12-.05,0-.11,0-.17,0-.23,0-.6,0-1.09,0-.56-.01-.9-.04-1.02-.06s-.17-.09-.18-.19c-.01-.43,0-1.09,0-1.97.02-.88.02-1.53.01-1.97-.04-1.67-.12-2.98-.22-3.92v-.08c-.01-.07.05-.11.17-.13s.73-.03,1.81-.02c.73,0,1.31.01,1.75.02.9.02,1.64.25,2.22.67.66.48,1,1.15,1.02,2.01.02.58-.06,1.04-.21,1.38-.16.34-.45.67-.89.98-.09.06-.13.12-.13.17,0,0,.25.5.76,1.51.51,1.01.76,1.56.77,1.67ZM517.46,669.6c-.01-.48-.18-.82-.5-1.01-.25-.15-.63-.23-1.16-.24-.38,0-.57.04-.59.16-.02.13-.02.52,0,1.16,0,.09,0,.23.02.4s.01.31.02.4c0,.02.06.04.19.06.24.04.5.07.76.07.87.02,1.29-.31,1.27-1Z"/>
      <path class="cls-7" d="M524.11,675.17c-.53-.01-.84-.03-.91-.05-.08-.02-.14-.08-.2-.18-.47-.9-.95-1.8-1.43-2.71-.75-1.45-1.13-2.27-1.14-2.46,0-.31,0-.78,0-1.41,0-.62,0-1.09,0-1.41,0-.15.03-.22.11-.22.24,0,.6.03,1.08.06.48.03.84.05,1.08.06.1,0,.15.04.15.13,0,.32,0,.8-.03,1.44s-.04,1.12-.03,1.44c0,.25.43,1.13,1.27,2.66.21-.39.44-.86.7-1.42.35-.76.52-1.22.52-1.4,0-.29-.02-.72-.05-1.3-.02-.58-.04-1.01-.05-1.3,0-.11.01-.17.05-.18h.19c.22.01.54,0,.99,0,.44,0,.77-.01.99,0,.12,0,.18.05.18.15,0,.3.01.76.02,1.38,0,.61.01,1.08.02,1.38,0,.25-.36,1.14-1.1,2.67-.29.55-.71,1.39-1.27,2.5-.04.09-.06.13-.08.14-.01,0-.06.02-.15.02-.2.01-.51,0-.93,0Z"/>
      <path class="cls-7" d="M530.97,670.96c.01.47.04,1.17.09,2.1.05.94.08,1.64.09,2.1,0,.08-.01.13-.05.15,0,0-.06.01-.15.02-.26.02-.6.03-1.03.02-.58-.02-.94-.04-1.1-.08-.12-.03-.17-.09-.18-.19,0,.06,0-.29.03-1.04.03-1.6.04-2.65.02-3.15-.01-.42-.04-1.06-.09-1.9-.05-.85-.08-1.48-.09-1.9,0-.09.04-.13.13-.13.12,0,.31.01.55.03.25.02.43.03.55.03.12,0,.3,0,.54,0,.24,0,.42,0,.54,0,.12,0,.17.05.18.13.01.42,0,1.06-.02,1.9-.02.84-.03,1.48-.02,1.9Z"/>
      <path class="cls-7" d="M539.18,674.21c0,.06-.04.14-.12.25-.71.84-1.66,1.25-2.86,1.22-1.23-.03-2.24-.48-3.03-1.34-.77-.83-1.17-1.87-1.2-3.11-.03-1.2.31-2.21,1.02-3.03.74-.86,1.7-1.27,2.88-1.24,1.28.03,2.29.45,3.04,1.26.08.09.12.17.12.23,0,.08-.13.35-.39.83-.26.47-.43.74-.5.8-.03.03-.07.05-.12.04-.02,0-.12-.08-.3-.25-.22-.2-.43-.35-.64-.46-.32-.17-.64-.25-.98-.26-.58-.02-1.04.19-1.38.61-.31.39-.46.89-.44,1.48.02.6.19,1.11.52,1.52.36.45.83.69,1.41.7.34,0,.67-.06.97-.2.2-.09.4-.23.61-.4.17-.15.26-.22.28-.22.04,0,.08.02.12.07.07.07.24.32.53.75.3.45.45.69.45.74Z"/>
      <path class="cls-7" d="M542.15,671.25c.01.47.04,1.17.09,2.1.05.94.08,1.64.09,2.1,0,.08-.01.13-.05.15,0,0-.06.01-.15.02-.26.02-.6.03-1.03.02-.58-.01-.94-.04-1.1-.08-.12-.03-.17-.09-.18-.19,0,.06,0-.29.03-1.04.03-1.6.04-2.65.02-3.15-.01-.42-.04-1.06-.09-1.9-.05-.85-.08-1.48-.09-1.9,0-.09.04-.13.13-.13.12,0,.31.01.55.03.25.02.43.03.55.03.12,0,.3,0,.54,0,.24,0,.42,0,.54,0,.12,0,.17.05.18.14.01.42,0,1.06-.02,1.9-.02.84-.03,1.48-.02,1.9Z"/>
      <path class="cls-7" d="M550.47,672.94c.03,1.01-.08,1.69-.31,2.05-.42.66-1.52.97-3.29.92-.8-.02-1.41-.1-1.85-.23-.69-.22-1.15-.6-1.37-1.17-.11-.28-.17-.76-.19-1.46,0-.16,0-.4,0-.72,0-.32,0-.56,0-.72-.01-.46-.05-1.15-.12-2.06-.07-.92-.11-1.6-.12-2.06,0-.09.04-.14.12-.14.24,0,.61.03,1.09.06.49.03.85.05,1.09.06.1,0,.15.05.15.13.01.52.02,1.3.01,2.34,0,1.04,0,1.82.01,2.34.02.62.09,1.04.23,1.26.18.3.55.46,1.1.47.81.02,1.21-.36,1.18-1.15-.02-.57-.05-1.43-.11-2.58-.06-1.15-.09-2.01-.11-2.58,0-.12.04-.18.14-.18.23,0,.58,0,1.05,0s.82,0,1.05,0c.11,0,.17.05.18.15.01.45.01,1.14,0,2.05-.01.92-.01,1.6,0,2.06,0,.13.01.32.02.57.01.25.02.44.02.57Z"/>
      <path class="cls-7" d="M557.16,676.12c-.34,0-.78-.03-1.33-.06-.71-.03-1.15-.06-1.33-.06l-1.77-.07c-.18,0-.43-.02-.76-.04-.12-.02-.17-.08-.18-.19-.01-.43-.02-1.08-.03-1.93,0-.86-.02-1.5-.03-1.93-.01-.46-.04-1.15-.1-2.06s-.08-1.6-.1-2.06c0-.09.06-.13.17-.13.12,0,.3.01.53.03s.41.03.52.03c.13,0,.32,0,.58,0,.26,0,.45,0,.58,0,.06,0,.09.04.09.12v.08c-.03.74-.06,1.86-.08,3.34l.04,1.56c.01.51.02.88.04,1.11,0,.05,0,.09.02.14,0,.05.04.08.09.09,0,0,.06,0,.15,0,.36,0,.89,0,1.6-.01.71-.02,1.24-.02,1.6-.01.11,0,.16.05.16.14.02.68-.02,1.26-.1,1.74-.02.1-.06.16-.12.18-.02,0-.1,0-.24,0Z"/>
      <path class="cls-7" d="M498.98,683.9c.03.96-.21,1.72-.69,2.3-.52.62-1.25.91-2.2.88-.16,0-.4-.02-.71-.05-.32-.03-.56-.04-.71-.04-.17,0-.25.07-.25.21,0,.18.03.45.07.81.04.36.07.63.08.81,0,.09-.04.13-.12.13-.24,0-.6-.02-1.08-.05s-.84-.04-1.08-.05c-.12,0-.17-.06-.18-.18-.01-.44-.02-1.1-.03-1.98,0-.88-.02-1.54-.03-1.98-.03-1.24-.12-2.55-.26-3.92v-.08c-.02-.08.04-.12.17-.13.31-.03.99-.03,2.04,0,.62.02,1.21.04,1.78.07.94.05,1.7.37,2.29.94.6.59.91,1.35.94,2.29ZM496.62,683.93c-.02-.92-.49-1.39-1.38-1.42-.63-.02-.96.01-.99.08-.03.05-.03.51,0,1.37,0,.12.01.3.03.54.02.24.03.42.03.54,0,.08.36.13,1.07.15.86.02,1.28-.4,1.25-1.26Z"/>
      <path class="cls-7" d="M507.74,689.12c0,.07-.05.12-.14.14-.12.03-.49.04-1.1.02-.56-.01-.93-.04-1.09-.08-.13-.03-.22-.12-.26-.27-.15-.57-.26-.88-.34-.92-.06-.03-.59-.06-1.59-.08-.67-.02-1.03,0-1.07.02-.06.06-.13.27-.21.63-.07.33-.15.5-.26.53-.13.03-.58.03-1.35.01-.6-.02-.91-.08-.91-.2,0-.1.41-1.35,1.24-3.75.9-2.59,1.39-4.02,1.46-4.28.04-.15.1-.22.16-.22.11,0,.27.02.5.04.22.03.39.04.5.04.11,0,.26,0,.47,0s.36-.01.46,0c.08,0,.15.07.21.2.21.42.81,1.86,1.81,4.31,1,2.47,1.51,3.76,1.51,3.86ZM503.4,683.62c-.08.17-.21.55-.39,1.12-.2.61-.29.97-.29,1.08,0,.07.12.12.36.13.12.01.32.02.6.03.26,0,.4-.02.43-.08,0-.02.01-.05,0-.08,0-.13-.1-.49-.3-1.08-.19-.57-.33-.94-.42-1.1Z"/>
      <path class="cls-7" d="M512.32,686.67c.02.8-.3,1.48-.96,2.03-.58.49-1.29.79-2.14.91-.03,0-.06,0-.08,0-.09,0-.3-.29-.63-.85-.33-.56-.49-.91-.49-1.03,0-.04.03-.07.09-.08.57-.12.95-.22,1.13-.3.41-.2.6-.49.59-.9,0-.26-.15-.55-.43-.87-.48-.55-.74-.85-.78-.92-.28-.42-.43-.88-.44-1.37-.02-.72.3-1.31.95-1.78.53-.38,1.2-.62,1.99-.72.04,0,.08,0,.1,0,.06,0,.11.05.15.15.11.29.36.82.76,1.58.01.02.02.04.02.06,0,.07-.03.1-.1.1-.03,0-.08,0-.16-.02-.08-.01-.13-.02-.17-.02-.28,0-.53.05-.74.18-.25.14-.38.35-.37.62,0,.24.16.54.45.9.52.65.79.99.82,1.02.29.44.44.88.46,1.31Z"/>
      <path class="cls-7" d="M521.19,689.48c0,.07-.05.12-.14.14-.12.03-.48.04-1.1.02-.56-.01-.93-.04-1.09-.08-.13-.03-.22-.12-.26-.27-.15-.57-.26-.88-.34-.92-.06-.03-.59-.06-1.59-.08-.67-.02-1.03,0-1.07.02-.06.06-.13.27-.21.63-.07.33-.15.5-.26.53-.13.03-.58.03-1.35.01-.6-.02-.91-.08-.91-.2,0-.1.41-1.35,1.24-3.75.9-2.59,1.39-4.02,1.46-4.28.04-.15.1-.22.16-.22.11,0,.27.02.5.04.22.03.39.04.5.04.11,0,.26,0,.47,0,.21,0,.36-.01.46,0,.08,0,.15.07.21.2.2.42.81,1.86,1.81,4.31,1.01,2.47,1.51,3.76,1.51,3.86ZM516.85,683.97c-.08.17-.21.55-.39,1.12-.2.61-.29.97-.29,1.08,0,.07.12.11.36.13.12.01.32.02.6.03.26,0,.4-.02.43-.08,0-.02,0-.05,0-.08,0-.13-.1-.49-.3-1.08-.19-.57-.33-.94-.42-1.1Z"/>
      <path class="cls-7" d="M528.76,684.69c.03.96-.21,1.72-.69,2.3-.52.61-1.25.91-2.2.88-.16,0-.4-.02-.72-.05-.32-.03-.56-.04-.71-.04-.17,0-.25.07-.25.21,0,.18.03.45.07.81.04.36.07.63.08.81,0,.09-.04.13-.12.13-.24,0-.6-.02-1.08-.05s-.84-.04-1.08-.05c-.12,0-.17-.06-.18-.18-.01-.44-.02-1.1-.03-1.98,0-.88-.02-1.54-.03-1.98-.03-1.24-.12-2.55-.26-3.92v-.08c-.02-.07.04-.12.17-.13.31-.03.99-.03,2.04,0,.62.02,1.21.04,1.78.07.94.05,1.7.37,2.29.94.6.59.91,1.35.94,2.29ZM526.4,684.72c-.02-.92-.49-1.39-1.38-1.42-.63-.02-.96.01-.99.08-.03.05-.03.51,0,1.37,0,.12.01.3.03.54.02.24.03.42.03.54,0,.08.36.13,1.07.15.86.02,1.27-.4,1.25-1.26Z"/>
      <path class="cls-7" d="M537.83,685.92c.03,1.23-.33,2.25-1.1,3.07-.78.82-1.78,1.22-3.01,1.19-1.22-.03-2.25-.49-3.07-1.36-.81-.85-1.23-1.89-1.27-3.12-.03-1.23.34-2.25,1.1-3.07.78-.84,1.79-1.24,3.01-1.21,1.21.03,2.24.49,3.07,1.37.82.87,1.24,1.91,1.27,3.13ZM535.59,685.85c-.02-.59-.21-1.1-.58-1.53-.39-.44-.87-.67-1.46-.69-.56-.01-1.02.2-1.4.64-.36.42-.54.92-.52,1.49.02.6.21,1.11.57,1.52.38.43.87.66,1.47.67.56.01,1.03-.2,1.4-.63.36-.42.53-.91.52-1.47Z"/>
      <path class="cls-7" d="M546.64,690.15c0,.07-.05.12-.14.14-.12.03-.49.04-1.1.02-.56-.01-.93-.04-1.09-.08-.13-.03-.22-.12-.26-.27-.15-.57-.26-.88-.34-.92-.06-.03-.59-.06-1.59-.08-.67-.02-1.03,0-1.07.02-.06.06-.13.27-.21.63-.07.33-.15.5-.26.53-.13.03-.58.03-1.35.01-.6-.02-.91-.08-.91-.2,0-.1.41-1.35,1.24-3.75.9-2.59,1.39-4.02,1.46-4.28.04-.15.1-.22.16-.22.11,0,.27.02.5.04.22.03.39.04.5.04.11,0,.26,0,.47,0,.21,0,.36-.01.46,0,.08,0,.15.07.21.2.21.42.81,1.86,1.81,4.31,1,2.47,1.51,3.76,1.51,3.86ZM542.29,684.64c-.08.17-.21.55-.39,1.12-.2.61-.29.97-.29,1.08,0,.07.12.11.36.13.12.01.32.02.6.03.26,0,.4-.02.43-.08,0-.02,0-.05,0-.08,0-.13-.1-.49-.3-1.08-.19-.57-.33-.94-.42-1.1Z"/>
      <path class="cls-7" d="M554.31,690.44s-.04.05-.12.06c-.15.02-.53.02-1.13,0-.52-.01-.87-.03-1.06-.06-.09-.01-.14-.03-.15-.03-.02-.01-.05-.05-.09-.12-.06-.16-.16-.39-.28-.69-.17-.4-.42-.99-.77-1.77-.07-.16-.24-.25-.5-.27.12.01-.08,0-.61,0-.06,0-.09.1-.08.3,0,.27.04.67.11,1.21s.1.94.11,1.21c0,.07-.02.11-.05.12-.06,0-.11,0-.17,0-.23,0-.6,0-1.09,0-.56-.01-.91-.04-1.02-.06-.11-.03-.17-.09-.18-.19-.01-.43,0-1.09,0-1.97.02-.88.02-1.53.01-1.97-.04-1.67-.12-2.98-.22-3.92v-.08c-.01-.07.05-.11.17-.13.13-.02.73-.03,1.81-.02.73,0,1.31.01,1.75.02.9.02,1.64.25,2.22.67.66.48,1,1.14,1.02,2.01.02.58-.06,1.04-.21,1.38-.16.34-.46.66-.89.98-.09.06-.13.12-.13.17,0,0,.25.5.76,1.51.51,1.01.76,1.56.77,1.67ZM551.68,685.06c-.01-.48-.18-.82-.5-1.01-.25-.15-.63-.23-1.16-.24-.38,0-.57.04-.59.16-.02.13-.02.52,0,1.16,0,.09,0,.23.02.4s.01.31.02.4c0,.02.06.04.19.06.24.04.5.07.76.07.87.02,1.29-.31,1.27-1Z"/>
      <path class="cls-7" d="M560.58,684.17c0,.08-.04.12-.13.12-.15,0-.75-.05-1.79-.14,0,1,0,1.7.02,2.09.01.46.05,1.17.11,2.1s.1,1.64.11,2.11c0,.08-.01.12-.05.14-.01,0-.07.02-.17.03-.24.02-.58.03-1.04.02-.51-.01-.87-.04-1.07-.08-.11-.02-.17-.09-.17-.19-.01-.47-.01-1.16,0-2.1.01-.93.02-1.63,0-2.1,0-.31-.04-1-.1-2.06-.79.06-1.42.08-1.89.07-.06,0-.09-.02-.1-.06,0-.05.02-.2.07-.45.06-.28.09-.44.09-.5,0-.19.02-.37.03-.56.02-.3.06-.44.13-.44,0,0,.04,0,.08,0,.64.1,1.59.17,2.84.2.36,0,1.01-.01,1.96-.06.51-.03.77-.04.77-.04.08,0,.12,0,.14.02.01.01.02.05.03.12,0,.11,0,.25,0,.44,0,.21,0,.36,0,.44,0,.1.02.25.05.44.03.19.05.33.05.43Z"/>
      <path class="cls-7" d="M567.41,689.01c0,.17-.02.48-.08.93-.06.49-.11.79-.17.88-.05.07-.11.11-.19.11-.04,0-.09,0-.18-.02-.29-.05-1.13-.09-2.53-.13-.3,0-.76-.02-1.36-.04s-1.05-.03-1.35-.04c-.13,0-.2-.06-.2-.18-.01-.44,0-1.11.02-1.99.03-.89.03-1.55.02-1.99-.01-.45-.06-1.29-.14-2.52-.02-.31-.05-.79-.1-1.42v-.08c-.02-.09.03-.14.14-.13.29,0,.73.03,1.32.06.59.03,1.03.05,1.32.06.29,0,.72.01,1.3.01.58,0,1.01,0,1.3.01.21,0,.33.09.36.24.02.09.06.37.11.83.05.46.08.74.08.84,0,.08-.04.12-.12.12-.02,0-.07,0-.12,0-1.05-.11-2-.18-2.84-.21-.21,0-.34.04-.38.14-.02.05-.02.2-.02.46,0,.27.05.45.13.54.07.08.2.12.39.12.04,0,.12,0,.23,0s.21,0,.28,0c.5.01,1,.01,1.51,0,.04,0,.15,0,.33-.02.13-.01.24-.02.32-.02.09,0,.14.05.15.14,0-.08-.03.22-.08.9-.02.31-.03.63-.02.95,0,.08-.05.12-.17.11l-.54-.07c-.23-.03-.74-.05-1.54-.08l-.63-.02c-.16,0-.26.03-.28.11,0,.02,0,.14,0,.37,0,.3.03.5.07.58.07.15.33.25.77.29,0,0,.28,0,.87.02.21,0,.52,0,.93-.03.41-.03.72-.04.93-.03.09,0,.13.07.14.22Z"/>
    </g>
    <g>
      <path class="cls-7" d="M210.9,271.38c.09.09.24.26.45.53.23.29.35.47.37.55.01.06,0,.12-.04.16-.02.02-.06.04-.11.08-.18.13-.64.55-1.39,1.26-.16.16-.41.39-.74.69-.33.3-.57.53-.73.69-.07.07-.14.07-.2.01-.24-.23-.58-.58-1.04-1.06-.45-.48-.8-.83-1.04-1.06-.24-.23-.71-.65-1.4-1.25-.18-.16-.44-.39-.8-.69l-.05-.04c-.05-.04-.05-.09,0-.15.16-.15.4-.37.72-.66s.57-.51.72-.66c.16-.15.39-.37.69-.68.3-.31.54-.53.69-.68.11-.1.22-.13.32-.06.06.04.22.16.5.38.27.21.43.35.49.4.04.04.05.08,0,.12-.01.01-.04.03-.07.06-.61.49-1.15.96-1.6,1.38-.11.11-.16.2-.13.27.02.04.09.12.23.25.14.14.26.21.35.21.08,0,.17-.04.27-.14.02-.02.06-.06.12-.12.06-.06.11-.11.15-.15.27-.25.53-.52.79-.8.02-.02.08-.08.16-.18.06-.08.12-.14.16-.18.05-.05.1-.05.15,0-.04-.04.1.13.43.52.15.18.32.35.49.51.04.04.03.09-.03.15l-.32.24c-.13.1-.42.36-.85.77l-.34.32c-.09.08-.12.15-.09.21,0,.01.07.08.2.19.16.15.28.24.35.27.12.04.3-.04.55-.25,0,0,.15-.14.47-.44.11-.11.27-.28.47-.51.2-.23.36-.4.47-.5.05-.04.11-.03.19.04Z"/>
      <path class="cls-7" d="M212.21,263.7c.24.23.6.59,1.06,1.07.47.48.82.84,1.07,1.07l2.11,2c.06.05.05.11,0,.17-.05.05-.13.12-.23.23-.1.1-.18.18-.23.23-.06.05-.14.13-.26.23-.12.1-.21.17-.26.22-.04.04-.12.05-.24.03-.36-.05-1.16-.16-2.41-.32-.35-.05-.86-.11-1.55-.19-.02,0-.05,0-.09,0,0,.03.01.06.04.09.25.23.63.58,1.13,1.04.51.46.89.8,1.13,1.04.07.07.08.13.02.19l-1.11,1.05c-.06.06-.13.06-.19,0-.23-.22-.57-.56-1.01-1.02s-.78-.8-1.01-1.02c-.25-.23-.62-.57-1.13-1.01-.51-.44-.88-.78-1.13-1.01-.05-.04-.03-.11.06-.19.12-.12.27-.27.43-.46.04-.04.11-.14.21-.28.09-.12.16-.21.22-.27.03-.02.1-.03.23,0l2.83.42c.25.04.63.09,1.13.16.12.01.2,0,.24-.04.03-.03-.04-.12-.21-.28-.22-.21-.57-.52-1.05-.92-.47-.4-.82-.71-1.05-.93-.08-.07-.1-.13-.05-.18.13-.12.31-.31.56-.56.25-.25.44-.44.56-.56.04-.04.09-.03.16.04Z"/>
      <path class="cls-7" d="M219.48,263.24c.09.09.24.26.45.53.23.29.35.47.37.55.01.06,0,.12-.04.16-.02.02-.06.04-.11.08-.18.13-.64.55-1.39,1.26-.16.16-.41.39-.74.69-.33.3-.57.53-.73.69-.07.07-.14.07-.2.01-.24-.23-.58-.58-1.04-1.06-.45-.48-.8-.83-1.04-1.06-.24-.23-.71-.65-1.4-1.25-.18-.16-.44-.39-.8-.69l-.05-.04c-.05-.04-.05-.09,0-.15.16-.15.4-.37.72-.66.33-.29.57-.51.72-.66.16-.15.39-.37.69-.68.3-.31.54-.53.69-.68.11-.1.22-.13.32-.06.06.04.22.16.5.38.27.21.43.35.49.4.04.04.05.08,0,.12-.01.01-.04.03-.07.06-.61.49-1.15.96-1.6,1.38-.11.11-.16.2-.13.27.02.04.09.12.23.25.14.14.26.21.35.21.08,0,.17-.04.27-.14.02-.02.06-.06.12-.12.06-.06.11-.11.15-.15.27-.25.53-.52.79-.79.02-.02.08-.08.16-.18.06-.08.12-.14.16-.18.05-.05.1-.05.15,0-.04-.04.1.13.43.52.15.18.32.35.49.51.04.04.03.09-.03.15l-.32.24c-.13.1-.42.36-.85.77l-.34.32c-.09.08-.12.15-.09.21,0,.01.07.08.19.19.16.15.28.24.35.27.12.04.3-.04.55-.25,0,0,.15-.14.47-.44.11-.11.27-.28.47-.51.2-.23.36-.4.47-.5.05-.04.11-.03.19.04Z"/>
      <path class="cls-7" d="M224.68,260.14s0,.04-.03.09c-.07.09-.27.29-.59.6-.28.27-.48.44-.59.52-.05.04-.09.06-.1.06-.02,0-.06,0-.11-.02-.12-.05-.29-.12-.51-.22-.3-.12-.74-.3-1.33-.52-.12-.04-.26,0-.4.12.07-.06-.04.05-.32.32-.03.03,0,.1.11.2.15.14.38.33.69.58.31.25.54.44.69.58.04.03.05.06.03.09-.03.03-.05.06-.08.09-.12.13-.31.32-.58.57-.31.29-.5.46-.57.5-.07.05-.14.04-.19,0-.24-.22-.58-.57-1.03-1.04s-.8-.82-1.03-1.04c-.9-.86-1.63-1.5-2.17-1.95l-.05-.04s-.03-.09.03-.17c.06-.08.37-.4.94-.96.39-.38.7-.69.93-.91.49-.46.99-.73,1.52-.82.59-.09,1.13.08,1.59.52.31.3.52.57.61.83.1.26.11.59.04.98-.01.08,0,.13.02.16,0,0,.4.13,1.19.39.8.26,1.22.42,1.28.47ZM220.46,258.69c-.26-.25-.52-.34-.8-.27-.21.05-.45.21-.74.48-.2.19-.28.32-.23.39.06.08.26.29.61.61.05.05.12.11.22.2.1.09.17.16.22.2.01,0,.06-.01.13-.07.15-.1.3-.23.44-.36.47-.44.52-.84.14-1.19Z"/>
      <path class="cls-7" d="M229.18,255.73c.06.05.06.11,0,.17-.04.04-.18.13-.42.27-.24.14-.39.22-.45.25-.27.59-.61,1.08-1.02,1.47-.66.63-1.42.93-2.28.91-.85-.01-1.61-.33-2.27-.96-.68-.64-1.03-1.37-1.07-2.17-.04-.83.27-1.57.94-2.2.32-.31.69-.54,1.1-.69.45-.16.88-.21,1.31-.15.09.01.14.03.16.05.07.06.12.3.17.71.05.41.04.64-.01.69-.01.01-.1.02-.28.02-.21,0-.4.02-.56.07-.25.07-.47.2-.67.39-.32.3-.46.66-.4,1.06.04.37.23.72.56,1.03.35.33.71.5,1.1.53.4.02.77-.13,1.11-.46.22-.21.41-.49.57-.85-.08-.06-.27-.21-.59-.46-.25-.18-.44-.34-.58-.47-.04-.04-.05-.08-.03-.11,0-.01.02-.03.05-.05.06-.06.16-.14.3-.25.14-.11.24-.19.3-.25.07-.06.17-.17.29-.31.13-.14.22-.24.29-.3.05-.05.12-.04.19.02.1.1.25.25.45.46.19.21.34.36.45.46.27.26.71.63,1.29,1.11l.04.03Z"/>
      <path class="cls-7" d="M230.07,248.77c.09.09.15.18.19.28.27.79.47,1.7.6,2.74.02.15.07.26.14.33.11.11.29.26.53.46.24.2.41.36.53.46.04.04.05.07.04.09,0,0-.03.04-.07.1-.06.08-.25.27-.56.56-.31.29-.51.47-.61.54-.07.05-.13.05-.18,0-.11-.11-.28-.28-.49-.52-.21-.24-.38-.41-.49-.52-.07-.06-.17-.11-.3-.14-.62-.1-1.55-.28-2.78-.54-.13-.03-.23-.07-.28-.12-.13-.12-.33-.3-.6-.53-.27-.23-.47-.41-.59-.53-.07-.07-.08-.12-.04-.16.13-.12.33-.31.61-.55.27-.24.48-.42.61-.55.05-.05.09-.05.12-.02.11.1.27.26.48.48.21.22.37.38.48.48.06.06.32.12.76.19.35.05.63.08.83.09-.02-.18-.05-.44-.11-.77-.07-.42-.13-.65-.19-.7-.11-.1-.28-.25-.51-.44-.23-.19-.4-.34-.51-.44-.05-.04-.06-.08-.05-.1l.08-.08c.13-.12.32-.31.56-.56.25-.25.43-.44.56-.57.04-.04.11-.02.2.07.11.11.28.27.52.48.23.21.4.37.52.48Z"/>
      <path class="cls-7" d="M222.69,276.81c.06.05.06.11,0,.17-.04.04-.18.13-.42.27-.24.14-.39.22-.45.25-.27.59-.61,1.08-1.02,1.47-.66.62-1.42.93-2.28.91-.85-.01-1.61-.34-2.27-.96-.68-.64-1.03-1.37-1.07-2.17-.04-.83.27-1.57.94-2.2.32-.31.69-.54,1.1-.69.45-.16.88-.21,1.31-.15.09.01.14.03.16.05.07.06.13.3.17.71s.04.64-.01.69c-.01.01-.1.02-.28.02-.21,0-.4.02-.56.07-.25.07-.47.2-.67.39-.32.3-.46.66-.4,1.06.04.37.23.72.56,1.03.35.33.71.5,1.1.53.4.02.77-.13,1.11-.46.22-.21.41-.49.57-.85-.08-.06-.27-.21-.59-.46-.25-.18-.44-.34-.58-.47-.04-.04-.05-.08-.03-.11,0-.01.02-.03.05-.06.06-.06.16-.14.3-.25.14-.11.24-.19.3-.25.07-.06.17-.17.29-.31.13-.14.22-.24.29-.31.05-.05.12-.04.19.02.1.1.25.25.45.46.19.21.34.36.45.46.27.26.71.63,1.3,1.11l.04.03Z"/>
      <path class="cls-7" d="M227.38,272.4s.04.09,0,.15c-.05.08-.24.27-.57.59-.31.29-.51.47-.61.53-.09.05-.18.05-.28,0-.38-.22-.6-.32-.66-.31-.05.02-.34.28-.88.79-.36.34-.55.54-.55.58,0,.07.07.21.22.44.14.21.18.34.14.41-.05.08-.29.32-.7.72-.33.31-.52.44-.58.38-.05-.05-.5-.93-1.32-2.62-.89-1.84-1.39-2.84-1.48-3.02-.06-.1-.07-.17-.03-.2.06-.05.15-.13.28-.24.13-.1.23-.19.29-.24.06-.05.14-.14.24-.25.1-.11.18-.2.24-.25.04-.04.11-.04.22,0,.33.11,1.4.55,3.22,1.32,1.83.77,2.77,1.18,2.83,1.24ZM222.19,271.79c.05.13.18.4.38.8.22.42.36.66.41.72.04.04.12,0,.26-.12.07-.06.18-.16.33-.3.14-.13.2-.22.18-.27,0-.01-.02-.03-.04-.05-.07-.07-.31-.2-.73-.41-.4-.2-.67-.32-.8-.36Z"/>
      <path class="cls-7" d="M232.46,267.55c.07.06.07.12,0,.18l-1.13,1.07c-.06.06-.13.05-.21-.02-.21-.2-.53-.52-.94-.94-.42-.42-.73-.74-.95-.94-.06-.06-.1-.08-.13-.07-.01.03.18.48.56,1.34.23.51.45,1.01.67,1.51.03.07.03.12,0,.16,0,.01-.05.05-.13.12-.11.11-.2.15-.26.13-.35-.11-.84-.29-1.48-.54-.67-.26-1.17-.44-1.48-.55-.02,0-.04,0-.06,0,0,.03.03.07.07.11.21.2.53.49.96.88.43.39.75.68.96.88.08.07.08.13.02.19l-1.07,1.01s-.08.06-.1.05c-.02,0-.05-.02-.09-.06-.23-.22-.57-.56-1.01-1.03-.44-.46-.78-.81-1.01-1.03-.25-.23-.72-.66-1.42-1.29-.18-.17-.45-.41-.82-.72l-.06-.05s-.02-.1.07-.19c.12-.11.29-.28.52-.51.23-.23.4-.4.52-.51.02-.02.1-.01.23.03l2.98,1.06c.2.07.33.08.37.04.02-.02,0-.15-.09-.37-.23-.63-.59-1.57-1.07-2.83-.05-.11-.05-.19,0-.23.06-.06.16-.14.29-.26.13-.11.23-.2.29-.26.05-.05.13-.13.23-.25s.18-.2.23-.25c.06-.06.12-.07.17-.02.25.24.62.6,1.1,1.1.48.49.85.86,1.1,1.1.23.22.59.54,1.08.97s.84.74,1.07.96Z"/>
      <path class="cls-7" d="M235.43,263.03c.09.09.24.26.45.53.23.29.35.47.37.55.01.06,0,.12-.04.16-.02.02-.05.05-.11.08-.18.13-.64.55-1.39,1.26-.16.16-.41.39-.74.69-.33.3-.57.53-.73.69-.07.07-.14.07-.2.01-.24-.23-.58-.58-1.04-1.06-.45-.48-.8-.83-1.04-1.06-.24-.23-.71-.65-1.4-1.25-.18-.16-.44-.39-.8-.69l-.05-.04c-.05-.04-.05-.09,0-.15.16-.15.4-.37.72-.66s.57-.51.72-.66c.16-.15.39-.37.69-.68.3-.31.54-.53.69-.68.11-.1.22-.13.32-.06.06.04.22.16.5.38.27.21.43.35.49.4.04.04.05.08,0,.12-.01.01-.04.03-.07.06-.61.49-1.15.96-1.6,1.38-.11.11-.16.2-.13.27.02.04.09.12.23.25.15.14.26.21.35.21.08,0,.17-.04.27-.14.02-.02.06-.06.12-.12.06-.06.11-.11.15-.15.27-.25.53-.52.79-.8.02-.02.08-.08.16-.18.06-.08.12-.14.16-.18.05-.05.1-.05.15,0-.04-.04.1.13.43.52.15.18.32.35.49.51.04.04.03.09-.03.15l-.32.24c-.13.1-.42.36-.85.77l-.34.32c-.09.08-.12.15-.09.21,0,.01.07.08.2.19.16.15.28.24.35.27.12.04.3-.04.55-.25,0,0,.15-.14.47-.44.11-.11.27-.28.47-.51.2-.23.36-.4.47-.5.05-.04.11-.03.19.04Z"/>
      <path class="cls-7" d="M237.56,260.1c.43.41.62.94.57,1.57-.05.56-.26,1.1-.65,1.6-.02.02-.03.03-.04.04-.05.05-.31,0-.78-.12-.47-.12-.74-.22-.8-.28-.02-.02-.02-.05,0-.09.24-.36.38-.61.43-.75.11-.32.06-.58-.16-.78-.14-.13-.37-.21-.68-.23-.54-.04-.84-.06-.89-.07-.37-.07-.69-.23-.96-.49-.39-.37-.53-.85-.43-1.44.08-.48.3-.96.67-1.42.02-.02.04-.04.05-.05.03-.03.08-.03.15,0,.21.09.62.24,1.23.43.02,0,.03.01.04.02.04.03.03.07,0,.11-.02.02-.05.04-.1.07-.05.03-.08.06-.1.08-.15.15-.25.31-.3.48-.06.21-.01.38.13.52.13.12.37.2.71.24.61.07.93.1.96.11.39.08.7.23.93.45Z"/>
    </g>
    <text class="cls-13" transform="translate(292.06 358.22) rotate(-43.49) skewX(3.02)"><tspan x="0" y="0">DRPCIV</tspan></text>
    <g>
      <path class="cls-7" d="M344.73,571.02c.46.44.72.91.76,1.41.04.53-.16,1.02-.62,1.45-.08.07-.2.18-.36.32-.16.14-.28.24-.36.32-.08.08-.09.15-.02.22.09.08.23.2.42.35.19.15.33.26.42.35.04.04.05.08,0,.12-.12.11-.29.27-.54.49-.24.21-.42.38-.54.49-.06.05-.11.05-.17,0-.21-.2-.53-.51-.95-.92-.42-.41-.74-.72-.95-.92-.6-.57-1.26-1.14-1.97-1.72l-.04-.03s-.03-.08.02-.15c.13-.16.45-.48.96-.96.3-.29.59-.55.87-.81.47-.42.98-.63,1.52-.63.56,0,1.07.21,1.52.64ZM343.63,572.15c-.45-.42-.89-.43-1.32-.02-.31.29-.45.46-.43.51.01.04.23.25.64.65.06.06.15.14.27.24s.21.19.27.24c.04.04.23-.11.57-.44.42-.39.41-.79,0-1.19Z"/>
      <path class="cls-7" d="M350.3,570.55c-.16.16-.38.36-.65.6-.35.32-.57.52-.66.6l-.87.8c-.08.08-.21.2-.38.34-.07.04-.12.04-.17,0-.21-.2-.52-.5-.93-.9-.41-.4-.72-.7-.93-.9-.22-.21-.56-.52-1.02-.93-.46-.41-.8-.72-1.02-.93-.04-.04-.04-.09.02-.14.06-.05.15-.13.27-.24s.21-.18.26-.23c.06-.06.15-.15.27-.28.12-.12.21-.22.27-.28.03-.03.06-.02.09.01l.04.04c.34.36.85.9,1.54,1.61l.75.72c.24.23.42.4.54.51.03.02.05.04.08.06.02.02.05.02.09,0,0,0,.03-.03.07-.07.17-.16.42-.42.75-.76.33-.34.57-.6.75-.76.05-.05.1-.05.14-.01.33.31.59.6.77.87.04.06.05.1.03.14,0,.01-.04.05-.11.12Z"/>
      <path class="cls-7" d="M354.55,566.3s.03.08,0,.14c-.04.07-.21.24-.51.53-.27.26-.46.42-.55.48-.08.05-.16.05-.25,0-.34-.2-.54-.29-.59-.28-.04.02-.31.25-.79.71-.33.31-.49.48-.49.52,0,.06.06.19.2.39.12.19.16.31.13.37-.05.08-.26.29-.63.64-.29.28-.47.39-.52.34-.05-.05-.44-.83-1.19-2.35-.8-1.65-1.24-2.55-1.33-2.71-.05-.09-.06-.15-.03-.18.05-.05.14-.12.25-.21.12-.09.2-.17.26-.22.05-.05.12-.12.22-.23.09-.1.17-.18.22-.22.04-.03.1-.04.2,0,.29.1,1.26.5,2.89,1.18,1.64.69,2.49,1.06,2.54,1.11ZM349.9,565.75c.04.12.16.36.34.71.2.38.32.6.37.65.03.03.11,0,.23-.11.06-.05.16-.14.3-.27.13-.12.18-.2.16-.24,0-.01-.02-.03-.03-.04-.06-.06-.28-.18-.65-.37-.36-.18-.6-.29-.72-.32Z"/>
      <path class="cls-7" d="M354.81,558.71c.22.21.54.53.96.96.42.43.74.75.96.96l1.89,1.79c.05.05.05.1,0,.15-.05.04-.11.11-.2.2-.09.09-.16.16-.2.2-.05.05-.13.11-.23.2-.11.09-.19.15-.24.2-.03.03-.11.04-.22.03-.32-.05-1.04-.14-2.16-.29-.31-.04-.77-.1-1.39-.17-.02,0-.04,0-.08,0,0,.03.01.05.04.08.22.21.56.52,1.02.93.46.41.8.72,1.02.93.07.06.08.12.02.17l-.99.94c-.06.05-.11.05-.17,0-.21-.2-.51-.5-.9-.92-.4-.42-.7-.72-.91-.92-.22-.21-.56-.51-1.01-.91-.46-.4-.79-.7-1.01-.91-.04-.04-.03-.1.05-.17.11-.11.24-.24.39-.41.04-.04.1-.12.19-.25.08-.11.15-.19.2-.24.02-.02.09-.02.2,0l2.54.38c.23.03.56.08,1.01.14.11,0,.18,0,.21-.03.02-.02-.04-.11-.19-.25-.2-.19-.51-.47-.94-.83-.43-.36-.74-.64-.94-.83-.07-.07-.09-.12-.04-.16.11-.11.28-.28.5-.51.22-.23.39-.4.51-.51.04-.03.08-.02.14.03Z"/>
      <path class="cls-7" d="M361.33,558.31c.08.08.22.24.4.48.21.26.32.42.34.49.01.06,0,.1-.04.14-.02.02-.05.04-.09.07-.16.11-.58.49-1.25,1.13-.15.14-.37.35-.66.62-.29.27-.51.48-.66.62-.06.06-.12.06-.18.01-.21-.2-.52-.52-.93-.95-.4-.43-.71-.75-.93-.95-.22-.21-.64-.58-1.25-1.12-.16-.14-.4-.35-.72-.62l-.04-.04s-.05-.08,0-.13c.14-.13.36-.33.65-.59.29-.26.51-.46.65-.59.14-.13.35-.34.62-.61.27-.27.48-.48.62-.61.1-.09.19-.11.28-.06.05.03.2.14.44.34.24.19.39.31.44.36.04.04.04.08,0,.11-.01.01-.03.03-.06.05-.55.44-1.03.86-1.44,1.24-.1.1-.14.18-.12.24.01.03.08.11.21.22.13.12.23.19.32.19.07,0,.15-.04.24-.13.02-.02.06-.05.11-.11.05-.06.1-.1.13-.14.24-.23.48-.47.71-.71.02-.02.07-.08.14-.16.06-.07.11-.12.14-.16.05-.04.09-.04.13,0-.04-.04.09.12.39.47.14.16.28.31.44.46.04.04.03.08-.03.13l-.29.22c-.12.09-.37.32-.76.69l-.3.29c-.08.08-.11.14-.08.19,0,.01.07.07.17.17.15.14.25.22.31.24.1.04.27-.04.5-.23,0,0,.14-.13.42-.4.1-.1.24-.25.42-.45.18-.21.32-.36.42-.45.04-.04.1-.03.17.04Z"/>
      <path class="cls-7" d="M362.25,553.15s.04.07,0,.11c-.07.07-.37.33-.91.78.47.47.8.8,1,.98.23.21.57.53,1.05.94.47.41.82.73,1.05.94.04.03.05.06.04.09,0,0-.02.04-.07.09-.1.12-.26.29-.48.5-.25.23-.43.39-.54.47-.06.04-.12.04-.17,0-.22-.21-.55-.54-.99-.99-.43-.45-.76-.78-.99-.99-.15-.14-.49-.45-1.02-.93-.34.4-.63.71-.86.92-.03.03-.06.03-.08.02-.02-.02-.09-.11-.18-.25-.1-.16-.17-.25-.19-.28-.08-.09-.17-.18-.25-.28-.13-.15-.18-.24-.15-.27,0,0,.02-.02.04-.04.35-.26.83-.67,1.44-1.25.17-.16.47-.48.9-.96.23-.25.34-.38.35-.38.04-.04.06-.05.07-.06.01,0,.03.01.07.04.05.05.12.12.21.21.1.1.17.17.21.21.05.05.12.11.23.18.1.08.18.14.23.18Z"/>
      <path class="cls-7" d="M356.07,578.19c.06.05.06.1,0,.15-.04.03-.16.11-.38.24-.22.12-.35.2-.41.22-.24.53-.55.97-.92,1.32-.59.56-1.27.83-2.05.82-.76-.01-1.44-.3-2.04-.86-.61-.58-.93-1.22-.96-1.95-.04-.75.24-1.41.84-1.97.29-.28.62-.48.99-.62.4-.15.79-.19,1.17-.13.08.01.13.03.15.05.06.06.11.27.15.63.04.36.04.57-.01.62-.01.01-.09.02-.25.01-.19,0-.36.02-.51.07-.22.06-.42.18-.6.34-.29.27-.41.59-.36.95.04.34.21.64.5.92.31.3.64.45.99.47.35.02.69-.12,1-.41.2-.19.36-.44.51-.76-.07-.05-.25-.19-.53-.41-.22-.17-.4-.31-.52-.42-.04-.04-.05-.07-.03-.1,0-.01.02-.03.04-.05.06-.05.14-.13.27-.22.12-.1.21-.17.27-.23.06-.06.15-.15.26-.27.11-.12.2-.21.26-.27.05-.04.1-.04.17.02.09.09.23.22.4.41.18.19.31.32.4.41.25.23.64.57,1.16,1l.03.03Z"/>
      <path class="cls-7" d="M360.28,574.24s.03.08,0,.14c-.04.07-.21.24-.51.53-.27.26-.46.42-.55.48-.08.05-.16.05-.25,0-.34-.2-.54-.29-.59-.28-.04.02-.31.25-.79.71-.33.31-.49.48-.49.52,0,.06.06.19.2.39.12.19.16.31.13.37-.05.08-.26.29-.63.64-.29.28-.47.39-.52.34-.05-.05-.44-.83-1.19-2.35-.8-1.65-1.24-2.55-1.33-2.71-.05-.09-.06-.15-.03-.18.05-.05.14-.12.25-.21.12-.09.2-.17.26-.22.05-.05.12-.12.22-.23.09-.1.17-.18.22-.22.04-.03.1-.04.19,0,.29.1,1.26.5,2.89,1.18,1.64.69,2.49,1.06,2.54,1.11ZM355.63,573.69c.04.12.16.36.34.71.2.38.32.6.37.65.03.03.11,0,.23-.11.06-.05.16-.14.3-.27.13-.12.18-.2.16-.24,0-.01-.02-.03-.04-.04-.06-.06-.28-.18-.65-.37s-.6-.29-.72-.32Z"/>
      <path class="cls-7" d="M364.83,569.89c.06.06.06.11,0,.16l-1.02.96c-.06.05-.12.05-.18-.02-.19-.18-.48-.46-.85-.84-.37-.38-.66-.66-.85-.84-.06-.05-.09-.07-.11-.06-.01.03.16.43.5,1.21.2.45.4.91.6,1.36.02.06.03.11,0,.14,0,.01-.04.05-.11.11-.1.09-.18.13-.24.11-.31-.1-.75-.26-1.33-.48-.6-.23-1.05-.4-1.33-.49-.01,0-.03,0-.06,0,0,.03.02.06.06.1.19.18.47.44.86.79.39.35.67.61.86.79.07.06.07.12.02.17l-.96.91s-.07.05-.09.05c-.02,0-.05-.02-.08-.05-.21-.2-.51-.5-.91-.92-.4-.42-.7-.72-.91-.92-.22-.21-.65-.6-1.28-1.16-.16-.15-.41-.37-.73-.65l-.05-.04s-.02-.09.06-.17c.1-.1.26-.25.46-.46.2-.21.36-.36.46-.46.02-.02.09-.01.21.03l2.68.95c.18.06.3.07.34.04.02-.02,0-.13-.08-.33-.21-.57-.53-1.41-.96-2.54-.04-.1-.04-.17,0-.21.06-.05.14-.13.26-.23.12-.1.2-.18.26-.23.05-.04.12-.12.21-.22.09-.1.16-.18.2-.22.06-.05.11-.06.16-.02.22.21.55.54.99.98.43.44.76.77.99.98.21.2.53.49.96.87.44.38.76.67.96.86Z"/>
      <path class="cls-7" d="M367.5,565.83c.08.08.22.24.41.48.2.26.32.42.34.49.01.06,0,.1-.04.14-.02.02-.05.04-.1.07-.16.11-.58.49-1.25,1.13-.15.14-.37.35-.66.62-.29.27-.51.48-.66.62-.06.06-.12.06-.18.01-.21-.2-.52-.52-.93-.95-.41-.43-.72-.75-.93-.95-.22-.21-.64-.58-1.25-1.12-.16-.14-.4-.35-.72-.62l-.04-.04s-.05-.08,0-.13c.14-.13.36-.33.65-.6.29-.26.51-.46.65-.59.14-.13.35-.33.62-.61s.48-.48.62-.61c.1-.09.19-.11.28-.06.05.03.2.15.44.34.24.19.39.31.44.36.04.04.04.08,0,.11-.01.01-.03.03-.06.05-.55.44-1.03.86-1.43,1.24-.1.1-.14.18-.12.25.01.03.08.11.21.22.13.12.24.19.32.19.07,0,.15-.04.24-.12.02-.02.06-.05.11-.11.05-.06.1-.1.13-.13.24-.23.48-.47.71-.71.02-.02.07-.08.14-.16.06-.07.1-.12.14-.16.05-.04.09-.04.14,0-.04-.04.09.12.39.46.14.16.28.31.44.46.04.04.03.08-.03.13l-.29.22c-.12.09-.38.32-.76.69l-.3.29c-.08.07-.1.14-.08.18,0,.01.07.07.17.17.15.14.25.22.31.24.11.04.27-.04.5-.23,0,0,.14-.13.42-.4.1-.1.24-.25.43-.45.18-.21.32-.36.42-.45.04-.04.1-.03.17.04Z"/>
      <path class="cls-7" d="M369.42,563.21c.39.37.56.84.51,1.41-.04.5-.23.98-.58,1.44-.01.02-.02.03-.03.04-.04.04-.28,0-.7-.1-.42-.11-.66-.2-.72-.25-.02-.02-.02-.05,0-.08.21-.32.34-.55.39-.68.1-.28.05-.52-.14-.7-.12-.12-.33-.19-.61-.21-.49-.03-.75-.05-.8-.06-.33-.06-.62-.21-.86-.44-.35-.33-.48-.76-.39-1.29.07-.43.27-.86.6-1.28.02-.02.03-.04.05-.05.03-.03.07-.03.14,0,.19.08.56.21,1.11.39.02,0,.03.01.04.02.03.03.03.06,0,.09-.02.01-.04.04-.09.07-.04.03-.07.05-.09.07-.14.13-.23.27-.27.43-.05.19-.01.34.12.46.12.11.33.18.64.21.55.06.84.09.86.1.35.07.62.21.83.4Z"/>
    </g>
    <g>
      <path class="cls-7" d="M40.26,409.97v-1.34c.32,0,.49-.12.49-.35,0-.21-.12-.32-.37-.32s-.38.15-.38.44v3.34h-1.6v-3.18c0-.33.04-.6.1-.81s.19-.41.36-.59c.19-.2.43-.36.71-.48.28-.12.58-.18.88-.18.55,0,1.01.17,1.38.52s.56.78.56,1.3-.17.91-.5,1.22c-.31.29-.77.43-1.38.43h-.24Z"/>
      <path class="cls-7" d="M44.65,406.63v5.11h-1.6v-5.11h1.6Z"/>
      <path class="cls-7" d="M49.37,406.63l-1.67,3.64h1.65v1.47h-4.07l1.67-3.64h-1.76v-1.47h4.18Z"/>
      <path class="cls-7" d="M53.55,406.63l-1.67,3.64h1.65v1.47h-4.07l1.67-3.64h-1.76v-1.47h4.18Z"/>
      <path class="cls-7" d="M56.05,409.17v1.35h-.46v1.22h-1.6v-3.25c0-.63.18-1.12.54-1.47.36-.35.87-.52,1.53-.52s1.1.16,1.4.47c.3.32.45.8.45,1.46v3.3h-1.6v-3.2c0-.2-.03-.34-.08-.42s-.14-.12-.27-.12c-.25,0-.38.18-.38.53v.64h.46Z"/>
      <path class="cls-7" d="M38.19,417.21v3.74h-1.6v-5.11h2.06c.63,0,1.11.15,1.46.44.38.33.58.75.58,1.25s-.24.95-.71,1.31l.92,2.11h-1.68l-.78-1.65v-1.31h.13c.34,0,.51-.14.51-.41,0-.24-.19-.36-.58-.36h-.28Z"/>
      <path class="cls-7" d="M43.03,415.83v5.11h-1.6v-5.11h1.6Z"/>
      <path class="cls-7" d="M43.99,420.94v-3.69c0-.46.15-.83.44-1.12.29-.29.67-.43,1.14-.43.55,0,.98.24,1.28.72.18-.26.38-.45.58-.56.21-.11.46-.17.77-.17.48,0,.86.14,1.11.43.26.29.39.71.39,1.25v3.55h-1.6v-3.33c0-.17-.01-.27-.04-.33s-.08-.08-.17-.08c-.16,0-.24.13-.24.38v3.35h-1.6v-3.33c0-.16-.01-.27-.04-.33-.03-.05-.09-.08-.17-.08-.16,0-.24.14-.24.41v3.33h-1.6Z"/>
      <path class="cls-7" d="M52.27,415.83v5.11h-1.6v-5.11h1.6Z"/>
      <path class="cls-7" d="M53.24,420.94v-3.32c0-.58.18-1.05.55-1.4s.86-.52,1.47-.52,1.07.17,1.4.51c.32.34.48.83.48,1.46v3.27h-1.6v-3.27c0-.31-.12-.47-.35-.47s-.34.16-.34.47v3.27h-1.6Z"/>
      <path class="cls-7" d="M59.72,415.83v5.11h-1.6v-5.11h1.6Z"/>
    </g>
    <text class="cls-15" transform="translate(27.47 623.23) rotate(-45) scale(1.05 1)"><tspan x="0" y="0">DELIZIOSO</tspan></text>
    <g>
      <path class="cls-7" d="M47.32,384.65v1.46c-.12-.04-.21-.06-.27-.06-.12,0-.23.04-.31.13s-.13.19-.13.31c0,.1.05.23.14.39l.12.2c.22.37.33.72.33,1.06,0,.5-.19.92-.56,1.26-.37.34-.83.52-1.36.52-.26,0-.51-.06-.77-.17v-1.48c.15.09.29.14.41.14.14,0,.26-.04.35-.11.09-.08.14-.17.14-.29,0-.08-.08-.24-.23-.49-.24-.4-.36-.8-.36-1.2,0-.48.18-.9.54-1.25.36-.35.79-.52,1.3-.52.22,0,.44.03.65.1Z"/>
      <path class="cls-7" d="M49.73,384.68v5.11h-1.6v-5.11h1.6Z"/>
      <path class="cls-7" d="M53.34,384.65v1.46c-.12-.04-.21-.06-.27-.06-.12,0-.23.04-.31.13s-.13.19-.13.31c0,.1.05.23.14.39l.12.2c.22.37.33.72.33,1.06,0,.5-.19.92-.56,1.26-.37.34-.83.52-1.36.52-.26,0-.51-.06-.77-.17v-1.48c.15.09.29.14.41.14.14,0,.26-.04.35-.11.09-.08.14-.17.14-.29,0-.08-.08-.24-.23-.49-.24-.4-.36-.8-.36-1.2,0-.48.18-.9.54-1.25.36-.35.79-.52,1.3-.52.22,0,.44.03.65.1Z"/>
      <path class="cls-7" d="M39.51,393.88v5.11h-1.6v-5.11h1.6ZM42.58,393.88l-1.42,2.32,1.41,2.79h-1.8l-1.22-2.82,1.38-2.29h1.65Z"/>
      <path class="cls-7" d="M45.99,395.87v1.14h-1.05c-.14,0-.24.02-.3.06-.06.04-.09.11-.09.2,0,.11.03.18.09.21.06.03.18.05.37.05h1.08v1.46h-1.26c-.59,0-1.05-.13-1.36-.4-.31-.27-.47-.66-.47-1.16v-2c0-.49.15-.87.44-1.14.3-.27.71-.4,1.25-.4h1.39v1.47h-1.02c-.28,0-.41.08-.41.25,0,.1.03.17.1.21s.18.06.35.06h.88Z"/>
      <path class="cls-7" d="M47.02,393.88h1.96c1.16,0,1.74.43,1.74,1.3,0,.43-.2.79-.6,1.07.58.24.86.66.86,1.27,0,.47-.17.84-.51,1.12-.17.13-.34.22-.53.28-.19.05-.44.08-.77.08h-.3v-1.31h.27c.16,0,.27-.02.34-.06.07-.04.1-.11.1-.2,0-.17-.13-.25-.4-.25h-.31v-1.36c.29,0,.44-.1.44-.29,0-.18-.13-.27-.4-.27h-.3v3.74h-1.6v-5.11Z"/>
      <path class="cls-7" d="M53.59,396.43v1.35h-.46v1.22h-1.6v-3.25c0-.63.18-1.12.54-1.47.36-.35.87-.52,1.53-.52s1.1.16,1.4.47c.3.32.45.8.45,1.46v3.3h-1.6v-3.2c0-.2-.03-.34-.08-.42-.05-.08-.14-.12-.27-.12-.25,0-.38.18-.38.53v.64h.46Z"/>
      <path class="cls-7" d="M56.42,393.88h1.96c1.16,0,1.74.43,1.74,1.3,0,.43-.2.79-.6,1.07.58.24.86.66.86,1.27,0,.47-.17.84-.51,1.12-.17.13-.34.22-.53.28-.19.05-.44.08-.77.08h-.3v-1.31h.27c.16,0,.27-.02.34-.06.07-.04.1-.11.1-.2,0-.17-.13-.25-.4-.25h-.31v-1.36c.29,0,.44-.1.44-.29,0-.18-.13-.27-.4-.27h-.3v3.74h-1.6v-5.11Z"/>
    </g>
    <text class="cls-13" transform="translate(139.62 679.98) rotate(1.51) skewX(3.02)"><tspan x="0" y="0">LENTO</tspan></text>
    <g>
      <path class="cls-7" d="M203.33,657.16s-.01.05-.05.05c-.03,0-.1-.02-.22-.05-.12-.03-.2-.05-.23-.07-.28.1-.55.15-.8.14-.42-.01-.76-.16-1.03-.44-.27-.28-.41-.63-.42-1.04-.01-.43.11-.78.35-1.05.26-.28.59-.42,1.01-.41.2,0,.4.05.58.13.2.09.35.22.47.37.02.03.04.06.04.07,0,.04-.06.14-.17.28-.12.15-.19.22-.23.22,0,0-.04-.03-.1-.08-.07-.07-.14-.12-.21-.16-.1-.06-.22-.09-.34-.09-.2,0-.36.07-.47.21-.11.14-.16.31-.15.51,0,.22.07.39.19.53.12.13.29.21.51.21.14,0,.29-.03.46-.09,0-.04-.02-.16-.04-.34-.02-.14-.03-.25-.04-.34,0-.03,0-.04.03-.05,0,0,.02,0,.03,0,.04,0,.1,0,.18.02.08,0,.14.01.18.01.04,0,.11,0,.19,0,.09,0,.15,0,.19,0,.03,0,.05.02.05.07,0,.07,0,.16,0,.29,0,.13,0,.23,0,.29,0,.17.02.43.06.78v.02Z"/>
      <path class="cls-7" d="M206.38,655.89c.01.42-.11.77-.37,1.04-.27.28-.61.41-1.03.4-.41-.01-.76-.16-1.05-.46-.28-.29-.42-.64-.43-1.06-.01-.42.11-.77.38-1.04.27-.28.61-.42,1.02-.41.41.01.76.17,1.04.46.28.29.42.65.43,1.06ZM205.61,655.87c0-.2-.07-.37-.2-.52-.13-.15-.3-.23-.5-.23-.19,0-.35.07-.48.22-.12.15-.18.31-.18.51,0,.21.07.38.19.52.13.15.3.22.5.23.19,0,.35-.07.48-.21.12-.14.18-.31.18-.5Z"/>
      <path class="cls-7" d="M209.48,655.98c.01.42-.11.77-.37,1.04-.27.28-.61.41-1.02.4-.42-.01-.76-.17-1.05-.46-.28-.29-.42-.64-.43-1.06-.01-.42.11-.77.38-1.04.27-.29.61-.42,1.02-.41.41.01.76.17,1.04.46.28.29.42.65.43,1.06ZM208.71,655.95c0-.2-.07-.37-.2-.52-.13-.15-.3-.23-.5-.23-.19,0-.35.07-.48.22-.12.15-.18.31-.18.51,0,.21.07.38.19.52.13.15.3.22.5.23.19,0,.35-.07.48-.21.12-.14.18-.31.18-.5Z"/>
      <path class="cls-7" d="M212.41,656.04c.01.4-.11.74-.35,1.02-.22.25-.53.38-.93.38-.08,0-.29,0-.64-.01-.07,0-.17,0-.3-.01-.13,0-.23-.01-.3-.01-.04,0-.06-.02-.06-.05,0-.15,0-.37,0-.67,0-.3,0-.52,0-.67,0-.16-.02-.39-.04-.7-.02-.31-.03-.54-.04-.69,0-.03.02-.04.06-.05.1,0,.25,0,.47,0,.41.01.68.02.8.04.32.04.57.13.75.26.17.13.31.3.41.52.1.21.15.42.16.64ZM211.63,656.01c0-.23-.08-.41-.22-.56-.14-.15-.32-.23-.55-.24-.21,0-.31.02-.31.08,0,.08,0,.2,0,.36,0,.16,0,.28,0,.36,0,.08,0,.2.01.35,0,.16.01.27.01.35,0,.06.11.09.32.09.23,0,.41-.07.54-.22.12-.14.18-.33.17-.57Z"/>
      <path class="cls-7" d="M207.68,661.71s0,.08,0,.14c0,.06,0,.11,0,.14s0,.08,0,.15c0,.07,0,.12,0,.15,0,.03-.02.05-.06.05-.02,0-.08-.01-.19-.04-.12-.03-.35-.05-.69-.06-.1,0-.26,0-.46,0-.21,0-.36,0-.46,0-.03,0-.05-.02-.06-.05,0-.05-.02-.11-.04-.2-.04-.14-.06-.22-.06-.24,0-.03.06-.05.17-.06.13-.01.21-.04.25-.07.13-.11.27-.25.4-.42.18-.21.26-.38.26-.49,0-.1-.04-.18-.11-.24-.07-.07-.15-.1-.25-.1-.11,0-.21.02-.32.06-.07.02-.14.06-.22.11-.06.04-.1.06-.11.06-.05,0-.07-.06-.07-.16,0-.08,0-.14-.02-.18,0-.02-.01-.05-.03-.11-.02-.05-.03-.08-.03-.1,0-.02.01-.03.03-.05.11-.08.26-.13.44-.18.17-.04.33-.05.48-.05.26,0,.47.07.65.19.21.14.31.33.32.57,0,.32-.23.7-.71,1.11.35,0,.62,0,.82,0,.04,0,.06.03.06.08Z"/>
      <path class="cls-7" d="M206.61,667.15s-.01.05-.05.05c-.03,0-.1-.02-.22-.05-.12-.03-.2-.05-.23-.07-.28.1-.55.15-.8.14-.42-.01-.76-.16-1.03-.44-.27-.28-.41-.63-.42-1.04-.01-.43.11-.78.36-1.05.26-.28.59-.42,1.01-.41.2,0,.4.05.58.13.2.09.35.22.47.38.02.03.04.06.04.07,0,.04-.06.14-.17.28s-.19.22-.23.22c0,0-.04-.03-.1-.08-.07-.07-.14-.12-.21-.16-.1-.06-.22-.09-.34-.09-.2,0-.36.07-.47.21-.11.14-.16.31-.15.51,0,.22.07.39.19.52.12.13.29.2.51.21.14,0,.29-.03.46-.09,0-.05-.02-.16-.04-.34-.02-.14-.03-.25-.04-.34,0-.03,0-.04.03-.05,0,0,.02,0,.03,0,.04,0,.1,0,.18.02.08,0,.14.01.18.02.04,0,.11,0,.19,0,.09,0,.15,0,.19,0,.03,0,.05.02.05.07,0,.07,0,.16,0,.29,0,.13,0,.23,0,.29,0,.17.02.43.06.78v.02Z"/>
      <path class="cls-7" d="M209.66,665.88c.01.42-.11.77-.37,1.04-.27.28-.61.41-1.02.4-.41-.01-.76-.17-1.05-.46-.28-.29-.42-.64-.43-1.06-.01-.42.11-.77.38-1.04.27-.29.61-.42,1.02-.41.41.01.76.17,1.04.46.28.29.42.65.43,1.07ZM208.89,665.86c0-.2-.07-.38-.2-.52-.13-.15-.3-.23-.5-.23-.19,0-.35.07-.48.22-.12.14-.18.31-.18.51,0,.21.07.38.19.52.13.15.3.22.5.23.19,0,.35-.07.48-.21.12-.14.18-.31.18-.5Z"/>
    </g>
  </g>
  <polygon id="Atrium_AradS268_269" data-name="Atrium AradS268_269" class="cls-2" points="79.8 288.24 79.8 327.09 18.05 327.09 18.05 292.8 30.16 292.8 30.16 288.24 79.8 288.24"/>
  <rect id="Atrium_AradS267" data-name="Atrium AradS267" class="cls-2" x="18.05" y="328.89" width="61.75" height="33.58"/>
  <rect id="Atrium_AradS264" data-name="Atrium AradS264" class="cls-3" x="18.05" y="404.07" width="61.75" height="19.79"/>
  <polygon id="Atrium_AradS292" data-name="Atrium AradS292" class="cls-3" points="11.22 425.18 79.8 425.18 79.8 469.91 55.82 469.91 55.82 449.64 11.22 449.64 11.22 425.18"/>
  <polygon id="Atrium_AradS201" data-name="Atrium AradS201" class="cls-3" points="80.38 480.4 80.38 533.22 52.72 533.22 52.72 481.18 80.38 480.4"/>
  <polygon id="Atrium_AradS290" data-name="Atrium AradS290" class="cls-3" points="80.38 534.54 80.38 589.7 34.6 589.7 25.97 534.54 80.38 534.54"/>
  <polygon id="Atrium_AradS288" data-name="Atrium AradS288" class="cls-3" points="21.89 598.33 48.15 598.33 48.15 626.63 24.53 626.63 21.89 598.33"/>
  <rect id="Atrium_AradS287" data-name="Atrium AradS287" class="cls-3" x="134.23" y="650.36" width="50.72" height="53.6"/>
  <rect id="Atrium_AradS286" data-name="Atrium AradS286" class="cls-3" x="199.22" y="650.13" width="14.55" height="20.15"/>
  <polygon id="Atrium_AradS284" data-name="Atrium AradS284" class="cls-3" points="479.48 703.63 552.78 703.63 561.89 712.71 627.14 712.91 533.68 619.9 501.94 650.03 463.06 650.03 463.06 677.18 463.06 703.73 479.48 703.63"/>
  <polygon id="Atrium_AradS282A_T02" data-name="Atrium AradS282A^T02" class="cls-3" points="661.26 712.81 721.47 712.81 672 663.34 672.47 662.55 569.29 559.37 528.89 599.77 540.86 611.74 550.69 601.92 661.26 712.81"/>
  <polygon id="Atrium_AradS281" data-name="Atrium AradS281" class="cls-3" points="544.13 582.38 531.37 569.62 514.99 586 527.7 598.71 544.13 582.38"/>
  <polygon id="Atrium_AradS279_280" data-name="Atrium AradS279_280" class="cls-3" points="506.16 575.89 451.07 523.36 500.39 476.88 555.48 529.22 506.16 575.89"/>
  <polygon id="Atrium_AradS215A" data-name="Atrium AradS215A" class="cls-3" points="11.08 273.45 11.08 111.18 127.05 111.18 222.27 15.95 345.66 139.35 346.12 138.9 386.81 179.59 288.42 272.8 240.39 228.37 245.25 223.51 238.13 216.39 247.12 207.4 225.8 186.99 161.93 247.59 126.43 243.06 126.43 273.45 11.08 273.45"/>
  <path id="Atrium_AradS255D" data-name="Atrium AradS255D" class="cls-3" d="M231.16,561.99l-10.24,9.62c9.93,5.83,36.58,15.25,36.58,15.25l-26.34-24.87Z"/>
  <path id="Atrium_AradS255B_S255C-E" data-name="Atrium AradS255B^S255C-E" class="cls-3" d="M290.92,583.09l-14.36-13.26-3.31,3.31-5.34-4.85,10.12-9.88-21.54-20.52-24.05,23.05,27.92,26.35c14.95,5.41,42.73,7.8,42.73,7.8l-12.17-12.01Z"/>
  <polygon id="Atrium_AradS255A" data-name="Atrium AradS255A" class="cls-3" points="257.5 536.92 265.1 529.57 286.49 550.18 279.35 557.4 257.5 536.92"/>
  <polygon id="Atrium_AradS250A_STR201" data-name="Atrium AradS250A^STR201" class="cls-3" points="273.63 521.48 293.31 502.98 321.8 529.98 301.97 548.69 273.63 521.48"/>
  <polygon id="Atrium_AradDS4_S250B_STR200" data-name="Atrium AradDS4^S250B^STR200" class="cls-3" points="294.51 502 313.16 484.42 341.63 511.16 322.82 529 294.51 502"/>
  <polygon id="Atrium_AradS251" data-name="Atrium AradS251" class="cls-3" points="342.67 512.26 317.44 536.38 323.91 542.57 331.5 535.47 345.29 548.69 363.49 531.75 342.67 512.26"/>
  <path id="Atrium_AradS252" data-name="Atrium AradS252" class="cls-3" d="M364.37,532.8l41.1,38.89c-38.6,24.19-69.83,23.06-69.83,23.06l-18.49-17.69,47.22-44.26Z"/>
  <polygon id="Atrium_AradS274" data-name="Atrium AradS274" class="cls-3" points="351.36 429.13 371.29 410.21 395.71 433.53 396.15 432.8 399.39 435.95 379.58 455.57 351.36 429.13"/>
  <polygon id="Atrium_AradS275" data-name="Atrium AradS275" class="cls-3" points="380.75 456.7 398.57 473.78 417.75 454.43 400.33 437.02 380.75 456.7"/>
  <polyline id="Atrium_AradS276" data-name="Atrium AradS276" class="cls-3" points="431.72 468.31 418.82 455.57 399.39 474.67 412.52 487.25"/>
  <polygon id="Atrium_AradS277" data-name="Atrium AradS277" class="cls-3" points="416.93 490.85 440.87 466.5 454.11 479.79 430.21 503.6 416.93 490.85"/>
  <polygon id="Atrium_AradS278" data-name="Atrium AradS278" class="cls-3" points="431.25 504.69 449.67 522.42 474.13 499.73 455.11 480.92 431.25 504.69"/>
  <polyline class="cls-3" points="457.32 482 475.15 464.17 478.36 467.38 471.93 473.81 486.74 488.63"/>
  <line class="cls-3" x1="478.36" y1="467.38" x2="484.73" y2="461.01"/>
  <rect id="Atrium_AradS285" data-name="Atrium AradS285" class="cls-3" x="433.49" y="650.29" width="29.57" height="22.64"/>
  <polygon id="Atrium_AradS283" data-name="Atrium AradS283" class="cls-3" points="215.52 650.29 215.52 703.5 463.06 703.5 463.06 674.37 433.14 674.37 433.14 650.29 215.52 650.29"/>
  <polygon id="Atrium_AradS265" data-name="Atrium AradS265" class="cls-3" points="17.79 382.98 17.79 401.22 79.47 401.22 79.47 383.18 17.79 382.98"/>
  <polygon id="Atrium_AradS215x" data-name="Atrium AradS215x" class="cls-3" points="169.71 254.12 209.82 216.07 268.23 271.69 229.21 310.72 169.71 254.12"/>
  <polygon id="Atrium_AradS215B" data-name="Atrium AradS215B" class="cls-3" points="269.4 272.7 230.41 311.69 338.08 413.74 386.7 367.85 284.81 271.41 276.3 279.28 269.4 272.7"/>
  <polygon id="Atrium_AradS266" data-name="Atrium AradS266" class="cls-3" points="18.03 364.24 18.03 381.56 79.71 381.56 79.71 364.43 18.03 364.24"/>
</svg>