<?xml version="1.0" encoding="UTF-8"?>
<svg id="Layer_4" data-name="Layer 4" xmlns="http://www.w3.org/2000/svg" viewBox="0 0 748.91 724.26">
  <defs>
    <style>
      .cls-1 {
        letter-spacing: -.01em;
      }

      .cls-2, .cls-3, .cls-4 {
        fill: none;
        stroke-miterlimit: 10;
      }

      .cls-2, .cls-4 {
        stroke: #231f20;
      }

      .cls-5 {
        fill: #000;
      }

      .cls-5, .cls-6, .cls-7, .cls-8, .cls-9 {
        stroke-width: 0px;
      }

      .cls-6, .cls-10, .cls-11, .cls-12, .cls-13, .cls-14, .cls-15, .cls-16, .cls-17, .cls-18, .cls-19, .cls-20, .cls-21, .cls-22 {
        fill: #231f20;
      }

      .cls-10 {
        font-size: 7.67px;
      }

      .cls-10, .cls-11, .cls-12, .cls-13, .cls-14, .cls-15, .cls-16, .cls-17, .cls-18, .cls-19, .cls-20, .cls-21, .cls-22 {
        font-family: Axiforma-Bold, 'Axiforma Bold';
        font-weight: 700;
      }

      .cls-23 {
        letter-spacing: 0em;
      }

      .cls-11 {
        font-size: 18.78px;
      }

      .cls-24 {
        letter-spacing: 0em;
      }

      .cls-25 {
        letter-spacing: 0em;
      }

      .cls-26 {
        letter-spacing: 0em;
      }

      .cls-3 {
        stroke: #000;
      }

      .cls-12 {
        font-size: 25.77px;
      }

      .cls-13 {
        font-size: 7.46px;
      }

      .cls-14 {
        font-size: 7.47px;
      }

      .cls-27 {
        letter-spacing: 0em;
      }

      .cls-15 {
        font-size: 8.3px;
      }

      .cls-28 {
        letter-spacing: 0em;
      }

      .cls-29 {
        letter-spacing: -.08em;
      }

      .cls-30 {
        letter-spacing: 0em;
      }

      .cls-31 {
        letter-spacing: 0em;
      }

      .cls-32 {
        letter-spacing: -.01em;
      }

      .cls-33 {
        letter-spacing: -.01em;
      }

      .cls-16 {
        font-size: 12px;
      }

      .cls-17 {
        font-size: 2.88px;
      }

      .cls-7 {
        fill: #010101;
      }

      .cls-18 {
        font-size: 5.4px;
      }

      .cls-34 {
        letter-spacing: .03em;
      }

      .cls-35 {
        letter-spacing: -.08em;
      }

      .cls-4 {
        stroke-width: 2px;
      }

      .cls-36 {
        letter-spacing: -.07em;
      }

      .cls-37 {
        letter-spacing: 0em;
      }

      .cls-38 {
        letter-spacing: -.02em;
      }

      .cls-19 {
        font-size: 2.69px;
      }

      .cls-39 {
        letter-spacing: -.03em;
      }

      .cls-40 {
        letter-spacing: -.01em;
      }

      .cls-8 {
        fill: #f1f2f2;
      }

      .cls-41 {
        letter-spacing: 0em;
      }

      .cls-42 {
        letter-spacing: -.03em;
      }

      .cls-20 {
        font-size: 6.23px;
      }

      .cls-43 {
        letter-spacing: -.08em;
      }

      .cls-44 {
        letter-spacing: 0em;
      }

      .cls-9 {
        fill: #f47725;
      }

      .cls-45 {
        letter-spacing: -.08em;
      }

      .cls-46 {
        letter-spacing: -.02em;
      }

      .cls-21 {
        font-size: 10.49px;
      }

      .cls-47 {
        letter-spacing: .02em;
      }

      .cls-48 {
        letter-spacing: 0em;
      }

      .cls-22 {
        font-size: 11.96px;
      }
    </style>
  </defs>
  <g id="cladire">
    <g>
      <path class="cls-8" d="M559.55,719.26l-9.04-9.3H44.15v-77.07h-19.71c-3.27,0-6.04-2.55-6.31-5.81l-13.13-158.15V105.02h119.26L222.2,7.07l124.66,124.66c8.54-4.53,16.56-6.83,23.87-6.83,8.67,0,16.48,3.15,23.2,9.37l.14.13,240.92,240.93c12.32,12.96,13.26,30.21,2.77,48.89l88.06,88.06v106.06l-44.95,44.95,55.97,55.97h-177.29Z"/>
      <path class="cls-8" d="M222.2,14.14l76.33,76.33,47.47,47.47c8.9-5.25,17.17-8.04,24.73-8.04s13.91,2.58,19.8,8.04l240.84,240.84c12.29,12.92,10.72,29.4.1,46.23l1.33,1.33,88.02,88.02v101.92l-47.02,47.02,50.97,50.97h-163.1l-9.04-9.3h-9.3s-404.64,0-404.64,0H49.15v-75.74c0-.74-.6-1.33-1.33-1.33h-23.37c-.69,0-1.27-.53-1.33-1.22l-13.11-157.95V110.02h116.33L222.2,14.14M222.2,0l-7.07,7.07-92.94,92.94H0v369.12l.03.41,13.11,157.95c.48,5.83,5.44,10.4,11.29,10.4h14.71v77.07h504.18s5.07,0,5.07,0l6.09,6.27,2.95,3.03h191.47l-17.07-17.07-43.9-43.9,39.95-39.95,2.93-2.93v-110.2l-2.93-2.93-83.98-83.98c3.88-7.78,5.93-15.37,6.1-22.64.25-10.73-3.69-20.68-11.39-28.77l-.09-.09-.09-.09-240.84-240.84-.14-.14-.14-.13c-7.67-7.1-16.62-10.7-26.59-10.7-7.16,0-14.83,1.93-22.89,5.74l-42.24-42.24L229.27,7.07l-7.07-7.07h0Z"/>
      <path class="cls-4" d="M10,110.02h116.33L222.2,14.14l76.33,76.33,47.47,47.47c17.47-10.31,32.52-11.12,44.53,0l240.84,240.84c12.29,12.92,10.72,29.4.1,46.23l1.33,1.33,88.02,88.02v101.92l-47.02,47.02,50.97,50.97h-163.1l-9.04-9.3h-9.3s-404.64,0-404.64,0H49.15v-75.74c0-.74-.6-1.33-1.33-1.33h-23.37c-.69,0-1.27-.53-1.33-1.22l-13.11-157.95V110.02Z"/>
    </g>
  </g>
  <g id="magazine">
    <polygon class="cls-2" points="80.88 590.3 80.88 479.82 16.89 481.24 33.72 590.3 80.38 590.3 80.88 590.3"/>
    <polyline class="cls-2" points="185.61 704.95 185.61 649.37 133.57 649.37 133.57 704.95"/>
    <polyline class="cls-2" points="288.42 273.87 239.44 228.36 244.49 223.57 236.98 216.45 246.07 207.83 225.55 188.37 162.18 248.48 127.34 244.17 127.34 274.34 10.19 274.34"/>
    <line class="cls-2" x1="80.38" y1="327.99" x2="17.18" y2="327.99"/>
    <line class="cls-2" x1="17.18" y1="363.43" x2="80.38" y2="363.43"/>
    <polyline class="cls-2" points="10.19 450.6 54.92 450.6 54.92 470.72 80.38 470.72 80.38 327.99 80.38 287.76 29.46 287.76 29.46 292.07 17.18 292.07 17.18 403.07"/>
    <line class="cls-2" x1="80.38" y1="533.94" x2="25.06" y2="533.94"/>
    <line class="cls-2" x1="52.12" y1="480.4" x2="52.12" y2="533.94"/>
    <polyline class="cls-2" points="214.7 704.95 214.7 649.61 284.38 649.61 502.26 649.61 550.61 603.35 661.26 714"/>
    <line class="cls-2" x1="293.31" y1="502" x2="322.82" y2="529.98"/>
    <polyline class="cls-2" points="316.23 536.23 324 543.6 331.65 536.35 345.58 549.57 364.37 531.75"/>
    <polyline class="cls-2" points="335.44 595.49 316.01 577.06 345.29 549.29"/>
    <polyline class="cls-2" points="316.01 577.06 287.91 550.4 265.1 528.76 272.71 521.54 301.96 549.77 323.16 529.66 342.67 511.16"/>
    <polyline class="cls-2" points="287.76 550.26 279.16 558.42 256.49 536.92"/>
    <path class="cls-2" d="M319.18,580.06l-8.08,7.67-3.03,2.87-.35.33,5.44,5.16c35.52.93,68.51-7.21,93.42-24.32l-64.5-61.18-27.91-26.47-1.07-.9-46.52,44.13-46.83,44.42c25.99,14.4,55.82,22.38,85.1,24.15l-13.02-12.84-15.02-14.24-3.72,3.52-4.32-4.1,10.39-9.85"/>
    <line class="cls-2" x1="231.16" y1="560.95" x2="259.7" y2="588.02"/>
    <polyline class="cls-2" points="346 137.94 387.73 179.67 288.42 273.87 387.64 367.98 338.16 414.92 168.75 254.23 209.84 215.25 276.49 278.48 284.85 270.55"/>
    <line class="cls-2" x1="499.95" y1="476.12" x2="449.67" y2="523.81"/>
    <line class="cls-2" x1="17.18" y1="402.3" x2="80.38" y2="402.3"/>
    <polyline class="cls-2" points="80.38 403.07 17.18 403.07 17.18 424.61"/>
    <line class="cls-2" x1="10.19" y1="424.61" x2="80.38" y2="424.61"/>
    <polyline class="cls-3" points="20.71 597.79 48.78 597.79 48.78 628.44"/>
    <polyline class="cls-2" points="214.7 649.61 198.37 649.61 198.37 671.04 214.7 671.04"/>
    <polyline class="cls-2" points="540.72 612.82 527.74 599.84 569.23 558.35 673.98 663.1"/>
    <polyline class="cls-2" points="527.74 599.84 513.91 586.01 531.4 568.53 545.23 582.35"/>
    <line class="cls-2" x1="440.87" y1="465.56" x2="475.05" y2="499.73"/>
    <line class="cls-2" x1="455.11" y1="479.79" x2="430.21" y2="504.69"/>
    <polyline class="cls-2" points="396.15 431.76 432.13 467.75 412.52 487.93 350.49 429.09 371.23 409.41 395.47 432.4 425.01 404.38 556.55 529.15 506.26 576.85 416.4 491.61 415.59 490.8 464.66 441.99"/>
    <line class="cls-2" x1="418.82" y1="454.43" x2="398.57" y2="474.67"/>
    <line class="cls-2" x1="400.33" y1="435.95" x2="379.58" y2="456.7"/>
    <line class="cls-2" x1="534.28" y1="618.98" x2="629.14" y2="713.83"/>
    <line class="cls-2" x1="607.76" y1="660.5" x2="591.78" y2="676.47"/>
    <polyline class="cls-2" points="432.86 649.67 432.86 673.4 463.06 673.4"/>
    <line class="cls-2" x1="269.27" y1="271.86" x2="229.3" y2="311.83"/>
    <line class="cls-2" x1="17.11" y1="382.56" x2="80.31" y2="382.56"/>
  </g>
  <g id="logo">
    <text class="cls-12" transform="translate(109.86 210.62) rotate(-43.49) skewX(3.02)"><tspan x="0" y="0">CINE</tspan><tspan class="cls-48" x="50.74" y="0">M</tspan><tspan class="cls-23" x="71.2" y="0">A CI</tspan><tspan class="cls-34" x="113.54" y="0">T</tspan><tspan class="cls-41" x="127.06" y="0">Y</tspan></text>
    <text class="cls-10" transform="translate(23.07 313.92) scale(1.05 1)"><tspan x="0" y="0">MESOP</tspan><tspan class="cls-38" x="23.09" y="0">O</tspan><tspan class="cls-36" x="28.18" y="0">T</tspan><tspan class="cls-37" x="31.42" y="0">A</tspan><tspan x="36.08" y="0">MIA</tspan></text>
    <g>
      <path class="cls-6" d="M29.54,340.5h2.94v.56h-2.23v1.72h2.06v.55h-2.06v2.34h-.7v-5.17Z"/>
      <path class="cls-6" d="M33.73,344.05l-.57,1.63h-.73l1.85-5.17h.85l1.86,5.17h-.75l-.58-1.63h-1.93ZM35.52,343.53l-.53-1.49c-.12-.34-.2-.64-.28-.94h-.02c-.08.31-.17.62-.27.94l-.53,1.5h1.64Z"/>
      <path class="cls-6" d="M37.7,344.86c.32.18.78.34,1.26.34.72,0,1.14-.36,1.14-.88,0-.48-.29-.76-1.03-1.03-.89-.3-1.44-.74-1.44-1.47,0-.81.7-1.4,1.76-1.4.56,0,.96.12,1.21.25l-.19.54c-.18-.09-.54-.25-1.04-.25-.74,0-1.03.42-1.03.78,0,.48.33.72,1.08,1,.92.34,1.39.76,1.39,1.52,0,.8-.62,1.49-1.91,1.49-.53,0-1.1-.15-1.39-.33l.18-.56Z"/>
      <path class="cls-6" d="M42.82,341.07h-1.66v-.57h4.04v.57h-1.67v4.6h-.71v-4.6Z"/>
      <path class="cls-6" d="M47.52,340.5h2.94v.56h-2.23v1.72h2.06v.55h-2.06v2.34h-.7v-5.17Z"/>
      <path class="cls-6" d="M56.12,343.04c0,1.78-1.14,2.72-2.53,2.72s-2.45-1.06-2.45-2.62c0-1.64,1.08-2.72,2.53-2.72s2.45,1.08,2.45,2.62ZM51.89,343.12c0,1.1.63,2.1,1.74,2.1s1.75-.97,1.75-2.15c0-1.03-.57-2.1-1.74-2.1s-1.75,1.02-1.75,2.16Z"/>
      <path class="cls-6" d="M61.69,343.04c0,1.78-1.14,2.72-2.53,2.72s-2.45-1.06-2.45-2.62c0-1.64,1.08-2.72,2.53-2.72s2.45,1.08,2.45,2.62ZM57.46,343.12c0,1.1.63,2.1,1.74,2.1s1.75-.97,1.75-2.15c0-1.03-.57-2.1-1.74-2.1s-1.75,1.02-1.75,2.16Z"/>
      <path class="cls-6" d="M62.6,340.57c.43-.06.94-.11,1.5-.11,1.01,0,1.73.22,2.21.64.49.42.77,1.02.77,1.86s-.27,1.54-.78,2.01c-.51.48-1.35.74-2.41.74-.5,0-.92-.02-1.28-.06v-5.09ZM63.3,345.15c.18.03.44.04.71.04,1.5,0,2.32-.8,2.32-2.2,0-1.22-.72-2-2.21-2-.36,0-.64.03-.82.07v4.08Z"/>
      <path class="cls-6" d="M33.41,354.71c-.26.12-.78.25-1.44.25-1.54,0-2.69-.92-2.69-2.62s1.16-2.72,2.85-2.72c.68,0,1.11.14,1.29.23l-.17.54c-.27-.12-.65-.21-1.1-.21-1.28,0-2.13.78-2.13,2.13,0,1.27.77,2.08,2.09,2.08.43,0,.87-.08,1.15-.21l.15.53Z"/>
      <path class="cls-6" d="M35,349.71v2.16h2.64v-2.16h.71v5.17h-.71v-2.43h-2.64v2.43h-.7v-5.17h.7Z"/>
      <path class="cls-6" d="M40.27,349.71v5.17h-.7v-5.17h.7Z"/>
      <path class="cls-6" d="M41.5,354.88v-5.17h.77l1.75,2.62c.4.61.72,1.15.98,1.68h.02c-.06-.7-.08-1.33-.08-2.13v-2.16h.66v5.17h-.71l-1.73-2.62c-.38-.58-.74-1.17-1.02-1.73h-.02c.04.66.06,1.28.06,2.14v2.21h-.66Z"/>
      <path class="cls-6" d="M49.64,352.46h-2.12v1.87h2.36v.56h-3.06v-5.17h2.94v.56h-2.24v1.63h2.12v.55Z"/>
      <path class="cls-6" d="M50.43,354.49l3.02-4.2v-.02h-2.77v-.56h3.68v.41l-3.01,4.18v.02h3.05v.56h-3.98v-.39Z"/>
      <path class="cls-6" d="M58.09,352.46h-2.12v1.87h2.36v.56h-3.06v-5.17h2.94v.56h-2.24v1.63h2.12v.55Z"/>
      <path class="cls-6" d="M59.15,354.07c.32.18.78.34,1.26.34.72,0,1.14-.36,1.14-.88,0-.48-.29-.76-1.03-1.03-.89-.3-1.44-.74-1.44-1.47,0-.81.7-1.4,1.76-1.4.56,0,.96.12,1.21.25l-.19.54c-.18-.09-.54-.25-1.04-.25-.74,0-1.03.42-1.03.78,0,.48.33.72,1.08,1,.92.34,1.39.76,1.39,1.52,0,.8-.62,1.49-1.91,1.49-.53,0-1.1-.15-1.39-.33l.18-.56Z"/>
      <path class="cls-6" d="M67.04,354.71c-.26.12-.78.25-1.44.25-1.54,0-2.69-.92-2.69-2.62s1.16-2.72,2.85-2.72c.68,0,1.11.14,1.29.23l-.17.54c-.27-.12-.65-.21-1.1-.21-1.28,0-2.13.78-2.13,2.13,0,1.27.77,2.08,2.09,2.08.43,0,.87-.08,1.15-.21l.15.53Z"/>
    </g>
    <text class="cls-11" transform="translate(37.08 444.42) scale(1.05 1)"><tspan x="0" y="0">3F</tspan></text>
    <text class="cls-21" transform="translate(488.08 548.69) rotate(-45) scale(1.05 1)"><tspan class="cls-35" x="0" y="0">F</tspan><tspan x="4.29" y="0">AI</tspan><tspan class="cls-32" x="13.22" y="0">R</tspan><tspan class="cls-44" x="18.75" y="0">Y</tspan><tspan x="24.35" y="0">LAND</tspan></text>
    <text class="cls-15" transform="translate(146.56 677.97) scale(1.05 1)"><tspan x="0" y="0">ST</tspan><tspan class="cls-24" x="8.22" y="0">R</tspan><tspan class="cls-45" x="12.76" y="0">’</tspan><tspan class="cls-28" x="13.84" y="0">e</tspan><tspan class="cls-27" x="18" y="0">a</tspan><tspan x="21.97" y="0">t</tspan></text>
    <g>
      <path class="cls-6" d="M203.38,658.99c.15.09.36.16.59.16.34,0,.53-.17.53-.41,0-.23-.14-.35-.48-.48-.42-.14-.67-.34-.67-.68,0-.38.33-.66.82-.66.26,0,.45.06.56.12l-.09.25c-.08-.04-.25-.12-.48-.12-.35,0-.48.2-.48.36,0,.23.16.34.51.47.43.16.65.36.65.71,0,.37-.29.7-.89.7-.25,0-.51-.07-.65-.15l.08-.26Z"/>
      <path class="cls-6" d="M205.61,656.95v1.43c0,.54.25.77.59.77.38,0,.62-.24.62-.77v-1.43h.33v1.41c0,.74-.41,1.05-.96,1.05-.52,0-.92-.28-.92-1.03v-1.42h.33Z"/>
      <path class="cls-6" d="M207.73,659.37v-2.42h.36l.82,1.22c.19.28.34.54.46.79h0c-.03-.33-.04-.62-.04-1v-1.01h.31v2.42h-.33l-.81-1.23c-.18-.27-.35-.54-.48-.81h-.01c.02.31.03.6.03,1v1.03h-.31Z"/>
      <path class="cls-6" d="M201.02,662.91l-.27.76h-.34l.87-2.42h.4l.87,2.42h-.35l-.27-.76h-.9ZM201.86,662.67l-.25-.7c-.06-.16-.09-.3-.13-.44h0c-.04.14-.08.29-.13.44l-.25.7h.77Z"/>
      <path class="cls-6" d="M205.06,662.61c-.02-.34-.04-.74-.04-1.04h-.01c-.09.28-.19.58-.32.92l-.45,1.17h-.25l-.41-1.15c-.12-.34-.22-.65-.3-.94h0c0,.3-.03.71-.05,1.07l-.07,1.04h-.31l.18-2.42h.42l.44,1.17c.11.3.19.56.26.81h.01c.06-.24.15-.51.27-.81l.45-1.17h.42l.16,2.42h-.32l-.06-1.06Z"/>
      <path class="cls-6" d="M208.13,662.44c0,.83-.53,1.27-1.18,1.27s-1.15-.49-1.15-1.23c0-.77.5-1.27,1.18-1.27s1.15.5,1.15,1.22ZM206.15,662.48c0,.52.29.98.81.98s.82-.46.82-1c0-.48-.27-.98-.81-.98s-.82.48-.82,1.01Z"/>
      <path class="cls-6" d="M208.88,661.25v1.43c0,.54.25.77.59.77.38,0,.62-.24.62-.77v-1.43h.33v1.41c0,.74-.41,1.05-.96,1.05-.52,0-.92-.28-.92-1.03v-1.42h.33Z"/>
      <path class="cls-6" d="M211,661.29c.17-.03.4-.05.63-.05.35,0,.58.06.74.2.13.11.2.27.2.46,0,.32-.21.53-.48.62h0c.2.08.31.25.37.5.08.34.14.57.2.66h-.34c-.04-.07-.1-.28-.17-.58-.08-.33-.21-.46-.51-.47h-.31v1.05h-.33v-2.38ZM211.33,662.39h.34c.35,0,.58-.18.58-.46,0-.31-.24-.45-.59-.45-.16,0-.27.01-.33.03v.88Z"/>
    </g>
    <text class="cls-22" transform="translate(289.94 675.77) scale(1.05 1)"><tspan x="0" y="0">G</tspan><tspan class="cls-40" x="7.72" y="0">Y</tspan><tspan class="cls-31" x="14.07" y="0">M ONE</tspan></text>
    <text class="cls-20" transform="translate(595.41 640.51) rotate(-43.49) skewX(3.02)"><tspan x="0" y="0">M</tspan><tspan class="cls-47" x="5.01" y="0">E</tspan><tspan x="8.17" y="0">T</tspan><tspan class="cls-30" x="11.27" y="0">R</tspan><tspan class="cls-26" x="14.64" y="0">OPOLIS</tspan></text>
    <text class="cls-19" transform="translate(229.24 571.14) rotate(26.28) scale(1.03 1) skewX(-2.4)"><tspan x="0" y="0">DELIZIOSO</tspan></text>
    <text class="cls-17" transform="translate(268.87 545.05) rotate(-43.49) skewX(3.02)"><tspan class="cls-42" x="0" y="0">O</tspan><tspan class="cls-46" x="1.91" y="0">X</tspan><tspan class="cls-39" x="3.51" y="0">X</tspan><tspan x="5.07" y="0">O</tspan></text>
    <text class="cls-18" transform="translate(293.54 528.37) rotate(-43.49) skewX(3.02)"><tspan x="0" y="0">BON</tspan><tspan class="cls-43" x="-.62" y="6.48">P</tspan><tspan x="1.79" y="6.48">A</tspan><tspan class="cls-43" x="5.1" y="6.48">P</tspan><tspan x="7.52" y="6.48">A</tspan></text>
    <g>
      <path class="cls-6" d="M312.87,508.54c-.07.19-.27.52-.62.85-.81.77-1.93.86-2.87-.03-.9-.85-.9-2.01,0-2.86.36-.34.66-.48.81-.52l.21.37c-.21.07-.46.21-.7.44-.67.64-.69,1.47.06,2.19.7.67,1.56.71,2.26.05.23-.21.41-.48.49-.69l.37.21Z"/>
      <path class="cls-6" d="M310.59,505.5c.15-.21.4-.49.65-.73.4-.38.73-.55,1.07-.57.27-.02.55.09.77.3.38.36.39.83.19,1.21h.01c.3-.13.63-.06,1,.16.49.29.84.49,1.01.54l-.38.36c-.13-.03-.44-.21-.88-.47-.48-.29-.78-.29-1.13.02l-.35.33,1.25,1.18-.37.35-2.83-2.69ZM312.27,506.39l.38-.36c.4-.38.43-.82.1-1.13-.37-.35-.8-.25-1.2.12-.18.17-.29.31-.33.38l1.05.99Z"/>
      <path class="cls-6" d="M313.22,502.94l2.87,2.73-.37.35-2.87-2.73.37-.35Z"/>
      <path class="cls-6" d="M316.24,504.67c.27-.06.6-.21.85-.45.38-.36.4-.76.11-1.04-.27-.25-.57-.25-1.11-.03-.63.29-1.17.33-1.57-.05-.45-.42-.41-1.09.15-1.62.29-.28.58-.42.78-.47l.2.38c-.14.04-.42.14-.68.39-.39.37-.31.74-.11.92.27.25.58.21,1.13-.02.67-.28,1.15-.29,1.58.1.44.42.5,1.1-.18,1.74-.28.26-.66.47-.92.52l-.22-.38Z"/>
      <path class="cls-6" d="M316,500.37c.15-.2.36-.45.66-.73.37-.35.72-.52,1.04-.54.29-.02.6.09.85.33.26.25.39.51.39.79.01.38-.2.79-.56,1.13-.11.1-.22.2-.32.26l1.15,1.09-.37.35-2.84-2.69ZM317.76,501.33c.1-.06.21-.15.34-.26.45-.42.5-.89.11-1.27-.38-.36-.83-.28-1.24.11-.16.15-.27.28-.32.36l1.12,1.06Z"/>
      <path class="cls-6" d="M321.71,500.34l-1.22-1.16-2.56-.71.42-.4,1.2.37c.33.1.59.19.88.29h0c-.11-.26-.2-.53-.3-.85l-.38-1.14.42-.4.69,2.48,1.22,1.16-.38.36Z"/>
      <path class="cls-6" d="M313.44,512.42l1.2,1.14,1.39-1.32-1.2-1.14.38-.36,2.87,2.72-.38.36-1.35-1.28-1.39,1.32,1.35,1.28-.37.35-2.87-2.72.37-.35Z"/>
      <path class="cls-6" d="M319.71,509.15c.99.94.91,2.01.18,2.7-.76.72-1.88.67-2.75-.16-.91-.87-.94-1.97-.17-2.7.78-.74,1.89-.65,2.74.15ZM317.53,511.31c.61.58,1.5.79,2.08.23.59-.56.38-1.39-.27-2-.57-.54-1.47-.83-2.09-.24-.61.58-.35,1.41.28,2.01Z"/>
      <path class="cls-6" d="M319.16,507.01l1.7,1.61c.64.61,1.2.6,1.58.23.43-.4.42-.93-.22-1.53l-1.7-1.61.38-.36,1.67,1.59c.88.84.78,1.62.16,2.21-.59.56-1.37.66-2.26-.19l-1.69-1.61.38-.36Z"/>
      <path class="cls-6" d="M323.91,507.09c.27-.06.6-.21.85-.45.38-.36.4-.76.11-1.04-.27-.25-.58-.25-1.11-.03-.63.29-1.17.33-1.57-.05-.45-.42-.41-1.09.15-1.62.29-.28.58-.42.78-.47l.2.38c-.14.04-.42.14-.68.39-.39.37-.31.74-.11.92.27.25.58.21,1.12-.02.67-.28,1.16-.29,1.58.1.44.42.5,1.1-.18,1.74-.28.26-.66.47-.92.52l-.22-.38Z"/>
      <path class="cls-6" d="M326.65,502.79l-1.12,1.06,1.04.98,1.24-1.18.31.29-1.62,1.53-2.87-2.72,1.55-1.47.31.3-1.18,1.12.91.86,1.12-1.06.31.29Z"/>
    </g>
    <path class="cls-9" d="M47.64,501.39c0-1.19-1.02-2.15-2.27-2.15h-14.8c-1.25,0-2.27.96-2.27,2.15v14.04c0,1.19,1.02,2.15,2.27,2.15h14.8c1.25,0,2.27-.96,2.27-2.15v-14.04ZM42.19,501.96c.63,0,1.13.48,1.13,1.07s-.51,1.07-1.13,1.07-1.13-.48-1.13-1.07.5-1.07,1.13-1.07ZM33.46,501.96c.63,0,1.13.48,1.13,1.07s-.51,1.07-1.13,1.07-1.13-.48-1.13-1.07.51-1.07,1.13-1.07ZM35.72,505.03l-.31,3.59c-.02.23-.17.42-.4.5h0c-.23.09-.38.29-.4.52l-.3,4.66c-.02.31-.3.56-.63.56h-.42c-.33,0-.61-.25-.63-.56l-.3-4.66c-.01-.23-.17-.44-.4-.52-.23-.08-.38-.28-.4-.51l-.31-3.59c-.02-.29.18-.57.49-.63l.31-.06c.21-.04.42.01.58.16l.43.42c.24.23.64.23.89,0l.44-.42c.15-.14.37-.2.57-.16l.31.06c.28.07.49.34.47.64ZM38.13,514.85c0,.16-.14.29-.3.29s-.31-.13-.31-.29v-12.89c0-.16.14-.29.31-.29s.3.13.3.29v12.89ZM44.4,509.12c-.21.05-.35.24-.32.45l.13.92c.03.22-.13.43-.35.45l-.29.03c-.2.03-.35.19-.36.37l-.19,2.95c-.02.32-.3.56-.63.56h-.42c-.33,0-.61-.24-.63-.56l-.19-2.95c-.01-.19-.17-.34-.36-.37l-.29-.03c-.22-.03-.39-.24-.35-.45l.13-.92c.03-.2-.1-.39-.32-.45-.22-.05-.35-.26-.31-.47l.85-3.84c.06-.27.39-.41.64-.25l.8.49c.13.09.31.09.46,0l.8-.49c.25-.15.58-.02.64.25l.86,3.84c.04.21-.1.42-.32.47Z"/>
    <path class="cls-9" d="M430.06,422.11c-.84-.84-2.24-.8-3.12.08l-10.47,10.47c-.89.89-.92,2.28-.08,3.12l9.93,9.93c.84.84,2.24.8,3.12-.08l10.47-10.47c.88-.88.92-2.28.08-3.12l-9.93-9.93ZM426.6,426.37c.44-.44,1.14-.46,1.56-.04s.4,1.12-.04,1.56-1.14.46-1.56.04-.4-1.11.04-1.56ZM420.43,432.54c.44-.44,1.14-.46,1.56-.04s.4,1.12-.04,1.56-1.14.46-1.56.04-.4-1.12.04-1.56ZM424.2,433.12l2.32,2.76c.15.18.17.42.07.64h0c-.1.22-.07.47.09.64l3.08,3.5c.21.24.19.6-.05.84l-.15.15-.15.15c-.23.23-.6.25-.84.05l-3.5-3.08c-.17-.15-.43-.19-.64-.09-.22.11-.47.07-.64-.07l-2.76-2.32c-.22-.19-.27-.53-.1-.79l.17-.26c.12-.18.31-.29.52-.3h.6c.33-.02.62-.3.63-.64l.02-.6c0-.21.12-.4.29-.52l.27-.18c.25-.15.59-.1.78.12ZM432.85,438.36c.11.11.1.3-.01.42s-.31.13-.42.01l-9.12-9.12c-.11-.11-.1-.3.01-.42s.3-.12.42-.01l9.12,9.12ZM433.23,429.87c-.12.19-.07.42.09.54l.75.56c.18.13.21.39.07.57l-.18.23c-.12.16-.11.38.01.52l1.95,2.22c.21.24.18.6-.05.84l-.15.15-.15.15c-.23.23-.6.26-.84.05l-2.22-1.95c-.15-.13-.36-.13-.52-.01l-.23.18c-.18.14-.44.11-.57-.07l-.56-.75c-.12-.17-.35-.21-.54-.09-.19.12-.43.07-.55-.12l-2.11-3.32c-.15-.23-.01-.57.27-.63l.91-.22c.15-.03.28-.16.33-.33l.22-.91c.07-.28.4-.42.63-.28l3.32,2.11c.17.12.22.36.11.56Z"/>
    <g>
      <polygon class="cls-9" points="439.65 363.65 446.58 365.36 443.64 368.26 436.71 366.56 434.64 360.05 437.58 357.15 439.65 363.65"/>
      <polygon class="cls-9" points="443.68 359.68 450.61 361.38 447.67 364.29 440.74 362.58 438.66 356.08 441.6 353.18 443.68 359.68"/>
      <polygon class="cls-9" points="447.7 355.71 454.64 357.41 451.7 360.31 444.76 358.61 442.7 352.1 445.64 349.2 447.7 355.71"/>
    </g>
    <path class="cls-9" d="M175.72,370.98c-.44.06-2.13.48-3.75.89-11.78,3.08-21.34,12.64-24.71,24.68-1.02,3.65-1.4,10.89-.76,14.8,1.72,10.74,8.51,20.3,18.1,25.41,3.97,2.13,11.12,4.35,11.12,3.46s-3.87-21.12-4.19-21.91c-.19-.48-1.75-2.19-3.49-3.81-3.59-3.3-4.48-4.61-5.18-7.59-.57-2.51-3.33-19.6-3.33-20.71,0-.83,1.08-1.46,1.62-.92.16.16,1.27,4.64,2.45,9.97,2,8.99,2.19,9.66,2.86,9.75.38.06.76-.09.86-.32.1-.22-.83-4.76-2.03-10.1-1.21-5.34-2.13-9.78-2.03-9.94.06-.13.51-.22.98-.22h.89l2.19,9.91c2.26,10.13,2.45,10.58,3.65,9.81.38-.25.13-1.78-1.71-10-1.21-5.34-2.1-9.94-1.97-10.19.1-.25.51-.48.92-.48.7,0,.83.29,2.13,6.1,3.24,14.55,3.02,13.75,3.75,13.85.38.06.76-.09.86-.32.1-.22-.83-4.76-2.03-10.1-2-8.83-2.13-9.72-1.68-10.1,1.21-.92,1.4-.45,4.57,10.58,2.95,10.16,3.11,10.93,2.99,13.18-.1,1.97-.35,2.95-1.59,5.72-1.02,2.35-1.46,3.78-1.46,4.76,0,1.68,5.88,22.33,6.16,21.6.1-.25.83-3.59,1.62-7.37l1.46-6.89-.54-1.62c-.57-1.78-.54-3.27.38-12.07.6-6.03,1.65-11.12,3.62-17.69,2.1-6.99,4.19-11.24,6.8-13.91,3.3-3.37,5.27-3.08,5.27.76,0,2.67-7.78,43.1-8.61,44.66-.41.79-1.05,3.59-1.75,7.62-.6,3.49-1.17,6.73-1.27,7.21l-.16.86,1.68-.48c6.73-1.94,11.81-4.99,16.52-9.91,6.29-6.57,9.5-14.64,9.53-23.88.03-9.88-3.49-18.45-10.42-25.28-4.86-4.83-11.37-8.23-18.17-9.53-2.16-.41-10.13-.57-12.13-.22h0ZM175.72,370.98"/>
    <g>
      <g>
        <path class="cls-5" d="M255.26,556.3c-.23.23-.46.47-.7.7-.19.18-.12.27.08.35.47.19.93.22,1.35-.11.27-.21.45-.17.7.06.83.75,1.77,1.35,2.82,1.78.08.03.2.05.2.14,0,.11-.12.12-.19.16-1.04.54-2.07,1.09-3,1.82-.79.63-1.44,1.39-2.01,2.23-.25.37-.26.38-.51.03-.69-.95-1.63-1.6-2.58-2.26-2.34-1.64-1.79-4.27-.57-5.62.64-.71,1.54-.96,2.48-1.02,1.59-.09,3.1.26,4.57.8.12.04.36.03.25.28-.13.31-.35.45-.57.36-.35-.15-.71-.32-1.05-.5-.24-.13-.43-.1-.61.11-.21.24-.45.46-.68.68,0,0,0,0,0,0Z"/>
        <path class="cls-5" d="M251.59,565.54c-.14-.24-.2-.51-.37-.73-.28-.36-.6-.64-1.02-.82-1.24-.53-2.39-1.21-3.35-2.16-1.95-1.95-2.42-4.68-1.24-7.17.54-1.15,1.28-2.16,2.15-3.08.74-.79,1.53-1.52,2.38-2.2.23-.19.34-.17.44.12.25.72.51,1.44.78,2.15.1.26.04.41-.21.53-1.09.5-1.99,1.25-2.8,2.13-1.42,1.54-1.83,4.13-.89,5.87.45.83,1.17,1.39,1.9,1.96.57.44,1.15.85,1.59,1.44.43.59.63,1.25.66,1.97Z"/>
        <path class="cls-5" d="M248.94,554.08c.15-.15.3-.3.45-.44.11-.11.21-.08.23.07.09.6.46,1.04.82,1.49.11.13.12.24.01.38-.77,1.07-1.03,2.25-.83,3.55.02.16-.02.22-.18.24-.57.06-1.06.28-1.45.71-.17.19-.26.04-.34-.1-.39-.69-.52-1.44-.45-2.21.13-1.54.65-2.6,1.74-3.68Z"/>
        <path class="cls-5" d="M268.52,554.16l2.48,2.61s-4.52-.11-4.56-.02l2.06,2.17c.09-.01.2-.09.38-.23l.12.12-.98.96-.14-.14c.12-.16.24-.25.23-.35-.6-.62-1.22-1.27-1.82-1.89-.43-.39-.83-1.14-1.52-.66,0,0,.49-.5.73-.73l4.32.25-1.78-1.81c-.21-.23-.4-.38-.71-.15l.92-.92c-.27.39.06.57.27.79Z"/>
        <path class="cls-5" d="M259.8,567.69l.12.12-.97.97-.12-.12c.08-.1.13-.18.17-.26-.06-.09-.16-.14-.26-.19-.79-.38-1.57-.75-2.36-1.13-.12-.06-.24-.1-.36-.15-.02.02-.04.04-.07.06.3.7.6,1.39.9,2.09.09.21.18.42.28.64.06.14.12.29.25.33h0c.07-.04.15-.1.24-.17l.12.12-.97.97-.12-.12c.08-.11.14-.19.17-.27-.09-.55-.35-1.01-.53-1.49-.31-.87-.7-1.72-1.06-2.57-.03-.07-.06-.14-.08-.22-.03-.09-.09-.19,0-.28s.19-.02.28.02c.55.25,1.1.5,1.66.75.66.3,1.32.59,1.98.89.05.02.1.04.14.07.06.03.11.05.17.08.07.03.14.04.2.04.07-.04.15-.1.24-.17Z"/>
        <path class="cls-5" d="M252.91,568.47c-.58.34-.89.94-1.34,1.41.3-.18.49-.03.68.17l2.13,2.22c.11.11.22.22.31.35,0,.01.01.02.02.03h0c-.01.13-.08.22-.19.37l.12.12.97-.97-.12-.12c-.12.1-.21.16-.29.2-.05,0-.11-.04-.16-.12l-.99-1.01c-.17-.14-.19-.28-.02-.44.19-.17.32-.39.44-.62.26-.51.12-1.12-.39-1.62-.21-.2-.77-.21-1.16.02ZM253.96,569.25c.21.39.07.93-.29,1.19-.11.08-.2.06-.29-.02l-.38-.37s-.52-.42-.42-.61c.16-.3.41-.56.79-.59.29-.02.47.17.59.4Z"/>
        <path class="cls-5" d="M252.06,574.42c.47.1.77-.12,1.02-.42.38-.45.19-.97-.38-1.1-.29-.07-.59-.04-.89-.01-.36.03-.73.08-1.09-.02-.73-.19-1.05-.96-.67-1.62.17-.29.47-.48.65-.74.15-.27.11-.41.11-.41l.67.75c-.46-.19-.67.15-.88.47-.26.4-.1.82.37.96.45.14.92.04,1.38.03.35,0,.68,0,.99.19.48.31.64,1.03.34,1.51-.18.28-.42.51-.68.72-.12.1-.31.22-.25.44-.03,0-.48-.52-.7-.76Z"/>
        <path class="cls-5" d="M261.75,559.46l.65.68c-.21-.12-.4,0-.57.16l-.46.43c-.2.16-.22.31-.03.49l2.21,2.18c.1.08.17.17.26.21.08-.04.17-.1.3-.21l.12.12-.97.97-.12-.12c.09-.11.15-.19.17-.28-.05-.14-.2-.24-.3-.37l-2.04-2.12c-.2-.21-.35-.22-.54,0,0,0-.48.48-.55.63h0c-.05.08-.09.16-.1.24,0,0,0,0,0,0,0,.06,0,.13.05.19l-.68-.65c.11.04.31-.05.42-.16.06-.06.41-.4.52-.5.31-.3.61-.6.91-.91.2-.2.39-.39.59-.59.12-.12.19-.23.16-.42Z"/>
        <circle class="cls-5" cx="256.81" cy="567.85" r=".23"/>
        <circle class="cls-5" cx="264.75" cy="559.9" r=".23"/>
        <path class="cls-5" d="M267.8,559.78l.12.12-.97.98-.12-.12c.08-.1.13-.18.17-.26-.06-.09-.16-.14-.26-.19-.79-.38-1.57-.75-2.36-1.13-.12-.06-.24-.1-.36-.15-.02.02-.04.04-.07.06.3.7.6,1.39.9,2.09.09.21.18.42.28.64.06.14.12.29.25.33h0c.07-.04.15-.1.24-.17l.12.12-.97.97-.12-.12c.08-.11.14-.19.17-.27-.09-.55-.35-1.01-.53-1.49-.31-.87-.7-1.72-1.06-2.57-.03-.07-.06-.14-.08-.22-.03-.09-.09-.19,0-.28s.19-.02.28.02c.55.25,1.1.5,1.66.75.66.3,1.32.59,1.98.89.05.02.1.04.14.07.06.03.11.05.17.08.07.03.14.04.2.04.07-.04.15-.1.24-.17Z"/>
      </g>
      <path class="cls-5" d="M262.49,565.04l.12.12-.71.71-.1-.1s-.03-.02-.05-.03c-.28-.05-.34-.06-.51-.1-.59-.15-1.19-.24-1.79-.34-.39-.06-.45-.18-.26-.53.04-.07.07-.14.1-.21.19-.45.1-.81-.26-.99-.34-.17-.74-.02-.99.36-.13.19,0,.29.11.39.48.49.97.96,1.45,1.45.23.23.44.47.66.7.11.12.22.25.38.29.07-.04.16-.1.27-.19l.12.12-.97.97-.12-.12c.11-.14.17-.24.19-.35h0c-.05-.12-.17-.22-.27-.32-.75-.76-1.49-1.53-2.24-2.3-.15-.15-.32-.27-.58-.18.48-.45.78-1.07,1.39-1.38.65-.33,1.43.25,1.42,1.06,0,.04,0,.09,0,.13-.07.58-.07.59.5.7.41.08.82.15,1.23.23.13.03.26.05.39.08,0,0,0,0,0,0,.12.03.23,0,.34-.04.05-.04.11-.08.18-.14Z"/>
    </g>
    <g>
      <path class="cls-6" d="M49.37,555.91h-.85l-.18.74c.41.03.98.39.51.83-.06.05-4.82,3.69-4.82,3.69l1.02-3.71c.21-.72.98-.8.98-.8l.18-.74h-5.73s-.18.75-.18.75c.27.07,1.05.22.78,1.25-1.91,6.91-1.69,6.22-1.82,6.6-.52,2-1.37,1.9-1.67,1.92l-.18.74v.05s0,0,0,0h5.98l.2-.81s-.95-.19-.77-.88c.18-.67.93-3.4.93-3.4,2.65,4.25,3.3,4.99,5.61,5.09.78.04,1.75,0,3.05,0l.2-.8c-.76,0-1.25-.54-1.56-.87-.16-.17-.96-1.39-1.69-2.5-.66-1.01-1.25-1.94-1.25-1.94l1.25-1,3.57-2.86c.81-.68,1.39-.61,1.39-.61l.19-.74h-5.15Z"/>
      <path class="cls-6" d="M73.65,555.8c-.64,0-1.25.02-1.83.09-4.8.56-7.7,3.58-7.69,6.61,0,2.54,2.06,4.98,6.81,4.96.3,0,.59-.01.88-.03,1.15-.06,2.17-.22,3.09-.41l.55-2.36c-.92.31-2.09.56-3.02.57-.21,0-.42,0-.63-.03-2.18-.22-3.61-1.63-3.61-3.43,0-1.87,1.35-3.33,3.61-3.71.38-.07.78-.1,1.21-.1,1.46,0,2.2.48,2.68,1.12h.39l.78-2.79c-.8-.26-1.99-.48-3.23-.5Z"/>
      <path class="cls-6" d="M61.03,555.91h-5.65l-.18.74s1.13.13.78,1.25l-2.56,9.32h5.13s.19-.79.19-.79c0,0-.96-.23-.71-1.11.02-.08.75-2.77.75-2.77h2.26s.09,0,.09,0c1.17,0,1.55.61,1.55.61l.68-2.77h-3.96l.59-2.17h3.44c.63,0,1.08.42,1.08.73h.39l.76-3.03h-4.62Z"/>
    </g>
    <g>
      <path class="cls-7" d="M576.34,642.49l-.65.65-1.65-1.65c-.13-.13-.34-.13-.47,0l-1.76,1.76c-.13.13-.13.34,0,.47l1.65,1.65-.65.65c-.13.13-.13.34,0,.47l1.76,1.76c.13.13.34.13.47,0l3.53-3.53c.13-.13.13-.34,0-.47l-1.76-1.76c-.13-.13-.34-.13-.47,0ZM572.52,643.5l.41-.41.24.24c.13.13.34.13.47,0s.13-.34,0-.47l-.24-.24.42-.42,1.29,1.29-1.29,1.29-1.3-1.29ZM573.51,646.26l.35-.35.24.24c.13.13.34.13.47,0s.13-.34,0-.47l-.24-.24.47-.47,1.29,1.29-1.29,1.29-1.29-1.29ZM577.87,644.49l-1.3,1.3-1.29-1.29.47-.47.24.24c.13.13.34.13.47,0s.13-.34,0-.47l-.24-.24.36-.36,1.29,1.29Z"/>
      <path class="cls-7" d="M574.92,634.04s-.02-.02-.03-.03c0,0-.01-.01-.02-.02,0,0-.01-.01-.03-.02,0,0-.02-.01-.03-.01,0,0-.02,0-.03,0h-.03s-.03-.01-.03-.01c-.01,0-.02,0-.03,0h-.03s-.04,0-.04,0h0l-8.23,1.88c-.12.03-.22.13-.25.25l-1.88,8.23h0v.04s0,.03,0,.03c0,.01,0,.02,0,.03v.03s0,.04,0,.04c0,0,0,.02,0,.03,0,0,0,.02.01.03,0,0,0,.02.02.03,0,0,.01.01.02.02,0,.01.02.03.03.04l6.93,6.93c.13.13.34.13.47,0l2.12-2.12c.13-.13.13-.34,0-.47l-4.58-4.58,5.41-5.41,4.58,4.58c.13.13.34.13.47,0,.02-.01.03-.03.04-.04.02-.01.03-.03.04-.04l2.03-2.03c.13-.13.13-.34,0-.47l-6.93-6.93ZM568.81,643.91l-.24-.24,5.41-5.41.24.24-5.41,5.41ZM579.51,642.85l-5.29-5.29c-.13-.13-.34-.13-.47,0l-5.88,5.88c-.13.13-.13.34,0,.47l5.29,5.29-1.65,1.65-6.57-6.57,1.79-7.84,7.84-1.79,6.57,6.57-1.65,1.65Z"/>
      <path class="cls-7" d="M569.17,637.68l-1.29,1.29c-.13.13-.13.34,0,.47s.34.13.47,0l1.29-1.29c.13-.13.13-.34,0-.47s-.34-.13-.47,0Z"/>
      <path class="cls-7" d="M569.87,638.39l-1.29,1.29c-.13.13-.13.34,0,.47s.34.13.47,0l1.29-1.29c.13-.13.13-.34,0-.47s-.34-.13-.47,0Z"/>
    </g>
    <g>
      <path class="cls-7" d="M474.7,484.25l-.38.38-.95-.95c-.08-.08-.2-.08-.27,0l-1.02,1.02c-.08.08-.08.2,0,.27l.95.95-.38.38c-.08.08-.08.2,0,.27l1.02,1.02c.08.08.2.08.27,0l2.04-2.04c.08-.08.08-.2,0-.27l-1.02-1.02c-.08-.08-.2-.08-.27,0ZM472.48,484.83l.24-.24.14.14c.08.08.2.08.27,0s.08-.2,0-.27l-.14-.14.24-.24.75.75-.75.75-.75-.75ZM473.06,486.43l.2-.2.14.14c.08.08.2.08.27,0s.08-.2,0-.27l-.14-.14.27-.27.75.75-.75.75-.75-.75ZM475.58,485.4l-.75.75-.75-.75.27-.27.14.14c.08.08.2.08.27,0s.08-.2,0-.27l-.14-.14.21-.21.75.75Z"/>
      <path class="cls-7" d="M473.88,479.35s-.01-.01-.02-.02c0,0,0,0-.01-.01,0,0,0,0-.02,0,0,0-.01,0-.02,0,0,0-.01,0-.02,0h-.02s-.02,0-.02,0c0,0-.01,0-.02,0h-.01s-.02,0-.02,0h0l-4.76,1.09c-.07.02-.13.07-.14.14l-1.09,4.76h0v.02s0,.01,0,.01c0,0,0,.01,0,.02v.02s0,.02,0,.02c0,0,0,.01,0,.02,0,0,0,.01,0,.02,0,0,0,.01,0,.02,0,0,0,0,.01.01,0,0,.01.02.02.02l4.01,4.01c.08.08.2.08.27,0l1.22-1.22c.08-.08.08-.2,0-.27l-2.65-2.65,3.13-3.13,2.65,2.65c.08.08.2.08.27,0,0,0,.02-.02.02-.02,0,0,.02-.01.02-.02l1.18-1.18c.08-.08.08-.2,0-.27l-4.01-4.01ZM470.34,485.07l-.14-.14,3.13-3.13.14.14-3.13,3.13ZM476.53,484.45l-3.06-3.06c-.08-.08-.2-.08-.27,0l-3.4,3.4c-.08.08-.08.2,0,.27l3.06,3.06-.95.95-3.8-3.8,1.04-4.54,4.54-1.04,3.8,3.8-.95.95Z"/>
      <path class="cls-7" d="M470.55,481.46l-.75.75c-.08.08-.08.2,0,.27s.2.08.27,0l.75-.75c.08-.08.08-.2,0-.27s-.2-.08-.27,0Z"/>
      <path class="cls-7" d="M470.95,481.87l-.75.75c-.08.08-.08.2,0,.27s.2.08.27,0l.75-.75c.08-.08.08-.2,0-.27s-.2-.08-.27,0Z"/>
    </g>
    <g>
      <path class="cls-7" d="M487.86,474.5l-.38.38-.95-.95c-.08-.08-.2-.08-.27,0l-1.02,1.02c-.08.08-.08.2,0,.27l.95.95-.38.38c-.08.08-.08.2,0,.27l1.02,1.02c.08.08.2.08.27,0l2.04-2.04c.08-.08.08-.2,0-.27l-1.02-1.02c-.08-.08-.2-.08-.27,0ZM485.65,475.08l.24-.24.14.14c.08.08.2.08.27,0s.08-.2,0-.27l-.14-.14.24-.24.75.75-.75.75-.75-.75ZM486.23,476.68l.2-.2.14.14c.08.08.2.08.27,0s.08-.2,0-.27l-.14-.14.27-.27.75.75-.75.75-.75-.75ZM488.75,475.66l-.75.75-.75-.75.27-.27.14.14c.08.08.2.08.27,0s.08-.2,0-.27l-.14-.14.21-.21.75.75Z"/>
      <path class="cls-7" d="M487.04,469.61s-.01-.01-.02-.02c0,0,0,0-.01-.01,0,0,0,0-.02,0,0,0-.01,0-.02,0,0,0-.01,0-.02,0h-.02s-.02,0-.02,0c0,0-.01,0-.02,0h-.01s-.02,0-.02,0h0l-4.76,1.09c-.07.02-.13.07-.14.14l-1.09,4.76h0v.02s0,.01,0,.01c0,0,0,.01,0,.02v.02s0,.02,0,.02c0,0,0,.01,0,.02,0,0,0,.01,0,.02,0,0,0,.01,0,.02,0,0,0,0,.01.01,0,0,.01.02.02.02l4.01,4.01c.08.08.2.08.27,0l1.22-1.22c.08-.08.08-.2,0-.27l-2.65-2.65,3.13-3.13,2.65,2.65c.08.08.2.08.27,0,0,0,.02-.02.02-.02,0,0,.02-.01.02-.02l1.18-1.18c.08-.08.08-.2,0-.27l-4.01-4.01ZM483.51,475.32l-.14-.14,3.13-3.13.14.14-3.13,3.13ZM489.7,474.71l-3.06-3.06c-.08-.08-.2-.08-.27,0l-3.4,3.4c-.08.08-.08.2,0,.27l3.06,3.06-.95.95-3.8-3.8,1.04-4.54,4.54-1.04,3.8,3.8-.95.95Z"/>
      <path class="cls-7" d="M483.71,471.72l-.75.75c-.08.08-.08.2,0,.27s.2.08.27,0l.75-.75c.08-.08.08-.2,0-.27s-.2-.08-.27,0Z"/>
      <path class="cls-7" d="M484.12,472.13l-.75.75c-.08.08-.08.2,0,.27s.2.08.27,0l.75-.75c.08-.08.08-.2,0-.27s-.2-.08-.27,0Z"/>
    </g>
    <g>
      <path class="cls-7" d="M623.53,688.37l-.65.65-1.65-1.65c-.13-.13-.34-.13-.47,0l-1.76,1.76c-.13.13-.13.34,0,.47l1.65,1.65-.65.65c-.13.13-.13.34,0,.47l1.76,1.76c.13.13.34.13.47,0l3.53-3.53c.13-.13.13-.34,0-.47l-1.76-1.76c-.13-.13-.34-.13-.47,0ZM619.7,689.37l.41-.41.24.24c.13.13.34.13.47,0s.13-.34,0-.47l-.24-.24.42-.42,1.29,1.29-1.29,1.29-1.3-1.29ZM620.7,692.14l.35-.35.24.24c.13.13.34.13.47,0s.13-.34,0-.47l-.24-.24.47-.47,1.29,1.29-1.29,1.29-1.29-1.29ZM625.06,690.37l-1.3,1.3-1.29-1.29.47-.47.24.24c.13.13.34.13.47,0s.13-.34,0-.47l-.24-.24.36-.36,1.29,1.29Z"/>
      <path class="cls-7" d="M622.11,679.91s-.02-.02-.03-.03c0,0-.01-.01-.02-.02,0,0-.01-.01-.03-.02,0,0-.02-.01-.03-.01,0,0-.02,0-.03,0h-.03s-.03-.01-.03-.01c-.01,0-.02,0-.03,0h-.03s-.04,0-.04,0h0l-8.23,1.88c-.12.03-.22.13-.25.25l-1.88,8.23h0v.04s0,.03,0,.03c0,.01,0,.02,0,.03v.03s0,.04,0,.04c0,0,0,.02,0,.03,0,0,0,.02.01.03,0,0,0,.02.02.03,0,0,.01.01.02.02,0,.01.02.03.03.04l6.93,6.93c.13.13.34.13.47,0l2.12-2.12c.13-.13.13-.34,0-.47l-4.58-4.58,5.41-5.41,4.58,4.58c.13.13.34.13.47,0,.02-.01.03-.03.04-.04.02-.01.03-.03.04-.04l2.03-2.03c.13-.13.13-.34,0-.47l-6.93-6.93ZM616,689.79l-.24-.24,5.41-5.41.24.24-5.41,5.41ZM626.69,688.73l-5.29-5.29c-.13-.13-.34-.13-.47,0l-5.88,5.88c-.13.13-.13.34,0,.47l5.29,5.29-1.65,1.65-6.57-6.57,1.79-7.84,7.84-1.79,6.57,6.57-1.65,1.65Z"/>
      <path class="cls-7" d="M616.35,683.56l-1.29,1.29c-.13.13-.13.34,0,.47s.34.13.47,0l1.29-1.29c.13-.13.13-.34,0-.47s-.34-.13-.47,0Z"/>
      <path class="cls-7" d="M617.06,684.26l-1.29,1.29c-.13.13-.13.34,0,.47s.34.13.47,0l1.29-1.29c.13-.13.13-.34,0-.47s-.34-.13-.47,0Z"/>
    </g>
    <line class="cls-2" x1="464.07" y1="649.67" x2="464.07" y2="704.95"/>
    <text class="cls-13" transform="translate(366.35 425.91) rotate(44.12) skewX(3.02)"><tspan x="0" y="0">XPRESS</tspan></text>
    <text class="cls-14" transform="translate(60.25 517.92) rotate(-45) scale(1.05 1)"><tspan x="0" y="0">F</tspan><tspan class="cls-33" x="3.64" y="0">R</tspan><tspan class="cls-25" x="7.57" y="0">Y</tspan><tspan class="cls-1" x="11.56" y="0">D</tspan><tspan class="cls-29" x="16.42" y="0">A</tspan><tspan x="20.4" y="0">Y</tspan></text>
    <g>
      <path class="cls-6" d="M501.63,671.67c.39.25.96.46,1.56.48.88.02,1.39-.43,1.37-1.11-.02-.63-.38-.99-1.3-1.36-1.1-.42-1.79-1-1.82-1.94-.03-1.04.82-1.79,2.12-1.76.69.02,1.19.19,1.49.37l-.22.7c-.22-.12-.67-.33-1.28-.35-.91-.02-1.25.51-1.23.97.02.63.43.94,1.36,1.33,1.14.47,1.73,1.03,1.76,2.01.03,1.03-.71,1.91-2.29,1.87-.65-.02-1.36-.23-1.72-.47l.2-.72Z"/>
      <path class="cls-6" d="M510.05,669.8l-2.6-.07.06,2.41,2.9.08.02.72-3.76-.1-.18-6.69,3.61.1.02.73-2.75-.07.06,2.11,2.6.07.02.72Z"/>
      <path class="cls-6" d="M511.38,666.38c.43-.08,1.06-.11,1.66-.1.92.02,1.52.21,1.95.6.35.31.55.77.56,1.28.02.88-.52,1.46-1.22,1.67v.03c.52.19.84.68,1.02,1.38.24.94.42,1.59.57,1.85l-.89-.02c-.11-.19-.28-.77-.49-1.61-.22-.93-.59-1.29-1.38-1.34l-.81-.02.08,2.9-.86-.02-.17-6.6ZM512.33,669.45l.88.02c.92.02,1.5-.47,1.48-1.23-.02-.86-.66-1.26-1.57-1.29-.42-.01-.71.02-.85.06l.06,2.44Z"/>
      <path class="cls-6" d="M518.53,673.16l-2.36-6.75.93.02,1.13,3.32c.31.91.58,1.73.78,2.52h.02c.17-.77.42-1.61.7-2.47l1.04-3.28.92.02-2.22,6.63-.95-.03Z"/>
      <path class="cls-6" d="M523.29,666.6l.18,6.69-.86-.02-.18-6.69.86.02Z"/>
      <path class="cls-6" d="M529.65,673.24c-.31.15-.95.29-1.76.27-1.89-.05-3.34-1.28-3.4-3.47-.06-2.1,1.33-3.48,3.4-3.42.83.02,1.37.21,1.6.34l-.19.7c-.33-.17-.8-.3-1.36-.31-1.57-.04-2.58.93-2.54,2.69.04,1.64,1.01,2.72,2.64,2.76.53.01,1.06-.08,1.4-.24l.2.69Z"/>
      <path class="cls-6" d="M531.42,666.82l.18,6.69-.86-.02-.18-6.69.86.02Z"/>
      <path class="cls-6" d="M533.8,666.88l.1,3.96c.04,1.5.72,2.15,1.62,2.18.99.03,1.61-.61,1.57-2.09l-.1-3.96.87.02.1,3.9c.05,2.06-1.01,2.87-2.46,2.83-1.37-.04-2.42-.85-2.48-2.92l-.1-3.94.87.02Z"/>
      <path class="cls-6" d="M539.36,667.02l.86.02.16,5.97,2.86.08.02.72-3.72-.1-.18-6.69Z"/>
      <path class="cls-6" d="M495.72,677.86c.42-.06.96-.1,1.66-.09.85.02,1.48.24,1.89.61.38.33.61.82.62,1.42.02.61-.15,1.08-.48,1.42-.44.47-1.18.7-2.03.68-.26,0-.5-.02-.7-.08l.07,2.68-.86-.02-.17-6.61ZM496.67,681.11c.19.05.43.08.72.09,1.04.03,1.67-.46,1.64-1.38-.02-.88-.66-1.33-1.61-1.35-.38,0-.67.01-.81.05l.07,2.6Z"/>
      <path class="cls-6" d="M501.38,682.52l-.64,2.09-.89-.02,2.1-6.63,1.04.03,2.46,6.75-.92-.02-.77-2.12-2.37-.06ZM503.55,681.9l-.71-1.94c-.16-.44-.27-.84-.38-1.23h-.02c-.09.39-.19.8-.31,1.2l-.6,1.92,2.02.05Z"/>
      <path class="cls-6" d="M506.28,683.7c.39.25.96.46,1.56.48.88.02,1.39-.43,1.37-1.1-.02-.63-.38-.99-1.3-1.36-1.1-.42-1.79-1-1.82-1.94-.03-1.04.82-1.79,2.12-1.76.69.02,1.19.19,1.49.37l-.22.7c-.22-.12-.67-.33-1.28-.35-.91-.02-1.25.51-1.23.97.02.63.43.94,1.36,1.33,1.14.47,1.73,1.03,1.76,2.01.03,1.03-.71,1.91-2.29,1.86-.65-.02-1.36-.22-1.72-.47l.2-.72Z"/>
      <path class="cls-6" d="M512.35,682.81l-.64,2.09-.89-.02,2.1-6.63,1.04.03,2.46,6.75-.92-.02-.77-2.12-2.37-.06ZM514.53,682.19l-.71-1.94c-.16-.44-.27-.84-.38-1.23h-.02c-.09.39-.19.8-.3,1.2l-.6,1.92,2.02.05Z"/>
      <path class="cls-6" d="M517.23,678.43c.42-.06.96-.1,1.65-.09.85.02,1.49.24,1.89.61.38.33.61.82.62,1.42.02.61-.15,1.08-.48,1.42-.44.47-1.18.7-2.03.68-.26,0-.5-.02-.7-.08l.07,2.68-.86-.02-.17-6.61ZM518.18,681.68c.19.06.43.08.72.09,1.04.03,1.66-.46,1.64-1.39-.02-.88-.66-1.33-1.61-1.35-.38,0-.66.01-.81.05l.07,2.6Z"/>
      <path class="cls-6" d="M528.32,681.92c.06,2.3-1.31,3.49-3.01,3.44-1.77-.05-3.04-1.45-3.1-3.48-.06-2.12,1.23-3.48,3.02-3.43,1.83.05,3.05,1.48,3.1,3.47ZM523.13,681.89c.04,1.43.85,2.73,2.21,2.77,1.37.04,2.11-1.2,2.07-2.72-.04-1.33-.77-2.74-2.21-2.78-1.43-.04-2.11,1.26-2.07,2.73Z"/>
      <path class="cls-6" d="M530.42,683.29l-.64,2.09-.89-.02,2.1-6.63,1.04.03,2.46,6.75-.92-.02-.77-2.12-2.37-.06ZM532.6,682.67l-.71-1.94c-.16-.44-.27-.84-.38-1.23h-.02c-.09.39-.19.8-.3,1.2l-.6,1.92,2.02.05Z"/>
      <path class="cls-6" d="M535.3,678.92c.43-.08,1.06-.11,1.65-.1.92.02,1.52.21,1.95.6.35.31.55.77.56,1.29.02.88-.52,1.45-1.22,1.67v.03c.52.19.84.68,1.02,1.38.24.94.42,1.59.57,1.85l-.89-.02c-.11-.19-.28-.77-.49-1.61-.22-.93-.59-1.29-1.38-1.34l-.81-.02.08,2.9-.86-.02-.17-6.6ZM536.24,681.99l.88.02c.92.02,1.5-.46,1.48-1.23-.02-.86-.66-1.26-1.57-1.29-.42-.01-.71.02-.85.06l.06,2.44Z"/>
      <path class="cls-6" d="M542.02,679.74l-2.04-.05-.02-.73,4.96.13.02.73-2.05-.05.16,5.96-.87-.02-.16-5.96Z"/>
      <path class="cls-6" d="M549.22,682.75l-2.6-.07.06,2.41,2.9.08.02.73-3.76-.1-.18-6.69,3.62.1.02.72-2.75-.07.06,2.12,2.6.07.02.71Z"/>
    </g>
    <g>
      <path class="cls-6" d="M211.29,269.74l-1.51,1.43,1.4,1.33,1.68-1.6.42.4-2.19,2.07-3.89-3.69,2.1-1.99.42.4-1.6,1.52,1.23,1.17,1.51-1.43.42.39Z"/>
      <path class="cls-6" d="M213.94,270.68l-3.89-3.69.55-.52,3.21.68c.74.16,1.38.33,1.96.54v-.02c-.56-.45-1.04-.89-1.65-1.46l-1.63-1.54.47-.45,3.89,3.69-.51.48-3.21-.7c-.7-.15-1.41-.33-2.02-.54v.02c.51.44.99.87,1.63,1.48l1.66,1.58-.47.45Z"/>
      <path class="cls-6" d="M217.92,263.45l-1.51,1.43,1.4,1.33,1.68-1.6.42.4-2.19,2.07-3.89-3.69,2.1-1.99.42.4-1.6,1.52,1.23,1.17,1.51-1.43.42.39Z"/>
      <path class="cls-6" d="M216.73,260.76c.2-.29.54-.66.88-.99.54-.51.98-.74,1.44-.77.37-.02.75.13,1.04.41.51.49.53,1.12.26,1.64l.02.02c.4-.19.86-.09,1.36.2.67.39,1.14.66,1.37.73l-.52.49c-.17-.04-.59-.28-1.19-.64-.65-.4-1.06-.39-1.53.02l-.47.45,1.68,1.6-.5.48-3.84-3.64ZM219,261.96l.51-.49c.54-.51.58-1.11.14-1.53-.5-.48-1.08-.34-1.62.16-.24.23-.39.42-.45.51l1.42,1.35Z"/>
      <path class="cls-6" d="M226.47,258.47c-.14.29-.46.84-.98,1.33-.59.56-1.22.88-1.97.89-.66.01-1.38-.28-1.99-.86-1.15-1.11-1.21-2.66.1-3.9.45-.43.9-.67,1.15-.75l.29.5c-.3.11-.63.28-1.03.66-.95.9-.97,2.04,0,2.97.99.94,2.16.92,3.07.06.33-.31.51-.57.57-.73l-1.16-1.1-.79.75-.4-.38,1.28-1.21,1.87,1.77Z"/>
      <path class="cls-6" d="M228.28,257.08l-1.65-1.56-3.47-.96.57-.54,1.62.5c.44.14.8.25,1.19.39h.01c-.14-.36-.27-.72-.41-1.14l-.51-1.55.57-.54.93,3.35,1.66,1.57-.51.48Z"/>
      <path class="cls-6" d="M221.75,276.07c-.14.29-.46.84-.98,1.33-.59.56-1.22.88-1.97.89-.66.01-1.38-.28-1.99-.86-1.15-1.11-1.21-2.66.1-3.9.45-.43.9-.67,1.15-.75l.29.5c-.3.11-.64.28-1.03.66-.95.9-.97,2.04,0,2.97.99.94,2.16.92,3.07.07.33-.31.51-.57.57-.73l-1.16-1.1-.79.75-.4-.38,1.28-1.21,1.87,1.77Z"/>
      <path class="cls-6" d="M222.09,273.75l.82,1.54-.52.49-2.57-4.94.61-.57,5.21,2.43-.54.51-1.64-.77-1.38,1.31ZM222.97,272.17l-1.5-.7c-.34-.16-.63-.32-.91-.48h-.01c.17.28.35.57.51.86l.74,1.43,1.17-1.11Z"/>
      <path class="cls-6" d="M227.76,267.46c-.57-.49-1.26-1.07-1.74-1.54l-.02.02c.32.56.65,1.17.99,1.87l1.2,2.44-.38.36-2.48-1.16c-.73-.34-1.39-.67-1.96-1.01h-.01c.47.48,1.1,1.13,1.64,1.71l1.56,1.68-.48.45-3.62-3.95.64-.61,2.54,1.15c.64.3,1.2.58,1.7.87l.02-.02c-.29-.47-.58-1-.9-1.63l-1.19-2.44.64-.61,4.13,3.46-.49.47-1.81-1.53Z"/>
      <path class="cls-6" d="M231.02,264.15l-1.51,1.43,1.4,1.33,1.68-1.6.42.4-2.19,2.07-3.89-3.69,2.1-1.99.42.4-1.6,1.52,1.23,1.17,1.51-1.43.42.39Z"/>
      <path class="cls-6" d="M232.98,264.58c.36-.08.81-.28,1.15-.61.51-.49.54-1.03.15-1.4-.36-.34-.78-.34-1.51-.04-.86.39-1.58.45-2.13-.07-.61-.57-.55-1.48.2-2.19.4-.38.78-.56,1.05-.63l.27.52c-.2.06-.57.19-.92.53-.53.5-.42,1-.15,1.25.36.34.78.29,1.52-.02.91-.38,1.56-.4,2.13.14.6.57.67,1.48-.24,2.35-.38.36-.89.64-1.24.71l-.29-.52Z"/>
    </g>
    <text class="cls-16" transform="translate(297 354.82) rotate(-43.49) skewX(3.02)"><tspan x="0" y="0">DRPCIV</tspan></text>
    <g>
      <path class="cls-6" d="M344.72,571.23c.17-.22.4-.5.73-.82.41-.39.81-.58,1.17-.6.33-.02.67.1.95.37.29.28.43.58.44.89.01.43-.23.88-.63,1.27-.12.12-.24.22-.36.29l1.29,1.22-.42.39-3.18-3.01ZM346.69,572.31c.11-.06.24-.16.38-.29.5-.48.56-1,.12-1.42-.42-.4-.93-.31-1.39.12-.18.17-.31.32-.36.4l1.25,1.19Z"/>
      <path class="cls-6" d="M347.22,568.79l.42-.39,2.87,2.72,1.37-1.3.35.33-1.79,1.7-3.22-3.05Z"/>
      <path class="cls-6" d="M352.19,568.25l.68,1.28-.43.41-2.12-4.09.5-.48,4.31,2.01-.44.42-1.35-.63-1.14,1.08ZM352.92,566.95l-1.24-.58c-.28-.13-.52-.27-.75-.4h0c.14.24.29.47.42.71l.62,1.18.97-.92Z"/>
      <path class="cls-6" d="M355.6,566.94l-3.22-3.05.45-.43,2.66.57c.62.13,1.14.28,1.62.44h0c-.47-.38-.87-.75-1.37-1.22l-1.35-1.28.39-.37,3.22,3.05-.42.4-2.65-.58c-.58-.13-1.16-.27-1.67-.45v.02c.42.36.82.72,1.35,1.23l1.37,1.3-.39.37Z"/>
      <path class="cls-6" d="M358.9,560.95l-1.25,1.19,1.16,1.1,1.39-1.32.35.33-1.81,1.71-3.22-3.05,1.74-1.65.35.33-1.32,1.25,1.02.96,1.25-1.19.34.33Z"/>
      <path class="cls-6" d="M358.91,558.37l-.98.93-.35-.33,2.38-2.26.35.33-.98.93,2.86,2.72-.42.4-2.86-2.72Z"/>
      <path class="cls-6" d="M356.49,576.68c-.12.24-.38.69-.81,1.1-.49.46-1.01.72-1.63.74-.54,0-1.15-.24-1.65-.71-.95-.91-1-2.2.08-3.23.37-.35.74-.55.95-.62l.24.42c-.25.09-.52.24-.85.54-.78.74-.81,1.69,0,2.45.82.77,1.79.76,2.54.05.27-.26.42-.47.47-.61l-.96-.91-.65.62-.33-.32,1.06-1,1.55,1.47Z"/>
      <path class="cls-6" d="M356.77,574.77l.68,1.28-.43.41-2.12-4.09.5-.47,4.31,2.01-.44.42-1.36-.63-1.14,1.08ZM357.5,573.46l-1.24-.58c-.28-.13-.52-.27-.75-.4h0c.14.24.29.47.42.71l.62,1.18.97-.92Z"/>
      <path class="cls-6" d="M361.46,569.56c-.47-.4-1.04-.89-1.44-1.27h-.01c.27.48.53.98.81,1.56l.99,2.02-.31.3-2.05-.96c-.6-.29-1.15-.56-1.62-.83h0c.39.4.91.93,1.36,1.42l1.29,1.39-.4.38-2.99-3.26.53-.5,2.1.96c.53.25.99.48,1.41.72h.01c-.24-.4-.48-.84-.74-1.36l-.98-2.02.53-.5,3.42,2.86-.41.38-1.49-1.26Z"/>
      <path class="cls-6" d="M364.15,566.82l-1.25,1.19,1.16,1.1,1.39-1.32.35.33-1.81,1.71-3.22-3.05,1.74-1.65.35.33-1.32,1.25,1.02.96,1.25-1.19.34.33Z"/>
      <path class="cls-6" d="M365.78,567.18c.3-.07.67-.24.95-.51.42-.4.45-.85.12-1.16-.3-.28-.64-.29-1.25-.03-.71.32-1.31.37-1.76-.06-.5-.48-.46-1.22.17-1.82.33-.31.64-.47.87-.53l.22.43c-.16.05-.47.16-.76.44-.44.42-.34.82-.12,1.03.3.29.64.24,1.26-.02.75-.32,1.29-.33,1.77.12.5.47.56,1.23-.2,1.95-.31.29-.74.53-1.03.58l-.24-.43Z"/>
    </g>
    <g>
      <path class="cls-6" d="M38.7,406.63c.34-.05.78-.1,1.35-.1.7,0,1.21.15,1.53.43.3.25.48.62.48,1.08s-.15.84-.42,1.1c-.37.38-.98.57-1.67.57-.21,0-.4,0-.57-.05v2.07h-.7v-5.11ZM39.4,409.12c.15.04.35.05.58.05.85,0,1.37-.39,1.37-1.11s-.51-1.01-1.29-1.01c-.31,0-.54.02-.66.05v2.01Z"/>
      <path class="cls-6" d="M43.71,406.57v5.17h-.7v-5.17h.7Z"/>
      <path class="cls-6" d="M44.56,411.35l3.02-4.2v-.02h-2.77v-.56h3.68v.41l-3.01,4.18v.02h3.05v.56h-3.98v-.39Z"/>
      <path class="cls-6" d="M49.03,411.35l3.02-4.2v-.02h-2.77v-.56h3.68v.41l-3.01,4.18v.02h3.05v.56h-3.98v-.39Z"/>
      <path class="cls-6" d="M54.76,410.11l-.57,1.63h-.73l1.85-5.17h.85l1.86,5.17h-.75l-.58-1.63h-1.93ZM56.55,409.59l-.53-1.49c-.12-.34-.2-.64-.28-.94h-.02c-.08.31-.17.62-.27.94l-.53,1.5h1.64Z"/>
      <path class="cls-6" d="M37.78,415.84c.36-.07.87-.11,1.35-.11.75,0,1.24.13,1.58.42.28.23.43.58.43.98,0,.68-.45,1.14-1.03,1.32v.02c.42.14.67.51.8,1.04.18.72.31,1.22.42,1.42h-.73c-.09-.15-.21-.59-.36-1.24-.16-.71-.45-.98-1.09-1h-.66v2.24h-.7v-5.1ZM38.48,418.2h.72c.75,0,1.23-.39,1.23-.98,0-.67-.51-.96-1.25-.97-.34,0-.58.03-.7.06v1.89Z"/>
      <path class="cls-6" d="M42.83,415.77v5.17h-.7v-5.17h.7Z"/>
      <path class="cls-6" d="M48.66,418.67c-.04-.72-.09-1.59-.08-2.23h-.02c-.19.61-.41,1.25-.69,1.96l-.96,2.51h-.53l-.88-2.46c-.26-.73-.48-1.4-.63-2.01h-.02c-.02.64-.06,1.51-.11,2.29l-.15,2.22h-.67l.38-5.17h.9l.93,2.5c.23.64.41,1.21.55,1.74h.02c.14-.52.33-1.09.57-1.74l.97-2.5h.9l.34,5.17h-.69l-.14-2.27Z"/>
      <path class="cls-6" d="M51.27,415.77v5.17h-.7v-5.17h.7Z"/>
      <path class="cls-6" d="M52.5,420.94v-5.17h.77l1.75,2.62c.4.61.72,1.15.98,1.68h.02c-.06-.7-.08-1.33-.08-2.13v-2.16h.66v5.17h-.71l-1.73-2.62c-.38-.58-.74-1.17-1.02-1.73h-.02c.04.66.06,1.28.06,2.14v2.21h-.66Z"/>
      <path class="cls-6" d="M58.52,415.77v5.17h-.7v-5.17h.7Z"/>
    </g>
  </g>
  <polygon id="Atrium_AradS268_269" data-name="Atrium AradS268_269" class="cls-3" points="79.8 288.24 79.8 327.09 18.05 327.09 18.05 292.8 30.16 292.8 30.16 288.24 79.8 288.24"/>
  <rect id="Atrium_AradS267" data-name="Atrium AradS267" class="cls-3" x="18.05" y="328.89" width="61.75" height="33.58"/>
  <rect id="Atrium_AradS264" data-name="Atrium AradS264" class="cls-2" x="18.05" y="404.07" width="61.75" height="19.79"/>
  <polygon id="Atrium_AradS292" data-name="Atrium AradS292" class="cls-2" points="11.22 425.18 79.8 425.18 79.8 469.91 55.82 469.91 55.82 449.64 11.22 449.64 11.22 425.18"/>
  <polygon id="Atrium_AradS201" data-name="Atrium AradS201" class="cls-2" points="80.38 480.4 80.38 533.22 52.72 533.22 52.72 481.18 80.38 480.4"/>
  <polygon id="Atrium_AradS290" data-name="Atrium AradS290" class="cls-2" points="80.38 534.54 80.38 589.7 34.6 589.7 25.97 534.54 80.38 534.54"/>
  <polygon id="Atrium_AradS288" data-name="Atrium AradS288" class="cls-2" points="21.89 598.33 48.15 598.33 48.15 626.63 24.53 626.63 21.89 598.33"/>
  <rect id="Atrium_AradS287" data-name="Atrium AradS287" class="cls-2" x="134.23" y="650.36" width="50.72" height="53.6"/>
  <rect id="Atrium_AradS286" data-name="Atrium AradS286" class="cls-2" x="199.22" y="650.13" width="14.55" height="20.15"/>
  <polygon id="Atrium_AradS284" data-name="Atrium AradS284" class="cls-2" points="479.48 703.63 552.78 703.63 561.89 712.71 627.14 712.91 533.68 619.9 501.94 650.03 463.06 650.03 463.06 677.18 463.06 703.73 479.48 703.63"/>
  <polygon id="Atrium_AradS282A" data-name="Atrium AradS282A" class="cls-2" points="661.26 712.81 721.47 712.81 672 663.34 672.47 662.55 569.29 559.37 528.89 599.77 540.86 611.74 550.69 601.92 661.26 712.81"/>
  <polygon id="Atrium_AradS281" data-name="Atrium AradS281" class="cls-2" points="544.13 582.38 531.37 569.62 514.99 586 527.7 598.71 544.13 582.38"/>
  <polygon id="Atrium_AradS279_280" data-name="Atrium AradS279_280" class="cls-2" points="506.16 575.89 451.07 523.36 500.39 476.88 555.48 529.22 506.16 575.89"/>
  <polygon id="Atrium_AradS215A" data-name="Atrium AradS215A" class="cls-2" points="11.08 273.45 11.08 111.18 127.05 111.18 222.27 15.95 345.66 139.35 346.12 138.9 386.81 179.59 288.42 272.8 240.39 228.37 245.25 223.51 238.13 216.39 247.12 207.4 225.8 186.99 161.93 247.59 126.43 243.06 126.43 273.45 11.08 273.45"/>
  <path id="Atrium_AradS255D" data-name="Atrium AradS255D" class="cls-2" d="M231.16,561.99l-10.24,9.62c9.93,5.83,36.58,15.25,36.58,15.25l-26.34-24.87Z"/>
  <path id="Atrium_AradS255B_S255C-E" data-name="Atrium AradS255B^S255C-E" class="cls-2" d="M290.92,583.09l-14.36-13.26-3.31,3.31-5.34-4.85,10.12-9.88-21.54-20.52-24.05,23.05,27.92,26.35c14.95,5.41,42.73,7.8,42.73,7.8l-12.17-12.01Z"/>
  <polygon id="Atrium_AradS255A" data-name="Atrium AradS255A" class="cls-2" points="257.5 536.92 265.1 529.57 286.49 550.18 279.35 557.4 257.5 536.92"/>
  <polygon id="Atrium_AradS250A" data-name="Atrium AradS250A" class="cls-2" points="273.63 521.48 293.31 502.98 321.8 529.98 301.97 548.69 273.63 521.48"/>
  <polygon id="Atrium_AradDS4_S250B_STR200" data-name="Atrium AradDS4^S250B^STR200" class="cls-2" points="294.51 502 313.16 484.42 341.63 511.16 322.82 529 294.51 502"/>
  <polygon id="Atrium_AradS251" data-name="Atrium AradS251" class="cls-2" points="342.67 512.26 317.44 536.38 323.91 542.57 331.5 535.47 345.29 548.69 363.49 531.75 342.67 512.26"/>
  <path id="Atrium_AradS252" data-name="Atrium AradS252" class="cls-2" d="M364.37,532.8l41.1,38.89c-38.6,24.19-69.83,23.06-69.83,23.06l-18.49-17.69,47.22-44.26Z"/>
  <polygon id="Atrium_AradS274" data-name="Atrium AradS274" class="cls-2" points="351.36 429.13 371.29 410.21 395.71 433.53 396.15 432.8 399.39 435.95 379.58 455.57 351.36 429.13"/>
  <polygon id="Atrium_AradS275" data-name="Atrium AradS275" class="cls-2" points="380.75 456.7 398.57 473.78 417.75 454.43 400.33 437.02 380.75 456.7"/>
  <polyline id="Atrium_AradS276" data-name="Atrium AradS276" class="cls-2" points="431.72 468.31 418.82 455.57 399.39 474.67 412.52 487.25"/>
  <polygon id="Atrium_AradS277" data-name="Atrium AradS277" class="cls-2" points="416.93 490.85 440.87 466.5 454.11 479.79 430.21 503.6 416.93 490.85"/>
  <polygon id="Atrium_AradS278" data-name="Atrium AradS278" class="cls-2" points="431.25 504.69 449.67 522.42 474.13 499.73 455.11 480.92 431.25 504.69"/>
  <polyline class="cls-2" points="457.32 482 475.15 464.17 478.36 467.38 471.93 473.81 486.74 488.63"/>
  <line class="cls-2" x1="478.36" y1="467.38" x2="484.73" y2="461.01"/>
  <rect id="Atrium_AradS285" data-name="Atrium AradS285" class="cls-2" x="433.49" y="650.29" width="29.57" height="22.64"/>
  <polygon id="Atrium_AradS283" data-name="Atrium AradS283" class="cls-2" points="215.52 650.29 215.52 703.5 463.06 703.5 463.06 674.37 433.14 674.37 433.14 650.29 215.52 650.29"/>
  <polygon id="Atrium_AradS265" data-name="Atrium AradS265" class="cls-2" points="17.79 382.98 17.79 401.22 79.47 401.22 79.47 383.18 17.79 382.98"/>
  <polygon id="Atrium_AradS215x" data-name="Atrium AradS215x" class="cls-2" points="169.71 254.12 209.82 216.07 268.23 271.69 229.21 310.72 169.71 254.12"/>
  <polygon id="Atrium_AradS215B" data-name="Atrium AradS215B" class="cls-2" points="269.4 272.7 230.41 311.69 338.08 413.74 386.7 367.85 284.81 271.41 276.3 279.28 269.4 272.7"/>
  <polygon id="Atrium_AradS266" data-name="Atrium AradS266" class="cls-2" points="18.03 364.24 18.03 381.56 79.71 381.56 79.71 364.43 18.03 364.24"/>
</svg>