<?xml version="1.0" encoding="UTF-8"?>
<svg id="Layer_4" data-name="Layer 4" xmlns="http://www.w3.org/2000/svg" viewBox="0 0 598.17 833.72">
  <defs>
    <style>
      .cls-1 {
        letter-spacing: -.05em;
      }

      .cls-2 {
        letter-spacing: -.07em;
      }

      .cls-3 {
        letter-spacing: .02em;
      }

      .cls-4 {
        font-size: 23.62px;
      }

      .cls-4, .cls-5, .cls-6, .cls-7, .cls-8, .cls-9, .cls-10, .cls-11, .cls-12, .cls-13, .cls-14, .cls-15, .cls-16, .cls-17 {
        fill: #231f20;
      }

      .cls-4, .cls-6, .cls-7, .cls-8, .cls-9, .cls-18, .cls-10, .cls-11, .cls-12, .cls-13, .cls-14, .cls-15, .cls-16, .cls-17 {
        font-weight: 700;
      }

      .cls-4, .cls-6, .cls-7, .cls-8, .cls-9, .cls-10, .cls-11, .cls-12, .cls-13, .cls-14, .cls-15, .cls-16, .cls-17 {
        font-family: CopperplateGothic-Bold, 'Copperplate Gothic Bold';
      }

      .cls-19 {
        letter-spacing: 0em;
      }

      .cls-20 {
        letter-spacing: 0em;
      }

      .cls-21, .cls-22 {
        fill: none;
      }

      .cls-21, .cls-22, .cls-23 {
        stroke: #231f20;
        stroke-miterlimit: 10;
      }

      .cls-21, .cls-23 {
        stroke-width: 3px;
      }

      .cls-6 {
        font-size: 12.24px;
      }

      .cls-24 {
        letter-spacing: -.08em;
      }

      .cls-25 {
        letter-spacing: -.02em;
      }

      .cls-26 {
        letter-spacing: -.01em;
      }

      .cls-7 {
        font-size: 10.58px;
      }

      .cls-27 {
        font-size: 32.21px;
      }

      .cls-27, .cls-28 {
        fill: #010101;
      }

      .cls-8 {
        font-size: 13.9px;
      }

      .cls-29 {
        letter-spacing: 0em;
      }

      .cls-30 {
        letter-spacing: 0em;
      }

      .cls-31 {
        opacity: .4;
      }

      .cls-31, .cls-23 {
        fill: #f1f2f2;
      }

      .cls-9 {
        font-size: 7.25px;
      }

      .cls-32 {
        letter-spacing: -.01em;
      }

      .cls-33 {
        letter-spacing: 0em;
      }

      .cls-18 {
        font-family: BerlinSansFBDemi-Bold, 'Berlin Sans FB Demi';
      }

      .cls-10 {
        font-size: 19.35px;
      }

      .cls-34 {
        letter-spacing: -.04em;
      }

      .cls-35 {
        letter-spacing: -.07em;
      }

      .cls-11 {
        font-size: 7.18px;
      }

      .cls-12 {
        font-size: 10.01px;
      }

      .cls-36 {
        letter-spacing: -.07em;
      }

      .cls-37 {
        letter-spacing: 0em;
      }

      .cls-38 {
        letter-spacing: -.01em;
      }

      .cls-13 {
        font-size: 8.19px;
      }

      .cls-39 {
        fill: #f47825;
      }

      .cls-14 {
        font-size: 6.73px;
      }

      .cls-40 {
        font-family: MyriadPro-Regular, 'Myriad Pro';
      }

      .cls-15 {
        font-size: 9.8px;
      }

      .cls-16 {
        font-size: 13.93px;
      }

      .cls-17 {
        font-size: 8.37px;
      }

      .cls-41 {
        letter-spacing: 0em;
      }

      .cls-42 {
        letter-spacing: 0em;
      }

      .cls-43 {
        letter-spacing: -.07em;
      }

      .cls-44 {
        letter-spacing: 0em;
      }
    </style>
  </defs>
  <g id="General_Map" data-name="General Map">
    <polygon class="cls-31" points="0 833.72 0 0 235.67 0 235.67 58.47 250.66 58.47 251.49 256.43 351.77 256.43 351.77 268.16 598.17 268.99 598.17 833.72 0 833.72"/>
    <polygon class="cls-23" points="11.34 11.34 11.34 822.38 586.84 822.38 586.84 280.29 340.43 279.46 340.43 267.76 240.2 267.76 239.37 69.81 224.33 69.81 224.33 11.34 11.34 11.34"/>
  </g>
  <g id="Magazine">
    <polyline class="cls-21" points="11.34 72.64 42.95 72.64 42.95 103.11 158.94 103.11 158.94 291.52 240.2 291.52 240.2 267.76"/>
    <polyline class="cls-21" points="11.34 130.97 28.53 130.97 28.53 112.62 78.99 112.62 78.99 225.33 118.64 225.33 118.64 291.52 36.07 291.52 36.07 307.91 11.34 307.91"/>
    <line class="cls-21" x1="158.94" y1="291.52" x2="118.64" y2="291.52"/>
    <polygon class="cls-21" points="53.11 307.91 53.11 341.66 28.86 341.66 28.86 446.51 118.64 446.51 118.64 340.67 118.64 307.91 53.11 307.91"/>
    <line class="cls-21" x1="53.11" y1="341.66" x2="118.64" y2="341.66"/>
    <line class="cls-21" x1="118.64" y1="396.05" x2="28.86" y2="396.05"/>
    <line class="cls-21" x1="118.64" y1="420.95" x2="28.86" y2="420.95"/>
    <polygon class="cls-21" points="28.86 462.89 28.86 719.13 118.64 719.13 118.64 514.66 118.64 462.89 28.86 462.89"/>
    <line class="cls-21" x1="28.86" y1="514.01" x2="118.64" y2="514.01"/>
    <line class="cls-21" x1="118.64" y1="573.97" x2="28.86" y2="573.97"/>
    <line class="cls-21" x1="118.64" y1="643.11" x2="28.86" y2="643.11"/>
    <polyline class="cls-21" points="28.86 691.6 69.49 691.6 69.49 697.5 73.75 697.5 73.75 707.33 94.39 707.33 94.39 719.13"/>
    <polyline class="cls-21" points="11.34 758.12 32.79 758.12 32.79 768.61 118.64 768.61 118.64 792.85 100.29 792.85 100.29 822.38"/>
    <line class="cls-21" x1="32.46" y1="822.38" x2="32.46" y2="768.61"/>
    <line class="cls-21" x1="56.71" y1="822.38" x2="56.71" y2="768.61"/>
    <line class="cls-21" x1="80.3" y1="822.38" x2="80.3" y2="768.61"/>
    <line class="cls-21" x1="102.58" y1="768.61" x2="102.58" y2="791.54"/>
    <polyline class="cls-21" points="146.16 822.38 146.16 800.72 136.99 800.72 136.99 726.01 396.17 726.01 396.17 621.81 296.24 621.81 136.99 621.81 136.99 716.18 333.26 716.18 333.92 621.81"/>
    <line class="cls-21" x1="296.56" y1="716.18" x2="296.56" y2="621.81"/>
    <line class="cls-21" x1="260.19" y1="716.18" x2="260.19" y2="621.81"/>
    <polyline class="cls-21" points="231.03 621.81 231.03 683.74 237.91 683.74 237.91 716.18"/>
    <polyline class="cls-21" points="183.19 621.81 183.19 684.07 208.42 684.07 208.42 716.18"/>
    <line class="cls-21" x1="328.02" y1="726.01" x2="328.02" y2="716.18"/>
    <polyline class="cls-21" points="396.17 621.81 432.55 631.31 432.55 777.45 340.47 777.45 340.47 822.38"/>
    <polyline class="cls-21" points="586.84 650.97 535.43 650.97 535.43 611.33 549.2 611.33 549.2 520.89 514.46 520.89 497.75 537.6 497.75 554.31 497.75 630.66 447.62 630.66 447.62 804.98 586.84 804.98"/>
    <line class="cls-21" x1="549.2" y1="554.64" x2="497.75" y2="554.64"/>
    <polyline class="cls-21" points="497.75 602.48 536.42 602.48 536.42 609.36"/>
    <polyline class="cls-21" points="497.75 630.66 497.75 650.97 535.43 650.97"/>
    <polyline class="cls-21" points="586.84 640.82 544.61 640.82 544.61 611.33"/>
    <line class="cls-21" x1="549.2" y1="520.89" x2="586.84" y2="520.89"/>
    <polyline class="cls-21" points="586.84 387.2 455.48 387.2 455.48 351.49 491.85 351.49 491.85 279.97"/>
    <polyline class="cls-21" points="378.15 279.59 378.15 387.2 444.67 387.2 444.67 303.32 459.09 303.32 459.09 279.97"/>
    <polyline class="cls-21" points="491.85 339.69 518.07 339.69 518.07 387.2 491.85 387.2 491.85 351.49"/>
    <line class="cls-22" x1="54.38" y1="691.6" x2="54.38" y2="719.13"/>
  </g>
  <g id="Logos">
    <g>
      <path class="cls-28" d="M111.93,784.15h-.55v-1.41c0-.11-.09-.2-.2-.2h-1.51c-.11,0-.2.09-.2.2v1.41h-.56c-.11,0-.2.09-.2.2v1.51c0,.11.09.2.2.2h3.02c.11,0,.2-.09.2-.2v-1.51c0-.11-.09-.2-.2-.2ZM109.86,782.94h.35v.2c0,.11.09.2.2.2s.2-.09.2-.2v-.2h.36v1.11h-1.11v-1.11ZM109.11,784.55h.3v.2c0,.11.09.2.2.2s.2-.09.2-.2v-.2h.4v1.11h-1.11v-1.11ZM111.72,785.65h-1.11v-1.11h.4v.2c0,.11.09.2.2.2s.2-.09.2-.2v-.2h.31v1.11Z"/>
      <path class="cls-28" d="M114.93,779.93s0-.02,0-.02c0,0,0-.01,0-.02,0,0,0-.01,0-.02,0,0,0-.01,0-.02,0,0,0-.01,0-.02v-.02s-.02-.01-.02-.01c0,0,0-.01-.01-.02h-.01s-.02-.03-.02-.03h0l-4.32-2.71c-.07-.04-.15-.04-.21,0l-4.32,2.71h0l-.02.02h-.01s0,.02-.01.03h-.01s-.02.02-.02.02c0,0,0,.01,0,.02,0,0,0,.01,0,.02,0,0,0,.01,0,.02,0,0,0,.01,0,.02,0,0,0,.02,0,.03v5.93c0,.11.09.2.2.2h1.81c.11,0,.2-.09.2-.2v-3.92h4.62v3.92c0,.11.09.2.2.2.01,0,.02,0,.04,0,.01,0,.02,0,.04,0h1.74c.11,0,.2-.09.2-.2v-5.93ZM108.1,781.53v-.2h4.62v.2h-4.62ZM113.12,785.65v-4.52c0-.11-.09-.2-.2-.2h-5.02c-.11,0-.2.09-.2.2v4.52h-1.41v-5.61s4.12-2.59,4.12-2.59l4.12,2.59v5.61h-1.41Z"/>
      <path class="cls-28" d="M110.91,779.02h-1.11c-.11,0-.2.09-.2.2,0,.11.09.2.2.2h1.11c.11,0,.2-.09.2-.2,0-.11-.09-.2-.2-.2Z"/>
      <path class="cls-28" d="M110.91,779.63h-1.11c-.11,0-.2.09-.2.2,0,.11.09.2.2.2h1.11c.11,0,.2-.09.2-.2s-.09-.2-.2-.2Z"/>
    </g>
    <g id="kfc">
      <path class="cls-28" d="M60.73,600.48h-1.26l-.28,1.12c.56,0,1.54.56.84,1.26-.14.14-7.41,5.73-7.41,5.73l1.54-5.73c.28-1.12,1.54-1.26,1.54-1.26l.28-1.12h-8.81l-.28,1.12c.42.14,1.68.28,1.26,1.96-2.94,10.63-2.66,9.51-2.8,10.07-.84,3.08-2.1,2.94-2.52,2.94l-.28,1.12v.14h9.23l.28-1.26s-1.4-.28-1.12-1.4c.28-.98,1.4-5.17,1.4-5.17,4.06,6.57,5.03,7.69,8.67,7.83h4.61l.28-1.26c-1.12,0-1.96-.84-2.38-1.4-.28-.28-1.54-2.1-2.66-3.78-.98-1.54-1.96-2.94-1.96-2.94l1.96-1.54,5.45-4.33c1.26-.98,2.1-.98,2.1-.98l.28-1.12h-7.97Z"/>
      <path class="cls-28" d="M98.07,600.34c-.98,0-1.96,0-2.8.14-7.41.84-11.89,5.45-11.89,10.21,0,3.92,3.22,7.69,10.49,7.69h1.4c1.82-.14,3.36-.28,4.75-.56l.84-3.64c-1.4.42-3.22.84-4.61.84h-.98c-3.36-.28-5.59-2.52-5.59-5.31s2.1-5.17,5.59-5.73c.56-.14,1.26-.14,1.82-.14,2.24,0,3.36.7,4.06,1.68h.56l1.26-4.33c-1.26-.42-3.08-.84-4.89-.84Z"/>
      <path class="cls-28" d="M78.63,600.48h-8.67l-.28,1.12s1.68.14,1.26,1.96l-3.92,14.26h7.83l.28-1.26s-1.54-.42-1.12-1.68c0-.14,1.12-4.19,1.12-4.19h3.64c1.82,0,2.38.98,2.38.98l1.12-4.19h-6.15l.84-3.36h5.17c.98,0,1.68.7,1.68,1.12h.56l1.12-4.61-6.85-.14h0Z"/>
    </g>
    <path class="cls-39" d="M83.7,660.83c0-1.38-1.17-2.5-2.61-2.5h-17.02c-1.44,0-2.61,1.12-2.61,2.5v16.34c0,1.38,1.17,2.5,2.61,2.5h17.02c1.44,0,2.61-1.12,2.61-2.5v-16.34ZM77.43,661.49c.72,0,1.3.56,1.3,1.25,0,.69-.58,1.25-1.3,1.25s-1.3-.56-1.3-1.25c0-.68.58-1.25,1.3-1.25ZM67.4,661.49c.72,0,1.3.56,1.3,1.25,0,.69-.58,1.25-1.3,1.25s-1.3-.56-1.3-1.25c0-.68.58-1.25,1.3-1.25ZM69.99,665.06l-.36,4.18c-.02.27-.2.49-.46.58h0c-.26.1-.44.33-.45.6l-.34,5.42c-.02.36-.34.65-.73.65h-.24s-.24,0-.24,0c-.38,0-.69-.28-.72-.65l-.34-5.42c-.02-.27-.2-.51-.46-.6-.26-.09-.44-.33-.46-.59l-.36-4.18c-.02-.34.21-.66.56-.73l.36-.08c.24-.05.48.02.66.18l.5.48c.28.27.74.27,1.02,0l.5-.48c.18-.17.43-.23.66-.18l.36.08c.32.08.56.4.54.74ZM72.76,676.49c0,.18-.16.33-.35.33s-.35-.15-.35-.33v-15c0-.18.16-.33.35-.33s.35.15.35.33v15ZM79.97,669.82c-.25.06-.4.28-.37.52l.15,1.07c.04.25-.15.49-.41.52l-.33.04c-.23.03-.4.22-.41.43l-.22,3.44c-.02.37-.34.65-.72.65h-.24s-.24,0-.24,0c-.38,0-.7-.28-.72-.65l-.22-3.44c-.01-.22-.19-.4-.41-.43l-.33-.04c-.26-.03-.45-.28-.41-.52l.15-1.07c.04-.24-.12-.46-.36-.52-.25-.06-.41-.3-.35-.55l.98-4.47c.07-.32.45-.48.73-.29l.92.57c.15.1.36.1.53,0l.92-.57c.29-.17.67-.03.74.29l.98,4.47c.04.24-.11.48-.36.55Z"/>
    <path class="cls-39" d="M309.24,454.45c-.48.07-2.28.51-4.02.95-12.64,3.3-22.89,13.56-26.5,26.47-1.09,3.92-1.5,11.69-.82,15.87,1.84,11.52,9.13,21.77,19.42,27.25,4.26,2.28,11.92,4.67,11.92,3.71s-4.16-22.65-4.5-23.51c-.2-.51-1.87-2.35-3.75-4.09-3.85-3.54-4.8-4.94-5.55-8.14-.61-2.69-3.58-21.02-3.58-22.21,0-.89,1.16-1.57,1.74-.99.17.17,1.36,4.97,2.62,10.7,2.15,9.64,2.35,10.36,3.07,10.46.41.07.82-.1.92-.34.1-.24-.89-5.11-2.18-10.83-1.29-5.72-2.28-10.49-2.18-10.66.07-.14.54-.24,1.06-.24h.95l2.35,10.63c2.42,10.87,2.62,11.34,3.92,10.53.41-.27.14-1.91-1.84-10.73-1.3-5.72-2.25-10.66-2.11-10.94.1-.27.54-.51.99-.51.75,0,.89.31,2.28,6.54,3.48,15.6,3.24,14.75,4.02,14.85.41.07.82-.1.92-.34.1-.24-.89-5.11-2.18-10.83-2.15-9.47-2.28-10.43-1.81-10.83,1.29-.99,1.5-.48,4.91,11.34,3.17,10.9,3.34,11.72,3.2,14.14-.1,2.11-.38,3.17-1.7,6.13-1.09,2.52-1.57,4.05-1.57,5.11,0,1.8,6.3,23.95,6.61,23.17.1-.27.89-3.85,1.74-7.9l1.57-7.39-.58-1.74c-.61-1.91-.58-3.51.41-12.95.65-6.47,1.77-11.92,3.88-18.98,2.25-7.49,4.5-12.06,7.29-14.92,3.54-3.61,5.65-3.31,5.65.82,0,2.86-8.35,46.23-9.23,47.9-.44.85-1.12,3.85-1.87,8.18-.65,3.75-1.26,7.22-1.36,7.73l-.17.92,1.81-.51c7.22-2.08,12.67-5.35,17.72-10.63,6.74-7.05,10.19-15.71,10.22-25.62.03-10.6-3.75-19.79-11.17-27.12-5.21-5.18-12.2-8.82-19.49-10.22-2.32-.44-10.87-.61-13.01-.24h0ZM309.24,454.45"/>
    <g>
      <path class="cls-28" d="M47.1,798.53h-.73v-1.86c0-.15-.12-.27-.27-.27h-1.99c-.15,0-.27.12-.27.27v1.86h-.74c-.15,0-.27.12-.27.27v1.99c0,.15.12.27.27.27h4c.15,0,.27-.12.27-.27v-1.99c0-.15-.12-.27-.27-.27ZM44.36,796.93h.46v.27c0,.15.12.27.27.27s.27-.12.27-.27v-.27h.47v1.46h-1.46v-1.46ZM43.36,799.06h.4v.27c0,.15.12.27.27.27s.27-.12.27-.27v-.27h.53v1.46h-1.46v-1.46ZM46.83,800.52h-1.47v-1.46h.53v.27c0,.15.12.27.27.27s.27-.12.27-.27v-.27h.41v1.46Z"/>
      <path class="cls-28" d="M51.08,792.94s0-.02,0-.03c0,0,0-.02,0-.02,0,0,0-.02,0-.03,0,0,0-.02,0-.02,0,0,0-.01-.01-.02v-.02s-.03-.02-.03-.02c0,0-.01-.01-.02-.02h-.02s-.03-.03-.03-.03h0l-5.72-3.59c-.09-.05-.2-.05-.28,0l-5.72,3.59h0l-.03.02h-.02s-.01.03-.02.03l-.02.02h-.03s0,.03-.01.03c0,0,0,.02,0,.02,0,0,0,.02,0,.03,0,0,0,.02,0,.02,0,.01,0,.03,0,.04v7.84c0,.15.12.27.27.27h2.39c.15,0,.27-.12.27-.27v-5.19h6.12v5.19c0,.15.12.27.27.27.02,0,.03,0,.05,0,.02,0,.03,0,.05,0h2.3c.15,0,.27-.12.27-.27v-7.84ZM42.03,795.07v-.27h6.12v.27h-6.12ZM48.68,800.52v-5.98c0-.15-.12-.27-.27-.27h-6.65c-.15,0-.27.12-.27.27v5.98h-1.86v-7.43s5.45-3.42,5.45-3.42l5.45,3.42v7.43h-1.86Z"/>
      <path class="cls-28" d="M45.76,791.75h-1.46c-.15,0-.27.12-.27.27,0,.15.12.27.27.27h1.46c.15,0,.27-.12.27-.27,0-.15-.12-.27-.27-.27Z"/>
      <path class="cls-28" d="M45.76,792.54h-1.46c-.15,0-.27.12-.27.27s.12.27.27.27h1.46c.15,0,.27-.12.27-.27s-.12-.27-.27-.27Z"/>
    </g>
    <g>
      <path class="cls-28" d="M24.88,798.55h-.73v-1.86c0-.15-.12-.27-.27-.27h-1.99c-.15,0-.27.12-.27.27v1.86h-.74c-.15,0-.27.12-.27.27v1.99c0,.15.12.27.27.27h4c.15,0,.27-.12.27-.27v-1.99c0-.15-.12-.27-.27-.27ZM22.15,796.95h.46v.27c0,.15.12.27.27.27s.27-.12.27-.27v-.27h.47v1.46h-1.46v-1.46ZM21.15,799.08h.4v.27c0,.15.12.27.27.27s.27-.12.27-.27v-.27h.53v1.46h-1.46v-1.46ZM24.61,800.54h-1.47v-1.46h.53v.27c0,.15.12.27.27.27s.27-.12.27-.27v-.27h.41v1.46Z"/>
      <path class="cls-28" d="M28.86,792.96s0-.02,0-.03c0,0,0-.02,0-.02,0,0,0-.02,0-.03,0,0,0-.02,0-.02,0,0,0-.01-.01-.02v-.02s-.03-.02-.03-.02c0,0-.01-.01-.02-.02h-.02s-.03-.03-.03-.03h0l-5.72-3.59c-.09-.05-.2-.05-.28,0l-5.72,3.59h0l-.03.02h-.02s-.01.03-.02.03l-.02.02h-.03s0,.03-.01.03c0,0,0,.02,0,.02,0,0,0,.02,0,.03,0,0,0,.02,0,.02,0,.01,0,.03,0,.04v7.84c0,.15.12.27.27.27h2.39c.15,0,.27-.12.27-.27v-5.19h6.12v5.19c0,.15.12.27.27.27.02,0,.03,0,.05,0,.02,0,.03,0,.05,0h2.3c.15,0,.27-.12.27-.27v-7.84ZM19.82,795.09v-.27h6.12v.27h-6.12ZM26.47,800.54v-5.98c0-.15-.12-.27-.27-.27h-6.65c-.15,0-.27.12-.27.27v5.98h-1.86v-7.43s5.45-3.42,5.45-3.42l5.45,3.42v7.43h-1.86Z"/>
      <path class="cls-28" d="M23.54,791.77h-1.46c-.15,0-.27.12-.27.27,0,.15.12.27.27.27h1.46c.15,0,.27-.12.27-.27,0-.15-.12-.27-.27-.27Z"/>
      <path class="cls-28" d="M23.54,792.56h-1.46c-.15,0-.27.12-.27.27s.12.27.27.27h1.46c.15,0,.27-.12.27-.27s-.12-.27-.27-.27Z"/>
    </g>
    <g>
      <path class="cls-28" d="M70.7,798.55h-.73v-1.86c0-.15-.12-.27-.27-.27h-1.99c-.15,0-.27.12-.27.27v1.86h-.74c-.15,0-.27.12-.27.27v1.99c0,.15.12.27.27.27h4c.15,0,.27-.12.27-.27v-1.99c0-.15-.12-.27-.27-.27ZM67.97,796.95h.46v.27c0,.15.12.27.27.27s.27-.12.27-.27v-.27h.47v1.46h-1.46v-1.46ZM66.97,799.08h.4v.27c0,.15.12.27.27.27s.27-.12.27-.27v-.27h.53v1.46h-1.46v-1.46ZM70.44,800.54h-1.47v-1.46h.53v.27c0,.15.12.27.27.27s.27-.12.27-.27v-.27h.41v1.46Z"/>
      <path class="cls-28" d="M74.68,792.96s0-.02,0-.03c0,0,0-.02,0-.02,0,0,0-.02,0-.03,0,0,0-.02,0-.02,0,0,0-.01-.01-.02v-.02s-.03-.02-.03-.02c0,0-.01-.01-.02-.02h-.02s-.03-.03-.03-.03h0l-5.72-3.59c-.09-.05-.2-.05-.28,0l-5.72,3.59h0l-.03.02h-.02s-.01.03-.02.03l-.02.02h-.03s0,.03-.01.03c0,0,0,.02,0,.02,0,0,0,.02,0,.03,0,0,0,.02,0,.02,0,.01,0,.03,0,.04v7.84c0,.15.12.27.27.27h2.39c.15,0,.27-.12.27-.27v-5.19h6.12v5.19c0,.15.12.27.27.27.02,0,.03,0,.05,0,.02,0,.03,0,.05,0h2.3c.15,0,.27-.12.27-.27v-7.84ZM65.64,795.09v-.27h6.12v.27h-6.12ZM72.29,800.54v-5.98c0-.15-.12-.27-.27-.27h-6.65c-.15,0-.27.12-.27.27v5.98h-1.86v-7.43s5.45-3.42,5.45-3.42l5.45,3.42v7.43h-1.86Z"/>
      <path class="cls-28" d="M69.36,791.77h-1.46c-.15,0-.27.12-.27.27,0,.15.12.27.27.27h1.46c.15,0,.27-.12.27-.27,0-.15-.12-.27-.27-.27Z"/>
      <path class="cls-28" d="M69.36,792.56h-1.46c-.15,0-.27.12-.27.27,0,.15.12.27.27.27h1.46c.15,0,.27-.12.27-.27,0-.15-.12-.27-.27-.27Z"/>
    </g>
    <g>
      <path class="cls-28" d="M92.45,798.95h-.73v-1.86c0-.15-.12-.27-.27-.27h-1.99c-.15,0-.27.12-.27.27v1.86h-.74c-.15,0-.27.12-.27.27v1.99c0,.15.12.27.27.27h4c.15,0,.27-.12.27-.27v-1.99c0-.15-.12-.27-.27-.27ZM89.71,797.35h.46v.27c0,.15.12.27.27.27s.27-.12.27-.27v-.27h.47v1.46h-1.46v-1.46ZM88.71,799.48h.4v.27c0,.15.12.27.27.27s.27-.12.27-.27v-.27h.53v1.46h-1.46v-1.46ZM92.18,800.94h-1.47v-1.46h.53v.27c0,.15.12.27.27.27s.27-.12.27-.27v-.27h.41v1.46Z"/>
      <path class="cls-28" d="M96.43,793.36s0-.02,0-.03c0,0,0-.02,0-.02,0,0,0-.02,0-.03,0,0,0-.02,0-.02,0,0,0-.01-.01-.02v-.02s-.03-.02-.03-.02c0,0-.01-.01-.02-.02h-.02s-.03-.03-.03-.03h0l-5.72-3.59c-.09-.05-.2-.05-.28,0l-5.72,3.59h0l-.03.02h-.02s-.01.03-.02.03l-.02.02h-.03s0,.03-.01.03c0,0,0,.02,0,.02,0,0,0,.02,0,.03,0,0,0,.02,0,.02,0,.01,0,.03,0,.04v7.84c0,.15.12.27.27.27h2.39c.15,0,.27-.12.27-.27v-5.19h6.12v5.19c0,.15.12.27.27.27.02,0,.03,0,.05,0,.02,0,.03,0,.05,0h2.3c.15,0,.27-.12.27-.27v-7.84ZM87.39,795.49v-.27h6.12v.27h-6.12ZM94.03,800.94v-5.98c0-.15-.12-.27-.27-.27h-6.65c-.15,0-.27.12-.27.27v5.98h-1.86v-7.43s5.45-3.42,5.45-3.42l5.45,3.42v7.43h-1.86Z"/>
      <path class="cls-28" d="M91.11,792.17h-1.46c-.15,0-.27.12-.27.27,0,.15.12.27.27.27h1.46c.15,0,.27-.12.27-.27,0-.15-.12-.27-.27-.27Z"/>
      <path class="cls-28" d="M91.11,792.96h-1.46c-.15,0-.27.12-.27.27s.12.27.27.27h1.46c.15,0,.27-.12.27-.27s-.12-.27-.27-.27Z"/>
    </g>
    <g>
      <path class="cls-28" d="M44.04,708.82h-.73v-1.86c0-.15-.12-.27-.27-.27h-1.99c-.15,0-.27.12-.27.27v1.86h-.74c-.15,0-.27.12-.27.27v1.99c0,.15.12.27.27.27h4c.15,0,.27-.12.27-.27v-1.99c0-.15-.12-.27-.27-.27ZM41.3,707.22h.46v.27c0,.15.12.27.27.27s.27-.12.27-.27v-.27h.47v1.46h-1.46v-1.46ZM40.31,709.35h.4v.27c0,.15.12.27.27.27s.27-.12.27-.27v-.27h.53v1.46h-1.46v-1.46ZM43.77,710.81h-1.47v-1.46h.53v.27c0,.15.12.27.27.27s.27-.12.27-.27v-.27h.41v1.46Z"/>
      <path class="cls-28" d="M48.02,703.24s0-.02,0-.03c0,0,0-.02,0-.02,0,0,0-.02,0-.03,0,0,0-.02,0-.02,0,0,0-.01-.01-.02v-.02s-.03-.02-.03-.02c0,0-.01-.01-.02-.02h-.02s-.03-.03-.03-.03h0l-5.72-3.59c-.09-.05-.2-.05-.28,0l-5.72,3.59h0l-.03.02h-.02s-.01.03-.02.03l-.02.02h-.03s0,.03-.01.03c0,0,0,.02,0,.02,0,0,0,.02,0,.03,0,0,0,.02,0,.02,0,.01,0,.03,0,.04v7.84c0,.15.12.27.27.27h2.39c.15,0,.27-.12.27-.27v-5.19h6.12v5.19c0,.15.12.27.27.27.02,0,.03,0,.05,0,.02,0,.03,0,.05,0h2.3c.15,0,.27-.12.27-.27v-7.84ZM38.98,705.36v-.27h6.12v.27h-6.12ZM45.62,710.81v-5.98c0-.15-.12-.27-.27-.27h-6.65c-.15,0-.27.12-.27.27v5.98h-1.86v-7.43s5.45-3.42,5.45-3.42l5.45,3.42v7.43h-1.86Z"/>
      <path class="cls-28" d="M42.7,702.04h-1.46c-.15,0-.27.12-.27.27,0,.15.12.27.27.27h1.46c.15,0,.27-.12.27-.27,0-.15-.12-.27-.27-.27Z"/>
      <path class="cls-28" d="M42.7,702.84h-1.46c-.15,0-.27.12-.27.27s.12.27.27.27h1.46c.15,0,.27-.12.27-.27s-.12-.27-.27-.27Z"/>
    </g>
    <g>
      <path class="cls-28" d="M65.83,708.84h-.73v-1.86c0-.15-.12-.27-.27-.27h-1.99c-.15,0-.27.12-.27.27v1.86h-.74c-.15,0-.27.12-.27.27v1.99c0,.15.12.27.27.27h4c.15,0,.27-.12.27-.27v-1.99c0-.15-.12-.27-.27-.27ZM63.1,707.24h.46v.27c0,.15.12.27.27.27s.27-.12.27-.27v-.27h.47v1.46h-1.46v-1.46ZM62.1,709.37h.4v.27c0,.15.12.27.27.27s.27-.12.27-.27v-.27h.53v1.46h-1.46v-1.46ZM65.56,710.83h-1.47v-1.46h.53v.27c0,.15.12.27.27.27s.27-.12.27-.27v-.27h.41v1.46Z"/>
      <path class="cls-28" d="M69.81,703.26s0-.02,0-.03c0,0,0-.02,0-.02,0,0,0-.02,0-.03,0,0,0-.02,0-.02,0,0,0-.01-.01-.02v-.02s-.03-.02-.03-.02c0,0-.01-.01-.02-.02h-.02s-.03-.03-.03-.03h0l-5.72-3.59c-.09-.05-.2-.05-.28,0l-5.72,3.59h0l-.03.02h-.02s-.01.03-.02.03l-.02.02h-.03s0,.03-.01.03c0,0,0,.02,0,.02,0,0,0,.02,0,.03,0,0,0,.02,0,.02,0,.01,0,.03,0,.04v7.84c0,.15.12.27.27.27h2.39c.15,0,.27-.12.27-.27v-5.19h6.12v5.19c0,.15.12.27.27.27.02,0,.03,0,.05,0,.02,0,.03,0,.05,0h2.3c.15,0,.27-.12.27-.27v-7.84ZM60.77,705.38v-.27h6.12v.27h-6.12ZM67.42,710.83v-5.98c0-.15-.12-.27-.27-.27h-6.65c-.15,0-.27.12-.27.27v5.98h-1.86v-7.43s5.45-3.42,5.45-3.42l5.45,3.42v7.43h-1.86Z"/>
      <path class="cls-28" d="M64.49,702.06h-1.46c-.15,0-.27.12-.27.27,0,.15.12.27.27.27h1.46c.15,0,.27-.12.27-.27,0-.15-.12-.27-.27-.27Z"/>
      <path class="cls-28" d="M64.49,702.86h-1.46c-.15,0-.27.12-.27.27s.12.27.27.27h1.46c.15,0,.27-.12.27-.27s-.12-.27-.27-.27Z"/>
    </g>
    <text class="cls-27" transform="translate(203.88 243.9) rotate(-90)"><tspan class="cls-18" x="0" y="0">STAY </tspan><tspan class="cls-40" x="80.75" y="0">FIT </tspan><tspan class="cls-18" x="126.98" y="0">GYM</tspan></text>
    <g>
      <path class="cls-5" d="M38.37,235.19h2.9c.13,0,.23-.03.3-.09.07-.06.13-.17.16-.32h.21v2.75h-.21c-.04-.15-.1-.26-.17-.32-.07-.06-.17-.09-.3-.09h-7.45c-.13,0-.23.03-.3.09s-.12.17-.17.32h-.21v-5.49c0-.64.04-1.15.13-1.52s.23-.71.44-1c.22-.3.51-.53.86-.7.37-.17.76-.25,1.17-.25.59,0,1.11.16,1.56.48.38.27.65.64.82,1.09.16.45.24,1.09.24,1.9v3.16ZM36.92,235.19v-2.93c0-.58-.06-.99-.19-1.23-.08-.15-.21-.27-.39-.36s-.38-.14-.59-.14-.4.05-.58.14-.31.21-.39.36c-.12.23-.19.64-.19,1.23v2.93h2.33Z"/>
      <path class="cls-5" d="M38.87,225.49h1.76v-4.58c0-.13-.03-.24-.09-.31-.06-.07-.17-.13-.32-.17v-.18h2.13v.18c-.15.04-.26.09-.32.17-.06.07-.09.18-.09.31v6.72h-.18c-.04-.15-.09-.26-.17-.32-.07-.06-.18-.09-.31-.09h-5.9c-.13,0-.23.03-.3.09-.07.06-.13.17-.17.32h-.18v-6.52c0-.14-.03-.24-.09-.31-.06-.07-.17-.13-.32-.17v-.17h2.13v.17c-.16.04-.26.1-.32.17-.06.07-.09.17-.09.31v4.38h1.58v-2.72c0-.13-.03-.24-.09-.31s-.17-.13-.32-.18v-.17h2.08v.17c-.15.04-.26.1-.32.17-.06.07-.09.17-.09.31v2.72Z"/>
      <path class="cls-5" d="M38.87,217.02h1.76v-4.58c0-.13-.03-.24-.09-.31-.06-.07-.17-.13-.32-.17v-.18h2.13v.18c-.15.04-.26.09-.32.17-.06.07-.09.18-.09.31v6.72h-.18c-.04-.15-.09-.26-.17-.32-.07-.06-.18-.09-.31-.09h-5.9c-.13,0-.23.03-.3.09-.07.06-.13.17-.17.32h-.18v-6.52c0-.14-.03-.24-.09-.31-.06-.07-.17-.13-.32-.17v-.17h2.13v.17c-.16.04-.26.1-.32.17-.06.07-.09.17-.09.31v4.38h1.58v-2.72c0-.13-.03-.24-.09-.31s-.17-.13-.32-.18v-.17h2.08v.17c-.15.04-.26.1-.32.17-.06.07-.09.17-.09.31v2.72Z"/>
      <path class="cls-5" d="M38.65,207.52l.83,1.03h1.79c.13,0,.23-.03.31-.09.07-.06.13-.17.18-.32h.18v2.55h-.18c-.04-.15-.09-.26-.17-.32-.07-.06-.18-.09-.31-.09h-5.9c-.13,0-.23.03-.3.09-.07.06-.13.17-.17.32h-.18v-2.55h.18c.04.15.1.26.17.32.07.06.17.09.31.09h2.37l-2.17-2.72c-.16-.2-.3-.3-.42-.3-.13,0-.21.12-.26.37h-.18v-3.24h.18c.03.16.07.3.15.41.07.11.3.38.67.82l1.95,2.43,3.07-2.67c.4-.34.66-.59.77-.74.12-.15.2-.32.24-.51h.18v3.16h-.18c-.06-.24-.14-.35-.26-.35-.04,0-.08.01-.12.04s-.16.13-.35.3l-2.37,1.99Z"/>
      <path class="cls-5" d="M35.88,189.12h2.44v.21c-.21.03-.32.09-.32.19,0,.09.06.24.19.43s.27.35.43.5c.28.25.58.43.91.53.27-.27.46-.5.58-.69.11-.2.17-.4.17-.6,0-.19-.1-.31-.31-.35v-.21h2.03c-.03.12-.06.5-.1,1.13-.02.25-.13.55-.34.91-.21.36-.46.68-.73.94.85.87,1.28,1.91,1.28,3.11,0,.94-.22,1.71-.67,2.33-.5.7-1.17,1.05-1.99,1.05-1.1,0-1.98-.65-2.62-1.96-.51.58-1.06.87-1.66.87-.7,0-1.26-.34-1.67-1.01-.33-.55-.5-1.17-.5-1.88,0-.79.2-1.48.59-2.07.39-.58.92-.87,1.61-.87.38,0,.71.08.97.25.27.17.55.47.86.91.29-.45.7-.79,1.22-1.04-.71-.41-1.24-.81-1.59-1.21-.35-.39-.61-.89-.78-1.47ZM34.3,194.58c0,.33.08.61.24.86.2.31.49.47.87.47.32,0,.58-.13.79-.38.21-.25.31-.57.31-.95,0-.33-.08-.62-.24-.86-.21-.31-.49-.47-.85-.47-.33,0-.6.12-.81.37-.21.25-.31.57-.32.97ZM37.61,195.04c0,.48.14.9.42,1.25.28.35.63.52,1.05.52.44,0,.81-.17,1.09-.51.28-.34.43-.78.43-1.31s-.14-1.02-.41-1.4c-.27-.39-.59-.58-.97-.58-.18,0-.37.06-.58.18-.21.12-.39.27-.53.45-.32.4-.49.87-.49,1.41Z"/>
      <path class="cls-5" d="M54.75,254.22l1.83-1.22.12.17c-.11.12-.17.22-.17.3s.1.29.31.65c.43.74.71,1.36.86,1.87s.22,1.1.22,1.8c0,1.39-.33,2.53-.99,3.42-.38.52-.86.94-1.42,1.24-.65.35-1.36.52-2.15.52-1.07,0-1.99-.31-2.78-.93-1.18-.94-1.77-2.35-1.77-4.25,0-.7.07-1.29.22-1.79.15-.5.43-1.12.86-1.87.2-.36.3-.57.3-.65s-.06-.18-.17-.3l.12-.17,1.84,1.22-.12.17c-.07,0-.13-.01-.17-.01-.12,0-.24.05-.35.16-.11.11-.24.3-.4.57-.43.76-.64,1.57-.64,2.42,0,1.01.25,1.81.75,2.4.59.7,1.36,1.06,2.3,1.06s1.72-.35,2.3-1.06c.5-.6.75-1.4.75-2.4,0-.85-.21-1.66-.64-2.42-.16-.27-.29-.47-.4-.57s-.23-.16-.35-.16c-.05,0-.1,0-.17.01l-.12-.17Z"/>
      <path class="cls-5" d="M56.47,249.7v-4.04c0-.14-.03-.24-.09-.31-.06-.07-.17-.13-.32-.17v-.17h2.13v.17c-.15.04-.26.1-.32.17-.06.07-.09.18-.09.31v6.18h-.18c-.04-.15-.09-.26-.17-.32-.07-.06-.18-.09-.31-.09h-5.9c-.13,0-.23.03-.3.09-.07.06-.13.17-.17.32h-.18v-2.55h.18c.04.15.1.26.17.32.07.06.17.09.31.09h5.25Z"/>
      <path class="cls-5" d="M50.4,240.2c0-1.15.29-2.1.88-2.87.7-.92,1.69-1.37,2.94-1.37,1.18,0,2.12.46,2.83,1.37.58.76.88,1.71.88,2.86s-.29,2.1-.88,2.86c-.7.92-1.67,1.38-2.89,1.38s-2.2-.46-2.89-1.38c-.57-.76-.86-1.71-.88-2.84ZM51.77,240.19c0,.74.24,1.35.72,1.82.45.43,1.01.65,1.68.65s1.23-.22,1.67-.65c.48-.47.72-1.08.72-1.83s-.24-1.35-.72-1.82c-.44-.43-.99-.65-1.64-.65-.71,0-1.28.22-1.71.65-.47.47-.71,1.08-.72,1.83Z"/>
      <path class="cls-5" d="M54.81,232.71h2.3c.13,0,.24-.03.31-.09.07-.06.13-.17.18-.32h.18v2.55h-.18c-.04-.15-.09-.26-.17-.32-.07-.06-.18-.09-.31-.09h-5.9c-.13,0-.23.03-.3.09-.07.06-.13.17-.17.32h-.18v-4.7c0-.93.14-1.63.42-2.11.16-.27.4-.49.7-.64s.64-.23,1.01-.23c.72,0,1.25.24,1.6.73.35.49.53,1.24.53,2.25v2.56ZM53.5,232.71v-2.46c0-.45-.04-.76-.13-.94-.12-.26-.35-.39-.69-.39s-.56.13-.69.39c-.09.17-.13.49-.13.94v2.46h1.64Z"/>
      <path class="cls-5" d="M54.81,224.11h2.3c.13,0,.24-.03.31-.09.07-.06.13-.17.18-.32h.18v2.55h-.18c-.04-.15-.09-.26-.17-.32-.07-.06-.18-.09-.31-.09h-5.9c-.13,0-.23.03-.3.09-.07.06-.13.17-.17.32h-.18v-4.7c0-.93.14-1.63.42-2.11.16-.27.4-.49.7-.64s.64-.23,1.01-.23c.72,0,1.25.24,1.6.73.35.49.53,1.24.53,2.25v2.56ZM53.5,224.11v-2.46c0-.45-.04-.76-.13-.94-.12-.26-.35-.39-.69-.39s-.56.13-.69.39c-.09.17-.13.49-.13.94v2.46h1.64Z"/>
      <path class="cls-5" d="M54.71,215.51h1.76v-4.58c0-.13-.03-.24-.09-.31-.06-.07-.17-.13-.32-.17v-.18h2.13v.18c-.15.04-.26.09-.32.17-.06.07-.09.18-.09.31v6.72h-.18c-.04-.15-.09-.26-.17-.32-.07-.06-.18-.09-.31-.09h-5.9c-.13,0-.23.03-.3.09-.07.06-.13.17-.17.32h-.18v-6.52c0-.14-.03-.24-.09-.31-.06-.07-.17-.13-.32-.17v-.17h2.13v.17c-.16.04-.26.1-.32.17-.06.07-.09.17-.09.31v4.38h1.58v-2.72c0-.13-.03-.24-.09-.31-.06-.07-.17-.13-.32-.18v-.17h2.08v.17c-.15.04-.26.1-.32.17-.06.07-.09.17-.09.31v2.72Z"/>
      <path class="cls-5" d="M53.02,207.19h4.09c.13,0,.24-.03.31-.09.07-.06.13-.17.17-.32h.18v2.4h-.18c-.04-.15-.09-.26-.17-.32-.07-.06-.18-.09-.31-.09h-5.9c-.13,0-.23.03-.3.09-.07.06-.13.17-.17.32h-.18v-2.77h.18c.05.19.13.28.25.28.1,0,.22-.07.36-.21l3.84-3.87h-3.98c-.13,0-.24.03-.31.09s-.13.17-.17.32h-.18v-2.4h.18c.04.15.1.26.17.32.07.06.17.09.31.09h5.9c.13,0,.23-.03.31-.09.07-.06.13-.17.18-.32h.18v2.59h-.18c-.04-.19-.12-.28-.24-.28-.06,0-.12.03-.19.08-.06.05-.19.17-.38.35l-3.78,3.83Z"/>
      <path class="cls-5" d="M53.9,192.73c.16-.36.33-.62.49-.79.31-.31.73-.47,1.25-.47.71,0,1.25.27,1.63.8.34.47.51,1.12.51,1.95v5.14h-.18c-.04-.15-.09-.26-.17-.32-.07-.06-.18-.09-.31-.09h-5.9c-.13,0-.23.03-.3.09-.07.06-.13.17-.17.32h-.18v-5.05c0-.89.16-1.53.48-1.95.34-.44.79-.66,1.38-.66.34,0,.62.08.84.23.22.15.43.42.64.8ZM53.26,197.23v-2.62c0-.41-.05-.7-.16-.88-.1-.17-.29-.26-.54-.26s-.43.08-.54.25c-.1.17-.16.46-.16.88v2.62h1.4ZM56.47,197.23v-2.69c0-.87-.32-1.3-.95-1.3s-.95.43-.95,1.3v2.69h1.89Z"/>
      <path class="cls-5" d="M51.22,182.85h3.82c.87,0,1.51.17,1.92.52.65.55.97,1.6.97,3.13,0,1.03-.16,1.86-.47,2.49-.23.46-.55.77-.97.93-.39.15-.87.23-1.45.23h-3.82c-.13,0-.23.03-.3.09-.07.06-.13.17-.17.32h-.18v-2.55h.18c.04.16.1.26.17.32.07.06.17.09.31.09h3.47c.4,0,.71-.04.93-.11.21-.07.39-.19.53-.37.28-.35.42-.86.42-1.53s-.14-1.17-.42-1.53c-.14-.17-.31-.29-.53-.36s-.52-.1-.93-.1h-3.47c-.13,0-.23.03-.3.09-.07.06-.13.17-.17.33h-.18v-2.4h.18c.04.15.1.26.17.32s.17.09.31.09Z"/>
      <path class="cls-5" d="M54.81,179.18h2.3c.13,0,.24-.03.31-.09.07-.06.13-.17.18-.32h.18v2.55h-.18c-.04-.15-.09-.26-.17-.32-.07-.06-.18-.09-.31-.09h-5.9c-.13,0-.23.03-.3.09-.07.06-.13.17-.17.32h-.18v-4.73c0-.61.03-1.08.09-1.4.06-.32.18-.61.34-.86.34-.52.89-.78,1.66-.78.58,0,1.04.16,1.37.48.33.32.57.84.71,1.55l1.9-1.37c.35-.25.59-.45.72-.6.13-.15.21-.32.24-.51h.18v3.04h-.18c-.06-.22-.16-.34-.29-.34-.09,0-.24.07-.43.21l-2.06,1.44v1.73ZM53.5,179.18v-2.6c0-.4-.04-.69-.13-.88-.12-.27-.35-.4-.69-.4-.31,0-.52.09-.64.28-.12.19-.18.52-.18,1v2.6h1.64Z"/>
      <path class="cls-5" d="M54.99,165.91v1.64c0,.14.03.24.09.31.06.07.17.13.32.17v.17h-1.91v-.17c.15-.04.26-.1.32-.17.06-.07.09-.18.09-.31v-3.43h.19c.04.15.11.26.19.32.08.06.2.09.35.09h1.52c.13,0,.24-.03.31-.09.07-.06.13-.17.17-.32h.15c.77,1.39,1.15,2.78,1.15,4.16,0,1.19-.28,2.16-.84,2.9-.31.4-.69.72-1.15.97-.54.29-1.12.43-1.73.43-.85,0-1.61-.26-2.27-.79-1.02-.82-1.53-2.02-1.53-3.62,0-.7.15-1.5.46-2.4.12-.36.18-.56.18-.62,0-.07-.03-.16-.1-.26l.08-.15,1.82.86-.08.15h-.04c-.16,0-.32.16-.49.48-.31.59-.47,1.22-.47,1.89,0,.78.21,1.42.64,1.91.45.52,1.05.79,1.8.79.71,0,1.28-.24,1.7-.72.43-.49.65-1.18.65-2.06s-.16-1.55-.47-2.13h-1.1Z"/>
    </g>
    <g>
      <path class="cls-5" d="M70.99,319.01v1.84c.01.08.03.15.07.19.04.04.11.08.21.1v.13s-1.77.01-1.77.01v-.13c.1-.03.17-.06.21-.11.04-.04.06-.11.06-.19l-.03-4.73c0-.08-.02-.15-.06-.19-.04-.04-.11-.08-.21-.1v-.13s3.53-.02,3.53-.02c.41,0,.74.02.98.08.24.05.46.15.64.28.19.14.34.32.45.54.11.23.16.48.17.74,0,.38-.1.71-.3.99-.18.24-.41.42-.7.52-.29.1-.7.16-1.22.16h-2.03ZM70.99,318.09h1.89c.38-.01.64-.05.79-.13.1-.05.17-.13.23-.25.06-.11.09-.24.09-.37,0-.13-.03-.26-.09-.37-.06-.11-.14-.19-.24-.25-.15-.08-.41-.12-.79-.11h-1.89s0,1.49,0,1.49Z"/>
      <path class="cls-5" d="M76.27,320.81l-.03-4.73c0-.08-.02-.14-.06-.19-.04-.04-.11-.08-.21-.1v-.13s1.77-.01,1.77-.01v.13c-.1.02-.17.06-.21.11-.04.05-.06.11-.06.19l.03,4.73c0,.08.02.15.06.19.04.04.11.08.21.1v.13s-1.77.01-1.77.01v-.13c.1-.03.17-.06.21-.11.04-.04.06-.11.06-.19Z"/>
      <path class="cls-5" d="M80.62,320.3l2.95-.02c.08,0,.15-.02.19-.06.04-.04.08-.11.11-.21h.13s0,1.44,0,1.44h-.13c-.03-.1-.06-.17-.11-.2-.04-.04-.11-.06-.19-.06l-4.95.03v-.29s3.26-4.39,3.26-4.39l-2.83.02c-.09,0-.15.02-.19.06-.04.04-.08.11-.11.21h-.13s0-1.44,0-1.44h.13c.03.1.07.17.11.2.04.04.11.06.19.05l4.88-.03v.23s-3.3,4.45-3.3,4.45Z"/>
      <path class="cls-5" d="M86.68,320.26l2.95-.02c.08,0,.15-.02.19-.06.04-.04.08-.11.11-.21h.13s0,1.44,0,1.44h-.13c-.03-.1-.06-.17-.11-.2-.04-.04-.11-.06-.19-.06l-4.95.03v-.29s3.26-4.39,3.26-4.39l-2.83.02c-.09,0-.15.02-.19.06-.04.04-.08.11-.11.21h-.13s0-1.44,0-1.44h.13c.03.1.07.17.11.2.04.04.11.06.19.06l4.88-.03v.23s-3.31,4.45-3.31,4.45Z"/>
      <path class="cls-5" d="M95.06,319.71l-2.57.02-.38.79c-.05.11-.08.2-.08.26,0,.12.09.2.28.25v.13s-1.87.01-1.87.01v-.13c.11-.02.19-.06.25-.12.06-.05.12-.16.2-.32l2.06-4.3c.07-.14.1-.25.1-.33,0-.13-.08-.21-.24-.27v-.13s2.01-.01,2.01-.01v.13c-.16.05-.24.13-.24.24,0,.08.03.17.08.27l2.18,4.29c.09.18.17.31.24.37.07.07.16.11.28.13v.13s-2.08.01-2.08.01v-.13c.18-.03.27-.12.27-.25,0-.06-.03-.14-.08-.25l-.39-.78ZM94.7,318.94l-.93-1.98-.92,1.99h1.85Z"/>
      <path class="cls-5" d="M70.59,328.4c.64.23.96.67.96,1.31,0,.51-.18.91-.55,1.2-.19.15-.4.25-.65.32-.25.07-.55.1-.92.1l-3.87.02v-.13c.1-.03.17-.06.21-.11.04-.04.06-.11.06-.19l-.03-4.72c0-.08-.02-.15-.06-.19-.04-.04-.11-.08-.21-.1v-.13s3.83-.02,3.83-.02c.37,0,.66.02.89.08.22.05.42.14.59.27.34.26.51.63.51,1.12,0,.54-.25.94-.76,1.18ZM67.05,327.99h2.17c.33-.02.56-.06.69-.16.15-.11.22-.28.22-.51,0-.23-.07-.4-.21-.5-.14-.1-.37-.15-.7-.14h-2.17s0,1.31,0,1.31ZM67.06,330.43h2.1c.39-.02.67-.07.84-.18.2-.12.29-.32.29-.6,0-.28-.1-.48-.3-.6-.17-.1-.45-.16-.84-.15h-2.1s0,1.53,0,1.53Z"/>
      <path class="cls-5" d="M75.51,325.62c.99,0,1.77.25,2.35.77.61.55.92,1.26.93,2.13,0,.53-.14,1.03-.43,1.5-.57.91-1.5,1.37-2.81,1.37-.98,0-1.76-.25-2.34-.77-.31-.28-.55-.61-.71-1.01-.14-.35-.22-.71-.22-1.09,0-.56.14-1.07.43-1.54.55-.89,1.48-1.35,2.8-1.37ZM75.52,326.56c-.54,0-.99.16-1.35.48-.42.38-.63.87-.63,1.47s.22,1.09.65,1.46c.36.31.82.47,1.36.47s1-.16,1.35-.48c.21-.19.37-.42.49-.69.1-.24.15-.49.14-.75,0-.63-.22-1.13-.65-1.49-.36-.31-.82-.46-1.37-.47Z"/>
      <path class="cls-5" d="M81.07,327.44l.02,3.39c0,.08.02.15.06.19.04.04.11.08.21.11v.13s-1.66,0-1.66,0v-.13c.1-.03.17-.06.21-.11.04-.04.06-.11.06-.19l-.03-4.73c0-.08-.02-.14-.06-.19-.04-.04-.11-.08-.21-.11v-.13s1.92-.01,1.92-.01v.13c-.12.03-.18.09-.18.19,0,.07.04.14.12.22l3.14,3.18-.02-3.31c0-.08-.02-.14-.06-.19-.04-.04-.11-.08-.21-.11v-.13s1.66,0,1.66,0v.13c-.1.03-.17.06-.21.11-.04.04-.06.11-.06.19l.03,4.73c0,.08.02.15.06.19.04.04.11.08.21.11v.13s-1.78.01-1.78.01v-.13c.12-.03.17-.08.17-.18,0-.05-.07-.15-.21-.29l-3.19-3.21Z"/>
      <path class="cls-5" d="M87.37,330.79l-.03-4.73c0-.08-.02-.14-.06-.19-.04-.04-.11-.08-.21-.1v-.13s1.77-.01,1.77-.01v.13c-.1.02-.17.06-.21.11-.04.05-.06.11-.06.19l.03,4.73c0,.08.02.15.06.19.04.04.11.08.21.1v.13s-1.77.01-1.77.01v-.13c.1-.03.17-.06.21-.11.04-.04.06-.11.06-.19Z"/>
      <path class="cls-5" d="M92.83,326.53l.03,4.23c0,.08.02.15.06.19.04.04.11.08.21.11v.13s-1.77.01-1.77.01v-.13c.1-.03.17-.06.21-.11.04-.04.06-.11.06-.19l-.03-4.23h-1.76c-.08.01-.15.03-.19.07-.04.04-.08.11-.11.21h-.13s0-1.44,0-1.44h.13c.03.1.07.17.11.2.04.04.11.06.19.05l4.75-.03c.09,0,.15-.02.19-.06.04-.04.08-.11.11-.21h.13s0,1.44,0,1.44h-.13c-.03-.1-.06-.17-.11-.2-.04-.04-.11-.06-.19-.06h-1.75Z"/>
      <path class="cls-5" d="M99.12,329.73l-2.57.02-.38.79c-.05.11-.08.2-.08.26,0,.12.09.2.28.25v.13s-1.87.01-1.87.01v-.13c.11-.02.19-.06.25-.12.06-.05.12-.16.2-.32l2.06-4.3c.07-.14.1-.25.1-.33,0-.13-.08-.21-.24-.27v-.13s2.01-.01,2.01-.01v.13c-.16.05-.24.13-.24.24,0,.08.03.17.08.27l2.18,4.29c.09.18.17.31.24.37.07.07.16.11.28.13v.13s-2.08.01-2.08.01v-.13c.18-.03.27-.12.27-.25,0-.06-.03-.14-.08-.25l-.39-.78ZM98.76,328.97l-.93-1.98-.92,1.99h1.85Z"/>
    </g>
    <g>
      <path class="cls-5" d="M54.72,361.42c.81.34,1.22.98,1.22,1.91,0,.74-.23,1.33-.7,1.75-.24.21-.51.37-.83.46-.31.1-.7.14-1.17.15l-4.92.03v-.19c.12-.04.21-.09.26-.16.05-.06.07-.16.07-.28l-.04-6.88c0-.12-.03-.22-.08-.28-.05-.06-.14-.11-.26-.15v-.19s4.87-.03,4.87-.03c.47,0,.84.03,1.13.11.29.08.54.21.75.4.43.38.64.92.65,1.63,0,.79-.32,1.37-.96,1.72ZM50.22,360.81l2.76-.02c.42,0,.71-.07.87-.21.19-.16.28-.41.27-.74,0-.34-.09-.58-.27-.73s-.47-.21-.89-.21l-2.76.02v1.89ZM50.24,364.37l2.67-.02c.5,0,.85-.08,1.07-.24.25-.18.37-.47.37-.88,0-.4-.13-.69-.38-.87-.22-.15-.57-.23-1.07-.23l-2.67.02v2.22Z"/>
      <path class="cls-5" d="M64.31,358.11l.03,4.56c0,.86-.13,1.51-.41,1.94-.5.77-1.54,1.17-3.13,1.17-1.15,0-2.02-.2-2.63-.61-.36-.24-.6-.57-.74-.98-.14-.41-.21-.9-.21-1.48l-.03-4.56c0-.12-.03-.22-.08-.28-.05-.06-.14-.11-.26-.15v-.19s2.24-.01,2.24-.01v.19c-.12.04-.21.09-.26.15-.05.07-.07.16-.07.28l.02,4.06c0,.47.03.81.08,1.04.05.22.13.41.26.56.34.4.92.6,1.73.6.82,0,1.4-.21,1.73-.62.12-.15.21-.34.25-.56.04-.22.06-.57.06-1.04l-.02-4.06c0-.12-.03-.22-.08-.28-.05-.06-.14-.11-.26-.15v-.19s2.12-.01,2.12-.01v.19c-.12.04-.21.09-.26.16-.05.06-.07.16-.07.28Z"/>
      <path class="cls-5" d="M67.73,362.28l.02,2.7c0,.12.03.21.08.28.05.06.14.11.26.15v.19s-2.24.01-2.24.01v-.19c.12-.04.21-.09.26-.16.05-.06.07-.15.07-.27l-.04-6.89c0-.12-.03-.22-.08-.28-.05-.06-.14-.11-.26-.15v-.19s4.5-.03,4.5-.03c.55,0,.98.03,1.31.1.32.07.6.19.84.37.28.2.49.48.63.84.13.34.2.71.2,1.1,0,1.33-.64,2.11-1.94,2.34l1.41,2.24c.25.39.43.64.54.76.12.11.25.17.42.19v.19s-2.6.02-2.6.02v-.19c.18-.03.27-.1.27-.22,0-.07-.08-.24-.25-.52l-1.47-2.39h-1.92ZM67.73,360.94h2.42c.36-.02.61-.03.76-.06.15-.02.28-.08.4-.15.27-.16.4-.46.4-.88,0-.42-.14-.72-.41-.88-.13-.08-.26-.13-.4-.15-.14-.02-.4-.03-.76-.03h-2.42s.01,2.15.01,2.15Z"/>
      <path class="cls-5" d="M80.82,362.59h-1.78c-.11.01-.19.04-.24.1-.05.06-.1.16-.13.3h-.17s-.01-1.89-.01-1.89h.17c.04.15.08.25.14.3.05.05.14.08.25.08l3.41-.02v.19c-.12.04-.21.09-.26.16-.05.06-.07.16-.07.28v1.67c.01.12.04.22.08.28.05.06.14.11.27.15v.15c-1.36.89-2.68,1.34-3.96,1.35-1.16,0-2.11-.3-2.85-.92-.93-.78-1.4-1.87-1.41-3.27,0-1.3.4-2.34,1.21-3.12.78-.74,1.81-1.11,3.1-1.12.41,0,.8.04,1.16.12.36.08.78.22,1.24.42.24.11.41.16.51.16.07,0,.16-.05.26-.14l.15.09-.83,1.95-.15-.09c0-.13-.02-.22-.05-.28-.03-.06-.09-.13-.19-.21-.22-.18-.53-.33-.95-.46-.41-.13-.81-.19-1.18-.19-.75,0-1.37.25-1.87.73-.56.54-.83,1.26-.83,2.14,0,.86.28,1.55.83,2.07.5.48,1.16.72,1.98.71.4,0,.79-.06,1.17-.16.39-.11.72-.25,1-.43v-1.11Z"/>
      <path class="cls-5" d="M85.58,361.92v2.23s4.64-.03,4.64-.03c.1,0,.19-.03.24-.08.06-.06.1-.16.14-.3h.17s.01,2.1.01,2.1h-.17c-.04-.14-.08-.24-.14-.3s-.14-.08-.24-.08l-6.54.04v-.19c.12-.04.21-.09.26-.16.05-.06.07-.16.07-.28l-.04-6.88c0-.12-.03-.22-.08-.28-.05-.06-.14-.11-.26-.15v-.19s6.41-.04,6.41-.04c.1,0,.19-.03.24-.09.06-.06.1-.16.14-.3h.17s.01,2.1.01,2.1h-.17c-.04-.14-.08-.24-.14-.29-.06-.06-.14-.08-.24-.08l-4.5.03v1.93s2.93-.02,2.93-.02c.11,0,.19-.03.24-.08.06-.06.1-.16.14-.3h.17s.01,2.05.01,2.05h-.17c-.04-.14-.08-.24-.14-.29-.06-.06-.14-.09-.24-.08l-2.92.02Z"/>
      <path class="cls-5" d="M93.78,362.12l.02,2.7c0,.12.03.21.08.28.05.06.14.11.26.15v.19s-2.24.01-2.24.01v-.19c.12-.04.21-.09.26-.16.05-.06.07-.16.07-.27l-.04-6.89c0-.12-.03-.22-.08-.28-.05-.06-.14-.11-.26-.15v-.19s4.5-.03,4.5-.03c.55,0,.98.03,1.31.1.32.07.6.19.84.37.28.21.49.48.63.84.13.34.2.71.2,1.09,0,1.33-.64,2.11-1.94,2.34l1.41,2.24c.25.39.43.64.54.76.12.11.25.17.42.19v.19s-2.6.02-2.6.02v-.19c.18-.03.27-.11.27-.22,0-.07-.08-.24-.25-.52l-1.47-2.39h-1.92ZM93.78,360.78h2.42c.36-.02.61-.03.76-.05.15-.02.28-.08.4-.15.27-.17.4-.46.4-.88,0-.42-.14-.72-.41-.88-.13-.08-.26-.13-.4-.15-.14-.02-.4-.03-.76-.03h-2.42s.01,2.15.01,2.15Z"/>
      <path class="cls-5" d="M67.89,379.9c0,.17-.06.28-.19.34-.1.04-.38.06-.83.06-.43,0-.75-.01-.95-.05-.09-.02-.16-.04-.19-.06-.03-.02-.07-.08-.11-.17-.26-.53-.52-1.06-.77-1.59-.42-.85-.68-1.33-.76-1.41-.38.16-.57.27-.57.34,0,.3.02.75.04,1.35.03.6.04,1.05.04,1.36,0,.12-.05.19-.14.21-.18.03-.51.05-.99.05-.46,0-.76-.01-.91-.04-.1-.02-.15-.08-.15-.18,0-.43.01-1.08.04-1.94.03-.87.05-1.52.04-1.95,0-.46-.02-1.15-.07-2.08-.04-.92-.06-1.62-.07-2.08,0-.09.04-.13.11-.13.11,0,.27,0,.49.01.22.01.38.02.49.02.11,0,.28,0,.5-.02.22-.01.39-.02.5-.02.06,0,.09.04.09.11,0,.29,0,.74-.03,1.33-.02.59-.03,1.04-.03,1.33,0,.34.09.51.25.51.42,0,.74-.13.97-.39.17-.19.34-.54.52-1.05.11-.39.29-.95.54-1.71.04-.1.12-.15.24-.15.09,0,.23,0,.41.02.18.01.32.02.41.02.09,0,.24,0,.42-.02.19,0,.33-.01.42-.01.08,0,.13.04.13.14,0,.13-.07.45-.22.96-.43,1.5-.92,2.44-1.48,2.82-.12.08-.17.14-.17.19,0,0,.33.59.98,1.78.66,1.19.98,1.9.99,2.13Z"/>
      <path class="cls-5" d="M70.61,375.82c0,.47.02,1.17.04,2.12.03.94.04,1.65.04,2.11,0,.08-.02.13-.05.15,0,0-.05.01-.14.02-.23.03-.53.05-.92.05-.51,0-.84-.01-.98-.04-.1-.02-.15-.08-.15-.18,0,.06.01-.29.04-1.05.05-1.61.08-2.67.08-3.17,0-.42-.02-1.06-.05-1.91-.03-.85-.05-1.49-.05-1.91,0-.09.04-.13.12-.13.11,0,.27,0,.49.01.22.01.38.02.49.02.11,0,.27,0,.48-.02.21-.01.37-.02.48-.02.1,0,.15.04.15.13,0,.42-.01,1.06-.05,1.91-.03.85-.05,1.49-.05,1.91Z"/>
      <path class="cls-5" d="M78.71,372c0,.45,0,1.13-.04,2.04-.03.91-.04,1.59-.04,2.05l.02,3.92c0,.11-.05.16-.15.16-.08,0-.21,0-.38.01-.17,0-.3.01-.38.01-.09,0-.23,0-.41-.02-.18-.01-.32-.02-.41-.02-.06,0-.14-.06-.23-.2-.26-.38-.83-1.23-1.72-2.55-.25-.37-.62-.91-1.12-1.62-.01-.02-.04-.05-.08-.07-.03.03-.04.07-.04.13,0,.46.02,1.15.05,2.07.03.92.04,1.61.05,2.07,0,.14-.05.21-.14.21h-1.82c-.1.01-.15-.05-.15-.17,0-.43.01-1.08.04-1.94.03-.87.05-1.52.04-1.95,0-.46-.02-1.14-.06-2.05-.04-.91-.06-1.59-.06-2.04,0-.09.07-.13.2-.13.2,0,.45-.02.75-.05.07,0,.21-.03.42-.08.17-.04.31-.06.42-.06.04,0,.11.07.2.2l1.98,3.03c.18.27.44.67.8,1.2.09.12.16.18.23.18.05,0,.07-.16.07-.46,0-.42-.03-1.04-.07-1.88-.05-.84-.07-1.47-.07-1.89,0-.15.04-.22.11-.22.21,0,.53-.01.95-.04.43-.02.74-.04.95-.04.07,0,.1.06.1.18Z"/>
      <path class="cls-5" d="M86.68,379.93c0,.11-.04.16-.15.16-.07,0-.26-.04-.58-.13-.32-.08-.51-.14-.59-.18-.73.33-1.44.5-2.11.5-1.09,0-1.98-.4-2.68-1.21-.69-.8-1.04-1.82-1.05-3.05,0-1.26.32-2.31.98-3.14.68-.86,1.58-1.3,2.67-1.3.53,0,1.04.11,1.51.34.51.25.91.61,1.21,1.06.06.1.09.16.09.2,0,.13-.15.41-.47.86-.31.45-.51.67-.6.67-.02,0-.1-.08-.24-.24-.17-.19-.35-.34-.53-.45-.27-.16-.56-.24-.89-.24-.53,0-.94.23-1.25.67-.29.41-.43.92-.42,1.53,0,.65.16,1.16.46,1.53.31.39.75.58,1.32.58.36,0,.76-.11,1.2-.31-.01-.13-.04-.46-.1-1-.05-.41-.07-.75-.07-1,0-.08.02-.12.07-.14.02,0,.05-.01.08-.01.1,0,.26,0,.46.03.21.02.36.03.47.03.11,0,.28-.01.51-.03.23-.02.39-.03.51-.03.09,0,.13.06.13.2,0,.19,0,.48-.02.86-.02.38-.02.67-.02.86,0,.51.04,1.28.11,2.3v.07Z"/>
    </g>
    <text class="cls-17" transform="translate(51.22 411.06) rotate(-.35) scale(1.01 1)"><tspan class="cls-37" x="0" y="0">C</tspan><tspan x="6.94" y="0">HOP</tspan><tspan class="cls-3" x="27.69" y="0">S</tspan><tspan x="33.88" y="0">TIX</tspan></text>
    <g>
      <path class="cls-5" d="M55.8,429.56v1.73c.01.08.03.14.06.18.04.04.1.08.18.1v.12s-1.57,0-1.57,0v-.12c.09-.03.15-.06.18-.1s.05-.1.05-.18l-.03-4.45c0-.08-.02-.14-.05-.18s-.1-.07-.19-.1v-.12s3.14-.02,3.14-.02c.37,0,.66.02.87.07.21.05.41.14.57.26.17.13.3.3.4.51.1.22.15.45.15.7,0,.35-.09.67-.27.93-.16.23-.36.39-.62.49s-.62.15-1.08.15h-1.81ZM55.79,428.69h1.68c.33-.01.57-.05.7-.13.09-.05.15-.13.21-.23.05-.11.08-.22.08-.35,0-.13-.03-.24-.08-.35-.05-.11-.12-.18-.21-.23-.13-.07-.37-.11-.71-.11h-1.68s0,1.4,0,1.4Z"/>
      <path class="cls-5" d="M60.48,431.26l-.03-4.45c0-.08-.02-.14-.05-.18s-.1-.07-.19-.1v-.12s1.57,0,1.57,0v.12c-.09.02-.15.06-.18.1-.03.04-.05.1-.05.18l.03,4.45c0,.08.02.14.05.18.04.04.1.08.18.1v.12s-1.57,0-1.57,0v-.12c.09-.03.15-.06.18-.1s.05-.1.05-.18Z"/>
      <path class="cls-5" d="M64.35,430.77l2.62-.02c.07,0,.13-.02.17-.06.04-.04.07-.1.09-.19h.12v1.36s-.11,0-.11,0c-.02-.09-.06-.16-.1-.19s-.1-.05-.17-.05l-4.4.03v-.27s2.9-4.14,2.9-4.14l-2.52.02c-.08,0-.13.02-.17.05-.04.04-.07.1-.09.2h-.12v-1.36s.11,0,.11,0c.03.09.06.16.1.19.04.04.1.05.17.05l4.33-.03v.22s-2.93,4.19-2.93,4.19Z"/>
      <path class="cls-5" d="M69.74,430.74l2.62-.02c.07,0,.13-.02.17-.06.04-.04.07-.1.09-.19h.12s0,1.36,0,1.36h-.12c-.02-.09-.06-.16-.1-.19-.04-.04-.1-.05-.17-.05l-4.4.03v-.27s2.9-4.14,2.9-4.14h-2.52c-.08.02-.13.03-.17.07-.04.04-.07.1-.09.2h-.12s0-1.36,0-1.36h.12c.03.09.06.16.1.19.04.04.1.05.17.05l4.33-.03v.22s-2.93,4.19-2.93,4.19Z"/>
      <path class="cls-5" d="M74.82,429.27v1.44s3.24-.02,3.24-.02c.07,0,.13-.02.17-.06.04-.04.07-.1.09-.19h.12s0,1.36,0,1.36h-.12c-.02-.09-.06-.16-.1-.19-.04-.04-.1-.05-.17-.05l-4.57.03v-.12c.09-.03.15-.06.18-.1s.05-.1.05-.18l-.03-4.45c0-.08-.02-.14-.05-.18s-.1-.07-.19-.1v-.12s4.48-.03,4.48-.03c.07,0,.13-.02.17-.06.04-.04.07-.1.09-.19h.12s0,1.36,0,1.36h-.12c-.02-.09-.06-.15-.1-.19-.04-.04-.1-.05-.17-.05l-3.15.02v1.25s2.05-.01,2.05-.01c.07,0,.13-.02.17-.05.04-.04.07-.1.1-.19h.12s0,1.33,0,1.33h-.12c-.03-.09-.06-.15-.1-.19-.04-.04-.1-.05-.17-.05h-2.04Z"/>
      <path class="cls-5" d="M80.56,429.39v1.75c.01.08.03.14.06.18.04.04.1.07.18.1v.12s-1.57,0-1.57,0v-.12c.09-.03.15-.06.18-.1.03-.04.05-.1.05-.18l-.03-4.45c0-.08-.02-.14-.05-.18-.03-.04-.1-.07-.19-.1v-.12s3.15-.02,3.15-.02c.38,0,.69.02.91.06.23.04.42.12.59.24.2.13.34.31.44.54.09.22.14.46.14.71,0,.86-.45,1.36-1.36,1.51l.99,1.45c.17.25.3.42.38.49.08.07.18.11.29.12v.12s-1.82.01-1.82.01v-.12c.12-.02.19-.07.19-.14,0-.05-.06-.16-.17-.33l-1.03-1.54h-1.34ZM80.55,428.53h1.7c.25-.01.43-.02.53-.04.1-.01.2-.05.28-.1.19-.11.28-.3.28-.57,0-.27-.1-.46-.28-.57-.09-.05-.18-.08-.28-.1-.1-.01-.28-.02-.53-.02h-1.7s0,1.39,0,1.39Z"/>
      <path class="cls-5" d="M85.57,431.1l-.03-4.45c0-.08-.02-.14-.05-.18s-.1-.07-.19-.1v-.12s1.57,0,1.57,0v.12c-.09.02-.15.06-.18.1-.03.04-.05.1-.05.18l.03,4.45c0,.08.02.14.05.18.04.04.1.07.18.1v.12s-1.57,0-1.57,0v-.12c.09-.03.15-.06.18-.1s.05-.1.05-.18Z"/>
      <path class="cls-5" d="M91.49,430.13h-2.29s-.33.75-.33.75c-.05.1-.07.18-.07.24,0,.11.08.19.25.23v.12s-1.66.01-1.66.01v-.12c.1-.02.17-.06.22-.11.05-.05.11-.15.18-.3l1.83-4.05c.06-.13.09-.23.09-.31,0-.12-.07-.2-.22-.25v-.12s1.78-.01,1.78-.01v.12c-.14.04-.22.12-.22.23,0,.07.02.16.07.25l1.94,4.04c.08.17.15.29.22.35.06.06.14.1.25.12v.12s-1.85.01-1.85.01v-.12c.16-.03.24-.11.24-.24,0-.05-.03-.13-.08-.24l-.35-.74ZM91.17,429.41l-.83-1.87-.82,1.88h1.64Z"/>
      <path class="cls-5" d="M62.84,436.3l-.59,1.24-.1-.06s0-.05,0-.06c0-.09-.07-.18-.22-.28-.44-.32-.95-.47-1.54-.47-.26,0-.49.04-.69.11-.14.05-.26.13-.35.23s-.13.21-.13.34c0,.2.12.33.35.4.12.04.37.07.76.11l.58.06c.34.04.62.09.84.15.21.07.4.16.57.28.17.12.3.29.4.49.1.2.15.42.15.66,0,.37-.11.7-.34.99-.21.26-.52.46-.96.59-.32.1-.67.15-1.04.15-.67,0-1.32-.16-1.98-.49-.14-.07-.22-.1-.25-.1-.03,0-.08.03-.15.09l-.11-.06.54-1.29.11.05s0,.04,0,.05c0,.12.05.22.16.32.16.15.41.28.74.38.33.11.65.16.95.16.33,0,.6-.06.83-.18.13-.06.23-.15.3-.26.08-.11.11-.22.11-.33,0-.17-.09-.3-.27-.37-.13-.05-.38-.1-.76-.14l-.57-.06c-.38-.04-.65-.08-.81-.11-.16-.04-.32-.1-.47-.18-.22-.11-.4-.29-.53-.52-.12-.21-.18-.45-.18-.72,0-.44.14-.81.43-1.11.38-.38.96-.58,1.72-.58.32,0,.62.03.9.1.28.07.62.19,1.04.37.14.06.23.09.26.09.05,0,.11-.03.18-.09l.1.06Z"/>
      <path class="cls-5" d="M67.08,439.75h-2.29s-.33.75-.33.75c-.05.1-.07.18-.07.24,0,.11.08.19.25.23v.12s-1.66,0-1.66,0v-.12c.1-.02.17-.06.22-.11.05-.05.11-.15.18-.3l1.83-4.05c.06-.13.09-.23.09-.31,0-.12-.07-.2-.22-.25v-.12s1.78-.01,1.78-.01v.12c-.14.04-.22.12-.22.23,0,.07.02.16.07.25l1.94,4.04c.08.17.15.29.22.35.06.06.14.1.25.12v.12s-1.85.01-1.85.01v-.12c.16-.03.24-.11.24-.24,0-.05-.03-.13-.08-.24l-.35-.74ZM66.76,439.03l-.83-1.87-.82,1.88h1.64Z"/>
      <path class="cls-5" d="M70.87,438.93v1.73c.01.08.03.14.06.18.04.04.1.07.18.1v.12s-1.57,0-1.57,0v-.12c.09-.03.15-.06.18-.1.03-.04.05-.1.05-.18l-.03-4.45c0-.08-.02-.14-.05-.18-.04-.04-.1-.07-.19-.1v-.12s3.14-.02,3.14-.02c.37,0,.66.02.87.07.21.05.41.14.57.26.17.13.3.3.4.51.1.22.15.45.15.7,0,.35-.09.67-.27.93-.16.23-.36.39-.62.49-.26.1-.62.15-1.08.15h-1.81ZM70.86,438.06h1.68c.33-.01.57-.05.7-.13.09-.05.15-.13.21-.23.05-.11.08-.22.08-.35,0-.13-.03-.24-.08-.35s-.12-.18-.21-.23c-.13-.07-.37-.11-.7-.11h-1.68s0,1.4,0,1.4Z"/>
      <path class="cls-5" d="M78.06,435.67c.88,0,1.57.24,2.09.73.55.52.82,1.18.83,2,0,.5-.12.97-.38,1.41-.5.86-1.34,1.29-2.5,1.29-.87,0-1.56-.24-2.08-.73-.28-.26-.49-.58-.63-.95-.13-.32-.19-.67-.19-1.03,0-.53.12-1.01.38-1.45.49-.84,1.32-1.27,2.49-1.29ZM78.07,436.56c-.48,0-.88.15-1.2.45-.38.35-.56.82-.56,1.39s.2,1.03.58,1.38c.32.29.72.44,1.21.44.48,0,.88-.16,1.2-.45.19-.18.33-.4.43-.65.09-.23.13-.46.13-.71,0-.59-.2-1.06-.58-1.4-.32-.29-.73-.44-1.21-.44Z"/>
      <path class="cls-5" d="M83.1,438.84v1.75c.01.08.03.14.06.18.04.04.1.08.18.1v.12s-1.57,0-1.57,0v-.12c.09-.03.15-.06.18-.1.03-.04.05-.1.05-.18l-.03-4.45c0-.08-.02-.14-.05-.18-.04-.04-.1-.07-.19-.1v-.12s3.15-.02,3.15-.02c.38,0,.69.02.91.06.23.04.42.12.59.24.19.13.34.31.44.54.09.22.14.46.14.71,0,.86-.45,1.36-1.36,1.51l.99,1.45c.17.25.3.42.38.49.08.07.18.11.29.12v.12s-1.82.01-1.82.01v-.12c.12-.02.19-.07.19-.14,0-.04-.06-.16-.17-.33l-1.03-1.54h-1.34ZM83.1,437.98h1.7c.25-.01.43-.02.53-.04.1-.02.2-.05.28-.1.19-.11.28-.3.28-.57,0-.27-.1-.46-.28-.57-.09-.05-.18-.08-.28-.1-.1-.01-.28-.02-.53-.02h-1.7s0,1.39,0,1.39Z"/>
      <path class="cls-5" d="M88.12,440.55l-.03-4.45c0-.08-.02-.14-.05-.18-.04-.04-.1-.07-.19-.1v-.12s1.57,0,1.57,0v.12c-.09.02-.15.06-.18.1-.03.04-.05.1-.05.18l.03,4.45c0,.08.02.14.05.18.04.04.1.08.18.1v.12s-1.57,0-1.57,0v-.12c.09-.03.15-.06.18-.1.03-.04.05-.1.05-.18Z"/>
    </g>
    <text class="cls-16" transform="translate(40.56 493.43) rotate(-.35) scale(.87 1)"><tspan x="0" y="0">POPEYES</tspan></text>
    <text class="cls-7" transform="translate(35.85 550.49) rotate(-.35) scale(.87 1)"><tspan x="0" y="0">MESOP</tspan><tspan class="cls-29" x="43.02" y="0">O</tspan><tspan class="cls-35" x="52.01" y="0">T</tspan><tspan class="cls-42" x="58.35" y="0">AMIA</tspan></text>
    <text class="cls-8" transform="translate(165.82 701.97) rotate(-88.99) scale(.87 1)"><tspan x="0" y="0">S</tspan><tspan class="cls-43" x="10.01" y="0">P</tspan><tspan x="19.67" y="0">A</tspan><tspan class="cls-41" x="30.99" y="0">R</tspan><tspan class="cls-36" x="42.34" y="0">T</tspan><tspan x="50.67" y="0">AN</tspan></text>
    <g>
      <path class="cls-5" d="M196.13,645.71l.02,3.36c0,.14.03.25.09.32.06.07.16.13.29.17v.22s-2.52.02-2.52.02v-.22c.14-.05.24-.11.29-.18.05-.07.08-.18.08-.32l-.05-7.88c0-.14-.03-.25-.08-.32-.06-.07-.15-.13-.3-.18v-.22s7.15-.04,7.15-.04c.12,0,.21-.03.27-.1s.11-.18.15-.34h.19s.01,2.41.01,2.41h-.19c-.04-.17-.09-.28-.16-.34-.06-.06-.15-.09-.27-.09l-5.01.03v2.23s3.29-.02,3.29-.02c.12,0,.21-.03.28-.1.06-.06.11-.18.15-.34h.19s.01,2.35.01,2.35h-.19c-.04-.16-.09-.27-.16-.34s-.16-.1-.28-.09l-3.27.02Z"/>
      <path class="cls-5" d="M204.95,645.93l.02,3.09c0,.14.03.24.09.32.06.07.16.13.29.17v.22s-2.52.01-2.52.01v-.22c.14-.04.24-.11.29-.18.05-.07.08-.18.08-.32l-.05-7.89c0-.14-.03-.25-.08-.32-.06-.07-.15-.13-.3-.18v-.22s5.05-.03,5.05-.03c.62,0,1.1.03,1.46.11.36.08.68.22.95.42.31.24.55.55.7.96.15.39.22.81.23,1.25,0,1.52-.72,2.42-2.18,2.68l1.58,2.56c.28.45.48.74.61.87.13.13.29.2.47.21v.22s-2.92.02-2.92.02v-.22c.2-.04.3-.12.3-.25,0-.08-.09-.28-.28-.59l-1.65-2.73h-2.16ZM204.94,644.4l2.72-.02c.4,0,.69-.02.85-.05.17-.03.32-.09.45-.17.3-.19.45-.53.44-1.01,0-.49-.16-.82-.46-1.01-.14-.09-.29-.15-.45-.17-.16-.02-.44-.03-.85-.03l-2.72.02v2.44Z"/>
      <path class="cls-5" d="M216.83,645.76l.02,3.18c0,.14.03.25.09.32.06.07.16.13.3.18v.22s-2.53.01-2.53.01v-.22c.14-.05.24-.11.3-.18.06-.07.09-.18.09-.32l-.02-3.18-2.64-4.22c-.23-.36-.4-.61-.53-.73-.13-.12-.28-.2-.46-.23v-.22s3.19-.02,3.19-.02v.22c-.26.05-.39.19-.39.43,0,.08.08.26.25.54l1.47,2.48,1.48-2.5c.16-.27.24-.45.24-.55,0-.1-.04-.19-.11-.27-.07-.07-.17-.12-.29-.14v-.22s3.12-.02,3.12-.02v.22c-.18.03-.33.11-.46.23s-.3.37-.53.74l-2.58,4.25Z"/>
      <path class="cls-5" d="M194.43,665.86l-.05-7.88c0-.14-.03-.25-.08-.32-.06-.07-.15-.13-.3-.18v-.22s4.5-.03,4.5-.03c.99,0,1.75.12,2.28.38.76.37,1.33.99,1.69,1.86.29.68.44,1.48.45,2.39.01,1.61-.41,2.83-1.26,3.68-.36.36-.78.61-1.26.77-.48.16-1.09.24-1.84.24l-4.51.03v-.22c.14-.05.24-.11.29-.18.05-.07.08-.18.08-.32ZM196.19,665.03h2.22c.71-.02,1.24-.13,1.59-.36.76-.48,1.14-1.42,1.13-2.8,0-1-.22-1.77-.63-2.3-.23-.29-.51-.5-.83-.63s-.76-.18-1.29-.18h-2.22s.04,6.26.04,6.26Z"/>
      <path class="cls-5" d="M209.57,664.11l-3.67.02-.54,1.31c-.07.18-.11.33-.11.43,0,.2.13.34.4.41v.22s-2.67.02-2.67.02v-.22c.16-.04.28-.1.36-.19.08-.09.18-.27.28-.54l2.93-7.18c.09-.23.14-.41.14-.55,0-.21-.12-.36-.35-.45v-.22s2.86-.02,2.86-.02v.22c-.23.08-.35.21-.35.4,0,.13.04.28.12.45l3.12,7.16c.13.3.25.51.35.62.1.11.23.18.4.22v.22s-2.97.02-2.97.02v-.22c.26-.05.39-.19.39-.42,0-.1-.04-.24-.12-.42l-.56-1.31ZM209.05,662.83l-1.33-3.31-1.31,3.33,2.64-.02Z"/>
      <path class="cls-5" d="M216.99,662.54l.02,3.19c0,.14.03.25.09.32.06.07.15.13.3.18v.22s-2.53.02-2.53.02v-.22c.14-.05.24-.11.3-.18.06-.07.09-.18.09-.32l-.02-3.18-2.64-4.22c-.23-.36-.41-.61-.53-.73-.13-.12-.28-.2-.46-.23v-.22s3.19-.02,3.19-.02v.22c-.26.05-.39.19-.39.43,0,.08.08.26.25.54l1.47,2.48,1.48-2.5c.16-.27.24-.45.24-.55,0-.1-.04-.19-.11-.27-.07-.08-.17-.12-.29-.14v-.22s3.12-.02,3.12-.02v.22c-.18.03-.33.11-.46.23-.13.13-.3.37-.53.74l-2.58,4.25Z"/>
    </g>
    <text class="cls-11" transform="translate(252.66 694.93) rotate(-90.35) scale(.87 1)"><tspan class="cls-26" x="0" y="0">C</tspan><tspan x="5.93" y="0">A</tspan><tspan class="cls-19" x="11.78" y="0">R</tspan><tspan class="cls-44" x="17.64" y="0">T</tspan><tspan x="22.44" y="0">OFISSERIE</tspan></text>
    <text class="cls-6" transform="translate(282.53 692.67) rotate(-88.99) scale(.87 1)"><tspan x="0" y="0">SHERIFF</tspan></text>
    <text class="cls-12" transform="translate(318.74 686.21) rotate(-88.99) scale(.87 1)"><tspan x="0" y="0">PUII MEI</tspan></text>
    <g>
      <path class="cls-5" d="M346.77,681.02c0-2.46.48-5.56,1.43-9.31.83-3.24,1.81-6.08,2.94-8.5,1.96-4.21,4.05-6.32,6.27-6.32,1.06.16,2.04.66,2.94,1.51,2.14,2.01,3.64,5.48,4.49,10.41-.03-.06.23-1.08.77-3.06,1.65-5.92,3.82-8.87,6.5-8.85,2.48.02,4.67,2.07,6.58,6.14,1.11,2.4,2.02,5.25,2.75,8.56.77,3.55,1.16,6.69,1.16,9.43h-3.6c0-8.78-1.29-15.37-3.87-19.76-1.03-1.75-2.01-2.63-2.94-2.63-1.21,0-2.32,1.74-3.33,5.23-1.14,3.95-1.73,9.15-1.78,15.59l-4.14.06c0-8.49-1.03-14.67-3.1-18.56-.83-1.55-1.64-2.32-2.44-2.32-1.16,0-2.36,1.54-3.6,4.63-1.99,5-3.01,10.9-3.06,17.7l-3.99.06Z"/>
      <path class="cls-5" d="M346.35,681.44v-.42c0-2.48.49-5.65,1.44-9.41.83-3.26,1.83-6.14,2.97-8.57,2.05-4.41,4.23-6.56,6.65-6.56,1.2.18,2.26.72,3.23,1.62,1.91,1.8,3.34,4.74,4.24,8.77.09-.34.2-.75.33-1.23,1.72-6.16,3.97-9.16,6.87-9.16h.03c2.64.02,4.98,2.17,6.95,6.38,1.12,2.42,2.05,5.32,2.78,8.64.78,3.56,1.17,6.76,1.17,9.52v.42h-4.43v-.42c0-8.66-1.28-15.24-3.81-19.55-.93-1.59-1.83-2.42-2.58-2.42-.56,0-1.69.64-2.93,4.93-1.12,3.89-1.71,9.1-1.76,15.48v.41s-4.97.07-4.97.07v-.42c0-8.38-1.03-14.56-3.05-18.36-.73-1.38-1.45-2.1-2.07-2.1-.67,0-1.76.76-3.21,4.37-1.96,4.93-2.98,10.83-3.03,17.55v.41s-4.82.07-4.82.07ZM379.42,680.6h2.76c-.04-2.6-.42-5.6-1.15-8.93-.71-3.26-1.63-6.11-2.72-8.47-1.83-3.89-3.91-5.88-6.2-5.9h-.02c-2.45,0-4.49,2.88-6.07,8.55-.64,2.34-.75,2.86-.76,2.96l-.19-.02-.6.18s-.03-.07-.03-.13c-.83-4.8-2.3-8.21-4.36-10.14-.83-.78-1.75-1.25-2.72-1.4-1.97,0-3.95,2.05-5.83,6.08-1.12,2.38-2.1,5.22-2.92,8.42-.89,3.48-1.36,6.44-1.41,8.79l3.15-.05c.09-6.65,1.13-12.52,3.08-17.44,1.32-3.29,2.62-4.89,3.99-4.89.97,0,1.89.83,2.81,2.54,2.05,3.86,3.11,10.03,3.14,18.33l3.31-.05c.07-6.27.68-11.42,1.79-15.3,1.09-3.77,2.27-5.53,3.73-5.53,1.1,0,2.18.93,3.3,2.83,2.57,4.37,3.89,10.94,3.93,19.55Z"/>
    </g>
    <g>
      <path class="cls-5" d="M232.91,763.23l.02,3.41,6.78-.04c.15,0,.27-.04.35-.13.08-.09.15-.24.2-.46h.25s.02,3.22.02,3.22h-.25c-.05-.22-.12-.37-.2-.45-.08-.09-.2-.13-.36-.13l-9.57.06v-.29c.18-.06.31-.14.38-.24.07-.1.11-.24.11-.43l-.06-10.53c0-.19-.04-.33-.11-.43-.07-.1-.2-.17-.39-.23v-.29s9.38-.06,9.38-.06c.15,0,.27-.05.35-.13.08-.09.15-.24.2-.46h.25s.02,3.22.02,3.22h-.25c-.05-.21-.12-.37-.2-.45-.08-.09-.2-.13-.36-.13l-6.59.04.02,2.96,4.28-.03c.15,0,.27-.04.35-.13.08-.08.15-.24.2-.46h.25s.02,3.14.02,3.14h-.25c-.05-.21-.12-.36-.2-.45-.08-.09-.2-.13-.36-.13l-4.28.03Z"/>
      <path class="cls-5" d="M244.94,766.57l6.48-.04c.16,0,.28-.04.36-.13.08-.08.15-.24.2-.46h.25s.02,3.22.02,3.22h-.25c-.05-.22-.12-.37-.2-.45-.08-.08-.2-.13-.36-.12l-9.27.06v-.29c.18-.06.31-.14.38-.24.07-.1.11-.24.11-.43l-.06-10.53c0-.19-.04-.33-.11-.43-.07-.1-.2-.17-.39-.23v-.29s3.29-.02,3.29-.02v.29c-.18.06-.31.13-.38.24-.07.1-.11.25-.1.43l.06,9.44Z"/>
      <path class="cls-5" d="M253.83,767.61l-.06-10.54c0-.18-.04-.32-.11-.42-.07-.1-.2-.17-.39-.23v-.29s3.29-.02,3.29-.02v.29c-.18.06-.31.13-.38.24-.07.1-.11.24-.11.42l.06,10.54c0,.19.04.33.11.43.08.1.2.18.38.23v.29s-3.29.02-3.29.02v-.29c.18-.06.31-.14.38-.24.07-.1.11-.24.11-.43Z"/>
      <path class="cls-5" d="M263.99,758.11l.06,9.44c0,.19.04.33.11.43.07.1.2.18.39.24v.29s-3.29.02-3.29.02v-.29c.18-.06.31-.14.38-.24.07-.1.11-.24.11-.43l-.06-9.44-3.27.02c-.15,0-.27.04-.35.13-.08.08-.15.24-.2.46h-.25s-.02-3.22-.02-3.22h.25c.06.22.13.37.21.46.08.08.2.12.35.12l8.84-.05c.16,0,.28-.04.36-.13.08-.08.15-.24.2-.46h.25s.02,3.22.02,3.22h-.25c-.05-.22-.12-.37-.2-.46-.08-.08-.2-.12-.36-.12l-3.26.02Z"/>
      <path class="cls-5" d="M271.94,762.99l.02,3.41,6.78-.04c.16,0,.27-.04.36-.13.08-.09.15-.24.2-.46h.25s.02,3.22.02,3.22h-.25c-.05-.22-.12-.37-.2-.45-.08-.09-.2-.13-.36-.13l-9.57.06v-.29c.18-.06.31-.14.38-.24.07-.1.11-.24.11-.43l-.06-10.53c0-.19-.04-.33-.11-.43-.07-.1-.2-.17-.39-.23v-.29s9.38-.06,9.38-.06c.15,0,.27-.05.35-.13.08-.09.15-.24.2-.45h.25s.02,3.22.02,3.22h-.25c-.05-.21-.12-.37-.2-.45-.08-.09-.2-.13-.36-.13l-6.59.04.02,2.96,4.28-.03c.15,0,.27-.04.35-.13.08-.08.15-.24.2-.46h.25s.02,3.15.02,3.15h-.25c-.05-.21-.12-.36-.2-.45-.08-.09-.2-.13-.36-.13l-4.28.03Z"/>
      <path class="cls-5" d="M236.57,779.69l-1.24,2.94-.22-.14c0-.06,0-.11,0-.15,0-.21-.15-.43-.45-.66-.92-.75-2-1.12-3.23-1.11-.55,0-1.03.08-1.44.25-.3.12-.55.31-.73.55-.19.24-.28.51-.28.79,0,.47.24.79.72.95.25.08.78.17,1.59.26l1.21.14c.72.09,1.3.21,1.75.36.45.16.84.37,1.19.66.35.3.63.69.84,1.17.21.48.31,1,.31,1.56,0,.88-.23,1.65-.7,2.34-.43.62-1.1,1.08-2.01,1.39-.68.23-1.41.35-2.18.35-1.39,0-2.77-.38-4.14-1.16-.29-.16-.46-.23-.52-.23-.07,0-.17.07-.31.2l-.22-.14,1.12-3.06.22.13c0,.05,0,.09,0,.12,0,.27.11.53.34.75.34.35.86.65,1.56.9s1.37.37,1.99.37c.68,0,1.27-.14,1.75-.42.27-.15.48-.36.64-.61s.24-.52.23-.79c0-.41-.19-.71-.57-.88-.26-.12-.79-.23-1.59-.33l-1.19-.14c-.8-.09-1.36-.18-1.69-.27-.33-.09-.66-.23-.99-.42-.47-.27-.84-.68-1.11-1.23-.24-.49-.37-1.06-.37-1.69,0-1.05.29-1.92.9-2.62.8-.91,2-1.37,3.6-1.38.67,0,1.3.07,1.88.23.58.16,1.31.45,2.18.88.3.14.48.21.55.21.11,0,.23-.07.38-.21l.22.14Z"/>
      <path class="cls-5" d="M241,789.01l6.47-.04c.16,0,.28-.04.36-.13.08-.09.15-.24.2-.46h.25s.02,3.22.02,3.22h-.25c-.05-.22-.12-.37-.2-.45-.08-.09-.2-.13-.36-.13l-9.27.06v-.29c.18-.06.31-.14.38-.24s.11-.24.11-.43l-.06-10.53c0-.19-.04-.33-.11-.43-.07-.1-.2-.17-.39-.24v-.29s3.29-.02,3.29-.02v.29c-.18.06-.31.13-.38.24-.07.1-.11.25-.1.43l.06,9.44Z"/>
      <path class="cls-5" d="M254.95,778.31c1.84-.01,3.3.57,4.38,1.73,1.15,1.22,1.72,2.8,1.74,4.75,0,1.19-.26,2.31-.8,3.34-1.05,2.03-2.79,3.05-5.23,3.06-1.82.01-3.28-.57-4.36-1.73-.58-.62-1.02-1.37-1.33-2.25-.27-.77-.4-1.58-.41-2.43,0-1.25.26-2.39.79-3.42,1.02-1.98,2.76-3,5.21-3.05ZM254.97,780.42c-1,0-1.84.36-2.5,1.07-.79.84-1.18,1.93-1.17,3.28,0,1.35.41,2.44,1.21,3.26.67.7,1.52,1.05,2.53,1.04s1.85-.36,2.51-1.07c.39-.42.69-.94.9-1.55.18-.54.27-1.1.27-1.68,0-1.41-.41-2.51-1.21-3.32-.68-.69-1.53-1.03-2.54-1.04Z"/>
      <path class="cls-5" d="M268.12,780.5l.06,9.44c0,.19.04.33.11.43.07.1.2.18.39.24v.29s-3.29.02-3.29.02v-.29c.18-.06.31-.14.38-.24s.11-.24.11-.43l-.06-9.44-3.27.02c-.15,0-.27.04-.35.13-.08.08-.15.24-.2.46h-.25s-.02-3.22-.02-3.22h.25c.06.22.13.37.21.46.08.08.2.12.35.12l8.84-.05c.16,0,.28-.04.36-.13.08-.08.15-.24.2-.46h.25s.02,3.22.02,3.22h-.25c-.05-.22-.12-.37-.2-.46-.08-.08-.2-.12-.36-.12l-3.26.02Z"/>
      <path class="cls-5" d="M283.13,779.41l-1.24,2.94-.22-.14c0-.06,0-.11,0-.15,0-.21-.15-.43-.45-.66-.92-.75-2-1.12-3.23-1.11-.54,0-1.03.09-1.44.25-.3.12-.55.31-.73.55-.19.24-.28.51-.28.79,0,.47.24.78.72.95.25.08.78.17,1.59.26l1.21.14c.72.09,1.3.21,1.75.36.45.15.84.37,1.19.66.35.3.63.69.84,1.17.21.48.31,1,.31,1.56,0,.88-.23,1.65-.7,2.34-.43.62-1.1,1.08-2.01,1.39-.68.23-1.41.35-2.18.35-1.39,0-2.77-.38-4.14-1.16-.29-.16-.46-.23-.52-.23-.07,0-.17.07-.32.2l-.22-.14,1.12-3.06.22.13c0,.05,0,.09,0,.12,0,.27.11.53.34.75.34.35.86.65,1.56.9.7.25,1.37.37,1.99.37.68,0,1.27-.14,1.75-.42.27-.15.48-.36.64-.61.16-.25.24-.52.24-.79,0-.41-.19-.71-.57-.88-.26-.12-.79-.23-1.59-.33l-1.19-.14c-.8-.09-1.36-.18-1.69-.27-.33-.09-.66-.23-.99-.42-.47-.27-.84-.68-1.11-1.23-.24-.49-.37-1.06-.37-1.7,0-1.05.29-1.92.9-2.62.8-.91,2-1.37,3.6-1.38.67,0,1.3.07,1.89.23.58.16,1.31.45,2.18.88.3.14.48.21.55.21.11,0,.23-.07.38-.21l.22.14Z"/>
    </g>
    <g>
      <path class="cls-5" d="M497.8,708.03l.03,4.43c0,.2.04.35.12.46.08.11.22.19.42.25v.32s-3.55.02-3.55.02v-.32c.2-.07.34-.15.41-.26.08-.1.12-.26.11-.45l-.07-11.38c0-.2-.04-.36-.12-.46-.08-.1-.22-.19-.42-.25v-.31s7.1-.04,7.1-.04c.83,0,1.48.06,1.97.18.49.13.92.35,1.29.67.39.33.69.77.91,1.31.22.56.33,1.16.34,1.79,0,.91-.2,1.7-.6,2.39-.35.59-.82,1-1.41,1.25-.58.25-1.4.38-2.45.38l-4.08.03ZM497.79,705.82l3.79-.02c.76,0,1.29-.1,1.59-.29.19-.13.35-.33.47-.6.12-.27.18-.57.17-.9,0-.32-.06-.62-.19-.89-.12-.27-.28-.47-.47-.59-.3-.19-.83-.28-1.59-.28l-3.79.02.02,3.55Z"/>
      <path class="cls-5" d="M510.88,711.19l6.99-.04c.17,0,.3-.05.39-.14.09-.09.16-.26.21-.49h.27s.02,3.47.02,3.47h-.27c-.06-.23-.13-.4-.22-.49-.09-.09-.22-.14-.39-.13l-10.01.06v-.32c.2-.07.34-.15.41-.26.08-.11.12-.26.11-.46l-.07-11.37c0-.2-.04-.36-.12-.46-.08-.11-.22-.19-.42-.25v-.31s3.55-.02,3.55-.02v.31c-.2.06-.34.15-.41.25-.08.11-.11.26-.11.47l.06,10.19Z"/>
      <path class="cls-5" d="M528.89,709.87l-5.17.03-.75,1.9c-.1.26-.16.47-.15.62,0,.29.19.49.56.6v.32s-3.76.02-3.76.02v-.32c.22-.05.39-.15.5-.28.12-.13.25-.39.4-.77l4.12-10.36c.13-.33.2-.59.19-.79,0-.3-.16-.52-.49-.65v-.31s4.03-.02,4.03-.02v.31c-.33.11-.49.31-.49.58,0,.19.06.41.16.65l4.4,10.33c.19.44.35.74.49.9.14.16.33.27.56.32v.32s-4.19.03-4.19.03v-.32c.37-.07.55-.28.55-.61,0-.14-.06-.34-.17-.61l-.79-1.89ZM528.16,708.03l-1.87-4.78-1.85,4.8,3.72-.02Z"/>
      <path class="cls-5" d="M539.34,707.61l.03,4.59c0,.2.04.36.12.46.08.1.22.19.42.25v.32s-3.56.02-3.56.02v-.32c.2-.07.34-.15.42-.26.08-.11.12-.26.12-.46l-.03-4.59-3.71-6.09c-.32-.52-.57-.87-.75-1.05-.18-.18-.4-.29-.65-.33v-.31s4.49-.03,4.49-.03v.31c-.37.07-.55.28-.55.61,0,.12.12.38.35.78l2.07,3.58,2.09-3.61c.23-.39.34-.65.34-.79,0-.15-.05-.28-.15-.39-.1-.11-.24-.18-.41-.21v-.31s4.4-.03,4.4-.03v.31c-.25.04-.46.15-.64.33-.18.18-.43.54-.74,1.06l-3.64,6.13Z"/>
      <path class="cls-5" d="M494.82,737.71l-4.25-9.26.05,8.25c0,.2.04.36.12.46.08.11.22.19.42.25v.32s-3.34.02-3.34.02v-.32c.2-.07.34-.15.41-.26.08-.11.12-.26.12-.46l-.07-11.38c0-.2-.04-.35-.12-.45-.08-.11-.22-.19-.42-.25v-.31s4.38-.03,4.38-.03v.31c-.26.08-.39.26-.39.54,0,.13.04.28.12.45l3.15,6.93,3.1-6.85c.14-.3.21-.52.21-.66,0-.27-.14-.42-.42-.45v-.31s4.3-.03,4.3-.03v.31c-.2.07-.34.15-.41.26-.08.1-.12.26-.12.45l.07,11.38c0,.2.04.36.12.46s.22.19.42.25v.32s-3.55.02-3.55.02v-.32c.19-.06.33-.14.41-.25.08-.11.12-.26.12-.47l-.05-8.25-4.37,9.31Z"/>
      <path class="cls-5" d="M512.62,734.17l-5.17.03-.75,1.89c-.1.26-.16.47-.15.62,0,.29.19.49.56.6v.32s-3.76.02-3.76.02v-.32c.22-.05.39-.15.5-.28.12-.13.25-.39.4-.77l4.12-10.35c.13-.33.2-.59.19-.79,0-.3-.16-.52-.49-.65v-.31s4.03-.02,4.03-.02v.31c-.33.11-.49.31-.49.58,0,.19.05.41.16.65l4.4,10.33c.19.44.35.74.49.9.14.16.33.27.56.32v.32s-4.19.03-4.19.03v-.32c.37-.07.55-.28.55-.61,0-.14-.06-.34-.17-.61l-.79-1.89ZM511.89,732.34l-1.87-4.78-1.85,4.8,3.72-.02Z"/>
      <path class="cls-5" d="M520.94,728.34l.05,8.17c0,.2.04.36.12.46.08.11.22.19.42.25v.32s-3.34.02-3.34.02v-.32c.2-.07.34-.15.41-.26.08-.1.12-.26.12-.46l-.07-11.38c0-.2-.04-.35-.12-.45s-.22-.19-.42-.25v-.31s3.86-.02,3.86-.02v.31c-.24.07-.36.23-.35.46,0,.16.08.33.24.52l6.32,7.67-.05-7.98c0-.2-.04-.35-.12-.45-.08-.11-.22-.19-.42-.25v-.31s3.34-.02,3.34-.02v.31c-.2.07-.34.15-.41.26-.08.11-.12.26-.12.45l.07,11.38c0,.2.04.36.12.46.08.11.22.19.42.25v.32s-3.58.02-3.58.02v-.32c.23-.06.35-.2.34-.42,0-.13-.14-.36-.41-.69l-6.42-7.74Z"/>
      <path class="cls-5" d="M533.59,736.44l-.07-11.38c0-.2-.04-.35-.12-.45s-.22-.19-.42-.25v-.31s3.55-.02,3.55-.02v.31c-.2.06-.34.15-.41.25-.08.11-.12.26-.11.46l.07,11.38c0,.2.04.36.12.47.08.11.22.19.42.25v.32s-3.55.02-3.55.02v-.32c.2-.07.34-.15.41-.26.08-.1.12-.26.12-.46Z"/>
      <path class="cls-5" d="M546.97,733.96l-5.17.03-.75,1.9c-.1.26-.16.47-.15.62,0,.29.19.49.56.6v.32s-3.76.02-3.76.02v-.32c.22-.05.39-.15.5-.28.12-.13.25-.39.4-.77l4.12-10.35c.13-.33.2-.59.19-.79,0-.3-.16-.52-.49-.65v-.31s4.03-.02,4.03-.02v.31c-.33.11-.49.31-.49.58,0,.19.05.41.16.65l4.4,10.33c.19.44.35.74.49.9.14.16.33.27.56.32v.32s-4.19.03-4.19.03v-.32c.37-.07.55-.28.55-.61,0-.14-.06-.34-.17-.61l-.79-1.89ZM546.24,732.13l-1.87-4.78-1.85,4.8,3.72-.02Z"/>
    </g>
    <text class="cls-13" transform="translate(502.79 624.16) rotate(-.35) scale(.85 1)"><tspan x="0" y="0">U</tspan><tspan class="cls-20" x="6.68" y="0">N</tspan><tspan x="13.78" y="0">CLE</tspan><tspan x="3.27" y="9.82">JOHN</tspan></text>
    <g>
      <path class="cls-5" d="M504.02,577.95l.51-1.66.12.05s0,.07,0,.1c0,.13.07.25.21.36.15.11.34.2.59.28.25.07.48.11.7.11.36,0,.62-.1.79-.3.08-.1.14-.22.17-.35.03-.14.04-.34.04-.62l-.02-3.78c0-.1-.02-.17-.06-.23-.04-.05-.11-.09-.2-.12v-.15s1.72-.01,1.72-.01v.15c-.1.03-.16.07-.2.12-.04.05-.06.13-.06.23l.02,3.85c0,.63-.07,1.09-.21,1.37-.15.3-.39.53-.69.69s-.67.25-1.08.25c-.23,0-.44-.02-.61-.05-.17-.04-.46-.12-.85-.26-.24-.08-.42-.12-.52-.12-.09,0-.17.04-.25.14l-.12-.06Z"/>
      <path class="cls-5" d="M510.95,575.29v1.79s3.57-.02,3.57-.02c.08,0,.14-.02.19-.07.04-.04.08-.12.1-.24h.13s.01,1.69.01,1.69h-.13c-.03-.11-.06-.19-.11-.24-.04-.04-.11-.07-.19-.07l-5.02.03v-.15c.1-.03.16-.07.2-.12.04-.05.06-.13.06-.23l-.03-5.53c0-.1-.02-.17-.06-.23-.04-.05-.11-.09-.2-.12v-.15s4.92-.03,4.92-.03c.08,0,.14-.02.19-.07.04-.04.08-.12.1-.24h.13s.01,1.69.01,1.69h-.13c-.03-.11-.06-.19-.11-.24s-.11-.07-.19-.07l-3.46.02v1.55s2.25-.01,2.25-.01c.08,0,.14-.02.18-.07.04-.04.08-.12.1-.24h.13v1.65s-.12,0-.12,0c-.03-.11-.06-.19-.11-.24s-.11-.07-.19-.07h-2.24Z"/>
      <path class="cls-5" d="M517.26,575.45v2.17c.01.1.03.17.07.22.04.05.11.09.2.12v.15s-1.72.01-1.72.01v-.15c.1-.03.16-.07.2-.12.04-.05.06-.13.06-.22l-.03-5.53c0-.1-.02-.17-.06-.22-.04-.05-.11-.09-.2-.12v-.15s3.46-.02,3.46-.02c.42,0,.75.03,1,.08.25.06.46.16.65.3.21.17.38.39.48.67.1.27.15.57.15.88,0,1.07-.49,1.69-1.49,1.88l1.08,1.8c.19.31.33.52.42.61.09.09.2.14.32.15v.15s-2,.01-2,.01v-.15c.14-.03.21-.08.2-.17,0-.06-.06-.2-.19-.42l-1.13-1.92h-1.48ZM517.25,574.38h1.86c.28-.01.47-.02.58-.04.11-.02.22-.06.31-.12.2-.13.31-.37.3-.71,0-.34-.11-.58-.31-.71-.1-.06-.2-.1-.31-.12-.11-.02-.3-.03-.58-.02h-1.86s.01,1.73.01,1.73Z"/>
      <path class="cls-5" d="M523.96,575.41v2.17c.01.1.03.17.07.22.04.05.11.09.2.12v.15s-1.72.01-1.72.01v-.15c.1-.03.16-.07.2-.12.04-.05.06-.13.06-.22l-.03-5.53c0-.1-.02-.17-.06-.22-.04-.05-.11-.09-.2-.12v-.15s3.46-.02,3.46-.02c.42,0,.76.03,1,.08.25.06.46.16.65.3.21.17.38.39.48.67.1.27.15.57.15.88,0,1.07-.49,1.69-1.49,1.88l1.08,1.8c.19.31.33.52.42.61.09.09.2.14.32.15v.15s-2,.01-2,.01v-.15c.14-.03.21-.08.2-.17,0-.06-.06-.2-.19-.42l-1.13-1.92h-1.48ZM523.96,574.33h1.86c.28-.01.47-.02.58-.04.11-.02.22-.06.31-.12.2-.13.31-.37.3-.71,0-.34-.11-.58-.31-.71-.1-.06-.2-.1-.31-.12-.11-.02-.3-.02-.58-.02h-1.86s.01,1.73.01,1.73Z"/>
      <path class="cls-5" d="M532.1,575.29v2.23c.01.1.03.17.07.23.04.05.11.09.2.12v.15s-1.73.01-1.73.01v-.15c.1-.03.17-.07.21-.12.04-.05.06-.13.06-.23v-2.23s-1.82-2.96-1.82-2.96c-.16-.25-.28-.42-.37-.51-.09-.09-.19-.14-.31-.16v-.15s2.18-.01,2.18-.01v.15c-.18.04-.27.14-.27.3,0,.06.06.18.17.38l1.01,1.74,1.01-1.75c.11-.19.16-.32.16-.38,0-.07-.03-.14-.07-.19s-.12-.09-.2-.1v-.15s2.14-.01,2.14-.01v.15c-.12.02-.22.07-.31.16-.09.09-.21.26-.36.52l-1.77,2.98Z"/>
      <path class="cls-5" d="M535.24,574.01c.22-.17.38-.34.48-.5.1-.16.16-.38.2-.64-.13.04-.22.06-.28.06-.18,0-.32-.07-.43-.22-.11-.15-.16-.34-.17-.57,0-.24.05-.43.16-.57.11-.14.25-.21.43-.21.22,0,.39.1.53.31.14.2.2.47.21.81,0,.7-.31,1.31-.93,1.84l-.2-.31Z"/>
      <path class="cls-5" d="M542.62,571.98l-.65,1.54-.11-.08s0-.06,0-.08c0-.11-.08-.22-.24-.35-.48-.39-1.05-.59-1.7-.58-.29,0-.54.04-.76.13-.16.06-.29.16-.38.29s-.15.27-.15.42c0,.25.13.41.38.5.13.04.41.09.83.14l.64.07c.38.04.68.11.92.19.23.08.44.2.62.35.18.16.33.36.44.61.11.26.16.53.17.82,0,.46-.12.87-.37,1.23-.22.33-.58.57-1.05.73-.36.12-.74.18-1.15.18-.73,0-1.46-.2-2.17-.61-.15-.08-.24-.12-.27-.12-.04,0-.09.04-.17.11l-.12-.07.59-1.61.12.07v.06c0,.14.06.28.18.4.18.18.45.34.82.47.37.13.72.2,1.05.19.36,0,.67-.08.92-.22.14-.08.25-.19.33-.32.08-.13.12-.27.12-.41,0-.22-.1-.37-.3-.46-.14-.06-.42-.12-.83-.17l-.62-.07c-.42-.05-.71-.1-.89-.14-.17-.04-.35-.12-.52-.22-.25-.14-.44-.36-.58-.64-.13-.26-.19-.55-.19-.89,0-.55.15-1.01.47-1.37.42-.48,1.05-.72,1.89-.73.35,0,.68.04.99.12.31.08.69.24,1.15.46.16.07.25.11.29.11.06,0,.12-.04.2-.11l.11.07Z"/>
      <path class="cls-5" d="M511.68,587.26v2.15c.01.1.03.17.07.22.04.05.11.09.2.12v.15s-1.72.01-1.72.01v-.15c.1-.03.16-.07.2-.12.04-.05.06-.12.05-.22l-.03-5.53c0-.1-.02-.17-.06-.23-.04-.05-.11-.09-.2-.12v-.15s3.45-.02,3.45-.02c.4,0,.72.03.96.09.24.06.45.17.63.33.19.16.33.38.44.64.11.27.16.56.16.87,0,.44-.1.83-.29,1.16-.17.28-.4.49-.68.61-.28.12-.68.18-1.19.19h-1.98ZM511.67,586.19h1.84c.37-.01.62-.06.77-.16.09-.06.17-.16.23-.29.06-.13.09-.28.08-.44,0-.16-.03-.3-.09-.43-.06-.13-.13-.23-.23-.29-.15-.09-.4-.14-.77-.13h-1.84s.01,1.74.01,1.74Z"/>
      <path class="cls-5" d="M516.83,589.38l-.03-5.53c0-.1-.02-.17-.06-.22-.04-.05-.11-.09-.2-.12v-.15s1.72-.01,1.72-.01v.15c-.1.03-.16.07-.2.12s-.06.13-.05.22l.03,5.53c0,.1.02.17.06.23s.11.09.2.12v.15s-1.72.01-1.72.01v-.15c.1-.03.16-.07.2-.13.04-.05.06-.13.05-.23Z"/>
      <path class="cls-5" d="M521.08,588.78l2.88-.02c.08,0,.14-.02.19-.07.04-.04.08-.12.1-.24h.13s0,1.69,0,1.69h-.13c-.03-.11-.06-.19-.11-.24-.04-.04-.11-.07-.19-.07l-4.84.03v-.33s3.18-5.14,3.18-5.14l-2.77.02c-.08,0-.14.02-.19.07-.04.04-.08.12-.1.24h-.13s0-1.69,0-1.69h.13c.03.12.07.2.11.24s.11.06.19.06l4.76-.03v.27s-3.22,5.2-3.22,5.2Z"/>
      <path class="cls-5" d="M527,588.75l2.88-.02c.08,0,.14-.02.19-.07.04-.04.08-.12.1-.24h.13s0,1.69,0,1.69h-.13c-.03-.11-.06-.19-.11-.24-.04-.04-.11-.07-.19-.07l-4.84.03v-.33s3.18-5.14,3.18-5.14l-2.77.02c-.08,0-.15.02-.19.07-.04.04-.08.12-.1.24h-.13s0-1.69,0-1.69h.13c.03.12.07.2.11.24s.11.06.19.06l4.76-.03v.27s-3.22,5.2-3.22,5.2Z"/>
      <path class="cls-5" d="M535.18,588.11l-2.51.02-.37.92c-.05.13-.08.23-.08.3,0,.14.09.24.27.29v.15s-1.83.01-1.83.01v-.15c.11-.03.19-.07.25-.14.06-.06.12-.19.19-.37l2-5.03c.06-.16.1-.29.1-.38,0-.15-.08-.25-.24-.31v-.15s1.96-.01,1.96-.01v.15c-.16.06-.24.15-.24.28,0,.09.03.2.08.32l2.14,5.02c.09.21.17.36.24.44.07.08.16.13.27.15v.15s-2.03.01-2.03.01v-.15c.18-.04.27-.14.27-.3,0-.07-.03-.17-.08-.3l-.39-.92ZM534.83,587.22l-.91-2.32-.9,2.33h1.81Z"/>
    </g>
    <text class="cls-15" transform="translate(505.12 541.32) rotate(-.35) scale(.85 1)"><tspan x="0" y="0">M</tspan><tspan class="cls-24" x="9.47" y="0">A</tspan><tspan class="cls-1" x="16.65" y="0">Y</tspan><tspan x="23.19" y="0">ORE</tspan></text>
    <text class="cls-4" transform="translate(515.83 328.41) rotate(-.35) scale(.85 1)"><tspan x="0" y="0">VI</tspan><tspan class="cls-34" x="25.92" y="0">V</tspan><tspan x="43.14" y="0">O</tspan></text>
    <text class="cls-9" transform="translate(508.06 383.03) rotate(-89.06) scale(.85 1)"><tspan x="0" y="0">DO</tspan><tspan class="cls-32" x="12.28" y="0">L</tspan><tspan x="17.33" y="0">CES</tspan><tspan class="cls-25" x="34.14" y="0">C</tspan><tspan class="cls-33" x="40.09" y="0">O</tspan></text>
    <text class="cls-14" transform="translate(459.4 371.84) rotate(-.35) scale(.85 1)"><tspan x="0" y="0">INMEDIO</tspan></text>
    <text class="cls-10" transform="translate(419.27 370.37) rotate(-89.06) scale(.85 1)"><tspan x="0" y="0">G</tspan><tspan class="cls-38" x="16.6" y="0">R</tspan><tspan class="cls-30" x="32" y="0">O</tspan><tspan class="cls-2" x="48.43" y="0">T</tspan><tspan x="60.04" y="0">A</tspan></text>
    <g>
      <path class="cls-5" d="M561.25,567.77l-1.24,3.78c-.07.19-.11.31-.11.37,0,.15.1.25.3.31v.15s-1.78.01-1.78.01v-.15c.18-.04.27-.15.27-.33,0-.05-.04-.19-.12-.42l-1.61-4.81c-.08-.24-.15-.4-.22-.49-.06-.08-.16-.14-.28-.17v-.15s1.92-.01,1.92-.01v.15c-.17.05-.25.14-.25.28,0,.07.02.18.07.32l1.12,3.45,1.16-3.48c.05-.15.08-.25.08-.3,0-.15-.09-.24-.27-.28v-.15s2.01-.01,2.01-.01v.15c-.18.06-.27.16-.27.31,0,.05.02.15.07.29l1.15,3.45,1.07-3.41c.06-.17.08-.3.08-.38,0-.14-.1-.23-.29-.28v-.15s1.9-.01,1.9-.01v.15c-.13.05-.23.1-.28.17-.05.07-.12.23-.2.49l-1.55,4.83c-.07.23-.11.38-.11.46,0,.16.1.25.29.29v.15s-1.8.01-1.8.01v-.15c.19-.04.28-.14.28-.32,0-.06-.04-.2-.13-.43l-1.24-3.69Z"/>
      <path class="cls-5" d="M569.19,565.68c.96,0,1.73.3,2.3.91.6.64.91,1.47.91,2.49,0,.63-.13,1.21-.42,1.75-.55,1.06-1.47,1.6-2.74,1.61-.96,0-1.72-.3-2.29-.91-.3-.33-.54-.72-.7-1.18-.14-.4-.21-.83-.21-1.28,0-.65.13-1.25.41-1.8.54-1.04,1.45-1.58,2.74-1.6ZM569.2,566.79c-.53,0-.96.19-1.31.56-.41.44-.62,1.01-.61,1.72,0,.71.22,1.28.63,1.71.35.37.8.55,1.33.55.53,0,.97-.19,1.32-.56.21-.22.37-.49.47-.81.1-.29.14-.58.14-.88,0-.74-.22-1.32-.64-1.74-.36-.36-.8-.54-1.33-.55Z"/>
      <path class="cls-5" d="M575.57,569.24l-.83.8v1.75c.01.1.03.17.07.23.04.05.11.09.2.12v.15s-1.72.01-1.72.01v-.15c.1-.03.16-.07.2-.12.04-.05.06-.13.06-.23l-.03-5.53c0-.1-.02-.17-.06-.22-.04-.05-.11-.09-.2-.12v-.15s1.72-.01,1.72-.01v.15c-.1.03-.16.07-.2.12-.04.05-.06.13-.06.22v2.29s2.28-2.21,2.28-2.21c.1-.1.16-.18.16-.25,0-.09-.08-.16-.24-.19v-.15s2.26-.01,2.26-.01v.15c-.09.02-.16.05-.2.08-.04.03-.16.14-.35.33l-.31.31-1.87,1.8,2.15,3.02c.2.28.34.46.43.54.09.08.2.13.33.16v.15s-2.16.01-2.16.01v-.15c.14-.04.21-.1.21-.18,0-.04-.07-.16-.2-.35l-1.64-2.35Z"/>
      <path class="cls-5" d="M571.05,579.58v1.81s-.12,0-.12,0c-.02-.16-.06-.24-.12-.24-.06,0-.15.05-.27.14-.12.09-.22.2-.31.32-.16.21-.27.43-.33.68.17.2.32.34.44.43.12.08.25.12.38.12.12,0,.19-.08.22-.23h.13s0,1.51,0,1.51c-.08-.02-.31-.04-.71-.07-.15-.01-.34-.1-.57-.25-.23-.15-.43-.33-.59-.54-.54.63-1.19.96-1.95.96-.59,0-1.08-.16-1.47-.49-.44-.37-.67-.86-.67-1.47,0-.82.4-1.47,1.22-1.95-.37-.37-.55-.78-.55-1.23,0-.52.21-.93.62-1.24.34-.25.73-.37,1.18-.38.5,0,.93.14,1.31.43.37.29.55.68.55,1.19,0,.28-.05.53-.15.72-.11.2-.3.41-.57.64.28.21.5.51.66.91.26-.53.51-.93.75-1.19.25-.26.55-.45.92-.58ZM567.34,580.89c-.3,0-.56.11-.78.32-.22.21-.33.47-.32.78,0,.33.11.6.33.81.22.21.49.31.83.31.35,0,.64-.11.88-.31.24-.2.36-.44.36-.72,0-.13-.04-.28-.11-.43-.08-.16-.17-.29-.28-.39-.25-.24-.55-.36-.89-.36ZM567.61,578.43c-.21,0-.38.06-.54.18-.2.15-.29.37-.29.65,0,.24.08.43.24.59s.36.23.6.23c.21,0,.39-.06.54-.18.2-.15.29-.37.29-.64,0-.25-.08-.45-.23-.6-.16-.15-.36-.23-.61-.23Z"/>
      <path class="cls-5" d="M557.39,593.26v2.17c.01.1.03.17.07.22.04.05.11.09.2.12v.15s-1.72,0-1.72,0v-.15c.1-.03.16-.07.2-.12.04-.05.06-.12.06-.22l-.03-5.53c0-.1-.02-.17-.06-.23-.04-.05-.11-.09-.2-.12v-.15s3.46-.02,3.46-.02c.42,0,.76.02,1,.08.25.06.46.16.65.3.21.17.38.39.48.67.1.27.15.57.15.88,0,1.07-.49,1.69-1.49,1.88l1.08,1.8c.19.31.33.52.42.61.09.09.2.14.32.15v.15s-2,.01-2,.01v-.15c.14-.03.21-.08.2-.17,0-.06-.06-.2-.19-.42l-1.13-1.92h-1.48ZM557.38,592.19h1.86c.28-.01.47-.02.58-.04.11-.02.22-.06.31-.12.2-.13.31-.37.3-.71,0-.34-.11-.58-.31-.71-.1-.06-.2-.1-.31-.12s-.3-.02-.58-.02h-1.86s.01,1.72.01,1.72Z"/>
      <path class="cls-5" d="M565.54,589.23c.96,0,1.73.3,2.3.91.6.64.91,1.47.91,2.49,0,.63-.14,1.21-.42,1.75-.55,1.06-1.47,1.6-2.74,1.61-.96,0-1.72-.3-2.29-.91-.3-.33-.54-.72-.7-1.18-.14-.41-.21-.83-.21-1.28,0-.65.13-1.25.41-1.8.54-1.04,1.45-1.57,2.73-1.6ZM565.55,590.34c-.53,0-.96.19-1.31.56-.41.44-.62,1.01-.61,1.72,0,.71.22,1.28.63,1.71.35.37.8.55,1.33.55.53,0,.97-.19,1.32-.56.21-.22.37-.49.47-.81.1-.29.14-.58.14-.88,0-.74-.22-1.32-.64-1.74-.36-.36-.8-.54-1.33-.55Z"/>
      <path class="cls-5" d="M571.1,594.77l3.4-.02c.08,0,.15-.02.19-.07.04-.04.08-.12.1-.24h.13s.01,1.69.01,1.69h-.13c-.03-.11-.06-.19-.11-.24-.04-.04-.11-.07-.19-.07l-4.87.03v-.15c.1-.03.16-.07.2-.13s.06-.13.06-.23l-.03-5.53c0-.1-.02-.17-.06-.23-.04-.05-.11-.09-.2-.12v-.15s1.72-.01,1.72-.01v.15c-.1.03-.16.07-.2.12-.04.05-.06.13-.06.23l.03,4.95Z"/>
      <path class="cls-5" d="M576.97,594.73l3.4-.02c.08,0,.15-.02.19-.07.04-.04.08-.12.1-.24h.13s.01,1.69.01,1.69h-.13c-.03-.11-.06-.19-.11-.24-.04-.04-.11-.07-.19-.07l-4.87.03v-.15c.1-.03.16-.07.2-.12.04-.05.06-.13.06-.23l-.03-5.53c0-.1-.02-.17-.06-.22-.04-.05-.11-.09-.2-.12v-.15s1.72-.01,1.72-.01v.15c-.1.03-.16.07-.2.12-.04.05-.06.13-.06.23l.03,4.95Z"/>
    </g>
  </g>
  <polygon id="Arges_MallFF01" data-name="Arges MallFF01" class="cls-22" points="13.31 13.18 13.31 70.43 44.96 70.43 44.96 101.1 160.65 101.1 160.65 289.74 238.18 289.74 238.18 71.88 222.73 71.88 222.73 13.18 13.31 13.18"/>
  <polygon id="Arges_MallFF02A" data-name="Arges MallFF02A" class="cls-22" points="13.31 74.53 13.31 129.12 26.6 129.12 26.6 110.76 80.94 110.76 80.94 223.32 120.8 223.32 120.8 289.74 157.27 289.74 157.27 105.21 40.85 105.21 40.85 74.53 13.31 74.53"/>
  <polygon id="Arges_MallFF02B_GF110" data-name="Arges MallFF02B^GF110" class="cls-22" points="13.31 132.5 13.31 306.17 34.57 306.17 34.57 289.74 116.93 289.74 116.93 227.18 77.08 227.18 77.08 114.39 30.22 114.39 30.22 132.5 13.31 132.5"/>
  <rect id="Arges_MallFF03" data-name="Arges MallFF03" class="cls-22" x="54.62" y="309.55" width="62.32" height="30.43"/>
  <rect id="Arges_MallFF04FF05" data-name="Arges MallFF04FF05" class="cls-22" x="30.71" y="343.12" width="86.23" height="50.96"/>
  <rect id="Arges_MallD07_FF06" data-name="Arges MallD07^FF06" class="cls-22" x="30.71" y="398.19" width="86.23" height="20.77"/>
  <rect id="Arges_MallFF07" data-name="Arges MallFF07" class="cls-22" x="30.71" y="423.07" width="86.23" height="21.5"/>
  <rect id="Arges_MallFF08" data-name="Arges MallFF08" class="cls-22" x="30.71" y="464.61" width="86.23" height="47.34"/>
  <rect id="Arges_MallFF10" data-name="Arges MallFF10" class="cls-22" x="30.71" y="516.06" width="86.23" height="56.28"/>
  <rect id="Arges_MallFF11" data-name="Arges MallFF11" class="cls-22" x="30.71" y="575.72" width="86.23" height="65.46"/>
  <polygon id="Arges_MallFF20_TE06" data-name="Arges MallFF20^TE06" class="cls-22" points="138.88 727.53 138.88 799.08 148.05 799.08 148.05 820.4 338.82 820.4 338.82 775.69 431 775.69 431 633.06 397.98 624.12 397.98 727.53 138.88 727.53"/>
  <polygon id="Arges_MallFF17" data-name="Arges MallFF17" class="cls-22" points="394.31 724.14 394.31 623.43 335.82 623.43 335.07 717.96 329.94 717.81 329.94 724.14 394.31 724.14"/>
  <polygon id="Arges_MallFF16" data-name="Arges MallFF16" class="cls-22" points="298.43 623.43 298.43 714.49 331.45 714.49 332.05 623.43 298.43 623.43"/>
  <rect id="Arges_MallFF15" data-name="Arges MallFF15" class="cls-22" x="261.95" y="623.43" width="32.71" height="91.06"/>
  <polygon id="Arges_MallFF13" data-name="Arges MallFF13" class="cls-22" points="233 623.43 233 681.77 239.79 681.77 239.79 714.49 258.33 714.49 258.33 623.43 233 623.43"/>
  <polygon id="Arges_MallFF14" data-name="Arges MallFF14" class="cls-22" points="185.06 623.43 185.06 682.08 210.24 682.08 210.24 714.49 236.32 714.49 236.32 685.69 229.23 685.69 229.23 623.43 185.06 623.43"/>
  <polygon id="Arges_MallFF12" data-name="Arges MallFF12" class="cls-22" points="138.88 623.43 138.88 714.49 206.77 714.49 206.77 685.69 181.44 685.69 181.44 623.43 138.88 623.43"/>
  <polygon id="Arges_MallFF21_TE05" data-name="Arges MallFF21^TE05" class="cls-22" points="449.49 632.35 449.49 803.3 585.38 803.3 585.38 652.55 495.86 652.38 496.02 632.35 449.49 632.35"/>
  <polygon id="Arges_MallFF22A" data-name="Arges MallFF22A" class="cls-22" points="499.58 604.07 499.58 649.31 533.51 649.31 533.51 609.36 534.32 609.36 534.32 604.07 499.58 604.07"/>
  <polygon id="Arges_MallFF22B" data-name="Arges MallFF22B" class="cls-22" points="499.58 556.41 499.58 600.52 538.2 600.52 538.2 609.36 547.41 609.36 547.41 556.41 499.58 556.41"/>
  <polygon id="Arges_MallFF23A" data-name="Arges MallFF23A" class="cls-22" points="515.25 522.31 499.58 538.31 499.58 553.01 547.41 553.01 547.41 522.31 515.25 522.31"/>
  <polygon id="Arges_MallFF23B_TE03" data-name="Arges MallFF23B^TE03" class="cls-22" points="550.8 522.31 550.8 612.96 546.44 612.96 546.44 639.3 585.38 639.3 585.38 522.31 550.8 522.31"/>
  <polygon id="Arges_MallD01_D02_FF24_TE02" data-name="Arges MallD01^D02^FF24^TE02" class="cls-22" points="493.67 281.58 493.67 337.86 519.84 337.86 519.84 385.21 584.89 385.21 584.89 281.58 493.67 281.58"/>
  <rect id="Arges_MallFF25" data-name="Arges MallFF25" class="cls-22" x="493.67" y="341.64" width="22.54" height="43.57"/>
  <rect id="Arges_MallFF26" data-name="Arges MallFF26" class="cls-22" x="457.21" y="353.44" width="32.53" height="31.77"/>
  <polygon id="Arges_MallFF27_TE01" data-name="Arges MallFF27^TE01" class="cls-22" points="380.21 281.58 380.21 385.21 442.99 385.21 442.99 301.55 457.21 301.55 457.21 281.58 380.21 281.58"/>
</svg>