<?xml version="1.0" encoding="UTF-8"?><svg id="Layer_4" xmlns="http://www.w3.org/2000/svg" xmlns:xlink="http://www.w3.org/1999/xlink" viewBox="0 0 882.9 725.3"><defs><style>.cls-1{fill:url(#linear-gradient-2);}.cls-2{stroke-miterlimit:10;}.cls-2,.cls-3,.cls-4{fill:none;}.cls-2,.cls-4{stroke:#000;}.cls-5{fill:#f47725;}.cls-6{fill:#fff;}.cls-6,.cls-7,.cls-8,.cls-9,.cls-10,.cls-11,.cls-12,.cls-13{fill-rule:evenodd;}.cls-14{clip-path:url(#clippath-2);}.cls-15{clip-path:url(#clippath-1);}.cls-16{clip-path:url(#clippath-4);}.cls-17{fill:#f37725;}.cls-7{fill:#d8dad9;}.cls-18{fill:#f1f2f2;}.cls-19{fill:url(#linear-gradient-5);}.cls-20{font-size:4.25px;}.cls-20,.cls-21{font-family:Axiforma-Bold, Axiforma;isolation:isolate;}.cls-20,.cls-21,.cls-22{fill:#231f20;}.cls-23{clip-path:url(#clippath);}.cls-8{fill:#9d9e9f;}.cls-24{clip-path:url(#clippath-3);}.cls-21{font-size:7px;}.cls-9{fill:#989897;}.cls-10{fill:#434343;}.cls-25{fill:url(#linear-gradient-3);}.cls-11{fill:#5c5c5c;}.cls-26{fill:#12100b;}.cls-27{fill:url(#linear-gradient);}.cls-12{fill:#807f7f;}.cls-4{stroke-linecap:round;stroke-linejoin:round;stroke-width:2px;}.cls-28{fill:url(#linear-gradient-4);}</style><clipPath id="clippath"><path class="cls-3" d="M675.7,538.6h2.2l.2-.1,.2-.1,.2-.1,.1-.1,.1-.1,.1-.1,.1-.1,.1-.1,.1-.1,.1-.1,.1-.1,.1-.1,.1-.1,.1-.1,.1-.1,.1-.1,.1-.1,.1-.2,.1-.2,.1-.2v-2.4l-.1-.2-.1-.2-.1-.1-.1-.1-.1-.1-.1-.1-.1-.1-.1-.1-.1-.1-.1-.1-.1-.1-.1-.1-.1-.1-.1-.1-.1-.1-.1-.1-.1-.1-.2-.1-.2-.1-.2-.1h-2.4l-.2,.1-.2,.1-.2,.1-.1,.1-.1,.1-.1,.1-.1,.1-.1,.1-.1,.1-.1,.1-.1,.1-.1,.1-.1,.1-.1,.1-.1,.1-.1,.1-.1,.2-.1,.2-.1,.2-.1,.2v2.4l.1,.2,.1,.2,.1,.2,.1,.1,.1,.1,.1,.1,.1,.1,.1,.1,.1,.1,.1,.1,.1,.1,.1,.1,.1,.1,.1,.1,.1,.1,.1,.1,.2,.1,.2,.1,.2,.1,.2,.1,.1-.2h0Zm-.4,1.6l-.2-.1-.2-.1-.2-.1-.2-.1-.2-.1-.2-.1-.2-.1-.2-.1-.2-.2-.2-.2-.2-.2-.2-.2-.2-.2-.1-.2-.1-.2-.1-.2-.1-.2-.1-.2-.1-.2-.1-.2-.1-.2-.1-.2-.1-.2v-2.1l.1-.3,.1-.2,.1-.2,.1-.2,.1-.2,.1-.2,.1-.2,.1-.2,.1-.2,.2-.2,.2-.2,.2-.2,.2-.2,.2-.2,.2-.1,.2-.1,.2-.1,.2-.1,.2-.1,.2-.1,.2-.1,.2-.1,.2-.1,.2-.1h2l.3,.1,.2,.1,.2,.1,.2,.1,.2,.1,.2,.1,.2,.1,.2,.1,.2,.1,.2,.2,.2,.2,.2,.2,.2,.2,.2,.2,.1,.2,.1,.2,.1,.2,.1,.2,.1,.2,.1,.2,.1,.2,.1,.2,.1,.2,.1,.2v2l-.1,.3-.1,.2-.1,.2-.1,.2-.1,.2-.1,.2-.1,.2-.1,.2-.2,.4-.2,.2-.2,.2-.2,.2-.2,.2-.2,.2h0l-.2,.1-.2,.1-.2,.1-.2,.1-.2,.1-.2,.1-.2,.1-.2,.1-.2,.1h-2l-.4-.1h0Z"/></clipPath><linearGradient id="linear-gradient" x1="670.55" y1="390.48" x2="682.37" y2="382.19" gradientTransform="translate(0 148.91)" gradientUnits="userSpaceOnUse"><stop offset="0" stop-color="#e4e4e4"/><stop offset="1" stop-color="#807f7f"/></linearGradient><clipPath id="clippath-1"><path class="cls-3" d="M677.7,530.6c2.6,.7,4.1,3.3,3.5,5.9-.7,2.6-3.3,4.1-5.9,3.5-2.6-.7-4.1-3.3-3.5-5.9,.7-2.6,3.3-4.1,5.9-3.5"/></clipPath><linearGradient id="linear-gradient-2" x1="682" y1="382.21" x2="671.09" y2="390.68" gradientTransform="translate(0 148.91)" gradientUnits="userSpaceOnUse"><stop offset="0" stop-color="#9d9e9f"/><stop offset=".39" stop-color="#fff"/><stop offset="1" stop-color="#c6c5c4"/></linearGradient><clipPath id="clippath-2"><path class="cls-3" d="M674.9,534.2l-3.1-.1v.1c-.1,.2-.1,.5-.1,.7l2.7,1.3-.6,.6-1.2,1.1,1.5-.5,.8-.3-.1,2.7c.1,.1,.3,.1,.4,.1,.2,0,.3,.1,.5,.1l1.2-2.4,.6,.6,1.1,1.2-.5-1.5-.3-.8,3,.1c.1-.2,.2-.5,.2-.7v-.1l-2.8-1.4,.6-.6,1.2-1.1-1.5,.5-.8,.3,.1-3.4c-.1,0-.2-.1-.3-.1s-.2-.1-.3-.1l-1.5,3.1-.6-.6-1.1-1.2,.5,1.5,.4,.9h0Z"/></clipPath><linearGradient id="linear-gradient-3" x1="670.44" y1="389.73" x2="682.5" y2="382.92" gradientTransform="translate(0 148.91)" gradientUnits="userSpaceOnUse"><stop offset="0" stop-color="#b2b2b2"/><stop offset="1" stop-color="#989897"/></linearGradient><clipPath id="clippath-3"><path class="cls-3" d="M672.7,534.5s.1,0,0,0h0l-.6-.1h0l.6,.1Zm0,.2h0l-.6-.1h0l.6,.1Zm0,.1h0q0,.1,0,0h0Zm0,.2,7.9,2.1h0l-.6-.2h0l.6,.2Zm0-.2h0s0,.1,0,0l-.6-.2h0l.6,.2Zm.1-.2s0,.1,0,0q0,.1,0,0l-.6-.2h0l.6,.2Zm.1-.1h0l-.6-.1h0l.6,.1Zm-3.5-5.1h0l.1-.6h0l-.1,.6Zm-1.7,8.2h0l.1-.6h0l-.1,.6Zm1.5-8.2h0l.1-.6h0l-.1,.6Zm-1.3,8.2h0l.1-.6h0l-.1,.6Zm2-8s-.1,0,0,0q-.1,0,0,0l.2-.6h0l-.2,.6Zm-2.7,7.8h0l.2-.6h0l-.2,.6Zm2.5-7.9h0l.1-.6h0l-.1,.6Zm-2.3,8h0q-.1,0,0,0l.1-.6h0l-.1,.6Zm-2.3-5.2l-1.1-.3h0l1.1,.3h0Zm7,1.8l1.1,.3h0l-1.1-.3h0Zm-5.7-4,.1-.1,2.6-.8,1,.3,2,1.8h0q-.1,.1,0,0h0Zm.8,2.8h0l-.5-.1h0l.5,.1Zm-.7,1h0l-.2-.1h0l.2,.1Zm-.3-.1-1.4,1.4,.2,.7h0l-.2-.5h0l.2,.5Zm-.3-.2h0l-.1-.3h0l.1,.3Zm-2.1,.2h0q0-.1,0,0,0-.1,0,0h0Zm-.2,.5h0l.1-.5h0l-.1,.5Zm-1.1-.3h0l.2-.5h0l-.2,.5Zm0-.5h0q0-.1,0,0,0-.1,0,0h0Zm-1.8-1.2h0l.3-.2h0l-.3,.2Zm-.3,0h0l.4-.3h0l-.4,.3Zm.6-.6-.7-1.8-.3-.1,0-1.1h0l.4,.2h0l-.4-.2Z"/></clipPath><linearGradient id="linear-gradient-4" x1="681.66" y1="382.42" x2="671.38" y2="390.4" gradientTransform="translate(0 148.91)" gradientUnits="userSpaceOnUse"><stop offset="0" stop-color="#807f7f"/><stop offset="1" stop-color="#fff"/></linearGradient><clipPath id="clippath-4"><polygon class="cls-3" points="675.1 533.9 670.3 533.7 674.6 535.8 674 536.4 672.9 537.5 674.3 537 675.1 536.7 674.9 541.5 677 537.2 677.6 537.8 678.7 538.9 678.2 537.5 677.9 536.7 677.9 536.7 682.7 536.9 678.4 534.8 679 534.2 680.1 533.1 678.7 533.6 677.9 533.9 678.1 529.1 676 533.4 675.4 532.8 674.3 531.7 674.8 533.1 675.1 533.9"/></clipPath><linearGradient id="linear-gradient-5" x1="675.61" y1="378.14" x2="677.39" y2="394.64" gradientTransform="translate(0 148.91)" gradientUnits="userSpaceOnUse"><stop offset="0" stop-color="#f16622"/><stop offset="1" stop-color="#7d1416"/></linearGradient></defs><g id="cladire"><g><polygon class="cls-18" points="658.5 725.2 658.5 579.6 580.3 579.6 580.3 171.5 .1 171.5 .1 25 450.5 25 450.5 9.9 873 9.9 873 489.1 828.7 489.1 828.7 725.2 658.5 725.2"/><path class="cls-18" d="M872.9,10V479.2h-44.3v236.1h-160.2v-145.6h-78.2V161.6H10V25.1H460.4V10h412.5m10-10H450.4V15.1H0V171.6H580.2v408.1h78.2v145.6h180.2v-236.1h44.3V0h0Z"/><polygon class="cls-4" points="828.6 715.3 668.4 715.3 668.4 569.7 590.2 569.7 590.2 161.6 10 161.6 10 25.1 460.4 25.1 460.4 10 872.9 10 872.9 479.2 828.6 479.2 828.6 715.3"/></g></g><g id="magazine"><line class="cls-2" x1="76.2" y1="161.6" x2="76.2" y2="25.1"/><polyline class="cls-2" points="126 25.1 126 147.4 126 161.6 136 161.6"/><polyline class="cls-2" points="206.2 25.1 206.2 115.5 206.2 160.9"/><line class="cls-2" x1="268.2" y1="161.6" x2="268.2" y2="25.1"/><line class="cls-2" x1="332.2" y1="161.6" x2="332.2" y2="25.1"/><line class="cls-2" x1="373.2" y1="161.6" x2="373.2" y2="25.1"/><line class="cls-2" x1="415.2" y1="161.6" x2="415.2" y2="25.1"/><line class="cls-2" x1="460.4" y1="161.6" x2="460.4" y2="25.1"/><polyline class="cls-2" points="513.4 161.6 513.4 59 460.4 59"/><line class="cls-2" x1="496.2" y1="52.3" x2="496.2" y2="10"/><line class="cls-2" x1="525.2" y1="38.5" x2="525.2" y2="10"/><line class="cls-2" x1="560.8" y1="38.5" x2="560.8" y2="10"/><line class="cls-2" x1="582.9" y1="38.5" x2="582.9" y2="10"/><polyline class="cls-2" points="828.6 479.2 668.4 479.2 668.4 10"/><polyline class="cls-2" points="828.6 487.2 668.4 487.2 668.4 569.7"/><line class="cls-2" x1="828.6" y1="569.3" x2="761.9" y2="569.3"/><line class="cls-2" x1="828.6" y1="578.2" x2="668.4" y2="578.2"/><polyline class="cls-2" points="775.1 578.2 775.1 631 668.4 631"/><polyline class="cls-2" points="668.4 555.4 716.8 555.4 716.8 516.2 668.4 516.2"/><line class="cls-2" x1="761.9" y1="578.2" x2="761.9" y2="487.6"/><line class="cls-2" x1="761.8" y1="527.6" x2="716.8" y2="527.6"/><polyline class="cls-2" points="590.1 531.4 637.5 531.4 641.5 535.4 641.5 569.7"/><line class="cls-2" x1="607.3" y1="569.7" x2="607.3" y2="531.4"/><line class="cls-2" x1="607.3" y1="553.7" x2="641.5" y2="553.7"/><line class="cls-2" x1="622.1" y1="553.7" x2="622.1" y2="531.4"/><line class="cls-2" x1="540.8" y1="132.6" x2="641.5" y2="132.6"/><polyline class="cls-2" points="540.8 144.8 590.2 144.8 590.2 161.6"/><line class="cls-2" x1="578.6" y1="144.8" x2="578.6" y2="106.3"/><line class="cls-2" x1="561.9" y1="132.6" x2="561.9" y2="106.3"/><line class="cls-2" x1="591.1" y1="132.6" x2="591.1" y2="106.3"/><line class="cls-2" x1="603.6" y1="132.6" x2="603.6" y2="106.3"/><polyline class="cls-2" points="616.1 106.3 616.1 144 641.5 144"/><line class="cls-2" x1="590.1" y1="186.9" x2="641.5" y2="186.9"/><line class="cls-2" x1="590.1" y1="227.4" x2="641.5" y2="227.4"/><polyline class="cls-2" points="590.1 244.6 641.5 244.6 641.5 157.7 641.5 110.3 637.5 106.3 603.1 106.3 596.1 106.3 544.8 106.3 540.8 110.3 540.8 161.6"/><line class="cls-2" x1="590.1" y1="271.8" x2="641.5" y2="271.8"/><polyline class="cls-2" points="590.1 340 641.5 340 641.5 253.1 590.1 253.1"/><polyline class="cls-2" points="590.1 348.4 641.5 348.4 641.5 507.2 637.5 511.2 590.1 511.2"/><line class="cls-2" x1="590.1" y1="374.8" x2="641.5" y2="374.8"/><line class="cls-2" x1="590.1" y1="390.9" x2="641.5" y2="390.9"/><line class="cls-2" x1="590.1" y1="410.7" x2="641.5" y2="410.7"/><line class="cls-2" x1="590.1" y1="426.8" x2="641.5" y2="426.8"/><line class="cls-2" x1="590.1" y1="442.8" x2="641.5" y2="442.8"/><line class="cls-2" x1="590.1" y1="462.9" x2="641.5" y2="462.9"/><line class="cls-2" x1="607.2" y1="511.2" x2="607.2" y2="462.9"/><line class="cls-2" x1="621.9" y1="511.2" x2="621.9" y2="492.1"/><line class="cls-2" x1="607.2" y1="477.5" x2="641.5" y2="477.5"/><line class="cls-2" x1="607.2" y1="492.1" x2="641.5" y2="492.1"/><line class="cls-2" x1="604.2" y1="287" x2="641.5" y2="287"/><polyline class="cls-2" points="608.2 227.4 608.2 213.9 641.5 213.9"/><polyline class="cls-2" points="608.2 186.9 608.2 173.4 641.5 173.4"/><polyline class="cls-2" points="627.1 51 644.4 51 644.4 29 661.6 29"/><polyline class="cls-2" points="661.6 10 661.6 75.9 627.1 75.9 627.1 38.5 513.4 38.5 513.4 52.3 468.2 52.3 468.2 10"/><polyline class="cls-2" points="627.1 38.5 627.1 23.5 661.6 23.5"/></g><g><g><path class="cls-13" d="M748.8,409.8c0-1.9,1.3-3.3,3.3-3.3,1.8,0,3.4,.5,5.2,.5,1.4,0,2.8-.5,4.2-.5,2.4,0,3.5,2.2,3.5,4.3,0,2.8-1.3,4.1-4.1,3.9-1.4,0-2.2,0-3.4,.9-1.2,1.2-1.5,2.8-1.5,4.5,0,6.5,6.5,7.2,11.4,7.2,5.4,0,11.2-.7,11.2-7.4,0-1.4-.2-3.1-1.2-4-1.2-1.3-2.2-1.3-3.8-1.3-1.3,0-2.1,.1-3.2-.7-1.1-.7-1.5-1.9-1.5-3.2,0-3.3,2.5-4.8,5.6-4.8,7.8,0,11.4,7.4,11.4,14.3,0,4.7-1.4,9.2-4.9,12.5-3.4,3.2-9,4.5-13.5,4.5-4.1,0-9.3-.8-12.8-3.2-4-2.6-6.1-7.3-6.1-12,0-3.5,1.1-6.5,3.6-8.9-1.9,.2-3.4-1.2-3.4-3.3h0Z"/><path class="cls-13" d="M764.7,392.8c2.3,0,3.4,2.2,3.4,4.5,0,2.5-1.8,4.7-4.4,4.7-5.4,0-6.2-7.3-6.2-11.3,0-2.6,.2-6.1,1.5-8.3,1.9-3.1,4.8-3.3,8-3.3h9.6c.7,0,2.5,.1,2.5-.8,0-.5-.1-.8-.1-1.3,0-1.6,1.4-2.6,2.9-2.6,2.8,0,4,2.9,4,5.3s-.9,5.1-3.4,5.9c2.3,2.5,3.4,5.6,3.4,8.8,0,4.7-2.5,9.3-7.8,9.3-12.2,0-5.9-16-12.7-16-2,0-2.9,1.8-2.9,3.4,0,.9,.1,1.8,1.2,1.8h1v-.1Zm8.7-5.1c1.6,1.4,.8,7.4,3.6,7.4,1.8,0,2.4-1.4,2.4-2.9,0-3.1-1.8-4.5-4.8-4.5h-1.2Z"/><path class="cls-13" d="M768.1,367.6c-.7,0-3.6-.2-3.6,.9,0,.5,.4,1.1,.4,1.8,0,1.6-1.4,2.2-2.9,2.2-2,0-3.5-.9-3.5-2.6,0-1.5,.5-2.6,.5-3.5,0-1.2-.5-2.2-.5-3.4,0-1.5,.9-1.6,2.1-1.6h3.9c-4.2-.9-6.6-4.1-6.6-8.5,0-3.5,2.7-6.8,6.5-6.8,2.6,0,5.1,1.6,5.1,4.5,0,2-1.3,3.6-3.3,3.6-.8,0-1.4-.4-2.1-.6-.4,5.8,7.5,5.9,11.6,5.9,.7,0,3.6,.2,3.6-.9,0-.5-.4-1.1-.4-1.6,0-1.8,1.3-2.4,2.9-2.4,1.9,0,3.5,.9,3.5,2.6-.1,2.8-.6,4.9-.6,7,0,1.9,.5,3.9,.6,5.8,0,1.6-1.6,2.6-3.5,2.6-1.6,0-2.9-.6-2.9-2.2,0-.7,.4-1.3,.4-1.8,0-1.2-2.9-.9-3.6-.9h-7.6v-.1h0Z"/><path class="cls-13" d="M768.1,339.3c-.7,0-3.6-.2-3.6,.9,0,.5,.4,1.1,.4,1.6,0,1.8-1.4,2.3-2.9,2.3-2,0-3.5-.9-3.5-2.6,0-1.5,.5-2.6,.5-3.6,0-1.1-.5-2.2-.5-3.4,0-1.4,.9-1.5,2.1-1.5h3.9c-4.2-.9-6.6-4.1-6.6-8.5,0-3.6,2.7-6.8,6.5-6.8,2.6,0,5.1,1.6,5.1,4.5,0,2-1.3,3.6-3.3,3.6-.8,0-1.4-.4-2.1-.7-.4,5.9,7.5,6,11.6,6,.7,0,3.6,.2,3.6-.9,0-.5-.4-1.1-.4-1.8,0-1.6,1.3-2.2,2.9-2.2,1.9,0,3.5,.9,3.5,2.6-.1,2.8-.6,4.8-.6,6.9s.5,4,.6,5.9c0,1.6-1.6,2.6-3.5,2.6-1.6,0-2.9-.6-2.9-2.3,0-.6,.4-1.2,.4-1.6,0-1.2-2.9-.9-3.6-.9h-7.6v-.1h0Z"/><path class="cls-13" d="M773.2,306.1c0,1.1-.4,2.3,1.1,2.3,2.9,0,5.2-2.3,5.2-5.3,0-4.5-4-4.1-4-8.1,0-2,1.2-3.6,3.2-3.6,2.3,0,4.1,1.8,5.3,3.6,1.5,2.4,2.1,5.3,2.1,8.2,0,8.5-5.8,13.6-14.1,13.6s-14.3-5.1-14.3-13.5c0-3.1,.7-6.3,2.8-8.7,2.2-2.5,5.8-3.8,9-3.8,2.9,0,3.8,.4,3.8,3.4l-.1,11.9h0Zm-5.8-4.8c0-.8,.4-1.8-.8-1.8-.8,0-1.8,.5-2.2,1.1-.7,.8-.9,1.8-.9,2.8,0,1.4,.2,2.5,1.3,3.5,.5,.5,1.3,1.3,2,1.3,1.1,0,.7-1.6,.7-2.2l-.1-4.7h0Z"/><path class="cls-13" d="M775.5,277.1c.7,0,3.6,.2,3.6-.9,0-.5-.4-.9-.4-1.6,0-1.8,1.3-2.2,2.9-2.2,1.9,0,3.5,.8,3.5,3.1-.1,2.1-.6,4.2-.6,6.3s.5,3.9,.6,5.6c0,2-1.6,2.8-3.5,2.8-1.6,0-2.9-.6-2.9-2.2,0-.7,.4-1.2,.4-1.8,0-1.1-2.9-.9-3.6-.9h-9.5c-1.8,0-2-.1-2,1.8,0,2-.5,3.2-2.7,3.2s-3.1-.8-3.1-2.9c0-1.5,.1-2-1.6-2-5.6-.2-8-5.1-8-10.2,0-1.6,.4-3.8,1.1-5.3,.9-1.8,2.6-3.1,4.6-3.1,2.3,0,4.1,1.5,4.1,3.9,0,1.6-1.3,3.5-3.1,3.5-.6,0-.9-.2-1.4-.5-.2,.4-.2,.6-.2,.9,0,2,1.2,2.6,2.9,2.6,1.6,0,1.6-.1,1.6-1.8,0-2.1,.1-3.6,2.8-3.6,2.3,0,2.9,1.1,2.9,3.3s-.1,2.1,2,2.1l9.6-.1h0Z"/><path class="cls-13" d="M771.4,243.9c8.6,0,14.6,4.2,14.6,13.3s-5.4,13.9-14.2,13.9-14.2-4.8-14.2-13.7c-.1-8.6,5.5-13.5,13.8-13.5h0Zm-7.3,13.4c-.1,4.2,4.2,5.2,7.6,5.2,3.1,0,7.6-.9,7.6-4.8,0-1.8-.5-3.3-2.2-4.1-1.5-.8-3.6-1.2-5.4-1.2-3.3,0-7.8,.8-7.8,4.9h.2Z"/><path class="cls-13" d="M768.1,240.1c-.7,0-3.6-.1-3.6,.9,0,.6,.4,1.1,.4,1.8,0,1.6-1.4,2.2-2.9,2.2-2,0-3.5-.8-3.5-4.7,0-1.1,.5-2.1,.5-3.3s-.5-2.4-.5-3.6c0-1.8,1.5-1.4,2.8-1.4h12.2c1.2,0,2.9,0,4-.6,.9-.6,1.5-1.8,1.5-2.8,0-1.5-.7-2.9-2-3.8-1.6-1.1-3.4-1.2-5.4-1.2h-3.4c-.7,0-3.6-.2-3.6,.9,0,.5,.4,1.1,.4,1.6,0,1.8-1.4,2.4-2.9,2.4-2,0-3.5-.9-3.5-4.5,0-1.1,.5-2.1,.5-3.3s-.5-2.4-.5-3.6c0-1.8,1.2-1.6,2.5-1.6h14.4c.7,0,3.6,.2,3.6-.9,0-.5-.4-1.1-.4-1.8,0-1.6,1.3-2.2,2.9-2.2,1.9,0,3.5,.9,3.5,3.1-.1,1.3-.6,2.5-.6,3.6,0,1.2,.5,2.4,.6,3.3-.1,2-1.6,1.9-2.7,1.9h-.9c2.8,2,4.3,5.6,4.3,9.2,0,2.6-.9,5.6-3.3,7.2-2.1,1.5-5.2,1.3-7.8,1.3l-6.6-.1h0Z"/><path class="cls-13" d="M768.1,203.6c-.7,0-3.6-.1-3.6,.9,0,.6,.4,1.1,.4,1.8,0,1.6-1.4,2.2-2.9,2.2-2,0-3.5-.8-3.5-2.6,0-1.5,.5-2.5,.5-3.5,0-1.2-.5-2.2-.5-3.4,0-1.5,.9-1.6,2.1-1.6h3.9c-4.2-.9-6.6-4.1-6.6-8.3,0-3.6,2.7-6.8,6.5-6.8,2.6,0,5.1,1.6,5.1,4.3,0,2-1.3,3.6-3.3,3.6-.8,0-1.4-.4-2.1-.6-.4,5.8,7.5,5.9,11.6,5.9,.7,0,3.6,.2,3.6-.9,0-.5-.4-.9-.4-1.6,0-1.8,1.3-2.2,2.9-2.2,1.9,0,3.5,.8,3.5,2.6-.1,2.7-.6,4.8-.6,6.9s.5,3.9,.6,5.8c0,1.8-1.6,2.6-3.5,2.6-1.6,0-2.9-.6-2.9-2.2,0-.7,.4-1.2,.4-1.8,0-1.1-2.9-.9-3.6-.9h-7.6v-.2h0Z"/><path class="cls-13" d="M771.2,52.1c.6,0,1.2,.6,1.2,.6l28.1,28.1c1.1,1.1,.4,1.8-.5,1.4-1.4-.7-2.8-1.8-6.3-2.8-4.9-1.4-9-1.4-11.4-.8-2.3,.6-6.9,3.4-6.9,9.3,0,7.6,7.1,9.9,9.6,9.8,1.6-.1,4.3,0,6.7-2.7,1.8-2,1.1-4,1.1-4.5-.1-.5-.7-1.5,.9-1.5,2,0,4.3,1.6,5.4,2.8,1.1,1.1,4.1,4.9,4.1,10.3,0,3.3-1.5,7-4.7,9.9-2.3,2.1-5.2,3.4-9,4.7-7.2,2.4-12.6,2.8-18.2,2.8-5.1,0-10.7-.6-17.9-2.8-3.8-1.2-7.3-2.9-9.4-4.7-3.3-2.6-4.6-6.6-4.6-9.9,0-5.4,2.9-9.3,4-10.3,1.1-1.2,3.4-2.8,5.4-2.8,1.6,0,1.1,1.1,.9,1.5,0,.5-.7,2.5,1.1,4.5,2.4,2.7,5.1,2.6,6.8,2.7,2.5,.1,9.5-2.1,9.5-9.8,0-5.9-4.6-8.7-6.9-9.3-2.3-.6-6.5-.6-11.4,.8-3.5,1.1-4.9,2.1-6.2,2.8-.8,.4-1.6-.4-.5-1.4l28-28.1c-.1,0,.5-.6,1.1-.6h0Z"/><path class="cls-13" d="M770.9,155.6c.6,0,1.2-.5,1.2-.5l28.8-30.1c.7-.7,0-.9-.6-.7-.4,.1-.6,.2-2,1.2-11.6,8.2-27.4,8-27.4,8,0,0-15.7,.2-27.4-8-1.4-.9-1.6-1.1-2-1.2-.6-.2-1.3,0-.6,.7l28.8,30.1c.1,.1,.6,.5,1.2,.5h0Z"/></g><g><path d="M280.4,93.4c0,19.3,8.7,34.3,19.8,34.3s19.8-15.1,19.8-34.3-8.7-34.3-19.8-34.3c-11.1-.1-19.8,15-19.8,34.3Zm37.3,0c0,17.6-7.8,32-17.5,32s-17.5-14.3-17.5-32,7.8-32,17.5-32,17.5,14.3,17.5,32Z"/><path d="M310.9,112.3c-1.1,0-.9,1.3-1.4,1.3-.1,0-.2-.1-.2-.4,0-.2,0-.4,.1-.6l-.8-.1c0,.2-.1,.5-.1,.6,0,.9,.4,1.4,1.1,1.4,1.2,0,.9-1.3,1.4-1.3,.2,0,.3,.1,.3,.4s-.1,.5-.1,.7l.9,.1c.1-.2,.1-.5,.1-.7-.1-.8-.6-1.4-1.3-1.4"/><path class="cls-13" d="M309.8,108.9c.3,0,.4,.2,.4,.5v.1h-.8v-.1c0-.4,.2-.5,.4-.5m0-1c-.8,0-1.2,.5-1.2,1.4v1h3.5v-1h-1.1v-.1c0-.8-.6-1.3-1.2-1.3h0Z"/><path class="cls-13" d="M310.3,103.8c.7,0,.9,.4,.9,.7,0,.5-.4,.6-.9,.6-.7,0-.9-.3-.9-.7,0-.3,.3-.6,.9-.6m0-1c-1.3,0-1.7,.7-1.7,1.6,0,1,.7,1.8,1.9,1.8,1.1,0,1.8-.5,1.8-1.6-.1-1-.9-1.8-2-1.8h0Z"/><path class="cls-13" d="M309.7,99.4c.3,0,.4,.2,.4,.4v.2h-.7v-.2c0-.3,.1-.4,.3-.4m2.4-1.3l-1.1,.6c-.1,.1-.3,.2-.4,.3-.1-.4-.5-.6-.9-.6-.8,0-1.1,.5-1.1,1.4v1.2h3.5v-1h-1.3l1.3-.7v-1.2Z"/><polyline points="309.4 94.2 308.6 94.2 308.6 96.7 309.4 96.7 309.4 95.9 312.1 95.9 312.1 95 309.4 95 309.4 94.2"/><path d="M310.9,90.2c-1.1,0-.9,1.3-1.4,1.3-.1,0-.2-.1-.2-.4,0-.2,0-.4,.1-.6l-.8-.1c0,.2-.1,.5-.1,.6,0,.9,.4,1.4,1.1,1.4,1.2,0,.9-1.3,1.4-1.3,.2,0,.3,.1,.3,.4s-.1,.5-.1,.7l.9,.1c.1-.2,.1-.5,.1-.7-.1-.9-.6-1.4-1.3-1.4"/><path d="M297.7,111.6v3.7h-6c-.8,0-1.1-.5-1.1-.5v4.5s.3-.5,1.1-.5h13.8c.8,0,1.2,.5,1.2,.5v-4.5s-.3,.5-1.2,.5h-6.4v-3.7h6.4c.8,0,1.2,.5,1.2,.5v-4.5s-.3,.5-1.2,.5h-13.8c-.8,0-1.1-.5-1.1-.5v4.5s.3-.5,1.1-.5h6"/><path d="M301.1,97.1c-3.2,0-5.7,1.9-5.7,4.7s2.6,4.9,5.7,4.9,5.8-2.2,5.8-4.9c0-2.3-1.8-4.1-4.3-4.6v1.3s1,.2,2,1c.9,.7,.9,1.7,.8,2.3-.2,1.5-1.9,1.6-4.2,1.6l-.1-6.3h0Zm-1.2,6.2c-1.9-.1-3.2-.5-3.2-1.6s1.2-1.6,3.2-1.6v3.2Z"/><path d="M295.6,90.8c0-1.2,.1-1.8,.1-1.9,.2-1,1-1.5,1.7-1.5,.8,0,1.5,.8,1.5,1.7s-.7,1.7-1.5,1.7c-.4,0-.8-.2-1.1-.6,0,0-.3,1,.4,1.7,.4,.3,.8,.3,.8,.3h8c.8,0,1.2-.5,1.2-.5v4.5s-.3-.5-1.2-.5h-8.7c-.8,0-1.1,.5-1.1,.5l-.1-5.4"/><path d="M306.6,85.1l-5.5-2.2c-.5-.2-.8,.4-.8,.4v-2.7s.1,.6,.8,.9l9.5,3.7v2.2l-9.5,3.1c-.5,.2-.8,.7-.8,.7v-4.7c.3,.6,.8,.4,.8,.4l5.5-1.8"/><path d="M295.6,76.2v4.3s.3-.5,1.1-.5h8.7c.8,0,1.2,.5,1.2,.5v-4.3s-.3,.5-1.2,.5h-8.7c-.8,0-1.1-.5-1.1-.5"/><path d="M293.2,80.1c-.8,0-1.5-.8-1.5-1.7s.7-1.7,1.5-1.7,1.5,.8,1.5,1.7-.7,1.7-1.5,1.7"/><path d="M301.6,72.8c.5-.9,.7-1.8,1-2.4s.8-1,1.4-1c1,0,1.7,1,1.7,2.3,0,.5-.1,.9-.3,1.3-.2-.4-.6-1-1.3-1-.8,0-1.5,.8-1.5,1.7,0,.7,.4,1.3,.9,1.5,0,0,.4,.2,.9,.1,.1,0,.3-.1,.4-.1,1.1-.5,1.8-1.9,1.9-4.6-.1-3-1.5-5-3.4-5-.8,0-1.6,.3-2.2,1-.4,.5-.8,.9-1.3,2.2-.3,.7-.6,1.5-.8,1.9-.3,.6-.8,1-1.4,1-.8,0-1.5-.8-1.5-1.9,0-.2,0-.4,.1-.6l.1,.1c.3,.4,.7,.6,1.1,.6,.8,0,1.5-.8,1.5-1.7s-.7-1.7-1.5-1.7c-.5,0-1.1,.4-1.4,1-.5,.8-.7,1.7-.7,2.8,0,2.5,1.5,4.5,3.4,4.5,1.2,.1,2.3-.7,2.9-2h0"/></g><g><path d="M352,106.7h0c3,0,5.7,2.4,5.7,5.5s-2.7,5.5-5.7,5.5-5.7-2.4-5.7-5.5c.1-3.1,2.7-5.5,5.7-5.5m8-2.9h-16v3.1h1c.4,0,1.1-.1,1.1-.1v.2c-1.4,1.2-2.6,2.7-2.6,5.2,0,4.8,3.7,8.5,8.5,8.5s8.5-3.8,8.5-8.5c0-2.5-1.3-4-2.6-5.2v-.2s.8,.1,1.1,.1h1v-3.1Z"/><polygon points="347 127.8 347 122.8 344.1 122.4 344.1 136.8 347 136.8 347 131 360 131 360 127.8 347 127.8"/><path d="M344.1,95.6v3.1h16v-3.1h-6.3l-1.1-1.1,7.4-6.1v-4l-9.4,7.9-6.6-6.7v3.9l6,6v.1s-.3-.1-.8-.1l-5.2,.1h0Z"/><path d="M352,53c3,0,5.7,2.4,5.7,5.5s-2.7,5.5-5.7,5.5-5.7-2.4-5.7-5.5c.1-3,2.7-5.5,5.7-5.5m0-3c-4.8,0-8.5,3.8-8.5,8.5s3.7,8.5,8.5,8.5,8.5-3.8,8.5-8.5-3.6-8.5-8.5-8.5"/><path d="M344.1,78.6v3.1h16v-3.1h-6.3l-1.1-1.1,7.4-6.1v-4l-9.4,7.9-6.6-6.7v3.9l6,6v.1s-.3-.1-.8-.1l-5.2,.1h0Z"/></g><g id="Brandingmodul_Deichmann_quadratisch_vertikal"><path id="Deichmann" d="M394.8,138.7c1.4,0,2.9,.6,2.9,2.4v2.2h-5.8v-2c0-1.6,1-2.6,2.9-2.6m0-3.2c-2.9,0-5.3,1.8-5.2,5.3v5.5l10.6-.1v-5.5c-.1-3.4-2.5-5.2-5.4-5.2m5.3-1.8l-.1-8.9h-2.3v5.9h-1.9v-4.9h-2.2v4.9h-1.9v-5.9h-2.3l.1,8.9h10.6Zm-.1-11.1v-3l-10.6,.1v3.1l10.6-.2Zm-5.3-8.1c-1.8,0-3.3-.6-3.3-2.5,0-1.3,.8-1.9,1.7-2.2v-3c-2.4,.2-4,2.2-4,5.2,0,3.8,2.6,5.6,5.7,5.6s5.6-1.9,5.6-5.7c0-3.2-1.8-5-4.1-5.2v3c.9,.2,1.7,.8,1.7,2.2-.1,2-1.5,2.6-3.3,2.6m5.2-16.9v-3.1l-10.6,.1v3.1h4v4.5h-4v3.1l10.6-.1v-3.1h-4.2v-4.5h4.2Zm-.1-16v-2.8l-10.6,.1v4.4l7,2h0l-7,2.1v4.4l10.6-.1v-2.8h-7.9l7.9-2.5v-2.5l-7.9-2.4h0l7.9,.1Zm-4-11.3v2.6l-4-1.2h0l4-1.4Zm3.9-1.3v-3.3l-10.5,4v3.7l10.6,3.9v-3.3l-1.7-.5v-4l1.6-.5Zm-.1-11.8v-3.4l-10.6,.1v2.9h6.6l-6.6,4.3v3.5l10.6-.1v-2.9h-6.7l6.7-4.4Zm-.1-16.8l-10.6,.1v2.9h6.6l-6.6,4.3v3.5l10.6-.1v-2.9h-6.7l6.6-4.4,.1-3.4Z"/></g><g><g><path d="M440.1,81.2c.2-.3,.3-.7,.3-1.1s-.1-.8-.3-1.2c-.2-.4-.5-.7-.8-.9-.3-.2-.7-.4-1.2-.5-.4-.1-.7,0-1,.1s-.6,.4-.8,.7c-.2,.3-.3,.7-.3,1.1s.1,.8,.3,1.2c.2,.4,.4,.7,.8,.9,.3,.2,.6,.4,1,.5,.5,.1,.8,0,1.2-.1,.3-.2,.6-.4,.8-.7Z"/><path d="M436,107.3v1l1.9,.3v-1c0-.2-.1-.4-.2-.6s-.4-.3-.7-.3-.6,0-.7,.1c-.2,.1-.2,.2-.3,.5h0Z"/><path d="M429,93.4c0,12.5,4.1,22.6,9.2,22.6s9.2-10.1,9.2-22.6-4.1-22.6-9.2-22.6-9.2,10.1-9.2,22.6Zm9.1-9.3c-.8-.1-1.5-.5-2.1-.9-.6-.5-1.1-1.1-1.4-1.8-.3-.7-.5-1.4-.5-2.2s.2-1.4,.5-2,.8-1,1.4-1.3,1.3-.4,2.1-.3c.8,.1,1.6,.4,2.2,.9s1.1,1.1,1.5,1.8c.4,.7,.5,1.5,.6,2.3,0,.8-.2,1.5-.6,2.1s-.9,1-1.5,1.3c-.6,.1-1.4,.2-2.2,.1Zm.8,21.5c.4,.5,.6,1.3,.6,2.1v1.1l2.6,.4v2l-7.8-1.2v-3.1c0-.6,.1-1,.3-1.4,.2-.4,.5-.7,.8-.9,.4-.2,.9-.2,1.4-.1,1,.2,1.7,.6,2.1,1.1Zm-1.5-7.3l1.7,.3v3.5l1.3,.2v-3.6l1.7,.3v5.6l-7.8-1.2v-5.6l1.7,.3v3.6l1.3,.2,.1-3.6h0Zm-.5-7.1c.9,.1,1.6,.5,2,1s.6,1.2,.6,2.1v1.1l2.6,.4v2l-7.8-1.2v-3.1c0-.6,.1-1,.3-1.4,.2-.4,.5-.7,.8-.9,.4-.1,.9-.1,1.5,0Zm1.3-.4c-.5-.1-1-.3-1.5-.5-.5-.3-.9-.6-1.3-1.1-.4-.4-.7-1-.9-1.5-.2-.6-.3-1.1-.3-1.7s.1-1.2,.4-1.8l2.4,.4c-.3,.2-.5,.4-.6,.7-.1,.3-.2,.6-.2,1s.1,.8,.3,1.1c.2,.3,.4,.6,.8,.8,.3,.2,.7,.4,1.1,.4,.6,.1,1.1,0,1.5-.3s.6-.8,.6-1.4c0-.3-.1-.7-.2-1s-.3-.6-.6-.9l2.4,.4c.1,.3,.2,.7,.3,.9,.1,.3,.1,.6,.1,.9,0,.5-.1,1-.3,1.5-.2,.5-.5,.9-.8,1.2-.4,.4-.8,.6-1.3,.7-.7,.3-1.3,.3-1.9,.2Zm8.3-3.5c.5,4.6,.4,4.1-.2,.1-1.3-8.1-4.6-14.2-8.6-14.2-1.2,0-2.7,.5-3.7,1.7,.4-.7,1-1.6,1.7-2,.8-.6,1.7-.9,2.6-.9,3.9-.1,7.2,6.8,8.2,15.3Z"/><path d="M436,93.9v1l1.9,.3v-1c0-.2-.1-.4-.2-.6s-.4-.3-.7-.3-.6,0-.7,.1c-.2,.1-.2,.2-.3,.5h0Z"/></g><path d="M429,104.8c-5.6-26.5,3.4-37.5,9.2-36.2h.3c-5.8-3.9-16.4-1.1-14.1,19.4,.5,4.5,2.3,11,4.6,16.8"/><path d="M447.5,81.9c5.6,26.5-3.4,37.5-9.2,36.2h-.3c5.8,3.9,16.4,1.1,14.1-19.4-.5-4.4-2.4-10.9-4.6-16.8"/></g><g><path class="cls-13" d="M110.2,54.4c1.7-1.6,2.2-4.7,1-8.1h0c-.1-.4-.8-.4-1.8-.4l-1.5-4.3c-.2-.6-.7-.9-1.3-.8-.6,.3-.8,.8-.7,1.4l1.4,4.1c-.4,.1-.8,.2-1.2,.4-.4,.1-.8,.3-1.2,.5l-1.4-4.3c-.2-.5-.7-.8-1.3-.6-.5,.1-.8,.8-.6,1.3l1.4,4.5c-.9,.5-1.4,1-1.3,1.3h0c1.1,3.4,3.3,5.6,5.6,5.9h0c.2,0,.4,.2,.4,.4,0,0,3.8,18,3.8,41.2-.1,28-5.9,41.1-7.7,48-.1,.4-.1,.8,.3,1.1,.4,.2,.8-.1,1-.5,.1-.2,10.8-17.9,10.8-48.5,0-21.3-3.7-34.8-5.8-41.9h0v-.2c-.1-.3-.1-.4,.1-.5h0Z"/><path class="cls-13" d="M100.3,107.1h0l-5.2-2.4,5.2-.8v3.2h0Zm-10-3.8c0,2.1,.4,3.5,2.4,4.4,0,0,12.6,6.2,12.8,6.4v-4.7l-1.9-.9v-5.1s1.8-.2,1.9-.2v-5.3c-.2,0-14.8,2.7-14.9,2.7-.2,1-.3,1.8-.3,2.7h0Zm4,20.8c-.1,0-3.5-.5-3.7-.5v6.4c0,3.2,1.5,4,4.2,4.5,0,0,9.1,1.3,9.3,1.4,.1-.1,1.1-4.4,1.2-4.5-.3-.1-4.6-.8-4.6-.8v-3.7c-.1,0-3.4-.5-3.6-.6v3.8l-2.8-.5v-5.5h0Zm-3.7-6.9v4.7c.2,0,11,1.7,11,1.7l1.4,.1c.7,0,1.3-.1,1.7-.5,.6-.4,.8-1.3,.8-2.6v-5.1c-.1-.1-4.1-.6-4.4-.7v4s-10.2-1.6-10.5-1.6h0Zm7.5-61.8c2.5,.3,3.5,2,3.5,3.4,0,.7-.4,1.3-.9,1.8-.6,.6-1.6,.8-2.7,.7-2.4-.3-3.4-1.8-3.4-3.4,0-.8,.2-1.4,.8-1.9,.6-.5,1.5-.7,2.7-.6h0Zm-5.7-3.5c-1.4,1.2-2.1,3.2-2.1,5.7,0,4.1,3,8.6,8,9h.8c1.9,0,3.5-.6,4.7-1.7,1.3-1.2,2.1-3.1,2.1-5.6,0-.7-.1-1.4-.3-2.2-2.5-.9-4.7-3.3-5.8-6.5-.7-.1-1.4-.3-2.1-.4h-.8c-1.8,0-3.4,.6-4.5,1.7h0Zm1.9,17.7c0-.8,.2-1.7,.3-2.3-.1-.1-3.9-1.1-4.1-1.1-.2,.8-.2,1.9-.2,2.5,0,6,4.2,9.3,8.2,10,2.2,.3,4,0,5.3-1.2,1.3-1,2-3,2-5.4,0-1.2-.2-2.5-.4-3.6-.2,0-4-.2-4.3-.3,.3,.7,.4,1.4,.4,2.3s-.4,1.8-1,2.3c-.7,.6-1.5,.8-2.6,.6-2.4-.3-3.6-2.3-3.6-3.8h0Zm1.8,15c1,.1,2.2,.2,2.2,.2l1.3,.2-1.9,.6c-1.3,.4-4.4,1.4-7.1,1.9v6.7c.2,0,14.7,2.4,14.9,2.4v-4.5c-.1,0-5.2-.9-6.2-1-1.1-.2-3.1-.4-3.1-.4,0,0,1.8-.5,2.4-.7,.8-.1,3.3-.9,4-1.1,2.9-.9,3.3-2.3,3.3-4.8,0-.9-.1-1.7-.4-2.6,0,0-14.7-2.4-14.9-2.4v4.6c.2,0,4.5,.7,5.5,.9h0Z"/></g><g><path d="M252.6,92.7c1.7,2.9,2.5,6,2.5,9.4,0,3.9-1.1,7.1-3.5,9.5-2.4,2.5-5.5,3.8-9.3,3.8s-6.9-1.3-9.2-3.8c-2.4-2.5-3.5-5.9-3.5-10.2,0-3,.7-5.9,2-8.6h5.8c-1.7,2.7-2.6,5.4-2.6,8.2,0,2.5,.7,4.5,2.1,5.9,1.4,1.4,3.2,2.1,5.6,2.1s4.1-.7,5.5-2c1.4-1.4,2.1-3.2,2.1-5.5,0-3-1-5.9-3.1-8.9l5.6,.1h0Z"/><path d="M252.6,41.3c1.7,2.9,2.5,6,2.5,9.4,0,3.9-1.1,7.1-3.5,9.5-2.4,2.5-5.5,3.8-9.3,3.8s-6.9-1.3-9.2-3.8c-2.4-2.5-3.5-5.9-3.5-10.2,0-3,.7-5.9,2-8.6h5.8c-1.7,2.7-2.6,5.4-2.6,8.2,0,2.5,.7,4.5,2.1,5.9,1.4,1.4,3.2,2.1,5.6,2.1s4.1-.7,5.5-2c1.4-1.4,2.1-3.2,2.1-5.5,0-3-1-5.9-3.1-8.9l5.6,.1h0Z"/><path d="M252.6,67c1.7,2.9,2.5,6,2.5,9.4,0,3.9-1.1,7.1-3.5,9.5-2.4,2.5-5.5,3.8-9.3,3.8s-6.9-1.3-9.2-3.8c-2.4-2.5-3.5-5.9-3.5-10.2,0-3,.7-5.8,2-8.6h5.8c-1.7,2.7-2.6,5.4-2.6,8.2,0,2.5,.7,4.5,2.1,5.9,1.4,1.4,3.2,2.1,5.6,2.1s4.1-.7,5.5-2c1.4-1.4,2.1-3.2,2.1-5.5,0-2.9-1-5.9-3.1-8.9l5.6,.1h0Z"/></g><g><path d="M692.5,562.9h2.6c2,0,3.2,1.3,3.2,3.3s-1.2,3.3-3.3,3.3h-2.5v-6.6Zm2.6,5.4c1.2,0,1.8-.9,1.8-2.1,0-1.1-.6-2-1.8-2h-1.3v4.1h1.3Z"/><path d="M699.1,566.2c0-1.9,1.5-3.5,3.5-3.5s3.5,1.5,3.5,3.4-1.5,3.4-3.5,3.4c-2.1,.2-3.5-1.3-3.5-3.3h0Zm5.5,0c0-1.2-.9-2.1-2.1-2.1s-2.1,.9-2.1,2.1,.9,2.1,2.1,2.1,2.1-.9,2.1-2.1Z"/><path d="M712.7,562.9v6.7h-.9l-3.4-4.1v4.1h-1.3v-6.7h.8l3.5,4.1v-4.1h1.3Z"/><path d="M716.1,566.2c0-2.1,1.6-3.5,3.4-3.5,1.2,0,2.3,.6,2.9,1.4l-.9,.9c-.5-.6-1.1-1-1.9-1-1.2,0-2.1,.9-2.1,2.2,0,1.2,.9,2.1,2.1,2.1,.8,0,1.5-.4,1.9-1l.9,.8c-.6,.8-1.7,1.4-2.9,1.4-1.9,.2-3.4-1.2-3.4-3.3h0Z"/><path d="M726.7,568.1h-2.3l-.5,1.4h-1.4l2.5-6.7h1.1l2.5,6.7h-1.4l-.5-1.4h0Zm-1.9-1.2h1.6l-.8-2.2-.8,2.2Z"/><path d="M728.7,568.4l.8-.9c.4,.6,1.1,.9,1.8,.9,.6,0,1-.3,1-.7,0-.3-.3-.5-.6-.7-.4-.2-1-.4-1.4-.6-.6-.3-1.1-.8-1.1-1.7,0-1.1,.9-1.9,2.3-1.9,.8,0,1.6,.3,2.2,.9l-.7,1c-.4-.4-1-.6-1.5-.6s-.9,.3-.9,.6,.3,.5,.5,.7c.4,.2,1,.4,1.5,.6,.6,.3,1.1,.8,1.1,1.7,0,1.2-1,2-2.4,2-1.1,0-2.1-.5-2.6-1.3h0Z"/><path d="M734.7,562.9h1.3v2.7h2.8v-2.7h1.3v6.7h-1.3v-2.7h-2.8v2.7h-1.3v-6.7Z"/></g><g><path d="M683.2,610.2l5.1-6.9h-4.9v-1.9h7.7v1.5l-5,6.8h5.1v1.9h-8.1v-1.4h.1Z"/><path d="M692.1,606.6c0-3,2.4-5.4,5.4-5.4s5.4,2.4,5.4,5.3-2.3,5.3-5.4,5.3c-3.1,0-5.4-2.3-5.4-5.2h0Zm8.5-.1c0-1.9-1.4-3.3-3.2-3.3s-3.2,1.4-3.2,3.3,1.4,3.3,3.2,3.3,3.3-1.4,3.2-3.3Z"/><path d="M703.9,606.6c0-3,2.4-5.4,5.4-5.4s5.4,2.4,5.4,5.3-2.3,5.3-5.4,5.3c-3.1,0-5.4-2.3-5.4-5.2h0Zm8.5-.1c0-1.9-1.4-3.3-3.2-3.3s-3.2,1.4-3.2,3.3,1.4,3.3,3.2,3.3,3.3-1.4,3.2-3.3Z"/><path d="M716.3,601.4h1.4l4,5.8,4-5.8h1.4v10.3h-2.1v-5.8l-3,4.3h-.7l-3-4.3v5.8h-2v-10.3h0Z"/><path d="M734.8,609.5h-3.6l-.8,2.2h-2.2l3.9-10.3h1.7l3.9,10.3h-2.2l-.7-2.2h0Zm-3-1.9h2.4l-1.2-3.4-1.2,3.4Z"/><path d="M747.8,601.4v10.3h-1.4l-5.3-6.3v6.3h-2v-10.3h1.3l5.4,6.4v-6.4h2Z"/><path d="M752.2,601.4v10.3h-2.1v-10.3h2.1Z"/><path d="M759.9,609.5h-3.6l-.8,2.2h-2.2l3.9-10.3h1.7l3.9,10.3h-2.2l-.7-2.2h0Zm-3-1.9h2.4l-1.2-3.4-1.2,3.4Z"/></g><g><path d="M689.2,503.4c0,1-.8,1.9-2.1,1.9h-3v-6.7h2.9c1.3,0,1.9,.8,1.9,1.7,0,.6-.4,1.2-.9,1.3,.8,.3,1.2,1,1.2,1.8h0Zm-3.8-3.6v1.4h1.3c.6,0,.8-.4,.8-.7,0-.4-.3-.7-.8-.7h-1.3Zm2.4,3.5c0-.4-.3-.9-1-.9h-1.5v1.8h1.5c.7,0,1-.5,1-.9Z"/><path d="M689.9,502c0-1.9,1.5-3.5,3.5-3.5s3.5,1.5,3.5,3.4-1.5,3.4-3.5,3.4c-2,.1-3.5-1.4-3.5-3.3Zm5.6,0c0-1.2-.9-2.1-2.1-2.1s-2.1,.9-2.1,2.1,.9,2.1,2.1,2.1,2.1-.9,2.1-2.1Z"/><path d="M697.9,502.9v-4.2h1.3v4.1c0,.9,.5,1.3,1.3,1.3,.7,0,1.2-.5,1.2-1.3v-4.1h1.4v4.2c0,1.8-1.2,2.5-2.6,2.5s-2.6-.7-2.6-2.5h0Z"/><path d="M703.8,500v-1.3h5.1v1.3h-1.9v5.4h-1.4v-5.4h-1.8Z"/><path d="M711.2,498.7v6.7h-1.3v-6.7h1.3Z"/><path d="M719.3,506.5c-.4,.1-.8,.2-1.2,.2-.9,0-1.8-.4-2.5-1.3-1.9-.1-3.3-1.6-3.3-3.4,0-1.9,1.5-3.4,3.5-3.4s3.5,1.5,3.5,3.4c0,1.4-.9,2.7-2.1,3.2,.3,.3,.7,.4,1.1,.4,.3,0,.6-.1,.9-.2l.1,1.1h0Zm-3.5-2.4c1.2,0,2.1-.9,2.1-2.1s-.9-2.2-2.1-2.2-2.1,.9-2.1,2.2c-.1,1.2,.9,2.1,2.1,2.1Z"/><path d="M720.2,502.9v-4.2h1.3v4.1c0,.9,.5,1.3,1.3,1.3,.7,0,1.2-.5,1.2-1.3v-4.1h1.4v4.2c0,1.8-1.2,2.5-2.6,2.5s-2.6-.7-2.6-2.5h0Z"/><path d="M726.8,498.7h4.5v1.2h-3.2v1.4h2.9v1.2h-2.9v1.5h3.2v1.2h-4.5v-6.5h0Z"/><path d="M737.1,498.7v6.7h-1.3v-5l-1.1,.8-.7-.9,2.1-1.6h1Z"/><path d="M742.3,498.7v.9l-2.4,5.7h-1.4l2.3-5.4h-2.9v-1.2h4.4Z"/></g><g><path d="M534.5,19.1h1.7c1.3,0,2.1,.9,2.1,2.2,0,1.4-.8,2.2-2.2,2.2h-1.6v-4.4Zm1.7,3.6c.8,0,1.2-.6,1.2-1.4,0-.7-.4-1.4-1.2-1.4h-.9v2.7l.9,.1h0Z"/><path d="M541.3,22.6h-1.5l-.3,1h-1l1.7-4.4h.7l1.7,4.4h-.9l-.4-1Zm-1.3-.8h1l-.5-1.5-.5,1.5Z"/><path d="M546.5,22.2c0,.7-.5,1.3-1.4,1.3h-2v-4.4h1.9c.8,0,1.3,.6,1.3,1.1,0,.4-.2,.8-.6,.9,.6,.1,.8,.6,.8,1.1Zm-2.5-2.3v1h.9c.4,0,.6-.3,.6-.5s-.2-.5-.5-.5h-1Zm1.6,2.3c0-.3-.2-.6-.7-.6h-1v1.2h1c.5-.1,.7-.4,.7-.6Z"/><path d="M547,21.3c0-1.3,1-2.3,2.3-2.3s2.3,1,2.3,2.3-1,2.3-2.3,2.3-2.3-1-2.3-2.3Zm3.7,0c0-.8-.6-1.4-1.4-1.4s-1.4,.6-1.4,1.4,.6,1.4,1.4,1.4,1.4-.6,1.4-1.4Z"/></g><g><path d="M532.3,26.1h1.7c1.3,0,2.1,.9,2.1,2.2,0,1.4-.8,2.2-2.2,2.2h-1.7v-4.4h.1Zm1.7,3.6c.8,0,1.2-.6,1.2-1.4,0-.7-.4-1.4-1.2-1.4h-.9v2.7l.9,.1h0Z"/><path d="M536.7,28.3c0-1.3,1-2.3,2.3-2.3s2.3,1,2.3,2.3-1,2.3-2.3,2.3c-1.4,0-2.3-1-2.3-2.3Zm3.6,0c0-.8-.6-1.4-1.4-1.4s-1.4,.6-1.4,1.4,.6,1.4,1.4,1.4,1.5-.6,1.4-1.4Z"/><path d="M545.8,26.1v4.4h-.6l-2.3-2.7v2.7h-.9v-4.4h.6l2.3,2.7v-2.7h.9Z"/><path d="M546.8,26.1h3v.8h-2.1v1h2v.8h-2v1h2.1v.8h-3v-4.4Z"/><path d="M552,28.9h-.5v1.6h-.9v-4.4h1.7c1,0,1.5,.7,1.5,1.4,0,.5-.3,1.1-.9,1.3l1.1,1.7h-1l-1-1.6h0Zm-.5-.8h.7c.5,0,.7-.3,.7-.6s-.2-.6-.6-.6h-.8v1.2h0Z"/></g><g><path d="M549.7,137.3c0-.9,.7-1.5,1.5-1.5,.5,0,1,.3,1.3,.6l-.4,.4c-.2-.3-.5-.4-.8-.4-.5,0-.9,.4-.9,1,0,.5,.4,.9,.9,.9,.3,0,.7-.2,.9-.4l.4,.4c-.3,.4-.7,.6-1.3,.6-.9-.1-1.6-.7-1.6-1.6h0Z"/><path d="M552.9,135.8h.6v1.2h1.2v-1.2h.6v3h-.6v-1.2h-1.2v1.2h-.6v-3Z"/><path d="M556.9,137.7h-.4v1.1h-.6v-3h1.1c.7,0,1,.4,1,.9,0,.4-.2,.7-.6,.9l.7,1.2h-.7l-.5-1.1h0Zm-.3-.5h.5c.3,0,.5-.2,.5-.4s-.1-.4-.4-.4h-.5l-.1,.8h0Z"/><path d="M559.3,135.8v3h-.6v-3h.6Z"/><path d="M559.7,138.3l.3-.4c.2,.3,.5,.4,.8,.4,.2,0,.4-.1,.4-.3,0-.1-.1-.2-.3-.3l-.6-.3c-.3-.1-.5-.4-.5-.7,0-.5,.4-.9,1-.9,.3,0,.7,.1,1,.4l-.3,.4c-.2-.2-.4-.3-.6-.3s-.4,.1-.4,.3c0,.1,.1,.2,.2,.3,.2,.1,.5,.2,.7,.3,.3,.1,.5,.4,.5,.7,0,.5-.4,.9-1.1,.9-.4,0-.9-.2-1.1-.5h0Z"/><path d="M562,136.4v-.6h2.3v.6h-.8v2.4h-.6v-2.4h-.9Z"/><path d="M565.3,135.8v3h-.6v-3h.6Z"/><path d="M567.6,138.1h-1l-.2,.6h-.6l1.1-3h.5l1.1,3h-.6l-.3-.6Zm-.9-.5h.7l-.3-1-.4,1Z"/><path d="M571.3,135.8v3h-.4l-1.5-1.8v1.8h-.6v-3h.4l1.6,1.8v-1.8h.5Z"/></g><g><path d="M555,140.4v-.6h2.3v.6h-.8v2.4h-.6v-2.4h-.9Z"/><path d="M557.4,141.3c0-.9,.7-1.5,1.5-1.5,.9,0,1.5,.7,1.5,1.5s-.7,1.5-1.5,1.5c-.9,0-1.5-.7-1.5-1.5Zm2.4,0c0-.6-.4-.9-.9-.9s-.9,.4-.9,.9,.4,.9,.9,.9,.9-.4,.9-.9Z"/><path d="M560.9,141.7v-1.9h.6v1.8c0,.4,.2,.6,.6,.6,.3,0,.6-.2,.6-.6v-1.8h.6v1.9c0,.8-.5,1.1-1.2,1.1s-1.2-.3-1.2-1.1h0Z"/><path d="M564.8,141.7h-.4v1.1h-.6v-3h1.1c.7,0,1,.4,1,.9,0,.4-.2,.7-.6,.9l.7,1.2h-.7l-.5-1.1h0Zm-.4-.5h.5c.3,0,.5-.2,.5-.4s-.1-.4-.4-.4h-.5l-.1,.8h0Z"/></g><g><path d="M584.7,126.1v.4h1.1v.6h-3v-1.1c0-.7,.4-1,.9-1,.4,0,.7,.2,.9,.6l1.2-.7v.7l-1.1,.5h0Zm-.5,.4v-.5c0-.3-.2-.5-.4-.5s-.4,.1-.4,.4v.5l.8,.1h0Z"/><path d="M584.3,124.6c-.9,0-1.5-.7-1.5-1.5,0-.9,.7-1.5,1.5-1.5s1.5,.7,1.5,1.5-.7,1.5-1.5,1.5Zm0-2.5c-.6,0-.9,.4-.9,.9s.4,.9,.9,.9,.9-.4,.9-.9-.4-.9-.9-.9Z"/><path d="M584.9,118.7c.5,0,.9,.3,.9,.9v1.3h-3v-1.3c0-.6,.4-.8,.7-.8s.5,.2,.6,.4c.1-.3,.5-.5,.8-.5Zm-1.6,1.7h.6v-.6c0-.3-.2-.4-.3-.4s-.3,.1-.3,.4v.6Zm1.6-1.1c-.2,0-.4,.1-.4,.4v.6h.8v-.6c-.1-.2-.3-.4-.4-.4h0Z"/><path d="M582.8,118.2v-2h.6v1.4h.6v-1.3h.6v1.3h.7v-1.4h.6v2h-3.1Z"/><path d="M585.3,115.9l-.4-.3c.3-.2,.4-.5,.4-.8,0-.2-.1-.4-.3-.4-.1,0-.2,.1-.3,.3l-.3,.6c-.1,.3-.4,.5-.7,.5-.5,0-.9-.4-.9-1,0-.3,.1-.7,.4-1l.4,.3c-.2,.2-.3,.4-.3,.6s.1,.4,.3,.4c.1,0,.2-.1,.3-.2,.1-.2,.2-.5,.3-.7,.1-.3,.4-.5,.7-.5,.5,0,.9,.4,.9,1.1,0,.5-.2,.9-.5,1.1h0Z"/><path d="M583.4,113.6h-.6v-2.3h.6v.8h2.4v.6h-2.4v.9Z"/></g><g><path d="M596.7,131.2v-1c0-.8,.5-1.3,1.3-1.3s1.3,.5,1.3,1.3v1h-2.6Zm2.1-1c0-.5-.4-.7-.8-.7s-.8,.2-.8,.7v.5h1.6v-.5Z"/><path d="M598.4,127.7v.3h.9v.5h-2.6v-1c0-.6,.4-.9,.8-.9,.3,0,.6,.2,.8,.5l1-.6v.6l-.9,.6Zm-.5,.3v-.4c0-.3-.2-.4-.4-.4s-.3,.1-.3,.4v.5h.7v-.1Z"/><path d="M596.7,126.1v-1.7h.5v1.2h.6v-1.1h.5v1.1h.6v-1.2h.5v1.8h-2.7v-.1h0Z"/><path d="M598.7,122.5v.9l.6,.2v.5l-2.6-1v-.4l2.6-1v.5l-.6,.3Zm-.4,.8v-.6l-.9,.3,.9,.3Z"/><path d="M596.7,121.4v-.3l1.5-1-1.5-1v-.4h2.6v.5h-1.5l1.1,.8v.2l-1.1,.8h1.5v.5l-2.6-.1h0Z"/><path d="M598,117.4c-.8,0-1.4-.6-1.4-1.3,0-.5,.2-.9,.5-1.1l.3,.3c-.2,.2-.4,.4-.4,.7,0,.5,.4,.8,.9,.8s.8-.4,.8-.8c0-.3-.2-.6-.4-.8l.3-.4c.3,.2,.6,.6,.6,1.1,.1,.9-.4,1.5-1.2,1.5h0Z"/><path d="M598.7,113.2v.9l.6,.2v.5l-2.6-1v-.4l2.6-1v.5l-.6,.3Zm-.4,.8v-.6l-.9,.3,.9,.3Z"/><path d="M598.3,111.3l.4,.3h.6v.5h-2.6v-.5h1.2l-1.2-1v-.6l1.2,1,1.4-1v.6l-1,.7h0Z"/><path d="M596.7,109.7v-1.8h.5v1.2h.6v-1.1h.5v1.1h.6v-1.2h.5v1.8h-2.7Z"/></g><g><path d="M623.8,118.3h-.4v1.2h-.7v-3.4h1.3c.8,0,1.2,.5,1.2,1.1,0,.4-.2,.8-.7,1l.8,1.3h-.8l-.7-1.2h0Zm-.4-.6h.6c.4,0,.5-.2,.5-.5,0-.2-.2-.5-.5-.5h-.6v1Z"/><path d="M625.6,117.9c0-1,.8-1.8,1.8-1.8s1.8,.8,1.8,1.8-.8,1.8-1.8,1.8c-1.1-.1-1.8-.9-1.8-1.8Zm2.8-.1c0-.6-.5-1.1-1.1-1.1s-1.1,.5-1.1,1.1,.5,1.1,1.1,1.1c.7,0,1.1-.4,1.1-1.1Z"/><path d="M629.4,119.1l1.7-2.3h-1.6v-.6h2.6v.5l-1.7,2.3h1.7v.6h-2.7v-.5h0Z"/><path d="M634.5,118.8h-1.2l-.3,.7h-.7l1.3-3.4h.6l1.3,3.4h-.7l-.3-.7h0Zm-1-.6h.8l-.4-1.1-.4,1.1h0Z"/></g><g><path d="M623.7,122.5c0-1,.8-1.8,1.8-1.8s1.8,.8,1.8,1.8-.8,1.8-1.8,1.8c-1.1-.1-1.8-.9-1.8-1.8Zm2.8-.1c0-.6-.5-1.1-1.1-1.1s-1.1,.5-1.1,1.1,.5,1.1,1.1,1.1,1.1-.4,1.1-1.1Z"/><path d="M628.9,122.9h-.4v1.2h-.7v-3.4h1.3c.8,0,1.2,.5,1.2,1.1,0,.4-.2,.8-.7,1l.8,1.3h-.8l-.7-1.2h0Zm-.4-.6h.6c.4,0,.5-.2,.5-.5,0-.2-.2-.5-.5-.5h-.6v1Z"/><path d="M630.7,122.5c0-1,.8-1.8,1.8-1.8s1.8,.8,1.8,1.8-.8,1.8-1.8,1.8c-1-.1-1.8-.9-1.8-1.8Zm2.9-.1c0-.6-.5-1.1-1.1-1.1s-1.1,.5-1.1,1.1,.5,1.1,1.1,1.1,1.1-.4,1.1-1.1Z"/></g><g><path d="M598.2,158.6c0-1.9,1.4-3.2,3.1-3.2,1.1,0,2.1,.5,2.6,1.3l-.8,.8c-.4-.5-1-.9-1.7-.9-1.1,0-1.9,.8-1.9,2,0,1.1,.8,1.9,1.9,1.9,.7,0,1.3-.4,1.8-.9l.8,.8c-.5,.7-1.5,1.3-2.7,1.3-1.7,0-3.1-1.3-3.1-3.1h0Z"/><path d="M604.4,158.6c0-1.8,1.4-3.2,3.2-3.2s3.2,1.4,3.2,3.2c0,1.7-1.4,3.1-3.2,3.1s-3.2-1.4-3.2-3.1Zm5.1-.1c0-1.1-.9-2-1.9-2-1.1,0-1.9,.8-1.9,2,0,1.1,.8,1.9,1.9,1.9s1.9-.7,1.9-1.9Z"/><path d="M611.8,155.5h.8l2.4,3.5,2.4-3.5h.8v6.1h-1.2v-3.5l-1.8,2.5h-.4l-1.8-2.5v3.5h-1.2v-6.1Z"/><path d="M623.9,157.5c0,1-.7,2-2.2,2h-.9v2.1h-1.3v-6.1h2.2c1.6,0,2.2,1,2.2,2Zm-1.2,0c0-.5-.3-.9-.9-.9h-1v1.8h1c.6,0,.9-.5,.9-.9h0Z"/><path d="M627.6,160.3h-2.1l-.5,1.3h-1.3l2.3-6.1h1l2.3,6.1h-1.3l-.4-1.3Zm-1.8-1.1h1.4l-.7-2-.7,2Z"/><path d="M629.4,160.5l.7-.8c.4,.6,1,.8,1.6,.8,.5,0,.9-.3,.9-.7,0-.3-.2-.5-.6-.6-.4-.2-.9-.3-1.3-.6-.5-.3-1-.8-1-1.5,0-1,.8-1.8,2.1-1.8,.7,0,1.4,.2,2,.8l-.7,.9c-.4-.4-.9-.6-1.3-.6-.5,0-.8,.2-.8,.6,0,.3,.2,.5,.5,.6s.9,.4,1.3,.6c.6,.3,1,.7,1,1.5,0,1.1-.9,1.9-2.2,1.9-.8,.1-1.7-.3-2.2-1.1h0Z"/></g><g><path d="M609.7,179.8c0-1,.8-1.8,1.7-1.8,.6,0,1.2,.3,1.5,.7l-.5,.4c-.2-.3-.6-.5-1-.5-.6,0-1.1,.5-1.1,1.1s.5,1.1,1.1,1.1c.4,0,.7-.2,1-.5l.5,.4c-.3,.4-.8,.7-1.5,.7-1,.2-1.7-.5-1.7-1.6h0Z"/><path d="M613.1,179.8c0-1,.8-1.8,1.8-1.8s1.8,.8,1.8,1.7c0,1-.8,1.7-1.8,1.7-1.1,.2-1.8-.6-1.8-1.6h0Zm2.8,0c0-.6-.5-1.1-1.1-1.1s-1.1,.5-1.1,1.1,.5,1.1,1.1,1.1,1.1-.4,1.1-1.1Z"/><path d="M620,178.2l-1.4,3.4h-.5l-1.4-3.4h.8l.9,2.3,.9-2.3h.7Z"/><path d="M620.4,178.2h2.3v.6h-1.6v.7h1.5v.6h-1.5v.8h1.6v.6h-2.3v-3.3h0Z"/><path d="M624.4,180.3h-.4v1.2h-.7v-3.4h1.3c.8,0,1.2,.5,1.2,1.1,0,.4-.2,.8-.7,1l.8,1.3h-.8l-.7-1.2h0Zm-.4-.6h.6c.4,0,.5-.2,.5-.5,0-.2-.2-.5-.5-.5h-.6v1Z"/><path d="M627.2,180.9l.4-.5c.2,.3,.6,.5,.9,.5s.5-.2,.5-.4-.1-.3-.3-.4c-.2-.1-.5-.2-.7-.3-.3-.2-.5-.4-.5-.8,0-.6,.5-1,1.2-1,.4,0,.8,.1,1.1,.5l-.4,.5c-.2-.2-.5-.3-.7-.3-.3,0-.4,.1-.4,.3s.1,.3,.3,.3c.2,.1,.5,.2,.7,.3,.3,.2,.6,.4,.6,.8,0,.6-.5,1-1.2,1-.7,.2-1.2,0-1.5-.5h0Z"/><path d="M630.3,178.2h.7v1.3h1.4v-1.3h.7v3.4h-.7v-1.4h-1.4v1.4h-.7v-3.4Z"/><path d="M633.6,179.8c0-1,.8-1.8,1.8-1.8s1.8,.8,1.8,1.7c0,1-.8,1.7-1.8,1.7-1.1,.2-1.8-.6-1.8-1.6h0Zm2.8,0c0-.6-.5-1.1-1.1-1.1s-1.1,.5-1.1,1.1,.5,1.1,1.1,1.1,1.1-.4,1.1-1.1Z"/><path d="M640.1,179.3c0,.6-.4,1.1-1.2,1.1h-.5v1.2h-.7v-3.4h1.2c.8,0,1.2,.5,1.2,1.1h0Zm-.7,0c0-.3-.2-.5-.5-.5h-.6v1h.5c.4-.1,.6-.3,.6-.5Z"/></g><g><path d="M596.2,200.3c0,.7-.4,1.2-1.4,1.2h-.6v1.3h-.8v-3.8h1.4c1,.1,1.4,.7,1.4,1.3h0Zm-.8,0c0-.3-.2-.5-.6-.5h-.7v1.1h.6c.5,0,.7-.3,.7-.6Z"/><path d="M596.5,201c0-1.1,.9-2,2-2s2,.9,2,2-.9,2-2,2-2-.9-2-2Zm3.2,0c0-.7-.5-1.2-1.2-1.2s-1.2,.5-1.2,1.2,.5,1.2,1.2,1.2,1.2-.5,1.2-1.2Z"/><path d="M601.1,199.1h.8v3.1h1.9v.7h-2.7v-3.8Z"/><path d="M605.1,199.1v3.8h-.8v-3.8h.8Z"/><path d="M605.6,199.8v-.7h3v.7h-1.1v3.1h-.8v-3.1h-1.1Z"/><path d="M609.9,199.1v3.8h-.8v-3.8h.8Z"/><path d="M612.8,202.1h-1.3l-.3,.8h-.8l1.5-3.8h.6l1.4,3.8h-.8l-.3-.8h0Zm-1.2-.7h.9l-.4-1.3-.5,1.3Z"/><path d="M616.7,201.5h-.5v1.4h-.7v-3.8h1.5c.9,0,1.3,.6,1.3,1.2,0,.5-.2,.9-.8,1.1l.9,1.5h-.9l-.8-1.4Zm-.4-.7h.6c.4,0,.6-.3,.6-.5,0-.3-.2-.5-.5-.5h-.7v1h0Z"/><path d="M618.9,201.5v-2.4h.8v2.4c0,.5,.3,.8,.7,.8s.7-.3,.7-.8v-2.4h.8v2.4c0,1-.7,1.5-1.5,1.5s-1.5-.5-1.5-1.5Z"/><path d="M622.4,199.8v-.7h3v.7h-1.1v3.1h-.8v-3.1h-1.1Z"/><path d="M626.6,199.1v3.8h-.8v-3.8h.8Z"/><path d="M627.5,199.1h2.6v.7h-1.8v.8h1.7v.7h-1.7v.9h1.8v.7h-2.6v-3.8h0Z"/><path d="M632,201.5h-.5v1.4h-.8v-3.8h1.5c.9,0,1.3,.6,1.3,1.2,0,.5-.2,.9-.8,1.1l.9,1.5h-.9l-.7-1.4Zm-.4-.7h.6c.4,0,.6-.3,.6-.5,0-.3-.2-.5-.5-.5h-.7v1h0Z"/><path d="M636.3,202.1h-1.3l-.3,.8h-.8l1.5-3.8h.6l1.4,3.8h-.8l-.3-.8h0Zm-1.1-.7h.9l-.4-1.3-.5,1.3Z"/></g><g><path d="M616.1,218.5l-1.8,4.4h-.8l-1.8-4.4h1l1.2,3.1,1.2-3.1h1Z"/><path d="M617.5,218.5v4.4h-.9v-4.4h.9Z"/><path d="M618.1,219.3v-.9h3.4v.9h-1.3v3.6h-.9v-3.6h-1.2Z"/><path d="M624,222h-1.5l-.3,1h-.9l1.7-4.4h.7l1.7,4.4h-.9l-.5-1Zm-1.3-.8h1l-.5-1.5-.5,1.5Z"/><path d="M625.8,218.5h.6l1.7,2.5,1.7-2.5h.6v4.4h-.9v-2.5l-1.3,1.9h-.3l-1.3-1.9v2.5h-.9l.1-4.4h0Z"/><path d="M632.4,218.5v4.4h-.9v-4.4h.9Z"/><path d="M634.3,220.7l-1.3-2.2h1l.9,1.5,.9-1.5h1l-1.4,2.2,1.4,2.2h-1l-.9-1.6-.9,1.6h-1l1.3-2.2Z"/></g><g><path d="M615.6,481.7v-.7h2.7v.7h-1v2.8h-.7v-2.8h-1Z"/><path d="M620.2,483.7h-1.2l-.3,.7h-.7l1.3-3.4h.6l1.3,3.4h-.7l-.3-.7h0Zm-1-.6h.8l-.4-1.1-.4,1.1h0Z"/><path d="M624.3,483.5c0,.5-.4,1-1.1,1h-1.6v-3.4h1.5c.7,0,1,.4,1,.9,0,.3-.2,.6-.5,.7,.4,0,.7,.4,.7,.8h0Zm-2-1.9v.7h.7c.3,0,.4-.2,.4-.4s-.1-.4-.4-.4l-.7,.1h0Zm1.2,1.8c0-.2-.2-.5-.5-.5h-.8v.9h.8c.4,.1,.5-.2,.5-.4Z"/><path d="M626.5,483.7h-1.2l-.3,.7h-.7l1.3-3.4h.6l1.3,3.4h-.7l-.3-.7h0Zm-1-.6h.8l-.4-1.1-.4,1.1h0Z"/><path d="M627.6,482.8c0-1.1,.8-1.8,1.8-1.8,.6,0,1.2,.3,1.5,.7l-.5,.5c-.2-.3-.6-.5-1-.5-.6,0-1.1,.5-1.1,1.1s.5,1.1,1.1,1.1c.4,0,.8-.2,1-.5l.5,.4c-.3,.4-.9,.7-1.5,.7-1,0-1.8-.7-1.8-1.7h0Z"/></g><g><path d="M615.8,487.3l-1-1.7h.8l.7,1.2,.7-1.2h.8l-1.1,1.7,1.1,1.7h-.8l-.7-1.2-.7,1.2h-.8l1-1.7Z"/><path d="M620.6,486.8c0,.6-.4,1.1-1.3,1.1h-.5v1.2h-.7v-3.4h1.3c.8-.1,1.2,.5,1.2,1.1h0Zm-.7,0c0-.3-.2-.5-.5-.5h-.6v1h.6c.3,0,.5-.3,.5-.5Z"/><path d="M622.2,487.8h-.4v1.2h-.7v-3.4h1.3c.8,0,1.2,.5,1.2,1.1,0,.4-.2,.8-.7,1l.8,1.3h-.8l-.7-1.2h0Zm-.4-.6h.6c.4,0,.5-.2,.5-.5,0-.2-.2-.5-.5-.5h-.6v1Z"/><path d="M624.2,485.6h2.3v.6h-1.6v.7h1.5v.6h-1.5v.8h1.6v.6h-2.3v-3.3h0Z"/><path d="M626.9,488.5l.4-.5c.2,.3,.6,.5,.9,.5s.5-.2,.5-.4-.1-.3-.3-.4-.5-.2-.7-.3c-.3-.2-.5-.4-.5-.9,0-.6,.5-1,1.2-1,.4,0,.8,.1,1.1,.5l-.4,.5c-.2-.2-.5-.3-.8-.3s-.4,.1-.4,.3,.1,.3,.3,.3c.2,.1,.5,.2,.8,.3,.3,.2,.6,.4,.6,.9,0,.6-.5,1-1.3,1-.7,.1-1.1-.1-1.4-.5h0Z"/><path d="M629.7,488.5l.4-.5c.2,.3,.6,.5,.9,.5s.5-.2,.5-.4-.1-.3-.3-.4-.5-.2-.7-.3c-.3-.2-.5-.4-.5-.9,0-.6,.5-1,1.2-1,.4,0,.8,.1,1.1,.5l-.4,.5c-.2-.2-.5-.3-.8-.3s-.4,.1-.4,.3,.1,.3,.3,.3c.2,.1,.5,.2,.8,.3,.3,.2,.6,.4,.6,.9,0,.6-.5,1-1.3,1-.7,.1-1.1-.1-1.4-.5h0Z"/></g><g><path d="M609,501.7h-.6l-.1,.4h-.4l.6-1.7h.3l.6,1.7h-.4v-.4h0Zm-.5-.3h.4l-.2-.6-.2,.6Z"/><path d="M611.1,500.4l-.7,1.7h-.3l-.7-1.7h.4l.4,1.2,.4-1.2h.5Z"/><path d="M612,501.7h-.6l-.1,.4h-.4l.6-1.7h.3l.6,1.7h-.4v-.4h0Zm-.5-.3h.4l-.2-.6-.2,.6Z"/><path d="M614.1,500.4v1.7h-.2l-.9-1v1h-.3v-1.7h.2l.9,1v-1h.3Z"/><path d="M614.4,501.3c0-.5,.4-.9,.9-.9,.3,0,.5,.1,.7,.3l-.2,.2c-.1-.1-.3-.2-.5-.2-.3,0-.5,.2-.5,.5s.2,.5,.5,.5c.2,0,.3-.1,.5-.2v-.1h-.5v-.3h.8v.7c-.2,.2-.5,.3-.8,.3-.5,0-.9-.3-.9-.8Z"/><path d="M617.2,501.7h-.6l-.1,.4h-.4l.6-1.7h.3l.6,1.7h-.4v-.4h0Zm-.5-.3h.4l-.2-.6-.2,.6Z"/><path d="M618.5,501.5h-.2v.6h-.3v-1.7h.6c.4,0,.6,.3,.6,.5s-.1,.4-.3,.5l.4,.7h-.4l-.4-.6h0Zm-.2-.3h.3c.2,0,.3-.1,.3-.2s-.1-.2-.2-.2h-.3l-.1,.4h0Z"/><path d="M619.5,500.4h.7c.5,0,.8,.3,.8,.8s-.3,.8-.8,.8h-.7v-1.6h0Zm.6,1.4c.3,0,.5-.2,.5-.5s-.2-.5-.5-.5h-.3v1h.3Z"/></g><g><path d="M601.2,360.7c0-1.8,1.4-3.1,3.1-3.1,1.1,0,2,.5,2.5,1.2l-.8,.8c-.4-.5-1-.9-1.7-.9-1.1,0-1.9,.8-1.9,1.9s.8,1.9,1.9,1.9c.7,0,1.3-.3,1.7-.9l.8,.7c-.5,.7-1.5,1.3-2.6,1.3-1.7,.1-3-1.1-3-2.9Z"/><path d="M610.6,362.3h-2.1l-.5,1.3h-1.2l2.3-5.9h1l2.2,5.9h-1.2l-.5-1.3Zm-1.7-1h1.4l-.7-2-.7,2Z"/><path d="M613.1,357.7h2.3c1.8,0,2.8,1.1,2.8,3,0,1.8-1.1,2.9-2.9,2.9h-2.3l.1-5.9h0Zm2.3,4.8c1.1,0,1.6-.8,1.6-1.8s-.5-1.8-1.6-1.8h-1.1v3.6h1.1Z"/><path d="M618.9,360.7c0-1.7,1.4-3.1,3.1-3.1s3.1,1.4,3.1,3.1-1.3,3-3.1,3-3.1-1.3-3.1-3Zm4.9-.1c0-1.1-.8-1.9-1.8-1.9s-1.8,.8-1.8,1.9,.8,1.9,1.8,1.9,1.8-.8,1.8-1.9Z"/><path d="M627.9,361.4h-.7v2.2h-1.2v-5.9h2.3c1.4,0,2,.9,2,1.9,0,.7-.4,1.4-1.2,1.7l1.4,2.3h-1.4l-1.2-2.2h0Zm-.7-1h1c.7,0,.9-.4,.9-.8s-.3-.8-.8-.8h-1.1v1.6h0Z"/></g><g><path d="M605.6,315.5v5.9h-.8l-3.1-3.6v3.6h-1.2v-5.9h.8l3.1,3.7v-3.7h1.2Z"/><path d="M606.6,318.5c0-1.7,1.4-3.1,3.1-3.1s3.1,1.4,3.1,3.1-1.3,3-3.1,3-3.1-1.3-3.1-3Zm4.9,0c0-1.1-.8-1.9-1.8-1.9s-1.8,.8-1.8,1.9,.8,1.9,1.8,1.9,1.8-.8,1.8-1.9Z"/><path d="M615.6,319.3h-.7v2.2h-1.2v-5.9h2.3c1.4,0,2,.9,2,1.9,0,.7-.4,1.4-1.2,1.7l1.4,2.3h-1.4l-1.2-2.2h0Zm-.7-1.1h1c.7,0,.9-.4,.9-.8s-.3-.8-.8-.8h-1.1v1.6h0Z"/><path d="M620.3,315.5v5.9h-1.2v-5.9h1.2Z"/><path d="M621.6,315.5h4v1.1h-2.8v1.3h2.6v1.1h-2.6v1.3h2.8v1.1h-4v-5.9Z"/><path d="M626.7,315.5h1.2v4.8h3v1.1h-4.2v-5.9Z"/></g><g><path d="M610.5,266.8v-9.9h1.1v9.9h-1.1Z"/><polygon points="620.8 257 620.8 263.3 619.1 257 617.8 257 617.8 266.8 619 266.9 619 260.5 620.7 266.8 622 266.8 622 257 620.8 257"/><polygon points="604.2 257 604.2 261.3 602.8 261.3 602.8 257 601.6 257 601.6 266.8 602.8 266.8 602.8 262.5 604.2 262.5 604.2 266.8 605.3 266.8 605.3 257 604.2 257"/><path d="M613.7,258.9v.5c.1-.2,.4-.6,1.1-.6,1,0,1.1,.8,1.1,1.3v5.2c0,.7-.2,1.5-1.1,1.5-.5,0-.8-.2-1-.6v2.5h-1.3v-9.9h1.2v.1Zm1,1.7c0-.4,0-.7-.5-.7-.6,0-.6,.6-.6,.9v4.5c0,.2,0,.7,.5,.7s.5-.4,.5-.7l.1-4.7h0Z"/><path d="M626.6,259.9v-.9h.7v-2h1.1v2h.6v.9h-.5v5.6c0,.4,.2,.5,.5,.5h.2v.9c-.2,0-.3,.1-.6,.1-1,0-1.2-.3-1.2-1.2v-5.9h-.8Z"/><path d="M609.6,265.1c0,1.2-.5,1.9-1.7,1.9-.9,0-1.6-.3-1.6-1.7v-4.9c0-.8,.5-1.6,1.7-1.6,1,0,1.7,.5,1.7,1.7v2.8h-2.2v2.1c0,.2,0,.6,.5,.6,.6,0,.6-.5,.6-.7v-1.1h1.1l-.1,.9h0Zm-1.2-4.7c0-.4,0-.7-.5-.7s-.6,.4-.6,.8v1.9h1.1v-2h0Z"/><path d="M626.2,265.1c0,1.2-.5,1.9-1.7,1.9-.9,0-1.6-.3-1.6-1.7v-4.9c0-.8,.5-1.6,1.7-1.6,1,0,1.7,.5,1.7,1.7v2.8h-2.2v2.1c0,.2,0,.6,.5,.6,.6,0,.6-.5,.6-.7v-1.1h1.1l-.1,.9h0Zm-1.1-4.7c0-.4,0-.7-.5-.7s-.6,.4-.6,.8v1.9h1.1v-2h0Z"/></g><g><g><path d="M629.7,276.6h.5v5.1h-.5v-.6c-.2,.3-.6,.5-1,.7-.5,.1-1,.1-1.5-.2-.5-.3-.9-.8-1-1.4-.1-.4,0-.9,.2-1.3,.3-.4,.7-.8,1.2-.9,.4-.1,.8-.1,1.2,.1,.3,.1,.6,.4,.8,.6,.1-.7,.1-1.4,.1-2.1h0Zm-1.7,1.8c-.1,0-.2,.1-.4,.1-.5,.2-.9,.8-.9,1.4,0,.3,.1,.7,.3,.9,.2,.3,.5,.5,.9,.5,.6,.1,1.2-.1,1.5-.6,.2-.4,.3-.8,.2-1.2-.1-.4-.3-.7-.7-.9-.2-.2-.5-.3-.9-.2h0Z"/><path d="M609,276.7c.3-.1,.6,.1,.6,.4s-.2,.5-.5,.5-.5-.2-.5-.5c-.1-.2,.1-.4,.4-.4Z"/><path d="M631.9,276.7h.3c.1,.1,.2,.2,.2,.3s0,.3-.1,.3c-.1,.1-.3,.1-.4,.1-.1-.1-.2-.2-.2-.4-.1-.1,.1-.2,.2-.3Z"/><path d="M612.2,278c.3-.1,.7-.1,1,0s.5,.3,.7,.6c.1,.3,.1,.6,.1,.9v2.2h-.9v-2.4c0-.2-.1-.3-.2-.4-.2-.1-.4-.1-.5-.1-.2,0-.4,.2-.5,.4-.1,.1-.1,.3-.1,.5v2.1h-.9v-3.7h.9v.4c0-.3,.2-.4,.4-.5Z"/><path d="M616.2,278.1c.3-.2,.7-.2,1-.1,.2,.1,.5,.2,.6,.4,.1,.1,.2,.3,.2,.4,.2-.3,.4-.5,.6-.7,.3-.2,.7-.2,1-.2,.3,.1,.6,.3,.7,.5,.2,.3,.2,.7,.2,1.1v2.2h-.5v-2.7c0-.2-.1-.3-.2-.5-.2-.2-.4-.2-.7-.2-.4,0-.7,.3-.9,.6-.1,.2-.1,.5-.2,.7v2h-.5v-2.5c0-.2,0-.3-.1-.5s-.3-.4-.6-.4-.6,.1-.8,.2c-.2,.2-.4,.4-.4,.7-.1,.5-.1,.9-.1,1.4v1h-.5v-3.7h.5v.6c.3,0,.5-.2,.7-.3Z"/><path d="M622.7,278.1c.4-.2,.8-.2,1.1-.2s.7,.2,.9,.4c.2,.2,.4,.5,.6,.8,.1,.3,.1,.5,.2,.8h-3.3c0,.3,.1,.6,.3,.9s.4,.5,.8,.5c.4,.1,.9,0,1.2-.2,.2-.2,.4-.4,.6-.6,.1,.1,.3,.1,.4,.2-.1,.3-.3,.6-.6,.8-.3,.2-.6,.3-.9,.3-.4,0-.8,0-1.2-.2-.3-.2-.5-.4-.7-.7-.4-.6-.4-1.4,0-2.1,.1-.3,.3-.5,.6-.7h0Zm.1,.5c-.3,.2-.4,.5-.5,.8h2.8c-.1-.2-.2-.5-.3-.7-.6-.4-1.5-.5-2-.1h0Z"/><path d="M608.1,278.8v-.7h1.4v3.6h-.9v-2.9h-.5Z"/><path d="M631.2,278.1h1.1v3.6h-.6v-3.1h-.5v-.5Z"/></g><path d="M635.1,277.9c.4-.1,.7,0,1.1,.1,.3,.1,.6,.4,.7,.7,.2,.4,.3,.9,.2,1.4-.1,.6-.5,1.1-1,1.4-.4,.2-.9,.3-1.4,.3-.3,0-.7-.2-.9-.4-.3-.3-.4-.6-.5-1s0-.8,.1-1.2c.1-.3,.4-.6,.6-.8,.4-.3,.7-.4,1.1-.5h0Zm-.1,.9c-.2,0-.4,.2-.5,.3-.2,.2-.3,.5-.3,.8,0,.2,0,.4,.1,.6s.2,.3,.4,.4,.4,.1,.6,0c.2,0,.4-.1,.6-.3,.2-.2,.3-.5,.4-.8,0-.2,0-.4-.1-.6s-.3-.4-.5-.4h-.7Z"/></g><g><path d="M625.1,500.4c0-.6,.5-1.1,1.1-1.1,.4,0,.7,.2,.9,.4l-.3,.3c-.1-.2-.3-.3-.6-.3-.4,0-.7,.3-.7,.7s.3,.7,.7,.7c.2,0,.5-.1,.6-.3l.3,.3c-.2,.2-.5,.4-.9,.4-.7-.1-1.1-.5-1.1-1.1Z"/><path d="M628.4,500.9h-.7l-.2,.5h-.4l.8-2.1h.3l.8,2.1h-.5l-.1-.5h0Zm-.6-.3h.5l-.2-.7-.3,.7Z"/><path d="M629.2,499.3h.3l.8,1.2,.8-1.2h.3v2.1h-.4v-1.2l-.6,.9h-.1l-.6-.9v1.2h-.4l-.1-2.1h0Z"/><path d="M631.8,499.3h1.4v.4h-1v.4h.9v.4h-.9v.5h1v.4h-1.4v-2.1h0Z"/><path d="M633.6,499.3h.4v1.7h1v.4h-1.5l.1-2.1h0Z"/><path d="M635.8,499.3v2.1h-.4v-2.1h.4Z"/><path d="M637.3,500.9h-.7l-.1,.5h-.4l.8-2.1h.3l.8,2.1h-.5l-.2-.5h0Zm-.6-.3h.5l-.2-.7-.3,.7Z"/></g><g><path d="M625.5,503.2c0-.6,.5-1.1,1.1-1.1,.3,0,.7,.1,.8,.3l-.3,.3c-.1-.1-.3-.2-.6-.2-.4,0-.7,.3-.7,.7s.3,.7,.7,.7c.2,0,.4-.1,.6-.2v-.3h-.6v-.4h.9v.8c-.3,.3-.6,.4-.9,.4-.6,0-1-.4-1-1h0Z"/><path d="M628.9,503.7h-.7l-.2,.4h-.4l.8-2.1h.3l.8,2.1h-.4l-.2-.4h0Zm-.6-.3h.5l-.2-.7-.3,.7Z"/><path d="M630.4,503.4h-.2v.8h-.4v-2.1h.8c.5,0,.7,.3,.7,.7,0,.2-.1,.5-.4,.6l.5,.8h-.5l-.5-.8h0Zm-.3-.3h.3c.2,0,.3-.1,.3-.3,0-.1-.1-.3-.3-.3h-.4l.1,.6h0Z"/><path d="M631.6,502.1h.8c.6,0,1,.4,1,1s-.4,1-1,1h-.8v-2Zm.8,1.7c.4,0,.6-.3,.6-.6s-.2-.6-.6-.6h-.4v1.3l.4-.1h0Z"/><path d="M633.8,502.1h1.4v.4h-1v.4h.9v.4h-.9v.5h1v.4h-1.4v-2.1h0Z"/><path d="M637.3,502.1v2.1h-.3l-1.1-1.3v1.3h-.4v-2.1h.3l1.1,1.3v-1.3h.4Z"/></g><g><path d="M545.3,119.7l.3-.6c.2,.2,.5,.3,.7,.3,.4,0,.7-.3,.7-.7v-2.2h.7v2.2c0,1-.6,1.4-1.3,1.4-.4,.1-.8-.1-1.1-.4h0Z"/><path d="M550.3,119.4h-1.2l-.3,.8h-.7l1.4-3.6h.6l1.3,3.6h-.9l-.2-.8h0Zm-1.1-.7h.8l-.4-1.2-.4,1.2h0Z"/><path d="M551.4,118.4c0-1.1,.8-1.9,1.8-1.9,.7,0,1.2,.3,1.5,.7l-.5,.5c-.2-.3-.6-.5-1-.5-.6,0-1.1,.5-1.1,1.2s.5,1.1,1.1,1.1c.4,0,.8-.2,1-.5l.5,.4c-.3,.4-.9,.8-1.6,.8-.9,0-1.7-.8-1.7-1.8Z"/><path d="M556.4,118.7l-.4,.5v.9h-.7v-3.6h.7v1.7l1.3-1.7h.9l-1.3,1.6,1.4,1.9h-.9l-1-1.3Z"/></g><g><path d="M543.1,124c0-1.1,.8-1.8,1.9-1.8,.6,0,1.1,.2,1.4,.6l-.5,.5c-.2-.2-.6-.4-1-.4-.7,0-1.1,.5-1.1,1.1s.5,1.1,1.1,1.1c.4,0,.7-.2,1-.4v-.5h-1v-.6h1.6v1.5c-.4,.5-1,.7-1.6,.7-1,0-1.8-.8-1.8-1.8h0Z"/><path d="M549,125h-1.2l-.3,.8h-.7l1.4-3.6h.6l1.3,3.6h-.8l-.3-.8Zm-1-.7h.8l-.4-1.2-.4,1.2h0Z"/><path d="M550.5,122.2h.5l1.4,2,1.4-2h.5v3.6h-.8v-2l-1,1.5h-.2l-1-1.5v2h-.8v-3.6h0Z"/><path d="M555,122.2h2.4v.7h-1.7v.8h1.6v.7h-1.6v.8h1.7v.7h-2.4v-3.7Z"/><path d="M557.8,125.1l.4-.5c.2,.3,.6,.5,.9,.5s.5-.2,.5-.4-.1-.3-.3-.4-.5-.2-.8-.3c-.3-.2-.6-.4-.6-.9,0-.6,.5-1,1.2-1,.4,0,.8,.1,1.2,.5l-.4,.5c-.2-.2-.5-.3-.8-.3s-.5,.1-.5,.3,.1,.3,.3,.4,.5,.2,.8,.3c.3,.2,.6,.4,.6,.9,0,.6-.5,1.1-1.3,1.1-.4,0-.9-.2-1.2-.7h0Z"/></g><g><path d="M565.8,126.4c.6,0,1.2,.4,1.2,1.3v.5h1.2v.7h-3.6v-1.3c0-.9,.6-1.2,1.2-1.2h0Zm0,.7c-.3,0-.5,.2-.5,.5v.6h1v-.6c0-.4-.3-.5-.5-.5Z"/><path d="M566.4,126.1c-1,0-1.9-.8-1.9-1.9s.8-1.9,1.8-1.9,1.8,.8,1.8,1.9c.1,1.1-.7,1.9-1.7,1.9h0Zm0-3c-.7,0-1.1,.5-1.1,1.1s.5,1.1,1.1,1.1,1.1-.5,1.1-1.1-.5-1.1-1.1-1.1Z"/><path d="M564.6,121.8v-.7h2.9v-1.8h.7v2.5h-3.6Z"/><path d="M564.6,118.1h3.6v.7h-3.6v-.7Z"/><path d="M565.3,117.6h-.7v-2.7h.7v1h2.9v.7h-2.9v1Z"/><path d="M564.6,113.7h3.6v.7h-3.6v-.7Z"/><path d="M567.4,111v1.2l.8,.3v.7l-3.6-1.4v-.6l3.6-1.3v.7l-.8,.4Zm-.7,1v-.8l-1.2,.4,1.2,.4Z"/></g><g><path d="M572.5,128.5v.4h1.3v.7h-3.6v-1.4c0-.8,.5-1.2,1.1-1.2,.4,0,.9,.2,1,.7l1.4-.9v.8l-1.2,.9Zm-.7,.4v-.6c0-.4-.2-.6-.5-.6s-.5,.2-.5,.5v.6h1v.1Z"/><path d="M572.5,126.4h-2.3v-.7h2.2c.5,0,.7-.3,.7-.7s-.2-.7-.7-.7h-2.2v-.7h2.3c.9,0,1.4,.6,1.4,1.4-.1,.8-.5,1.4-1.4,1.4h0Z"/><path d="M570.9,123.2h-.7v-2.7h.7v1h2.9v.7h-2.9v1Z"/><path d="M570.2,119.3h3.6v.7h-3.6v-.7Z"/><path d="M570.2,118.5v-2.4h.7v1.7h.8v-1.6h.7v1.6h.8v-1.7h.7v2.4h-3.7Z"/><path d="M572.5,114.3v.4h1.3v.7h-3.6v-1.4c0-.8,.5-1.2,1.1-1.2,.4,0,.9,.2,1,.7l1.4-.9v.8l-1.2,.9Zm-.7,.4v-.6c0-.4-.2-.6-.5-.6s-.5,.2-.5,.5v.6l1,.1h0Z"/><path d="M573,110.3v1.2l.8,.3v.7l-3.6-1.4v-.6l3.6-1.3v.7l-.8,.4Zm-.7,1v-.8l-1.2,.4,1.2,.4Z"/></g><g><path d="M599.3,21.2h-.7l-.1,.6c.3,0,.8,.3,.4,.6l-3.7,2.8,.8-2.8c.2-.6,.8-.6,.8-.6l.1-.6h-4.4l-.1,.6c.2,0,.8,.2,.6,1-1.5,5.3-1.3,4.8-1.4,5.1-.4,1.5-1,1.5-1.3,1.5l-.1,.6h4.6l.2-.6s-.7-.1-.6-.7c.1-.5,.7-2.6,.7-2.6,2,3.3,2.5,3.8,4.3,3.9h2.3l.2-.6c-.6,0-1-.4-1.2-.7-.1-.1-.7-1.1-1.3-1.9-.5-.8-1-1.5-1-1.5l1-.8,2.7-2.2c.6-.5,1.1-.5,1.1-.5l.1-.6h-4Z"/><path d="M617.9,21.1c-.5,0-1,0-1.4,.1-3.7,.4-5.9,2.7-5.9,5.1,0,1.9,1.6,3.8,5.2,3.8h.7c.9,0,1.7-.2,2.4-.3l.4-1.8c-.7,.2-1.6,.4-2.3,.4h-.5c-1.7-.2-2.8-1.2-2.8-2.6s1-2.6,2.8-2.8c.3-.1,.6-.1,.9-.1,1.1,0,1.7,.4,2.1,.9h.3l.6-2.1c-.6-.4-1.6-.6-2.5-.6Z"/><path d="M608.2,21.2h-4.3l-.1,.6s.9,.1,.6,1l-2,7.1h3.9l.1-.6s-.7-.2-.5-.9c0-.1,.6-2.1,.6-2.1h1.8c.9,0,1.2,.5,1.2,.5l.5-2.1h-3l.5-1.7h2.6c.5,0,.8,.3,.8,.6h.3l.6-2.3h-3.6v-.1h0Z"/></g><path class="cls-5" d="M802.1,522.9c0-.9-.7-1.6-1.6-1.6h-10.8c-.9,0-1.6,.7-1.6,1.6v10.8c0,.9,.7,1.6,1.6,1.6h10.8c.9,0,1.6-.7,1.6-1.6v-10.8Zm-3.9,.4c.5,0,.8,.4,.8,.8,0,.5-.4,.8-.8,.8-.5,0-.8-.4-.8-.8s.3-.8,.8-.8Zm-6.4,0c.5,0,.8,.4,.8,.8,0,.5-.4,.8-.8,.8-.5,0-.8-.4-.8-.8s.4-.8,.8-.8Zm1.7,2.4l-.2,2.8c0,.2-.1,.3-.3,.4h0c-.2,.1-.3,.2-.3,.4l-.2,3.6c0,.2-.2,.4-.5,.4h-.4c-.2,0-.4-.2-.5-.4l-.2-3.6c0-.2-.1-.3-.3-.4-.2-.1-.3-.2-.3-.4l-.2-2.8c0-.2,.1-.4,.4-.5h.2c.2,0,.3,0,.4,.1l.3,.3c.2,.2,.5,.2,.6,0l.3-.3c.1-.1,.3-.2,.4-.1h.2c.4,0,.6,.2,.6,.5Zm1.7,7.5c0,.1-.1,.2-.2,.2s-.2-.1-.2-.2v-9.9c0-.1,.1-.2,.2-.2s.2,.1,.2,.2v9.9Zm4.6-4.4c-.2,0-.3,.2-.2,.3l.1,.7c0,.2-.1,.3-.3,.3h-.2c-.1,0-.3,.1-.3,.3l-.1,2.3c0,.2-.2,.4-.5,.4h-.4c-.2,0-.4-.2-.5-.4l-.1-2.3c0-.1-.1-.3-.3-.3h-.2c-.2,0-.3-.2-.3-.3l.1-.7c0-.2-.1-.3-.2-.3-.2,0-.3-.2-.2-.4l.6-2.9c0-.2,.3-.3,.5-.2l.6,.4c.1,.1,.2,.1,.3,0l.6-.4c.2-.1,.4,0,.5,.2l.6,2.9c.1,.2,0,.4-.1,.4h0Z"/><path class="cls-5" d="M489.3,25.8c0-.9-.7-1.6-1.6-1.6h-10.8c-.9,0-1.6,.7-1.6,1.6v10.8c0,.9,.7,1.6,1.6,1.6h10.8c.9,0,1.6-.7,1.6-1.6v-10.8Zm-4,.4c.5,0,.8,.4,.8,.8,0,.5-.4,.8-.8,.8-.5,0-.8-.4-.8-.8s.3-.8,.8-.8Zm-6.4,0c.5,0,.8,.4,.8,.8,0,.5-.4,.8-.8,.8-.5,0-.8-.4-.8-.8s.4-.8,.8-.8Zm1.7,2.4l-.2,2.8c0,.2-.1,.3-.3,.4h0c-.2,.1-.3,.2-.3,.4l-.2,3.6c0,.2-.2,.4-.5,.4h-.4c-.2,0-.4-.2-.5-.4l-.2-3.6c0-.2-.1-.3-.3-.4-.2-.1-.3-.2-.3-.4l-.2-2.8c0-.2,.1-.4,.4-.5h.2c.2,0,.3,0,.4,.1l.3,.3c.2,.2,.5,.2,.6,0l.3-.3c.1-.1,.3-.2,.4-.1h.2c.4,0,.6,.3,.6,.5Zm1.7,7.5c0,.1-.1,.2-.2,.2s-.2-.1-.2-.2v-9.9c0-.1,.1-.2,.2-.2s.2,.1,.2,.2v9.9Zm4.6-4.4c-.2,0-.3,.2-.2,.3l.1,.7c0,.2-.1,.3-.3,.3h-.2c-.1,0-.3,.1-.3,.3l-.1,2.3c0,.2-.2,.4-.5,.4h-.4c-.2,0-.4-.2-.5-.4v-2.2c0-.1-.1-.3-.3-.3h-.2c-.2,0-.3-.2-.3-.3l.1-.7c0-.2-.1-.3-.2-.3-.2,0-.3-.2-.2-.4l.6-2.9c0-.2,.3-.3,.5-.2l.6,.4c.1,.1,.2,.1,.3,0l.6-.4c.2-.1,.4,0,.5,.2l.6,2.9c.1,.1,0,.3-.2,.3Z"/><g><polygon class="cls-5" points="527.6 188.6 523.1 191.2 523 188.1 527.5 185.5 532.1 188 532.1 191 527.6 188.6"/><polygon class="cls-5" points="527.6 192.8 523.1 195.4 523.1 192.4 527.6 189.7 532.2 192.2 532.2 195.3 527.6 192.8"/><polygon class="cls-5" points="527.7 197 523.2 199.7 523.2 196.6 527.7 193.9 532.2 196.4 532.3 199.5 527.7 197"/></g><g><polygon class="cls-5" points="563.2 521.2 560.5 516.7 563.6 516.6 566.3 521.1 563.8 525.7 560.7 525.8 563.2 521.2"/><polygon class="cls-5" points="559 521.3 556.3 516.8 559.4 516.7 562 521.2 559.6 525.8 556.5 525.8 559 521.3"/><polygon class="cls-5" points="554.7 521.3 552.1 516.8 555.2 516.8 557.8 521.3 555.4 525.9 552.3 525.9 554.7 521.3"/></g><g><polygon class="cls-5" points="643 594.6 638 593.3 640.1 591.1 645.2 592.4 646.7 597.4 644.5 599.6 643 594.6"/><polygon class="cls-5" points="640.1 597.7 635.1 596.4 637.2 594.1 642.2 595.4 643.7 600.4 641.6 602.7 640.1 597.7"/><polygon class="cls-5" points="637.2 600.7 632.1 599.4 634.3 597.2 639.3 598.5 640.8 603.5 638.7 605.7 637.2 600.7"/></g><path class="cls-5" d="M568.1,48.2c-.3,0-1.5,.3-2.6,.6-8.2,2.1-14.8,8.7-17.1,17.1-.7,2.5-1,7.5-.5,10.2,1.2,7.4,5.9,14,12.5,17.6,2.7,1.5,7.7,3,7.7,2.4s-2.7-14.6-2.9-15.2c-.1-.3-1.2-1.5-2.4-2.6-2.5-2.3-3.1-3.2-3.6-5.3-.4-1.7-2.3-13.6-2.3-14.3,0-.6,.7-1,1.1-.6,.1,.1,.9,3.2,1.7,6.9,1.4,6.2,1.5,6.7,2,6.7,.3,0,.5-.1,.6-.2,.1-.2-.6-3.3-1.4-7-.8-3.7-1.5-6.8-1.4-6.9,0-.1,.4-.2,.7-.2h.6l1.5,6.9c1.6,7,1.7,7.3,2.5,6.8,.3-.2,.1-1.2-1.2-6.9-.8-3.7-1.5-6.9-1.4-7.1,.1-.2,.4-.3,.6-.3,.5,0,.6,.2,1.5,4.2,2.2,10.1,2.1,9.5,2.6,9.6,.3,0,.5-.1,.6-.2,.1-.2-.6-3.3-1.4-7-1.4-6.1-1.5-6.7-1.2-7,.8-.6,1-.3,3.2,7.3,2,7,2.2,7.6,2.1,9.1-.1,1.4-.2,2-1.1,4-.7,1.6-1,2.6-1,3.3,0,1.2,4.1,15.5,4.3,14.9,.1-.2,.6-2.5,1.1-5.1l1-4.8-.4-1.1c-.4-1.2-.4-2.3,.3-8.4,.4-4.2,1.1-7.7,2.5-12.2,1.5-4.8,2.9-7.8,4.7-9.6,2.3-2.3,3.6-2.1,3.6,.5,0,1.8-5.4,29.8-6,30.9-.3,.5-.7,2.5-1.2,5.3-.4,2.4-.8,4.7-.9,5l-.1,.6,1.2-.3c4.7-1.3,8.2-3.5,11.4-6.9,4.4-4.6,6.6-10.1,6.6-16.5,0-6.8-2.4-12.8-7.2-17.5-3.4-3.3-7.9-5.7-12.6-6.6-1.3-.3-6.9-.4-8.3-.1h0Z"/><g><path d="M628.5,241.2c-.1-1.2,.2-5.9,0-7.3-.1-.8-.6-1.2-1.3-1.5-.1,0-.2-.1-.3-.1-.2-.1-.4-.3-.6-.2h-.6c-.2,0-.3-.1-.5-.1-.2-.1-.4-.1-.5,0-.6,.2-1,.6-1.2,1.1-.1,.3-.2,.7-.3,1,0,.2-.1,.4-.1,.6,0,.1-.1,.5,0,.6,.8,1,1.7,.5,1.7,.2,0-4,2.2-2.8,2.2-1.1v2.4c-4.9-1-5.4,3.3-2.9,3.5h2.9c.2,.2,0,.5-.3,.8s1.3,.2,1.8,.1h0Zm-3.6-1.9c-.2-.1-1.7-.3,.5-1.7,.3-.2,.6-.2,.9-.2h.5c.2,0,.3,.1,.3,.3v1.2c0,.2-.2,.4-.4,.4-.6,.1-1.6,.1-1.8,0Z"/><path d="M600.5,239.4c-.1-.1,.1,0,.1-.3s.2-4.7,0-5c.4-.1,1.5-.1,1.4,.2-.2,.3-.4,.6-.2,.6,.9-.3,2.8-.7,2.9,1v3.6c.2,.2,0,.3,0,.3-.3,.1-1,.1-1.1,0v-1.1c0-.7,.1-1.3,.1-2v-.7c0-.4-.1-.7-.5-.9-.2-.1-.5,0-.7,.1-.3,.1-.5,.4-.6,.7-.2,.5-.3,1.1-.3,1.6,0,.6,0,1.3,.1,1.9,.1,.1-.8,.3-1.2,0h0Z"/><path d="M606.1,239.7c.3,.2,.9,.2,1.2,0,.1,0,.1-.1,.1-.2-.3-.5,.2-3.8,.2-4.5q0-.1,.1-.1c.5-.4-.6-.6-1.3-.4-.1,0-.1,.1-.1,.2,.1,.8,.1,4.1-.2,4.8-.1,.1-.1,.2,0,.2Z"/><path d="M620.2,241.6h.7c.4-.1,.4-.3,.2-.7h0c0-.2,0-5.3,.1-5.7h0c-.4-2.7-4.5-2.6-5.8-1.4h-.1c-.2-.2-1-1.1-3.8-.6,0,0-.1,0,0-.1v-.1c0-.1,.1-.2,.1-.3s.2-.2,.2-.4c0-.1,0-.2-.1-.2-.1-.1-.2-.1-.2-.2-.1,0-.2-.1-.3,0h-1.3c-.1,0-.3,0-.4,.1-.1,.1,0,.2,0,.3l.1,.1v5.8c0,.5,0,1-.1,1.5,0,.3-.1,.6-.1,1q0,.1-.1,.2h0v.1c.1,0,.2,.1,.3,.1s.3,.1,.4,.1h1.1c.1,0,.3,.1,.4,0h0c.1-.1,.2-.2,.1-.3-.7-3.1-.6-6.8,1.5-6.6,.4,0,.7,0,1,.2,.4,.3,.2,.9,.2,1.4,0,.6,0,1.2-.1,1.8s-.1,1.2-.2,1.7c0,.4-.1,.9-.1,1.3,0,.1,0,.2,.1,.3s.2,.1,.2,.2c.1,.1,.2,.2,.3,.2,.2,0,.3,0,.5-.1,.4-.1,.3,0,.6,.1,.3,0,.6-.1,.4-.5h0c-.4-1.6-.2-3.5-.1-4.1,0,0,.1-.1,.1,0,1,1.3,2.1,1.4,3.3,.2h.1c0,.8,0,1.5-.1,2.3,0,.4-.1,.8-.1,1.2,0,.3-.1,.6-.2,.9,0,.1-.1,.1-.1,.2s.2,.2,.2,.3c.1,.1,.2,.1,.4,.1,.3-.4,.5-.4,.7-.4h0Zm-3.5-6.2c0-.7,.5-1.2,1.2-1.2s1.2,.5,1.2,1.2-.5,1.2-1.2,1.2-1.2-.5-1.2-1.2Z"/><circle cx="617.8" cy="235.5" r=".6"/><circle cx="613.2" cy="235.3" r=".6"/><path d="M630.2,233.7l1.5,2.7v.1c-.3,.5-2,3.7-2,3.9,0,.1,.4,.4,.8,.3h.2c.2,.2,.4,.2,.6,0v-.4h0c.1-.2,1-2.4,1.1-2.4s1.6,2.5,1.9,2.5,.5-.1,1.1-.2c.1,0,.4,0,.5-.2s-.2-.4-.3-.5c-.2-.2-.4-.4-.5-.6-.4-.4-.7-.8-1-1.2-.2-.3-.5-.7-.7-1.1v-.1c.3-.4,2-2.9,2.3-3.2,.1-.1,.3-.1,.3-.2,0-.2-.4-.3-.5-.4-.2-.1-.5-.2-.7-.2-.1,0-.4,0-.5,.1s-1.5,2.1-1.7,2.4h0c-.2-.5-.4-1-.6-1.5,0-.1-.1-.4-.2-.4h-.4c-.2,0-.3,0-.5,.1-.1,0-.3,.1-.4,.1-.1,.2-.3,.3-.3,.4h0Z"/><path d="M607,231.4c-.1,0-.1,.1-.2,.1-.2,.2-.4,.4-.6,.6-.1,.1-.2,.3-.1,.4,.1,.1,.3,.1,.5,.1s.4-.1,.5-.2c.2-.1,.5-.2,.7-.4,.4-.2,.7-.4,1.1-.5h0c.1-.2-1-.2-1.1-.2-.2,0-.5,0-.8,.1h0Z"/><path d="M620.5,231.2c.1,0,0,0,0,0-.2,0-.5-.1-.7-.1h-1.4c-.3,0-.7,0-1,.1l-.9,.3c-.1,0-.5,.2-.3,.4s3.8-.5,4.3-.7h0Z"/><path d="M599.3,240.2c-.1-.8,.1-3.9,0-4.9-.1-.5-.4-.8-.8-1-.1,0-.2-.1-.2-.1-.1,0-.3-.1-.4-.1h-.4c-.1,0-.4-.1-.5-.1-.9,.1-1.3,1-1.3,2.2,.6,.6,1.1,.4,1.1,.1,0-2.7,1.5-1.9,1.5-.7v1.6c-3.3-.7-3.7,2.2-2,2.3h2c.1,.1,0,.3-.2,.5-.3,.3,.8,.3,1.2,.2h0Zm-2.5-1.4h0c-.2,0-.4-.1-.4-.2s0-.3,.8-.7c.2-.1,.4-.1,.5-.1h.3c.1,0,.1,.1,.1,.1v.8c0,.1-.1,.2-.2,.2-.7-.1-1-.1-1.1-.1h0Z"/></g><g><path d="M53.6,117.9c-.1,1.4-.1,2.6-.2,3.9-.2,1.5-.7,2.1-2.2,2.2-1.6,.1-3.2,.1-4.8,0-1.2-.1-2-.9-2-2.2-.1-2.5-.1-5.1,0-7.6,0-1.3,.7-2.1,2.1-2.2,1.6-.1,3.3-.1,4.9,0,1.2,.1,1.9,.8,2,2,.1,1.3,.2,2.7,.2,3.9Zm-2.4,.2q-.1,0,0,0c0-.7,0-1.3-.1-2,0-.8-.3-1.2-1-1.3h-2.2c-.8,.1-1.1,.3-1.1,1.1v4.3c0,.7,.3,1,1,1h2.2c.7,0,.9-.2,1-.9,.1-.7,.1-1.5,.2-2.2Z"/><path d="M47.4,136.9v2.4c0,.1-.2,.3-.3,.3-.4,.1-.6,.3-.6,.7v3.8c0,.2,.2,.5,.3,.6,.4,.2,.7,0,.8-.6,.1-1.5,.1-2.9,.2-4.4,0-.4,.1-.9,.1-1.3,.2-1.1,.7-1.7,1.8-1.8,.7-.1,1.4,0,2.1,.1,.9,.1,1.5,.7,1.6,1.7,.1,1.6,.1,3.3,.2,4.9,0,.8,0,1.6-.2,2.4-.2,1.4-1.4,2.2-2.8,1.9-.1,0-.3-.2-.3-.4v-2c0-.1,.2-.3,.3-.4,.5-.1,.7-.4,.7-.9v-3.9c0-.4-.1-.7-.6-.8-.5,0-.6,.3-.6,.7-.1,1.4-.1,2.7-.2,4.1,0,.5-.1,1.1-.1,1.6-.1,1-.7,1.6-1.6,1.8-.7,.1-1.4,.1-2.1,0-1-.1-1.6-.8-1.7-1.8-.2-2.3-.3-4.6,0-7,.3-1.2,1.1-2.1,3-1.7h0Z"/><path d="M47.3,73.5v2.4c0,.1-.2,.3-.2,.3-.4,0-.6,.3-.6,.7v3.7c0,.2,.1,.5,.3,.6,.4,.3,.8,0,.8-.6,.1-1.5,.1-3,.2-4.5,0-.5,.1-.9,.1-1.4,.2-.9,.7-1.5,1.7-1.6,.7-.1,1.4-.1,2.1,0,1,.2,1.6,.7,1.7,1.8,.1,1.6,.1,3.2,.2,4.8,0,.8,0,1.6-.2,2.4-.2,1.6-1.2,2-2.7,1.9-.1,0-.3-.2-.3-.4v-2c0-.1,.2-.4,.4-.4,.4-.1,.6-.3,.6-.7v-4c0-.4-.1-.7-.6-.8-.5,0-.6,.3-.6,.7-.1,1.4-.1,2.8-.2,4.2,0,.5,0,1-.1,1.4-.1,.9-.7,1.6-1.6,1.7-.7,.1-1.4,.1-2.1,0-1-.1-1.6-.7-1.7-1.7-.2-2.4-.4-4.8,0-7.1,.2-1.2,1.3-1.8,2.8-1.4Z"/><path d="M53.4,99.8v2.4c0,.4-.2,.5-.5,.5h-.7c-.8,0-1,.2-1,.9v4.5h2.2v2.6c0,.4-.3,.3-.5,.3h-8c-.4,0-.5-.1-.5-.5v-8.4c0-1.5,.8-2.2,2.3-2.3h1.6c.7,0,1.3,.4,1.6,1.1,.3-1,1.1-1.1,1.9-1.1h1.6Zm-6.6,8.3h1.9v-5c0-.5-.6-.5-1-.5s-.9,0-.9,.6v4.9Z"/><path d="M51.3,132.8h2.2v2.5c0,.1-.3,.3-.5,.3h-8.1c-.3,0-.5-.1-.5-.4,0-2.7,0-5.4,.1-8.1,0-1.4,.8-2.1,2.1-2.2,.9-.1,1.8,0,2.7,.1,1.1,.1,1.7,.8,1.8,1.9,.1,.9,.1,1.7,.1,2.6,.1,1,.1,2.1,.1,3.3h0Zm-2.4,0v-4.3c0-.6-.2-.8-.9-.8-.9,0-1.1,.1-1.2,.8v4.3h2.1Z"/><path d="M50,60.6c-1.8-.8-3.4-1.6-5.1-2.3-.5-.2-.6-.5-.6-1v-3.8c0-.4,.1-.5,.5-.5h8c.4,0,.5,.1,.5,.5v1.7c0,.5-.1,.7-.7,.7-1.8,0-3.6,0-5.4-.1h-.5c0,.1-.1,.1-.1,.2,.1,.1,.3,.3,.4,.3,1.8,.9,3.6,1.9,5.5,2.8,.6,.3,.7,.6,.8,1.2,.1,1.2-.3,1.8-1.4,2.2-1.7,.7-3.3,1.6-4.9,2.4-.2,.1-.4,.2-.7,.3-.2-.9-.4-1.7-.5-2.6,0-.1,.2-.3,.4-.4,1.3-.5,2.5-1,3.8-1.6Z"/><path d="M46.8,92.4h6.1c.4,0,.6,.1,.6,.5v1.9c0,.5-.2,.6-.6,.6h-5.3c-.6,0-.7,.2-.7,.7,.1,.9,0,1.9,0,2.8,0,.3-.1,.5-.5,.5h-1.5c-.3,0-.5-.1-.5-.4v-10c0-.4,.1-.5,.5-.5h1.5c.4,0,.5,.1,.5,.5-.1,1-.1,2.2-.1,3.4Z"/><path d="M48.9,88h-4c-.4,0-.6-.1-.5-.5v-2c0-.4,.1-.5,.5-.5h8.1c.3,0,.5,.1,.4,.5v2.1c0,.4-.2,.5-.5,.5-1.4-.2-2.7-.2-4-.1Z"/><path d="M50,72.4h-2.8c-.4,0-.6-.1-.5-.5,.1-.7,.1-1.3,.1-2,0-.4,.2-.5,.5-.5h5.6c.4,0,.5,.1,.5,.5v1.9c0,.4-.1,.6-.5,.6h-2.9Z"/><path d="M50,65.4h2.8c.4,0,.6,.1,.6,.5v1.8c0,.3-.1,.5-.5,.5h-5.7c-.3,0-.4-.1-.4-.4,0-.6-.1-1.2-.2-1.8-.1-.4,0-.6,.4-.6h3Z"/><path d="M37.4,72.7c.4,.2,1.9,.9,2.9,.9,0-1.1-.9-3.8-1.2-3.8-.6,.5-.3,2.7-1.7,2.9,0-.1,0,0,0,0Z"/><path d="M52.9,68.2h-5.7c-.3,0-.4-.1-.4-.4,0-.6-.1-1.2-.2-1.8-.1-.4,0-.6,.4-.6h5.8c.4,0,.6,.1,.6,.5v1.8c0,.4-.1,.5-.5,.5Z"/><path d="M53.4,71.8c0,.4-.1,.6-.5,.6h-5.6c-.4,0-.6-.1-.5-.5,.1-.7,.1-1.3,.1-2,0-.4,.2-.5,.5-.5h5.6c.4,0,.5,.1,.5,.5-.2,.6-.2,1.3-.1,1.9Z"/><path d="M44.9,58.3c-.5-.2-.6-.5-.6-1v-3.8c0-.4,.1-.5,.5-.5h8c.4,0,.5,.1,.5,.5v1.7c0,.5-.1,.7-.7,.7-1.8,0-3.6,0-5.4-.1h-.5c0,.1-.1,.1-.1,.2,.1,.1,.3,.3,.4,.3,1.8,.9,3.6,1.9,5.5,2.8,.6,.3,.7,.6,.8,1.2,.1,1.2-.3,1.8-1.4,2.2-1.7,.7-3.3,1.6-4.9,2.4-.2,.1-.4,.2-.7,.3-.2-.9-.4-1.7-.5-2.6,0-.1,.2-.3,.4-.4,1.2-.6,2.4-1.1,3.6-1.7-1.6-.7-3.2-1.5-4.9-2.2Z"/><path d="M37,78.3l.1,69.1h-1l-.1-69.9c-4.4-3.7-6.4-14.9-5.5-19.1,0,0,.3,3.3,.5,3.1s.2-3.2,1.6-3.5c0,0,1.8,12.4,4.7,14.6,0,0-2.1-1-4.2-4.2,0,0,3.7,9.6,8.7,10.3-.1-.2-2,1.6-4.8-.4Z"/><path d="M34.6,57.1c1.3,.1,2.8,.9,2.8,.9-.7-.5-1.6,2.9-1.7,2.9,0,.1-1.1-2.4-1.1-3.8Z"/><path d="M44,69.3c-.2,1.9-.3,2.7-1.5,3.6-.8-5.5-2.4-12.9-4.6-14.5,0,0,2.4,1.7,4.1,4.1-1.9-4-4.4-9.5-8.7-10.3,0,0,1-1,2.7-.8v-11.6h.9v12c3.7,1.4,8.5,9.6,7.8,20.6-.1,0-.5-3.3-.7-3.1Z"/><path d="M44.5,75.1c.2-1.4,1.4-2,2.9-1.6v2.4c0,.1-.2,.3-.2,.3-.4,0-.6,.3-.6,.7v3.7c0,.2,.1,.5,.3,.6,.4,.3,.8,0,.8-.6,.1-1.5,.1-3,.2-4.5,0-.5,.1-.9,.1-1.4,.2-.9,.7-1.5,1.7-1.6,.7-.1,1.4-.1,2.1,0,1,.2,1.6,.7,1.7,1.8,.1,1.6,.1,3.2,.2,4.8,0,.8,0,1.6-.2,2.4-.2,1.6-1.2,2-2.7,1.9-.1,0-.3-.2-.3-.4v-2c0-.1,.2-.4,.4-.4,.4-.1,.6-.3,.6-.7v-4c0-.4-.1-.7-.6-.8-.5,0-.6,.3-.6,.7-.1,1.4-.1,2.8-.2,4.2,0,.5,0,1-.1,1.4-.1,.9-.7,1.6-1.6,1.7-.7,.1-1.4,.1-2.1,0-1-.1-1.6-.7-1.7-1.7-.4-2.1-.6-4.5-.1-6.9Z"/><path d="M44.9,88.4h1.5c.4,0,.5,.1,.5,.5v3.4h6.1c.4,0,.6,.1,.6,.5v1.9c0,.5-.2,.6-.6,.6h-5.3c-.6,0-.7,.2-.7,.7,.1,.9,0,1.9,0,2.8,0,.3-.1,.5-.5,.5h-1.5c-.3,0-.5-.1-.5-.4v-10c-.1-.3,0-.5,.4-.5Z"/><path d="M44.4,87.4v-2c0-.4,.1-.5,.5-.5h8.1c.3,0,.5,.1,.4,.5v2.1c0,.4-.2,.5-.5,.5h-8c-.4,0-.6-.2-.5-.6Z"/><path d="M53.5,145.6c-.2,1.4-1.4,2.2-2.8,1.9-.1,0-.3-.2-.3-.4v-2c0-.1,.2-.3,.3-.4,.5-.1,.7-.4,.7-.9v-3.9c0-.4-.1-.7-.6-.8-.5,0-.6,.3-.6,.7-.1,1.4-.1,2.7-.2,4.1,0,.5-.1,1.1-.1,1.6-.1,1-.7,1.6-1.6,1.8-.7,.1-1.4,.1-2.1,0-1-.1-1.6-.8-1.7-1.8-.2-2.3-.3-4.6,0-7,.2-1.2,.9-2.1,2.9-1.7v2.4c0,.1-.2,.3-.3,.3-.4,.1-.6,.3-.6,.7v3.8c0,.2,.2,.5,.3,.6,.4,.2,.7,0,.8-.6,.1-1.5,.1-2.9,.2-4.4,0-.4,.1-.9,.1-1.3,.2-1.1,.7-1.7,1.8-1.8,.7-.1,1.4,0,2.1,.1,.9,.1,1.5,.7,1.6,1.7,.1,1.6,.1,3.3,.2,4.9,0,.8,0,1.6-.1,2.4h0Z"/><path d="M53.5,45.8c-.1,1.4-.1,2.7-.2,4-.1,1.4-.7,2-2,2.2-1.7,.2-3.4,.3-5.1,0-1.2-.2-1.9-.9-1.9-2.1-.1-2.6-.1-5.2,0-7.8,0-1.3,.8-2,2.1-2.1,1.6-.1,3.2-.1,4.8,0,1.2,0,1.9,.8,2,2,.2,1.1,.2,2.5,.3,3.8Zm-2.6,.1q.1,0,0,0v-2.4c0-.6-.4-.9-1-.9h-2.2c-.8,.1-1.1,.3-1.1,1v4.7c0,.5,.3,.8,.9,.8,.8,0,1.5,.1,2.3,0,.8,0,1-.3,1.1-1s0-1.5,0-2.2Z"/></g><g><path d="M632.5,296.3c-.2,0-.3,0-.4-.2l-2-2c-.2-.2-.2-.6,0-.8l2-2c.1-.1,.2-.2,.4-.2s.3,0,.4,.2l1,1h.6v.3h2.8l1.1,1.1-1.1,1.1h-2.8v.3h-.5l-1,1c-.2,.1-.3,.2-.5,.2h0Z"/><path d="M637.1,292.9h-2.9v-.3h-.4l-1.1-1.1c-.1-.1-.3-.1-.4,0l-2,2c-.1,.1-.1,.3,0,.5l2,2c.2,.2,.4,.2,.5,0l1.1-1.1h.4v-.3h2.9l.8-.8-.9-.9h0Z"/><polygon class="cls-18" points="632.9 293.2 633.4 292.8 632.5 291.9 630.7 293.8 631 294.1 633.1 294.1 632.5 294.6 632.1 294.3 631.6 294.7 632.5 295.7 634 294.1 634 293.4 632 293.4 632.5 292.9 632.9 293.2"/><polygon class="cls-18" points="634 293.4 634 293.2 634.4 293.2 634.4 294.3 634 294.3 634 294.1 634.4 293.8 634 293.4"/><polygon points="634 293.4 634.4 293.8 634 294.1 634 293.4"/><polygon class="cls-18" points="634.6 293.2 634.6 294.3 635.2 294.3 635.2 294 634.9 294 634.9 293.2 634.6 293.2"/><polygon class="cls-18" points="635.4 293.2 635.4 294.3 636.2 294.3 636.2 293.8 635.9 293.8 635.9 294 635.8 294 635.8 293.5 635.9 293.5 635.9 293.7 636.2 293.7 636.2 293.2 635.4 293.2"/><polygon class="cls-18" points="636.4 294.3 636.7 294.3 636.8 293.9 637 294.3 637.4 294.3 637.1 293.2 636.6 293.2 636.4 294.3"/></g><g><path d="M601.6,448.6c0-.1-.1-.1-.2-.1l-.3,.1c-.4,.2-.8,.5-1.1,.8-1.5,1.4-3.6,5-4.7,7.7-.1,.2-.1,.3-.1,.3,0,.1,.1,.2,.4,.2,1-2.3,3-6.4,4.8-8l.3-.2h0v.1c0,.4-.1,1.4-.3,2.2-.2,1.1-.5,2.3-.6,2.8s-.2,1-.2,1.1,0,.2,.2,.2,.6-.2,.7-.3c.1-.1,.2-.2,.5-.7,.3-.7,1.2-2.6,2.2-3.8l.2-.2h0v.2c-.1,.4-.1,.9-.1,1.6,0,.9,.1,1.9,.3,2.5,.2,.4,.4,.6,.6,.6s.4-.1,.6-.3c-.4-.6-.6-1.8-.6-2.9,0-.6,0-1.2,.1-1.7,0-.1,.1-.5,.1-.7,0-.1,0-.2-.1-.2s-.4,.1-.5,.2c-.3,.1-.5,.3-1,.9-.4,.5-1.3,1.9-2.1,3.7h0l.2-1c.6-2.2,.9-3.6,.9-4.6-.1-.3-.2-.5-.2-.5"/><path d="M605.8,452.2c.3-.2,.8-.2,1.2-.2,1.2,0,1.5,.6,1.5,1.3v2.1c-.4,.1-1,.1-1.6,.1-.7,0-1.5-.2-1.5-1,0-.4,.2-.8,1.3-1l1-.1v-.1c0-.6-.3-.8-.9-.8-.3,0-.8,.1-1.1,.3l.1-.6h0Zm2,2.8v-1.1l-.8,.1c-.5,.1-.8,.2-.8,.5s.2,.5,.9,.5h.7"/><path d="M610.8,452c.1,0,.4,0,.6,.1v.6c-.2,0-.4-.1-.7-.1s-.5,0-.7,.1v2.8h-.7v-3.2c.3-.2,.8-.3,1.5-.3"/><path d="M615.2,452c1.1,0,1.8,.8,1.8,1.8,0,1.1-.7,1.8-1.9,1.8-1.1,0-1.9-.8-1.9-1.8,.1-1.1,.8-1.8,2-1.8m-1.2,1.7c0,.8,.4,1.2,1.2,1.2,.5,0,1.1-.3,1.1-1.2,0-.8-.4-1.2-1.2-1.2-.5,0-1.1,.3-1.1,1.2"/><path d="M619.3,452c1.1,0,1.6,.4,1.6,1.5v2h-.7v-2c0-.8-.4-1-1-1-.3,0-.5,.1-.8,.1v2.8h-.7v-3.2c.3-.1,1-.2,1.6-.2"/><path d="M623.3,452c1.1,0,1.6,.4,1.6,1.5v2h-.7v-2c0-.8-.4-1-1-1-.3,0-.5,.1-.8,.1v2.8h-.7v-3.2c.3-.1,1-.2,1.6-.2"/><path d="M635,455.5c-1.3,0-2-.6-2-1.7,0-1.3,.9-1.9,2-1.9,.4,0,.6,.1,.8,.1v-2h.7v5.2c-.5,.3-1,.3-1.5,.3m.8-.6v-2.2c-.2-.1-.5-.1-.8-.1-.6,0-1.3,.2-1.3,1.2,0,.9,.6,1.2,1.4,1.2,.2,0,.4-.1,.7-.1"/><path d="M627.8,455v-1.1l-.8,.1c-.6,.1-.8,.2-.8,.5s.2,.5,.9,.5h.7m-2-2.8c.3-.2,.8-.2,1.2-.2,1.2,0,1.5,.6,1.5,1.3v2.1c-.4,.1-1,.1-1.6,.1-.7,0-1.5-.2-1.5-1,0-.4,.2-.8,1.3-1l1.1-.1v-.1c0-.6-.3-.8-.9-.8-.3,0-.8,.1-1.1,.3v-.6h0Z"/><rect x="612" y="452" width=".7" height="3.5"/><rect x="612" y="450.6" width=".7" height=".7"/><path d="M630.8,455.5c-1.1,0-1.6-.4-1.6-1.5v-2h.7v2c0,.8,.4,1,1,1,.3,0,.5-.1,.7-.1v-2.8h.7v3.2c-.3,.1-.9,.2-1.5,.2"/></g><g><g><path d="M700.5,660.7c-1.8,0-3.7,.8-4.9,2.6-1,1.5-9.6,14.1-11.4,16.7-.3,.4,0,.6,.4,.6h6.1c.6,0,.7,0,1.2-.6,.8-1.2,6.5-10.6,7.6-12.3,.2-.3,.6-.6,1-.6s.8,.2,1,.6c1.1,1.8,6.9,11.1,7.6,12.3,.4,.6,.6,.5,1.2,.6h6.1c.4,0,.7-.2,.4-.6-1.8-2.6-10.3-15.2-11.4-16.7-1.2-1.8-3.1-2.7-4.9-2.6h0Z"/><path d="M801.8,673.3c.2,0,.3,.1,.4,.2l5.9,6.8c.1,.1,.3,.3,.6,.3h7.3c.3,0,.6-.3,.3-.7-.1-.1-7.7-8.9-7.7-8.9,0,0-.2-.2-.2-.3s.2-.3,.2-.3l7.8-9.1c.2-.2,.1-.5-.3-.5h-6.9c-.5,0-.6,.2-.8,.3,0,0-5.6,6.2-6.2,6.8-.2,.2-.3,.3-.4,.3s-.3-.1-.4-.3c-.6-.6-6.2-6.8-6.2-6.8-.1-.2-.3-.3-.8-.3h-6.9c-.4,0-.5,.3-.3,.5l7.8,9.1s.2,.2,.2,.3-.2,.3-.2,.3c0,0-7.6,8.8-7.7,8.9-.3,.3,0,.7,.3,.7h7.3c.4,0,.5-.2,.6-.3l5.9-6.8c.1-.1,.2-.2,.4-.2h0Z"/><path d="M723.9,660.7c.3,0,.6,0,.6,.4v9.2c0,5.1,0,5.7,5.9,5.7h9.8c.3,0,.6,0,.6,.4v3.9c0,.4-.3,.4-.6,.4h-10.8c-2.3,0-4-.1-5.3-.2-3.8-.5-5.6-1.8-6.2-4.3-.3-1.3-.3-4.9-.3-4.9v-10.1c0-.4,.3-.4,.6-.4h5.7v-.1h0Z"/><path d="M758.3,660.7h-19.6c-.5,0-.6,.1-.6,.5v3.8c0,.4,.1,.5,.6,.5h6c.3,0,.4,.1,.4,.4v14.6c0,.1,.2,.3,.4,.3h6.1c.2,0,.4-.1,.4-.3v-14.6c0-.3,.1-.4,.4-.4h6c.4,0,.6-.1,.6-.5v-3.7c-.1-.5-.2-.6-.7-.6h0Z"/><path d="M769.8,672.7h14.2c.7,0,1.1-.1,1.1-.9v-4.8c0-3.7-3-6.3-7.7-6.3h-8.8c-4.7,0-7.7,2.6-7.7,6.3v7.3c0,3.7,3,6.3,7.7,6.3h15.9c.3,0,.6,0,.6-.4v-3.5c0-.4-.3-.4-.6-.4h-14.7c-1,0-1.8-.8-1.8-1.8s.8-1.8,1.8-1.8h0Zm-1.8-5.8c0-.4,.1-.8,.4-1.1,.3-.4,1-.7,1.8-.7h6.1c.8,0,1.5,.2,1.8,.7,.3,.3,.4,.6,.4,1.1s-.2,1-.6,1.3c-.4,.3-.9,.5-1.5,.5h-6.2c-.6,0-1.2-.2-1.5-.5-.5-.3-.7-.7-.7-1.3Z"/></g><path d="M707.7,651.1h0c-.1,.1-2.7,.9-4.6,2.8s-2.7,4.5-2.7,4.5c0,.1-.1,.1-.1,.1,0,0-.1,0-.1-.1,0,0-.9-2.6-2.7-4.5-1.9-1.9-4.5-2.7-4.5-2.7-.1,0-.1-.1-.1-.1h0s0-.1,.1-.1c0,0,2.6-.8,4.5-2.7s2.7-4.5,2.7-4.5c0-.1,.1-.1,.1-.1,0,0,.1,0,.1,.1,0,0,.8,2.6,2.7,4.5,1.9,1.8,4.5,2.7,4.6,2.8,0-.1,0,0,0,0h0Z"/></g><g><path d="M488.7,73.8c-.4,.2-.6,.1-.8-.1-.3-.4-.5-.8-.5-1.3,0-.1,0-.3,.1-.4,.5-.3,1-.6,1.5-.8,.4-.1,.9-.1,1.3,.3,.7,.7,1.4,1.4,2,2.1,.4,.5,.7,1.2,.4,1.9-.1,.4-.4,.7-.7,1-.7,.5-1.5,1-2.3,1.5l-.9,.6c-.1,.1-.2,.2-.4,.3,.3,0,.4,.1,.6,.1,.4,0,.8,0,1.2,.1,.4,0,.7,.2,.8,.6,.2,.6,.3,1.3,.4,1.9,.1,.5-.2,.7-.7,.6-2.6-.4-5.1-.8-7.7-1.2-1.2-.2-2.4-.5-3.6-.8-.1,0-.2,0-.2-.1-.3-.1-.5-.3-.5-.7,.1-.4,.4-.5,.7-.5,.6,0,1.3,.1,1.9,.2,.9,.2,1.9,.4,2.8,.6,.2,0,.4,.1,.6,0,.1,0,.3-.1,.4-.2,0-.1,0-.4-.1-.5-1.4-1.4-2.1-3.2-3-4.9-.3-.5-.1-.8,.4-.9,.7-.2,1.4-.2,1.9,.4,.4,.5,.8,.9,1.2,1.4,.3,.4,.2,.6-.2,.8h-.1c-.3,.2-.8,.3-.8,.8s.4,.8,.8,1.1c.4,.3,.9,.3,1.3,.1,1.4-.5,2.5-1.3,3.4-2.4,.7-1,.6-2.1-.2-3-.3-.3-.8-.4-1.2-.4-.4,.1-.5,.4-.4,.8,.4,.5,.5,.8,.6,1h0Z"/><path d="M487,144.1c.7,0,1.5-.2,2.2-.8,.5-.4,1-1,1.6-1.4,1-.7,.7-2.1,0-2.7-.7-.7-1.2-1.5-1.4-2.5-.1-.4,.2-1.2,.6-1.3,.8-.4,1.7-.3,2.6-.1,.6,.2,.8,1.3,.4,1.8-.1,.1-.2,.2-.4,.2-.4,.1-.8,.1-1.2-.3-.1-.1-.2-.2-.3-.1-.1,0-.2,.2-.2,.3,0,.4,.1,.8,.5,1.1,1,.6,2.5,0,2.8-1.1,.2-.9,.1-1.7-.2-2.6-.2-.5-.5-1-1.1-1.2-1.4-.5-2.8-.7-4.3-.4-.3,.1-.7,.3-.9,.5-.7,.7-.9,1.5-.8,2.5,.1,.7,0,1.4-.2,2-.2,.8-1.1,1.2-1.7,.7-.4-.3-.5-.8-.7-1.3-.1-.2,.1-.4,.2-.6,.1-.2,.2-.3,.2-.5s-.1-.5-.2-.6-.4-.1-.5,0c-.9,.6-1.7,1.3-2.6,2-.3,.3-.4,.7-.2,1,.4,.8,.7,1.7,1.1,2.5,.4,.7,.8,1.3,1.4,1.9,1,.9,2.1,1,3.3,1h0Z"/><path d="M485.9,115.6h-1.5c-.6,0-.7,0-.7-.7,0-.5,.2-.8,.7-.9s1-.1,1.5-.2c1.5-.2,3-.2,4.5,.3,.5,.1,.8,.1,1.2-.2,.1-.1,.3-.3,.3-.4s-.2-.3-.4-.3c-.6-.2-1.2-.5-1.8-.7-1-.3-1.9-.6-2.9-.7-1.6,0-3.2,.2-4.9,.3-.1,0-.3,.1-.4,.3-.3,.4-.2,.9-.1,1.3,.2,.7,.4,1.3,.6,2,.1,.2,.1,.4-.2,.6-.7,.4-1.5,.8-2.2,1.2-.5,.3-.7,.6-.4,1.1,.4,.9,.8,1.8,1.2,2.7,.3,.7,.1,1.2-.4,1.7-.1,.1-.2,.3-.1,.4,.1,.4,.6,.6,.9,.4,1.4-.7,3-1.1,4.5-1.5,1.2-.3,2.4-.7,3.7-1,.3-.1,.5-.2,.5-.5s-.2-.6-.5-.7c-.6-.1-1.2-.2-1.8-.2-.8,0-1.6,.2-2.4,.3-1.2,.2-1.5-.1-1.5-1.3-.1-.9,.1-1.1,1-1.4,1.1-.4,2.3-.7,3.5-.7,.3,0,.5-.3,.4-.7,0-.3-.1-.5-.5-.5-.7,.1-1.3,0-1.8,0h0Z"/><path d="M487,144.1c-1.3,0-2.3-.2-3.1-.9-.5-.5-1-1.2-1.4-1.9-.4-.8-.8-1.6-1.1-2.5-.2-.4-.1-.8,.2-1,.8-.7,1.7-1.3,2.6-2,.1-.1,.4-.1,.5,0s.2,.4,.2,.6-.1,.3-.2,.5-.2,.4-.2,.6c.2,.5,.4,1,.7,1.3,.6,.5,1.4,.1,1.7-.7,.2-.6,.3-1.3,.2-2-.1-1,.1-1.8,.8-2.5,.3-.2,.6-.5,.9-.5,1.5-.3,2.9-.1,4.3,.4,.5,.2,.9,.7,1.1,1.2,.3,.8,.4,1.7,.2,2.6-.3,1.2-1.7,1.8-2.8,1.1-.4-.2-.5-.6-.5-1.1,0-.1,.1-.3,.2-.3s.2,.1,.3,.1c.3,.4,.7,.5,1.2,.3,.1,0,.3-.1,.4-.2,.4-.5,.1-1.6-.4-1.8-.9-.3-1.7-.3-2.6,.1-.4,.2-.7,.9-.6,1.3,.2,1,.7,1.8,1.4,2.5,.7,.6,.9,2,0,2.7-.6,.4-1,1-1.6,1.4-.8,.5-1.7,.7-2.4,.7h0Z"/><path d="M487,144.1c-1.3,0-2.3-.2-3.1-.9-.5-.5-1-1.2-1.4-1.9-.4-.8-.8-1.6-1.1-2.5-.2-.4-.1-.8,.2-1,.8-.7,1.7-1.3,2.6-2,.1-.1,.4-.1,.5,0s.2,.4,.2,.6-.1,.3-.2,.5-.2,.4-.2,.6c.2,.5,.4,1,.7,1.3,.6,.5,1.4,.1,1.7-.7,.2-.6,.3-1.3,.2-2-.1-1,.1-1.8,.8-2.5,.3-.2,.6-.5,.9-.5,1.5-.3,2.9-.1,4.3,.4,.5,.2,.9,.7,1.1,1.2,.3,.8,.4,1.7,.2,2.6-.3,1.2-1.7,1.8-2.8,1.1-.4-.2-.5-.6-.5-1.1,0-.1,.1-.3,.2-.3s.2,.1,.3,.1c.3,.4,.7,.5,1.2,.3,.1,0,.3-.1,.4-.2,.4-.5,.1-1.6-.4-1.8-.9-.3-1.7-.3-2.6,.1-.4,.2-.7,.9-.6,1.3,.2,1,.7,1.8,1.4,2.5,.7,.6,.9,2,0,2.7-.6,.4-1,1-1.6,1.4-.8,.5-1.7,.7-2.4,.7h0Z"/><path d="M485.9,115.6h1.7c.3,0,.4,.2,.5,.5,0,.4-.1,.7-.4,.7-1.2,0-2.3,.3-3.5,.7-.9,.3-1.1,.5-1,1.4,.1,1.2,.3,1.5,1.5,1.3,.8-.1,1.6-.3,2.4-.3,.6,0,1.2,.1,1.8,.2,.4,.1,.5,.3,.5,.7,0,.3-.3,.5-.5,.5-1.2,.3-2.4,.7-3.7,1-1.6,.4-3.1,.8-4.5,1.5-.4,.2-.8,0-.9-.4,0-.1,.1-.3,.1-.4,.5-.5,.7-1,.4-1.7-.4-.9-.8-1.8-1.2-2.7-.2-.5-.1-.8,.4-1.1,.7-.4,1.5-.8,2.2-1.2,.3-.1,.2-.3,.2-.6-.2-.7-.4-1.3-.6-2-.1-.4-.2-.9,.1-1.3,.1-.1,.3-.3,.4-.3,1.6-.1,3.2-.3,4.9-.3,1,0,1.9,.4,2.9,.7,.6,.2,1.2,.4,1.8,.7,.1,.1,.3,.2,.4,.3,0,.1-.2,.3-.3,.4-.3,.3-.7,.3-1.2,.2-1.5-.5-3-.4-4.5-.3-.5,.1-1,.1-1.5,.2s-.8,.4-.7,.9c0,.6,.1,.7,.7,.7,.5,.1,1,0,1.6,0h0Z"/><path d="M485.9,115.6h1.7c.3,0,.4,.2,.5,.5,0,.4-.1,.7-.4,.7-1.2,0-2.3,.3-3.5,.7-.9,.3-1.1,.5-1,1.4,.1,1.2,.3,1.5,1.5,1.3,.8-.1,1.6-.3,2.4-.3,.6,0,1.2,.1,1.8,.2,.4,.1,.5,.3,.5,.7,0,.3-.3,.5-.5,.5-1.2,.3-2.4,.7-3.7,1-1.6,.4-3.1,.8-4.5,1.5-.4,.2-.8,0-.9-.4,0-.1,.1-.3,.1-.4,.5-.5,.7-1,.4-1.7-.4-.9-.8-1.8-1.2-2.7,.4-.2,.6-.7,.4-1.1,.7-.4,1.5-.8,2.2-1.2,.3-.1,.2-.3,.2-.6-.2-.7-.4-1.3-.6-2-.1-.4-.2-.9,.1-1.3,.1-.1,.3-.3,.4-.3,1.6-.1,3.2-.3,4.9-.3,1,0,1.9,.4,2.9,.7,.6,.2,1.2,.4,1.8,.7,.1,.1,.3,.2,.4,.3,0,.1-.2,.3-.3,.4-.3,.3-.7,.3-1.2,.2-1.5-.5-3-.4-4.5-.3-.5,.1-1,.1-1.5,.2s-.8,.4-.7,.9c0,.6,.1,.7,.7,.7,.5,.1,1,0,1.6,0h0Z"/><path d="M493.7,103.3c-.9-.1-2-.4-2.9-1.2-.4-.4-.4-.8-.3-1.2,.4-.8,1-1.4,1.9-1.6,.5-.1,1,0,1.4,.4,.3,.3,.1,.9-.3,1-.1,0-.2,0-.3-.1-.1-.1-.1-.2-.2-.3-.2-.3-.5-.3-.7,.1-.2,.3-.3,.7-.4,1s.1,.4,.3,.4c1-.2,2-.3,2.8-.9,.5-.4,.5-.9,.4-1.5-.3-1-1-1.7-1.9-2.2-.5-.3-1.1-.5-1.6-.7-1.3-.4-2.4,.1-2.9,1.4-.3,.7-.4,1.5-.5,2.2-.2,1.1-.8,1.8-1.7,1.8-.9,.1-1.7-.1-2.3-.9-.7-.8-1.1-1.7-1.2-2.8v-.6c.1-.2,.2-.4,.4-.7,.2,.1,.4,.2,.6,.4,.4,.4,.6,.8,1.2,1,1.5,.5,2.3-.5,2.3-1.8,0-.2-.2-.5-.4-.7-.3-.3-.7-.5-1.1-.7-.5-.2-1-.3-1.5-.5-.3-.1-.6-.1-.9-.2s-.5-.3-.5-.7c0-.3,.3-.5,.6-.5,.5-.1,1-.2,1.5-.1,2.3,.4,4.6,.8,6.9,1.2,.2,0,.5,.1,.7,.2,2.2,.4,3.3,1.9,3.8,4,.3,1,.3,2.1-.2,3.1-.8,1-1.8,1.7-3,1.7h0Z"/><path d="M493.7,103.3c-.9-.1-2-.4-2.9-1.2-.4-.4-.4-.8-.3-1.2,.4-.8,1-1.4,1.9-1.6,.5-.1,1,0,1.4,.4,.3,.3,.1,.9-.3,1-.1,0-.2,0-.3-.1-.1-.1-.1-.2-.2-.3-.2-.3-.5-.3-.7,.1-.2,.3-.3,.7-.4,1s.1,.4,.3,.4c1-.2,2-.3,2.8-.9,.5-.4,.5-.9,.4-1.5-.3-1-1-1.7-1.9-2.2-.5-.3-1.1-.5-1.6-.7-1.3-.4-2.4,.1-2.9,1.4-.3,.7-.4,1.5-.5,2.2-.2,1.1-.8,1.8-1.7,1.8-.9,.1-1.7-.1-2.3-.9-.7-.8-1.1-1.7-1.2-2.8v-.6c.1-.2,.2-.4,.4-.7,.2,.1,.4,.2,.6,.4,.4,.4,.6,.8,1.2,1,1.5,.5,2.3-.5,2.3-1.8,0-.2-.2-.5-.4-.7-.3-.3-.7-.5-1.1-.7-.5-.2-1-.3-1.5-.5-.3-.1-.6-.1-.9-.2s-.5-.3-.5-.7c0-.3,.3-.5,.6-.5,.5-.1,1-.2,1.5-.1,2.3,.4,4.6,.8,6.9,1.2,.2,0,.5,.1,.7,.2,2.2,.4,3.3,1.9,3.8,4,.3,1,.3,2.1-.2,3.1-.8,1-1.8,1.7-3,1.7h0Z"/></g><g><g transform="translate(-19.000000, -107.000000)"><path class="cls-17" d="M290.55,353.9l1.3-2c.7-1,2-1.7,3.2-1.7h20.5c1.3,0,2.5,.7,3.2,1.7l1.3,2c.7-.1,1.3-.2,2-.3l7.8-1.7v-6.1c-.2,.1-.5,.1-.8,.2-1.5,.3-2.8,.5-4.4,.5-.8,0-2.1-.1-3.1-.2-1.5-.2-2.4-.6-3-1.1-2.3,.9-4.7,1.1-7.1,.8-3.2-.5-5.3-.7-6.1-.7s-2.9,.2-6.1,.7c-2.5,.3-5.1,0-7.4-.9h-.1c-.8,.5-1.7,.8-2.8,1-1.5,.3-2.8,.5-4.4,.5-.8,0-2.1-.1-3.1-.2-.2,0-.5-.1-.7-.1v5.7l7.8,1.7c.7,0,1.3,.1,2,.2h0Zm3,.2h23.6l-.5-.7c-.2-.3-.7-.6-1-.6h-20.5c-.5,0-.8,.2-1,.6l-.6,.7Zm-12.8-10.8c.2,.1,.7,.2,1.1,.2,.9,.1,2.1,.2,2.8,.2,1.5,0,2.5-.1,3.8-.3h.1c-2.9-1.1-5.5-2-7.8-2.1v2h0Zm-2.5,.6h0v-2.4c0-.9,.2-1.7,.7-2.5l2.5-4.5-4.6-.7h0c-.1,0-.2,0-.3-.1-.6-.2-.7-.9-.5-1.4l.3-.8c.1-.3,.5-.6,.8-.7h0l3.4-.8c.7-.1,1.4,.2,1.5,.8h0l.5,1.3,3.6-9.8c.9-2.5,3.3-4.3,6.1-4.3h26.3c2.8,0,5.2,1.7,6.1,4.3l3.4,9.5,.2-1c.2-.7,.9-1,1.5-.9l3.6,.8c.3,.1,.7,.3,.8,.7l.5,.8c.2,.5,.1,1.1-.5,1.4-.1,0-.2,.1-.3,.1l-4.6,.7,2.5,4.5c.5,.8,.7,1.6,.7,2.5v15.3c0,2.2-1.7,3.9-3.9,3.9h-6.6c-2.2,0-3.9-1.7-3.9-3.9h-25.6c0,2.2-1.7,3.9-3.9,3.9h-6.4c-2.2,0-3.9-1.7-3.9-3.9v-12.8h0Zm51.5-.8v-1.7c-2.4,.2-5.2,.9-8.2,2.2h.2c.9,.1,2.1,.2,2.8,.2,1.5,0,2.5-.1,3.8-.3,.5-.2,.9-.3,1.4-.4h0Zm-48-4.3c3.1,.5,6.6,1.5,10.3,3.3,2.1,1,4.4,1.4,6.7,1,3.3-.5,5.4-.7,6.4-.7s3.1,.2,6.4,.7c2.3,.3,4.6,0,6.7-1,3.8-1.8,7.2-3,10.3-3.3l-2.2-3.9-5.7,.9c-.8,.1-1.5,.2-2.3,.2h-26.3c-.8,0-1.6-.1-2.3-.2l-5.7-.9-2.3,3.9Zm38.9,17.6v.3c0,.7,.6,1.3,1.3,1.3h6.4c.7,0,1.3-.6,1.3-1.3v-2.3l-7.2,1.6c-.7,.2-1.2,.3-1.8,.4h0Zm-30.8,0c-.6-.1-1.1-.2-1.8-.3l-7.2-1.6v2.3c0,.7,.6,1.3,1.3,1.3h6.4c.7,0,1.3-.6,1.3-1.3-.1-.1-.1-.3,0-.4h0Zm32.2-33.2c-.6-1.5-2-2.5-3.7-2.5h-26.2c-1.6,0-3.1,1-3.7,2.5l-3.3,9.3,5.2,.8c.6,.1,1.3,.1,2,.1h26.2c.7,0,1.3,0,2-.1l5.2-.8-3.7-9.3Z"/></g><g><path class="cls-17" d="M370.55,345.88l-1.9-3.3-2,3.3h-3l3.3-5.1-3-4.9h3l1.7,3.1,1.8-3.1h2.9l-3.1,5,3.2,5h-2.9Z"/><path class="cls-17" d="M387.55,332.28v1.9l-4.9,11.7h-2.9l4.7-11.1h-5.8v-2.5h8.9Z"/><path class="cls-17" d="M388.55,339.08c0-3.8,1.7-7,5.5-7s5.5,3.3,5.5,7-1.7,7-5.5,7-5.5-3.2-5.5-7Zm8.3,0c0-2.5-.8-4.5-2.8-4.5s-2.8,2-2.8,4.5,.8,4.5,2.8,4.5,2.8-2,2.8-4.5Z"/><path class="cls-17" d="M401.25,339.08c0-3.8,1.7-7,5.5-7s5.5,3.3,5.5,7-1.7,7-5.5,7-5.5-3.2-5.5-7Zm8.3,0c0-2.5-.8-4.5-2.8-4.5s-2.8,2-2.8,4.5,.8,4.5,2.8,4.5,2.8-2,2.8-4.5Z"/></g></g><g><path d="M618.2,138.3h-.2v.6h-.3v-1.6h.6c.4,0,.5,.2,.5,.5,0,.2-.1,.4-.3,.5l.4,.6h-.4l-.3-.6Zm-.2-.3h.3c.2,0,.2-.1,.2-.2s-.1-.2-.2-.2h-.3v.4Z"/><path d="M620,138.6h-.6l-.1,.3h-.3l.6-1.6h.3l.6,1.6h-.3l-.2-.3Zm-.5-.3h.4l-.2-.5-.2,.5Z"/><path d="M620.6,137.3h.2l.6,.9,.6-.9h.2v1.6h-.3v-.9l-.5,.7h-.1l-.5-.7v.9h-.3l.1-1.6h0Z"/><path d="M622.6,138.1c0-.5,.4-.8,.8-.8s.8,.4,.8,.8c0,.5-.4,.8-.8,.8-.5,0-.8-.3-.8-.8Zm1.3,0c0-.3-.2-.5-.5-.5s-.5,.2-.5,.5,.2,.5,.5,.5,.5-.2,.5-.5Z"/><path d="M625.9,137.3v1.6h-.2l-.8-1v1h-.4v-1.6h.2l.8,1v-1h.4Z"/><path d="M627.1,138.6h-.6l-.1,.3h-.3l.6-1.6h.3l.6,1.6h-.3l-.2-.3Zm-.5-.3h.4l-.2-.5-.2,.5Z"/><path d="M628,137.3h.4l.3,1.1,.4-1.1h.2l.4,1.1,.3-1.1h.4l-.5,1.6h-.4l-.3-1-.3,1h-.4l-.5-1.6h0Z"/><path d="M631.2,138.6h-.6l-.1,.3h-.3l.6-1.6h.3l.6,1.6h-.3l-.2-.3Zm-.4-.3h.4l-.2-.5-.2,.5Z"/><path d="M631.7,138.6l.2-.2c.1,.1,.3,.2,.4,.2s.2-.1,.2-.2-.1-.1-.1-.2c-.1,0-.2-.1-.3-.1-.1-.1-.3-.2-.3-.4,0-.3,.2-.5,.5-.5,.2,0,.4,.1,.5,.2l-.2,.2c-.1-.1-.2-.1-.4-.1-.1,0-.2,.1-.2,.2s.1,.1,.1,.2c.1,0,.2,.1,.4,.2,.2,.1,.3,.2,.3,.4,0,.3-.2,.5-.6,.5-.1-.1-.4-.2-.5-.4h0Z"/><path d="M633.2,137.3h.3v.6h.7v-.6h.3v1.6h-.3v-.7h-.7v.7h-.3v-1.6Z"/><path d="M635.2,137.3v1.6h-.3v-1.6h.3Z"/><path d="M636.9,137.3v1.6h-.2l-.8-1v1h-.4v-1.6h.2l.8,1v-1h.4Z"/><path d="M637.1,138.1c0-.5,.4-.8,.8-.8,.3,0,.5,.1,.6,.3l-.2,.2c-.1-.1-.3-.2-.4-.2-.3,0-.5,.2-.5,.5s.2,.5,.5,.5c.2,0,.3-.1,.4-.2v-.2h-.4v-.3h.7v.7c-.2,.2-.4,.3-.7,.3-.4,0-.8-.3-.8-.8h0Z"/></g><g><path class="cls-11" d="M676.5,529.3c3.3,0,6,2.7,6,6s-2.7,6-6,6-6-2.7-6-6,2.7-6,6-6"/><g class="cls-23"><rect class="cls-27" x="671.4" y="530.2" width="10.1" height="10.1"/></g><polygon class="cls-12" points="674.9 538.3 674.9 539.8 674.9 540.1 675 540.1 675.3 540.2 675.5 540.3 675.7 540.3 675.8 540.1 676.4 538.7 676.3 538.7 676.2 538.7 676 538.7 675.8 538.6 675.7 538.6 675.5 538.6 675.3 538.5 675.2 538.4 675 538.4 674.9 538.3"/><path class="cls-11" d="M679.9,535.1h0v-.9l-.1-.2-.1-.2-.1-.1-.1-.1-.1-.1-.1-.1-.1-.1-.1-.1-.1-.1-.1-.1-.1-.1-.1-.1-.1-.1-.1-.1-.1-.1-.1-.1-.1-.1-.2-.1-.2-.1-.2-.1h-2.4l-.2,.1-.2,.1-.2,.1-.1,.1-.1,.1-.1,.1-.1,.1-.1,.1-.1,.1-.1,.1-.1,.1-.1,.1-.1,.1-.1,.1-.1,.1-.1,.1-.1,.2-.1,.2-.1,.2-.1,.2v1.4h0v-1.4l.1-.2,.1-.2,.1-.2,.1-.2,.1-.1,.1-.1,.1-.1,.1-.1,.1-.1,.1-.1,.1-.1,.1-.1,.1-.1,.1-.1,.1-.1,.1-.1,.1-.1,.1-.1,.2-.1,.2-.1h2.4l.2,.1,.2,.1,.2,.1,.2,.1,.1,.1,.1,.1,.1,.1,.1,.1,.1,.1,.1,.1,.1,.1,.1,.1,.1,.1,.1,.1,.1,.1,.1,.1,.1,.1,.1,.1,.1,.2,.1,.2v.9h0Zm-4.6,5.1l-.2-.1-.2-.1-.2-.1-.2-.1-.2-.1-.2-.1-.2-.1-.2-.1-.2-.2-.2-.2-.2-.2-.2-.2-.2-.2-.1-.2-.1-.2-.1-.2-.1-.2-.1-.2-.1-.2-.1-.2-.1-.2-.1-.2-.1-.2v-.6h0v.6l.1,.2,.1,.2,.1,.2,.1,.2,.1,.2,.1,.2,.1,.2,.1,.2,.1,.2,.1,.2,.2,.2,.2,.2,.2,.2,.2,.2,.2,.2,.2,.1,.2,.1,.2,.1,.2,.1,.2,.1,.2,.1,.2,.1,.2,.1h2.3l.2-.1,.2-.1,.2-.1,.2-.1,.2-.1,.2-.1,.2-.1,.2-.1,.2-.1,.2-.1,.2-.2,.2-.2,.2-.2,.2-.2,.2-.2,.1-.2,.1-.2,.1-.2,.1-.2,.1-.2,.1-.2,.1-.2,.1-.2,.1-.3v-1.4h0v1.4l-.1,.3-.1,.2-.1,.2-.1,.2-.1,.2-.1,.2-.1,.2-.1,.2-.2,.4-.2,.2-.2,.2-.2,.2-.2,.2-.2,.2h0l-.2,.1-.2,.1-.2,.1-.2,.1-.2,.1-.2,.1-.2,.1-.2,.1-.2,.1h-2l-.4-.1h0Z"/><polygon class="cls-12" points="674.7 532.4 674.2 531.9 674.4 532.6 674.5 532.6 674.6 532.5 674.7 532.4"/><polygon class="cls-12" points="677.9 532.2 678 530.5 678 530.5 677.7 530.4 677.5 530.3 677.5 530.3 676.7 531.9 676.8 531.9 677 531.9 677.2 532 677.3 532 677.5 532 677.7 532.1 677.8 532.2 677.9 532.2"/><polygon class="cls-12" points="679.6 533.9 680.2 533.4 679.5 533.6 679.5 533.7 679.6 533.8 679.6 533.9"/><polygon class="cls-12" points="679.4 537.1 681.2 537.2 681.2 537 681.3 536.8 681.4 536.6 679.9 535.8 679.8 536 679.8 536.1 679.8 536.3 679.7 536.5 679.6 536.6 679.6 536.8 679.5 536.9 679.4 537.1"/><polygon class="cls-12" points="677.8 538.5 678.7 539.4 678.3 538.2 678.2 538.2 678.1 538.3 678 538.4 677.8 538.4 677.8 538.5"/><polygon class="cls-12" points="673.6 537 672.7 537.9 673.9 537.5 673.9 537.4 673.8 537.3 673.7 537.2 673.6 537"/><polygon class="cls-9" points="673.3 534.1 671.6 534.1 671.5 534.3 671.5 534.6 671.5 534.7 673.1 535.5 673.1 535.5 673.1 535.3 673.1 535.1 673.1 535 673.1 534.8 673.2 534.6 673.2 534.5 673.2 534.3 673.3 534.1"/><g class="cls-15"><rect class="cls-1" x="671.2" y="530" width="10.7" height="10.7"/></g><path class="cls-11" d="M679.4,537.9q-.1,0,0,0h0l.5,.4h0l-.5-.4Zm-6.2-5.6h0l.5,.4h0l-.5-.4Zm6.3,5.5q0-.1,0,0,0-.1,0,0l.5,.4h0l-.5-.4Zm-6.4-5.3h0l.5,.4h0l-.5-.4Zm6.5,5.1h0l.5,.3h0l-.5-.3Zm-6.7-5h0l.5,.3h0l-.5-.3Zm6.8,4.9h0l.5,.3h0l-.5-.3Zm-6.9-4.7h0l.5,.3h0l-.5-.3Zm7,4.5h0l.5,.3h0l-.5-.3Zm-7.1-4.3h0l.5,.3h0l-.5-.3Zm5.9,5.5h0l.3,.5h0l-.3-.5Zm-4.5-6.9h0l.3,.5h0l-.3-.5Zm4.6,6.8h0l.4,.5h0l-.4-.5Zm-4.8-6.7h0l.4,.5h0l-.4-.5Zm5,6.6h0l.4,.5h0l-.4-.5Zm-5.2-6.5h0q.1,0,0,0l.4,.5h0l-.4-.5Zm5.3,6.4h0l.4,.4h0l-.4-.4Zm-5.4-6.3h0l.4,.4h0l-.4-.4Zm5.5,6.2h0l.4,.4h0l-.4-.4Zm-5.7-6h0q.1,0,0,0l.4,.4h0l-.4-.4Zm4.3,6.9q0-.1,0,0,0-.1,0,0l.2,.6h0l-.2-.6Zm-2.6-7.9h0l.2,.6h0l-.2-.6Zm2.8,7.8h0l.2,.6h0l-.2-.6Zm-3-7.8h0l.2,.6h0l-.2-.6Zm3.1,7.7h0l.3,.5h0l-.3-.5Zm-3.3-7.6h0l.3,.5h0l-.3-.5Zm3.5,7.6s0-.1,0,0q0-.1,0,0l.3,.5h0l-.3-.5Zm-3.7-7.5h0q.1,0,0,0l.3,.5h0l-.3-.5Zm3.8,7.4h0l.3,.5h0l-.3-.5Zm-3.9-7.3h0l.3,.5h0l-.3-.5Zm2.3,7.7h0l.1,.6h0l-.1-.6Zm-.4-8.2s0-.1,0,0c0-.1,0,0,0,0l.1,.6h0l-.1-.6Zm.6,8.2h0l.1,.6h0l-.1-.6Zm-.8-8.2h0l.1,.6h0l-.1-.6Zm.9,8.2h0q.1,0,0,0l.1,.6h0l-.1-.6Zm-1.1-8.2h0l.1,.6h0l-.1-.6Zm1.3,8.2h0l.1,.6h0l-.1-.6Zm-1.5-8.2h0l.1,.6h0l-.1-.6Zm1.7,8.1h0l.2,.6h0l-.2-.6Zm-1.9-8h0l.2,.6h0l-.2-.6Zm-1.6,7.2q0-.1,0,0h0l-.4,.5h0l.4-.5Zm5.6-6.2h0l-.4,.5h0l.4-.5Zm-5.4,6.3h0l-.4,.5h0l.4-.5Zm5.2-6.4q0-.1,0,0h0l-.4,.5h0l.4-.5Zm-5.1,6.5h0l-.3,.5h0l.3-.5Zm4.9-6.7q.1,0,0,0,.1,0,0,0l-.3,.5h0l.3-.5Zm-4.8,6.8h0q.1,0,0,0l-.3,.5h0l.3-.5Zm4.7-6.9h0l-.3,.5h0l.3-.5Zm-4.5,7h0l-.3,.5h0l.3-.5Zm4.3-7.1h0l-.3,.5h0l.3-.5Zm-5.5,5.9h0l-.5,.3h0l.5-.3Zm6.9-4.5h0l-.5,.3h0l.5-.3Zm-6.8,4.6h0l-.5,.4h0l.5-.4Zm6.7-4.8h0l-.5,.4h0l.5-.4Zm-6.6,5h0l-.5,.4h0l.5-.4Zm6.5-5.2h0q0,.1,0,0l-.5,.4h0l.5-.4Zm-6.4,5.3h0l-.4,.4h0l.4-.4Zm6.3-5.4h0l-.4,.4h0l.4-.4Zm-6.2,5.5h0l-.4,.4h0l.4-.4Zm6-5.7h0s0,.1,0,0l-.4,.4h0l.4-.4Zm-6.9,4.3s.1,0,0,0q.1,0,0,0l-.6,.2h0l.6-.2Zm7.9-2.6h0l-.6,.2h0l.6-.2Zm-7.8,2.7h0q0,.1,0,0l-.6,.2h0l.6-.2Zm7.8-2.9h0l-.6,.2h0l.6-.2Zm-7.7,3.1h0l-.5,.3h0l.5-.3Zm7.6-3.3h0s0,.1,0,0l-.5,.3h0l.5-.3Zm-7.6,3.5h0q.1,0,0,0l-.5,.3h0l.5-.3Zm7.5-3.6h0l-.5,.3h0l.5-.3Zm-7.4,3.7h0l-.5,.3h0l.5-.3Zm7.3-3.9h0l-.5,.3h0l.5-.3Zm-7.7,2.3h0l-.6,.1h0l.6-.1Zm8.2-.4s.1,0,0,0c.1,0,0,0,0,0l-.6,.1h0l.6-.1Zm-8.2,.6h0l-.6,.1h0l.6-.1Zm8.2-.8h0l-.6,.1h0l.6-.1Zm-8.2,.9h0q0,.1,0,0l-.6,.1h0l.6-.1Zm8.2-1.1h0l-.6,.1h0l.6-.1Zm-8.2,1.3h0l-.6,.1h0l.6-.1Zm8.2-1.5h0l-.6,.1h0l.6-.1Zm-8.1,1.7h0l-.6,.2h0l.6-.2Zm8-1.9h0l-.6,.2h0l.6-.2Zm-8.1,.2s.1,0,0,0h0l-.6-.1h0l.6,.1Zm8.2,1.7h0l-.6-.1h0l.6,.1Zm-8.2-1.5h0l-.6-.1h0l.6,.1Zm8.2,1.3h0l-.6-.1h0l.6,.1Zm-8.2-1.2h0q0,.1,0,0h0Zm8.2,1-8.2-.8,8.2,.6-8.2-.4,8.2,.2q.1,0,0,0,.1,0,0,0h0Zm-7.8-1.8h0l-.5-.3h0l.5,.3Zm7.4,3.7h0l-.5-.3h0l.5,.3Zm-7.5-3.6h0l-.6-.2h0l.6,.2Zm7.6,3.4h0l-.6-.2h0l.6,.2Zm-7.7-3.2h0l-.6-.2h0l.6,.2Zm7.7,3h0s0,.1,0,0l-.6-.2h0l.6,.2Zm-7.7-2.9h0q0,.1,0,0l-.6-.2h0l.6,.2Zm7.8,2.7s0,.1,0,0q0,.1,0,0l-.6-.2h0l.6,.2Zm-7.9-2.5h0l-.6-.1h0l.6,.1Zm8,2.4h0l-.6-.1h0l.6,.1Zm-3.5-5.1h0l.1-.6h0l-.1,.6Zm-1.7,8.2h0l.1-.6h0l-.1,.6Zm1.5-8.2h0l.1-.6h0l-.1,.6Zm-1.3,8.2h0l.1-.6h0l-.1,.6Zm1.2-8.2h0q-.1,0,0,0v-.6h0v.6Zm-1,8.2h0v-.6h0v.6Zm.8-8.2h0v-.6h0v.6Zm-.6,8.2h0v-.6h0v.6Zm.4-8.2h0v-.6h0v.6Zm-.2,8.2q0,.1,0,0c0,.1,0,0,0,0v-.6h0v.6Zm1.8-7.8h0l.2-.5h0l-.2,.5Zm-3.7,7.4h0l.2-.5h0l-.2,.5Zm3.6-7.5h0l.2-.6h0l-.2,.6Zm-3.4,7.6h0l.2-.6h0l-.2,.6Zm3.2-7.7h0l.2-.6h0l-.2,.6Zm-3,7.7h0l.2-.6h0l-.2,.6Zm2.9-7.7s-.1,0,0,0q-.1,0,0,0l.2-.6h0l-.2,.6Zm-2.7,7.8h0l.2-.6h0l-.2,.6Zm2.5-7.9h0l.1-.6h0l-.1,.6Zm-2.3,8h0q-.1,0,0,0l.1-.6h0l-.1,.6Zm3.7-6.9l.8-.8h0l-.8,.8h0Zm-.8-.5l.5-1h0l-.5,1h0Zm-1.8-.5v-1.1h0v1.1h0Zm-.9,.1l-.3-1.1h0l.3,1.1h0Zm-.8,.4l-.6-.9h0l.6,.9h0Zm-.8,.6l-.8-.8h0l.8,.8h0Zm-.5,.8l-1-.5h0l1,.5h0Zm-.4,.8l-1.1-.3h0l1.1,.3h0Zm-.1,1,.2,.9l-1.1,.3h0l1.1-.3h0Zm.3,.8l-.9,.6h0l.9-.6h0Zm.6,.8l-.8,.8h0l.8-.8h0Zm.8,.5l-.5,1h0l.5-1h0Zm1.8,.5v1.1h0v-1.1h0Zm.9-.1l.3,1.1h0l-.3-1.1h0Zm.8-.4l.6,.9h0l-.6-.9h0Zm.8-.6l.8,.8h0l-.8-.8h0Zm.5-.8l1,.5h0l-1-.5h0Zm.4-.8l1.1,.3h0l-1.1-.3h0Zm.1-1-.1-.9l1.1-.3h0l-1.1,.3h0Zm.5-1.4l-.9,.6h0l.9-.6h0Z"/><path class="cls-6" d="M676.5,535.3l-5.9-1.5c1,.3,2,.6,3.1,.8,.9,.3,1.8,.5,2.8,.7"/><g class="cls-14"><rect class="cls-25" x="671.7" y="530.5" width="9.5" height="9.5"/></g><g class="cls-24"><rect class="cls-28" x="672" y="530.9" width="9.1" height="8.8"/></g><path class="cls-6" d="M677.7,530.6c.6,.2,1.2,.4,1.7,.8-.5-.3-1-.6-1.7-.8-2.2-.5-4.5,.6-5.5,2.5,1-2,3.2-3.1,5.5-2.5"/><g class="cls-16"><rect class="cls-19" x="670.3" y="529.1" width="12.4" height="12.4"/></g><path class="cls-6" d="M677.7,530.5c.6,.2,1.2,.4,1.7,.8-.5-.4-1-.6-1.7-.8-2.2-.5-4.5,.6-5.6,2.6,1-2.1,3.3-3.2,5.6-2.6"/><polygon class="cls-7" points="670.1 533.7 674.3 534.7 676.5 535.3 675.7 533.9 670.1 533.7"/><polygon class="cls-11" points="670.1 533.7 674.3 534.7 676.5 535.3 675.1 536.1 670.1 533.7"/><polygon class="cls-11" points="682.9 536.9 678.7 535.9 676.5 535.3 677.9 534.5 682.9 536.9"/><polygon class="cls-8" points="682.9 536.9 678.7 535.9 676.5 535.3 677.3 536.7 682.9 536.9"/><polygon class="cls-11" points="674.9 541.7 675.9 537.5 676.5 535.3 675.1 536.1 674.9 541.7"/><polygon class="cls-8" points="674.9 541.7 675.9 537.5 676.5 535.3 677.3 536.7 674.9 541.7"/><polygon class="cls-11" points="678.1 528.9 677.1 533.1 676.5 535.3 675.7 533.9 678.1 528.9"/><polygon class="cls-8" points="678.1 528.9 677.1 533.1 676.5 535.3 677.9 534.5 678.1 528.9"/><polygon class="cls-7" points="678 536.7 678.3 537.5 678.7 539.1 677.2 536.4 676.5 535.3 678 536.7"/><polygon class="cls-11" points="677 537.3 677.6 537.9 678.7 539.1 677.2 536.4 676.5 535.3 677 537.3"/><polygon class="cls-7" points="676 533.3 675.4 532.7 674.3 531.5 675.9 534.2 676.5 535.3 676 533.3"/><polygon class="cls-11" points="675 533.9 674.8 533.1 674.3 531.5 675.9 534.2 676.5 535.3 675 533.9"/><polygon class="cls-7" points="677.9 533.8 678.8 533.6 680.3 533.1 677.6 534.6 676.5 535.3 677.9 533.8"/><polygon class="cls-8" points="678.5 534.8 679.1 534.2 680.3 533.1 677.6 534.6 676.5 535.3 678.5 534.8"/><polygon class="cls-7" points="674.5 535.8 673.9 536.4 672.7 537.5 675.4 536 676.5 535.3 674.5 535.8"/><polygon class="cls-8" points="675.1 536.8 674.3 537 672.7 537.5 675.4 536 676.5 535.3 675.1 536.8"/><polygon class="cls-10" points="678.1 529.1 676.6 535.2 679.8 533.4 676.6 535.3 682.4 536.8 676.6 535.4 678.4 538.6 676.5 535.4 674.9 541.5 676.4 535.4 673.3 537.2 676.4 535.3 670.6 533.8 676.4 535.2 674.6 532 676.5 535.2 678.1 529.1"/><polygon class="cls-6" points="676 533.4 676.5 535.2 676.5 535.2 676 533.4"/><path d="M708.6,538.9h.2c0,.1,.1,.2,.2,.2s.2-.1,.2-.2v-.1s-.1,0-.2-.1c-.1,0-.2,0-.2-.1,0,0-.1,0-.1-.1v-.2c0-.1,0-.2,.1-.2,.1-.1,.2-.1,.3-.1,.2,0,.4,.1,.4,.3h-.2c0-.1-.1-.2-.2-.2s-.2,0-.2,.1v.1s.1,0,.2,.1c.1,0,.2,.1,.2,.1,0,0,.1,0,.1,.1v.2c0,.1,0,.2-.1,.2-.1,.1-.2,.1-.3,.1-.2,.1-.4,0-.4-.2m-1.6,0h.2c0,.1,.1,.2,.2,.2s.2-.1,.2-.2v-.1s-.1,0-.2-.1c-.1,0-.2,0-.2-.1,0,0-.1,0-.1-.1v-.2c0-.1,0-.2,.1-.2,.1-.1,.2-.1,.3-.1,.2,0,.4,.1,.4,.3h-.2c0-.1-.1-.2-.2-.2s-.2,0-.2,.1v.1s.1,0,.2,.1c.1,0,.2,.1,.2,.1,0,0,.1,0,.1,.1v.2c0,.1,0,.2-.1,.2-.1,.1-.2,.1-.3,.1-.2,.1-.3,0-.4-.2h0Zm-1.4-.3h.5c0-.1,0-.2-.1-.2,0,0-.1-.1-.2-.1s-.1,0-.2,.1v.2Zm.5,.3h.2c-.1,.2-.2,.3-.4,.3-.1,0-.2,0-.2-.1-.1,0-.1-.1-.2-.2,0-.1-.1-.2-.1-.3v-.3c0-.1,.1-.1,.1-.2,.1,0,.1-.1,.2-.1s.2,0,.3,.1,.1,.1,.1,.2v.3h-.7c0,.1,0,.2,.1,.2q.1,.1,.2,.1c.3,.2,.4,.1,.4,0h0Zm-1.6-.1h.2c0,.1-.1,.2-.1,.3-.1,.1-.2,.1-.3,.1s-.2,0-.3-.1-.1-.2-.1-.4,0-.3,.1-.4c.1-.1,.2-.1,.3-.1,.2,0,.3,.1,.4,.3h-.2c0-.1-.1-.2-.2-.2-.2,0-.3,.1-.3,.4s.1,.4,.3,.4c.1,0,.2-.1,.2-.3h0Zm-1.5,0h.2c0,.1-.1,.2-.1,.3-.1,.1-.2,.1-.3,.1s-.2,0-.3-.1-.1-.2-.1-.4,0-.3,.1-.4c.1-.1,.2-.1,.3-.1,.2,0,.3,.1,.4,.3h-.2c0-.1-.1-.2-.2-.2-.2,0-.3,.1-.3,.4s.1,.4,.3,.4c.1,0,.2-.1,.2-.3h0Zm-1.7,.4h0c-.1,0-.2,.1-.3,.1s-.2,0-.2-.1l-.1-.1v-.8h.2v.8s0,.1,.1,.1h.3c0-.1,.1-.2,.1-.4v-.5h.2v1l-.3-.1h0Zm-2.5-.4h.2c0,.1,.1,.2,.1,.2,.1,.1,.2,.1,.3,.1s.2,0,.2-.1c.1,0,.1-.1,.1-.2s0-.1-.1-.2c-.1,0-.2-.1-.3-.1-.2,0-.3-.1-.3-.2q-.1-.1-.1-.2c0-.1,0-.2,.1-.3s.2-.1,.3-.1c.2,0,.3,0,.4,.1,.1,.1,.1,.2,.1,.3h-.2c0-.2-.1-.3-.3-.3s-.3,.1-.3,.2,0,.1,.1,.1c0,0,.1,.1,.2,.1s.2,.1,.3,.1,.1,.1,.2,.1c0,.1,.1,.1,.1,.2s0,.2-.1,.3-.2,.1-.3,.1c-.2,0-.3,0-.4-.1-.2,.1-.3,0-.3-.1h0Zm-2.4,.4v-1h.1v.2c.1-.1,.1-.2,.2-.2s.1,0,.2,.1l-.1,.2h-.1c-.1,0-.2,.1-.2,.3v.5l-.1-.1h0Zm-1.6-.5c0,.1,0,.2,.1,.3,0,.1,.1,.1,.2,.1s.2,0,.2-.1,.1-.2,.1-.3,0-.2-.1-.3c0-.1-.1-.1-.2-.1s-.2,0-.2,.1c-.1,.1-.1,.2-.1,.3Zm-.1,0c0-.2,0-.3,.1-.4,.1-.1,.2-.1,.3-.1s.2,0,.3,.1,.1,.2,.1,.4,0,.3-.1,.4c-.1,.1-.2,.1-.3,.1-.2,0-.3-.1-.3-.2-.1,0-.1-.2-.1-.3Zm-1.1,.5v-.9h-.1v-.1h.1v-.3s0-.1,.1-.1h.4v.1h-.2v.2h.2v.1h-.2v.9l-.3,.1h0Zm-2.5,0v-1h.1v.2c.1-.1,.1-.2,.2-.2s.1,0,.2,.1l-.1,.1h-.1c-.1,0-.2,.1-.2,.3v.5h-.1Zm-1.5-.6h.5c0-.1,0-.2-.1-.2,0,0-.1-.1-.2-.1s-.1,0-.2,.1v.2Zm.5,.3h.2c-.1,.2-.2,.3-.4,.3-.1,0-.2,0-.2-.1-.1,0-.1-.1-.2-.2,0-.1-.1-.2-.1-.3v-.3c0-.1,.1-.1,.1-.2,.1,0,.1-.1,.2-.1s.2,0,.3,.1,.1,.1,.1,.2v.3h-.7c0,.1,0,.2,.1,.2q.1,.1,.2,.1c.3,.2,.3,.1,.4,0h0Zm-2.4,.3l-.3-1h.2l.2,.8,.2-.8h.2l.2,.8,.2-.8h.2l-.3,1h-.2l-.2-.8-.2,.8h-.2Zm-1.8-.5c0,.1,0,.2,.1,.3,0,.1,.1,.1,.2,.1s.2,0,.2-.1,.1-.2,.1-.3,0-.2-.1-.3-.1-.1-.2-.1-.2,0-.2,.1-.1,.2-.1,.3Zm-.1,0c0-.2,0-.3,.1-.4,.1-.1,.2-.1,.3-.1s.2,0,.3,.1,.1,.2,.1,.4,0,.3-.1,.4c-.1,.1-.2,.1-.3,.1-.2,0-.3-.1-.3-.2-.1,0-.1-.2-.1-.3Zm-1.6-.2h.3c.2,0,.3-.1,.3-.3v-.1l-.1-.1h-.5v.5h0Zm-.2,.7v-1.4h.8c.1,0,.1,.1,.2,.1,0,.1,.1,.1,.1,.2,0,.3-.2,.4-.5,.4h-.3v.6h-.3v.1h0Z"/><path d="M699.9,537.2v-5.8h2.4c1.7,0,2.6,1,2.6,2.9s-.9,2.9-2.7,2.9h-2.3Zm1.7-.4h.4c.4,0,.7-.2,.8-.5,.2-.4,.2-1,.2-1.9s-.1-1.6-.2-1.9c-.2-.4-.4-.5-.9-.5h-.4v4.8h.1Z"/><path d="M694.5,537.2v-5.8h2.5c.7,0,1.2,.1,1.6,.4,.4,.3,.6,.6,.6,1.1,0,.7-.4,1.2-1.3,1.4,.4,.2,.7,.3,.8,.5s.2,.6,.3,1.1c.1,.7,.2,1.1,.3,1.3h-1.8c-.1-.3-.2-.6-.2-1v-.7c0-.7-.3-1-.8-1h-.3v2.8l-1.7-.1h0Zm1.7-3.3h.3c.6,0,1-.3,1-1s-.3-1-1-1h-.3v2Z"/><polygon points="688.3 531.4 688.3 537.2 687 537.2 684.6 533.5 684.6 537.2 684 537.2 684 531.4 685.1 531.4 687.7 535.4 687.7 531.4 688.3 531.4"/><polygon points="714.6 531.5 713.1 533.9 714.9 537.2 713.1 537.2 712 535.2 710.8 537.2 710 537.2 711.6 534.6 709.9 531.5 711.7 531.5 712.8 533.3 713.9 531.5 714.6 531.5"/><polygon points="709.1 531.5 709.1 532 707 532 707 533.8 708.7 533.8 708.7 534.3 707 534.3 707 536.6 709.4 536.6 709.4 537.2 705.4 537.2 705.4 531.5 709.1 531.5"/><path class="cls-13" d="M691.4,531.8c-.3,0-.5,.2-.6,.5s-.2,1-.2,2,.1,1.6,.2,2c.1,.3,.3,.5,.6,.5s.5-.2,.6-.5,.2-1,.2-2-.1-1.6-.2-2c-.1-.3-.3-.5-.6-.5m0-.4c1.7,0,2.5,1,2.5,2.9,0,2-.8,2.9-2.5,2.9s-2.5-1-2.5-3,.8-2.8,2.5-2.8h0Z"/></g><g><path class="cls-22" d="M631.2,55.4h1.2v2.4h2.5v-2.4h1.2v6h-1.2v-2.4h-2.5v2.4h-1.2v-6Z"/><path class="cls-22" d="M640.6,60.1h-2.1l-.5,1.3h-1.3l2.3-6h1l2.3,6h-1.3l-.4-1.3Zm-1.7-1.1h1.4l-.7-2-.7,2Z"/><path class="cls-22" d="M647.4,57.4c0,1-.6,2-2.2,2h-.9v2h-1.2v-6h2.2c1.5,0,2.1,1,2.1,2h0Zm-1.2,0c0-.4-.3-.9-.9-.9h-1v1.7h1c.6,0,.9-.4,.9-.8Z"/><path class="cls-22" d="M652.6,57.4c0,1-.6,2-2.2,2h-.9v2h-1.2v-6h2.2c1.5,0,2.1,1,2.1,2h0Zm-1.2,0c0-.4-.3-.9-.9-.9h-1v1.7h1c.6,0,.9-.4,.9-.8Z"/><path class="cls-22" d="M655.9,59.3v2.1h-1.2v-2.1l-2.1-3.9h1.4l1.3,2.6,1.3-2.6h1.4l-2.1,3.9h0Z"/><path class="cls-22" d="M631.2,65.1h1.2v2.4h2.5v-2.4h1.2v6h-1.2v-2.4h-2.5v2.4h-1.2v-6Z"/><path class="cls-22" d="M637.1,68.2c0-1.7,1.4-3.1,3.1-3.1s3.1,1.4,3.1,3.1-1.4,3.1-3.1,3.1c-1.8-.1-3.1-1.4-3.1-3.1Zm5,0c0-1.1-.8-1.9-1.9-1.9-1,0-1.9,.8-1.9,1.9s.8,1.9,1.9,1.9,1.9-.9,1.9-1.9Z"/><path class="cls-22" d="M648.7,67.1c0,1-.6,2-2.2,2h-1v2.1h-1.2v-6h2.2c1.5-.1,2.2,.9,2.2,1.9Zm-1.3,0c0-.4-.3-.9-.9-.9h-1v1.7h1c.6,.1,.9-.4,.9-.8Z"/><path class="cls-22" d="M653.9,67.1c0,1-.6,2-2.2,2h-.9v2.1h-1.3v-6h2.2c1.5-.1,2.2,.9,2.2,1.9Zm-1.3,0c0-.4-.3-.9-.9-.9h-1v1.7h1c.6,.1,.9-.4,.9-.8Z"/><path class="cls-22" d="M657.5,69.9h-2.1l-.5,1.3h-1.3l2.3-6h1l2.3,6h-1.3l-.4-1.3Zm-1.7-1.1h1.4l-.7-2-.7,2Z"/></g><path d="M174.4,124c1.3,0,2.4,.3,3.4,1,2,1.4,3,3.7,3,7.1,0,2.3-.5,4.3-1.6,5.9-1.2,1.8-2.8,2.7-4.8,2.8v-4.9c.9,0,1.6-.4,2.1-1.2,.4-.7,.7-1.5,.7-2.5,0-.9-.2-1.7-.5-2.3-.4-.7-.8-1-1.4-1-.7,0-1.3,1-1.8,2.9-.7,2.9-1.2,4.7-1.5,5.4-.9,1.9-2.4,2.9-4.3,2.9-1.1,0-2.2-.3-3.1-.8-.9-.5-1.7-1.5-2.2-2.8-.6-1.3-.9-2.7-.9-4.2,0-2,.5-3.8,1.5-5.2,1.1-1.6,2.6-2.4,4.7-2.6v4.7c-1.6,.2-2.4,1.3-2.4,3.2,0,.8,.2,1.5,.5,2,.3,.6,.8,.9,1.3,.9,.7,0,1.2-1,1.7-2.9,.6-2.8,1.2-4.7,1.5-5.5,.8-1.9,2.3-2.9,4.1-2.9Zm5.9-23.8v4.8h-11c-1.3,0-2.2,.2-2.7,.6-.6,.5-.9,1.3-.9,2.6,0,2.5,1.4,3.7,4.2,3.7h10.4v4.8h-18.3v-4.6h2.7c-1-.6-1.8-1.4-2.3-2.4-.6-1.1-.9-2.2-.9-3.4,0-2.4,1-4.2,2.8-5.3,.9-.5,2-.7,3.3-.7l12.7-.1h0Zm-5.9-17.9c1.3,0,2.4,.3,3.4,1,2,1.4,3,3.7,3,7.1,0,2.3-.5,4.3-1.6,5.9-1.2,1.8-2.8,2.7-4.8,2.8v-4.9c.9,0,1.6-.4,2.1-1.2,.4-.7,.7-1.5,.7-2.5,0-.9-.2-1.7-.5-2.3-.4-.7-.8-1-1.4-1-.7,0-1.3,1-1.8,2.9-.7,2.9-1.2,4.7-1.5,5.4-.9,1.9-2.4,2.9-4.3,2.9-1.1,0-2.2-.3-3.1-.8-.9-.5-1.7-1.5-2.2-2.8-.6-1.3-.9-2.7-.9-4.2,0-2,.5-3.8,1.5-5.2,1.1-1.6,2.6-2.4,4.7-2.6v4.8c-1.6,.2-2.4,1.3-2.4,3.2,0,.8,.2,1.5,.5,2,.3,.6,.8,.9,1.3,.9,.7,0,1.2-1,1.7-2.9,.6-2.8,1.2-4.7,1.5-5.5,.8-2,2.3-3,4.1-3Zm5.9-17.4v4.5c-.2,.1-.7,.3-1.5,.4,1.2,1.1,1.8,2.9,1.8,5.3,0,1.7-.4,3.1-1.2,4.2-.9,1.3-2.2,1.9-4,1.9-2.5,0-4.2-1-5.1-2.9-.4-.9-.8-2.7-1.2-5.4-.2-1.9-.8-2.9-1.6-2.9-.7,0-1.3,.3-1.7,.9s-.7,1.2-.7,2,.2,1.5,.7,2c.4,.5,.9,.9,1.6,1v4.7c-1.3-.1-2.4-.5-3.2-1-.9-.6-1.6-1.5-2.1-2.8-.5-1.2-.7-2.6-.7-4.1,0-5.2,2.5-7.8,7.4-7.8h11.5Zm-8.9,5.1c.4,.5,.7,1.3,.9,2.5,.2,1.4,.5,2.2,.7,2.7,.4,.8,1.2,1.3,2.2,1.3,1.4,0,2-.7,2-2.2,0-.7-.1-1.3-.4-2-.3-.7-.7-1.2-1.1-1.6-.6-.5-1.5-.7-2.6-.7h-1.7Zm-16.5,52.9v-4.8h4.8v4.8h-4.8Zm16.3,0v-4.8h9.1v4.8h-9.1Zm10.1-75.8c2.4,0,4.4,.9,5.8,2.6,1.3,1.6,2,3.5,2,5.7s-.6,4-1.9,5.5c-1.4,1.7-3.4,2.5-5.9,2.5v-4.4c1.2,0,2.1-.3,2.7-1,.6-.6,.9-1.3,.9-2.2,0-1-.3-1.9-1-2.6-.8-.8-1.8-1.2-3-1.2h-2.9c.8,.3,1.5,1,1.9,1.9,.5,.9,.7,1.9,.7,3,0,1.8-.5,3.3-1.6,4.5-1.2,1.4-2.9,2.2-5,2.2h-12v-4.8h11.3c2.2,0,3.4-1,3.4-3.1,0-1.1-.3-2-1-2.7-.6-.7-1.5-1-2.4-1h-11.3v-4.8l19.3-.1h0Z"/><text class="cls-21" transform="translate(549.68 155.6)"><tspan x="0" y="0">KARAFFE</tspan></text><g><path d="M615.8,402.4c.1-.5,.3-.9,.4-1.4,.3-1,.5-2,.8-3,.1-.3,.2-.4,.5-.4h1.5c.2,0,.3,.1,.4,.3,.1,1.4,.2,2.8,.4,4.1,.1,.9,.2,1.9,.3,2.8,0,.2,0,.3-.3,.3h-1.1c-.2,0-.3-.1-.3-.3-.1-1.4-.3-2.9-.4-4.3,0,0,0-.1-.1-.1l-.3,.9c-.3,1.2-.7,2.4-1,3.5-.1,.2-.1,.3-.4,.3h-.8q-.3,0-.4-.3c-.3-1.2-.7-2.4-1-3.6-.1-.3-.2-.5-.3-.8,0,.3-.1,.6-.1,.9-.1,1.1-.2,2.1-.3,3.2v.4c0,.2-.1,.2-.3,.3h-1.2c-.2,0-.2-.1-.2-.3,.1-.8,.1-1.6,.2-2.4,.1-.8,.2-1.7,.2-2.5,.1-.7,.1-1.4,.2-2.1,0-.2,.1-.3,.3-.3h1.6c.2,0,.4,.1,.4,.3,.4,1.4,.8,2.8,1.2,4.2q.1,.2,.1,.3h0Z"/><path d="M599.5,401.5v-3.4c0-.3,.1-.4,.4-.4h2.2c.6,0,1.1,.1,1.7,.3,1,.3,1.6,1,1.8,1.9,.3,1,.3,2,0,3-.3,1.3-1.2,2-2.5,2.2-.4,.1-.8,.1-1.1,.1h-2.3c-.2,0-.3-.1-.3-.3v-2.6c.1-.3,.1-.6,.1-.8h0Zm1.8,2.2h1c.9-.1,1.4-.5,1.5-1.3,.1-.6,.1-1.2,0-1.8-.1-.4-.2-.7-.4-1-.6-.6-1.4-.5-2.1-.5v4.6h0Z"/><path d="M624.4,404.4s-.1,.1,0,0c-.8,1.1-2.2,1.3-3.2,.6-.9-.6-1-2.4,.2-3,.5-.3,1.1-.4,1.7-.4h1.2c0-.4-.2-.7-.6-.9-.4-.1-.8-.1-1.2-.1-.3,0-.7,.2-1,.3q-.2,0-.2-.1v-.9c0-.1,0-.2,.2-.3,1-.3,2.1-.5,3.2-.2,1,.3,1.5,1,1.6,2v3.4c0,.2-.1,.3-.3,.3h-1c-.3,0-.3-.1-.3-.4-.3,0-.3-.1-.3-.3h0Zm-.1-1.6h-.5c-.4,0-.7,0-1.1,.1-.3,.1-.5,.4-.4,.7,0,.3,.2,.5,.6,.5,.7,.1,1.4-.5,1.4-1.3h0Z"/><path d="M629.4,401c.3-.4,.6-.8,.8-1.2,.1-.2,.3-.3,.5-.3h1.2c.1,0,.2,0,.2,.1s0,.2-.1,.2c-.6,.8-1.1,1.5-1.7,2.3-.1,.1-.1,.2,0,.3,.6,.8,1.2,1.6,1.7,2.4l.1,.1c.1,.1,0,.2-.1,.2h-1.4c-.1,0-.2-.1-.3-.2-.3-.4-.6-.8-.9-1.2l-.1-.1c0,.1-.1,.1-.1,.2-.3,.4-.6,.8-.8,1.1-.1,.1-.2,.2-.4,.2h-1.2c-.1,0-.2,0-.2-.1v-.2c.6-.8,1.2-1.6,1.8-2.5,.1-.1,.1-.2,0-.3-.6-.8-1.1-1.5-1.7-2.3,0-.1-.1-.2-.1-.2,.1,0,.2-.1,.2-.1h1.3c.2,0,.3,.1,.4,.2,.3,.6,.6,1,.9,1.4h0Z"/><path d="M608.1,400.3c.1-.1,.1-.2,.2-.2,.5-.6,1.3-.7,2-.4,.1,0,.2,.1,.1,.3-.1,.3-.2,.6-.3,1,0,.2-.2,.2-.3,.2-.9-.2-1.6,.3-1.7,1.2v2.7c0,.2-.1,.3-.3,.3h-.9c-.3,0-.4-.1-.4-.4v-4.9c0-.3,.1-.3,.3-.3h1c.2,0,.3,.1,.3,.3,0-.1,0,0,0,.2q0-.1,0,0h0Z"/><path d="M609.1,404.5c0-.5,.3-.8,.8-.8s.8,.4,.8,.9-.3,.8-.8,.8-.8-.4-.8-.9h0Z"/><path class="cls-26" d="M633.1,396.4v1.1h-1.1c-.7,0-.7,1.2,0,1.2h1.1v1.1c0,.7,1.2,.8,1.2,0v-1.1h1.1c.6,0,.6-1.2,0-1.2h-1.1v-1.1c.1-.5-1.2-.6-1.2,0h0Z"/></g><text class="cls-20" transform="translate(616.45 550.43) rotate(-90)"><tspan x="0" y="0">PETRU</tspan></text></g><rect id="Baia_MareGF10B" class="cls-2" x="11" y="26.5" width="65.6" height="133.7"/><polygon id="Baia_MareGF10A" class="cls-2" points="77.1 26.5 125 26.5 125 148.6 125 160.3 134.8 160.2 77.1 160.2 77.1 26.5"/><polygon id="Baia_MareGF08-09" class="cls-2" points="127 26.5 127 146 127 160.2 136.8 160.2 205 160.3 205.2 133.8 205.2 116.5 205.2 26.5 127 26.5"/><polyline id="Baia_MareGF08-09-2" class="cls-2" points="136.8 160.2 205.3 160.2 205.5 133.7"/><polygon id="Baia_MareGF07" class="cls-2" points="205.2 26.5 205.2 114.1 205.3 160.2 230.7 160.2 267.7 160.2 267.7 26.5 205.2 26.5"/><rect id="Baia_MareGF06" class="cls-2" x="268.2" y="26.5" width="64" height="133.7"/><polygon id="Baia_MareGF05" class="cls-2" points="333.2 26.5 333.2 160.2 372.3 160.2 372.3 26.2 333.2 26.5"/><rect id="Baia_MareGF04" class="cls-2" x="374.1" y="26.5" width="40.1" height="133.7"/><rect id="Baia_MareGF03" class="cls-2" x="416.2" y="26.5" width="43.5" height="133.7"/><rect id="Baia_MareGF11" class="cls-2" x="461.5" y="60.2" width="51.3" height="100"/><polygon id="Baia_MareGF01" class="cls-2" points="669.4 713.5 826.8 713.5 826.8 578.2 776.3 578.2 776.3 631.6 669.4 631.6 669.4 713.5"/><rect id="Baia_MareGF02" class="cls-2" x="669.4" y="579.2" width="104.6" height="50.5"/><path id="Baia_MareG05_1G06" class="cls-2" d="M761,577.2h-91.6v-20.7h48.2v-28.1h43.4c0,.1-.9,49.7,0,48.8h0Z"/><rect id="Baia_MareG07_G08" class="cls-2" x="669.4" y="516.8" width="46.6" height="37.8"/><polygon id="Baia_MareG09" class="cls-2" points="761 526.7 761 488.1 669.4 488.1 669.4 515.2 717.8 515.2 717.8 526.7 761 526.7"/><rect id="Baia_MareG00" class="cls-2" x="669.4" y="11.2" width="201.5" height="468"/><polygon id="Baia_MareG424344" class="cls-2" points="660.7 75.2 627.8 75.2 627.8 52.1 645.2 52.1 645.2 30.1 660.7 30.1 660.7 75.2"/><polygon id="Baia_MareG45" class="cls-2" points="627.8 50 643.4 50 643.4 28.2 660.7 28.2 660.7 24.3 627.8 24.3 627.8 50"/><polygon id="Baia_MareG46G47_2" class="cls-2" points="660.7 22.8 660.7 11.2 584 11.2 584 37.6 626.5 37.6 626.5 22.8 660.7 22.8"/><rect id="Baia_MareG47" class="cls-2" x="561.7" y="11.2" width="20.4" height="26.4"/><rect id="Baia_MareG48" class="cls-2" x="525.8" y="11.2" width="34.1" height="26.4"/><polygon id="Baia_MareG49" class="cls-2" points="524.3 11.2 524.3 37.6 512.8 37.6 512.8 51.6 496.8 51.6 496.8 11.2 524.3 11.2"/><rect id="Baia_MareG41" class="cls-2" x="541.6" y="145.7" width="47.8" height="14.5"/><polygon id="Baia_MareG40" class="cls-2" points="541.6 144 541.6 133.4 577.8 133.4 577.8 144.1 541.6 144"/><polygon id="Baia_MareG38_G39" class="cls-2" points="541.6 131.8 561.3 131.8 561.3 107 545.1 107 541.5 110.6 541.6 131.8"/><rect id="Baia_MareD01_D02_G27_G28_G37" class="cls-2" x="562.7" y="107" width="15.1" height="24.9"/><rect id="Baia_MareG36" class="cls-2" x="579.2" y="107" width="11.3" height="24.9"/><rect id="Baia_MareG35" class="cls-2" x="591.8" y="107" width="11.1" height="24.9"/><rect id="Baia_MareG34" class="cls-2" x="604.3" y="107" width="11.2" height="24.9"/><polygon id="Baia_MareG33" class="cls-2" points="616.7 107 616.7 131.8 640.8 131.8 640.8 110.8 637.1 107.1 616.7 107"/><rect id="Baia_MareG32" class="cls-2" x="616.7" y="133.1" width="24.1" height="10.3"/><polygon id="Baia_MareG30-G31" class="cls-2" points="615.3 133.4 579.2 133.4 579.2 144 591.1 144 591.1 186.2 607.5 186.2 607.5 172.6 640.8 172.6 640.8 144.8 615.5 144.8 615.3 133.4"/><rect id="Baia_MareG29" class="cls-2" x="608.9" y="174.1" width="31.9" height="12.1"/><polygon id="Baia_MareG27_G28" class="cls-2" points="640.8 187.6 591.1 187.6 591.1 226.7 607.6 226.7 607.6 213.2 640.8 213.2 640.8 187.6"/><rect id="Baia_MareG26" class="cls-2" x="608.9" y="214.6" width="31.9" height="12"/><rect id="Baia_MareG25" class="cls-2" x="591.1" y="227.9" width="49.6" height="16.2"/><rect id="Baia_MareG24" class="cls-2" x="591.1" y="253.9" width="49.6" height="17.1"/><rect id="Baia_MareG23" class="cls-2" x="604.9" y="272.4" width="35.9" height="13.9"/><rect id="Baia_MareG22" class="cls-2" x="626.6" y="287.7" width="14.2" height="12"/><path id="Baia_MareG19_20" class="cls-2" d="M640.8,299.7v39.6h-49.7v-66.9h13.8v14.6h21.8v12.6c2.6,.1,14.1,.1,14.1,.1h0Z"/><rect id="Baia_MareG21" class="cls-2" x="591.1" y="349.3" width="49.6" height="24.7"/><rect id="Baia_MareG18" class="cls-2" x="591.1" y="375.8" width="49.6" height="14.3"/><rect id="Baia_MareG17" class="cls-2" x="591.1" y="391.5" width="49.6" height="18.4"/><rect id="Baia_MareG16" class="cls-2" x="591.1" y="411.4" width="49.6" height="14.7"/><rect id="Baia_MareG15" class="cls-2" x="591.1" y="427.6" width="49.6" height="14.4"/><rect id="Baia_MareG14" class="cls-2" x="591.1" y="443.6" width="49.6" height="18.2"/><rect id="Baia_MareG13_2" class="cls-2" x="608.1" y="463.6" width="32.6" height="13.1"/><rect id="Baia_MareG13_1" class="cls-2" x="608.1" y="478.2" width="32.6" height="13"/><rect id="Baia_MareG11" class="cls-2" x="608.1" y="493" width="13" height="17.5"/><polygon id="Baia_MareG12" class="cls-2" points="622.7 493 640.8 493 640.8 506.7 637.2 510.3 622.7 510.3 622.7 493"/><rect id="Baia_MareG10" class="cls-2" x="591.5" y="463.6" width="14.7" height="46.8"/><rect id="Baia_MareG01" class="cls-2" x="591.5" y="532.4" width="14.7" height="36.1"/><rect id="Baia_MareD07_G02" class="cls-2" x="608.1" y="532.4" width="13" height="20.5"/><polygon id="Baia_MareG03" class="cls-2" points="622.7 532.4 637.3 532.4 640.5 535.5 640.5 553.1 622.7 553.1 622.7 532.4"/><rect id="Baia_MareG04" class="cls-2" x="608.1" y="554.6" width="32.4" height="13.9"/></svg>