<?xml version="1.0" encoding="UTF-8"?>
<svg id="Layer_4" data-name="Layer 4" xmlns="http://www.w3.org/2000/svg" viewBox="0 0 724.1 765.84">
  <defs>
    <style>
      .cls-1 {
        stroke-width: 2px;
      }

      .cls-1, .cls-2, .cls-3, .cls-4 {
        fill: none;
        stroke-miterlimit: 10;
      }

      .cls-1, .cls-4 {
        stroke: #231f20;
      }

      .cls-2 {
        stroke: #000;
      }

      .cls-5, .cls-6 {
        fill: #f47725;
      }

      .cls-7 {
        font-size: 3.6px;
      }

      .cls-7, .cls-8, .cls-9, .cls-10, .cls-11, .cls-12, .cls-13, .cls-14, .cls-15 {
        fill: #231f20;
      }

      .cls-7, .cls-8, .cls-10, .cls-6, .cls-11, .cls-12, .cls-16, .cls-13, .cls-15 {
        font-family: BritannicBold, 'Britannic Bold';
      }

      .cls-17 {
        fill: #f1f2f2;
      }

      .cls-8 {
        font-size: 7.69px;
      }

      .cls-10 {
        font-size: 5.26px;
      }

      .cls-3 {
        stroke: #f1f2f2;
        stroke-width: 10px;
      }

      .cls-11 {
        font-size: 15.84px;
      }

      .cls-12 {
        font-size: 6.45px;
      }

      .cls-16 {
        fill: #f47825;
        font-size: 26.46px;
      }

      .cls-13 {
        font-size: 3.64px;
      }

      .cls-14 {
        fill-rule: evenodd;
      }

      .cls-15 {
        font-size: 5.19px;
      }

      .cls-18 {
        font-size: 12px;
      }

      .cls-19 {
        fill: #151310;
      }

      .cls-20 {
        font-size: 9.74px;
      }
    </style>
  </defs>
  <g id="cladire">
    <g>
      <polygon class="cls-17" points="399.6 5 476.77 5 476.77 12 681.9 12 681.9 37.4 701.67 37.4 701.67 77.04 644.55 77.04 644.55 326.83 719.1 326.83 719.1 373.52 386.56 373.52 386.56 271.5 386.56 269.81 399.6 269.81 399.6 150.95 399.6 5"/>
      <polygon class="cls-3" points="399.6 5 476.77 5 476.77 12 681.9 12 681.9 37.4 701.67 37.4 701.67 77.04 644.55 77.04 644.55 326.83 719.1 326.83 719.1 373.52 386.56 373.52 386.56 271.5 386.56 269.81 399.6 269.81 399.6 150.95 399.6 5"/>
      <polygon class="cls-1" points="399.6 5 476.77 5 476.77 12 681.9 12 681.9 37.4 701.67 37.4 701.67 77.04 644.55 77.04 644.55 326.83 719.1 326.83 719.1 373.52 386.56 373.52 386.56 271.5 386.56 269.81 399.6 269.81 399.6 150.95 399.6 5"/>
    </g>
    <g>
      <polygon class="cls-17" points="244.18 150.95 118.55 150.95 118.55 760.84 5 760.84 5 84.5 118.55 84.5 118.55 5 244.18 5 244.18 150.95"/>
      <polygon class="cls-3" points="244.18 150.95 118.55 150.95 118.55 760.84 5 760.84 5 84.5 118.55 84.5 118.55 5 244.18 5 244.18 150.95"/>
      <polygon class="cls-1" points="244.18 150.95 118.55 150.95 118.55 760.84 5 760.84 5 84.5 118.55 84.5 118.55 5 244.18 5 244.18 150.95"/>
    </g>
  </g>
  <g id="magazine">
    <line class="cls-4" x1="5" y1="665.97" x2="118.55" y2="665.97"/>
    <line class="cls-4" x1="5" y1="597.67" x2="118.55" y2="597.67"/>
    <line class="cls-4" x1="5" y1="551.7" x2="118.55" y2="551.7"/>
    <line class="cls-4" x1="5" y1="499.39" x2="118.55" y2="499.39"/>
    <line class="cls-4" x1="5" y1="427.52" x2="118.55" y2="427.52"/>
    <line class="cls-4" x1="5" y1="325.54" x2="118.55" y2="325.54"/>
    <line class="cls-4" x1="5" y1="281.15" x2="118.55" y2="281.15"/>
    <line class="cls-4" x1="5" y1="236.24" x2="118.55" y2="236.24"/>
    <polyline class="cls-4" points="5 229.63 21.2 229.63 21.2 193.24 5 193.24"/>
    <line class="cls-4" x1="21.2" y1="210.27" x2="118.55" y2="210.27"/>
    <line class="cls-4" x1="118.55" y1="84.5" x2="118.55" y2="150.95"/>
    <polyline class="cls-4" points="118.55 24.5 150.13 24.5 150.13 5"/>
    <line class="cls-4" x1="172.78" y1="5" x2="172.78" y2="150.95"/>
    <line class="cls-4" x1="244.18" y1="5" x2="244.18" y2="150.95"/>
    <polyline class="cls-4" points="399.6 105.64 443.94 105.64 448.21 110.17 448.21 192.69 399.6 192.69"/>
    <polyline class="cls-4" points="399.6 200.79 448.21 200.79 448.21 305.28 443.68 309.81 386.56 309.81"/>
    <line class="cls-4" x1="399.6" y1="269.81" x2="448.21" y2="269.81"/>
    <polyline class="cls-4" points="448.21 283.86 416.18 283.86 416.18 274.74 416.18 269.81"/>
    <line class="cls-4" x1="428.85" y1="283.86" x2="428.85" y2="309.81"/>
    <polyline class="cls-4" points="386.56 335.76 495.3 335.76 495.3 373.52"/>
    <line class="cls-4" x1="408.05" y1="373.52" x2="408.05" y2="335.76"/>
    <line class="cls-4" x1="434.98" y1="373.52" x2="434.98" y2="335.76"/>
    <polyline class="cls-4" points="434.98 355.26 461.25 355.26 461.25 335.76"/>
    <polyline class="cls-4" points="524.41 373.52 524.41 327.66 478.21 327.66 478.21 49.43"/>
    <line class="cls-4" x1="503.4" y1="327.66" x2="503.4" y2="373.52"/>
    <polyline class="cls-4" points="399.6 36.55 412.78 36.55 425.67 49.43 448.21 49.43 448.21 13.8 444.02 13.8 444.02 5"/>
    <polyline class="cls-4" points="417.03 40.79 423.88 33.95 423.88 5"/>
    <polyline class="cls-4" points="521.6 12 521.6 22.9 497.04 22.9 497.04 34.47 464.41 34.47 464.41 49.43 497.31 49.43 497.04 34.47"/>
    <line class="cls-4" x1="448.21" y1="175.15" x2="399.6" y2="175.15"/>
    <line class="cls-4" x1="422.8" y1="175.15" x2="422.8" y2="105.64"/>
    <line class="cls-4" x1="422.8" y1="124.04" x2="448.21" y2="124.04"/>
    <line class="cls-4" x1="422.8" y1="138.2" x2="448.21" y2="138.2"/>
    <line class="cls-4" x1="422.8" y1="152.36" x2="448.21" y2="152.36"/>
    <line class="cls-4" x1="448.11" y1="256.62" x2="399.6" y2="256.62"/>
    <polyline class="cls-4" points="5 688.57 46.22 688.57 46.22 709.04 118.55 709.04"/>
    <polyline class="cls-4" points="399.56 210.21 415 210.21 415 200.79"/>
    <polyline class="cls-4" points="428.81 290.51 412.03 290.51 412.03 309.85"/>
  </g>
  <g id="logo">
    <text class="cls-11" transform="translate(41.13 229.63)"><tspan x="0" y="0">NORIEL</tspan></text>
    <g>
      <polygon class="cls-5" points="363.84 321.12 360.46 315.37 364.41 315.29 367.8 321.04 364.64 326.93 360.69 327 363.84 321.12"/>
      <polygon class="cls-5" points="358.43 321.23 355.04 315.47 358.99 315.39 362.38 321.15 359.22 327.03 355.27 327.11 358.43 321.23"/>
      <polygon class="cls-5" points="353.01 321.33 349.62 315.58 353.57 315.5 356.96 321.25 353.81 327.14 349.85 327.22 353.01 321.33"/>
    </g>
    <g>
      <polygon class="cls-5" points="367.88 75.88 364.49 70.13 368.45 70.05 371.84 75.81 368.68 81.69 364.73 81.77 367.88 75.88"/>
      <polygon class="cls-5" points="362.46 75.99 359.07 70.24 363.03 70.16 366.42 75.91 363.26 81.8 359.31 81.87 362.46 75.99"/>
      <polygon class="cls-5" points="357.05 76.1 353.66 70.34 357.61 70.26 361 76.02 357.84 81.9 353.89 81.98 357.05 76.1"/>
    </g>
    <path class="cls-5" d="M520.45,343.35c0-.89-.72-1.61-1.61-1.61h-10.52c-.89,0-1.61.72-1.61,1.61v10.52c0,.89.72,1.61,1.61,1.61h10.52c.89,0,1.61-.72,1.61-1.61v-10.52ZM516.58,343.77c.45,0,.81.36.81.8,0,.45-.36.81-.81.81s-.8-.36-.8-.81c0-.44.36-.8.8-.8ZM510.38,343.77c.45,0,.81.36.81.8,0,.45-.36.81-.81.81s-.8-.36-.8-.81c0-.44.36-.8.8-.8ZM511.98,346.07l-.22,2.69c-.02.17-.12.31-.29.37h0c-.16.06-.27.21-.28.39l-.21,3.49c-.02.23-.21.42-.45.42h-.3c-.24,0-.43-.18-.45-.42l-.21-3.49c-.01-.17-.12-.33-.28-.39-.16-.06-.27-.21-.29-.38l-.22-2.69c-.02-.22.13-.42.35-.47l.22-.05c.15-.03.3,0,.41.12l.31.31c.17.17.46.17.63,0l.31-.31c.11-.11.26-.15.41-.12l.22.05c.2.05.35.26.33.48ZM513.69,353.43c0,.12-.1.21-.22.21s-.22-.1-.22-.21v-9.66c0-.12.1-.22.22-.22s.22.1.22.22v9.66ZM518.15,349.14c-.15.04-.25.18-.23.33l.09.69c.02.16-.09.32-.25.34l-.2.02c-.14.02-.25.14-.25.28l-.14,2.21c-.02.24-.21.42-.45.42h-.3c-.24,0-.43-.18-.45-.42l-.14-2.21c0-.14-.12-.26-.25-.28l-.21-.02c-.16-.02-.28-.18-.25-.34l.09-.69c.02-.15-.07-.3-.23-.33-.15-.04-.25-.19-.22-.35l.61-2.88c.04-.2.28-.31.45-.19l.57.37c.09.06.22.06.33,0l.57-.37c.18-.11.41-.02.46.19l.61,2.88c.03.15-.07.31-.23.35Z"/>
    <path class="cls-5" d="M439.67,64.47c-.17.02-.8.18-1.41.34-4.45,1.16-8.06,4.77-9.33,9.31-.38,1.38-.53,4.11-.29,5.59.65,4.05,3.21,7.66,6.83,9.59,1.5.8,4.2,1.64,4.2,1.31s-1.46-7.97-1.58-8.27c-.07-.18-.66-.83-1.32-1.44-1.35-1.25-1.69-1.74-1.95-2.87-.22-.95-1.26-7.4-1.26-7.82,0-.31.41-.55.61-.35.06.06.48,1.75.92,3.76.76,3.39.83,3.64,1.08,3.68.14.02.29-.04.32-.12.04-.08-.31-1.8-.77-3.81-.46-2.01-.8-3.69-.77-3.75.02-.05.19-.08.37-.08h.34s.83,3.74.83,3.74c.85,3.82.92,3.99,1.38,3.7.14-.1.05-.67-.65-3.78-.46-2.01-.79-3.75-.74-3.85.04-.1.19-.18.35-.18.26,0,.31.11.8,2.3,1.22,5.49,1.14,5.19,1.41,5.23.14.02.29-.04.32-.12.04-.08-.31-1.8-.77-3.81-.76-3.33-.8-3.67-.64-3.81.46-.35.53-.17,1.73,3.99,1.11,3.84,1.17,4.12,1.13,4.97-.04.74-.13,1.11-.6,2.16-.38.89-.55,1.43-.55,1.8,0,.63,2.22,8.43,2.33,8.15.04-.1.31-1.35.61-2.78l.55-2.6-.2-.61c-.22-.67-.2-1.23.14-4.56.23-2.28.62-4.2,1.37-6.68.79-2.64,1.58-4.24,2.57-5.25,1.25-1.27,1.99-1.16,1.99.29,0,1.01-2.94,16.27-3.25,16.85-.16.3-.4,1.35-.66,2.88-.23,1.32-.44,2.54-.48,2.72l-.06.32.64-.18c2.54-.73,4.46-1.88,6.23-3.74,2.37-2.48,3.58-5.53,3.6-9.01.01-3.73-1.32-6.96-3.93-9.54-1.83-1.82-4.29-3.1-6.86-3.6-.82-.16-3.82-.22-4.58-.08h0ZM439.67,64.47"/>
    <g>
      <path class="cls-14" d="M558.42,318.4c0-1.47,1.19-2.57,3.05-2.57,1.63,0,3.15.37,4.79.37,1.31,0,2.61-.37,3.92-.37,2.18,0,3.27,1.75,3.27,3.4,0,2.21-1.2,3.22-3.81,3.03-1.31,0-2.07,0-3.16.73-1.09.92-1.41,2.2-1.41,3.49,0,5.06,5.99,5.61,10.56,5.61,5,0,10.34-.55,10.34-5.79,0-1.1-.22-2.39-1.09-3.12-1.09-1.01-2.07-1.01-3.48-1.01-1.2,0-1.96.09-2.94-.55-.98-.55-1.41-1.47-1.41-2.48,0-2.57,2.29-3.77,5.22-3.77,7.18,0,10.55,5.79,10.55,11.21,0,3.68-1.3,7.17-4.57,9.74-3.16,2.48-8.38,3.49-12.52,3.49-3.81,0-8.59-.64-11.86-2.48-3.7-2.02-5.66-5.7-5.66-9.37,0-2.76.98-5.05,3.38-6.98-1.85.19-3.16-.92-3.16-2.57h0Z"/>
      <path class="cls-14" d="M573.11,305.17c2.17,0,3.16,1.75,3.16,3.49,0,1.93-1.63,3.68-4.03,3.68-5,0-5.76-5.7-5.76-8.82,0-2.02.22-4.78,1.42-6.53,1.74-2.39,4.46-2.57,7.4-2.57h8.92c.65,0,2.29.09,2.29-.64,0-.37-.11-.64-.11-1.01,0-1.29,1.31-2.02,2.72-2.02,2.61,0,3.7,2.3,3.7,4.13s-.87,3.95-3.15,4.59c2.18,1.93,3.15,4.41,3.15,6.89,0,3.68-2.28,7.26-7.18,7.26-11.32,0-5.44-12.5-11.75-12.5-1.85,0-2.72,1.38-2.72,2.66,0,.73.11,1.38,1.09,1.38h.87ZM581.16,301.13c1.53,1.1.76,5.79,3.37,5.79,1.63,0,2.18-1.1,2.18-2.3,0-2.39-1.63-3.49-4.46-3.49h-1.09Z"/>
      <path class="cls-14" d="M576.27,285.41c-.65,0-3.37-.18-3.37.74,0,.37.33.83.33,1.38,0,1.29-1.31,1.75-2.72,1.75-1.85,0-3.26-.73-3.26-2.02,0-1.19.43-2.02.43-2.76,0-.92-.43-1.75-.43-2.66,0-1.19.87-1.29,1.96-1.29h3.59c-3.92-.74-6.1-3.22-6.1-6.62,0-2.75,2.5-5.33,5.99-5.33,2.39,0,4.68,1.29,4.68,3.49,0,1.56-1.2,2.85-3.05,2.85-.76,0-1.31-.27-1.96-.46-.33,4.5,6.96,4.59,10.77,4.59.65,0,3.37.18,3.37-.74,0-.37-.33-.83-.33-1.29,0-1.38,1.2-1.84,2.72-1.84,1.74,0,3.26.73,3.26,2.02-.11,2.21-.54,3.86-.54,5.51,0,1.47.43,3.03.54,4.5,0,1.29-1.52,2.02-3.26,2.02-1.52,0-2.72-.46-2.72-1.75,0-.55.33-1.01.33-1.38,0-.92-2.72-.74-3.37-.74h-6.85Z"/>
      <path class="cls-14" d="M576.27,263.27c-.65,0-3.37-.18-3.37.74,0,.37.33.83.33,1.29,0,1.38-1.31,1.84-2.72,1.84-1.85,0-3.26-.74-3.26-2.02,0-1.19.43-2.02.43-2.85s-.43-1.75-.43-2.67c0-1.1.87-1.19,1.96-1.19h3.59c-3.92-.73-6.1-3.22-6.1-6.61,0-2.85,2.5-5.33,5.99-5.33,2.39,0,4.68,1.29,4.68,3.49,0,1.56-1.2,2.85-3.05,2.85-.76,0-1.31-.28-1.96-.55-.33,4.59,6.96,4.69,10.77,4.69.65,0,3.37.19,3.37-.73,0-.37-.33-.83-.33-1.38,0-1.29,1.2-1.75,2.72-1.75,1.74,0,3.26.74,3.26,2.02-.11,2.2-.54,3.77-.54,5.42,0,1.56.43,3.12.54,4.59,0,1.29-1.52,2.02-3.26,2.02-1.52,0-2.72-.46-2.72-1.84,0-.46.33-.92.33-1.29,0-.92-2.72-.74-3.37-.74h-6.85Z"/>
      <path class="cls-14" d="M580.95,237.36c0,.83-.33,1.84.98,1.84,2.72,0,4.79-1.84,4.79-4.13,0-3.49-3.7-3.22-3.7-6.34,0-1.56,1.09-2.85,2.94-2.85,2.18,0,3.81,1.38,4.9,2.85,1.41,1.84,1.96,4.14,1.96,6.43,0,6.62-5.33,10.66-13.06,10.66s-13.27-3.95-13.27-10.57c0-2.39.65-4.96,2.61-6.8,2.07-1.93,5.33-2.94,8.38-2.94,2.72,0,3.48.28,3.48,2.67v9.19h0ZM575.62,233.59c0-.64.33-1.38-.76-1.38-.76,0-1.63.37-2.07.83-.66.64-.87,1.38-.87,2.2,0,1.1.22,1.93,1.2,2.76.43.37,1.2,1.01,1.85,1.01.98,0,.66-1.29.66-1.75v-3.67h0Z"/>
      <path class="cls-14" d="M583.12,214.66c.65,0,3.37.18,3.37-.74,0-.37-.33-.74-.33-1.29,0-1.38,1.2-1.75,2.72-1.75,1.74,0,3.26.64,3.26,2.39-.11,1.65-.54,3.31-.54,4.96,0,1.56.43,3.03.54,4.41,0,1.56-1.52,2.2-3.26,2.2-1.52,0-2.72-.46-2.72-1.75,0-.55.33-.92.33-1.38,0-.83-2.72-.74-3.37-.74h-8.81c-1.63,0-1.85-.09-1.85,1.38,0,1.56-.44,2.48-2.5,2.48-1.96,0-2.83-.64-2.83-2.3,0-1.19.11-1.56-1.52-1.56-5.22-.18-7.4-3.95-7.4-7.99,0-1.29.33-2.94.98-4.14.87-1.38,2.4-2.39,4.24-2.39,2.18,0,3.81,1.19,3.81,3.03,0,1.29-1.2,2.76-2.83,2.76-.55,0-.87-.18-1.31-.37-.22.28-.22.46-.22.74,0,1.56,1.09,2.02,2.72,2.02,1.52,0,1.52-.09,1.52-1.38,0-1.66.11-2.85,2.61-2.85,2.18,0,2.72.83,2.72,2.58,0,1.65-.11,1.65,1.85,1.65h8.81Z"/>
      <path class="cls-14" d="M579.31,188.66c7.94,0,13.49,3.31,13.49,10.38s-5,10.84-13.16,10.84-13.17-3.77-13.17-10.75c0-6.62,5.11-10.47,12.84-10.47h0ZM572.57,199.14c-.11,3.31,3.92,4.04,7.07,4.04,2.83,0,7.07-.74,7.07-3.77,0-1.38-.44-2.57-2.07-3.22-1.41-.64-3.37-.92-5-.92-3.05,0-7.18.64-7.18,3.86h.11Z"/>
      <path class="cls-14" d="M576.27,185.72c-.65,0-3.37-.09-3.37.73,0,.46.33.83.33,1.38,0,1.29-1.31,1.74-2.72,1.74-1.85,0-3.26-.64-3.26-3.67,0-.83.43-1.66.43-2.57s-.43-1.84-.43-2.85c0-1.38,1.41-1.1,2.61-1.1h11.32c1.09,0,2.72,0,3.7-.46.87-.46,1.42-1.38,1.42-2.21,0-1.19-.65-2.3-1.85-2.94-1.53-.83-3.16-.92-5.01-.92h-3.15c-.65,0-3.37-.18-3.37.74,0,.37.33.83.33,1.28,0,1.38-1.31,1.84-2.72,1.84-1.85,0-3.26-.73-3.26-3.49,0-.83.43-1.65.43-2.57s-.43-1.84-.43-2.85c0-1.38,1.09-1.29,2.28-1.29h13.6c.65,0,3.37.18,3.37-.74,0-.36-.33-.83-.33-1.38,0-1.29,1.2-1.75,2.72-1.75,1.74,0,3.26.73,3.26,2.39-.11,1.01-.54,1.93-.54,2.85s.43,1.84.54,2.57c-.11,1.56-1.52,1.47-2.5,1.47h-.98c2.61,1.56,4.03,4.41,4.03,7.17,0,2.02-.87,4.41-3.05,5.6-1.96,1.2-4.79,1.01-7.18,1.01h-6.2Z"/>
      <path class="cls-14" d="M576.27,157.15c-.65,0-3.37-.09-3.37.73,0,.46.33.83.33,1.38,0,1.29-1.31,1.75-2.72,1.75-1.85,0-3.26-.64-3.26-2.02,0-1.19.43-1.93.43-2.75,0-.92-.43-1.75-.43-2.67,0-1.19.87-1.29,1.96-1.29h3.59c-3.92-.73-6.1-3.22-6.1-6.52,0-2.85,2.5-5.33,5.99-5.33,2.39,0,4.68,1.28,4.68,3.4,0,1.56-1.2,2.85-3.05,2.85-.76,0-1.31-.28-1.96-.46-.33,4.5,6.96,4.59,10.77,4.59.65,0,3.37.19,3.37-.73,0-.37-.33-.74-.33-1.29,0-1.38,1.2-1.75,2.72-1.75,1.74,0,3.26.64,3.26,2.02-.11,2.11-.54,3.77-.54,5.42,0,1.56.43,3.03.54,4.5,0,1.38-1.52,2.02-3.26,2.02-1.52,0-2.72-.46-2.72-1.75,0-.55.33-.92.33-1.38,0-.83-2.72-.73-3.37-.73h-6.85Z"/>
      <path class="cls-14" d="M579.1,38.71c.54,0,1.09.46,1.09.46l26.01,21.96c.98.83.33,1.38-.44,1.11-1.31-.55-2.61-1.38-5.88-2.21-4.57-1.1-8.38-1.1-10.55-.64-2.18.46-6.42,2.67-6.42,7.26,0,5.97,6.53,7.72,8.92,7.63,1.52-.09,4.03,0,6.2-2.11,1.63-1.56.98-3.13.98-3.49-.11-.37-.65-1.19.87-1.19,1.85,0,4.03,1.28,5,2.2.98.83,3.81,3.86,3.81,8.09,0,2.57-1.42,5.51-4.35,7.72-2.18,1.66-4.78,2.66-8.38,3.68-6.64,1.84-11.64,2.21-16.86,2.21-4.68,0-9.9-.46-16.54-2.21-3.48-.92-6.75-2.3-8.71-3.68-3.05-2.02-4.24-5.14-4.24-7.72,0-4.23,2.72-7.26,3.7-8.09.98-.92,3.16-2.2,5-2.2,1.52,0,.98.83.87,1.19,0,.36-.65,1.93.98,3.49,2.18,2.11,4.68,2.02,6.31,2.11,2.28.09,8.81-1.66,8.81-7.63,0-4.6-4.24-6.8-6.42-7.26-2.18-.46-5.99-.46-10.56.64-3.26.83-4.57,1.66-5.76,2.21-.76.28-1.53-.27-.44-1.11l25.9-21.96s.54-.46,1.09-.46h0Z"/>
      <path class="cls-14" d="M578.88,119.66c.54,0,1.09-.37,1.09-.37l26.66-23.52c.65-.55,0-.74-.54-.55-.33.09-.54.19-1.85.92-10.77,6.43-25.36,6.25-25.36,6.25,0,0-14.58.18-25.35-6.25-1.31-.73-1.52-.83-1.85-.92-.54-.18-1.2,0-.54.55l26.66,23.52s.55.37,1.09.37h0Z"/>
    </g>
    <g>
      <path class="cls-9" d="M45.63,475.81c-3.1,1.78-6.47,2.66-10.07,2.66-4.2,0-7.62-1.22-10.21-3.7-2.73-2.56-4.09-5.87-4.09-9.91s1.34-7.37,4.07-9.89c2.7-2.52,6.33-3.79,10.86-3.79,3.19,0,6.26.74,9.22,2.17v6.17c-2.89-1.87-5.82-2.82-8.78-2.82-2.66,0-4.76.74-6.28,2.19-1.52,1.46-2.29,3.44-2.29,5.96s.72,4.39,2.17,5.87c1.45,1.5,3.42,2.24,5.89,2.24,3.16,0,6.33-1.11,9.52-3.33v6.17h0Z"/>
      <path class="cls-9" d="M100.58,475.81c-3.1,1.78-6.47,2.66-10.07,2.66-4.2,0-7.62-1.22-10.21-3.7-2.73-2.56-4.09-5.87-4.09-9.91s1.34-7.37,4.07-9.89c2.7-2.52,6.33-3.79,10.86-3.79,3.19,0,6.26.74,9.22,2.17v6.17c-2.89-1.87-5.82-2.82-8.78-2.82-2.66,0-4.76.74-6.28,2.19-1.52,1.46-2.29,3.44-2.29,5.96s.72,4.39,2.17,5.87c1.46,1.5,3.42,2.24,5.89,2.24,3.17,0,6.33-1.11,9.52-3.33v6.17h0Z"/>
      <path class="cls-9" d="M73.09,475.81c-3.1,1.78-6.47,2.66-10.05,2.66-4.21,0-7.62-1.22-10.21-3.7-2.73-2.56-4.09-5.87-4.09-9.91s1.34-7.37,4.07-9.89c2.7-2.52,6.33-3.79,10.86-3.79,3.16,0,6.24.74,9.19,2.17v6.17c-2.89-1.87-5.82-2.82-8.75-2.82-2.66,0-4.76.74-6.28,2.19-1.52,1.46-2.29,3.44-2.29,5.96s.72,4.39,2.17,5.87c1.46,1.5,3.42,2.24,5.89,2.24,3.14,0,6.31-1.11,9.49-3.33v6.17h0Z"/>
    </g>
    <g>
      <path d="M224.57,57.51c0,2.07-.02,4.15.01,6.22,0,.63-.21.91-.84.84-.02,0-.05,0-.07,0q-1.71.02-1.91-1.69c-.09-.82-.48-1.12-1.28-.88-1.55.46-3.08.96-4.61,1.48-.18.06-.39.36-.39.55-.02,3.21-.02,6.42,0,9.62,0,.19.21.48.39.55,1.37.59,2.75,1.17,4.14,1.7,1.18.45,1.64.12,1.77-1.15.03-.33.02-.67.02-1.01,0-.14-.04-.33.02-.43.57-.82,1.41-.27,2.12-.39.44-.07.61.25.61.69-.01,1.74,0,3.47,0,5.21,0,1.11-.01,2.22,0,3.33,0,.53-.2.77-.73.71-.02,0-.05,0-.07,0-.58-.02-1.29.15-1.68-.12-.32-.22-.28-.98-.35-1.51-.12-.91-.69-1.37-1.48-1.69-5.89-2.45-11.77-4.91-17.66-7.37-3.13-1.31-6.26-2.63-9.4-3.91-.61-.25-.85-.59-.82-1.25.05-.94.04-1.88,0-2.82-.03-.66.21-.98.85-1.2,7.55-2.62,15.09-5.27,22.63-7.92,1.48-.52,2.95-1.03,4.43-1.56,1.2-.43,1.5-.87,1.54-2.14q.03-1.06,1.03-1.06c1.9,0,1.71-.17,1.72,1.7,0,1.83,0,3.67,0,5.5ZM200.58,68.08c4.24,1.71,8.28,3.33,12.38,4.98v-8.73c-4.09,1.24-8.12,2.46-12.38,3.75Z"/>
      <path d="M219.99,88.06c1.28,0,2.56.02,3.83,0,.57-.01.79.2.75.76-.03.46.03.92-.02,1.37-.03.25-.17.56-.36.7-.46.32-.5.7-.4,1.2.34,1.72.81,3.43.94,5.17.54,7.42-3.37,13.01-10.54,15.06-4.95,1.41-9.84,1.14-14.49-1.17-5.51-2.75-7.99-8.15-7.46-14,.13-1.45.5-2.84,1.14-4.15.44-.9.28-1.26-.54-1.79-.22-.14-.39-.46-.43-.72-.07-.47,0-.96-.02-1.44-.01-.5.22-.68.7-.67,2.58.01,5.16.01,7.74,0,.54,0,.71.22.73.73.07,1.89.08,1.88-1.76,2.35-1.75.45-3.41,1.11-4.19,2.89-1.37,3.09-.76,5.89,2.16,7.64,1.92,1.15,4.03,1.73,6.22,1.98,4.32.49,8.62.42,12.82-.81,1.13-.33,2.22-.94,3.21-1.59,3.13-2.09,2.8-8.68-1.54-10.01-.8-.25-1.62-.46-2.44-.63-.44-.09-.61-.29-.6-.73.06-2.53-.37-2.03,2.01-2.08.84-.02,1.69,0,2.53,0Z"/>
      <path d="M206.75,83.11c.77-.52,1.57-1.05,2.54-1.7-.87-.41-1.6-.81-2.38-1.09-.42-.15-.57-.34-.56-.77.03-.89,0-1.78,0-2.81.64.31,1.39.22,1.36,1.19,0,.19.27.44.47.59.85.62,1.73,1.21,2.64,1.85.81-.51.87-1.4.88-2.3,1.21.16,1.29.27,1.32,1.42.02.94-.07,1.83-.71,2.6.87,1.31,1.11,2.74.85,4.28-.28,1.65-1.29,2.82-2.73,3.09-1.32.26-2.61-.41-3.49-1.81-.21-.34-.38-.71-.51-.96-.82.19-1.6.52-2.36.49-.61-.02-1.31-.36-1.78-.78-1.23-1.1-1.38-3.53-.41-4.87.89-1.25,2.66-1.35,3.68-.17.45.52.78,1.15,1.19,1.75ZM211.04,83.2c-1.17.85-2.29,1.67-3.46,2.52.67.91,1.52,1.3,2.57,1.2.8-.08,1.42-.48,1.66-1.28.28-.94.04-1.75-.78-2.43ZM205.6,84.21c-.48-.99-1.11-1.38-1.93-1.45-.71-.06-1.27.39-1.28.97,0,.61.5,1.14,1.2,1.06.66-.08,1.29-.36,2.02-.58Z"/>
    </g>
    <g>
      <path class="cls-9" d="M130.92,82.52c0,17.04,7.71,30.38,17.55,30.38,9.84,0,17.56-13.35,17.56-30.38,0-17.04-7.71-30.38-17.56-30.38-9.84,0-17.55,13.35-17.55,30.38ZM163.92,82.52c0,15.62-6.92,28.28-15.45,28.28s-15.45-12.66-15.45-28.28,6.92-28.28,15.45-28.28,15.45,12.66,15.45,28.28Z"/>
      <path class="cls-9" d="M157.92,99.28c-.96,0-.81,1.15-1.2,1.15-.12,0-.21-.1-.21-.34,0-.19.03-.37.08-.55l-.73-.05c-.03.19-.05.4-.05.56,0,.81.39,1.28,1,1.28,1.05,0,.79-1.15,1.23-1.15.14,0,.23.13.23.34,0,.23-.05.49-.11.65l.78.05c.04-.2.06-.42.06-.63,0-.82-.46-1.31-1.08-1.31"/>
      <path class="cls-14" d="M156.9,96.26c.25,0,.39.2.39.41,0,.01,0,.03,0,.06h-.75s0-.07,0-.08c0-.29.17-.4.37-.4M156.87,95.38c-.68,0-1.03.45-1.03,1.27,0,.34.01.65.03.93h3.07s0-.85,0-.85h-.95c0-.06,0-.11,0-.13,0-.82-.53-1.22-1.12-1.22Z"/>
      <path class="cls-14" d="M157.39,91.78c.65,0,.83.35.83.62,0,.41-.32.58-.84.58-.58,0-.81-.3-.81-.6,0-.41.28-.6.81-.6M157.35,90.88c-1.11,0-1.54.64-1.54,1.44s.65,1.56,1.64,1.56,1.56-.47,1.56-1.44c0-.87-.65-1.56-1.65-1.56Z"/>
      <path class="cls-14" d="M156.87,87.82c.23,0,.35.16.35.39,0,.05,0,.11,0,.14h-.66s0-.1,0-.16c0-.28.15-.37.33-.37M158.94,86.71l-.94.55c-.12.07-.23.14-.36.22-.13-.36-.48-.56-.84-.56-.68,0-.96.44-.96,1.22,0,.39,0,.76.03,1.05h3.07s0-.85,0-.85h-1.12v-.03l1.12-.58v-1.03Z"/>
      <polyline class="cls-9" points="156.6 83.25 155.87 83.25 155.87 85.42 156.6 85.42 156.6 84.76 158.94 84.76 158.94 83.91 156.6 83.91 156.6 83.25"/>
      <path class="cls-9" d="M157.92,79.66c-.96,0-.81,1.15-1.2,1.15-.12,0-.21-.1-.21-.34,0-.19.03-.37.08-.55l-.73-.05c-.03.19-.05.41-.05.56,0,.81.39,1.28,1,1.28,1.05,0,.79-1.15,1.23-1.15.14,0,.23.13.23.34,0,.23-.05.49-.11.66l.78.05c.04-.2.06-.42.06-.63,0-.82-.46-1.31-1.08-1.31"/>
      <path class="cls-9" d="M146.22,98.63v3.25s-4.86,0-5.33,0c-.72,0-1.01-.43-1.01-.43v3.95s.29-.44,1.01-.44c.46,0,11.72,0,12.18,0,.72,0,1.02.44,1.02.44v-3.96s-.3.43-1.02.43c-.47,0-3.68,0-5.66,0v-3.25h5.66c.72,0,1.02.43,1.02.43v-3.96s-.3.44-1.02.44c-.47,0-11.72,0-12.18,0-.72,0-1.01-.45-1.01-.45v3.96s.29-.43,1.01-.43c.46,0,5.33,0,5.33,0"/>
      <path class="cls-9" d="M149.2,85.85c-2.8,0-5.07,1.71-5.07,4.12s2.28,4.36,5.09,4.36,5.09-1.95,5.09-4.36c0-2.04-1.64-3.64-3.84-4.11v1.11s.87.19,1.77.92c.76.62.78,1.47.7,2.05-.18,1.32-1.64,1.45-3.73,1.44v-5.52s0,0,0,0ZM148.13,91.3c-1.67-.06-2.81-.42-2.81-1.38s1.1-1.4,2.81-1.42v2.79Z"/>
      <path class="cls-9" d="M144.33,80.26c0-1.03.06-1.61.09-1.72.2-.85.88-1.3,1.48-1.3.72,0,1.3.67,1.3,1.49s-.58,1.49-1.3,1.49c-.39,0-.74-.2-.98-.51,0,0-.28.91.39,1.54.32.3.72.3.72.3,0,0,6.58,0,7.05,0,.72,0,1.02-.43,1.02-.43v3.94s-.3-.43-1.02-.43h-7.72c-.72,0-1.02.44-1.02.44v-4.82"/>
      <path class="cls-9" d="M154.09,75.18l-4.87-1.94c-.48-.19-.68.33-.68.33v-2.43s.1.55.68.83l8.4,3.31v1.99s-8.4,2.78-8.4,2.78c-.47.17-.68.63-.68.63v-4.2c.25.54.68.32.68.32l4.87-1.62"/>
      <path class="cls-9" d="M144.33,67.34v3.83s.3-.43,1.02-.43h7.72c.72,0,1.02.43,1.02.43v-3.83s-.3.43-1.02.43h-7.72c-.72,0-1.02-.43-1.02-.43"/>
      <path class="cls-9" d="M142.26,70.74c-.72,0-1.3-.67-1.3-1.49s.58-1.49,1.3-1.49,1.3.66,1.3,1.49-.58,1.49-1.3,1.49"/>
      <path class="cls-9" d="M149.67,64.32c.41-.78.64-1.56.91-2.09.27-.53.73-.87,1.25-.87.84,0,1.52.91,1.52,2.02,0,.42-.1.81-.27,1.14-.16-.39-.5-.84-1.16-.84-.72,0-1.3.67-1.3,1.49,0,.62.33,1.15.8,1.37,0,0,.39.17.78.08.09-.02.28-.09.36-.13.98-.49,1.62-1.68,1.68-4.05-.06-2.65-1.37-4.44-3.02-4.44-.72,0-1.39.25-1.91.87-.34.41-.67.79-1.15,1.9-.29.66-.5,1.33-.7,1.72-.23.53-.68.89-1.21.89-.75,0-1.36-.74-1.36-1.66,0-.2.03-.39.08-.56l.06.1c.24.31.59.51.98.51.72,0,1.3-.66,1.3-1.49s-.58-1.49-1.3-1.49c-.47,0-.94.33-1.25.86-.4.68-.64,1.54-.64,2.48,0,2.22,1.35,4.01,3.02,4.01,1.06,0,1.99-.73,2.53-1.82h0"/>
    </g>
    <g>
      <path class="cls-9" d="M25.38,147.21c0-1.89,1.38-2.8,2.36-3.02.98-.22,3.56-.22,4.51-1.02.92-.78,1.45-1.89,1.34-3.27-.11-1.38-.44-4.41-5.12-4.62-1.6-.07-3.27.56-4.43,1.42v30.3h7.99c.23-.86.3-1.76.3-1.76.03-.25.04-.51.06-.76.15-3.1-.95-6.93-3.24-10-2.31-3.12-3.78-5.38-3.78-7.27ZM29.1,137.54c.15-.15.36-.24.6-.24.37,0,.79.18,1.11.49.35.34.54.75.54,1.11,0,.22-.07.43-.22.58-.39.41-1.14.3-1.71-.25-.33-.32-.53-.72-.54-1.09,0-.24.07-.45.22-.61Z"/>
      <path class="cls-9" d="M37.87,140.8c.94.04.8-.4.8-.4-.44-.37-3.02-1.82-3.02-1.82-.36.95.14,2.04.14,2.04,0,0,1.13.15,2.07.18Z"/>
      <path class="cls-9" d="M24.04,131.34v2.94c1.06-.51,2.64-1.04,4.61-1.04,3.85,0,5.63,2.47,5.63,2.47,0,0,2.29.95,3.89,2.18,1.6,1.24,2.91,2.58,3.02,2.76.11.18.4.87-.58,1.2-.98.33-2.94.69-4.95.69,0,0-1.31,2.33-3.38,3.05-2.07.73-4.48.03-4.58,1.93-.07,1.31,1.09,2.87,1.53,3.49.44.62,5.41,5.57,5.13,13.16-.06,1.46-.27,2.59-.31,2.81h68.07v-35.66H24.04ZM50,151.7c0,3.25-2.29,5.58-5.56,5.58-1.69,0-3.55-.73-4.87-1.77l2.01-5.04c.3.78.65,1.71,1.58,1.71s1.04-1.08,1.04-1.77v-9.7h5.8v10.99ZM62.41,157.03h-5.8v-7.03l-5.69-9.28h6.71l1.82,4.26h.17c.18-.52.33-1.04.54-1.54l1.17-2.73h6.67l-5.59,9.28v7.03ZM72.98,157.29c-2.05,0-4.44-.56-6.28-1.49l1.82-4.61.3.24c1.06.82,2.33,1.5,3.7,1.5.58,0,1.51-.24,1.51-.97s-.78-.8-1.32-.91l-1.19-.22c-2.32-.41-4.27-1.77-4.27-4.33,0-3.87,3.53-6.04,7.08-6.04,1.86,0,3.57.45,5.17,1.43l-1.6,4.18c-1.01-.69-2.16-1.24-3.43-1.24-.52,0-1.28.2-1.28.87,0,.61.74.69,1.19.8l1.34.3c2.51.56,4.33,1.91,4.33,4.67,0,3.89-3.55,5.82-7.07,5.82ZM91.41,157.03l-2.81-4.93c-.35-.62-.86-1.23-1-1.9h-.13l.13,6.84h-5.78v-16.31h5.78l-.13,7.08h.13c.13-.67.5-1.25.82-1.84l2.86-5.24h6.47l-5.11,7.94,5.65,8.37h-6.88Z"/>
    </g>
    <g>
      <path class="cls-9" d="M46.56,257.89h0c0,3.09-2.48,5.83-5.59,5.83s-5.6-2.74-5.6-5.82,2.48-5.83,5.6-5.83,5.59,2.71,5.59,5.82M49.57,266.08v-16.37h-3.2v.99c0,.4.07,1.15.07,1.15h-.16c-1.19-1.39-2.77-2.67-5.31-2.67-4.9,0-8.75,3.78-8.75,8.71s3.85,8.71,8.75,8.71c2.53,0,4.12-1.34,5.31-2.67h.16s-.07.79-.07,1.16v.99h3.2Z"/>
      <polygon class="cls-9" points="24.93 252.72 30.08 252.72 30.45 249.71 15.76 249.71 15.76 252.72 21.65 252.72 21.65 266.08 24.93 266.08 24.93 252.72"/>
      <path class="cls-9" d="M57.96,249.71h-3.15v16.37h3.15v-6.49l1.08-1.08,6.21,7.57h4.09l-8.07-9.58,6.87-6.78h-4.04l-6.15,6.15h-.12s.12-.26.12-.87v-5.29Z"/>
      <path class="cls-9" d="M101.53,257.9c0,3.08-2.48,5.82-5.59,5.82s-5.6-2.75-5.6-5.82,2.48-5.83,5.6-5.83,5.59,2.71,5.59,5.83M104.68,257.9c0-4.93-3.85-8.71-8.74-8.71s-8.74,3.78-8.74,8.71,3.85,8.71,8.74,8.71,8.74-3.78,8.74-8.71"/>
      <path class="cls-9" d="M75.38,249.71h-3.15v16.37h3.15v-6.49l1.08-1.08,6.21,7.57h4.09l-8.07-9.58,6.87-6.78h-4.04l-6.15,6.15h-.12s.12-.26.12-.87v-5.29Z"/>
    </g>
    <g id="Brandingmodul_Deichmann_quadratisch_vertikal">
      <path id="Deichmann" class="cls-9" d="M16.99,306.72c0,1.36-.57,2.75-2.21,2.76h-2.11s-.03-5.46-.03-5.46h1.88c1.53-.02,2.46.85,2.47,2.69M19.91,306.72c-.02-2.74-1.69-4.94-4.98-4.92-.2,0-5.17.03-5.17.03l.06,9.91s4.95-.03,5.17-.03c3.3-.02,4.94-2.25,4.92-4.99M21.61,311.66l8.38-.05v-2.14s-5.53.03-5.53.03v-1.79s4.56-.03,4.56-.03v-2.05s-4.59.03-4.59.03v-1.79s5.5-.03,5.5-.03v-2.14s-8.39.05-8.39.05l.06,9.91ZM32.03,311.6l2.86-.02-.06-9.91-2.86.02.06,9.91ZM39.66,306.58c0-1.67.57-3.1,2.34-3.11,1.21,0,1.8.73,2.04,1.58l2.85-.02c-.15-2.21-2.07-3.76-4.9-3.75-3.58.02-5.27,2.4-5.25,5.31.02,2.92,1.74,5.27,5.32,5.25,2.97-.02,4.73-1.7,4.86-3.86l-2.84.02c-.16.88-.73,1.61-2.04,1.62-1.77.01-2.37-1.38-2.38-3.04M55.59,311.45l2.87-.02-.06-9.91-2.87.02.02,3.78-4.2.03-.02-3.78-2.86.02.06,9.91,2.86-.02-.02-3.92,4.2-.03.02,3.91ZM70.55,311.36l2.64-.02-.06-9.91-4.13.03-1.92,6.55h-.02l-2-6.53-4.13.02.06,9.91,2.64-.02-.05-7.41h.02l2.31,7.4,2.36-.02,2.22-7.43h.02l.05,7.41ZM81.15,307.63h-2.41s1.17-3.74,1.17-3.74h.03l1.21,3.74ZM82.36,311.28l3.07-.02-3.76-9.89-3.5.02-3.67,9.94,3.07-.02.51-1.61,3.76-.02.53,1.61ZM93.48,311.22l3.17-.02-.06-9.91-2.77.02.04,6.21h-.02l-4.02-6.18-3.3.02.06,9.91h2.77s-.04-6.28-.04-6.28h.03l4.15,6.24ZM109.26,311.12l-.06-9.91-2.77.02.04,6.21h-.02l-4.02-6.18-3.3.02.06,9.91,2.77-.02-.04-6.26h.02l4.15,6.24,3.17-.02Z"/>
    </g>
    <g>
      <polygon class="cls-9" points="10.23 369.5 15.59 371.7 21.8 382.25 21.8 373.63 26.22 374.75 26.22 391.19 22.18 391.19 14.89 379.03 14.89 391.19 10.23 391.19 10.23 369.5 10.23 369.5"/>
      <polygon class="cls-9" points="28.14 375.2 28.14 391.19 38.42 391.19 38.42 387.45 32.85 387.45 32.85 384.93 37.35 384.98 37.35 382.09 32.85 381.71 32.85 379.68 37.46 380.16 37.46 376.73 28.14 375.2 28.14 375.2"/>
      <polygon class="cls-9" points="38.52 376.89 41.68 391.19 45.64 391.19 48.32 383.64 50.25 391.19 54.13 391.19 57.58 378.88 53.82 378.66 52.07 384.93 50.36 378.28 46.66 377.96 44.25 384.98 42.77 377.51 38.52 376.89 38.52 376.89"/>
      <polygon class="cls-9" points="61.72 391.19 64.3 391.19 64.3 379.09 72.22 367.46 66.49 367.46 61.72 375.37 56.96 367.46 51.22 367.46 59.15 379.09 59.15 391.19 61.72 391.19 61.72 391.19"/>
      <path class="cls-9" d="M71.48,378.29l-3.87.26-1.87,1.75v1.97s0,6.92,0,6.92l1.92,2h3.73s1.82-2.04,1.82-2.04v-9.18s-1.74-1.69-1.74-1.69h0ZM70.52,388.78h-1.94v-7.45h1.94v7.45h0Z"/>
      <path class="cls-9" d="M81.93,379.02l-1.42-1.45-6.06.57v3.72s0,9.31,0,9.31h2.98s0-5.25,0-5.25h1.63v5.25s2.86,0,2.86,0v-5.92s-.94-1.04-.94-1.04l.94-1.1v-4.1h0ZM79.07,383.18h-1.63v-2.88h1.63v2.88h0Z"/>
      <polygon class="cls-9" points="83.43 377.1 83.43 391.19 87.02 391.19 87.02 385.38 89.91 391.19 93.66 391.19 89.6 382.95 93.16 375.55 89.42 376.21 87.02 381.01 87.02 376.62 83.43 377.1 83.43 377.1"/>
      <polygon class="cls-9" points="93.88 375.44 101.38 373.7 101.38 377.02 97.95 377.85 97.95 380.26 101.35 379.83 101.35 383.69 97.95 383.96 97.95 387.33 101.57 387.33 101.57 391.19 93.88 391.19 93.88 375.44 93.88 375.44"/>
      <path class="cls-14" d="M106.81,379.56v-3.89s2.41-.66,2.41-.66v4.25s-2.41.3-2.41.3h0ZM102.95,391.19h3.85s0-7.63,0-7.63l2.41-.14v7.77s4.1,0,4.1,0v-8.3s-1.37-1.87-1.37-1.87l1.26-2.01v-6.54s-1.74-2.01-1.74-2.01l-8.52,2.81v3.97s0,13.95,0,13.95h0Z"/>
    </g>
    <g>
      <g>
        <path class="cls-9" d="M79.32,527.04c.39.26.85.39,1.39.4.53,0,1.04-.14,1.52-.4.47-.26.87-.62,1.2-1.07.33-.46.54-.98.65-1.57.07-.48,0-.92-.19-1.32-.19-.41-.49-.73-.88-.99-.39-.25-.86-.38-1.39-.39-.54,0-1.04.14-1.51.39-.47.25-.87.58-1.19.99-.32.4-.52.85-.6,1.32-.09.59-.04,1.11.14,1.57.19.45.48.81.87,1.07Z"/>
        <path class="cls-9" d="M45.13,521.65c-.28-.04-.59-.06-.94-.05h-.45l-.4,2.54h.45c.32,0,.63,0,.93-.05.29-.04.55-.15.76-.32.21-.17.35-.47.42-.87.06-.42.02-.72-.12-.91-.14-.18-.35-.3-.63-.34Z"/>
        <path class="cls-9" d="M63.35,512.48c-16.39,0-29.67,5.41-29.67,12.08s13.28,12.08,29.67,12.08,29.68-5.41,29.68-12.08-13.29-12.08-29.68-12.08ZM75.55,524.38c.18-1.04.59-1.95,1.24-2.73.65-.79,1.44-1.4,2.36-1.84.92-.44,1.88-.67,2.87-.68,1,0,1.88.23,2.66.68.78.44,1.37,1.06,1.77,1.84.41.79.53,1.7.38,2.73-.19,1.11-.58,2.08-1.2,2.92-.61.84-1.38,1.5-2.3,1.98-.92.47-1.93.71-3.03.72-1.1,0-2.03-.25-2.8-.72-.77-.48-1.33-1.14-1.68-1.98-.35-.84-.44-1.82-.27-2.92ZM47.3,525.45c-.71.56-1.64.84-2.81.83h-1.5l-.54,3.38h-2.65l1.62-10.2h4.06c.74,0,1.36.11,1.88.35.52.24.89.6,1.12,1.1.23.49.29,1.13.17,1.91-.2,1.2-.65,2.08-1.36,2.63ZM56.83,523.42l-.35,2.25h-4.54l-.28,1.76h4.7l-.36,2.25h-7.35l1.61-10.2h7.36l-.35,2.24h-4.71l-.27,1.71h4.54ZM66.25,522.82c-.2,1.2-.65,2.08-1.36,2.63-.71.56-1.64.84-2.81.83h-1.5l-.54,3.38h-2.65l1.61-10.2h4.06c.74,0,1.36.11,1.88.35.52.24.89.6,1.12,1.1.24.49.29,1.13.17,1.91ZM66.77,524.58c.11-.7.35-1.37.7-2.02.36-.64.82-1.21,1.39-1.72.59-.52,1.25-.92,1.97-1.21.72-.29,1.45-.43,2.17-.44.84,0,1.62.18,2.34.51l-.5,3.18c-.22-.37-.52-.64-.89-.84-.38-.19-.8-.29-1.26-.29-.55,0-1.04.13-1.48.38-.45.25-.82.59-1.11,1.01-.29.43-.48.9-.57,1.44-.12.82.03,1.48.45,1.99.42.51,1.04.77,1.88.78.44,0,.87-.1,1.31-.29.43-.19.82-.46,1.15-.79l-.5,3.18c-.46.14-.87.25-1.25.34-.38.09-.77.13-1.17.14-.72,0-1.38-.13-1.99-.39-.61-.26-1.14-.63-1.6-1.11-.48-.51-.8-1.09-.96-1.74-.17-.65-.18-1.35-.06-2.11ZM71.34,535.44c-6.04.7-5.43.52-.1-.31,10.59-1.65,18.71-6.05,18.71-11.27,0-1.63-.67-3.49-2.25-4.84.97.58,2.08,1.34,2.66,2.2.76,1,1.19,2.27,1.19,3.38,0,5.23-9.05,9.56-20.22,10.84Z"/>
        <path class="cls-9" d="M62.72,521.65c-.28-.04-.6-.06-.94-.05h-.45l-.4,2.54h.44c.33,0,.64,0,.93-.05.3-.04.55-.15.76-.32.21-.17.35-.47.42-.87.06-.42.02-.72-.12-.91-.14-.18-.36-.3-.63-.34Z"/>
      </g>
      <path class="cls-9" d="M48.29,512.45c34.78-7.32,49.2,4.45,47.53,12.12-.03.11-.03.23-.05.34,5.12-7.66,1.4-21.54-25.45-18.53-5.76.65-14.32,3.09-22.03,6.07"/>
      <path class="cls-9" d="M78.41,536.69c-34.78,7.33-49.2-4.44-47.53-12.11.03-.11.03-.23.05-.34-5.12,7.66-1.4,21.53,25.45,18.53,5.76-.65,14.32-3.09,22.03-6.07"/>
    </g>
    <g>
      <path class="cls-14" d="M100.18,585.32c1.53,1.66,4.57,2.13,7.84,1h0c.39-.09.43-.79.39-1.79l4.22-1.44c.57-.17.87-.7.74-1.26-.26-.57-.79-.78-1.35-.65l-4,1.35c-.09-.39-.17-.78-.35-1.18-.13-.39-.3-.78-.48-1.18l4.14-1.35c.48-.17.78-.7.61-1.26-.13-.48-.78-.78-1.26-.61l-4.35,1.39c-.52-.87-1-1.35-1.31-1.26h0c-3.26,1.04-5.44,3.22-5.7,5.44h0c0,.17-.22.39-.39.39,0,0-17.51,3.7-40.06,3.66-27.26-.09-40.02-5.7-46.73-7.53-.39-.13-.79-.13-1.04.26-.17.39.09.78.48.96.22.13,17.42,10.54,47.21,10.54,20.68,0,33.83-3.61,40.8-5.66h.22c.17,0,.26,0,.3.17h.09Z"/>
      <path class="cls-14" d="M48.88,575.74l.09-.13,2.22-4.96.78,5.09h-3.09ZM52.59,565.99c-2.05,0-3.4.39-4.31,2.35,0,0-6.01,12.24-6.18,12.45h4.57s.83-1.87.83-1.87h4.97s.22,1.74.22,1.87h5.14c0-.21-2.61-14.41-2.61-14.5-.96-.26-1.74-.3-2.61-.3h0ZM32.34,569.91c0-.13.52-3.44.52-3.62h-6.22c-3.09,0-3.92,1.48-4.36,4.09,0,0-1.3,8.84-1.39,9.01.13.09,4.27,1.09,4.4,1.18.09-.26.74-4.44.74-4.44h3.61c0-.13.48-3.31.57-3.53h-3.66l.48-2.7h5.31ZM39.09,566.29h-4.57c0,.17-1.66,10.71-1.66,10.71l-.13,1.35c0,.7.13,1.26.48,1.65.43.57,1.26.78,2.57.78h4.92c.09-.13.61-4,.7-4.27h-3.88s1.57-10.02,1.57-10.23h0ZM99.18,573.56c-.26,2.44-1.92,3.4-3.35,3.4-.69,0-1.31-.35-1.79-.83-.57-.61-.78-1.57-.65-2.66.26-2.31,1.74-3.31,3.27-3.31.78,0,1.39.22,1.87.78.57.52.78,1.48.65,2.61h0ZM102.62,568.03c-1.18-1.35-3.14-2.05-5.53-2.05-4.01,0-8.36,2.92-8.76,7.8v.78c0,1.83.57,3.4,1.61,4.57,1.18,1.26,3.05,2,5.45,2,.7,0,1.39-.09,2.14-.26.91-2.44,3.22-4.57,6.31-5.66.13-.65.3-1.35.39-2v-.78c0-1.78-.57-3.31-1.61-4.4h0ZM85.33,569.91c.74,0,1.61.17,2.22.31.09-.13,1.05-3.75,1.05-4.01-.78-.17-1.83-.22-2.39-.22-5.84,0-9.06,4.09-9.71,7.97-.31,2.18,0,3.92,1.13,5.18,1,1.26,2.92,1.92,5.27,1.92,1.13,0,2.4-.17,3.48-.39,0-.18.22-3.87.31-4.14-.7.26-1.39.35-2.22.35-.91,0-1.79-.35-2.26-.96-.57-.65-.79-1.48-.57-2.53.35-2.35,2.22-3.48,3.7-3.48h0ZM70.75,571.65c-.09.96-.22,2.13-.22,2.13l-.18,1.26-.61-1.87c-.39-1.26-1.35-4.27-1.83-6.88h-6.53c0,.17-2.31,14.29-2.31,14.5h4.4c0-.13.87-5.1.96-6.05.17-1.04.39-3,.39-3,0,0,.48,1.74.65,2.35.13.74.87,3.18,1.09,3.87.87,2.83,2.22,3.18,4.66,3.18.87,0,1.66-.09,2.53-.35,0-.04,2.31-14.28,2.31-14.5h-4.44c0,.17-.7,4.36-.87,5.36h0Z"/>
    </g>
    <g>
      <path class="cls-9" d="M38.44,643.03c-1.31-.06-2.52-.05-3.73-.18-1.46-.15-2.05-.66-2.16-2.11-.12-1.54-.08-3.1.03-4.64.09-1.2.86-1.87,2.06-1.9,2.44-.05,4.89-.06,7.33-.02,1.29.02,2.05.72,2.13,2.01.09,1.56.08,3.13,0,4.7-.06,1.16-.75,1.81-1.92,1.92-1.28.12-2.56.15-3.75.22ZM38.32,640.65s0-.03,0-.05c.64,0,1.29.01,1.93,0,.81-.03,1.19-.32,1.23-.98.04-.69.04-1.39,0-2.09-.05-.75-.33-1.02-1.09-1.04-1.39-.03-2.78-.02-4.17.01-.66.01-.95.31-.97.97-.03.7-.02,1.39,0,2.09.02.63.21.88.85.96.74.09,1.49.09,2.24.12Z"/>
      <path class="cls-9" d="M20.26,637.08c-.75,0-1.51.01-2.28,0-.1,0-.27-.16-.29-.27-.06-.37-.3-.54-.63-.54-1.21,0-2.43,0-3.64.03-.19,0-.46.15-.56.32-.21.37.04.71.53.73,1.41.07,2.82.13,4.22.2.43.02.85.05,1.28.11,1.03.15,1.63.7,1.72,1.74.06.65.02,1.32-.08,1.97-.13.86-.71,1.43-1.59,1.49-1.56.11-3.14.14-4.7.16-.78,0-1.57-.03-2.35-.15-1.39-.21-2.11-1.3-1.81-2.64.03-.12.23-.27.36-.28.64-.03,1.29-.03,1.93,0,.12,0,.32.17.34.29.09.5.37.67.86.67,1.23-.02,2.46-.01,3.7-.01.4,0,.7-.11.73-.59.03-.47-.28-.58-.65-.59-1.3-.06-2.6-.1-3.9-.16-.52-.02-1.03-.05-1.55-.11-.93-.1-1.57-.64-1.68-1.53-.08-.65-.07-1.32,0-1.97.11-.97.72-1.57,1.68-1.67,2.22-.23,4.45-.27,6.68.02,1.18.15,2.02.9,1.67,2.78Z"/>
      <path class="cls-9" d="M81.04,636.96c-.75,0-1.51.01-2.28,0-.1,0-.26-.15-.27-.24-.04-.41-.3-.58-.65-.58-1.2-.01-2.39,0-3.59.03-.2,0-.47.14-.58.3-.25.37.02.74.54.77,1.43.07,2.85.13,4.28.2.44.02.89.05,1.33.13.89.15,1.48.69,1.57,1.58.07.67.06,1.36-.04,2.02-.15.97-.71,1.52-1.68,1.59-1.55.11-3.1.13-4.65.15-.76,0-1.54-.03-2.29-.14-1.58-.24-1.93-1.16-1.83-2.62,0-.11.22-.29.34-.3.64-.03,1.29-.04,1.93,0,.14,0,.35.22.39.38.1.4.31.57.72.56,1.27,0,2.54,0,3.8,0,.39,0,.7-.09.73-.58.03-.52-.33-.59-.69-.61-1.36-.06-2.71-.1-4.07-.15-.46-.02-.93-.05-1.39-.11-.9-.12-1.5-.63-1.62-1.53-.09-.66-.06-1.35.02-2.02.12-.92.71-1.51,1.62-1.6,2.28-.24,4.56-.34,6.83.05,1.36.23,1.95,1.33,1.53,2.74Z"/>
      <path class="cls-9" d="M55.82,642.84c-.83,0-1.56,0-2.29,0-.35,0-.47-.16-.45-.5.02-.21,0-.43,0-.64-.02-.77-.15-.98-.87-1-1.42-.04-2.84,0-4.32,0v2.14c-.85,0-1.65,0-2.44,0-.36,0-.31-.28-.31-.5,0-1.43,0-2.86,0-4.29,0-1.12,0-2.25-.01-3.37,0-.36.1-.51.48-.51,2.7,0,5.39-.02,8.09.01,1.47.02,2.14.72,2.2,2.19.02.52,0,1.03-.02,1.55-.03.7-.36,1.22-1.1,1.53.94.31,1.07,1.01,1.06,1.8,0,.5,0,.99,0,1.58ZM47.91,636.5v1.85c1.61,0,3.19.03,4.77-.03.52-.02.48-.55.47-.93,0-.4-.03-.87-.56-.88-1.55-.03-3.09,0-4.69,0Z"/>
      <path class="cls-9" d="M24.18,640.82c0,.72,0,1.36,0,2.07-.85,0-1.65.02-2.44-.02-.11,0-.28-.32-.28-.49-.02-1.79-.02-3.57-.02-5.36,0-.79,0-1.57,0-2.36,0-.28.09-.44.4-.43,2.61.03,5.21.01,7.82.09,1.31.04,2,.73,2.11,2.04.07.86.04,1.75-.06,2.61-.12,1.01-.76,1.61-1.81,1.72-.83.09-1.67.1-2.51.11-1.03.02-2.07,0-3.19.01ZM24.22,638.51c1.38,0,2.73,0,4.08-.01.58,0,.75-.22.76-.85.02-.84-.11-1.08-.72-1.11-.73-.04-1.46-.02-2.19-.02-.64,0-1.27,0-1.93,0v1.98Z"/>
      <path class="cls-9" d="M93.46,639.51c.77-1.68,1.51-3.27,2.21-4.87.2-.45.45-.6.93-.58,1.21.03,2.43.02,3.64,0,.36,0,.5.1.5.49,0,2.57,0,5.15.01,7.72,0,.36-.13.47-.47.46-.54-.02-1.07-.03-1.61,0-.49.04-.66-.14-.65-.63.04-1.71.04-3.43.05-5.14,0-.17,0-.35,0-.52l-.15-.08c-.11.14-.25.26-.33.41-.89,1.75-1.79,3.49-2.64,5.26-.26.55-.6.67-1.18.74-1.13.14-1.69-.29-2.13-1.3-.7-1.6-1.56-3.12-2.35-4.68-.09-.19-.18-.38-.29-.63.87-.17,1.66-.34,2.47-.47.1-.02.28.22.36.37.54,1.12,1.06,2.26,1.62,3.46Z"/>
      <path class="cls-9" d="M62.98,636.46c0,1.21,0,2.33,0,3.45,0,.79,0,1.57,0,2.36,0,.38-.11.55-.52.53-.61-.03-1.21-.03-1.82,0-.46.03-.58-.16-.58-.59.01-1.7-.02-3.39,0-5.09,0-.55-.15-.71-.69-.68-.89.05-1.78,0-2.68.02-.32,0-.45-.11-.44-.43.02-.48.01-.96,0-1.45,0-.31.09-.45.43-.45,3.19,0,6.39,0,9.58-.02.35,0,.48.14.47.48-.01.46-.01.93,0,1.39.01.35-.13.47-.48.46-1.07-.01-2.14,0-3.29,0Z"/>
      <path class="cls-9" d="M67.2,638.45c0-1.27,0-2.54-.02-3.8,0-.4.12-.54.52-.52.62.03,1.25.02,1.88,0,.34,0,.48.11.48.46,0,2.59,0,5.18.01,7.77,0,.33-.14.44-.45.43-.66-.01-1.32-.02-1.98,0-.37.01-.45-.15-.44-.48.01-1.29,0-2.57,0-3.86Z"/>
      <path class="cls-9" d="M82.15,639.52c0-.91,0-1.82,0-2.73,0-.38.08-.54.53-.48.63.09,1.28.11,1.92.12.35,0,.47.15.47.48,0,1.78,0,3.56.01,5.34,0,.37-.14.5-.51.49-.62-.02-1.25-.02-1.87,0-.4.02-.54-.12-.53-.52.02-.91,0-1.82,0-2.73Z"/>
      <path class="cls-9" d="M88.85,639.52c0,.91-.01,1.82.01,2.73.01.38-.1.56-.5.55-.59-.02-1.18,0-1.76,0-.31,0-.46-.12-.46-.44,0-1.84,0-3.67-.01-5.51,0-.28.12-.4.42-.42.59-.04,1.17-.11,1.75-.19.37-.05.53.08.53.45,0,.94,0,1.89,0,2.83,0,0,.02,0,.03,0Z"/>
      <path class="cls-9" d="M81.86,627.49c-.17.34-.89,1.8-.83,2.78,1.09,0,3.6-.83,3.64-1.11-.52-.66-2.68-.32-2.76-1.65,0-.02-.03-.03-.04-.01Z"/>
      <path class="cls-9" d="M86.14,642.36c0-1.84,0-3.67-.01-5.51,0-.28.12-.4.42-.42.59-.04,1.17-.11,1.75-.19.37-.05.53.08.53.45,0,.94,0,1.89,0,2.83,0,0,.02,0,.03,0,0,.91-.01,1.82.01,2.73.01.38-.1.56-.5.55-.59-.02-1.18,0-1.76,0-.31,0-.46-.12-.46-.44Z"/>
      <path class="cls-9" d="M82.68,642.76c-.4.02-.54-.12-.53-.52.02-.91,0-1.82,0-2.73,0-.91,0-1.82,0-2.73,0-.38.08-.54.53-.48.63.09,1.28.11,1.92.12.35,0,.47.15.47.48,0,1.78,0,3.56.01,5.34,0,.37-.14.5-.51.49-.62-.02-1.25-.02-1.87,0Z"/>
      <path class="cls-9" d="M95.67,634.64c.2-.45.45-.6.93-.58,1.21.03,2.43.02,3.64,0,.36,0,.5.1.5.49,0,2.57,0,5.15.02,7.72,0,.36-.13.47-.47.46-.54-.02-1.07-.03-1.61,0-.49.04-.66-.14-.65-.63.04-1.71.04-3.43.05-5.14,0-.17,0-.35,0-.52-.05-.03-.1-.06-.15-.08-.11.14-.25.26-.33.41-.89,1.75-1.79,3.49-2.64,5.26-.26.55-.6.67-1.18.74-1.13.14-1.69-.29-2.13-1.3-.7-1.6-1.56-3.12-2.35-4.68-.09-.19-.18-.38-.29-.63.87-.17,1.66-.34,2.47-.47.1-.02.28.22.36.37.54,1.12,1.06,2.26,1.62,3.46.77-1.68,1.51-3.27,2.21-4.87Z"/>
      <path class="cls-9" d="M76.46,627.03l-66.29.14v-.92s67.08-.14,67.08-.14c3.6-4.22,14.25-6.14,18.36-5.31,0,0-3.14.25-2.96.45.18.2,3.03.22,3.4,1.55,0,0-11.89,1.68-14.01,4.47,0,0,.99-2.06,4.08-3.99,0,0-9.24,3.59-9.89,8.32,0,0-1.67-1.83.23-4.56Z"/>
      <path class="cls-9" d="M96.77,624.8c-.07,1.21-.88,2.72-.88,2.72.48-.69-2.81-1.55-2.83-1.65s2.43-1.07,3.71-1.08Z"/>
      <path class="cls-9" d="M85.13,633.76c-1.84-.17-2.6-.31-3.46-1.48,5.26-.71,12.3-2.21,13.92-4.32,0,0-1.64,2.31-3.92,3.9,3.81-1.78,9.16-4.25,9.84-8.35,0,0,.92.96.73,2.55l11.16-.02v.84s-11.5.02-11.5.02c-1.38,3.58-9.22,8.16-19.77,7.45,0,0,3.11-.35,3-.6Z"/>
      <path class="cls-9" d="M79.51,634.21c1.36.23,1.95,1.33,1.53,2.74-.75,0-1.51.01-2.28,0-.1,0-.26-.15-.27-.24-.04-.41-.3-.58-.65-.58-1.2-.01-2.39,0-3.59.03-.2,0-.47.14-.58.3-.25.37.02.74.54.77,1.43.07,2.85.13,4.28.2.44.02.89.05,1.33.13.89.15,1.48.69,1.57,1.58.07.67.06,1.36-.04,2.02-.15.97-.71,1.52-1.68,1.59-1.55.11-3.1.13-4.65.15-.76,0-1.54-.03-2.29-.14-1.58-.24-1.93-1.16-1.83-2.62,0-.11.22-.29.34-.3.64-.03,1.29-.04,1.93,0,.14,0,.35.22.39.38.1.4.31.57.72.56,1.27,0,2.54,0,3.8,0,.39,0,.7-.09.73-.58.03-.52-.33-.59-.69-.61-1.36-.06-2.71-.1-4.07-.15-.46-.02-.93-.05-1.39-.11-.9-.12-1.5-.63-1.62-1.53-.09-.66-.06-1.35.02-2.02.12-.92.71-1.51,1.62-1.6,2.28-.24,4.56-.34,6.83.05Z"/>
      <path class="cls-9" d="M66.74,634.61c-.01.46-.02.93,0,1.39.01.35-.13.47-.48.46-1.07-.01-2.14,0-3.29,0,0,1.21,0,2.33,0,3.45,0,.79,0,1.57,0,2.36,0,.38-.11.55-.52.53-.61-.03-1.21-.03-1.82,0-.46.03-.58-.16-.58-.59.01-1.7-.02-3.39,0-5.09,0-.55-.15-.71-.69-.68-.89.05-1.78,0-2.68.02-.32,0-.45-.11-.44-.43.02-.48.01-.96,0-1.45,0-.31.09-.45.43-.45,3.19,0,6.39,0,9.58-.02.35,0,.48.14.47.48Z"/>
      <path class="cls-9" d="M67.71,634.12c.62.03,1.25.02,1.88,0,.34,0,.48.11.48.46,0,2.59,0,5.18.01,7.77,0,.33-.14.44-.45.43-.66-.01-1.32-.02-1.98,0-.37.01-.45-.15-.44-.48.01-1.29,0-2.57,0-3.86,0-1.27,0-2.54-.02-3.8,0-.4.12-.54.52-.52Z"/>
      <path class="cls-9" d="M11.9,642.87c-1.39-.21-2.11-1.3-1.81-2.64.03-.12.23-.27.36-.28.64-.03,1.29-.03,1.93,0,.12,0,.32.17.34.29.09.5.37.67.86.66,1.23-.02,2.46-.01,3.7-.01.4,0,.7-.11.73-.59.03-.47-.28-.58-.65-.59-1.3-.06-2.6-.1-3.9-.16-.52-.02-1.03-.05-1.55-.11-.93-.1-1.57-.64-1.68-1.53-.08-.65-.07-1.32,0-1.97.11-.97.72-1.57,1.68-1.67,2.22-.23,4.45-.27,6.68.02,1.18.15,2.02.9,1.67,2.78-.75,0-1.51.01-2.28,0-.1,0-.27-.16-.29-.27-.06-.37-.3-.54-.63-.54-1.21,0-2.43,0-3.64.03-.19,0-.46.15-.56.32-.21.37.04.71.53.73,1.41.07,2.82.13,4.22.2.43.02.85.05,1.28.11,1.03.15,1.63.7,1.72,1.74.06.65.02,1.32-.08,1.97-.13.86-.71,1.43-1.59,1.49-1.56.11-3.14.14-4.7.16-.78,0-1.57-.03-2.35-.15Z"/>
      <path class="cls-9" d="M107.68,642.89c-1.3-.06-2.55-.08-3.79-.19-1.32-.12-1.9-.65-2.09-1.95-.23-1.61-.25-3.24.02-4.85.19-1.15.86-1.8,2.03-1.83,2.5-.06,4.99-.07,7.49-.01,1.21.03,1.97.79,2.02,2.01.07,1.55.07,3.1,0,4.65-.05,1.14-.76,1.85-1.9,1.96-1.28.12-2.56.15-3.8.22ZM107.57,640.43s0,.06,0,.08c.76-.04,1.53-.06,2.29-.12.55-.04.84-.39.86-.91.03-.69.04-1.39-.01-2.08-.06-.73-.31-1.01-.93-1.02-1.49-.03-2.99-.02-4.48.01-.49,0-.79.32-.81.82-.03.73-.06,1.46-.02,2.18.04.72.25.96.97,1.03.71.06,1.42.01,2.13,0Z"/>
    </g>
    <g>
      <path d="M24.67,675.43c.23-.16.39-.27.56-.39-.08-.05-.16-.09-.32-.17.32-.06.55-.11.79-.14.24-.02.48,0,.73,0,0-.05,0-.1.01-.15-.47-.05-.93-.1-1.39-.15.5-.44,1.13-.36,1.77-.31-.82-.35-1.66-.53-2.55-.27-.01-.04-.03-.08-.04-.12.29-.11.58-.27.88-.31.33-.04.68.01,1.01.08.33.06.64.18.97.24-1.07-.57-2.16-1.1-3.43-1.07,1.27-.32,2.41.08,3.54.59-.76-.66-1.59-1.15-2.66-1.16q.4-.2,1.55-.05c-.37-.16-.74-.32-1.09-.47.84-.17,1.45-.03,2.15.53-.14-.5-.66-.99-1.46-1.39.01-.03.03-.07.04-.1.37.14.73.29,1.16.46-.36-.5-.82-.79-1.37-.96l.04-.12c.47.11.94.23,1.41.34.02-.02.03-.05.05-.07-.34-.19-.67-.37-.94-.52.31-.05.92.07,1.34.44.37.33.66.75,1.01,1.16-.02-.33-.03-.69-.05-1.09.28.53.31,1.04.28,1.57-.03.64-.11,1.28-.07,1.91.02.41.14.84.33,1.2.29.55.74.89,1.44.88,1.27,0,2.53.08,3.74.53,1.02.38,1.83,1.01,2.35,1.97.04.08.1.18.17.22.84.52,1.46,1.25,1.96,2.08.19-.37.37-.72.55-1.07.03.02.06.03.09.05-.04.29-.08.58-.12.86.02,0,.05.02.07.02.17-.21.33-.42.57-.72-.07.39-.12.66-.19,1.02.25-.19.42-.31.59-.43l.04.05-.32.55s.05.04.08.06c.1-.07.19-.14.3-.22.15,1.34.11,1.4-.83,1.44-.02.3-.04.6-.06,1.01-.18-.21-.27-.31-.34-.4-.27.26-.55.5-.81.76-.41.41-.74.4-1.17,0-.32-.31-.34-.69-.22-1.17-.36.05-.68.08-.99.13-.48.08-.91,0-1.38-.19-.5-.21-1.08-.24-1.62-.34-.04,0-.09.04-.14.07-.54.35-.59.57-.22,1.13.18.27.36.55.54.82.28.42.54.5,1.03.31.15-.06.3-.09.47-.08-.1.07-.2.14-.39.28h1.05s0,.08.01.12c-.46.09-.92.17-1.43.27.36.17.72.35,1.08.52-.42-.01-.84.12-1.2-.22-.21-.19-.54-.41-.82-.16-.19-.13-.36-.25-.54-.38.03,0,.08,0,.13,0,.14-.05.28-.1.42-.15-.1-.16-.18-.37-.32-.47-.14-.1-.36-.11-.62-.18.18-.02.28-.04.49-.07-.35-.52-.66-.98-.98-1.44-.48.41-.51.84-.18,1.33.17.26.31.55.41.84.25.7.81.9,1.47.95.13,0,.26.03.39.04,0,.03,0,.07,0,.1h-1.46c.32.22.57.38.81.54-.4.05-.75.01-.98-.41-.07-.13-.31-.22-.48-.24-.44-.06-.89-.07-1.33-.1,0-.04,0-.07-.01-.11.44-.03.88-.06,1.38-.09-.16-.67-.43-1.19-1.04-1.5.1,0,.19.02.39.03-.08-.22-.13-.4-.21-.55-.32-.63-.66-1.23-.8-1.95-.06-.33-.45-.59-.71-.91-.03.1-.04.15-.07.25-.2-.28-.37-.52-.55-.77l-.08.03c.05.22.1.44.15.66-.01.01-.03.02-.04.03-.17-.32-.34-.64-.54-1.02v.72s-.05,0-.07.01c-.07-.29-.14-.57-.21-.86h-.04v.75s-.07,0-.11.01c-.06-.43-.11-.86-.18-1.39-.12.39-.21.69-.3.99-.03,0-.05,0-.08-.01.02-.4.04-.8.06-1.23-.06.04-.11.08-.19.15.05-.47.09-.92.14-1.37-.64.23-.95.78-1.55,2.6.02-.32.02-.64.06-.96.04-.32.12-.64.11-.99-.16.36-.33.72-.49,1.09-.03-.01-.07-.02-.1-.03.26-.88.52-1.76.81-2.74-.28.24-.52.44-.75.64-.02,0-.04,0-.06-.01.19-.32.38-.64.62-1.04-.24.13-.43.23-.63.34-.02,0-.04-.02-.06-.03.19-.26.38-.53.62-.86-.22.03-.41.06-.73.11Z"/>
      <path d="M95.91,675.19c0-.54.02-1-.01-1.46,0-.12-.13-.31-.23-.34-.44-.11-.29-.45-.26-.69.01-.09.28-.19.43-.19.72-.02,1.44.01,2.16-.02.41-.02.5.14.5.52-.01,3.56,0,7.13-.01,10.69,0,.36.04.64.42.84.13.07.12.43.12.66,0,.06-.23.16-.35.16-.9.01-1.79,0-2.74,0-.02-.21-.04-.41-.07-.67-.14.11-.24.18-.34.26-1.14.89-2.44.62-3.11-.66-.47-.89-.6-1.86-.65-2.84-.08-1.68-.08-3.37.31-5.03.1-.44.3-.88.56-1.25.62-.88,1.64-1.05,2.55-.48.22.13.42.29.71.5ZM95.92,679.82c0-1.14-.02-2.28,0-3.42,0-.34-.16-.45-.42-.54-.29-.1-.53-.03-.66.23-.11.21-.17.46-.17.69-.01,2.13,0,4.26,0,6.39,0,.08-.03.19,0,.24.14.21.3.54.47.56.22.03.49-.19.7-.35.08-.07.07-.28.07-.42,0-1.13,0-2.25,0-3.38Z"/>
      <path d="M51.38,685.1c-1.56-1.28-1.43-2.19.58-3.58-.15-.08-.29-.12-.38-.21-1.68-1.66-1.52-4.77.31-6.26.76-.62,1.63-.79,2.57-.63.28.05.52.07.65-.24.13-.31-.09-.45-.3-.58-.28-.19-.46-.42-.37-.78.09-.37.37-.47.7-.5.04,0,.08-.02.12-.02.45,0,.93-.02,1.19.44.25.44.08.85-.18,1.21-.21.3-.46.56-.73.88.07.05.14.1.2.15,1.63,1.25,1.85,3.27,1.27,4.98-.48,1.4-2.04,2.7-3.91,2.17-.43-.12-.84-.11-1.17.23-.28.27-.21.56.16.68.16.05.35.06.52.07,1,.03,2.01,0,3.01.09.78.07,1.49.38,1.77,1.22.35,1.06-.07,2.07-1.11,2.48-.47.19-.99.32-1.49.37-1.14.11-2.28.13-3.39-.2-.23-.07-.46-.17-.65-.31-.45-.34-.42-.96.03-1.28.19-.13.39-.24.62-.38ZM54.47,678.33h0c0-.67,0-1.33,0-2,0-.2-.03-.41-.1-.59-.19-.43-.7-.47-.92-.06-.14.25-.22.56-.22.85-.02,1.28-.02,2.55,0,3.83,0,.2.04.41.13.58.21.4.73.42.96.04.11-.17.15-.41.16-.61.02-.68,0-1.36,0-2.04ZM53.95,685.36s0-.01,0-.02c-.46,0-.92,0-1.39,0-.33,0-.61.16-.65.5-.05.33.22.51.5.54.65.07,1.3.12,1.95.1.4,0,.81-.1,1.18-.24.16-.06.35-.36.33-.52-.02-.14-.31-.33-.5-.35-.47-.05-.95-.02-1.43-.02Z"/>
      <path d="M86.85,675.56c.07-.13.12-.28.23-.38.49-.48,1.05-.8,1.77-.81,1.05,0,1.72.62,1.74,1.67.02,1.17,0,2.34,0,3.51,0,1.36-.01,2.72.01,4.08,0,.25.18.49.24.74.06.27.1.55.11.82,0,.06-.2.16-.31.16-.65.02-1.31.02-1.96,0-.15,0-.36-.12-.41-.24-.13-.29-.25-.61-.25-.92-.02-2.46,0-4.92-.02-7.38,0-.24-.13-.62-.28-.68-.23-.08-.56.04-.83.14-.11.04-.2.26-.2.39-.01,2.38-.01,4.76,0,7.14,0,.18.1.41.23.53.26.23.27.51.2.78-.03.12-.27.24-.43.25-.84.02-1.69.02-2.53,0-.16,0-.45-.07-.45-.13-.03-.26-.06-.6.08-.76.25-.28.3-.55.3-.89,0-2.52,0-5.03,0-7.55,0-.29-.07-.49-.28-.72-.14-.14-.11-.47-.1-.71,0-.05.27-.13.41-.13.72-.01,1.44,0,2.16-.01.31,0,.42.1.39.4-.02.19,0,.38,0,.57.06.04.12.09.18.13Z"/>
      <path d="M46.45,684.44c-.09.08-.23.2-.36.33-1.09,1.14-3.13.96-3.51-1.08-.2-1.07-.2-2.13,0-3.2.12-.67.48-1.2,1.08-1.51.79-.41,1.61-.77,2.44-1.11.38-.16.56-.36.51-.78-.04-.39-.01-.79-.04-1.18-.02-.26-.14-.47-.43-.51-.32-.04-.62.04-.74.37-.09.24-.1.5-.12.76-.03.64-.23.91-.84,1.07-.18.05-.37.08-.56.09-.91.03-1.32-.45-1.15-1.36.19-.97.86-1.49,1.73-1.77,1.04-.32,2.09-.29,3.12.06,1,.34,1.6,1.2,1.61,2.27,0,2.28,0,4.57.01,6.85,0,.2.11.43.23.6.26.36.18.82-.24.96-.61.21-1.25.26-1.82-.02-.34-.17-.58-.53-.91-.85ZM46.57,678.7c-.6.14-1.13.52-1.16.99-.06,1.2-.05,2.41-.04,3.61,0,.3.23.5.54.52.33.02.54-.19.61-.49.06-.23.08-.48.08-.73,0-1.15,0-2.31,0-3.46,0-.14-.02-.29-.03-.43Z"/>
      <path d="M79.9,684.38c-.22.19-.41.36-.6.54-.96.91-2.87.82-3.31-1.02-.28-1.19-.28-2.39,0-3.59.12-.5.38-.93.82-1.17.72-.39,1.47-.75,2.23-1.08.88-.39.89-.37.89-1.34,0-.24.04-.5-.02-.73-.06-.21-.2-.47-.37-.55-.28-.12-.62-.03-.76.29-.1.23-.12.5-.15.75-.08.97-1.31,1.6-2.15,1.11-.37-.22-.53-.81-.37-1.41.24-.9.9-1.37,1.73-1.62,1-.3,2.01-.27,3.01.05,1.08.35,1.66,1.15,1.67,2.29,0,2.26,0,4.52,0,6.77,0,.28.04.51.26.73.29.28.14.76-.25.92-1.07.44-2.04.11-2.65-.95ZM79.93,678.7c-.68.14-1.14.54-1.19,1.15-.07,1-.08,2-.08,3,0,.66.23.97.63.97.41,0,.63-.34.63-1.01,0-1.06,0-2.12,0-3.17,0-.31,0-.61,0-.93Z"/>
      <path d="M70.67,679.68c0,1.18-.1,2.27-.49,3.32-.27.73-.68,1.36-1.29,1.85-1.13.91-2.71.84-3.75-.19-.83-.82-1.21-1.85-1.35-2.98-.2-1.59-.19-3.18.3-4.72.36-1.15,1-2.1,2.22-2.47,1.48-.46,2.96.28,3.72,1.82.53,1.09.64,2.26.63,3.37ZM67.77,679.84c0-1.14,0-2.28,0-3.42,0-.23,0-.48-.09-.67-.09-.17-.31-.38-.48-.38-.17,0-.44.17-.51.34-.12.26-.17.57-.17.87-.01,2.23-.01,4.46,0,6.69,0,.28.04.58.14.83.07.17.29.37.46.37.17,0,.42-.17.49-.33.12-.26.15-.57.16-.87.02-1.14,0-2.28,0-3.42Z"/>
      <path d="M74.59,672.5c0,.27,0,.46,0,.65,0,3.51,0,7.02,0,10.53,0,.32.02.59.3.84.13.12.11.46.08.68-.01.08-.28.17-.43.17-.83.02-1.66.02-2.49,0-.17,0-.49-.08-.49-.13,0-.28-.04-.68.13-.82.28-.25.32-.49.32-.81,0-3.13,0-6.26,0-9.38,0-.3-.06-.52-.29-.75-.16-.16-.17-.51-.16-.78,0-.06.33-.16.51-.17.83-.02,1.65,0,2.53,0Z"/>
      <path d="M61.07,676.44c.07-.21.14-.42.21-.62.12-.33.24-.67.39-.98.18-.35.49-.49.88-.46.37.03.55.27.67.58.24.62.24,1.25.05,1.88-.08.28-.26.51-.59.54-.34.04-.51-.16-.68-.41-.09-.14-.27-.22-.41-.32-.1.15-.22.29-.29.46-.05.11-.03.24-.03.36,0,2.07,0,4.13,0,6.2,0,.3.06.53.33.69.35.22.24.57.21.88,0,.05-.17.13-.26.13-.98,0-1.96.01-2.94,0-.11,0-.31-.11-.31-.18,0-.26-.04-.6.1-.76.21-.24.28-.47.28-.76,0-2.52,0-5.03,0-7.55,0-.3-.06-.53-.3-.75-.14-.13-.16-.44-.13-.66.01-.1.28-.22.44-.22.61-.03,1.22,0,1.83-.01.3,0,.42.11.41.4-.01.51,0,1.03,0,1.54.04,0,.08.02.12.03Z"/>
      <path d="M100.95,672.63c-1.32,0-2.42-1.09-2.42-2.41,0-1.31,1.09-2.42,2.41-2.43,1.31,0,2.42,1.1,2.42,2.42,0,1.32-1.09,2.42-2.41,2.42ZM100.95,672.26c1.13,0,2.06-.93,2.06-2.05,0-1.12-.94-2.06-2.04-2.06-1.15,0-2.07.92-2.07,2.07,0,1.13.92,2.04,2.05,2.04Z"/>
      <path d="M37.95,686.91s-.02.11-.08.13c-.73.29-1.52.32-2.24.11-.4-.12-.79-.19-1.19-.21-2.16-.11-4.31-.22-6.47-.31-.43-.02-.86,0-1.29-.06,3.75,0,7.51-.05,11.27.35Z"/>
      <path d="M100.39,671.38c-.19,0-.32-.02-.46-.02v-2.27c.56,0,1.11-.04,1.65.02.16.02.37.3.4.48.03.18-.13.4-.24.59-.05.08-.18.1-.3.15.25.32.49.64.75.98-.34.13-.57.08-.75-.21-.14-.22-.29-.43-.48-.6-.1-.09-.3-.12-.45-.11-.05,0-.1.22-.11.34-.02.19,0,.38,0,.63ZM100.91,670.05c.23,0,.6.06.6-.32,0-.41-.37-.35-.65-.36-.24,0-.49-.05-.49.35,0,.41.26.32.53.33Z"/>
    </g>
    <g>
      <path id="path14" class="cls-9" d="M36.36,735.79c0,1.09-.27,2.04-.81,2.84-1.15,1.67-3.15,2.5-5.99,2.5-1.94,0-3.6-.44-4.99-1.32-1.54-.99-2.32-2.34-2.33-4.02h4.18c0,.75.33,1.33.98,1.75.58.36,1.29.55,2.13.55.75,0,1.39-.14,1.93-.43.56-.31.84-.7.84-1.18,0-.63-.82-1.13-2.45-1.49-2.42-.56-3.95-.99-4.58-1.29-1.63-.79-2.45-1.99-2.45-3.62,0-.96.23-1.83.69-2.61.46-.79,1.24-1.41,2.34-1.87,1.09-.48,2.28-.72,3.54-.72,1.73,0,3.18.41,4.35,1.23,1.34.92,2.07,2.22,2.16,3.91h-4.01c-.21-1.36-1.11-2.04-2.71-2.04-.65,0-1.22.14-1.7.43-.48.29-.72.65-.72,1.09,0,.57.83,1.04,2.48,1.41,2.4.54,3.95.97,4.64,1.29,1.65.8,2.48,2,2.48,3.59Z"/>
      <path id="path16" class="cls-9" d="M56.49,740.68h-4.07v-9.25c0-1.07-.16-1.83-.49-2.27-.4-.52-1.12-.78-2.16-.78-2.09,0-3.14,1.18-3.14,3.53v8.76h-4.06v-15.31h3.89v1.44c0,.55,0,.83.03.83,0-.02,0-.03.03-.03.48-.84,1.16-1.49,2.05-1.95.9-.48,1.85-.72,2.85-.72,2.04,0,3.52.79,4.44,2.38.42.77.63,1.69.63,2.76v10.6Z"/>
      <path id="path18" class="cls-9" d="M71.56,735.79c0,1.09-.27,2.04-.81,2.84-1.15,1.67-3.15,2.5-5.99,2.5-1.94,0-3.6-.44-4.99-1.32-1.54-.99-2.32-2.34-2.33-4.02h4.18c0,.75.33,1.33.98,1.75.58.36,1.29.55,2.13.55.75,0,1.39-.14,1.93-.43.56-.31.83-.7.83-1.18,0-.63-.82-1.13-2.45-1.49-2.42-.56-3.95-.99-4.58-1.29-1.63-.79-2.45-1.99-2.45-3.62,0-.96.23-1.83.69-2.61.46-.79,1.24-1.41,2.34-1.87,1.09-.48,2.28-.72,3.54-.72,1.73,0,3.18.41,4.35,1.23,1.35.92,2.07,2.22,2.16,3.91h-4.01c-.21-1.36-1.12-2.04-2.71-2.04-.65,0-1.22.14-1.7.43-.48.29-.72.65-.72,1.09,0,.57.83,1.04,2.48,1.41,2.4.54,3.95.97,4.64,1.29,1.65.8,2.48,2,2.48,3.59Z"/>
      <path id="path20" class="cls-9" d="M81.94,733.21c-.4.33-1.12.58-2.13.78-1.15.21-1.9.41-2.25.6-.71.36-1.07,1-1.07,1.9,0,1.15.6,1.72,1.81,1.72.56,0,1.13-.12,1.73-.37.59-.27,1.05-.58,1.36-.95.4-.5.6-1.24.6-2.21,0-.17,0-.42-.03-.75-.02-.33-.03-.56-.03-.72h0ZM86.24,740.68h-3.77c-.12-.21-.24-.62-.38-1.24-.94,1.03-2.44,1.55-4.5,1.55-1.42,0-2.59-.32-3.52-.98-1.08-.77-1.61-1.88-1.61-3.33,0-2.09.82-3.52,2.45-4.31.75-.36,2.28-.69,4.58-.98,1.63-.21,2.45-.65,2.45-1.32,0-.59-.25-1.06-.75-1.41-.48-.36-1.05-.55-1.7-.55s-1.25.18-1.73.55c-.45.34-.74.79-.87,1.35h-3.93c.12-1.09.44-1.98.87-2.67.5-.77,1.3-1.36,2.39-1.78,1.02-.38,2.17-.58,3.46-.58,4.36.04,6.54,2.12,6.54,6.23v9.45h0Z"/>
      <path id="path22" class="cls-9" d="M41.37,723.38h-4.06v-4.05h4.06v4.05Z"/>
      <path id="path24" class="cls-9" d="M41.37,740.67h-4.06v-7.66h4.06v7.66Z"/>
      <path id="path26" class="cls-9" d="M101.24,741.54c0,2.03-.73,3.66-2.19,4.88-1.34,1.09-2.96,1.64-4.84,1.64-1.84,0-3.4-.54-4.67-1.61-1.4-1.21-2.1-2.85-2.1-4.94h3.77c0,.98.29,1.74.87,2.3.5.5,1.13.75,1.9.75.84,0,1.59-.29,2.22-.86.67-.65,1.01-1.5,1.01-2.56v-2.36c-.29.69-.82,1.23-1.59,1.61-.75.38-1.59.57-2.54.57-1.5,0-2.78-.44-3.83-1.32-1.21-1.01-1.81-2.41-1.81-4.19v-10.08h4.06v9.48c0,1.9.86,2.84,2.59,2.84.92,0,1.67-.27,2.25-.8.58-.54.86-1.22.86-2.04v-9.48h4.04v16.17Z"/>
    </g>
    <g>
      <g>
        <path class="cls-9" d="M413.24,18.71c-.24,0-.47,0-.71,0-.18,0-.2.07-.13.22.14.33.36.58.74.63.24.03.32.14.33.39.04.8.22,1.58.52,2.32.02.06.08.12.03.18-.05.06-.12,0-.18-.02-.8-.25-1.6-.5-2.44-.59-.72-.08-1.44-.03-2.15.11-.31.06-.32.06-.28-.24.13-.83-.02-1.64-.16-2.45-.36-2.01,1.25-3.07,2.55-3.13.69-.03,1.27.29,1.77.74.85.76,1.44,1.7,1.91,2.72.04.08.16.2-.01.27-.22.09-.41.05-.47-.11-.1-.26-.2-.52-.28-.78-.06-.19-.17-.27-.37-.25-.23.01-.46,0-.69,0,0,0,0,0,0,0Z"/>
        <path class="cls-9" d="M406.71,21.54c.05-.19.15-.36.18-.56.04-.32.02-.63-.1-.93-.36-.89-.6-1.82-.6-2.79,0-1.98,1.14-3.59,3-4.26.86-.3,1.74-.44,2.65-.47.78-.03,1.54,0,2.31.09.21.02.26.09.16.28-.24.49-.47.98-.69,1.48-.08.18-.19.23-.37.16-.81-.3-1.64-.38-2.5-.34-1.5.06-3.02,1.17-3.42,2.52-.19.64-.11,1.3-.03,1.95.06.51.15,1.02.07,1.53-.08.52-.31.95-.67,1.33Z"/>
        <path class="cls-9" d="M411.17,14.39c.15,0,.3,0,.45,0,.11,0,.15.07.08.15-.25.35-.3.76-.34,1.17-.01.12-.06.18-.19.2-.93.15-1.66.62-2.21,1.38-.07.09-.12.1-.21.03-.32-.26-.68-.4-1.1-.37-.19,0-.15-.11-.12-.23.15-.54.47-.99.89-1.35.84-.71,1.64-.99,2.74-.98Z"/>
        <path class="cls-9" d="M421.04,24.34l-.07,2.57s-2.23-2.34-2.3-2.32l-.05,2.14c.05.04.15.06.31.08v.12h-.99v-.15c.14-.02.25,0,.3-.06.01-.62.03-1.26.04-1.88-.02-.42.16-.99-.43-1.11,0,0,.5,0,.74,0l2.06,2.31v-1.81c.02-.22,0-.4-.27-.44h.93c-.33.06-.26.32-.26.54Z"/>
        <path class="cls-9" d="M409.77,26.77v.12h-.99v-.12c.09-.01.16-.02.21-.05.02-.08-.01-.15-.04-.23-.21-.59-.41-1.18-.62-1.76-.03-.09-.07-.17-.11-.26-.02,0-.04,0-.06,0-.2.5-.4,1.01-.6,1.51-.06.15-.12.31-.18.46-.04.1-.09.21-.04.29h0c.05.01.12.02.21.04v.12h-.99v-.12c.1-.01.17-.02.22-.05.23-.32.33-.69.49-1.02.28-.6.51-1.22.77-1.84.02-.05.04-.1.07-.15.03-.06.05-.14.14-.14s.11.08.13.15c.15.41.3.81.46,1.22.18.48.37.97.55,1.45.01.04.03.07.04.11.02.04.03.08.05.12.02.05.05.09.08.12.05.01.12.02.21.03Z"/>
        <path class="cls-9" d="M405.89,23.68c-.46-.12-.92.03-1.39.04.25.06.26.23.26.43l-.04,2.2c0,.11,0,.22-.02.33,0,0,0,.02,0,.02h0c-.07.06-.15.07-.29.09v.12h.99v-.12c-.11-.01-.19-.03-.25-.05-.02-.03-.03-.08-.02-.14v-1.02c0-.16.06-.24.22-.23.18,0,.36-.03.53-.09.39-.12.63-.51.62-1.01,0-.21-.28-.5-.59-.58ZM406.03,24.61c-.09.31-.44.51-.75.45-.1-.02-.14-.07-.14-.16v-.38s-.05-.47.09-.52c.23-.07.49-.07.7.1.16.13.15.32.1.5Z"/>
        <path class="cls-9" d="M402.45,26.26c.18.29.45.33.73.3.42-.04.59-.39.36-.75-.11-.18-.28-.32-.44-.46-.2-.17-.41-.33-.54-.56-.28-.47-.05-1.02.48-1.16.23-.06.48,0,.7-.04.21-.06.26-.15.26-.15l-.04.72c-.14-.33-.41-.27-.69-.21-.34.07-.46.36-.3.67.16.3.45.48.69.71.18.17.35.34.4.6.08.4-.2.85-.59.94-.23.05-.47.04-.71.02-.11-.01-.27-.05-.35.1-.02-.02.02-.51.03-.74Z"/>
        <path class="cls-9" d="M414.92,23.6v.68c-.06-.16-.22-.2-.38-.21l-.45-.02c-.18-.02-.27.04-.27.23l.02,2.22c0,.09,0,.17.02.24.06.02.14.04.26.05v.12h-.99v-.12c.1-.01.17-.02.23-.06.05-.1.02-.22.03-.34l.04-2.11c0-.21-.06-.29-.28-.27,0,0-.49,0-.6.04h0c-.07.01-.13.03-.17.07,0,0,0,0,0,0-.03.03-.06.07-.07.12v-.68c.02.08.17.13.28.13.06,0,.41,0,.51,0,.31,0,.61,0,.92,0,.2,0,.4,0,.59,0,.12,0,.22-.02.3-.13Z"/>
        <circle class="cls-9" cx="408.18" cy="25.34" r=".16"/>
        <circle class="cls-9" cx="416.23" cy="25.34" r=".16"/>
        <path class="cls-9" d="M417.83,26.82v.12h-.99s0-.12,0-.12c.09-.01.16-.02.21-.05.02-.08-.01-.15-.04-.23-.21-.59-.41-1.18-.62-1.76-.03-.09-.07-.17-.11-.26-.02,0-.04,0-.06,0-.2.5-.4,1.01-.6,1.51-.06.15-.12.31-.18.46-.04.1-.09.21-.04.29h0c.05.01.12.02.21.04v.12h-.99v-.12c.1-.01.17-.02.22-.05.23-.32.33-.69.49-1.02.28-.6.51-1.22.77-1.84.02-.05.04-.1.07-.15.03-.06.05-.14.14-.14s.11.08.13.15c.15.41.3.81.46,1.22.18.48.37.97.55,1.45.01.04.03.07.04.11.02.04.03.08.05.12.02.05.05.09.08.12.05.01.12.02.21.03Z"/>
      </g>
      <path class="cls-9" d="M412.48,26.8v.12h-.72v-.1s0-.03-.01-.04c-.12-.17-.14-.2-.21-.31-.22-.37-.48-.72-.73-1.08-.17-.23-.14-.32.14-.4.05-.02.1-.04.16-.06.33-.13.46-.36.37-.64-.08-.26-.37-.38-.68-.32-.16.03-.14.15-.14.26,0,.49,0,.98,0,1.47,0,.23-.01.46-.02.69,0,.12-.01.24.05.34.06.02.13.03.23.04v.12h-.99v-.12c.13-.02.21-.03.27-.08h0c.03-.09.03-.19.03-.3,0-.77.02-1.53.03-2.3,0-.15-.03-.3-.2-.38.47.02.94-.15,1.4,0,.5.16.6.85.18,1.25-.02.02-.05.04-.07.06q-.33.26-.1.61c.17.25.34.49.51.74.05.08.11.16.16.24,0,0,0,0,0,0,.05.07.11.12.19.15.05,0,.1.02.16.02Z"/>
    </g>
    <text class="cls-10" transform="translate(437.4 44.8) rotate(-90)"><tspan x="0" y="0">MESOPOTAMIA</tspan></text>
    <text class="cls-10" transform="translate(467.64 44.46)"><tspan x="0" y="0">LETS PLAY</tspan></text>
    <text class="cls-12" transform="translate(407.82 187.21)"><tspan x="0" y="0">ROPHARMA</tspan></text>
    <g>
      <path class="cls-9" d="M443.5,340.9v3.68h-1.03v-2.56l-.72,2.56h-.6l-.74-2.52v2.52h-.36v-3.68h1.08l.63,2.22.63-2.22h1.1Z"/>
      <path class="cls-9" d="M445.64,340.83c1.07,0,1.61.63,1.61,1.9s-.55,1.9-1.64,1.9-1.64-.65-1.64-1.95.56-1.86,1.67-1.86ZM445.61,341.12c-.2,0-.34.11-.41.33-.07.22-.11.65-.11,1.28s.04,1.06.11,1.28c.07.22.21.33.41.33s.34-.11.41-.33c.07-.22.11-.65.11-1.28s-.04-1.05-.11-1.28c-.07-.22-.21-.33-.41-.33Z"/>
      <path class="cls-9" d="M450.41,340.9v3.68h-.82l-1.54-2.33v2.33h-.36v-3.68h.68l1.68,2.52v-2.52h.36Z"/>
      <path class="cls-9" d="M453.41,340.9v.37h-1.32v1.11h1.11v.37h-1.11v1.46h1.54v.37h-2.61v-3.68h2.39Z"/>
      <path class="cls-9" d="M456.54,340.9l-.9,2.32v1.36h-1.07v-1.36l-.99-2.32h1.11l.75,1.77.67-1.77h.43Z"/>
      <path class="cls-9" d="M443.12,349.22h1.52v1.99h-.34l-.12-.25c-.3.21-.61.32-.94.32-.54,0-.97-.16-1.27-.49-.3-.33-.45-.79-.45-1.38s.16-1.04.48-1.4c.32-.36.74-.54,1.25-.54.68,0,1.09.35,1.24,1.04l-.5.23v-.29c-.04-.43-.24-.65-.61-.65-.27,0-.45.12-.55.35-.1.23-.15.66-.15,1.29,0,.59.04.98.12,1.19.08.21.23.32.46.32.26,0,.4-.15.4-.44v-.91h-.53v-.37Z"/>
      <path class="cls-9" d="M446.67,347.46c1.07,0,1.61.63,1.61,1.9s-.55,1.9-1.64,1.9-1.64-.65-1.64-1.95.56-1.86,1.67-1.86ZM446.64,347.75c-.2,0-.34.11-.41.33-.07.22-.11.65-.11,1.28s.04,1.06.11,1.28c.07.22.21.33.41.33s.34-.11.41-.33c.07-.22.11-.65.11-1.28s-.04-1.05-.11-1.28c-.07-.22-.21-.33-.41-.33Z"/>
      <path class="cls-9" d="M449.82,347.53v3.31h1.51v.37h-2.58v-3.68h1.07Z"/>
      <path class="cls-9" d="M451.56,351.21v-3.68h1.53c1.08,0,1.63.61,1.63,1.85s-.56,1.84-1.69,1.84h-1.47ZM452.63,350.9h.28c.26,0,.44-.11.53-.33.1-.22.15-.62.15-1.2s-.05-.98-.15-1.2c-.1-.22-.28-.33-.54-.33h-.28v3.07Z"/>
    </g>
    <g>
      <path class="cls-9" d="M473.4,347.1v.64h-1.55v5.69h-1.95v-5.69h-1.56v-.64h5.06Z"/>
      <path class="cls-9" d="M475.71,350.28v3.15h-1.84v-6.33h1.84v2.55h1.5v-2.55h1.84v6.33h-1.84v-3.15h-1.5Z"/>
      <path class="cls-9" d="M484.24,347.1v.64h-2.27v1.92h1.91v.64h-1.91v2.51h2.65v.64h-4.49v-6.33h4.1Z"/>
      <path class="cls-9" d="M469.53,358.5v4.07c0,1.6-.56,2.4-1.69,2.4-.5,0-.92-.14-1.27-.42-.35-.28-.52-.63-.52-1.03,0-.24.05-.54.15-.91l.67-.18c-.11.44-.16.76-.16.95,0,.69.21,1.03.62,1.03.24,0,.36-.32.36-.96v-4.93h1.84Z"/>
      <path class="cls-9" d="M473.46,358.5l1.76,6.33h-1.85l-.38-1.37h-1.91l-.4,1.37h-.72l1.87-6.33h1.61ZM471.28,362.82h1.55l-.75-2.81-.81,2.81Z"/>
      <path class="cls-9" d="M479.91,362.29l.78.2c.01.16.02.3.02.42,0,.62-.22,1.11-.67,1.47-.45.37-1.04.55-1.79.55-1.88,0-2.82-1.06-2.82-3.17,0-1,.27-1.81.82-2.44s1.26-.93,2.14-.93c1.37,0,2.05.66,2.05,1.98l-.79.36c0-.19.01-.33.01-.43,0-.93-.38-1.4-1.12-1.4-.79,0-1.19.99-1.19,2.97,0,1.7.44,2.56,1.33,2.56.36,0,.67-.15.91-.44.24-.29.36-.65.36-1.09,0-.14-.02-.34-.06-.62Z"/>
      <path class="cls-9" d="M486.28,358.5l-1.58,2,2.33,4.33h-2.04l-1.48-2.77-.26.3v2.48h-1.84v-6.33h1.84v2.82l2.18-2.82h.86Z"/>
    </g>
    <text class="cls-15" transform="translate(420.08 278.66)"><tspan x="0" y="0">AVANGARD</tspan></text>
    <g>
      <path class="cls-9" d="M426.4,114.05v-3.07h1.32c.34,0,.62.07.82.22.21.15.31.34.31.58,0,.37-.22.61-.66.73.23.08.37.18.44.28.07.1.11.3.14.59.03.35.09.57.17.68h-.97c-.06-.14-.09-.32-.09-.53v-.18s0-.23,0-.23c0-.35-.14-.53-.43-.53h-.15v1.48h-.89ZM427.3,112.31h.18c.34,0,.51-.18.51-.53s-.17-.53-.51-.53h-.18v1.06Z"/>
      <path class="cls-9" d="M430.21,110.97v3.07h-.89v-3.07h.89Z"/>
      <path class="cls-9" d="M433.6,110.97v3.07h-.86v-2.14l-.6,2.14h-.5l-.61-2.1v2.1h-.3v-3.07h.91l.53,1.86.53-1.86h.91Z"/>
      <path class="cls-9" d="M436.99,110.97v3.07h-.86v-2.14l-.6,2.14h-.5l-.61-2.1v2.1h-.3v-3.07h.91l.53,1.86.53-1.86h.91Z"/>
      <path class="cls-9" d="M438.41,110.97v3.07h-.89v-3.07h.89Z"/>
      <path class="cls-9" d="M441.19,110.97v3.07h-.68l-1.28-1.95v1.95h-.3v-3.07h.56l1.4,2.1v-2.1h.3Z"/>
      <path class="cls-9" d="M442.6,110.97v3.07h-.89v-3.07h.89Z"/>
      <path class="cls-9" d="M428.91,119.58v-3.07h1.33c.75,0,1.13.3,1.13.9s-.42.91-1.25.91h-.31v1.26h-.89ZM429.81,118.04h.2c.32,0,.49-.21.49-.64,0-.4-.16-.6-.49-.6h-.2v1.25Z"/>
      <path class="cls-9" d="M432.56,116.51v3.07h-.89v-3.07h.89Z"/>
      <path class="cls-9" d="M435.32,116.51v.28l-1.48,2.49h1.37v.31h-2.35v-.31l1.46-2.46h-1.25v-.31h2.25Z"/>
      <path class="cls-9" d="M437.84,116.51v.28l-1.48,2.49h1.37v.31h-2.35v-.31l1.46-2.46h-1.25v-.31h2.25Z"/>
      <path class="cls-9" d="M439.53,116.51l.86,3.07h-.9l-.18-.67h-.92l-.2.67h-.35l.91-3.07h.78ZM438.47,118.6h.75l-.36-1.36-.39,1.36Z"/>
    </g>
    <text class="cls-7" transform="translate(427.2 131.19)"><tspan x="0" y="0">KAMALION</tspan></text>
    <text class="cls-13" transform="translate(428.96 144.06)"><tspan x="0" y="0">LA TUTU</tspan></text>
    <g>
      <path class="cls-9" d="M404.65,148.04v.84s.73.18.73.18c.03-.4.39-.96.81-.5.05.06,3.63,4.74,3.63,4.74l-3.65-1.01c-.71-.21-.79-.97-.79-.97l-.73-.18v5.63s.73.18.73.18c.06-.27.21-1.04,1.23-.77,6.79,1.88,6.12,1.66,6.49,1.79,1.96.51,1.86,1.34,1.89,1.64l.73.18h.05s0,0,0,0v-5.88s-.8-.2-.8-.2c0,0-.19.94-.86.76-.66-.18-3.34-.92-3.34-.92,4.17-2.6,4.91-3.25,5.01-5.52.04-.77,0-1.72,0-3l-.79-.19c0,.75-.53,1.23-.86,1.53-.17.16-1.36.94-2.46,1.66-.99.65-1.9,1.23-1.9,1.23l-.99-1.23-2.81-3.51c-.67-.8-.6-1.37-.6-1.37l-.73-.19v5.06Z"/>
      <path class="cls-9" d="M404.54,124.17c0,.63.02,1.23.09,1.8.55,4.72,3.52,7.57,6.5,7.56,2.49,0,4.9-2.02,4.88-6.7,0-.3-.01-.58-.03-.87-.06-1.13-.22-2.13-.4-3.04l-2.32-.54c.3.9.56,2.05.56,2.97,0,.21,0,.42-.03.62-.22,2.15-1.6,3.54-3.37,3.55-1.83,0-3.27-1.33-3.65-3.55-.06-.37-.1-.77-.1-1.19,0-1.44.47-2.16,1.1-2.64v-.39s-2.74-.76-2.74-.76c-.25.78-.47,1.95-.49,3.18Z"/>
      <path class="cls-9" d="M404.65,136.57v5.56s.73.18.73.18c0,0,.12-1.11,1.23-.77l9.16,2.52v-5.04s-.78-.19-.78-.19c0,0-.23.94-1.09.7-.08-.02-2.72-.74-2.72-.74v-2.22s0-.09,0-.09c0-1.15.6-1.53.6-1.53l-2.72-.67v2.29s0,1.6,0,1.6l-2.14-.58v-1.02s0-2.36,0-2.36c0-.62.42-1.06.72-1.06v-.38s-2.98-.75-2.98-.75v4.55Z"/>
    </g>
    <g>
      <g>
        <path class="cls-9" d="M436.26,291.56c0-.11,0-.22,0-.32,1.36,0,2.72,0,4.07,0,0,.11,0,.21,0,.32h-.51c.24.17.44.39.52.65.11.33.07.7-.13,1-.23.35-.65.61-1.12.66-.35.04-.71,0-1.01-.16-.35-.18-.64-.48-.73-.83-.07-.26-.05-.54.07-.79.1-.21.29-.39.5-.53-.56,0-1.12,0-1.67,0ZM437.7,292.71c.01.08.04.17.08.25.18.37.64.61,1.09.6.27,0,.53-.09.74-.23.22-.14.37-.36.42-.59.09-.4-.12-.83-.52-1.05-.28-.15-.63-.18-.94-.12-.31.06-.59.24-.75.47-.14.2-.18.44-.14.67Z"/>
        <path class="cls-9" d="M436.33,305.79c-.06-.19.11-.41.35-.42.22-.02.43.15.43.34.01.18-.17.35-.38.35-.19.01-.36-.12-.4-.27Z"/>
        <path class="cls-9" d="M436.36,290.05c-.03-.08-.02-.17.03-.24.05-.07.14-.12.23-.13.1,0,.2.02.27.09.09.08.11.2.06.3-.05.1-.17.16-.29.16-.13,0-.26-.07-.3-.18Z"/>
        <path class="cls-9" d="M437.39,303.57c-.1-.22-.1-.46,0-.68.09-.2.27-.38.5-.45.23-.08.48-.07.72-.07h1.72c0,.21,0,.42,0,.63-.45,0-.9,0-1.35,0-.19,0-.38,0-.56.03-.13.02-.26.07-.35.16-.09.1-.11.24-.07.37.04.14.16.26.3.32.11.05.23.09.36.1.16.01.31.01.47.01h1.2c0,.21,0,.42,0,.63-.98,0-1.96,0-2.94,0,0-.21,0-.42,0-.64.1,0,.2,0,.3,0-.12-.13-.23-.26-.3-.41Z"/>
        <path class="cls-9" d="M437.45,300.81c-.13-.21-.17-.47-.09-.7.06-.16.17-.32.33-.42.1-.06.22-.1.33-.14-.22-.11-.42-.25-.55-.44-.14-.2-.19-.45-.13-.68.05-.21.2-.4.41-.51.26-.14.57-.15.86-.16.57,0,1.14,0,1.72,0,0,.11,0,.22,0,.33-.48,0-.96,0-1.44,0-.23,0-.46,0-.69.03-.14.02-.27.08-.36.17-.13.12-.17.3-.16.46.02.27.23.51.5.63.18.08.38.1.57.11.33.02.67.01,1,.01.19,0,.38,0,.58,0,0,.11,0,.22,0,.32h-1.28c-.23,0-.45,0-.68.01-.13.01-.26.03-.37.08-.17.08-.29.24-.31.4-.03.2.04.41.19.56.14.15.36.26.58.29.36.06.73.04,1.1.04h.77c0,.11,0,.22,0,.32h-2.94v-.32h.51c-.18-.11-.35-.24-.45-.42Z"/>
        <path class="cls-9" d="M437.47,296.34c-.14-.24-.18-.52-.14-.79.03-.23.14-.45.31-.62.16-.17.37-.3.6-.39.21-.07.43-.1.65-.11,0,.76,0,1.52,0,2.28.24,0,.49-.06.69-.18.21-.12.37-.31.44-.52.09-.28.03-.6-.16-.84-.12-.17-.32-.28-.51-.38.05-.09.11-.18.17-.28.23.1.45.24.6.42.16.18.25.41.27.64.03.28-.01.58-.18.83-.13.2-.33.35-.56.46-.49.25-1.14.24-1.63-.01-.24-.13-.45-.3-.57-.52ZM437.89,296.33c.16.19.42.3.67.37,0-.63,0-1.26,0-1.89-.19.04-.38.11-.53.22-.41.32-.48.92-.14,1.3Z"/>
        <path class="cls-9" d="M437.99,306.35c-.18,0-.37,0-.55,0,0-.31,0-.63,0-.94.97,0,1.93,0,2.89,0,0,.2,0,.41,0,.61-.78,0-1.56,0-2.34,0,0,.11,0,.22,0,.33Z"/>
        <path class="cls-9" d="M437.44,290.54v-.79c.96,0,1.93,0,2.89,0,0,.15,0,.3,0,.44-.82,0-1.64,0-2.46,0,0,.11,0,.23,0,.34-.14,0-.29,0-.43,0Z"/>
      </g>
      <path class="cls-9" d="M437.33,287.87c-.04-.25-.01-.51.11-.73.11-.21.3-.39.53-.51.32-.16.71-.2,1.08-.15.47.07.89.34,1.13.69.2.29.26.63.21.96-.03.24-.15.47-.35.64-.2.18-.48.29-.76.32-.32.04-.65,0-.95-.1-.26-.09-.48-.25-.65-.44-.19-.2-.31-.44-.35-.69ZM438.02,287.9c.03.14.12.27.25.36.18.13.4.22.64.23.15.01.31,0,.44-.06.15-.06.28-.17.34-.31.06-.13.06-.26.04-.4-.02-.15-.1-.3-.23-.4-.17-.14-.4-.23-.63-.25-.16-.01-.32,0-.47.05-.17.07-.3.19-.35.35-.05.13-.05.28-.02.41Z"/>
    </g>
    <path class="cls-5" d="M203.86,490.37l1.39-2.09c.78-1.18,2.1-1.88,3.52-1.88h22.34c1.41,0,2.73.71,3.52,1.88l1.39,2.09c.71-.1,1.42-.23,2.13-.38l8.56-1.9v-6.61c-.27.08-.55.16-.84.22-1.61.37-3.01.47-4.79.47-.92,0-2.32-.1-3.45-.28-1.58-.25-2.68-.59-3.21-1.3-2.48.97-5.17,1.29-7.82.91-3.48-.49-5.73-.74-6.65-.74s-3.17.25-6.65.74c-2.72.39-5.49.04-8.03-1-.03.02-.06.04-.09.06-.86.51-1.85.88-2.97,1.14-1.61.37-3.01.47-4.79.47-.92,0-2.32-.1-3.45-.28-.27-.04-.53-.09-.77-.14v6.33l8.56,1.9c.7.16,1.41.28,2.13.38ZM207.08,490.62c.15,0,.31,0,.46,0h24.8c.15,0,.31,0,.46,0l-.52-.78c-.26-.39-.7-.63-1.17-.63h-22.34c-.47,0-.91.24-1.17.63l-.52.78ZM193.17,478.83c.29.1.71.2,1.22.29.97.16,2.23.24,3,.24,1.58,0,2.81-.08,4.16-.4.05-.01.11-.03.16-.04-3.17-1.31-6.01-2.08-8.54-2.31,0,.04,0,.09,0,.13v2.09ZM190.36,479.36s0,0,0,0v-2.61c0-.96.25-1.91.72-2.75l2.71-4.84-5.09-.81h0c-.12-.02-.23-.05-.33-.11-.57-.29-.8-.98-.52-1.55l.41-.83c.18-.37.52-.64.92-.74h0l3.73-.93c.72-.18,1.46.23,1.68.94h0l.46,1.44,3.9-10.73c1.01-2.78,3.66-4.64,6.62-4.64h28.73c2.96,0,5.61,1.85,6.62,4.64l3.8,10.46.29-1.09c.19-.74.94-1.19,1.69-1.01l3.95.94c.4.09.73.36.92.72l.44.84c.29.56.08,1.25-.48,1.54-.11.06-.23.1-.35.12l-5.09.81,2.71,4.84c.47.84.72,1.79.72,2.75v2.56s0,.07,0,.1v14.04c0,2.33-1.89,4.23-4.23,4.23h-7.04c-2.33,0-4.23-1.89-4.23-4.23,0-.02,0-.03,0-.05-.56.03-1.12.05-1.68.05h-24.8c-.56,0-1.12-.02-1.68-.05,0,.02,0,.03,0,.05,0,2.33-1.89,4.23-4.23,4.23h-7.04c-2.33,0-4.23-1.89-4.23-4.23v-14.08ZM246.7,478.49v-1.75s0-.08,0-.12c-2.65.25-5.61,1.06-8.89,2.45.08.02.17.03.26.04.97.16,2.23.24,3,.24,1.58,0,2.81-.08,4.16-.4.54-.13,1.04-.28,1.48-.47ZM194.35,473.91c3.36.44,7.11,1.67,11.27,3.67,2.26,1.09,4.79,1.48,7.28,1.13,3.62-.51,5.94-.77,7.04-.77s3.42.26,7.04.77c2.48.35,5.02-.04,7.28-1.13,4.13-1.99,7.89-3.21,11.28-3.67l-2.39-4.28-6.32,1.05c-.84.14-1.69.21-2.55.21h-28.66c-.85,0-1.71-.07-2.55-.21l-6.32-1.05-2.39,4.27ZM236.8,493.1c.03.11.04.22.04.34,0,.78.63,1.41,1.41,1.41h7.04c.78,0,1.41-.63,1.41-1.41v-2.47l-7.94,1.77c-.65.14-1.3.27-1.96.37ZM203.07,493.1c-.66-.1-1.31-.22-1.96-.37l-7.94-1.77v2.47c0,.78.63,1.41,1.41,1.41h7.04c.78,0,1.41-.63,1.41-1.41,0-.12.01-.23.04-.34ZM238.27,456.78c-.61-1.67-2.19-2.78-3.97-2.78h-28.73c-1.78,0-3.36,1.11-3.97,2.78l-3.71,10.19,5.63.94c.69.11,1.39.17,2.08.17h28.66c.7,0,1.4-.06,2.08-.17l5.63-.94-3.71-10.19Z"/>
    <text class="cls-16" transform="translate(271.51 485.44)"><tspan x="0" y="0">x 880</tspan></text>
    <g>
      <path class="cls-9" d="M393.76,361.74h2.43v-1.11h.27v1.89h-2.7v-.78Z"/>
      <path class="cls-9" d="M393.76,359.24l2.7-.75v.79l-.58.16v.81l.58.17v.31l-2.7-.8v-.69ZM395.6,360.17v-.66l-1.2.32,1.2.34Z"/>
      <path class="cls-9" d="M393.76,355.17h.27v.66h2.43v.83h-2.43v.67h-.27v-2.16Z"/>
      <path class="cls-9" d="M393.76,352.94h1.81c.62,0,.93.34.93,1.03s-.31,1.03-.93,1.03h-1.81v-.78h1.83c.24,0,.4-.03.49-.1s.13-.19.13-.38c0-.35-.21-.53-.64-.53h-1.81v-.26Z"/>
      <path class="cls-9" d="M393.76,350.62h.27v.66h2.43v.83h-2.43v.67h-.27v-2.16Z"/>
      <path class="cls-9" d="M393.76,348.39h1.81c.62,0,.93.34.93,1.03s-.31,1.03-.93,1.03h-1.81v-.78h1.83c.24,0,.4-.03.49-.1s.13-.19.13-.38c0-.35-.21-.53-.64-.53h-1.81v-.26Z"/>
      <path class="cls-9" d="M400.23,357.85l.09-.33c.07,0,.13,0,.18,0,.26,0,.47.09.63.28.16.19.24.44.24.76,0,.8-.45,1.2-1.35,1.2-.43,0-.77-.12-1.04-.35-.27-.23-.4-.54-.4-.91,0-.58.28-.88.84-.88l.15.34c-.08,0-.14,0-.18,0-.4,0-.6.16-.6.48,0,.34.42.51,1.27.51.73,0,1.09-.19,1.09-.57,0-.16-.06-.28-.19-.39s-.28-.16-.46-.16c-.06,0-.15,0-.26.03Z"/>
      <path class="cls-9" d="M398.62,355.99l2.7-.75v.79l-.58.16v.81l.58.17v.31l-2.7-.8v-.69ZM400.46,356.92v-.66l-1.2.32,1.2.34Z"/>
      <path class="cls-9" d="M398.62,353.27h.27v.98h.9v-.83h.27v.83h1.26v.78h-2.7v-1.76Z"/>
      <path class="cls-9" d="M398.62,351.26h.27v.97h.82v-.81h.27v.81h1.07v-1.13h.27v1.91h-2.7v-1.75Z"/>
    </g>
    <text class="cls-6" transform="translate(291.94 325.54)"><tspan class="cls-20" x="0" y="0">Entrance </tspan><tspan class="cls-18" x="41.21" y="0">A</tspan></text>
    <text class="cls-6" transform="translate(295.83 80.66)"><tspan class="cls-20" x="0" y="0">Entrance </tspan><tspan class="cls-18" x="41.21" y="0">B</tspan></text>
    <g>
      <path class="cls-9" d="M416.08,297.02l.25.06c0,.05,0,.09,0,.13,0,.19-.07.35-.22.47s-.34.17-.58.17c-.61,0-.91-.33-.91-1,0-.32.09-.57.27-.77s.41-.29.69-.29c.44,0,.66.21.66.62l-.25.11c0-.06,0-.1,0-.14,0-.29-.12-.44-.36-.44-.26,0-.38.31-.38.94,0,.54.14.81.43.81.12,0,.22-.05.29-.14.08-.09.12-.21.12-.34,0-.04,0-.11-.02-.19Z"/>
      <path class="cls-9" d="M417.16,296.83v.99h-.59v-2h.59v.8h.48v-.8h.59v2h-.59v-.99h-.48Z"/>
      <path class="cls-9" d="M420.13,295.83v1.34c0,.46-.26.69-.78.69s-.78-.23-.78-.69v-1.34h.59v1.36c0,.18.03.3.08.36.05.06.15.1.29.1.27,0,.4-.16.4-.47v-1.34h.2Z"/>
      <path class="cls-9" d="M420.45,297.82v-2h.91c.47,0,.7.16.7.49,0,.23-.14.38-.42.45.34.07.51.24.51.53,0,.35-.23.53-.69.53h-1.01ZM421.04,296.7h.18c.17,0,.25-.12.25-.37,0-.23-.09-.34-.27-.34h-.17v.7ZM421.04,297.66h.17c.22,0,.33-.12.33-.37,0-.28-.11-.43-.34-.43h-.16v.8Z"/>
      <path class="cls-9" d="M422.38,297.82v-2h.91c.47,0,.7.16.7.49,0,.23-.14.38-.42.45.34.07.51.24.51.53,0,.35-.23.53-.69.53h-1.01ZM422.97,296.7h.18c.17,0,.25-.12.25-.37,0-.23-.09-.34-.27-.34h-.17v.7ZM422.97,297.66h.17c.22,0,.33-.12.33-.37,0-.28-.11-.43-.34-.43h-.16v.8Z"/>
      <path class="cls-9" d="M425.73,295.83l-.5,1.26v.74h-.59v-.74l-.55-1.26h.62l.42.96.38-.96h.24Z"/>
      <path class="cls-9" d="M414.88,301.42v-2h.91c.47,0,.7.16.7.49,0,.23-.14.38-.42.45.34.07.51.24.51.53,0,.35-.23.53-.69.53h-1.01ZM415.47,300.29h.18c.17,0,.25-.12.25-.37,0-.23-.09-.34-.27-.34h-.17v.7ZM415.47,301.26h.17c.22,0,.33-.12.33-.37,0-.28-.11-.43-.34-.43h-.16v.8Z"/>
      <path class="cls-9" d="M418.35,299.42v1.34c0,.46-.26.69-.78.69s-.78-.23-.78-.69v-1.34h.59v1.36c0,.18.03.3.08.36.05.06.15.1.29.1.27,0,.4-.16.4-.47v-1.34h.2Z"/>
      <path class="cls-9" d="M418.67,301.42v-2h.91c.47,0,.7.16.7.49,0,.23-.14.38-.42.45.34.07.51.24.51.53,0,.35-.23.53-.69.53h-1.01ZM419.26,300.29h.18c.17,0,.25-.12.25-.37,0-.23-.09-.34-.27-.34h-.17v.7ZM419.26,301.26h.17c.22,0,.33-.12.33-.37,0-.28-.11-.43-.34-.43h-.16v.8Z"/>
      <path class="cls-9" d="M420.59,301.42v-2h.91c.47,0,.7.16.7.49,0,.23-.14.38-.42.45.34.07.51.24.51.53,0,.35-.23.53-.69.53h-1.01ZM421.19,300.29h.18c.17,0,.25-.12.25-.37,0-.23-.09-.34-.27-.34h-.17v.7ZM421.19,301.26h.17c.22,0,.33-.12.33-.37,0-.28-.11-.43-.34-.43h-.16v.8Z"/>
      <path class="cls-9" d="M423.12,299.42v1.8h.84v.2h-1.43v-2h.59Z"/>
      <path class="cls-9" d="M425.41,299.42v.2h-.73v.6h.62v.2h-.62v.79h.86v.2h-1.45v-2h1.33Z"/>
      <path class="cls-9" d="M419.29,303.02v.2h-.5v1.8h-.63v-1.8h-.51v-.2h1.64Z"/>
      <path class="cls-9" d="M420.77,303.02v.2h-.73v.6h.62v.2h-.62v.79h.86v.2h-1.45v-2h1.33Z"/>
      <path class="cls-9" d="M422.01,303.02l.57,2h-.6l-.12-.43h-.62l-.13.43h-.23l.61-2h.52ZM421.3,304.39h.5l-.24-.89-.26.89Z"/>
    </g>
    <g>
      <path class="cls-9" d="M428.8,158.69v.37h-1.31v1.11h1.1v.37h-1.1v1.45h1.54v.37h-2.6v-3.67h2.38Z"/>
      <path class="cls-9" d="M432.02,158.69l-.96,1.57,1.17,2.1h-1.18l-.7-1.29-.78,1.29h-.48l1.03-1.68-1.11-1.99h1.18l.66,1.2.71-1.2h.47Z"/>
      <path class="cls-9" d="M432.51,162.35v-3.67h1.58c.9,0,1.35.36,1.35,1.08s-.5,1.09-1.5,1.09h-.37v1.5h-1.06ZM433.57,160.51h.24c.39,0,.58-.26.58-.77,0-.48-.19-.72-.58-.72h-.24v1.49Z"/>
      <path class="cls-9" d="M435.79,162.35v-3.67h1.58c.41,0,.74.09.98.26s.37.4.37.69c0,.44-.26.73-.79.87.27.1.45.21.53.33.08.12.13.35.16.7.03.41.1.68.21.82h-1.16c-.07-.17-.11-.38-.11-.64v-.22s-.01-.27-.01-.27c0-.42-.17-.63-.51-.63h-.18v1.76h-1.06ZM436.86,160.29h.21c.4,0,.6-.21.6-.63s-.2-.63-.6-.63h-.21v1.26Z"/>
      <path class="cls-9" d="M441.64,158.69v.37h-1.31v1.11h1.1v.37h-1.1v1.45h1.54v.37h-2.6v-3.67h2.38Z"/>
      <path class="cls-9" d="M444.59,159.71l-.49.09c.02-.1.03-.18.03-.25,0-.43-.26-.64-.78-.64-.41,0-.61.15-.61.44,0,.22.23.41.68.57.88.3,1.32.75,1.32,1.34,0,.35-.12.63-.37.84s-.58.32-.99.32c-.91,0-1.36-.35-1.36-1.06,0-.06,0-.13.01-.21l.51-.11c-.04.16-.06.29-.06.41,0,.45.26.68.78.68.42,0,.63-.16.63-.49,0-.24-.25-.46-.75-.64-.72-.26-1.08-.69-1.08-1.27,0-.33.12-.59.36-.8.24-.2.56-.3.95-.3.81,0,1.21.36,1.21,1.09Z"/>
      <path class="cls-9" d="M429.32,167.48l.45.12c0,.09.01.17.01.24,0,.36-.13.64-.39.85s-.6.32-1.04.32c-1.09,0-1.63-.61-1.63-1.83,0-.58.16-1.05.47-1.41.32-.36.73-.54,1.24-.54.79,0,1.19.38,1.19,1.14l-.46.21c0-.11,0-.19,0-.25,0-.54-.22-.81-.65-.81-.46,0-.69.57-.69,1.72,0,.99.26,1.48.77,1.48.21,0,.39-.08.53-.25s.21-.38.21-.63c0-.08-.01-.2-.04-.36Z"/>
      <path class="cls-9" d="M430.18,168.95v-3.67h1.58c.41,0,.74.09.98.26s.37.4.37.69c0,.44-.26.73-.79.87.27.1.45.21.53.33.08.12.13.35.16.7.03.41.1.68.21.82h-1.16c-.07-.17-.11-.38-.11-.64v-.22s-.01-.27-.01-.27c0-.42-.17-.63-.51-.63h-.18v1.76h-1.06ZM431.25,166.89h.21c.4,0,.6-.21.6-.63s-.2-.63-.6-.63h-.21v1.26Z"/>
      <path class="cls-9" d="M436.03,165.29v.37h-1.31v1.11h1.1v.37h-1.1v1.45h1.54v.37h-2.6v-3.67h2.38Z"/>
      <path class="cls-9" d="M436.59,168.95v-3.67h1.52c1.08,0,1.62.61,1.62,1.84s-.56,1.83-1.68,1.83h-1.46ZM437.65,168.65h.28c.26,0,.43-.11.53-.33.1-.22.15-.62.15-1.2s-.05-.98-.15-1.2-.28-.33-.53-.33h-.28v3.06Z"/>
      <path class="cls-9" d="M441.27,165.29v3.67h-1.06v-3.67h1.06Z"/>
      <path class="cls-9" d="M444.48,165.29v.37h-.9v3.3h-1.13v-3.3h-.91v-.37h2.93Z"/>
    </g>
    <g>
      <path class="cls-9" d="M410.59,353.43v-3.31h1.43c.81,0,1.21.32,1.21.97s-.45.98-1.35.98h-.33v1.35h-.96ZM411.55,351.77h.21c.35,0,.52-.23.52-.69,0-.43-.17-.65-.52-.65h-.21v1.34Z"/>
      <path class="cls-9" d="M413.55,353.43v-3.31h1.42c.37,0,.67.08.89.23.22.16.33.36.33.63,0,.4-.24.66-.71.78.24.09.4.19.47.3.07.11.12.32.15.63.03.37.09.62.19.74h-1.04c-.07-.15-.1-.34-.1-.57v-.2s0-.25,0-.25c0-.38-.15-.57-.46-.57h-.16v1.59h-.96ZM414.51,351.57h.19c.36,0,.54-.19.54-.57s-.18-.57-.54-.57h-.19v1.14Z"/>
      <path class="cls-9" d="M417.64,350.13v3.31h-.96v-3.31h.96Z"/>
      <path class="cls-9" d="M420.36,350.13v.33h-1.18v1h1v.33h-1v1.31h1.39v.33h-2.34v-3.31h2.14Z"/>
      <path class="cls-9" d="M423.18,350.13v.33h-.81v2.97h-1.02v-2.97h-.82v-.33h2.64Z"/>
      <path class="cls-9" d="M425.57,350.13v.33h-1.18v1h1v.33h-1v1.31h1.39v.33h-2.34v-3.31h2.14Z"/>
      <path class="cls-9" d="M428.49,350.13v3.31h-.73l-1.38-2.09v2.09h-.32v-3.31h.61l1.51,2.26v-2.26h.32Z"/>
      <path class="cls-9" d="M430,350.13v3.31h-.96v-3.31h.96Z"/>
      <path class="cls-9" d="M431.54,350.13v3.31h-.96v-3.31h.96Z"/>
      <path class="cls-9" d="M415.18,357.74v1.64h-.96v-3.31h.96v1.33h.78v-1.33h.96v3.31h-.96v-1.64h-.78Z"/>
      <path class="cls-9" d="M418.99,356.08l.92,3.31h-.96l-.2-.72h-1l-.21.72h-.38l.98-3.31h.84ZM417.85,358.33h.81l-.39-1.47-.42,1.47Z"/>
      <path class="cls-9" d="M422.56,356.08v.3l-1.59,2.67h1.47v.33h-2.53v-.33l1.57-2.64h-1.34v-.33h2.42Z"/>
      <path class="cls-9" d="M423.84,356.08v2.97h1.36v.33h-2.32v-3.31h.96Z"/>
      <path class="cls-9" d="M426.36,356.08v3.31h-.96v-3.31h.96Z"/>
      <path class="cls-9" d="M427.9,356.08v3.31h-.96v-3.31h.96Z"/>
    </g>
    <g>
      <path d="M423.68,230.84c.12-.44.25-.87.37-1.31.27-.95.53-1.91.79-2.86.07-.26.17-.34.44-.34.49,0,.98,0,1.47,0,.24,0,.33.09.35.32.12,1.32.24,2.64.36,3.96.08.9.17,1.8.25,2.7.02.24-.04.3-.27.3-.36,0-.72,0-1.08,0-.23,0-.3-.07-.32-.3-.13-1.38-.25-2.75-.38-4.13,0-.04-.02-.07-.06-.11-.08.29-.17.58-.25.87-.31,1.13-.62,2.27-.94,3.4-.06.23-.11.27-.35.27-.26,0-.52,0-.79,0-.28,0-.32-.03-.39-.3-.32-1.16-.64-2.32-.96-3.49-.07-.26-.15-.52-.25-.78-.03.29-.07.57-.1.86-.11,1.02-.22,2.05-.33,3.07-.01.13-.03.26-.04.39-.01.17-.11.24-.27.25-.37,0-.74,0-1.11,0-.17,0-.23-.09-.22-.25.07-.77.14-1.53.21-2.3.07-.81.15-1.62.23-2.43.06-.67.12-1.34.18-2.01.02-.21.12-.3.33-.3.5,0,1,0,1.51,0,.24,0,.34.08.41.31.38,1.35.75,2.69,1.13,4.04.02.05.03.11.05.16.01,0,.02,0,.03,0Z"/>
      <path d="M407.99,229.97c0-1.1,0-2.2,0-3.3,0-.29.06-.35.35-.35.71,0,1.43,0,2.14,0,.55,0,1.09.07,1.61.25.91.31,1.51.92,1.77,1.84.27.96.28,1.94.03,2.9-.32,1.21-1.15,1.91-2.35,2.16-.35.07-.72.12-1.08.13-.74.02-1.47,0-2.21,0-.18,0-.25-.1-.26-.31,0-.84,0-1.69,0-2.53,0-.27,0-.54,0-.8ZM409.74,232.16c.33,0,.65.02.96,0,.83-.06,1.33-.48,1.49-1.26.12-.57.12-1.15.02-1.73-.06-.35-.16-.68-.42-.93-.59-.57-1.33-.45-2.05-.46v4.39Z"/>
      <path d="M431.9,232.79s-.04.06-.06.08c-.68.95-2.04,1.16-3.01.51-.88-.59-.94-2.26.23-2.83.51-.25,1.05-.35,1.6-.36.38-.01.77.02,1.16.03.02-.38-.17-.68-.55-.81-.39-.14-.79-.12-1.18-.06-.33.05-.66.17-.99.26-.16.05-.22.02-.22-.14-.01-.28-.02-.56-.03-.84,0-.13.05-.22.17-.26.99-.33,2-.45,3.03-.18.93.25,1.48.92,1.51,1.88.03,1.08.02,2.15.02,3.23,0,.24-.08.31-.32.31-.33,0-.66,0-.99,0-.26,0-.33-.08-.33-.34,0-.15,0-.3,0-.44,0,0-.01-.02-.03-.04ZM431.82,231.21c-.16-.01-.31-.03-.47-.03-.35-.01-.71-.02-1.04.13-.29.13-.43.38-.39.67.03.26.23.44.54.5.74.14,1.41-.47,1.36-1.26Z"/>
      <path d="M436.76,229.55c.28-.38.55-.74.81-1.11.12-.18.27-.26.48-.25.39.01.78,0,1.16,0,.08,0,.15.05.23.07-.03.07-.04.15-.08.21-.53.74-1.07,1.48-1.61,2.21-.08.1-.08.17,0,.28.56.76,1.12,1.53,1.67,2.29.03.04.06.08.09.13.07.12.02.22-.12.23-.46,0-.92.01-1.39-.01-.1,0-.22-.11-.29-.2-.3-.39-.59-.8-.88-1.2-.02-.03-.04-.05-.08-.09-.05.07-.09.12-.14.18-.27.37-.54.74-.8,1.11-.1.15-.24.22-.42.22-.4,0-.8,0-1.2,0-.07,0-.18-.03-.2-.08-.03-.05.01-.15.05-.21.57-.79,1.14-1.58,1.72-2.36.07-.1.07-.16,0-.26-.54-.73-1.08-1.47-1.61-2.21-.05-.06-.05-.15-.08-.23.07-.02.15-.06.22-.06.41,0,.82,0,1.23,0,.17,0,.29.06.39.2.27.38.55.76.84,1.16Z"/>
      <path d="M416.27,228.83c.07-.08.12-.15.18-.22.52-.58,1.27-.63,1.9-.42.12.04.17.12.12.25-.11.31-.21.61-.31.92-.05.15-.14.21-.3.18-.88-.17-1.5.27-1.59,1.18-.05.47-.03.94-.04,1.42,0,.39,0,.77,0,1.16,0,.24-.07.31-.32.31-.3,0-.6,0-.91,0-.29,0-.35-.06-.35-.35,0-1.1,0-2.2,0-3.3,0-.48,0-.97,0-1.45,0-.26.07-.32.32-.32.32,0,.65,0,.97,0,.2,0,.28.08.28.28,0,.11,0,.22,0,.32,0,0,0,0,.02.03Z"/>
      <path d="M417.26,232.9c0-.46.34-.81.77-.81.43,0,.77.36.77.81,0,.44-.34.8-.77.8-.44,0-.78-.35-.78-.8Z"/>
      <path class="cls-19" d="M440.29,225.17v1.08h-1.07c-.71,0-.63,1.2,0,1.2h1.07v1.03c0,.7,1.18.79,1.18,0v-1.04h1.09c.58,0,.58-1.18,0-1.18h-1.06v-1.09c0-.54-1.21-.57-1.21,0Z"/>
    </g>
    <g>
      <path class="cls-9" d="M392.77,280.36v.39l-2.07,3.49h1.92v.43h-3.3v-.43l2.05-3.45h-1.75v-.43h3.17Z"/>
      <path class="cls-9" d="M394.45,280.36v4.32h-1.25v-4.32h1.25Z"/>
      <path class="cls-9" d="M395.2,284.68v-4.32h1.86c.48,0,.87.1,1.16.31.29.2.43.48.43.82,0,.52-.31.86-.93,1.02.32.12.52.25.62.39.09.14.16.42.19.82.04.48.12.81.24.96h-1.36c-.09-.2-.13-.45-.13-.75v-.26s-.01-.32-.01-.32c0-.5-.2-.75-.6-.75h-.22v2.07h-1.25ZM396.45,282.25h.25c.47,0,.71-.25.71-.74s-.24-.74-.71-.74h-.25v1.49Z"/>
      <path class="cls-9" d="M402.09,280.36v.43h-1.55v1.31h1.3v.43h-1.3v1.71h1.81v.43h-3.06v-4.32h2.8Z"/>
      <path class="cls-9" d="M405.77,280.36v.43h-1.06v3.88h-1.33v-3.88h-1.07v-.43h3.45Z"/>
      <path class="cls-9" d="M407.86,280.29c1.26,0,1.88.74,1.88,2.23s-.64,2.23-1.92,2.23-1.92-.76-1.92-2.28.65-2.18,1.95-2.18ZM407.83,280.63c-.24,0-.4.13-.48.39-.08.26-.12.76-.12,1.5s.04,1.24.12,1.5c.08.26.24.39.48.39s.4-.13.48-.39c.08-.26.12-.76.12-1.5s-.04-1.23-.12-1.5c-.08-.26-.24-.39-.48-.39Z"/>
      <path class="cls-9" d="M394.19,290.72l.53.14c0,.11.01.2.01.28,0,.42-.15.75-.46,1.01-.3.25-.71.38-1.22.38-1.28,0-1.92-.72-1.92-2.16,0-.68.19-1.24.56-1.66s.86-.64,1.46-.64c.93,0,1.4.45,1.4,1.35l-.54.25c0-.13,0-.22,0-.29,0-.64-.25-.95-.76-.95-.54,0-.81.68-.81,2.03,0,1.16.3,1.74.9,1.74.25,0,.46-.1.62-.3.17-.2.25-.45.25-.74,0-.09-.01-.23-.04-.42Z"/>
      <path class="cls-9" d="M397.17,288.13l1.2,4.32h-1.26l-.26-.94h-1.3l-.27.94h-.49l1.28-4.32h1.1ZM395.68,291.08h1.06l-.51-1.91-.55,1.91Z"/>
      <path class="cls-9" d="M401.52,288.13v.43h-1.57v1.44h1.33v.43h-1.33v2.01h-1.25v-4.32h2.82Z"/>
      <path class="cls-9" d="M404.76,288.13v.43h-1.57v1.44h1.33v.43h-1.33v2.01h-1.25v-4.32h2.82Z"/>
      <path class="cls-9" d="M407.97,288.13v.43h-1.55v1.31h1.3v.43h-1.3v1.71h1.81v.43h-3.06v-4.32h2.8Z"/>
    </g>
    <text class="cls-8" transform="translate(410.55 265.22) scale(1.3 1)"><tspan x="0" y="0">LENSA</tspan></text>
  </g>
  <polygon id="Barlad_Value_CentreGF01A" data-name="Barlad Value CentreGF01A" class="cls-2" points="6.72 689.72 6.72 759.04 117.09 759.04 117.09 710.25 45.36 710.25 45.36 689.72 6.72 689.72"/>
  <polygon id="Barlad_Value_CentreGF01B" data-name="Barlad Value CentreGF01B" class="cls-2" points="6.72 666.84 6.72 687.28 47.27 687.28 47.27 708.23 117.09 708.23 117.09 666.84 6.72 666.84"/>
  <rect id="Barlad_Value_CentreGF02" data-name="Barlad Value CentreGF02" class="cls-2" x="6.72" y="598.8" width="110.37" height="65.97"/>
  <rect id="Barlad_Value_CentreGF03" data-name="Barlad Value CentreGF03" class="cls-2" x="6.72" y="552.8" width="110.37" height="43.77"/>
  <rect id="Barlad_Value_CentreGF04" data-name="Barlad Value CentreGF04" class="cls-2" x="6.72" y="500.09" width="110.37" height="50.47"/>
  <rect id="Barlad_Value_CentreGF05" data-name="Barlad Value CentreGF05" class="cls-2" x="6.72" y="428.54" width="110.37" height="69.8"/>
  <rect id="Barlad_Value_CentreGF06" data-name="Barlad Value CentreGF06" class="cls-2" x="6.72" y="326.63" width="110.37" height="99.51"/>
  <rect id="Barlad_Value_CentreGF07" data-name="Barlad Value CentreGF07" class="cls-2" x="6.72" y="282.23" width="110.37" height="42.12"/>
  <rect id="Barlad_Value_CentreGF08" data-name="Barlad Value CentreGF08" class="cls-2" x="6.72" y="237.34" width="110.37" height="43.13"/>
  <polygon id="Barlad_Value_CentreGF09" data-name="Barlad Value CentreGF09" class="cls-2" points="6.72 230.31 6.72 235.27 117.09 235.27 117.09 211.43 22.32 211.43 22.32 230.63 6.72 230.31"/>
  <polygon id="Barlad_Value_CentreGF10" data-name="Barlad Value CentreGF10" class="cls-2" points="6.72 85.85 6.72 192.3 22.32 192.3 22.32 209.55 117.09 209.55 117.09 85.85 6.72 85.85"/>
  <polygon id="Barlad_Value_CentreGF11" data-name="Barlad Value CentreGF11" class="cls-2" points="119.91 25.39 119.91 149.17 171.98 149.17 171.98 6.38 151.06 6.38 151.06 25.23 119.91 25.39"/>
  <rect id="Barlad_Value_CentreGF12" data-name="Barlad Value CentreGF12" class="cls-2" x="173.9" y="6.38" width="68.84" height="142.79"/>
  <polygon id="Barlad_Value_CentreG30_T04" data-name="Barlad Value CentreG30^T04" class="cls-2" points="400.91 6.31 400.91 35.71 413.61 35.71 417.03 39.33 422.8 33.65 422.8 6.31 400.91 6.31"/>
  <polygon id="Barlad_Value_CentreG35" data-name="Barlad Value CentreG35" class="cls-2" points="424.82 6.31 424.82 34.53 418.41 40.94 426.05 48.59 447.16 48.59 447.16 14.74 443.24 14.74 443.24 6.31 424.82 6.31"/>
  <rect id="Barlad_Value_CentreG33" data-name="Barlad Value CentreG33" class="cls-2" x="465.09" y="35.31" width="31.26" height="13.27"/>
  <rect id="Barlad_Value_CentreG16_T03" data-name="Barlad Value CentreG16^T03" class="cls-2" x="400.82" y="106.35" width="21.05" height="68.1"/>
  <polygon id="Barlad_Value_CentreG15" data-name="Barlad Value CentreG15" class="cls-2" points="423.54 106.35 423.54 123.4 447.15 123.4 447.15 110.66 443.23 106.35 423.54 106.35"/>
  <rect id="Barlad_Value_CentreG13" data-name="Barlad Value CentreG13" class="cls-2" x="423.54" y="124.97" width="23.61" height="12.44"/>
  <rect id="Barlad_Value_CentreG12" data-name="Barlad Value CentreG12" class="cls-2" x="423.54" y="139.08" width="23.61" height="12.31"/>
  <rect id="Barlad_Value_CentreG11" data-name="Barlad Value CentreG11" class="cls-2" x="423.91" y="153.29" width="23.25" height="20.77"/>
  <rect id="Barlad_Value_CentreG10" data-name="Barlad Value CentreG10" class="cls-2" x="400.82" y="176.12" width="46.34" height="15.58"/>
  <polygon id="Barlad_Value_CentreG06" data-name="Barlad Value CentreG06" class="cls-4" points="400.82 257.54 400.82 269.1 447.55 269.1 447.55 257.15 400.82 257.54"/>
  <rect id="Barlad_Value_CentreG04" data-name="Barlad Value CentreG04" class="cls-4" x="416.57" y="270.67" width="30.97" height="12.15"/>
  <polygon id="Barlad_Value_CentreG14" data-name="Barlad Value CentreG14" class="cls-4" points="443.14 308.98 447.55 304.61 447.55 284.68 429.61 284.68 429.61 308.98 443.14 308.98"/>
  <rect id="Barlad_Value_CentreG40_T01" data-name="Barlad Value CentreG40^T01" class="cls-4" x="387.87" y="336.71" width="19.3" height="35.57"/>
  <rect id="Barlad_Value_CentreG39" data-name="Barlad Value CentreG39" class="cls-4" x="408.84" y="336.71" width="25.48" height="35.57"/>
  <rect id="Barlad_Value_CentreG38" data-name="Barlad Value CentreG38" class="cls-4" x="435.66" y="336.71" width="24.62" height="17.78"/>
  <polygon id="Barlad_Value_CentreG36" data-name="Barlad Value CentreG36" class="cls-4" points="435.89 355.91 435.89 372.28 494.28 372.28 494.28 336.71 462.26 336.71 462.26 356.01 435.89 355.91"/>
  <polygon id="Barlad_Value_CentreG00" data-name="Barlad Value CentreG00" class="cls-4" points="522.51 13.5 522.51 23.96 498.16 23.96 498.16 50.11 479.06 50.11 479.06 326.27 525.22 326.27 525.22 372.28 717.34 372.28 717.34 328.5 642.85 328.5 642.85 74.94 699.83 74.94 699.83 38.71 680.25 38.71 680.25 13.5 522.51 13.5"/>
  <path id="Barlad_Value_CentreG02" data-name="Barlad Value CentreG02" class="cls-4" d="M412.74,291.23v17.88h15.06v-17.88s-15.26.2-15.06,0Z"/>
  <path id="Barlad_Value_CentreG01_T02" data-name="Barlad Value CentreG01^T02" class="cls-4" d="M388,271.06v37.78h23.26v-19.09h16.4v-5.11h-12.37v-13.72s-27.5-.07-27.3.13Z"/>
  <polygon id="Barlad_Value_CentreG07_G08_G09" data-name="Barlad Value CentreG07^G08^G09" class="cls-4" points="400.82 210.83 400.82 255.96 447.55 255.96 447.55 201.35 415.7 201.35 415.7 210.7 400.82 210.83"/>
</svg>