<?xml version="1.0" encoding="utf-8"?>
<!-- Generator: Adobe Illustrator 26.0.2, SVG Export Plug-In . SVG Version: 6.00 Build 0)  -->
<svg version="1.1" id="Layer_4" xmlns="http://www.w3.org/2000/svg" xmlns:xlink="http://www.w3.org/1999/xlink" x="0px" y="0px"
	 viewBox="0 0 725.2 765.8" style="enable-background:new 0 0 725.2 765.8;" xml:space="preserve">
<style type="text/css">
	.st0{fill:#F1F2F2;}
	.st1{fill:none;stroke:#F1F2F2;stroke-width:10;stroke-miterlimit:10;}
	.st2{fill:none;stroke:#000000;stroke-width:2;stroke-miterlimit:10;}
	.st3{fill:none;stroke:#000000;stroke-miterlimit:10;}
	.st4{fill-rule:evenodd;clip-rule:evenodd;fill:none;stroke:#000000;stroke-miterlimit:10;}
	.st5{fill:#F47725;}
	.st6{fill-rule:evenodd;clip-rule:evenodd;fill:#231F20;}
	.st7{fill-rule:evenodd;clip-rule:evenodd;}
	.st8{display:none;}
	.st9{display:inline;fill:#231F20;}
	.st10{display:inline;}
	.st11{fill:#F47825;}
</style>
<g id="cladire">
	<g>
		<polygon class="st0" points="399.5,5.6 476.6,5.6 476.6,12.6 681.8,12.6 681.8,38 701.5,38 701.5,77.6 644.4,77.6 644.4,327.4 
			719,327.4 719,374.1 386.4,374.1 386.4,272.1 386.4,270.4 399.5,270.4 399.5,151.6 		"/>
		<polygon class="st1" points="399.5,5.6 476.6,5.6 476.6,12.6 681.8,12.6 681.8,38 701.5,38 701.5,77.6 644.4,77.6 644.4,327.4 
			719,327.4 719,374.1 386.4,374.1 386.4,272.1 386.4,270.4 399.5,270.4 399.5,151.6 		"/>
		<polygon class="st2" points="399.5,5.6 476.6,5.6 476.6,12.6 681.8,12.6 681.8,38 701.5,38 701.5,77.6 644.4,77.6 644.4,327.4 
			719,327.4 719,374.1 386.4,374.1 386.4,272.1 386.4,270.4 399.5,270.4 399.5,151.6 		"/>
	</g>
	<g>
		<polygon class="st0" points="244,151.6 118.4,151.6 118.4,761.4 4.9,761.4 4.9,85.1 118.4,85.1 118.4,5.6 244,5.6 		"/>
		<polygon class="st1" points="244,151.6 118.4,151.6 118.4,761.4 4.9,761.4 4.9,85.1 118.4,85.1 118.4,5.6 244,5.6 		"/>
		<polygon class="st2" points="244,151.6 118.4,151.6 118.4,761.4 4.9,761.4 4.9,85.1 118.4,85.1 118.4,5.6 244,5.6 		"/>
	</g>
</g>
<g id="magazine">
	<line class="st3" x1="4.9" y1="666.6" x2="118.4" y2="666.6"/>
	<line class="st3" x1="4.9" y1="598.3" x2="118.4" y2="598.3"/>
	<line class="st3" x1="4.9" y1="552.3" x2="118.4" y2="552.3"/>
	<line class="st3" x1="4.9" y1="500" x2="118.4" y2="500"/>
	<line class="st3" x1="4.9" y1="428.1" x2="118.4" y2="428.1"/>
	<line class="st3" x1="4.9" y1="326.1" x2="118.4" y2="326.1"/>
	<line class="st3" x1="4.9" y1="281.8" x2="118.4" y2="281.8"/>
	<line class="st3" x1="4.9" y1="236.8" x2="118.4" y2="236.8"/>
	<polyline class="st3" points="4.9,230.2 21.1,230.2 21.1,193.8 4.9,193.8 	"/>
	<line class="st3" x1="21.1" y1="210.9" x2="118.4" y2="210.9"/>
	<line class="st3" x1="118.4" y1="85.1" x2="118.4" y2="151.6"/>
	<polyline class="st3" points="118.4,25.1 150,25.1 150,5.6 	"/>
	<line class="st3" x1="172.6" y1="5.6" x2="172.6" y2="151.6"/>
	<line class="st3" x1="244" y1="5.6" x2="244" y2="151.6"/>
	<polyline class="st3" points="399.5,106.2 443.8,106.2 448.1,110.8 448.1,193.3 399.5,193.3 	"/>
	<polyline class="st3" points="399.5,201.4 448.1,201.4 448.1,305.9 443.5,310.4 386.4,310.4 	"/>
	<line class="st3" x1="399.5" y1="270.4" x2="448.1" y2="270.4"/>
	<line class="st3" x1="399.5" y1="239" x2="448.1" y2="239"/>
	<polyline class="st3" points="448.1,214 414.9,214 414.9,201.4 	"/>
	<polyline class="st3" points="448.1,284.5 416,284.5 416,275.3 416,270.4 	"/>
	<line class="st3" x1="428.7" y1="284.5" x2="428.7" y2="310.4"/>
	<polyline class="st3" points="386.4,336.4 495.2,336.4 495.2,374.1 	"/>
	<line class="st3" x1="407.9" y1="374.1" x2="407.9" y2="336.4"/>
	<line class="st3" x1="434.8" y1="374.1" x2="434.8" y2="336.4"/>
	<polyline class="st3" points="434.8,355.9 461.1,355.9 461.1,336.4 	"/>
	<polyline class="st3" points="524.3,374.1 524.3,328.3 478.1,328.3 478.1,50 	"/>
	<line class="st3" x1="503.3" y1="328.3" x2="503.3" y2="374.1"/>
	<polyline class="st3" points="399.5,37.1 412.6,37.1 425.5,50 448.1,50 448.1,14.4 443.9,14.4 443.9,5.6 	"/>
	<polyline class="st3" points="416.9,41.4 423.7,34.5 423.7,5.6 	"/>
	<polyline class="st3" points="521.5,12.6 521.5,23.5 496.9,23.5 496.9,35.1 464.3,35.1 464.3,50 497.2,50 496.9,35.1 	"/>
	<line class="st3" x1="448.1" y1="175.8" x2="399.5" y2="175.8"/>
	<line class="st3" x1="422.7" y1="175.8" x2="422.7" y2="106.2"/>
	<line class="st3" x1="422.7" y1="124.6" x2="448.1" y2="124.6"/>
	<line class="st3" x1="422.7" y1="138.8" x2="448.1" y2="138.8"/>
	<line class="st3" x1="422.7" y1="153" x2="448.1" y2="153"/>
	<line class="st3" x1="448" y1="257.2" x2="399.5" y2="257.2"/>
	<polyline class="st3" points="4.9,689.2 46.1,689.2 46.1,709.6 118.4,709.6 	"/>
	<polyline class="st4" points="428.7,295.1 414.7,295.1 414.7,310.4 	"/>
	<line class="st3" x1="399.4" y1="210.8" x2="414.9" y2="210.8"/>
</g>
<g id="logo">
	<g>
		<path d="M47.3,218.5v11.7h-1.6l-6.1-7.2v7.2h-2.3v-11.7h1.5l6.2,7.2v-7.2H47.3z"/>
		<path d="M49.2,224.4c0-3.4,2.7-6.1,6.1-6.1c3.4,0,6.1,2.7,6.1,6.1c0,3.3-2.6,6-6.1,6C51.8,230.4,49.2,227.8,49.2,224.4z M59,224.4
			c0-2.2-1.6-3.8-3.7-3.8c-2,0-3.7,1.6-3.7,3.8c0,2.1,1.6,3.7,3.7,3.7C57.4,228.1,59,226.5,59,224.4z"/>
		<path d="M67.1,226h-1.4v4.3h-2.3v-11.7h4.5c2.7,0,4,1.8,4,3.7c0,1.4-0.7,2.8-2.4,3.4l2.8,4.6h-2.7L67.1,226z M65.7,223.9h1.9
			c1.3,0,1.8-0.8,1.8-1.6c0-0.8-0.6-1.6-1.6-1.6h-2.1V223.9z"/>
		<path d="M76.4,218.5v11.7H74v-11.7H76.4z"/>
		<path d="M79,218.5h7.9v2.2h-5.6v2.5h5.2v2.2h-5.2v2.6h5.6v2.2H79V218.5z"/>
		<path d="M89.1,218.5h2.4v9.5h5.9v2.2h-8.3V218.5z"/>
	</g>
	<g>
		<polygon class="st5" points="355.4,323.4 352,317.7 356,317.6 359.4,323.3 356.2,329.2 352.3,329.3 		"/>
		<polygon class="st5" points="350,323.5 346.6,317.8 350.6,317.7 354,323.4 350.8,329.3 346.8,329.4 		"/>
		<polygon class="st5" points="344.6,323.6 341.2,317.9 345.2,317.8 348.5,323.5 345.4,329.4 341.4,329.5 		"/>
	</g>
	<g>
		<polygon class="st5" points="378,76.4 374.6,70.6 378.6,70.5 382,76.3 378.8,82.2 374.9,82.3 		"/>
		<polygon class="st5" points="372.6,76.5 369.2,70.7 373.2,70.7 376.6,76.4 373.4,82.3 369.5,82.4 		"/>
		<polygon class="st5" points="367.2,76.6 363.8,70.8 367.8,70.8 371.1,76.5 368,82.4 364,82.5 		"/>
	</g>
	<path class="st5" d="M520.3,343.9c0-0.9-0.7-1.6-1.6-1.6h-10.5c-0.9,0-1.6,0.7-1.6,1.6v10.5c0,0.9,0.7,1.6,1.6,1.6h10.5
		c0.9,0,1.6-0.7,1.6-1.6V343.9z M516.4,344.4c0.4,0,0.8,0.4,0.8,0.8c0,0.4-0.4,0.8-0.8,0.8c-0.4,0-0.8-0.4-0.8-0.8
		C515.6,344.7,516,344.4,516.4,344.4z M510.2,344.4c0.4,0,0.8,0.4,0.8,0.8c0,0.4-0.4,0.8-0.8,0.8c-0.4,0-0.8-0.4-0.8-0.8
		C509.4,344.7,509.8,344.4,510.2,344.4z M511.8,346.7l-0.2,2.7c0,0.2-0.1,0.3-0.3,0.4l0,0c-0.2,0.1-0.3,0.2-0.3,0.4l-0.2,3.5
		c0,0.2-0.2,0.4-0.4,0.4h-0.1h-0.1c-0.2,0-0.4-0.2-0.4-0.4l-0.2-3.5c0-0.2-0.1-0.3-0.3-0.4c-0.2-0.1-0.3-0.2-0.3-0.4l-0.2-2.7
		c0-0.2,0.1-0.4,0.3-0.5l0.2,0c0.1,0,0.3,0,0.4,0.1l0.3,0.3c0.2,0.2,0.5,0.2,0.6,0l0.3-0.3c0.1-0.1,0.3-0.2,0.4-0.1l0.2,0
		C511.7,346.2,511.9,346.5,511.8,346.7z M513.6,354c0,0.1-0.1,0.2-0.2,0.2c-0.1,0-0.2-0.1-0.2-0.2v-9.7c0-0.1,0.1-0.2,0.2-0.2
		c0.1,0,0.2,0.1,0.2,0.2V354z M518,349.7c-0.2,0-0.2,0.2-0.2,0.3l0.1,0.7c0,0.2-0.1,0.3-0.3,0.3l-0.2,0c-0.1,0-0.2,0.1-0.3,0.3
		l-0.1,2.2c0,0.2-0.2,0.4-0.4,0.4h-0.1h-0.1c-0.2,0-0.4-0.2-0.4-0.4l-0.1-2.2c0-0.1-0.1-0.3-0.3-0.3l-0.2,0c-0.2,0-0.3-0.2-0.3-0.3
		l0.1-0.7c0-0.2-0.1-0.3-0.2-0.3c-0.2,0-0.3-0.2-0.2-0.4l0.6-2.9c0-0.2,0.3-0.3,0.5-0.2l0.6,0.4c0.1,0.1,0.2,0.1,0.3,0l0.6-0.4
		c0.2-0.1,0.4,0,0.5,0.2l0.6,2.9C518.3,349.5,518.2,349.7,518,349.7z"/>
	<path class="st5" d="M439.5,65.1c-0.2,0-0.8,0.2-1.4,0.3c-4.4,1.2-8.1,4.8-9.3,9.3c-0.4,1.4-0.5,4.1-0.3,5.6
		c0.6,4.1,3.2,7.7,6.8,9.6c1.5,0.8,4.2,1.6,4.2,1.3c0-0.3-1.5-8-1.6-8.3c-0.1-0.2-0.7-0.8-1.3-1.4c-1.4-1.2-1.7-1.7-2-2.9
		c-0.2-0.9-1.3-7.4-1.3-7.8c0-0.3,0.4-0.6,0.6-0.3c0.1,0.1,0.5,1.7,0.9,3.8c0.8,3.4,0.8,3.6,1.1,3.7c0.1,0,0.3,0,0.3-0.1
		c0-0.1-0.3-1.8-0.8-3.8c-0.5-2-0.8-3.7-0.8-3.8c0,0,0.2-0.1,0.4-0.1h0.3l0.8,3.7c0.9,3.8,0.9,4,1.4,3.7c0.1-0.1,0-0.7-0.6-3.8
		c-0.5-2-0.8-3.8-0.7-3.8c0-0.1,0.2-0.2,0.3-0.2c0.3,0,0.3,0.1,0.8,2.3c1.2,5.5,1.1,5.2,1.4,5.2c0.1,0,0.3,0,0.3-0.1
		c0-0.1-0.3-1.8-0.8-3.8c-0.8-3.3-0.8-3.7-0.6-3.8c0.5-0.3,0.5-0.2,1.7,4c1.1,3.8,1.2,4.1,1.1,5c0,0.7-0.1,1.1-0.6,2.2
		c-0.4,0.9-0.6,1.4-0.6,1.8c0,0.6,2.2,8.4,2.3,8.2c0-0.1,0.3-1.4,0.6-2.8l0.6-2.6l-0.2-0.6c-0.2-0.7-0.2-1.2,0.1-4.6
		c0.2-2.3,0.6-4.2,1.4-6.7c0.8-2.6,1.6-4.2,2.6-5.3c1.2-1.3,2-1.2,2,0.3c0,1-2.9,16.3-3.2,16.9c-0.2,0.3-0.4,1.4-0.7,2.9
		c-0.2,1.3-0.4,2.5-0.5,2.7l-0.1,0.3l0.6-0.2c2.5-0.7,4.5-1.9,6.2-3.7c2.4-2.5,3.6-5.5,3.6-9c0-3.7-1.3-7-3.9-9.5
		c-1.8-1.8-4.3-3.1-6.9-3.6C443.3,65,440.3,64.9,439.5,65.1L439.5,65.1z M439.5,65.1"/>
	<g>
		<path class="st6" d="M558.3,319c0-1.5,1.2-2.6,3-2.6c1.6,0,3.2,0.4,4.8,0.4c1.3,0,2.6-0.4,3.9-0.4c2.2,0,3.3,1.7,3.3,3.4
			c0,2.2-1.2,3.2-3.8,3c-1.3,0-2.1,0-3.2,0.7c-1.1,0.9-1.4,2.2-1.4,3.5c0,5.1,6,5.6,10.6,5.6c5,0,10.3-0.6,10.3-5.8
			c0-1.1-0.2-2.4-1.1-3.1c-1.1-1-2.1-1-3.5-1c-1.2,0-2,0.1-2.9-0.6c-1-0.6-1.4-1.5-1.4-2.5c0-2.6,2.3-3.8,5.2-3.8
			c7.2,0,10.6,5.8,10.6,11.2c0,3.7-1.3,7.2-4.6,9.7c-3.2,2.5-8.4,3.5-12.5,3.5c-3.8,0-8.6-0.6-11.9-2.5c-3.7-2-5.7-5.7-5.7-9.4
			c0-2.8,1-5.1,3.4-7C559.6,321.8,558.3,320.7,558.3,319L558.3,319z"/>
		<path class="st6" d="M573,305.8c2.2,0,3.2,1.7,3.2,3.5c0,1.9-1.6,3.7-4,3.7c-5,0-5.8-5.7-5.8-8.8c0-2,0.2-4.8,1.4-6.5
			c1.7-2.4,4.5-2.6,7.4-2.6h8.9c0.7,0,2.3,0.1,2.3-0.6c0-0.4-0.1-0.6-0.1-1c0-1.3,1.3-2,2.7-2c2.6,0,3.7,2.3,3.7,4.1
			c0,1.8-0.9,4-3.2,4.6c2.2,1.9,3.2,4.4,3.2,6.9c0,3.7-2.3,7.3-7.2,7.3c-11.3,0-5.4-12.5-11.8-12.5c-1.8,0-2.7,1.4-2.7,2.7
			c0,0.7,0.1,1.4,1.1,1.4H573L573,305.8z M581,301.7c1.5,1.1,0.8,5.8,3.4,5.8c1.6,0,2.2-1.1,2.2-2.3c0-2.4-1.6-3.5-4.5-3.5H581
			L581,301.7z"/>
		<path class="st6" d="M576.1,286c-0.7,0-3.4-0.2-3.4,0.7c0,0.4,0.3,0.8,0.3,1.4c0,1.3-1.3,1.7-2.7,1.7c-1.8,0-3.3-0.7-3.3-2
			c0-1.2,0.4-2,0.4-2.8c0-0.9-0.4-1.7-0.4-2.7c0-1.2,0.9-1.3,2-1.3h3.6c-3.9-0.7-6.1-3.2-6.1-6.6c0-2.8,2.5-5.3,6-5.3
			c2.4,0,4.7,1.3,4.7,3.5c0,1.6-1.2,2.8-3,2.8c-0.8,0-1.3-0.3-2-0.5c-0.3,4.5,7,4.6,10.8,4.6c0.7,0,3.4,0.2,3.4-0.7
			c0-0.4-0.3-0.8-0.3-1.3c0-1.4,1.2-1.8,2.7-1.8c1.7,0,3.3,0.7,3.3,2c-0.1,2.2-0.5,3.9-0.5,5.5c0,1.5,0.4,3,0.5,4.5
			c0,1.3-1.5,2-3.3,2c-1.5,0-2.7-0.5-2.7-1.7c0-0.6,0.3-1,0.3-1.4c0-0.9-2.7-0.7-3.4-0.7H576.1L576.1,286z"/>
		<path class="st6" d="M576.1,263.9c-0.7,0-3.4-0.2-3.4,0.7c0,0.4,0.3,0.8,0.3,1.3c0,1.4-1.3,1.8-2.7,1.8c-1.8,0-3.3-0.7-3.3-2
			c0-1.2,0.4-2,0.4-2.8c0-0.8-0.4-1.7-0.4-2.7c0-1.1,0.9-1.2,2-1.2h3.6c-3.9-0.7-6.1-3.2-6.1-6.6c0-2.8,2.5-5.3,6-5.3
			c2.4,0,4.7,1.3,4.7,3.5c0,1.6-1.2,2.8-3,2.8c-0.8,0-1.3-0.3-2-0.6c-0.3,4.6,7,4.7,10.8,4.7c0.7,0,3.4,0.2,3.4-0.7
			c0-0.4-0.3-0.8-0.3-1.4c0-1.3,1.2-1.7,2.7-1.7c1.7,0,3.3,0.7,3.3,2c-0.1,2.2-0.5,3.8-0.5,5.4c0,1.6,0.4,3.1,0.5,4.6
			c0,1.3-1.5,2-3.3,2c-1.5,0-2.7-0.5-2.7-1.8c0-0.5,0.3-0.9,0.3-1.3c0-0.9-2.7-0.7-3.4-0.7H576.1L576.1,263.9z"/>
		<path class="st6" d="M580.8,238c0,0.8-0.3,1.8,1,1.8c2.7,0,4.8-1.8,4.8-4.1c0-3.5-3.7-3.2-3.7-6.3c0-1.6,1.1-2.8,2.9-2.8
			c2.2,0,3.8,1.4,4.9,2.8c1.4,1.8,2,4.1,2,6.4c0,6.6-5.3,10.7-13.1,10.7c-7.5,0-13.3-4-13.3-10.6c0-2.4,0.7-5,2.6-6.8
			c2.1-1.9,5.3-2.9,8.4-2.9c2.7,0,3.5,0.3,3.5,2.7V238L580.8,238z M575.5,234.2c0-0.6,0.3-1.4-0.8-1.4c-0.8,0-1.6,0.4-2.1,0.8
			c-0.7,0.6-0.9,1.4-0.9,2.2c0,1.1,0.2,1.9,1.2,2.8c0.4,0.4,1.2,1,1.8,1c1,0,0.7-1.3,0.7-1.7V234.2L575.5,234.2z"/>
		<path class="st6" d="M583,215.3c0.7,0,3.4,0.2,3.4-0.7c0-0.4-0.3-0.7-0.3-1.3c0-1.4,1.2-1.7,2.7-1.7c1.7,0,3.3,0.6,3.3,2.4
			c-0.1,1.7-0.5,3.3-0.5,5c0,1.6,0.4,3,0.5,4.4c0,1.6-1.5,2.2-3.3,2.2c-1.5,0-2.7-0.5-2.7-1.7c0-0.6,0.3-0.9,0.3-1.4
			c0-0.8-2.7-0.7-3.4-0.7h-8.8c-1.6,0-1.8-0.1-1.8,1.4c0,1.6-0.4,2.5-2.5,2.5c-2,0-2.8-0.6-2.8-2.3c0-1.2,0.1-1.6-1.5-1.6
			c-5.2-0.2-7.4-3.9-7.4-8c0-1.3,0.3-2.9,1-4.1c0.9-1.4,2.4-2.4,4.2-2.4c2.2,0,3.8,1.2,3.8,3c0,1.3-1.2,2.8-2.8,2.8
			c-0.5,0-0.9-0.2-1.3-0.4c-0.2,0.3-0.2,0.5-0.2,0.7c0,1.6,1.1,2,2.7,2c1.5,0,1.5-0.1,1.5-1.4c0-1.7,0.1-2.9,2.6-2.9
			c2.2,0,2.7,0.8,2.7,2.6c0,1.7-0.1,1.7,1.8,1.7H583L583,215.3z"/>
		<path class="st6" d="M579.2,189.3c7.9,0,13.5,3.3,13.5,10.4c0,7.1-5,10.8-13.2,10.8c-8.2,0-13.2-3.8-13.2-10.7
			C566.3,193.1,571.5,189.3,579.2,189.3L579.2,189.3z M572.4,199.7c-0.1,3.3,3.9,4,7.1,4c2.8,0,7.1-0.7,7.1-3.8
			c0-1.4-0.4-2.6-2.1-3.2c-1.4-0.6-3.4-0.9-5-0.9c-3,0-7.2,0.6-7.2,3.9H572.4L572.4,199.7z"/>
		<path class="st6" d="M576.1,186.3c-0.7,0-3.4-0.1-3.4,0.7c0,0.5,0.3,0.8,0.3,1.4c0,1.3-1.3,1.7-2.7,1.7c-1.8,0-3.3-0.6-3.3-3.7
			c0-0.8,0.4-1.7,0.4-2.6c0-0.9-0.4-1.8-0.4-2.9c0-1.4,1.4-1.1,2.6-1.1H581c1.1,0,2.7,0,3.7-0.5c0.9-0.5,1.4-1.4,1.4-2.2
			c0-1.2-0.7-2.3-1.8-2.9c-1.5-0.8-3.2-0.9-5-0.9h-3.2c-0.7,0-3.4-0.2-3.4,0.7c0,0.4,0.3,0.8,0.3,1.3c0,1.4-1.3,1.8-2.7,1.8
			c-1.8,0-3.3-0.7-3.3-3.5c0-0.8,0.4-1.7,0.4-2.6s-0.4-1.8-0.4-2.8c0-1.4,1.1-1.3,2.3-1.3H583c0.7,0,3.4,0.2,3.4-0.7
			c0-0.4-0.3-0.8-0.3-1.4c0-1.3,1.2-1.7,2.7-1.7c1.7,0,3.3,0.7,3.3,2.4c-0.1,1-0.5,1.9-0.5,2.8s0.4,1.8,0.5,2.6
			c-0.1,1.6-1.5,1.5-2.5,1.5h-1c2.6,1.6,4,4.4,4,7.2c0,2-0.9,4.4-3,5.6c-2,1.2-4.8,1-7.2,1H576.1L576.1,186.3z"/>
		<path class="st6" d="M576.1,157.7c-0.7,0-3.4-0.1-3.4,0.7c0,0.5,0.3,0.8,0.3,1.4c0,1.3-1.3,1.7-2.7,1.7c-1.8,0-3.3-0.6-3.3-2
			c0-1.2,0.4-1.9,0.4-2.8c0-0.9-0.4-1.7-0.4-2.7c0-1.2,0.9-1.3,2-1.3h3.6c-3.9-0.7-6.1-3.2-6.1-6.5c0-2.9,2.5-5.3,6-5.3
			c2.4,0,4.7,1.3,4.7,3.4c0,1.6-1.2,2.8-3,2.8c-0.8,0-1.3-0.3-2-0.5c-0.3,4.5,7,4.6,10.8,4.6c0.7,0,3.4,0.2,3.4-0.7
			c0-0.4-0.3-0.7-0.3-1.3c0-1.4,1.2-1.7,2.7-1.7c1.7,0,3.3,0.6,3.3,2c-0.1,2.1-0.5,3.8-0.5,5.4c0,1.6,0.4,3,0.5,4.5
			c0,1.4-1.5,2-3.3,2c-1.5,0-2.7-0.5-2.7-1.7c0-0.6,0.3-0.9,0.3-1.4c0-0.8-2.7-0.7-3.4-0.7H576.1L576.1,157.7z"/>
		<path class="st6" d="M579,39.3c0.5,0,1.1,0.5,1.1,0.5l26,22c1,0.8,0.3,1.4-0.4,1.1c-1.3-0.5-2.6-1.4-5.9-2.2
			c-4.6-1.1-8.4-1.1-10.6-0.6c-2.2,0.5-6.4,2.7-6.4,7.3c0,6,6.5,7.7,8.9,7.6c1.5-0.1,4,0,6.2-2.1c1.6-1.6,1-3.1,1-3.5
			c-0.1-0.4-0.7-1.2,0.9-1.2c1.8,0,4,1.3,5,2.2c1,0.8,3.8,3.9,3.8,8.1c0,2.6-1.4,5.5-4.4,7.7c-2.2,1.7-4.8,2.7-8.4,3.7
			c-6.6,1.8-11.6,2.2-16.9,2.2c-4.7,0-9.9-0.5-16.5-2.2c-3.5-0.9-6.7-2.3-8.7-3.7c-3-2-4.2-5.1-4.2-7.7c0-4.2,2.7-7.3,3.7-8.1
			c1-0.9,3.2-2.2,5-2.2c1.5,0,1,0.8,0.9,1.2c0,0.4-0.7,1.9,1,3.5c2.2,2.1,4.7,2,6.3,2.1c2.3,0.1,8.8-1.7,8.8-7.6
			c0-4.6-4.2-6.8-6.4-7.3c-2.2-0.5-6-0.5-10.6,0.6c-3.3,0.8-4.6,1.7-5.8,2.2c-0.8,0.3-1.5-0.3-0.4-1.1l25.9-22
			C577.9,39.8,578.4,39.3,579,39.3L579,39.3z"/>
		<path class="st6" d="M578.7,120.3c0.5,0,1.1-0.4,1.1-0.4l26.7-23.5c0.7-0.6,0-0.7-0.5-0.6c-0.3,0.1-0.5,0.2-1.8,0.9
			c-10.8,6.4-25.4,6.2-25.4,6.2s-14.6,0.2-25.4-6.2c-1.3-0.7-1.5-0.8-1.8-0.9c-0.5-0.2-1.2,0-0.5,0.6l26.7,23.5
			C577.7,119.9,578.2,120.3,578.7,120.3L578.7,120.3z"/>
	</g>
	<g>
		<path d="M45.5,476.4c-3.1,1.8-6.5,2.7-10.1,2.7c-4.2,0-7.6-1.2-10.2-3.7c-2.7-2.6-4.1-5.9-4.1-9.9c0-4.1,1.3-7.4,4.1-9.9
			c2.7-2.5,6.3-3.8,10.9-3.8c3.2,0,6.3,0.7,9.2,2.2v6.2c-2.9-1.9-5.8-2.8-8.8-2.8c-2.7,0-4.8,0.7-6.3,2.2c-1.5,1.5-2.3,3.4-2.3,6
			c0,2.4,0.7,4.4,2.2,5.9c1.5,1.5,3.4,2.2,5.9,2.2c3.2,0,6.3-1.1,9.5-3.3V476.4L45.5,476.4z"/>
		<path d="M100.4,476.4c-3.1,1.8-6.5,2.7-10.1,2.7c-4.2,0-7.6-1.2-10.2-3.7c-2.7-2.6-4.1-5.9-4.1-9.9c0-4.1,1.3-7.4,4.1-9.9
			c2.7-2.5,6.3-3.8,10.9-3.8c3.2,0,6.3,0.7,9.2,2.2v6.2c-2.9-1.9-5.8-2.8-8.8-2.8c-2.7,0-4.8,0.7-6.3,2.2c-1.5,1.5-2.3,3.4-2.3,6
			c0,2.4,0.7,4.4,2.2,5.9c1.5,1.5,3.4,2.2,5.9,2.2c3.2,0,6.3-1.1,9.5-3.3V476.4L100.4,476.4z"/>
		<path d="M73,476.4c-3.1,1.8-6.5,2.7-10,2.7c-4.2,0-7.6-1.2-10.2-3.7c-2.7-2.6-4.1-5.9-4.1-9.9c0-4.1,1.3-7.4,4.1-9.9
			c2.7-2.5,6.3-3.8,10.9-3.8c3.2,0,6.2,0.7,9.2,2.2v6.2c-2.9-1.9-5.8-2.8-8.8-2.8c-2.7,0-4.8,0.7-6.3,2.2c-1.5,1.5-2.3,3.4-2.3,6
			c0,2.4,0.7,4.4,2.2,5.9c1.5,1.5,3.4,2.2,5.9,2.2c3.1,0,6.3-1.1,9.5-3.3V476.4L73,476.4z"/>
	</g>
	<g>
		<path d="M224.4,58.1c0,2.1,0,4.1,0,6.2c0,0.6-0.2,0.9-0.8,0.8c0,0,0,0-0.1,0c-1.7,0-1.7,0-1.9-1.7c-0.1-0.8-0.5-1.1-1.3-0.9
			c-1.5,0.5-3.1,1-4.6,1.5c-0.2,0.1-0.4,0.4-0.4,0.5c0,3.2,0,6.4,0,9.6c0,0.2,0.2,0.5,0.4,0.6c1.4,0.6,2.7,1.2,4.1,1.7
			c1.2,0.4,1.6,0.1,1.8-1.1c0-0.3,0-0.7,0-1c0-0.1,0-0.3,0-0.4c0.6-0.8,1.4-0.3,2.1-0.4c0.4-0.1,0.6,0.3,0.6,0.7c0,1.7,0,3.5,0,5.2
			c0,1.1,0,2.2,0,3.3c0,0.5-0.2,0.8-0.7,0.7c0,0,0,0-0.1,0c-0.6,0-1.3,0.2-1.7-0.1c-0.3-0.2-0.3-1-0.3-1.5c-0.1-0.9-0.7-1.4-1.5-1.7
			c-5.9-2.5-11.8-4.9-17.7-7.4c-3.1-1.3-6.3-2.6-9.4-3.9c-0.6-0.2-0.8-0.6-0.8-1.2c0-0.9,0-1.9,0-2.8c0-0.7,0.2-1,0.8-1.2
			c7.5-2.6,15.1-5.3,22.6-7.9c1.5-0.5,3-1,4.4-1.6c1.2-0.4,1.5-0.9,1.5-2.1c0-1.1,0-1.1,1-1.1c1.9,0,1.7-0.2,1.7,1.7
			C224.4,54.4,224.4,56.3,224.4,58.1z M200.4,68.7c4.2,1.7,8.3,3.3,12.4,5c0-2.9,0-5.8,0-8.7C208.7,66.2,204.7,67.4,200.4,68.7z"/>
		<path d="M219.9,88.7c1.3,0,2.6,0,3.8,0c0.6,0,0.8,0.2,0.8,0.8c0,0.5,0,0.9,0,1.4c0,0.2-0.2,0.6-0.4,0.7c-0.5,0.3-0.5,0.7-0.4,1.2
			c0.3,1.7,0.8,3.4,0.9,5.2c0.5,7.4-3.4,13-10.5,15.1c-4.9,1.4-9.8,1.1-14.5-1.2c-5.5-2.7-8-8.2-7.5-14c0.1-1.5,0.5-2.8,1.1-4.2
			c0.4-0.9,0.3-1.3-0.5-1.8c-0.2-0.1-0.4-0.5-0.4-0.7c-0.1-0.5,0-1,0-1.4c0-0.5,0.2-0.7,0.7-0.7c2.6,0,5.2,0,7.7,0
			c0.5,0,0.7,0.2,0.7,0.7c0.1,1.9,0.1,1.9-1.8,2.3c-1.7,0.4-3.4,1.1-4.2,2.9c-1.4,3.1-0.8,5.9,2.2,7.6c1.9,1.1,4,1.7,6.2,2
			c4.3,0.5,8.6,0.4,12.8-0.8c1.1-0.3,2.2-0.9,3.2-1.6c3.1-2.1,2.8-8.7-1.5-10c-0.8-0.2-1.6-0.5-2.4-0.6c-0.4-0.1-0.6-0.3-0.6-0.7
			c0.1-2.5-0.4-2,2-2.1C218.2,88.6,219,88.7,219.9,88.7z"/>
		<path d="M206.6,83.7c0.8-0.5,1.6-1.1,2.5-1.7c-0.9-0.4-1.6-0.8-2.4-1.1c-0.4-0.2-0.6-0.3-0.6-0.8c0-0.9,0-1.8,0-2.8
			c0.6,0.3,1.4,0.2,1.4,1.2c0,0.2,0.3,0.4,0.5,0.6c0.9,0.6,1.7,1.2,2.6,1.8c0.8-0.5,0.9-1.4,0.9-2.3c1.2,0.2,1.3,0.3,1.3,1.4
			c0,0.9-0.1,1.8-0.7,2.6c0.9,1.3,1.1,2.7,0.9,4.3c-0.3,1.7-1.3,2.8-2.7,3.1c-1.3,0.3-2.6-0.4-3.5-1.8c-0.2-0.3-0.4-0.7-0.5-1
			c-0.8,0.2-1.6,0.5-2.4,0.5c-0.6,0-1.3-0.4-1.8-0.8c-1.2-1.1-1.4-3.5-0.4-4.9c0.9-1.2,2.7-1.4,3.7-0.2
			C205.9,82.5,206.2,83.1,206.6,83.7z M210.9,83.8c-1.2,0.8-2.3,1.7-3.5,2.5c0.7,0.9,1.5,1.3,2.6,1.2c0.8-0.1,1.4-0.5,1.7-1.3
			C212,85.3,211.7,84.5,210.9,83.8z M205.5,84.8c-0.5-1-1.1-1.4-1.9-1.5c-0.7-0.1-1.3,0.4-1.3,1c0,0.6,0.5,1.1,1.2,1.1
			C204.1,85.3,204.7,85,205.5,84.8z"/>
	</g>
	<g>
		<path d="M130.8,83.1c0,17,7.7,30.4,17.6,30.4c9.8,0,17.6-13.3,17.6-30.4c0-17-7.7-30.4-17.6-30.4
			C138.5,52.7,130.8,66.1,130.8,83.1z M163.8,83.1c0,15.6-6.9,28.3-15.5,28.3c-8.5,0-15.4-12.7-15.4-28.3c0-15.6,6.9-28.3,15.4-28.3
			C156.9,54.8,163.8,67.5,163.8,83.1z"/>
		<path d="M157.8,99.9c-1,0-0.8,1.1-1.2,1.1c-0.1,0-0.2-0.1-0.2-0.3c0-0.2,0-0.4,0.1-0.5l-0.7,0c0,0.2,0,0.4,0,0.6
			c0,0.8,0.4,1.3,1,1.3c1,0,0.8-1.1,1.2-1.1c0.1,0,0.2,0.1,0.2,0.3c0,0.2,0,0.5-0.1,0.7l0.8,0c0-0.2,0.1-0.4,0.1-0.6
			C158.9,100.4,158.4,99.9,157.8,99.9"/>
		<path class="st7" d="M156.8,96.9c0.3,0,0.4,0.2,0.4,0.4c0,0,0,0,0,0.1h-0.7c0,0,0-0.1,0-0.1C156.4,97,156.6,96.9,156.8,96.9
			 M156.7,96c-0.7,0-1,0.5-1,1.3c0,0.3,0,0.6,0,0.9h3.1v-0.8h-0.9c0-0.1,0-0.1,0-0.1C157.9,96.4,157.3,96,156.7,96z"/>
		<path class="st7" d="M157.3,92.4c0.7,0,0.8,0.4,0.8,0.6c0,0.4-0.3,0.6-0.8,0.6c-0.6,0-0.8-0.3-0.8-0.6
			C156.4,92.6,156.7,92.4,157.3,92.4 M157.2,91.5c-1.1,0-1.5,0.6-1.5,1.4c0,0.9,0.6,1.6,1.6,1.6c1,0,1.6-0.5,1.6-1.4
			C158.9,92.2,158.2,91.5,157.2,91.5z"/>
		<path class="st7" d="M156.7,88.4c0.2,0,0.3,0.2,0.3,0.4c0,0,0,0.1,0,0.1h-0.7c0,0,0-0.1,0-0.2C156.4,88.5,156.6,88.4,156.7,88.4
			 M158.8,87.3l-0.9,0.6c-0.1,0.1-0.2,0.1-0.4,0.2c-0.1-0.4-0.5-0.6-0.8-0.6c-0.7,0-1,0.4-1,1.2c0,0.4,0,0.8,0,1h3.1V89h-1.1v0
			l1.1-0.6V87.3z"/>
		<polyline points="156.5,83.8 155.7,83.8 155.7,86 156.5,86 156.5,85.4 158.8,85.4 158.8,84.5 156.5,84.5 156.5,83.8 		"/>
		<path d="M157.8,80.3c-1,0-0.8,1.1-1.2,1.1c-0.1,0-0.2-0.1-0.2-0.3c0-0.2,0-0.4,0.1-0.5l-0.7,0c0,0.2,0,0.4,0,0.6
			c0,0.8,0.4,1.3,1,1.3c1,0,0.8-1.1,1.2-1.1c0.1,0,0.2,0.1,0.2,0.3c0,0.2,0,0.5-0.1,0.7l0.8,0c0-0.2,0.1-0.4,0.1-0.6
			C158.9,80.8,158.4,80.3,157.8,80.3"/>
		<path d="M146.1,99.2v3.2c0,0-4.9,0-5.3,0c-0.7,0-1-0.4-1-0.4l0,4c0,0,0.3-0.4,1-0.4c0.5,0,11.7,0,12.2,0c0.7,0,1,0.4,1,0.4v-4
			c0,0-0.3,0.4-1,0.4c-0.5,0-3.7,0-5.7,0v-3.3c0,0,5.2,0,5.7,0c0.7,0,1,0.4,1,0.4v-4c0,0-0.3,0.4-1,0.4c-0.5,0-11.7,0-12.2,0
			c-0.7,0-1-0.4-1-0.4l0,4c0,0,0.3-0.4,1-0.4C141.2,99.2,146.1,99.2,146.1,99.2"/>
		<path d="M149.1,86.4c-2.8,0-5.1,1.7-5.1,4.1c0,2.4,2.3,4.4,5.1,4.4c2.8,0,5.1-2,5.1-4.4c0-2-1.6-3.6-3.8-4.1l0,1.1
			c0,0,0.9,0.2,1.8,0.9c0.8,0.6,0.8,1.5,0.7,2c-0.2,1.3-1.6,1.4-3.7,1.4L149.1,86.4L149.1,86.4z M148,91.9c-1.7-0.1-2.8-0.4-2.8-1.4
			c0-1,1.1-1.4,2.8-1.4L148,91.9z"/>
		<path d="M144.2,80.9c0-1,0.1-1.6,0.1-1.7c0.2-0.8,0.9-1.3,1.5-1.3c0.7,0,1.3,0.7,1.3,1.5c0,0.8-0.6,1.5-1.3,1.5
			c-0.4,0-0.7-0.2-1-0.5c0,0-0.3,0.9,0.4,1.5c0.3,0.3,0.7,0.3,0.7,0.3s6.6,0,7,0c0.7,0,1-0.4,1-0.4v3.9c0,0-0.3-0.4-1-0.4
			c-0.5,0-7.3,0-7.7,0c-0.7,0-1,0.4-1,0.4V80.9"/>
		<path d="M154,75.8l-4.9-1.9c-0.5-0.2-0.7,0.3-0.7,0.3v-2.4c0,0,0.1,0.5,0.7,0.8l8.4,3.3v2l-8.4,2.8c-0.5,0.2-0.7,0.6-0.7,0.6v-4.2
			c0.3,0.5,0.7,0.3,0.7,0.3L154,75.8"/>
		<path d="M144.2,67.9v3.8c0,0,0.3-0.4,1-0.4c0.5,0,7.3,0,7.7,0c0.7,0,1,0.4,1,0.4v-3.8c0,0-0.3,0.4-1,0.4c-0.5,0-7.3,0-7.7,0
			C144.5,68.4,144.2,67.9,144.2,67.9"/>
		<path d="M142.1,71.3c-0.7,0-1.3-0.7-1.3-1.5s0.6-1.5,1.3-1.5c0.7,0,1.3,0.7,1.3,1.5S142.8,71.3,142.1,71.3"/>
		<path d="M149.5,64.9c0.4-0.8,0.6-1.6,0.9-2.1c0.3-0.5,0.7-0.9,1.2-0.9c0.8,0,1.5,0.9,1.5,2c0,0.4-0.1,0.8-0.3,1.1
			c-0.2-0.4-0.5-0.8-1.2-0.8c-0.7,0-1.3,0.7-1.3,1.5c0,0.6,0.3,1.1,0.8,1.4c0,0,0.4,0.2,0.8,0.1c0.1,0,0.3-0.1,0.4-0.1
			c1-0.5,1.6-1.7,1.7-4.1c-0.1-2.6-1.4-4.4-3-4.4c-0.7,0-1.4,0.2-1.9,0.9c-0.3,0.4-0.7,0.8-1.2,1.9c-0.3,0.7-0.5,1.3-0.7,1.7
			c-0.2,0.5-0.7,0.9-1.2,0.9c-0.8,0-1.4-0.7-1.4-1.7c0-0.2,0-0.4,0.1-0.6l0.1,0.1c0.2,0.3,0.6,0.5,1,0.5c0.7,0,1.3-0.7,1.3-1.5
			c0-0.8-0.6-1.5-1.3-1.5c-0.5,0-0.9,0.3-1.3,0.9c-0.4,0.7-0.6,1.5-0.6,2.5c0,2.2,1.4,4,3,4C148.1,66.8,149,66,149.5,64.9
			L149.5,64.9"/>
	</g>
	<g>
		<path d="M25.2,147.8c0-1.9,1.4-2.8,2.4-3c1-0.2,3.6-0.2,4.5-1c0.9-0.8,1.5-1.9,1.3-3.3c-0.1-1.4-0.4-4.4-5.1-4.6
			c-1.6-0.1-3.3,0.6-4.4,1.4v30.3h8c0.2-0.9,0.3-1.8,0.3-1.8c0-0.3,0-0.5,0.1-0.8c0.2-3.1-1-6.9-3.2-10
			C26.7,152,25.2,149.7,25.2,147.8z M29,138.1c0.1-0.2,0.4-0.2,0.6-0.2c0.4,0,0.8,0.2,1.1,0.5c0.3,0.3,0.5,0.8,0.5,1.1
			c0,0.2-0.1,0.4-0.2,0.6c-0.4,0.4-1.1,0.3-1.7-0.2c-0.3-0.3-0.5-0.7-0.5-1.1C28.7,138.5,28.8,138.3,29,138.1z"/>
		<path d="M37.7,141.4c0.9,0,0.8-0.4,0.8-0.4c-0.4-0.4-3-1.8-3-1.8c-0.4,0.9,0.1,2,0.1,2S36.8,141.4,37.7,141.4z"/>
		<path d="M23.9,131.9v2.9c1.1-0.5,2.6-1,4.6-1c3.9,0,5.6,2.5,5.6,2.5s2.3,0.9,3.9,2.2c1.6,1.2,2.9,2.6,3,2.8
			c0.1,0.2,0.4,0.9-0.6,1.2c-1,0.3-2.9,0.7-4.9,0.7c0,0-1.3,2.3-3.4,3.1c-2.1,0.7-4.5,0-4.6,1.9c-0.1,1.3,1.1,2.9,1.5,3.5
			c0.4,0.6,5.4,5.6,5.1,13.2c-0.1,1.5-0.3,2.6-0.3,2.8H102v-35.7H23.9z M49.9,152.3c0,3.3-2.3,5.6-5.6,5.6c-1.7,0-3.5-0.7-4.9-1.8
			l2-5c0.3,0.8,0.7,1.7,1.6,1.7c1,0,1-1.1,1-1.8v-9.7h5.8V152.3z M62.3,157.6h-5.8v-7l-5.7-9.3h6.7l1.8,4.3h0.2
			c0.2-0.5,0.3-1,0.5-1.5l1.2-2.7h6.7l-5.6,9.3V157.6z M72.8,157.9c-2.1,0-4.4-0.6-6.3-1.5l1.8-4.6l0.3,0.2c1.1,0.8,2.3,1.5,3.7,1.5
			c0.6,0,1.5-0.2,1.5-1c0-0.7-0.8-0.8-1.3-0.9l-1.2-0.2c-2.3-0.4-4.3-1.8-4.3-4.3c0-3.9,3.5-6,7.1-6c1.9,0,3.6,0.5,5.2,1.4l-1.6,4.2
			c-1-0.7-2.2-1.2-3.4-1.2c-0.5,0-1.3,0.2-1.3,0.9c0,0.6,0.7,0.7,1.2,0.8l1.3,0.3c2.5,0.6,4.3,1.9,4.3,4.7
			C79.9,156,76.4,157.9,72.8,157.9z M91.3,157.6l-2.8-4.9c-0.3-0.6-0.9-1.2-1-1.9h-0.1l0.1,6.8h-5.8v-16.3h5.8l-0.1,7.1h0.1
			c0.1-0.7,0.5-1.3,0.8-1.8l2.9-5.2h6.5l-5.1,7.9l5.6,8.4H91.3z"/>
	</g>
	<g>
		<g>
			<path d="M46.4,258.5L46.4,258.5L46.4,258.5c0,3.1-2.5,5.8-5.6,5.8c-3.1,0-5.6-2.7-5.6-5.8c0-3.1,2.5-5.8,5.6-5.8
				C43.9,252.7,46.4,255.4,46.4,258.5 M49.4,266.7v-16.4h-3.2c0,0,0,0.6,0,1c0,0.4,0.1,1.2,0.1,1.2h-0.2c-1.2-1.4-2.8-2.7-5.3-2.7
				c-4.9,0-8.7,3.8-8.7,8.7c0,4.9,3.8,8.7,8.7,8.7c2.5,0,4.1-1.3,5.3-2.7h0.2c0,0-0.1,0.8-0.1,1.2c0,0.6,0,1,0,1H49.4z"/>
			<polygon points="24.8,253.3 29.9,253.3 30.3,250.3 15.6,250.3 15.6,253.3 21.5,253.3 21.5,266.7 24.8,266.7 			"/>
			<path d="M57.8,250.3h-3.1v16.4h3.1v-6.5l1.1-1.1l6.2,7.6h4.1l-8.1-9.6l6.9-6.8h-4l-6.2,6.2h-0.1c0,0,0.1-0.3,0.1-0.9V250.3z"/>
			<path d="M101.4,258.5c0,3.1-2.5,5.8-5.6,5.8c-3.1,0-5.6-2.7-5.6-5.8c0-3.1,2.5-5.8,5.6-5.8C98.9,252.7,101.4,255.4,101.4,258.5
				 M104.5,258.5c0-4.9-3.8-8.7-8.7-8.7c-4.9,0-8.7,3.8-8.7,8.7c0,4.9,3.8,8.7,8.7,8.7C100.7,267.2,104.5,263.4,104.5,258.5"/>
			<path d="M75.2,250.3h-3.1v16.4h3.1v-6.5l1.1-1.1l6.2,7.6h4.1l-8.1-9.6l6.9-6.8h-4l-6.2,6.2h-0.1c0,0,0.1-0.3,0.1-0.9V250.3z"/>
		</g>
	</g>
	<g id="Brandingmodul_x5F_Deichmann_x5F_quadratisch_x5F_vertikal_1_">
		<path id="Deichmann_1_" d="M16.9,307.3c0,1.4-0.6,2.8-2.2,2.8l-2.1,0l0-5.5l1.9,0C15.9,304.6,16.8,305.5,16.9,307.3 M19.8,307.3
			c0-2.7-1.7-4.9-5-4.9c-0.2,0-5.2,0-5.2,0l0.1,9.9c0,0,5,0,5.2,0C18.2,312.3,19.8,310.1,19.8,307.3 M21.5,312.3l8.4-0.1l0-2.1
			l-5.5,0l0-1.8l4.6,0l0-2.1l-4.6,0l0-1.8l5.5,0l0-2.1l-8.4,0.1L21.5,312.3z M31.9,312.2l2.9,0l-0.1-9.9l-2.9,0L31.9,312.2z
			 M39.5,307.2c0-1.7,0.6-3.1,2.3-3.1c1.2,0,1.8,0.7,2,1.6l2.8,0c-0.2-2.2-2.1-3.8-4.9-3.7c-3.6,0-5.3,2.4-5.3,5.3
			c0,2.9,1.7,5.3,5.3,5.2c3,0,4.7-1.7,4.9-3.9l-2.8,0c-0.2,0.9-0.7,1.6-2,1.6C40.1,310.2,39.5,308.9,39.5,307.2 M55.5,312l2.9,0
			l-0.1-9.9l-2.9,0l0,3.8l-4.2,0l0-3.8l-2.9,0l0.1,9.9l2.9,0l0-3.9l4.2,0L55.5,312z M70.4,312l2.6,0L73,302l-4.1,0l-1.9,6.6h0
			l-2-6.5l-4.1,0l0.1,9.9l2.6,0l0-7.4h0l2.3,7.4l2.4,0l2.2-7.4h0L70.4,312z M81,308.2l-2.4,0l1.2-3.8h0L81,308.2z M82.2,311.9l3.1,0
			l-3.8-9.9l-3.5,0l-3.7,9.9l3.1,0l0.5-1.6l3.8,0L82.2,311.9z M93.3,311.8l3.2,0l-0.1-9.9l-2.8,0l0,6.2h0l-4-6.2l-3.3,0l0.1,9.9
			l2.8,0l0-6.3h0L93.3,311.8z M109.1,311.7l-0.1-9.9l-2.8,0l0,6.2h0l-4-6.2l-3.3,0l0.1,9.9l2.8,0l0-6.3h0l4.2,6.2L109.1,311.7z"/>
	</g>
	<g>
		<polygon points="10.1,370.1 15.5,372.3 21.7,382.8 21.7,374.2 26.1,375.4 26.1,391.8 22,391.8 14.8,379.6 14.8,391.8 10.1,391.8 
			10.1,370.1 		"/>
		<polygon points="28,375.8 28,391.8 38.3,391.8 38.3,388 32.7,388 32.7,385.5 37.2,385.6 37.2,382.7 32.7,382.3 32.7,380.3 
			37.3,380.8 37.3,377.3 28,375.8 		"/>
		<polygon points="38.4,377.5 41.5,391.8 45.5,391.8 48.2,384.2 50.1,391.8 54,391.8 57.4,379.5 53.7,379.3 51.9,385.5 50.2,378.9 
			46.5,378.6 44.1,385.6 42.6,378.1 38.4,377.5 		"/>
		<polygon points="61.6,391.8 64.2,391.8 64.2,379.7 72.1,368.1 66.4,368.1 61.6,376 56.8,368.1 51.1,368.1 59,379.7 59,391.8 
			61.6,391.8 		"/>
		<path d="M71.3,378.9l-3.9,0.3l-1.9,1.7v2v6.9l1.9,2h3.7l1.8-2v-9.2L71.3,378.9L71.3,378.9z M70.4,389.4h-1.9v-7.4h1.9V389.4
			L70.4,389.4z"/>
		<path d="M81.8,379.6l-1.4-1.4l-6.1,0.6v3.7l0,9.3h3v-5.3h1.6v5.3h2.9v-5.9l-0.9-1l0.9-1.1V379.6L81.8,379.6z M78.9,383.8h-1.6
			v-2.9h1.6V383.8L78.9,383.8z"/>
		<polygon points="83.3,377.7 83.3,391.8 86.9,391.8 86.9,386 89.8,391.8 93.5,391.8 89.5,383.6 93,376.1 89.3,376.8 86.9,381.6 
			86.9,377.2 83.3,377.7 		"/>
		<polygon points="93.7,376 101.2,374.3 101.2,377.6 97.8,378.4 97.8,380.9 101.2,380.4 101.2,384.3 97.8,384.6 97.8,387.9 
			101.4,387.9 101.4,391.8 93.7,391.8 93.7,376 		"/>
		<path class="st7" d="M106.7,380.2v-3.9l2.4-0.7v4.3L106.7,380.2L106.7,380.2z M102.8,391.8h3.9v-7.6l2.4-0.1v7.8h4.1v-8.3
			l-1.4-1.9l1.3-2v-6.5l-1.7-2l-8.5,2.8v4V391.8L102.8,391.8z"/>
	</g>
	<g>
		<g>
			<path d="M79.2,527.6c0.4,0.3,0.9,0.4,1.4,0.4c0.5,0,1-0.1,1.5-0.4c0.5-0.3,0.9-0.6,1.2-1.1c0.3-0.5,0.5-1,0.6-1.6
				c0.1-0.5,0-0.9-0.2-1.3c-0.2-0.4-0.5-0.7-0.9-1c-0.4-0.2-0.9-0.4-1.4-0.4c-0.5,0-1,0.1-1.5,0.4c-0.5,0.3-0.9,0.6-1.2,1
				c-0.3,0.4-0.5,0.8-0.6,1.3c-0.1,0.6,0,1.1,0.1,1.6C78.5,527,78.8,527.4,79.2,527.6z"/>
			<path d="M45,522.2c-0.3,0-0.6-0.1-0.9,0h-0.4l-0.4,2.5h0.4c0.3,0,0.6,0,0.9,0c0.3,0,0.5-0.1,0.8-0.3c0.2-0.2,0.3-0.5,0.4-0.9
				c0.1-0.4,0-0.7-0.1-0.9C45.5,522.4,45.3,522.3,45,522.2z"/>
			<path d="M63.2,513.1c-16.4,0-29.7,5.4-29.7,12.1c0,6.7,13.3,12.1,29.7,12.1c16.4,0,29.7-5.4,29.7-12.1
				C92.9,518.5,79.6,513.1,63.2,513.1z M75.4,525c0.2-1,0.6-1.9,1.2-2.7c0.7-0.8,1.4-1.4,2.4-1.8c0.9-0.4,1.9-0.7,2.9-0.7
				c1,0,1.9,0.2,2.7,0.7c0.8,0.4,1.4,1.1,1.8,1.8c0.4,0.8,0.5,1.7,0.4,2.7c-0.2,1.1-0.6,2.1-1.2,2.9c-0.6,0.8-1.4,1.5-2.3,2
				c-0.9,0.5-1.9,0.7-3,0.7c-1.1,0-2-0.2-2.8-0.7c-0.8-0.5-1.3-1.1-1.7-2C75.3,527.1,75.2,526.1,75.4,525z M47.2,526.1
				c-0.7,0.6-1.6,0.8-2.8,0.8h-1.5l-0.5,3.4h-2.6l1.6-10.2h4.1c0.7,0,1.4,0.1,1.9,0.3c0.5,0.2,0.9,0.6,1.1,1.1
				c0.2,0.5,0.3,1.1,0.2,1.9C48.3,524.6,47.9,525.5,47.2,526.1z M56.7,524l-0.4,2.2h-4.5l-0.3,1.8h4.7l-0.4,2.2h-7.4l1.6-10.2h7.4
				l-0.4,2.2h-4.7l-0.3,1.7H56.7z M66.1,523.4c-0.2,1.2-0.6,2.1-1.4,2.6c-0.7,0.6-1.6,0.8-2.8,0.8h-1.5l-0.5,3.4h-2.7l1.6-10.2h4.1
				c0.7,0,1.4,0.1,1.9,0.3c0.5,0.2,0.9,0.6,1.1,1.1C66.2,522,66.2,522.6,66.1,523.4z M66.6,525.2c0.1-0.7,0.3-1.4,0.7-2
				c0.4-0.6,0.8-1.2,1.4-1.7c0.6-0.5,1.2-0.9,2-1.2c0.7-0.3,1.4-0.4,2.2-0.4c0.8,0,1.6,0.2,2.3,0.5l-0.5,3.2
				c-0.2-0.4-0.5-0.6-0.9-0.8c-0.4-0.2-0.8-0.3-1.3-0.3c-0.5,0-1,0.1-1.5,0.4c-0.4,0.2-0.8,0.6-1.1,1c-0.3,0.4-0.5,0.9-0.6,1.4
				c-0.1,0.8,0,1.5,0.4,2c0.4,0.5,1,0.8,1.9,0.8c0.4,0,0.9-0.1,1.3-0.3c0.4-0.2,0.8-0.5,1.2-0.8l-0.5,3.2c-0.5,0.1-0.9,0.3-1.2,0.3
				c-0.4,0.1-0.8,0.1-1.2,0.1c-0.7,0-1.4-0.1-2-0.4c-0.6-0.3-1.1-0.6-1.6-1.1c-0.5-0.5-0.8-1.1-1-1.7
				C66.5,526.6,66.5,525.9,66.6,525.2z M71.2,536c-6,0.7-5.4,0.5-0.1-0.3c10.6-1.6,18.7-6,18.7-11.3c0-1.6-0.7-3.5-2.2-4.8
				c1,0.6,2.1,1.3,2.7,2.2c0.8,1,1.2,2.3,1.2,3.4C91.4,530.4,82.4,534.8,71.2,536z"/>
			<path d="M62.6,522.2c-0.3,0-0.6-0.1-0.9,0h-0.4l-0.4,2.5h0.4c0.3,0,0.6,0,0.9,0c0.3,0,0.5-0.1,0.8-0.3c0.2-0.2,0.3-0.5,0.4-0.9
				c0.1-0.4,0-0.7-0.1-0.9C63.1,522.4,62.9,522.3,62.6,522.2z"/>
		</g>
		<path d="M48.2,513c34.8-7.3,49.2,4.4,47.5,12.1c0,0.1,0,0.2-0.1,0.3c5.1-7.7,1.4-21.5-25.4-18.5C64.4,507.6,55.9,510.1,48.2,513"
			/>
		<path d="M78.3,537.3c-34.8,7.3-49.2-4.4-47.5-12.1c0-0.1,0-0.2,0-0.3c-5.1,7.7-1.4,21.5,25.5,18.5C62,542.7,70.6,540.3,78.3,537.3
			"/>
	</g>
	<g>
		<path class="st7" d="M100,585.9c1.5,1.7,4.6,2.1,7.8,1l0,0c0.4-0.1,0.4-0.8,0.4-1.8l4.2-1.4c0.6-0.2,0.9-0.7,0.7-1.3
			c-0.3-0.6-0.8-0.8-1.4-0.7l-4,1.4c-0.1-0.4-0.2-0.8-0.3-1.2c-0.1-0.4-0.3-0.8-0.5-1.2l4.1-1.3c0.5-0.2,0.8-0.7,0.6-1.3
			c-0.1-0.5-0.8-0.8-1.3-0.6l-4.4,1.4c-0.5-0.9-1-1.4-1.3-1.3l0,0c-3.3,1-5.4,3.2-5.7,5.4l0,0c0,0.2-0.2,0.4-0.4,0.4
			c0,0-17.5,3.7-40.1,3.7c-27.3-0.1-40-5.7-46.7-7.5c-0.4-0.1-0.8-0.1-1,0.3c-0.2,0.4,0.1,0.8,0.5,1c0.2,0.1,17.4,10.5,47.2,10.5
			c20.7,0,33.8-3.6,40.8-5.7h0h0.2C99.8,585.7,99.9,585.7,100,585.9L100,585.9L100,585.9z"/>
		<path class="st7" d="M48.7,576.3l0.1-0.1l2.2-5l0.8,5.1H48.7L48.7,576.3z M52.5,566.6c-2,0-3.4,0.4-4.3,2.4c0,0-6,12.2-6.2,12.5
			h4.6c0,0,0.8-1.9,0.8-1.9h5c0,0,0.2,1.7,0.2,1.9h5.1c0-0.2-2.6-14.4-2.6-14.5C54.1,566.6,53.3,566.6,52.5,566.6L52.5,566.6
			L52.5,566.6z M32.2,570.5c0-0.1,0.5-3.4,0.5-3.6c-0.2,0-6.2,0-6.2,0c-3.1,0-3.9,1.5-4.4,4.1c0,0-1.3,8.8-1.4,9
			c0.1,0.1,4.3,1.1,4.4,1.2c0.1-0.3,0.7-4.4,0.7-4.4s3.4,0,3.6,0c0-0.1,0.5-3.3,0.6-3.5c-0.3,0-3.7,0-3.7,0l0.5-2.7
			C26.9,570.5,32,570.5,32.2,570.5L32.2,570.5L32.2,570.5z M38.9,566.9h-4.6c0,0.2-1.7,10.7-1.7,10.7l-0.1,1.4
			c0,0.7,0.1,1.3,0.5,1.7c0.4,0.6,1.3,0.8,2.6,0.8c0,0,4.7,0,4.9,0c0.1-0.1,0.6-4,0.7-4.3c-0.2,0-3.9,0-3.9,0S38.9,567.1,38.9,566.9
			L38.9,566.9L38.9,566.9z M99,574.2c-0.3,2.4-1.9,3.4-3.4,3.4c-0.7,0-1.3-0.3-1.8-0.8c-0.6-0.6-0.8-1.6-0.7-2.7
			c0.3-2.3,1.7-3.3,3.3-3.3c0.8,0,1.4,0.2,1.9,0.8C99,572.1,99.2,573,99,574.2L99,574.2L99,574.2z M102.5,568.6
			c-1.2-1.4-3.1-2-5.5-2c-4,0-8.4,2.9-8.8,7.8v0.8c0,1.8,0.6,3.4,1.6,4.6c1.2,1.3,3.1,2,5.4,2c0.7,0,1.4-0.1,2.1-0.3
			c0.9-2.4,3.2-4.6,6.3-5.7c0.1-0.7,0.3-1.4,0.4-2V573C104.1,571.2,103.5,569.7,102.5,568.6L102.5,568.6L102.5,568.6z M85.2,570.5
			c0.7,0,1.6,0.2,2.2,0.3c0.1-0.1,1-3.7,1-4c-0.8-0.2-1.8-0.2-2.4-0.2c-5.8,0-9.1,4.1-9.7,8c-0.3,2.2,0,3.9,1.1,5.2
			c1,1.3,2.9,1.9,5.3,1.9c1.1,0,2.4-0.2,3.5-0.4c0-0.2,0.2-3.9,0.3-4.1c-0.7,0.3-1.4,0.3-2.2,0.3c-0.9,0-1.8-0.3-2.3-1
			c-0.6-0.7-0.8-1.5-0.6-2.5C81.8,571.6,83.7,570.5,85.2,570.5L85.2,570.5L85.2,570.5z M70.6,572.2c-0.1,1-0.2,2.1-0.2,2.1l-0.2,1.3
			l-0.6-1.9c-0.4-1.3-1.4-4.3-1.8-6.9h-6.5c0,0.2-2.3,14.3-2.3,14.5h4.4c0-0.1,0.9-5.1,1-6.1c0.2-1,0.4-3,0.4-3s0.5,1.7,0.7,2.4
			c0.1,0.7,0.9,3.2,1.1,3.9c0.9,2.8,2.2,3.2,4.7,3.2c0.9,0,1.7-0.1,2.5-0.4c0,0,2.3-14.3,2.3-14.5h-4.4
			C71.5,567.1,70.8,571.2,70.6,572.2L70.6,572.2L70.6,572.2z"/>
	</g>
	<g>
		<path d="M38.3,643.6c-1.3-0.1-2.5-0.1-3.7-0.2c-1.5-0.2-2-0.7-2.2-2.1c-0.1-1.5-0.1-3.1,0-4.6c0.1-1.2,0.9-1.9,2.1-1.9
			c2.4-0.1,4.9-0.1,7.3,0c1.3,0,2.1,0.7,2.1,2c0.1,1.6,0.1,3.1,0,4.7c-0.1,1.2-0.8,1.8-1.9,1.9C40.8,643.5,39.5,643.6,38.3,643.6z
			 M38.2,641.3C38.2,641.2,38.2,641.2,38.2,641.3c0.6,0,1.3,0,1.9-0.1c0.8,0,1.2-0.3,1.2-1c0-0.7,0-1.4,0-2.1c0-0.7-0.3-1-1.1-1
			c-1.4,0-2.8,0-4.2,0c-0.7,0-0.9,0.3-1,1c0,0.7,0,1.4,0,2.1c0,0.6,0.2,0.9,0.8,1C36.7,641.2,37.4,641.2,38.2,641.3z"/>
		<path d="M20.1,637.7c-0.8,0-1.5,0-2.3,0c-0.1,0-0.3-0.2-0.3-0.3c-0.1-0.4-0.3-0.5-0.6-0.5c-1.2,0-2.4,0-3.6,0
			c-0.2,0-0.5,0.2-0.6,0.3c-0.2,0.4,0,0.7,0.5,0.7c1.4,0.1,2.8,0.1,4.2,0.2c0.4,0,0.9,0.1,1.3,0.1c1,0.1,1.6,0.7,1.7,1.7
			c0.1,0.6,0,1.3-0.1,2c-0.1,0.9-0.7,1.4-1.6,1.5c-1.6,0.1-3.1,0.1-4.7,0.2c-0.8,0-1.6,0-2.3-0.1c-1.4-0.2-2.1-1.3-1.8-2.6
			c0-0.1,0.2-0.3,0.4-0.3c0.6,0,1.3,0,1.9,0c0.1,0,0.3,0.2,0.3,0.3c0.1,0.5,0.4,0.7,0.9,0.7c1.2,0,2.5,0,3.7,0
			c0.4,0,0.7-0.1,0.7-0.6c0-0.5-0.3-0.6-0.6-0.6c-1.3-0.1-2.6-0.1-3.9-0.2c-0.5,0-1,0-1.5-0.1c-0.9-0.1-1.6-0.6-1.7-1.5
			c-0.1-0.6-0.1-1.3,0-2c0.1-1,0.7-1.6,1.7-1.7c2.2-0.2,4.5-0.3,6.7,0C19.6,635.1,20.5,635.8,20.1,637.7z"/>
		<path d="M80.9,637.6c-0.7,0-1.5,0-2.3,0c-0.1,0-0.3-0.1-0.3-0.2c0-0.4-0.3-0.6-0.6-0.6c-1.2,0-2.4,0-3.6,0c-0.2,0-0.5,0.1-0.6,0.3
			c-0.2,0.4,0,0.7,0.5,0.8c1.4,0.1,2.9,0.1,4.3,0.2c0.4,0,0.9,0.1,1.3,0.1c0.9,0.2,1.5,0.7,1.6,1.6c0.1,0.7,0.1,1.4,0,2
			c-0.2,1-0.7,1.5-1.7,1.6c-1.5,0.1-3.1,0.1-4.7,0.1c-0.8,0-1.5,0-2.3-0.1c-1.6-0.2-1.9-1.2-1.8-2.6c0-0.1,0.2-0.3,0.3-0.3
			c0.6,0,1.3,0,1.9,0c0.1,0,0.4,0.2,0.4,0.4c0.1,0.4,0.3,0.6,0.7,0.6c1.3,0,2.5,0,3.8,0c0.4,0,0.7-0.1,0.7-0.6
			c0-0.5-0.3-0.6-0.7-0.6c-1.4-0.1-2.7-0.1-4.1-0.2c-0.5,0-0.9,0-1.4-0.1c-0.9-0.1-1.5-0.6-1.6-1.5c-0.1-0.7-0.1-1.4,0-2
			c0.1-0.9,0.7-1.5,1.6-1.6c2.3-0.2,4.6-0.3,6.8,0C80.7,635,81.3,636.1,80.9,637.6z"/>
		<path d="M55.7,643.4c-0.8,0-1.6,0-2.3,0c-0.4,0-0.5-0.2-0.4-0.5c0-0.2,0-0.4,0-0.6c0-0.8-0.2-1-0.9-1c-1.4,0-2.8,0-4.3,0
			c0,0.7,0,1.4,0,2.1c-0.9,0-1.7,0-2.4,0c-0.4,0-0.3-0.3-0.3-0.5c0-1.4,0-2.9,0-4.3c0-1.1,0-2.2,0-3.4c0-0.4,0.1-0.5,0.5-0.5
			c2.7,0,5.4,0,8.1,0c1.5,0,2.1,0.7,2.2,2.2c0,0.5,0,1,0,1.6c0,0.7-0.4,1.2-1.1,1.5c0.9,0.3,1.1,1,1.1,1.8
			C55.7,642.4,55.7,642.8,55.7,643.4z M47.8,637.1c0,0.7,0,1.3,0,1.8c1.6,0,3.2,0,4.8,0c0.5,0,0.5-0.5,0.5-0.9c0-0.4,0-0.9-0.6-0.9
			C50.9,637.1,49.4,637.1,47.8,637.1z"/>
		<path d="M24,641.4c0,0.7,0,1.4,0,2.1c-0.8,0-1.6,0-2.4,0c-0.1,0-0.3-0.3-0.3-0.5c0-1.8,0-3.6,0-5.4c0-0.8,0-1.6,0-2.4
			c0-0.3,0.1-0.4,0.4-0.4c2.6,0,5.2,0,7.8,0.1c1.3,0,2,0.7,2.1,2c0.1,0.9,0,1.7-0.1,2.6c-0.1,1-0.8,1.6-1.8,1.7
			c-0.8,0.1-1.7,0.1-2.5,0.1C26.2,641.4,25.2,641.4,24,641.4z M24.1,639.1c1.4,0,2.7,0,4.1,0c0.6,0,0.7-0.2,0.8-0.8
			c0-0.8-0.1-1.1-0.7-1.1c-0.7,0-1.5,0-2.2,0c-0.6,0-1.3,0-1.9,0C24.1,637.8,24.1,638.4,24.1,639.1z"/>
		<path d="M93.3,640.1c0.8-1.7,1.5-3.3,2.2-4.9c0.2-0.5,0.5-0.6,0.9-0.6c1.2,0,2.4,0,3.6,0c0.4,0,0.5,0.1,0.5,0.5c0,2.6,0,5.1,0,7.7
			c0,0.4-0.1,0.5-0.5,0.5c-0.5,0-1.1,0-1.6,0c-0.5,0-0.7-0.1-0.6-0.6c0-1.7,0-3.4,0.1-5.1c0-0.2,0-0.3,0-0.5c-0.1,0-0.1-0.1-0.2-0.1
			c-0.1,0.1-0.3,0.3-0.3,0.4c-0.9,1.7-1.8,3.5-2.6,5.3c-0.3,0.5-0.6,0.7-1.2,0.7c-1.1,0.1-1.7-0.3-2.1-1.3c-0.7-1.6-1.6-3.1-2.4-4.7
			c-0.1-0.2-0.2-0.4-0.3-0.6c0.9-0.2,1.7-0.3,2.5-0.5c0.1,0,0.3,0.2,0.4,0.4C92.2,637.8,92.8,638.9,93.3,640.1z"/>
		<path d="M62.8,637.1c0,1.2,0,2.3,0,3.4c0,0.8,0,1.6,0,2.4c0,0.4-0.1,0.6-0.5,0.5c-0.6,0-1.2,0-1.8,0c-0.5,0-0.6-0.2-0.6-0.6
			c0-1.7,0-3.4,0-5.1c0-0.5-0.2-0.7-0.7-0.7c-0.9,0-1.8,0-2.7,0c-0.3,0-0.5-0.1-0.4-0.4c0-0.5,0-1,0-1.4c0-0.3,0.1-0.5,0.4-0.5
			c3.2,0,6.4,0,9.6,0c0.4,0,0.5,0.1,0.5,0.5c0,0.5,0,0.9,0,1.4c0,0.4-0.1,0.5-0.5,0.5C65.1,637,64,637.1,62.8,637.1z"/>
		<path d="M67.1,639c0-1.3,0-2.5,0-3.8c0-0.4,0.1-0.5,0.5-0.5c0.6,0,1.3,0,1.9,0c0.3,0,0.5,0.1,0.5,0.5c0,2.6,0,5.2,0,7.8
			c0,0.3-0.1,0.4-0.5,0.4c-0.7,0-1.3,0-2,0c-0.4,0-0.4-0.2-0.4-0.5C67.1,641.6,67.1,640.3,67.1,639z"/>
		<path d="M82,640.1c0-0.9,0-1.8,0-2.7c0-0.4,0.1-0.5,0.5-0.5c0.6,0.1,1.3,0.1,1.9,0.1c0.4,0,0.5,0.2,0.5,0.5c0,1.8,0,3.6,0,5.3
			c0,0.4-0.1,0.5-0.5,0.5c-0.6,0-1.2,0-1.9,0c-0.4,0-0.5-0.1-0.5-0.5C82,641.9,82,641,82,640.1z"/>
		<path d="M88.7,640.1c0,0.9,0,1.8,0,2.7c0,0.4-0.1,0.6-0.5,0.6c-0.6,0-1.2,0-1.8,0c-0.3,0-0.5-0.1-0.5-0.4c0-1.8,0-3.7,0-5.5
			c0-0.3,0.1-0.4,0.4-0.4c0.6,0,1.2-0.1,1.8-0.2c0.4-0.1,0.5,0.1,0.5,0.5C88.7,638.2,88.7,639.2,88.7,640.1
			C88.7,640.1,88.7,640.1,88.7,640.1z"/>
		<path d="M81.7,628.1c-0.2,0.3-0.9,1.8-0.8,2.8c1.1,0,3.6-0.8,3.6-1.1C84,629.1,81.8,629.4,81.7,628.1
			C81.8,628.1,81.7,628.1,81.7,628.1z"/>
		<path d="M86,643c0-1.8,0-3.7,0-5.5c0-0.3,0.1-0.4,0.4-0.4c0.6,0,1.2-0.1,1.8-0.2c0.4-0.1,0.5,0.1,0.5,0.5c0,0.9,0,1.9,0,2.8
			c0,0,0,0,0,0c0,0.9,0,1.8,0,2.7c0,0.4-0.1,0.6-0.5,0.6c-0.6,0-1.2,0-1.8,0C86.1,643.4,86,643.3,86,643z"/>
		<path d="M82.5,643.4c-0.4,0-0.5-0.1-0.5-0.5c0-0.9,0-1.8,0-2.7c0-0.9,0-1.8,0-2.7c0-0.4,0.1-0.5,0.5-0.5c0.6,0.1,1.3,0.1,1.9,0.1
			c0.4,0,0.5,0.2,0.5,0.5c0,1.8,0,3.6,0,5.3c0,0.4-0.1,0.5-0.5,0.5C83.8,643.3,83.2,643.3,82.5,643.4z"/>
		<path d="M95.5,635.2c0.2-0.5,0.5-0.6,0.9-0.6c1.2,0,2.4,0,3.6,0c0.4,0,0.5,0.1,0.5,0.5c0,2.6,0,5.1,0,7.7c0,0.4-0.1,0.5-0.5,0.5
			c-0.5,0-1.1,0-1.6,0c-0.5,0-0.7-0.1-0.6-0.6c0-1.7,0-3.4,0.1-5.1c0-0.2,0-0.3,0-0.5c-0.1,0-0.1-0.1-0.2-0.1
			c-0.1,0.1-0.3,0.3-0.3,0.4c-0.9,1.7-1.8,3.5-2.6,5.3c-0.3,0.5-0.6,0.7-1.2,0.7c-1.1,0.1-1.7-0.3-2.1-1.3c-0.7-1.6-1.6-3.1-2.4-4.7
			c-0.1-0.2-0.2-0.4-0.3-0.6c0.9-0.2,1.7-0.3,2.5-0.5c0.1,0,0.3,0.2,0.4,0.4c0.5,1.1,1.1,2.3,1.6,3.5
			C94.1,638.4,94.8,636.8,95.5,635.2z"/>
		<path d="M76.3,627.6L10,627.8l0-0.9l67.1-0.1c3.6-4.2,14.3-6.1,18.4-5.3c0,0-3.1,0.3-3,0.4c0.2,0.2,3,0.2,3.4,1.5
			c0,0-11.9,1.7-14,4.5c0,0,1-2.1,4.1-4c0,0-9.2,3.6-9.9,8.3C76.1,632.2,74.4,630.4,76.3,627.6z"/>
		<path d="M96.6,625.4c-0.1,1.2-0.9,2.7-0.9,2.7c0.5-0.7-2.8-1.5-2.8-1.6C92.9,626.4,95.4,625.4,96.6,625.4z"/>
		<path d="M85,634.4c-1.8-0.2-2.6-0.3-3.5-1.5c5.3-0.7,12.3-2.2,13.9-4.3c0,0-1.6,2.3-3.9,3.9c3.8-1.8,9.2-4.3,9.8-8.3
			c0,0,0.9,1,0.7,2.6l11.2,0l0,0.8l-11.5,0c-1.4,3.6-9.2,8.2-19.8,7.5C82,635,85.1,634.6,85,634.4z"/>
		<path d="M79.4,634.8c1.4,0.2,1.9,1.3,1.5,2.7c-0.7,0-1.5,0-2.3,0c-0.1,0-0.3-0.1-0.3-0.2c0-0.4-0.3-0.6-0.6-0.6
			c-1.2,0-2.4,0-3.6,0c-0.2,0-0.5,0.1-0.6,0.3c-0.2,0.4,0,0.7,0.5,0.8c1.4,0.1,2.9,0.1,4.3,0.2c0.4,0,0.9,0.1,1.3,0.1
			c0.9,0.2,1.5,0.7,1.6,1.6c0.1,0.7,0.1,1.4,0,2c-0.2,1-0.7,1.5-1.7,1.6c-1.5,0.1-3.1,0.1-4.7,0.1c-0.8,0-1.5,0-2.3-0.1
			c-1.6-0.2-1.9-1.2-1.8-2.6c0-0.1,0.2-0.3,0.3-0.3c0.6,0,1.3,0,1.9,0c0.1,0,0.4,0.2,0.4,0.4c0.1,0.4,0.3,0.6,0.7,0.6
			c1.3,0,2.5,0,3.8,0c0.4,0,0.7-0.1,0.7-0.6c0-0.5-0.3-0.6-0.7-0.6c-1.4-0.1-2.7-0.1-4.1-0.2c-0.5,0-0.9,0-1.4-0.1
			c-0.9-0.1-1.5-0.6-1.6-1.5c-0.1-0.7-0.1-1.4,0-2c0.1-0.9,0.7-1.5,1.6-1.6C74.8,634.5,77.1,634.4,79.4,634.8z"/>
		<path d="M66.6,635.2c0,0.5,0,0.9,0,1.4c0,0.4-0.1,0.5-0.5,0.5c-1.1,0-2.1,0-3.3,0c0,1.2,0,2.3,0,3.4c0,0.8,0,1.6,0,2.4
			c0,0.4-0.1,0.6-0.5,0.5c-0.6,0-1.2,0-1.8,0c-0.5,0-0.6-0.2-0.6-0.6c0-1.7,0-3.4,0-5.1c0-0.5-0.2-0.7-0.7-0.7c-0.9,0-1.8,0-2.7,0
			c-0.3,0-0.5-0.1-0.4-0.4c0-0.5,0-1,0-1.4c0-0.3,0.1-0.5,0.4-0.5c3.2,0,6.4,0,9.6,0C66.5,634.7,66.6,634.9,66.6,635.2z"/>
		<path d="M67.6,634.7c0.6,0,1.3,0,1.9,0c0.3,0,0.5,0.1,0.5,0.5c0,2.6,0,5.2,0,7.8c0,0.3-0.1,0.4-0.5,0.4c-0.7,0-1.3,0-2,0
			c-0.4,0-0.4-0.2-0.4-0.5c0-1.3,0-2.6,0-3.9c0-1.3,0-2.5,0-3.8C67,634.8,67.2,634.7,67.6,634.7z"/>
		<path d="M11.8,643.5c-1.4-0.2-2.1-1.3-1.8-2.6c0-0.1,0.2-0.3,0.4-0.3c0.6,0,1.3,0,1.9,0c0.1,0,0.3,0.2,0.3,0.3
			c0.1,0.5,0.4,0.7,0.9,0.7c1.2,0,2.5,0,3.7,0c0.4,0,0.7-0.1,0.7-0.6c0-0.5-0.3-0.6-0.6-0.6c-1.3-0.1-2.6-0.1-3.9-0.2
			c-0.5,0-1,0-1.5-0.1c-0.9-0.1-1.6-0.6-1.7-1.5c-0.1-0.6-0.1-1.3,0-2c0.1-1,0.7-1.6,1.7-1.7c2.2-0.2,4.5-0.3,6.7,0
			c1.2,0.2,2,0.9,1.7,2.8c-0.8,0-1.5,0-2.3,0c-0.1,0-0.3-0.2-0.3-0.3c-0.1-0.4-0.3-0.5-0.6-0.5c-1.2,0-2.4,0-3.6,0
			c-0.2,0-0.5,0.2-0.6,0.3c-0.2,0.4,0,0.7,0.5,0.7c1.4,0.1,2.8,0.1,4.2,0.2c0.4,0,0.9,0.1,1.3,0.1c1,0.1,1.6,0.7,1.7,1.7
			c0.1,0.6,0,1.3-0.1,2c-0.1,0.9-0.7,1.4-1.6,1.5c-1.6,0.1-3.1,0.1-4.7,0.2C13.3,643.6,12.5,643.6,11.8,643.5z"/>
		<path d="M107.5,643.5c-1.3-0.1-2.5-0.1-3.8-0.2c-1.3-0.1-1.9-0.6-2.1-2c-0.2-1.6-0.2-3.2,0-4.9c0.2-1.1,0.9-1.8,2-1.8
			c2.5-0.1,5-0.1,7.5,0c1.2,0,2,0.8,2,2c0.1,1.5,0.1,3.1,0,4.6c0,1.1-0.8,1.9-1.9,2C110.1,643.4,108.8,643.4,107.5,643.5z
			 M107.4,641C107.4,641.1,107.4,641.1,107.4,641c0.8,0,1.5,0,2.3,0c0.6,0,0.8-0.4,0.9-0.9c0-0.7,0-1.4,0-2.1c-0.1-0.7-0.3-1-0.9-1
			c-1.5,0-3,0-4.5,0c-0.5,0-0.8,0.3-0.8,0.8c0,0.7-0.1,1.5,0,2.2c0,0.7,0.2,1,1,1C106,641.1,106.7,641,107.4,641z"/>
	</g>
	<g>
		<path d="M24.5,676c0.2-0.2,0.4-0.3,0.6-0.4c-0.1,0-0.2-0.1-0.3-0.2c0.3-0.1,0.5-0.1,0.8-0.1c0.2,0,0.5,0,0.7,0c0,0,0-0.1,0-0.1
			c-0.5,0-0.9-0.1-1.4-0.1c0.5-0.4,1.1-0.4,1.8-0.3c-0.8-0.4-1.7-0.5-2.5-0.3c0,0,0-0.1,0-0.1c0.3-0.1,0.6-0.3,0.9-0.3
			c0.3,0,0.7,0,1,0.1c0.3,0.1,0.6,0.2,1,0.2c-1.1-0.6-2.2-1.1-3.4-1.1c1.3-0.3,2.4,0.1,3.5,0.6c-0.8-0.7-1.6-1.2-2.7-1.2
			c0.4-0.2,0.4-0.2,1.6,0c-0.4-0.2-0.7-0.3-1.1-0.5c0.8-0.2,1.5,0,2.1,0.5c-0.1-0.5-0.7-1-1.5-1.4c0,0,0-0.1,0-0.1
			c0.4,0.1,0.7,0.3,1.2,0.5c-0.4-0.5-0.8-0.8-1.4-1c0,0,0-0.1,0-0.1c0.5,0.1,0.9,0.2,1.4,0.3c0,0,0,0,0-0.1
			c-0.3-0.2-0.7-0.4-0.9-0.5c0.3-0.1,0.9,0.1,1.3,0.4c0.4,0.3,0.7,0.8,1,1.2c0-0.3,0-0.7-0.1-1.1c0.3,0.5,0.3,1,0.3,1.6
			c0,0.6-0.1,1.3-0.1,1.9c0,0.4,0.1,0.8,0.3,1.2c0.3,0.5,0.7,0.9,1.4,0.9c1.3,0,2.5,0.1,3.7,0.5c1,0.4,1.8,1,2.4,2
			c0,0.1,0.1,0.2,0.2,0.2c0.8,0.5,1.5,1.3,2,2.1c0.2-0.4,0.4-0.7,0.5-1.1c0,0,0.1,0,0.1,0c0,0.3-0.1,0.6-0.1,0.9c0,0,0,0,0.1,0
			c0.2-0.2,0.3-0.4,0.6-0.7c-0.1,0.4-0.1,0.7-0.2,1c0.3-0.2,0.4-0.3,0.6-0.4c0,0,0,0,0,0.1c-0.1,0.2-0.2,0.4-0.3,0.5
			c0,0,0.1,0,0.1,0.1c0.1-0.1,0.2-0.1,0.3-0.2c0.1,1.3,0.1,1.4-0.8,1.4c0,0.3,0,0.6-0.1,1c-0.2-0.2-0.3-0.3-0.3-0.4
			c-0.3,0.3-0.5,0.5-0.8,0.8c-0.4,0.4-0.7,0.4-1.2,0c-0.3-0.3-0.3-0.7-0.2-1.2c-0.4,0-0.7,0.1-1,0.1c-0.5,0.1-0.9,0-1.4-0.2
			c-0.5-0.2-1.1-0.2-1.6-0.3c0,0-0.1,0-0.1,0.1c-0.5,0.4-0.6,0.6-0.2,1.1c0.2,0.3,0.4,0.5,0.5,0.8c0.3,0.4,0.5,0.5,1,0.3
			c0.1-0.1,0.3-0.1,0.5-0.1c-0.1,0.1-0.2,0.1-0.4,0.3c0.4,0,0.7,0,1,0c0,0,0,0.1,0,0.1c-0.5,0.1-0.9,0.2-1.4,0.3
			c0.4,0.2,0.7,0.3,1.1,0.5c-0.4,0-0.8,0.1-1.2-0.2c-0.2-0.2-0.5-0.4-0.8-0.2c-0.2-0.1-0.4-0.3-0.5-0.4c0,0,0.1,0,0.1,0
			c0.1,0,0.3-0.1,0.4-0.1c-0.1-0.2-0.2-0.4-0.3-0.5c-0.1-0.1-0.4-0.1-0.6-0.2c0.2,0,0.3,0,0.5-0.1c-0.4-0.5-0.7-1-1-1.4
			c-0.5,0.4-0.5,0.8-0.2,1.3c0.2,0.3,0.3,0.5,0.4,0.8c0.3,0.7,0.8,0.9,1.5,0.9c0.1,0,0.3,0,0.4,0c0,0,0,0.1,0,0.1
			c-0.4,0-0.9,0-1.5,0c0.3,0.2,0.6,0.4,0.8,0.5c-0.4,0-0.8,0-1-0.4c-0.1-0.1-0.3-0.2-0.5-0.2c-0.4-0.1-0.9-0.1-1.3-0.1
			c0,0,0-0.1,0-0.1c0.4,0,0.9-0.1,1.4-0.1c-0.2-0.7-0.4-1.2-1-1.5c0.1,0,0.2,0,0.4,0c-0.1-0.2-0.1-0.4-0.2-0.6
			c-0.3-0.6-0.7-1.2-0.8-1.9c-0.1-0.3-0.4-0.6-0.7-0.9c0,0.1,0,0.1-0.1,0.2c-0.2-0.3-0.4-0.5-0.6-0.8c0,0-0.1,0-0.1,0
			c0,0.2,0.1,0.4,0.1,0.7c0,0,0,0,0,0c-0.2-0.3-0.3-0.6-0.5-1c0,0.3,0,0.5,0,0.7c0,0,0,0-0.1,0c-0.1-0.3-0.1-0.6-0.2-0.9
			c0,0,0,0,0,0c0,0.3,0,0.5,0,0.8c0,0-0.1,0-0.1,0c-0.1-0.4-0.1-0.9-0.2-1.4c-0.1,0.4-0.2,0.7-0.3,1c0,0-0.1,0-0.1,0
			c0-0.4,0-0.8,0.1-1.2c-0.1,0-0.1,0.1-0.2,0.1c0-0.5,0.1-0.9,0.1-1.4c-0.6,0.2-1,0.8-1.5,2.6c0-0.3,0-0.6,0.1-1
			c0-0.3,0.1-0.6,0.1-1c-0.2,0.4-0.3,0.7-0.5,1.1c0,0-0.1,0-0.1,0c0.3-0.9,0.5-1.8,0.8-2.7c-0.3,0.2-0.5,0.4-0.8,0.6c0,0,0,0-0.1,0
			c0.2-0.3,0.4-0.6,0.6-1c-0.2,0.1-0.4,0.2-0.6,0.3c0,0,0,0-0.1,0c0.2-0.3,0.4-0.5,0.6-0.9C25,675.9,24.9,676,24.5,676z"/>
		<path d="M95.8,675.8c0-0.5,0-1,0-1.5c0-0.1-0.1-0.3-0.2-0.3c-0.4-0.1-0.3-0.4-0.3-0.7c0-0.1,0.3-0.2,0.4-0.2c0.7,0,1.4,0,2.2,0
			c0.4,0,0.5,0.1,0.5,0.5c0,3.6,0,7.1,0,10.7c0,0.4,0,0.6,0.4,0.8c0.1,0.1,0.1,0.4,0.1,0.7c0,0.1-0.2,0.2-0.4,0.2
			c-0.9,0-1.8,0-2.7,0c0-0.2,0-0.4-0.1-0.7c-0.1,0.1-0.2,0.2-0.3,0.3c-1.1,0.9-2.4,0.6-3.1-0.7c-0.5-0.9-0.6-1.9-0.6-2.8
			c-0.1-1.7-0.1-3.4,0.3-5c0.1-0.4,0.3-0.9,0.6-1.2c0.6-0.9,1.6-1.1,2.6-0.5C95.3,675.4,95.5,675.6,95.8,675.8z M95.8,680.4
			c0-1.1,0-2.3,0-3.4c0-0.3-0.2-0.5-0.4-0.5c-0.3-0.1-0.5,0-0.7,0.2c-0.1,0.2-0.2,0.5-0.2,0.7c0,2.1,0,4.3,0,6.4c0,0.1,0,0.2,0,0.2
			c0.1,0.2,0.3,0.5,0.5,0.6c0.2,0,0.5-0.2,0.7-0.4c0.1-0.1,0.1-0.3,0.1-0.4C95.8,682.7,95.8,681.5,95.8,680.4z"/>
		<path d="M51.2,685.7c-1.6-1.3-1.4-2.2,0.6-3.6c-0.1-0.1-0.3-0.1-0.4-0.2c-1.7-1.7-1.5-4.8,0.3-6.3c0.8-0.6,1.6-0.8,2.6-0.6
			c0.3,0,0.5,0.1,0.6-0.2c0.1-0.3-0.1-0.4-0.3-0.6c-0.3-0.2-0.5-0.4-0.4-0.8c0.1-0.4,0.4-0.5,0.7-0.5c0,0,0.1,0,0.1,0
			c0.5,0,0.9,0,1.2,0.4c0.2,0.4,0.1,0.8-0.2,1.2c-0.2,0.3-0.5,0.6-0.7,0.9c0.1,0.1,0.1,0.1,0.2,0.1c1.6,1.2,1.9,3.3,1.3,5
			c-0.5,1.4-2,2.7-3.9,2.2c-0.4-0.1-0.8-0.1-1.2,0.2c-0.3,0.3-0.2,0.6,0.2,0.7c0.2,0.1,0.3,0.1,0.5,0.1c1,0,2,0,3,0.1
			c0.8,0.1,1.5,0.4,1.8,1.2c0.4,1.1-0.1,2.1-1.1,2.5c-0.5,0.2-1,0.3-1.5,0.4c-1.1,0.1-2.3,0.1-3.4-0.2c-0.2-0.1-0.5-0.2-0.7-0.3
			c-0.4-0.3-0.4-1,0-1.3C50.8,685.9,51,685.8,51.2,685.7z M54.3,678.9C54.3,678.9,54.3,678.9,54.3,678.9c0-0.7,0-1.3,0-2
			c0-0.2,0-0.4-0.1-0.6c-0.2-0.4-0.7-0.5-0.9-0.1c-0.1,0.3-0.2,0.6-0.2,0.8c0,1.3,0,2.6,0,3.8c0,0.2,0,0.4,0.1,0.6
			c0.2,0.4,0.7,0.4,1,0c0.1-0.2,0.2-0.4,0.2-0.6C54.3,680.3,54.3,679.6,54.3,678.9z M53.8,686C53.8,686,53.8,686,53.8,686
			c-0.5,0-0.9,0-1.4,0c-0.3,0-0.6,0.2-0.7,0.5c0,0.3,0.2,0.5,0.5,0.5c0.6,0.1,1.3,0.1,1.9,0.1c0.4,0,0.8-0.1,1.2-0.2
			c0.2-0.1,0.4-0.4,0.3-0.5c0-0.1-0.3-0.3-0.5-0.3C54.8,685.9,54.3,686,53.8,686z"/>
		<path d="M86.7,676.2c0.1-0.1,0.1-0.3,0.2-0.4c0.5-0.5,1.1-0.8,1.8-0.8c1,0,1.7,0.6,1.7,1.7c0,1.2,0,2.3,0,3.5c0,1.4,0,2.7,0,4.1
			c0,0.2,0.2,0.5,0.2,0.7c0.1,0.3,0.1,0.5,0.1,0.8c0,0.1-0.2,0.2-0.3,0.2c-0.7,0-1.3,0-2,0c-0.1,0-0.4-0.1-0.4-0.2
			c-0.1-0.3-0.2-0.6-0.3-0.9c0-2.5,0-4.9,0-7.4c0-0.2-0.1-0.6-0.3-0.7c-0.2-0.1-0.6,0-0.8,0.1c-0.1,0-0.2,0.3-0.2,0.4
			c0,2.4,0,4.8,0,7.1c0,0.2,0.1,0.4,0.2,0.5c0.3,0.2,0.3,0.5,0.2,0.8c0,0.1-0.3,0.2-0.4,0.2c-0.8,0-1.7,0-2.5,0
			c-0.2,0-0.4-0.1-0.5-0.1c0-0.3-0.1-0.6,0.1-0.8c0.2-0.3,0.3-0.5,0.3-0.9c0-2.5,0-5,0-7.5c0-0.3-0.1-0.5-0.3-0.7
			c-0.1-0.1-0.1-0.5-0.1-0.7c0-0.1,0.3-0.1,0.4-0.1c0.7,0,1.4,0,2.2,0c0.3,0,0.4,0.1,0.4,0.4c0,0.2,0,0.4,0,0.6
			C86.6,676.1,86.6,676.1,86.7,676.2z"/>
		<path d="M46.3,685c-0.1,0.1-0.2,0.2-0.4,0.3c-1.1,1.1-3.1,1-3.5-1.1c-0.2-1.1-0.2-2.1,0-3.2c0.1-0.7,0.5-1.2,1.1-1.5
			c0.8-0.4,1.6-0.8,2.4-1.1c0.4-0.2,0.6-0.4,0.5-0.8c0-0.4,0-0.8,0-1.2c0-0.3-0.1-0.5-0.4-0.5c-0.3,0-0.6,0-0.7,0.4
			c-0.1,0.2-0.1,0.5-0.1,0.8c0,0.6-0.2,0.9-0.8,1.1c-0.2,0-0.4,0.1-0.6,0.1c-0.9,0-1.3-0.5-1.1-1.4c0.2-1,0.9-1.5,1.7-1.8
			c1-0.3,2.1-0.3,3.1,0.1c1,0.3,1.6,1.2,1.6,2.3c0,2.3,0,4.6,0,6.9c0,0.2,0.1,0.4,0.2,0.6c0.3,0.4,0.2,0.8-0.2,1
			c-0.6,0.2-1.2,0.3-1.8,0C46.9,685.7,46.6,685.4,46.3,685z M46.4,679.3c-0.6,0.1-1.1,0.5-1.2,1c-0.1,1.2-0.1,2.4,0,3.6
			c0,0.3,0.2,0.5,0.5,0.5c0.3,0,0.5-0.2,0.6-0.5c0.1-0.2,0.1-0.5,0.1-0.7c0-1.2,0-2.3,0-3.5C46.5,679.6,46.4,679.4,46.4,679.3z"/>
		<path d="M79.8,685c-0.2,0.2-0.4,0.4-0.6,0.5c-1,0.9-2.9,0.8-3.3-1c-0.3-1.2-0.3-2.4,0-3.6c0.1-0.5,0.4-0.9,0.8-1.2
			c0.7-0.4,1.5-0.7,2.2-1.1c0.9-0.4,0.9-0.4,0.9-1.3c0-0.2,0-0.5,0-0.7c-0.1-0.2-0.2-0.5-0.4-0.5c-0.3-0.1-0.6,0-0.8,0.3
			c-0.1,0.2-0.1,0.5-0.1,0.7c-0.1,1-1.3,1.6-2.2,1.1c-0.4-0.2-0.5-0.8-0.4-1.4c0.2-0.9,0.9-1.4,1.7-1.6c1-0.3,2-0.3,3,0.1
			c1.1,0.4,1.7,1.2,1.7,2.3c0,2.3,0,4.5,0,6.8c0,0.3,0,0.5,0.3,0.7c0.3,0.3,0.1,0.8-0.2,0.9C81.3,686.4,80.4,686,79.8,685z
			 M79.8,679.3c-0.7,0.1-1.1,0.5-1.2,1.2c-0.1,1-0.1,2-0.1,3c0,0.7,0.2,1,0.6,1c0.4,0,0.6-0.3,0.6-1c0-1.1,0-2.1,0-3.2
			C79.8,679.9,79.8,679.6,79.8,679.3z"/>
		<path d="M70.5,680.3c0,1.2-0.1,2.3-0.5,3.3c-0.3,0.7-0.7,1.4-1.3,1.9c-1.1,0.9-2.7,0.8-3.7-0.2c-0.8-0.8-1.2-1.9-1.3-3
			c-0.2-1.6-0.2-3.2,0.3-4.7c0.4-1.1,1-2.1,2.2-2.5c1.5-0.5,3,0.3,3.7,1.8C70.4,678,70.5,679.2,70.5,680.3z M67.6,680.4
			c0-1.1,0-2.3,0-3.4c0-0.2,0-0.5-0.1-0.7c-0.1-0.2-0.3-0.4-0.5-0.4c-0.2,0-0.4,0.2-0.5,0.3c-0.1,0.3-0.2,0.6-0.2,0.9
			c0,2.2,0,4.5,0,6.7c0,0.3,0,0.6,0.1,0.8c0.1,0.2,0.3,0.4,0.5,0.4c0.2,0,0.4-0.2,0.5-0.3c0.1-0.3,0.2-0.6,0.2-0.9
			C67.6,682.7,67.6,681.6,67.6,680.4z"/>
		<path d="M74.4,673.1c0,0.3,0,0.5,0,0.6c0,3.5,0,7,0,10.5c0,0.3,0,0.6,0.3,0.8c0.1,0.1,0.1,0.5,0.1,0.7c0,0.1-0.3,0.2-0.4,0.2
			c-0.8,0-1.7,0-2.5,0c-0.2,0-0.5-0.1-0.5-0.1c0-0.3,0-0.7,0.1-0.8c0.3-0.2,0.3-0.5,0.3-0.8c0-3.1,0-6.3,0-9.4
			c0-0.3-0.1-0.5-0.3-0.8c-0.2-0.2-0.2-0.5-0.2-0.8c0-0.1,0.3-0.2,0.5-0.2C72.7,673.1,73.6,673.1,74.4,673.1z"/>
		<path d="M60.9,677c0.1-0.2,0.1-0.4,0.2-0.6c0.1-0.3,0.2-0.7,0.4-1c0.2-0.3,0.5-0.5,0.9-0.5c0.4,0,0.6,0.3,0.7,0.6
			c0.2,0.6,0.2,1.2,0.1,1.9c-0.1,0.3-0.3,0.5-0.6,0.5c-0.3,0-0.5-0.2-0.7-0.4c-0.1-0.1-0.3-0.2-0.4-0.3c-0.1,0.2-0.2,0.3-0.3,0.5
			c0,0.1,0,0.2,0,0.4c0,2.1,0,4.1,0,6.2c0,0.3,0.1,0.5,0.3,0.7c0.4,0.2,0.2,0.6,0.2,0.9c0,0.1-0.2,0.1-0.3,0.1c-1,0-2,0-2.9,0
			c-0.1,0-0.3-0.1-0.3-0.2c0-0.3,0-0.6,0.1-0.8c0.2-0.2,0.3-0.5,0.3-0.8c0-2.5,0-5,0-7.5c0-0.3-0.1-0.5-0.3-0.8
			c-0.1-0.1-0.2-0.4-0.1-0.7c0-0.1,0.3-0.2,0.4-0.2c0.6,0,1.2,0,1.8,0c0.3,0,0.4,0.1,0.4,0.4c0,0.5,0,1,0,1.5
			C60.9,677,60.9,677,60.9,677z"/>
		<path d="M100.8,673.2c-1.3,0-2.4-1.1-2.4-2.4c0-1.3,1.1-2.4,2.4-2.4c1.3,0,2.4,1.1,2.4,2.4C103.2,672.1,102.1,673.2,100.8,673.2z
			 M100.8,672.9c1.1,0,2.1-0.9,2.1-2c0-1.1-0.9-2.1-2-2.1c-1.1,0-2.1,0.9-2.1,2.1C98.8,671.9,99.7,672.9,100.8,672.9z"/>
		<path d="M37.8,687.5c0,0,0,0.1-0.1,0.1c-0.7,0.3-1.5,0.3-2.2,0.1c-0.4-0.1-0.8-0.2-1.2-0.2c-2.2-0.1-4.3-0.2-6.5-0.3
			c-0.4,0-0.9,0-1.3-0.1C30.3,687.2,34.1,687.1,37.8,687.5z"/>
		<path d="M100.3,672c-0.2,0-0.3,0-0.5,0c0-0.8,0-1.5,0-2.3c0.6,0,1.1,0,1.6,0c0.2,0,0.4,0.3,0.4,0.5c0,0.2-0.1,0.4-0.2,0.6
			c0,0.1-0.2,0.1-0.3,0.2c0.2,0.3,0.5,0.6,0.8,1c-0.3,0.1-0.6,0.1-0.7-0.2c-0.1-0.2-0.3-0.4-0.5-0.6c-0.1-0.1-0.3-0.1-0.4-0.1
			c0,0-0.1,0.2-0.1,0.3C100.2,671.5,100.3,671.7,100.3,672z M100.8,670.7c0.2,0,0.6,0.1,0.6-0.3c0-0.4-0.4-0.3-0.6-0.4
			c-0.2,0-0.5-0.1-0.5,0.3C100.2,670.7,100.5,670.6,100.8,670.7z"/>
	</g>
	<g id="g10" transform="matrix(1.25,0,0,-1.25,0,172)">
		<g id="g12" transform="matrix(0.9991569,0,0,0.99581555,-1938.4245,-1808.7215)">
			<path id="path14" d="M1969.1,1362.9c0-0.9-0.2-1.6-0.6-2.3c-0.9-1.3-2.5-2-4.8-2c-1.6,0-2.9,0.4-4,1.1c-1.2,0.8-1.9,1.9-1.9,3.2
				h3.3c0-0.6,0.3-1.1,0.8-1.4c0.5-0.3,1-0.4,1.7-0.4c0.6,0,1.1,0.1,1.5,0.3c0.4,0.2,0.7,0.6,0.7,0.9c0,0.5-0.7,0.9-2,1.2
				c-1.9,0.4-3.2,0.8-3.7,1c-1.3,0.6-2,1.6-2,2.9c0,0.8,0.2,1.5,0.6,2.1c0.4,0.6,1,1.1,1.9,1.5c0.9,0.4,1.8,0.6,2.8,0.6
				c1.4,0,2.5-0.3,3.5-1c1.1-0.7,1.7-1.8,1.7-3.1h-3.2c-0.2,1.1-0.9,1.6-2.2,1.6c-0.5,0-1-0.1-1.4-0.3c-0.4-0.2-0.6-0.5-0.6-0.9
				c0-0.5,0.7-0.8,2-1.1c1.9-0.4,3.2-0.8,3.7-1C1968.4,1365.2,1969.1,1364.2,1969.1,1362.9z"/>
			<path id="path16" d="M1985.2,1359h-3.3v7.4c0,0.9-0.1,1.5-0.4,1.8c-0.3,0.4-0.9,0.6-1.7,0.6c-1.7,0-2.5-0.9-2.5-2.8v-7h-3.3v12.3
				h3.1v-1.2c0-0.4,0-0.7,0-0.7c0,0,0,0,0,0c0.4,0.7,0.9,1.2,1.6,1.6c0.7,0.4,1.5,0.6,2.3,0.6c1.6,0,2.8-0.6,3.6-1.9
				c0.3-0.6,0.5-1.4,0.5-2.2V1359z"/>
			<path id="path18" d="M1997.2,1362.9c0-0.9-0.2-1.6-0.6-2.3c-0.9-1.3-2.5-2-4.8-2c-1.6,0-2.9,0.4-4,1.1c-1.2,0.8-1.9,1.9-1.9,3.2
				h3.3c0-0.6,0.3-1.1,0.8-1.4c0.5-0.3,1-0.4,1.7-0.4c0.6,0,1.1,0.1,1.5,0.3c0.4,0.2,0.7,0.6,0.7,0.9c0,0.5-0.7,0.9-2,1.2
				c-1.9,0.4-3.2,0.8-3.7,1c-1.3,0.6-2,1.6-2,2.9c0,0.8,0.2,1.5,0.6,2.1c0.4,0.6,1,1.1,1.9,1.5c0.9,0.4,1.8,0.6,2.8,0.6
				c1.4,0,2.5-0.3,3.5-1c1.1-0.7,1.7-1.8,1.7-3.1h-3.2c-0.2,1.1-0.9,1.6-2.2,1.6c-0.5,0-1-0.1-1.4-0.3c-0.4-0.2-0.6-0.5-0.6-0.9
				c0-0.5,0.7-0.8,2-1.1c1.9-0.4,3.2-0.8,3.7-1C1996.6,1365.2,1997.2,1364.2,1997.2,1362.9z"/>
			<path id="path20" d="M2005.6,1365c-0.3-0.3-0.9-0.5-1.7-0.6c-0.9-0.2-1.5-0.3-1.8-0.5c-0.6-0.3-0.9-0.8-0.9-1.5
				c0-0.9,0.5-1.4,1.5-1.4c0.4,0,0.9,0.1,1.4,0.3c0.5,0.2,0.8,0.5,1.1,0.8c0.3,0.4,0.5,1,0.5,1.8c0,0.1,0,0.3,0,0.6
				C2005.6,1364.7,2005.6,1364.9,2005.6,1365L2005.6,1365z M2009,1359h-3c-0.1,0.2-0.2,0.5-0.3,1c-0.8-0.8-2-1.2-3.6-1.2
				c-1.1,0-2.1,0.3-2.8,0.8c-0.9,0.6-1.3,1.5-1.3,2.7c0,1.7,0.7,2.8,2,3.5c0.6,0.3,1.8,0.6,3.7,0.8c1.3,0.2,2,0.5,2,1.1
				c0,0.5-0.2,0.9-0.6,1.1c-0.4,0.3-0.8,0.4-1.4,0.4c-0.5,0-1-0.1-1.4-0.4c-0.4-0.3-0.6-0.6-0.7-1.1h-3.1c0.1,0.9,0.3,1.6,0.7,2.1
				c0.4,0.6,1,1.1,1.9,1.4c0.8,0.3,1.7,0.5,2.8,0.5c3.5,0,5.2-1.7,5.2-5V1359L2009,1359z"/>
			<path id="path22" d="M1973.1,1372.9h-3.3v3.3h3.3V1372.9z"/>
			<path id="path24" d="M1973.1,1359h-3.3v6.2h3.3V1359z"/>
			<path id="path26" d="M2021,1358.3c0-1.6-0.6-2.9-1.8-3.9c-1.1-0.9-2.4-1.3-3.9-1.3c-1.5,0-2.7,0.4-3.7,1.3c-1.1,1-1.7,2.3-1.7,4
				h3c0-0.8,0.2-1.4,0.7-1.8c0.4-0.4,0.9-0.6,1.5-0.6c0.7,0,1.3,0.2,1.8,0.7c0.5,0.5,0.8,1.2,0.8,2.1v1.9c-0.2-0.6-0.7-1-1.3-1.3
				c-0.6-0.3-1.3-0.5-2-0.5c-1.2,0-2.2,0.4-3.1,1.1c-1,0.8-1.5,1.9-1.5,3.4v8.1h3.3v-7.6c0-1.5,0.7-2.3,2.1-2.3
				c0.7,0,1.3,0.2,1.8,0.6c0.5,0.4,0.7,1,0.7,1.6v7.6h3.2V1358.3z"/>
		</g>
	</g>
	<g>
		<g>
			<path d="M413.1,19.3c-0.2,0-0.5,0-0.7,0c-0.2,0-0.2,0.1-0.1,0.2c0.1,0.3,0.4,0.6,0.7,0.6c0.2,0,0.3,0.1,0.3,0.4
				c0,0.8,0.2,1.6,0.5,2.3c0,0.1,0.1,0.1,0,0.2c0,0.1-0.1,0-0.2,0c-0.8-0.3-1.6-0.5-2.4-0.6c-0.7-0.1-1.4,0-2.1,0.1
				c-0.3,0.1-0.3,0.1-0.3-0.2c0.1-0.8,0-1.6-0.2-2.4c-0.4-2,1.3-3.1,2.6-3.1c0.7,0,1.3,0.3,1.8,0.7c0.8,0.8,1.4,1.7,1.9,2.7
				c0,0.1,0.2,0.2,0,0.3c-0.2,0.1-0.4,0.1-0.5-0.1c-0.1-0.3-0.2-0.5-0.3-0.8c-0.1-0.2-0.2-0.3-0.4-0.3
				C413.6,19.3,413.3,19.3,413.1,19.3C413.1,19.3,413.1,19.3,413.1,19.3z"/>
			<path d="M406.6,22.1c0-0.2,0.2-0.4,0.2-0.6c0-0.3,0-0.6-0.1-0.9c-0.4-0.9-0.6-1.8-0.6-2.8c0-2,1.1-3.6,3-4.3
				c0.9-0.3,1.7-0.4,2.6-0.5c0.8,0,1.5,0,2.3,0.1c0.2,0,0.3,0.1,0.2,0.3c-0.2,0.5-0.5,1-0.7,1.5c-0.1,0.2-0.2,0.2-0.4,0.2
				c-0.8-0.3-1.6-0.4-2.5-0.3c-1.5,0.1-3,1.2-3.4,2.5c-0.2,0.6-0.1,1.3,0,2c0.1,0.5,0.2,1,0.1,1.5C407.2,21.3,406.9,21.8,406.6,22.1
				z"/>
			<path d="M411,15c0.2,0,0.3,0,0.5,0c0.1,0,0.1,0.1,0.1,0.2c-0.3,0.3-0.3,0.8-0.3,1.2c0,0.1-0.1,0.2-0.2,0.2
				c-0.9,0.1-1.7,0.6-2.2,1.4c-0.1,0.1-0.1,0.1-0.2,0c-0.3-0.3-0.7-0.4-1.1-0.4c-0.2,0-0.2-0.1-0.1-0.2c0.2-0.5,0.5-1,0.9-1.3
				C409.1,15.3,409.9,15,411,15z"/>
			<path d="M420.9,24.9l-0.1,2.6c0,0-2.2-2.3-2.3-2.3l-0.1,2.1c0.1,0,0.2,0.1,0.3,0.1v0.1l-1,0v-0.1c0.1,0,0.2,0,0.3-0.1
				c0-0.6,0-1.3,0-1.9c0-0.4,0.2-1-0.4-1.1c0,0,0.5,0,0.7,0l2.1,2.3l0-1.8c0-0.2,0-0.4-0.3-0.4h0.9
				C420.8,24.5,420.9,24.7,420.9,24.9z"/>
			<path d="M409.6,27.4v0.1h-1v-0.1c0.1,0,0.2,0,0.2,0c0-0.1,0-0.2,0-0.2c-0.2-0.6-0.4-1.2-0.6-1.8c0-0.1-0.1-0.2-0.1-0.3
				c0,0,0,0-0.1,0c-0.2,0.5-0.4,1-0.6,1.5c-0.1,0.2-0.1,0.3-0.2,0.5c0,0.1-0.1,0.2,0,0.3v0c0.1,0,0.1,0,0.2,0v0.1h-1v-0.1
				c0.1,0,0.2,0,0.2-0.1c0.2-0.3,0.3-0.7,0.5-1c0.3-0.6,0.5-1.2,0.8-1.8c0-0.1,0-0.1,0.1-0.2c0-0.1,0.1-0.1,0.1-0.1
				c0.1,0,0.1,0.1,0.1,0.1c0.2,0.4,0.3,0.8,0.5,1.2c0.2,0.5,0.4,1,0.5,1.5c0,0,0,0.1,0,0.1c0,0,0,0.1,0,0.1c0,0.1,0,0.1,0.1,0.1
				C409.5,27.4,409.6,27.4,409.6,27.4z"/>
			<path d="M405.8,24.3c-0.5-0.1-0.9,0-1.4,0c0.2,0.1,0.3,0.2,0.3,0.4l0,2.2c0,0.1,0,0.2,0,0.3c0,0,0,0,0,0v0
				c-0.1,0.1-0.2,0.1-0.3,0.1v0.1h1v-0.1c-0.1,0-0.2,0-0.2,0c0,0,0-0.1,0-0.1l0-1c0-0.2,0-0.2,0.2-0.2c0.2,0,0.4,0,0.5-0.1
				c0.4-0.1,0.6-0.5,0.6-1C406.4,24.7,406.1,24.4,405.8,24.3z M405.9,25.2c-0.1,0.3-0.4,0.5-0.7,0.5c-0.1,0-0.1-0.1-0.1-0.2l0-0.4
				c0,0,0-0.5,0.1-0.5c0.2-0.1,0.5-0.1,0.7,0.1C406,24.8,406,25,405.9,25.2z"/>
			<path d="M402.3,26.9c0.2,0.3,0.5,0.3,0.7,0.3c0.4,0,0.6-0.4,0.4-0.8c-0.1-0.2-0.3-0.3-0.4-0.5c-0.2-0.2-0.4-0.3-0.5-0.6
				c-0.3-0.5,0-1,0.5-1.2c0.2-0.1,0.5,0,0.7,0c0.2-0.1,0.3-0.1,0.3-0.1l0,0.7c-0.1-0.3-0.4-0.3-0.7-0.2c-0.3,0.1-0.5,0.4-0.3,0.7
				c0.2,0.3,0.4,0.5,0.7,0.7c0.2,0.2,0.3,0.3,0.4,0.6c0.1,0.4-0.2,0.8-0.6,0.9c-0.2,0.1-0.5,0-0.7,0c-0.1,0-0.3,0-0.3,0.1
				C402.3,27.6,402.3,27.1,402.3,26.9z"/>
			<path d="M414.8,24.2l0,0.7c0-0.2-0.2-0.2-0.4-0.2l-0.4,0c-0.2,0-0.3,0-0.3,0.2l0,2.2c0,0.1,0,0.2,0,0.2c0.1,0,0.1,0,0.3,0v0.1h-1
				v-0.1c0.1,0,0.2,0,0.2-0.1c0-0.1,0-0.2,0-0.3l0-2.1c0-0.2-0.1-0.3-0.3-0.3c0,0-0.5,0-0.6,0c0,0,0,0,0,0c-0.1,0-0.1,0-0.2,0.1
				c0,0,0,0,0,0c0,0-0.1,0.1-0.1,0.1l0-0.7c0,0.1,0.2,0.1,0.3,0.1c0.1,0,0.4,0,0.5,0c0.3,0,0.6,0,0.9,0c0.2,0,0.4,0,0.6,0
				C414.6,24.3,414.7,24.3,414.8,24.2z"/>
			<circle cx="408" cy="25.9" r="0.2"/>
			<circle cx="416.1" cy="25.9" r="0.2"/>
			<path d="M417.7,27.4v0.1l-1,0v-0.1c0.1,0,0.2,0,0.2,0c0-0.1,0-0.2,0-0.2c-0.2-0.6-0.4-1.2-0.6-1.8c0-0.1-0.1-0.2-0.1-0.3
				c0,0,0,0-0.1,0c-0.2,0.5-0.4,1-0.6,1.5c-0.1,0.2-0.1,0.3-0.2,0.5c0,0.1-0.1,0.2,0,0.3v0c0.1,0,0.1,0,0.2,0v0.1h-1v-0.1
				c0.1,0,0.2,0,0.2-0.1c0.2-0.3,0.3-0.7,0.5-1c0.3-0.6,0.5-1.2,0.8-1.8c0-0.1,0-0.1,0.1-0.2c0-0.1,0.1-0.1,0.1-0.1
				c0.1,0,0.1,0.1,0.1,0.1c0.2,0.4,0.3,0.8,0.5,1.2c0.2,0.5,0.4,1,0.5,1.5c0,0,0,0.1,0,0.1c0,0,0,0.1,0,0.1c0,0.1,0,0.1,0.1,0.1
				C417.5,27.4,417.6,27.4,417.7,27.4z"/>
		</g>
		<path d="M412.3,27.4v0.1h-0.7v-0.1c0,0,0,0,0,0c-0.1-0.2-0.1-0.2-0.2-0.3c-0.2-0.4-0.5-0.7-0.7-1.1c-0.2-0.2-0.1-0.3,0.1-0.4
			c0.1,0,0.1,0,0.2-0.1c0.3-0.1,0.5-0.4,0.4-0.6c-0.1-0.3-0.4-0.4-0.7-0.3c-0.2,0-0.1,0.1-0.1,0.3c0,0.5,0,1,0,1.5
			c0,0.2,0,0.5,0,0.7c0,0.1,0,0.2,0,0.3c0.1,0,0.1,0,0.2,0v0.1h-1v-0.1c0.1,0,0.2,0,0.3-0.1v0c0-0.1,0-0.2,0-0.3c0-0.8,0-1.5,0-2.3
			c0-0.2,0-0.3-0.2-0.4c0.5,0,0.9-0.1,1.4,0c0.5,0.2,0.6,0.9,0.2,1.3c0,0,0,0-0.1,0.1c-0.3,0.3-0.3,0.3-0.1,0.6
			c0.2,0.2,0.3,0.5,0.5,0.7c0.1,0.1,0.1,0.2,0.2,0.2c0,0,0,0,0,0c0,0.1,0.1,0.1,0.2,0.2C412.2,27.4,412.3,27.4,412.3,27.4z"/>
	</g>
	<g>
		<path d="M433.4,48.3v-0.5l2.2-1.5l-2.2-1.5v-0.5h3.9V45h-2.2l1.6,1.1v0.3l-1.6,1.1h2.2v0.8H433.4z"/>
		<path d="M433.4,43.4v-2.6h0.7v1.9h0.8v-1.7h0.7v1.7h0.9v-1.9h0.7v2.6H433.4z"/>
		<path d="M436.6,40.4l-0.5-0.4c0.4-0.3,0.5-0.6,0.5-1c0-0.3-0.2-0.6-0.4-0.6c-0.2,0-0.3,0.2-0.4,0.4c-0.1,0.2-0.2,0.6-0.4,0.8
			c-0.2,0.3-0.5,0.6-1,0.6c-0.6,0-1.1-0.5-1.1-1.3c0-0.5,0.2-0.9,0.5-1.3l0.6,0.4c-0.2,0.2-0.4,0.6-0.4,0.9c0,0.3,0.2,0.5,0.4,0.5
			c0.2,0,0.3-0.2,0.4-0.3c0.1-0.2,0.2-0.6,0.4-0.9c0.2-0.4,0.5-0.7,1-0.7c0.7,0,1.2,0.6,1.2,1.4C437.3,39.5,437.1,40.1,436.6,40.4z"
			/>
		<path d="M435.3,37.1c-1.1,0-2-0.9-2-2s0.9-2,2-2c1.1,0,2,0.9,2,2C437.3,36.2,436.4,37.1,435.3,37.1z M435.3,33.9
			c-0.7,0-1.2,0.5-1.2,1.2c0,0.7,0.5,1.2,1.2,1.2c0.7,0,1.2-0.5,1.2-1.2C436.6,34.4,436,33.9,435.3,33.9z"/>
		<path d="M434.7,29.6c0.7,0,1.3,0.4,1.3,1.4v0.6h1.3v0.8h-3.9V31C433.4,30,434,29.6,434.7,29.6z M434.6,30.4
			c-0.3,0-0.6,0.2-0.6,0.6v0.7h1.1V31C435.2,30.6,434.9,30.4,434.6,30.4z"/>
		<path d="M435.3,29.3c-1.1,0-2-0.9-2-2s0.9-2,2-2c1.1,0,2,0.9,2,2C437.3,28.4,436.4,29.3,435.3,29.3z M435.3,26
			c-0.7,0-1.2,0.5-1.2,1.2c0,0.7,0.5,1.2,1.2,1.2c0.7,0,1.2-0.5,1.2-1.2C436.6,26.6,436,26,435.3,26z"/>
		<path d="M434.1,25.1h-0.8v-3h0.8v1.1h3.1V24h-3.1V25.1z"/>
		<path d="M436.4,19.9v1.4l0.8,0.3v0.8l-3.9-1.5v-0.6l3.9-1.5v0.8L436.4,19.9z M435.7,21v-0.9l-1.3,0.5L435.7,21z"/>
		<path d="M433.4,18.3v-0.5l2.2-1.5l-2.2-1.5v-0.5h3.9V15h-2.2l1.6,1.1v0.3l-1.6,1.1h2.2v0.8H433.4z"/>
		<path d="M433.4,12.6h3.9v0.8h-3.9V12.6z"/>
		<path d="M436.4,9.6V11l0.8,0.3v0.8l-3.9-1.5V10l3.9-1.5v0.8L436.4,9.6z M435.7,10.8V9.8l-1.3,0.5L435.7,10.8z"/>
	</g>
	<g>
		<path d="M466.2,41.2h0.8v3.1h2v0.7h-2.8V41.2z"/>
		<path d="M469.5,41.2h2.6v0.7h-1.9v0.8h1.7v0.7h-1.7v0.9h1.9v0.7h-2.6V41.2z"/>
		<path d="M472.5,41.9v-0.8h3v0.8h-1.1v3.1h-0.8v-3.1H472.5z"/>
		<path d="M476.8,41.3c0,0.4-0.3,0.7-0.8,1l-0.2-0.3c0.2-0.1,0.4-0.3,0.5-0.4c0,0,0,0,0,0c-0.2,0-0.4-0.2-0.4-0.4
			c0-0.2,0.2-0.4,0.4-0.4C476.6,40.8,476.8,41,476.8,41.3z"/>
		<path d="M476.9,44.4l0.4-0.5c0.3,0.4,0.6,0.5,1,0.5c0.3,0,0.6-0.2,0.6-0.4c0-0.2-0.2-0.3-0.4-0.4c-0.2-0.1-0.6-0.2-0.8-0.4
			c-0.3-0.2-0.6-0.5-0.6-1c0-0.6,0.5-1.1,1.3-1.1c0.5,0,0.9,0.2,1.3,0.5l-0.4,0.6c-0.2-0.2-0.6-0.4-0.9-0.4c-0.3,0-0.5,0.2-0.5,0.4
			c0,0.2,0.2,0.3,0.3,0.4c0.2,0.1,0.6,0.2,0.9,0.4c0.4,0.2,0.7,0.5,0.7,1c0,0.7-0.6,1.2-1.4,1.2C477.8,45.1,477.2,44.9,476.9,44.4z"
			/>
		<path d="M484.5,42.5c0,0.7-0.4,1.3-1.4,1.3h-0.6v1.3h-0.8v-3.9h1.4C484.1,41.2,484.5,41.8,484.5,42.5z M483.7,42.4
			c0-0.3-0.2-0.6-0.6-0.6h-0.7V43h0.6C483.5,43,483.7,42.7,483.7,42.4z"/>
		<path d="M485.1,41.2h0.8v3.1h2v0.7h-2.8V41.2z"/>
		<path d="M490.4,44.2h-1.4l-0.3,0.8h-0.8l1.5-3.9h0.6l1.5,3.9h-0.8L490.4,44.2z M489.3,43.5h0.9l-0.5-1.3L489.3,43.5z"/>
		<path d="M493.3,43.7v1.3h-0.8v-1.3l-1.3-2.5h0.9l0.8,1.7l0.8-1.7h0.9L493.3,43.7z"/>
	</g>
	<g>
		<path d="M406.8,186.1h-0.6v1.7h-1V183h1.8c1.1,0,1.6,0.7,1.6,1.5c0,0.6-0.3,1.2-1,1.4l1.2,1.9h-1.1L406.8,186.1z M406.2,185.2h0.8
			c0.5,0,0.7-0.3,0.7-0.7c0-0.3-0.2-0.6-0.7-0.6h-0.9V185.2z"/>
		<path d="M409.3,185.4c0-1.4,1.1-2.5,2.5-2.5c1.4,0,2.5,1.1,2.5,2.5c0,1.4-1.1,2.5-2.5,2.5C410.3,187.9,409.3,186.8,409.3,185.4z
			 M413.3,185.4c0-0.9-0.7-1.5-1.5-1.5c-0.8,0-1.5,0.7-1.5,1.5c0,0.9,0.7,1.5,1.5,1.5C412.6,186.9,413.3,186.3,413.3,185.4z"/>
		<path d="M418.5,184.6c0,0.8-0.5,1.5-1.8,1.5H416v1.6h-1V183h1.8C418,183,418.5,183.8,418.5,184.6z M417.5,184.6
			c0-0.4-0.2-0.7-0.7-0.7H416v1.4h0.8C417.3,185.3,417.5,184.9,417.5,184.6z"/>
		<path d="M419.2,183h1v1.9h2V183h1v4.8h-1v-1.9h-2v1.9h-1V183z"/>
		<path d="M426.7,186.8H425l-0.4,1h-1l1.8-4.8h0.8l1.8,4.8h-1L426.7,186.8z M425.3,185.9h1.1l-0.6-1.6L425.3,185.9z"/>
		<path d="M430.1,186.1h-0.6v1.7h-1V183h1.8c1.1,0,1.6,0.7,1.6,1.5c0,0.6-0.3,1.2-1,1.4l1.2,1.9h-1.1L430.1,186.1z M429.6,185.2h0.8
			c0.5,0,0.7-0.3,0.7-0.7c0-0.3-0.2-0.6-0.7-0.6h-0.9V185.2z"/>
		<path d="M433,183h0.6l1.9,2.7l1.9-2.7h0.6v4.8h-1v-2.7l-1.4,2h-0.3l-1.4-2v2.7H433V183z"/>
		<path d="M441.6,186.8h-1.7l-0.4,1h-1l1.8-4.8h0.8l1.8,4.8h-1L441.6,186.8z M440.2,185.9h1.1l-0.6-1.6L440.2,185.9z"/>
	</g>
	<g>
		<path d="M437.7,341.1h0.5l1.6,2.3l1.6-2.3h0.6v4.1h-0.8v-2.3l-1.2,1.7h-0.3l-1.2-1.7v2.3h-0.8V341.1z"/>
		<path d="M442.7,343.1c0-1.2,0.9-2.1,2.1-2.1c1.2,0,2.1,0.9,2.1,2.1c0,1.2-0.9,2.1-2.1,2.1C443.6,345.2,442.7,344.3,442.7,343.1z
			 M446.1,343.1c0-0.8-0.6-1.3-1.3-1.3c-0.7,0-1.3,0.6-1.3,1.3c0,0.7,0.6,1.3,1.3,1.3C445.5,344.4,446.1,343.9,446.1,343.1z"/>
		<path d="M451.1,341.1v4.1h-0.6l-2.1-2.5v2.5h-0.8v-4.1h0.5l2.2,2.5v-2.5H451.1z"/>
		<path d="M452,341.1h2.8v0.8h-1.9v0.9h1.8v0.8h-1.8v0.9h1.9v0.8H452V341.1z"/>
		<path d="M457.3,343.8v1.4h-0.8v-1.4l-1.4-2.7h0.9l0.9,1.8l0.9-1.8h0.9L457.3,343.8z"/>
		<path d="M439.8,349.8c0-1.2,1-2.1,2.2-2.1c0.7,0,1.3,0.3,1.6,0.7l-0.5,0.6c-0.3-0.3-0.7-0.5-1.1-0.5c-0.8,0-1.3,0.6-1.3,1.3
			c0,0.7,0.5,1.3,1.3,1.3c0.4,0,0.8-0.2,1.1-0.4v-0.6h-1.1v-0.7h1.9v1.7c-0.5,0.5-1.1,0.8-1.9,0.8
			C440.7,351.9,439.8,351,439.8,349.8z"/>
		<path d="M444.2,349.8c0-1.2,0.9-2.1,2.1-2.1c1.2,0,2.1,0.9,2.1,2.1c0,1.2-0.9,2.1-2.1,2.1C445.2,351.9,444.2,350.9,444.2,349.8z
			 M447.7,349.8c0-0.8-0.6-1.3-1.3-1.3c-0.7,0-1.3,0.6-1.3,1.3c0,0.7,0.6,1.3,1.3,1.3C447.1,351.1,447.7,350.5,447.7,349.8z"/>
		<path d="M449.2,347.7h0.8v3.3h2.1v0.8h-2.9V347.7z"/>
		<path d="M452.6,347.7h1.6c1.2,0,2,0.8,2,2c0,1.2-0.7,2-2,2h-1.6V347.7z M454.2,351c0.7,0,1.1-0.6,1.1-1.3c0-0.7-0.4-1.2-1.1-1.2
			h-0.8v2.5H454.2z"/>
	</g>
	<g>
		<path d="M467,348.4V347h5.4v1.4h-2v5.7H469v-5.7H467z"/>
		<path d="M473.3,347h1.4v2.8h2.9V347h1.4v7h-1.4v-2.9h-2.9v2.9h-1.4V347z"/>
		<path d="M480.7,347h4.8v1.3h-3.3v1.5h3.1v1.3h-3.1v1.6h3.3v1.3h-4.8V347z"/>
		<path d="M463.8,364.7l0.7-1.1c0.4,0.4,0.9,0.6,1.4,0.6c0.8,0,1.3-0.5,1.3-1.4v-4.3h1.4v4.4c0,1.9-1.2,2.7-2.6,2.7
			C465.2,365.5,464.4,365.3,463.8,364.7z"/>
		<path d="M473.6,363.9h-2.4l-0.5,1.5h-1.5l2.7-7h1.1l2.6,7h-1.5L473.6,363.9z M471.5,362.7h1.7l-0.8-2.3L471.5,362.7z"/>
		<path d="M475.8,361.9c0-2.2,1.7-3.7,3.6-3.7c1.3,0,2.4,0.6,3,1.5l-0.9,0.9c-0.5-0.6-1.2-1-2-1c-1.3,0-2.2,1-2.2,2.3
			c0,1.3,1,2.2,2.2,2.2c0.8,0,1.5-0.4,2-1l1,0.9c-0.6,0.8-1.7,1.5-3.1,1.5C477.4,365.5,475.8,364.1,475.8,361.9z"/>
		<path d="M485.7,362.6l-0.9,1v1.7h-1.4v-7h1.4v3.3l2.7-3.3h1.7l-2.6,3.2l2.8,3.8h-1.7L485.7,362.6z"/>
	</g>
	<g>
		<path d="M407.3,226.6h-1.9l-0.4,1.2h-1.1l2.1-5.4h0.9l2,5.4h-1.1L407.3,226.6z M405.7,225.7h1.3l-0.6-1.8L405.7,225.7z"/>
		<path d="M409.5,222.4h1.1v4.4h2.7v1h-3.8V222.4z"/>
		<path d="M414,222.4h1.1v4.4h2.7v1H414V222.4z"/>
		<path d="M419.6,226.9l0.6-0.8c0.4,0.5,0.9,0.8,1.4,0.8c0.5,0,0.8-0.2,0.8-0.6c0-0.3-0.2-0.4-0.5-0.6c-0.3-0.2-0.8-0.3-1.2-0.5
			c-0.5-0.3-0.9-0.7-0.9-1.3c0-0.9,0.7-1.6,1.8-1.6c0.6,0,1.3,0.2,1.8,0.7l-0.6,0.8c-0.3-0.3-0.8-0.5-1.2-0.5
			c-0.4,0-0.7,0.2-0.7,0.5c0,0.3,0.2,0.4,0.4,0.5c0.3,0.1,0.8,0.3,1.2,0.5c0.5,0.3,0.9,0.7,0.9,1.3c0,1-0.8,1.6-2,1.6
			C420.8,227.9,420.1,227.5,419.6,226.9z"/>
		<path d="M428.4,224.2c0,0.9-0.6,1.8-2,1.8h-0.8v1.9h-1.1v-5.4h2C427.9,222.4,428.4,223.3,428.4,224.2z M427.3,224.2
			c0-0.4-0.3-0.8-0.8-0.8h-0.9v1.6h0.9C427.1,225,427.3,224.6,427.3,224.2z"/>
		<path d="M428.9,225.1c0-1.6,1.2-2.8,2.8-2.8c1.6,0,2.8,1.2,2.8,2.8c0,1.5-1.2,2.8-2.8,2.8C430.1,227.9,428.9,226.7,428.9,225.1z
			 M433.4,225.1c0-1-0.8-1.7-1.7-1.7c-0.9,0-1.7,0.7-1.7,1.7c0,1,0.7,1.7,1.7,1.7S433.4,226.1,433.4,225.1z"/>
		<path d="M437.1,225.8h-0.6v2h-1.1v-5.4h2.1c1.3,0,1.8,0.8,1.8,1.7c0,0.7-0.3,1.3-1.1,1.6l1.3,2.1h-1.3L437.1,225.8z M436.5,224.9
			h0.9c0.6,0,0.8-0.4,0.8-0.7c0-0.4-0.3-0.7-0.7-0.7h-1V224.9z"/>
		<path d="M439.7,223.4v-1h4.2v1h-1.5v4.4h-1.1v-4.4H439.7z"/>
	</g>
	<g>
		<path d="M419.7,278.4h-1.3l-0.3,0.8h-0.8l1.5-3.8h0.6l1.4,3.8H420L419.7,278.4z M418.6,277.7h0.9l-0.4-1.3L418.6,277.7z"/>
		<path d="M424.3,275.4l-1.6,3.8h-0.6l-1.6-3.8h0.9l1,2.7l1-2.7H424.3z"/>
		<path d="M426.4,278.4h-1.3l-0.3,0.8H424l1.5-3.8h0.6l1.4,3.8h-0.8L426.4,278.4z M425.3,277.7h0.9l-0.4-1.3L425.3,277.7z"/>
		<path d="M431.3,275.4v3.8h-0.5l-2-2.4v2.4H428v-3.8h0.5l2,2.4v-2.4H431.3z"/>
		<path d="M431.9,277.3c0-1.2,0.9-2,2-2c0.6,0,1.2,0.3,1.5,0.6l-0.5,0.5c-0.3-0.3-0.6-0.4-1-0.4c-0.7,0-1.2,0.5-1.2,1.2
			c0,0.7,0.5,1.2,1.2,1.2c0.4,0,0.8-0.2,1-0.4v-0.5h-1.1V277h1.8v1.6c-0.5,0.5-1.1,0.8-1.7,0.8C432.7,279.3,431.9,278.5,431.9,277.3
			z"/>
		<path d="M438.3,278.4h-1.3l-0.3,0.8h-0.8l1.5-3.8h0.6l1.4,3.8h-0.8L438.3,278.4z M437.1,277.7h0.9l-0.4-1.3L437.1,277.7z"/>
		<path d="M441.1,277.9h-0.5v1.4h-0.8v-3.8h1.5c0.9,0,1.3,0.6,1.3,1.2c0,0.5-0.2,0.9-0.8,1.1l0.9,1.5h-0.9L441.1,277.9z
			 M440.6,277.2h0.6c0.4,0,0.6-0.3,0.6-0.5c0-0.3-0.2-0.5-0.5-0.5h-0.7V277.2z"/>
		<path d="M443.3,275.4h1.5c1.2,0,1.8,0.7,1.8,1.9c0,1.2-0.7,1.9-1.9,1.9h-1.5V275.4z M444.8,278.5c0.7,0,1-0.5,1-1.2
			c0-0.6-0.4-1.2-1-1.2h-0.7v2.4H444.8z"/>
	</g>
	<g>
		<path d="M407.8,245.3c0-1.3,1-2.3,2.2-2.3c0.8,0,1.5,0.4,1.9,0.9l-0.6,0.6c-0.3-0.4-0.7-0.6-1.2-0.6c-0.8,0-1.4,0.6-1.4,1.4
			c0,0.8,0.6,1.4,1.4,1.4c0.5,0,1-0.3,1.3-0.6l0.6,0.5c-0.4,0.5-1.1,0.9-1.9,0.9C408.8,247.6,407.8,246.7,407.8,245.3z"/>
		<path d="M412.2,245.3c0-1.3,1-2.3,2.3-2.3c1.3,0,2.3,1,2.3,2.3c0,1.2-1,2.2-2.3,2.2C413.2,247.6,412.2,246.6,412.2,245.3z
			 M415.8,245.3c0-0.8-0.6-1.4-1.4-1.4c-0.8,0-1.4,0.6-1.4,1.4c0,0.8,0.6,1.4,1.4,1.4S415.8,246.1,415.8,245.3z"/>
		<path d="M421.2,243.1v4.4h-0.6l-2.3-2.7v2.7h-0.9v-4.4h0.6l2.3,2.7v-2.7H421.2z"/>
		<path d="M424.4,246.5h-1.5l-0.3,0.9h-0.9l1.7-4.4h0.7l1.6,4.4h-0.9L424.4,246.5z M423.2,245.8h1l-0.5-1.4L423.2,245.8z"/>
		<path d="M425.8,245.3c0-1.3,1-2.3,2.2-2.3c0.8,0,1.5,0.4,1.9,0.9l-0.6,0.6c-0.3-0.4-0.7-0.6-1.2-0.6c-0.8,0-1.4,0.6-1.4,1.4
			c0,0.8,0.6,1.4,1.4,1.4c0.5,0,1-0.3,1.3-0.6l0.6,0.5c-0.4,0.5-1.1,0.9-1.9,0.9C426.8,247.6,425.8,246.7,425.8,245.3z"/>
		<path d="M430.5,245.9v-2.8h0.9v2.7c0,0.6,0.3,0.9,0.8,0.9c0.5,0,0.8-0.3,0.8-0.9v-2.7h0.9v2.8c0,1.1-0.8,1.7-1.7,1.7
			C431.3,247.6,430.5,247,430.5,245.9z"/>
		<path d="M434.8,243.1h0.9v3.5h2.2v0.8h-3.1V243.1z"/>
		<path d="M412.4,253.3c0,0.7-0.5,1.3-1.4,1.3h-2v-4.4h1.9c0.8,0,1.2,0.6,1.2,1.1c0,0.4-0.2,0.8-0.6,0.9
			C412.2,252.3,412.4,252.8,412.4,253.3z M409.9,251v0.9h0.9c0.4,0,0.6-0.3,0.6-0.5c0-0.2-0.2-0.5-0.5-0.5H409.9z M411.5,253.2
			c0-0.3-0.2-0.6-0.6-0.6h-1v1.1h1C411.3,253.8,411.5,253.5,411.5,253.2z"/>
		<path d="M415.3,253.6h-1.5l-0.3,0.9h-0.9l1.7-4.4h0.7l1.6,4.4h-0.9L415.3,253.6z M414.1,252.8h1l-0.5-1.4L414.1,252.8z"/>
		<path d="M416.7,252.4c0-1.3,1-2.3,2.2-2.3c0.8,0,1.5,0.4,1.9,0.9l-0.6,0.6c-0.3-0.4-0.7-0.6-1.2-0.6c-0.8,0-1.4,0.6-1.4,1.4
			c0,0.8,0.6,1.4,1.4,1.4c0.5,0,1-0.3,1.3-0.6l0.6,0.5c-0.4,0.5-1.1,0.9-1.9,0.9C417.7,254.6,416.7,253.7,416.7,252.4z"/>
		<path d="M422.3,250.2v4.4h-0.9v-4.4H422.3z"/>
		<path d="M423.2,253v-2.8h0.9v2.7c0,0.6,0.3,0.9,0.8,0.9c0.5,0,0.8-0.3,0.8-0.9v-2.7h0.9v2.8c0,1.1-0.8,1.7-1.7,1.7
			C424,254.6,423.2,254.1,423.2,253z"/>
		<path d="M427.6,250.2h0.9v3.5h2.2v0.8h-3.1V250.2z"/>
		<path d="M431.1,253v-2.8h0.9v2.7c0,0.6,0.3,0.9,0.8,0.9c0.5,0,0.8-0.3,0.8-0.9v-2.7h0.9v2.8c0,1.1-0.8,1.7-1.7,1.7
			C431.9,254.6,431.1,254.1,431.1,253z"/>
		<path d="M436.3,250.2v4.4h-0.9v-4.4H436.3z"/>
	</g>
	<g>
		<path d="M395.4,285.8c0-1.2,0.9-2,2-2c0.7,0,1.3,0.3,1.6,0.8l-0.5,0.5c-0.3-0.3-0.6-0.6-1.1-0.6c-0.7,0-1.2,0.5-1.2,1.2
			c0,0.7,0.5,1.2,1.2,1.2c0.4,0,0.8-0.2,1.1-0.6l0.5,0.5c-0.3,0.5-0.9,0.8-1.7,0.8C396.2,287.7,395.4,287,395.4,285.8z"/>
		<path d="M401.5,286.9h-1.3l-0.3,0.8h-0.8l1.5-3.8h0.6l1.4,3.8h-0.8L401.5,286.9z M400.4,286.2h0.9l-0.4-1.3L400.4,286.2z"/>
		<path d="M402.6,287l0.4-0.5c0.3,0.3,0.6,0.5,1,0.5c0.3,0,0.5-0.2,0.5-0.4c0-0.2-0.1-0.3-0.3-0.4c-0.2-0.1-0.6-0.2-0.8-0.4
			c-0.3-0.2-0.6-0.5-0.6-0.9c0-0.6,0.5-1.1,1.3-1.1c0.4,0,0.9,0.2,1.2,0.5l-0.4,0.6c-0.2-0.2-0.6-0.4-0.8-0.4
			c-0.3,0-0.5,0.1-0.5,0.4c0,0.2,0.2,0.3,0.3,0.4c0.2,0.1,0.6,0.2,0.8,0.4c0.4,0.2,0.6,0.5,0.6,0.9c0,0.7-0.6,1.2-1.4,1.2
			C403.4,287.7,402.9,287.5,402.6,287z"/>
		<path d="M407.9,286.9h-1.3l-0.3,0.8h-0.8l1.5-3.8h0.6l1.4,3.8h-0.8L407.9,286.9z M406.8,286.2h0.9l-0.4-1.3L406.8,286.2z"/>
		<path d="M392.8,290.1l-1.6,3.8h-0.6l-1.6-3.8h0.9l1,2.6l1-2.6H392.8z"/>
		<path d="M393.2,290.1h0.8v3.1h1.9v0.7h-2.7V290.1z"/>
		<path d="M398.5,293h-1.3l-0.3,0.8H396l1.5-3.8h0.6l1.4,3.8h-0.8L398.5,293z M397.4,292.4h0.9l-0.4-1.3L397.4,292.4z"/>
		<path d="M400,290.1h1.5c1.1,0,1.8,0.7,1.8,1.9c0,1.2-0.7,1.9-1.9,1.9H400V290.1z M401.5,293.1c0.7,0,1-0.5,1-1.2
			c0-0.6-0.3-1.2-1-1.2h-0.7v2.3H401.5z"/>
		<path d="M404.7,290.1v3.8H404v-3.8H404.7z"/>
		<path d="M405.6,290.1h0.5l1.5,2.2l1.5-2.2h0.5v3.8h-0.8v-2.2l-1.1,1.6h-0.3l-1.1-1.6v2.2h-0.8V290.1z"/>
		<path d="M411.2,290.1v3.8h-0.8v-3.8H411.2z"/>
		<path d="M413.2,292.5h-0.5v1.4H412v-3.8h1.5c0.9,0,1.3,0.6,1.3,1.2c0,0.5-0.2,0.9-0.8,1.1l0.9,1.5H414L413.2,292.5z M412.8,291.8
			h0.6c0.4,0,0.6-0.3,0.6-0.5c0-0.3-0.2-0.5-0.5-0.5h-0.7V291.8z"/>
	</g>
	<g>
		<path d="M420.5,306.1c0.3,0,0.6,0.2,0.6,0.6v0.3h0.6v0.4H420v-0.6C420,306.2,420.3,306.1,420.5,306.1z M420.5,306.4
			c-0.1,0-0.2,0.1-0.2,0.3v0.3h0.5v-0.3C420.8,306.5,420.7,306.4,420.5,306.4z"/>
		<path d="M421.3,305v0.6l0.4,0.1v0.4l-1.8-0.7v-0.3l1.8-0.7v0.4L421.3,305z M421,305.5v-0.4l-0.6,0.2L421,305.5z"/>
		<path d="M421.1,303.7v0.2h0.6v0.4H420v-0.7c0-0.4,0.3-0.6,0.6-0.6c0.2,0,0.4,0.1,0.5,0.4l0.7-0.4v0.4L421.1,303.7z M420.8,303.9
			v-0.3c0-0.2-0.1-0.3-0.2-0.3c-0.1,0-0.2,0.1-0.2,0.2v0.3H420.8z"/>
		<path d="M420,302.3h1.8v0.4H420V302.3z"/>
		<path d="M421.1,301.9H420v-0.4h1.1c0.2,0,0.4-0.1,0.4-0.3c0-0.2-0.1-0.3-0.4-0.3H420v-0.4h1.1c0.5,0,0.7,0.3,0.7,0.7
			C421.8,301.6,421.5,301.9,421.1,301.9z"/>
		<path d="M421.1,299.6v0.2h0.6v0.4H420v-0.7c0-0.4,0.3-0.6,0.6-0.6c0.2,0,0.4,0.1,0.5,0.4l0.7-0.4v0.4L421.1,299.6z M420.8,299.8
			v-0.3c0-0.2-0.1-0.3-0.2-0.3c-0.1,0-0.2,0.1-0.2,0.2v0.3H420.8z"/>
		<path d="M420,298.2h1.8v0.4H420V298.2z"/>
		<path d="M424.3,308.7l-0.2-0.2c0.2-0.1,0.2-0.3,0.2-0.5c0-0.1-0.1-0.3-0.2-0.3c-0.1,0-0.1,0.1-0.2,0.2c-0.1,0.1-0.1,0.3-0.2,0.4
			c-0.1,0.2-0.2,0.3-0.4,0.3c-0.3,0-0.5-0.2-0.5-0.6c0-0.2,0.1-0.4,0.2-0.6l0.3,0.2c-0.1,0.1-0.2,0.3-0.2,0.4c0,0.1,0.1,0.2,0.2,0.2
			c0.1,0,0.1-0.1,0.2-0.1c0-0.1,0.1-0.3,0.2-0.4c0.1-0.2,0.2-0.3,0.4-0.3c0.3,0,0.5,0.3,0.5,0.6
			C424.6,308.3,424.5,308.6,424.3,308.7z"/>
		<path d="M423.4,305.9c0.3,0,0.6,0.2,0.6,0.6v0.3h0.6v0.4h-1.8v-0.6C422.8,306.1,423.1,305.9,423.4,305.9z M423.4,306.2
			c-0.1,0-0.2,0.1-0.2,0.3v0.3h0.5v-0.3C423.7,306.3,423.5,306.2,423.4,306.2z"/>
		<path d="M423.7,305.7c-0.5,0-0.9-0.4-0.9-0.9s0.4-0.9,0.9-0.9c0.5,0,0.9,0.4,0.9,0.9C424.6,305.3,424.2,305.7,423.7,305.7z
			 M423.7,304.3c-0.3,0-0.6,0.2-0.6,0.5c0,0.3,0.2,0.5,0.6,0.5c0.3,0,0.6-0.2,0.6-0.5S424,304.3,423.7,304.3z"/>
		<path d="M423.9,303v0.2h0.6v0.4h-1.8v-0.7c0-0.4,0.3-0.6,0.6-0.6c0.2,0,0.4,0.1,0.5,0.4l0.7-0.4v0.4L423.9,303z M423.6,303.3V303
			c0-0.2-0.1-0.3-0.2-0.3c-0.1,0-0.2,0.1-0.2,0.2v0.3H423.6z"/>
		<path d="M423.2,302.2h-0.3v-1.4h0.3v0.5h1.4v0.4h-1.4V302.2z"/>
		<path d="M422.8,300.2h1.8v0.4h-1.8V300.2z"/>
		<path d="M422.8,298.3l1.8,0.7v0.3l-1.8,0.7v-0.4l1.2-0.5l-1.2-0.5V298.3z"/>
		<path d="M422.8,298.1v-1.2h0.3v0.8h0.4V297h0.3v0.8h0.4v-0.8h0.3v1.2H422.8z"/>
	</g>
	<g>
		<path d="M426,113.4h-0.4v1.2h-0.7v-3.4h1.3c0.8,0,1.2,0.5,1.2,1.1c0,0.4-0.2,0.8-0.7,1l0.8,1.3h-0.8L426,113.4z M425.5,112.8h0.6
			c0.4,0,0.5-0.2,0.5-0.5c0-0.2-0.2-0.5-0.5-0.5h-0.6V112.8z"/>
		<path d="M428.7,111.2v3.4H428v-3.4H428.7z"/>
		<path d="M429.4,111.2h0.5l1.3,1.9l1.3-1.9h0.5v3.4h-0.7v-1.9l-1,1.4h-0.2l-1-1.4v1.9h-0.7V111.2z"/>
		<path d="M433.8,111.2h0.5l1.3,1.9l1.3-1.9h0.5v3.4h-0.7v-1.9l-1,1.4h-0.2l-1-1.4v1.9h-0.7V111.2z"/>
		<path d="M438.8,111.2v3.4h-0.7v-3.4H438.8z"/>
		<path d="M442.4,111.2v3.4H442l-1.8-2.1v2.1h-0.7v-3.4h0.4l1.8,2.1v-2.1H442.4z"/>
		<path d="M443.9,111.2v3.4h-0.7v-3.4H443.9z"/>
		<path d="M430.5,117.9c0,0.6-0.4,1.1-1.3,1.1h-0.5v1.2H428v-3.4h1.3C430.1,116.8,430.5,117.3,430.5,117.9z M429.8,117.9
			c0-0.3-0.2-0.5-0.5-0.5h-0.6v1h0.5C429.6,118.4,429.8,118.1,429.8,117.9z"/>
		<path d="M431.6,116.8v3.4h-0.7v-3.4H431.6z"/>
		<path d="M432.2,119.7l1.7-2.3h-1.6v-0.6h2.6v0.5l-1.7,2.3h1.7v0.6h-2.7V119.7z"/>
		<path d="M435.2,119.7l1.7-2.3h-1.6v-0.6h2.6v0.5l-1.7,2.3h1.7v0.6h-2.7V119.7z"/>
		<path d="M440.2,119.4H439l-0.3,0.7H438l1.3-3.4h0.6l1.3,3.4h-0.7L440.2,119.4z M439.2,118.8h0.8l-0.4-1.1L439.2,118.8z"/>
	</g>
	<g>
		<path d="M433.3,127.7h0.5v2.1h1.4v0.5h-1.9V127.7z"/>
		<path d="M437,129.8h-0.9l-0.2,0.6h-0.6l1-2.7h0.4l1,2.7h-0.6L437,129.8z M436.2,129.3h0.6l-0.3-0.9L436.2,129.3z"/>
		<path d="M424,132.1h0.4l1,1.5l1-1.5h0.4v2.7h-0.5v-1.5l-0.8,1.1h-0.2l-0.8-1.1v1.5H424V132.1z"/>
		<path d="M427.2,133.4c0-0.8,0.6-1.4,1.4-1.4c0.8,0,1.4,0.6,1.4,1.4c0,0.8-0.6,1.4-1.4,1.4C427.8,134.8,427.2,134.2,427.2,133.4z
			 M429.4,133.4c0-0.5-0.4-0.9-0.8-0.9c-0.5,0-0.8,0.4-0.8,0.9c0,0.5,0.4,0.8,0.8,0.8C429.1,134.2,429.4,133.9,429.4,133.4z"/>
		<path d="M430.4,132.1h0.5v2.1h1.4v0.5h-1.9V132.1z"/>
		<path d="M432.7,132.1h1c0.8,0,1.3,0.5,1.3,1.3c0,0.8-0.5,1.3-1.3,1.3h-1V132.1z M433.7,134.2c0.5,0,0.7-0.4,0.7-0.8
			c0-0.4-0.2-0.8-0.7-0.8h-0.5v1.6H433.7z"/>
		<path d="M435.3,133.4c0-0.8,0.6-1.4,1.4-1.4c0.8,0,1.4,0.6,1.4,1.4c0,0.8-0.6,1.4-1.4,1.4C435.9,134.8,435.3,134.2,435.3,133.4z
			 M437.5,133.4c0-0.5-0.4-0.9-0.8-0.9c-0.5,0-0.8,0.4-0.8,0.9c0,0.5,0.4,0.8,0.8,0.8C437.1,134.2,437.5,133.9,437.5,133.4z"/>
		<path d="M440.7,132.1l-1.1,2.7h-0.4l-1.1-2.7h0.6l0.7,1.8l0.7-1.8H440.7z"/>
		<path d="M441,132.1h1.8v0.5h-1.3v0.6h1.2v0.5h-1.2v0.6h1.3v0.5H441V132.1z"/>
		<path d="M445.6,132.1v2.7h-0.4l-1.4-1.6v1.6h-0.5v-2.7h0.3l1.4,1.6v-1.6H445.6z"/>
		<path d="M446.7,132.1v2.7h-0.5v-2.7H446.7z"/>
	</g>
	<g>
		<path d="M426.1,142h0.5v1.1h1.1V142h0.5v2.7h-0.5v-1.1h-1.1v1.1h-0.5V142z"/>
		<path d="M428.8,143.3c0-0.8,0.6-1.4,1.4-1.4s1.4,0.6,1.4,1.4c0,0.8-0.6,1.4-1.4,1.4C429.3,144.7,428.8,144.1,428.8,143.3z
			 M431,143.3c0-0.5-0.4-0.9-0.8-0.9c-0.5,0-0.8,0.4-0.8,0.9c0,0.5,0.4,0.9,0.8,0.9C430.6,144.2,431,143.8,431,143.3z"/>
		<path d="M432,143.7V142h0.5v1.7c0,0.4,0.2,0.5,0.5,0.5c0.3,0,0.5-0.2,0.5-0.5V142h0.5v1.7c0,0.7-0.5,1-1,1
			C432.4,144.7,432,144.4,432,143.7z"/>
		<path d="M434.4,144.2l0.3-0.4c0.2,0.2,0.4,0.4,0.7,0.4c0.2,0,0.4-0.1,0.4-0.3c0-0.1-0.1-0.2-0.2-0.3c-0.2-0.1-0.4-0.1-0.6-0.3
			c-0.2-0.1-0.4-0.3-0.4-0.7c0-0.4,0.4-0.8,0.9-0.8c0.3,0,0.6,0.1,0.9,0.4l-0.3,0.4c-0.2-0.2-0.4-0.3-0.6-0.3
			c-0.2,0-0.3,0.1-0.3,0.3c0,0.1,0.1,0.2,0.2,0.3c0.1,0.1,0.4,0.2,0.6,0.3c0.3,0.1,0.5,0.3,0.5,0.7c0,0.5-0.4,0.8-1,0.8
			C435,144.7,434.6,144.5,434.4,144.2z"/>
		<path d="M436.8,142h1.8v0.5h-1.3v0.6h1.2v0.5h-1.2v0.6h1.3v0.5h-1.8V142z"/>
		<path d="M439.9,143.3c0-0.8,0.6-1.4,1.4-1.4c0.8,0,1.4,0.6,1.4,1.4c0,0.8-0.6,1.4-1.4,1.4C440.5,144.7,439.9,144.1,439.9,143.3z
			 M442.1,143.3c0-0.5-0.4-0.9-0.8-0.9c-0.5,0-0.8,0.4-0.8,0.9c0,0.5,0.4,0.9,0.8,0.9C441.8,144.2,442.1,143.8,442.1,143.3z"/>
		<path d="M443.1,142h1.8v0.5h-1.3v0.6h1.1v0.5h-1.1v1.1h-0.5V142z"/>
		<path d="M428.8,147.2c0,0.5-0.3,0.9-1,0.9h-0.4v0.9h-0.5v-2.7h1C428.5,146.3,428.8,146.8,428.8,147.2z M428.2,147.2
			c0-0.2-0.1-0.4-0.4-0.4h-0.5v0.8h0.4C428.1,147.6,428.2,147.4,428.2,147.2z"/>
		<path d="M429.2,146.3h1.8v0.5h-1.3v0.6h1.2v0.5h-1.2v0.6h1.3v0.5h-1.8V146.3z"/>
		<path d="M432.3,148H432v1h-0.5v-2.7h1c0.6,0,0.9,0.4,0.9,0.8c0,0.3-0.2,0.6-0.5,0.8l0.7,1h-0.6L432.3,148z M432,147.6h0.4
			c0.3,0,0.4-0.2,0.4-0.4c0-0.2-0.1-0.4-0.4-0.4H432V147.6z"/>
		<path d="M433.9,146.3h1.8v0.5h-1.3v0.6h1.1v0.5h-1.1v1.1h-0.5V146.3z"/>
		<path d="M436.1,148v-1.7h0.5v1.7c0,0.4,0.2,0.5,0.5,0.5c0.3,0,0.5-0.2,0.5-0.5v-1.7h0.5v1.7c0,0.7-0.5,1-1,1
			C436.6,149.1,436.1,148.8,436.1,148z"/>
		<path d="M438.8,146.3h0.4l1.1,1.5l1-1.5h0.4v2.7H441v-1.5l-0.8,1.1h-0.2l-0.8-1.1v1.5h-0.5V146.3z"/>
		<path d="M442.2,146.3h1.8v0.5h-1.3v0.6h1.2v0.5h-1.2v0.6h1.3v0.5h-1.8V146.3z"/>
	</g>
	<g>
		<path d="M404.5,148.6v0.8l0.7,0.2c0-0.4,0.4-1,0.8-0.5c0.1,0.1,3.6,4.7,3.6,4.7l-3.6-1c-0.7-0.2-0.8-1-0.8-1l-0.7-0.2l0,5.6
			l0.7,0.2c0.1-0.3,0.2-1,1.2-0.8c6.8,1.9,6.1,1.7,6.5,1.8c2,0.5,1.9,1.3,1.9,1.6l0.7,0.2l0.1,0v0v-5.9l-0.8-0.2
			c0,0-0.2,0.9-0.9,0.8c-0.7-0.2-3.3-0.9-3.3-0.9c4.2-2.6,4.9-3.2,5-5.5c0-0.8,0-1.7,0-3l-0.8-0.2c0,0.7-0.5,1.2-0.9,1.5
			c-0.2,0.2-1.4,0.9-2.5,1.7c-1,0.6-1.9,1.2-1.9,1.2l-1-1.2l-2.8-3.5c-0.7-0.8-0.6-1.4-0.6-1.4l-0.7-0.2L404.5,148.6z"/>
		<path d="M404.4,124.8c0,0.6,0,1.2,0.1,1.8c0.5,4.7,3.5,7.6,6.5,7.6c2.5,0,4.9-2,4.9-6.7c0-0.3,0-0.6,0-0.9c-0.1-1.1-0.2-2.1-0.4-3
			l-2.3-0.5c0.3,0.9,0.6,2.1,0.6,3c0,0.2,0,0.4,0,0.6c-0.2,2.1-1.6,3.5-3.4,3.5c-1.8,0-3.3-1.3-3.6-3.5c-0.1-0.4-0.1-0.8-0.1-1.2
			c0-1.4,0.5-2.2,1.1-2.6v-0.4l-2.7-0.8C404.6,122.4,404.4,123.5,404.4,124.8z"/>
		<path d="M404.5,137.2v5.6l0.7,0.2c0,0,0.1-1.1,1.2-0.8l9.2,2.5l0-5l-0.8-0.2c0,0-0.2,0.9-1.1,0.7c-0.1,0-2.7-0.7-2.7-0.7l0-2.2
			v-0.1c0-1.1,0.6-1.5,0.6-1.5l-2.7-0.7v2.3v1.6l-2.1-0.6v-1l0-2.4c0-0.6,0.4-1.1,0.7-1.1v-0.4l-3-0.7V137.2z"/>
	</g>
	<g>
		<polygon class="st7" points="408.6,265 409.4,263.2 410.8,263.2 408.9,266.7 408.2,266.7 406.3,263.2 407.7,263.2 408.6,265 		"/>
		<path class="st7" d="M417.2,264.1c0.5,0,0.8,0.4,0.8,0.8c0,0.4-0.3,0.8-0.8,0.8c-0.5,0-0.8-0.3-0.8-0.8
			C416.4,264.5,416.7,264.1,417.2,264.1L417.2,264.1z M418,266.7h1.2V261H418v2.5c-0.3-0.3-0.7-0.5-1.1-0.5c-1,0-1.8,0.9-1.8,1.9
			c0,1,0.7,1.9,1.8,1.9c0.4,0,0.8-0.2,1.1-0.5h0V266.7L418,266.7z"/>
		<path class="st7" d="M421.7,264.1c0.5,0,0.8,0.4,0.8,0.8c0,0.4-0.3,0.8-0.8,0.8c-0.5,0-0.8-0.3-0.8-0.8
			C420.9,264.5,421.2,264.1,421.7,264.1L421.7,264.1z M423.7,263.2h-1.2v0.3c-0.3-0.3-0.7-0.5-1.1-0.5c-1,0-1.8,0.9-1.8,1.9
			c0,1,0.7,1.9,1.8,1.9c0.4,0,0.8-0.2,1.1-0.5h0v0.4h1.2V263.2L423.7,263.2z"/>
		<path class="st7" d="M425.8,266.7h-1.2v-2.5h-0.4v-1h0.4v-0.4c0-0.5,0-0.8,0.4-1.2c0.3-0.4,0.8-0.6,1.2-0.6c0.2,0,0.4,0,0.5,0.1
			v1.1c-0.1-0.1-0.3-0.1-0.4-0.1c-0.3,0-0.4,0.2-0.4,0.6v0.6h0.9v1h-0.9V266.7L425.8,266.7z"/>
		<path class="st7" d="M432.6,263.6L432.6,263.6c0.3-0.4,0.7-0.6,1.1-0.6c0.9,0,1.3,0.6,1.3,1.5v2.2h-1.2V265c0-0.3,0.1-0.9-0.6-0.9
			c-0.5,0-0.7,0.4-0.7,0.8v1.8h-1.2v-3.5h1.2V263.6L432.6,263.6z"/>
		<path class="st7" d="M436.8,264.4c0.1-0.4,0.4-0.6,0.7-0.6c0.3,0,0.6,0.2,0.7,0.6H436.8L436.8,264.4z M439.4,265
			c0-1.2-0.7-2-1.9-2c-1.1,0-1.9,0.7-1.9,1.9c0,1.2,0.9,1.9,2,1.9c0.8,0,1.6-0.4,1.8-1.2h-1.2c-0.1,0.2-0.3,0.3-0.6,0.3
			c-0.5,0-0.8-0.3-0.8-0.8h2.6V265L439.4,265z"/>
		<path class="st7" d="M414.7,265c0,1.1-0.9,2-2,2s-2-0.9-2-2c0-1.1,0.9-2,2-2S414.7,263.9,414.7,265L414.7,265z M411.6,265
			c0,0.6,0.5,1.1,1.1,1.1s1.1-0.5,1.1-1.1c0-0.6-0.5-1.1-1.1-1.1c0.2-0.6,0.6-0.8,0.6-0.8c-0.8,0-1.5,0.7-1.7,1.6
			C411.6,264.7,411.6,265,411.6,265L411.6,265z"/>
		<path class="st7" d="M427,264.8c0-1.1,0.9-2,2-2s2,0.9,2,2c0,1.1-0.9,2-2,2S427,265.9,427,264.8L427,264.8z M430.1,264.9
			c0-0.6-0.5-1.1-1.1-1.1c-0.6,0-1.1,0.5-1.1,1.1c0,0.6,0.5,1.1,1.1,1.1c-0.2,0.6-0.6,0.8-0.6,0.8c0.8,0,1.5-0.7,1.7-1.5
			C430.1,265.1,430.1,264.9,430.1,264.9L430.1,264.9z"/>
	</g>
	<g>
		<g>
			<g>
				<path d="M436.1,292.2c0-0.1,0-0.2,0-0.3c1.4,0,2.7,0,4.1,0c0,0.1,0,0.2,0,0.3c-0.2,0-0.3,0-0.5,0c0.2,0.2,0.4,0.4,0.5,0.7
					c0.1,0.3,0.1,0.7-0.1,1c-0.2,0.3-0.7,0.6-1.1,0.7c-0.3,0-0.7,0-1-0.2c-0.4-0.2-0.6-0.5-0.7-0.8c-0.1-0.3-0.1-0.5,0.1-0.8
					c0.1-0.2,0.3-0.4,0.5-0.5C437.2,292.2,436.7,292.2,436.1,292.2z M437.6,293.3c0,0.1,0,0.2,0.1,0.2c0.2,0.4,0.6,0.6,1.1,0.6
					c0.3,0,0.5-0.1,0.7-0.2c0.2-0.1,0.4-0.4,0.4-0.6c0.1-0.4-0.1-0.8-0.5-1c-0.3-0.2-0.6-0.2-0.9-0.1c-0.3,0.1-0.6,0.2-0.7,0.5
					C437.6,292.8,437.5,293.1,437.6,293.3z"/>
			</g>
			<path d="M436.2,306.4c-0.1-0.2,0.1-0.4,0.3-0.4c0.2,0,0.4,0.2,0.4,0.3c0,0.2-0.2,0.4-0.4,0.4
				C436.4,306.7,436.2,306.5,436.2,306.4z"/>
			<path d="M436.2,290.6c0-0.1,0-0.2,0-0.2c0.1-0.1,0.1-0.1,0.2-0.1c0.1,0,0.2,0,0.3,0.1c0.1,0.1,0.1,0.2,0.1,0.3
				c-0.1,0.1-0.2,0.2-0.3,0.2C436.4,290.8,436.3,290.8,436.2,290.6z"/>
			<path d="M437.3,304.2c-0.1-0.2-0.1-0.5,0-0.7c0.1-0.2,0.3-0.4,0.5-0.5c0.2-0.1,0.5-0.1,0.7-0.1c0.6,0,1.1,0,1.7,0
				c0,0.2,0,0.4,0,0.6c-0.4,0-0.9,0-1.3,0c-0.2,0-0.4,0-0.6,0c-0.1,0-0.3,0.1-0.3,0.2c-0.1,0.1-0.1,0.2-0.1,0.4
				c0,0.1,0.2,0.3,0.3,0.3c0.1,0.1,0.2,0.1,0.4,0.1c0.2,0,0.3,0,0.5,0c0.4,0,0.8,0,1.2,0c0,0.2,0,0.4,0,0.6c-1,0-2,0-2.9,0
				c0-0.2,0-0.4,0-0.6c0.1,0,0.2,0,0.3,0C437.4,304.5,437.3,304.3,437.3,304.2z"/>
			<path d="M437.3,301.4c-0.1-0.2-0.2-0.5-0.1-0.7c0.1-0.2,0.2-0.3,0.3-0.4c0.1-0.1,0.2-0.1,0.3-0.1c-0.2-0.1-0.4-0.3-0.5-0.4
				c-0.1-0.2-0.2-0.5-0.1-0.7c0-0.2,0.2-0.4,0.4-0.5c0.3-0.1,0.6-0.2,0.9-0.2c0.6,0,1.1,0,1.7,0c0,0.1,0,0.2,0,0.3c-0.5,0-1,0-1.4,0
				c-0.2,0-0.5,0-0.7,0c-0.1,0-0.3,0.1-0.4,0.2c-0.1,0.1-0.2,0.3-0.2,0.5c0,0.3,0.2,0.5,0.5,0.6c0.2,0.1,0.4,0.1,0.6,0.1
				c0.3,0,0.7,0,1,0c0.2,0,0.4,0,0.6,0c0,0.1,0,0.2,0,0.3c-0.4,0-0.9,0-1.3,0c-0.2,0-0.5,0-0.7,0c-0.1,0-0.3,0-0.4,0.1
				c-0.2,0.1-0.3,0.2-0.3,0.4c0,0.2,0,0.4,0.2,0.6c0.1,0.2,0.4,0.3,0.6,0.3c0.4,0.1,0.7,0,1.1,0c0.3,0,0.5,0,0.8,0
				c0,0.1,0,0.2,0,0.3c-1,0-2,0-2.9,0c0-0.1,0-0.2,0-0.3c0.2,0,0.3,0,0.5,0C437.6,301.7,437.4,301.6,437.3,301.4z"/>
			<g>
				<path d="M437.3,296.9c-0.1-0.2-0.2-0.5-0.1-0.8c0-0.2,0.1-0.4,0.3-0.6c0.2-0.2,0.4-0.3,0.6-0.4c0.2-0.1,0.4-0.1,0.7-0.1
					c0,0.8,0,1.5,0,2.3c0.2,0,0.5-0.1,0.7-0.2c0.2-0.1,0.4-0.3,0.4-0.5c0.1-0.3,0-0.6-0.2-0.8c-0.1-0.2-0.3-0.3-0.5-0.4
					c0.1-0.1,0.1-0.2,0.2-0.3c0.2,0.1,0.4,0.2,0.6,0.4c0.2,0.2,0.3,0.4,0.3,0.6c0,0.3,0,0.6-0.2,0.8c-0.1,0.2-0.3,0.3-0.6,0.5
					c-0.5,0.3-1.1,0.2-1.6,0C437.7,297.3,437.5,297.2,437.3,296.9z M437.8,296.9c0.2,0.2,0.4,0.3,0.7,0.4c0-0.6,0-1.3,0-1.9
					c-0.2,0-0.4,0.1-0.5,0.2C437.5,295.9,437.4,296.5,437.8,296.9z"/>
			</g>
			<path d="M437.9,307c-0.2,0-0.4,0-0.6,0c0-0.3,0-0.6,0-0.9c1,0,1.9,0,2.9,0c0,0.2,0,0.4,0,0.6c-0.8,0-1.6,0-2.3,0
				C437.9,306.7,437.9,306.8,437.9,307z"/>
			<path d="M437.3,291.1c0-0.3,0-0.5,0-0.8c1,0,1.9,0,2.9,0c0,0.1,0,0.3,0,0.4c-0.8,0-1.6,0-2.5,0c0,0.1,0,0.2,0,0.3
				C437.6,291.1,437.4,291.1,437.3,291.1z"/>
		</g>
		<g>
			<g>
				<path d="M437.2,288.5c0-0.2,0-0.5,0.1-0.7c0.1-0.2,0.3-0.4,0.5-0.5c0.3-0.2,0.7-0.2,1.1-0.1c0.5,0.1,0.9,0.3,1.1,0.7
					c0.2,0.3,0.3,0.6,0.2,1c0,0.2-0.1,0.5-0.3,0.6c-0.2,0.2-0.5,0.3-0.8,0.3c-0.3,0-0.7,0-1-0.1c-0.3-0.1-0.5-0.3-0.6-0.4
					C437.4,289,437.2,288.7,437.2,288.5z M437.9,288.5c0,0.1,0.1,0.3,0.2,0.4c0.2,0.1,0.4,0.2,0.6,0.2c0.1,0,0.3,0,0.4-0.1
					c0.2-0.1,0.3-0.2,0.3-0.3c0.1-0.1,0.1-0.3,0-0.4c0-0.2-0.1-0.3-0.2-0.4c-0.2-0.1-0.4-0.2-0.6-0.2c-0.2,0-0.3,0-0.5,0.1
					c-0.2,0.1-0.3,0.2-0.4,0.3C437.9,288.2,437.9,288.4,437.9,288.5z"/>
			</g>
		</g>
	</g>
	<g class="st8">
		<path class="st9" d="M216.9,384.7c0-1.2,0.7-2.2,2-2.7v0c-0.9-0.4-1.5-1.2-1.5-2.3c0-1.6,1.4-2.8,3.5-2.8c2.1,0,3.5,1.2,3.5,2.8
			c0,1-0.6,1.8-1.5,2.3v0c1.2,0.4,2,1.5,2,2.6c0,1.8-1.6,3-3.9,3S216.9,386.5,216.9,384.7z M222.6,384.5c0-0.8-0.7-1.4-1.8-1.4
			c-1.1,0-1.8,0.6-1.8,1.4c0,0.9,0.7,1.5,1.8,1.5S222.6,385.3,222.6,384.5z M222.3,380c0-0.7-0.6-1.3-1.5-1.3
			c-0.9,0-1.5,0.6-1.5,1.3c0,0.7,0.6,1.3,1.5,1.3C221.8,381.3,222.3,380.7,222.3,380z"/>
		<path class="st9" d="M225.7,384.7c0-1.2,0.7-2.2,2-2.7v0c-0.9-0.4-1.5-1.2-1.5-2.3c0-1.6,1.4-2.8,3.5-2.8c2.1,0,3.5,1.2,3.5,2.8
			c0,1-0.6,1.8-1.5,2.3v0c1.2,0.4,2,1.5,2,2.6c0,1.8-1.6,3-3.9,3C227.2,387.8,225.7,386.5,225.7,384.7z M231.3,384.5
			c0-0.8-0.7-1.4-1.8-1.4c-1.1,0-1.8,0.6-1.8,1.4c0,0.9,0.7,1.5,1.8,1.5S231.3,385.3,231.3,384.5z M231.1,380c0-0.7-0.6-1.3-1.5-1.3
			c-0.9,0-1.5,0.6-1.5,1.3c0,0.7,0.6,1.3,1.5,1.3C230.5,381.3,231.1,380.7,231.1,380z"/>
		<path class="st9" d="M234.3,382.4c0-2.9,1.3-5.4,4-5.4c2.7,0,4,2.5,4,5.4s-1.3,5.4-4,5.4C235.5,387.8,234.3,385.3,234.3,382.4z
			 M240.3,382.4c0-1.9-0.6-3.4-2-3.4c-1.4,0-2,1.5-2,3.4c0,1.9,0.6,3.4,2,3.4C239.7,385.8,240.3,384.3,240.3,382.4z"/>
		<path class="st9" d="M246.4,385.8l1.2-1.5c0.7,0.9,1.7,1.5,2.8,1.5c0.9,0,1.5-0.5,1.5-1.1c0-0.5-0.4-0.8-0.9-1.1
			c-0.7-0.3-1.5-0.6-2.3-1c-0.9-0.5-1.6-1.3-1.6-2.6c0-1.7,1.4-3,3.5-3c1.2,0,2.5,0.4,3.4,1.4l-1.1,1.5c-0.6-0.6-1.6-1-2.3-1
			c-0.8,0-1.3,0.4-1.3,1c0,0.5,0.4,0.8,0.8,1c0.5,0.3,1.6,0.6,2.3,1c1,0.5,1.8,1.3,1.8,2.6c0,1.8-1.5,3.2-3.8,3.2
			C248.7,387.8,247.3,387.1,246.4,385.8z"/>
		<path class="st9" d="M263.3,380.6c0,1.8-1.1,3.4-3.8,3.4h-1.6v3.6h-2.1v-10.4h3.8C262.3,377.2,263.3,378.9,263.3,380.6z
			 M261.2,380.6c0-0.8-0.5-1.5-1.5-1.5h-1.8v3h1.7C260.7,382.1,261.2,381.4,261.2,380.6z"/>
		<path class="st9" d="M269.6,385.3H266l-0.8,2.3H263l4-10.4h1.7l3.9,10.4h-2.2L269.6,385.3z M266.6,383.5h2.5l-1.2-3.5L266.6,383.5
			z"/>
		<path class="st9" d="M272.9,382.4c0-3.2,2.5-5.4,5.4-5.4c1.9,0,3.6,0.9,4.5,2.2l-1.4,1.4c-0.7-0.9-1.7-1.5-3-1.5
			c-1.9,0-3.3,1.4-3.3,3.4c0,1.9,1.4,3.3,3.3,3.3c1.2,0,2.3-0.6,3-1.5l1.4,1.3c-0.9,1.3-2.6,2.2-4.6,2.2
			C275.3,387.7,272.9,385.6,272.9,382.4z"/>
		<path class="st9" d="M284.3,377.2h7.1v1.9h-5v2.2h4.6v1.9h-4.6v2.3h5v1.9h-7.1V377.2z"/>
		<path class="st9" d="M292.3,385.8l1.2-1.5c0.7,0.9,1.7,1.5,2.8,1.5c0.9,0,1.5-0.5,1.5-1.1c0-0.5-0.4-0.8-0.9-1.1
			c-0.7-0.3-1.5-0.6-2.3-1c-0.9-0.5-1.6-1.3-1.6-2.6c0-1.7,1.4-3,3.5-3c1.2,0,2.5,0.4,3.4,1.4l-1.1,1.5c-0.6-0.6-1.6-1-2.3-1
			c-0.8,0-1.3,0.4-1.3,1c0,0.5,0.4,0.8,0.8,1c0.5,0.3,1.6,0.6,2.3,1c1,0.5,1.8,1.3,1.8,2.6c0,1.8-1.5,3.2-3.8,3.2
			C294.7,387.8,293.2,387.1,292.3,385.8z"/>
	</g>
	<g class="st8">
		<path class="st10" d="M260.7,305.5h-13.4v40.8h8.9v-13.6h4.5c7.4,0,13.4-6.1,13.4-13.6S268.1,305.5,260.7,305.5z M260.7,323.6
			h-4.5v-9.1h4.5c2.5,0,4.5,2,4.5,4.5S263.2,323.6,260.7,323.6z"/>
		<path class="st10" d="M285.2,285.1h-53.5c-7.4,0-13.4,6.1-13.4,13.6v54.4c0,7.5,6,13.6,13.4,13.6h53.5c7.4,0,13.4-6.1,13.4-13.6
			v-54.4C298.6,291.2,292.6,285.1,285.2,285.1z M289.7,353.1c0,2.5-2,4.5-4.5,4.5h-53.5c-2.5,0-4.5-2-4.5-4.5v-54.4
			c0-2.5,2-4.5,4.5-4.5h53.5c2.5,0,4.5,2,4.5,4.5V353.1z"/>
	</g>
	<g>
		<g transform="translate(-19.000000, -107.000000)">
			<path class="st5" d="M215.3,431.7l1.4-2.1c0.8-1.2,2.1-1.9,3.5-1.9h22.3c1.4,0,2.7,0.7,3.5,1.9l1.4,2.1c0.7-0.1,1.4-0.2,2.1-0.4
				l8.6-1.9v-6.6c-0.3,0.1-0.6,0.2-0.8,0.2c-1.6,0.4-3,0.5-4.8,0.5c-0.9,0-2.3-0.1-3.5-0.3c-1.6-0.3-2.7-0.6-3.2-1.3
				c-2.5,1-5.2,1.3-7.8,0.9c-3.5-0.5-5.7-0.7-6.6-0.7c-0.9,0-3.2,0.2-6.6,0.7c-2.7,0.4-5.5,0-8-1c0,0-0.1,0-0.1,0.1
				c-0.9,0.5-1.9,0.9-3,1.1c-1.6,0.4-3,0.5-4.8,0.5c-0.9,0-2.3-0.1-3.5-0.3c-0.3,0-0.5-0.1-0.8-0.1v6.3l8.6,1.9
				C213.9,431.5,214.6,431.6,215.3,431.7z M218.5,431.9c0.2,0,0.3,0,0.5,0h24.8c0.2,0,0.3,0,0.5,0l-0.5-0.8
				c-0.3-0.4-0.7-0.6-1.2-0.6h-22.3c-0.5,0-0.9,0.2-1.2,0.6L218.5,431.9z M204.6,420.1c0.3,0.1,0.7,0.2,1.2,0.3c1,0.2,2.2,0.2,3,0.2
				c1.6,0,2.8-0.1,4.2-0.4c0.1,0,0.1,0,0.2,0c-3.2-1.3-6-2.1-8.5-2.3c0,0,0,0.1,0,0.1V420.1z M201.8,420.7
				C201.8,420.7,201.8,420.7,201.8,420.7v-2.6c0-1,0.2-1.9,0.7-2.8l2.7-4.8l-5.1-0.8l0,0c-0.1,0-0.2-0.1-0.3-0.1
				c-0.6-0.3-0.8-1-0.5-1.5l0.4-0.8c0.2-0.4,0.5-0.6,0.9-0.7l0,0l3.7-0.9c0.7-0.2,1.5,0.2,1.7,0.9l0,0l0.5,1.4l3.9-10.7
				c1-2.8,3.7-4.6,6.6-4.6h28.7c3,0,5.6,1.9,6.6,4.6l3.8,10.5l0.3-1.1c0.2-0.7,0.9-1.2,1.7-1l3.9,0.9c0.4,0.1,0.7,0.4,0.9,0.7
				l0.4,0.8c0.3,0.6,0.1,1.2-0.5,1.5c-0.1,0.1-0.2,0.1-0.4,0.1l-5.1,0.8l2.7,4.8c0.5,0.8,0.7,1.8,0.7,2.8v2.6c0,0,0,0.1,0,0.1v8.4
				v5.6c0,2.3-1.9,4.2-4.2,4.2h-7c-2.3,0-4.2-1.9-4.2-4.2c0,0,0,0,0,0c-0.6,0-1.1,0-1.7,0H219c-0.6,0-1.1,0-1.7,0c0,0,0,0,0,0
				c0,2.3-1.9,4.2-4.2,4.2h-7c-2.3,0-4.2-1.9-4.2-4.2v-5.6V420.7z M258.2,419.8v-1.8c0,0,0-0.1,0-0.1c-2.6,0.2-5.6,1.1-8.9,2.5
				c0.1,0,0.2,0,0.3,0c1,0.2,2.2,0.2,3,0.2c1.6,0,2.8-0.1,4.2-0.4C257.2,420.2,257.7,420,258.2,419.8z M205.8,415.2
				c3.4,0.4,7.1,1.7,11.3,3.7c2.3,1.1,4.8,1.5,7.3,1.1c3.6-0.5,5.9-0.8,7-0.8c1.1,0,3.4,0.3,7,0.8c2.5,0.4,5,0,7.3-1.1
				c4.1-2,7.9-3.2,11.3-3.7l-2.4-4.3l-6.3,1.1c-0.8,0.1-1.7,0.2-2.5,0.2h-28.7c-0.9,0-1.7-0.1-2.5-0.2l-6.3-1.1L205.8,415.2z
				 M248.3,434.4c0,0.1,0,0.2,0,0.3c0,0.8,0.6,1.4,1.4,1.4h7c0.8,0,1.4-0.6,1.4-1.4v-2.5l-7.9,1.8
				C249.6,434.2,248.9,434.3,248.3,434.4z M214.5,434.4c-0.7-0.1-1.3-0.2-2-0.4l-7.9-1.8v2.5c0,0.8,0.6,1.4,1.4,1.4h7
				c0.8,0,1.4-0.6,1.4-1.4C214.5,434.6,214.5,434.5,214.5,434.4z M249.7,398.1c-0.6-1.7-2.2-2.8-4-2.8H217c-1.8,0-3.4,1.1-4,2.8
				l-3.7,10.2l5.6,0.9c0.7,0.1,1.4,0.2,2.1,0.2h28.7c0.7,0,1.4-0.1,2.1-0.2l5.6-0.9L249.7,398.1z"/>
		</g>
	</g>
	<g>
		<path class="st11" d="M266.4,316.3l-2.8-4.7l-2.9,4.7h-4.3l4.8-7.4l-4.3-7.1h4.3l2.5,4.4l2.6-4.4h4.2L266,309l4.6,7.2H266.4z"/>
		<path class="st11" d="M278.6,310.9c0-2.2,1.4-4.2,3.7-5v-0.1c-1.7-0.8-2.9-2.3-2.9-4.3c0-3,2.6-5.2,6.5-5.2c3.9,0,6.5,2.2,6.5,5.2
			c0,2-1.2,3.5-2.9,4.3v0.1c2.3,0.8,3.7,2.8,3.7,5c0,3.3-2.9,5.7-7.3,5.7C281.5,316.6,278.6,314.2,278.6,310.9z M289.2,310.4
			c0-1.5-1.3-2.7-3.4-2.7c-2.1,0-3.4,1.1-3.4,2.6c0,1.6,1.4,2.8,3.4,2.8S289.2,312,289.2,310.4z M288.7,302c0-1.4-1.1-2.4-2.9-2.4
			c-1.8,0-2.9,1.1-2.9,2.4c0,1.3,1.1,2.4,2.9,2.4C287.7,304.4,288.7,303.4,288.7,302z"/>
		<path class="st11" d="M295.4,310.9c0-2.2,1.4-4.2,3.7-5v-0.1c-1.7-0.8-2.9-2.3-2.9-4.3c0-3,2.6-5.2,6.5-5.2c3.9,0,6.5,2.2,6.5,5.2
			c0,2-1.2,3.5-2.9,4.3v0.1c2.3,0.8,3.7,2.8,3.7,5c0,3.3-2.9,5.7-7.3,5.7C298.3,316.6,295.4,314.2,295.4,310.9z M306.1,310.4
			c0-1.5-1.3-2.7-3.4-2.7c-2.1,0-3.4,1.1-3.4,2.6c0,1.6,1.4,2.8,3.4,2.8S306.1,312,306.1,310.4z M305.6,302c0-1.4-1.1-2.4-2.9-2.4
			c-1.8,0-2.9,1.1-2.9,2.4c0,1.3,1.1,2.4,2.9,2.4C304.5,304.4,305.6,303.4,305.6,302z"/>
		<path class="st11" d="M312.3,306.5c0-5.4,2.5-10.1,7.9-10.1c5.5,0,7.9,4.7,7.9,10.1c0,5.4-2.5,10.1-7.9,10.1
			C314.8,316.6,312.3,311.9,312.3,306.5z M324.3,306.5c0-3.5-1.2-6.4-4-6.4c-2.8,0-4,2.9-4,6.4c0,3.6,1.2,6.4,4,6.4
			C323.1,312.9,324.3,310.1,324.3,306.5z"/>
	</g>
	<g>
		<path d="M389.1,363.9v-0.6h2.4v-1.5h0.6v2.1H389.1z"/>
		<path d="M391.4,359.8v1l0.6,0.2v0.6l-3-1.1v-0.5l3-1.1v0.6L391.4,359.8z M390.9,360.7V360l-1,0.3L390.9,360.7z"/>
		<path d="M389.7,358.1h-0.6v-2.3h0.6v0.9h2.4v0.6h-2.4V358.1z"/>
		<path d="M391,355.4h-1.9v-0.6h1.9c0.4,0,0.6-0.2,0.6-0.6c0-0.3-0.2-0.6-0.6-0.6h-1.9v-0.6h1.9c0.8,0,1.1,0.5,1.1,1.2
			C392.1,354.9,391.8,355.4,391,355.4z"/>
		<path d="M389.7,352.8h-0.6v-2.3h0.6v0.9h2.4v0.6h-2.4V352.8z"/>
		<path d="M391,350.1h-1.9v-0.6h1.9c0.4,0,0.6-0.2,0.6-0.6c0-0.3-0.2-0.6-0.6-0.6h-1.9v-0.6h1.9c0.8,0,1.1,0.5,1.1,1.2
			C392.1,349.5,391.8,350.1,391,350.1z"/>
		<path d="M395.5,368.2c-0.9,0-1.5-0.7-1.5-1.6c0-0.5,0.2-0.9,0.5-1.2l0.4,0.4c-0.2,0.2-0.3,0.5-0.3,0.8c0,0.6,0.4,1,1,1
			c0.5,0,1-0.4,1-1c0-0.3-0.1-0.6-0.3-0.8h-0.4v0.8h-0.5v-1.4h1.2c0.4,0.4,0.6,0.8,0.6,1.4C397,367.6,396.3,368.2,395.5,368.2z"/>
		<path d="M395.5,364.9c-0.9,0-1.6-0.7-1.6-1.6c0-0.9,0.7-1.6,1.5-1.6c0.9,0,1.5,0.7,1.5,1.6C397,364.3,396.3,364.9,395.5,364.9z
			 M395.5,362.4c-0.6,0-1,0.4-1,0.9c0,0.5,0.4,0.9,1,0.9c0.5,0,1-0.4,1-0.9C396.4,362.8,396,362.4,395.5,362.4z"/>
		<path d="M395.5,361.5c-0.9,0-1.5-0.7-1.5-1.6c0-0.5,0.2-0.9,0.5-1.2l0.4,0.4c-0.2,0.2-0.3,0.5-0.3,0.8c0,0.6,0.4,1,1,1
			c0.5,0,1-0.4,1-1c0-0.3-0.1-0.6-0.3-0.8h-0.4v0.8h-0.5v-1.4h1.2c0.4,0.4,0.6,0.8,0.6,1.4C397,360.8,396.3,361.5,395.5,361.5z"/>
		<path d="M395.5,358.2c-0.9,0-1.6-0.7-1.6-1.6s0.7-1.6,1.5-1.6c0.9,0,1.5,0.7,1.5,1.6C397,357.6,396.3,358.2,395.5,358.2z
			 M395.5,355.7c-0.6,0-1,0.4-1,0.9c0,0.5,0.4,0.9,1,0.9c0.5,0,1-0.4,1-0.9C396.4,356.1,396,355.7,395.5,355.7z"/>
		<path d="M396.4,354.9l-0.4-0.3c0.3-0.2,0.4-0.5,0.4-0.8c0-0.3-0.1-0.4-0.3-0.4c-0.1,0-0.2,0.1-0.3,0.3c-0.1,0.2-0.2,0.4-0.3,0.6
			c-0.2,0.3-0.4,0.5-0.7,0.5c-0.5,0-0.9-0.4-0.9-1c0-0.3,0.1-0.7,0.4-1l0.4,0.3c-0.2,0.2-0.3,0.4-0.3,0.7c0,0.2,0.1,0.4,0.3,0.4
			c0.1,0,0.2-0.1,0.3-0.2c0.1-0.2,0.2-0.5,0.3-0.7c0.1-0.3,0.4-0.5,0.7-0.5c0.5,0,0.9,0.4,0.9,1.1
			C397,354.2,396.8,354.6,396.4,354.9z"/>
		<path d="M394,352.2v-2h0.6v1.4h0.6v-1.3h0.6v1.3h0.7v-1.4h0.6v2H394z"/>
		<path d="M395.9,348.7v0.4h1.1v0.6h-3v-1.1c0-0.7,0.4-1,0.9-1c0.4,0,0.7,0.2,0.9,0.6l1.2-0.7v0.7L395.9,348.7z M395.3,349v-0.5
			c0-0.3-0.2-0.5-0.4-0.5c-0.2,0-0.4,0.1-0.4,0.4v0.5H395.3z"/>
		<path d="M394,346.3h3v0.6h-3V346.3z"/>
		<path d="M394,345.6v-2h0.6v1.4h0.6v-1.3h0.6v1.3h0.7v-1.4h0.6v2H394z"/>
		<path d="M399.8,365.9c0.5,0,1,0.3,1,1.1v0.5h1v0.6h-3V367C398.8,366.2,399.3,365.9,399.8,365.9z M399.8,366.5
			c-0.2,0-0.4,0.2-0.4,0.4v0.5h0.9V367C400.2,366.7,400,366.5,399.8,366.5z"/>
		<path d="M401.2,364.1v1l0.6,0.2v0.6l-3-1.1v-0.5l3-1.1v0.6L401.2,364.1z M400.6,365v-0.7l-1,0.3L400.6,365z"/>
		<path d="M399.4,363.4h-0.6v-2.3h0.6v0.9h2.4v0.6h-2.4V363.4z"/>
		<path d="M398.8,360.1h3v0.6h-3V360.1z"/>
		<path d="M401.3,359.7l-0.4-0.3c0.3-0.2,0.4-0.5,0.4-0.8c0-0.3-0.1-0.4-0.3-0.4c-0.1,0-0.2,0.1-0.3,0.3c-0.1,0.2-0.2,0.4-0.3,0.6
			c-0.2,0.3-0.4,0.5-0.7,0.5c-0.5,0-0.9-0.4-0.9-1c0-0.3,0.1-0.7,0.4-1l0.4,0.3c-0.2,0.2-0.3,0.4-0.3,0.7c0,0.2,0.1,0.4,0.3,0.4
			c0.1,0,0.2-0.1,0.3-0.2c0.1-0.2,0.2-0.5,0.3-0.7c0.1-0.3,0.4-0.5,0.7-0.5c0.5,0,0.9,0.4,0.9,1.1
			C401.9,359,401.7,359.4,401.3,359.7z"/>
		<path d="M398.8,357v-2h0.6v1.4h0.6v-1.3h0.6v1.3h0.7V355h0.6v2H398.8z"/>
		<path d="M400.7,353.5v0.4h1.1v0.6h-3v-1.1c0-0.7,0.4-1,0.9-1c0.4,0,0.7,0.2,0.9,0.6l1.2-0.7v0.7L400.7,353.5z M400.2,353.8v-0.5
			c0-0.3-0.2-0.5-0.4-0.5c-0.2,0-0.4,0.1-0.4,0.4v0.5H400.2z"/>
		<path d="M398.8,351.1h3v0.6h-3V351.1z"/>
		<path d="M398.8,350.4v-2h0.6v1.4h0.6v-1.3h0.6v1.3h0.7v-1.4h0.6v2H398.8z"/>
		<path d="M401.9,344.7l-0.4,0.4c0.3,0.3,0.4,0.6,0.4,0.9c0,0.6-0.4,1-0.9,1c-0.4,0-0.7-0.2-0.9-0.5c-0.2,0.1-0.3,0.2-0.6,0.2
			c-0.4,0-0.8-0.3-0.8-0.8c0-0.4,0.3-0.8,0.7-0.8c0.4,0,0.6,0.4,0.8,0.7c0,0,0.1-0.1,0.1-0.2l0.5-0.5c-0.1-0.1-0.3-0.2-0.4-0.3
			l0.3-0.4c0.2,0.1,0.3,0.2,0.4,0.3l0.4-0.4L401.9,344.7z M399.6,346.2c0.1,0,0.2,0,0.3-0.1c-0.1-0.3-0.2-0.5-0.4-0.5
			c-0.1,0-0.3,0.1-0.3,0.3C399.2,346.1,399.4,346.2,399.6,346.2z M401.2,345.4l-0.5,0.6c-0.1,0.1-0.1,0.1-0.2,0.2
			c0.1,0.2,0.3,0.3,0.5,0.3c0.2,0,0.4-0.2,0.4-0.5C401.4,345.8,401.3,345.6,401.2,345.4z"/>
		<path d="M405.2,364c-0.9,0-1.6-0.7-1.6-1.5c0-0.6,0.3-1,0.6-1.3l0.4,0.4c-0.3,0.2-0.4,0.5-0.4,0.9c0,0.5,0.4,1,1,1
			c0.6,0,1-0.4,1-1c0-0.4-0.2-0.7-0.4-0.9l0.4-0.4c0.4,0.3,0.6,0.7,0.6,1.3C406.7,363.3,406.1,364,405.2,364z"/>
		<path d="M405.2,360.9c-0.9,0-1.6-0.7-1.6-1.6s0.7-1.6,1.5-1.6c0.9,0,1.5,0.7,1.5,1.6C406.7,360.2,406,360.9,405.2,360.9z
			 M405.2,358.4c-0.6,0-1,0.4-1,0.9c0,0.5,0.4,0.9,1,0.9c0.5,0,1-0.4,1-0.9C406.1,358.8,405.7,358.4,405.2,358.4z"/>
		<path d="M403.7,357.3v-2h0.6v1.4h0.7v-1.2h0.6v1.2h1.2v0.6H403.7z"/>
		<path d="M403.7,354.9v-2h0.6v1.4h0.7V353h0.6v1.2h1.2v0.6H403.7z"/>
		<path d="M403.7,352.4v-2h0.6v1.4h0.6v-1.3h0.6v1.3h0.7v-1.4h0.6v2H403.7z"/>
		<path d="M403.7,349.8v-2h0.6v1.4h0.6v-1.3h0.6v1.3h0.7v-1.4h0.6v2H403.7z"/>
	</g>
</g>
<polygon id="Barlad_Value_CentreGF01A" class="st3" points="6.6,690.3 6.6,759.6 117,759.6 117,710.8 45.2,710.8 45.2,690.3 "/>
<polygon id="Barlad_Value_CentreGF01B" class="st3" points="6.6,667.4 6.6,687.9 47.1,687.9 47.1,708.8 117,708.8 117,667.4 "/>
<rect id="Barlad_Value_CentreGF02" x="6.6" y="599.4" class="st3" width="110.4" height="66"/>
<rect id="Barlad_Value_CentreGF03" x="6.6" y="553.4" class="st3" width="110.4" height="43.8"/>
<rect id="Barlad_Value_CentreGF04" x="6.6" y="500.7" class="st3" width="110.4" height="50.5"/>
<rect id="Barlad_Value_CentreGF05" x="6.6" y="429.1" class="st3" width="110.4" height="69.8"/>
<rect id="Barlad_Value_CentreGF06" x="6.6" y="327.2" class="st3" width="110.4" height="99.5"/>
<rect id="Barlad_Value_CentreGF07" x="6.6" y="282.8" class="st3" width="110.4" height="42.1"/>
<rect id="Barlad_Value_CentreGF08" x="6.6" y="237.9" class="st3" width="110.4" height="43.1"/>
<polygon id="Barlad_Value_CentreGF09" class="st3" points="6.6,230.9 6.6,235.9 117,235.9 117,212 22.2,212 22.2,231.2 "/>
<polygon id="Barlad_Value_CentreGF10" class="st3" points="6.6,86.4 6.6,192.9 22.2,192.9 22.2,210.1 117,210.1 117,86.4 "/>
<polygon id="Barlad_Value_CentreGF11" class="st3" points="119.8,26 119.8,149.8 171.8,149.8 171.8,7 150.9,7 150.9,25.8 "/>
<rect id="Barlad_Value_CentreGF12" x="173.8" y="7" class="st3" width="68.8" height="142.8"/>
<polygon id="Barlad_Value_CentreG30" class="st3" points="400.8,6.9 400.8,36.3 413.5,36.3 416.9,39.9 422.7,34.2 422.7,6.9 "/>
<polygon id="Barlad_Value_CentreG35" class="st3" points="424.7,6.9 424.7,35.1 418.3,41.5 425.9,49.2 447,49.2 447,15.3 
	443.1,15.3 443.1,6.9 "/>
<rect id="Barlad_Value_CentreG33" x="465" y="35.9" class="st3" width="31.3" height="13.3"/>
<rect id="Barlad_Value_CentreG16" x="400.7" y="106.9" class="st3" width="21" height="68.1"/>
<polygon id="Barlad_Value_CentreG15" class="st3" points="423.4,106.9 423.4,124 447,124 447,111.3 443.1,106.9 "/>
<rect id="Barlad_Value_CentreG13" x="423.4" y="125.6" class="st3" width="23.6" height="12.4"/>
<rect id="Barlad_Value_CentreG12" x="423.4" y="139.7" class="st3" width="23.6" height="12.3"/>
<rect id="Barlad_Value_CentreG11" x="423.8" y="153.9" class="st3" width="23.2" height="20.8"/>
<rect id="Barlad_Value_CentreG10" x="400.7" y="176.7" class="st3" width="46.3" height="15.6"/>
<rect id="Barlad_Value_CentreG09" x="415.8" y="202" class="st3" width="31.6" height="11.2"/>
<polygon id="Barlad_Value_CentreG08" class="st3" points="400.7,211.6 400.7,238.2 447.4,238.2 447.4,215.1 413.8,215.1 
	413.8,211.6 "/>
<rect id="Barlad_Value_CentreG07" x="400.7" y="239.8" class="st3" width="46.7" height="16.7"/>
<polygon id="Barlad_Value_CentreG06" class="st3" points="400.7,258.1 400.7,269.7 447.4,269.7 447.4,257.7 "/>
<rect id="Barlad_Value_CentreG04" x="416.4" y="271.3" class="st3" width="31" height="12.1"/>
<polygon id="Barlad_Value_CentreG14" class="st3" points="443,309.6 447.4,305.2 447.4,285.3 429.5,285.3 429.5,309.6 "/>
<polygon id="Barlad_Value_CentreG02" class="st3" points="415.1,295.4 415.1,309.6 427.8,309.6 427.8,295.8 "/>
<polygon id="Barlad_Value_CentreG01" class="st3" points="387.6,271.3 387.6,309.6 413.8,309.6 413.8,294.2 427.8,294.2 
	427.8,285.3 415.1,285.3 415.1,271.3 "/>
<rect id="Barlad_Value_CentreG40" x="387.7" y="337.3" class="st3" width="19.3" height="35.6"/>
<rect id="Barlad_Value_CentreG39" x="408.7" y="337.3" class="st3" width="25.7" height="35.6"/>
<rect id="Barlad_Value_CentreG38" x="435.4" y="337.3" class="st3" width="24.8" height="17.8"/>
<polygon id="Barlad_Value_CentreG36" class="st3" points="435.4,356.5 435.4,372.9 494.1,372.9 494.1,337.3 461.9,337.3 
	461.9,356.6 "/>
<polygon id="Barlad_Value_CentreG00" class="st3" points="522.4,14.1 522.4,24.6 498,24.6 498,50.7 478.9,50.7 478.9,326.9 
	525.1,326.9 525.1,372.9 717.2,372.9 717.2,329.1 642.7,329.1 642.7,75.5 699.7,75.5 699.7,39.3 680.1,39.3 680.1,14.1 "/>
</svg>
