<?xml version="1.0" encoding="utf-8"?>
<!-- Generator: Adobe Illustrator 25.4.1, SVG Export Plug-In . SVG Version: 6.00 Build 0)  -->
<svg version="1.0" id="Layer_4" xmlns="http://www.w3.org/2000/svg" xmlns:xlink="http://www.w3.org/1999/xlink" x="0px" y="0px"
	 viewBox="0 0 386.3 240.9" style="enable-background:new 0 0 386.3 240.9;" xml:space="preserve">
<style type="text/css">
	.st0{fill:#F1F2F2;}
	.st1{fill:none;stroke:#000000;stroke-width:2;stroke-miterlimit:10;}
	.st2{fill:none;stroke:#000000;stroke-miterlimit:10;}
	.st3{fill:#F47725;}
</style>
<g id="cladire">
	<g>
		<rect x="9.6" y="7.7" class="st0" width="370.4" height="226.4"/>
		<path class="st0" d="M375,12.7v216.4H14.6V12.7H375 M385,2.7h-10H14.6h-10v10v216.4v10h10H375h10v-10V12.7V2.7L385,2.7z"/>
		<rect x="14.6" y="12.7" class="st1" width="360.4" height="216.4"/>
	</g>
</g>
<g id="magazine">
	<polyline class="st2" points="178.7,28.2 262.7,28.2 262.7,67.8 159.7,67.8 	"/>
	<polyline class="st2" points="14.6,102.2 145.1,102.2 145.1,77.9 145.1,67.8 162,67.8 162,28.2 181.5,28.2 181.5,12.7 	"/>
	<polyline class="st2" points="14.6,109.7 145.4,109.7 145.4,229.1 	"/>
	<polyline class="st2" points="129.5,109.7 129.5,133 145.4,133 	"/>
	<polyline class="st2" points="145.1,67.8 79.3,67.8 79.3,36.6 14.6,36.6 	"/>
	<line class="st2" x1="195.3" y1="28.2" x2="195.3" y2="67.8"/>
	<line class="st2" x1="225.9" y1="28.2" x2="225.9" y2="67.8"/>
	<polyline class="st2" points="225.9,48.6 244.1,48.6 244.1,67.8 	"/>
	<polyline class="st2" points="375,99.2 322.5,99.2 322.5,146.5 375,146.5 	"/>
	<line class="st2" x1="322.5" y1="129.7" x2="375" y2="129.7"/>
	<line class="st2" x1="348.8" y1="146.5" x2="348.8" y2="229.1"/>
	<line class="st2" x1="257.6" y1="187.8" x2="257.6" y2="229.1"/>
	<line class="st2" x1="229.1" y1="187.8" x2="229.1" y2="229.1"/>
	<line class="st2" x1="217" y1="187.8" x2="217" y2="229.1"/>
	<line class="st2" x1="199.2" y1="187.8" x2="199.2" y2="229.1"/>
	<polyline class="st2" points="293,229.1 293,208 340.7,208 340.7,169.1 329.8,169.1 329.8,154.3 312.9,154.3 312.9,187.8 
		156.2,187.8 156.2,229.1 	"/>
	<polyline class="st2" points="312.9,187.8 319.6,194.5 340.7,194.5 	"/>
	<line class="st2" x1="293" y1="208" x2="293" y2="187.8"/>
	<polyline class="st2" points="225.9,38.1 213.4,38.1 213.4,67.8 	"/>
	<polyline class="st2" points="170.2,229.1 170.2,212.4 177.8,212.4 177.8,187.8 	"/>
</g>
<g id="logo">
	<path class="st3" d="M367.8,191.5c0-0.8-0.7-1.5-1.5-1.5h-10c-0.8,0-1.5,0.7-1.5,1.5v10c0,0.8,0.7,1.5,1.5,1.5h10
		c0.8,0,1.5-0.7,1.5-1.5V191.5z M364.1,191.9c0.4,0,0.8,0.3,0.8,0.8c0,0.4-0.3,0.8-0.8,0.8c-0.4,0-0.8-0.3-0.8-0.8
		C363.3,192.2,363.6,191.9,364.1,191.9z M358.2,191.9c0.4,0,0.8,0.3,0.8,0.8c0,0.4-0.3,0.8-0.8,0.8c-0.4,0-0.8-0.3-0.8-0.8
		C357.4,192.2,357.7,191.9,358.2,191.9z M359.7,194.1l-0.2,2.6c0,0.2-0.1,0.3-0.3,0.4l0,0c-0.2,0.1-0.3,0.2-0.3,0.4l-0.2,3.3
		c0,0.2-0.2,0.4-0.4,0.4h-0.1H358c-0.2,0-0.4-0.2-0.4-0.4l-0.2-3.3c0-0.2-0.1-0.3-0.3-0.4c-0.2-0.1-0.3-0.2-0.3-0.4l-0.2-2.6
		c0-0.2,0.1-0.4,0.3-0.4l0.2,0c0.1,0,0.3,0,0.4,0.1l0.3,0.3c0.2,0.2,0.4,0.2,0.6,0l0.3-0.3c0.1-0.1,0.2-0.1,0.4-0.1l0.2,0
		C359.6,193.7,359.7,193.9,359.7,194.1z M361.3,201.1c0,0.1-0.1,0.2-0.2,0.2c-0.1,0-0.2-0.1-0.2-0.2v-9.2c0-0.1,0.1-0.2,0.2-0.2
		c0.1,0,0.2,0.1,0.2,0.2V201.1z M365.6,197c-0.1,0-0.2,0.2-0.2,0.3l0.1,0.7c0,0.2-0.1,0.3-0.2,0.3l-0.2,0c-0.1,0-0.2,0.1-0.2,0.3
		l-0.1,2.1c0,0.2-0.2,0.4-0.4,0.4h-0.1h-0.1c-0.2,0-0.4-0.2-0.4-0.4l-0.1-2.1c0-0.1-0.1-0.2-0.2-0.3l-0.2,0c-0.2,0-0.3-0.2-0.2-0.3
		l0.1-0.7c0-0.1-0.1-0.3-0.2-0.3c-0.1,0-0.2-0.2-0.2-0.3l0.6-2.7c0-0.2,0.3-0.3,0.4-0.2l0.5,0.3c0.1,0.1,0.2,0.1,0.3,0l0.5-0.3
		c0.2-0.1,0.4,0,0.4,0.2l0.6,2.7C365.8,196.8,365.7,196.9,365.6,197z"/>
	<path class="st3" d="M233.6,101.4c-0.4,0.1-1.8,0.4-3.1,0.7c-9.7,2.5-17.7,10.5-20.4,20.4c-0.8,3-1.2,9-0.6,12.2
		c1.4,8.9,7,16.8,15,21c3.3,1.8,9.2,3.6,9.2,2.9c0-0.7-3.2-17.5-3.5-18.1c-0.2-0.4-1.4-1.8-2.9-3.2c-3-2.7-3.7-3.8-4.3-6.3
		c-0.5-2.1-2.8-16.2-2.8-17.1c0-0.7,0.9-1.2,1.3-0.8c0.1,0.1,1.1,3.8,2,8.2c1.7,7.4,1.8,8,2.4,8.1c0.3,0.1,0.6-0.1,0.7-0.3
		c0.1-0.2-0.7-3.9-1.7-8.4c-1-4.4-1.8-8.1-1.7-8.2c0.1-0.1,0.4-0.2,0.8-0.2h0.7l1.8,8.2c1.9,8.4,2,8.7,3,8.1
		c0.3-0.2,0.1-1.5-1.4-8.3c-1-4.4-1.7-8.2-1.6-8.4c0.1-0.2,0.4-0.4,0.8-0.4c0.6,0,0.7,0.2,1.8,5c2.7,12,2.5,11.4,3.1,11.5
		c0.3,0.1,0.6-0.1,0.7-0.3c0.1-0.2-0.7-3.9-1.7-8.4c-1.7-7.3-1.8-8-1.4-8.4c1-0.8,1.2-0.4,3.8,8.7c2.4,8.4,2.6,9,2.5,10.9
		c-0.1,1.6-0.3,2.4-1.3,4.7c-0.8,1.9-1.2,3.1-1.2,3.9c0,1.4,4.9,18.5,5.1,17.9c0.1-0.2,0.7-3,1.3-6.1l1.2-5.7l-0.4-1.3
		c-0.5-1.5-0.4-2.7,0.3-10c0.5-5,1.4-9.2,3-14.6c1.7-5.8,3.5-9.3,5.6-11.5c2.7-2.8,4.4-2.5,4.4,0.6c0,2.2-6.4,35.6-7.1,36.9
		c-0.3,0.7-0.9,3-1.4,6.3c-0.5,2.9-1,5.6-1.1,6l-0.1,0.7l1.4-0.4c5.6-1.6,9.8-4.1,13.7-8.2c5.2-5.4,7.9-12.1,7.9-19.8
		c0-8.2-2.9-15.3-8.6-20.9c-4-4-9.4-6.8-15-7.9C241.9,101.3,235.3,101.1,233.6,101.4L233.6,101.4z M233.6,101.4"/>
	<g>
		<path d="M90.4,36h1.4l4.1,5.9L100,36h1.4v10.5h-2.1v-5.9L96.2,45h-0.7l-3.1-4.4v5.9h-2.1V36z"/>
		<path d="M105.8,36v10.5h-2.1V36H105.8z"/>
		<path d="M108.2,36h2.1v8.5h5.3v2h-7.4V36z"/>
		<path d="M116.9,36h2.1v8.5h5.3v2h-7.4V36z"/>
		<path d="M127.9,36v10.5h-2.1V36H127.9z"/>
		<path d="M129.6,41.3c0-3.1,2.4-5.5,5.5-5.5c3.1,0,5.5,2.4,5.5,5.4c0,3-2.4,5.4-5.5,5.4C131.9,46.7,129.6,44.3,129.6,41.3z
			 M138.3,41.3c0-2-1.5-3.4-3.3-3.4c-1.8,0-3.3,1.4-3.3,3.4c0,1.9,1.4,3.3,3.3,3.3C136.9,44.6,138.3,43.2,138.3,41.3z"/>
		<path d="M151.1,36v10.5h-1.4l-5.4-6.4v6.4h-2.1V36h1.3l5.5,6.5V36H151.1z"/>
	</g>
	<g>
		<path d="M51.9,81.3l0.9-1.1c0.5,0.7,1.3,1.1,2.1,1.1c0.6,0,1.1-0.3,1.1-0.8c0-0.4-0.3-0.6-0.7-0.8c-0.5-0.2-1.1-0.4-1.7-0.7
			c-0.7-0.4-1.2-1-1.2-1.9c0-1.3,1.1-2.3,2.6-2.3c0.9,0,1.8,0.3,2.5,1l-0.8,1.1c-0.5-0.5-1.2-0.7-1.7-0.7c-0.6,0-1,0.3-1,0.7
			c0,0.4,0.3,0.6,0.6,0.8c0.4,0.2,1.2,0.5,1.7,0.7c0.8,0.4,1.3,0.9,1.3,1.9c0,1.4-1.1,2.4-2.8,2.4C53.7,82.8,52.6,82.3,51.9,81.3z"
			/>
		<path d="M64.6,77.4c0,1.3-0.8,2.5-2.9,2.5h-1.2v2.7H59v-7.7h2.9C63.8,74.9,64.6,76.2,64.6,77.4z M63,77.4c0-0.6-0.4-1.1-1.1-1.1
			h-1.3v2.2h1.2C62.6,78.6,63,78,63,77.4z"/>
		<path d="M65.2,78.8c0-2.4,1.8-4,4-4c1.4,0,2.7,0.7,3.3,1.6l-1,1c-0.5-0.7-1.3-1.1-2.2-1.1c-1.4,0-2.5,1.1-2.5,2.5
			c0,1.4,1.1,2.5,2.5,2.5c0.9,0,1.7-0.5,2.3-1.1l1.1,1c-0.7,0.9-1.9,1.6-3.4,1.6C67,82.8,65.2,81.2,65.2,78.8z"/>
		<path d="M76.1,79.8h-0.9v2.8h-1.6v-7.7h3c1.8,0,2.7,1.2,2.7,2.5c0,0.9-0.5,1.9-1.6,2.3l1.9,3h-1.8L76.1,79.8z M75.2,78.4h1.3
			c0.9,0,1.2-0.5,1.2-1.1c0-0.6-0.4-1-1.1-1h-1.4V78.4z"/>
		<path d="M86.3,77.4c0,1.3-0.8,2.5-2.9,2.5h-1.2v2.7h-1.6v-7.7h2.9C85.6,74.9,86.3,76.2,86.3,77.4z M84.8,77.4
			c0-0.6-0.4-1.1-1.1-1.1h-1.3v2.2h1.2C84.4,78.6,84.8,78,84.8,77.4z"/>
		<path d="M87,78.8c0-2.4,1.8-4,4-4c1.4,0,2.7,0.7,3.3,1.6l-1,1c-0.5-0.7-1.3-1.1-2.2-1.1c-1.4,0-2.5,1.1-2.5,2.5
			c0,1.4,1.1,2.5,2.5,2.5c0.9,0,1.7-0.5,2.3-1.1l1.1,1c-0.7,0.9-1.9,1.6-3.4,1.6C88.8,82.8,87,81.2,87,78.8z"/>
		<path d="M97,74.9v7.7h-1.6v-7.7H97z"/>
		<path d="M105.6,74.9l-3.2,7.7h-1.2l-3.2-7.7h1.8l2,5.4l2-5.4H105.6z"/>
		<path d="M47.2,87.2h3c2.3,0,3.7,1.5,3.7,3.9c0,2.4-1.4,3.9-3.8,3.9h-3V87.2z M50.3,93.5c1.4,0,2.1-1.1,2.1-2.4
			c0-1.3-0.7-2.4-2.1-2.4h-1.5v4.8H50.3z"/>
		<path d="M59.1,93.3h-2.7L55.8,95h-1.6l3-7.7h1.3l2.9,7.7h-1.6L59.1,93.3z M56.9,91.9h1.8l-0.9-2.6L56.9,91.9z"/>
		<path d="M62.3,87.2h1l3,4.4l3-4.4h1V95h-1.6v-4.4l-2.3,3.2h-0.5l-2.3-3.2V95h-1.5V87.2z"/>
		<path d="M78.1,92.7c0,1.2-0.9,2.3-2.5,2.3h-3.5v-7.7h3.4c1.5,0,2.2,1,2.2,1.9c0,0.7-0.4,1.3-1.1,1.6C77.7,91,78.1,91.8,78.1,92.7z
			 M73.7,88.6v1.7h1.5c0.7,0,1-0.5,1-0.9c0-0.4-0.3-0.8-0.9-0.8H73.7z M76.5,92.6c0-0.5-0.4-1-1.2-1h-1.7v2h1.7
			C76.2,93.6,76.5,93.1,76.5,92.6z"/>
		<path d="M78.9,91.1c0-2.3,1.8-4,4-4c2.3,0,4,1.8,4,4c0,2.2-1.8,4-4,4C80.7,95.1,78.9,93.3,78.9,91.1z M85.4,91.1
			c0-1.4-1.1-2.5-2.4-2.5c-1.3,0-2.4,1.1-2.4,2.5c0,1.4,1.1,2.5,2.4,2.5S85.4,92.5,85.4,91.1z"/>
		<path d="M94.8,87.2L91.6,95h-1.2l-3.2-7.7h1.8l2,5.4l2-5.4H94.8z"/>
		<path d="M97.2,87.2V95h-1.6v-7.7H97.2z"/>
		<path d="M98.2,88.7v-1.5h6v1.5H102V95h-1.6v-6.2H98.2z"/>
		<path d="M108.7,93.3H106l-0.6,1.7h-1.6l3-7.7h1.3l2.9,7.7h-1.6L108.7,93.3z M106.4,91.9h1.8l-0.9-2.6L106.4,91.9z"/>
	</g>
	<g>
		<path d="M137.6,128.1l-1.5,0.9v-0.7l1-0.6l-1-0.6v-0.7l1.5,1l1.5-0.9v0.7l-1.1,0.6l1.1,0.6v0.7L137.6,128.1z"/>
		<path d="M137.1,123.9c0.5,0,1,0.3,1,1.1v0.5h1v0.6h-3v-1.1C136.1,124.2,136.6,123.9,137.1,123.9z M137.1,124.5
			c-0.2,0-0.4,0.2-0.4,0.4v0.5h0.9V125C137.6,124.6,137.3,124.5,137.1,124.5z"/>
		<path d="M138,122.5v0.4h1.1v0.6h-3v-1.2c0-0.7,0.5-1,1-1c0.4,0,0.7,0.2,0.9,0.6l1.2-0.7v0.7L138,122.5z M137.5,122.8v-0.5
			c0-0.3-0.2-0.5-0.4-0.5c-0.2,0-0.4,0.1-0.4,0.4v0.5H137.5z"/>
		<path d="M136.1,120.7v-2h0.6v1.4h0.6v-1.3h0.6v1.3h0.7v-1.4h0.6v2H136.1z"/>
		<path d="M138.6,118.4l-0.4-0.3c0.3-0.2,0.4-0.5,0.4-0.8c0-0.3-0.1-0.4-0.3-0.4c-0.2,0-0.2,0.1-0.3,0.3c-0.1,0.2-0.2,0.4-0.3,0.7
			c-0.2,0.3-0.4,0.5-0.8,0.5c-0.5,0-0.9-0.4-0.9-1c0-0.4,0.1-0.7,0.4-1l0.4,0.3c-0.2,0.2-0.3,0.5-0.3,0.7c0,0.2,0.1,0.4,0.3,0.4
			c0.2,0,0.2-0.1,0.3-0.2c0.1-0.2,0.2-0.5,0.3-0.7c0.1-0.3,0.4-0.5,0.8-0.5c0.5,0,0.9,0.4,0.9,1.1
			C139.2,117.7,139,118.1,138.6,118.4z"/>
		<path d="M138.6,115.9l-0.4-0.3c0.3-0.2,0.4-0.5,0.4-0.8c0-0.3-0.1-0.4-0.3-0.4c-0.2,0-0.2,0.1-0.3,0.3c-0.1,0.2-0.2,0.4-0.3,0.7
			c-0.2,0.3-0.4,0.5-0.8,0.5c-0.5,0-0.9-0.4-0.9-1c0-0.4,0.1-0.7,0.4-1l0.4,0.3c-0.2,0.2-0.3,0.5-0.3,0.7c0,0.2,0.1,0.4,0.3,0.4
			c0.2,0,0.2-0.1,0.3-0.2c0.1-0.2,0.2-0.5,0.3-0.7c0.1-0.3,0.4-0.5,0.8-0.5c0.5,0,0.9,0.4,0.9,1.1
			C139.2,115.2,139,115.6,138.6,115.9z"/>
	</g>
	<g>
		<path d="M231,208.2h0.3l1,1.4l0.9-1.4h0.3v2.4H233v-1.4l-0.7,1h-0.2l-0.7-1v1.4H231V208.2z"/>
		<path d="M234,208.2h1.6v0.5h-1.2v0.5h1.1v0.5h-1.1v0.5h1.2v0.5H234V208.2z"/>
		<path d="M235.9,210.3l0.3-0.3c0.2,0.2,0.4,0.3,0.6,0.3c0.2,0,0.3-0.1,0.3-0.3c0-0.1-0.1-0.2-0.2-0.3c-0.2-0.1-0.4-0.1-0.5-0.2
			c-0.2-0.1-0.4-0.3-0.4-0.6c0-0.4,0.3-0.7,0.8-0.7c0.3,0,0.6,0.1,0.8,0.3l-0.3,0.4c-0.1-0.2-0.4-0.2-0.5-0.2
			c-0.2,0-0.3,0.1-0.3,0.2c0,0.1,0.1,0.2,0.2,0.2c0.1,0.1,0.4,0.2,0.5,0.2c0.2,0.1,0.4,0.3,0.4,0.6c0,0.4-0.4,0.7-0.9,0.7
			C236.5,210.7,236.1,210.5,235.9,210.3z"/>
		<path d="M238,209.5c0-0.7,0.6-1.3,1.3-1.3c0.7,0,1.3,0.6,1.3,1.3c0,0.7-0.5,1.2-1.3,1.2C238.5,210.7,238,210.2,238,209.5z
			 M240,209.5c0-0.5-0.3-0.8-0.8-0.8c-0.4,0-0.8,0.3-0.8,0.8c0,0.4,0.3,0.8,0.8,0.8C239.7,210.2,240,209.9,240,209.5z"/>
		<path d="M242.7,209c0,0.4-0.3,0.8-0.9,0.8h-0.4v0.8h-0.5v-2.4h0.9C242.4,208.2,242.7,208.6,242.7,209z M242.2,209
			c0-0.2-0.1-0.3-0.4-0.3h-0.4v0.7h0.4C242,209.4,242.2,209.2,242.2,209z"/>
		<path d="M242.9,209.5c0-0.7,0.6-1.3,1.3-1.3c0.7,0,1.3,0.6,1.3,1.3c0,0.7-0.5,1.2-1.3,1.2C243.4,210.7,242.9,210.2,242.9,209.5z
			 M244.9,209.5c0-0.5-0.3-0.8-0.8-0.8c-0.4,0-0.8,0.3-0.8,0.8c0,0.4,0.3,0.8,0.8,0.8C244.5,210.2,244.9,209.9,244.9,209.5z"/>
		<path d="M245.5,208.7v-0.5h1.9v0.5h-0.7v2h-0.5v-2H245.5z"/>
		<path d="M248.7,210.1h-0.8l-0.2,0.5h-0.5l0.9-2.4h0.4l0.9,2.4h-0.5L248.7,210.1z M248,209.7h0.6l-0.3-0.8L248,209.7z"/>
		<path d="M249.7,208.2h0.3l1,1.4l0.9-1.4h0.3v2.4h-0.5v-1.4l-0.7,1h-0.2l-0.7-1v1.4h-0.5V208.2z"/>
		<path d="M253.3,208.2v2.4h-0.5v-2.4H253.3z"/>
		<path d="M255.1,210.1h-0.8l-0.2,0.5h-0.5l0.9-2.4h0.4l0.9,2.4h-0.5L255.1,210.1z M254.4,209.7h0.6l-0.3-0.8L254.4,209.7z"/>
	</g>
	<g>
		<path d="M333,136.7h1.3c1,0,1.7,0.7,1.7,1.7c0,1.1-0.6,1.7-1.7,1.7H333V136.7z M334.3,139.4c0.6,0,0.9-0.5,0.9-1.1
			c0-0.6-0.3-1.1-0.9-1.1h-0.7v2.1H334.3z"/>
		<path d="M338.3,139.4h-1.2l-0.3,0.7h-0.7l1.3-3.4h0.6l1.3,3.4h-0.7L338.3,139.4z M337.3,138.7h0.8l-0.4-1.1L337.3,138.7z"/>
		<path d="M342.3,139.1c0,0.5-0.4,1-1.1,1h-1.6v-3.4h1.5c0.7,0,1,0.4,1,0.9c0,0.3-0.2,0.6-0.5,0.7
			C342.1,138.3,342.3,138.7,342.3,139.1z M340.4,137.3v0.7h0.7c0.3,0,0.4-0.2,0.4-0.4c0-0.2-0.1-0.4-0.4-0.4H340.4z M341.6,139
			c0-0.2-0.2-0.5-0.5-0.5h-0.8v0.9h0.8C341.5,139.5,341.6,139.3,341.6,139z"/>
		<path d="M342.7,138.4c0-1,0.8-1.8,1.8-1.8c1,0,1.8,0.8,1.8,1.8c0,1-0.8,1.8-1.8,1.8C343.5,140.2,342.7,139.4,342.7,138.4z
			 M345.6,138.4c0-0.6-0.5-1.1-1.1-1.1c-0.6,0-1.1,0.5-1.1,1.1c0,0.6,0.5,1.1,1.1,1.1C345.1,139.5,345.6,139,345.6,138.4z"/>
		<path d="M348,136.7h1.3c1,0,1.7,0.7,1.7,1.7c0,1.1-0.6,1.7-1.7,1.7H348V136.7z M349.3,139.4c0.6,0,0.9-0.5,0.9-1.1
			c0-0.6-0.3-1.1-0.9-1.1h-0.7v2.1H349.3z"/>
		<path d="M351.4,138.4c0-1,0.8-1.8,1.8-1.8c1,0,1.8,0.8,1.8,1.8c0,1-0.8,1.8-1.8,1.8C352.1,140.2,351.4,139.4,351.4,138.4z
			 M354.2,138.4c0-0.6-0.5-1.1-1.1-1.1c-0.6,0-1.1,0.5-1.1,1.1c0,0.6,0.5,1.1,1.1,1.1C353.8,139.5,354.2,139,354.2,138.4z"/>
		<path d="M358.4,136.7v3.4H358l-1.8-2.1v2.1h-0.7v-3.4h0.4l1.8,2.1v-2.1H358.4z"/>
		<path d="M359.2,136.7h2.3v0.6h-1.6v0.7h1.5v0.6h-1.5v0.8h1.6v0.6h-2.3V136.7z"/>
		<path d="M363.3,138.8h-0.4v1.3h-0.7v-3.4h1.3c0.8,0,1.2,0.5,1.2,1.1c0,0.4-0.2,0.8-0.7,1l0.8,1.3H364L363.3,138.8z M362.9,138.2
			h0.6c0.4,0,0.5-0.2,0.5-0.5c0-0.2-0.2-0.5-0.5-0.5h-0.6V138.2z"/>
	</g>
	<g>
		<path d="M314.9,200.7c0,0.6-0.4,1.1-1.3,1.1h-0.5v1.2h-0.7v-3.4h1.3C314.6,199.6,314.9,200.1,314.9,200.7z M314.2,200.7
			c0-0.3-0.2-0.5-0.5-0.5h-0.6v1h0.6C314,201.2,314.2,200.9,314.2,200.7z"/>
		<path d="M315.2,201.3c0-1,0.8-1.8,1.8-1.8c1,0,1.8,0.8,1.8,1.8c0,1-0.8,1.8-1.8,1.8C316,203.1,315.2,202.3,315.2,201.3z
			 M318.1,201.3c0-0.6-0.5-1.1-1.1-1.1c-0.6,0-1.1,0.5-1.1,1.1c0,0.6,0.5,1.1,1.1,1.1C317.6,202.4,318.1,201.9,318.1,201.3z"/>
		<path d="M319.3,199.6h0.7v2.8h1.7v0.7h-2.4V199.6z"/>
		<path d="M322.9,199.6v3.4h-0.7v-3.4H322.9z"/>
	</g>
	<g>
		<path d="M205,214.3c-0.9,0-1.5-0.7-1.5-1.5c0-0.5,0.3-1,0.6-1.3l0.4,0.4c-0.3,0.2-0.4,0.5-0.4,0.8c0,0.5,0.4,0.9,1,0.9
			c0.5,0,0.9-0.4,0.9-0.9c0-0.3-0.2-0.7-0.4-0.9l0.4-0.4c0.4,0.3,0.6,0.7,0.6,1.3C206.5,213.7,205.9,214.3,205,214.3z"/>
		<path d="M205.8,209.6v1l0.6,0.2v0.6l-3-1.1v-0.5l3-1.1v0.6L205.8,209.6z M205.3,210.5v-0.7l-1,0.3L205.3,210.5z"/>
		<path d="M205.9,208.7l-0.4-0.3c0.3-0.2,0.4-0.5,0.4-0.8c0-0.2-0.1-0.4-0.3-0.4c-0.1,0-0.2,0.1-0.3,0.3c-0.1,0.2-0.2,0.4-0.3,0.6
			c-0.1,0.3-0.4,0.5-0.7,0.5c-0.5,0-0.9-0.4-0.9-1c0-0.3,0.1-0.7,0.4-1l0.4,0.3c-0.2,0.2-0.3,0.4-0.3,0.6c0,0.2,0.1,0.4,0.3,0.4
			c0.1,0,0.2-0.1,0.3-0.2c0.1-0.2,0.2-0.5,0.3-0.7c0.1-0.3,0.4-0.5,0.7-0.5c0.5,0,0.9,0.4,0.9,1.1
			C206.5,208.1,206.3,208.5,205.9,208.7z"/>
		<path d="M205.8,204.6v1l0.6,0.2v0.6l-3-1.1v-0.5l3-1.1v0.6L205.8,204.6z M205.3,205.4v-0.7l-1,0.3L205.3,205.4z"/>
		<path d="M209.6,224.5c-0.9,0-1.5-0.7-1.5-1.6c0-0.5,0.2-0.9,0.5-1.2l0.4,0.4c-0.2,0.2-0.3,0.5-0.3,0.8c0,0.6,0.4,1,1,1
			c0.5,0,1-0.4,1-0.9c0-0.3-0.1-0.6-0.3-0.8h-0.4v0.8h-0.5v-1.4h1.2c0.4,0.4,0.6,0.8,0.6,1.3C211.2,223.9,210.5,224.5,209.6,224.5z"
			/>
		<path d="M210,221.1h-1.9v-0.6h1.8c0.4,0,0.6-0.2,0.6-0.6c0-0.3-0.2-0.6-0.6-0.6h-1.8v-0.6h1.9c0.8,0,1.1,0.5,1.1,1.2
			C211.2,220.6,210.8,221.1,210,221.1z"/>
		<path d="M210,217.3v0.4h1.1v0.6h-3v-1.1c0-0.7,0.4-1,0.9-1c0.4,0,0.7,0.2,0.9,0.6l1.2-0.7v0.7L210,217.3z M209.5,217.6v-0.5
			c0-0.3-0.2-0.5-0.4-0.5c-0.2,0-0.4,0.1-0.4,0.4v0.5H209.5z"/>
		<path d="M208.2,215.5v-0.4l1.7-1.2l-1.7-1.1v-0.4h3v0.6h-1.7l1.2,0.9v0.2l-1.2,0.9h1.7v0.6H208.2z"/>
		<path d="M210.5,210.2v1l0.6,0.2v0.6l-3-1.1v-0.5l3-1.1v0.6L210.5,210.2z M210,211.1v-0.7l-1,0.3L210,211.1z"/>
		<path d="M208.2,206.5h3v0.4l-1.8,1.5h1.8v0.6h-3v-0.4l1.8-1.6h-1.8V206.5z"/>
		<path d="M208.2,205.8v-1.2c0-0.9,0.6-1.4,1.5-1.4c0.9,0,1.5,0.5,1.5,1.4v1.1H208.2z M210.6,204.7c0-0.5-0.4-0.8-0.9-0.8
			c-0.5,0-0.9,0.3-0.9,0.8v0.6h1.8V204.7z"/>
		<path d="M210,202.8h-1.9v-0.6h1.8c0.4,0,0.6-0.2,0.6-0.6c0-0.3-0.2-0.6-0.6-0.6h-1.8v-0.6h1.9c0.8,0,1.1,0.5,1.1,1.2
			C211.2,202.3,210.8,202.8,210,202.8z"/>
		<path d="M208.2,199.9v-0.6h2.4v-1.5h0.6v2.1H208.2z"/>
		<path d="M210,197.5h-1.9v-0.6h1.8c0.4,0,0.6-0.2,0.6-0.6c0-0.3-0.2-0.6-0.6-0.6h-1.8v-0.6h1.9c0.8,0,1.1,0.5,1.1,1.2
			C211.2,197,210.8,197.5,210,197.5z"/>
		<path d="M208.2,194h3v0.6h-3V194z"/>
	</g>
	<g>
		<path d="M164.5,46.4h1.6c1.2,0,1.9,0.8,1.9,2c0,1.2-0.7,2-2,2h-1.5V46.4z M166,49.6c0.7,0,1.1-0.6,1.1-1.2c0-0.7-0.4-1.2-1.1-1.2
			h-0.8v2.5H166z"/>
		<path d="M169.4,46.4v4h-0.8v-4H169.4z"/>
		<path d="M173.7,46.4v4h-0.5l-2.1-2.4v2.4h-0.8v-4h0.5l2.1,2.5v-2.5H173.7z"/>
		<path d="M175.4,46.4v4h-0.8v-4H175.4z"/>
		<path d="M177.6,46.4h0.8v3.2h2v0.8h-2.8V46.4z"/>
		<path d="M183.1,49.5h-1.4l-0.3,0.9h-0.8l1.5-4h0.7l1.5,4h-0.8L183.1,49.5z M181.9,48.8h0.9l-0.5-1.3L181.9,48.8z"/>
		<path d="M188.1,46.4v4h-0.5l-2.1-2.4v2.4h-0.8v-4h0.5l2.1,2.5v-2.5H188.1z"/>
		<path d="M189,46.4h1.6c1.2,0,1.9,0.8,1.9,2c0,1.2-0.7,2-2,2H189V46.4z M190.5,49.6c0.7,0,1.1-0.6,1.1-1.2c0-0.7-0.4-1.2-1.1-1.2
			h-0.8v2.5H190.5z"/>
	</g>
	<g>
		<path d="M218.4,65.5v-1.9h0.5v1.3h0.6v-1.2h0.5v1.2h0.6v-1.3h0.5v1.9H218.4z"/>
		<path d="M218.4,63v-0.6h2.3V61h0.5v2H218.4z"/>
		<path d="M218.4,60.1h2.8v0.6h-2.8V60.1z"/>
		<path d="M218.9,59.7h-0.5v-2.2h0.5v0.8h2.3v0.6h-2.3V59.7z"/>
		<path d="M218.4,57.2v-1.9h0.5v1.3h0.6v-1.2h0.5v1.2h0.6v-1.3h0.5v1.9H218.4z"/>
		<path d="M219.8,54c-0.9,0-1.5-0.7-1.5-1.5c0-0.5,0.2-0.9,0.5-1.1l0.4,0.4c-0.2,0.2-0.3,0.5-0.3,0.8c0,0.5,0.4,0.9,0.9,0.9
			c0.5,0,0.9-0.4,0.9-0.9c0-0.3-0.1-0.6-0.3-0.8H220v0.8h-0.5v-1.3h1.2c0.4,0.3,0.6,0.8,0.6,1.3C221.2,53.3,220.6,54,219.8,54z"/>
		<path d="M220.6,49.3v1l0.6,0.2v0.6l-2.8-1.1v-0.5l2.8-1.1v0.6L220.6,49.3z M220.1,50.1v-0.7l-0.9,0.3L220.1,50.1z"/>
		<path d="M218.4,48.1v-0.4l1.6-1.1l-1.6-1.1v-0.4h2.8v0.6h-1.6l1.2,0.8v0.2l-1.2,0.8h1.6v0.6H218.4z"/>
		<path d="M218.4,44.5v-1.9h0.5V44h0.6v-1.2h0.5V44h0.6v-1.3h0.5v1.9H218.4z"/>
		<path d="M220.7,42.3l-0.4-0.3c0.3-0.2,0.4-0.5,0.4-0.8c0-0.2-0.1-0.4-0.3-0.4c-0.1,0-0.2,0.1-0.3,0.3c-0.1,0.2-0.2,0.4-0.3,0.6
			c-0.1,0.2-0.4,0.4-0.7,0.4c-0.5,0-0.8-0.4-0.8-1c0-0.3,0.1-0.7,0.4-0.9l0.4,0.3c-0.2,0.2-0.3,0.4-0.3,0.6c0,0.2,0.1,0.4,0.3,0.4
			c0.1,0,0.2-0.1,0.3-0.2c0.1-0.1,0.2-0.4,0.3-0.6c0.1-0.3,0.3-0.5,0.7-0.5c0.5,0,0.9,0.4,0.9,1C221.2,41.7,221.1,42.1,220.7,42.3z"
			/>
	</g>
	<g>
		<path d="M340.2,108.9h-0.9l-0.2,0.8c0.4,0,1,0.4,0.5,0.9c-0.1,0.1-5,3.8-5,3.8l1.1-3.8c0.2-0.7,1-0.8,1-0.8l0.2-0.8l-5.9,0
			l-0.2,0.8c0.3,0.1,1.1,0.2,0.8,1.3c-2,7.2-1.8,6.4-1.9,6.8c-0.5,2.1-1.4,2-1.7,2l-0.2,0.8l0,0.1h0h6.2l0.2-0.8c0,0-1-0.2-0.8-0.9
			c0.2-0.7,1-3.5,1-3.5c2.7,4.4,3.4,5.2,5.8,5.3c0.8,0,1.8,0,3.2,0l0.2-0.8c-0.8,0-1.3-0.6-1.6-0.9c-0.2-0.2-1-1.4-1.8-2.6
			c-0.7-1-1.3-2-1.3-2l1.3-1l3.7-3c0.8-0.7,1.4-0.6,1.4-0.6l0.2-0.8L340.2,108.9z"/>
		<path d="M365.4,108.8c-0.7,0-1.3,0-1.9,0.1c-5,0.6-8,3.7-8,6.9c0,2.6,2.1,5.2,7.1,5.1c0.3,0,0.6,0,0.9,0c1.2-0.1,2.2-0.2,3.2-0.4
			l0.6-2.5c-1,0.3-2.2,0.6-3.1,0.6c-0.2,0-0.4,0-0.6,0c-2.3-0.2-3.7-1.7-3.7-3.6c0-1.9,1.4-3.5,3.7-3.8c0.4-0.1,0.8-0.1,1.3-0.1
			c1.5,0,2.3,0.5,2.8,1.2h0.4l0.8-2.9C367.9,109.1,366.7,108.8,365.4,108.8z"/>
		<path d="M352.3,108.9h-5.9l-0.2,0.8c0,0,1.2,0.1,0.8,1.3l-2.7,9.7l5.3,0l0.2-0.8c0,0-1-0.2-0.7-1.2c0-0.1,0.8-2.9,0.8-2.9l2.3,0
			h0.1c1.2,0,1.6,0.6,1.6,0.6l0.7-2.9h-2.4h-1.7l0.6-2.3h1.1l2.5,0c0.7,0,1.1,0.4,1.1,0.8h0.4l0.8-3.1H352.3z"/>
	</g>
	<g>
		<path d="M235.2,59.6C235.2,59.6,235.1,59.6,235.2,59.6C235.1,59.6,235.1,59.6,235.2,59.6C235.1,59.6,235.1,59.6,235.2,59.6
			c0-0.1,0-0.1-0.1-0.1C235.1,59.5,235.1,59.5,235.2,59.6C235.1,59.5,235.1,59.6,235.2,59.6c-0.1,0.1-0.1,0.1-0.2,0.2c0,0,0,0,0,0.1
			c0,0,0,0,0.1,0C235.1,59.8,235.1,59.7,235.2,59.6C235.1,59.7,235.1,59.6,235.2,59.6c0,0,0.1,0,0.1,0c0,0,0,0,0.1,0c0,0,0,0,0-0.1
			c0,0-0.1,0-0.1,0C235.2,59.5,235.2,59.6,235.2,59.6z"/>
		<path d="M231.9,57.5C231.9,57.5,231.9,57.5,231.9,57.5C232,57.6,232,57.6,231.9,57.5c0,0.1-0.1,0.2-0.1,0.3
			c-0.1,0.2-0.1,0.5,0,0.8c0.1,0.3,0.3,0.5,0.6,0.3c0.1-0.1,0.3-0.2,0.3-0.3c0,0,0-0.1,0-0.1c0,0-0.1,0-0.1,0c-0.1,0-0.2,0-0.2,0.1
			c-0.1,0-0.3-0.1-0.3-0.2c0-0.1,0-0.2,0-0.3c0-0.3,0.2-0.6,0.3-0.9c0.1-0.3,0.3-0.5,0.5-0.8c0,0,0,0,0-0.1c0,0-0.1,0-0.1,0
			c-0.1,0-0.1,0.1-0.2,0.1c-0.4,0.3-0.7,0.8-1,1.2c-0.1,0.2-0.3,0.4-0.4,0.5c0,0-0.1,0-0.1,0c0,0,0-0.1,0-0.1c0-0.2,0.1-0.3,0.1-0.5
			c0.1-0.3,0.3-0.6,0.5-0.9c0.1-0.1,0.1-0.2,0.2-0.3c0,0,0,0,0-0.1c0,0,0,0-0.1,0c-0.1,0-0.2,0.1-0.2,0.1c-0.2,0.2-0.4,0.3-0.5,0.5
			c-0.4,0.5-0.7,1-1.1,1.4c-0.3,0.3-0.5,0.7-0.8,1c-0.2,0.2-0.5,0.3-0.8,0.3c-0.2,0-0.4-0.2-0.4-0.3c0-0.2,0-0.4,0.1-0.5
			c0.1-0.2,0.6-0.3,0.7-0.1c0,0,0.1,0.1,0.1,0.1c-0.1,0-0.2,0-0.3,0c-0.2,0-0.3,0.1-0.3,0.3c0,0.2,0.1,0.3,0.3,0.3
			c0.1,0,0.3,0,0.4-0.1c0.2-0.1,0.3-0.4,0.2-0.7c-0.2-0.2-0.4-0.3-0.7-0.3c-0.4,0.1-0.7,0.3-0.8,0.6c-0.1,0.2-0.1,0.4,0,0.6
			c0.1,0.3,0.4,0.4,0.7,0.4c0.4,0,0.7-0.1,1-0.4c0.3-0.3,0.6-0.6,0.8-1c0.2-0.3,0.4-0.7,0.7-1c0.1-0.1,0.1-0.2,0.2-0.2c0,0,0,0,0,0
			c0,0,0,0,0,0c-0.1,0.3-0.2,0.6-0.3,1c0,0.2-0.1,0.4,0,0.6c0,0.1,0,0.1,0.1,0.2c0.1,0,0.1,0,0.1-0.1c0,0,0,0,0-0.1
			c0.1-0.2,0.2-0.3,0.3-0.5C231.5,58.2,231.7,57.9,231.9,57.5C231.9,57.6,231.9,57.6,231.9,57.5z"/>
		<path d="M237.8,56.6c0.2,0,0.3,0,0.5,0c0.3,0,0.7-0.1,1-0.3c0.1-0.1,0.2-0.1,0.3-0.2c0,0,0-0.1,0-0.1c0,0-0.1,0-0.1,0
			c0,0-0.1,0-0.1,0c-0.1,0-0.2,0.1-0.3,0.1c-0.3,0.2-0.7,0.2-1,0.2c-0.3,0-0.5-0.1-0.8-0.1c-0.3,0-0.6-0.1-0.8,0
			c-0.3,0.1-0.5,0.2-0.6,0.4c-0.2,0.2-0.2,0.5-0.1,0.8c0.1,0.3,0.6,0.4,0.9,0.2c0.1-0.1,0.2-0.2,0.2-0.4c0-0.3-0.3-0.5-0.6-0.4
			c-0.1,0-0.1,0.1-0.2,0.2c0,0.1,0.1,0.2,0.2,0.2c0,0,0,0,0.1,0c0.1,0,0.1,0,0.1,0.1c0,0.1-0.1,0.1-0.1,0.1
			c-0.2,0.1-0.5-0.1-0.5-0.3c0-0.2,0.1-0.4,0.3-0.5c0.2-0.2,0.5-0.2,0.8-0.2c0.2,0,0.4,0.1,0.7,0.1c0.1,0,0.1,0,0.2,0
			c-0.1,0.1-0.2,0.1-0.2,0.2c-0.2,0.2-0.3,0.5-0.5,0.7c-0.1,0.3-0.3,0.5-0.5,0.7c-0.2,0.1-0.3,0.3-0.5,0.4c-0.1,0-0.1,0.1-0.2,0.2
			c0,0.1,0,0.1,0,0.2c0,0.1,0.1,0.1,0.2,0.1c0.2,0,0.3-0.1,0.4-0.2c0.3-0.3,0.5-0.7,0.7-1.1c0.2-0.3,0.3-0.6,0.6-0.8
			C237.9,56.9,237.9,56.8,237.8,56.6z"/>
		<path d="M237.3,58.7C237.3,58.6,237.3,58.6,237.3,58.7c-0.1-0.2,0-0.3,0-0.5c0-0.1,0-0.1,0-0.2c0-0.1,0-0.1-0.1-0.1
			c-0.1,0-0.1,0-0.2,0c-0.1,0.1-0.1,0.1-0.1,0.2c-0.1,0.2,0,0.4,0,0.6c0.1,0.1,0.1,0.2,0.2,0.3c0.1,0.1,0.1,0.1,0.2,0
			c0,0,0-0.1,0.1-0.1c0.1-0.1,0.2-0.3,0.2-0.4c0,0,0,0,0.1-0.1c0,0,0,0,0,0.1c0,0.2,0.1,0.3,0.1,0.5c0,0.1,0,0.1,0.1,0.1
			c0.1,0,0.1-0.1,0.1-0.1c0,0,0,0,0,0c0.1-0.3,0.3-0.5,0.6-0.6c0.1,0,0.1-0.1,0.2-0.1c0,0,0.1-0.1,0-0.1c0-0.1-0.1-0.1-0.1-0.1
			c-0.1,0-0.2,0-0.3,0.1c-0.2,0.1-0.3,0.3-0.5,0.5c0,0,0,0,0,0.1c-0.1-0.1,0-0.3,0-0.4c0,0,0-0.1,0-0.1c0,0-0.1,0-0.1,0c0,0,0,0,0,0
			c-0.1,0.1-0.2,0.2-0.4,0.4C237.5,58.5,237.4,58.6,237.3,58.7z"/>
		<path d="M241.7,57.2C241.7,57.2,241.7,57.2,241.7,57.2c0-0.1,0.1-0.1,0.2-0.2c0.1-0.1,0.1-0.1,0.2-0.2c0-0.1,0-0.1,0-0.2
			c-0.1,0-0.1-0.1-0.2,0c0,0-0.1,0-0.1,0.1c-0.1,0.1-0.2,0.2-0.2,0.4c0,0.1-0.1,0.1-0.1,0.1c-0.2-0.1-0.4-0.1-0.6-0.1
			c-0.2,0-0.3,0.1-0.4,0.2c0,0,0,0.1,0,0.1c0,0,0.1,0,0.1,0c0,0,0.1-0.1,0.1-0.1c0.1-0.1,0.3-0.1,0.4,0c0.1,0,0.3,0.1,0.4,0.1
			c0.1,0,0.1,0,0,0.1c0,0.1-0.1,0.2-0.1,0.3c0,0.2-0.1,0.3-0.2,0.5c-0.1,0.2-0.3,0.3-0.5,0.4c-0.1,0-0.2,0.2-0.1,0.3
			c0,0.1,0.1,0.1,0.3,0.1c0.1,0,0.1-0.1,0.2-0.1c0.1-0.2,0.3-0.5,0.4-0.7c0.1-0.2,0.2-0.4,0.2-0.7c0,0,0-0.1,0.1-0.1
			c0.2,0,0.4,0,0.6-0.1c0.1,0,0.2-0.1,0.2-0.1c0,0,0,0,0-0.1c0,0,0,0-0.1,0c0,0-0.1,0-0.1,0c-0.1,0-0.2,0.1-0.4,0.1
			C241.9,57.2,241.8,57.2,241.7,57.2z"/>
		<path d="M239.6,59c0.1,0,0.3,0,0.4-0.1c0.2,0,0.3-0.1,0.4-0.2c0.1-0.1,0-0.3-0.1-0.3c0,0-0.1,0-0.1,0c-0.1,0-0.3,0-0.4-0.1
			c0,0,0,0-0.1,0c0,0,0,0,0-0.1c0.1-0.1,0.2-0.1,0.4,0c0,0,0.1,0,0.1,0.1c0.1,0,0.1,0,0.2-0.1c0-0.1,0-0.1,0-0.2
			c0,0-0.1-0.1-0.1-0.1c-0.2,0-0.3,0-0.5,0.1c-0.1,0-0.2,0.1-0.3,0.2c0,0.1,0,0.2,0,0.2c0,0,0.1,0,0.1,0c0.1,0,0.2,0,0.4,0.1
			c0.1,0,0.1,0,0.1,0.1c0,0.1,0,0.1-0.1,0.1c-0.2,0.1-0.3,0.1-0.5,0c-0.1,0-0.1-0.1-0.2-0.1c-0.1,0-0.2,0.1-0.2,0.2
			c0,0.1,0.1,0.2,0.1,0.2C239.4,59,239.5,59,239.6,59z"/>
		<path d="M234.9,59.1C234.9,59,234.9,59,234.9,59.1c0.1,0,0.1,0,0.2,0c0.2,0,0.3-0.1,0.5-0.2c0.1-0.2,0.1-0.3-0.1-0.4
			c-0.1,0-0.3,0-0.5-0.1c0,0-0.1,0-0.1,0c0,0,0-0.1,0.1-0.1c0.1-0.1,0.3-0.1,0.4,0c0,0,0.1,0,0.1,0c0,0,0.1,0,0.1,0
			c0.1-0.1,0.1-0.2,0-0.2c-0.1-0.1-0.2-0.1-0.3-0.1c-0.2,0-0.4,0.1-0.5,0.2c-0.1,0.1-0.1,0.2,0.1,0.3c0,0,0,0,0.1,0
			c0.1,0,0.2,0,0.4,0.1c0,0,0.1,0.1,0.1,0.1c0,0,0,0.1-0.1,0.1c-0.2,0.1-0.3,0.1-0.5,0c0,0-0.1-0.1-0.1-0.1c-0.1,0-0.2,0-0.2,0
			c0,0.1,0,0.2,0,0.2c0,0,0.1,0.1,0.1,0.1C234.7,59,234.8,59,234.9,59.1z"/>
		<path d="M233.7,59.1C233.7,59,233.7,59,233.7,59.1c0.1,0,0.2,0,0.2,0c0.2,0,0.4-0.1,0.5-0.3c0.1-0.2,0.1-0.3-0.1-0.4
			c-0.1,0-0.3,0-0.5-0.1c0,0-0.1,0-0.1,0c0,0,0-0.1,0.1-0.1c0.1-0.1,0.3-0.1,0.4,0c0,0,0.1,0,0.1,0c0.1,0,0.1,0,0.2-0.1
			c0-0.1,0-0.1,0-0.2c0,0-0.1-0.1-0.1-0.1c-0.1,0-0.2,0-0.3,0c-0.2,0-0.3,0.1-0.5,0.2c-0.1,0.1-0.1,0.3,0.1,0.3c0.1,0,0.1,0,0.2,0
			c0.1,0,0.2,0,0.3,0.1c0.1,0,0.1,0.1,0,0.2c-0.1,0.1-0.3,0.1-0.5,0c-0.1,0-0.1-0.1-0.2-0.1c-0.1,0-0.1,0-0.2,0c0,0-0.1,0.1,0,0.2
			c0,0.1,0.1,0.1,0.1,0.2C233.5,59,233.6,59,233.7,59.1z"/>
		<path d="M232.9,59.1C232.9,59.1,232.9,59.1,232.9,59.1c0.2-0.1,0.3-0.2,0.3-0.4c0-0.2,0.1-0.4,0.2-0.5c0,0,0-0.1,0.1-0.1
			c0-0.1,0-0.1,0-0.2c-0.1-0.1-0.1,0-0.2,0c0,0,0,0,0,0c-0.1,0.1-0.2,0.2-0.2,0.4c0,0.2-0.1,0.3-0.2,0.5c0,0-0.1,0.1-0.1,0.2
			C232.7,59,232.7,59.1,232.9,59.1z"/>
		<path d="M238.8,59c0,0,0.1,0,0.1-0.1c0.1-0.1,0.2-0.2,0.2-0.4c0-0.2,0.1-0.3,0.2-0.4c0,0,0.1-0.1,0.1-0.1c0,0,0-0.1,0-0.1
			c0,0-0.1,0-0.1,0c-0.2,0.1-0.2,0.2-0.2,0.4c0,0.2-0.1,0.3-0.2,0.5c-0.1,0-0.1,0.1-0.1,0.1C238.7,59,238.7,59,238.8,59z"/>
		<path d="M236,59.8C236,59.8,236.1,59.9,236,59.8c0.1,0.1,0.1,0.1,0.2,0.1C236.1,59.8,236.1,59.8,236,59.8c0.1-0.1,0.2-0.2,0.2-0.3
			c0,0,0,0,0,0c0,0,0,0,0,0c0,0-0.1,0-0.1,0c0,0,0,0-0.1,0c-0.1,0-0.2,0.2-0.2,0.3C235.8,59.9,235.9,59.9,236,59.8
			C236,59.8,236,59.8,236,59.8z"/>
		<path d="M232.5,59.5c0,0,0,0.1,0,0.1c0,0.1-0.1,0.2-0.1,0.2c0,0,0,0,0,0.1c0,0,0,0,0.1,0c0,0,0,0,0,0c0.1-0.1,0.1-0.2,0.2-0.3
			c0,0,0,0,0.1,0c0,0,0,0,0,0.1c0,0,0,0,0,0.1c0,0,0,0.1,0,0.1c0,0,0,0.1,0,0.1c0,0,0.1,0,0.1,0c0,0,0,0,0,0c-0.1,0-0.1,0-0.1-0.1
			c0-0.1,0.1-0.1,0.1-0.2c0,0,0-0.1,0-0.1c0,0-0.1,0-0.1,0c0,0-0.1,0.1-0.1,0.1C232.6,59.6,232.6,59.6,232.5,59.5
			C232.6,59.5,232.6,59.5,232.5,59.5z"/>
		<path d="M236.4,59.6C236.4,59.6,236.4,59.6,236.4,59.6c0,0,0-0.1,0-0.1c0,0,0,0,0-0.1c0,0,0,0,0,0.1
			C236.3,59.5,236.3,59.6,236.4,59.6c-0.1,0-0.1,0.1-0.1,0.2c0,0,0,0,0,0.1c0,0,0,0,0.1,0C236.4,59.8,236.4,59.7,236.4,59.6
			c0.1-0.1,0.1-0.1,0.2-0.1c0,0,0,0.1,0,0.1c0,0.1-0.1,0.1-0.1,0.2c0,0,0,0,0,0c0,0,0,0,0,0c0.1-0.1,0.1-0.2,0.2-0.3c0,0,0,0-0.1,0
			c0,0,0,0,0-0.1c0,0,0-0.1,0-0.1c-0.1,0-0.1,0-0.1,0C236.5,59.6,236.4,59.6,236.4,59.6z"/>
		<path d="M235.7,59.8c-0.1,0-0.1,0-0.1,0c-0.1,0-0.1,0-0.1-0.1c0,0,0,0,0.1,0c0.1,0,0.1,0,0.2-0.1c0,0,0-0.1,0-0.1c0,0-0.1,0-0.1,0
			c-0.1,0-0.2,0.2-0.2,0.3c0,0.1,0,0.1,0.1,0.2C235.5,59.9,235.6,59.9,235.7,59.8z"/>
		<path d="M234.2,59.8C234.2,59.8,234.1,59.8,234.2,59.8c-0.1,0-0.1,0-0.1,0.1c-0.1,0-0.1,0-0.1-0.1c0,0,0-0.1,0-0.1
			c0-0.1,0.1-0.1,0.1-0.1c0,0,0.1,0,0.1,0c0,0,0,0.1,0,0.1c0,0-0.1,0.1-0.1,0.1c0,0,0,0,0,0c0.1,0,0.2,0,0.2-0.1c0,0,0-0.1,0-0.1
			c0,0-0.1,0-0.1,0c-0.1,0-0.2,0.2-0.2,0.3c0,0.1,0,0.1,0.1,0.1C234.1,59.9,234.1,59.9,234.2,59.8z"/>
		<path d="M234.9,59.8C234.8,59.8,234.8,59.8,234.9,59.8c-0.1,0-0.1,0.1-0.2,0c0,0,0-0.1,0-0.1c0-0.1,0-0.1,0.1-0.2
			c0,0,0.1-0.1,0.1-0.1c0.1,0,0,0.1,0,0.1c0,0,0,0,0,0c0,0,0,0,0,0c0,0,0.1-0.1,0-0.1c0-0.1-0.1-0.1-0.1-0.1c-0.1,0-0.2,0.2-0.2,0.3
			c0,0.1,0,0.1,0.1,0.1C234.8,59.9,234.8,59.9,234.9,59.8z"/>
		<path d="M233.7,59.8C233.7,59.8,233.7,59.8,233.7,59.8c-0.2,0.1-0.2,0-0.2-0.1c0-0.1,0-0.1,0.1-0.2c0,0,0.1-0.1,0.1,0
			c0.1,0,0,0.1,0,0.1c0,0,0,0,0,0c0,0,0,0,0,0c0,0,0,0,0,0c0,0,0.1-0.1,0-0.1c0-0.1-0.1-0.1-0.1-0.1c-0.1,0-0.2,0.2-0.2,0.3
			c0,0.1,0,0.1,0.1,0.1C233.6,59.9,233.7,59.9,233.7,59.8z"/>
		<path d="M231.1,59.5C231.1,59.5,231.1,59.6,231.1,59.5c0,0.2,0,0.2,0,0.3c0,0,0,0.1,0.1,0.1c0.1,0,0.1,0,0.1-0.1c0,0-0.1,0-0.1,0
			c0,0-0.1,0-0.1,0C231.1,59.7,231.2,59.6,231.1,59.5c0.1,0,0.2,0,0.2,0c0,0,0,0,0,0c0,0-0.1,0-0.1,0c0,0,0,0,0,0c0,0,0,0,0-0.1
			C231.2,59.4,231.2,59.4,231.1,59.5C231.2,59.4,231.1,59.5,231.1,59.5z"/>
		<path d="M231.6,59.8C231.6,59.8,231.6,59.8,231.6,59.8c0,0.1,0.1,0.1,0.2,0.1c0,0,0-0.1,0-0.1c0,0,0-0.1-0.1-0.1c0,0,0-0.1,0-0.1
			c0,0,0.1,0,0.1,0.1c0,0,0,0,0,0c0.1,0,0.1-0.1,0-0.1c0,0-0.1,0-0.2,0c-0.1,0-0.1,0.1,0,0.2c0,0,0,0.1,0.1,0.1c0,0,0,0.1,0,0.1
			C231.7,59.9,231.7,59.8,231.6,59.8C231.6,59.8,231.6,59.8,231.6,59.8z"/>
		<path d="M230.7,59.5c0,0.1,0,0.1,0,0.2c0,0.1,0,0.1-0.1,0.2c0,0,0,0,0,0.1c0,0,0,0,0.1,0c0-0.1,0.1-0.2,0.1-0.2
			c0,0,0.1-0.1,0.1-0.1c0,0,0,0,0,0c0,0,0,0,0-0.1c0,0,0,0,0,0c0,0,0,0-0.1,0c0,0-0.1,0.1-0.1,0.1c0,0,0,0,0,0
			C230.8,59.6,230.8,59.6,230.7,59.5C230.8,59.5,230.8,59.5,230.7,59.5z"/>
		<path d="M236.9,59.9C236.9,59.9,236.9,59.8,236.9,59.9c-0.1,0-0.1-0.1-0.1-0.1c0-0.1,0.1-0.1,0.1-0.2c0,0,0-0.1,0-0.1
			c0,0-0.1,0-0.1,0c0,0,0,0-0.1,0.1c0,0,0.1,0,0.1,0c0,0,0,0.1,0,0.1c0,0.1-0.1,0.1-0.1,0.2C236.7,59.8,236.8,59.9,236.9,59.9
			C236.8,59.9,236.8,59.9,236.9,59.9z"/>
		<path d="M231.5,59.9C231.5,59.9,231.5,59.9,231.5,59.9c-0.1,0,0-0.1,0-0.1c0-0.1,0.1-0.1,0.1-0.2c0,0,0-0.1,0-0.1c0,0-0.1,0-0.1,0
			c0,0.1,0,0.1,0,0.2c0,0.1,0,0.1-0.1,0.2C231.3,59.8,231.3,59.9,231.5,59.9C231.4,59.9,231.4,59.9,231.5,59.9z"/>
		<path d="M233.3,59.9C233.3,59.9,233.3,59.9,233.3,59.9c-0.1,0-0.1-0.1,0-0.1c0-0.1,0.1-0.1,0.1-0.2c0,0,0-0.1,0-0.1c0,0,0,0-0.1,0
			c0,0.1,0,0.1,0,0.1c0,0.1,0,0.1-0.1,0.2C233.2,59.8,233.2,59.9,233.3,59.9C233.3,59.9,233.3,59.9,233.3,59.9z"/>
		<path d="M233.5,59.3C233.4,59.3,233.4,59.3,233.5,59.3c-0.1,0-0.1,0-0.1,0C233.3,59.3,233.4,59.4,233.5,59.3
			C233.4,59.4,233.4,59.3,233.5,59.3z"/>
		<path d="M231.5,59.4C231.5,59.3,231.6,59.3,231.5,59.4c0.1-0.1,0-0.1,0-0.1C231.5,59.3,231.5,59.3,231.5,59.4
			C231.5,59.3,231.5,59.3,231.5,59.4z"/>
		<path d="M231.9,57.5C231.9,57.6,231.9,57.6,231.9,57.5c-0.2,0.4-0.4,0.6-0.6,0.9c-0.1,0.2-0.2,0.3-0.3,0.5c0,0,0,0,0,0.1
			c0,0-0.1,0.1-0.1,0.1c-0.1,0-0.1-0.1-0.1-0.2c0-0.2,0-0.4,0-0.6c0.1-0.3,0.2-0.7,0.3-1c0,0,0,0,0,0c0,0,0,0,0,0
			c-0.1,0.1-0.1,0.2-0.2,0.2c-0.2,0.3-0.4,0.7-0.7,1c-0.2,0.4-0.5,0.7-0.8,1c-0.3,0.2-0.6,0.4-1,0.4c-0.3,0-0.6-0.1-0.7-0.4
			c-0.1-0.2-0.1-0.4,0-0.6c0.2-0.4,0.5-0.6,0.8-0.6c0.3,0,0.5,0,0.7,0.3c0.2,0.2,0.1,0.5-0.2,0.7c-0.1,0.1-0.2,0.1-0.4,0.1
			c-0.2,0-0.3-0.2-0.3-0.3c0-0.2,0.1-0.3,0.3-0.3c0.1,0,0.2,0,0.3,0c0-0.1,0-0.1-0.1-0.1c-0.2-0.2-0.6-0.1-0.7,0.1
			c-0.1,0.2-0.1,0.3-0.1,0.5c0,0.2,0.2,0.3,0.4,0.3c0.3,0,0.6-0.1,0.8-0.3c0.3-0.3,0.6-0.6,0.8-1c0.4-0.5,0.7-1,1.1-1.4
			c0.1-0.2,0.3-0.4,0.5-0.5c0.1-0.1,0.2-0.1,0.2-0.1c0,0,0,0,0.1,0c0,0,0,0,0,0.1c-0.1,0.1-0.1,0.2-0.2,0.3
			c-0.2,0.3-0.4,0.6-0.5,0.9c-0.1,0.2-0.1,0.3-0.1,0.5c0,0,0,0.1,0,0.1c0,0,0.1,0,0.1,0c0.1-0.2,0.3-0.3,0.4-0.5
			c0.3-0.4,0.6-0.8,1-1.2c0.1,0,0.1-0.1,0.2-0.1c0,0,0,0,0.1,0c0,0,0,0.1,0,0.1c-0.2,0.2-0.4,0.5-0.5,0.8c-0.1,0.3-0.3,0.6-0.3,0.9
			c0,0.1,0,0.2,0,0.3c0,0.1,0.2,0.2,0.3,0.2c0.1,0,0.2,0,0.2-0.1c0,0,0.1,0,0.1,0c0,0,0,0.1,0,0.1c-0.1,0.2-0.2,0.3-0.3,0.3
			c-0.3,0.2-0.5,0-0.6-0.3c-0.1-0.3,0-0.5,0-0.8C231.9,57.8,231.9,57.7,231.9,57.5C232,57.6,232,57.6,231.9,57.5
			C231.9,57.5,231.9,57.5,231.9,57.5z"/>
		<path d="M237.8,56.6c0.1,0.2,0.1,0.3-0.1,0.4c-0.3,0.2-0.5,0.5-0.6,0.8c-0.2,0.4-0.4,0.7-0.7,1.1c-0.1,0.1-0.3,0.2-0.4,0.2
			c-0.1,0-0.1,0-0.2-0.1c0-0.1,0-0.1,0-0.2c0.1-0.1,0.1-0.1,0.2-0.2c0.2-0.1,0.4-0.2,0.5-0.4c0.2-0.2,0.4-0.4,0.5-0.7
			c0.1-0.3,0.3-0.5,0.5-0.7c0.1-0.1,0.2-0.1,0.2-0.2c-0.1,0-0.1,0-0.2,0c-0.2,0-0.4-0.1-0.7-0.1c-0.3,0-0.5,0-0.8,0.2
			c-0.2,0.1-0.3,0.3-0.3,0.5c0,0.2,0.3,0.4,0.5,0.3c0,0,0.1-0.1,0.1-0.1c0-0.1,0-0.1-0.1-0.1c0,0,0,0-0.1,0c-0.1,0-0.2-0.1-0.2-0.2
			c0-0.1,0.1-0.2,0.2-0.2c0.3-0.1,0.6,0.1,0.6,0.4c0,0.2-0.1,0.3-0.2,0.4c-0.3,0.2-0.7,0.1-0.9-0.2c-0.1-0.3-0.1-0.5,0.1-0.8
			c0.2-0.2,0.4-0.3,0.6-0.4c0.3-0.1,0.6,0,0.8,0c0.3,0,0.5,0.1,0.8,0.1c0.3,0,0.7,0,1-0.2c0.1,0,0.2-0.1,0.3-0.1c0,0,0,0,0.1,0
			c0,0,0.1,0,0.1,0c0,0,0,0.1,0,0.1c-0.1,0.1-0.2,0.1-0.3,0.2c-0.3,0.2-0.6,0.3-1,0.3C238.1,56.6,237.9,56.6,237.8,56.6z"/>
		<path d="M237.3,58.7c0.1-0.1,0.1-0.2,0.2-0.3c0.1-0.1,0.2-0.2,0.4-0.4c0,0,0,0,0,0c0,0,0.1,0,0.1,0c0,0,0,0.1,0,0.1
			c0,0.1,0,0.3,0,0.4c0,0,0,0,0-0.1c0.1-0.2,0.2-0.4,0.5-0.5c0.1,0,0.2-0.1,0.3-0.1c0.1,0,0.1,0,0.1,0.1c0,0.1,0,0.1,0,0.1
			c0,0-0.1,0.1-0.2,0.1c-0.3,0.1-0.5,0.4-0.6,0.6c0,0,0,0,0,0c0,0.1,0,0.1-0.1,0.1c-0.1,0-0.1-0.1-0.1-0.1c0-0.2-0.1-0.3-0.1-0.5
			c0,0,0,0,0-0.1c0,0-0.1,0-0.1,0.1c-0.1,0.1-0.2,0.3-0.2,0.4c0,0,0,0.1-0.1,0.1c-0.1,0.1-0.1,0.1-0.2,0c-0.1-0.1-0.1-0.2-0.2-0.3
			c-0.1-0.2-0.1-0.4,0-0.6c0-0.1,0.1-0.1,0.1-0.2c0,0,0.1,0,0.2,0c0.1,0,0.1,0.1,0.1,0.1c0,0.1,0,0.1,0,0.2
			C237.3,58.3,237.3,58.5,237.3,58.7C237.3,58.6,237.3,58.6,237.3,58.7z"/>
		<path d="M241.7,57.2c0.1,0,0.2,0,0.3,0c0.1,0,0.2-0.1,0.4-0.1c0,0,0.1,0,0.1,0c0,0,0.1,0,0.1,0c0,0,0,0.1,0,0.1
			c-0.1,0-0.1,0.1-0.2,0.1c-0.2,0.1-0.4,0.1-0.6,0.1c0,0-0.1,0-0.1,0.1c-0.1,0.2-0.1,0.5-0.2,0.7c-0.1,0.2-0.3,0.5-0.4,0.7
			c0,0.1-0.1,0.1-0.2,0.1c-0.1,0.1-0.2,0-0.3-0.1c-0.1-0.1,0-0.2,0.1-0.3c0.2-0.1,0.4-0.2,0.5-0.4c0.1-0.2,0.1-0.3,0.2-0.5
			c0-0.1,0.1-0.2,0.1-0.3c0,0,0-0.1,0-0.1c-0.1,0-0.3-0.1-0.4-0.1c-0.1,0-0.3,0-0.4,0c0,0-0.1,0.1-0.1,0.1c0,0-0.1,0-0.1,0
			c0,0,0-0.1,0-0.1c0.1-0.1,0.3-0.2,0.4-0.2c0.2,0,0.4,0,0.6,0.1c0.1,0,0.1,0,0.1-0.1c0.1-0.1,0.1-0.3,0.2-0.4c0,0,0.1-0.1,0.1-0.1
			c0.1,0,0.1,0,0.2,0c0.1,0,0.1,0.1,0,0.2c0,0.1-0.1,0.1-0.2,0.2C241.8,57.1,241.7,57.1,241.7,57.2
			C241.7,57.2,241.7,57.2,241.7,57.2z"/>
		<path d="M239.6,59c-0.1,0-0.1,0-0.2-0.1c-0.1,0-0.1-0.1-0.1-0.2c0-0.1,0.1-0.2,0.2-0.2c0.1,0,0.1,0.1,0.2,0.1
			c0.1,0.1,0.3,0.1,0.5,0c0,0,0.1,0,0.1-0.1c0-0.1-0.1-0.1-0.1-0.1c-0.1,0-0.2,0-0.4-0.1c0,0-0.1,0-0.1,0c-0.1-0.1-0.1-0.1,0-0.2
			c0.1-0.1,0.2-0.2,0.3-0.2c0.1-0.1,0.3-0.1,0.5-0.1c0,0,0.1,0,0.1,0.1c0.1,0,0.1,0.1,0,0.2c0,0.1-0.1,0.1-0.2,0.1
			c0,0-0.1,0-0.1-0.1c-0.1-0.1-0.3,0-0.4,0c0,0,0,0,0,0.1c0,0,0,0,0.1,0c0.1,0,0.3,0,0.4,0.1c0,0,0.1,0,0.1,0
			c0.1,0.1,0.2,0.2,0.1,0.3c-0.1,0.1-0.2,0.2-0.4,0.2C239.8,59,239.7,59,239.6,59z"/>
		<path d="M234.9,59.1c-0.1,0-0.2,0-0.2,0c-0.1,0-0.1,0-0.1-0.1c-0.1-0.1-0.1-0.2,0-0.2c0.1-0.1,0.2-0.1,0.2,0c0,0,0.1,0.1,0.1,0.1
			c0.2,0.1,0.3,0.1,0.5,0c0,0,0.1-0.1,0.1-0.1c0,0,0-0.1-0.1-0.1c-0.1,0-0.2,0-0.4-0.1c0,0,0,0-0.1,0c-0.1,0-0.2-0.2-0.1-0.3
			c0.1-0.1,0.3-0.2,0.5-0.2c0.1,0,0.2,0,0.3,0.1c0.1,0.1,0.1,0.2,0,0.2c0,0-0.1,0-0.1,0c0,0-0.1,0-0.1,0c-0.1-0.1-0.3-0.1-0.4,0
			c0,0,0,0-0.1,0.1c0,0,0.1,0,0.1,0c0.2,0,0.3,0,0.5,0.1c0.2,0,0.2,0.2,0.1,0.4c-0.1,0.1-0.3,0.2-0.5,0.2C235,59,235,59,234.9,59.1
			C234.9,59,234.9,59,234.9,59.1z"/>
		<path d="M233.7,59.1c-0.1,0-0.2,0-0.3,0c-0.1,0-0.1-0.1-0.1-0.2c0-0.1,0-0.1,0-0.2c0.1,0,0.1-0.1,0.2,0c0.1,0,0.1,0.1,0.2,0.1
			c0.1,0.1,0.4,0.1,0.5,0c0.1-0.1,0.1-0.1,0-0.2c-0.1,0-0.2,0-0.3-0.1c-0.1,0-0.1,0-0.2,0c-0.2,0-0.2-0.2-0.1-0.3
			c0.1-0.1,0.3-0.2,0.5-0.2c0.1,0,0.2,0,0.3,0c0.1,0,0.1,0.1,0.1,0.1c0,0,0,0.1,0,0.2c0,0.1-0.1,0.1-0.2,0.1c0,0-0.1,0-0.1,0
			c-0.1-0.1-0.3-0.1-0.4,0c0,0,0,0-0.1,0.1c0,0,0.1,0,0.1,0c0.2,0,0.3,0,0.5,0.1c0.2,0,0.2,0.2,0.1,0.4c-0.1,0.2-0.3,0.2-0.5,0.3
			C233.8,59,233.8,59,233.7,59.1C233.7,59,233.7,59,233.7,59.1z"/>
		<path d="M232.9,59.1c-0.1,0-0.2-0.1-0.1-0.2c0-0.1,0.1-0.1,0.1-0.2c0.1-0.1,0.2-0.3,0.2-0.5c0-0.2,0-0.3,0.2-0.4c0,0,0,0,0,0
			c0.1,0,0.1-0.1,0.2,0c0.1,0.1,0,0.1,0,0.2c0,0,0,0.1-0.1,0.1c-0.1,0.1-0.2,0.3-0.2,0.5C233.2,58.8,233.1,59,232.9,59.1
			C232.9,59.1,232.9,59.1,232.9,59.1z"/>
		<path d="M238.8,59c-0.1,0-0.2-0.1-0.1-0.1c0-0.1,0.1-0.1,0.1-0.1c0.1-0.1,0.2-0.3,0.2-0.5c0-0.2,0.1-0.3,0.2-0.4c0,0,0.1,0,0.1,0
			c0,0,0,0.1,0,0.1c0,0.1,0,0.1-0.1,0.1c-0.1,0.1-0.2,0.3-0.2,0.4c0,0.1-0.1,0.3-0.2,0.4C238.9,59,238.9,59,238.8,59z"/>
		<path d="M236,59.8C236,59.8,236,59.8,236,59.8c-0.1,0.1-0.2,0.1-0.2,0c0-0.1,0.1-0.3,0.2-0.3c0,0,0.1,0,0.1,0c0,0,0.1,0,0.1,0
			c0,0,0,0,0,0c0,0,0,0,0,0C236.2,59.6,236.1,59.7,236,59.8c0.1,0,0.1,0,0.2,0.1C236.1,59.9,236.1,59.9,236,59.8
			C236.1,59.9,236,59.8,236,59.8z M236.1,59.6C236.1,59.5,236.1,59.5,236.1,59.6c-0.1-0.1-0.1,0-0.1,0c-0.1,0.1-0.1,0.2-0.1,0.3
			c0,0.1,0,0.1,0.1,0C236,59.8,236.1,59.7,236.1,59.6z"/>
		<path d="M232.5,59.5C232.6,59.5,232.6,59.5,232.5,59.5c0.1,0.1,0,0.1,0.1,0.2c0,0,0.1-0.1,0.1-0.1c0,0,0.1-0.1,0.1,0
			c0,0,0,0.1,0,0.1c0,0.1,0,0.1-0.1,0.2c0,0.1,0,0.1,0.1,0.1c0,0,0,0,0,0c0,0-0.1,0-0.1,0c0,0,0-0.1,0-0.1c0,0,0-0.1,0-0.1
			c0,0,0,0,0-0.1c0,0,0,0,0-0.1c0,0,0,0-0.1,0c-0.1,0.1-0.1,0.2-0.2,0.3c0,0,0,0,0,0c0,0,0,0-0.1,0c0,0,0,0,0-0.1
			c0-0.1,0.1-0.2,0.1-0.2C232.5,59.6,232.5,59.5,232.5,59.5z"/>
		<path d="M236.4,59.6c0,0,0.1-0.1,0.1-0.1c0,0,0.1-0.1,0.1,0c0.1,0,0,0.1,0,0.1c0,0,0,0,0,0.1c0,0,0,0,0.1,0
			c-0.1,0.1-0.1,0.2-0.2,0.3c0,0,0,0,0,0c0,0,0,0,0,0c0-0.1,0.1-0.1,0.1-0.2c0,0,0-0.1,0-0.1C236.5,59.6,236.5,59.6,236.4,59.6
			c0,0,0,0.1-0.1,0.2c0,0,0,0-0.1,0c0,0,0,0,0-0.1C236.3,59.7,236.3,59.7,236.4,59.6c-0.1-0.1-0.1-0.1-0.1-0.1c0,0,0,0,0-0.1
			c0,0,0.1,0,0,0.1C236.4,59.6,236.4,59.6,236.4,59.6C236.4,59.6,236.4,59.6,236.4,59.6z"/>
		<path d="M235.7,59.8c0,0.1-0.1,0.1-0.2,0.1c-0.1,0-0.1-0.1-0.1-0.2c0-0.1,0.1-0.2,0.2-0.3c0,0,0.1,0,0.1,0c0,0,0,0.1,0,0.1
			c0,0.1-0.1,0.1-0.2,0.1c0,0,0,0-0.1,0c0,0.1,0,0.1,0.1,0.1C235.6,59.8,235.6,59.8,235.7,59.8z M235.5,59.7c0.1,0,0.2-0.1,0.2-0.1
			c0,0,0,0,0-0.1c0,0,0,0-0.1,0C235.5,59.6,235.5,59.6,235.5,59.7z"/>
		<path d="M234.2,59.8c0,0.1-0.1,0.1-0.2,0.1c-0.1,0-0.1-0.1-0.1-0.1c0-0.1,0.1-0.3,0.2-0.3c0,0,0.1,0,0.1,0c0,0,0,0.1,0,0.1
			c0,0.1-0.1,0.1-0.2,0.1c0,0,0,0,0,0c0,0,0.1-0.1,0.1-0.1c0,0,0-0.1,0-0.1c0,0-0.1,0-0.1,0c0,0-0.1,0.1-0.1,0.1c0,0,0,0.1,0,0.1
			c0,0.1,0,0.1,0.1,0.1C234.1,59.8,234.1,59.8,234.2,59.8C234.1,59.8,234.2,59.8,234.2,59.8z"/>
		<path d="M234.9,59.8c0,0.1-0.1,0.1-0.2,0.1c-0.1,0-0.1-0.1-0.1-0.1c0-0.1,0.1-0.3,0.2-0.3c0.1,0,0.1,0,0.1,0.1c0,0,0,0.1,0,0.1
			c0,0,0,0,0,0c0,0,0,0,0,0c0,0,0.1-0.1,0-0.1c-0.1,0-0.1,0-0.1,0.1c0,0.1-0.1,0.1-0.1,0.2c0,0,0,0.1,0,0.1
			C234.7,59.9,234.8,59.8,234.9,59.8C234.8,59.8,234.8,59.8,234.9,59.8z"/>
		<path d="M233.7,59.8c0,0.1-0.1,0.1-0.2,0.1c-0.1,0-0.1-0.1-0.1-0.1c0-0.1,0.1-0.2,0.2-0.3c0.1,0,0.1,0,0.1,0.1c0,0.1,0,0.1,0,0.1
			c0,0,0,0,0,0c0,0,0,0,0,0c0,0,0,0,0,0c0,0,0.1-0.1,0-0.1c0,0-0.1,0-0.1,0c0,0.1-0.1,0.1-0.1,0.2C233.5,59.8,233.6,59.9,233.7,59.8
			C233.7,59.8,233.7,59.8,233.7,59.8z"/>
		<path d="M231.1,59.5C231.1,59.5,231.2,59.4,231.1,59.5c0.1-0.1,0.1-0.1,0.1-0.1c0,0,0,0,0,0.1c0,0,0,0,0,0c0,0,0.1,0,0.1,0
			c0,0,0,0,0,0C231.3,59.5,231.2,59.5,231.1,59.5c0.1,0.1,0,0.2,0,0.3c0,0,0,0,0.1,0c0,0,0,0,0.1,0c0,0.1-0.1,0.1-0.1,0.1
			c-0.1,0-0.1-0.1-0.1-0.1C231.1,59.7,231.1,59.7,231.1,59.5C231.1,59.6,231.1,59.5,231.1,59.5z"/>
		<path d="M231.6,59.8C231.6,59.8,231.6,59.8,231.6,59.8c0,0,0.1,0.1,0.1,0.1c0,0,0-0.1,0-0.1c0,0,0-0.1-0.1-0.1c0-0.1,0-0.1,0-0.2
			c0.1,0,0.1,0,0.2,0c0,0,0,0.1,0,0.1c0,0,0,0,0,0c0,0,0-0.1-0.1-0.1c0,0-0.1,0,0,0.1c0,0,0,0.1,0.1,0.1c0,0,0,0.1,0,0.1
			C231.7,59.9,231.7,59.9,231.6,59.8C231.6,59.8,231.6,59.8,231.6,59.8z"/>
		<path d="M230.7,59.5C230.8,59.5,230.8,59.5,230.7,59.5c0.1,0.1,0.1,0.1,0.1,0.2c0,0,0,0,0,0c0,0,0.1-0.1,0.1-0.1c0,0,0,0,0.1,0
			c0,0,0,0,0,0c0,0,0,0,0,0.1c0,0,0,0,0,0c-0.1,0-0.1,0-0.1,0.1c0,0.1-0.1,0.2-0.1,0.2c0,0,0,0-0.1,0c0,0,0,0,0-0.1
			c0-0.1,0-0.1,0.1-0.2C230.7,59.6,230.7,59.5,230.7,59.5z"/>
		<path d="M236.9,59.9C236.8,59.9,236.8,59.9,236.9,59.9c-0.1,0-0.1,0-0.1-0.1c0-0.1,0-0.1,0.1-0.2c0,0,0-0.1,0-0.1c0,0,0,0-0.1,0
			c0,0,0.1-0.1,0.1-0.1c0,0,0.1,0,0.1,0c0,0,0,0.1,0,0.1c0,0.1-0.1,0.1-0.1,0.2C236.8,59.8,236.8,59.8,236.9,59.9
			C236.9,59.8,236.9,59.9,236.9,59.9z"/>
		<path d="M235.2,59.6C235.1,59.6,235.1,59.7,235.2,59.6c0,0.1-0.1,0.2-0.1,0.2c0,0,0,0-0.1,0c0,0,0,0,0-0.1
			C235,59.7,235,59.7,235.2,59.6C235.1,59.6,235.1,59.5,235.2,59.6c-0.1-0.1-0.1-0.1-0.1-0.1C235.1,59.5,235.1,59.5,235.2,59.6
			C235.1,59.6,235.1,59.6,235.2,59.6C235.1,59.6,235.1,59.6,235.2,59.6C235.1,59.6,235.2,59.6,235.2,59.6L235.2,59.6z"/>
		<path d="M231.5,59.9C231.4,59.9,231.4,59.9,231.5,59.9c-0.1,0-0.1-0.1-0.1-0.1c0-0.1,0-0.1,0.1-0.2c0,0,0-0.1,0-0.2c0,0,0,0,0.1,0
			c0,0,0,0,0,0.1c0,0.1-0.1,0.1-0.1,0.2C231.4,59.8,231.4,59.8,231.5,59.9C231.5,59.9,231.5,59.9,231.5,59.9z"/>
		<path d="M233.3,59.9C233.3,59.9,233.3,59.9,233.3,59.9c-0.1,0-0.1-0.1-0.1-0.1c0-0.1,0-0.1,0.1-0.2c0,0,0-0.1,0-0.1c0,0,0,0,0.1,0
			c0,0,0,0.1,0,0.1c0,0.1-0.1,0.1-0.1,0.2C233.3,59.8,233.3,59.8,233.3,59.9C233.3,59.9,233.3,59.9,233.3,59.9z"/>
		<path d="M235.2,59.6c0,0,0.1-0.1,0.1-0.1c0,0,0,0,0.1,0c0,0,0,0,0,0.1c0,0,0,0-0.1,0C235.2,59.6,235.2,59.6,235.2,59.6
			C235.2,59.6,235.2,59.6,235.2,59.6z"/>
		<path d="M233.5,59.3C233.4,59.3,233.4,59.4,233.5,59.3c-0.1,0.1-0.1,0-0.1,0C233.4,59.3,233.4,59.3,233.5,59.3
			C233.4,59.3,233.4,59.3,233.5,59.3z"/>
		<path d="M231.5,59.4C231.5,59.3,231.5,59.3,231.5,59.4c0-0.1,0-0.1,0-0.1C231.5,59.3,231.6,59.3,231.5,59.4
			C231.6,59.3,231.5,59.3,231.5,59.4z"/>
		<path d="M236.1,59.6c0,0.1-0.1,0.2-0.1,0.3c0,0-0.1,0-0.1,0c0-0.1,0-0.2,0.1-0.3C236,59.5,236,59.5,236.1,59.6
			C236.1,59.5,236.1,59.5,236.1,59.6z"/>
		<path d="M235.5,59.7c0-0.1,0-0.1,0.1-0.2c0,0,0,0,0.1,0c0,0,0,0,0,0.1C235.6,59.6,235.5,59.7,235.5,59.7z"/>
		<path d="M232.4,59.5C232.4,59.5,232.4,59.5,232.4,59.5C232.4,59.5,232.3,59.5,232.4,59.5c-0.1,0-0.1,0-0.1,0c0,0-0.1,0-0.1,0
			c-0.1,0.1-0.2,0.2-0.2,0.3c0,0,0,0.1,0.1,0.1c0,0,0.1,0,0.1,0c0,0,0,0,0,0c0,0,0.1,0.1,0.1,0.1c0,0,0.1,0,0.1,0c0,0,0,0,0,0
			c-0.1,0-0.1,0-0.1-0.1C232.3,59.7,232.3,59.6,232.4,59.5z M232.1,59.8C232.1,59.8,232.1,59.8,232.1,59.8c-0.1,0-0.1,0-0.1,0
			c0-0.1,0-0.2,0.1-0.3c0,0,0.1,0,0.1,0c0,0,0,0.1,0,0.1C232.2,59.7,232.2,59.7,232.1,59.8z"/>
		<path d="M230.6,59.9c0,0-0.1,0-0.1,0c0,0,0-0.1,0-0.1c0,0,0-0.1,0-0.1c0,0,0-0.1-0.1-0.1c-0.1,0-0.1,0-0.2,0.1
			c0,0.1-0.1,0.1-0.1,0.1c0,0-0.1,0-0.1,0c0.1-0.1,0.1-0.2,0.1-0.2c0.1-0.1,0.1-0.2,0.2-0.3c0,0,0.1-0.1,0.2-0.1c0,0,0,0,0.1,0
			c0,0,0,0,0,0.1c0,0.1,0,0.1-0.1,0.2c0,0,0,0.1,0.1,0.1C230.5,59.6,230.5,59.7,230.6,59.9C230.5,59.8,230.5,59.8,230.6,59.9z
			 M230.6,59.3c-0.1,0-0.2,0.1-0.2,0.3c0.1,0,0.1,0,0.2,0C230.5,59.4,230.5,59.4,230.6,59.3z"/>
	</g>
	<g>
		<g>
			<path d="M277.7,206.7c-0.4,0-0.7,0-1.1,0c-0.3,0-0.3,0.1-0.2,0.3c0.2,0.5,0.6,0.9,1.1,1c0.4,0,0.5,0.2,0.5,0.6
				c0.1,1.2,0.3,2.4,0.8,3.5c0,0.1,0.1,0.2,0,0.3c-0.1,0.1-0.2,0-0.3,0c-1.2-0.4-2.4-0.8-3.7-0.9c-1.1-0.1-2.2,0-3.3,0.2
				c-0.5,0.1-0.5,0.1-0.4-0.4c0.2-1.3,0-2.5-0.2-3.7c-0.5-3.1,1.9-4.7,3.9-4.8c1-0.1,1.9,0.4,2.7,1.1c1.3,1.2,2.2,2.6,2.9,4.1
				c0.1,0.1,0.2,0.3,0,0.4c-0.3,0.1-0.6,0.1-0.7-0.2c-0.2-0.4-0.3-0.8-0.4-1.2c-0.1-0.3-0.3-0.4-0.6-0.4
				C278.4,206.7,278.1,206.7,277.7,206.7C277.7,206.7,277.7,206.7,277.7,206.7z"/>
			<path d="M267.8,211c0.1-0.3,0.2-0.6,0.3-0.9c0.1-0.5,0-1-0.2-1.4c-0.5-1.4-0.9-2.8-0.9-4.3c0-3,1.7-5.5,4.6-6.5
				c1.3-0.5,2.7-0.7,4-0.7c1.2,0,2.4,0,3.5,0.1c0.3,0,0.4,0.1,0.2,0.4c-0.4,0.7-0.7,1.5-1.1,2.3c-0.1,0.3-0.3,0.3-0.6,0.2
				c-1.2-0.5-2.5-0.6-3.8-0.5c-2.3,0.1-4.6,1.8-5.2,3.8c-0.3,1-0.2,2,0,3c0.1,0.8,0.2,1.5,0.1,2.3
				C268.7,209.8,268.3,210.4,267.8,211z"/>
			<path d="M274.6,200.1c0.2,0,0.5,0,0.7,0c0.2,0,0.2,0.1,0.1,0.2c-0.4,0.5-0.5,1.2-0.5,1.8c0,0.2-0.1,0.3-0.3,0.3
				c-1.4,0.2-2.5,0.9-3.4,2.1c-0.1,0.1-0.2,0.2-0.3,0c-0.5-0.4-1-0.6-1.7-0.6c-0.3,0-0.2-0.2-0.2-0.3c0.2-0.8,0.7-1.5,1.4-2.1
				C271.7,200.5,272.9,200.1,274.6,200.1z"/>
			<path d="M289.6,215.3l-0.1,3.9c0,0-3.4-3.6-3.5-3.5l-0.1,3.3c0.1,0.1,0.2,0.1,0.5,0.1v0.2l-1.5,0V219c0.2,0,0.4,0,0.5-0.1
				c0-0.9,0-1.9,0.1-2.9c0-0.6,0.2-1.5-0.7-1.7c0,0,0.8,0,1.1,0l3.1,3.5l0-2.8c0-0.3,0-0.6-0.4-0.7h1.4
				C289.5,214.6,289.6,215,289.6,215.3z"/>
			<path d="M272.4,219v0.2h-1.5V219c0.1,0,0.2,0,0.3-0.1c0-0.1,0-0.2-0.1-0.3c-0.3-0.9-0.6-1.8-0.9-2.7c0-0.1-0.1-0.3-0.2-0.4
				c0,0-0.1,0-0.1,0c-0.3,0.8-0.6,1.5-0.9,2.3c-0.1,0.2-0.2,0.5-0.3,0.7c-0.1,0.2-0.1,0.3-0.1,0.4v0c0.1,0,0.2,0,0.3,0.1v0.2h-1.5
				V219c0.1,0,0.3,0,0.3-0.1c0.4-0.5,0.5-1.1,0.7-1.6c0.4-0.9,0.8-1.9,1.2-2.8c0-0.1,0.1-0.2,0.1-0.2c0-0.1,0.1-0.2,0.2-0.2
				c0.1,0,0.2,0.1,0.2,0.2c0.2,0.6,0.5,1.2,0.7,1.9c0.3,0.7,0.6,1.5,0.8,2.2c0,0.1,0,0.1,0.1,0.2c0,0.1,0,0.1,0.1,0.2
				c0,0.1,0.1,0.1,0.1,0.2C272.2,219,272.3,219,272.4,219z"/>
			<path d="M266.5,214.3c-0.7-0.2-1.4,0-2.1,0.1c0.4,0.1,0.4,0.4,0.4,0.7l-0.1,3.4c0,0.2,0,0.3,0,0.5c0,0,0,0,0,0v0
				c-0.1,0.1-0.2,0.1-0.4,0.1v0.2h1.5V219c-0.2,0-0.3,0-0.4-0.1c0,0-0.1-0.1,0-0.2l0-1.6c0-0.2,0.1-0.4,0.3-0.4
				c0.3,0,0.5-0.1,0.8-0.1c0.6-0.2,1-0.8,0.9-1.5C267.4,214.8,267,214.4,266.5,214.3z M266.7,215.7c-0.1,0.5-0.7,0.8-1.1,0.7
				c-0.1,0-0.2-0.1-0.2-0.2l0-0.6c0,0-0.1-0.7,0.1-0.8c0.4-0.1,0.8-0.1,1.1,0.2C266.8,215.1,266.8,215.4,266.7,215.7z"/>
			<path d="M261.3,218.2c0.3,0.4,0.7,0.5,1.1,0.5c0.6-0.1,0.9-0.6,0.6-1.1c-0.2-0.3-0.4-0.5-0.7-0.7c-0.3-0.3-0.6-0.5-0.8-0.9
				c-0.4-0.7-0.1-1.5,0.7-1.8c0.4-0.1,0.7,0,1.1-0.1c0.3-0.1,0.4-0.2,0.4-0.2l-0.1,1.1c-0.2-0.5-0.6-0.4-1-0.3
				c-0.5,0.1-0.7,0.6-0.5,1c0.2,0.5,0.7,0.7,1,1.1c0.3,0.3,0.5,0.5,0.6,0.9c0.1,0.6-0.3,1.3-0.9,1.4c-0.4,0.1-0.7,0.1-1.1,0
				c-0.2,0-0.4-0.1-0.5,0.1C261.2,219.3,261.3,218.6,261.3,218.2z"/>
			<path d="M280.3,214.1l0,1c-0.1-0.3-0.3-0.3-0.6-0.3l-0.7,0c-0.3,0-0.4,0.1-0.4,0.4l0,3.4c0,0.1,0,0.3,0,0.4
				c0.1,0,0.2,0.1,0.4,0.1v0.2h-1.5V219c0.2,0,0.3,0,0.4-0.1c0.1-0.1,0-0.3,0-0.5l0.1-3.2c0-0.3-0.1-0.4-0.4-0.4c0,0-0.7,0-0.9,0.1
				c0,0,0,0,0,0c-0.1,0-0.2,0-0.3,0.1c0,0,0,0,0,0c-0.1,0-0.1,0.1-0.1,0.2l0-1c0.1,0.1,0.3,0.2,0.5,0.2c0.1,0,0.6,0,0.8,0
				c0.5,0,0.9,0,1.4,0c0.3,0,0.6,0,0.9,0C280,214.4,280.2,214.3,280.3,214.1z"/>
			<circle cx="270" cy="216.8" r="0.2"/>
			<circle cx="282.3" cy="216.8" r="0.2"/>
			<path d="M284.7,219.1v0.2l-1.5,0v-0.2c0.1,0,0.2,0,0.3-0.1c0-0.1,0-0.2-0.1-0.3c-0.3-0.9-0.6-1.8-0.9-2.7c0-0.1-0.1-0.3-0.2-0.4
				c0,0-0.1,0-0.1,0c-0.3,0.8-0.6,1.5-0.9,2.3c-0.1,0.2-0.2,0.5-0.3,0.7c-0.1,0.2-0.1,0.3-0.1,0.4v0c0.1,0,0.2,0,0.3,0.1v0.2h-1.5
				v-0.2c0.1,0,0.3,0,0.3-0.1c0.4-0.5,0.5-1.1,0.7-1.6c0.4-0.9,0.8-1.9,1.2-2.8c0-0.1,0.1-0.2,0.1-0.2c0-0.1,0.1-0.2,0.2-0.2
				c0.1,0,0.2,0.1,0.2,0.2c0.2,0.6,0.5,1.2,0.7,1.9c0.3,0.7,0.6,1.5,0.8,2.2c0,0.1,0,0.1,0.1,0.2c0,0.1,0,0.1,0.1,0.2
				c0,0.1,0.1,0.1,0.1,0.2C284.5,219,284.6,219,284.7,219.1z"/>
		</g>
		<path d="M276.6,219v0.2h-1.1v-0.1c0,0,0,0,0-0.1c-0.2-0.3-0.2-0.3-0.3-0.5c-0.3-0.6-0.7-1.1-1.1-1.6c-0.3-0.4-0.2-0.5,0.2-0.6
			c0.1,0,0.2-0.1,0.2-0.1c0.5-0.2,0.7-0.6,0.6-1c-0.1-0.4-0.6-0.6-1-0.5c-0.2,0-0.2,0.2-0.2,0.4c0,0.7,0,1.5,0,2.2c0,0.3,0,0.7,0,1
			c0,0.2,0,0.4,0.1,0.5c0.1,0,0.2,0,0.4,0.1v0.2h-1.5V219c0.2,0,0.3,0,0.4-0.1v0c0.1-0.1,0-0.3,0-0.5c0-1.2,0-2.3,0-3.5
			c0-0.2,0-0.5-0.3-0.6c0.7,0,1.4-0.2,2.1,0c0.8,0.2,0.9,1.3,0.3,1.9c0,0-0.1,0.1-0.1,0.1c-0.5,0.4-0.5,0.4-0.1,0.9
			c0.3,0.4,0.5,0.8,0.8,1.1c0.1,0.1,0.2,0.2,0.2,0.4c0,0,0,0,0,0c0.1,0.1,0.2,0.2,0.3,0.2C276.4,219,276.5,219,276.6,219z"/>
	</g>
</g>
<polygon id="Dambovita_MallFF01" class="st2" points="15.9,110.5 128.2,110.5 128.2,134.3 144.3,134.3 144.3,227.8 15.3,227.8 "/>
<rect id="Dambovita_MallFF02_x5F_03" x="130.7" y="110.5" class="st2" width="13.6" height="21.2"/>
<polygon id="Dambovita_MallFF20" class="st2" points="15.3,101.3 15.3,37.5 78.3,37.5 78.3,68.9 144.3,68.9 144.3,101.3 "/>
<polygon id="Dambovita_MallFF19_x5E_TE01" class="st2" points="15.3,35 15.3,13.9 180.6,13.9 180.6,27 160.7,27 160.7,66.6 
	80.6,66.6 80.6,35.3 "/>
<rect id="Dambovita_MallFF18" x="162.9" y="28.9" class="st2" width="31.5" height="37.7"/>
<polygon id="Dambovita_MallFF17_x5F_A" class="st2" points="196.2,66.6 212.4,66.6 212.4,36.6 224.9,36.6 224.9,28.9 196.2,28.9 "/>
<rect id="Dambovita_MallFF17_x5F_B" x="214.7" y="39" class="st2" width="10.1" height="27.7"/>
<rect id="Dambovita_MallFF16_x5E_TI02" x="227" y="49.7" class="st2" width="16.3" height="17"/>
<polygon id="Dambovita_MallFF15" class="st2" points="227,47.4 245.3,47.4 245.3,66.6 261.7,66.6 261.7,28.9 227,28.9 "/>
<rect id="Dambovita_MallFF14" x="323.3" y="99.7" class="st2" width="50.6" height="29"/>
<rect id="Dambovita_MallFF13" x="323.3" y="130.6" class="st2" width="50.6" height="15.3"/>
<polygon id="Dambovita_MallFF12" class="st2" points="313.8,155.1 328.9,155.1 328.9,169.9 339.8,169.9 339.8,193.7 320,193.7 
	314,187.6 "/>
<polygon id="Dambovita_MallFF11" class="st2" points="339.8,195.5 339.8,207.6 294.1,207.6 294.1,188.5 312.4,188.5 319.4,195.4 "/>
<rect id="Dambovita_MallFF09_x5F_10" x="258.4" y="188.5" class="st2" width="33.5" height="39.3"/>
<rect id="Dambovita_MallFF08" x="229.9" y="188.5" class="st2" width="26.5" height="39.3"/>
<rect id="Dambovita_MallFF07" x="217.7" y="188.5" class="st2" width="10.5" height="39.3"/>
<rect id="Dambovita_MallFF06" x="200.1" y="188.5" class="st2" width="15.9" height="39.3"/>
<polygon id="Dambovita_MallFF05" class="st2" points="198.2,188.5 178.4,188.5 178.4,213.4 171.4,213.4 171.4,227.8 198.2,227.8 "/>
<polygon id="Dambovita_MallFF04" class="st2" points="177,188.5 156.8,188.5 156.8,227.8 169.1,227.8 169.1,211.5 177,211.5 "/>
</svg>
