<?xml version="1.0" encoding="UTF-8"?>
<svg id="Layer_4" data-name="Layer 4" xmlns="http://www.w3.org/2000/svg" viewBox="0 0 283.44 178.2">
  <defs>
    <style>
      .cls-1 {
        stroke: #121517;
      }

      .cls-1, .cls-2, .cls-3 {
        fill: none;
        stroke-miterlimit: 10;
      }

      .cls-2, .cls-3 {
        stroke: #231f20;
      }

      .cls-4 {
        letter-spacing: 0em;
      }

      .cls-5 {
        letter-spacing: .03em;
      }

      .cls-6 {
        font-size: 2.4px;
      }

      .cls-6, .cls-7, .cls-8, .cls-9, .cls-10, .cls-11, .cls-12, .cls-13, .cls-14, .cls-15, .cls-16, .cls-17, .cls-18 {
        fill: #231f20;
      }

      .cls-6, .cls-7, .cls-8, .cls-9, .cls-10, .cls-11, .cls-12, .cls-13, .cls-15, .cls-16, .cls-17 {
        font-family: Axiforma-Bold, 'Axiforma Bold';
        font-weight: 700;
      }

      .cls-7 {
        font-size: 3.72px;
      }

      .cls-19 {
        fill: #f47725;
      }

      .cls-20 {
        letter-spacing: -.08em;
      }

      .cls-21 {
        letter-spacing: 0em;
      }

      .cls-8 {
        font-size: 2.98px;
      }

      .cls-22 {
        letter-spacing: .02em;
      }

      .cls-9 {
        font-size: 10.37px;
      }

      .cls-10 {
        font-size: 4.79px;
      }

      .cls-23 {
        letter-spacing: -.01em;
      }

      .cls-24 {
        letter-spacing: 0em;
      }

      .cls-25 {
        letter-spacing: 0em;
      }

      .cls-11 {
        font-size: 2.92px;
      }

      .cls-12 {
        font-size: 7.66px;
      }

      .cls-13 {
        font-size: 3.68px;
      }

      .cls-14 {
        fill-rule: evenodd;
      }

      .cls-3 {
        stroke-width: 2px;
      }

      .cls-26 {
        letter-spacing: -.07em;
      }

      .cls-27 {
        letter-spacing: 0em;
      }

      .cls-28 {
        fill: #f1f2f2;
      }

      .cls-29 {
        letter-spacing: 0em;
      }

      .cls-30 {
        letter-spacing: -.08em;
      }

      .cls-15 {
        font-size: 2.8px;
      }

      .cls-16 {
        font-size: 3.65px;
      }

      .cls-31 {
        letter-spacing: -.01em;
      }

      .cls-32 {
        letter-spacing: -.02em;
      }

      .cls-33 {
        letter-spacing: -.08em;
      }

      .cls-34 {
        letter-spacing: 0em;
      }

      .cls-35 {
        letter-spacing: 0em;
      }

      .cls-17 {
        font-size: 3.94px;
      }

      .cls-36 {
        letter-spacing: -.04em;
      }

      .cls-37 {
        letter-spacing: 0em;
      }
    </style>
  </defs>
  <g id="cladire">
    <g>
      <rect class="cls-28" x="5" y="5" width="273.44" height="168.2"/>
      <path class="cls-28" d="m273.44,10v158.2H10V10h263.44m10-10H0v178.2h283.44V0h0Z"/>
      <rect class="cls-3" x="10" y="10" width="263.44" height="158.2"/>
    </g>
  </g>
  <g id="magazine">
    <polyline class="cls-2" points="10 75.4 105.39 75.4 105.39 57.62 105.39 50.24 117.73 50.24 117.73 21.34 131.98 21.34 131.98 10"/>
    <polyline class="cls-2" points="10 80.87 105.58 80.87 105.58 168.2"/>
    <polyline class="cls-2" points="94.01 80.87 94.01 97.9 105.58 97.9"/>
    <polyline class="cls-2" points="105.39 50.24 57.29 50.24 57.29 27.48 10 27.48"/>
    <line class="cls-2" x1="142.11" y1="21.34" x2="142.11" y2="50.26"/>
    <polyline class="cls-2" points="164.44 50.26 164.44 21.34 129.97 21.34"/>
    <polyline class="cls-2" points="164.44 36.21 177.78 36.21 177.78 50.26 116.04 50.26"/>
    <polyline class="cls-2" points="273.44 73.23 235.07 73.23 235.07 107.77 273.44 107.77"/>
    <line class="cls-2" x1="235.07" y1="95.54" x2="273.44" y2="95.54"/>
    <line class="cls-2" x1="254.26" y1="107.77" x2="254.26" y2="168.2"/>
    <polyline class="cls-2" points="113.48 168.2 113.48 137.98 228.06 137.98 228.06 113.52 248.38 113.52 248.38 152.74 213.49 152.74 213.49 168.2"/>
    <line class="cls-2" x1="187.58" y1="137.98" x2="187.58" y2="168.2"/>
    <line class="cls-2" x1="166.82" y1="137.98" x2="166.82" y2="168.2"/>
    <line class="cls-2" x1="157.93" y1="137.98" x2="157.93" y2="168.2"/>
    <line class="cls-2" x1="144.96" y1="137.98" x2="144.96" y2="168.2"/>
    <polyline class="cls-2" points="240.41 113.52 240.41 124.31 248.38 124.31"/>
    <polyline class="cls-2" points="228.06 137.98 232.95 142.88 248.38 142.88"/>
    <line class="cls-2" x1="213.49" y1="152.74" x2="213.49" y2="137.98"/>
    <polyline class="cls-2" points="164.44 28.56 155.34 28.56 155.34 50.26"/>
    <polyline class="cls-2" points="123.75 168.2 123.75 155.98 129.27 155.98 129.27 137.98"/>
  </g>
  <g id="logo">
    <path class="cls-19" d="m268.13,140.66c0-.62-.5-1.12-1.12-1.12h-7.32c-.62,0-1.12.5-1.12,1.12v7.32c0,.62.5,1.12,1.12,1.12h7.32c.62,0,1.12-.5,1.12-1.12v-7.32Zm-2.7.3c.31,0,.56.25.56.56s-.25.56-.56.56-.56-.25-.56-.56.25-.56.56-.56Zm-4.31,0c.31,0,.56.25.56.56s-.25.56-.56.56-.56-.25-.56-.56.25-.56.56-.56Zm1.12,1.6l-.16,1.87c-.01.12-.09.22-.2.26h0c-.11.05-.19.15-.2.27l-.15,2.43c-.01.16-.15.29-.31.29h-.21c-.16,0-.3-.13-.31-.29l-.15-2.43c0-.12-.08-.23-.2-.27-.11-.04-.19-.15-.2-.26l-.15-1.87c-.01-.15.09-.29.24-.33l.15-.03c.1-.02.21,0,.28.08l.21.22c.12.12.32.12.44,0l.22-.22c.08-.07.18-.1.28-.08l.16.03c.14.04.24.18.23.33Zm1.19,5.12c0,.08-.07.15-.15.15s-.15-.07-.15-.15v-6.72c0-.08.07-.15.15-.15s.15.07.15.15v6.72Zm3.1-2.99c-.11.03-.17.13-.16.23l.07.48c.02.11-.06.22-.18.24l-.14.02c-.1.02-.17.1-.18.2l-.09,1.54c-.01.16-.15.29-.31.29h-.21c-.16,0-.3-.13-.31-.29l-.09-1.54c0-.1-.08-.18-.18-.2l-.14-.02c-.11-.01-.19-.12-.18-.24l.07-.48c.02-.1-.05-.21-.16-.23-.11-.03-.18-.13-.15-.25l.42-2c.03-.14.19-.21.32-.13l.4.25c.07.04.16.04.23,0l.39-.25c.12-.08.29-.01.32.13l.42,2c.02.11-.05.22-.16.25Z"/>
    <path class="cls-19" d="m170.09,74.84c-.27.04-1.29.29-2.27.54-7.12,1.86-12.9,7.64-14.94,14.92-.61,2.21-.85,6.59-.46,8.95,1.04,6.49,5.15,12.27,10.94,15.36,2.4,1.29,6.72,2.63,6.72,2.09s-2.34-12.77-2.53-13.25c-.11-.29-1.06-1.33-2.11-2.3-2.17-2-2.71-2.78-3.13-4.59-.35-1.52-2.02-11.85-2.02-12.52,0-.5.65-.88.98-.56.1.1.77,2.8,1.48,6.03,1.21,5.43,1.33,5.84,1.73,5.89.23.04.46-.06.52-.19.06-.13-.5-2.88-1.23-6.11-.73-3.23-1.29-5.91-1.23-6.01.04-.08.31-.13.59-.13h.54l1.32,5.99c1.36,6.12,1.48,6.39,2.21,5.93.23-.15.08-1.07-1.04-6.05-.73-3.23-1.27-6.01-1.19-6.16.06-.15.31-.29.56-.29.42,0,.5.17,1.29,3.69,1.96,8.79,1.82,8.31,2.27,8.37.23.04.46-.06.52-.19.06-.13-.5-2.88-1.23-6.11-1.21-5.34-1.29-5.88-1.02-6.11.73-.56.85-.27,2.77,6.39,1.79,6.14,1.88,6.61,1.8,7.97-.06,1.19-.21,1.79-.96,3.46-.61,1.42-.88,2.28-.88,2.88,0,1.02,3.55,13.5,3.73,13.06.06-.15.5-2.17.98-4.46l.88-4.17-.33-.98c-.35-1.08-.33-1.98.23-7.3.36-3.65,1-6.72,2.19-10.7,1.27-4.22,2.54-6.8,4.11-8.41,2-2.04,3.19-1.86,3.19.46,0,1.61-4.7,26.06-5.2,27-.25.48-.63,2.17-1.06,4.61-.37,2.11-.71,4.07-.77,4.36l-.1.52,1.02-.29c4.07-1.17,7.14-3.01,9.98-5.99,3.8-3.97,5.74-8.85,5.76-14.44.02-5.97-2.11-11.16-6.3-15.28-2.94-2.92-6.87-4.97-10.98-5.76-1.31-.25-6.13-.35-7.34-.13h0Zm0,0"/>
    <text class="cls-9" transform="translate(69.08 34.72)"><tspan x="0" y="0">MILLION</tspan></text>
    <text class="cls-12" transform="translate(41.21 61.12)"><tspan x="0" y="0">SPCRPCIV</tspan><tspan class="cls-23" x="-4.11" y="9">D</tspan><tspan class="cls-24" x=".88" y="9">A</tspan><tspan x="5.54" y="9">MBOVI</tspan><tspan class="cls-26" x="27.23" y="9">T</tspan><tspan x="30.46" y="9">A</tspan></text>
    <text class="cls-8" transform="translate(101.04 94.03) rotate(-90)"><tspan x="0" y="0">XPRESS</tspan></text>
    <text class="cls-6" transform="translate(169.49 154.69)"><tspan x="0" y="0">MESOP</tspan><tspan class="cls-32" x="7.22" y="0">O</tspan><tspan class="cls-20" x="8.81" y="0">T</tspan><tspan class="cls-37" x="9.82" y="0">A</tspan><tspan class="cls-21" x="11.28" y="0">MIA</tspan></text>
    <g>
      <path class="cls-18" d="m250.63,99.13c-.09.04-.27.09-.49.09-.53,0-.92-.33-.92-.94s.39-.98.97-.98c.23,0,.38.05.44.08l-.06.2c-.09-.04-.22-.08-.38-.08-.44,0-.73.28-.73.77,0,.46.26.75.71.75.15,0,.3-.03.39-.08l.05.19Z"/>
      <path class="cls-18" d="m251.17,97.33v1.86h-.24v-1.86h.24Z"/>
      <path class="cls-18" d="m253.18,98.24c0,.64-.39.98-.86.98s-.84-.38-.84-.94.37-.98.86-.98.84.39.84.94Zm-1.44.03c0,.4.21.75.59.75s.6-.35.6-.77c0-.37-.19-.76-.59-.76s-.6.37-.6.78Z"/>
      <path class="cls-18" d="m253.5,97.35c.12-.02.3-.04.46-.04.26,0,.42.05.54.15.09.08.15.21.15.35,0,.25-.16.41-.35.48h0c.14.06.23.19.27.38.06.26.11.44.14.51h-.25c-.03-.05-.07-.21-.12-.44-.06-.26-.16-.35-.37-.36h-.23v.81h-.24v-1.84Zm.24.85h.25c.26,0,.42-.14.42-.35,0-.24-.17-.35-.43-.35-.12,0-.2.01-.24.02v.68Z"/>
      <path class="cls-18" d="m254.99,97.35c.1-.02.27-.04.44-.04.24,0,.39.04.51.13.1.07.15.18.15.33,0,.18-.12.34-.31.41h0c.18.05.38.2.38.47,0,.16-.06.28-.16.37-.13.12-.34.17-.64.17-.17,0-.29-.01-.37-.02v-1.83Zm.24.76h.22c.25,0,.4-.13.4-.31,0-.22-.17-.3-.41-.3-.11,0-.17,0-.21.02v.6Zm0,.89s.12.01.2.01c.25,0,.48-.09.48-.36,0-.25-.22-.36-.48-.36h-.2v.71Z"/>
      <path class="cls-18" d="m257.45,98.32h-.72v.67h.81v.2h-1.05v-1.86h1v.2h-.76v.59h.72v.2Z"/>
      <path class="cls-18" d="m252.54,102.15c.11.07.27.12.43.12.25,0,.39-.13.39-.32,0-.17-.1-.27-.35-.37-.3-.11-.49-.26-.49-.53,0-.29.24-.5.6-.5.19,0,.33.04.41.09l-.07.2c-.06-.03-.18-.09-.35-.09-.25,0-.35.15-.35.28,0,.17.11.26.37.36.32.12.48.27.48.55,0,.29-.21.54-.65.54-.18,0-.38-.05-.47-.12l.06-.2Z"/>
      <path class="cls-18" d="m254.18,100.58v1.86h-.24v-1.86h.24Z"/>
      <path class="cls-18" d="m248.25,103.85c.12-.02.27-.04.46-.04.24,0,.41.05.52.15.1.09.16.22.16.39s-.05.3-.14.4c-.13.14-.33.2-.57.2-.07,0-.14,0-.19-.02v.75h-.24v-1.84Zm.24.9c.05.01.12.02.2.02.29,0,.47-.14.47-.4s-.17-.36-.44-.36c-.11,0-.19,0-.23.02v.72Z"/>
      <path class="cls-18" d="m249.73,103.83h.24v1.66h.79v.2h-1.04v-1.86Z"/>
      <path class="cls-18" d="m251.33,105.11l-.19.59h-.25l.63-1.86h.29l.64,1.86h-.26l-.2-.59h-.66Zm.61-.19l-.18-.54c-.04-.12-.07-.23-.1-.34h0c-.03.11-.06.22-.09.34l-.18.54h.56Z"/>
      <path class="cls-18" d="m253.99,105.63c-.09.04-.27.09-.49.09-.53,0-.92-.33-.92-.94s.39-.98.97-.98c.23,0,.38.05.44.08l-.06.2c-.09-.04-.22-.08-.38-.08-.44,0-.73.28-.73.77,0,.46.26.75.71.75.15,0,.3-.03.39-.08l.05.19Z"/>
      <path class="cls-18" d="m254.53,103.83v1.86h-.24v-1.86h.24Z"/>
      <path class="cls-18" d="m254.95,105.69v-1.86h.26l.6.94c.14.22.25.41.33.61h0c-.02-.25-.03-.48-.03-.77v-.78h.23v1.86h-.24l-.59-.94c-.13-.21-.25-.42-.35-.62h0c.01.24.02.46.02.77v.8h-.23Z"/>
      <path class="cls-18" d="m257.13,104.04h-.57v-.2h1.38v.2h-.57v1.66h-.24v-1.66Z"/>
      <path class="cls-18" d="m259.11,104.82h-.72v.67h.81v.2h-1.05v-1.86h1v.2h-.76v.59h.72v.2Z"/>
    </g>
    <text class="cls-11" transform="translate(150.22 156.95) rotate(-90)"><tspan class="cls-25" x="0" y="0">C</tspan><tspan x="1.7" y="0">ASA</tspan><tspan x="-6.17" y="3.43">GUR</tspan><tspan class="cls-31" x="-.83" y="3.43">M</tspan><tspan x="1.49" y="3.43">ANDU</tspan><tspan class="cls-36" x="9.02" y="3.43">L</tspan><tspan x="10.29" y="3.43">UI</tspan></text>
    <text class="cls-17" transform="translate(122 37.53)"><tspan x="0" y="0">DINI LAND</tspan></text>
    <text class="cls-15" transform="translate(161.01 45.69) rotate(-90)"><tspan x="0" y="0">L</tspan><tspan class="cls-22" x="1.32" y="0">E</tspan><tspan class="cls-5" x="2.74" y="0">T</tspan><tspan class="cls-29" x="4.22" y="0">’</tspan><tspan class="cls-4" x="4.78" y="0">S PL</tspan><tspan class="cls-30" x="9.56" y="0">A</tspan><tspan x="11.05" y="0">Y</tspan></text>
    <g>
      <path class="cls-18" d="m247.99,80.34h-.64l-.14.56c.31.02.74.3.39.63-.04.04-3.65,2.8-3.65,2.8l.78-2.81c.16-.54.75-.61.75-.61l.14-.56h-4.34s-.14.57-.14.57c.21.05.8.16.59.95-1.45,5.23-1.28,4.71-1.38,5-.39,1.51-1.03,1.44-1.26,1.45l-.14.56v.04s0,0,0,0h4.53l.15-.61s-.72-.14-.58-.67c.14-.51.71-2.57.71-2.57,2.01,3.22,2.5,3.78,4.25,3.86.59.03,1.33,0,2.31,0l.15-.61c-.57,0-.95-.41-1.18-.66-.12-.13-.73-1.05-1.28-1.89-.5-.77-.95-1.47-.95-1.47l.95-.76,2.71-2.17c.61-.51,1.05-.46,1.05-.46l.14-.56h-3.9Z"/>
      <path class="cls-18" d="m266.39,80.26c-.48,0-.94.02-1.39.07-3.64.42-5.84,2.71-5.83,5.01,0,1.92,1.56,3.77,5.16,3.76.23,0,.45-.01.67-.02.87-.05,1.64-.17,2.34-.31l.42-1.79c-.7.23-1.58.43-2.29.43-.16,0-.32,0-.47-.02-1.65-.17-2.73-1.23-2.74-2.6,0-1.41,1.02-2.52,2.74-2.81.29-.05.59-.07.92-.07,1.11,0,1.67.36,2.03.85h.3l.59-2.11c-.6-.2-1.5-.37-2.45-.38Z"/>
      <path class="cls-18" d="m256.83,80.34h-4.28l-.14.56s.85.1.59.95l-1.94,7.06h3.88s.14-.6.14-.6c0,0-.73-.18-.54-.84.02-.06.57-2.1.57-2.1h1.71s.07,0,.07,0c.89,0,1.18.46,1.18.46l.52-2.1h-3l.45-1.65h2.6c.48,0,.82.32.82.55h.29l.57-2.3h-3.5Z"/>
    </g>
    <g>
      <path class="cls-18" d="m171.21,44.27s0,.02-.01.03c0,0,0,0-.01,0,0-.03.02-.05.02-.08,0-.02-.02-.03-.03-.05,0,.01-.02.03-.02.04,0,.02,0,.04,0,.05-.02.06-.04.11-.05.16,0,.01,0,.03,0,.05.01,0,.03-.02.04-.03.02-.04.04-.08.06-.12,0-.02.01-.04.02-.06.03-.01.06-.02.09-.03.01,0,.04,0,.04-.02,0,0,0-.03,0-.04-.02,0-.04,0-.05.02-.03.02-.04.05-.07.08Z"/>
      <path class="cls-18" d="m168.86,42.77s0,0,0,0c0,0,0,.02,0,.02-.02.08-.05.15-.07.23-.05.18-.07.36-.03.55.05.22.23.36.44.23.1-.06.19-.13.23-.25,0-.02,0-.06-.01-.07-.02-.01-.05-.01-.08,0-.06.01-.11.03-.17.04-.1.01-.19-.05-.21-.15-.01-.08-.02-.17,0-.25.03-.24.12-.46.22-.67.1-.21.24-.4.39-.58.01-.01.01-.03.02-.05-.02,0-.04,0-.05,0-.04.03-.09.05-.12.09-.28.25-.49.55-.72.85-.1.13-.21.26-.31.39-.01.02-.04.02-.06.03,0-.02-.02-.05-.02-.07.02-.12.04-.25.08-.36.08-.24.22-.45.36-.66.05-.07.1-.13.14-.2,0-.01,0-.03,0-.05-.02,0-.03-.01-.05,0-.06.03-.13.05-.18.1-.13.12-.26.24-.37.38-.27.34-.53.7-.79,1.04-.19.25-.38.5-.62.71-.17.15-.37.24-.61.21-.14-.02-.27-.12-.3-.24-.03-.14,0-.26.08-.38.1-.16.41-.2.55-.09.03.02.06.05.06.09-.06,0-.13-.03-.19-.03-.12,0-.2.08-.2.2,0,.13.11.24.24.25.1,0,.19-.03.28-.08.17-.1.24-.32.12-.51-.12-.17-.29-.22-.48-.18-.28.05-.5.2-.61.47-.06.15-.08.3,0,.45.11.21.29.29.51.29.27,0,.49-.11.7-.27.25-.2.43-.46.6-.72.16-.25.32-.5.48-.75.04-.06.09-.12.13-.18,0,0,0,0,.01,0,0,.01,0,.02,0,.03-.1.23-.17.46-.21.71-.03.15-.05.3-.04.45,0,.05.02.09.07.11.05.02.08-.02.1-.06,0-.01.02-.03.03-.04.07-.12.14-.23.21-.35.13-.21.26-.42.4-.63.01-.02.03-.03.04-.05Z"/>
      <path class="cls-18" d="m173.12,42.11c.12,0,.23,0,.33,0,.25-.02.48-.08.7-.2.08-.04.15-.1.22-.15.01-.01.01-.04.02-.06-.02,0-.05-.02-.07-.02-.02,0-.04.01-.05.02-.06.03-.12.07-.19.1-.23.11-.48.16-.73.14-.19-.01-.39-.05-.58-.08-.2-.03-.41-.05-.61,0-.19.04-.35.12-.47.27-.13.17-.16.36-.07.56.1.23.41.3.63.13.1-.07.18-.17.18-.3-.01-.19-.2-.35-.43-.26-.06.03-.1.07-.12.14-.02.1.04.17.14.15.01,0,.03,0,.04,0,.04,0,.07.02.05.05-.02.04-.05.08-.08.1-.15.08-.33-.04-.34-.2,0-.15.07-.26.19-.35.17-.12.35-.15.55-.12.16.02.32.05.48.07.05,0,.09.02.14.02-.06.05-.13.1-.18.16-.14.15-.24.33-.33.52-.1.19-.2.37-.36.52-.12.11-.24.21-.4.27-.05.02-.1.07-.14.12-.03.04-.03.09,0,.13.03.04.07.06.13.06.12-.02.22-.06.3-.15.22-.23.39-.49.54-.77.11-.22.24-.42.46-.56.13-.08.14-.14.06-.28Z"/>
      <path class="cls-18" d="m172.81,43.59s-.01-.02-.02-.03c-.02-.11,0-.21.03-.32.02-.05.03-.1.04-.15,0-.05-.02-.08-.06-.11-.04-.02-.09-.02-.12.01-.04.05-.08.1-.1.15-.05.14-.02.28.03.42.04.09.09.17.15.24.05.07.1.06.14-.01.02-.03.03-.06.04-.09.06-.1.12-.2.18-.3.01-.02.03-.03.05-.05,0,.02,0,.03,0,.04.03.12.06.24.1.36.01.04.04.09.09.09.06,0,.07-.05.09-.1,0,0,0,0,0,0,.08-.21.21-.38.43-.47.04-.02.08-.05.12-.09.03-.03.05-.06.02-.11-.02-.05-.06-.08-.11-.07-.06,0-.13.02-.19.05-.16.08-.26.22-.33.38,0,.02-.02.03-.03.05-.04-.11-.03-.21-.01-.32,0-.03.01-.06-.02-.09-.03-.03-.06,0-.1,0-.01,0-.03.01-.04.02-.09.09-.18.18-.26.27-.05.06-.09.13-.14.19Z"/>
      <path class="cls-18" d="m176,42.54s0-.02-.01-.03c.04-.04.09-.08.13-.12.04-.04.08-.08.11-.13.03-.05,0-.11-.04-.14-.04-.04-.09-.04-.13,0-.03.02-.05.03-.07.06-.06.09-.11.18-.16.27-.02.05-.05.06-.1.05-.15-.04-.31-.09-.47-.08-.13,0-.24.05-.32.16-.02.02-.03.05,0,.08.03.03.05,0,.08,0,.03-.02.05-.05.08-.06.1-.06.2-.05.3-.03.1.02.21.05.31.07.04,0,.05.03.03.06-.02.07-.05.14-.07.21-.03.12-.07.25-.14.36-.08.14-.19.25-.35.31-.09.03-.11.12-.08.2.03.07.11.1.19.05.05-.03.1-.06.13-.1.1-.17.21-.34.29-.52.07-.16.12-.33.18-.49.01-.03.03-.04.06-.04.15,0,.3-.01.44-.08.06-.03.11-.06.16-.1,0,0,.01-.04,0-.05,0-.01-.03-.02-.05-.02-.02,0-.04.02-.06.02-.09.03-.17.06-.26.08-.07.02-.14.01-.2.02Z"/>
      <path class="cls-18" d="m174.45,43.85c.1-.01.19-.02.28-.04.12-.03.22-.08.29-.18.06-.1.04-.19-.07-.24-.02-.01-.05-.02-.08-.02-.1-.02-.2-.03-.3-.04-.02,0-.03-.02-.05-.02.01-.01.02-.04.04-.04.09-.04.18-.06.28-.02.03.01.07.03.11.04.05.01.11-.02.13-.07.02-.04,0-.1-.04-.13-.03-.02-.06-.04-.1-.05-.12-.03-.23,0-.33.05-.08.03-.15.08-.2.15-.04.06-.03.12.03.15.02.01.05.03.07.03.09.02.18.03.27.05.04,0,.08.03.08.08,0,.05-.04.07-.07.08-.11.05-.23.05-.33-.02-.04-.02-.08-.05-.12-.07-.08-.03-.17.05-.16.13.01.06.04.11.1.14.05.02.11.03.16.04Z"/>
      <path class="cls-18" d="m171.02,43.87s0,0,0,0c.05,0,.1,0,.15-.02.13-.02.25-.07.34-.17.09-.11.06-.24-.08-.27-.11-.03-.22-.04-.33-.05-.02,0-.04-.02-.06-.03.02-.02.03-.04.05-.05.1-.04.2-.05.3,0,.02.01.04.03.06.02.04,0,.08,0,.1-.02.06-.05.06-.13,0-.18-.07-.05-.15-.06-.24-.04-.14.02-.27.07-.37.18-.07.08-.04.17.06.21.02,0,.04,0,.05.01.09.02.18.03.27.05.02,0,.06.04.06.07,0,.02-.02.06-.05.07-.12.06-.23.06-.35,0-.03-.02-.06-.04-.09-.05-.06-.03-.14-.02-.18.03-.04.05-.03.13.02.17.03.03.07.05.11.06.06.01.12.02.18.02Z"/>
      <path class="cls-18" d="m170.14,43.88s0,0,0,0c.05,0,.11,0,.16-.02.13-.03.26-.07.34-.18.08-.11.05-.23-.09-.26-.11-.03-.22-.04-.33-.06-.02,0-.04-.02-.06-.03.02-.02.03-.04.05-.05.1-.04.19-.05.29,0,.03.01.05.03.08.03.05,0,.09,0,.12-.05.03-.04.03-.09,0-.12-.03-.03-.07-.06-.1-.07-.06-.01-.13-.01-.19,0-.13.02-.24.07-.33.16-.09.09-.06.19.07.22.04,0,.08,0,.12.02.07.01.14.02.2.05.07.03.07.08,0,.13-.09.07-.26.07-.36,0-.04-.02-.08-.05-.12-.07-.05-.02-.1,0-.13.03-.03.03-.04.08-.02.12.02.06.05.1.11.12.07.02.14.02.21.03Z"/>
      <path class="cls-18" d="m169.53,43.88s.04,0,.06-.02c.12-.06.17-.16.19-.29.02-.14.05-.27.14-.38.02-.02.03-.05.04-.08.01-.04.03-.09,0-.12-.04-.04-.09-.01-.13,0,0,0-.02.01-.03.02-.09.08-.13.18-.12.29,0,.14-.04.25-.14.35-.04.03-.07.07-.09.11-.03.06,0,.12.09.11Z"/>
      <path class="cls-18" d="m173.91,43.85s.07-.03.1-.05c.09-.06.12-.16.14-.26.02-.12.06-.22.15-.31.03-.03.04-.07.06-.11.02-.03.03-.07-.01-.09-.03-.01-.07-.01-.1,0-.11.05-.16.15-.17.27,0,.13-.05.25-.16.34-.04.03-.07.07-.09.11-.04.06,0,.11.09.11Z"/>
      <path class="cls-18" d="m171.83,44.42s.04.06.06.07c.01,0,.04-.01.06-.02-.06-.03-.07-.04-.05-.1.02-.05.04-.1.06-.15,0,0,0-.02,0-.03,0,0-.02,0-.02,0-.03.03-.05.01-.08,0-.01,0-.04,0-.05,0-.09.03-.16.15-.15.24.01.06.07.09.12.05.02-.02.03-.04.05-.05Z"/>
      <path class="cls-18" d="m169.3,44.19s0,.06-.01.08c-.02.06-.04.11-.06.17,0,.02,0,.03,0,.05.01-.01.03-.02.04-.03,0,0,0-.02.01-.03.05-.06.09-.12.14-.18,0,0,.03,0,.04-.01,0,.01,0,.03,0,.04,0,.02-.02.04-.02.05-.01.03-.03.07-.03.1,0,.02.02.05.03.06.02,0,.04,0,.07-.02,0,0,0-.01,0-.02-.06,0-.06-.02-.04-.06.02-.04.04-.08.05-.11,0-.03,0-.07-.01-.09-.03-.03-.06,0-.09.02-.03.03-.05.06-.08.09,0-.03,0-.06.01-.08,0-.04-.02-.05-.05-.04Z"/>
      <path class="cls-18" d="m172.12,44.31s0,0-.01,0c0-.03.02-.06.02-.09,0-.01-.02-.03-.04-.04,0,.01-.02.02-.02.04,0,.02,0,.05-.01.07-.02.05-.04.1-.06.15,0,.02,0,.03,0,.05.02-.01.03-.02.04-.03.04-.06.08-.12.12-.18.02-.02.05-.03.08-.05,0,.03,0,.06-.01.08-.02.05-.04.09-.06.14,0,0,0,.02,0,.03.01,0,.03,0,.03-.01.04-.06.07-.13.11-.2-.02.01-.03.02-.04.03,0-.02,0-.03,0-.04,0-.03.03-.06,0-.08-.04-.02-.06,0-.09.03-.03.03-.05.06-.08.09Z"/>
      <path class="cls-18" d="m171.58,44.43s-.07.03-.11.03c-.04,0-.05-.02-.04-.08.01,0,.03,0,.04,0,.05,0,.11-.03.13-.08.01-.02.01-.06,0-.08-.01-.02-.05-.03-.08-.03-.08.01-.15.11-.16.19,0,.05,0,.09.06.11.05.02.12,0,.15-.06Z"/>
      <path class="cls-18" d="m170.51,44.42s-.04.02-.05.03c-.02,0-.03.01-.05.01-.04,0-.07-.03-.06-.07,0-.02,0-.04.01-.05.02-.04.04-.08.06-.11,0-.01.04,0,.06-.01,0,.02.01.05,0,.06-.02.03-.05.05-.07.07,0,0-.02.01-.03.02.06,0,.12-.02.15-.08,0-.02,0-.06,0-.08-.01-.02-.05-.03-.08-.02-.09.02-.17.13-.16.22,0,.05.03.08.07.09.06.01.11,0,.14-.07Z"/>
      <path class="cls-18" d="m171,44.42s-.03.02-.04.03c-.03,0-.06.01-.08,0-.02,0-.03-.05-.02-.07.01-.04.03-.09.05-.13.02-.03.05-.06.09-.04.04.02,0,.05,0,.08,0,0,0,.02,0,.03,0,0,.03,0,.03,0,.01-.03.04-.06.03-.09,0-.04-.04-.05-.08-.05-.1.02-.18.12-.17.22,0,.05.03.08.08.09.06,0,.11-.02.12-.07Z"/>
      <path class="cls-18" d="m170.19,44.43s-.03.02-.05.02c-.06.03-.11,0-.09-.07,0-.05.03-.1.06-.14.01-.02.06-.04.08-.03.04.02.01.05,0,.08,0,0,0,0,0,0,0,0,0,.02,0,.03,0,0,.02,0,.03,0,.03-.03.05-.06.03-.1-.02-.04-.05-.05-.09-.04-.09.02-.16.11-.16.2,0,.05.02.09.07.1.06.02.11,0,.14-.06Z"/>
      <path class="cls-18" d="m168.25,44.2s0,.05,0,.07c0,.04-.03.09-.03.13,0,.04,0,.08.04.09.05,0,.08-.01.1-.06-.02,0-.04.02-.06.02-.02,0-.04-.02-.04-.03.01-.06.03-.12.05-.17,0-.02.04-.02.07-.03,0,0,.02-.01.03-.02-.03,0-.05,0-.07-.01,0-.01,0-.02,0-.03,0-.02,0-.03,0-.05-.01.01-.03.02-.04.03-.02.02-.04.05-.06.07Z"/>
      <path class="cls-18" d="m168.62,44.41s-.03.05,0,.07c.04.02.1.01.13-.02.03-.04.02-.07,0-.11-.02-.03-.03-.05-.05-.08-.01-.03,0-.06.03-.07.03,0,.05,0,.06.04,0,0,0,.02,0,.03.05-.02.06-.04.02-.07-.03-.03-.1-.03-.13,0-.04.03-.05.07-.03.12.01.03.03.05.05.08.02.03.02.06,0,.07-.02,0-.04-.01-.07-.02,0,0,0-.01-.01-.02Z"/>
      <path class="cls-18" d="m167.98,44.19s0,.09-.02.13c0,.04-.03.08-.04.12,0,.02,0,.03,0,.05.01-.01.03-.02.04-.03.03-.05.06-.11.09-.17.02-.03.04-.06.08-.04,0,0,.03,0,.03-.02,0-.01,0-.03,0-.04,0,0-.02-.01-.03,0-.01,0-.03.02-.04.03-.02.03-.05.06-.07.09,0,0,0,0,0,0,0-.02,0-.04.01-.06,0-.05,0-.06-.05-.05Z"/>
      <path class="cls-18" d="m172.46,44.47s0-.01,0-.02c-.06,0-.05-.03-.04-.06.02-.05.04-.09.06-.13,0-.02,0-.05-.01-.06,0-.01-.04-.01-.05,0-.02,0-.03.03-.06.05.03,0,.05,0,.07,0,0,.02,0,.04,0,.06-.01.04-.04.09-.05.13,0,.02.02.05.03.06.01,0,.04,0,.06-.01Z"/>
      <path class="cls-18" d="m168.51,44.48s.01-.01.02-.02c-.09,0-.06-.05-.05-.08.02-.05.04-.09.05-.14,0-.02,0-.04,0-.05-.01-.01-.04,0-.05,0-.01.05-.02.08-.03.12-.01.04-.03.07-.04.11,0,.02,0,.05.01.06.02.01.04,0,.07,0Z"/>
      <path class="cls-18" d="m169.89,44.48s0-.01,0-.02c-.06,0-.05-.04-.04-.07.02-.05.04-.1.06-.15,0-.02,0-.04,0-.05,0,0-.03,0-.04,0,0,.04-.01.08-.02.11-.01.04-.03.08-.04.12,0,.02,0,.06.02.07.02.01.05,0,.07,0Z"/>
      <path class="cls-18" d="m169.98,44.06s-.04-.03-.05-.03c-.02,0-.03.02-.04.04,0,0,.02.03.03.03.02,0,.03-.02.06-.04Z"/>
      <path class="cls-18" d="m168.55,44.11s.03-.03.04-.05c0-.01-.02-.04-.03-.03-.02,0-.03.02-.05.04.01.01.02.02.04.05Z"/>
      <path class="cls-18" d="m168.86,42.77s-.03.03-.04.05c-.13.21-.26.42-.4.63-.07.12-.14.23-.21.35,0,.01-.02.03-.03.04-.03.03-.05.08-.1.06-.05-.02-.07-.06-.07-.11-.01-.15,0-.3.04-.45.05-.24.11-.48.21-.71,0-.01,0-.02,0-.03,0,0,0,0-.01,0-.04.06-.09.12-.13.18-.16.25-.32.5-.48.75-.17.27-.36.52-.6.72-.2.16-.43.27-.7.27-.22,0-.4-.09-.51-.29-.08-.15-.06-.3,0-.45.12-.27.33-.42.61-.47.19-.03.36.01.48.18.13.18.05.4-.12.51-.08.05-.17.09-.28.08-.13,0-.24-.12-.24-.25,0-.11.08-.2.2-.2.06,0,.12.02.19.03,0-.04-.03-.06-.06-.09-.14-.11-.45-.07-.55.09-.07.12-.11.24-.08.38.02.12.16.22.3.24.24.03.43-.06.61-.21.24-.21.43-.46.62-.71.26-.35.52-.7.79-1.04.11-.14.24-.26.37-.38.05-.04.12-.07.18-.1.01,0,.03,0,.05,0,0,.02,0,.04,0,.05-.05.07-.1.13-.14.2-.14.21-.28.42-.36.66-.04.12-.06.24-.08.36,0,.02.01.05.02.07.02,0,.05-.01.06-.03.11-.13.21-.25.31-.39.22-.3.44-.6.72-.85.04-.03.08-.06.12-.09.01,0,.04,0,.05,0,0,.02,0,.04-.02.05-.15.18-.29.37-.39.58-.11.21-.19.44-.22.67-.01.08,0,.17,0,.25.02.1.11.16.21.15.06,0,.11-.03.17-.04.03,0,.06,0,.08,0,.01.01.02.05.01.07-.04.12-.13.19-.23.25-.21.13-.39,0-.44-.23-.04-.19-.01-.37.03-.55.02-.08.05-.15.07-.23,0,0,0-.02,0-.02,0,0,0,0,0,0Z"/>
      <path class="cls-18" d="m173.12,42.11c.07.14.07.2-.06.28-.22.14-.35.34-.46.56-.14.28-.32.54-.54.77-.08.09-.19.14-.3.15-.05,0-.1-.01-.13-.06-.03-.04-.03-.09,0-.13.04-.04.08-.1.14-.12.16-.06.28-.16.4-.27.16-.14.26-.33.36-.52.09-.18.2-.36.33-.52.05-.06.12-.1.18-.16-.04,0-.09-.02-.14-.02-.16-.03-.32-.05-.48-.07-.2-.03-.39,0-.55.12-.12.09-.19.2-.19.35,0,.16.19.28.34.2.04-.02.06-.06.08-.1.02-.04,0-.06-.05-.05-.01,0-.03,0-.04,0-.1.02-.16-.05-.14-.15.01-.07.05-.11.12-.14.23-.09.42.07.43.26,0,.13-.07.23-.18.3-.22.16-.53.1-.63-.13-.09-.2-.06-.39.07-.56.12-.15.28-.23.47-.27.2-.04.41-.02.61,0,.19.03.39.07.58.08.25.02.5-.03.73-.14.06-.03.12-.06.19-.1.02,0,.04-.02.05-.02.02,0,.05.01.07.02,0,.02,0,.05-.02.06-.07.05-.14.11-.22.15-.22.12-.45.19-.7.2-.11,0-.21,0-.33,0Z"/>
      <path class="cls-18" d="m172.81,43.59c.05-.07.09-.14.14-.19.08-.09.17-.18.26-.27,0,0,.02-.02.04-.02.03-.02.06-.04.1,0,.03.02.02.06.02.09-.01.1-.02.21.01.32,0-.02.02-.03.03-.05.08-.16.18-.3.33-.38.06-.03.13-.04.19-.05.05,0,.08.02.11.07.02.05,0,.08-.02.11-.03.03-.07.07-.12.09-.22.09-.35.26-.43.47,0,0,0,0,0,0-.02.04-.03.1-.09.1-.06,0-.08-.05-.09-.09-.04-.12-.06-.24-.1-.36,0-.01,0-.02,0-.04-.02.02-.04.03-.05.05-.06.1-.12.2-.18.3-.02.03-.03.06-.04.09-.04.07-.09.08-.14.01-.06-.08-.11-.16-.15-.24-.06-.13-.08-.28-.03-.42.02-.06.06-.11.1-.15.03-.03.08-.04.12-.01.04.02.07.06.06.11,0,.05-.02.1-.04.15-.04.1-.06.21-.03.32,0,0,0,.02.02.03Z"/>
      <path class="cls-18" d="m176,42.54c.07,0,.14,0,.2-.02.09-.02.17-.06.26-.08.02,0,.04-.02.06-.02.02,0,.04,0,.05.02,0,0,0,.04,0,.05-.05.04-.11.07-.16.1-.14.07-.29.08-.44.08-.04,0-.05,0-.06.04-.06.16-.1.34-.18.49-.08.18-.19.35-.29.52-.03.04-.08.08-.13.1-.08.04-.16.02-.19-.05-.04-.08-.01-.17.08-.2.16-.06.26-.18.35-.31.07-.11.11-.23.14-.36.02-.07.04-.14.07-.21.01-.03,0-.05-.03-.06-.1-.02-.21-.05-.31-.07-.1-.02-.21-.03-.3.03-.03.02-.05.04-.08.06-.02.02-.05.04-.08,0-.03-.03-.02-.05,0-.08.08-.11.19-.15.32-.16.16-.01.32.03.47.08.06.02.08,0,.1-.05.05-.1.1-.18.16-.27.02-.02.04-.04.07-.06.05-.03.09-.03.13,0,.04.03.06.09.04.14-.03.05-.07.09-.11.13-.04.04-.08.08-.13.12,0,0,0,.02.01.03Z"/>
      <path class="cls-18" d="m174.45,43.85c-.05-.01-.11-.02-.16-.04-.06-.02-.09-.07-.1-.14-.01-.08.08-.16.16-.13.04.02.08.04.12.07.11.07.22.07.33.02.04-.02.08-.03.07-.08,0-.05-.04-.07-.08-.08-.09-.02-.18-.03-.27-.05-.03,0-.05-.02-.07-.03-.06-.04-.07-.09-.03-.15.05-.08.12-.12.2-.15.11-.05.22-.09.33-.05.03,0,.07.03.1.05.04.03.06.09.04.13-.02.05-.08.08-.13.07-.04,0-.07-.03-.11-.04-.1-.04-.19-.02-.28.02-.02,0-.02.03-.04.04.02,0,.03.02.05.02.1.02.2.03.3.04.03,0,.05.01.08.02.1.05.13.14.07.24-.07.11-.17.16-.29.18-.09.02-.18.03-.28.04Z"/>
      <path class="cls-18" d="m171.02,43.87c-.06,0-.12,0-.18-.02-.04-.01-.08-.03-.11-.06-.05-.05-.06-.12-.02-.17.04-.05.11-.06.18-.03.03.02.06.04.09.05.12.07.23.07.35,0,.02-.01.05-.05.05-.07,0-.02-.03-.06-.06-.07-.09-.02-.18-.04-.27-.05-.02,0-.04,0-.05-.01-.1-.03-.13-.13-.06-.21.1-.11.23-.16.37-.18.08-.01.17,0,.24.04.07.05.07.13,0,.18-.03.02-.07.02-.1.02-.02,0-.05-.01-.06-.02-.1-.06-.2-.04-.3,0-.02,0-.03.03-.05.05.02.01.04.03.06.03.11.02.23.03.33.05.14.03.18.16.08.27-.09.11-.21.15-.34.17-.05,0-.1.01-.15.02,0,0,0,0,0,0Z"/>
      <path class="cls-18" d="m170.14,43.88c-.07-.01-.14-.02-.21-.03-.06-.01-.09-.06-.11-.12-.01-.04,0-.09.02-.12.04-.04.08-.05.13-.03.04.02.08.04.12.07.1.06.27.06.36,0,.06-.04.06-.1,0-.13-.06-.02-.13-.03-.2-.05-.04,0-.08,0-.12-.02-.12-.03-.15-.13-.07-.22.09-.1.21-.15.33-.16.06,0,.13,0,.19,0,.04,0,.08.04.1.07.03.03.03.08,0,.12-.03.04-.07.06-.12.05-.03,0-.05-.02-.08-.03-.1-.05-.19-.04-.29,0-.02,0-.03.03-.05.05.02,0,.04.02.06.03.11.02.23.03.33.06.14.03.17.15.09.26-.09.11-.21.16-.34.18-.05.01-.11.01-.16.02,0,0,0,0,0,0Z"/>
      <path class="cls-18" d="m169.53,43.88c-.08,0-.12-.05-.09-.11.02-.04.06-.08.09-.11.1-.09.15-.21.14-.35,0-.11.03-.21.12-.29,0,0,.02-.01.03-.02.04-.02.08-.05.13,0,.04.04.02.08,0,.12,0,.03-.02.06-.04.08-.1.11-.13.24-.14.38-.02.12-.06.23-.19.29-.02.01-.05.01-.06.02Z"/>
      <path class="cls-18" d="m173.91,43.85c-.09,0-.12-.05-.09-.11.03-.04.06-.08.09-.11.11-.09.15-.2.16-.34,0-.12.06-.22.17-.27.03-.01.07-.01.1,0,.04.02.03.06.01.09-.02.04-.03.08-.06.11-.08.09-.12.2-.15.31-.02.1-.05.2-.14.26-.04.03-.08.04-.1.05Z"/>
      <path class="cls-18" d="m171.83,44.42s-.03.03-.05.05c-.05.04-.1.02-.12-.05-.02-.09.06-.21.15-.24.02,0,.04,0,.05,0,.03.01.05.03.08,0,0,0,.02,0,.02,0,0,0,0,.02,0,.03-.02.05-.04.1-.06.15-.02.06,0,.07.05.1-.02,0-.05.03-.06.02-.02-.01-.04-.04-.06-.07Zm.06-.18s-.01-.03-.02-.03c-.02,0-.04,0-.06,0-.07.05-.09.12-.09.2,0,.04.03.05.06.03.06-.05.09-.12.11-.2Z"/>
      <path class="cls-18" d="m169.3,44.19s.06,0,.05.04c0,.03-.01.05-.01.08.03-.03.05-.06.08-.09.02-.02.06-.05.09-.02.02.02.02.06.01.09,0,.04-.03.08-.05.11-.01.04-.01.07.04.06,0,0,0,.01,0,.02-.02,0-.05.02-.07.02-.02,0-.03-.04-.03-.06,0-.03.02-.07.03-.1,0-.02.02-.04.02-.05,0-.01,0-.03,0-.04-.01,0-.03,0-.04.01-.05.06-.09.12-.14.18,0,0,0,.02-.01.03-.01.01-.03.02-.04.03,0-.02,0-.04,0-.05.02-.06.04-.11.06-.17,0-.02,0-.05.01-.08Z"/>
      <path class="cls-18" d="m172.12,44.31s.05-.06.08-.09c.02-.03.05-.05.09-.03.04.02.01.05,0,.08,0,.01,0,.02,0,.04.02-.01.03-.02.04-.03-.04.07-.08.14-.11.2,0,0-.02,0-.03.01,0-.01-.01-.02,0-.03.02-.05.04-.09.06-.14,0-.03,0-.06.01-.08-.03.01-.06.02-.08.05-.04.06-.08.12-.12.18-.01.01-.03.02-.04.03,0-.02,0-.04,0-.05.02-.05.04-.1.06-.15,0-.02,0-.05.01-.07,0-.01.01-.03.02-.04.01.01.04.03.04.04,0,.03-.02.06-.02.09,0,0,0,0,.01,0Z"/>
      <path class="cls-18" d="m171.58,44.43c-.04.05-.1.07-.15.06-.05-.02-.07-.06-.06-.11,0-.08.08-.18.16-.19.02,0,.06,0,.08.03.01.02.01.06,0,.08-.02.05-.08.07-.13.08-.01,0-.03,0-.04,0-.01.06,0,.09.04.08.03,0,.07-.02.11-.03Zm-.15-.08c.07,0,.13-.05.14-.1,0-.01,0-.04-.01-.04,0,0-.03,0-.04,0-.05.03-.07.08-.08.14Z"/>
      <path class="cls-18" d="m170.51,44.42c-.03.06-.08.08-.14.07-.05-.01-.07-.04-.07-.09,0-.09.07-.2.16-.22.02,0,.06,0,.08.02.01.02.02.06,0,.08-.03.06-.08.08-.15.08.01,0,.02,0,.03-.02.02-.02.05-.04.07-.07,0-.01,0-.04,0-.06-.02,0-.05,0-.06.01-.03.03-.05.07-.06.11,0,.02,0,.04-.01.05-.01.04.02.08.06.07.02,0,.03,0,.05-.01.01,0,.03-.01.05-.03Z"/>
      <path class="cls-18" d="m171,44.42c-.02.05-.07.08-.12.07-.05,0-.07-.04-.08-.09,0-.1.07-.2.17-.22.04,0,.08,0,.08.05,0,.03-.02.06-.03.09,0,0-.02,0-.03,0,0,0,0-.02,0-.03.01-.03.05-.06,0-.08-.04-.02-.07.01-.09.04-.02.04-.04.08-.05.13,0,.02,0,.06.02.07.02.01.05,0,.08,0,.01,0,.03-.02.04-.03Z"/>
      <path class="cls-18" d="m170.19,44.43c-.03.06-.08.08-.14.06-.05-.01-.07-.05-.07-.1,0-.09.08-.18.16-.2.04-.01.07,0,.09.04.02.04,0,.07-.03.1,0,0-.02,0-.03,0,0,0,0-.02,0-.03,0,0,0,0,0,0,.01-.03.04-.06,0-.08-.02,0-.07.01-.08.03-.03.04-.05.09-.06.14-.01.07.03.1.09.07.02,0,.03-.01.05-.02Z"/>
      <path class="cls-18" d="m168.25,44.2s.04-.04.06-.07c.01-.01.03-.02.04-.03,0,.02,0,.03,0,.05,0,0,0,.02,0,.03.02,0,.04,0,.07.01-.02.01-.02.02-.03.02-.02.01-.06.01-.07.03-.02.06-.04.12-.05.17,0,0,.03.03.04.03.02,0,.03-.01.06-.02-.02.05-.06.07-.1.06-.05,0-.05-.05-.04-.09,0-.04.02-.09.03-.13,0-.02,0-.04,0-.07Z"/>
      <path class="cls-18" d="m168.62,44.41s0,.02.01.02c.02.01.05.03.07.02.03-.01.02-.04,0-.07-.02-.03-.04-.05-.05-.08-.02-.04-.01-.08.03-.12.04-.03.1-.03.13,0,.03.03.03.05-.02.07,0-.01,0-.02,0-.03,0-.03-.02-.05-.06-.04-.03,0-.05.03-.03.07.01.03.03.05.05.08.02.04.03.07,0,.11-.03.04-.1.05-.13.02-.03-.02-.04-.04,0-.07Z"/>
      <path class="cls-18" d="m167.98,44.19s.06,0,.05.05c0,.02,0,.04-.01.06,0,0,0,0,0,0,.02-.03.05-.06.07-.09,0-.01.02-.02.04-.03,0,0,.03,0,.03,0,0,.01,0,.03,0,.04,0,0-.02.02-.03.02-.04-.02-.07.01-.08.04-.03.05-.06.11-.09.17,0,.01-.03.02-.04.03,0-.02-.01-.04,0-.05.01-.04.03-.08.04-.12,0-.04.01-.08.02-.13Z"/>
      <path class="cls-18" d="m172.46,44.47s-.05.02-.06.01c-.02-.01-.04-.04-.03-.06,0-.04.03-.09.05-.13,0-.02,0-.04,0-.06-.02,0-.04,0-.07,0,.02-.02.04-.04.06-.05.02,0,.04,0,.05,0,.01.02.02.04.01.06-.01.05-.04.09-.06.13-.01.03-.01.06.04.06,0,0,0,.01,0,.02Z"/>
      <path class="cls-18" d="m171.21,44.27s0,.04-.02.06c-.02.04-.04.08-.06.12,0,.01-.03.02-.04.03,0-.02-.01-.03,0-.05.02-.06.04-.11.05-.16,0-.02,0-.04,0-.05,0-.01.01-.03.02-.04.01.02.03.03.03.05,0,.03-.01.05-.02.08,0,0,0,0,.01,0,0-.01,0-.02.01-.03h0Z"/>
      <path class="cls-18" d="m168.51,44.48s-.05,0-.07,0c-.01,0-.02-.04-.01-.06,0-.04.03-.07.04-.11.01-.04.02-.07.03-.12,0,0,.03,0,.05,0,0,0,0,.03,0,.05-.02.05-.04.09-.05.14-.01.03-.04.08.05.08,0,0-.01.01-.02.02Z"/>
      <path class="cls-18" d="m169.89,44.48s-.05.01-.07,0c-.01-.01-.02-.05-.02-.07,0-.04.03-.08.04-.12,0-.03.01-.06.02-.11,0,0,.03,0,.04,0,0,.01.01.04,0,.05-.02.05-.04.1-.06.15-.01.03-.02.07.04.07,0,0,0,.01,0,.02Z"/>
      <path class="cls-18" d="m171.21,44.27s.04-.05.07-.08c.01-.01.03-.01.05-.02,0,.01.02.03,0,.04,0,.01-.03.01-.04.02-.03.01-.06.02-.09.03,0,0,0,0,0,0Z"/>
      <path class="cls-18" d="m169.98,44.06s-.04.03-.06.04c0,0-.03-.03-.03-.03,0-.02.02-.03.04-.04.01,0,.03.02.05.03Z"/>
      <path class="cls-18" d="m168.55,44.11s-.03-.03-.04-.05c.02-.01.03-.03.05-.04,0,0,.03.02.03.03,0,.01-.02.03-.04.05Z"/>
      <path class="cls-18" d="m171.89,44.24c-.02.08-.05.15-.11.2-.03.03-.06.01-.06-.03,0-.08.02-.15.09-.2.01-.01.04-.01.06,0,0,0,.02.02.02.03Z"/>
      <path class="cls-18" d="m171.43,44.35c.01-.06.03-.11.08-.14.01,0,.03,0,.04,0,0,0,.01.03.01.04,0,.05-.07.09-.14.1Z"/>
      <path class="cls-18" d="m169.18,44.22s0-.02,0-.04c-.01,0-.02,0-.03,0-.02,0-.04,0-.05,0-.03-.02-.06-.02-.09,0-.08.04-.12.11-.13.2,0,.03.03.07.05.09.01.01.06-.01.08-.03.02,0,.03-.03.03-.03.02.02.04.05.06.06.01,0,.04-.01.06-.02,0,0,0-.01,0-.02-.06,0-.07-.02-.05-.07.02-.05.04-.11.06-.16Zm-.17.21s-.04.03-.05.02c-.01,0-.02-.03-.02-.04.01-.08.03-.15.09-.19.02-.01.05-.02.06,0,.01,0,.02.04.01.06-.02.05-.05.11-.09.16Z"/>
      <path class="cls-18" d="m167.86,44.47s-.06.02-.08.01c-.02,0-.03-.04-.03-.06,0-.03,0-.06.01-.09,0-.03,0-.05-.04-.05-.06,0-.09.01-.12.07-.01.04-.04.08-.07.11-.01.02-.04.02-.07.04.04-.06.08-.11.11-.16.04-.09.1-.17.17-.24.03-.03.07-.05.11-.08.01,0,.04,0,.04,0,0,0,0,.03,0,.04-.01.04-.03.08-.04.12-.01.03-.03.07.04.07-.1.03-.1.1-.1.17,0,.01.03.02.06.04Zm0-.42c-.07,0-.15.09-.18.19.07.02.1.01.12-.03.02-.05.04-.1.06-.16Z"/>
    </g>
    <g>
      <g>
        <path class="cls-18" d="m202.34,151.79c-.26,0-.53,0-.79,0-.21,0-.22.08-.15.24.16.37.4.65.82.7.27.03.35.16.37.43.04.9.24,1.76.59,2.59.03.06.08.14.03.2-.06.06-.13,0-.2-.02-.89-.28-1.78-.56-2.72-.66-.81-.09-1.6-.03-2.39.12-.35.07-.36.06-.31-.27.15-.92-.02-1.82-.18-2.73-.4-2.25,1.39-3.42,2.85-3.49.77-.04,1.41.32,1.97.83.94.85,1.6,1.89,2.13,3.03.04.09.18.22-.02.3-.25.1-.45.06-.52-.12-.11-.29-.22-.58-.31-.87-.07-.21-.18-.3-.41-.28-.25.02-.51,0-.77,0,0,0,0,0,0,0Z"/>
        <path class="cls-18" d="m195.05,154.94c.05-.21.17-.4.2-.62.05-.36.02-.7-.12-1.04-.4-1-.67-2.03-.67-3.11,0-2.2,1.27-4.01,3.35-4.75.95-.34,1.94-.49,2.95-.53.86-.03,1.72,0,2.58.1.24.03.29.1.18.32-.27.55-.52,1.1-.77,1.65-.09.2-.21.25-.42.18-.9-.33-1.83-.42-2.78-.38-1.67.07-3.36,1.3-3.81,2.81-.21.72-.12,1.45-.03,2.18.07.57.17,1.13.08,1.71-.09.58-.35,1.06-.74,1.48Z"/>
        <path class="cls-18" d="m200.02,146.98c.17,0,.33,0,.5,0,.13,0,.16.07.09.17-.28.39-.33.85-.38,1.3-.01.14-.07.2-.21.22-1.04.17-1.85.69-2.47,1.54-.08.1-.14.11-.24.03-.36-.29-.76-.44-1.22-.42-.21.01-.17-.13-.14-.25.17-.61.52-1.1.99-1.5.94-.79,1.83-1.1,3.06-1.1Z"/>
        <path class="cls-18" d="m211.03,158.07l-.08,2.87s-2.49-2.61-2.56-2.58l-.06,2.39c.06.04.17.06.34.08v.13h-1.1v-.17c.16-.02.28,0,.33-.07.01-.69.03-1.4.04-2.09-.02-.46.18-1.11-.48-1.23,0,0,.56,0,.82,0l2.3,2.58.02-2.02c0-.25-.01-.44-.32-.49h1.03c-.37.07-.29.36-.29.6Z"/>
        <path class="cls-18" d="m198.47,160.78v.13h-1.1v-.13c.1-.01.18-.03.24-.05.02-.08-.01-.17-.04-.25-.23-.66-.46-1.31-.69-1.97-.03-.1-.08-.19-.12-.29-.02,0-.05,0-.07,0-.22.56-.45,1.12-.67,1.69-.07.17-.13.34-.2.52-.05.11-.1.23-.05.33h0c.06.02.14.03.24.04v.13h-1.1v-.13c.11-.01.18-.03.25-.06.26-.36.37-.77.54-1.14.31-.67.57-1.36.85-2.05.02-.06.05-.11.08-.17.04-.07.06-.16.15-.16s.12.09.15.16c.17.45.34.91.51,1.36.2.54.41,1.08.61,1.62.02.04.03.08.04.12.02.05.03.09.05.14.02.06.05.1.09.13.06.02.14.03.23.04Z"/>
        <path class="cls-18" d="m194.15,157.33c-.52-.13-1.03.03-1.56.04.27.07.29.26.29.48l-.05,2.45c0,.12,0,.25-.02.37,0,.01,0,.02,0,.03h0c-.08.07-.17.08-.32.1v.13h1.1v-.13c-.12-.01-.21-.03-.28-.05-.03-.03-.04-.08-.03-.16v-1.13c0-.18.06-.27.25-.26.2,0,.4-.04.59-.1.43-.14.7-.57.69-1.13,0-.23-.32-.55-.66-.64Zm.15,1.03c-.1.34-.49.57-.83.51-.11-.02-.15-.08-.15-.18v-.42s-.06-.53.1-.58c.26-.08.55-.08.78.11.17.15.17.36.11.56Z"/>
        <path class="cls-18" d="m190.31,160.21c.21.32.51.37.81.34.47-.04.65-.44.41-.84-.13-.2-.31-.36-.49-.51-.22-.19-.45-.37-.6-.62-.31-.52-.05-1.13.53-1.29.26-.07.53,0,.78-.05.24-.07.29-.17.29-.17l-.05.8c-.15-.37-.46-.3-.77-.23-.37.08-.52.41-.33.75.18.33.5.54.76.79.2.19.39.38.45.67.09.45-.22.95-.66,1.05-.26.06-.52.05-.79.02-.12-.01-.3-.05-.39.11-.02-.02.02-.57.03-.82Z"/>
        <path class="cls-18" d="m204.21,157.24v.75c-.07-.18-.24-.22-.43-.23l-.5-.02c-.2-.02-.3.05-.3.26l.02,2.48c.01.1,0,.19.03.27.06.02.16.04.29.06v.13h-1.1v-.13c.11-.01.19-.03.26-.06.05-.11.02-.25.04-.38l.04-2.35c0-.23-.07-.32-.31-.3,0,0-.54,0-.67.04h0c-.07.01-.14.04-.19.08,0,0,0,0,0,0-.04.03-.07.08-.08.13v-.75c.02.09.19.15.31.15.07,0,.45,0,.57.01.34,0,.68,0,1.03,0,.22,0,.44,0,.66,0,.13,0,.24-.02.33-.15Z"/>
        <circle class="cls-18" cx="196.7" cy="159.18" r=".18"/>
        <circle class="cls-18" cx="205.66" cy="159.18" r=".18"/>
        <path class="cls-18" d="m207.45,160.83v.13h-1.1s0-.13,0-.13c.1-.01.18-.03.24-.05.02-.08-.01-.17-.04-.25-.23-.66-.46-1.31-.69-1.97-.03-.1-.08-.19-.12-.29-.02,0-.05,0-.07,0-.22.56-.45,1.12-.67,1.69-.07.17-.13.34-.2.52-.05.11-.1.23-.05.33h0c.06.02.14.03.24.04v.13h-1.1v-.13c.11-.01.18-.03.25-.06.26-.36.37-.77.54-1.14.31-.67.57-1.36.85-2.05.02-.06.05-.11.08-.17.04-.07.06-.16.15-.16s.12.09.15.16c.17.45.34.91.51,1.36.2.54.41,1.08.61,1.62.02.04.03.08.04.12.02.05.03.09.05.14.02.06.05.1.09.13.06.02.14.03.23.04Z"/>
      </g>
      <path class="cls-18" d="m201.48,160.81v.13h-.8v-.11s0-.03-.01-.05c-.13-.19-.16-.22-.23-.34-.25-.42-.54-.81-.82-1.2-.19-.26-.15-.36.15-.44.06-.02.12-.04.17-.07.36-.15.51-.4.41-.71-.09-.29-.41-.43-.76-.36-.18.04-.16.17-.16.29,0,.55,0,1.09,0,1.64,0,.26-.02.51-.02.77,0,.13-.01.26.05.37.06.02.15.03.26.05v.13h-1.1v-.13c.14-.02.23-.03.31-.09h0c.04-.1.03-.22.03-.33,0-.85.02-1.71.03-2.56,0-.17-.03-.33-.23-.43.53.02,1.05-.17,1.56,0,.56.18.67.95.2,1.4-.03.02-.05.05-.08.07q-.37.29-.11.68c.19.28.38.55.57.83.06.09.12.18.17.27,0,0,0,0,0,0,.05.08.12.13.22.17.05,0,.11.02.18.03Z"/>
    </g>
    <text class="cls-13" transform="translate(150 46.19) rotate(-90)"><tspan x="0" y="0">LALA G</tspan><tspan class="cls-27" x="11.13" y="0">A</tspan><tspan class="cls-35" x="13.37" y="0">MES</tspan></text>
    <path id="Mobexpert" class="cls-14" d="m24.79,122.36h.81v3.7h0v2.38h1.77v-2.38h0v-3.7h.81c.6,0,1.09.63,1.09,1.41v4.67h1.8v-5.12c0-1.5-1.17-2.72-2.61-2.72h-3.94c-1.43,0-2.61,1.22-2.61,2.72v5.12h1.8v-4.67c0-.77.49-1.41,1.09-1.41h0Zm9.88-1.85h1.96c1.63,0,2.93,1.23,2.93,2.87v2.27c0,1.63-1.29,2.87-2.93,2.87h-1.96c-1.63,0-2.88-1.23-2.88-2.87v-2.27c0-1.63,1.25-2.87,2.88-2.87h0Zm.54,1.57c-.81,0-1.46.73-1.46,1.64v1.59c0,.91.64,1.62,1.46,1.62h.89c.81,0,1.5-.71,1.5-1.62v-1.59c0-.91-.68-1.64-1.49-1.64h-.89Zm6.85.05h2.51c.39,0,.7.32.7.7v.26c0,.39-.32.7-.7.7h-2.51v-1.66h0Zm0,3.18h2.51c.39,0,.7.3.7.67v.25c0,.37-.32.67-.7.67h-2.51v-1.6h0Zm-1.82-4.69v7.89h5.22c.42,0,.81-.11,1.13-.39.98-.87.98-2.91-.23-3.44-.02,0-.04-.02-.06-.02-.32-.12-.38-.03-.03-.15.03-.01.06-.02.09-.04,1.21-.53,1.21-2.57.23-3.44-.32-.28-.71-.39-1.13-.39h-5.22Zm30.28-.02h5.23l-1.03,1.52h-3.38c-.13,0-.24.11-.24.24v1.41h4.65l-1.04,1.52h-3.61v1.36c0,.13.11.24.24.24h4.41l-1.02,1.52h-4.22c-.69,0-1.25-.57-1.25-1.26v-5.27c0-.7.56-1.26,1.25-1.26h0Zm-16.46,7.81h2.15l1.6-2.3,1.6,2.3h2.15l-2.65-3.88,2.74-3.94h-2.23l-1.6,2.34-1.6-2.34h-7.12c-.69,0-1.25.57-1.25,1.26v5.27c0,.7.56,1.26,1.25,1.26h4.22l1.02-1.52h-4.41c-.13,0-.24-.11-.24-.24v-1.36h3.61l1.04-1.52h-4.65v-1.41c0-.13.11-.24.24-.24h3.38l.86-1.27,2.56,3.69-2.65,3.88h0Zm7.87-7.82h5.19c.98,0,1.79.8,1.79,1.79v1.8c0,.98-.8,1.79-1.79,1.79h-3.4v2.53h-1.79v-7.9h0Zm1.79,1.52v2.34h2.44c.43,0,.78-.35.78-.78v-.79c0-.43-.35-.78-.78-.78h-2.44Zm12.34-1.52h5.19c.98,0,1.79.8,1.79,1.79v1.47c0,.66-.36,1.24-.9,1.55.76.48.95,1.26.93,2.1v.91h-1.93c0-.2,0-.41,0-.61,0-.58.01-1.25-.52-1.65-.26-.19-.46-.19-.76-.19h-2v2.53h-1.79v-7.9h0Zm1.79,1.52v2.34h2.44c.43,0,.78-.35.78-.78v-.79c0-.43-.35-.78-.78-.78h-2.44Zm5.39-1.53h7.13l-.84,1.52h-2.14v6.39h-1.76v-6.39h-2.38v-1.52h0Zm4.82,7.15c-.07,0-.14.02-.2.05-.07.04-.12.09-.15.15-.04.07-.05.13-.05.2s.02.14.05.2c.04.06.09.12.15.15.06.04.13.05.2.05s.14-.02.2-.05c.06-.04.11-.09.15-.15.04-.06.05-.13.05-.2s-.02-.14-.05-.2c-.04-.07-.09-.12-.15-.15-.07-.03-.13-.05-.2-.05h0Zm0,.07c-.06,0-.11.01-.17.04-.05.03-.1.07-.13.13-.03.05-.05.11-.05.17s.02.11.05.17c.03.05.07.1.13.13.05.03.11.05.17.05s.12-.02.17-.05c.05-.03.1-.07.13-.13.03-.05.04-.11.04-.17s-.02-.12-.05-.17c-.03-.05-.07-.1-.13-.13-.05-.03-.11-.04-.17-.04h0Zm-.18.57h.07v-.19h.04s.04,0,.06.02c.02.01.04.05.07.1l.04.07h.09l-.05-.09s-.05-.07-.06-.09c0,0-.02-.02-.04-.02.04,0,.07-.02.09-.04.02-.02.03-.05.03-.08,0-.02,0-.04-.02-.06-.01-.02-.03-.03-.06-.04-.02,0-.06-.01-.11-.01h-.15v.44h0Zm.07-.25h.09s.07,0,.08-.02c.01-.01.02-.03.02-.05,0-.01,0-.02-.01-.03,0-.01-.02-.02-.03-.02-.01,0-.04,0-.07,0h-.08v.13Z"/>
    <text class="cls-7" transform="translate(231.91 132.84)"><tspan x="0" y="0">PUII MEI</tspan></text>
    <text class="cls-7" transform="translate(219.46 148.85)"><tspan x="0" y="0">PIZZA BONI</tspan><tspan class="cls-33" x="17.98" y="0">T</tspan><tspan class="cls-34" x="19.55" y="0">A</tspan></text>
    <text class="cls-10" transform="translate(137.93 161.94) rotate(-90)"><tspan x="0" y="0">SHERIFF</tspan></text>
    <text class="cls-16" transform="translate(163.7 156.51) rotate(-90)"><tspan x="0" y="0">IUTE</tspan></text>
  </g>
  <rect id="Dambovita_MallFF18" data-name="Dambovita MallFF18" class="cls-1" x="118.74" y="21.34" width="22.98" height="28.91"/>
  <polygon id="Dambovita_MallFF19" data-name="Dambovita MallFF19" class="cls-1" points="11.25 11.24 11.25 26.64 57.79 26.64 57.79 49.52 117.14 49.52 117.14 20.78 131.17 20.78 131.17 11.24 11.25 11.24"/>
  <polygon id="Dambovita_MallFF17_A" data-name="Dambovita MallFF17_A" class="cls-1" points="142.72 22.16 142.72 49.52 154.74 49.52 154.74 27.91 163.83 27.91 163.83 22.16 142.72 22.16"/>
  <rect id="Dambovita_MallFF17_B" data-name="Dambovita MallFF17_B" class="cls-1" x="156.12" y="29.17" width="7.7" height="20.35"/>
  <rect id="Dambovita_MallFF16" data-name="Dambovita MallFF16" class="cls-1" x="165.2" y="36.76" width="11.91" height="12.76"/>
  <polygon id="Dambovita_MallFF20" data-name="Dambovita MallFF20" class="cls-1" points="11.25 28.56 11.25 74.73 104.84 74.73 104.84 50.79 56.73 50.79 56.73 28.02 11.25 28.56"/>
  <rect id="Dambovita_MallFF02_03" data-name="Dambovita MallFF02_03" class="cls-1" x="94.72" y="81.49" width="10.12" height="15.52"/>
  <polygon id="Dambovita_MallFF01" data-name="Dambovita MallFF01" class="cls-1" points="11.25 81.49 11.25 166.8 104.84 166.8 104.84 98.85 93.23 98.85 93.23 81.49 11.25 81.49"/>
  <polygon id="Dambovita_MallFF04" data-name="Dambovita MallFF04" class="cls-1" points="114.16 138.63 114.16 166.8 123.01 166.8 123.01 154.94 128.53 154.94 128.53 138.63 114.16 138.63"/>
  <polygon id="Dambovita_MallFF05" data-name="Dambovita MallFF05" class="cls-1" points="129.7 138.63 129.7 156.57 124.62 156.57 124.62 166.8 144.16 166.8 144.16 138.63 129.7 138.63"/>
  <rect id="Dambovita_MallFF06" data-name="Dambovita MallFF06" class="cls-1" x="145.89" y="138.63" width="11.38" height="28.17"/>
  <rect id="Dambovita_MallFF07" data-name="Dambovita MallFF07" class="cls-1" x="158.77" y="138.63" width="7.36" height="28.17"/>
  <rect id="Dambovita_MallFF08" data-name="Dambovita MallFF08" class="cls-1" x="167.62" y="138.63" width="19.2" height="28.17"/>
  <rect id="Dambovita_MallFF09_10" data-name="Dambovita MallFF09_10" class="cls-1" x="188.43" y="138.63" width="24.26" height="28.17"/>
  <polygon id="Dambovita_MallFF11" data-name="Dambovita MallFF11" class="cls-1" points="214.3 138.63 214.3 151.74 247.53 151.74 247.53 143.69 232.58 143.69 228.06 138.63 214.3 138.63"/>
  <polygon id="Dambovita_MallFF12" data-name="Dambovita MallFF12" class="cls-1" points="228.79 114.14 228.79 137.98 233.27 142.28 247.53 142.28 247.53 125.18 239.48 125.18 239.48 114.14 228.79 114.14"/>
  <rect id="Dambovita_MallFF13" data-name="Dambovita MallFF13" class="cls-1" x="235.91" y="95.78" width="36.1" height="11.12"/>
  <rect id="Dambovita_MallFF14" data-name="Dambovita MallFF14" class="cls-1" x="235.91" y="74.13" width="36.1" height="20.47"/>
</svg>