<?xml version="1.0" encoding="UTF-8"?>
<svg id="Layer_4" xmlns="http://www.w3.org/2000/svg" viewBox="0 0 283.44 178.2">
  <defs>
    <style>
      .cls-1 {
        stroke-width: 2px;
      }

      .cls-1, .cls-2, .cls-3 {
        fill: none;
        stroke-miterlimit: 10;
      }

      .cls-1, .cls-3 {
        stroke: #231f20;
      }

      .cls-4 {
        font-size: 2.8px;
      }

      .cls-4, .cls-5, .cls-6, .cls-7, .cls-8, .cls-9, .cls-10, .cls-11, .cls-12, .cls-13, .cls-14, .cls-15, .cls-16 {
        fill: #231f20;
      }

      .cls-4, .cls-6, .cls-7, .cls-8, .cls-9, .cls-10, .cls-11, .cls-13, .cls-14, .cls-15, .cls-16 {
        font-weight: 700;
      }

      .cls-4, .cls-9, .cls-10, .cls-15, .cls-16 {
        font-family: Rockwell-Bold, Rockwell;
      }

      .cls-17 {
        fill: #f47725;
      }

      .cls-18 {
        letter-spacing: -.05em;
      }

      .cls-19 {
        letter-spacing: 0em;
      }

      .cls-20 {
        fill: #f1f2f2;
      }

      .cls-2 {
        stroke: #121517;
      }

      .cls-6 {
        font-size: 4.79px;
      }

      .cls-6, .cls-7, .cls-8, .cls-11, .cls-13, .cls-14 {
        font-family: Rockwell-ExtraBold, 'Rockwell Extra Bold';
      }

      .cls-7 {
        font-size: 2.72px;
      }

      .cls-21 {
        letter-spacing: 0em;
      }

      .cls-22 {
        letter-spacing: -.03em;
      }

      .cls-8 {
        font-size: 7.66px;
      }

      .cls-23 {
        letter-spacing: -.03em;
      }

      .cls-24 {
        letter-spacing: -.05em;
      }

      .cls-9 {
        font-size: 3.68px;
      }

      .cls-10 {
        font-size: 3.17px;
      }

      .cls-11 {
        font-size: 5.16px;
      }

      .cls-25 {
        letter-spacing: -.05em;
      }

      .cls-26 {
        letter-spacing: -.04em;
      }

      .cls-12 {
        fill-rule: evenodd;
      }

      .cls-13 {
        font-size: 10.37px;
      }

      .cls-14 {
        font-size: 4.42px;
      }

      .cls-15 {
        font-size: 3.72px;
      }

      .cls-27 {
        letter-spacing: -.03em;
      }

      .cls-28 {
        letter-spacing: -.03em;
      }

      .cls-29 {
        letter-spacing: -.05em;
      }

      .cls-30 {
        letter-spacing: 0em;
      }

      .cls-31 {
        letter-spacing: -.04em;
      }

      .cls-16 {
        font-size: 2.3px;
      }
    </style>
  </defs>
  <g id="cladire">
    <g>
      <rect class="cls-20" x="5" y="5" width="273.44" height="168.2"/>
      <path class="cls-20" d="M273.44,10v158.2H10V10h263.44M283.44,0H0v178.2h283.44V0h0Z"/>
      <rect class="cls-1" x="10" y="10" width="263.44" height="158.2"/>
    </g>
  </g>
  <g id="magazine">
    <polyline class="cls-3" points="10 75.4 105.39 75.4 105.39 57.62 105.39 50.24 117.73 50.24 117.73 21.34 131.98 21.34 131.98 10"/>
    <polyline class="cls-3" points="10 80.87 105.58 80.87 105.58 168.2"/>
    <polyline class="cls-3" points="94.01 80.87 94.01 97.9 105.58 97.9"/>
    <polyline class="cls-3" points="105.39 50.24 57.29 50.24 57.29 27.48 10 27.48"/>
    <line class="cls-3" x1="142.11" y1="21.34" x2="142.11" y2="50.26"/>
    <polyline class="cls-3" points="164.44 50.26 164.44 21.34 129.97 21.34"/>
    <polyline class="cls-3" points="273.44 73.23 235.07 73.23 235.07 107.77 273.44 107.77"/>
    <line class="cls-3" x1="235.07" y1="95.54" x2="273.44" y2="95.54"/>
    <line class="cls-3" x1="254.26" y1="107.77" x2="254.26" y2="168.2"/>
    <polyline class="cls-3" points="113.48 168.2 113.48 137.98 228.06 137.98 228.06 113.52 248.38 113.52 248.38 152.74 213.49 152.74 213.49 168.2"/>
    <line class="cls-3" x1="187.58" y1="137.98" x2="187.58" y2="168.2"/>
    <line class="cls-3" x1="166.82" y1="137.98" x2="166.82" y2="168.2"/>
    <line class="cls-3" x1="150.74" y1="137.98" x2="150.74" y2="168.2"/>
    <polyline class="cls-3" points="240.41 113.52 240.41 124.31 248.38 124.31"/>
    <polyline class="cls-3" points="228.06 137.98 232.95 142.88 248.38 142.88"/>
    <line class="cls-3" x1="213.49" y1="152.74" x2="213.49" y2="137.98"/>
    <polyline class="cls-3" points="164.44 28.56 155.34 28.56 155.34 50.26"/>
    <polyline class="cls-3" points="117.73 50.24 189.23 50.24 189.23 20.26 133.9 20.26 131.98 20.26"/>
  </g>
  <g id="logo">
    <path class="cls-17" d="M268.13,140.66c0-.62-.5-1.12-1.12-1.12h-7.32c-.62,0-1.12.5-1.12,1.12v7.32c0,.62.5,1.12,1.12,1.12h7.32c.62,0,1.12-.5,1.12-1.12v-7.32ZM265.44,140.96c.31,0,.56.25.56.56s-.25.56-.56.56-.56-.25-.56-.56.25-.56.56-.56ZM261.13,140.96c.31,0,.56.25.56.56s-.25.56-.56.56-.56-.25-.56-.56.25-.56.56-.56ZM262.24,142.56l-.16,1.87c-.01.12-.09.22-.2.26h0c-.11.05-.19.15-.2.27l-.15,2.43c-.01.16-.15.29-.31.29h-.21c-.16,0-.3-.13-.31-.29l-.15-2.43c0-.12-.08-.23-.2-.27-.11-.04-.19-.15-.2-.26l-.15-1.87c-.01-.15.09-.29.24-.33l.15-.03c.1-.02.21,0,.28.08l.21.22c.12.12.32.12.44,0l.22-.22c.08-.07.18-.1.28-.08l.16.03c.14.04.24.18.23.33ZM263.43,147.68c0,.08-.07.15-.15.15s-.15-.07-.15-.15v-6.72c0-.08.07-.15.15-.15s.15.07.15.15v6.72ZM266.53,144.69c-.11.03-.17.13-.16.23l.07.48c.02.11-.06.22-.18.24l-.14.02c-.1.02-.17.1-.18.2l-.09,1.54c-.01.16-.15.29-.31.29h-.21c-.16,0-.3-.13-.31-.29l-.09-1.54c0-.1-.08-.18-.18-.2l-.14-.02c-.11-.01-.19-.12-.18-.24l.07-.48c.02-.1-.05-.21-.16-.23-.11-.03-.18-.13-.15-.25l.42-2c.03-.14.19-.21.32-.13l.4.25c.07.04.16.04.23,0l.39-.25c.12-.08.29-.01.32.13l.42,2c.02.11-.05.22-.16.25Z"/>
    <path class="cls-17" d="M170.09,74.84c-.27.04-1.29.29-2.27.54-7.12,1.86-12.9,7.64-14.94,14.92-.61,2.21-.85,6.59-.46,8.95,1.04,6.49,5.15,12.27,10.94,15.36,2.4,1.29,6.72,2.63,6.72,2.09s-2.34-12.77-2.53-13.25c-.11-.29-1.06-1.33-2.11-2.3-2.17-2-2.71-2.78-3.13-4.59-.35-1.52-2.02-11.85-2.02-12.52,0-.5.65-.88.98-.56.1.1.77,2.8,1.48,6.03,1.21,5.43,1.33,5.84,1.73,5.89.23.04.46-.06.52-.19.06-.13-.5-2.88-1.23-6.11-.73-3.23-1.29-5.91-1.23-6.01.04-.08.31-.13.59-.13h.54l1.32,5.99c1.36,6.12,1.48,6.39,2.21,5.93.23-.15.08-1.07-1.04-6.05-.73-3.23-1.27-6.01-1.19-6.16.06-.15.31-.29.56-.29.42,0,.5.17,1.29,3.69,1.96,8.79,1.82,8.31,2.27,8.37.23.04.46-.06.52-.19.06-.13-.5-2.88-1.23-6.11-1.21-5.34-1.29-5.88-1.02-6.11.73-.56.85-.27,2.77,6.39,1.79,6.14,1.88,6.61,1.8,7.97-.06,1.19-.21,1.79-.96,3.46-.61,1.42-.88,2.28-.88,2.88,0,1.02,3.55,13.5,3.73,13.06.06-.15.5-2.17.98-4.46l.88-4.17-.33-.98c-.35-1.08-.33-1.98.23-7.3.36-3.65,1-6.72,2.19-10.7,1.27-4.22,2.54-6.8,4.11-8.41,2-2.04,3.19-1.86,3.19.46,0,1.61-4.7,26.06-5.2,27-.25.48-.63,2.17-1.06,4.61-.37,2.11-.71,4.07-.77,4.36l-.1.52,1.02-.29c4.07-1.17,7.14-3.01,9.98-5.99,3.8-3.97,5.74-8.85,5.76-14.44.02-5.97-2.11-11.16-6.3-15.28-2.94-2.92-6.87-4.97-10.98-5.76-1.31-.25-6.13-.35-7.34-.13h0ZM170.09,74.84"/>
    <text class="cls-13" transform="translate(60.98 34.72)"><tspan x="0" y="0">MILLION</tspan></text>
    <text class="cls-8" transform="translate(33.99 61.12)"><tspan x="0" y="0">SPCRPCIV</tspan><tspan class="cls-28" x="-4.31" y="9">D</tspan><tspan class="cls-19" x="2.17" y="9">AMB</tspan><tspan class="cls-31" x="22.99" y="9">O</tspan><tspan x="29.35" y="9">VI</tspan><tspan class="cls-24" x="38.6" y="9">T</tspan><tspan x="43.96" y="9">A</tspan></text>
    <text class="cls-16" transform="translate(100.46 95.15) rotate(-90) scale(1.3 1)"><tspan x="0" y="0">XPRESS</tspan></text>
    <text class="cls-7" transform="translate(177.22 164.59) rotate(-90) scale(.96 1)"><tspan x="0" y="0">MESOP</tspan><tspan class="cls-29" x="11.34" y="0">O</tspan><tspan class="cls-25" x="13.57" y="0">T</tspan><tspan x="15.47" y="0">AMIA</tspan></text>
    <g>
      <path class="cls-5" d="M249.26,97.31h.32v.66h-.32c-.09-.24-.25-.36-.47-.36-.18,0-.32.06-.42.19-.09.12-.14.28-.14.45s.05.33.15.44c.1.11.23.17.38.17.13,0,.24-.04.33-.13.09-.09.16-.21.19-.36l.37.18c-.14.44-.45.66-.93.66-.34,0-.59-.09-.76-.27-.17-.18-.26-.41-.26-.69,0-.2.04-.37.13-.52.09-.15.21-.26.36-.34.15-.08.32-.11.5-.11.22,0,.41.06.56.17v-.15Z"/>
      <path class="cls-5" d="M249.8,99.19v-.32h.29v-1.25h-.29v-.32h1.06v.32h-.29v1.25h.29v.32h-1.06Z"/>
      <path class="cls-5" d="M252.1,97.28c.32,0,.58.09.77.28.19.19.28.42.28.69s-.09.5-.28.69c-.19.19-.44.28-.76.28s-.59-.1-.77-.29c-.18-.19-.27-.42-.27-.68s.09-.5.28-.68c.19-.19.44-.28.77-.28ZM252.1,97.62c-.14,0-.27.05-.37.16s-.15.27-.15.48c0,.18.05.33.15.44.1.11.22.17.37.17s.27-.05.37-.16c.1-.11.15-.27.15-.47,0-.18-.05-.33-.14-.45-.1-.11-.22-.17-.37-.17Z"/>
      <path class="cls-5" d="M255.3,98.87v.32h-.57l-.42-.82h-.22v.51h.24v.32h-.98v-.32h.26v-1.25h-.26v-.32h1.13c.21,0,.37.05.46.16.09.11.14.23.14.37,0,.21-.11.37-.33.47l.31.57h.24ZM254.09,98.07h.17c.21,0,.31-.07.31-.22,0-.07-.02-.13-.07-.16-.05-.04-.11-.05-.2-.05h-.21v.44Z"/>
      <path class="cls-5" d="M255.39,99.19v-.32h.23v-1.25h-.23v-.32h.86c.19,0,.33.01.42.03.09.02.17.08.24.16.07.08.1.18.1.3,0,.18-.09.31-.27.39.23.08.34.23.34.45,0,.12-.03.23-.1.32-.07.09-.16.15-.27.18s-.26.05-.46.05h-.86ZM256.11,98.05h.14c.1,0,.17-.02.21-.05s.07-.09.07-.17c0-.07-.02-.13-.07-.16-.04-.03-.12-.05-.23-.05h-.12v.42ZM256.11,98.87h.14c.12,0,.21-.02.26-.05.05-.04.07-.1.07-.19s-.03-.16-.08-.2-.14-.06-.26-.06h-.14v.5Z"/>
      <path class="cls-5" d="M257.32,99.19v-.32h.23v-1.25h-.23v-.32h1.66v.6h-.36v-.28h-.58v.43h.47v.32h-.47v.49h.58v-.28h.36v.6h-1.66Z"/>
      <path class="cls-5" d="M252.13,102.44v-.64h.32c0,.12.03.2.09.26s.12.08.2.08c.06,0,.11-.02.15-.06.04-.04.06-.09.06-.14,0-.06-.02-.11-.06-.15s-.11-.08-.21-.13c-.22-.1-.36-.2-.44-.28s-.12-.19-.12-.33c0-.16.05-.29.15-.38.1-.09.22-.13.35-.13.15,0,.27.06.35.17v-.16h.32v.57h-.32c-.01-.09-.04-.16-.09-.2-.05-.05-.11-.07-.18-.07-.05,0-.1.01-.13.04-.04.03-.05.06-.05.11,0,.04.01.08.04.11.03.04.12.08.26.15.14.06.25.12.32.17.07.05.13.12.18.2s.06.17.06.28c0,.19-.05.33-.16.42-.11.09-.24.14-.38.14-.17,0-.29-.06-.38-.18v.16h-.32Z"/>
      <path class="cls-5" d="M253.53,102.44v-.32h.29v-1.25h-.29v-.32h1.06v.32h-.29v1.25h.29v.32h-1.06Z"/>
      <path class="cls-5" d="M247.36,105.38v.32h-.99v-.32h.24v-1.25h-.24v-.32h.99c.23,0,.41.05.53.16s.19.25.19.44c0,.1-.02.2-.07.28-.04.09-.1.15-.17.2-.07.05-.15.08-.24.09-.09.02-.2.02-.33.02h-.18v.37h.26ZM247.1,104.7h.07c.17,0,.28-.03.32-.08.05-.05.07-.12.07-.2,0-.07-.02-.13-.05-.17-.03-.05-.07-.08-.11-.09-.04-.01-.11-.02-.21-.02h-.09v.57Z"/>
      <path class="cls-5" d="M248.21,105.69v-.32h.27v-1.25h-.27v-.32h1.03v.32h-.27v1.25h.56v-.58h.37v.9h-1.68Z"/>
      <path class="cls-5" d="M251.86,105.38v.32h-.92v-.32h.24l-.09-.32h-.49l-.1.32h.25v.32h-.83v-.32h.23l.37-1.25h-.25v-.32h1.23v.32h-.25l.39,1.25h.22ZM251.01,104.78l-.16-.57-.17.57h.33Z"/>
      <path class="cls-5" d="M253.49,103.81h.32v.66h-.32c-.09-.24-.25-.36-.47-.36-.18,0-.32.06-.42.19-.09.12-.14.28-.14.45s.05.33.15.44c.1.11.23.17.38.17.13,0,.24-.04.33-.13.09-.09.16-.21.19-.36l.37.18c-.14.44-.45.66-.93.66-.34,0-.59-.09-.76-.27-.17-.18-.26-.41-.26-.69,0-.2.04-.37.13-.52.09-.15.21-.26.36-.34.15-.08.32-.11.5-.11.22,0,.41.06.56.17v-.15Z"/>
      <path class="cls-5" d="M254.02,105.69v-.32h.29v-1.25h-.29v-.32h1.06v.32h-.29v1.25h.29v.32h-1.06Z"/>
      <path class="cls-5" d="M255.22,105.69v-.32h.25v-1.25h-.25v-.32h.79l.69,1.17v-.85h-.25v-.32h.84v.32h-.26v1.58h-.42l-.81-1.39v1.06h.24v.32h-.82Z"/>
      <path class="cls-5" d="M257.74,105.69v-.32h.28v-1.25h-.28v.44h-.32v-.76h1.7v.76h-.32v-.44h-.29v1.25h.28v.32h-1.05Z"/>
      <path class="cls-5" d="M259.3,105.69v-.32h.23v-1.25h-.23v-.32h1.66v.6h-.36v-.28h-.58v.43h.47v.32h-.47v.49h.58v-.28h.36v.6h-1.66Z"/>
    </g>
    <g>
      <path class="cls-5" d="M125.43,35.19h-1.32v-.68h.22v-1.48h-.22v-.68h1.36c.31,0,.56.02.76.06.2.04.38.12.56.23.17.12.31.28.41.49.05.1.09.2.11.31.03.11.04.23.04.35,0,.25-.05.47-.16.67-.1.2-.23.36-.39.46-.16.11-.33.18-.51.21-.18.03-.47.05-.85.05ZM125.43,33.03v1.48h.1c.26,0,.43-.07.5-.21.08-.14.11-.31.11-.52,0-.12-.02-.25-.05-.37-.03-.12-.09-.22-.18-.28-.08-.07-.24-.1-.45-.1h-.04Z"/>
      <path class="cls-5" d="M129.32,35.19h-1.62v-.68h.26v-1.48h-.26v-.68h1.62v.68h-.26v1.48h.26v.68Z"/>
      <path class="cls-5" d="M130.77,35.19h-1.17v-.68h.25v-1.48h-.25v-.68h1.35l1.03,1.48v-.8h-.23v-.68h1.15v.68h-.25v2.2h-.94l-1.2-1.72v1h.25v.68Z"/>
      <path class="cls-5" d="M134.81,35.19h-1.62v-.68h.26v-1.48h-.26v-.68h1.62v.68h-.26v1.48h.26v.68Z"/>
      <path class="cls-5" d="M126.14,40.11h-2.7v-.68h.26v-1.48h-.26v-.68h1.62v.68h-.27v1.48h.67v-.46h.68v1.14Z"/>
      <path class="cls-5" d="M127.38,40.11h-1.12v-.68h.22l.53-1.48h-.23v-.68h2.04v.68h-.23l.54,1.48h.21v.68h-1.48v-.62h.25l-.11-.36h-.73l-.12.36h.23v.62ZM127.65,37.99l-.27.79h.51l-.24-.79Z"/>
      <path class="cls-5" d="M130.69,40.11h-1.17v-.68h.25v-1.48h-.25v-.68h1.35l1.03,1.48v-.8h-.23v-.68h1.15v.68h-.25v2.2h-.94l-1.2-1.72v1h.25v.68Z"/>
      <path class="cls-5" d="M134.49,40.11h-1.32v-.68h.22v-1.48h-.22v-.68h1.36c.31,0,.56.02.76.06.2.04.38.12.56.23.17.12.31.28.41.49.05.1.09.2.11.31.03.11.04.23.04.35,0,.25-.05.47-.16.67-.1.2-.23.36-.39.46-.16.11-.33.18-.51.21-.18.03-.47.05-.85.05ZM134.49,37.95v1.48h.1c.26,0,.43-.07.5-.21.08-.14.11-.31.11-.52,0-.12-.02-.25-.05-.37-.03-.12-.09-.22-.18-.28-.08-.07-.24-.1-.45-.1h-.04Z"/>
    </g>
    <text class="cls-4" transform="translate(161.01 47.52) rotate(-90)"><tspan x="0" y="0">LET’S PL</tspan><tspan class="cls-27" x="12.41" y="0">A</tspan><tspan x="14.27" y="0">Y</tspan></text>
    <g>
      <path class="cls-5" d="M247.99,80.34h-.64l-.14.56c.31.02.74.3.39.63-.04.04-3.65,2.8-3.65,2.8l.78-2.81c.16-.54.75-.61.75-.61l.14-.56h-4.34s-.14.57-.14.57c.21.05.8.16.59.95-1.45,5.23-1.28,4.71-1.38,5-.39,1.51-1.03,1.44-1.26,1.45l-.14.56v.04s0,0,0,0h4.53l.15-.61s-.72-.14-.58-.67c.14-.51.71-2.57.71-2.57,2.01,3.22,2.5,3.78,4.25,3.86.59.03,1.33,0,2.31,0l.15-.61c-.57,0-.95-.41-1.18-.66-.12-.13-.73-1.05-1.28-1.89-.5-.77-.95-1.47-.95-1.47l.95-.76,2.71-2.17c.61-.51,1.05-.46,1.05-.46l.14-.56h-3.9Z"/>
      <path class="cls-5" d="M266.39,80.26c-.48,0-.94.02-1.39.07-3.64.42-5.84,2.71-5.83,5.01,0,1.92,1.56,3.77,5.16,3.76.23,0,.45-.01.67-.02.87-.05,1.64-.17,2.34-.31l.42-1.79c-.7.23-1.58.43-2.29.43-.16,0-.32,0-.47-.02-1.65-.17-2.73-1.23-2.74-2.6,0-1.41,1.02-2.52,2.74-2.81.29-.05.59-.07.92-.07,1.11,0,1.67.36,2.03.85h.3l.59-2.11c-.6-.2-1.5-.37-2.45-.38Z"/>
      <path class="cls-5" d="M256.83,80.34h-4.28l-.14.56s.85.1.59.95l-1.94,7.06h3.88s.14-.6.14-.6c0,0-.73-.18-.54-.84.02-.06.57-2.1.57-2.1h1.71s.07,0,.07,0c.89,0,1.18.46,1.18.46l.52-2.1h-3l.45-1.65h2.6c.48,0,.82.32.82.55h.29l.57-2.3h-3.5Z"/>
    </g>
    <g>
      <g>
        <path class="cls-5" d="M202.34,151.79c-.26,0-.53,0-.79,0-.21,0-.22.08-.15.24.16.37.4.65.82.7.27.03.35.16.37.43.04.9.24,1.76.59,2.59.03.06.08.14.03.2-.06.06-.13,0-.2-.02-.89-.28-1.78-.56-2.72-.66-.81-.09-1.6-.03-2.39.12-.35.07-.36.06-.31-.27.15-.92-.02-1.82-.18-2.73-.4-2.25,1.39-3.42,2.85-3.49.77-.04,1.41.32,1.97.83.94.85,1.6,1.89,2.13,3.03.04.09.18.22-.02.3-.25.1-.45.06-.52-.12-.11-.29-.22-.58-.31-.87-.07-.21-.18-.3-.41-.28-.25.02-.51,0-.77,0,0,0,0,0,0,0Z"/>
        <path class="cls-5" d="M195.05,154.94c.05-.21.17-.4.2-.62.05-.36.02-.7-.12-1.04-.4-1-.67-2.03-.67-3.11,0-2.2,1.27-4.01,3.35-4.75.95-.34,1.94-.49,2.95-.53.86-.03,1.72,0,2.58.1.24.03.29.1.18.32-.27.55-.52,1.1-.77,1.65-.09.2-.21.25-.42.18-.9-.33-1.83-.42-2.78-.38-1.67.07-3.36,1.3-3.81,2.81-.21.72-.12,1.45-.03,2.18.07.57.17,1.13.08,1.71-.09.58-.35,1.06-.74,1.48Z"/>
        <path class="cls-5" d="M200.02,146.98c.17,0,.33,0,.5,0,.13,0,.16.07.09.17-.28.39-.33.85-.38,1.3-.01.14-.07.2-.21.22-1.04.17-1.85.69-2.47,1.54-.08.1-.14.11-.24.03-.36-.29-.76-.44-1.22-.42-.21.01-.17-.13-.14-.25.17-.61.52-1.1.99-1.5.94-.79,1.83-1.1,3.06-1.1Z"/>
        <path class="cls-5" d="M211.03,158.07l-.08,2.87s-2.49-2.61-2.56-2.58l-.06,2.39c.06.04.17.06.34.08v.13h-1.1v-.17c.16-.02.28,0,.33-.07.01-.69.03-1.4.04-2.09-.02-.46.18-1.11-.48-1.23,0,0,.56,0,.82,0l2.3,2.58.02-2.02c0-.25-.01-.44-.32-.49h1.03c-.37.07-.29.36-.29.6Z"/>
        <path class="cls-5" d="M198.47,160.78v.13h-1.1v-.13c.1-.01.18-.03.24-.05.02-.08-.01-.17-.04-.25-.23-.66-.46-1.31-.69-1.97-.03-.1-.08-.19-.12-.29-.02,0-.05,0-.07,0-.22.56-.45,1.12-.67,1.69-.07.17-.13.34-.2.52-.05.11-.1.23-.05.33h0c.06.02.14.03.24.04v.13h-1.1v-.13c.11-.01.18-.03.25-.06.26-.36.37-.77.54-1.14.31-.67.57-1.36.85-2.05.02-.06.05-.11.08-.17.04-.07.06-.16.15-.16s.12.09.15.16c.17.45.34.91.51,1.36.2.54.41,1.08.61,1.62.02.04.03.08.04.12.02.05.03.09.05.14.02.06.05.1.09.13.06.02.14.03.23.04Z"/>
        <path class="cls-5" d="M194.15,157.33c-.52-.13-1.03.03-1.56.04.27.07.29.26.29.48l-.05,2.45c0,.12,0,.25-.02.37,0,.01,0,.02,0,.03h0c-.08.07-.17.08-.32.1v.13h1.1v-.13c-.12-.01-.21-.03-.28-.05-.03-.03-.04-.08-.03-.16v-1.13c0-.18.06-.27.25-.26.2,0,.4-.04.59-.1.43-.14.7-.57.69-1.13,0-.23-.32-.55-.66-.64ZM194.3,158.37c-.1.34-.49.57-.83.51-.11-.02-.15-.08-.15-.18v-.42s-.06-.53.1-.58c.26-.08.55-.08.78.11.17.15.17.36.11.56Z"/>
        <path class="cls-5" d="M190.31,160.21c.21.32.51.37.81.34.47-.04.65-.44.41-.84-.13-.2-.31-.36-.49-.51-.22-.19-.45-.37-.6-.62-.31-.52-.05-1.13.53-1.29.26-.07.53,0,.78-.05.24-.07.29-.17.29-.17l-.05.8c-.15-.37-.46-.3-.77-.23-.37.08-.52.41-.33.75.18.33.5.54.76.79.2.19.39.38.45.67.09.45-.22.95-.66,1.05-.26.06-.52.05-.79.02-.12-.01-.3-.05-.39.11-.02-.02.02-.57.03-.82Z"/>
        <path class="cls-5" d="M204.21,157.24v.75c-.07-.18-.24-.22-.43-.23l-.5-.02c-.2-.02-.3.05-.3.26l.02,2.48c.01.1,0,.19.03.27.06.02.16.04.29.06v.13h-1.1v-.13c.11-.01.19-.03.26-.06.05-.11.02-.25.04-.38l.04-2.35c0-.23-.07-.32-.31-.3,0,0-.54,0-.67.04h0c-.07.01-.14.04-.19.08,0,0,0,0,0,0-.04.03-.07.08-.08.13v-.75c.02.09.19.15.31.15.07,0,.45,0,.57.01.34,0,.68,0,1.03,0,.22,0,.44,0,.66,0,.13,0,.24-.02.33-.15Z"/>
        <circle class="cls-5" cx="196.7" cy="159.18" r=".18"/>
        <circle class="cls-5" cx="205.66" cy="159.18" r=".18"/>
        <path class="cls-5" d="M207.45,160.83v.13h-1.1s0-.13,0-.13c.1-.01.18-.03.24-.05.02-.08-.01-.17-.04-.25-.23-.66-.46-1.31-.69-1.97-.03-.1-.08-.19-.12-.29-.02,0-.05,0-.07,0-.22.56-.45,1.12-.67,1.69-.07.17-.13.34-.2.52-.05.11-.1.23-.05.33h0c.06.02.14.03.24.04v.13h-1.1v-.13c.11-.01.18-.03.25-.06.26-.36.37-.77.54-1.14.31-.67.57-1.36.85-2.05.02-.06.05-.11.08-.17.04-.07.06-.16.15-.16s.12.09.15.16c.17.45.34.91.51,1.36.2.54.41,1.08.61,1.62.02.04.03.08.04.12.02.05.03.09.05.14.02.06.05.1.09.13.06.02.14.03.23.04Z"/>
      </g>
      <path class="cls-5" d="M201.48,160.81v.13h-.8v-.11s0-.03-.01-.05c-.13-.19-.16-.22-.23-.34-.25-.42-.54-.81-.82-1.2-.19-.26-.15-.36.15-.44.06-.02.12-.04.17-.07.36-.15.51-.4.41-.71-.09-.29-.41-.43-.76-.36-.18.04-.16.17-.16.29,0,.55,0,1.09,0,1.64,0,.26-.02.51-.02.77,0,.13-.01.26.05.37.06.02.15.03.26.05v.13h-1.1v-.13c.14-.02.23-.03.31-.09h0c.04-.1.03-.22.03-.33,0-.85.02-1.71.03-2.56,0-.17-.03-.33-.23-.43.53.02,1.05-.17,1.56,0,.56.18.67.95.2,1.4-.03.02-.05.05-.08.07q-.37.29-.11.68c.19.28.38.55.57.83.06.09.12.18.17.27,0,0,0,0,0,0,.05.08.12.13.22.17.05,0,.11.02.18.03Z"/>
    </g>
    <text class="cls-9" transform="translate(150 48.58) rotate(-90)"><tspan x="0" y="0">LALA GAMES</tspan></text>
    <path id="Mobexpert" class="cls-12" d="M24.79,122.36h.81v3.7h0v2.38h1.77v-2.38h0v-3.7h.81c.6,0,1.09.63,1.09,1.41v4.67h1.8v-5.12c0-1.5-1.17-2.72-2.61-2.72h-3.94c-1.43,0-2.61,1.22-2.61,2.72v5.12h1.8v-4.67c0-.77.49-1.41,1.09-1.41h0ZM34.67,120.51h1.96c1.63,0,2.93,1.23,2.93,2.87v2.27c0,1.63-1.29,2.87-2.93,2.87h-1.96c-1.63,0-2.88-1.23-2.88-2.87v-2.27c0-1.63,1.25-2.87,2.88-2.87h0ZM35.2,122.08c-.81,0-1.46.73-1.46,1.64v1.59c0,.91.64,1.62,1.46,1.62h.89c.81,0,1.5-.71,1.5-1.62v-1.59c0-.91-.68-1.64-1.49-1.64h-.89ZM42.05,122.13h2.51c.39,0,.7.32.7.7v.26c0,.39-.32.7-.7.7h-2.51v-1.66h0ZM42.05,125.32h2.51c.39,0,.7.3.7.67v.25c0,.37-.32.67-.7.67h-2.51v-1.6h0ZM40.24,120.63v7.89h5.22c.42,0,.81-.11,1.13-.39.98-.87.98-2.91-.23-3.44-.02,0-.04-.02-.06-.02-.32-.12-.38-.03-.03-.15.03-.01.06-.02.09-.04,1.21-.53,1.21-2.57.23-3.44-.32-.28-.71-.39-1.13-.39h-5.22ZM70.52,120.61h5.23l-1.03,1.52h-3.38c-.13,0-.24.11-.24.24v1.41h4.65l-1.04,1.52h-3.61v1.36c0,.13.11.24.24.24h4.41l-1.02,1.52h-4.22c-.69,0-1.25-.57-1.25-1.26v-5.27c0-.7.56-1.26,1.25-1.26h0ZM54.06,128.42h2.15l1.6-2.3,1.6,2.3h2.15l-2.65-3.88,2.74-3.94h-2.23l-1.6,2.34-1.6-2.34h-7.12c-.69,0-1.25.57-1.25,1.26v5.27c0,.7.56,1.26,1.25,1.26h4.22l1.02-1.52h-4.41c-.13,0-.24-.11-.24-.24v-1.36h3.61l1.04-1.52h-4.65v-1.41c0-.13.11-.24.24-.24h3.38l.86-1.27,2.56,3.69-2.65,3.88h0ZM61.93,120.6h5.19c.98,0,1.79.8,1.79,1.79v1.8c0,.98-.8,1.79-1.79,1.79h-3.4v2.53h-1.79v-7.9h0ZM63.72,122.12v2.34h2.44c.43,0,.78-.35.78-.78v-.79c0-.43-.35-.78-.78-.78h-2.44ZM76.06,120.6h5.19c.98,0,1.79.8,1.79,1.79v1.47c0,.66-.36,1.24-.9,1.55.76.48.95,1.26.93,2.1v.91h-1.93c0-.2,0-.41,0-.61,0-.58.01-1.25-.52-1.65-.26-.19-.46-.19-.76-.19h-2v2.53h-1.79v-7.9h0ZM77.85,122.12v2.34h2.44c.43,0,.78-.35.78-.78v-.79c0-.43-.35-.78-.78-.78h-2.44ZM83.24,120.59h7.13l-.84,1.52h-2.14v6.39h-1.76v-6.39h-2.38v-1.52h0ZM88.06,127.74c-.07,0-.14.02-.2.05-.07.04-.12.09-.15.15-.04.07-.05.13-.05.2s.02.14.05.2c.04.06.09.12.15.15.06.04.13.05.2.05s.14-.02.2-.05c.06-.04.11-.09.15-.15.04-.06.05-.13.05-.2s-.02-.14-.05-.2c-.04-.07-.09-.12-.15-.15-.07-.03-.13-.05-.2-.05h0ZM88.06,127.81c-.06,0-.11.01-.17.04-.05.03-.1.07-.13.13-.03.05-.05.11-.05.17s.02.11.05.17c.03.05.07.1.13.13.05.03.11.05.17.05s.12-.02.17-.05c.05-.03.1-.07.13-.13.03-.05.04-.11.04-.17s-.02-.12-.05-.17c-.03-.05-.07-.1-.13-.13-.05-.03-.11-.04-.17-.04h0ZM87.89,128.37h.07v-.19h.04s.04,0,.06.02c.02.01.04.05.07.1l.04.07h.09l-.05-.09s-.05-.07-.06-.09c0,0-.02-.02-.04-.02.04,0,.07-.02.09-.04.02-.02.03-.05.03-.08,0-.02,0-.04-.02-.06-.01-.02-.03-.03-.06-.04-.02,0-.06-.01-.11-.01h-.15v.44h0ZM87.96,128.13h.09s.07,0,.08-.02c.01-.01.02-.03.02-.05,0-.01,0-.02-.01-.03,0-.01-.02-.02-.03-.02-.01,0-.04,0-.07,0h-.08v.13Z"/>
    <text class="cls-10" transform="translate(229.72 132.98) scale(1.18 1)"><tspan x="0" y="0">PUII MEI</tspan></text>
    <text class="cls-15" transform="translate(216.5 148.85)"><tspan x="0" y="0">PIZZA BONI</tspan><tspan class="cls-23" x="22.73" y="0">T</tspan><tspan class="cls-30" x="25.14" y="0">A</tspan></text>
    <text class="cls-6" transform="translate(142.72 165.43) rotate(-90)"><tspan x="0" y="0">SHERIFF</tspan></text>
    <text class="cls-14" transform="translate(160.35 159.5) rotate(-90)"><tspan x="0" y="0">IUTE</tspan></text>
    <text class="cls-6" transform="translate(123.5 162.44) rotate(-90)"><tspan x="0" y="0">SMOLS</tspan></text>
    <text class="cls-11" transform="translate(178.04 46.91) rotate(-90)"><tspan x="0" y="0">F</tspan><tspan class="cls-26" x="3.65" y="0">R</tspan><tspan class="cls-21" x="7.85" y="0">Y</tspan><tspan class="cls-22" x="11.61" y="0">D</tspan><tspan class="cls-18" x="15.97" y="0">A</tspan><tspan x="19.64" y="0">Y</tspan></text>
    <line class="cls-3" x1="130.7" y1="137.93" x2="130.7" y2="168.14"/>
  </g>
  <rect id="Dambovita_MallFF18" class="cls-2" x="118.48" y="21.34" width="22.98" height="28.19"/>
  <polygon id="Dambovita_MallFF19_x5E_TE01" class="cls-2" points="11.25 11.24 11.25 26.64 57.79 26.64 57.79 49.52 117.14 49.52 117.14 20.78 131.17 20.78 131.17 11.24 11.25 11.24"/>
  <polygon id="Dambovita_MallFF17_x5F_A_x5E_TI01" class="cls-2" points="142.72 21.34 142.72 49.89 154.74 49.89 154.74 27.34 163.83 27.34 163.83 21.34 142.72 21.34"/>
  <rect id="Dambovita_MallFF17_x5F_B" class="cls-2" x="156.12" y="29.24" width="7.7" height="20.28"/>
  <polygon id="Dambovita_MallFF20" class="cls-2" points="11.25 28.56 11.25 74.73 104.84 74.73 104.84 50.79 56.73 50.79 56.73 28.02 11.25 28.56"/>
  <rect id="Dambovita_MallFF02_x5F_03" class="cls-2" x="94.72" y="81.49" width="10.12" height="15.52"/>
  <polygon id="Dambovita_MallFF01" class="cls-2" points="11.25 81.49 11.25 166.8 104.84 166.8 104.84 98.85 93.23 98.85 93.23 81.49 11.25 81.49"/>
  <rect id="Dambovita_MallFF07" class="cls-2" x="151.54" y="138.63" width="14.59" height="28.17"/>
  <rect id="Dambovita_MallFF08" class="cls-2" x="167.62" y="138.63" width="19.2" height="28.17"/>
  <rect id="Dambovita_MallFF09_x5F_10" class="cls-2" x="188.43" y="138.63" width="24.26" height="28.17"/>
  <polygon id="Dambovita_MallFF11" class="cls-2" points="214.3 138.63 214.3 151.74 247.53 151.74 247.53 143.69 232.58 143.69 228.06 138.63 214.3 138.63"/>
  <polygon id="Dambovita_MallFF12" class="cls-2" points="228.79 114.14 228.79 137.98 233.27 142.28 247.53 142.28 247.53 125.18 239.48 125.18 239.48 114.14 228.79 114.14"/>
  <rect id="Dambovita_MallFF13" class="cls-2" x="235.91" y="95.78" width="36.1" height="11.12"/>
  <rect id="Dambovita_MallFF14" class="cls-2" x="235.91" y="74.13" width="36.1" height="20.47"/>
  <rect id="Dambovita_MallFF15-16_x5E_TI02" class="cls-2" x="165.17" y="20.86" width="23.29" height="28.66"/>
  <rect id="Dambovita_MallFF04" class="cls-3" x="114.25" y="138.63" width="15.7" height="28.17"/>
  <rect id="Dambovita_MallFF05_x5E_FF06" class="cls-3" x="131.35" y="138.63" width="18.6" height="28.17"/>
</svg>