<?xml version="1.0" encoding="UTF-8"?><svg id="Layer_4" xmlns="http://www.w3.org/2000/svg" viewBox="0 0 380.42 236.43"><defs><style>.cls-1,.cls-2,.cls-3,.cls-4,.cls-5,.cls-6,.cls-7,.cls-8,.cls-9,.cls-10,.cls-11,.cls-12,.cls-13,.cls-14,.cls-15,.cls-16,.cls-17,.cls-18,.cls-19,.cls-20,.cls-21{isolation:isolate;}.cls-1,.cls-2,.cls-3,.cls-4,.cls-5,.cls-6,.cls-8,.cls-9,.cls-10,.cls-11,.cls-12,.cls-13,.cls-14,.cls-15,.cls-16,.cls-17,.cls-18,.cls-19,.cls-20,.cls-22,.cls-21{fill:#1d1d1b;}.cls-1,.cls-2,.cls-3,.cls-4,.cls-5,.cls-6,.cls-8,.cls-9,.cls-10,.cls-11,.cls-12,.cls-13,.cls-14,.cls-15,.cls-16,.cls-17,.cls-18,.cls-19,.cls-20,.cls-21{font-family:Axiforma-Bold, Axiforma;}.cls-1,.cls-9,.cls-10,.cls-14{font-size:3.99px;}.cls-2{letter-spacing:-.04em;}.cls-2,.cls-12,.cls-15,.cls-17,.cls-18,.cls-21{font-size:10.48px;}.cls-23{fill:#ed7013;}.cls-24{letter-spacing:-.04em;}.cls-3{font-size:3.82px;}.cls-4{font-size:4.08px;}.cls-25{fill:#f6f6f6;}.cls-5,.cls-13{font-size:4.65px;}.cls-6,.cls-11,.cls-16,.cls-19{font-size:3.28px;}.cls-8{font-size:5.39px;}.cls-9{letter-spacing:-.04em;}.cls-26{letter-spacing:-.09em;}.cls-10{letter-spacing:-.04em;}.cls-27,.cls-28,.cls-29{fill:none;stroke-miterlimit:10;}.cls-27,.cls-29{stroke:#1d1d1b;}.cls-11{letter-spacing:-.05em;}.cls-12{letter-spacing:-.03em;}.cls-13{letter-spacing:-.03em;}.cls-14,.cls-30{letter-spacing:-.02em;}.cls-28{stroke:#12100b;}.cls-31{letter-spacing:-.04em;}.cls-15{letter-spacing:-.06em;}.cls-29{stroke-width:2px;}.cls-16{letter-spacing:-.03em;}.cls-18{letter-spacing:-.1em;}.cls-32{letter-spacing:-.02em;}.cls-33{letter-spacing:-.03em;}.cls-19{letter-spacing:-.1em;}.cls-20{font-size:14.18px;}.cls-21{letter-spacing:-.03em;}</style></defs><g id="cladire"><g><rect class="cls-25" x="5" y="5" width="370.42" height="226.43"/><path class="cls-25" d="M370.42,10V226.43H10V10H370.42m10-10H0V236.43H380.42V0h0Z"/><rect class="cls-29" x="10" y="10" width="360.42" height="216.43"/></g></g><g id="magazine"><polyline class="cls-27" points="10 99.47 140.5 99.47 140.5 75.15 140.5 65.06 157.39 65.06 157.39 25.51 176.88 25.51 176.88 10"/><polyline class="cls-27" points="10 106.95 140.77 106.95 140.77 226.43"/><polyline class="cls-27" points="124.93 106.95 124.93 130.25 140.77 130.25"/><polyline class="cls-27" points="140.5 65.06 74.7 65.06 74.7 33.92 10 33.92"/><line class="cls-27" x1="190.74" y1="25.51" x2="190.74" y2="65.08"/><polyline class="cls-27" points="221.29 65.08 221.29 25.51 174.14 25.51"/><polyline class="cls-27" points="221.29 45.86 239.54 45.86 239.54 65.08 155.07 65.08"/><polyline class="cls-27" points="370.42 96.51 317.92 96.51 317.92 143.76 370.42 143.76"/><line class="cls-27" x1="317.92" y1="127.02" x2="370.42" y2="127.02"/><line class="cls-27" x1="344.17" y1="143.76" x2="344.17" y2="226.43"/><line class="cls-27" x1="252.95" y1="185.09" x2="252.95" y2="226.43"/><line class="cls-27" x1="224.54" y1="185.09" x2="224.54" y2="226.43"/><line class="cls-27" x1="212.38" y1="185.09" x2="212.38" y2="226.43"/><line class="cls-27" x1="194.63" y1="185.09" x2="194.63" y2="226.43"/><polyline class="cls-27" points="288.39 226.43 288.39 205.28 336.13 205.28 336.13 166.39 325.22 166.39 325.22 151.63 308.32 151.63 308.32 185.09 151.57 185.09 151.57 226.43"/><polyline class="cls-27" points="308.32 185.09 315.02 191.79 336.13 191.79"/><line class="cls-27" x1="288.39" y1="205.28" x2="288.39" y2="185.09"/><polyline class="cls-27" points="221.29 35.39 208.85 35.39 208.85 65.08"/><polyline class="cls-27" points="165.62 226.43 165.62 209.71 173.18 209.71 173.18 185.09"/></g><g id="logo"><path class="cls-23" d="M363.15,188.76c0-.85-.69-1.53-1.53-1.53h-10.01c-.85,0-1.53,.69-1.53,1.53v10.01c0,.85,.69,1.53,1.53,1.53h10.01c.85,0,1.53-.68,1.53-1.53v-10.01Zm-3.69,.4c.42,0,.77,.34,.77,.76s-.34,.77-.77,.77-.76-.34-.76-.77,.34-.76,.76-.76Zm-5.9,0c.42,0,.77,.34,.77,.76s-.34,.77-.77,.77-.76-.34-.76-.77,.34-.76,.76-.76Zm1.53,2.19l-.21,2.56c-.01,.16-.12,.3-.27,.36h0c-.15,.06-.26,.2-.27,.37l-.2,3.32c-.01,.22-.2,.4-.43,.4h-.28c-.22,0-.41-.18-.42-.4l-.2-3.32c-.01-.16-.11-.31-.27-.37-.15-.06-.26-.2-.27-.36l-.21-2.56c-.01-.21,.12-.4,.33-.45l.21-.05c.14-.03,.28,0,.39,.11l.29,.3c.16,.16,.43,.16,.6,0l.3-.3c.1-.1,.25-.14,.39-.11l.21,.05c.19,.05,.33,.25,.32,.45h-.01Zm1.63,7c0,.11-.09,.2-.21,.2s-.21-.09-.21-.2v-9.19c0-.11,.1-.21,.21-.21s.21,.09,.21,.21v9.19Zm4.24-4.09c-.15,.04-.24,.17-.22,.32l.09,.66c.02,.15-.09,.3-.24,.32l-.19,.02c-.13,.02-.24,.13-.24,.27l-.13,2.1c-.01,.23-.2,.4-.42,.4h-.29c-.22,0-.41-.17-.42-.4l-.13-2.1c0-.14-.11-.25-.24-.27l-.2-.02c-.15-.02-.26-.17-.24-.32l.09-.66c.02-.14-.07-.28-.21-.32-.15-.04-.24-.18-.21-.34l.58-2.74c.04-.19,.26-.29,.43-.18l.54,.35c.09,.06,.21,.06,.31,0l.54-.35c.17-.11,.39,0,.43,.18l.58,2.74c.03,.15-.07,.3-.21,.34h0Z"/><path class="cls-23" d="M229.02,98.71c-.37,.05-1.76,.39-3.1,.74-9.75,2.55-17.65,10.45-20.44,20.41-.84,3.02-1.16,9.01-.63,12.24,1.42,8.88,7.04,16.79,14.97,21.02,3.28,1.76,9.19,3.6,9.19,2.86s-3.2-17.47-3.47-18.13c-.16-.39-1.44-1.81-2.89-3.15-2.97-2.73-3.7-3.81-4.28-6.28-.47-2.07-2.76-16.21-2.76-17.13,0-.68,.89-1.21,1.34-.76,.13,.13,1.05,3.83,2.02,8.25,1.66,7.43,1.81,7.99,2.36,8.06,.32,.05,.63-.08,.71-.26s-.68-3.94-1.68-8.35c-1-4.41-1.76-8.09-1.68-8.22,.05-.11,.42-.18,.81-.18h.74l1.81,8.2c1.87,8.38,2.02,8.75,3.02,8.12,.32-.21,.11-1.47-1.42-8.27-1-4.41-1.73-8.22-1.63-8.43,.08-.21,.42-.39,.76-.39,.58,0,.68,.24,1.76,5.04,2.68,12.03,2.5,11.38,3.1,11.45,.32,.05,.63-.08,.71-.26s-.68-3.94-1.68-8.35c-1.66-7.3-1.76-8.04-1.39-8.35,1-.76,1.16-.37,3.78,8.75,2.44,8.41,2.57,9.04,2.47,10.9-.08,1.63-.29,2.44-1.31,4.73-.84,1.94-1.21,3.13-1.21,3.94,0,1.39,4.86,18.47,5.1,17.86,.08-.21,.68-2.97,1.34-6.1l1.21-5.7-.45-1.34c-.47-1.47-.45-2.71,.31-9.98,.5-4.99,1.37-9.19,2.99-14.63,1.73-5.78,3.47-9.3,5.62-11.51,2.73-2.78,4.36-2.55,4.36,.63,0,2.21-6.44,35.65-7.12,36.94-.34,.66-.87,2.97-1.44,6.3-.5,2.89-.97,5.57-1.05,5.96l-.13,.71,1.39-.39c5.57-1.6,9.77-4.12,13.66-8.2,5.2-5.44,7.85-12.11,7.88-19.75,.03-8.17-2.89-15.26-8.62-20.91-4.02-3.99-9.4-6.8-15.03-7.88-1.79-.34-8.38-.47-10.04-.18h0l.04-.03Z"/><g class="cls-7" transform="translate(84.63 43.82)"><text class="cls-20" transform="translate(84.63 43.82)"><tspan x="0" y="0">MILLION</tspan></text></g><g class="cls-7" transform="translate(47.15 79.93)"><text class="cls-17" transform="translate(47.15 79.93)"><tspan x="0" y="0">SPCRPCI</tspan></text><text class="cls-15" transform="translate(93.28 79.93)"><tspan x="0" y="0">V</tspan></text><text class="cls-21" transform="translate(41.77 92.24)"><tspan x="0" y="0">D</tspan></text><text class="cls-17" transform="translate(49.54 92.24)"><tspan x="0" y="0">AMB</tspan></text><text class="cls-12" transform="translate(73.93 92.24)"><tspan x="0" y="0">O</tspan></text><text class="cls-17" transform="translate(82.48 92.24)"><tspan x="0" y="0">VI</tspan></text><text class="cls-18" transform="translate(93.5 92.24)"><tspan x="0" y="0">T</tspan></text><text class="cls-2" transform="translate(99.06 92.24)"><tspan x="0" y="0">A</tspan></text></g><g class="cls-7" transform="translate(134.55 126.42) rotate(-90)"><text class="cls-4" transform="translate(134.55 126.42) rotate(-90)"><tspan x="0" y="0">XPRESS</tspan></text></g><g class="cls-7" transform="translate(226.1 207.96)"><text class="cls-6" transform="translate(226.1 207.96)"><tspan x="0" y="0">ME</tspan></text><text class="cls-6" transform="translate(231.27 207.96)"><tspan x="0" y="0">S</tspan></text><text class="cls-6" transform="translate(233.25 207.96)"><tspan x="0" y="0">O</tspan><tspan class="cls-33" x="2.78" y="0">P</tspan></text><text class="cls-16" transform="translate(238.13 207.96)"><tspan x="0" y="0">O</tspan></text><text class="cls-19" transform="translate(240.83 207.96)"><tspan x="0" y="0">T</tspan></text><text class="cls-6" transform="translate(242.57 207.96)"><tspan x="0" y="0">AMI</tspan></text><text class="cls-11" transform="translate(248.96 207.96)"><tspan x="0" y="0">A</tspan></text></g><g class="cls-7" transform="translate(328.02 137.39)"><text class="cls-13" transform="translate(328.02 137.39)"><tspan x="0" y="0">D</tspan></text><text class="cls-5" transform="translate(331.47 137.39)"><tspan x="0" y="0">ABO DONER</tspan></text></g><g class="cls-7" transform="translate(201.84 211.79) rotate(-90)"><text class="cls-14" transform="translate(201.84 211.79) rotate(-90)"><tspan x="0" y="0">C</tspan></text><text class="cls-1" transform="translate(201.84 208.81) rotate(-90)"><tspan class="cls-24" x="0" y="0">A</tspan><tspan class="cls-30" x="2.61" y="0">S</tspan></text><text class="cls-9" transform="translate(201.84 203.79) rotate(-90)"><tspan x="0" y="0">A</tspan></text><text class="cls-1" transform="translate(206.53 221.97) rotate(-90)"><tspan x="0" y="0">GURMANDU</tspan></text><text class="cls-10" transform="translate(206.53 197.49) rotate(-90)"><tspan x="0" y="0">L</tspan></text><text class="cls-1" transform="translate(206.53 195.08) rotate(-90)"><tspan x="0" y="0">UI</tspan></text></g><g class="cls-7" transform="translate(159.44 47.67)"><text class="cls-8" transform="translate(159.44 47.67)"><tspan x="0" y="0">DINI LAND</tspan></text></g><g class="cls-7" transform="translate(216.59 63.08) rotate(-90)"><text class="cls-3" transform="translate(216.59 60.25) rotate(-90)"><tspan x="0" y="0">LET</tspan><tspan class="cls-32" x="7.09" y="0">’</tspan><tspan x="7.97" y="0">S </tspan></text><text class="cls-3" transform="translate(216.59 48.57) rotate(-90)"><tspan class="cls-32" x="0" y="0">PL</tspan><tspan class="cls-26" x="4.66" y="0">A</tspan><tspan class="cls-31" x="6.96" y="0">Y</tspan></text></g><g><path class="cls-22" d="M335.6,106.24h-.88l-.19,.76c.42,.03,1.02,.41,.53,.86-.06,.06-5,3.82-5,3.82l1.06-3.85c.22-.74,1.02-.83,1.02-.83l.19-.77h-5.94l-.19,.77c.28,.07,1.09,.22,.81,1.29-1.98,7.16-1.76,6.45-1.89,6.84-.54,2.07-1.42,1.97-1.73,1.99l-.19,.77v.06h6.2l.21-.84s-.99-.2-.8-.91c.19-.7,.97-3.52,.97-3.52,2.74,4.4,3.43,5.17,5.82,5.28,.81,.04,1.81,0,3.16,0l.2-.83c-.79,0-1.3-.56-1.61-.9-.17-.18-1-1.44-1.75-2.59-.68-1.05-1.3-2.01-1.3-2.01l1.3-1.04,3.7-2.96c.84-.7,1.44-.63,1.44-.63l.2-.77h-5.34Z"/><path class="cls-22" d="M360.77,106.13c-.66,0-1.29,.02-1.9,.09-4.98,.58-7.99,3.71-7.98,6.86,0,2.63,2.13,5.16,7.06,5.14,.31,0,.62-.02,.91-.03,1.19-.07,2.25-.23,3.21-.42l.57-2.45c-.95,.32-2.16,.59-3.13,.59-.22,0-.44,0-.65-.03-2.26-.23-3.74-1.69-3.74-3.55s1.4-3.45,3.74-3.84c.39-.07,.81-.1,1.25-.1,1.51,0,2.28,.5,2.78,1.16h.41l.81-2.89c-.83-.27-2.06-.5-3.35-.52h.01Z"/><path class="cls-22" d="M347.69,106.24h-5.86l-.19,.76s1.17,.13,.81,1.29l-2.66,9.66h5.31l.2-.82s-.99-.24-.74-1.15c.02-.09,.78-2.87,.78-2.87h2.44c1.21,0,1.61,.63,1.61,.63l.71-2.87h-4.11l.61-2.25h3.56c.66,0,1.12,.44,1.12,.76h.4l.79-3.14h-4.78Z"/></g><g><path class="cls-22" d="M230.56,56.89l-.02,.04h-.02s.02-.08,.02-.11c0-.02-.03-.04-.04-.06,0,.02-.03,.04-.03,.06v.07c-.02,.08-.05,.15-.07,.22v.06s.04-.02,.05-.04c.03-.05,.06-.11,.08-.17,0-.03,0-.05,.02-.08,.04,0,.08-.03,.12-.04,.02,0,.05,0,.06-.02,0,0,0-.04,0-.06-.02,0-.05,0-.07,.02-.03,.03-.06,.07-.09,.1h0Z"/><path class="cls-22" d="M227.34,54.84h0v.04c-.03,.1-.07,.21-.1,.31-.06,.25-.1,.5-.04,.75,.07,.31,.31,.49,.6,.32,.14-.08,.26-.18,.31-.34,0-.03,0-.08-.02-.1-.02-.02-.07-.02-.11,0-.08,0-.15,.04-.23,.06-.13,.02-.26-.06-.29-.2-.02-.11-.03-.23,0-.34,.04-.33,.16-.63,.31-.92,.14-.29,.33-.55,.54-.79,0-.02,.02-.05,.02-.07-.03,0-.06,0-.08,0-.06,.04-.12,.08-.17,.12-.38,.34-.67,.76-.98,1.16-.14,.18-.28,.35-.43,.53-.02,.02-.06,.03-.09,.04,0-.03-.03-.06-.03-.09,.03-.17,.05-.34,.11-.5,.11-.33,.3-.62,.49-.91,.06-.09,.13-.18,.19-.27,0-.02,0-.04,0-.07-.02,0-.05-.02-.06,0-.08,.04-.18,.07-.24,.13-.17,.17-.35,.33-.5,.52-.37,.47-.72,.95-1.08,1.43-.26,.34-.52,.68-.85,.97-.24,.21-.5,.33-.83,.28-.19-.03-.37-.16-.41-.33-.04-.19,0-.36,.11-.52,.14-.22,.56-.28,.75-.12,.04,.03,.08,.06,.08,.12-.09,0-.17-.04-.26-.04-.16,0-.27,.12-.27,.27,0,.18,.15,.33,.33,.34,.14,0,.26-.04,.38-.11,.23-.14,.33-.44,.16-.69-.17-.23-.4-.3-.66-.25-.38,.07-.68,.27-.84,.64-.09,.21-.11,.42,0,.62,.15,.28,.4,.4,.7,.4,.36,0,.67-.14,.95-.37,.34-.27,.59-.63,.83-.99,.22-.34,.44-.69,.66-1.03,.06-.09,.12-.16,.18-.24h.02s0,.04,0,.06c-.14,.31-.23,.63-.29,.97-.04,.2-.07,.4-.05,.61,0,.07,.03,.13,.1,.15s.11-.03,.14-.08c0-.02,.03-.04,.04-.05,.1-.16,.19-.32,.29-.48,.18-.29,.36-.58,.54-.86,0-.02,.03-.04,.05-.07h.03Z"/><path class="cls-22" d="M233.16,53.93h.45c.34-.02,.66-.11,.96-.28,.11-.06,.21-.13,.3-.21,.02,0,.02-.06,.02-.08-.03,0-.07-.02-.1-.02-.02,0-.05,.02-.07,.03-.09,.04-.17,.09-.26,.13-.32,.15-.65,.22-1,.2-.27-.02-.53-.07-.8-.11-.28-.04-.56-.07-.84,0-.26,.05-.48,.16-.65,.37-.18,.23-.22,.49-.1,.77,.14,.32,.56,.41,.87,.18,.14-.1,.25-.23,.24-.41,0-.26-.27-.48-.59-.35-.09,.04-.14,.1-.16,.19-.03,.14,.06,.23,.19,.21h.06c.05,0,.09,.02,.06,.07s-.06,.11-.11,.13c-.2,.1-.45-.05-.46-.28,0-.21,.1-.36,.26-.48,.23-.16,.48-.2,.75-.16,.22,.03,.44,.07,.66,.1,.06,0,.13,.02,.19,.03-.09,.07-.17,.13-.24,.21-.19,.21-.33,.45-.46,.71s-.27,.51-.49,.71c-.16,.15-.33,.29-.55,.37-.07,.03-.13,.1-.19,.16-.05,.05-.04,.12,0,.18s.1,.09,.17,.08c.16-.02,.3-.09,.41-.21,.29-.32,.54-.67,.74-1.05,.16-.3,.33-.58,.63-.77,.18-.12,.19-.19,.08-.38l.03-.03Z"/><path class="cls-22" d="M232.73,55.96s-.02-.03-.02-.05c-.03-.15,0-.29,.05-.43,.02-.06,.04-.13,.05-.2,0-.06-.03-.12-.08-.14-.06-.03-.12-.03-.17,.02-.06,.06-.12,.13-.14,.21-.06,.19-.03,.39,.05,.57,.05,.12,.12,.23,.2,.34,.07,.09,.14,.08,.2-.02l.06-.12c.08-.14,.16-.27,.25-.41l.07-.07s0,.04,0,.06c.04,.16,.08,.33,.13,.49,.02,.06,.05,.13,.13,.13s.1-.07,.12-.13h0c.11-.3,.29-.53,.59-.65,.06-.02,.11-.07,.16-.12,.04-.04,.06-.09,.03-.15s-.08-.1-.14-.09c-.09,0-.18,.03-.26,.07-.21,.11-.35,.31-.46,.52,0,.02-.02,.04-.04,.07-.05-.15-.04-.29-.02-.44,0-.05,.02-.09-.03-.12-.05-.04-.09,0-.13,0-.02,0-.04,.02-.05,.03-.12,.12-.25,.24-.36,.37-.07,.08-.13,.17-.2,.26h0Z"/><path class="cls-22" d="M237.11,54.52v-.04c.04-.06,.1-.11,.16-.17,.05-.06,.11-.12,.15-.18s0-.15-.05-.19c-.06-.05-.12-.06-.18,0-.03,.02-.07,.05-.1,.08-.08,.12-.16,.24-.22,.37-.03,.07-.06,.09-.14,.07-.21-.06-.42-.12-.65-.11-.18,0-.33,.07-.44,.22-.03,.03-.04,.07,0,.1,.04,.04,.07,0,.1,0,.04-.03,.07-.06,.11-.09,.13-.08,.27-.07,.42-.04,.14,.03,.28,.07,.42,.1,.06,0,.06,.04,.05,.08-.03,.09-.06,.19-.09,.28-.05,.17-.1,.34-.2,.49-.12,.19-.26,.34-.48,.43-.12,.04-.15,.16-.1,.28,.05,.1,.15,.14,.26,.07,.07-.04,.14-.08,.18-.14,.14-.23,.29-.46,.4-.71,.1-.22,.16-.45,.24-.67,.02-.04,.04-.06,.09-.06,.21,0,.41-.02,.61-.11,.08-.04,.15-.09,.22-.14,0,0,.02-.05,0-.06,0-.02-.04-.03-.06-.02-.03,0-.05,.02-.08,.03-.12,.04-.24,.09-.36,.12-.09,.02-.19,.02-.28,.02h.01Z"/><path class="cls-22" d="M234.98,56.31c.14-.02,.26-.03,.39-.06,.16-.04,.3-.11,.4-.25,.09-.13,.05-.26-.09-.33-.03-.02-.07-.03-.11-.03l-.42-.06s-.04-.02-.06-.03c.02-.02,.03-.05,.05-.06,.12-.06,.25-.08,.38-.02,.05,.02,.09,.04,.14,.06,.07,.02,.15-.02,.18-.09,.03-.06,0-.14-.05-.18-.04-.03-.08-.05-.13-.06-.16-.04-.31,0-.46,.07-.11,.05-.21,.1-.27,.21-.05,.08-.04,.16,.04,.21,.03,.02,.07,.03,.1,.04,.12,.02,.25,.04,.37,.06,.06,0,.11,.04,.12,.11,0,.07-.05,.09-.1,.11-.16,.07-.31,.07-.46-.03-.05-.03-.11-.07-.17-.09-.11-.04-.24,.07-.22,.18,.02,.08,.06,.16,.14,.19,.07,.03,.15,.04,.22,.05h.01Z"/><path class="cls-22" d="M230.29,56.34h0c.07-.02,.14-.02,.21-.03,.18-.03,.35-.09,.47-.24,.13-.15,.08-.33-.12-.38-.15-.04-.31-.05-.46-.07-.03,0-.05-.03-.08-.04,.02-.02,.04-.05,.07-.06,.14-.05,.27-.07,.41,0,.03,.02,.06,.03,.09,.03,.05,0,.11,0,.14-.03,.09-.06,.08-.18,0-.24-.1-.07-.21-.08-.32-.06-.19,.03-.37,.1-.5,.25-.1,.11-.06,.24,.08,.28,.02,0,.05,0,.07,0,.12,.02,.25,.04,.37,.07,.03,0,.08,.06,.08,.09s-.03,.08-.07,.1c-.16,.09-.32,.08-.48,0-.04-.02-.08-.05-.12-.07-.09-.05-.19-.03-.24,.04s-.04,.17,.03,.24c.04,.04,.1,.07,.15,.09,.08,.02,.16,.02,.24,.03h-.01Z"/><path class="cls-22" d="M229.09,56.35h0c.07-.02,.15-.02,.22-.03,.18-.03,.35-.09,.47-.25,.12-.15,.07-.31-.12-.36-.15-.04-.31-.05-.46-.08-.03,0-.06-.03-.08-.04,.02-.02,.04-.06,.07-.07,.13-.05,.26-.07,.39,0,.03,.02,.07,.04,.11,.04,.07,0,.13,0,.17-.07s.04-.12,0-.16-.09-.08-.14-.09c-.08-.02-.17-.02-.26,0-.17,.03-.33,.09-.46,.23-.12,.13-.08,.26,.09,.3,.05,0,.11,0,.16,.02,.09,.02,.19,.03,.27,.06,.09,.04,.09,.12,0,.18-.12,.09-.35,.09-.49,0-.05-.03-.11-.07-.17-.09-.07-.03-.13,0-.18,.04-.05,.04-.05,.1-.03,.16,.02,.08,.07,.14,.15,.16,.09,.02,.19,.03,.28,.05Z"/><path class="cls-22" d="M228.26,56.35s.05,0,.08-.02c.17-.08,.23-.23,.25-.39,.03-.19,.06-.37,.2-.52,.03-.03,.05-.07,.06-.11,.02-.06,.05-.12,0-.17s-.12-.02-.18,0c0,0-.02,.02-.03,.03-.12,.1-.17,.24-.17,.39,0,.19-.05,.35-.2,.47-.05,.04-.09,.1-.12,.15-.05,.08,0,.16,.12,.16h0Z"/><path class="cls-22" d="M234.24,56.32s.09-.04,.14-.07c.12-.09,.17-.22,.19-.36,.03-.16,.08-.31,.2-.43,.04-.04,.06-.1,.08-.15,.02-.04,.04-.1,0-.13-.04-.02-.1-.02-.14,0-.15,.07-.23,.21-.24,.38,0,.18-.07,.34-.22,.46-.05,.04-.09,.09-.13,.15-.05,.08,0,.15,.12,.15h.01Z"/><path class="cls-22" d="M231.4,57.09s.05,.08,.08,.09c.02,0,.05-.02,.08-.03-.08-.04-.09-.06-.07-.14,.02-.07,.06-.14,.08-.2v-.04h-.03s-.07,.02-.1,0h-.07c-.12,.04-.22,.21-.2,.33,0,.09,.09,.12,.16,.06,.03-.02,.05-.05,.06-.07h.01Z"/><path class="cls-22" d="M227.94,56.77s0,.08-.02,.11c-.02,.08-.06,.15-.08,.23v.07s.04-.03,.06-.04c0,0,0-.03,.02-.04,.06-.08,.13-.17,.19-.25,0,0,.04,0,.06-.02v.05s-.02,.05-.03,.08c-.02,.05-.04,.09-.04,.14,0,.03,.02,.07,.04,.08,.02,0,.06,0,.09-.02v-.02c-.08,0-.08-.03-.06-.08,.02-.05,.05-.1,.06-.16,0-.04,0-.09-.02-.12-.04-.04-.09,0-.12,.03-.04,.04-.07,.08-.11,.12,0-.04,0-.08,0-.11,0-.06-.03-.06-.07-.05h.02Z"/><path class="cls-22" d="M231.8,56.94h-.02s.03-.09,.03-.12c0-.02-.03-.04-.05-.06,0,.02-.02,.03-.03,.05,0,.03,0,.06,0,.09-.02,.07-.05,.13-.08,.2v.07s.05-.03,.06-.05c.06-.08,.11-.16,.17-.24,.02-.03,.07-.04,.11-.06,0,.04,0,.08-.02,.11-.02,.06-.06,.13-.08,.19,0,0,0,.03,0,.04,0,0,.04,0,.04-.02l.15-.27-.06,.04v-.05s.04-.08,0-.1c-.05-.03-.09,0-.12,.05-.04,.04-.07,.08-.1,.12h.01Z"/><path class="cls-22" d="M231.06,57.1c-.06,.02-.1,.04-.15,.04-.06,0-.07-.03-.06-.11h.06c.07,0,.15-.04,.18-.11,0-.03,.02-.09,0-.11-.02-.03-.07-.04-.11-.04-.1,.02-.21,.15-.22,.26,0,.07,0,.13,.09,.15,.07,.02,.16,0,.21-.08Z"/><path class="cls-22" d="M229.59,57.09s-.05,.03-.07,.03-.04,0-.06,.02c-.06,0-.1-.04-.08-.1,0-.02,0-.05,.02-.07,.03-.05,.05-.1,.09-.15,0-.02,.05,0,.08,0,0,.03,.02,.06,0,.08-.02,.04-.06,.07-.1,.1,0,0-.03,.02-.04,.02,.09,0,.17-.02,.2-.11,0-.03,0-.08,0-.11-.02-.02-.07-.04-.1-.03-.12,.03-.23,.17-.22,.3,0,.06,.04,.11,.1,.12,.08,.02,.15,0,.19-.09Z"/><path class="cls-22" d="M230.26,57.09s-.04,.03-.06,.03c-.04,0-.08,.02-.11,0-.02,0-.04-.07-.03-.1,0-.06,.04-.12,.07-.17,.02-.04,.07-.09,.12-.06,.06,.03,0,.08,0,.11v.04h.04s.05-.09,.05-.13c0-.05-.06-.07-.12-.06-.13,.03-.24,.17-.23,.3,0,.07,.04,.11,.11,.12,.08,0,.14-.02,.17-.1v.02Z"/><path class="cls-22" d="M229.15,57.1s-.05,.02-.07,.03c-.09,.04-.15,0-.13-.1,0-.07,.04-.13,.08-.18,.02-.03,.08-.06,.11-.04,.05,.02,.02,.07,0,.11h0v.05h.04s.07-.08,.04-.14c-.02-.05-.07-.07-.12-.05-.12,.03-.22,.15-.22,.28,0,.07,.03,.12,.09,.14,.08,.02,.15,0,.19-.08v-.02Z"/><path class="cls-22" d="M226.5,56.79v.1c0,.06-.03,.12-.04,.18,0,.05,0,.11,.06,.12s.11-.02,.14-.08c-.03,0-.05,.03-.08,.03-.02,0-.06-.03-.06-.04,.02-.08,.04-.16,.07-.24,0-.02,.06-.03,.09-.04,0,0,.02,0,.04-.03l-.1-.02v-.11s-.04,.03-.06,.05c-.03,.03-.06,.07-.08,.09h.02Z"/><path class="cls-22" d="M227.01,57.08c-.05,.03-.04,.06,0,.09,.05,.03,.14,.02,.18-.03s.03-.1,0-.15c-.02-.03-.05-.07-.06-.11-.02-.05,0-.08,.05-.09,.04,0,.07,0,.08,.06v.04c.07-.03,.08-.06,.03-.1-.05-.04-.13-.05-.18,0-.05,.04-.07,.1-.04,.16,.02,.04,.04,.07,.07,.11,.02,.03,.03,.08,0,.09-.02,0-.06-.02-.09-.03,0,0,0-.02-.02-.03h-.01Z"/><path class="cls-22" d="M226.13,56.77c0,.06,0,.12-.02,.18,0,.05-.04,.11-.06,.16v.07s.04-.03,.05-.05c.04-.07,.08-.15,.12-.23,.02-.04,.06-.08,.12-.05,0,0,.04,0,.04-.02v-.05s-.03-.02-.05,0c-.02,0-.04,.02-.05,.04-.03,.04-.06,.08-.09,.13h0s0-.07,.02-.09c0-.07,0-.09-.07-.07h0Z"/><path class="cls-22" d="M232.26,57.16v-.03c-.08,0-.07-.04-.06-.08,.02-.06,.06-.12,.08-.18,0-.03,0-.06-.02-.09,0,0-.05-.02-.07,0-.03,0-.05,.04-.08,.06h.09s0,.05,0,.07c-.02,.06-.05,.12-.06,.18,0,.03,.02,.07,.05,.09,.02,0,.06,0,.09-.02h0Z"/><path class="cls-22" d="M226.85,57.17l.03-.03c-.12,0-.08-.07-.06-.11,.02-.06,.05-.12,.07-.18,0-.02,0-.06,0-.07-.02,0-.05,0-.06,0,0,.06-.02,.12-.04,.17-.02,.05-.04,.1-.05,.15,0,.03,0,.07,.02,.08,.02,0,.06,0,.09,0h0Z"/><path class="cls-22" d="M228.74,57.17v-.03c-.07,0-.06-.05-.05-.1,.03-.07,.06-.13,.08-.2v-.07s-.05,0-.06,0c0,.06-.02,.1-.03,.15-.02,.06-.05,.11-.06,.17,0,.03,0,.08,.02,.09s.06,0,.1,0h0Z"/><path class="cls-22" d="M228.87,56.6s-.05-.05-.07-.04c-.02,0-.04,.03-.05,.05,0,0,.03,.05,.04,.04,.02,0,.04-.03,.08-.05h0Z"/><path class="cls-22" d="M226.91,56.67s.05-.05,.05-.07c0,0-.03-.05-.04-.05-.02,0-.04,.03-.06,.05l.05,.06h0Z"/><path class="cls-22" d="M227.34,54.84s-.04,.04-.05,.07c-.18,.29-.36,.58-.54,.86-.1,.16-.19,.32-.29,.48,0,.02-.02,.04-.04,.05-.04,.05-.07,.1-.14,.08-.07-.02-.09-.09-.1-.15-.02-.21,0-.41,.05-.61,.06-.33,.15-.66,.29-.97,0,0,0-.03,0-.04h-.02c-.06,.07-.13,.15-.18,.23-.22,.34-.44,.69-.66,1.03-.24,.36-.49,.71-.83,.99-.28,.22-.59,.38-.95,.37-.3,0-.55-.12-.7-.4-.11-.21-.09-.42,0-.62,.16-.37,.45-.57,.84-.64,.26-.05,.49,.02,.66,.25,.17,.25,.07,.55-.16,.69-.11,.07-.24,.12-.38,.11-.18,0-.33-.16-.33-.34,0-.15,.11-.27,.27-.27,.08,0,.17,.02,.26,.04,0-.05-.04-.09-.08-.12-.19-.16-.61-.1-.75,.12-.1,.16-.14,.33-.11,.52,.03,.17,.21,.3,.41,.33,.33,.04,.59-.08,.83-.28,.33-.28,.59-.62,.85-.97,.36-.48,.71-.96,1.08-1.43,.15-.19,.32-.36,.5-.52,.06-.06,.16-.09,.24-.13h.06s0,.05,0,.07c-.06,.09-.13,.18-.19,.27-.19,.29-.38,.58-.49,.91-.05,.16-.08,.33-.11,.5,0,.03,.02,.06,.03,.09,.03,0,.07-.02,.09-.04,.14-.17,.29-.35,.43-.53,.31-.41,.6-.82,.98-1.16,.05-.05,.11-.09,.17-.12,.02,0,.05,0,.08,0,0,.02,0,.05-.02,.07-.21,.24-.4,.5-.54,.79-.15,.29-.26,.6-.31,.92,0,.11,0,.23,0,.34,.02,.13,.15,.22,.29,.2,.08,0,.15-.04,.23-.06,.03,0,.08,0,.11,0,.02,.02,.03,.07,.02,.1-.05,.16-.17,.26-.31,.34-.29,.17-.53,0-.6-.32-.06-.26-.02-.5,.04-.75,.03-.1,.06-.21,.1-.31v-.03h0l-.03-.02Z"/><path class="cls-22" d="M233.16,53.93c.1,.2,.09,.27-.08,.38-.3,.19-.47,.47-.63,.77-.2,.38-.44,.73-.74,1.05-.11,.12-.25,.19-.41,.21-.07,0-.13-.02-.17-.08s-.04-.13,0-.18c.05-.06,.11-.13,.19-.16,.21-.08,.38-.22,.55-.37,.22-.2,.36-.45,.49-.71,.13-.25,.27-.49,.46-.71,.07-.08,.16-.14,.24-.21-.06,0-.12-.02-.19-.03-.22-.03-.44-.07-.66-.1-.27-.04-.53,0-.75,.16-.16,.12-.26,.27-.26,.48s.26,.38,.46,.28c.05-.03,.09-.08,.11-.13,.03-.05,0-.08-.06-.07h-.06c-.13,.03-.22-.07-.19-.21,.02-.09,.07-.15,.16-.19,.31-.13,.57,.09,.59,.35,0,.18-.1,.31-.24,.41-.3,.22-.72,.14-.87-.18-.12-.27-.08-.53,.1-.77,.16-.21,.39-.32,.65-.37,.28-.06,.56-.03,.84,0,.27,.04,.53,.1,.8,.11,.35,.02,.68-.04,1-.2,.09-.04,.17-.09,.26-.13,.02,0,.05-.03,.07-.03,.03,0,.07,.02,.1,.02,0,.03,0,.07-.02,.08-.1,.07-.2,.15-.3,.21-.3,.17-.62,.25-.96,.28-.15,0-.29,0-.45,0l-.03,.03Z"/><path class="cls-22" d="M232.73,55.96c.07-.09,.13-.18,.2-.26,.11-.13,.24-.25,.36-.37,0,0,.03-.02,.05-.03,.04-.02,.08-.05,.13,0,.04,.03,.03,.08,.03,.12-.02,.14-.03,.29,.02,.44,0-.02,.02-.04,.04-.07,.11-.21,.24-.41,.46-.52,.08-.04,.17-.06,.26-.07,.07,0,.11,.03,.14,.09s0,.11-.03,.15c-.04,.05-.1,.09-.16,.12-.3,.12-.48,.35-.59,.64h0c-.02,.07-.04,.14-.12,.14s-.11-.07-.13-.13c-.05-.16-.09-.33-.13-.49,0,0,0-.03,0-.06-.03,.03-.06,.04-.07,.07-.08,.14-.17,.27-.25,.41l-.06,.12c-.05,.1-.13,.11-.2,.02-.08-.1-.15-.22-.2-.34-.08-.18-.11-.38-.05-.57,.03-.08,.09-.15,.14-.21,.04-.05,.11-.05,.17-.02s.09,.08,.08,.14c0,.07-.02,.14-.05,.2-.06,.14-.08,.28-.05,.43,0,0,0,.03,.02,.05h0Z"/><path class="cls-22" d="M237.11,54.52c.09,0,.19,0,.28-.02,.12-.03,.24-.08,.36-.12,.03,0,.05-.03,.08-.03,.02,0,.05,0,.06,.02,0,0,0,.05,0,.06-.07,.05-.15,.1-.22,.14-.19,.09-.4,.11-.61,.11-.05,0-.07,0-.09,.06-.08,.23-.14,.46-.24,.67-.11,.24-.26,.48-.4,.71-.04,.06-.11,.1-.18,.14-.11,.06-.22,.03-.26-.07-.05-.11,0-.23,.1-.28,.22-.08,.36-.24,.48-.43,.09-.15,.15-.32,.2-.49,.03-.09,.06-.19,.09-.28,0-.05,0-.07-.05-.08-.14-.03-.28-.07-.42-.1s-.29-.04-.42,.04c-.04,.02-.07,.06-.11,.09-.03,.03-.07,.05-.1,0-.04-.04-.02-.07,0-.1,.11-.14,.27-.21,.44-.22,.22-.02,.43,.05,.65,.11,.08,.02,.1,0,.14-.07,.06-.13,.14-.25,.22-.37,.02-.03,.06-.06,.1-.08,.06-.04,.12-.04,.18,0,.05,.05,.09,.13,.05,.19-.04,.07-.1,.13-.15,.18-.05,.06-.11,.11-.17,.17v.04h0Z"/><path class="cls-22" d="M234.98,56.31c-.07-.02-.15-.03-.22-.05-.08-.03-.13-.1-.14-.19-.02-.11,.11-.22,.22-.18,.06,.02,.11,.06,.17,.09,.15,.09,.3,.1,.46,.03,.05-.02,.1-.05,.1-.11,0-.07-.06-.1-.12-.11-.12-.02-.25-.04-.37-.06-.04,0-.07-.02-.1-.04-.08-.05-.09-.13-.04-.21,.06-.1,.16-.16,.27-.21,.15-.06,.3-.12,.46-.07,.05,0,.09,.04,.13,.06,.06,.05,.08,.12,.05,.18-.03,.07-.1,.11-.18,.09-.05,0-.1-.04-.14-.06-.13-.06-.26-.03-.38,.02-.02,0-.03,.04-.05,.06,.02,0,.04,.03,.06,.03l.42,.06s.07,.02,.11,.03c.14,.07,.18,.2,.09,.33-.09,.14-.24,.21-.4,.25-.12,.03-.25,.04-.39,.06h-.01Z"/><path class="cls-22" d="M230.29,56.34c-.08,0-.16,0-.24-.03-.05,0-.11-.05-.15-.09-.07-.07-.08-.17-.03-.24,.05-.07,.16-.09,.24-.04,.04,.02,.08,.05,.12,.07,.16,.09,.32,.09,.48,0,.03-.02,.07-.07,.07-.1s-.04-.08-.08-.09c-.12-.03-.25-.05-.37-.07-.02,0-.05,0-.07,0-.14-.05-.18-.17-.08-.28,.13-.15,.31-.21,.5-.25,.12-.02,.23,0,.32,.06,.09,.07,.1,.18,0,.24-.04,.03-.09,.03-.14,.03-.03,0-.06-.02-.09-.03-.13-.08-.27-.06-.41,0-.03,0-.04,.04-.07,.06,.03,0,.05,.04,.08,.04,.15,.03,.31,.04,.46,.07,.19,.05,.24,.22,.12,.38-.12,.15-.29,.2-.47,.24-.07,0-.14,.02-.21,.02h0v.02Z"/><path class="cls-22" d="M229.09,56.35c-.09,0-.19-.02-.28-.05-.08-.02-.13-.08-.15-.16-.02-.06,0-.12,.03-.16,.05-.05,.12-.07,.18-.04,.06,.02,.11,.06,.17,.09,.14,.09,.37,.09,.49,0,.08-.06,.08-.14,0-.18-.09-.03-.18-.05-.27-.06-.05,0-.11,0-.16-.02-.17-.04-.21-.18-.09-.3,.12-.13,.28-.2,.46-.23,.08,0,.17,0,.26,0,.05,0,.1,.05,.14,.09,.04,.05,.04,.11,0,.16-.04,.06-.1,.08-.17,.07-.04,0-.07-.03-.11-.04-.13-.07-.26-.06-.39,0-.03,0-.05,.04-.07,.07,.03,0,.05,.03,.08,.04,.15,.03,.31,.04,.46,.08,.19,.05,.24,.21,.12,.36-.12,.16-.29,.22-.47,.25-.07,0-.15,.02-.22,.02h0Z"/><path class="cls-22" d="M228.26,56.35c-.12,0-.17-.07-.12-.16,.03-.06,.08-.11,.12-.15,.14-.13,.2-.28,.2-.47,0-.15,.05-.29,.17-.39,0,0,.02-.02,.03-.03,.06-.03,.12-.07,.18,0,.06,.05,.03,.11,0,.17,0,.04-.03,.08-.06,.11-.13,.15-.17,.33-.2,.52-.02,.17-.09,.31-.25,.39-.03,0-.07,.02-.08,.02h0Z"/><path class="cls-22" d="M234.24,56.32c-.13,0-.17-.07-.12-.15,.03-.06,.08-.11,.13-.15,.15-.12,.2-.28,.22-.46,0-.16,.08-.3,.24-.38,.04-.02,.1-.02,.14,0,.05,.02,.04,.08,0,.13-.02,.05-.04,.11-.08,.15-.11,.12-.17,.27-.2,.43-.03,.14-.07,.27-.19,.36-.05,.04-.11,.06-.14,.07h-.01Z"/><path class="cls-22" d="M231.4,57.09s-.04,.05-.06,.07c-.07,.05-.14,.02-.16-.06-.02-.12,.08-.29,.2-.33h.07s.07,.04,.1,0h.03v.04c-.03,.07-.06,.14-.08,.2-.03,.08,0,.1,.07,.14-.03,0-.06,.04-.08,.03-.03-.02-.05-.05-.08-.09h-.01Zm.08-.24s-.02-.04-.03-.05c-.03,0-.06,0-.08,0-.09,.07-.12,.16-.12,.27,0,.06,.04,.07,.09,.04,.08-.07,.12-.16,.15-.27h0Z"/><path class="cls-22" d="M227.94,56.77s.08,0,.07,.05c0,.03-.02,.07,0,.11,.04-.04,.07-.08,.11-.12,.03-.03,.08-.07,.12-.03,.02,.02,.03,.08,.02,.12,0,.05-.04,.1-.06,.16-.02,.05-.02,.09,.06,.08v.02s-.07,.03-.09,.02c-.02,0-.05-.05-.04-.08,0-.05,.02-.09,.04-.14,0-.03,.02-.05,.03-.08v-.05s-.05,0-.06,.02c-.07,.08-.13,.17-.19,.25,0,0,0,.03-.02,.04-.02,.02-.04,.03-.06,.04v-.07c.02-.08,.06-.15,.08-.23,0-.03,0-.07,.02-.11h-.02Z"/><path class="cls-22" d="M231.8,56.94s.07-.08,.1-.12c.03-.04,.07-.07,.12-.05,.05,.03,.02,.07,0,.1v.05l.06-.04c-.05,.1-.1,.19-.15,.27,0,0-.03,0-.04,.02,0,0-.02-.03,0-.04,.03-.06,.06-.13,.08-.19,0-.04,0-.08,.02-.11-.04,.02-.08,.03-.11,.06-.06,.08-.11,.16-.17,.24,0,.02-.04,.03-.06,.05v-.07c.02-.07,.05-.13,.08-.2,0-.03,0-.06,0-.09,0-.02,.02-.04,.03-.05,.02,.02,.05,.04,.05,.06,0,.04-.02,.08-.03,.12h0Z"/><path class="cls-22" d="M231.06,57.1c-.05,.07-.14,.1-.21,.08-.07-.02-.09-.08-.09-.15,0-.11,.11-.24,.22-.26,.03,0,.09,0,.11,.04,.02,.03,.02,.08,0,.11-.03,.07-.11,.1-.18,.11h-.06c0,.08,0,.12,.06,.11,.05,0,.09-.02,.15-.04Zm-.21-.1c.1,0,.18-.06,.19-.13,0-.02,0-.05-.02-.06h-.06c-.06,.04-.09,.11-.11,.19Z"/><path class="cls-22" d="M229.59,57.09c-.04,.08-.11,.11-.19,.09-.06,0-.09-.06-.1-.12,0-.12,.09-.27,.22-.3,.03,0,.08,0,.1,.03,.02,.02,.02,.08,0,.11-.03,.08-.11,.11-.2,.11,0,0,.03,0,.04-.02,.03-.03,.07-.06,.1-.1,0-.02,0-.05,0-.08-.03,0-.07,0-.08,0-.04,.04-.06,.1-.09,.15,0,.02,0,.05-.02,.07-.02,.06,.02,.11,.08,.1,.02,0,.04,0,.06-.02,.02,0,.04-.02,.07-.03Z"/><path class="cls-22" d="M230.26,57.09c-.03,.07-.09,.11-.17,.1-.07,0-.1-.06-.11-.12,0-.13,.1-.28,.23-.3,.06,0,.11,0,.12,.06,0,.04-.03,.09-.05,.13h-.04v-.04s.07-.08,0-.11c-.05-.03-.1,.02-.12,.06-.03,.05-.06,.11-.07,.17,0,.03,0,.08,.03,.1,.03,.02,.07,0,.11,0,.02,0,.04-.02,.06-.03v-.02Z"/><path class="cls-22" d="M229.15,57.1c-.04,.08-.11,.1-.19,.08-.06-.02-.1-.07-.09-.14,0-.12,.11-.25,.22-.28,.06,0,.1,0,.12,.05,.03,.06,0,.1-.04,.14h-.04v-.04h0s.06-.09,0-.11c-.03,0-.09,.02-.11,.04-.04,.05-.07,.12-.08,.18-.02,.09,.04,.13,.13,.1,.02,0,.04-.02,.07-.03h0Z"/><path class="cls-22" d="M226.5,56.79s.05-.06,.08-.09c.02-.02,.04-.03,.06-.05v.11l.1,.02s-.03,.02-.04,.03c-.03,0-.08,.02-.09,.04-.03,.08-.05,.16-.07,.24,0,0,.04,.04,.06,.04s.04-.02,.08-.03c-.03,.07-.08,.09-.14,.08s-.06-.07-.06-.12c0-.06,.03-.12,.04-.18v-.1h-.02Z"/><path class="cls-22" d="M227.01,57.08s0,.03,.02,.03c.03,0,.07,.04,.09,.03,.04-.02,.03-.06,0-.09-.02-.04-.05-.07-.07-.11-.03-.06-.02-.12,.04-.16,.05-.04,.14-.04,.18,0,.05,.04,.04,.07-.03,.1v-.04s-.03-.07-.08-.06-.07,.04-.05,.09c.02,.04,.04,.07,.06,.11,.03,.05,.05,.1,0,.15-.04,.05-.13,.06-.18,.03-.04-.03-.05-.06,0-.09h.01Z"/><path class="cls-22" d="M226.13,56.77c.06-.02,.08,0,.07,.07,0,.03,0,.06-.02,.09h0l.09-.12s.03-.03,.05-.04c0,0,.04,0,.05,0,0,0,0,.04,0,.05,0,0-.03,.02-.04,.02-.06-.02-.09,.02-.12,.05-.04,.07-.08,.15-.12,.23,0,.02-.03,.03-.05,.05,0-.02-.02-.05,0-.07,0-.05,.04-.11,.06-.16,0-.06,.02-.11,.02-.18h0Z"/><path class="cls-22" d="M232.26,57.16s-.07,.03-.09,.02c-.02-.02-.05-.06-.05-.09,0-.06,.04-.12,.06-.18,0-.03,0-.05,0-.08h-.09s.05-.05,.08-.06c.02,0,.06,0,.07,0,.02,.02,.02,.06,.02,.09-.02,.06-.05,.12-.08,.18,0,.04-.02,.09,.06,.08v.03h0Z"/><path class="cls-22" d="M230.56,56.89s0,.06-.02,.08c-.02,.06-.05,.11-.08,.17,0,.02-.03,.03-.05,.04,0-.02,0-.04,0-.06,.02-.08,.05-.15,.07-.22v-.07s.02-.04,.03-.06c.02,.02,.04,.04,.04,.06,0,.03,0,.07-.02,.1h.02l.02-.04h0Z"/><path class="cls-22" d="M226.85,57.17s-.07,0-.09,0c-.02,0-.03-.06-.02-.08,0-.05,.04-.1,.05-.15,0-.05,.02-.1,.04-.17,0,0,.04,0,.06,0,0,0,0,.05,0,.07-.02,.06-.05,.12-.07,.18-.02,.05-.06,.1,.06,.11l-.03,.03h0Z"/><path class="cls-22" d="M228.74,57.17s-.07,.02-.1,0c-.02,0-.03-.06-.02-.09,0-.06,.04-.11,.06-.17,0-.04,.02-.09,.03-.15h.06s0,.05,0,.07c-.02,.07-.05,.13-.08,.2-.02,.05-.03,.09,.05,.1v.03h0Z"/><path class="cls-22" d="M230.56,56.89s.06-.07,.09-.1c.02,0,.05,0,.07-.02,0,.02,.02,.05,0,.06,0,0-.04,0-.06,.02-.04,0-.08,.03-.12,.04h0Z"/><path class="cls-22" d="M228.87,56.6s-.06,.05-.08,.05c0,0-.05-.04-.04-.04,0-.02,.03-.04,.05-.05,0,0,.04,.02,.07,.04h0Z"/><path class="cls-22" d="M226.91,56.67l-.05-.06s.04-.04,.06-.05c0,0,.04,.03,.04,.05s-.03,.04-.05,.07h0Z"/><path class="cls-22" d="M231.48,56.85c-.02,.11-.07,.2-.15,.27-.04,.04-.09,.02-.09-.04,0-.11,.03-.2,.12-.27,.02,0,.05-.02,.08,0,0,0,.02,.03,.03,.05h0Z"/><path class="cls-22" d="M230.85,57c.02-.08,.04-.15,.11-.19,0,0,.05,0,.06,0,0,0,.02,.04,.02,.06,0,.07-.09,.13-.19,.13Z"/><path class="cls-22" d="M227.77,56.82v-.05s-.03,0-.05,0c-.02,0-.05,0-.06,0-.04-.03-.08-.02-.12,0-.11,.06-.17,.16-.18,.27,0,.04,.04,.1,.07,.12,.02,0,.08-.02,.11-.04,.02,0,.03-.04,.04-.04,.03,.03,.05,.07,.09,.08,.02,0,.05-.02,.08-.03v-.03c-.08,0-.09-.03-.07-.09,.03-.07,.06-.15,.08-.22v.02Zm-.22,.29s-.05,.04-.07,.03c-.02,0-.03-.05-.03-.06,0-.11,.04-.2,.13-.26,.02-.02,.07-.02,.08,0,.02,0,.03,.06,.02,.08-.03,.08-.07,.15-.12,.22h-.01Z"/><path class="cls-22" d="M225.97,57.16s-.09,.03-.11,.02c-.02,0-.04-.05-.05-.08,0-.04,0-.08,.02-.12,0-.05,0-.07-.05-.07-.08,0-.13,.02-.16,.1-.02,.05-.06,.1-.1,.15-.02,.02-.05,.03-.09,.05,.06-.09,.11-.15,.15-.22,.06-.12,.14-.23,.23-.33,.04-.05,.1-.07,.16-.11h.06s0,.04,0,.06c-.02,.06-.04,.11-.06,.17-.02,.04-.04,.09,.05,.1-.13,.04-.13,.14-.13,.23,0,.02,.04,.03,.09,.06h0Zm0-.58c-.09,0-.21,.13-.25,.26,.09,.03,.14,.02,.16-.04,.03-.07,.05-.14,.08-.22h0Z"/></g><g><g><path class="cls-22" d="M273.13,203.99h-1.09c-.28,0-.3,.11-.2,.33,.22,.51,.55,.89,1.13,.96,.37,.05,.48,.22,.5,.59,.06,1.22,.33,2.41,.8,3.55,.04,.09,.12,.19,.05,.27-.08,.09-.18,0-.27-.03-1.22-.39-2.44-.76-3.72-.91-1.1-.12-2.19-.04-3.27,.17-.48,.09-.49,.09-.42-.37,.2-1.26-.03-2.5-.25-3.73-.54-3.07,1.91-4.68,3.89-4.78,1.05-.05,1.93,.44,2.7,1.13,1.29,1.16,2.19,2.59,2.92,4.14,.06,.12,.25,.3-.02,.41-.34,.14-.62,.08-.72-.16-.15-.39-.3-.79-.43-1.19-.09-.29-.25-.41-.56-.39-.35,.02-.7,0-1.05,0h0Z"/><path class="cls-22" d="M263.17,208.29c.07-.29,.24-.55,.27-.85,.06-.49,.03-.96-.16-1.42-.55-1.36-.91-2.77-.91-4.25,0-3.01,1.74-5.48,4.58-6.49,1.31-.46,2.65-.68,4.04-.72,1.18-.04,2.36,0,3.53,.14,.32,.03,.39,.13,.25,.43-.37,.75-.72,1.5-1.06,2.26-.12,.28-.29,.35-.57,.24-1.23-.45-2.5-.57-3.81-.52-2.29,.09-4.6,1.78-5.22,3.84-.29,.98-.17,1.98-.04,2.98,.1,.78,.23,1.55,.11,2.34-.12,.79-.48,1.45-1.02,2.03h.01Z"/><path class="cls-22" d="M269.97,197.4h.69c.17,0,.22,.1,.13,.23-.39,.53-.45,1.16-.52,1.78-.02,.19-.09,.27-.28,.3-1.42,.23-2.54,.95-3.38,2.1-.1,.14-.19,.16-.32,.05-.49-.39-1.04-.6-1.67-.57-.28,0-.23-.18-.19-.34,.23-.83,.71-1.51,1.35-2.05,1.28-1.09,2.51-1.51,4.19-1.5Z"/><path class="cls-22" d="M285.02,212.57l-.1,3.93s-3.4-3.57-3.5-3.53l-.08,3.26c.08,.06,.23,.09,.47,.12v.18l-1.5-.02v-.21c.21-.03,.38,0,.45-.09,.02-.95,.04-1.92,.06-2.86-.03-.63,.24-1.52-.66-1.69h1.12l3.15,3.53,.02-2.77c0-.34-.02-.61-.44-.67h1.41c-.51,.1-.4,.49-.4,.82h0Z"/><path class="cls-22" d="M267.85,216.28v.18h-1.5v-.18c.14-.02,.24-.03,.33-.07,.03-.12-.02-.23-.06-.35-.32-.9-.63-1.79-.95-2.69-.05-.13-.11-.26-.16-.4h-.09c-.31,.77-.61,1.54-.92,2.31-.09,.23-.18,.47-.28,.7-.06,.16-.14,.32-.07,.45h0c.08,.02,.19,.04,.32,.05v.18h-1.5v-.18c.15-.02,.25-.04,.34-.08,.35-.49,.51-1.05,.75-1.56,.43-.91,.78-1.86,1.17-2.8,.03-.08,.07-.16,.11-.23,.05-.09,.08-.22,.21-.22s.16,.13,.2,.22c.23,.62,.46,1.24,.7,1.86l.84,2.22c.02,.05,.04,.11,.06,.16,.02,.06,.05,.13,.07,.19,.03,.08,.07,.14,.13,.18,.08,.02,.19,.04,.32,.05h-.02Z"/><path class="cls-22" d="M261.93,211.57c-.71-.18-1.41,.04-2.13,.06,.38,.09,.4,.36,.39,.66l-.07,3.36c0,.17,0,.34-.03,.5,0,0,0,.03-.01,.04h0c-.11,.09-.23,.11-.44,.14v.18h1.5v-.18c-.17-.02-.29-.04-.38-.07-.03-.05-.05-.12-.04-.22l.02-1.55c-.02-.24,.07-.36,.32-.35,.28,0,.55-.05,.81-.14,.59-.19,.96-.78,.95-1.55,0-.31-.43-.76-.91-.88h.02Zm.21,1.41c-.14,.47-.67,.77-1.14,.69-.15-.03-.21-.11-.21-.24v-.58s-.08-.72,.14-.79c.35-.11,.75-.11,1.06,.16,.24,.2,.23,.49,.15,.77h0Z"/><path class="cls-22" d="M256.68,215.5c.28,.44,.69,.5,1.11,.46,.64-.05,.9-.6,.55-1.15-.17-.28-.43-.49-.68-.7-.31-.25-.62-.5-.83-.85-.42-.71-.07-1.55,.73-1.77,.36-.1,.73,0,1.07-.07,.32-.09,.4-.23,.4-.23l-.07,1.1c-.21-.5-.63-.4-1.05-.32-.51,.11-.71,.56-.45,1.03,.25,.46,.68,.74,1.05,1.09,.27,.26,.53,.52,.61,.91,.13,.61-.3,1.29-.9,1.43-.36,.08-.72,.07-1.08,.03-.17-.02-.41-.07-.53,.15-.02-.02,.03-.77,.05-1.12h.02Z"/><path class="cls-22" d="M275.7,211.44l-.02,1.03c-.07-.25-.31-.3-.56-.31l-.68-.03c-.28-.03-.41,.07-.4,.35l.02,3.39c.01,.13,0,.26,.04,.36,.09,.03,.22,.05,.39,.08v.18h-1.5v-.18c.15-.02,.26-.04,.35-.08,.07-.15,.03-.34,.05-.52l.06-3.22c0-.32-.1-.44-.42-.41,0,0-.74,0-.92,.06h0c-.1,.02-.19,.05-.26,.11h0c-.05,.05-.09,.1-.11,.19l-.02-1.03c.05,.12,.28,.2,.45,.2,.09,0,.62,0,.78,0,.47,0,.94,0,1.41,0h.91c.18,0,.33-.03,.45-.2l-.02,.02Z"/><circle class="cls-22" cx="265.42" cy="214.09" r=".25"/><circle class="cls-22" cx="277.69" cy="214.09" r=".25"/><path class="cls-22" d="M280.13,216.35v.18h-1.5v-.18c.14-.02,.24-.03,.33-.07,.03-.12-.02-.23-.06-.35-.32-.9-.63-1.79-.95-2.69-.05-.13-.11-.26-.16-.4h-.09c-.31,.77-.61,1.54-.92,2.31-.09,.23-.18,.47-.28,.7-.06,.16-.14,.32-.07,.45h0c.08,.02,.19,.04,.32,.05v.18h-1.5v-.18c.15-.02,.25-.04,.34-.08,.35-.49,.51-1.05,.75-1.56,.43-.91,.78-1.86,1.17-2.8,.03-.08,.07-.16,.11-.23,.05-.09,.08-.22,.21-.22s.16,.13,.2,.22c.23,.62,.46,1.24,.7,1.86l.84,2.22c.02,.05,.04,.11,.06,.16,.02,.06,.05,.13,.07,.19,.03,.08,.07,.14,.13,.18,.08,.02,.19,.04,.32,.05h-.02Z"/></g><path class="cls-22" d="M271.97,216.32v.18h-1.1v-.15s0-.04-.02-.06c-.18-.26-.22-.31-.31-.47-.34-.57-.73-1.1-1.12-1.64-.25-.35-.21-.49,.21-.61,.08-.02,.16-.06,.24-.09,.5-.2,.7-.55,.56-.97-.13-.39-.56-.59-1.04-.49-.24,.05-.22,.23-.22,.39v2.24c0,.35-.02,.7-.03,1.05,0,.18-.02,.36,.07,.51,.09,.03,.2,.04,.36,.06v.18h-1.5v-.18c.19-.02,.32-.05,.42-.12h0c.05-.13,.04-.3,.04-.45,0-1.17,.03-2.33,.04-3.5,0-.24-.04-.45-.31-.58,.72,.02,1.43-.23,2.14,0,.76,.25,.91,1.3,.28,1.91-.03,.03-.07,.06-.11,.09-.34,.27-.39,.57-.15,.92,.26,.38,.52,.75,.77,1.13l.24,.36h0c.07,.12,.17,.18,.3,.24,.07,0,.15,.02,.25,.04h-.01Z"/></g></g><polygon id="Dambovita_MallFF01" class="cls-28" points="11.27 107.81 123.63 107.81 123.63 131.63 139.7 131.63 139.7 225.08 10.7 225.08 11.27 107.81"/><rect id="Dambovita_MallFF02_03" class="cls-28" x="126.14" y="107.81" width="13.56" height="21.2"/><polygon id="Dambovita_MallFF20" class="cls-28" points="10.7 98.55 10.7 34.77 73.72 34.77 73.72 66.22 139.7 66.22 139.7 98.55 10.7 98.55"/><rect id="Dambovita_MallFF18" class="cls-28" x="158.27" y="26.22" width="31.45" height="37.72"/><polygon id="Dambovita_MallFF17_A" class="cls-28" points="191.58 63.94 207.84 63.94 207.84 33.92 220.27 33.92 220.27 26.22 191.58 26.22 191.58 63.94"/><rect id="Dambovita_MallFF17_B" class="cls-28" x="210.12" y="36.25" width="10.14" height="27.69"/><rect id="Dambovita_MallFF14" class="cls-28" x="318.7" y="97.03" width="50.64" height="28.99"/><rect id="Dambovita_MallFF13" class="cls-28" x="318.7" y="127.89" width="50.64" height="15.31"/><polygon id="Dambovita_MallFF12" class="cls-27" points="309.17 152.4 324.32 152.4 324.32 167.21 335.23 167.21 335.23 190.97 315.44 190.97 309.37 184.9 309.17 152.4"/><polygon id="Dambovita_MallFF11" class="cls-27" points="335.23 192.78 335.23 204.87 289.47 204.87 289.47 185.78 307.83 185.78 314.77 192.72 335.23 192.78"/><rect id="Dambovita_MallFF09_10" class="cls-27" x="253.81" y="185.78" width="33.55" height="39.33"/><rect id="Dambovita_MallFF08" class="cls-27" x="225.31" y="185.78" width="26.54" height="39.33"/><rect id="Dambovita_MallFF07" class="cls-27" x="213.09" y="185.78" width="10.5" height="39.3"/><rect id="Dambovita_MallFF06" class="cls-27" x="195.51" y="185.78" width="15.88" height="39.3"/><polygon id="Dambovita_MallFF05" class="cls-27" points="193.55 185.78 173.77 185.78 173.77 210.69 166.76 210.69 166.76 225.11 193.55 225.11 193.55 185.78"/><polygon id="Dambovita_MallFF04" class="cls-27" points="172.38 185.78 152.19 185.78 152.19 225.08 164.48 225.08 164.48 208.82 172.38 208.82 172.38 185.78"/><polygon id="Dambovita_MallFF19_TE01" class="cls-28" points="10.7 33.15 10.7 11.13 176.01 11.13 176.01 24.44 156.4 24.44 156.4 63.94 75.38 63.94 75.38 33.15 10.7 33.15"/><rect id="Dambovita_MallFF16_TI02" class="cls-28" x="222.38" y="46.7" width="16.67" height="17.24"/></svg>