<?xml version="1.0" encoding="utf-8"?>
<!-- Generator: Adobe Illustrator 25.4.1, SVG Export Plug-In . SVG Version: 6.00 Build 0)  -->
<svg version="1.0" id="Layer_4" xmlns="http://www.w3.org/2000/svg" xmlns:xlink="http://www.w3.org/1999/xlink" x="0px" y="0px"
	 viewBox="0 0 833.6 778.5" style="enable-background:new 0 0 833.6 778.5;" xml:space="preserve">
<style type="text/css">
	.st0{fill:#F1F2F2;}
	.st1{fill:none;stroke:#000000;stroke-width:2;stroke-miterlimit:10;}
	.st2{fill:none;stroke:#000000;stroke-miterlimit:10;}
	.st3{display:none;fill:none;stroke:#000000;stroke-miterlimit:10;}
	.st4{fill-rule:evenodd;clip-rule:evenodd;}
	.st5{fill:#F47725;}
</style>
<g id="cladire">
	<g>
		<path class="st0" d="M815.4,768.1c-19.3-6.5-37.5-12.4-55-18.2c-14.9-4.9-30.3-10-46.6-15.4c-25.5-8.5-53.6-18.3-75.1-26.3
			c-77.5-28.7-152.6-61.6-223-97.8c-124.6-64-236.6-137.3-332.8-217.7c-0.9-0.7-2.8-2.3-5.4-4.4c-8.8-7.1-25-20.4-39.1-32.4
			c-7.9-6.8-14-12.2-18.1-16.3c-6.3-6.1-9.9-10.1-7.6-14.4C12.9,324.7,181.5,8.3,181.5,8.3H822v761.9L815.4,768.1z"/>
		<path class="st0" d="M817,13.3v750c-35.6-11.9-66-21.7-101.6-33.6c-23.3-7.7-51.9-17.7-75-26.2c-76-28.1-150.4-60.6-222.5-97.6
			c-117.5-60.4-230.5-132.4-331.9-217c-6.5-5.4-71.3-57.2-69.1-61.3c0,0,167.5-314.3,167.5-314.3H817 M827,3.3h-10H184.5h-6
			l-2.8,5.3C174,11.7,8.5,322.3,8.2,322.9c-2.3,4.3-1.4,9,2.5,13.9c1.4,1.7,3.4,3.8,6,6.4c4.2,4.1,10.4,9.7,18.4,16.5
			c14.1,12.1,30.4,25.4,39.2,32.5c2.6,2.2,4.6,3.7,5.4,4.4c96.5,80.6,208.8,154.1,333.8,218.3c70.6,36.3,145.8,69.3,223.6,98.1
			c21.6,8,49.7,17.8,75.3,26.3c16.3,5.4,31.7,10.5,46.6,15.4c17.5,5.8,35.7,11.7,55,18.2l13.2,4.4v-13.9v-750V3.3L827,3.3z"/>
		<path class="st1" d="M640.4,703.5c23,8.5,51.7,18.5,75,26.2c35.7,11.9,66,21.7,101.6,33.6v-750H184.5c0,0-167.5,314.3-167.5,314.3
			c-2.2,4.1,62.6,55.9,69.1,61.3c101.4,84.7,214.4,156.7,331.9,217C490,642.9,564.5,675.4,640.4,703.5z"/>
	</g>
</g>
<g id="magazine">
	<polyline class="st2" points="740.1,13.3 740.1,189.8 637.1,189.8 637.1,170.8 574.5,108 470.2,108 408.5,108 408.5,63.4 
		440.8,63.4 440.8,108 	"/>
	<polyline class="st2" points="391.8,13.3 391.8,107.3 375.8,107.3 365.6,118 185.8,118 141.2,94.6 	"/>
	<polyline class="st3" points="291.1,118 291.1,69.9 241.6,69.9 241.6,13.3 	"/>
	<polyline class="st2" points="469.6,13.3 469.6,69.9 469.6,108 	"/>
	<line class="st2" x1="440.8" y1="70.4" x2="469.6" y2="70.4"/>
	<polyline class="st2" points="593.6,13.3 593.6,108 584.8,116.8 584.1,117.6 	"/>
	<line class="st2" x1="33.5" y1="296.7" x2="108.1" y2="355.8"/>
	<polyline class="st2" points="107.5,355.4 113.9,360.5 114.3,359.9 231.7,134.2 183.7,133.6 154.3,189 104.6,163.4 	"/>
	<polyline class="st2" points="114,411.6 118.2,405.9 119.2,404.3 101.5,392.6 156.6,321.4 269.8,398.9 264.2,407.8 395.4,485.6 
		374.7,526.1 358,517.3 336.2,561.5 	"/>
	<polyline class="st2" points="443.1,618.6 449.7,606.7 425.1,593.6 441.9,561.5 387.8,532.3 410.7,489.7 425.1,489.7 543.8,548.3 
		561.2,548.3 576.1,554.6 576.7,678.7 	"/>
	<polyline class="st2" points="817,648.3 807.5,640 743.7,640 743.7,490.7 800.8,490.7 800.8,438.7 650,438.7 637.7,438.7 
		637.7,702.5 	"/>
	<polyline class="st2" points="817,423.6 637.7,423.6 637.7,207 715.4,207 715.4,237.6 715.4,251.2 637.7,251.1 	"/>
	<polyline class="st2" points="715.4,238.9 757.1,238.9 757.1,251.2 817,251.2 	"/>
	<path class="st2" d="M295.8,160.6h249.8l34.2,34v292.2l-37.6,14.6c-114.3-53-225.6-118.9-334.6-195l9.7-18.8H253v18.3h38.1v8.3
		h51.4v-74.6h-53v-55.9l-3.8-2.3L295.8,160.6z"/>
	<line class="st2" x1="342.5" y1="239.5" x2="342.5" y2="160.6"/>
	<polyline class="st2" points="342.5,314.1 342.5,382.7 336.4,390.7 	"/>
	<polyline class="st2" points="489.2,160.6 489.2,339.8 390.9,339.8 390.9,422.7 	"/>
	<polyline class="st2" points="432.6,446.2 440.4,435.5 440.4,389.8 390.9,389.8 348.2,389.8 345,395.9 	"/>
	<polyline class="st2" points="489.2,273.6 538,273.6 538,239.8 579.1,239.8 	"/>
	<line class="st2" x1="489.2" y1="310.3" x2="579.8" y2="310.3"/>
	<polyline class="st2" points="579.1,439.5 490.9,439.5 448.4,439.5 443.4,450.4 	"/>
	<line class="st2" x1="490.4" y1="476" x2="490.4" y2="439.5"/>
	<polyline class="st2" points="550.7,439.2 550.7,472 540.1,472 540.1,500.4 	"/>
	<line class="st2" x1="289.5" y1="239.5" x2="289.5" y2="305.9"/>
	<polyline class="st2" points="261.2,13.3 261.2,73.6 306.6,73.6 306.6,118 	"/>
	<line class="st2" x1="291.1" y1="314.1" x2="291.1" y2="362.3"/>
</g>
<g id="logo">
	<g>
		<path d="M638.2,86.5c0,2-1.3,3.8-3.5,3.8h-5V77.4h4.8c2.1,0,3.1,1.6,3.1,3.2c0,1.1-0.6,2.2-1.5,2.6
			C637.5,83.6,638.2,85,638.2,86.5z M631.9,79.6v2.8h2.2c1,0,1.4-0.8,1.4-1.5s-0.5-1.4-1.3-1.4H631.9z M635.9,86.3
			c0-0.9-0.5-1.7-1.6-1.7h-2.4V88h2.4C635.4,88,635.9,87.2,635.9,86.3z"/>
		<path d="M640,77.4h7.4v2.4h-5.2v2.8h4.8V85h-4.8v2.9h5.2v2.4H640V77.4z"/>
		<path d="M652.9,85.6h-1.3v4.7h-2.2V77.4h4.2c2.6,0,3.8,1.9,3.8,4.1c0,1.6-0.7,3.1-2.2,3.8l2.7,5h-2.6L652.9,85.6z M651.6,83.3h1.8
			c1.2,0,1.7-0.9,1.7-1.8c0-0.9-0.5-1.7-1.5-1.7h-2V83.3z"/>
		<path d="M658.5,88.1l1.3-1.8c0.7,1.2,1.8,1.8,2.9,1.8c0.9,0,1.6-0.6,1.6-1.4c0-0.6-0.4-1-1-1.3c-0.7-0.4-1.6-0.7-2.4-1.2
			c-1-0.6-1.7-1.6-1.7-3.2c0-2.1,1.5-3.8,3.7-3.8c1.3,0,2.6,0.5,3.6,1.8l-1.2,1.9c-0.7-0.8-1.6-1.2-2.4-1.2c-0.9,0-1.4,0.5-1.4,1.2
			c0,0.6,0.4,1,0.9,1.3c0.6,0.3,1.7,0.8,2.4,1.2c1.1,0.6,1.9,1.6,1.9,3.2c0,2.3-1.6,3.9-4,3.9C661,90.5,659.4,89.7,658.5,88.1z"/>
		<path d="M668.4,77.4h2.2v5.2h4.6v-5.2h2.2v12.9h-2.2V85h-4.6v5.3h-2.2V77.4z"/>
		<path d="M683.4,85.2l-1.3,1.9v3.2h-2.2V77.4h2.2v6.1l4.2-6.1h2.7l-4,5.9l4.3,7.1h-2.7L683.4,85.2z"/>
		<path d="M696,87.5h-3.8l-0.8,2.8H689l4.2-12.9h1.8l4.1,12.9h-2.3L696,87.5z M692.8,85.2h2.6l-1.3-4.3L692.8,85.2z"/>
	</g>
	<path d="M371.3,58.4c0.3,0.6,0.6,0.9,1.1,1.8c0.6,1.3,1.4,2.8,2.1,3.9h-3.3c-0.5-0.9-0.9-1.8-1.3-2.6c-0.5-1.1-1-1.6-1.3-2.2
		c-0.9,0.1-1.6,0.1-1.6,0.1v4.7h-2.5V49.5h3.5c3.6,0,5.7,1.8,5.7,4.8c0,1-0.2,1.7-0.7,2.4C372.6,57.4,372,58,371.3,58.4L371.3,58.4z
		 M367.8,52.1H367v4.6h0.9c1.4,0,3.1-0.3,3.1-2.3C371,52.8,369.9,52.1,367.8,52.1L367.8,52.1z M359.2,60.5h-5.5l-1.5,3.5h-2.9
		l6.1-14.6h2.1l6.2,14.6h-3L359.2,60.5L359.2,60.5z M356.5,53.6c0,0-1.8,4.5-1.8,4.5h3.6L356.5,53.6z M342.5,61.5h6v2.5H340V49.5
		h8.5V52h-6v3.5h6V58h-6V61.5z M333.7,64.1h-4.6V49.5h2.8c1.6,0,2.8,0.1,3.7,0.7c1.3,0.8,2.1,2.1,2.1,3.6c0,1-0.4,1.8-1.2,2.5
		c1.4,0.7,2.2,1.5,2.2,3.2C338.6,62,336.5,64.1,333.7,64.1z M332.7,52h-1.1v3.5h1.2c1,0,2.2-0.2,2.2-1.7C335,53.1,334.8,52,332.7,52
		z M333.2,58h-1.7v3.6h1.6c2.8,0,2.8-1.1,2.8-1.6C335.9,59.5,335.9,58,333.2,58z M324.3,64l-1-1.1c-1,1-2.3,1.7-3.9,1.7v0
		c-2.7,0-4.8-2.2-4.8-4.9c0-1.7,0.9-3.2,2.2-4l0,0c-0.7-0.8-1.1-1.6-1.1-2.6c0-1,0.4-2.1,1.1-2.8c0.7-0.7,1.7-1.2,2.7-1.2
		c1,0,2,0.4,2.7,1.2h0c0.3,0.3,0.6,0.7,0.8,1.1l-2.2,1.1c-0.1-0.2-0.2-0.3-0.3-0.5c-0.5-0.6-1.4-0.6-2,0c0,0,0,0,0,0
		c-0.3,0.3-0.4,0.7-0.4,1c0,0.4,0.1,0.7,0.4,1l0,0l3.8,4.1c0.4-1.7,1.9-3,3.7-3v2.5c0,0-0.1,0-0.1,0c-0.6,0.1-1,0.6-1.2,1.5
		c-0.1,0.5-0.2,0.9-0.2,1.4l3,3.4H324.3z M318.6,57.6c-0.9,0.2-1.5,1.1-1.5,2.1c0,1.3,1.1,2.4,2.4,2.4v0c0.9,0,1.7-0.4,2.2-1.1
		L318.6,57.6z M306.6,49.5h2.5v12h4.5v2.5h-7V49.5z M298.6,49.5h2.5v12h4.5v2.5h-7V49.5z M291.1,64.3c-3.5,0-5.4-2.4-5.4-6.1v-8.7
		h2.5v8.5c0,2.3,0.9,3.6,2.9,3.6c2.6,0,3.1-2,3.1-3.6v-8.5h2.5v8.7C296.6,61.8,294.5,64.3,291.1,64.3z M278.9,60h-1.3v4h-2.5V49.5
		h3.2c3.7,0,5.8,2.5,5.8,5.3C284.2,57.6,282.3,60,278.9,60z M278.4,52.1h-0.7v5.5h1c1.8,0,3-1.2,3-2.7
		C281.7,53.3,280.5,52.1,278.4,52.1z"/>
	<g>
		<path d="M274.4,93.5c0.1-0.5,0.1-0.8,0.1-1c0-0.3-0.2-0.4-0.4-0.5l-1-0.1l-1.2,0.1c-0.2,0.1-0.5,0.3-0.6,0.5
			c-0.2,0.2-0.3,0.5-0.4,1c-0.1,0.4-0.1,0.7,0,0.9c0,0.2,0.2,0.4,0.4,0.5l1,0.1l0.7,0l0.6-0.1l0.5-0.3l0.2-0.4l0-0.1h-1.2l-0.2,0.3
			l-0.5,0c-0.2,0-0.4,0-0.5-0.2c-0.1-0.1,0-0.3,0.1-0.6h2.4L274.4,93.5z M273.2,92.6c0.1,0,0.2,0,0.2,0.1l-0.1,0.4h-1.2v0
			c0.1-0.2,0.2-0.3,0.2-0.4l0.5-0.1L273.2,92.6z"/>
		<path d="M261.5,90.7h-1.2l-1.2,4.3l1.2,0l0.5-1.7c0-0.2,0.1-0.4,0.2-0.5c0.1-0.2,0.3-0.2,0.6-0.2c0.2,0,0.3,0,0.4,0.1
			c0,0.1,0,0.2,0,0.3l-0.5,1.8l1.2,0l0.5-2.1c0.1-0.3,0-0.5-0.1-0.7c-0.1-0.2-0.5-0.3-0.8-0.3l-0.7,0.1c-0.2,0.1-0.4,0.3-0.6,0.5
			l0,0L261.5,90.7z"/>
		<path d="M257.6,94.4L257.6,94.4l0-2.4h-1.4l-1.2,2.4l-0.1,0l0.2-2.3l-1.2,0l-0.1,3l1.7,0l1-2.2h0.1l0,2.1l1.7,0l1.4-3h-1
			L257.6,94.4z"/>
		<path d="M264.5,92.1c-0.3,0.1-0.5,0.3-0.7,0.5c-0.2,0.3-0.3,0.6-0.4,1c-0.1,0.3-0.1,0.6-0.1,0.9c0,0.2,0.2,0.4,0.4,0.5l1.1,0.1
			l0.7,0l0.6-0.1l0.4-0.3l0.3-0.5l0,0h-1.2l-0.3,0.3l-0.5,0c-0.2,0-0.4,0-0.5-0.2c0-0.1,0-0.3,0-0.6h2.4l0-0.1
			c0.1-0.4,0.2-0.8,0.1-1c-0.1-0.3-0.2-0.4-0.5-0.5l-1-0.1L264.5,92.1z M265.5,92.6l0.3,0c0.1,0,0.2,0,0.2,0.1l0,0.4h-1.2l0,0
			c0-0.2,0.1-0.3,0.2-0.4L265.5,92.6z"/>
		<path d="M270.1,92l-0.6,0.1c-0.2,0.1-0.3,0.2-0.5,0.4l-0.1,0l0.2-0.4v0l-1.2,0l-0.8,3l1.2,0l0.5-1.8c0.1-0.2,0.1-0.3,0.2-0.3
			c0.1-0.1,0.3-0.2,0.4-0.2c0.2,0,0.3,0,0.3,0.2l0,0.3l0,0.1l1,0l0.1-0.3l0.1-0.5c0-0.2,0-0.3-0.2-0.4C270.6,92,270.4,92,270.1,92z"
			/>
		<path d="M243.6,93.2h-0.4c-0.5,0-0.8,0-1,0.2c-0.2,0.1-0.5,0.4-0.5,0.8c-0.1,0.2-0.1,0.4,0,0.5c0,0.2,0.2,0.2,0.3,0.3l0.7,0.1
			l0.5,0l0.4-0.1l0.3-0.3h0l0,0h0l-0.2,0.4l1.2,0l0.5-1.9c0.1-0.3,0.1-0.6,0-0.8L245,92h-1.8c-0.2,0-0.5,0.1-0.7,0.3
			c-0.2,0.1-0.3,0.3-0.4,0.5l0,0.1l1.2,0c0-0.2,0.1-0.3,0.2-0.3l0.4,0l0.3,0l0.2,0.2l0,0.3l-0.2,0.5h-0.1l-0.2-0.2L243.6,93.2z
			 M244.1,94.1l-0.2,0.3l-0.5,0.1h-0.2l-0.2-0.1l-0.1-0.2v-0.1c0.1-0.1,0.2-0.2,0.3-0.3l0.4,0l0.5,0L244.1,94.1L244.1,94.1z"/>
		<path d="M247.4,92.1L247.4,92.1l-1.2-0.1l-0.8,3l1.2,0l0.4-1.7c0-0.2,0.1-0.3,0.2-0.4c0.2-0.2,0.4-0.2,0.6-0.2
			c0.2,0,0.3,0,0.4,0.1c0,0.1,0,0.2,0,0.4l-0.5,1.8l1.2,0l0.6-2.1c0-0.3,0-0.5-0.1-0.7c-0.1-0.2-0.4-0.3-0.8-0.3l-0.7,0.1
			c-0.2,0.1-0.4,0.3-0.6,0.5l0,0L247.4,92.1z"/>
		<path d="M250.9,95.1l-0.3,0.5c-0.1,0.1-0.3,0.2-0.6,0.2h-0.1l-0.2,0.5v0.1l0.4,0l0.8-0.1l0.5-0.3l0.5-0.6l1.8-3.3h-1.2l-1.2,2.5h0
			l0-2.5l-1.2,0l0.2,3L250.9,95.1L250.9,95.1L250.9,95.1z"/>
		<path d="M275.3,84.1c0-0.8-0.1-1.5-0.4-2c-0.3-0.4-0.7-0.8-1.2-1c-0.5-0.2-1.2-0.3-1.9-0.3h-4l-1.9,0.3c-0.5,0.2-0.9,0.5-1.2,1
			c-0.3,0.5-0.4,1.1-0.4,2v2.5c0,0.8,0.1,1.5,0.4,2c0.3,0.4,0.7,0.7,1.2,0.9l1.9,0.3h4c0.7,0,1.3-0.1,1.9-0.3
			c0.5-0.2,0.9-0.5,1.2-0.9c0.3-0.5,0.4-1.2,0.4-2V84.1z M266.8,84.8c0-0.4,0-0.8,0.1-1.1c0.1-0.3,0.2-0.5,0.5-0.7
			c0.2-0.1,0.5-0.2,1-0.2h2.9c0.4,0,0.7,0.1,1,0.2c0.2,0.2,0.4,0.4,0.5,0.7l0.1,2.1c0,0.7,0,1.2-0.2,1.5c-0.2,0.3-0.6,0.4-1.1,0.4
			h-3.1c-0.6,0-1-0.1-1.2-0.4c-0.2-0.3-0.3-0.8-0.2-1.5V84.8z"/>
		<path d="M263.6,89.7v-2.3h-6v-6.4h-2.6v8.6H263.6z"/>
		<path d="M253.8,83v-2h-9v8.6h9.2v-2.1h-6.6v-1.4h5.8v-1.8h-5.8V83H253.8z"/>
		<path d="M243.8,81.1h-3l-3,6.6l-3-6.6h-2.8l3.9,8.6h3.9L243.8,81.1z"/>
		<path d="M231.3,81.1h-2.7l0,6.3l-4.4-6.3H220v8.6h2.6v-6.3l4.4,6.3h4.3V81.1z"/>
		<path d="M218.5,83v-2h-9.1v8.6h9.2v-2.1h-6.6v-1.4h5.8v-1.8h-5.8V83H218.5z"/>
		<path d="M208.5,89.7L208.5,89.7l-5.5-4.4l5-4.2h-3.7l-3.7,3.1h-1.1v-3.1H197v8.6h2.5v-3.3h1l4.2,3.3H208.5z"/>
		<path d="M193.2,81.1c-0.1-0.7-0.5-1.1-1.2-1.3l-6,5c0,0.1-0.1,0.1-0.1,0.2v0v0.1v0.1l0.1,0.2l6.6,5.4c0.3-0.3,0.5-0.7,0.6-1.1
			C193.7,86.9,193.7,84,193.2,81.1z"/>
		<path d="M189.1,79.5L189.1,79.5c-3.7-0.3-7.5-0.2-11.1,0.3c-1,0-1.5,0.5-1.5,1.4c-0.6,2.9-0.6,5.8,0,8.6c0,0.9,0.5,1.4,1.5,1.4
			l10.4,0.3l-5.9-4.9l-1.2,3h-2.6l-0.3-0.1c-0.3-0.1-0.4-0.3-0.3-0.7l3.1-8.2h3.5l-1.4,3.6L189.1,79.5z"/>
	</g>
	<g>
		<polygon points="85.1,219.8 89.8,221.7 95.1,230.8 95.1,223.3 98.9,224.3 98.9,238.5 95.4,238.5 89.2,228 89.2,238.5 85.1,238.5 
			85.1,219.8 		"/>
		<polygon points="100.6,224.7 100.6,238.5 109.4,238.5 109.4,235.3 104.6,235.3 104.6,233.1 108.5,233.2 108.5,230.7 104.6,230.3 
			104.6,228.6 108.6,229 108.6,226 100.6,224.7 		"/>
		<polygon points="109.5,226.2 112.2,238.5 115.6,238.5 118,232 119.6,238.5 123,238.5 125.9,227.9 122.7,227.7 121.2,233.1 
			119.7,227.4 116.5,227.1 114.4,233.2 113.2,226.7 109.5,226.2 		"/>
		<polygon points="129.5,238.5 131.7,238.5 131.7,228.1 138.5,218 133.6,218 129.5,224.8 125.4,218 120.5,218 127.3,228.1 
			127.3,238.5 129.5,238.5 		"/>
		<path d="M137.9,227.4l-3.3,0.2l-1.6,1.5v1.7v6l1.7,1.7h3.2l1.6-1.8v-7.9L137.9,227.4L137.9,227.4z M137.1,236.5h-1.7V230h1.7
			V236.5L137.1,236.5z"/>
		<path d="M146.9,228l-1.2-1.2l-5.2,0.5v3.2l0,8.1h2.6V234h1.4v4.5h2.5v-5.1l-0.8-0.9l0.8-1V228L146.9,228z M144.4,231.6H143v-2.5
			h1.4V231.6L144.4,231.6z"/>
		<polygon points="148.2,226.3 148.2,238.5 151.3,238.5 151.3,233.5 153.8,238.5 157,238.5 153.5,231.4 156.6,225 153.4,225.6 
			151.3,229.7 151.3,225.9 148.2,226.3 		"/>
		<polygon points="157.2,224.9 163.7,223.4 163.7,226.3 160.7,227 160.7,229.1 163.6,228.7 163.6,232 160.7,232.3 160.7,235.2 
			163.8,235.2 163.8,238.5 157.2,238.5 157.2,224.9 		"/>
		<path class="st4" d="M168.3,228.5v-3.4l2.1-0.6v3.7L168.3,228.5L168.3,228.5z M165,238.5h3.3v-6.6l2.1-0.1v6.7h3.5v-7.2l-1.2-1.6
			l1.1-1.7v-5.7l-1.5-1.7L165,223v3.4V238.5L165,238.5z"/>
	</g>
	<g>
		<rect x="422.9" y="248.5" width="4.1" height="16.1"/>
		<polygon points="408.1,248.7 403,264.6 398.5,264.6 395.1,253.9 391.6,264.6 387.1,264.6 382,248.7 386.1,248.7 389.4,258.8 
			392.6,248.7 397.5,248.7 400.7,258.8 404,248.7 		"/>
		<polygon points="350.6,248.5 354.7,248.5 354.7,261.1 362,261.1 362,264.6 354.7,264.6 350.6,264.6 350.6,261.1 		"/>
		<polygon points="433.1,257.2 433.1,264.6 429.1,264.6 429.1,248.5 433.1,248.5 433.1,254.7 437.8,248.5 443.1,248.5 437.4,255.9 
			443.8,264.6 438.6,264.6 		"/>
		<rect x="444.4" y="248.5" width="4.1" height="16.1"/>
		<polygon points="454.5,257.2 454.5,264.6 450.4,264.6 450.4,248.5 454.5,248.5 454.5,254.7 459.1,248.5 464.4,248.5 458.7,255.9 
			465.1,264.6 459.9,264.6 		"/>
		<rect x="465.9" y="248.5" width="4.1" height="16.1"/>
		<path class="st4" d="M361.9,255.8c0-4.2,3.4-7.7,7.6-7.7h1.9c3.5,0,6.4,2.3,7.3,5.4h-4.1c-0.8-1.4-2.3-2.4-4-2.4h-0.1
			c-2.5,0-4.6,2.1-4.6,4.6v1.7c0,2.5,2.1,4.6,4.6,4.6h0.1c1.7,0,3.3-1,4-2.4h4.1c-0.9,3.2-3.9,5.4-7.3,5.4h-1.9
			c-4.2,0-7.6-3.4-7.6-7.7V255.8z"/>
		<path class="st4" d="M408.5,249.4c0,0,5.8-2.8,10.4,0c0,0,2.3,1.4,2.2,5.7l0.1,9.8h-3.6v-7.4c0,0-6.4-0.6-6.5,2.3
			c-0.2,2.8,2.5,2.5,2.5,2.5s2.3-0.3,3.1-1.8v3.1c0,0-1.9,1.9-4.7,1.7c-2.8-0.2-4.3-2.2-4.3-2.2s-1.4-1.7-0.5-4.7
			c1-2.9,4.6-3.4,4.6-3.4s1.5-0.3,5.2-0.2c0,0,0.3-2.5-1.3-3c-1.6-0.5-4.1-0.1-4.1-0.1s-2.3,0.6-4,1.8L408.5,249.4z"/>
	</g>
	<g>
		<path d="M535.6,567.6c-1.2,0.5-2.2,0-3.7,3.1c-4.7,9.7-8.4,17.6-12.7,28.9c0.1-9.3,1.8-16.7,2.8-25.8c0.2-1.7,0.4-4,0.4-5.7
			c0-1.3-1.4-1.5-4-0.2c-1.5,0.7-3.3,0.7-3.9,2.4c-2.9,7.5-9.6,28.5-12.7,40.3c-0.7,2.8,2.1,3.3,2.9,0.4c2-7.1,6.7-22.7,9.5-30.7
			c-0.3,7.4-2.3,19-1.3,25.1c0.3,1.9,2.1,2.7,3,4.4c0.7,1.2,1.7,1.3,2.3-0.3c2.7-7.4,8-20.6,13.1-31.1c-1,4.6-4.8,24.3-5.9,32.1
			c-0.2,1.6,1.7,1.6,3.4,4c0.4,0.5,1.9,1.1,2.1-0.3c0.9-4.7,6.8-35.2,9.2-44.8C540.6,566.7,540.4,565.4,535.6,567.6z"/>
		<path d="M496.8,589.7c2-3.1,2.6-2.4,3.1-3.4c0.6-1.2,0.2-2.3-2-2c0,0-0.8,0.1-2.3,0.2c2.4-6.3,4.5-11.6,6.1-15.6
			c0.5-1.4,0.6-2.4-0.3-2.6c-0.9-0.2-3.5,1.2-5.1,1.5c-0.5,0.1-1,0.6-1.2,1c-2.6,5.9-4.9,11.6-6.9,16.7c-2.6,0.4-5.5,1-8.9,1.8
			c2.4-6.2,4.8-12.2,7.2-18.1c1.2-2.9-1.9-3.2-3.1-0.2c-1.5,3.8-4.4,10.9-7.6,19.2c-2.4,0.6-4.8,1.2-7.4,2c-1.9,0.5-2,1.1-1.2,2.2
			c0.5,0.6,1.4,0.6,1.8,1c1.1,1.2,1.8,2.6,3.7,2.8c-1.8,4.7-3.5,9.6-5.1,14.3c-1,2.9,1.9,3.6,2.9,0.4c1.8-5,3.6-10.1,5.5-15.2
			c1.6-0.4,5.5-1.2,9-2c-2.8,7.8-4.7,13.7-5.4,16.6c-0.1,0.6,0.1,0.9,0.2,1.1c1,1.4,1.9,1.5,3.1,3.2c0.3,0.5,1.4,0.7,1.8-0.4
			c2.6-7.9,5.3-15.4,7.8-22.1C493.8,591.9,495.7,591.4,496.8,589.7z"/>
		<path d="M498.8,601.8c-0.2,0.2-0.4,0.3-0.6,0.5c-0.2-0.7-0.4-1.4-0.6-2c0.6-0.8,1.2-1.5,1.7-2.3c2.1-3.3-2.1-5.2-3.8-3
			c-1,1.1-0.7,2.3-0.5,3.2c0.1,0.3,0.2,0.7,0.4,1.2c-0.5,0.5-1.1,1.2-1.9,2.1c-2,2.4-1.5,5.4,0.7,6.1c1.3,0.4,2.6-0.2,3.6-1.1
			c0.1,0.1,0.1,0.3,0.2,0.4c0.6,1.4,2.3,1,1.7-0.7c-0.1-0.3-0.3-0.7-0.4-1.2c0.3-0.4,0.7-0.9,0.9-1.3
			C501.3,601.8,500.1,600.7,498.8,601.8z M497.4,597.3c-0.2,0.2-0.4,0.4-0.6,0.6c0-0.2-0.1-0.3-0.1-0.4
			C496.1,595.2,498.7,595.8,497.4,597.3z M496,604.3c-0.8,0.5-1.4,0-0.4-1.5c0.2-0.2,0.4-0.5,0.5-0.7c0.2,0.6,0.4,1.1,0.6,1.7
			C496.5,604,496.2,604.2,496,604.3z"/>
	</g>
	<g>
		<path d="M654.6,573.5h2.3c0.8,0,1.4-0.1,1.7-0.4c0.3-0.3,0.5-0.7,0.5-1.3c0-0.5-0.2-0.9-0.5-1.2c-0.3-0.3-0.9-0.4-1.7-0.4h-2.3
			V573.5L654.6,573.5z M646.3,563.4h13.8c6.9,0,10.1,8.3,5.2,13.3c4.9,4.5,4,10.3-0.3,12.9c-1.5,0.9-3.8,1.1-6,1.1h-12.7V563.4
			L646.3,563.4z M654.6,583.9h2.8c1,0,1.7-0.1,2.1-0.4c0.4-0.3,0.6-0.7,0.6-1.3c0-0.5-0.2-0.9-0.6-1.2c-0.4-0.3-1.1-0.4-2-0.4h-2.8
			V583.9L654.6,583.9z"/>
		<polygon points="670.6,562.7 678.8,562.7 678.8,590.7 670.6,590.7 670.6,562.7 		"/>
		<polygon points="696.7,562.6 704.7,562.6 704.7,583.2 709.9,583.2 709.9,590.7 696.7,590.7 696.7,562.6 		"/>
		<path d="M724.7,587h-5.5l-0.8,3.7h-7.8l7-27.8l8.2,0.2l7.6,27.6h-8.1L724.7,587L724.7,587z M723.3,581.5l-1.2-4l-1.3,4H723.3
			L723.3,581.5z"/>
		<polygon points="681.4,562.6 689.5,562.6 689.5,583.2 694.6,583.2 694.6,590.7 681.4,590.7 681.4,562.6 		"/>
		<path d="M733.1,562.6c0.4,0,0.7,0.1,1,0.3c0.3,0.2,0.6,0.4,0.8,0.8c0.2,0.3,0.3,0.7,0.3,1.1c0,0.4-0.1,0.7-0.3,1.1
			c-0.2,0.3-0.5,0.6-0.8,0.8c-0.3,0.2-0.7,0.3-1.1,0.3c-0.4,0-0.7-0.1-1.1-0.3c-0.3-0.2-0.6-0.5-0.8-0.8c-0.2-0.3-0.3-0.7-0.3-1.1
			c0-0.4,0.1-0.7,0.3-1.1c0.2-0.3,0.5-0.6,0.8-0.8C732.4,562.7,732.7,562.6,733.1,562.6L733.1,562.6z M733.1,562.9
			c-0.3,0-0.6,0.1-0.9,0.2c-0.3,0.2-0.5,0.4-0.7,0.7c-0.2,0.3-0.2,0.6-0.2,0.9c0,0.3,0.1,0.6,0.2,0.9c0.2,0.3,0.4,0.5,0.7,0.7
			c0.3,0.2,0.6,0.2,0.9,0.2c0.3,0,0.6-0.1,0.9-0.2c0.3-0.2,0.5-0.4,0.7-0.7c0.2-0.3,0.2-0.6,0.2-0.9c0-0.3-0.1-0.6-0.2-0.9
			c-0.2-0.3-0.4-0.5-0.7-0.7C733.7,563,733.4,562.9,733.1,562.9L733.1,562.9z M732.1,565.9v-2.3h0.8c0.3,0,0.5,0,0.6,0.1
			c0.1,0,0.2,0.1,0.3,0.2c0.1,0.1,0.1,0.2,0.1,0.3c0,0.2-0.1,0.3-0.2,0.4c-0.1,0.1-0.3,0.2-0.5,0.2c0.1,0,0.1,0.1,0.2,0.1
			c0.1,0.1,0.2,0.2,0.3,0.5l0.3,0.5h-0.5l-0.2-0.4c-0.2-0.3-0.3-0.5-0.4-0.5c-0.1-0.1-0.2-0.1-0.3-0.1h-0.2v1H732.1L732.1,565.9z
			 M732.5,564.6h0.4c0.2,0,0.4,0,0.4-0.1c0.1-0.1,0.1-0.1,0.1-0.3c0-0.1,0-0.1-0.1-0.2c0-0.1-0.1-0.1-0.2-0.1c-0.1,0-0.2,0-0.4,0
			h-0.4V564.6L732.5,564.6z"/>
	</g>
	<g>
		<path d="M702.7,356.5c-4.7,2.8-9.8,4.3-15.2,4.3c-6.3,0-11.5-2-15.4-5.9c-4.1-4.1-6.2-9.4-6.2-15.9c0-6.5,2-11.8,6.1-15.8
			c4.1-4,9.6-6.1,16.4-6.1c4.8,0,9.5,1.2,13.9,3.5v9.9c-4.4-3-8.8-4.5-13.3-4.5c-4,0-7.2,1.2-9.5,3.5c-2.3,2.3-3.5,5.5-3.5,9.5
			c0,3.9,1.1,7,3.3,9.4c2.2,2.4,5.2,3.6,8.9,3.6c4.8,0,9.6-1.8,14.4-5.3V356.5L702.7,356.5z"/>
		<path d="M785.6,356.5c-4.7,2.8-9.8,4.3-15.2,4.3c-6.3,0-11.5-2-15.4-5.9c-4.1-4.1-6.2-9.4-6.2-15.9c0-6.5,2-11.8,6.1-15.8
			c4.1-4,9.6-6.1,16.4-6.1c4.8,0,9.4,1.2,13.9,3.5v9.9c-4.4-3-8.8-4.5-13.3-4.5c-4,0-7.2,1.2-9.5,3.5c-2.3,2.3-3.5,5.5-3.5,9.5
			c0,3.9,1.1,7,3.3,9.4c2.2,2.4,5.2,3.6,8.9,3.6c4.8,0,9.6-1.8,14.4-5.3V356.5L785.6,356.5z"/>
		<path d="M744.1,356.5c-4.7,2.8-9.8,4.3-15.2,4.3c-6.3,0-11.5-2-15.4-5.9c-4.1-4.1-6.2-9.4-6.2-15.9c0-6.5,2-11.8,6.1-15.8
			c4.1-4,9.6-6.1,16.4-6.1c4.8,0,9.4,1.2,13.9,3.5v9.9c-4.4-3-8.8-4.5-13.2-4.5c-4,0-7.2,1.2-9.5,3.5c-2.3,2.3-3.5,5.5-3.5,9.5
			c0,3.9,1.1,7,3.3,9.4c2.2,2.4,5.2,3.6,8.9,3.6c4.7,0,9.5-1.8,14.3-5.3V356.5L744.1,356.5z"/>
	</g>
	<g>
		<path d="M666.4,229c0.1-0.2,0.6-1.4,0.3-1.4c0,0-0.2,0.1-0.4,0.6c-0.1,0.5-0.2,0.7-0.2,0.9C666.1,229.3,666.3,229.3,666.4,229z"/>
		<path d="M687.8,229.7c0.1-0.5,0.3-1.1,0.1-1.2c0,0-0.2,0-0.5,0.6c-0.2,0.6-0.4,1.3-0.2,1.4C687.3,230.6,687.7,230.3,687.8,229.7z"
			/>
		<path d="M678.8,229.9c-0.2,0.4-0.5,1.3-0.6,1.8c-0.1,0.6-0.1,0.9,0.2,1.1c0.3,0.1,0.6-1,0.6-1.2c0.1-0.1,0.3-1.6,0.2-1.9
			C679.1,229.3,678.9,229.6,678.8,229.9z"/>
		<path d="M684.8,228.1c0,0-0.6,1.1-0.6,2.6c0,1.5-0.1,2,0.2,2.1c0.3,0,0.7-1.6,0.7-2.2C685.1,229.9,685.3,228,684.8,228.1z"/>
		<path d="M681.8,229.3c-0.2,0.6-0.6,1.6-0.7,2.3c-0.1,0.7-0.1,1.2,0.2,1.3c0.3,0.2,0.6-1.3,0.7-1.5c0.1-0.2,0.4-2.1,0.3-2.4
			C682.1,228.5,681.9,228.9,681.8,229.3z"/>
		<path d="M694.6,226.5c-0.1-0.1-0.2-0.2-0.3-0.2c-0.1,0-0.3-0.1-0.4-0.1c-0.1,0-0.3,0-0.4,0.1c-0.1,0-0.2,0.1-0.3,0.2
			c-0.1,0.1-0.2,0.2-0.2,0.3c-0.1,0.1-0.1,0.2-0.1,0.4c0,0.1,0,0.3,0.1,0.4c0.1,0.1,0.1,0.2,0.2,0.3c0.1,0.1,0.2,0.2,0.3,0.2
			c0.1,0.1,0.2,0.1,0.4,0.1c0.1,0,0.3,0,0.4-0.1c0.1,0,0.2-0.1,0.3-0.2c0.1-0.1,0.2-0.2,0.2-0.3c0.1-0.1,0.1-0.2,0.1-0.4
			c0-0.1,0-0.3-0.1-0.4C694.8,226.7,694.7,226.6,694.6,226.5z M694.4,227.8h-0.3l-0.3-0.5h-0.2v0.5h-0.3v-1.3h0.5
			c0.2,0,0.3,0,0.4,0.1s0.1,0.1,0.1,0.3c0,0.1,0,0.2-0.1,0.2c-0.1,0.1-0.1,0.1-0.2,0.1L694.4,227.8z"/>
		<path d="M676.7,214l-26.4,15.3l26.4,15.5l26.2-15.5L676.7,214z M669.1,233.6c-0.1,0-0.3,0-0.4,0.1c-0.4,0.1-0.2,0.6-0.6,0.8
			c-0.4,0.1-1.4,0.1-1.8,0.1c-0.6,0-1.3,0-1.9-0.1c-0.2,0-0.4,0-0.6,0c-0.1,0-0.2-0.1-0.3-0.1c-0.3,0.1-0.4,0.3-0.7,0.4
			c-0.5,0.2-1.4,0.1-1.8-0.1c-0.7-0.3-0.5-1.1-0.6-2c0-0.3,0-0.6,0-1c0.1-1.2,0.1-2.4,0.2-3.6c0.2-1.2,0.4-2.4,0.7-3.5
			c0.1-0.4-0.3-0.7-0.1-1c0.2-0.4,0.8-0.6,1.3-0.7c0.1,0,0.3-0.1,0.4-0.1l0.2,0h0.2c0.7,0,1.5,0.1,1.8,0.4c0.3,0.5-0.1,0.5-0.2,0.7
			c0,0.3-0.1,0.7-0.1,1c-0.1,0.5-0.1,1-0.2,1.5c-0.1,0.5-0.1,1.1-0.2,1.6c-0.1,0.8-0.3,1.6-0.4,2.3c-0.1,0.5-0.2,1.1-0.3,1.6
			c0,0.2-0.1,0.5,0,0.7c0.2,0.1,1.2,0.2,1.4,0.2c0-0.2-0.1-0.4-0.1-0.6c0-0.4-0.1-0.7-0.1-1.1c0-0.2,0-0.5,0-0.7
			c0.1-0.3,0-0.6,0.1-0.9c0.2-0.9,0.5-1.7,0.9-2.4c0.2-0.4,0.6-1.4,1.3-1.2c0.7,0.2,1,0.9,0.8,1.8c-0.1,0.6-0.4,1.1-0.7,1.5
			c-0.2,0.4-0.4,0.7-0.6,1.1c-0.2,0.2-0.7,0.4-0.8,0.6c-0.1,0.1-0.1,1,0,1.2c0,0.1,0.1,0.1,0.1,0.2c0.4,0,0.6-0.3,0.8-0.5
			c0.8-0.8,0.9-2.4,1.4-3.5c0.3-0.6,0.6-1.2,1.5-0.8c0.1,0.1,0.2,0.1,0.4,0.2c0.2,0.2,0.2,1,0.2,1.4c-0.2,1-0.5,1.9-1.1,2.5
			c-0.2,0.2-0.8,0.4-0.7,0.8c0.1,0.4,0.3,0.5,0.7,0.6c0.2,0,0.3,0,0.5,0c0.2-0.1,0.3-0.3,0.5-0.4c0.1-0.1,0.4-0.2,0.5,0.1
			C670.5,233.1,669.5,233.5,669.1,233.6z M694,232.9c0,0.2-0.1,0.3-0.1,0.3c-1.1,1-2.6,0.6-2.6,0.6c-1.7-0.5-1.7-3-1.7-3.3
			c0-0.2-0.2-0.2-0.2-0.2c-0.3,2.3-0.9,3.8-2.3,3.6c-1.4-0.2-1.1-2.5-1.1-2.5l-0.1,0c-0.3,2.8-2,2.4-2,2.4l-0.2,2.8
			c-0.1,0.4-0.2,0.5-0.4,0.5c-0.2,0-0.4-0.1-0.4-0.4c0.1-1.8,0.1-5.2,0.1-7c0-0.2-0.2,0-0.2,0c0.1,0.4-0.2,2.1-0.2,2.1
			c-0.6,3.1-1.9,2.6-1.9,2.6c-1.6-0.4-0.9-3.3-0.8-3.7c0.1-0.4,0.3-0.8,0.2-1c0-0.2-0.6-0.2-0.6-0.2c0.2,0.3,0.1,1.5,0.1,1.5
			c-0.1,2.5-1.3,3.3-1.8,3.3c-0.6,0-0.8-0.6-0.9-0.8c0-0.1-0.2,0-0.2,0c-1.8,1.4-3.6,0.8-3.6,0.8c-2.1-0.8-2.2-2.3-2-4.5
			c0.3-2.2,1.5-4.9,2-5.8c0.4-0.9,0.7-1.1,2.4-0.9c1.6,0.2,1.9,1.3,1.9,1.3c0.4,1.8,0,3.3-0.2,4.1c-0.2,0.8-0.8,1.2-1.1,1.1
			c-0.3-0.1-0.2-0.9-0.2-0.9s0.1-0.2,0.2-1.4c0.1-1.2-0.2-1.7-0.2-1.7c-0.4-0.6-0.7,0.1-1.1,1.2c-0.4,1.1-0.6,3.8-0.6,4.8
			c0,0.9,0.4,1.7,1.3,1.7c1,0,1.2-0.6,1.2-0.6c-0.2-2.3,1.1-3.9,1.5-4.2c0.3-0.3,0.8-0.4,1,0c0.2,0.4,0.4,0.4,0.8,0.4
			c0.4,0,0.7-0.1,1-0.7c0.3-0.6,0.8-0.7,0.8-0.7c0.8,0,0.8,0.8,0.9,0.9c0,0.1-0.1,0.4,0.2,0.4c0.3-0.1,0.2-0.3,0.2-0.3
			c0,0,0.3-1.8,0.4-2.3c0.1-0.4,1-0.6,1.2-0.1c0.2,0.5-0.1,0.7-0.1,0.7l0,0.4c0,0,0.7-0.1,1.1,0.9c0.3,1,0.2,2.5,0.2,2.5l0.1,0
			l0-0.1c0.5-2.7,1.4-3.2,1.7-3.3c0.4-0.1,0.7,0.2,0.7,0.8c0,0.6-0.3,2-0.3,2c-0.3,2-1.4,1.9-1.4,1.9s-0.2,1.6,0.8,1.4
			c0.9-0.2,1.2-3.5,1.2-4.2c0-0.7,0.1-1.2,0.4-1.4c0.3-0.2,0.9-0.3,1,0c0.1,0.3-0.2,0.3-0.4,0.4c-0.1,0.1,0,0.2,0.1,0.3
			c0.2,0.1,0.2,0.3,0.2,0.3s0,1.2,0.1,1.8c0,0.6,0.1,1.7,1,2.4c0.8,0.7,2.1-0.1,2.3-0.2C693.8,232.4,693.9,232.6,694,232.9
			C694,232.8,694,232.8,694,232.9L694,232.9z M694.7,228c-0.1,0.1-0.2,0.2-0.4,0.2c-0.1,0.1-0.3,0.1-0.5,0.1c-0.2,0-0.3,0-0.5-0.1
			c-0.1-0.1-0.3-0.1-0.4-0.3c-0.1-0.1-0.2-0.2-0.3-0.4c-0.1-0.1-0.1-0.3-0.1-0.4c0-0.2,0-0.3,0.1-0.4c0.1-0.1,0.2-0.3,0.3-0.4
			c0.1-0.1,0.2-0.2,0.4-0.2c0.1-0.1,0.3-0.1,0.5-0.1c0.2,0,0.3,0,0.5,0.1c0.1,0.1,0.3,0.1,0.4,0.3c0.1,0.1,0.2,0.2,0.3,0.4
			c0.1,0.1,0.1,0.3,0.1,0.4c0,0.2,0,0.3-0.1,0.4C694.9,227.7,694.8,227.9,694.7,228z"/>
		<path d="M693.8,226.7h-0.2v0.4h0.2c0.1,0,0.2,0,0.2,0c0,0,0.1-0.1,0.1-0.1c0-0.1,0-0.1-0.1-0.2C694,226.7,693.9,226.7,693.8,226.7
			z"/>
		<path d="M668.8,230.2c0.1-0.3,0.7-1.6,0.4-1.7c0,0-0.3,0.2-0.5,0.7c-0.2,0.5-0.3,0.8-0.3,1S668.6,230.5,668.8,230.2z"/>
	</g>
	<g>
		<path d="M499.7,217.6h-3.8l-0.8,2.8h-2.3l4.2-12.9h1.8l4.1,12.9h-2.3L499.7,217.6z M496.5,215.3h2.6l-1.3-4.3L496.5,215.3z"/>
		<path d="M513.5,207.4v12.9H512l-5.7-7.9v7.9h-2.2v-12.9h1.4l5.8,8v-8H513.5z"/>
		<path d="M515.9,207.4h4.3c3.3,0,5.3,2.5,5.3,6.5c0,4-2,6.4-5.4,6.4h-4.2V207.4z M520.2,217.9c2,0,3-1.8,3-4c0-2.2-1-4-3-4h-2.1v8
			H520.2z"/>
		<path d="M530.9,215.7h-1.3v4.7h-2.2v-12.9h4.2c2.6,0,3.8,1.9,3.8,4.1c0,1.6-0.7,3.1-2.2,3.8l2.7,5h-2.6L530.9,215.7z M529.6,213.3
			h1.8c1.2,0,1.7-0.9,1.7-1.8c0-0.9-0.5-1.7-1.5-1.7h-2V213.3z"/>
		<path d="M537.4,207.4h7.4v2.4h-5.2v2.8h4.8v2.4h-4.8v2.9h5.2v2.4h-7.4V207.4z"/>
		<path d="M545.7,207.4h2.4l2.2,8.7l2.5-8.7h1.4l2.5,8.7l2.2-8.7h2.4l-3.6,12.9h-1.9l-2.3-8.5l-2.3,8.5h-1.9L545.7,207.4z"/>
		<path d="M561.4,218.2l1.3-1.8c0.7,1.2,1.8,1.8,2.9,1.8c0.9,0,1.6-0.6,1.6-1.4c0-0.6-0.4-1-1-1.3c-0.7-0.4-1.6-0.7-2.4-1.2
			c-1-0.6-1.7-1.6-1.7-3.2c0-2.1,1.5-3.8,3.7-3.8c1.3,0,2.6,0.5,3.6,1.8l-1.2,1.9c-0.7-0.8-1.6-1.2-2.4-1.2c-0.9,0-1.4,0.5-1.4,1.2
			c0,0.6,0.4,1,0.9,1.3c0.6,0.3,1.7,0.8,2.4,1.2c1.1,0.6,1.9,1.6,1.9,3.2c0,2.3-1.6,3.9-4,3.9C563.9,220.6,562.3,219.8,561.4,218.2z
			"/>
	</g>
	<g>
		<path d="M525.7,276.9h1.4v3.4h3v-3.4h1.4v8.4h-1.4v-3.4h-3v3.4h-1.4V276.9z"/>
		<path d="M533.1,276.9h4.8v1.6h-3.4v1.8h3.1v1.6h-3.1v1.9h3.4v1.6h-4.8V276.9z"/>
		<path d="M541.5,282.3h-0.8v3.1h-1.4v-8.4h2.7c1.7,0,2.4,1.3,2.4,2.7c0,1-0.4,2-1.4,2.5l1.7,3.3H543L541.5,282.3z M540.7,280.8h1.2
			c0.8,0,1.1-0.6,1.1-1.1c0-0.6-0.3-1.1-1-1.1h-1.3V280.8z"/>
		<path d="M545.7,276.9h0.9l2.8,4.8l2.8-4.8h1v8.4h-1.4v-4.8l-2.1,3.5h-0.5l-2.1-3.5v4.8h-1.4V276.9z"/>
		<path d="M554.8,276.9h4.8v1.6h-3.4v1.8h3.1v1.6h-3.1v1.9h3.4v1.6h-4.8V276.9z"/>
		<path d="M560.3,283.9l0.8-1.2c0.5,0.8,1.2,1.2,1.9,1.2c0.6,0,1-0.4,1-0.9c0-0.4-0.3-0.7-0.6-0.9c-0.5-0.3-1-0.5-1.5-0.8
			c-0.6-0.4-1.1-1-1.1-2.1c0-1.4,1-2.5,2.4-2.5c0.8,0,1.7,0.3,2.3,1.1l-0.8,1.2c-0.4-0.5-1.1-0.8-1.6-0.8c-0.6,0-0.9,0.3-0.9,0.8
			c0,0.4,0.3,0.7,0.6,0.8c0.4,0.2,1.1,0.5,1.6,0.8c0.7,0.4,1.2,1,1.2,2.1c0,1.5-1.1,2.6-2.6,2.6
			C561.9,285.5,560.9,284.9,560.3,283.9z"/>
		<path d="M534,294.3c0,1.3-0.8,2.4-2.3,2.4h-3.2v-8.4h3.1c1.4,0,2,1.1,2,2.1c0,0.7-0.4,1.5-1,1.7C533.6,292.4,534,293.3,534,294.3z
			 M529.9,289.8v1.8h1.4c0.6,0,0.9-0.5,0.9-0.9c0-0.5-0.3-0.9-0.8-0.9H529.9z M532.5,294.1c0-0.6-0.3-1.1-1.1-1.1h-1.6v2.2h1.6
			C532.2,295.2,532.5,294.7,532.5,294.1z"/>
		<path d="M534.8,292.5c0-2.4,1.6-4.4,3.7-4.4s3.7,1.9,3.7,4.4c0,2.4-1.6,4.3-3.7,4.3C536.4,296.8,534.8,294.9,534.8,292.5z
			 M540.7,292.5c0-1.6-1-2.7-2.2-2.7c-1.2,0-2.2,1.1-2.2,2.7c0,1.5,1,2.7,2.2,2.7S540.7,294,540.7,292.5z"/>
		<path d="M542.9,292.5c0-2.4,1.6-4.4,3.7-4.4s3.7,1.9,3.7,4.4c0,2.4-1.6,4.3-3.7,4.3C544.5,296.8,542.9,294.9,542.9,292.5z
			 M548.9,292.5c0-1.6-1-2.7-2.2-2.7c-1.2,0-2.2,1.1-2.2,2.7c0,1.5,1,2.7,2.2,2.7S548.9,294,548.9,292.5z"/>
		<path d="M553.8,293.4l-0.9,1.2v2.1h-1.4v-8.4h1.4v4l2.7-4h1.7l-2.6,3.8l2.8,4.6h-1.8L553.8,293.4z"/>
		<path d="M557.5,295.3l0.8-1.2c0.5,0.8,1.2,1.2,1.9,1.2c0.6,0,1-0.4,1-0.9c0-0.4-0.3-0.7-0.6-0.9c-0.5-0.3-1-0.5-1.5-0.8
			c-0.6-0.4-1.1-1-1.1-2.1c0-1.4,1-2.5,2.4-2.5c0.8,0,1.7,0.3,2.3,1.1l-0.8,1.2c-0.4-0.5-1.1-0.8-1.6-0.8c-0.6,0-0.9,0.3-0.9,0.8
			c0,0.4,0.3,0.7,0.6,0.8c0.4,0.2,1.1,0.5,1.6,0.8c0.7,0.4,1.2,1,1.2,2.1c0,1.5-1.1,2.6-2.6,2.6
			C559.1,296.8,558.1,296.3,557.5,295.3z"/>
	</g>
	<g id="Brandingmodul_x5F_Deichmann_x5F_quadratisch_x5F_vertikal">
		<path id="Deichmann" d="M459.2,381.8c0,1.7-0.7,3.4-2.7,3.4l-2.6,0l0-6.7l2.3,0C458,378.5,459.2,379.5,459.2,381.8 M462.7,381.8
			c0-3.3-2-6-6.1-6c-0.2,0-6.3,0-6.3,0l0.1,12.1c0,0,6,0,6.3,0C460.8,387.9,462.8,385.1,462.7,381.8 M464.8,387.8l10.2-0.1l0-2.6
			l-6.7,0l0-2.2l5.6,0l0-2.5l-5.6,0l0-2.2l6.7,0l0-2.6l-10.2,0.1L464.8,387.8z M477.4,387.7l3.5,0l-0.1-12.1l-3.5,0L477.4,387.7z
			 M486.7,381.6c0-2,0.7-3.8,2.8-3.8c1.5,0,2.2,0.9,2.5,1.9l3.5,0c-0.2-2.7-2.5-4.6-6-4.6c-4.3,0-6.4,2.9-6.4,6.5
			c0,3.6,2.1,6.4,6.5,6.4c3.6,0,5.7-2.1,5.9-4.7l-3.4,0c-0.2,1.1-0.9,2-2.5,2C487.5,385.4,486.7,383.7,486.7,381.6 M506.1,387.6
			l3.5,0l-0.1-12.1l-3.5,0l0,4.6l-5.1,0l0-4.6l-3.5,0l0.1,12.1l3.5,0l0-4.8l5.1,0L506.1,387.6z M524.2,387.5l3.2,0l-0.1-12.1l-5,0
			l-2.3,8h0l-2.4-8l-5,0l0.1,12.1l3.2,0l-0.1-9h0l2.8,9l2.9,0l2.7-9.1h0L524.2,387.5z M537.1,382.9l-2.9,0l1.4-4.6h0L537.1,382.9z
			 M538.6,387.4l3.7,0l-4.6-12.1l-4.3,0l-4.5,12.1l3.7,0l0.6-2l4.6,0L538.6,387.4z M552.1,387.3l3.8,0l-0.1-12.1l-3.4,0l0,7.6h0
			l-4.9-7.5l-4,0l0.1,12.1l3.4,0l0-7.6h0L552.1,387.3z M571.3,387.2l-0.1-12.1l-3.4,0l0,7.6h0l-4.9-7.5l-4,0l0.1,12.1l3.4,0l0-7.6h0
			l5,7.6L571.3,387.2z"/>
	</g>
	<g>
		<path d="M508.8,456h-2.4l-0.5,1.7h-1.4l2.6-8h1.1l2.5,8h-1.4L508.8,456z M506.8,454.6h1.6l-0.8-2.7L506.8,454.6z"/>
		<path d="M513.7,454.8h-0.8v2.9h-1.4v-8h2.6c1.6,0,2.3,1.2,2.3,2.5c0,1-0.4,1.9-1.4,2.3l1.6,3.1h-1.6L513.7,454.8z M512.9,453.4
			h1.1c0.8,0,1.1-0.5,1.1-1.1c0-0.6-0.3-1.1-0.9-1.1h-1.2V453.4z"/>
		<path d="M517,451.3v-1.5h5.2v1.5h-1.9v6.4h-1.4v-6.4H517z"/>
		<path d="M529.6,453.5c0,2.3-0.9,4.4-2.9,4.4c-0.7,0-1.4-0.2-1.9-0.7l0.5-1.2c0.3,0.2,0.8,0.5,1.3,0.5c1,0,1.6-1,1.7-2.3
			c-0.3,0.5-0.9,0.7-1.5,0.7c-1.2,0-2.2-1.1-2.2-2.6c0-1.6,1-2.7,2.4-2.7C528.7,449.6,529.6,451.3,529.6,453.5z M528.1,452.3
			c0-0.7-0.5-1.3-1.1-1.3s-1.1,0.5-1.1,1.3c0,0.7,0.5,1.3,1.1,1.3C527.6,453.6,528.1,453,528.1,452.3z"/>
		<path d="M530.2,457.1l0.6-1.3c0.6,0.4,1.1,0.6,1.6,0.6c0.7,0,1.1-0.4,1.1-1c0-0.6-0.4-1-1-1h-0.9V453h0.7c0.6,0,1-0.4,1-0.9
			c0-0.6-0.4-0.9-0.9-0.9c-0.4,0-0.8,0.2-1.3,0.6l-0.6-1.1c0.5-0.6,1.3-1,2.2-1c1.2,0,2.1,0.9,2.1,2.1c0,0.9-0.5,1.5-1.1,1.8v0
			c0.9,0.2,1.3,1,1.3,2c0,1.4-1,2.4-2.4,2.4C531.6,457.9,530.9,457.6,530.2,457.1z"/>
	</g>
	<g>
		<path d="M228.9,316.4l0.6-1c0.4,0.4,0.8,0.6,1.3,0.6c0.7,0,1.2-0.5,1.2-1.3v-4h1.3v4.1c0,1.8-1.1,2.5-2.4,2.5
			C230.2,317.2,229.5,316.9,228.9,316.4z"/>
		<path d="M234.3,313.9c0-1.9,1.5-3.4,3.4-3.4s3.4,1.5,3.4,3.4c0,1.9-1.5,3.3-3.4,3.3C235.8,317.2,234.3,315.7,234.3,313.9z
			 M239.7,313.8c0-1.2-0.9-2.1-2-2.1c-1.1,0-2,0.9-2,2.1c0,1.2,0.9,2.1,2,2.1S239.7,315,239.7,313.8z"/>
		<path d="M244.6,314.8v2.2h-1.3v-2.2l-2.2-4.2h1.5l1.4,2.8l1.4-2.8h1.5L244.6,314.8z"/>
		<path d="M249.2,313.9c0-1.9,1.5-3.4,3.4-3.4s3.4,1.5,3.4,3.4c0,1.9-1.5,3.3-3.4,3.3C250.6,317.2,249.2,315.7,249.2,313.9z
			 M254.6,313.8c0-1.2-0.9-2.1-2-2.1c-1.1,0-2,0.9-2,2.1c0,1.2,0.9,2.1,2,2.1S254.6,315,254.6,313.8z"/>
		<path d="M261.6,312.7c0,1.1-0.7,2.1-2.4,2.1h-1v2.2H257v-6.5h2.4C261,310.6,261.6,311.7,261.6,312.7z M260.3,312.7
			c0-0.5-0.3-0.9-0.9-0.9h-1.1v1.9h1C260,313.7,260.3,313.2,260.3,312.7z"/>
		<path d="M261.9,311.8v-1.3h5v1.3h-1.8v5.2h-1.3v-5.2H261.9z"/>
		<path d="M269.1,310.6v6.5h-1.3v-6.5H269.1z"/>
		<path d="M270.1,313.9c0-2,1.5-3.4,3.3-3.4c1.2,0,2.2,0.6,2.8,1.3l-0.9,0.9c-0.4-0.6-1.1-0.9-1.8-0.9c-1.2,0-2.1,0.9-2.1,2.1
			c0,1.2,0.9,2.1,2.1,2.1c0.8,0,1.4-0.4,1.9-0.9l0.9,0.8c-0.6,0.8-1.6,1.4-2.8,1.4C271.6,317.2,270.1,315.8,270.1,313.9z"/>
		<path d="M276.6,316l0.7-0.9c0.4,0.6,1.1,0.9,1.7,0.9c0.5,0,0.9-0.3,0.9-0.7c0-0.3-0.3-0.5-0.6-0.7c-0.4-0.2-0.9-0.4-1.4-0.6
			c-0.6-0.3-1-0.8-1-1.6c0-1.1,0.9-1.9,2.2-1.9c0.8,0,1.5,0.3,2.1,0.9l-0.7,0.9c-0.4-0.4-1-0.6-1.4-0.6c-0.5,0-0.8,0.3-0.8,0.6
			c0,0.3,0.3,0.5,0.5,0.6c0.3,0.2,1,0.4,1.4,0.6c0.6,0.3,1.1,0.8,1.1,1.6c0,1.1-1,2-2.4,2C278.1,317.2,277.2,316.8,276.6,316z"/>
	</g>
	<g>
		<path d="M198.7,451.9c0-6,3.9-10.1,8.5-10.1c3,0,5.6,1.7,7.1,4l-2.2,2.5c-1.1-1.7-2.8-2.8-4.7-2.8c-2.9,0-5.2,2.6-5.2,6.3
			c0,3.6,2.3,6.2,5.2,6.2c1.9,0,3.6-1.1,4.8-2.8l2.3,2.4c-1.4,2.3-4.1,4.1-7.2,4.1C202.5,461.9,198.7,457.9,198.7,451.9z"/>
		<path d="M215.5,451.9c0-5.6,3.8-10.1,8.6-10.1s8.6,4.5,8.6,10c0,5.5-3.7,10-8.6,10C219.1,461.9,215.5,457.5,215.5,451.9z
			 M229.2,451.9c0-3.6-2.3-6.2-5.1-6.2c-2.8,0-5.1,2.6-5.1,6.2c0,3.5,2.2,6.2,5.1,6.2S229.2,455.4,229.2,451.9z"/>
		<path d="M235.3,442.2h2.2l6.4,11l6.4-11h2.2v19.4h-3.3v-11l-4.8,8.1h-1.1l-4.8-8.1v11h-3.2V442.2z"/>
		<path d="M254.7,458.3l1.9-2.7c1.1,1.8,2.7,2.7,4.4,2.7c1.4,0,2.4-0.9,2.4-2.1c0-1-0.6-1.5-1.5-2c-1-0.6-2.4-1-3.6-1.8
			c-1.4-1-2.6-2.4-2.6-4.8c0-3.2,2.3-5.7,5.6-5.7c1.9,0,3.9,0.8,5.4,2.6l-1.8,2.8c-1-1.2-2.5-1.8-3.6-1.8c-1.3,0-2.1,0.8-2.1,1.9
			c0,1,0.7,1.5,1.3,1.9c0.9,0.5,2.5,1.2,3.6,1.9c1.6,0.9,2.8,2.4,2.8,4.8c0,3.4-2.4,5.9-6,5.9C258.5,461.9,256.2,460.7,254.7,458.3z
			"/>
		<path d="M269.6,442.2h11.1v3.6h-7.8v4.2h7.2v3.6h-7.2v4.4h7.8v3.6h-11.1V442.2z"/>
		<path d="M283.8,442.2h6.4c5,0,7.9,3.8,7.9,9.7c0,5.9-3,9.7-8,9.7h-6.3V442.2z M290.2,457.8c3,0,4.5-2.7,4.5-6
			c0-3.2-1.5-5.9-4.5-5.9h-3.2v11.9H290.2z"/>
	</g>
	<path class="st5" d="M325.8,269.6c0-1.2-0.9-2.1-2.1-2.1h-13.7c-1.2,0-2.1,0.9-2.1,2.1v13.7c0,1.2,0.9,2.1,2.1,2.1h13.7
		c1.2,0,2.1-0.9,2.1-2.1V269.6z M320.8,270.1c0.6,0,1,0.5,1,1c0,0.6-0.5,1.1-1,1.1c-0.6,0-1-0.5-1-1.1
		C319.8,270.6,320.2,270.1,320.8,270.1z M312.7,270.1c0.6,0,1,0.5,1,1c0,0.6-0.5,1.1-1,1.1c-0.6,0-1-0.5-1-1.1
		C311.7,270.6,312.2,270.1,312.7,270.1z M314.8,273.1l-0.3,3.5c0,0.2-0.2,0.4-0.4,0.5l0,0c-0.2,0.1-0.4,0.3-0.4,0.5l-0.3,4.6
		c0,0.3-0.3,0.5-0.6,0.5h-0.2h-0.2c-0.3,0-0.6-0.2-0.6-0.5l-0.3-4.6c0-0.2-0.2-0.4-0.4-0.5c-0.2-0.1-0.4-0.3-0.4-0.5l-0.3-3.5
		c0-0.3,0.2-0.6,0.5-0.6l0.3-0.1c0.2,0,0.4,0,0.5,0.2l0.4,0.4c0.2,0.2,0.6,0.2,0.8,0l0.4-0.4c0.1-0.1,0.3-0.2,0.5-0.2l0.3,0.1
		C314.6,272.6,314.8,272.9,314.8,273.1z M317,282.8c0,0.2-0.1,0.3-0.3,0.3c-0.2,0-0.3-0.1-0.3-0.3v-12.6c0-0.2,0.1-0.3,0.3-0.3
		c0.2,0,0.3,0.1,0.3,0.3V282.8z M322.9,277.1c-0.2,0-0.3,0.2-0.3,0.4l0.1,0.9c0,0.2-0.1,0.4-0.3,0.4l-0.3,0c-0.2,0-0.3,0.2-0.3,0.4
		l-0.2,2.9c0,0.3-0.3,0.5-0.6,0.5h-0.2h-0.2c-0.3,0-0.6-0.2-0.6-0.5l-0.2-2.9c0-0.2-0.2-0.3-0.3-0.4l-0.3,0c-0.2,0-0.4-0.2-0.3-0.4
		l0.1-0.9c0-0.2-0.1-0.4-0.3-0.4c-0.2,0-0.3-0.3-0.3-0.5l0.8-3.8c0.1-0.3,0.4-0.4,0.6-0.2l0.7,0.5c0.1,0.1,0.3,0.1,0.4,0l0.7-0.5
		c0.2-0.1,0.5,0,0.6,0.2l0.8,3.8C323.2,276.9,323.1,277.1,322.9,277.1z"/>
	<g>
		<g>
			<g>
				<path class="st5" d="M281.7,686.5l5.5,5.4l-3.1,3.3l-5.5-5.5l-5.5,5.5l-3.1-3.3l5.5-5.5l-5.4-5.4l3.1-3.2l5.5,5.5l5.5-5.5
					l3.2,3.1L281.7,686.5z"/>
				<path class="st5" d="M318.7,690.2c0,5.2-3.9,9.2-10.2,9.2c-3.1,0-6.4-1-9.1-3l2.2-4.4c2.3,1.6,4.7,2.4,6.7,2.4
					c3.2,0,4.9-2,4.9-4.2c0-2.4-2-4.1-4.6-4.1c-1.6,0-3.2,0.6-4.5,1.8l-3.2-2.5l1.5-13.7h14.4v5h-10.4l-0.6,5.3
					c1-0.4,2.3-0.7,3.7-0.7C314.6,681.4,318.7,684.9,318.7,690.2z"/>
				<path class="st5" d="M340.7,684.4c0,7.9-3.6,15-11.6,15c-2.8,0-5.5-0.8-7.5-2.4l2-4.1c1.2,0.8,3.1,1.7,5.2,1.7
					c4.2,0,6.3-3.4,6.8-7.9c-1.4,1.7-3.8,2.5-6.1,2.5c-5,0-8.7-3.7-8.7-8.7c0-5.3,3.9-9.2,9.7-9.2
					C337.3,671.3,340.7,676.9,340.7,684.4z M334.7,680.3c0-2.5-1.9-4.4-4.4-4.4c-2.5,0-4.4,1.8-4.4,4.5c0,2.5,1.9,4.3,4.4,4.3
					C332.8,684.7,334.7,682.8,334.7,680.3z"/>
				<path class="st5" d="M365.4,685.4c0,7.5-3.4,14.1-11,14.1c-7.6,0-11-6.6-11-14.1s3.5-14.1,11-14.1
					C362,671.3,365.4,677.8,365.4,685.4z M348.5,685.4c0,2,0.3,3.8,0.8,5.4l8.7-13.4c-0.9-1-2.1-1.5-3.6-1.5
					C350.3,675.8,348.5,680.1,348.5,685.4z M360.3,685.4c0-1.8-0.2-3.5-0.7-5l-8.6,13.2c0.9,0.8,2,1.3,3.3,1.3
					C358.6,694.9,360.3,690.7,360.3,685.4z"/>
			</g>
		</g>
		<g>
			<g transform="translate(-19.000000, -107.000000)">
				<path class="st5" d="M199.2,814.5l2-3c1.1-1.7,3-2.7,5.1-2.7h32.1c2,0,3.9,1,5.1,2.7l2,3c1-0.1,2-0.3,3.1-0.6l12.3-2.7v-9.5
					c-0.4,0.1-0.8,0.2-1.2,0.3c-2.3,0.5-4.3,0.7-6.9,0.7c-1.3,0-3.3-0.1-5-0.4c-2.3-0.4-3.8-0.9-4.6-1.9c-3.6,1.4-7.4,1.9-11.2,1.3
					c-5-0.7-8.2-1.1-9.6-1.1c-1.3,0-4.6,0.4-9.6,1.1c-3.9,0.6-7.9,0.1-11.5-1.4c0,0-0.1,0.1-0.1,0.1c-1.2,0.7-2.7,1.3-4.3,1.6
					c-2.3,0.5-4.3,0.7-6.9,0.7c-1.3,0-3.3-0.1-5-0.4c-0.4-0.1-0.8-0.1-1.1-0.2v9.1l12.3,2.7C197.2,814.2,198.2,814.4,199.2,814.5z
					 M203.8,814.9c0.2,0,0.4,0,0.7,0h35.7c0.2,0,0.4,0,0.7,0l-0.7-1.1c-0.4-0.6-1-0.9-1.7-0.9h-32.1c-0.7,0-1.3,0.3-1.7,0.9
					L203.8,814.9z M183.8,797.9c0.4,0.1,1,0.3,1.8,0.4c1.4,0.2,3.2,0.3,4.3,0.3c2.3,0,4-0.1,6-0.6c0.1,0,0.2,0,0.2-0.1
					c-4.6-1.9-8.6-3-12.3-3.3c0,0.1,0,0.1,0,0.2V797.9z M179.8,798.7C179.8,798.7,179.8,798.7,179.8,798.7v-3.8c0-1.4,0.4-2.7,1-4
					l3.9-7l-7.3-1.2l0,0c-0.2,0-0.3-0.1-0.5-0.2c-0.8-0.4-1.2-1.4-0.7-2.2l0.6-1.2c0.3-0.5,0.7-0.9,1.3-1.1l0,0l5.4-1.3
					c1-0.3,2.1,0.3,2.4,1.3l0,0l0.7,2.1l5.6-15.4c1.5-4,5.3-6.7,9.5-6.7H243c4.3,0,8.1,2.7,9.5,6.7l5.5,15l0.4-1.6
					c0.3-1.1,1.4-1.7,2.4-1.5l5.7,1.4c0.6,0.1,1.1,0.5,1.3,1l0.6,1.2c0.4,0.8,0.1,1.8-0.7,2.2c-0.2,0.1-0.3,0.1-0.5,0.2l-7.3,1.2
					l3.9,7c0.7,1.2,1,2.6,1,4v3.7c0,0,0,0.1,0,0.1v12.1v8.1c0,3.4-2.7,6.1-6.1,6.1h-10.1c-3.4,0-6.1-2.7-6.1-6.1c0,0,0,0,0-0.1
					c-0.8,0-1.6,0.1-2.4,0.1h-35.7c-0.8,0-1.6,0-2.4-0.1c0,0,0,0,0,0.1c0,3.4-2.7,6.1-6.1,6.1h-10.1c-3.4,0-6.1-2.7-6.1-6.1v-8.1
					V798.7z M260.8,797.4v-2.5c0-0.1,0-0.1,0-0.2c-3.8,0.4-8.1,1.5-12.8,3.5c0.1,0,0.2,0,0.4,0.1c1.4,0.2,3.2,0.3,4.3,0.3
					c2.3,0,4-0.1,6-0.6C259.4,797.9,260.2,797.7,260.8,797.4z M185.5,790.8c4.8,0.6,10.2,2.4,16.2,5.3c3.3,1.6,6.9,2.1,10.5,1.6
					c5.2-0.7,8.5-1.1,10.1-1.1c1.6,0,4.9,0.4,10.1,1.1c3.6,0.5,7.2-0.1,10.5-1.6c5.9-2.9,11.3-4.6,16.2-5.3l-3.4-6.1l-9.1,1.5
					c-1.2,0.2-2.4,0.3-3.7,0.3h-41.2c-1.2,0-2.5-0.1-3.7-0.3l-9.1-1.5L185.5,790.8z M246.6,818.4c0,0.2,0.1,0.3,0.1,0.5
					c0,1.1,0.9,2,2,2h10.1c1.1,0,2-0.9,2-2v-3.6l-11.4,2.5C248.4,818.1,247.5,818.3,246.6,818.4z M198.1,818.4
					c-0.9-0.1-1.9-0.3-2.8-0.5l-11.4-2.5v3.6c0,1.1,0.9,2,2,2H196c1.1,0,2-0.9,2-2C198,818.7,198,818.6,198.1,818.4z M248.7,766.2
					c-0.9-2.4-3.2-4-5.7-4h-41.3c-2.6,0-4.8,1.6-5.7,4l-5.3,14.7l8.1,1.3c1,0.2,2,0.2,3,0.2h41.2c1,0,2-0.1,3-0.2l8.1-1.3
					L248.7,766.2z"/>
			</g>
		</g>
	</g>
	<g>
		<polygon class="st5" points="605.3,727.2 598.2,732.1 598.2,726.2 605.3,721.3 612.3,726.2 612.3,732.1 		"/>
		<polygon class="st5" points="605.3,735.3 598.2,740.2 598.2,734.3 605.3,729.4 612.3,734.3 612.3,740.2 		"/>
		<polygon class="st5" points="605.2,743.4 598.2,748.3 598.2,742.4 605.3,737.5 612.3,742.4 612.3,748.3 		"/>
	</g>
</g>
<path id="Galleria_Stara_Zagora1.018" class="st2" d="M799.9,439.5H638.7v261.9c50.9,19.9,165.5,56.6,177.2,60.4V648.2l-8.8-7.4H743
	V489.7h56.9L799.9,439.5z"/>
<polygon id="Galleria_Stara_Zagora1.016" class="st2" points="638.7,422.6 815.8,422.6 815.8,252 756.1,252 756.1,239.9 
	716.1,239.9 716.1,252.1 638.7,252.1 "/>
<rect id="Galleria_Stara_Zagora1.014" x="638.7" y="208" class="st2" width="75.8" height="42.4"/>
<polygon id="Galleria_Stara_Zagora1.012" class="st2" points="739.2,189.1 637.7,189.1 637.7,170.3 584.9,117.6 594.5,107.9 
	594.5,14.4 739.2,14.4 "/>
<polygon id="Galleria_Stara_Zagora1.010" class="st2" points="592.7,14.4 470.5,14.4 470.5,107.1 575,107.1 584,116.2 592.5,107.7 
	"/>
<rect id="Galleria_Stara_Zagora1.008" x="441.6" y="71.1" class="st2" width="27.2" height="36"/>
<rect id="Galleria_Stara_Zagora1.006" x="409.1" y="64.1" class="st2" width="30.9" height="43.1"/>
<polygon id="Galleria_Stara_Zagora1.004" class="st2" points="391.1,14.4 262,14.4 262,72.9 307.4,72.9 307.4,117.3 365,117.3 
	376,106.3 391.1,106.3 "/>
<polygon id="Galleria_Stara_Zagora1.002" class="st2" points="260.3,14.4 185.3,14.4 142.7,94.4 185.8,117.3 305.6,117.3 
	305.6,74.6 260.4,74.6 "/>
<polygon id="Galleria_Stara_Zagora1.036" class="st2" points="105.4,165.3 35.1,296.7 113.7,358.9 230.4,135.1 184.2,134.5 
	154.5,190.9 "/>
<path id="Galleria_Stara_Zagora1.028" class="st2" d="M156.7,322.6l-54,69.8l17.8,11.7l-5.2,7.1c87.5,70.4,202.7,141.2,220.6,148.7
	l21.7-43.9l16.6,9.1l20.1-39L263,407.9l5.3-8.7L156.7,322.6z"/>
<path id="Galleria_Stara_Zagora1.020" class="st2" d="M411,490.5l-22,41.4l54.4,29.1l-17,32.2l24.4,13.1l-6.3,11.5
	c33.2,17.5,114.5,54.4,131.2,58.9V555.6l-14.5-6.4h-17.9L425,490.5H411z"/>
<polygon id="Galleria_Stara_Zagora1.052" class="st2" points="579.1,440.4 551.5,440.4 551.5,472.8 540.9,472.8 540.9,499.8 
	541.9,500.4 579.1,486.1 "/>
<polygon id="Galleria_Stara_Zagora1.054" class="st2" points="549.8,440.4 491.2,440.4 491.2,476 539.3,499.2 539.3,471.1 
	549.8,471.1 "/>
<polygon id="Galleria_Stara_Zagora1.056" class="st2" points="489.5,440.4 449,440.4 443.8,451.4 489.5,475.2 "/>
<polygon id="Galleria_Stara_Zagora1.048" class="st2" points="579.1,438.7 579.1,311.2 490,311.2 490,340.7 391.7,340.7 
	391.7,388.7 441.3,388.7 441.3,435.9 433.7,446.2 442.4,450.7 448.1,438.5 "/>
<polygon id="Galleria_Stara_Zagora1.046" class="st2" points="579.1,309.3 490.2,309.3 490.2,274.6 538.8,274.6 538.8,240.6 
	579.1,240.6 "/>
<polygon id="Galleria_Stara_Zagora1.044" class="st2" points="579.1,238.9 579.1,195.1 545.3,161.3 490.2,161.3 490.2,272.6 
	536.9,272.6 536.9,238.7 "/>
<polygon id="Galleria_Stara_Zagora1.042" class="st2" points="488.2,161.3 343.5,161.3 343.5,383.2 337.8,390.7 344.6,394.8 
	347.9,388.8 389.7,388.8 389.7,338.8 488.2,338.8 "/>
<polygon id="Galleria_Stara_Zagora1.040" class="st2" points="341.6,161.3 296.5,161.3 287.1,180.8 290.4,183.1 290.4,238.6 
	341.6,238.6 "/>
<path id="Galleria_Stara_Zagora1.062" class="st2" d="M341.6,314.9v67.2l-5.2,7.1c-13.3-7.5-44.6-27.4-44.6-27.4v-46.9H341.6z"/>
<path id="Galleria_Stara_Zagora1.064-66" class="st2" d="M290.4,306.9h-38.2v-18.6h-34.2l-9.2,18c16.9,11.5,76.2,53.6,81.7,55.2
	V306.9z"/>
<polygon id="Galleria_Stara_Zagora1.058" class="st2" points="391.7,390.7 439.6,390.7 439.6,435.3 432.3,445 391.7,422.4 "/>
<polygon id="Galleria_Stara_Zagora1.060" class="st2" points="390,390.7 348.7,390.7 345.9,395.7 390,421.7 "/>
</svg>
