<?xml version="1.0" encoding="UTF-8"?><svg id="Layer_4" xmlns="http://www.w3.org/2000/svg" viewBox="0 0 803.52 766.9"><defs><style>.cls-1{letter-spacing:-.03em;}.cls-2{fill:#ed7013;}.cls-3{stroke:#000;}.cls-3,.cls-4,.cls-5{fill:none;stroke-miterlimit:10;}.cls-4,.cls-5{stroke:#1d1d1b;}.cls-6{letter-spacing:-.01em;}.cls-5{stroke-width:2px;}.cls-7{letter-spacing:0em;}.cls-8{font-family:Axiforma-Bold, Axiforma;font-size:24.34px;font-weight:700;}.cls-8,.cls-9{fill:#1d1d1b;}.cls-10{fill:#12100b;}</style></defs><g id="Cladire"><g><path class="cls-4" d="M622.98,704.22c23.01,8.74,51.57,18.92,74.83,26.86,35.6,12.15,65.86,22.22,101.44,34.42l1.92-762.91L169.22,1S1.06,320.25,1.06,320.26c-2.21,4.2,62.37,56.99,68.84,62.52,101.12,86.41,213.85,159.9,331.07,221.62,71.87,37.84,146.18,71.02,222.02,99.83Z"/><path class="cls-5" d="M622.98,704.22c23.01,8.74,51.57,18.92,74.83,26.86,35.6,12.15,65.86,22.22,101.44,34.42l1.92-762.91L169.22,1S1.06,320.25,1.06,320.26c-2.21,4.2,62.37,56.99,68.84,62.52,101.12,86.41,213.85,159.9,331.07,221.62,71.87,37.84,146.18,71.02,222.02,99.83Z"/></g></g><g id="Magazine"><polyline class="cls-3" points="132.89 71.98 175.13 93.94 298.25 93.94 298.49 55.3 268.85 55.3 219.89 55.3 219.89 2.02"/><line class="cls-3" x1="268.85" y1="55.3" x2="268.85" y2="93.94"/><polygon class="cls-3" points="134.21 180.1 170.45 110.38 204.53 110.38 204.53 229.18 171.65 223.3 147.89 210.94 157.61 192.22 134.21 180.1"/><polygon class="cls-3" points="165.17 282.82 219.17 282.82 219.17 301.42 142.25 301.42 142.25 279.94 171.65 223.3 204.53 229.18 204.53 278.14 165.17 278.14 165.17 282.82"/><polyline class="cls-3" points="800.21 242.62 740.57 242.62 740.57 332.26 800.21 332.26"/><polyline class="cls-4" points="713.06 .37 713.06 159.7 803.06 159.7"/><line class="cls-4" x1="713.41" y1="70.32" x2="803.52" y2="70.32"/><line class="cls-4" x1="713.41" y1="122.94" x2="802.87" y2="122.94"/><polyline class="cls-4" points="455.48 1.12 455.48 28.54 374.51 28.54 374.51 10.91 328.81 10.91 328.81 300.18 710.15 300.18 710.15 229.66 683.37 229.66 683.37 195.71 710.15 195.71 710.15 178.08 564.53 178.08 564.53 163.06 329.46 164.36"/><polyline class="cls-4" points="656.6 1.12 656.6 33.11 690.56 33.11 690.56 179.38"/></g><g id="Logos"><g><path class="cls-10" d="M182.63,172.91h-1.41v-3.74c0-.3-.23-.53-.51-.53h-3.82c-.28,0-.51,.24-.51,.53v3.74h-1.41c-.28,0-.51,.24-.51,.53v4.01c0,.3,.23,.53,.51,.53h7.66c.28,0,.51-.24,.51-.53v-4.01c0-.3-.23-.53-.51-.53Zm-5.24-3.21h.89v.53c0,.3,.23,.53,.51,.53s.51-.24,.51-.53v-.53h.9v2.94h-2.8v-2.94Zm-1.92,4.28h.76v.53c0,.3,.23,.53,.51,.53s.51-.24,.51-.53v-.53h1.02v2.94h-2.8v-2.94Zm6.64,2.94h-2.82v-2.94h1.02v.53c0,.3,.23,.53,.51,.53s.51-.24,.51-.53v-.53h.78v2.94Z"/><path class="cls-10" d="M190.25,161.69s0-.04,0-.06c0-.02,0-.03,0-.05,0-.02,0-.03-.02-.05,0-.02,0-.03-.02-.05,0-.01-.01-.03-.02-.04l-.02-.05-.03-.04s-.02-.03-.03-.04l-.03-.03-.05-.04h0l-10.96-7.22c-.17-.11-.37-.11-.54,0l-10.96,7.22h0l-.05,.04-.03,.03s-.02,.03-.03,.04l-.03,.04-.05,.03s-.02,.03-.02,.04c0,.02-.01,.03-.02,.05,0,.02-.01,.03-.02,.05,0,.02,0,.03,0,.05,0,.03-.01,.05-.01,.08v15.77c0,.3,.23,.53,.51,.53h4.59c.28,0,.51-.24,.51-.53v-10.43h11.72v10.43c0,.3,.23,.53,.51,.53,.03,0,.06,0,.09,0,.03,0,.06,0,.09,0h4.41c.28,0,.51-.24,.51-.53v-15.77Zm-17.33,4.28v-.53h11.72v.53h-11.72Zm12.74,10.96v-12.03c0-.3-.23-.53-.51-.53h-12.74c-.28,0-.51,.24-.51,.53v12.03h-3.57v-14.94s10.45-6.88,10.45-6.88l10.45,6.88v14.94h-3.57Z"/><path class="cls-10" d="M180.06,159.28h-2.8c-.28,0-.51,.24-.51,.53,0,.3,.23,.53,.51,.53h2.8c.28,0,.51-.24,.51-.53,0-.3-.23-.53-.51-.53Z"/><path class="cls-10" d="M180.06,160.88h-2.8c-.28,0-.51,.24-.51,.53,0,.3,.23,.53,.51,.53h2.8c.28,0,.51-.24,.51-.53,0-.3-.23-.53-.51-.53Z"/></g><g><path class="cls-10" d="M183.13,261.59h-1.41v-3.74c0-.3-.23-.53-.51-.53h-3.82c-.28,0-.51,.24-.51,.53v3.74h-1.41c-.28,0-.51,.24-.51,.53v4.01c0,.3,.23,.53,.51,.53h7.66c.28,0,.51-.24,.51-.53v-4.01c0-.3-.23-.53-.51-.53Zm-5.24-3.21h.89v.53c0,.3,.23,.53,.51,.53s.51-.24,.51-.53v-.53h.9v2.94h-2.8v-2.94Zm-1.92,4.28h.76v.53c0,.3,.23,.53,.51,.53s.51-.24,.51-.53v-.53h1.02v2.94h-2.8v-2.94Zm6.64,2.94h-2.82v-2.94h1.02v.53c0,.3,.23,.53,.51,.53s.51-.24,.51-.53v-.53h.78v2.94Z"/><path class="cls-10" d="M190.76,250.36s0-.04,0-.06c0-.02,0-.03,0-.05,0-.02,0-.03-.02-.05,0-.02,0-.03-.02-.05,0-.01-.01-.03-.02-.04l-.02-.05-.03-.04s-.02-.03-.03-.04l-.03-.03-.05-.04h0l-10.96-7.22c-.17-.11-.37-.11-.54,0l-10.96,7.22h0l-.05,.04-.03,.03s-.02,.03-.03,.04l-.03,.04-.05,.03s-.02,.03-.02,.04c0,.02-.01,.03-.02,.05,0,.02-.01,.03-.02,.05,0,.02,0,.03,0,.05,0,.03-.01,.05-.01,.08v15.77c0,.3,.23,.53,.51,.53h4.59c.28,0,.51-.24,.51-.53v-10.43h11.72v10.43c0,.3,.23,.53,.51,.53,.03,0,.06,0,.09,0,.03,0,.06,0,.09,0h4.41c.28,0,.51-.24,.51-.53v-15.77Zm-17.33,4.28v-.53h11.72v.53h-11.72Zm12.74,10.96v-12.03c0-.3-.23-.53-.51-.53h-12.74c-.28,0-.51,.24-.51,.53v12.03h-3.57v-14.94s10.45-6.88,10.45-6.88l10.45,6.88v14.94h-3.57Z"/><path class="cls-10" d="M180.57,247.96h-2.8c-.28,0-.51,.24-.51,.53,0,.3,.23,.53,.51,.53h2.8c.28,0,.51-.24,.51-.53,0-.3-.23-.53-.51-.53Z"/><path class="cls-10" d="M180.57,249.56h-2.8c-.28,0-.51,.24-.51,.53,0,.3,.23,.53,.51,.53h2.8c.28,0,.51-.24,.51-.53,0-.3-.23-.53-.51-.53Z"/></g><g><path class="cls-10" d="M286.58,80.81h-1.06v-2.83c0-.22-.17-.4-.39-.4h-2.89c-.21,0-.39,.18-.39,.4v2.83h-1.07c-.21,0-.39,.18-.39,.4v3.03c0,.22,.17,.4,.39,.4h5.79c.21,0,.39-.18,.39-.4v-3.03c0-.22-.17-.4-.39-.4Zm-3.96-2.42h.67v.4c0,.22,.17,.4,.39,.4s.39-.18,.39-.4v-.4h.68v2.22h-2.12v-2.22Zm-1.45,3.23h.58v.4c0,.22,.17,.4,.39,.4s.39-.18,.39-.4v-.4h.77v2.22h-2.12v-2.22Zm5.02,2.22h-2.13v-2.22h.77v.4c0,.22,.17,.4,.39,.4s.39-.18,.39-.4v-.4h.59v2.22Z"/><path class="cls-10" d="M292.34,72.32s0-.03,0-.05c0-.01,0-.02,0-.03,0-.01,0-.02-.01-.04,0-.01,0-.02-.01-.04,0-.01-.01-.02-.02-.03l-.02-.03-.02-.03s-.02-.02-.03-.03l-.02-.02-.04-.03h0l-8.28-5.45c-.12-.08-.28-.08-.41,0l-8.28,5.45h0l-.04,.03-.02,.02s-.02,.02-.03,.03l-.02,.03-.04,.02s-.01,.02-.02,.03c0,.01,0,.02-.01,.04,0,.01,0,.03-.01,.04,0,.01,0,.02,0,.03,0,.02,0,.04,0,.06v11.92c0,.22,.17,.4,.39,.4h3.47c.21,0,.39-.18,.39-.4v-7.88h8.86v7.88c0,.22,.17,.4,.39,.4,.02,0,.05,0,.07,0,.02,0,.05,0,.07,0h3.33c.21,0,.39-.18,.39-.4v-11.92Zm-13.09,3.23v-.4h8.86v.4h-8.86Zm9.63,8.28v-9.09c0-.22-.17-.4-.39-.4h-9.63c-.21,0-.39,.18-.39,.4v9.09h-2.7v-11.29s7.89-5.2,7.89-5.2l7.89,5.2v11.29h-2.7Z"/><path class="cls-10" d="M284.64,70.5h-2.12c-.21,0-.39,.18-.39,.4s.17,.4,.39,.4h2.12c.21,0,.39-.18,.39-.4s-.17-.4-.39-.4Z"/><path class="cls-10" d="M284.64,71.72h-2.12c-.21,0-.39,.18-.39,.4s.17,.4,.39,.4h2.12c.21,0,.39-.18,.39-.4s-.17-.4-.39-.4Z"/></g><text class="cls-8" transform="translate(420.36 249.46) rotate(-.42)"><tspan x="0" y="0">T</tspan><tspan class="cls-6" x="14.6" y="0">E</tspan><tspan x="29.82" y="0">CHNOMARKE</tspan><tspan class="cls-1" x="195.82" y="0">T</tspan></text><text class="cls-8" transform="translate(455.57 104.34) rotate(-.42)"><tspan class="cls-7" x="0" y="0">C</tspan><tspan x="18.38" y="0">OMSED</tspan></text><g><path class="cls-9" d="M169.65,71.03l.82-1c.48,.65,1.18,.99,1.91,.98,.6,0,1.02-.33,1.02-.77,0-.36-.29-.57-.66-.74-.46-.21-1.05-.38-1.56-.66-.63-.35-1.14-.88-1.15-1.77,0-1.18,.97-2.1,2.43-2.11,.83,0,1.69,.28,2.36,.95l-.76,1.05c-.43-.44-1.08-.66-1.57-.66-.57,0-.92,.29-.92,.69,0,.36,.3,.56,.59,.7,.38,.17,1.1,.44,1.58,.68,.7,.33,1.23,.86,1.23,1.77,0,1.27-1.04,2.19-2.61,2.2-1.09,0-2.11-.44-2.72-1.32Z"/><path class="cls-9" d="M175.69,68.65c-.02-2.21,1.66-3.74,3.67-3.76,1.33,0,2.46,.59,3.09,1.46l-.95,.95c-.5-.61-1.21-1.03-2.05-1.02-1.28,0-2.28,1-2.27,2.36,0,1.33,1.01,2.28,2.29,2.27,.84,0,1.58-.43,2.07-1.06l.99,.89c-.62,.87-1.77,1.53-3.15,1.54-2.04,.02-3.69-1.45-3.71-3.63Z"/><path class="cls-9" d="M187.18,70.57l-2.5,.02-.54,1.55h-1.5s2.68-7.17,2.68-7.17h1.17s2.75,7.13,2.75,7.13h-1.51s-.54-1.54-.54-1.54Zm-2.1-1.26h1.69s-.85-2.39-.85-2.39l-.83,2.39Z"/><path class="cls-9" d="M192.38,69.47h-.85s.02,2.61,.02,2.61h-1.43s-.05-7.15-.05-7.15l2.74-.02c1.68-.01,2.46,1.06,2.47,2.25,0,.86-.42,1.74-1.44,2.11l1.75,2.78h-1.68s-1.53-2.58-1.53-2.58Zm-.86-1.28h1.17c.8-.01,1.11-.5,1.11-1,0-.51-.35-.96-1-.95h-1.3s.01,1.95,.01,1.95Z"/><path class="cls-9" d="M199.51,69.55l.02,2.48h-1.43s-.02-2.47-.02-2.47l-2.49-4.66h1.66s1.54,3.11,1.54,3.11l1.52-3.15h1.66s-2.45,4.68-2.45,4.68Z"/><path class="cls-9" d="M204.43,70.77l.82-1c.48,.65,1.18,.99,1.91,.98,.6,0,1.02-.33,1.02-.77,0-.36-.29-.57-.66-.74-.46-.21-1.05-.38-1.56-.66-.63-.35-1.14-.88-1.15-1.77,0-1.18,.97-2.1,2.43-2.11,.83,0,1.69,.28,2.36,.95l-.76,1.05c-.43-.44-1.08-.66-1.57-.66-.57,0-.92,.29-.92,.69,0,.36,.3,.56,.59,.7,.38,.17,1.1,.44,1.58,.68,.7,.33,1.23,.86,1.23,1.77,0,1.27-1.04,2.19-2.61,2.2-1.09,0-2.11-.44-2.72-1.32Z"/><path class="cls-9" d="M210.87,64.79h1.43s.02,2.85,.02,2.85l3-.02-.02-2.86h1.43s.05,7.15,.05,7.15h-1.43s-.02-2.91-.02-2.91l-3,.02,.02,2.92h-1.43s-.05-7.15-.05-7.15Z"/><path class="cls-9" d="M222.19,70.31l-2.5,.02-.54,1.55h-1.5s2.68-7.17,2.68-7.17h1.17s2.75,7.13,2.75,7.13h-1.51s-.54-1.53-.54-1.53Zm-2.1-1.26h1.69s-.85-2.39-.85-2.39l-.83,2.39Z"/><path class="cls-9" d="M225.07,64.68l2.8-.02c2.16-.02,3.46,1.36,3.48,3.57,.02,2.19-1.28,3.58-3.48,3.59l-2.74,.02-.05-7.16Zm2.85,5.76c1.29,0,1.94-1.02,1.93-2.23,0-1.19-.67-2.18-1.96-2.17h-1.38s.03,4.42,.03,4.42h1.38Z"/><path class="cls-9" d="M232.14,68.23c-.02-2.08,1.61-3.74,3.7-3.76s3.74,1.63,3.76,3.68c.02,2.04-1.59,3.7-3.71,3.72-2.13,.02-3.73-1.59-3.75-3.64Zm5.97-.06c-.01-1.34-1.02-2.29-2.26-2.28-1.24,0-2.23,1-2.22,2.31,0,1.31,1,2.27,2.25,2.26,1.26,0,2.24-.99,2.22-2.29Z"/><path class="cls-9" d="M239.82,64.57h1.57s1.48,4.79,1.48,4.79l1.59-4.83h.91s1.69,4.79,1.69,4.79l1.39-4.83h1.57s-2.31,7.17-2.31,7.17h-1.21s-1.56-4.67-1.56-4.67l-1.49,4.7h-1.21s-2.43-7.13-2.43-7.13Z"/><path class="cls-9" d="M250.12,70.43l.82-1c.48,.65,1.18,.99,1.91,.98,.6,0,1.02-.33,1.02-.77,0-.36-.29-.57-.66-.74-.46-.21-1.05-.38-1.56-.66-.63-.35-1.14-.88-1.15-1.77,0-1.18,.97-2.1,2.43-2.11,.83,0,1.69,.28,2.36,.95l-.76,1.05c-.43-.44-1.08-.66-1.57-.66-.57,0-.92,.29-.92,.69,0,.36,.3,.56,.59,.7,.38,.17,1.1,.44,1.58,.68,.7,.33,1.23,.86,1.23,1.77,0,1.27-1.04,2.19-2.61,2.2-1.09,0-2.11-.44-2.72-1.32Z"/><path class="cls-9" d="M176.02,76.67l2.8-.02c2.16-.02,3.46,1.36,3.48,3.57,.02,2.19-1.28,3.58-3.48,3.59l-2.74,.02-.05-7.16Zm2.85,5.76c1.29,0,1.94-1.02,1.93-2.23,0-1.19-.67-2.18-1.96-2.17h-1.38s.03,4.42,.03,4.42h1.38Z"/><path class="cls-9" d="M187.08,82.2l-2.5,.02-.54,1.55h-1.5s2.68-7.17,2.68-7.17h1.17s2.75,7.13,2.75,7.13h-1.51s-.54-1.54-.54-1.54Zm-2.1-1.26h1.69s-.85-2.39-.85-2.39l-.83,2.39Z"/><path class="cls-9" d="M196.06,76.52l.05,7.16h-.98s-3.74-4.36-3.74-4.36l.03,4.39h-1.41s-.05-7.15-.05-7.15h.91s3.81,4.39,3.81,4.39l-.03-4.43h1.41Z"/><path class="cls-9" d="M197.27,80.12c-.02-2.21,1.66-3.74,3.67-3.76,1.33,0,2.47,.59,3.09,1.46l-.95,.95c-.5-.61-1.21-1.03-2.05-1.02-1.28,0-2.28,1-2.27,2.36,0,1.33,1.01,2.28,2.29,2.27,.84,0,1.58-.43,2.08-1.06l.99,.89c-.62,.87-1.77,1.53-3.15,1.54-2.04,.01-3.69-1.45-3.71-3.63Z"/><path class="cls-9" d="M205.06,76.45l4.85-.04v1.34s-3.4,.03-3.4,.03v1.54s3.17-.02,3.17-.02v1.34s-3.15,.02-3.15,.02v1.61s3.42-.03,3.42-.03v1.34s-4.84,.04-4.84,.04l-.05-7.16Z"/><path class="cls-9" d="M213.05,82.33l.82-1c.48,.65,1.18,.99,1.91,.98,.6,0,1.02-.33,1.02-.77,0-.36-.29-.57-.66-.74-.46-.21-1.05-.38-1.56-.66-.63-.35-1.14-.88-1.15-1.77,0-1.18,.97-2.1,2.43-2.11,.83,0,1.69,.28,2.36,.95l-.76,1.05c-.43-.44-1.08-.66-1.57-.66-.57,0-.92,.29-.92,.69,0,.36,.3,.56,.59,.7,.38,.17,1.1,.44,1.58,.68,.7,.33,1.23,.86,1.23,1.77,0,1.27-1.04,2.19-2.61,2.2-1.09,0-2.11-.44-2.72-1.32Z"/><path class="cls-9" d="M218.74,77.74v-1.39s5.53-.04,5.53-.04v1.39s-2.03,.02-2.03,.02l.04,5.77h-1.45s-.04-5.76-.04-5.76h-2.04Z"/><path class="cls-9" d="M225.15,80.85l-.03-4.54h1.44s.03,4.44,.03,4.44c0,.98,.56,1.44,1.37,1.43,.79,0,1.33-.5,1.33-1.45l-.03-4.45h1.45s.03,4.53,.03,4.53c.01,1.89-1.27,2.75-2.77,2.76-1.51,.01-2.81-.83-2.82-2.72Z"/><path class="cls-9" d="M232.22,76.25l2.8-.02c2.16-.02,3.46,1.36,3.48,3.57,.02,2.19-1.28,3.58-3.48,3.59l-2.74,.02-.05-7.16Zm2.85,5.76c1.29,0,1.94-1.02,1.93-2.23,0-1.19-.67-2.18-1.96-2.17h-1.38s.03,4.42,.03,4.42h1.38Z"/><path class="cls-9" d="M241.12,76.19l.05,7.16h-1.44s-.05-7.15-.05-7.15h1.44Z"/><path class="cls-9" d="M242.32,79.78c-.02-2.08,1.61-3.74,3.7-3.76,2.09-.01,3.74,1.63,3.76,3.68,.02,2.04-1.59,3.7-3.71,3.72-2.13,.02-3.73-1.59-3.75-3.64Zm5.97-.06c-.01-1.34-1.02-2.29-2.26-2.28-1.24,0-2.23,1-2.22,2.31,0,1.31,1,2.27,2.25,2.26,1.26,0,2.24-.99,2.22-2.29Z"/></g><path class="cls-2" d="M783.63,277.44c.01-1.71-1.36-3.1-3.06-3.12l-20.15-.15c-1.7-.01-3.1,1.36-3.11,3.07l-.15,20.2c-.01,1.71,1.36,3.1,3.06,3.12l20.15,.15c1.7,.01,3.1-1.36,3.11-3.07l.15-20.2Zm-7.43,.76c.85,0,1.54,.7,1.53,1.55s-.7,1.54-1.55,1.53-1.53-.7-1.53-1.56,.7-1.54,1.55-1.53Zm-11.88-.09c.85,0,1.54,.7,1.53,1.55s-.7,1.54-1.56,1.53c-.85,0-1.53-.7-1.53-1.56s.7-1.54,1.55-1.53Zm3.04,4.44l-.47,5.16c-.03,.33-.24,.6-.55,.71h0c-.31,.12-.52,.41-.54,.74l-.45,6.7c-.03,.45-.41,.8-.87,.8h-.29s-.29,0-.29,0c-.45,0-.82-.36-.85-.81l-.35-6.7c-.02-.33-.23-.63-.53-.75-.31-.12-.51-.41-.54-.73l-.38-5.17c-.03-.42,.25-.81,.68-.9l.42-.09c.29-.06,.57,.02,.78,.23l.58,.6c.33,.33,.87,.34,1.21,0l.6-.59c.21-.21,.5-.29,.78-.22l.43,.09c.38,.11,.66,.5,.63,.92Zm3.17,14.16c0,.23-.19,.41-.42,.41s-.42-.19-.41-.41l.14-18.55c0-.23,.19-.41,.42-.41s.41,.19,.41,.42l-.14,18.55Zm8.61-8.18c-.29,.07-.48,.35-.44,.64l.17,1.33c.04,.31-.18,.61-.49,.65l-.39,.04c-.27,.04-.48,.27-.49,.53l-.29,4.25c-.03,.45-.41,.8-.86,.79h-.29s-.29,0-.29,0c-.45,0-.82-.35-.85-.81l-.23-4.25c-.01-.28-.22-.5-.48-.54l-.39-.05c-.3-.04-.53-.34-.48-.66l.19-1.33c.05-.29-.14-.57-.43-.64-.3-.08-.48-.38-.41-.68l1.2-5.52c.08-.39,.54-.59,.87-.36l1.09,.71c.18,.12,.43,.13,.63,0l1.09-.7c.34-.21,.79-.02,.87,.37l1.12,5.54c.05,.3-.14,.6-.44,.67Z"/><g><polygon class="cls-2" points="282.48 326.91 273.18 332.3 273.1 325.93 282.4 320.54 291.84 325.69 291.93 332.06 282.48 326.91"/><polygon class="cls-2" points="282.6 335.64 273.29 341.03 273.21 334.65 282.51 329.26 291.96 334.42 292.04 340.78 282.6 335.64"/><polygon class="cls-2" points="282.71 344.36 273.4 349.75 273.32 343.39 282.63 338 292.06 343.14 292.15 349.52 282.71 344.36"/></g><g><path class="cls-10" d="M762.3,43.66h-1.41v-3.74c0-.3-.23-.53-.51-.53h-3.82c-.28,0-.51,.24-.51,.53v3.74h-1.41c-.28,0-.51,.24-.51,.53v4.01c0,.3,.23,.53,.51,.53h7.66c.28,0,.51-.24,.51-.53v-4.01c0-.3-.23-.53-.51-.53Zm-5.24-3.21h.89v.53c0,.3,.23,.53,.51,.53s.51-.24,.51-.53v-.53h.9v2.94h-2.8v-2.94Zm-1.92,4.28h.76v.53c0,.3,.23,.53,.51,.53s.51-.24,.51-.53v-.53h1.02v2.94h-2.8v-2.94Zm6.64,2.94h-2.82v-2.94h1.02v.53c0,.3,.23,.53,.51,.53s.51-.24,.51-.53v-.53h.78v2.94Z"/><path class="cls-10" d="M769.93,32.43s0-.04,0-.06c0-.02,0-.03,0-.05,0-.02,0-.03-.02-.05,0-.02,0-.03-.02-.05,0-.01-.01-.03-.02-.04l-.02-.05-.03-.04s-.02-.03-.03-.04l-.03-.03-.05-.04h0l-10.96-7.22c-.17-.11-.37-.11-.54,0l-10.96,7.22h0l-.05,.04-.03,.03s-.02,.03-.03,.04l-.03,.04-.05,.03s-.02,.03-.02,.04c0,.02-.01,.03-.02,.05,0,.02-.01,.03-.02,.05,0,.02,0,.03,0,.05,0,.03-.01,.05-.01,.08v15.77c0,.3,.23,.53,.51,.53h4.59c.28,0,.51-.24,.51-.53v-10.43h11.72v10.43c0,.3,.23,.53,.51,.53,.03,0,.06,0,.09,0,.03,0,.06,0,.09,0h4.41c.28,0,.51-.24,.51-.53v-15.77Zm-17.33,4.28v-.53h11.72v.53h-11.72Zm12.74,10.96v-12.03c0-.3-.23-.53-.51-.53h-12.74c-.28,0-.51,.24-.51,.53v12.03h-3.57v-14.94s10.45-6.88,10.45-6.88l10.45,6.88v14.94h-3.57Z"/><path class="cls-10" d="M759.74,30.03h-2.8c-.28,0-.51,.24-.51,.53,0,.3,.23,.53,.51,.53h2.8c.28,0,.51-.24,.51-.53,0-.3-.23-.53-.51-.53Z"/><path class="cls-10" d="M759.74,31.63h-2.8c-.28,0-.51,.24-.51,.53,0,.3,.23,.53,.51,.53h2.8c.28,0,.51-.24,.51-.53,0-.3-.23-.53-.51-.53Z"/></g><g><path class="cls-10" d="M761.65,103.08h-1.41v-3.74c0-.3-.23-.53-.51-.53h-3.82c-.28,0-.51,.24-.51,.53v3.74h-1.41c-.28,0-.51,.24-.51,.53v4.01c0,.3,.23,.53,.51,.53h7.66c.28,0,.51-.24,.51-.53v-4.01c0-.3-.23-.53-.51-.53Zm-5.24-3.21h.89v.53c0,.3,.23,.53,.51,.53s.51-.24,.51-.53v-.53h.9v2.94h-2.8v-2.94Zm-1.92,4.28h.76v.53c0,.3,.23,.53,.51,.53s.51-.24,.51-.53v-.53h1.02v2.94h-2.8v-2.94Zm6.64,2.94h-2.82v-2.94h1.02v.53c0,.3,.23,.53,.51,.53s.51-.24,.51-.53v-.53h.78v2.94Z"/><path class="cls-10" d="M769.28,91.85s0-.04,0-.06c0-.02,0-.03,0-.05,0-.02,0-.03-.02-.05,0-.02,0-.03-.02-.05,0-.01-.01-.03-.02-.04l-.02-.05-.03-.04s-.02-.03-.03-.04l-.03-.03-.05-.04h0l-10.96-7.22c-.17-.11-.37-.11-.54,0l-10.96,7.22h0l-.05,.04-.03,.03s-.02,.03-.03,.04l-.03,.04-.05,.03s-.02,.03-.02,.04c0,.02-.01,.03-.02,.05,0,.02-.01,.03-.02,.05,0,.02,0,.03,0,.05,0,.03-.01,.05-.01,.08v15.77c0,.3,.23,.53,.51,.53h4.59c.28,0,.51-.24,.51-.53v-10.43h11.72v10.43c0,.3,.23,.53,.51,.53,.03,0,.06,0,.09,0,.03,0,.06,0,.09,0h4.41c.28,0,.51-.24,.51-.53v-15.77Zm-17.33,4.28v-.53h11.72v.53h-11.72Zm12.74,10.96v-12.03c0-.3-.23-.53-.51-.53h-12.74c-.28,0-.51,.24-.51,.53v12.03h-3.57v-14.94s10.45-6.88,10.45-6.88l10.45,6.88v14.94h-3.57Z"/><path class="cls-10" d="M759.09,89.45h-2.8c-.28,0-.51,.24-.51,.53,0,.3,.23,.53,.51,.53h2.8c.28,0,.51-.24,.51-.53,0-.3-.23-.53-.51-.53Z"/><path class="cls-10" d="M759.09,91.05h-2.8c-.28,0-.51,.24-.51,.53,0,.3,.23,.53,.51,.53h2.8c.28,0,.51-.24,.51-.53,0-.3-.23-.53-.51-.53Z"/></g><g><path class="cls-10" d="M761.96,148.14h-1.41v-3.74c0-.3-.23-.53-.51-.53h-3.82c-.28,0-.51,.24-.51,.53v3.74h-1.41c-.28,0-.51,.24-.51,.53v4.01c0,.3,.23,.53,.51,.53h7.66c.28,0,.51-.24,.51-.53v-4.01c0-.3-.23-.53-.51-.53Zm-5.24-3.21h.89v.53c0,.3,.23,.53,.51,.53s.51-.24,.51-.53v-.53h.9v2.94h-2.8v-2.94Zm-1.92,4.28h.76v.53c0,.3,.23,.53,.51,.53s.51-.24,.51-.53v-.53h1.02v2.94h-2.8v-2.94Zm6.64,2.94h-2.82v-2.94h1.02v.53c0,.3,.23,.53,.51,.53s.51-.24,.51-.53v-.53h.78v2.94Z"/><path class="cls-10" d="M769.59,136.91s0-.04,0-.06c0-.02,0-.03,0-.05,0-.02,0-.03-.02-.05,0-.02,0-.03-.02-.05,0-.01-.01-.03-.02-.04l-.02-.05-.03-.04s-.02-.03-.03-.04l-.03-.03-.05-.04h0l-10.96-7.22c-.17-.11-.37-.11-.54,0l-10.96,7.22h0l-.05,.04-.03,.03s-.02,.03-.03,.04l-.03,.04-.05,.03s-.02,.03-.02,.04c0,.02-.01,.03-.02,.05,0,.02-.01,.03-.02,.05,0,.02,0,.03,0,.05,0,.03-.01,.05-.01,.08v15.77c0,.3,.23,.53,.51,.53h4.59c.28,0,.51-.24,.51-.53v-10.43h11.72v10.43c0,.3,.23,.53,.51,.53,.03,0,.06,0,.09,0,.03,0,.06,0,.09,0h4.41c.28,0,.51-.24,.51-.53v-15.77Zm-17.33,4.28v-.53h11.72v.53h-11.72Zm12.74,10.96v-12.03c0-.3-.23-.53-.51-.53h-12.74c-.28,0-.51,.24-.51,.53v12.03h-3.57v-14.94s10.45-6.88,10.45-6.88l10.45,6.88v14.94h-3.57Z"/><path class="cls-10" d="M759.39,134.5h-2.8c-.28,0-.51,.24-.51,.53,0,.3,.23,.53,.51,.53h2.8c.28,0,.51-.24,.51-.53,0-.3-.23-.53-.51-.53Z"/><path class="cls-10" d="M759.39,136.11h-2.8c-.28,0-.51,.24-.51,.53,0,.3,.23,.53,.51,.53h2.8c.28,0,.51-.24,.51-.53,0-.3-.23-.53-.51-.53Z"/></g></g><polygon id="Galleria_Stara_Zagora0.012" class="cls-3" points="169.37 2.02 132.89 71.31 175.13 93.94 267.81 93.94 267.81 56.51 218.78 56.51 218.78 2.02 169.37 2.02"/><polygon id="Galleria_Stara_Zagora0.016" class="cls-4" points="329.4 11.7 329.4 163.5 564.95 163.5 564.95 176.72 689.48 176.72 689.48 34.01 655.86 34.01 655.86 3.16 456.4 3.16 456.4 29.6 372.93 29.6 372.93 11.7 329.4 11.7"/><polygon id="Galleria_Stara_Zagora0.017" class="cls-4" points="329.78 165.39 329.78 299.17 708.49 299.17 708.49 230.97 682.66 230.97 682.66 194.12 709.07 194.12 709.07 178.74 563.1 178.74 563.1 164.81 329.78 165.39"/></svg>