<?xml version="1.0" encoding="UTF-8"?>
<svg id="Layer_4" data-name="Layer 4" xmlns="http://www.w3.org/2000/svg" viewBox="0 0 820.08 773.88">
  <defs>
    <style>
      .cls-1, .cls-2, .cls-3 {
        fill: none;
      }

      .cls-1, .cls-2, .cls-3, .cls-4 {
        stroke-miterlimit: 10;
      }

      .cls-1, .cls-3 {
        stroke: #231f20;
      }

      .cls-2, .cls-4 {
        stroke: #000;
      }

      .cls-5 {
        letter-spacing: 0em;
      }

      .cls-6 {
        font-size: 39.15px;
      }

      .cls-6, .cls-7, .cls-8, .cls-9, .cls-10, .cls-11, .cls-12, .cls-13 {
        fill: #231f20;
      }

      .cls-6, .cls-7, .cls-8, .cls-10, .cls-12, .cls-13 {
        font-family: Axiforma-Bold, 'Axiforma Bold';
        font-weight: 700;
      }

      .cls-14 {
        letter-spacing: 0em;
      }

      .cls-7 {
        font-size: 13.26px;
      }

      .cls-15 {
        letter-spacing: 0em;
      }

      .cls-16 {
        letter-spacing: -.08em;
      }

      .cls-17 {
        fill: #f47725;
      }

      .cls-17, .cls-9, .cls-18, .cls-11 {
        stroke-width: 0px;
      }

      .cls-3 {
        stroke-width: 2px;
      }

      .cls-19 {
        letter-spacing: 0em;
      }

      .cls-20 {
        letter-spacing: 0em;
      }

      .cls-8 {
        font-size: 10.85px;
      }

      .cls-18 {
        fill: #f1f2f2;
      }

      .cls-4 {
        fill: #fff;
      }

      .cls-10 {
        font-size: 8.81px;
      }

      .cls-11 {
        fill-rule: evenodd;
      }

      .cls-21 {
        letter-spacing: 0em;
      }

      .cls-22 {
        letter-spacing: 0em;
      }

      .cls-23 {
        letter-spacing: 0em;
      }

      .cls-12 {
        font-size: 10.45px;
      }

      .cls-13 {
        font-size: 13.26px;
      }

      .cls-24 {
        letter-spacing: .02em;
      }

      .cls-25 {
        letter-spacing: -.08em;
      }
    </style>
  </defs>
  <g id="cladire">
    <g>
      <path class="cls-18" d="m808.5,764.74c-19.35-6.46-37.5-12.43-55.05-18.21-14.88-4.89-30.26-9.96-46.56-15.38-25.49-8.48-53.57-18.3-75.12-26.28-77.54-28.71-152.57-61.62-223.01-97.83-124.59-64.04-236.58-137.27-332.83-217.65-.86-.72-2.77-2.27-5.43-4.43-8.75-7.11-25.04-20.35-39.07-32.4-7.86-6.75-13.96-12.23-18.14-16.29-6.26-6.09-9.9-10.1-7.63-14.35.29-.54,168.92-316.92,168.92-316.92h640.5v761.94l-6.58-2.2Z"/>
      <path class="cls-18" d="m810.08,10v750c-35.64-11.9-65.96-21.73-101.61-33.59-23.3-7.75-51.91-17.69-74.96-26.22-75.98-28.13-150.43-60.57-222.46-97.59-117.48-60.39-230.49-132.35-331.91-217.04-6.49-5.42-71.26-57.15-69.06-61.29,0,0,167.5-314.27,167.5-314.27h632.5m10-10H171.59l-2.82,5.3C167.09,8.43,1.57,318.98,1.26,319.57c-2.3,4.32-1.45,8.99,2.54,13.9,1.39,1.71,3.36,3.8,6.02,6.39,4.25,4.13,10.42,9.68,18.36,16.49,14.08,12.09,30.4,25.36,39.17,32.49,2.65,2.15,4.56,3.71,5.38,4.4,96.54,80.62,208.83,154.05,333.75,218.26,70.62,36.3,145.83,69.29,223.56,98.07,21.57,7.99,49.72,17.83,75.28,26.33,16.32,5.43,31.72,10.49,46.61,15.39,17.53,5.77,35.66,11.73,54.99,18.19l13.17,4.4V0h0Z"/>
      <path class="cls-3" d="m633.51,700.19c23.05,8.53,51.66,18.47,74.96,26.22,35.66,11.86,65.97,21.68,101.61,33.59V10H177.59S10.09,324.27,10.08,324.27c-2.2,4.14,62.57,55.87,69.06,61.29,101.42,84.69,214.44,156.66,331.91,217.04,72.02,37.02,146.48,69.46,222.46,97.59Z"/>
    </g>
  </g>
  <g id="magazine">
    <polyline class="cls-1" points="810.08 263.8 702.47 263.8 702.47 248.12"/>
    <polyline class="cls-1" points="632.51 248.12 735.75 248.12 735.75 233.87 695.91 233.87 695.91 203.79 633.24 203.79 633.24 700.93"/>
    <polyline class="cls-1" points="145.71 69.69 175.09 84.73 175.21 96.5 169.38 109.24 134.28 91.09"/>
    <polyline class="cls-1" points="632.63 10 632.63 91.82 568.01 91.82 568.01 10"/>
    <line class="cls-1" x1="735.75" y1="186.74" x2="810.08" y2="186.74"/>
    <polyline class="cls-1" points="175.21 97.71 383.52 97.71 383.52 10"/>
    <polyline class="cls-1" points="810.08 116.23 751.3 116.23 751.3 123.41 735.75 123.41 735.75 186.74 630.32 186.74 630.32 178.22 540.44 99.3 401.13 99.3 401.13 59.11 461.74 59.11 461.74 10"/>
    <polyline class="cls-1" points="29.25 288.32 76.59 288.92 110.84 315.35 120.07 303.51 217.12 115.37 183.96 115.37 147.88 185.4 119.95 170.79 111.81 186.5 90.92 176.02"/>
    <path class="cls-1" d="m127.36,319.25l-27.21,35.81,11.3,8.65-19.07,26.43c66.42,48.51,133.91,93.2,202.59,133.6l-.85,2.56,16.64,9.62,9.35-17.29,13.97,7.19,8.62-15.83,62.19,33.74,20.53-38.49c-107.14-59.15-206.9-120.99-298.06-185.97Z"/>
    <line class="cls-1" x1="187.93" y1="361.24" x2="142.69" y2="426.41"/>
    <line class="cls-1" x1="214.62" y1="378.81" x2="170.72" y2="445.2"/>
    <line class="cls-1" x1="237.8" y1="393.82" x2="194.07" y2="460.79"/>
    <polyline class="cls-1" points="258.9 407.22 229.99 451.75 217.97 444.08 203.54 467.01"/>
    <polyline class="cls-1" points="289.81 426.41 262.33 471.94 277.36 480.86 262.91 504.51"/>
    <line class="cls-1" x1="316.68" y1="442.7" x2="275.82" y2="512.34"/>
    <line class="cls-1" x1="294.97" y1="523.73" x2="335.64" y2="453.98"/>
    <line class="cls-1" x1="320.11" y1="518.62" x2="303.37" y2="509.33"/>
    <line class="cls-1" x1="342.71" y1="509.97" x2="364.12" y2="470.61"/>
    <line class="cls-1" x1="366.92" y1="523.1" x2="388.71" y2="484.68"/>
    <path class="cls-1" d="m557.69,669.51c13.73-29.3,32.57-46.67,57.51-49.84l-.06-47.35h-24.53l-43.97-21.43-18.83,6.94-89.27-43.23-42.14,80.4"/>
    <line class="cls-1" x1="557.69" y1="669.51" x2="557.69" y2="556.07"/>
    <polygon class="cls-1" points="450.32 234.48 555.02 234.48 555.02 388.79 537.41 388.79 537.41 386.72 512.87 386.72 512.87 372.47 435.14 372.47 435.14 320.22 440.85 320.22 440.85 296.23 450.32 296.23 450.32 234.48"/>
    <line class="cls-4" x1="158.66" y1="164.49" x2="184.57" y2="178.47"/>
    <polyline class="cls-2" points="111.81 186.5 110.02 189.59 163.67 218.98"/>
    <line class="cls-2" x1="163.67" y1="167.2" x2="141.86" y2="207.03"/>
  </g>
  <g id="logo">
    <path class="cls-9" d="m120.7,366.97c2.12-2.12,5.21-4.39,9.26-6.8,3.51-2.09,6.79-3.69,9.85-4.8,5.32-1.95,8.93-1.96,10.84-.06.77,1.05,1.18,2.32,1.23,3.83.11,3.57-1.6,7.85-5.11,12.83.03-.07,1.13-.73,3.31-1.97,6.52-3.69,10.93-4.37,13.22-2.04,2.11,2.15,2.23,5.8.37,10.95-1.11,3.02-2.79,6.27-5.01,9.74-2.39,3.72-4.77,6.77-7.13,9.13l-3.09-3.09c7.57-7.57,12.14-14.36,13.71-20.36.62-2.4.54-4-.26-4.79-1.04-1.04-3.5-.49-7.37,1.65-4.38,2.43-9.37,6.4-14.97,11.91l-3.61-3.51c7.32-7.32,11.76-13.54,13.34-18.66.63-2.05.59-3.41-.09-4.1-1-1-3.36-.7-7.08.9-6.02,2.6-11.98,6.81-17.89,12.63l-3.48-3.37Z"/>
    <g>
      <path class="cls-9" d="m485.39,283.53h-4.03v-1.92h9.81v1.92h-4.05v15.57h-1.73v-15.57Z"/>
      <path class="cls-9" d="m503.43,290.18c0,6.02-2.77,9.21-6.15,9.21s-5.96-3.58-5.96-8.88c0-5.55,2.61-9.19,6.15-9.19s5.96,3.66,5.96,8.85Zm-10.28.29c0,3.74,1.53,7.09,4.23,7.09s4.25-3.3,4.25-7.27c0-3.48-1.38-7.11-4.23-7.11s-4.25,3.45-4.25,7.29Z"/>
      <path class="cls-9" d="m505.65,299.11v-17.49h1.87l4.25,8.85c.98,2.05,1.75,3.89,2.38,5.68l.04-.03c-.16-2.34-.2-4.46-.2-7.19v-7.32h1.61v17.49h-1.73l-4.21-8.88c-.92-1.95-1.81-3.95-2.48-5.84l-.06.03c.1,2.21.14,4.31.14,7.22v7.48h-1.61Z"/>
      <path class="cls-9" d="m463.61,312.99c.75-.21,1.93-.36,3.12-.36,1.71,0,2.81.39,3.64,1.27.69.67,1.1,1.71,1.1,3.09,0,1.69-.84,3.17-2.24,3.84v.05c1.26.42,2.73,1.79,2.73,4.39,0,1.51-.45,2.65-1.12,3.5-.92,1.12-2.42,1.64-4.58,1.64-1.18,0-2.08-.1-2.65-.21v-17.21Zm1.71,7.16h1.55c1.81,0,2.87-1.25,2.87-2.93,0-2.05-1.18-2.86-2.91-2.86-.79,0-1.24.08-1.51.16v5.63Zm0,8.38c.33.08.83.1,1.43.1,1.77,0,3.4-.86,3.4-3.4,0-2.39-1.55-3.37-3.42-3.37h-1.42v6.67Z"/>
      <path class="cls-9" d="m485.58,321.32c0,6.02-2.77,9.21-6.15,9.21s-5.96-3.58-5.96-8.88c0-5.55,2.61-9.19,6.15-9.19s5.96,3.66,5.96,8.85Zm-10.28.29c0,3.74,1.53,7.09,4.23,7.09s4.25-3.3,4.25-7.27c0-3.48-1.38-7.11-4.23-7.11s-4.25,3.45-4.25,7.29Z"/>
      <path class="cls-9" d="m487.8,330.25v-17.49h1.87l4.25,8.85c.98,2.05,1.75,3.89,2.38,5.68l.04-.03c-.16-2.34-.2-4.46-.2-7.19v-7.32h1.61v17.49h-1.73l-4.21-8.88c-.92-1.95-1.81-3.95-2.48-5.84l-.06.03c.1,2.21.14,4.31.14,7.22v7.48h-1.61Z"/>
      <path class="cls-9" d="m500.72,312.99c.75-.21,1.93-.36,3.12-.36,1.71,0,2.81.39,3.64,1.27.69.67,1.1,1.71,1.1,3.09,0,1.69-.84,3.17-2.24,3.84v.05c1.26.42,2.73,1.79,2.73,4.39,0,1.51-.45,2.65-1.12,3.5-.92,1.12-2.42,1.64-4.58,1.64-1.18,0-2.08-.1-2.65-.21v-17.21Zm1.71,7.16h1.55c1.81,0,2.87-1.25,2.87-2.93,0-2.05-1.18-2.86-2.91-2.86-.79,0-1.24.08-1.51.16v5.63Zm0,8.38c.33.08.83.1,1.43.1,1.77,0,3.4-.86,3.4-3.4,0-2.39-1.55-3.37-3.42-3.37h-1.42v6.67Z"/>
      <path class="cls-9" d="m522.7,321.32c0,6.02-2.77,9.21-6.15,9.21s-5.96-3.58-5.96-8.88c0-5.55,2.61-9.19,6.15-9.19s5.96,3.66,5.96,8.85Zm-10.28.29c0,3.74,1.53,7.09,4.23,7.09s4.25-3.3,4.25-7.27c0-3.48-1.38-7.11-4.23-7.11s-4.25,3.45-4.25,7.29Z"/>
      <path class="cls-9" d="m524.91,330.25v-17.49h1.87l4.25,8.85c.98,2.05,1.75,3.89,2.38,5.68l.04-.03c-.16-2.34-.2-4.46-.2-7.19v-7.32h1.61v17.49h-1.73l-4.21-8.88c-.92-1.95-1.81-3.95-2.48-5.84l-.06.03c.1,2.21.14,4.31.14,7.22v7.48h-1.61Z"/>
    </g>
    <g>
      <path class="cls-9" d="m234.08,44.56c.54.62,1.32,1.13,2.15,1.13,1.23,0,1.94-1.21,1.94-2.96,0-1.62-.5-2.55-1.75-3.45-1.52-1-2.46-2.47-2.46-4.91,0-2.7,1.2-4.71,3.01-4.71.95,0,1.64.41,2.06.85l-.33,1.83c-.3-.31-.92-.82-1.77-.82-1.27,0-1.75,1.41-1.75,2.6,0,1.62.57,2.42,1.85,3.34,1.57,1.13,2.37,2.55,2.37,5.09,0,2.68-1.06,4.99-3.26,4.99-.9,0-1.88-.49-2.37-1.11l.3-1.88Z"/>
      <path class="cls-9" d="m242.24,29.95v7.25h4.5v-7.25h1.21v17.34h-1.21v-8.13h-4.5v8.13h-1.2v-17.34h1.2Z"/>
      <path class="cls-9" d="m251.8,31.85h-2.83v-1.9h6.88v1.9h-2.84v15.44h-1.21v-15.44Z"/>
      <path class="cls-9" d="m257.36,41.84l-.97,5.45h-1.24l3.16-17.34h1.45l3.17,17.34h-1.28l-.99-5.45h-3.3Zm3.05-1.75l-.91-4.99c-.21-1.13-.34-2.16-.48-3.16h-.03c-.14,1.03-.29,2.08-.47,3.14l-.91,5.02h2.8Z"/>
      <path class="cls-9" d="m264.13,44.56c.54.62,1.32,1.13,2.15,1.13,1.23,0,1.94-1.21,1.94-2.96,0-1.62-.5-2.55-1.75-3.45-1.52-1-2.46-2.47-2.46-4.91,0-2.7,1.2-4.71,3.01-4.71.95,0,1.64.41,2.06.85l-.33,1.83c-.3-.31-.92-.82-1.77-.82-1.27,0-1.75,1.41-1.75,2.6,0,1.62.57,2.42,1.85,3.34,1.57,1.13,2.37,2.55,2.37,5.09,0,2.68-1.06,4.99-3.26,4.99-.9,0-1.88-.49-2.37-1.11l.3-1.88Z"/>
      <path class="cls-9" d="m272.86,31.85h-2.83v-1.9h6.88v1.9h-2.84v15.44h-1.21v-15.44Z"/>
      <path class="cls-9" d="m277.95,29.95h1.2v15.46h3.97v1.88h-5.17v-17.34Z"/>
      <path class="cls-9" d="m285.66,29.95v17.34h-1.2v-17.34h1.2Z"/>
      <path class="cls-9" d="m289.79,47.29l-3.03-17.34h1.3l1.45,8.54c.4,2.34.74,4.45.99,6.48h.03c.26-2.01.65-4.19,1.06-6.46l1.57-8.57h1.28l-3.32,17.34h-1.32Z"/>
      <path class="cls-9" d="m300.26,39.16h-3.61v6.25h4.03v1.88h-5.23v-17.34h5.02v1.88h-3.82v5.48h3.61v1.85Z"/>
      <path class="cls-9" d="m304.22,31.85h-2.83v-1.9h6.88v1.9h-2.84v15.44h-1.21v-15.44Z"/>
      <path class="cls-9" d="m309.06,44.56c.54.62,1.32,1.13,2.15,1.13,1.23,0,1.94-1.21,1.94-2.96,0-1.62-.5-2.55-1.75-3.45-1.52-1-2.46-2.47-2.46-4.91,0-2.7,1.2-4.71,3.01-4.71.95,0,1.64.41,2.06.85l-.33,1.83c-.3-.31-.92-.82-1.77-.82-1.27,0-1.75,1.41-1.75,2.6,0,1.62.57,2.42,1.85,3.34,1.57,1.13,2.37,2.55,2.37,5.09,0,2.68-1.06,4.99-3.26,4.99-.9,0-1.88-.49-2.37-1.11l.3-1.88Z"/>
      <path class="cls-9" d="m317.53,41.84l-.97,5.45h-1.24l3.16-17.34h1.45l3.17,17.34h-1.28l-.99-5.45h-3.3Zm3.05-1.75l-.91-4.99c-.21-1.13-.34-2.16-.48-3.16h-.03c-.14,1.03-.29,2.08-.47,3.14l-.91,5.02h2.8Z"/>
      <path class="cls-9" d="m241.53,61.06c.61-.23,1.48-.36,2.3-.36,1.28,0,2.11.44,2.69,1.42.47.77.73,1.96.73,3.29,0,2.29-.77,3.81-1.75,4.42v.08c.72.46,1.15,1.7,1.37,3.5.3,2.42.52,4.09.72,4.76h-1.24c-.15-.49-.36-1.98-.62-4.14-.28-2.39-.77-3.29-1.86-3.37h-1.13v7.51h-1.2v-17.11Zm1.2,7.9h1.23c1.28,0,2.1-1.31,2.1-3.29,0-2.24-.87-3.22-2.14-3.24-.58,0-.99.1-1.19.21v6.33Z"/>
      <path class="cls-9" d="m253.76,70.04h-3.61v6.25h4.03v1.88h-5.23v-17.34h5.02v1.88h-3.82v5.48h3.61v1.85Z"/>
      <path class="cls-9" d="m255.57,75.44c.54.62,1.32,1.13,2.15,1.13,1.23,0,1.94-1.21,1.94-2.96,0-1.62-.5-2.55-1.75-3.45-1.52-1-2.46-2.47-2.46-4.91,0-2.7,1.2-4.71,3.01-4.71.95,0,1.64.41,2.06.85l-.33,1.83c-.3-.31-.92-.82-1.77-.82-1.27,0-1.75,1.41-1.75,2.6,0,1.62.57,2.42,1.85,3.34,1.57,1.13,2.37,2.55,2.37,5.09,0,2.68-1.06,4.99-3.25,4.99-.9,0-1.88-.49-2.37-1.11l.3-1.88Z"/>
      <path class="cls-9" d="m264.3,62.73h-2.83v-1.9h6.88v1.9h-2.84v15.44h-1.21v-15.44Z"/>
      <path class="cls-9" d="m269.85,72.71l-.97,5.45h-1.24l3.16-17.34h1.45l3.17,17.34h-1.28l-.99-5.45h-3.3Zm3.05-1.75l-.91-4.99c-.21-1.13-.34-2.16-.48-3.16h-.03c-.14,1.03-.29,2.08-.47,3.14l-.91,5.02h2.8Z"/>
      <path class="cls-9" d="m277.6,60.83v10.26c0,3.88.92,5.53,2.17,5.53,1.38,0,2.26-1.7,2.26-5.53v-10.26h1.21v10.11c0,5.33-1.5,7.51-3.52,7.51-1.9,0-3.34-2.03-3.34-7.41v-10.21h1.21Z"/>
      <path class="cls-9" d="m285.33,61.06c.61-.23,1.48-.36,2.3-.36,1.28,0,2.11.44,2.69,1.42.47.77.73,1.96.73,3.29,0,2.29-.77,3.81-1.75,4.42v.08c.72.46,1.15,1.7,1.37,3.5.3,2.42.52,4.09.72,4.76h-1.24c-.15-.49-.36-1.98-.62-4.14-.28-2.39-.77-3.29-1.86-3.37h-1.13v7.51h-1.2v-17.11Zm1.2,7.9h1.23c1.28,0,2.1-1.31,2.1-3.29,0-2.24-.87-3.22-2.14-3.24-.58,0-.99.1-1.19.21v6.33Z"/>
      <path class="cls-9" d="m294.32,72.71l-.97,5.45h-1.24l3.16-17.34h1.45l3.17,17.34h-1.28l-.99-5.45h-3.3Zm3.05-1.75l-.91-4.99c-.21-1.13-.34-2.16-.48-3.16h-.03c-.14,1.03-.29,2.08-.47,3.14l-.91,5.02h2.8Z"/>
      <path class="cls-9" d="m301.25,78.17v-17.34h1.31l2.98,8.77c.69,2.03,1.23,3.86,1.67,5.63l.03-.03c-.11-2.32-.14-4.42-.14-7.13v-7.25h1.13v17.34h-1.21l-2.95-8.8c-.65-1.93-1.27-3.91-1.74-5.79l-.04.03c.07,2.19.1,4.27.1,7.15v7.41h-1.13Z"/>
      <path class="cls-9" d="m312.09,62.73h-2.83v-1.9h6.88v1.9h-2.84v15.44h-1.21v-15.44Z"/>
    </g>
    <text class="cls-13" transform="translate(198.64 437.98) rotate(-55.34) scale(.76 1) skewX(-.19)"><tspan x="0" y="0">PIZZIO</tspan></text>
    <g>
      <path class="cls-9" d="m280.54,477.25l1.55-2.71-1.69-.97-1.73,3s-.05.08-.08.12c-.61,1.06-.25,2.42.81,3.03.78.45,1.73.37,2.42-.13l2.07-1.37c.49-.32.85-.01.56.5l-1.58,2.75-.85-.49.18,1.63.18,1.63,1.5-.66,1.5-.66-.85-.49,1.92-3.25c.61-1.06.25-2.42-.81-3.03-.54-.31-1.19-.54-1.81-.25l-2.73,1.74c-.22.14-.69-.17-.56-.4h0Zm3.58-10.08l4.48,2.59c.79.46,1.27,1.09,1.43,1.9.16.81-.01,1.66-.52,2.55s-1.13,1.44-1.86,1.64c-.73.21-1.53.06-2.39-.44l-4.41-2.55,1.2-2.08,4.63,2.68c.42.24.97.1,1.21-.33h0c.24-.42.1-.97-.32-1.21l-4.63-2.68,1.2-2.08h0Zm9.47-.46c.61-1.06.25-2.42-.81-3.03-.72-.42-1.59-.38-2.25.02-.06-.65-.43-1.27-1.04-1.62-.96-.56-2.18-.26-2.79.64h-.02s-2.22,3.85-2.22,3.85l6.91,4,2.22-3.86h0Zm-3.9.15l.57-1c.23-.4.74-.53,1.14-.31h0c.37.21.5.69.28,1.06l-.6,1.05-1.39-.81h0Zm-2.53-1.46l.48-.83c.19-.33.62-.45.95-.26h0c.31.18.42.58.24.89l-.5.88-1.17-.67h0Z"/>
      <path class="cls-11" d="m301.81,440.23l1.42.82c.99.57,1.35,1.83.84,2.84l2.02,1.17-1.29,2.24-2.03-1.17c-.63.9-1.86,1.18-2.83.62l-3.08-1.78,1.18-2.05,2.76,1.59c.36.21.82.08,1.03-.28l.17-.3c.21-.36.08-.83-.28-1.03l-1.46-.85h0s-.02-.02-.03-.02c-.7-.4-.94-1.3-.54-2h0s0,0,0,0h0s0,0,0,0h0s0,0,0,0h0s0,0,0,0h0s0-.01,0-.01h0s.14-.24.14-.24l.3-.51.57-1-.85-.49,1.5-.66,1.5-.66.18,1.63.18,1.63-.85-.49-.57,1h0Zm-.4,12.92l-1.2,2.09-4.39-2.54c-.85-.49-1.36-1.13-1.52-1.94-.17-.8.03-1.68.58-2.64s1.14-1.48,1.82-1.68c.68-.2,1.46-.04,2.35.48l4.46,2.58-1.2,2.09-2.02-1.17-.89,1.55,2.02,1.17h0Zm-2.62-3.58l-1.16-.67c-.43-.25-.98-.1-1.22.33h0c-.25.43-.1.98.33,1.22l1.16.67.89-1.55h0Zm-5.78,2.19l4.97,2.88c.62.36,1,.87,1.14,1.54.14.67,0,1.35-.39,2.05-.03.04-.05.09-.07.13-.19.39-.65,1.21-1.54,1.5.26.93-.27,1.7-.46,2-.07.11-.13.22-.2.34-.42.73-.94,1.18-1.55,1.34-.61.16-1.29.03-2.03-.4l-4.8-2.78,1.19-2.06,4.72,2.73c.34.19.77.08.96-.26h0c.19-.34.08-.77-.26-.97l-4.72-2.73,1.13-1.97,4.72,2.73c.34.19.77.08.96-.26h0c.19-.34.08-.77-.26-.97l-4.72-2.73,1.21-2.11h0Zm12.61-8.25c.05-.09.12-.16.21-.22.09-.06.19-.08.3-.08.11,0,.21.03.3.08s.16.12.22.22c.06.09.08.19.08.3,0,.11-.03.21-.08.3s-.12.16-.22.22c-.09.06-.19.08-.3.08-.11,0-.21-.03-.3-.08s-.16-.13-.22-.22c-.06-.09-.08-.2-.08-.3,0-.11.03-.21.08-.29h0Zm.09.05c-.04.07-.06.15-.07.24,0,.09.02.18.07.25.05.08.11.14.18.18s.16.07.25.07c.09,0,.17-.02.25-.07.08-.05.14-.11.18-.18s.06-.16.07-.25c0-.09-.02-.17-.07-.25-.05-.08-.11-.14-.18-.18s-.16-.07-.25-.07c-.09,0-.18.02-.25.07-.08.05-.14.11-.18.18h0Zm.59.64l-.55-.32.11-.19c.04-.07.07-.11.1-.13.03-.02.06-.04.09-.04.04,0,.07,0,.1.02.04.02.07.06.08.1.01.05,0,.09-.02.15.02-.01.04-.03.06-.03.03,0,.09-.02.16-.02h.15s-.06.1-.06.1h-.12c-.09,0-.15,0-.18.02-.02,0-.04.03-.06.06l-.03.05.24.14-.05.09h0Zm-.26-.27l.06-.11c.03-.05.04-.09.04-.12,0-.03-.02-.05-.04-.06-.02,0-.03-.01-.05-.01-.02,0-.04,0-.05.02-.02.01-.04.04-.06.08l-.06.1.17.1h0Z"/>
    </g>
    <text class="cls-8" transform="translate(300.09 497.99) rotate(-59.3) scale(.76 1) skewX(-.18)"><tspan x="0" y="0">MR.DONER</tspan></text>
    <text class="cls-7" transform="translate(333.31 500.56) rotate(-60.97) scale(.76 1) skewX(-.17)"><tspan x="0" y="0">BMS</tspan></text>
    <text class="cls-10" transform="translate(366.18 508.84) rotate(-62.15) scale(.76 1) skewX(-.17)"><tspan class="cls-20" x="0" y="0">C</tspan><tspan class="cls-16" x="5.15" y="0">A</tspan><tspan x="9.86" y="0">TM</tspan><tspan class="cls-15" x="21.33" y="0">I</tspan><tspan class="cls-21" x="23.39" y="0">’</tspan><tspan x="25.15" y="0">S</tspan></text>
    <g>
      <path class="cls-9" d="m687.05,449.56c-.84.55-2.51,1.11-4.66,1.11-4.97,0-8.71-4.15-8.71-11.79s3.74-12.24,9.21-12.24c2.2,0,3.58.62,4.19,1.04l-.55,2.45c-.86-.55-2.09-.97-3.56-.97-4.13,0-6.88,3.49-6.88,9.61,0,5.7,2.49,9.37,6.78,9.37,1.39,0,2.8-.38,3.72-.97l.47,2.38Z"/>
      <path class="cls-9" d="m692.18,427.02v23.29h-2.28v-23.29h2.28Z"/>
      <path class="cls-9" d="m696.15,450.32v-23.29h2.49l5.65,11.79c1.31,2.73,2.33,5.18,3.17,7.57l.05-.03c-.21-3.11-.26-5.94-.26-9.57v-9.75h2.15v23.29h-2.3l-5.6-11.82c-1.23-2.59-2.41-5.25-3.3-7.78l-.08.03c.13,2.94.18,5.74.18,9.61v9.95h-2.15Z"/>
      <path class="cls-9" d="m722.5,439.4h-6.86v8.4h7.64v2.52h-9.92v-23.29h9.53v2.52h-7.25v7.36h6.86v2.49Z"/>
      <path class="cls-9" d="m741.11,440.09c-.13-3.25-.29-7.15-.26-10.06h-.08c-.6,2.73-1.33,5.63-2.22,8.85l-3.11,11.3h-1.73l-2.85-11.09c-.84-3.28-1.54-6.29-2.04-9.05h-.05c-.05,2.9-.18,6.81-.34,10.3l-.47,9.99h-2.17l1.23-23.29h2.9l3.01,11.27c.73,2.87,1.33,5.43,1.78,7.85h.08c.45-2.35,1.07-4.91,1.86-7.85l3.14-11.27h2.9l1.1,23.29h-2.22l-.45-10.23Z"/>
      <path class="cls-9" d="m749.87,442.99l-1.83,7.33h-2.36l5.99-23.29h2.75l6.02,23.29h-2.43l-1.88-7.33h-6.25Zm5.78-2.35l-1.73-6.71c-.39-1.52-.65-2.9-.92-4.25h-.05c-.26,1.38-.55,2.8-.89,4.22l-1.73,6.74h5.31Z"/>
      <path class="cls-9" d="m709.32,491.03c-.84.55-2.51,1.11-4.66,1.11-4.97,0-8.71-4.15-8.71-11.79s3.74-12.24,9.21-12.24c2.2,0,3.58.62,4.19,1.04l-.55,2.45c-.86-.55-2.09-.97-3.56-.97-4.13,0-6.88,3.49-6.88,9.61,0,5.7,2.49,9.37,6.78,9.37,1.39,0,2.8-.38,3.72-.97l.47,2.38Z"/>
      <path class="cls-9" d="m714.44,468.5v23.29h-2.28v-23.29h2.28Z"/>
      <path class="cls-9" d="m721.77,471.05h-5.37v-2.56h13.06v2.56h-5.39v20.74h-2.3v-20.74Z"/>
      <path class="cls-9" d="m736.08,491.79v-9.88l-5.57-13.41h2.59l2.49,6.43c.68,1.76,1.2,3.18,1.75,4.8h.05c.5-1.52,1.1-3.04,1.78-4.8l2.54-6.43h2.59l-5.91,13.38v9.92h-2.3Z"/>
    </g>
    <text class="cls-6" transform="translate(627.6 137.26) scale(.47 1)"><tspan class="cls-25" x="0" y="0">A</tspan><tspan x="20.95" y="0">THL</tspan><tspan class="cls-24" x="84.41" y="0">E</tspan><tspan class="cls-23" x="104.29" y="0">TIC</tspan></text>
    <g>
      <path class="cls-9" d="m656.94,214.09c.47-.1,1.22-.17,1.97-.17,1.08,0,1.77.18,2.3.6.43.32.69.81.69,1.45,0,.79-.53,1.49-1.41,1.81v.02c.79.2,1.72.84,1.72,2.07,0,.71-.29,1.25-.71,1.65-.58.53-1.53.77-2.89.77-.75,0-1.32-.05-1.67-.1v-8.1Zm1.08,3.37h.98c1.14,0,1.81-.59,1.81-1.38,0-.97-.74-1.34-1.84-1.34-.5,0-.78.04-.96.07v2.65Zm0,3.95c.21.04.52.05.91.05,1.12,0,2.15-.4,2.15-1.6,0-1.12-.98-1.59-2.16-1.59h-.89v3.14Z"/>
      <path class="cls-9" d="m664.74,213.98v8.24h-1.08v-8.24h1.08Z"/>
      <path class="cls-9" d="m673.77,218.01c0,2.84-1.75,4.34-3.88,4.34s-3.76-1.69-3.76-4.18c0-2.62,1.65-4.33,3.88-4.33s3.76,1.72,3.76,4.17Zm-6.49.13c0,1.76.97,3.34,2.67,3.34s2.68-1.55,2.68-3.42c0-1.64-.87-3.35-2.67-3.35s-2.68,1.63-2.68,3.43Z"/>
      <path class="cls-9" d="m650.83,228.64h1.08v7.35h3.57v.89h-4.65v-8.24Z"/>
      <path class="cls-9" d="m658.04,234.29l-.87,2.59h-1.12l2.84-8.24h1.3l2.85,8.24h-1.15l-.89-2.59h-2.96Zm2.74-.83l-.82-2.37c-.19-.54-.31-1.03-.43-1.5h-.02c-.12.49-.26.99-.42,1.49l-.82,2.38h2.52Z"/>
      <path class="cls-9" d="m663.71,236.25l4.64-6.69v-.04h-4.24v-.89h5.64v.65l-4.61,6.66v.04h4.68v.89h-6.1v-.62Z"/>
      <path class="cls-9" d="m675.46,233.02h-3.25v2.97h3.62v.89h-4.7v-8.24h4.52v.89h-3.44v2.6h3.25v.88Z"/>
      <path class="cls-9" d="m677.23,228.75c.55-.11,1.33-.17,2.07-.17,1.15,0,1.9.21,2.42.67.42.37.66.93.66,1.56,0,1.09-.69,1.81-1.58,2.1v.04c.65.22,1.03.81,1.23,1.66.27,1.15.47,1.94.64,2.26h-1.12c-.14-.23-.32-.94-.56-1.97-.25-1.14-.69-1.56-1.67-1.6h-1.02v3.57h-1.08v-8.13Zm1.08,3.75h1.1c1.15,0,1.89-.62,1.89-1.56,0-1.06-.78-1.53-1.92-1.54-.52,0-.89.05-1.07.1v3.01Z"/>
    </g>
    <path class="cls-17" d="m786.15,143.02c0-1.71-1.38-3.09-3.09-3.09h-20.15c-1.7,0-3.09,1.38-3.09,3.09v20.21c0,1.71,1.38,3.09,3.09,3.09h20.15c1.7,0,3.09-1.38,3.09-3.09v-20.21Zm-7.42.82c.85,0,1.54.69,1.54,1.54s-.69,1.55-1.54,1.55-1.54-.69-1.54-1.55.68-1.54,1.54-1.54Zm-11.88,0c.85,0,1.54.69,1.54,1.54s-.69,1.55-1.54,1.55-1.54-.69-1.54-1.55.69-1.54,1.54-1.54Zm3.07,4.42l-.43,5.17c-.03.33-.24.6-.55.72h0c-.31.12-.52.41-.54.74l-.4,6.7c-.03.45-.4.8-.86.8h-.57c-.45,0-.82-.35-.85-.8l-.4-6.7c-.02-.33-.23-.63-.54-.74-.31-.11-.52-.4-.55-.73l-.42-5.17c-.03-.42.25-.81.67-.91l.42-.09c.29-.06.57.02.78.23l.59.6c.33.33.87.33,1.21,0l.6-.6c.21-.21.5-.29.78-.23l.43.09c.38.1.66.49.64.92Zm3.28,14.13c0,.23-.19.41-.41.41s-.42-.19-.42-.41v-18.55c0-.23.19-.41.42-.41s.41.18.41.41v18.55Zm8.54-8.25c-.29.07-.48.35-.43.64l.18,1.33c.05.31-.18.61-.48.65l-.39.05c-.27.04-.47.27-.49.54l-.26,4.25c-.03.45-.4.8-.85.8h-.57c-.45,0-.82-.35-.85-.8l-.26-4.25c-.02-.28-.23-.49-.49-.54l-.39-.05c-.31-.04-.53-.34-.48-.65l.18-1.33c.05-.29-.14-.57-.43-.64-.3-.07-.48-.37-.42-.68l1.16-5.53c.08-.39.53-.59.87-.36l1.09.7c.18.12.43.12.63,0l1.09-.7c.34-.21.79-.03.87.36l1.17,5.53c.05.3-.14.6-.43.68Z"/>
    <path class="cls-17" d="m285.47,206.67c-.5.07-2.41.54-4.24,1.01-13.32,3.49-24.13,14.33-27.93,27.97-1.15,4.14-1.58,12.35-.86,16.77,1.94,12.17,9.62,23,20.46,28.8,4.49,2.41,12.57,4.93,12.57,3.92s-4.38-23.94-4.74-24.84c-.21-.54-1.97-2.48-3.95-4.32-4.06-3.74-5.06-5.22-5.85-8.6-.65-2.84-3.77-22.21-3.77-23.47,0-.94,1.22-1.66,1.83-1.04.18.18,1.44,5.26,2.76,11.3,2.26,10.19,2.48,10.94,3.23,11.05.43.07.86-.11.97-.36.11-.25-.93-5.4-2.3-11.45-1.36-6.05-2.4-11.09-2.3-11.27.07-.14.57-.25,1.11-.25h1.01l2.48,11.23c2.55,11.48,2.77,11.99,4.13,11.12.43-.29.14-2.02-1.94-11.34-1.36-6.05-2.37-11.27-2.23-11.55.11-.29.57-.54,1.04-.54.79,0,.93.32,2.41,6.91,3.66,16.49,3.41,15.59,4.24,15.69.43.07.86-.11.97-.36.11-.25-.93-5.4-2.3-11.45-2.26-10.01-2.41-11.02-1.9-11.45,1.36-1.04,1.58-.5,5.17,11.99,3.34,11.52,3.52,12.38,3.37,14.94-.11,2.23-.4,3.35-1.8,6.48-1.15,2.66-1.65,4.28-1.65,5.4,0,1.91,6.64,25.31,6.97,24.48.11-.29.93-4.07,1.83-8.35l1.65-7.81-.61-1.84c-.65-2.02-.61-3.71.43-13.68.68-6.84,1.87-12.6,4.09-20.05,2.37-7.92,4.74-12.74,7.68-15.77,3.73-3.82,5.96-3.49,5.96.86,0,3.02-8.8,48.85-9.73,50.61-.47.9-1.19,4.07-1.97,8.64-.68,3.96-1.33,7.63-1.44,8.17l-.18.97,1.9-.54c7.61-2.2,13.35-5.65,18.67-11.23,7.11-7.45,10.73-16.6,10.77-27.07.03-11.2-3.95-20.92-11.78-28.65-5.49-5.47-12.85-9.32-20.54-10.8-2.44-.47-11.45-.65-13.72-.25h0Zm0,0"/>
    <g>
      <g>
        <path class="cls-9" d="m190.7,141.66c.14,0,.27,0,.41,0,0,1.72,0,3.44,0,5.16-.14,0-.27,0-.41,0v-.64c-.21.31-.5.55-.82.66-.42.14-.88.09-1.26-.16-.44-.3-.77-.83-.84-1.42-.05-.44,0-.9.2-1.28.23-.45.61-.81,1.05-.92.33-.09.69-.07,1,.09.27.13.5.37.67.64,0-.71,0-1.41,0-2.12Zm-1.45,1.82c-.11.02-.21.05-.31.1-.46.23-.77.81-.76,1.39,0,.34.11.68.29.94.18.27.45.47.75.54.5.11,1.05-.15,1.32-.65.19-.35.23-.79.16-1.19-.07-.39-.3-.74-.6-.95-.25-.18-.56-.23-.85-.18Z"/>
        <path class="cls-9" d="m172.7,141.75c.24-.07.52.15.54.44.03.28-.19.55-.43.54-.23.02-.45-.21-.45-.48-.01-.24.15-.46.35-.5Z"/>
        <path class="cls-9" d="m192.62,141.8c.1-.04.21-.03.3.04.09.06.15.17.16.3.01.12-.03.26-.11.34-.1.11-.26.14-.38.07-.12-.06-.21-.21-.2-.37,0-.16.09-.32.23-.38Z"/>
        <path class="cls-9" d="m175.51,143.1c.27-.12.59-.13.86,0,.25.12.48.34.57.64.1.29.09.61.09.92v2.17c-.27,0-.53,0-.8,0,0-.57,0-1.14,0-1.7,0-.24,0-.48-.03-.71-.02-.17-.08-.33-.2-.44-.13-.12-.31-.13-.47-.09-.18.05-.32.2-.41.38-.07.14-.11.29-.12.45-.01.2-.02.39-.02.59v1.52c-.27,0-.54,0-.8,0v-3.72c.27,0,.54,0,.8,0,0,.12,0,.25,0,.38.16-.15.33-.29.52-.38Z"/>
        <path class="cls-9" d="m179,143.17c.27-.16.59-.21.89-.11.21.07.4.21.53.42.08.13.13.27.18.42.13-.28.32-.53.56-.69.26-.18.57-.24.87-.17.26.06.5.26.64.52.17.33.19.72.21,1.09,0,.72,0,1.45,0,2.17-.14,0-.28,0-.42,0,0-.61,0-1.22,0-1.83,0-.29,0-.58-.04-.87-.02-.17-.1-.34-.21-.45-.16-.16-.38-.22-.58-.2-.34.03-.64.29-.79.63-.1.22-.12.48-.14.72-.03.42-.01.85-.02,1.27,0,.24,0,.48,0,.73-.14,0-.27,0-.41,0,0-.54,0-1.08,0-1.62,0-.29,0-.57-.02-.86-.01-.16-.03-.33-.11-.47-.1-.22-.3-.36-.51-.39-.25-.04-.52.06-.71.24-.2.18-.32.45-.37.73-.08.46-.05.93-.06,1.39v.97c-.14,0-.27,0-.41,0,0-1.24,0-2.48,0-3.72h.41v.64c.14-.23.31-.45.53-.57Z"/>
        <path class="cls-9" d="m184.65,143.19c.31-.18.66-.22,1-.17.29.04.57.17.79.39.21.2.39.46.49.76.09.26.13.55.13.83-.96,0-1.93,0-2.89,0,0,.31.07.62.23.88.16.26.39.47.65.55.36.11.75.03,1.07-.2.21-.15.36-.4.49-.65.12.07.23.14.35.21-.13.29-.3.57-.53.76-.23.2-.52.32-.81.35-.36.04-.73-.02-1.05-.23-.25-.16-.44-.42-.59-.7-.32-.62-.31-1.45.02-2.06.16-.3.38-.56.66-.72Zm.02.54c-.24.2-.38.53-.46.85.8,0,1.59,0,2.39,0-.05-.24-.14-.48-.28-.67-.41-.51-1.16-.61-1.65-.18Z"/>
        <path class="cls-9" d="m171.98,143.86c0-.23,0-.47,0-.7.4,0,.79,0,1.19,0,0,1.22,0,2.44,0,3.66-.26,0-.52,0-.77,0,0-.99,0-1.97,0-2.96-.14,0-.28,0-.42,0Z"/>
        <path class="cls-9" d="m192,143.16h1c0,1.22,0,2.44,0,3.66-.19,0-.37,0-.56,0,0-1.04,0-2.08,0-3.11-.14,0-.29,0-.43,0,0-.18,0-.36,0-.55Z"/>
      </g>
      <path class="cls-9" d="m195.38,143.02c.31-.05.64-.01.93.14.27.14.5.38.64.68.2.41.25.9.19,1.36-.08.6-.43,1.12-.88,1.43-.36.25-.8.32-1.22.26-.3-.04-.59-.19-.81-.44-.23-.25-.37-.6-.41-.96-.04-.41,0-.83.13-1.21.12-.32.32-.6.55-.82.25-.24.55-.4.87-.45Zm-.03.87c-.18.04-.34.15-.46.32-.16.23-.27.51-.29.81-.01.19,0,.39.07.56.08.19.22.35.39.43.16.07.33.07.5.05.19-.03.38-.13.51-.29.17-.22.29-.5.31-.8.02-.2,0-.41-.07-.59-.08-.21-.25-.38-.44-.45-.17-.06-.35-.06-.52-.02Z"/>
    </g>
    <text class="cls-12" transform="translate(226.67 439.03) rotate(-55.33) scale(.81 1) skewX(-.18)"><tspan x="0" y="0">S</tspan><tspan class="cls-22" x="5.15" y="0">K</tspan><tspan class="cls-14" x="10.92" y="0">AR</tspan><tspan class="cls-5" x="22.94" y="0">R</tspan><tspan x="28.62" y="0">A</tspan></text>
    <text class="cls-13" transform="translate(244.63 476.3) rotate(-58.32) scale(.76 1) skewX(-.19)"><tspan x="0" y="0">HESBU</tspan><tspan class="cls-19" x="37.48" y="0">R</tspan><tspan x="44.66" y="0">GER</tspan></text>
  </g>
  <polygon id="Galleria_Stara_Zagora3.002_S3.02" data-name="Galleria Stara Zagora3.002^S3.02" class="cls-2" points="382.59 11.4 178.06 11.4 147.43 69.69 175.9 84.45 175.9 96.98 382.59 96.98 382.59 11.4"/>
  <polygon id="Galleria_Stara_Zagora3.046" data-name="Galleria Stara Zagora3.046" class="cls-2" points="215.82 115.95 184.21 115.95 159.59 164.05 184.21 177.43 215.82 115.95"/>
  <polygon id="Galleria_Stara_Zagora3.044" data-name="Galleria Stara Zagora3.044" class="cls-2" points="183.74 178.71 163.41 218.19 142.83 206.67 163.67 167.96 183.74 178.71"/>
  <polygon id="Galleria_Stara_Zagora3.042" data-name="Galleria Stara Zagora3.042" class="cls-2" points="162.7 219.46 119.23 303.52 110.91 314.35 76.65 287.98 30.83 287.68 90.06 176.07 110.91 186.5 108.85 190 162.7 219.46"/>
  <polygon id="Galleria_Stara_ZagoraNFC8" data-name="Galleria Stara ZagoraNFC8" class="cls-2" points="127.48 320.32 101.11 354.94 112.46 363.63 93.3 390.01 142.69 425.08 187.23 361.24 127.48 320.32"/>
  <polygon id="Galleria_Stara_ZagoraNFC7" data-name="Galleria Stara ZagoraNFC7" class="cls-2" points="187.93 362.24 213.6 378.81 170.72 444.16 143.84 426.03 187.93 362.24"/>
  <polygon id="Galleria_Stara_ZagoraNFC6" data-name="Galleria Stara ZagoraNFC6" class="cls-2" points="214.62 379.99 236.52 393.82 194.07 459.77 171.83 444.82 214.62 379.99"/>
  <polygon id="Galleria_Stara_ZagoraNFC5" data-name="Galleria Stara ZagoraNFC5" class="cls-2" points="237.8 394.65 257.88 407.22 229.81 450.81 217.58 443.21 203.54 465.74 195.33 460.44 237.8 394.65"/>
  <polygon id="Galleria_Stara_ZagoraNFC4" data-name="Galleria Stara ZagoraNFC4" class="cls-2" points="259.21 408.35 230.11 452.78 218.25 445.2 204.69 467.01 262.74 503.53 276.37 481.21 261.34 471.93 288.92 426.41 259.21 408.35"/>
  <polyline id="Galleria_Stara_ZagoraNFC3" data-name="Galleria Stara ZagoraNFC3" class="cls-2" points="290.09 427.31 263.33 471.56 278.31 480.55 263.77 504.51 275.41 511.2 315.93 443.21 289.81 427.31"/>
  <polygon id="Galleria_Stara_ZagoraNFC2" data-name="Galleria Stara ZagoraNFC2" class="cls-2" points="316.68 443.77 276.84 512.02 294.54 522.63 334.46 453.98 316.68 443.77"/>
  <polygon id="Galleria_Stara_ZagoraNFC1" data-name="Galleria Stara ZagoraNFC1" class="cls-2" points="335.64 454.86 304.39 508.97 333.62 524.84 363.07 470.61 335.64 454.86"/>
  <polygon id="Galleria_Stara_ZagoraNFC10_S3.04" data-name="Galleria Stara ZagoraNFC10^S3.04" class="cls-2" points="364.12 471.88 343.77 509.65 366.92 522.32 387.72 484.68 364.12 471.88"/>
  <polygon id="Galleria_Stara_ZagoraN3.024" data-name="Galleria Stara ZagoraN3.024" class="cls-1" points="389.08 485.71 368.08 522.63 404.6 542.71 424.57 505.43 389.08 485.71"/>
  <path id="Galleria_Stara_Zagora3.022" data-name="Galleria Stara Zagora3.022" class="cls-1" d="m438.8,515.46l-41.49,78.86c79.89,40.7,143.91,69.51,159.77,74.66v-112.03l-10.63-5.31-18.86,7.11-88.8-43.29Z"/>
  <path id="Galleria_Stara_Zagora3.021" data-name="Galleria Stara Zagora3.021" class="cls-1" d="m558.45,557.71v108.69c20.14-37.37,34.97-41.91,55.89-47.31v-45.94h-24.09l-31.8-15.43Z"/>
  <path id="Galleria_Stara_Zagora3.020" data-name="Galleria Stara Zagora3.020" class="cls-1" d="m808.9,264.41v493.96s-171.55-55.85-174.72-59.12V249.03h67.32v15.76l107.4-.38Z"/>
  <polygon id="Galleria_Stara_Zagora3.018" data-name="Galleria Stara Zagora3.018" class="cls-1" points="634.18 247.25 634.18 204.52 694.96 204.52 694.96 234.85 735.01 234.85 735.01 247.25 634.18 247.25"/>
  <polygon id="Galleria_Stara_Zagora3.016" data-name="Galleria Stara Zagora3.016" class="cls-1" points="808.77 11.38 633.39 11.38 633.39 92.78 567.06 92.78 567.06 11.38 462.46 11.38 462.46 59.86 402.08 59.86 402.08 98.37 540.69 98.37 631.21 177.85 631.21 185.98 735.01 185.98 735.01 122.52 750.28 122.52 750.28 115.19 808.77 115.19 808.77 11.38"/>
  <polygon id="Galleria_Stara_Zagora3.030" data-name="Galleria Stara Zagora3.030" class="cls-1" points="554.21 235.16 554.21 387.38 538.66 387.38 538.66 385.81 513.97 385.81 513.97 371.27 436.2 371.27 436.2 321.73 442.28 321.73 442.28 297.72 451.75 297.72 451.75 235.16 554.21 235.16"/>
  <polygon id="Galleria_Stara_ZagoraS3.03" data-name="Galleria Stara ZagoraS3.03" class="cls-2" points="146.58 71.46 136.35 91.02 168.58 107.69 174.14 96.57 173.69 85.02 146.58 71.46"/>
</svg>