<?xml version="1.0" encoding="UTF-8"?>
<svg id="Layer_4" data-name="Layer 4" xmlns="http://www.w3.org/2000/svg" viewBox="0 0 820.08 794.61">
  <defs>
    <style>
      .cls-1, .cls-2, .cls-3, .cls-4, .cls-5 {
        fill: none;
        stroke-miterlimit: 10;
      }

      .cls-1, .cls-3, .cls-4, .cls-5 {
        stroke: #231f20;
      }

      .cls-1, .cls-4 {
        stroke-width: 2px;
      }

      .cls-2 {
        stroke: #000;
      }

      .cls-6 {
        fill: #f47725;
      }

      .cls-3, .cls-4, .cls-7 {
        fill-rule: evenodd;
      }

      .cls-8 {
        font-size: 8.22px;
      }

      .cls-8, .cls-9, .cls-10, .cls-11, .cls-12, .cls-13, .cls-14, .cls-15, .cls-16, .cls-17, .cls-18, .cls-7, .cls-19, .cls-20, .cls-21 {
        fill: #231f20;
      }

      .cls-8, .cls-10, .cls-11, .cls-12, .cls-13, .cls-14, .cls-15, .cls-16, .cls-17, .cls-18, .cls-19, .cls-20, .cls-21 {
        font-family: Swiss721BT-Black, 'Swis721 Blk BT';
        font-weight: 800;
      }

      .cls-22 {
        fill: #f1f2f2;
      }

      .cls-23 {
        letter-spacing: -.12em;
      }

      .cls-24 {
        letter-spacing: -.05em;
      }

      .cls-10 {
        font-size: 9.24px;
      }

      .cls-11 {
        font-size: 19.13px;
      }

      .cls-12 {
        font-size: 11.02px;
      }

      .cls-25 {
        letter-spacing: .02em;
      }

      .cls-26 {
        letter-spacing: .02em;
      }

      .cls-13 {
        font-size: 9.71px;
      }

      .cls-14 {
        font-size: 16.69px;
      }

      .cls-15 {
        font-size: 17.33px;
      }

      .cls-16 {
        font-size: 21.33px;
      }

      .cls-17 {
        font-size: 31.48px;
      }

      .cls-18, .cls-27 {
        font-size: 13.96px;
      }

      .cls-19 {
        font-size: 24.37px;
      }

      .cls-28 {
        letter-spacing: -.02em;
      }

      .cls-29 {
        letter-spacing: 0em;
      }

      .cls-30 {
        letter-spacing: -.12em;
      }

      .cls-31 {
        font-size: 18px;
        letter-spacing: 0em;
      }

      .cls-21 {
        font-size: 6.77px;
      }
    </style>
  </defs>
  <g id="cladire">
    <g>
      <path class="cls-22" d="M808.5,785.47c-19.35-6.46-37.5-12.43-55.05-18.21-14.88-4.89-30.26-9.96-46.56-15.38-25.49-8.48-53.57-18.3-75.12-26.28-77.54-28.71-152.57-61.62-223.01-97.83-124.59-64.04-236.58-137.27-332.83-217.65-.86-.72-2.77-2.27-5.43-4.43-8.75-7.11-25.04-20.35-39.07-32.4-7.86-6.75-13.96-12.23-18.14-16.29-6.26-6.09-9.9-10.1-7.63-14.35.29-.54,168.92-316.92,168.92-316.92h640.5v761.94l-6.58-2.2Z"/>
      <path class="cls-22" d="M810.08,30.73v750c-35.64-11.9-65.96-21.73-101.61-33.59-23.3-7.75-51.91-17.69-74.96-26.22-75.98-28.13-150.43-60.57-222.46-97.59-117.48-60.39-230.49-132.35-331.91-217.04-6.49-5.42-71.26-57.15-69.06-61.29,0,0,167.5-314.27,167.5-314.27h632.5M820.08,20.73H171.59l-2.82,5.3C167.09,29.16,1.57,339.71,1.26,340.3c-2.3,4.32-1.45,8.99,2.54,13.9,1.39,1.71,3.36,3.8,6.02,6.39,4.25,4.13,10.42,9.68,18.36,16.49,14.08,12.09,30.4,25.36,39.17,32.49,2.65,2.15,4.56,3.71,5.38,4.4,96.54,80.62,208.83,154.05,333.75,218.26,70.62,36.3,145.83,69.29,223.56,98.07,21.57,7.99,49.72,17.83,75.28,26.33,16.32,5.43,31.72,10.49,46.61,15.39,17.53,5.77,35.66,11.73,54.99,18.19l13.17,4.4V20.73h0Z"/>
      <path class="cls-1" d="M633.51,720.92c23.05,8.53,51.66,18.47,74.96,26.22,35.66,11.86,65.97,21.68,101.61,33.59V30.73H177.59S10.09,344.99,10.08,345c-2.2,4.14,62.57,55.87,69.06,61.29,101.42,84.69,214.44,156.66,331.91,217.04,72.02,37.02,146.48,69.46,222.46,97.59Z"/>
    </g>
  </g>
  <g id="magazine">
    <polyline class="cls-5" points="571.49 30.73 571.49 122.03 403.87 122.03 403.87 82.94 484.95 82.94 484.95 30.73"/>
    <polyline class="cls-5" points="134.72 111.17 188.92 138.52 164.34 185.13 192.7 199.86 231.23 125.88 387.79 125.88 387.79 81.49 387.79 80.18 372.27 80.18 372.27 30.73"/>
    <polyline class="cls-5" points="188.92 138.52 191.57 133.34 219.61 148.19"/>
    <line class="cls-5" x1="331.12" y1="30.73" x2="331.12" y2="125.88"/>
    <line class="cls-5" x1="484.81" y1="82.94" x2="484.81" y2="122.03"/>
    <line class="cls-5" x1="532" y1="122.03" x2="532" y2="30.73"/>
    <line class="cls-5" x1="191.28" y1="387.2" x2="143.07" y2="456.9"/>
    <polyline class="cls-5" points="399.82 617.05 423.62 568.34 384.36 547.64 401.48 515.56 530.54 579.41 631.98 543.31 632.3 505.66 759.95 505.66 759.95 568.45 809.84 568.45"/>
    <polyline class="cls-5" points="541.39 575.55 541.39 671.47 541.39 673.57 541.39 684.35"/>
    <polyline class="cls-5" points="810.08 407.98 798.24 407.98 798.24 295.94 766.09 295.94 766.09 283.59 752.16 283.59 752.16 256.17 688.7 256.17 688.7 224.53 633.51 224.53 633.51 489.78 775.48 489.78 775.48 506.02"/>
    <polyline class="cls-5" points="775.48 506.02 799.12 506.02 810.08 506.02"/>
    <polyline class="cls-5" points="633.51 355.77 797.2 355.77 798.24 355.77"/>
    <line class="cls-5" x1="798.24" y1="407.98" x2="633.51" y2="407.98"/>
    <polyline class="cls-5" points="704.12 30.73 704.12 97.97 734.82 97.97 734.82 212.86 632.22 212.86 633.03 30.73"/>
    <polyline class="cls-5" points="703.39 76.38 655.79 76.38 655.79 82.58 632.81 82.58"/>
    <polyline class="cls-5" points="632.6 131.32 674.47 131.32 674.47 212.63"/>
    <path class="cls-3" d="M221.19,284.44l46.6-90.82h292.06v300.74l-22.64,8.42c-113.87-58.69-223.32-122.23-327.9-191.15h43.59v11.79h36.25v8.42h50.34v-76.39h-53.35v28.99h-64.95Z"/>
    <line class="cls-5" x1="296.98" y1="255.44" x2="296.98" y2="193.61"/>
    <line class="cls-5" x1="339.49" y1="255.44" x2="339.49" y2="193.61"/>
    <line class="cls-5" x1="339.49" y1="331.83" x2="339.49" y2="360.23"/>
    <line class="cls-5" x1="289.15" y1="331.83" x2="289.15" y2="362.26"/>
    <polyline class="cls-3" points="339.49 360.46 387.29 360.46 387.29 395.71 387.29 414.6 384.29 419.44"/>
    <polyline class="cls-3" points="485.51 193.61 485.51 324.07 559.85 324.07"/>
    <polyline class="cls-3" points="485.51 361.42 437.03 361.42 437.03 449.63"/>
    <polyline class="cls-3" points="436.74 409.78 487.36 409.78 487.36 476.61"/>
    <line class="cls-5" x1="487.36" y1="409.78" x2="559.85" y2="409.78"/>
    <line class="cls-5" x1="437.03" y1="409.78" x2="387.29" y2="409.78"/>
    <line class="cls-5" x1="286.14" y1="284.43" x2="286.14" y2="323.41"/>
    <polyline class="cls-5" points="356.51 532.88 328.77 516.45 345.69 484.02"/>
    <line class="cls-5" x1="252.91" y1="323.41" x2="242.82" y2="333.5"/>
    <polyline class="cls-5" points="332.92 579.44 356.47 533.56 371.92 541.36 390.12 506.95 367.18 494.87 347.91 484.77 335.98 478.5 318.85 468.71 302.79 459.39 281.23 446.23 265.63 436.6 252.33 428.19 237.8 418.86 226.33 411.06 215.93 404.33 202.62 394.85 182.86 381.24 152.02 360.1 132.27 343.82 119.11 333.77 182.52 219.42 155.84 203.83 151.68 211.1 117.72 191.35 111.83 201.4 92.42 189.97"/>
    <polyline class="cls-5" points="26.54 314.7 102.17 372.81 93.41 382.36 84.65 374.4 67.42 396.69"/>
  </g>
  <g id="logo">
    <g>
      <path class="cls-9" d="M738.28,591.12c-2.13.95-3.78-.04-6.38,5.29-8.16,16.75-14.51,30.35-22.07,49.91.22-16.07,3.09-28.85,4.81-44.5.32-2.88.76-6.86.69-9.85-.05-2.3-2.35-2.61-6.98-.33-2.57,1.27-5.67,1.16-6.85,4.22-5.03,13.01-16.65,49.19-22.04,69.65-1.29,4.92,3.58,5.74,5.04.69,3.55-12.19,11.65-39.17,16.48-53.06-.49,12.72-3.96,32.83-2.34,43.38.51,3.32,3.61,4.75,5.2,7.56,1.13,2,2.96,2.2,3.96-.53,4.72-12.86,13.91-35.56,22.78-53.71-1.74,7.99-8.41,41.9-10.26,55.41-.37,2.71,2.95,2.78,5.91,6.86.66.92,3.21,1.91,3.67-.43,1.58-8.1,11.87-60.75,15.9-77.47,1.08-4.51.77-6.78-7.53-3.08Z"/>
      <path class="cls-9" d="M670.95,629.37c3.55-5.28,4.57-4.21,5.42-5.82,1.07-2.01.36-3.91-3.43-3.44,0,0-1.43.1-4.07.4,4.2-10.8,7.87-19.97,10.52-26.94.9-2.36,1.02-4.09-.45-4.45-1.57-.38-6.11,2.07-8.89,2.55-.89.15-1.74,1.1-2.03,1.76-4.47,10.25-8.47,20.02-11.93,28.92-4.44.76-9.63,1.75-15.43,3.05,4.15-10.65,8.35-21.16,12.45-31.28,2.02-4.97-3.29-5.44-5.35-.4-2.67,6.55-7.69,18.82-13.23,33.12-4.08,1-8.4,2.14-12.92,3.44-3.28.95-3.42,1.82-2,3.79.79,1.1,2.41.99,3.15,1.77,1.92,2.02,3.08,4.44,6.51,4.81-3.06,8.17-6.12,16.59-8.89,24.71-1.74,5.09,3.21,6.13,5.12.75,3.07-8.68,6.3-17.48,9.62-26.24,2.77-.64,9.46-2.08,15.65-3.43-4.91,13.44-8.14,23.65-9.36,28.62-.23.96.16,1.49.36,1.88,1.65,2.41,3.23,2.51,5.36,5.49.58.81,2.51,1.25,3.18-.75,4.55-13.73,9.22-26.61,13.59-38.16,1.81-.4,5.07-1.18,7.07-4.16Z"/>
      <path class="cls-9" d="M674.31,650.34c-.32.28-.65.59-.99.92-.39-1.18-.77-2.38-1.13-3.51,1.07-1.31,2.1-2.6,2.98-3.97,3.65-5.68-3.57-8.96-6.68-5.27-1.66,1.97-1.25,3.9-.79,5.56.14.51.36,1.25.63,2.12-.89.91-1.95,2.05-3.37,3.69-3.53,4.09-2.57,9.41,1.21,10.58,2.29.71,4.44-.32,6.3-1.97.09.24.19.47.27.69.99,2.47,4.04,1.72,2.88-1.26-.2-.52-.46-1.22-.74-2.03.6-.76,1.15-1.53,1.63-2.25,2.25-3.33.08-5.29-2.2-3.32ZM671.92,642.52c-.34.39-.67.73-.99,1.06-.08-.29-.16-.55-.21-.78-1.05-3.97,3.5-2.88,1.2-.29ZM669.45,654.6c-1.38.84-2.48-.06-.62-2.61.31-.43.63-.84.95-1.25.31.96.65,1.95.97,2.92-.43.36-.87.68-1.3.95Z"/>
    </g>
    <g>
      <polygon class="cls-9" points="69.01 265.36 72.85 266.94 77.31 274.5 77.31 268.32 80.48 269.13 80.48 280.91 77.58 280.91 72.35 272.2 72.35 280.91 69.01 280.91 69.01 265.36 69.01 265.36"/>
      <polygon class="cls-9" points="81.86 269.45 81.86 280.91 89.24 280.91 89.24 278.23 85.24 278.23 85.24 276.42 88.47 276.46 88.47 274.39 85.24 274.12 85.24 272.66 88.55 273.01 88.55 270.55 81.86 269.45 81.86 269.45"/>
      <polygon class="cls-9" points="89.31 270.66 91.58 280.91 94.42 280.91 96.34 275.5 97.73 280.91 100.52 280.91 102.99 272.08 100.29 271.93 99.03 276.42 97.81 271.66 95.15 271.43 93.42 276.46 92.36 271.1 89.31 270.66 89.31 270.66"/>
      <polygon class="cls-9" points="105.96 280.91 107.81 280.91 107.81 272.24 113.5 263.9 109.38 263.9 105.96 269.57 102.54 263.9 98.43 263.9 104.12 272.24 104.12 280.91 105.96 280.91 105.96 280.91"/>
      <path class="cls-9" d="M112.97,271.67l-2.77.18-1.34,1.25v1.41s0,4.96,0,4.96l1.38,1.43h2.68s1.31-1.46,1.31-1.46v-6.58s-1.25-1.21-1.25-1.21h0ZM112.28,279.19h-1.4v-5.34h1.4s0,5.34,0,5.34h0Z"/>
      <path class="cls-9" d="M120.46,272.19l-1.02-1.04-4.35.41v9.34h2.14v-3.76s1.17,0,1.17,0v3.76h2.06s0-4.24,0-4.24l-.67-.75.67-.79v-2.94h0ZM118.41,275.17h-1.17v-2.06h1.17v2.06h0Z"/>
      <polygon class="cls-9" points="121.54 270.81 121.54 280.91 124.11 280.91 124.11 276.74 126.19 280.91 128.88 280.91 125.97 275.01 128.53 269.7 125.84 270.18 124.11 273.61 124.11 270.46 121.54 270.81 121.54 270.81"/>
      <polygon class="cls-9" points="129.04 269.62 134.42 268.37 134.42 270.75 131.96 271.35 131.96 273.08 134.4 272.77 134.4 275.53 131.96 275.73 131.96 278.14 134.56 278.14 134.56 280.91 129.04 280.91 129.04 269.62 129.04 269.62"/>
      <path class="cls-7" d="M138.32,272.58v-2.79l1.73-.47v3.05l-1.73.21h0ZM135.55,280.91h2.77v-5.47l1.73-.1v5.57h2.94s0-5.95,0-5.95l-.98-1.34.9-1.44v-4.69l-1.25-1.44-6.11,2.02v2.85s0,10,0,10h0Z"/>
    </g>
    <g>
      <rect class="cls-9" x="423.29" y="274.07" width="4.03" height="15.96"/>
      <polygon class="cls-9" points="408.59 274.23 403.5 290.03 399.04 290.03 395.62 279.43 392.21 290.03 387.75 290.03 382.66 274.23 386.76 274.23 389.98 284.24 393.2 274.23 398.05 274.23 401.27 284.24 404.49 274.23 408.59 274.23"/>
      <polygon class="cls-9" points="351.41 274.07 355.44 274.07 355.44 286.54 362.75 286.54 362.75 290.03 355.44 290.03 351.41 290.03 351.41 286.54 351.41 274.07"/>
      <polygon class="cls-9" points="433.53 282.72 433.53 290.03 429.5 290.03 429.5 274.07 433.53 274.07 433.53 280.17 438.16 274.07 443.39 274.07 437.79 281.43 444.16 290.03 438.93 290.03 433.53 282.72"/>
      <rect class="cls-9" x="444.7" y="274.07" width="4.03" height="15.96"/>
      <polygon class="cls-9" points="454.73 282.72 454.73 290.03 450.7 290.03 450.7 274.07 454.73 274.07 454.73 280.17 459.37 274.07 464.59 274.07 459 281.43 465.36 290.03 460.13 290.03 454.73 282.72"/>
      <rect class="cls-9" x="466.17" y="274.07" width="4.03" height="15.96"/>
      <path class="cls-7" d="M362.61,281.29c0-4.2,3.41-7.6,7.61-7.6h1.9c3.43,0,6.34,2.27,7.28,5.4h-4.12c-.77-1.42-2.28-2.38-4.01-2.38h-.06c-2.52,0-4.56,2.04-4.56,4.56v1.67c0,2.52,2.04,4.56,4.56,4.56h.06c1.73,0,3.24-.96,4.01-2.38h4.12c-.94,3.12-3.85,5.4-7.28,5.4h-1.9c-4.2,0-7.61-3.4-7.61-7.6v-1.63Z"/>
      <path class="cls-7" d="M408.96,274.99s5.73-2.8,10.33-.05c0,0,2.25,1.43,2.2,5.61l.05,9.65h-3.63s0-7.36,0-7.36c0,0-6.34-.56-6.49,2.25-.15,2.81,2.51,2.45,2.51,2.45,0,0,2.25-.25,3.06-1.74v3.11s-1.89,1.89-4.65,1.68-4.29-2.2-4.29-2.2c0,0-1.43-1.73-.46-4.64.97-2.91,4.6-3.32,4.6-3.32,0,0,1.48-.26,5.16-.21,0,0,.31-2.5-1.33-3.01-1.63-.51-4.09-.1-4.09-.1,0,0-2.25.56-3.94,1.79l.97-3.93Z"/>
    </g>
    <text class="cls-15" transform="translate(640.18 62.27) scale(.85 1)"><tspan x="0" y="0">SUBRA</tspan></text>
    <text class="cls-8" transform="translate(539.19 82.84) scale(.74 1)"><tspan x="0" y="0">YE</tspan><tspan class="cls-26" x="11.78" y="0">T</tspan><tspan x="17.43" y="0">TEL</tspan></text>
    <text class="cls-15" transform="translate(411.02 109.06) scale(.85 1)"><tspan x="0" y="0">SE</tspan><tspan class="cls-25" x="24.43" y="0">S</tspan><tspan x="37.11" y="0">SI</tspan><tspan class="cls-30" x="56.06" y="0">L</tspan><tspan class="cls-29" x="65.08" y="0">Y</tspan></text>
    <g>
      <path class="cls-9" d="M180.16,161.96h1.44c.04.2.11.34.22.42s.26.13.47.13c.17,0,.31-.04.41-.1s.15-.17.15-.29c0-.2-.21-.36-.62-.48-.08-.02-.15-.04-.19-.06-.34-.1-.61-.2-.81-.28-.2-.08-.35-.16-.44-.24-.18-.15-.31-.33-.4-.54-.09-.21-.13-.45-.13-.71,0-.54.17-.96.52-1.27.34-.31.82-.46,1.42-.46s1.06.15,1.4.44c.34.29.53.71.58,1.26h-1.41c-.02-.16-.08-.28-.18-.36s-.24-.12-.42-.12c-.16,0-.28.03-.35.09-.08.06-.12.15-.12.28,0,.18.2.33.61.45.04.01.06.02.08.03.06.02.15.04.27.08.54.16.89.3,1.05.43.2.16.35.34.45.55.09.2.14.44.14.72,0,.6-.18,1.06-.53,1.38-.36.32-.87.48-1.53.48-.61,0-1.1-.16-1.46-.48-.36-.32-.56-.77-.6-1.36Z"/>
      <path class="cls-9" d="M184.98,163.64v-5.42h1.51v5.42h-1.51Z"/>
      <path class="cls-9" d="M187.4,163.64v-5.42h1.48v3.98h2.02v1.44h-3.5Z"/>
      <path class="cls-9" d="M190.6,158.22h1.52l.78,3.5.83-3.5h1.46l-1.56,5.42h-1.48l-1.56-5.42Z"/>
      <path class="cls-9" d="M195.68,163.64v-5.42h3.69v1.3h-2.21v.72h1.87v1.24h-1.87v.84h2.3v1.32h-3.78Z"/>
      <path class="cls-9" d="M200.16,163.64v-5.42h2.21c.69,0,1.19.12,1.48.36.3.24.44.64.44,1.2,0,.33-.06.61-.18.82-.12.22-.31.39-.56.52.26.06.44.19.56.38.12.19.18.46.19.83l.02.75s0,.01,0,.02c0,.22.05.33.13.34v.2h-1.5c-.03-.13-.05-.24-.06-.34-.01-.1-.02-.17-.02-.23v-.54c0-.28-.05-.48-.14-.59-.09-.11-.26-.17-.49-.17h-.63v1.87h-1.46ZM201.62,160.55h.67c.24,0,.4-.04.49-.11.09-.08.13-.21.13-.39s-.04-.32-.13-.4c-.09-.07-.27-.11-.53-.11h-.64v1.02Z"/>
      <path class="cls-9" d="M183.36,169.08h1.4c-.04.71-.26,1.27-.64,1.66s-.91.59-1.57.59c-.74,0-1.32-.25-1.75-.76-.42-.51-.64-1.21-.64-2.09s.21-1.58.63-2.09c.42-.51.99-.77,1.72-.77.67,0,1.19.19,1.58.57.38.38.6.92.64,1.63h-1.42c-.02-.28-.1-.49-.23-.63-.13-.14-.32-.21-.56-.21-.29,0-.51.12-.65.37-.15.25-.22.63-.22,1.13s.08.87.23,1.12.38.38.68.38c.23,0,.41-.08.55-.23.13-.15.21-.38.24-.66Z"/>
      <path class="cls-9" d="M185.2,168.48c0-.88.21-1.58.64-2.09.43-.51,1.02-.77,1.76-.77s1.32.26,1.75.77c.43.51.64,1.21.64,2.09s-.21,1.58-.64,2.09c-.43.51-1.01.77-1.75.77s-1.33-.26-1.76-.77c-.43-.51-.64-1.21-.64-2.09ZM186.69,168.48c0,.51.07.89.22,1.13.15.24.38.36.69.36s.54-.12.68-.36.22-.62.22-1.13-.07-.9-.22-1.14-.37-.36-.68-.36-.54.12-.69.36c-.15.24-.22.62-.22,1.13Z"/>
      <path class="cls-9" d="M190.66,165.76h1.48v3.34c0,.31.05.53.16.66s.29.2.55.2.43-.06.54-.19c.11-.13.16-.35.16-.67v-3.34h1.48v3.48c0,.68-.19,1.2-.56,1.56s-.91.54-1.62.54-1.26-.18-1.63-.54c-.38-.36-.56-.88-.56-1.56v-3.48Z"/>
      <path class="cls-9" d="M195.9,171.19v-5.42h2.21c.69,0,1.19.12,1.48.36.3.24.44.64.44,1.2,0,.33-.06.61-.18.82-.12.22-.31.39-.56.52.26.06.44.19.56.38.12.19.18.46.19.83l.02.75s0,.01,0,.02c0,.22.05.33.13.34v.2h-1.5c-.03-.13-.05-.24-.06-.34-.01-.1-.02-.17-.02-.23v-.54c0-.28-.05-.48-.14-.59-.09-.11-.26-.17-.49-.17h-.63v1.87h-1.46ZM197.37,168.09h.67c.24,0,.4-.04.49-.11.09-.08.13-.21.13-.39s-.04-.32-.13-.4c-.09-.07-.27-.11-.53-.11h-.64v1.02Z"/>
      <path class="cls-9" d="M201.77,171.19v-4h-1.33v-1.43h4.14v1.43h-1.33v4h-1.48Z"/>
    </g>
    <text class="cls-13" transform="translate(248.8 244.5) scale(.85 1)"><tspan x="0" y="0">LAZARINI</tspan></text>
    <text class="cls-10" transform="translate(441.96 438.28) scale(1.11 1)"><tspan x="0" y="0">EVELIN</tspan></text>
    <text class="cls-19" transform="translate(487.9 384.74) scale(.77 1)"><tspan x="0" y="0">FLAIR</tspan></text>
    <g>
      <path class="cls-9" d="M325.71,371.1v-1.25l2.04-2.6h-1.98v-1.34h3.72v1.24l-2.07,2.62h2.18v1.33h-3.9Z"/>
      <path class="cls-9" d="M330.25,371.1v-5.19h1.42v3.81h1.93v1.38h-3.35Z"/>
      <path class="cls-9" d="M333.74,371.1l1.55-5.19h1.44l1.55,5.19h-1.41l-.16-.69h-1.41l-.17.69h-1.39ZM335.56,369.32h.89l-.44-1.8-.45,1.8Z"/>
      <path class="cls-9" d="M339.39,371.1v-3.82h-1.27v-1.37h3.96v1.37h-1.27v3.82h-1.42Z"/>
      <path class="cls-9" d="M342.54,371.1v-5.19h1.35l1.24,2.41c.04.07.08.16.12.29.04.12.09.27.14.45-.01-.09-.02-.19-.03-.3,0-.11,0-.24,0-.4v-2.45h1.35v5.19h-1.35l-1.24-2.39c-.04-.07-.08-.17-.12-.3-.04-.13-.09-.28-.14-.44.01.09.02.19.03.29,0,.1,0,.24,0,.42v2.43h-1.35Z"/>
      <path class="cls-9" d="M347.11,371.1l1.55-5.19h1.44l1.55,5.19h-1.41l-.16-.69h-1.41l-.17.69h-1.39ZM348.93,369.32h.89l-.44-1.8-.45,1.8Z"/>
      <path class="cls-9" d="M328.52,378.31v-5.19h2.11c.66,0,1.13.12,1.42.35s.42.61.42,1.14c0,.32-.06.58-.17.79-.12.21-.29.37-.54.5.25.06.42.18.54.36.11.18.17.44.18.79l.02.72s0,.01,0,.02c0,.21.05.31.13.32v.19h-1.43c-.03-.12-.05-.23-.06-.33-.01-.09-.02-.17-.02-.22v-.52c0-.27-.04-.46-.14-.56-.09-.11-.25-.16-.47-.16h-.6v1.79h-1.4ZM329.92,375.35h.64c.23,0,.38-.04.47-.11.09-.07.13-.2.13-.38s-.04-.31-.13-.38-.25-.11-.5-.11h-.61v.97Z"/>
      <path class="cls-9" d="M333.23,378.31v-5.19h1.44v5.19h-1.44Z"/>
      <path class="cls-9" d="M335.54,378.31v-5.19h1.81c.39,0,.67.01.85.04.18.02.33.06.46.12.22.1.4.25.51.46.12.21.18.46.18.76,0,.23-.04.44-.13.61-.09.18-.22.32-.4.43.23.1.41.25.52.44.11.2.17.45.17.77s-.05.57-.16.8-.27.4-.48.52c-.14.08-.3.14-.48.18-.18.04-.48.05-.89.05h-1.95ZM336.92,375.19h.58c.2,0,.33-.03.41-.1.08-.07.12-.18.12-.35,0-.17-.04-.29-.13-.35-.09-.06-.29-.1-.6-.1h-.39v.89ZM336.92,377.1h.66c.22,0,.37-.04.46-.11.09-.08.14-.2.14-.37s-.05-.29-.14-.37c-.09-.07-.25-.11-.47-.11h-.64v.96Z"/>
      <path class="cls-9" d="M340.2,378.31v-5.19h1.41v1.72l1.27-1.72h1.65l-1.58,1.91,1.78,3.27h-1.69l-1.08-2.08-.35.43v1.65h-1.41Z"/>
      <path class="cls-9" d="M344.5,378.31l1.55-5.19h1.44l1.55,5.19h-1.41l-.16-.69h-1.41l-.17.69h-1.39ZM346.32,376.53h.89l-.44-1.8-.45,1.8Z"/>
    </g>
    <g>
      <path class="cls-9" d="M666.46,452.04c-1.9,0-3.44-1.18-3.44-2.62s1.54-2.62,3.44-2.62,3.44,1.18,3.44,2.62-1.54,2.62-3.44,2.62ZM666.46,447.8c-1.32,0-2.44.74-2.44,1.62s1.12,1.62,2.44,1.62,2.44-.74,2.44-1.62-1.12-1.62-2.44-1.62Z"/>
      <path class="cls-9" d="M666.85,456.34c-.18,0-.29,0-.32,0l-.48-.02.02-5.36.58.1c.06,0,2.04.23,4.89-2.2,2.61-2.23,6.75-2.15,6.93-2.15h.49v5.39l-.55-.05c-.1-.01-2.58-.22-4.72,1.96-2.13,2.17-5.74,2.34-6.83,2.34ZM667.06,452.05v3.28c1.16-.03,4.17-.28,5.9-2.04,1.88-1.91,4-2.23,4.99-2.26v-3.33c-1.12.05-3.94.34-5.76,1.9-2.35,2.01-4.22,2.39-5.12,2.44Z"/>
      <path class="cls-7" d="M681.35,448.12c0-.55.45-.92,1.15-.92s1.15.37,1.15.92v6.56c0,.55-.45.92-1.15.92s-1.15-.37-1.15-.92v-6.56h0Z"/>
      <path class="cls-7" d="M685.88,448.28c0-.77.46-1.08,1.44-1.08.48,0,.9.15,1.15.48l4.02,5.22h.03v-4.81c0-.6.42-.89,1.11-.89s1.11.29,1.11.89v6.36c0,.73-.39,1.15-1.36,1.15-.73,0-.97-.12-1.26-.5l-4-5.07h-.03v4.68c0,.6-.42.89-1.11.89s-1.11-.29-1.11-.89v-6.43h0Z"/>
      <path class="cls-7" d="M699.02,448.9h-2.17c-.66,0-1.19-.27-1.19-.78s.53-.78,1.19-.78h6.65c.66,0,1.19.27,1.19.78s-.53.78-1.19.78h-2.17v5.78c0,.55-.45.92-1.15.92s-1.15-.37-1.15-.92v-5.78h0Z"/>
      <path class="cls-7" d="M705.55,448.43c0-.82.53-1.08,1.35-1.08h5.4c.67,0,1.16.16,1.16.74s-.49.74-1.16.74h-4.45v1.76h3.9c.6,0,1.08.14,1.08.71s-.48.71-1.08.71h-3.9v1.96h4.56c.67,0,1.16.16,1.16.74s-.49.74-1.16.74h-5.51c-.81,0-1.35-.26-1.35-1.08v-5.95h0Z"/>
      <path class="cls-7" d="M717.68,448.77h2.37c1.01,0,1.67.23,1.67,1.09,0,.91-.87,1.09-1.74,1.09h-2.3v-2.19h0ZM715.38,454.68c0,.55.45.92,1.15.92s1.15-.37,1.15-.92v-2.38h2.27c1.26,0,1.58.57,1.58,1.99,0,.33.1,1.31,1.36,1.31.53,0,1.08-.29,1.08-.72,0-.38-.31-.73-.31-1.67,0-.82-.21-1.51-1.39-1.64v-.02c1.09-.2,1.74-1.07,1.74-1.95,0-1.05-.73-2.25-3.46-2.25h-3.83c-.81,0-1.35.26-1.35,1.08v6.25h0Z"/>
      <path class="cls-7" d="M733.64,449.46c-.86-.24-1.87-.4-2.96-.4-.6,0-1.64.01-1.64.53,0,1.04,5.25.06,5.25,3.15,0,2.15-2.64,2.69-4.86,2.69-1.47,0-2.69-.12-4.12-.38v-2.08c1.03.34,2.29.53,3.43.53.9,0,1.72-.15,1.72-.55,0-1.08-5.25-.1-5.25-3.21,0-2.2,2.86-2.6,5.13-2.6,1.07,0,2.26.1,3.3.28v2.06h0Z"/>
      <path class="cls-7" d="M737.6,449.37h.35c.6,0,1.34.03,1.34.66s-.69.74-1.33.74h-.36v-1.4h0ZM734.09,455.21h3.5v-2.42h1.86c2.03,0,3.31-1.02,3.31-2.67,0-1.99-1.73-2.95-4.06-2.95h-4.61v8.04h0Z"/>
      <path class="cls-7" d="M748,449.69c1.15,0,1.87.71,1.87,1.57,0,.92-.77,1.55-1.87,1.55s-1.87-.63-1.87-1.55c0-.85.72-1.57,1.87-1.57h0ZM748,447.04c-3.04,0-5.54,1.64-5.54,4.17s2.48,4.13,5.54,4.13,5.54-1.55,5.54-4.13-2.5-4.17-5.54-4.17h0Z"/>
      <path class="cls-7" d="M756.98,449.37h.28c.62,0,1.17.07,1.17.69s-.6.67-1.2.67h-.25v-1.37h0ZM753.42,455.21h3.56v-2.58h.07l1.59,2.58h4.2l-2.18-2.61c-.2-.23-.42-.36-.61-.48v-.06c1.36-.36,1.94-.87,1.94-2.09,0-2.03-1.91-2.79-4.17-2.79h-4.4v8.04h0Z"/>
      <polygon class="cls-7" points="761.56 447.17 769.21 447.17 769.21 449.79 767.21 449.71 767.21 455.21 763.57 455.21 763.57 449.71 761.56 449.79 761.56 447.17 761.56 447.17"/>
      <path class="cls-7" d="M771.1,448.53c-.48,0-.83-.28-.83-.67s.36-.67.83-.67.83.28.83.67-.36.67-.83.67h0ZM771.1,448.74c.61,0,1.09-.39,1.09-.88s-.49-.88-1.09-.88-1.09.39-1.09.88.48.88,1.09.88h0ZM771.34,447.92c.2-.01.31-.08.31-.25,0-.24-.18-.28-.44-.28h-.55v.91h.25v-.39h.18l.25.39h.28l-.28-.39h0ZM770.91,447.78v-.23h.25c.11,0,.26,0,.26.09,0,.12-.07.14-.2.14h-.3Z"/>
    </g>
    <g>
      <polygon class="cls-6" points="600.58 11.01 605.12 8.47 605.12 11.55 600.58 14.1 596.04 11.54 596.05 8.45 600.58 11.01"/>
      <polygon class="cls-6" points="600.59 6.79 605.13 4.24 605.13 7.33 600.59 9.87 596.05 7.31 596.06 4.23 600.59 6.79"/>
      <polygon class="cls-6" points="600.6 2.56 605.14 .02 605.14 3.1 600.59 5.64 596.06 3.09 596.06 0 600.6 2.56"/>
    </g>
    <path class="cls-6" d="M321.34,288.71c0-1.22-.99-2.2-2.21-2.2h-14.4c-1.22,0-2.21.99-2.21,2.2v14.39c0,1.22.99,2.2,2.21,2.2h14.4c1.22,0,2.21-.98,2.21-2.2v-14.39ZM316.03,289.29c.61,0,1.1.49,1.1,1.1s-.49,1.1-1.1,1.1-1.1-.49-1.1-1.1.49-1.1,1.1-1.1ZM307.54,289.29c.61,0,1.1.49,1.1,1.1s-.49,1.1-1.1,1.1-1.1-.49-1.1-1.1.49-1.1,1.1-1.1ZM309.73,292.44l-.31,3.68c-.02.23-.17.43-.39.51h0c-.22.09-.37.29-.38.53l-.29,4.77c-.02.32-.29.57-.61.57h-.41c-.32,0-.59-.25-.61-.57l-.29-4.77c-.01-.24-.17-.45-.38-.53-.22-.08-.37-.29-.39-.52l-.3-3.68c-.02-.3.18-.58.48-.65l.3-.07c.21-.05.41.01.56.16l.42.43c.24.23.63.23.86,0l.43-.43c.15-.15.36-.21.56-.16l.31.07c.27.07.47.35.46.65ZM312.08,302.5c0,.16-.13.29-.3.29s-.3-.13-.3-.29v-13.21c0-.16.14-.29.3-.29s.3.13.3.29v13.21ZM318.19,296.63c-.21.05-.34.25-.31.46l.13.94c.03.22-.13.44-.34.46l-.28.03c-.19.03-.34.19-.35.38l-.19,3.03c-.02.32-.29.57-.61.57h-.41c-.32,0-.59-.25-.61-.57l-.19-3.03c-.01-.2-.16-.35-.35-.38l-.28-.03c-.22-.03-.38-.24-.34-.46l.13-.94c.03-.21-.1-.4-.31-.46-.21-.05-.34-.26-.3-.48l.83-3.94c.06-.28.38-.42.62-.26l.78.5c.13.09.31.09.45,0l.78-.5c.24-.15.56-.02.62.26l.83,3.94c.04.21-.1.43-.31.48Z"/>
    <g>
      <g>
        <path class="cls-9" d="M249.5,481.56c.15.38.42.7.8.97.39.26.82.41,1.29.46.47.05.93-.01,1.39-.18.46-.17.87-.43,1.24-.81.28-.31.46-.66.52-1.04.06-.39.01-.77-.15-1.14-.16-.37-.43-.69-.81-.96-.39-.26-.81-.41-1.28-.47-.46-.05-.91-.01-1.34.12-.43.13-.79.35-1.09.65-.35.38-.58.78-.67,1.2-.09.42-.06.82.09,1.2Z"/>
        <path class="cls-9" d="M227.61,460.83c-.18-.17-.4-.33-.65-.5l-.32-.22-1.54,1.63.32.22c.23.16.46.31.69.42.23.12.46.16.7.14.24-.02.48-.16.73-.42.25-.27.37-.51.36-.71-.01-.2-.11-.39-.29-.56Z"/>
        <path class="cls-9" d="M245.21,463.24c-11.77-8.08-23.97-10.75-27.26-5.96-3.29,4.79,3.58,15.22,15.34,23.31,11.76,8.08,23.97,10.75,27.26,5.96s-3.58-15.23-15.35-23.31ZM248.1,477.79c.64-.65,1.39-1.1,2.24-1.35.85-.24,1.72-.3,2.6-.16.88.14,1.68.45,2.4.93.71.5,1.24,1.09,1.58,1.8.34.7.46,1.44.36,2.19-.1.76-.46,1.48-1.07,2.15-.68.7-1.45,1.21-2.3,1.51-.86.3-1.73.4-2.63.28-.89-.11-1.74-.44-2.53-.98-.78-.55-1.34-1.18-1.66-1.9-.32-.72-.39-1.47-.23-2.25.17-.78.58-1.52,1.25-2.23ZM227.3,464.64c-.78.05-1.59-.21-2.42-.79l-1.08-.74-2.05,2.16-1.9-1.31,6.19-6.53,2.91,2c.53.36.92.75,1.18,1.18.25.43.34.87.27,1.34-.08.47-.35.95-.82,1.45-.73.76-1.49,1.17-2.27,1.22ZM235.14,467.87l-1.36,1.44-3.26-2.24-1.07,1.13,3.38,2.32-1.36,1.44-5.28-3.63,6.19-6.53,5.28,3.63-1.36,1.44-3.38-2.32-1.03,1.09,3.26,2.24ZM242.2,472.09c-.73.76-1.49,1.17-2.27,1.22-.79.05-1.59-.21-2.42-.79l-1.08-.74-2.05,2.16-1.9-1.31,6.19-6.53,2.91,2c.53.36.92.75,1.18,1.18.25.43.34.87.27,1.34-.07.47-.35.95-.82,1.46ZM241.7,473.61c.43-.45.93-.82,1.5-1.1.57-.28,1.19-.47,1.84-.55.68-.08,1.35-.05,2.01.1.66.15,1.25.4,1.78.76.6.42,1.07.93,1.43,1.52l-1.93,2.03c.02-.37-.06-.72-.23-1.04-.18-.32-.43-.6-.76-.83-.39-.26-.81-.42-1.25-.46-.44-.04-.87.02-1.29.18-.42.16-.79.41-1.12.75-.49.53-.71,1.08-.66,1.65.05.57.37,1.07.96,1.49.32.21.68.36,1.08.43.41.08.81.07,1.22,0l-1.93,2.03c-.4-.12-.75-.25-1.06-.37-.31-.12-.62-.28-.91-.48-.51-.35-.92-.77-1.24-1.26-.31-.49-.51-1.02-.6-1.59-.09-.6-.04-1.18.17-1.73.2-.55.54-1.06,1-1.55ZM239.63,483.66c-4.68-2.48-4.15-2.3.08-.27,8.41,4.04,16.42,4.89,18.99,1.14.8-1.17,1.24-2.84.78-4.58.41.9.83,1.99.83,2.89.06,1.09-.27,2.22-.81,3.01-2.58,3.75-11.21,2.4-19.87-2.19Z"/>
        <path class="cls-9" d="M240.24,469.51c-.18-.17-.4-.34-.65-.5l-.32-.22-1.54,1.63.32.22c.23.17.46.31.69.42.23.12.46.17.7.14.24-.02.48-.16.73-.42.25-.27.37-.51.36-.71-.01-.2-.11-.39-.29-.56Z"/>
      </g>
      <path class="cls-9" d="M234.42,455.79c28.58,11.9,33.13,27.46,28.14,32.14-.07.07-.14.15-.21.22,7.45-2.98,11.62-14.77-9.13-25.86-4.46-2.38-11.81-4.85-18.81-6.5"/>
      <path class="cls-9" d="M244.09,488.04c-28.59-11.89-33.13-27.45-28.15-32.13.07-.07.13-.15.2-.22-7.45,2.97-11.62,14.77,9.14,25.85,4.46,2.38,11.81,4.85,18.81,6.5"/>
    </g>
    <g>
      <path d="M238.82,71.17c0-.55.02-1.11,0-1.66-.01-.29.07-.44.37-.53,2.86-.86,5.76-1.57,8.75-1.76,2.72-.18,5.37.34,8,.98.95.23,1.9.51,2.84.8.15.04.35.23.35.35.01,1.28.07,2.58-.04,3.85-.15,1.8-1.08,3.27-2.3,4.55-2.12,2.21-4.73,3.66-7.54,4.78-.14.06-.37.06-.51,0-2.76-1.1-5.33-2.52-7.43-4.66-1.28-1.3-2.22-2.81-2.42-4.66-.07-.67-.04-2.03-.05-2.03ZM241.71,76.17l-.02.16c.7.22,1.38.48,2.09.66,1.96.51,3.94.72,5.91.06,1.61-.53,1.94-1.88.77-3.09-.99-1.02-2.22-1.67-3.52-2.19-.48-.19-.96-.36-1.51-.57.82-1.2,2.18-1.29,3.3-1.81-1.89.02-3.76.16-5.52.87-.41.17-.82.39-1.16.68-.43.36-.4.96.05,1.29,1.17.85,2.56.93,3.9,1.2l.1-.17c-.58-.63-1.16-1.26-1.68-1.83.76.25,2.2,1.73,2.41,2.53.21.83-.08,1.51-.88,1.84-.44.18-.92.32-1.39.35-.94.05-1.89.02-2.83.02ZM252.56,70.34c2.01,1.89,2.44,3.52,1.27,4.26-.18-.58-.27-1.25-.59-1.76-.42-.66-1.04-1.21-1.58-1.8-.57-.62-1.28-.81-2.09-.66-.68.13-1.36.28-2.04.44-.12.03-.22.11-.42.21.24.07.37.11.5.15,1.28.38,2.48.92,3.46,1.86,1.35,1.29,1.38,2.79.07,4.13-.23.24-.49.45-.74.67,1.49-.34,2.96-.73,4.25-1.55.61-.39,1.2-.86,1.66-1.41.3-.36.5-.93.51-1.41.07-1.82-2.3-3.55-4.26-3.13Z"/>
      <path d="M238.83,77.51c2.05,4.3,5.78,6.56,9.81,8.45.18.09.47.1.65.02,2.62-1.15,5.04-2.61,7.12-4.6,1.14-1.1,2.07-2.34,2.68-3.85.43,3.16-.72,5.66-2.98,7.73-1.99,1.82-4.3,3.12-6.79,4.11-.18.07-.43.09-.61.02-2.59-1.03-5.01-2.37-7.03-4.32-2.27-2.18-2.89-3.84-2.85-7.55Z"/>
      <path d="M225.45,80.05c-.64,0-1.17.02-1.69-.01-.14,0-.3-.16-.4-.29-.41-.52-.79-1.06-1.2-1.58-.1-.12-.27-.26-.41-.27-.83-.03-1.67-.01-2.56-.01v2.13h-1.58v-6.18s.07-.06.12-.06c1.78,0,3.57-.03,5.35.02,1.11.03,1.83.66,2.02,1.58.22,1.06-.15,1.76-1.23,2.32-.03.01-.04.05-.08.11.53.71,1.07,1.43,1.67,2.24ZM219.21,75.22v1.24c1.23,0,2.42.01,3.62,0,.36,0,.66-.16.66-.61,0-.4-.24-.61-.6-.62-1.22-.02-2.45,0-3.68,0Z"/>
      <path d="M190.78,78.82c.22-.27.43-.53.63-.78.07-.08.18-.1.27-.04,1.19.74,2.47.92,3.82.76,0,0,.01,0,.02,0,2.43-.31,2.42-.96-.01-1.25-.09-.01-.17-.02-.26-.03-.85-.09-1.71-.13-2.56-.22-.24-.02-.49-.11-.72-.21-1.15-.48-1.41-1.89-.4-2.62.55-.4,1.28-.63,1.96-.74,1.42-.23,2.82-.06,4.12.61.12.06.23.13.39.23.12.07.13.24.03.33-.26.23-.48.44-.74.62-.11.07-.33.07-.46,0-1.12-.48-2.27-.6-3.47-.41-.21.03-.52.12-.63.33s.18.4.36.42c.8.11,1.6.13,2.4.24.6.08,1.21.18,1.77.39,1.33.51,1.55,2.17.37,2.99-.44.31-.99.52-1.52.6-1.8.29-3.57.17-5.18-.81-.06-.04-.11-.08-.18-.13-.09-.07-.11-.21-.03-.3Z"/>
      <path d="M275.58,79.02c.31-.39.59-.74.89-1.12,1.21.8,2.54,1.02,3.95.86.28-.03.57-.09.82-.22.18-.09.42-.32.41-.48,0-.15-.27-.38-.46-.43-.39-.11-.81-.13-1.22-.17-.78-.07-1.57-.12-2.35-.21-.25-.03-.5-.12-.74-.22-1.1-.47-1.28-1.99-.3-2.66.53-.36,1.21-.57,1.85-.68,1.38-.23,2.74-.08,4.03.54.22.11.42.24.64.37-.05.08-.08.13-.11.17-.47.63-.95.93-1.81.52-.91-.44-1.95-.39-2.95-.18-.11.02-.21.08-.31.15-.16.12-.15.35.02.46.1.06.2.11.31.13.99.13,1.99.2,2.98.33.37.05.74.16,1.08.3,1.21.52,1.44,2.04.42,2.89-.31.25-.7.46-1.08.56-1.76.44-3.51.37-5.19-.38-.3-.14-.58-.33-.91-.53Z"/>
      <path d="M297.39,80.01v-6.23c.68,0,1.35-.02,2.01.02.14,0,.28.21.39.34,1.17,1.35,2.33,2.71,3.58,4.17v-4.49h1.62v6.24c-.66,0-1.3.02-1.94-.01-.14,0-.3-.18-.41-.3-1.07-1.24-2.14-2.49-3.21-3.74-.11-.13-.23-.26-.43-.47v4.5h-1.62Z"/>
      <path d="M211.91,73.57c1.06,0,2.03.23,2.89.83,1.59,1.11,1.82,3.44.37,4.73-1.66,1.47-4.81,1.47-6.49.02-1.47-1.27-1.27-3.6.31-4.73.86-.62,1.85-.86,2.93-.85ZM211.86,78.81c.67,0,1.35-.19,1.92-.55,1.04-.65.96-2.06,0-2.75-.99-.72-2.81-.71-3.79.02-1,.74-.95,2.14.1,2.8.53.33,1.15.48,1.76.48Z"/>
      <path d="M291.52,80.23c-.89-.02-1.89-.24-2.77-.89-1.53-1.13-1.69-3.42-.25-4.67,1.84-1.6,5.27-1.49,6.86.36,1.1,1.28.8,3.22-.54,4.25-.81.63-1.86.95-3.3.94ZM290.98,78.72c.51.14,1.06.14,1.57-.01.37-.11.72-.22,1.03-.41,1.07-.64,1.06-2.04.06-2.78-.99-.73-2.8-.73-3.79,0-1.04.76-1.03,2.16.08,2.8.32.18.68.29,1.05.4Z"/>
      <path d="M201.16,77.89v2.13h-1.59v-6.26h.43c1.57,0,3.14-.02,4.71.03.51.02,1.07.15,1.52.39.75.41.98,1.15.87,1.97-.11.86-.64,1.4-1.45,1.59-.53.12-1.09.13-1.64.15-.93.02-1.85,0-2.85,0ZM201.18,76.47c1.22,0,2.37.01,3.53,0,.39,0,.78-.1.77-.61,0-.52-.38-.64-.8-.65-1.03-.01-2.07,0-3.1,0h-.4s0,1.27,0,1.27Z"/>
      <path d="M263.42,73.77c.59,0,1.07-.03,1.54.02.16.02.36.2.45.36.74,1.26,1.46,2.54,2.18,3.81.09.15.18.29.3.49.81-1.42,1.6-2.77,2.35-4.15.22-.39.45-.54.92-.53.36,0,.71,0,1.15,0-.2.4-.3.54-.53.88-.96,1.46-1.96,3.4-2.65,4.58-.3.6-.47.79-.96.85-.85.11-1.3-.23-1.69-.97-.95-1.77-2-3.49-3.07-5.33Z"/>
      <polygon points="228.76 75.19 225.82 75.19 225.82 73.79 233.3 73.79 233.3 75.19 230.36 75.19 230.36 80.02 228.76 80.02 228.76 75.19"/>
      <rect x="272.96" y="73.8" width="1.56" height="6.21"/>
      <rect x="284.53" y="73.8" width="1.55" height="6.21"/>
    </g>
    <text class="cls-18" transform="translate(684.19 159.01) scale(.85 1)"><tspan x="0" y="0">EFBET</tspan></text>
    <text class="cls-20" transform="translate(639.42 176.61) scale(.85 1)"><tspan class="cls-27" x="0" y="0">H</tspan><tspan class="cls-31" x="11.35" y="0">8</tspan><tspan class="cls-27" x="23.18" y="0">S</tspan></text>
    <text class="cls-11" transform="translate(493.08 456.79) scale(1.11 1)"><tspan x="0" y="0">BUZZ</tspan></text>
    <text class="cls-12" transform="translate(305.65 227.81) scale(.85 1)"><tspan x="0" y="0">RENI</tspan></text>
    <text class="cls-12" transform="translate(340.07 97.8) scale(.85 1)"><tspan class="cls-24" x="0" y="0">P</tspan><tspan class="cls-28" x="7.53" y="0">A</tspan><tspan x="15.43" y="0">USE</tspan></text>
    <text class="cls-14" transform="translate(438.81 584.48) rotate(26.99) scale(1.11 1)"><tspan x="0" y="0">TEODOR</tspan></text>
    <g>
      <path class="cls-9" d="M347.27,506.37l3.83-7.51,2.65,1.35-1.27,2.49,3.66-1.27,3.1,1.58-4.38,1.26.93,6.45-3.18-1.62-.5-4.04-.97.28-1.22,2.39-2.65-1.35Z"/>
      <path class="cls-9" d="M356.28,510.96l3.83-7.51,6.64,3.38-.92,1.8-3.97-2.02-.51,1,3.36,1.71-.88,1.72-3.36-1.71-.59,1.16,4.13,2.11-.93,1.83-6.8-3.46Z"/>
      <path class="cls-9" d="M366.5,516.16l1.42-2.78-.65-6.29,2.96,1.51.13,3.29,2.75-1.83,2.88,1.47-5.39,3.21-1.42,2.78-2.67-1.36Z"/>
      <path class="cls-9" d="M341.92,513.85l2.59,1.32c-.07.31-.04.57.09.78.13.21.38.42.75.61.31.16.58.23.81.23.23,0,.39-.09.47-.26.14-.27-.12-.68-.79-1.24-.13-.11-.23-.19-.31-.25-.54-.46-.96-.83-1.26-1.13-.3-.3-.51-.55-.63-.73-.21-.37-.33-.74-.34-1.11-.01-.37.07-.74.26-1.11.38-.75.99-1.17,1.82-1.28.84-.11,1.8.11,2.89.67,1.07.54,1.8,1.17,2.21,1.89.41.72.46,1.48.15,2.28l-2.53-1.29c.07-.24.05-.46-.07-.66-.12-.2-.34-.38-.66-.54-.29-.15-.52-.21-.7-.2-.18.01-.32.11-.41.28-.13.25.13.64.78,1.18.05.05.1.09.13.11.09.08.23.19.42.35.85.71,1.38,1.24,1.59,1.57.26.41.4.8.42,1.17.03.37-.06.74-.26,1.13-.42.83-1.07,1.3-1.94,1.42-.87.12-1.9-.13-3.1-.73-1.1-.56-1.86-1.23-2.28-2-.42-.77-.46-1.58-.13-2.43Z"/>
      <path class="cls-9" d="M350.91,516.65c.62-1.22,1.5-1.99,2.63-2.31,1.13-.31,2.37-.13,3.7.55,1.33.68,2.2,1.57,2.61,2.67.41,1.1.3,2.26-.32,3.49-.62,1.22-1.5,1.99-2.63,2.3-1.13.32-2.36.14-3.69-.54-1.33-.68-2.21-1.57-2.62-2.67-.41-1.1-.31-2.26.32-3.48ZM353.6,518.02c-.36.71-.5,1.3-.4,1.77.09.47.42.84.98,1.13.56.28,1.05.33,1.48.13s.82-.66,1.19-1.37c.37-.72.5-1.31.41-1.77s-.41-.84-.97-1.12c-.56-.29-1.06-.33-1.49-.13-.43.2-.83.66-1.2,1.37Z"/>
      <path class="cls-9" d="M360.4,521.49c.62-1.22,1.5-1.99,2.63-2.31,1.13-.31,2.37-.13,3.7.55,1.33.68,2.2,1.57,2.61,2.67.41,1.1.3,2.26-.32,3.49-.62,1.22-1.5,1.99-2.63,2.3-1.13.32-2.36.14-3.69-.54-1.33-.68-2.21-1.57-2.62-2.67-.41-1.1-.31-2.26.32-3.48ZM363.09,522.86c-.36.71-.5,1.3-.4,1.77.09.47.42.84.98,1.13.56.28,1.05.33,1.48.13.43-.2.82-.66,1.19-1.37.37-.72.5-1.31.41-1.77-.09-.46-.42-.84-.97-1.12-.56-.29-1.06-.33-1.49-.13-.43.2-.83.66-1.2,1.37Z"/>
    </g>
    <text class="cls-16" transform="translate(528.94 306.07) rotate(-90.03) scale(.77 1)"><tspan x="0" y="0">DOUGLAS</tspan></text>
    <text class="cls-8" transform="translate(489.55 81.89) scale(.74 1)"><tspan x="0" y="0">OPTICLASA</tspan></text>
    <text class="cls-17" transform="translate(668.05 322.38) scale(.86 1)"><tspan x="0" y="0">LIL</tspan><tspan class="cls-23" x="52.2" y="0">L</tspan><tspan x="68.59" y="0">Y</tspan></text>
    <text class="cls-21" transform="translate(259.33 337.79) scale(.85 1)"><tspan x="0" y="0">SELINA</tspan></text>
  </g>
  <polygon id="Galleria_Stara_Zagora2.002" data-name="Galleria Stara Zagora2.002" class="cls-2" points="330.08 32.12 178.72 32.12 136.11 111.18 188.55 137.55 191.34 132.04 219.21 147.05 230.99 124.76 330.08 124.76 330.08 32.12"/>
  <polygon id="Galleria_Stara_Zagora2.004" data-name="Galleria Stara Zagora2.004" class="cls-2" points="331.94 32.12 331.94 125.11 386.95 125.11 386.95 81.03 371.52 81.03 371.52 32.12 331.94 32.12"/>
  <rect id="Galleria_Stara_Zagora2.006" data-name="Galleria Stara Zagora2.006" class="cls-2" x="404.53" y="83.6" width="79.45" height="37.72"/>
  <rect id="Galleria_Stara_Zagora2.009" data-name="Galleria Stara Zagora2.009" class="cls-2" x="485.76" y="32.12" width="45.51" height="89.21"/>
  <rect id="Galleria_Stara_Zagora2.010" data-name="Galleria Stara Zagora2.010" class="cls-2" x="532.77" y="32.12" width="38.01" height="89.21"/>
  <polygon id="Galleria_Stara_Zagora2.011" data-name="Galleria Stara Zagora2.011" class="cls-2" points="633.87 32.12 703.39 32.12 703.39 75.53 654.95 75.53 654.95 81.89 633.87 81.89 633.87 32.12"/>
  <polygon id="Galleria_Stara_Zagora2.016" data-name="Galleria Stara Zagora2.016" class="cls-2" points="634.38 225.39 634.38 354.65 797.2 354.65 797.2 296.8 764.99 296.8 764.99 284.47 751.31 284.47 751.31 257 687.86 257 687.86 225.39 634.38 225.39"/>
  <rect id="Galleria_Stara_Zagora2.017" data-name="Galleria Stara Zagora2.017" class="cls-2" x="634.38" y="356.89" width="162.82" height="50"/>
  <polygon id="Galleria_Stara_Zagora2.018" data-name="Galleria Stara Zagora2.018" class="cls-2" points="634.38 409.02 634.38 488.96 776.43 488.96 776.43 504.99 808.49 504.99 808.49 409.02 634.38 409.02"/>
  <path id="Galleria_Stara_Zagora1.020_2.020" data-name="Galleria Stara Zagora1.020^2.020" class="cls-2" d="M633.04,506.42v37.35l-90.94,32.5v107.25c109.47,46.32,257.8,92.45,266.5,95.24v-209.09h-49.62v-63.23h-125.94Z"/>
  <path id="Galleria_Stara_Zagora2.052" data-name="Galleria Stara Zagora2.052" class="cls-2" d="M388.92,507.45l-43.01-22.65-16.34,31.65s37.81,22.95,42.1,23.67l17.24-32.67Z"/>
  <path id="Galleria_Stara_Zagora2.034" data-name="Galleria Stara Zagora2.034" class="cls-2" d="M344.61,484.23l-16.94,32.46,27.68,16.35-23.39,46.3c-86.4-49.85-174.18-108.86-187.2-123.08l46.51-67.75c70.1,49.79,145.63,91.79,153.33,95.73Z"/>
  <polygon id="Galleria_Stara_Zagora2.044" data-name="Galleria Stara Zagora2.044" class="cls-2" points="191.88 134.69 165.4 184.82 192.47 198.71 219.16 149.05 191.88 134.69"/>
  <polygon id="Galleria_Stara_Zagora2.063" data-name="Galleria Stara Zagora2.063" class="cls-2" points="559.1 410.68 559.1 493.75 537.41 501.83 488.11 476.13 488.11 410.68 559.1 410.68"/>
  <polygon id="Galleria_Stara_Zagora2.066" data-name="Galleria Stara Zagora2.066" class="cls-2" points="436.15 410.68 436.15 447.9 385.31 419.44 388.26 414.9 388.26 410.68 436.15 410.68"/>
  <polygon id="Galleria_Stara_Zagora1.042_2.050" data-name="Galleria Stara Zagora1.042^2.050" class="cls-2" points="484.46 194.27 484.46 360.46 436.17 360.46 436.17 409.02 388.26 409.02 388.26 359.5 340.23 359.5 340.23 194.27 484.46 194.27"/>
  <rect id="Galleria_Stara_Zagora2.048" data-name="Galleria Stara Zagora2.048" class="cls-2" x="297.63" y="194.27" width="40.94" height="60.58"/>
  <polygon id="Galleria_Stara_Zagora2.074" data-name="Galleria Stara Zagora2.074" class="cls-2" points="211.25 312.17 252.21 312.17 252.21 323.13 242.75 332.59 211.25 312.17"/>
  <polygon id="Galleria_Stara_Zagora2.072" data-name="Galleria Stara Zagora2.072" class="cls-2" points="253.23 324.07 288.45 324.07 288.45 361.32 244.04 333.21 253.23 324.07"/>
  <polygon id="Galleria_Stara_Zagora1.036_2.038_2.040" data-name="Galleria Stara Zagora1.036^2.038^2.040" class="cls-5" points="93.14 191.43 111.98 202.42 118 192.22 151.89 212.24 156.08 204.78 181.2 219.56 117.87 334.19 130.83 343.87 141.16 352.51 150.19 359.83 159.61 366.38 190.1 387.31 143.13 455.22 118.39 436.25 92.09 415.05 78.62 403.93 68.67 395.95 84.64 375.53 93.4 383.52 103.22 372.79 27.59 314.43 93.14 191.43"/>
  <polygon id="Galleria_Stara_Zagora2.012" data-name="Galleria Stara Zagora2.012" class="cls-5" points="633.58 83.27 633.42 130.29 675.39 130.45 675.39 211.97 733.8 211.97 733.97 98.4 703.22 98.56 703.05 76.92 656.52 76.92 656.52 83.43 633.58 83.27"/>
  <polygon id="Galleria_Stara_Zagora2.014" data-name="Galleria Stara Zagora2.014" class="cls-5" points="633.42 131.24 633.09 212.13 673.61 211.8 673.61 131.92 633.42 131.24"/>
  <polygon id="Galleria_Stara_Zagora2.075" data-name="Galleria Stara Zagora2.075" class="cls-3" points="268.27 194.27 296.29 194.27 296.29 254.85 285.25 254.85 285.25 283.51 222.69 283.51 268.27 194.27"/>
  <polygon id="Galleria_Stara_Zagora2.060" data-name="Galleria Stara Zagora2.060" class="cls-4" points="485.51 325.74 485.51 362.58 438.22 362.58 438.22 409.02 559.1 409.02 559.1 325.74 485.51 325.74"/>
  <polygon id="Galleria_Stara_Zagora2.065" data-name="Galleria Stara Zagora2.065" class="cls-4" points="438.22 410.68 438.22 448.77 486.15 475.96 486.15 410.68 438.22 410.68"/>
  <polygon id="Galleria_Stara_Zagora2.071" data-name="Galleria Stara Zagora2.071" class="cls-3" points="289.89 332.59 289.89 362.26 383.95 418.47 386.45 414.62 386.45 361.32 338.79 361.32 338.79 332.59 289.89 332.59"/>
  <polygon id="Galleria_Stara_Zagora2.024_2.026" data-name="Galleria Stara Zagora2.024^2.026" class="cls-3" points="401.84 516.79 385.61 546.92 424.74 568.06 401.02 616.46 443.97 638.55 492.51 661.32 522.37 674.68 540.5 682.59 540.5 576.65 530.41 580.33 401.84 516.79"/>
  <polygon id="Galleria_Stara_ZagoraGF123435" data-name="Galleria Stara ZagoraGF123435" class="cls-3" points="486.6 322.41 486.6 194.27 559.1 194.27 559.1 323.41 486.6 322.41"/>
</svg>