<?xml version="1.0" encoding="UTF-8"?>
<svg id="Layer_4" xmlns="http://www.w3.org/2000/svg" xmlns:xlink="http://www.w3.org/1999/xlink" viewBox="0 0 789.58 639.98">
  <defs>
    <style>
      .cls-1 {
        font-size: 7.58px;
      }

      .cls-1, .cls-2, .cls-3, .cls-4, .cls-5, .cls-6, .cls-7, .cls-8, .cls-9, .cls-10, .cls-11, .cls-12, .cls-13, .cls-14, .cls-15, .cls-16, .cls-17, .cls-18, .cls-19, .cls-20, .cls-21, .cls-22, .cls-23 {
        fill: #231f20;
      }

      .cls-1, .cls-2, .cls-3, .cls-4, .cls-5, .cls-7, .cls-8, .cls-9, .cls-10, .cls-11, .cls-12, .cls-13, .cls-14, .cls-15, .cls-17, .cls-18, .cls-19, .cls-24, .cls-21, .cls-22, .cls-23 {
        font-family: Axiforma-Bold, 'Axiforma Bold';
        font-weight: 700;
      }

      .cls-25 {
        letter-spacing: -.02em;
      }

      .cls-26 {
        stroke-width: 2px;
      }

      .cls-26, .cls-27, .cls-28, .cls-29 {
        fill: none;
      }

      .cls-26, .cls-27, .cls-29 {
        stroke-miterlimit: 10;
      }

      .cls-26, .cls-29 {
        stroke: #231f20;
      }

      .cls-30 {
        letter-spacing: -.02em;
      }

      .cls-2 {
        font-size: 10.22px;
      }

      .cls-31 {
        letter-spacing: 0em;
      }

      .cls-32 {
        letter-spacing: -.03em;
      }

      .cls-27 {
        stroke: #000;
      }

      .cls-33 {
        letter-spacing: 0em;
      }

      .cls-34 {
        fill: #f47725;
      }

      .cls-3 {
        font-size: 12.6px;
      }

      .cls-35 {
        letter-spacing: 0em;
      }

      .cls-4 {
        font-size: 7.58px;
      }

      .cls-36 {
        letter-spacing: 0em;
      }

      .cls-5 {
        font-size: 5.83px;
      }

      .cls-37 {
        letter-spacing: 0em;
      }

      .cls-38 {
        letter-spacing: -.03em;
      }

      .cls-39 {
        letter-spacing: -.08em;
      }

      .cls-40 {
        fill: #f1f2f2;
      }

      .cls-41 {
        letter-spacing: -.08em;
      }

      .cls-42 {
        fill: #131718;
      }

      .cls-43 {
        letter-spacing: 0em;
      }

      .cls-44 {
        letter-spacing: 0em;
      }

      .cls-45 {
        letter-spacing: -.05em;
      }

      .cls-46 {
        letter-spacing: 0em;
      }

      .cls-7 {
        font-size: 7.99px;
      }

      .cls-47 {
        letter-spacing: -.06em;
      }

      .cls-48 {
        letter-spacing: .01em;
      }

      .cls-8 {
        font-size: 9.22px;
      }

      .cls-9 {
        font-size: 13.98px;
      }

      .cls-10 {
        font-size: 3.85px;
      }

      .cls-11 {
        font-size: 22.9px;
      }

      .cls-49 {
        letter-spacing: 0em;
      }

      .cls-50 {
        letter-spacing: -.03em;
      }

      .cls-51 {
        letter-spacing: 0em;
      }

      .cls-12 {
        font-size: 15.19px;
      }

      .cls-52 {
        letter-spacing: .02em;
      }

      .cls-53 {
        clip-path: url(#clippath-1);
      }

      .cls-13 {
        font-size: 10.48px;
      }

      .cls-14 {
        font-size: 6.67px;
      }

      .cls-15 {
        font-size: 20.16px;
      }

      .cls-16 {
        font-family: Bauhaus93, 'Bauhaus 93';
        font-size: 12.28px;
      }

      .cls-54 {
        letter-spacing: 0em;
      }

      .cls-55 {
        letter-spacing: -.08em;
      }

      .cls-17 {
        font-size: 28.2px;
      }

      .cls-56 {
        letter-spacing: 0em;
      }

      .cls-18 {
        font-size: 5.04px;
      }

      .cls-57 {
        letter-spacing: -.01em;
      }

      .cls-19 {
        font-size: 6.43px;
      }

      .cls-20 {
        fill-rule: evenodd;
      }

      .cls-58 {
        letter-spacing: -.02em;
      }

      .cls-59 {
        letter-spacing: -.06em;
      }

      .cls-60 {
        letter-spacing: -.08em;
      }

      .cls-24 {
        fill: #f47825;
        font-size: 28.4px;
      }

      .cls-61 {
        letter-spacing: -.08em;
      }

      .cls-62 {
        letter-spacing: -.02em;
      }

      .cls-63 {
        letter-spacing: 0em;
      }

      .cls-64 {
        letter-spacing: -.06em;
      }

      .cls-65 {
        letter-spacing: .02em;
      }

      .cls-21 {
        font-size: 7.91px;
      }

      .cls-66 {
        letter-spacing: -.08em;
      }

      .cls-67 {
        letter-spacing: -.02em;
      }

      .cls-68 {
        letter-spacing: 0em;
      }

      .cls-69 {
        letter-spacing: -.09em;
      }

      .cls-70 {
        letter-spacing: 0em;
      }

      .cls-71 {
        letter-spacing: 0em;
      }

      .cls-72 {
        letter-spacing: -.08em;
      }

      .cls-73 {
        letter-spacing: 0em;
      }

      .cls-22 {
        font-size: 17.36px;
      }

      .cls-74 {
        letter-spacing: 0em;
      }

      .cls-75 {
        letter-spacing: 0em;
      }

      .cls-76 {
        letter-spacing: 0em;
      }

      .cls-23 {
        font-size: 7.09px;
      }

      .cls-77 {
        clip-path: url(#clippath);
      }

      .cls-78 {
        letter-spacing: .03em;
      }

      .cls-79 {
        letter-spacing: -.02em;
      }

      .cls-80 {
        letter-spacing: -.02em;
      }

      .cls-81 {
        letter-spacing: -.08em;
      }
    </style>
    <clipPath id="clippath">
      <rect class="cls-28" x="567.28" y="294.21" width="50.65" height="9.32" transform="translate(-2.08 4.16) rotate(-.4)"/>
    </clipPath>
    <clipPath id="clippath-1">
      <rect class="cls-28" x="567.28" y="294.21" width="50.65" height="9.32" transform="translate(-2.08 4.16) rotate(-.4)"/>
    </clipPath>
  </defs>
  <g id="cladire">
    <g>
      <path class="cls-40" d="M5,87.03h779.58v504.47l-4.72.26c-21.79,1.22-45.84,1.84-71.49,1.84h0c-153.48,0-327.89-22.04-344.22-24.15-1.78.64-3.62,1.25-5.46,1.83-36.33,11.21-75.04,16.89-115.06,16.89-42.23,0-71.81-6.41-77.41-7.72l-121.31,14.92-39.88,5.22V87.03Z"/>
      <path class="cls-40" d="M779.58,92.03v494.74c-22.8,1.27-46.77,1.83-71.22,1.83-161.9,0-344.79-24.27-344.79-24.27-2.02.75-4.14,1.48-6.37,2.16-41.74,12.88-81.37,16.67-113.59,16.67-46.18,0-77.12-7.8-77.13-7.8l-122.2,15.03-34.27,4.49V92.03h769.58M789.58,82.03H0v524.26l11.3-1.48,34.24-4.48,120.39-14.8c7.55,1.71,36.7,7.65,77.68,7.65s79.73-5.76,116.54-17.12c1.53-.47,3.04-.97,4.54-1.49,22.29,2.85,193.02,24.04,343.68,24.04,25.75,0,49.9-.62,71.78-1.84l9.44-.53V82.03h0Z"/>
      <path class="cls-26" d="M779.58,586.77V92.03H10v502.86l34.27-4.49,122.2-15.03s89.14,22.47,190.71-8.87c2.23-.69,4.35-1.41,6.37-2.16,0,0,242.3,32.15,416.01,22.44Z"/>
    </g>
  </g>
  <g id="magazine">
    <polyline class="cls-29" points="611.35 92.27 611.35 103.32 578.13 103.32 578.13 125.33 545.71 125.33 545.71 195.89 676.11 195.89 676.11 248.8 745.54 248.8 745.54 189.93 779.58 190.01"/>
    <polyline class="cls-29" points="314.27 92.03 314.27 126.7 366.93 126.7 365.88 196.3 224.11 196.3 224.11 128.15 211.61 128.15 211.61 92.03"/>
    <polyline class="cls-29" points="344.99 196.3 344.99 139.28 337.17 139.28 337.17 126.7"/>
    <line class="cls-29" x1="325.23" y1="126.7" x2="325.23" y2="196.3"/>
    <line class="cls-29" x1="276.52" y1="92.03" x2="276.52" y2="196.3"/>
    <polyline class="cls-29" points="240.48 196.3 240.48 138.48 224.11 138.48"/>
    <polyline class="cls-29" points="78.14 328.23 214.11 328.23 214.11 139.61 207.66 139.61"/>
    <line class="cls-29" x1="210.56" y1="139.61" x2="9.84" y2="139.61"/>
    <line class="cls-29" x1="10" y1="328.23" x2="78.14" y2="328.23"/>
    <polyline class="cls-29" points="10 426.53 47.34 426.53 47.34 373.55 10 373.55"/>
    <polyline class="cls-29" points="44.27 590.4 44.27 540.64 69.35 540.64 69.35 527.18 10 527.18"/>
    <polyline class="cls-29" points="214.11 328.23 213.46 569.59 166.48 575.37"/>
    <polyline class="cls-29" points="213.73 468.63 177.41 468.63 177.41 574.03"/>
    <polyline class="cls-29" points="69.35 527.18 69.68 494.11 213.66 494.11"/>
    <path class="cls-29" d="M363.56,564.33c-45.68-5.38-77.32-11.68-111.47-18.69v-53.71h159.59v36.85h-34.68v37.32"/>
    <line class="cls-29" x1="277.88" y1="550.84" x2="277.88" y2="491.94"/>
    <line class="cls-29" x1="344.67" y1="491.94" x2="344.67" y2="562.03"/>
    <line class="cls-29" x1="377.01" y1="528.79" x2="377.01" y2="491.94"/>
    <polyline class="cls-29" points="439.91 573.06 439.91 540.4 444.5 540.4 444.5 529.76 422.25 529.76 422.49 491.94 647.72 491.94 647.72 526.53 644.1 526.53 644.1 580.24 618.53 580.24 618.53 586.47"/>
    <polyline class="cls-29" points="696.76 588.56 696.76 581.41 679.09 581.41 679.09 579.88 679.09 561.38 675.47 561.38 675.47 407.1 745.14 407.1 745.14 482.18 767 482.18 767 477.66 780.38 477.66"/>
    <line class="cls-29" x1="745.14" y1="482.18" x2="745.14" y2="587.04"/>
    <line class="cls-29" x1="679.09" y1="561.38" x2="745.14" y2="561.38"/>
    <polyline class="cls-29" points="675.47 528.63 712.88 528.63 712.88 510.3"/>
    <polyline class="cls-29" points="745.14 510.48 714.74 510.48 675.47 510.48"/>
    <polyline class="cls-29" points="675.47 495.64 714.74 495.64 714.74 510.48"/>
    <line class="cls-29" x1="675.47" y1="461.06" x2="745.14" y2="461.06"/>
    <line class="cls-29" x1="675.47" y1="428.07" x2="745.14" y2="428.07"/>
    <polyline class="cls-29" points="780.3 251.3 760.62 251.3 760.62 259.68 675.47 259.68 675.47 395.89 762.16 395.89 762.16 405.97 779.58 405.97"/>
    <line class="cls-29" x1="675.47" y1="293.96" x2="780.3" y2="293.96"/>
    <path class="cls-29" d="M615.63,228.88l22.3,22.3v86.25c-13.77.46-26.38,5.65-38.18,14.11h-48.22s0-47.01,0-47.01h-5.89v8.31h-7.42v6.29h-26.37v7.02h-134.27v25.48h-97.82c17.63-15.45,30.45-34.3,37.84-56.95,4.45-13.62,6.93-28.63,7.33-45.1,95.63-14.42,192.55-21.17,290.71-20.69Z"/>
    <path class="cls-29" d="M325.07,294.92v56.69-56.69Z"/>
    <line class="cls-29" x1="325.07" y1="294.92" x2="317.6" y2="294.92"/>
    <line class="cls-29" x1="511.84" y1="319.12" x2="511.84" y2="231.15"/>
    <polyline class="cls-29" points="511.36 261.7 476.8 261.7 476.8 259.76 411.12 259.76 411.12 238.37"/>
    <line class="cls-29" x1="444.83" y1="235.53" x2="444.83" y2="259.76"/>
    <line class="cls-29" x1="476.8" y1="259.76" x2="476.8" y2="233.12"/>
    <line class="cls-29" x1="494.14" y1="261.7" x2="494.14" y2="232.04"/>
    <line class="cls-29" x1="545.63" y1="304.52" x2="545.63" y2="229.79"/>
    <polyline class="cls-29" points="545.28 260.73 577.97 260.73 577.97 229.04"/>
    <line class="cls-29" x1="577.97" y1="260.73" x2="637.93" y2="260.73"/>
    <line class="cls-29" x1="602.72" y1="228.85" x2="602.72" y2="260.73"/>
    <path class="cls-29" d="M589.26,361.45h-321.2s-16.01,7.75-16.01,7.75v67.65l22.22,22.9c101.91.72,198.99-5.54,290.3-20.13-.06-27.27,7.17-53.47,24.69-78.18Z"/>
    <polyline class="cls-29" points="277.82 360.65 277.82 381.34 277.82 459.96"/>
    <line class="cls-29" x1="252.05" y1="381.05" x2="277.82" y2="381.05"/>
    <line class="cls-29" x1="252.05" y1="394.86" x2="277.58" y2="394.86"/>
    <line class="cls-29" x1="252.05" y1="427.74" x2="277.88" y2="427.74"/>
    <polyline class="cls-29" points="379.18 361.45 379.18 411.64 379.18 457.94"/>
    <polyline class="cls-29" points="344.35 459.12 344.35 412.02 379.18 412.02"/>
    <polyline class="cls-29" points="511.66 361 511.66 412.1 477.89 412.1 477.89 450.16"/>
    <polyline class="cls-29" points="545.28 361 545.28 394.87 545.28 442.58"/>
    <line class="cls-29" x1="571.11" y1="395" x2="545.28" y2="395"/>
    <polyline class="cls-29" points="611.35 103.32 611.35 127.75 623.85 127.75 623.85 195.89"/>
    <line class="cls-29" x1="578.13" y1="125.33" x2="578.13" y2="195.89"/>
    <line class="cls-29" x1="410.84" y1="92.03" x2="410.84" y2="195.73"/>
    <line class="cls-29" x1="325.07" y1="330.03" x2="299.97" y2="330.03"/>
    <line class="cls-29" x1="429.56" y1="326.13" x2="429.56" y2="361.45"/>
    <line class="cls-29" x1="461.24" y1="326.13" x2="461.24" y2="361.45"/>
    <polyline class="cls-27" points="39.25 227.43 39.25 285.63 9.84 285.63"/>
    <polyline class="cls-29" points="677.02 194.94 708.75 163.21 708.75 138.35 739.14 138.35 739.14 146.76 778.34 146.76"/>
    <polyline class="cls-29" points="376.32 92.27 376.32 196.3 463.95 196.3 463.95 125.33 487.26 125.33 487.26 92.03"/>
    <polyline class="cls-29" points="487.26 125.33 514.85 125.33 514.85 196.3 463.95 196.3"/>
    <line class="cls-29" x1="490.61" y1="125.33" x2="490.61" y2="196.3"/>
    <polyline class="cls-29" points="314.47 491.94 314.47 521.22 344.67 521.22"/>
  </g>
  <g id="logo">
    <g>
      <path class="cls-20" d="M556.82,157.36c.07-.16.41-.91.2-.93,0,0-.17.09-.26.39-.09.31-.14.46-.14.58s.13.11.21-.05Z"/>
      <path class="cls-20" d="M571.09,157.77c.08-.36.23-.74.04-.81,0,0-.16-.03-.32.41-.17.43-.29.86-.16.92.14.07.36-.16.44-.52Z"/>
      <path class="cls-20" d="M564.97,157.87c-.13.3-.36.86-.4,1.25-.04.39-.05.62.13.71.18.1.39-.71.42-.81.04-.1.23-1.11.16-1.3-.09-.26-.23-.04-.3.14Z"/>
      <path class="cls-20" d="M566.98,157.45c-.15.38-.41,1.1-.46,1.6-.05.5-.06.79.14.91.2.12.44-.9.48-1.03.04-.13.27-1.41.18-1.66-.11-.33-.26-.05-.35.18Z"/>
      <path class="cls-20" d="M562.13,146.17l-16.86,11.75,16.81,11.91,16.68-11.96-16.64-11.7ZM558.64,160.42c-.09.02-.18.03-.27.05-.25.09-.13.42-.43.52-.25.08-.92.09-1.23.04-.43-.01-.86-.03-1.29-.04-.12,0-.25-.02-.37-.03-.07-.01-.14-.06-.23-.04-.21.04-.28.21-.45.28-.34.14-.93.08-1.24-.05-.49-.22-.33-.74-.42-1.35,0-.21-.02-.43-.03-.64.05-.8.09-1.59.14-2.39.14-.83.28-1.59.5-2.33.09-.28-.21-.43-.05-.7.16-.26.55-.39.87-.49.09-.02.18-.04.27-.05h.12s.13,0,.13,0c.47,0,1.03.05,1.2.29.21.3-.09.33-.14.49-.03.22-.06.45-.09.67-.04.34-.09.69-.13,1.03-.04.36-.09.73-.14,1.09-.09.52-.17,1.04-.26,1.55-.07.35-.14.71-.2,1.06-.03.14-.06.35,0,.47.12.04.81.16.94.1-.03-.14-.06-.29-.08-.43-.02-.24-.05-.47-.07-.71,0-.16,0-.32,0-.48.04-.22.01-.42.05-.62.13-.59.34-1.12.58-1.6.15-.3.38-.94.9-.81.45.11.66.62.53,1.2-.09.37-.27.71-.44,1.01-.14.24-.25.49-.41.71-.11.16-.44.25-.51.37-.05.08-.03.67,0,.79.01.05.04.08.07.11.24.02.41-.23.54-.36.54-.56.57-1.62.94-2.35.2-.39.41-.78.99-.53.08.05.16.1.24.15.12.15.17.66.11.93-.12.64-.36,1.25-.71,1.68-.13.16-.56.27-.5.56.06.28.2.34.5.39.1.02.23,0,.3-.03.14-.06.2-.19.32-.28.08-.06.29-.12.32.03.07.4-.59.64-.88.73ZM575.25,160.09c-.72.7-1.78.39-1.78.39-1.18-.31-1.14-2.07-1.15-2.23,0-.16-.11-.14-.11-.14-.23,1.58-.62,2.56-1.54,2.42-.93-.14-.75-1.72-.75-1.72h-.06c-.21,1.89-1.34,1.65-1.34,1.65l-.1,1.93c-.05.3-.13.36-.29.33-.17-.02-.26-.1-.24-.27.05-1.21.08-3.55.09-4.78.02-.16-.14-.03-.14-.03.04.3-.13,1.45-.13,1.45-.44,2.14-1.31,1.78-1.31,1.78-1.07-.31-.62-2.22-.53-2.5.09-.28.17-.53.17-.69,0-.16-.39-.13-.39-.13.11.21.06,1.05.06,1.05-.07,1.67-.87,2.27-1.26,2.24-.39-.03-.56-.44-.59-.52-.03-.09-.15-.03-.15-.03-1.2.98-2.48.53-2.48.53-1.44-.58-1.53-1.54-1.33-3.05.2-1.51,1.04-3.33,1.35-3.93.31-.6.5-.77,1.62-.64,1.12.14,1.29.86,1.29.86.31,1.24.01,2.24-.12,2.81-.14.58-.56.83-.76.73-.2-.1-.12-.59-.12-.59,0,0,.04-.17.11-.98.07-.81-.1-1.13-.1-1.13-.26-.4-.47.07-.74.81-.27.74-.41,2.61-.41,3.23s.24,1.13.91,1.15c.66.02.8-.4.8-.4-.13-1.55.77-2.64.99-2.86.22-.22.52-.3.67-.01.15.29.26.24.55.24s.45-.08.66-.51c.21-.42.57-.46.57-.46.55.02.58.52.6.61.02.09-.08.29.15.24.23-.04.17-.17.17-.17,0,0,.19-1.24.27-1.55.08-.3.71-.42.83-.1.12.32-.1.51-.1.51v.27s.52-.09.74.59c.22.67.13,1.69.13,1.69h.04s.02-.07.02-.07c.32-1.87.93-2.19,1.19-2.27.26-.08.44.14.46.56.02.42-.18,1.36-.18,1.36-.24,1.33-.97,1.31-.97,1.31,0,0-.12,1.1.52.96.64-.14.82-2.39.82-2.84s.1-.79.3-.93c.2-.14.6-.19.67,0,.07.18-.14.21-.24.27-.1.06-.03.12.09.19.12.07.12.18.12.18,0,0,0,.85.03,1.25.03.4.1,1.18.67,1.63.57.45,1.41-.06,1.58-.14.17-.07.25.03.27.18,0,.01,0,.02,0,.03v.02c0,.12-.08.2-.08.2Z"/>
      <path class="cls-20" d="M569.08,156.63s-.42.73-.42,1.74-.06,1.39.13,1.41c.18.02.49-1.08.49-1.49s.15-1.73-.19-1.66Z"/>
      <path class="cls-20" d="M558.42,158.16c.09-.19.49-1.08.24-1.11,0,0-.2.1-.31.47-.11.36-.17.54-.17.7s.16.14.25-.05Z"/>
    </g>
    <g>
      <path class="cls-6" d="M433.57,266.81c-1.34.6-2.38-.03-4.01,3.33-5.14,10.55-9.13,19.11-13.88,31.43.14-10.12,1.95-18.17,3.03-28.02.2-1.82.48-4.32.44-6.2-.03-1.45-1.48-1.64-4.39-.2-1.62.8-3.57.73-4.31,2.65-3.16,8.19-10.47,30.97-13.86,43.85-.81,3.1,2.25,3.61,3.17.44,2.23-7.67,7.33-24.66,10.36-33.41-.31,8.01-2.49,20.67-1.47,27.31.32,2.09,2.27,2.99,3.27,4.76.71,1.26,1.86,1.38,2.49-.33,2.97-8.1,8.75-22.39,14.33-33.81-1.09,5.03-5.29,26.38-6.45,34.89-.24,1.71,1.86,1.75,3.72,4.32.42.58,2.02,1.2,2.31-.27.99-5.1,7.46-38.25,10-48.77.68-2.84.49-4.27-4.74-1.94Z"/>
      <path class="cls-6" d="M391.22,290.9c2.23-3.33,2.88-2.65,3.41-3.66.67-1.27.23-2.46-2.16-2.17,0,0-.9.06-2.56.25,2.64-6.8,4.95-12.57,6.62-16.96.56-1.49.64-2.58-.29-2.8-.99-.24-3.84,1.3-5.59,1.61-.56.1-1.09.69-1.28,1.11-2.81,6.45-5.33,12.61-7.51,18.21-2.79.48-6.06,1.1-9.71,1.92,2.61-6.71,5.25-13.32,7.83-19.69,1.27-3.13-2.07-3.43-3.37-.25-1.68,4.12-4.83,11.85-8.32,20.85-2.57.63-5.28,1.35-8.13,2.17-2.06.6-2.15,1.15-1.26,2.38.5.69,1.51.62,1.98,1.11,1.21,1.27,1.93,2.8,4.09,3.03-1.93,5.14-3.85,10.45-5.59,15.55-1.09,3.2,2.02,3.86,3.22.47,1.93-5.47,3.96-11,6.05-16.52,1.74-.4,5.95-1.31,9.85-2.16-3.09,8.46-5.12,14.89-5.89,18.02-.15.6.1.94.22,1.18,1.04,1.52,2.03,1.58,3.37,3.45.36.51,1.58.79,2-.47,2.86-8.64,5.8-16.75,8.55-24.02,1.14-.25,3.19-.74,4.45-2.62Z"/>
      <path class="cls-6" d="M393.33,304.1c-.2.18-.41.37-.62.58-.24-.74-.48-1.5-.71-2.21.67-.82,1.32-1.64,1.88-2.5,2.3-3.58-2.25-5.64-4.2-3.32-1.04,1.24-.78,2.46-.5,3.5.09.32.22.79.39,1.34-.56.57-1.23,1.29-2.12,2.32-2.22,2.58-1.62,5.92.76,6.66,1.44.45,2.79-.2,3.96-1.24.06.15.12.3.17.43.62,1.55,2.54,1.08,1.81-.79-.13-.33-.29-.77-.47-1.28.38-.48.72-.96,1.03-1.41,1.41-2.1.05-3.33-1.38-2.09ZM391.83,299.18c-.22.24-.42.46-.62.67-.05-.18-.1-.35-.13-.49-.66-2.5,2.2-1.81.76-.18ZM390.27,306.78c-.87.53-1.56-.04-.39-1.64.2-.27.39-.53.59-.79.2.61.41,1.23.61,1.84-.27.22-.54.43-.82.6Z"/>
    </g>
    <g>
      <rect class="cls-6" x="130.03" y="175.01" width="5.53" height="21.9"/>
      <polygon class="cls-6" points="109.88 175.22 102.9 196.91 96.78 196.91 92.1 182.36 87.42 196.91 81.3 196.91 74.32 175.22 79.94 175.22 84.36 188.95 88.78 175.22 95.42 175.22 99.84 188.95 104.26 175.22 109.88 175.22"/>
      <polygon class="cls-6" points="31.47 175.01 37 175.01 37 192.12 47.03 192.12 47.03 196.91 37 196.91 31.47 196.91 31.47 192.12 31.47 175.01"/>
      <polygon class="cls-6" points="144.07 186.88 144.07 196.91 138.54 196.91 138.54 175.01 144.07 175.01 144.07 183.38 150.42 175.01 157.58 175.01 149.91 185.1 158.64 196.91 151.48 196.91 144.07 186.88"/>
      <rect class="cls-6" x="159.38" y="175.01" width="5.53" height="21.9"/>
      <polygon class="cls-6" points="173.13 186.88 173.13 196.91 167.6 196.91 167.6 175.01 173.13 175.01 173.13 183.38 179.49 175.01 186.65 175.01 178.98 185.1 187.7 196.91 180.54 196.91 173.13 186.88"/>
      <rect class="cls-6" x="188.81" y="175.01" width="5.53" height="21.9"/>
      <path class="cls-20" d="M46.84,184.91c0-5.76,4.67-10.43,10.43-10.43h2.6c4.71,0,8.69,3.12,9.99,7.41h-5.65c-1.06-1.94-3.12-3.26-5.5-3.26h-.08c-3.46,0-6.26,2.8-6.26,6.26v2.29c0,3.46,2.8,6.26,6.26,6.26h.08c2.37,0,4.44-1.32,5.5-3.27h5.65c-1.3,4.28-5.28,7.41-9.99,7.41h-2.6c-5.76,0-10.43-4.67-10.43-10.43v-2.23Z"/>
      <path class="cls-20" d="M110.38,176.27s7.85-3.85,14.16-.07c0,0,3.09,1.96,3.02,7.71l.07,13.25h-4.97s0-10.1,0-10.1c0,0-8.69-.77-8.9,3.08-.21,3.86,3.43,3.37,3.43,3.37,0,0,3.08-.35,4.2-2.38v4.27s-2.59,2.59-6.37,2.31c-3.79-.28-5.89-3.02-5.89-3.02,0,0-1.96-2.37-.63-6.37,1.33-4,6.31-4.56,6.31-4.56,0,0,2.03-.35,7.07-.28,0,0,.42-3.43-1.82-4.13-2.24-.7-5.6-.14-5.6-.14,0,0-3.08.77-5.4,2.45l1.33-5.4Z"/>
    </g>
    <g>
      <rect class="cls-6" x="27.29" y="243.24" width=".89" height="3.51"/>
      <polygon class="cls-6" points="24.06 243.27 22.94 246.76 21.96 246.76 21.21 244.42 20.46 246.76 19.47 246.76 18.35 243.27 19.26 243.27 19.96 245.48 20.67 243.27 21.74 243.27 22.45 245.48 23.16 243.27 24.06 243.27"/>
      <polygon class="cls-6" points="11.48 243.24 12.37 243.24 12.37 245.99 13.98 245.99 13.98 246.76 12.37 246.76 11.48 246.76 11.48 245.99 11.48 243.24"/>
      <polygon class="cls-6" points="29.54 245.15 29.54 246.76 28.66 246.76 28.66 243.24 29.54 243.24 29.54 244.58 30.56 243.24 31.71 243.24 30.48 244.86 31.88 246.76 30.73 246.76 29.54 245.15"/>
      <rect class="cls-6" x="32" y="243.24" width=".89" height="3.51"/>
      <polygon class="cls-6" points="34.21 245.15 34.21 246.76 33.32 246.76 33.32 243.24 34.21 243.24 34.21 244.58 35.23 243.24 36.38 243.24 35.15 244.86 36.55 246.76 35.4 246.76 34.21 245.15"/>
      <rect class="cls-6" x="36.72" y="243.24" width=".89" height="3.51"/>
      <path class="cls-20" d="M13.95,244.83c0-.92.75-1.67,1.67-1.67h.42c.76,0,1.39.5,1.6,1.19h-.91c-.17-.31-.5-.52-.88-.52h-.01c-.55,0-1,.45-1,1v.37c0,.55.45,1,1,1h.01c.38,0,.71-.21.88-.52h.91c-.21.69-.85,1.19-1.6,1.19h-.42c-.92,0-1.67-.75-1.67-1.67v-.36Z"/>
      <path class="cls-20" d="M24.14,243.44s1.26-.62,2.27-.01c0,0,.5.31.48,1.24v2.13s-.79,0-.79,0v-1.62s-1.39-.12-1.43.49c-.03.62.55.54.55.54,0,0,.49-.06.67-.38v.69s-.41.42-1.02.37-.94-.48-.94-.48c0,0-.31-.38-.1-1.02.21-.64,1.01-.73,1.01-.73,0,0,.33-.06,1.13-.05,0,0,.07-.55-.29-.66-.36-.11-.9-.02-.9-.02,0,0-.49.12-.87.39l.21-.87Z"/>
    </g>
    <g>
      <path class="cls-6" d="M73.28,289.69c-1.89,0-3.43-1.17-3.43-2.61s1.54-2.61,3.43-2.61,3.43,1.17,3.43,2.61-1.54,2.61-3.43,2.61ZM73.28,285.46c-1.32,0-2.43.74-2.43,1.61s1.11,1.61,2.43,1.61,2.43-.74,2.43-1.61-1.11-1.61-2.43-1.61Z"/>
      <path class="cls-6" d="M73.66,293.97c-.18,0-.29,0-.31,0l-.48-.02.02-5.35.58.1c.06,0,2.03.24,4.87-2.19,2.6-2.23,6.73-2.15,6.9-2.15h.49v5.38l-.55-.05c-.1,0-2.57-.22-4.7,1.96-2.12,2.16-5.72,2.33-6.81,2.33ZM73.88,289.7v3.27c1.15-.03,4.15-.28,5.87-2.03,1.87-1.9,3.98-2.22,4.97-2.26v-3.31c-1.12.05-3.92.34-5.74,1.89-2.34,2.01-4.2,2.39-5.1,2.44Z"/>
      <path class="cls-20" d="M88.11,285.78c0-.55.45-.92,1.15-.92s1.15.37,1.15.92v6.54c0,.55-.45.92-1.15.92s-1.15-.37-1.15-.92v-6.54h0Z"/>
      <path class="cls-20" d="M92.62,285.93c0-.76.46-1.08,1.44-1.08.47,0,.89.15,1.15.48l4.01,5.2h.03v-4.8c0-.6.42-.89,1.1-.89s1.1.29,1.1.89v6.35c0,.73-.39,1.15-1.36,1.15-.73,0-.96-.12-1.26-.49l-3.98-5.05h-.03v4.66c0,.6-.42.89-1.1.89s-1.1-.29-1.1-.89v-6.41h0Z"/>
      <path class="cls-20" d="M105.71,286.55h-2.16c-.66,0-1.19-.27-1.19-.78s.53-.78,1.19-.78h6.62c.66,0,1.19.27,1.19.78s-.53.78-1.19.78h-2.16v5.76c0,.55-.45.92-1.15.92s-1.15-.37-1.15-.92v-5.76h0Z"/>
      <path class="cls-20" d="M112.22,286.08c0-.82.53-1.08,1.34-1.08h5.38c.67,0,1.16.16,1.16.74s-.49.74-1.16.74h-4.43v1.75h3.88c.6,0,1.08.13,1.08.71s-.48.71-1.08.71h-3.88v1.95h4.54c.67,0,1.16.16,1.16.74s-.49.74-1.16.74h-5.49c-.81,0-1.34-.26-1.34-1.08v-5.93h0Z"/>
      <path class="cls-20" d="M124.3,286.42h2.36c1.01,0,1.66.22,1.66,1.09,0,.91-.87,1.09-1.73,1.09h-2.29v-2.18h0ZM122.01,292.31c0,.55.45.92,1.15.92s1.15-.37,1.15-.92v-2.37h2.26c1.26,0,1.58.57,1.58,1.99,0,.33.1,1.3,1.35,1.3.53,0,1.08-.29,1.08-.72,0-.38-.31-.73-.31-1.66,0-.82-.21-1.51-1.38-1.64v-.02c1.09-.2,1.73-1.07,1.73-1.94,0-1.04-.73-2.25-3.45-2.25h-3.81c-.81,0-1.34.26-1.34,1.08v6.23h0Z"/>
      <path class="cls-20" d="M140.19,287.11c-.85-.24-1.87-.4-2.95-.4-.6,0-1.64.01-1.64.53,0,1.04,5.23.06,5.23,3.14,0,2.14-2.63,2.68-4.84,2.68-1.47,0-2.68-.11-4.1-.38v-2.07c1.02.34,2.28.53,3.42.53.9,0,1.71-.15,1.71-.55,0-1.08-5.23-.1-5.23-3.21,0-2.2,2.85-2.59,5.11-2.59,1.07,0,2.25.1,3.29.27v2.05h0Z"/>
      <path class="cls-20" d="M144.14,287.02h.34c.6,0,1.34.03,1.34.66s-.69.73-1.32.73h-.36v-1.39h0ZM140.65,292.85h3.49v-2.41h1.85c2.02,0,3.29-1.02,3.29-2.66,0-1.99-1.72-2.95-4.05-2.95h-4.59v8.02h0Z"/>
      <path class="cls-20" d="M154.5,287.34c1.15,0,1.87.71,1.87,1.56,0,.91-.77,1.54-1.87,1.54s-1.87-.63-1.87-1.54c0-.85.71-1.56,1.87-1.56h0ZM154.5,284.7c-3.03,0-5.52,1.64-5.52,4.16s2.47,4.12,5.52,4.12,5.52-1.54,5.52-4.12-2.49-4.16-5.52-4.16h0Z"/>
      <path class="cls-20" d="M163.44,287.02h.28c.62,0,1.16.07,1.16.69s-.59.67-1.19.67h-.25v-1.36h0ZM159.9,292.85h3.54v-2.57h.07l1.59,2.57h4.18l-2.17-2.61c-.2-.23-.42-.36-.61-.48v-.06c1.35-.36,1.93-.87,1.93-2.08,0-2.02-1.9-2.79-4.15-2.79h-4.38v8.02h0Z"/>
      <polygon class="cls-20" points="168.01 284.83 175.63 284.83 175.63 287.43 173.63 287.36 173.63 292.85 170.01 292.85 170.01 287.36 168.01 287.43 168.01 284.83 168.01 284.83"/>
      <path class="cls-20" d="M177.5,286.18c-.48,0-.83-.28-.83-.67s.35-.67.83-.67.83.28.83.67-.36.67-.83.67h0ZM177.5,286.39c.6,0,1.09-.39,1.09-.88s-.48-.88-1.09-.88-1.09.39-1.09.88.48.88,1.09.88h0ZM177.75,285.57c.2-.01.31-.08.31-.25,0-.24-.18-.28-.44-.28h-.55v.91h.25v-.38h.18l.25.38h.27l-.27-.38h0ZM177.32,285.43v-.23h.24c.11,0,.26,0,.26.09,0,.11-.07.14-.2.14h-.3Z"/>
    </g>
    <g>
      <polygon class="cls-20" points="92.9 410.06 107.52 393.17 119.99 407.26 126.38 400.06 126.52 406.11 105.73 429.66 103.06 426.64 106.47 423 96.76 411.71 93.17 415.64 92.9 410.06 92.9 410.06"/>
      <polygon class="cls-20" points="156.3 388.38 176.99 388.38 176.99 393.67 173.73 393.67 173.73 412.53 186.49 404.59 186.54 418.45 156.18 418.45 156.18 412.97 159.59 412.97 159.61 393.67 156.32 393.67 156.3 388.38 156.3 388.38"/>
      <path class="cls-20" d="M105.73,391.94c4.42,0,8.05-4.14,8.05-9.19s-3.63-9.16-8.05-9.16-8.07,4.11-8.07,9.16,3.61,9.19,8.07,9.19h0Z"/>
      <polygon class="cls-20" points="63.3 388.72 83.98 388.72 83.98 394.01 80.73 394.01 80.73 412.87 93.5 404.93 93.52 418.79 63.19 418.79 63.19 413.34 66.57 413.34 66.59 394.01 63.28 394.01 63.3 388.72 63.3 388.72"/>
      <path class="cls-20" d="M143.93,418.39h-21.55v-5.32h3.66l-.07-19.22h-3.66v-5.21h21.73c6.3-.03,11.31,4.98,11.38,14.82-.05,10.16-5.61,14.93-11.5,14.93h0ZM139.62,409.1c2.51-.03,4.6-1.65,4.62-6.02,0-4.24-2.16-6.1-4.57-6.1l-.05,12.13h0Z"/>
    </g>
    <g id="Brandingmodul_x5F_Deichmann_x5F_quadratisch_x5F_vertikal">
      <path id="Deichmann" class="cls-6" d="M294.91,386.03c.02,3.88-.42,7.83-1.7,7.84h-1.66s-.1-15.57-.1-15.57h1.48c1.2-.01,1.95,2.47,1.98,7.73M297.21,386.06c-.05-7.8-1.39-14.11-3.99-14.09-.15,0-4.06.02-4.06.02l.17,28.24s3.9-.02,4.06-.02c2.6-.02,3.86-6.35,3.81-14.15M298.61,400.17l6.6-.04-.04-6.1-4.34.03-.03-5.1,3.6-.02-.04-5.85-3.6.02-.03-5.1,4.34-.03-.04-6.1-6.6.04.17,28.25ZM306.81,400.12l2.25-.02-.17-28.24h-2.25s.17,28.26.17,28.26ZM312.75,385.94c-.03-4.75.41-8.82,1.81-8.83.95,0,1.43,2.1,1.63,4.52h2.24c-.15-6.32-1.67-10.77-3.91-10.75-2.81.01-4.12,6.77-4.07,15.08.05,8.32,1.44,15.04,4.25,15.03,2.34-.01,3.7-4.79,3.78-10.94h-2.23c-.11,2.51-.56,4.59-1.58,4.6-1.39,0-1.88-3.95-1.91-8.7M325.36,400h2.26s-.17-28.26-.17-28.26h-2.26s.07,10.78.07,10.78l-3.31.02-.07-10.77h-2.25s.17,28.26.17,28.26h2.25s-.07-11.17-.07-11.17l3.31-.02.07,11.16ZM337.13,399.93h2.08s-.17-28.26-.17-28.26l-3.25.02-1.43,18.64h-.02s-1.66-18.62-1.66-18.62l-3.25.02.17,28.25h2.08s-.13-21.14-.13-21.14h.02s1.91,21.11,1.91,21.11h1.86s1.65-21.15,1.65-21.15h.02s.13,21.12.13,21.12ZM345.43,389.43h-1.9s.87-10.67.87-10.67h.02s1,10.67,1,10.67ZM346.43,399.87h2.42s-3.08-28.24-3.08-28.24h-2.76s-2.76,28.28-2.76,28.28h2.42s.38-4.61.38-4.61l2.96-.02.44,4.59ZM355.18,399.82l2.49-.02-.17-28.25h-2.18s.11,17.7.11,17.7h-.02s-3.25-17.66-3.25-17.66l-2.59.02.17,28.25h2.18s-.11-17.86-.11-17.86h.02s3.35,17.82,3.35,17.82ZM367.6,399.75l-.17-28.25h-2.18s.11,17.7.11,17.7h-.02s-3.25-17.67-3.25-17.67l-2.6.02.17,28.25h2.18s-.11-17.86-.11-17.86h.02s3.35,17.82,3.35,17.82h2.49Z"/>
    </g>
    <path class="cls-6" d="M493.2,544.01h-25.03v-.77l18.74-19h-15.53l-.39,4.75h-1.16l.51-5.52h23.49v.64l-19.12,19h17.33l.51-5.9h1.28l-.64,6.8h0ZM609.36,537.59h-10.4l-3.34,5.65h6.03v.77h-11.81v-.77h4.49l11.94-20.15h.64l11.42,20.15h4.36v.77h-15.53v-.77h5.26l-3.08-5.65h0ZM599.48,536.7h9.5l-4.62-8.09h-.13l-4.75,8.09h0ZM522.72,537.59h-10.4l-3.34,5.52h6.03v.77h-11.81v-.77h4.49l11.94-20.15h.64l11.42,20.15h4.36v.77h-15.4v-.77h5.39l-3.34-5.52h0ZM512.58,536.7h9.5l-4.62-8.09h-.13l-4.75,8.09h0ZM552.5,543.11v-18.87h-5.13v-.77h24.39c3.47,0,4.36,2.82,4.36,4.62,0,2.57-.64,4.62-4.36,5.39-.13,0-.64,0-1.28.13l5.52,9.63h4.36v.77h-9.88l-5.9-10.4h-6.16v9.63h5.13v.77h-16.17v-.77h5.13v-.13ZM558.28,524.25v8.47h5.78c1.28,0,2.18-.13,2.95-.26.9-.13,1.8-.64,2.31-1.28.64-.64.9-1.8.9-3.08,0-1.16-.39-2.05-.9-2.57-.64-.64-1.28-.9-2.18-1.03-.77-.26-1.93-.26-3.34-.26h-5.52Z"/>
    <path class="cls-6" d="M501.25,417.99c-2.4,0-3.99,1.62-3.99,3.78s1.59,3.78,3.99,3.78,3.99-1.62,3.99-3.78-1.59-3.78-3.99-3.78ZM501.25,425.18c-1.55,0-2.67-1.11-2.67-3.41s1.13-3.41,2.67-3.41,2.67,1.11,2.67,3.41-1.12,3.41-2.67,3.41ZM510.75,418.38l.39.26c.26.17.26.27.09.55l-.17.27c-.22.35-.68,1.07-.92,1.49l-.22.36c-.17.29-.32.53-.32.53,0,0-.13-.25-.22-.38l-.1-.16c-.4-.64-.95-1.44-1.43-2.09l-.2-.27c-.09-.12-.04-.2.03-.27l.32-.29v-.07h-2.34v.07l.43.3c.16.11.29.25.4.4l.19.25c.32.4,1.23,1.65,1.76,2.5l.17.27c.07.11.1.24.09.38v2.08c0,.1-.04.2-.13.25l-.52.38v.06h2.37v-.06l-.52-.38c-.09-.05-.14-.15-.13-.25v-2.04c0-.16.05-.32.14-.45l.22-.36c.51-.84.95-1.53,1.43-2.25l.17-.26c.15-.23.34-.43.58-.58l.36-.25v-.07h-1.92v.07h0ZM531.78,417.99c-2.4,0-3.99,1.62-3.99,3.78s1.59,3.78,3.99,3.78,3.98-1.62,3.98-3.78-1.59-3.78-3.98-3.78ZM531.78,425.23c-1.59,0-2.67-1.16-2.67-3.45s1.08-3.45,2.67-3.45,2.67,1.16,2.67,3.45-1.08,3.45-2.67,3.45ZM524.05,418.37l.52.38c.09.05.14.15.13.25v2.47h-3.71v-2.47c0-.1.04-.2.13-.25l.52-.38v-.06h-2.37v.06l.52.38c.09.05.14.15.13.25v5.57c0,.1-.04.2-.13.25l-.52.38v.06h2.37v-.06l-.52-.38c-.09-.05-.14-.15-.13-.25v-2.69h3.71v2.69c0,.1-.04.2-.13.25l-.52.38v.06h2.37v-.06l-.52-.38c-.09-.05-.14-.15-.13-.25v-5.57c0-.1.04-.2.13-.25l.52-.38v-.06h-2.37v.06ZM516.24,421.36l-.77-.48c-.59-.38-1.03-.75-1.03-1.36,0-.66.48-1.11,1.16-1.11s1.13.35,1.47.91l.23.38h.09v-1.3s-.64-.35-1.6-.35c-1.3,0-2.17.85-2.17,1.88,0,.75.33,1.47,1.36,2.11l.77.48c.59.36,1.1.74,1.1,1.44,0,.79-.52,1.2-1.26,1.2s-1.27-.27-1.73-1.03l-.32-.53h-.09v1.52c.57.27,1.2.4,1.83.4,1.43,0,2.4-.82,2.4-2.05,0-.87-.44-1.49-1.44-2.11h0Z"/>
    <g>
      <path class="cls-20" d="M741.7,349.69c-.25,0-.66-.25-.66-.69,0,0,.23-5.9.23-7.35,0-.38-.1-.33-.28-.33s-1.18.33-1.57.33c-.27,0-.29-.18-.29-.29,0-.34,1.37-.77,2.04-.92.29-.06-.04-.96.71-.96.63,0,.48.59.68.59.33,0,1.36-.19,2.94-.05,1.14.1,5.3,1.2,5.3,5.67,0,1.81-1.41,5.65-7.43,5.65-1.63,0-4.11-.77-3.93-1.32.05-.16.23-.36.51-.22.91.44,2.51.59,3.67.59,1.45,0,5.58-.88,5.58-5.22,0-2.98-3.44-4.41-6.42-4.03,0,0-.24.04-.24.31,0,.13-.04,5.33-.04,6.72,0,.06.02,1.52-.82,1.52h0Z"/>
      <path class="cls-20" d="M764.99,344.38c0-.35.28-.63.63-.63s.63.28.63.63-.28.63-.63.63-.63-.28-.63-.63h0Z"/>
      <path class="cls-20" d="M718.61,344.19c0-.32.26-.58.58-.58s.58.26.58.58-.26.58-.58.58-.58-.26-.58-.58h0Z"/>
      <path class="cls-20" d="M689.84,348.85l1.92-7.88s.12-.61.33-.75c.32-.22.7-.21.7-.21,0,0,.61.04.86.22.22.16.36.72.36.72l.96,5.85s.1.81.38.81.46-.62.46-.62l2.4-6.39s.17-.5.39-.73c.2-.21.54-.22.54-.22h.74s.32.03.53.27c.23.25.2.85.2.85l.49,9.36s.1,1.09-.69,1.11c-.83.02-.83-.71-.83-.71l-.17-8.11s-.09-.39-.31-.39c-.1,0-.26.41-.26.41l-2.44,6.17s-.4,1.21-1.38,1.18c-.91-.03-1.13-1.18-1.13-1.18l-.95-4.99s-.12-.47-.31-.47c-.17,0-.28.47-.28.47l-1.2,5.23s.02.88-.78.86c-.82-.02-.53-.86-.53-.86h0Z"/>
      <path class="cls-20" d="M760.3,348.71c-.22,0-.65-.08-.65-.63s0-2.26,0-2.71.14-.43.32-.43h1.3c.32,0,.36,0,.36.38s-.11,2.11-.28,2.47c-.23.5-.47.91-1.04.91h0ZM751.29,348.38c0-.42.51-.47.8-.8.42-.48.27-1.33.94-1.33.77,0,.3,1.52.41,2.31.03.24.17.45.45.45.59,0,1.03-.56,1.28-1.19.23-.56.3-1.18.46-1.52.08-.17.24-.19.33-.2.49-.05.52.58.53,1.2,0,.42.03.85.03,1.06,0,.03.17.53.6.53.33,0,1.7-.18,1.52-3.71-.01-.29-.03-.26-.19-.28-.13-.02-.77.01-1.25-.06-.13-.02-.45-.23-.46-.48-.01-.19.23-.41.37-.46.26-.09,1.23-.04,1.33-.04.06,0,.22.03.26-.06.09-.43.17-1.66.17-2.09,0-.13.11-.41.48-.41.5,0,.51.33.51.51v1.85c0,.14.02.21.08.21h1.63c.13,0,.24-.13.24-.21,0-.13.08-1.13.08-1.4s.04-.97.52-.97.42.43.42.58v1.97h.85c.58,0,.82.43.82.63,0,.42-.31.48-.43.48h-1.16c-.13,0-.18.45-.18.59s-.13,2.03-.13,2.27c0,.58.27,1.02.78,1.02s1.12-.74,1.21-1.08c.09-.36.2-.88.35-1.24.14-.35.3-.38.51-.38s.48.07.42.79c-.07.78-.08.82-.08,1.19s.37,1.2,1.03,1.2c.2,0,.63.04,1.19-.14.51-.17.45-.09.45.15,0,.22-.64.48-1.16.64-.51.15-1.09.12-1.37-.03-.53-.29-.69-.47-.8-.58-.11-.11-.19-.1-.25-.1-.58,0-.58.75-1.53.75s-.96-.74-1.62-.74c-.54,0-.72.79-1.4.79-.77,0-.83-.75-1.59-.75s-.69.75-1.69.75c-.75,0-1.03-.87-1.56-.87-.65,0-.63,1.02-1.79,1.02-1.47,0-1.12-1.63-1.6-1.63-.27,0-.09.14-.52.14-.27,0-.3-.19-.3-.33h0Z"/>
      <path class="cls-20" d="M706.18,346.73s.22.09.23.3c0,.17,0,1.06,0,1.06,0,0,0,.34-.77.65-.77.31-.99.19-1.3.12-.31-.07-.64-.55-.64-.81s.11-.66.4-.93c.29-.27.52-.33.75-.38.22-.05.78-.04.92-.04s.42.03.42.03h0ZM715.96,348.35s-.71.13-.64.53c0,0-.08.21.34.24,0,0,.45.09.52-.16,0,0,.1-.04-.11-.46l-.11-.15h0ZM711.92,348.43s-.71.13-.64.53c0,0-.08.21.34.24,0,0,.45.09.52-.16,0,0,.1-.04-.11-.46l-.11-.15h0ZM722.9,349.79c-.82,0-.29-1.48-1.04-1.48s-.87,1.29-2.06,1.29-.89-2.13-1.41-2.09c-.67.06-1.13.21-1.13.46s.16.23.16.76-.27,1.18-1.86,1.18c-1.16,0-1.59-.63-1.59-.95,0-.89,1.37-.99,1.37-1.24,0-.14-.43-.76-.67-.78-.3-.03-1.67.97-1.67,1.17s.35.47.35,1.12c0,.82-.77.88-1.49.88s-1.8-.42-1.8-.89c0-.13-.02-.34.12-.52.3-.41.7-.59.99-.74.15-.08.14-.02.14-.11s-.39-.43-.49-.43c-.05,0-.16-.09-.33.08-.59.59-.7,2.18-2.28,2.18-1.05,0-1.09-.69-1.59-.69-.43,0-1.12.7-2.59.7s-1.75-1.34-1.75-1.84c0-.39.13-1.86,2.7-1.86,1.18,0,1.39.4,1.61.4.08,0,.21.02.26-.03.08-.08.1-.11.21-.11s.43-.03.47,0c.04.04.21.09.21.28s-.23.76-.23.92c0,.09-.03.32-.04.53,0,.17.02.32.02.33,0,.13.04.48.69.48.76,0,1.45-.97,1.58-1.79.08-.5.03-1.26.03-1.36s-.04-.21.1-.28c.02-.01.18-.1.25-.1.06,0,.13.04.21.12.04.04.45.58.98,1.08.44.41.85.61,1.2.86.06.04,1.45-1.02,1.45-1.13v-.62c0-.26.27-.47.44-.47.48,0,1.64,2.1,2.2,2.1.35,0,1.49-.48,1.66-.55.14-.06.61-.66.61-.72s.81.06.81.47-.03,1.92.32,1.92c1.44,0,1.24-2.44,2.26-2.44.85,0,.36,1.64,1,1.64s.68-1.76,1.81-1.76c.45,0,.45,1.36.98,1.36.8,0,.88-1.32,1.71-1.32,1.43,0,.11,3.14,1.34,3.14,1.37,0,1.22-2.68,1.9-2.68.99,0-.77,2.73,1.73,2.73,1.5,0,2.34-1.88.74-2.36-.68-.2-1.18.31-1.49,0-.08-.08.2-.44.38-.51.12-.05.38-.14,1.02-.14s2.2.11,2.2,1.8c0,1.31-1.64,2.23-2.68,2.23-1.85,0-1.52-.92-2.29-.92-.66,0-.86,1.04-1.82,1.04-1.58,0-.89-2.66-1.61-2.66-.91,0-.78,2.26-1.82,2.26-.78,0-.24-2.19-.84-2.19s-1.03,2.24-1.65,2.24h0Z"/>
    </g>
    <g>
      <path class="cls-20" d="M476.93,391.52c1.46-1.81,2.87-3.56,4.28-5.31.85-1.05,1.69-2.11,2.54-3.17.06-.07.11-.14.23-.13.91,0,1.81,0,2.77,0-.35.44-.67.84-.99,1.25-1.31,1.64-2.62,3.29-3.93,4.92-.08.1-.07.17-.02.27.53,1,1.05,1.99,1.58,2.99.62,1.18,1.25,2.36,1.87,3.54.66,1.26,1.32,2.52,2,3.77.12.23.07.26-.16.25-.77-.01-1.54,0-2.3,0-.14,0-.21-.04-.28-.17-1.42-2.73-2.84-5.46-4.27-8.2-.05-.09-.09-.19-.15-.3-.35.31-.63.69-.94,1.03-.73.82-1.44,1.64-2.16,2.46-.08.1-.07.19-.07.29,0,1.54,0,3.07,0,4.61,0,.21-.04.28-.27.28-.63-.02-1.26-.01-1.88,0-.18,0-.21-.05-.21-.22,0-7.73,0-15.46,0-23.2,0-.17.04-.22.22-.22.63.01,1.26.02,1.88,0,.23,0,.26.07.26.28,0,4.85,0,9.7,0,14.56v.41Z"/>
      <path class="cls-20" d="M458.92,385.22c.32-.3.59-.56.86-.81.73-.67,1.53-1.25,2.5-1.54,1.48-.45,2.95-.41,4.35.29,1.09.54,1.74,1.45,2.08,2.6.14.47.21.95.21,1.44,0,4.14,0,8.27,0,12.41,0,.23-.05.31-.29.3-.6-.02-1.2-.02-1.81,0-.23,0-.27-.06-.27-.27,0-4.15.02-8.31,0-12.46,0-1.01-.41-1.87-1.4-2.31-.63-.28-1.32-.32-2-.21-1.46.24-2.62,1.02-3.69,2-.44.4-.56.81-.56,1.38.02,3.87.01,7.73.02,11.6,0,.21-.04.28-.26.28-.61-.02-1.22-.02-1.83,0-.22,0-.27-.05-.27-.27,0-7.43,0-14.87,0-22.3,0-.28,0-.56,0-.84,0-.16.03-.23.21-.22.64.01,1.27.01,1.91,0,.2,0,.24.05.24.24,0,2.78,0,5.57,0,8.35v.35Z"/>
      <path class="cls-20" d="M446.83,400.25c-1.85,0-3.36-.35-4.75-1.2-.82-.5-1.49-1.15-2.09-1.9-.09-.11-.06-.18.05-.26.53-.39,1.06-.78,1.59-1.19.13-.1.16-.04.24.05.52.67,1.1,1.27,1.84,1.7,1.13.66,2.36.86,3.66.71.72-.08,1.4-.28,1.96-.75.9-.74,1.24-1.79.8-2.86-.23-.56-.68-.93-1.18-1.25-.84-.53-1.79-.75-2.71-1.08-1.08-.39-2.2-.68-3.25-1.13-1.42-.6-2.45-1.68-2.54-3.47-.05-.95.09-1.87.57-2.7.28-.48.63-.9,1.09-1.24,1.03-.74,2.2-1.06,3.46-1.11,1.48-.05,2.84.32,4.12,1.03.72.4,1.34.92,1.89,1.53.09.1.17.22.26.32.08.09,0,.15-.06.19-.46.4-.92.79-1.37,1.19-.12.11-.17.11-.29-.01-.45-.46-.87-.95-1.42-1.31-1.06-.71-2.21-1.04-3.48-.9-.94.1-1.82.38-2.21,1.35-.41,1-.32,1.89.56,2.6.63.51,1.39.77,2.14,1.03,1.22.42,2.42.87,3.65,1.26.98.31,1.79.85,2.41,1.64.71.91.96,1.95.88,3.1-.05.8-.26,1.53-.69,2.21-.47.74-1.12,1.27-1.89,1.68-.93.5-2.19.78-3.24.75Z"/>
      <path class="cls-20" d="M432.89,386.29c.16-.26.31-.51.47-.75.46-.69.96-1.34,1.63-1.85.76-.58,1.63-.88,2.56-1,.25-.03.5-.07.75-.06.12,0,.15.04.14.15,0,.69,0,1.38,0,2.07,0,.11-.03.14-.15.15-.36.03-.72.07-1.08.16-1.02.26-1.85.79-2.51,1.61-.88,1.11-1.42,2.39-1.86,3.72-.03.08-.02.17-.02.26,0,2.96,0,5.92,0,8.88,0,.21-.03.28-.26.28-.63-.02-1.26-.01-1.88,0-.17,0-.22-.04-.22-.22,0-5.52,0-11.05,0-16.57,0-.17.04-.22.21-.21.65.01,1.29.01,1.94,0,.17,0,.22.04.21.21,0,.97,0,1.94,0,2.91,0,.08-.03.17.04.27Z"/>
      <path class="cls-20" d="M409.32,392.22c-.3-1.5-1.09-2.69-2.3-3.6-.59-.44-1.25-.78-1.98-.95-.05-.01-.11-.02-.12-.08,0-.07.07-.06.11-.08.38-.16.77-.31,1.13-.51.78-.43,1.44-1,1.91-1.76.62-.99.82-2.09.78-3.24-.07-2.36-1.24-4.01-3.32-5.04-1.11-.55-2.33-.66-3.55-.67-2.72-.01-5.45,0-8.17,0-.23,0-.29.06-.29.29,0,3.85,0,7.7,0,11.55h0v11.41q0,.4.42.4c2.39,0,4.78,0,7.17,0,.88,0,1.76-.04,2.62-.21,1.22-.23,2.41-.55,3.45-1.29.88-.62,1.52-1.42,1.87-2.44.43-1.23.5-2.49.25-3.77ZM396.16,382.47c0-1.24,0-2.48,0-3.72,0-.18.03-.25.24-.25,1.82.01,3.65-.01,5.47.02.78.01,1.56.11,2.29.4,1.05.42,1.69,1.17,1.94,2.26.18.77.21,1.55-.01,2.32-.29.99-.96,1.66-1.81,2.16-1.01.59-2.13.77-3.28.78-1.53,0-3.05,0-4.58,0-.2,0-.26-.05-.26-.26.01-1.24,0-2.48,0-3.72ZM406.5,395.24c-.39.93-1.11,1.52-2.01,1.9-.93.39-1.92.52-2.92.54-1.72.03-3.44,0-5.15.02-.2,0-.26-.05-.26-.26,0-1.42,0-2.84,0-4.27h0c0-1.43,0-2.86,0-4.29,0-.16.03-.22.21-.22,1.5,0,3-.03,4.5.01,1.12.03,2.23.17,3.26.66.97.46,1.76,1.11,2.26,2.07.37.69.45,1.45.44,2.22,0,.56-.12,1.1-.33,1.62Z"/>
      <path class="cls-20" d="M502.69,399.68c-.27-1.2-.36-2.42-.36-3.65,0-2.91,0-5.81,0-8.72,0-.78-.21-1.51-.6-2.18-.79-1.37-2.06-2.07-3.56-2.38-1.03-.21-2.07-.22-3.12-.06-2.17.33-3.8,1.46-4.9,3.36-.06.1-.1.15.05.23.58.29,1.16.59,1.73.89.17.09.22.06.3-.11.39-.85.97-1.55,1.83-1.95,1.26-.59,2.59-.65,3.92-.31.99.26,1.65.89,1.9,1.93.15.61.07,1.21.1,1.82,0,.12-.07.11-.15.12-.43.08-.87.16-1.3.25-2.11.44-4.18.97-6.1,2-.84.45-1.58,1.05-2.09,1.87-.68,1.07-.84,2.25-.71,3.5.13,1.28.72,2.29,1.73,3.05.73.55,1.58.82,2.49.88,1.06.07,2.09-.04,3.09-.43,1.13-.43,2.07-1.12,2.89-1.99.07-.07.11-.18.24-.18.08.7.16,1.4.24,2.1,0,.08-.04.2.13.2.76,0,1.52,0,2.28,0-.01-.1-.01-.17-.03-.25ZM499.97,393.09c0,.72,0,1.43,0,2.15,0,.1,0,.19-.08.29-1.01,1.1-2.21,1.93-3.62,2.43-.7.25-1.44.39-2.17.19-.92-.25-1.68-.76-2.02-1.69-.3-.82-.18-1.63.3-2.37.66-1.01,1.68-1.56,2.75-2.02,1.5-.64,3.06-1.02,4.66-1.3.18-.03.18.04.18.17,0,.72,0,1.43,0,2.15Z"/>
      <path class="cls-20" d="M426.94,396.21c-.35-.18-.7-.35-1.05-.53-.21-.1-.45-.32-.62-.27-.17.05-.27.35-.4.55-1.26,1.81-3,2.46-5.01,2.22-1.33-.16-2.34-.92-3.11-2-.88-1.22-1.22-2.61-1.25-4.09,0-.21.06-.24.24-.23,1.75,0,3.51,0,5.26,0h2.64c.89,0,1.78,0,2.67,0,.2,0,.24-.05.24-.24-.01-.59.01-1.19,0-1.78-.05-1.42-.26-2.82-.94-4.09-.66-1.22-1.6-2.15-2.9-2.68-1.04-.42-2.13-.54-3.24-.46-1.48.11-2.78.65-3.85,1.69-.98.96-1.62,2.11-1.99,3.42-.29,1.01-.43,2.05-.46,3.11-.03,1.12.01,2.24.25,3.34.32,1.5.92,2.85,2,3.96.76.79,1.64,1.39,2.68,1.74,1.33.45,2.7.46,4.07.24,1.04-.17,2.02-.53,2.84-1.21.84-.69,1.49-1.55,2.03-2.49.08-.14,0-.16-.09-.21ZM415.59,389.61c.12-1.19.41-2.33,1.12-3.33.65-.92,1.53-1.44,2.65-1.6.68-.1,1.35-.08,2.01.11.64.18,1.14.55,1.58,1.04.84.94,1.13,2.08,1.23,3.29.01.16.01.33.03.49.02.19-.05.23-.23.23-1.36,0-2.72,0-4.08,0s-2.72,0-4.08,0c-.19,0-.24-.06-.22-.24Z"/>
    </g>
    <text class="cls-12" transform="translate(655.09 123.17) scale(.86 1)"><tspan x="0" y="0">TER</tspan><tspan class="cls-74" x="23.19" y="0">R</tspan><tspan x="31.44" y="0">ANO</tspan><tspan class="cls-47" x="61.19" y="0">V</tspan><tspan class="cls-35" x="68.8" y="0">A</tspan></text>
    <g>
      <path class="cls-20" d="M393.07,137.06s1.71-.71,4.19-.1l.03.97s-2.35-.76-4.21.08v-.95h-.01Z"/>
      <polygon class="cls-20" points="394.31 137.36 396.11 137.34 396.14 139.33 394.34 139.36 394.31 137.36 394.31 137.36"/>
      <path class="cls-6" d="M390.78,138.05h0c0-.73.49-1.38,1.31-1.85.78-.45,1.85-.73,3.03-.75h0s0,0,0,0c1.18-.02,2.26.24,3.05.67.83.45,1.35,1.09,1.35,1.82h0s0,0,0,0c0,.73-.49,1.38-1.31,1.85-.78.45-1.85.73-3.03.75h0s0,0,0,0c-1.18.02-2.26-.24-3.05-.67-.83-.45-1.35-1.09-1.35-1.81h0ZM391.21,138.04h0s0,0,0,0c0,.56.44,1.06,1.13,1.44.73.39,1.74.63,2.85.61h0s0,0,0,0c1.11-.02,2.11-.28,2.83-.69.68-.39,1.1-.91,1.09-1.47h0s0,0,0,0c0-.56-.44-1.06-1.13-1.44-.73-.39-1.74-.63-2.85-.61h0s0,0,0,0c-1.11.02-2.11.28-2.83.69-.68.39-1.1.91-1.09,1.47h0Z"/>
      <path class="cls-20" d="M393.07,137.06s1.71-.71,4.19-.1l.03.97s-2.35-.76-4.21.08v-.95h-.01Z"/>
      <polygon class="cls-20" points="394.31 137.36 396.11 137.34 396.14 139.33 394.34 139.36 394.31 137.36 394.31 137.36"/>
      <polygon class="cls-20" points="398.9 143.49 400.09 143.47 400.11 145.17 398.92 145.19 398.9 143.49 398.9 143.49"/>
      <path class="cls-20" d="M378.7,143.91s1.14-.47,2.78-.06l.02.64s-.32-.1-.78-.16l.02,1.16-1.19.02-.02-1.19c-.28.04-.56.11-.82.23v-.63h0Z"/>
      <path class="cls-20" d="M389.97,143.61c.21,0,.6.04.84.35l.56,1.34-1.18.02-.62-1.15h-.82s.56,1.15.56,1.15l-1.2.02-.63-1.14h-.58s.02,1.15.02,1.15l-1.18.02-.02-1.7,4.25-.06h0Z"/>
      <path class="cls-20" d="M382.66,144.59c0-.25.4-.45.9-.46s.91.19.91.43-.4.45-.9.46-.91-.19-.91-.43h0ZM381.57,144.6c0-.55.88-1.01,1.99-1.02s2.01.42,2.01.97-.88,1.01-1.99,1.02-2.01-.42-2.01-.97h0Z"/>
      <path class="cls-20" d="M392.4,143.72s1.14-.47,2.78-.06l.02.64s-.32-.1-.78-.17l.02,1.16-1.19.02-.02-1.19c-.28.04-.56.11-.82.23v-.63h0Z"/>
      <path class="cls-20" d="M397.34,144.01h-.56c-.11.05-.3.15-.42.37h.99s0-.37,0-.37h0ZM396.77,143.52l1.69-.02.02,1.7-1.12.02v-.42s-1.13.02-1.13.02c-.02.12-.02.26,0,.42l-1.17.02s-.26-1.36,1.72-1.74h0Z"/>
      <polygon class="cls-20" points="400.48 143.46 401.66 143.44 401.67 144.61 402.46 144.6 402.47 145.14 400.51 145.17 400.48 143.46 400.48 143.46"/>
      <path class="cls-20" d="M403.59,144.27c0-.25.4-.45.9-.46s.91.19.91.43-.4.45-.9.46-.91-.19-.91-.43h0ZM402.5,144.29c0-.55.88-1.01,1.99-1.02s2.01.42,2.01.97-.88,1.01-1.99,1.02c-1.1.02-2.01-.42-2.01-.97h0Z"/>
      <path class="cls-20" d="M407.72,144.01c0-.14.24-.25.54-.26s.54.1.54.24-.24.25-.54.26-.54-.1-.54-.24h0ZM406.59,143.66s.38-.32,1.27-.34h.77s1.19.02,1.23.58v.14s-.09.35-.66.47l.57.44-.82.35-1.19-.8v.56s-1.17.02-1.17.02v-1.4s0-.03,0-.03h0Z"/>
      <polygon class="cls-20" points="398.9 143.49 400.09 143.47 400.11 145.17 398.92 145.19 398.9 143.49 398.9 143.49"/>
      <path class="cls-20" d="M378.7,143.91s1.14-.47,2.78-.06l.02.64s-.32-.1-.78-.16l.02,1.16-1.19.02-.02-1.19c-.28.04-.56.11-.82.23v-.63h0Z"/>
      <path class="cls-20" d="M389.97,143.61c.21,0,.6.04.84.35l.56,1.34-1.18.02-.62-1.15h-.82s.56,1.15.56,1.15l-1.2.02-.63-1.14h-.58s.02,1.15.02,1.15l-1.18.02-.02-1.7,4.25-.06h0Z"/>
      <path class="cls-20" d="M382.66,144.59c0-.25.4-.45.9-.46s.91.19.91.43-.4.45-.9.46-.91-.19-.91-.43h0ZM381.57,144.6c0-.55.88-1.01,1.99-1.02s2.01.42,2.01.97-.88,1.01-1.99,1.02-2.01-.42-2.01-.97h0Z"/>
      <path class="cls-20" d="M392.4,143.72s1.14-.47,2.78-.06l.02.64s-.32-.1-.78-.17l.02,1.16-1.19.02-.02-1.19c-.28.04-.56.11-.82.23v-.63h0Z"/>
      <path class="cls-20" d="M397.34,144.01h-.56c-.11.05-.3.15-.42.37h.99s0-.37,0-.37h0ZM396.77,143.52l1.69-.02.02,1.7-1.12.02v-.42s-1.13.02-1.13.02c-.02.12-.02.26,0,.42l-1.17.02s-.26-1.36,1.72-1.74h0Z"/>
      <polygon class="cls-20" points="400.48 143.46 401.66 143.44 401.67 144.61 402.46 144.6 402.47 145.14 400.51 145.17 400.48 143.46 400.48 143.46"/>
      <path class="cls-20" d="M403.59,144.27c0-.25.4-.45.9-.46s.91.19.91.43-.4.45-.9.46-.91-.19-.91-.43h0ZM402.5,144.29c0-.55.88-1.01,1.99-1.02s2.01.42,2.01.97-.88,1.01-1.99,1.02c-1.1.02-2.01-.42-2.01-.97h0Z"/>
      <path class="cls-20" d="M407.72,144.01c0-.14.24-.25.54-.26s.54.1.54.24-.24.25-.54.26-.54-.1-.54-.24h0ZM406.59,143.66s.38-.32,1.27-.34h.77s1.19.02,1.23.58v.14s-.09.35-.66.47l.57.44-.82.35-1.19-.8v.56s-1.17.02-1.17.02v-1.4s0-.03,0-.03h0Z"/>
    </g>
    <g>
      <path class="cls-6" d="M352.12,159.25c.13.09.31.17.51.17.29,0,.46-.18.46-.44,0-.24-.12-.38-.42-.52-.36-.15-.58-.37-.58-.73,0-.4.29-.7.72-.7.23,0,.39.06.49.13l-.08.27c-.07-.05-.22-.12-.42-.12-.3,0-.42.21-.42.39,0,.24.13.36.44.5.37.17.56.38.56.76,0,.4-.25.75-.77.75-.21,0-.45-.07-.56-.17l.07-.28Z"/>
      <path class="cls-6" d="M354.92,158.45h-.86v.93h.96v.28h-1.24v-2.59h1.19v.28h-.91v.82h.86v.28Z"/>
      <path class="cls-6" d="M355.9,159.66l-.72-2.59h.31l.34,1.28c.1.35.18.67.24.97h0c.06-.3.15-.63.25-.96l.37-1.28h.31l-.79,2.59h-.31Z"/>
      <path class="cls-6" d="M358.39,158.45h-.86v.93h.96v.28h-1.24v-2.59h1.19v.28h-.91v.82h.86v.28Z"/>
      <path class="cls-6" d="M358.86,159.66v-2.59h.31l.71,1.31c.16.3.29.58.4.84h0c-.03-.35-.03-.67-.03-1.07v-1.08h.27v2.59h-.29l-.7-1.31c-.15-.29-.3-.58-.41-.87h0c.02.33.02.64.02,1.07v1.11h-.27Z"/>
      <path class="cls-6" d="M349.91,163.11c.13.09.31.17.51.17.29,0,.46-.18.46-.44,0-.24-.12-.38-.42-.52-.36-.15-.58-.37-.58-.73,0-.4.29-.7.72-.7.23,0,.39.06.49.13l-.08.27c-.07-.05-.22-.12-.42-.12-.3,0-.42.21-.42.39,0,.24.13.36.44.5.37.17.56.38.56.76,0,.4-.25.75-.77.75-.21,0-.45-.07-.56-.17l.07-.28Z"/>
      <path class="cls-6" d="M352.71,162.3h-.86v.93h.96v.28h-1.24v-2.59h1.19v.28h-.91v.82h.86v.28Z"/>
      <path class="cls-6" d="M354.72,163.43c-.1.06-.31.12-.58.12-.62,0-1.09-.46-1.09-1.31s.47-1.36,1.15-1.36c.28,0,.45.07.52.12l-.07.27c-.11-.06-.26-.11-.45-.11-.52,0-.86.39-.86,1.07,0,.63.31,1.04.85,1.04.17,0,.35-.04.47-.11l.06.27Z"/>
      <path class="cls-6" d="M356.9,162.19c0,.89-.46,1.37-1.03,1.37s-.99-.53-.99-1.32.44-1.36,1.03-1.36.99.54.99,1.31ZM355.18,162.23c0,.55.26,1.05.71,1.05s.71-.49.71-1.08c0-.52-.23-1.05-.71-1.05s-.71.51-.71,1.08Z"/>
      <path class="cls-6" d="M357.27,163.51v-2.59h.31l.71,1.31c.16.3.29.58.4.84h0c-.03-.35-.03-.67-.03-1.07v-1.08h.27v2.59h-.29l-.7-1.31c-.15-.29-.3-.58-.41-.87h0c.02.33.02.64.02,1.07v1.11h-.27Z"/>
      <path class="cls-6" d="M359.42,160.96c.17-.03.38-.05.61-.05.41,0,.7.11.9.32.2.21.31.51.31.93s-.11.77-.32,1.01c-.21.24-.55.37-.98.37-.2,0-.37-.01-.52-.03v-2.55ZM359.71,163.25c.07.02.18.02.29.02.61,0,.94-.4.94-1.1,0-.61-.29-1-.9-1-.15,0-.26.02-.33.03v2.05Z"/>
      <path class="cls-6" d="M361.57,163.11c.13.09.31.17.51.17.29,0,.46-.18.46-.44,0-.24-.12-.38-.42-.52-.36-.15-.58-.37-.58-.73,0-.4.29-.7.72-.7.23,0,.39.06.49.13l-.08.27c-.07-.05-.22-.12-.42-.12-.3,0-.42.21-.42.39,0,.24.13.36.44.5.37.17.56.38.56.76,0,.4-.25.75-.77.75-.21,0-.45-.07-.56-.17l.07-.28Z"/>
    </g>
    <text class="cls-10" transform="translate(17.32 253.37) scale(.85 1)"><tspan x="0" y="0">S</tspan><tspan class="cls-50" x="1.9" y="0">T</tspan><tspan x="3.71" y="0">O</tspan><tspan class="cls-76" x="6.36" y="0">R</tspan><tspan class="cls-79" x="8.46" y="0">A</tspan><tspan x="10.75" y="0">GE</tspan></text>
    <text class="cls-7" transform="translate(327.44 164.14) scale(.47 1)"><tspan x="0" y="0">TELENOR</tspan></text>
    <g>
      <path class="cls-6" d="M250.4,138.16h-1.38v2.74h1.54v.82h-2v-7.59h1.92v.82h-1.46v2.4h1.38v.81Z"/>
      <path class="cls-6" d="M251.15,141.71v-7.59h.5l1.14,3.84c.26.89.47,1.69.64,2.47h.01c-.04-1.02-.05-1.95-.05-3.13v-3.18h.43v7.59h-.46l-1.13-3.85c-.25-.84-.48-1.71-.66-2.53h-.02c.03.97.04,1.88.04,3.14v3.24h-.43Z"/>
      <path class="cls-6" d="M257.31,141.38c-.21.16-.61.42-1.09.42-.54,0-.98-.29-1.33-1-.31-.63-.5-1.64-.5-2.83,0-2.26.73-3.92,1.92-3.92.41,0,.73.19.88.35l-.11.8c-.19-.18-.43-.33-.78-.33-.86,0-1.43,1.15-1.43,3.05s.54,3.06,1.37,3.06c.3,0,.51-.09.61-.2v-2.26h-.72v-.79h1.17v3.65Z"/>
      <path class="cls-6" d="M258.01,134.12h.46v6.77h1.52v.82h-1.97v-7.59Z"/>
      <path class="cls-6" d="M260.95,134.12v7.59h-.46v-7.59h.46Z"/>
      <path class="cls-6" d="M261.69,140.52c.21.27.51.5.82.5.47,0,.74-.53.74-1.29,0-.71-.19-1.11-.67-1.51-.58-.44-.94-1.08-.94-2.15,0-1.18.46-2.06,1.15-2.06.36,0,.63.18.78.37l-.13.8c-.12-.14-.35-.36-.67-.36-.48,0-.67.62-.67,1.14,0,.71.22,1.06.71,1.46.6.5.91,1.11.91,2.23,0,1.17-.41,2.19-1.24,2.19-.34,0-.72-.21-.91-.48l.12-.82Z"/>
      <path class="cls-6" d="M264.8,134.12v3.18h1.72v-3.18h.46v7.59h-.46v-3.56h-1.72v3.56h-.46v-7.59h.46Z"/>
      <path class="cls-6" d="M251.69,147.63v3.18h1.72v-3.18h.46v7.59h-.46v-3.56h-1.72v3.56h-.46v-7.59h.46Z"/>
      <path class="cls-6" d="M257.7,151.35c0,2.61-.74,4-1.65,4s-1.6-1.55-1.6-3.85c0-2.41.7-3.99,1.65-3.99s1.59,1.59,1.59,3.84ZM254.94,151.47c0,1.62.41,3.07,1.13,3.07s1.14-1.43,1.14-3.15c0-1.51-.37-3.09-1.13-3.09s-1.14,1.5-1.14,3.16Z"/>
      <path class="cls-6" d="M261.28,151.89c-.03-1.06-.06-2.33-.05-3.28h-.02c-.12.89-.27,1.84-.45,2.88l-.63,3.68h-.35l-.57-3.61c-.17-1.07-.31-2.05-.41-2.95h-.01c-.01.95-.04,2.22-.07,3.36l-.09,3.25h-.44l.25-7.59h.58l.61,3.67c.15.93.27,1.77.36,2.56h.02c.09-.77.22-1.6.37-2.56l.63-3.67h.58l.22,7.59h-.45l-.09-3.33Z"/>
      <path class="cls-6" d="M264.35,151.66h-1.38v2.74h1.54v.82h-2v-7.59h1.92v.82h-1.46v2.4h1.38v.81Z"/>
    </g>
    <g id="LOGO">
      <path class="cls-6" d="M196.28,529.1c-.12-.02-.68-.12-1.34-.12s-1.22.09-1.34.12c-.07,0-.09-.05-.04-.09.05-.03,1.38-1.05,1.38-1.05,0,0,1.33,1.01,1.38,1.05.05.04.03.1-.04.09M193.97,535.69s-.07.02-.09.09c.28.22.47.71,1.05.71s.78-.49,1.06-.71c-.02-.06-.09-.09-.09-.09,0,0-.36.08-.97.08s-.97-.08-.97-.08M194.94,534.87c-.16,0-.2-.06-.31-.06s-.31.08-.35.16c0,.04.02.07.04.11.24.03.34.16.62.16s.38-.13.62-.16c.03-.03.04-.07.05-.11-.04-.08-.25-.16-.35-.16-.11,0-.15.06-.31.06M208.23,537.38c-.02.32-.05.63-.09.95-1.5.25-2.04-1.09-3.59-1.03.09.33.17.66.22,1,1.27,0,1.79,1.19,3.2,1.01-.07.37-.16.72-.27,1.08-1.12.11-1.51-1-2.81-.97.01.18.02.37.02.56,0,.1,0,.21,0,.31,1.1-.01,1.46,1.01,2.52.96-.13.36-.28.71-.44,1.05-.76-.04-1.02-1.01-2.17-.93-.03.25-.08.5-.13.74,1-.07,1.22.85,1.93.93-.18.33-.38.66-.59.97-.42-.23-.79-.91-1.6-.96.08-.26.15-.51.22-.78-.71,0-1.53-.28-2.21-.9.22-1.26-1.74-2.55-1.74-3.47,0-1,.51-1.56.51-2.91,0-1.01-.49-2.1-1.22-2.84-.14-.15-.29-.26-.46-.37.68.84,1.2,1.83,1.2,2.98,0,1.28-.59,1.95-.59,3.12s1.72,2.2,1.72,3.41c0,.48-.15.94-.65,1.86.77.77,1.78,1.19,2.43,1.19.21,0,.32-.06.4-.23.07-.14.13-.29.18-.43.7.03,1.02.66,1.41.92-.21.29-.44.56-.67.83-.26-.29-.61-.77-1.12-.91-.09.18-.19.35-.29.52.44.12.74.57.97.86-.25.26-.51.51-.78.75-.17-.26-.43-.6-.73-.78-.11.15-.22.29-.34.43.25.17.48.48.62.73-.31.25-.64.49-.98.71-.17-1.35-2.01-2.28-1.51-3.85-.16.28-.36.62-.36,1.04,0,1.13,1.21,2.03,1.31,3.16-.25.15-.51.29-.77.42-.04-1.24-1.32-2.6-1.32-3.62,0-1.13,1.49-2.28,1.49-3.62s-1.72-2.27-1.72-3.45.73-1.86.73-3.37c0-1.11-.52-2.22-1.34-2.94-.14-.13-.28-.23-.45-.32.77.92,1.21,1.75,1.21,3.01,0,1.42-.84,2.21-.84,3.6s1.68,2.16,1.68,3.46-1.57,2.39-1.57,3.72c0,1.21,1.38,2.42,1.4,3.86-.3.13-.61.25-.92.36.18-1.45-1.38-2.95-1.38-4.13,0-1.29,1.63-2.41,1.63-3.8s-1.65-2.05-1.65-3.48,1.01-2.23,1.01-3.81c0-1.23-.61-2.34-1.5-3.03-.02-.02-.04-.03-.06-.04-.08-.06-.15.01-.09.09.63.79.97,1.58.97,2.76,0,1.45-1.17,2.63-1.17,4.03,0,1.65,1.57,2.13,1.57,3.49s-1.68,2.44-1.68,3.89c0,1.34,1.59,2.82,1.31,4.36-.32.08-.64.16-.97.22.3-1.92-1.26-3.3-1.26-4.56,0-1.36,1.74-2.57,1.74-3.9,0-1.25-1.25-1.66-1.41-2.95-.02-.18-.16-.3-.36-.28-.25.05-.58.22-1.09.22s-.84-.17-1.09-.22c-.19-.03-.34.1-.36.28-.16,1.28-1.41,1.69-1.41,2.95,0,1.33,1.74,2.54,1.74,3.9,0,1.26-1.56,2.64-1.26,4.56-.33-.06-.65-.13-.97-.22-.27-1.54,1.32-3.03,1.32-4.36,0-1.44-1.68-2.53-1.68-3.89s1.57-1.83,1.57-3.49c0-1.4-1.17-2.58-1.17-4.03,0-1.18.34-1.97.97-2.76.06-.07,0-.15-.09-.09-.02.01-.04.03-.06.04-.89.69-1.5,1.8-1.5,3.03,0,1.58,1.02,2.38,1.02,3.81s-1.65,2.08-1.65,3.48,1.63,2.51,1.63,3.8c0,1.19-1.55,2.68-1.38,4.13-.31-.11-.62-.23-.92-.36.02-1.44,1.4-2.64,1.4-3.86,0-1.33-1.57-2.42-1.57-3.72s1.68-2.07,1.68-3.46-.84-2.18-.84-3.6c0-1.26.44-2.09,1.21-3.01-.17.09-.31.19-.46.32-.81.72-1.34,1.83-1.34,2.94,0,1.51.73,2.19.73,3.37s-1.72,2.11-1.72,3.45,1.49,2.48,1.49,3.62c0,1.02-1.28,2.37-1.32,3.62-.26-.13-.52-.28-.77-.42.1-1.13,1.31-2.03,1.31-3.16,0-.42-.19-.76-.36-1.04.5,1.57-1.35,2.5-1.51,3.85-.34-.22-.66-.46-.97-.71.14-.25.37-.56.62-.73-.12-.14-.23-.28-.34-.43-.3.18-.56.52-.73.78-.27-.24-.53-.49-.78-.75.23-.29.53-.73.97-.86-.1-.17-.2-.34-.29-.52-.51.13-.86.62-1.12.91-.23-.27-.46-.54-.67-.83.39-.25.71-.89,1.41-.92.06.15.12.29.18.43.08.17.19.23.4.23.65,0,1.66-.42,2.43-1.19-.5-.92-.65-1.38-.65-1.86,0-1.21,1.72-2.23,1.72-3.41s-.59-1.85-.59-3.12c0-1.15.52-2.14,1.19-2.98-.17.1-.31.22-.46.37-.74.74-1.22,1.83-1.22,2.84,0,1.35.51,1.91.51,2.91,0,.93-1.96,2.21-1.74,3.47-.68.62-1.5.9-2.21.9.06.26.13.52.22.78-.8.04-1.17.73-1.6.96-.21-.31-.41-.64-.59-.97.72-.07.93-1,1.93-.93-.05-.24-.1-.49-.13-.74-1.15-.08-1.41.89-2.17.93-.16-.34-.31-.69-.44-1.05,1.05.05,1.41-.97,2.52-.96,0-.1,0-.21,0-.31,0-.19,0-.37.02-.56-1.29-.03-1.69,1.08-2.81.97-.1-.35-.19-.71-.27-1.08,1.41.18,1.93-1.01,3.2-1.01.06-.34.13-.67.23-1-1.54-.07-2.08,1.28-3.59,1.03-.04-.31-.07-.63-.09-.95,1.75.2,2.41-1.24,4-1.07.15-.38.33-.75.52-1.1-2-.35-2.68,1.32-4.54,1.06.2-7.18,6.08-12.93,13.3-12.93s13.11,5.76,13.31,12.93c-1.86.26-2.54-1.42-4.54-1.06.19.35.37.72.52,1.1,1.59-.17,2.25,1.26,4,1.07M189.22,531.8c-.98-.4-2.17-.31-3.18.34-.16-.94-.67-1.78-1.4-2.29-.1-.07-.2,0-.2.11.15,1.99-1.01,3.72-2.44,5.24,1.48.44,2.73-1.46,4.65-.79.69-1.02,1.56-1.91,2.57-2.62M194.94,530.6c-1.23,0-2.27.7-2.54,1.6-.02.07,0,.11.09.08.22-.1.48-.15.75-.15.5,0,.95.19,1.21.51.12.38.13.94,0,1.25-.21-.05-.28-.21-.49-.21s-.36.14-.7.14-.38-.16-.61-.16c-.27,0-.31.27-.31.58,0,1.37,1.27,3.27,2.61,3.27s2.61-1.9,2.61-3.27c0-.31-.06-.57-.34-.61-.14.1-.27.19-.58.19-.34,0-.44-.14-.64-.14-.24,0-.22.51-.51.55-.19-.47-.2-1.06-.04-1.59.26-.32.71-.51,1.21-.51.28,0,.53.05.75.15.08.04.11,0,.09-.08-.27-.9-1.31-1.6-2.54-1.6M196.91,532.57c-.3,0-.64.09-.86.33-.02.07-.02.16,0,.23.54-.18,1.01-.19,1.24.06.12-.11.16-.21.16-.32,0-.18-.18-.3-.55-.3M192.58,533.2c.26-.26.81-.25,1.37-.04.03-.28-.48-.59-.99-.59-.37,0-.55.12-.55.3,0,.11.04.22.16.32M201.1,528.54c-.98.07-1.82.4-2.51.96.29-.82.66-1.55,1.13-2.25-1.24.13-2.28.59-3.04,1.36l-.59-1.55,1.32-1.16-1.76-.13-.71-1.64-.7,1.64-1.76.13,1.31,1.16-.59,1.55c-.76-.77-1.8-1.23-3.04-1.36.47.7.84,1.42,1.13,2.25-.69-.56-1.53-.9-2.51-.96.59.75,1.1,1.56,1.49,2.42.04.1.14.13.24.08,1.34-.66,2.84-1.04,4.44-1.04s3.1.37,4.44,1.04c.1.05.19.02.24-.08.38-.86.9-1.66,1.49-2.42M203.23,534.42c1.91-.66,3.17,1.24,4.65.79-1.43-1.52-2.6-3.25-2.44-5.24,0-.12-.1-.18-.19-.11-.73.51-1.24,1.34-1.4,2.29-1.01-.65-2.2-.74-3.18-.34,1.01.71,1.88,1.6,2.57,2.62"/>
    </g>
    <text class="cls-8" transform="translate(186.74 485.84) scale(.47 1)"><tspan x="0" y="0">VINOPO</tspan><tspan class="cls-72" x="31.03" y="0">L</tspan><tspan x="34.61" y="0">Y</tspan></text>
    <text class="cls-8" transform="translate(258.56 519.88) scale(.47 1)"><tspan x="0" y="0">SUB</tspan><tspan class="cls-36" x="15.51" y="0">R</tspan><tspan x="20.52" y="0">A</tspan></text>
    <text class="cls-13" transform="translate(290.27 538.97) scale(.62 1)"><tspan x="0" y="0">G</tspan><tspan class="cls-73" x="6.77" y="0">R</tspan><tspan class="cls-37" x="12.46" y="0">AND OPTICS</tspan></text>
    <g>
      <path class="cls-6" d="M357,423.86h.44v3.5h.02c.09-.28.18-.54.27-.78l1.04-2.73h.54l-1.23,3.08,1.32,4.18h-.52l-1.12-3.57-.32.8v2.77h-.44v-7.26Z"/>
      <path class="cls-6" d="M360.17,423.86v7.26h-.44v-7.26h.44Z"/>
      <path class="cls-6" d="M360.93,423.95c.27-.09.58-.15.93-.15.63,0,1.08.31,1.37.9.3.59.48,1.43.48,2.61s-.17,2.15-.49,2.82c-.32.68-.84,1.04-1.5,1.04-.31,0-.57-.03-.8-.09v-7.14ZM361.37,430.37c.11.04.27.05.44.05.94,0,1.45-1.12,1.45-3.08,0-1.71-.45-2.8-1.37-2.8-.23,0-.4.04-.51.1v5.73Z"/>
      <path class="cls-6" d="M364.23,429.98c.2.26.48.47.79.47.45,0,.71-.51.71-1.24,0-.68-.18-1.07-.64-1.44-.55-.42-.9-1.03-.9-2.06,0-1.13.44-1.97,1.1-1.97.35,0,.6.17.75.36l-.12.76c-.11-.13-.34-.34-.64-.34-.46,0-.64.59-.64,1.09,0,.68.21,1.01.67,1.4.57.47.87,1.07.87,2.13,0,1.12-.39,2.09-1.19,2.09-.33,0-.69-.2-.87-.46l.11-.79Z"/>
      <path class="cls-6" d="M352.44,436.79h1.83v.79h-1.39v2.41h1.28v.78h-1.28v3.29h-.44v-7.26Z"/>
      <path class="cls-6" d="M355.04,441.77l-.35,2.28h-.45l1.15-7.26h.53l1.16,7.26h-.47l-.36-2.28h-1.2ZM356.16,441.03l-.33-2.09c-.08-.47-.13-.9-.18-1.33h0c-.05.43-.11.87-.17,1.31l-.33,2.1h1.02Z"/>
      <path class="cls-6" d="M357.52,442.91c.2.26.48.47.79.47.45,0,.71-.51.71-1.24,0-.68-.18-1.07-.64-1.44-.55-.42-.9-1.03-.9-2.06,0-1.13.44-1.97,1.1-1.97.35,0,.6.17.75.36l-.12.76c-.11-.13-.34-.34-.64-.34-.46,0-.64.59-.64,1.09,0,.68.21,1.01.67,1.4.57.47.87,1.07.87,2.13,0,1.12-.39,2.09-1.19,2.09-.33,0-.69-.2-.87-.46l.11-.79Z"/>
      <path class="cls-6" d="M360.5,436.79v3.04h1.64v-3.04h.44v7.26h-.44v-3.4h-1.64v3.4h-.44v-7.26h.44Z"/>
      <path class="cls-6" d="M363.78,436.79v7.26h-.44v-7.26h.44Z"/>
      <path class="cls-6" d="M367.45,440.34c0,2.5-.71,3.82-1.58,3.82s-1.53-1.49-1.53-3.68c0-2.31.67-3.81,1.58-3.81s1.53,1.52,1.53,3.67ZM364.81,440.46c0,1.55.39,2.94,1.08,2.94s1.09-1.37,1.09-3.02c0-1.44-.35-2.95-1.08-2.95s-1.09,1.43-1.09,3.03Z"/>
      <path class="cls-6" d="M368.02,444.05v-7.26h.48l1.09,3.67c.25.85.45,1.62.61,2.36h0c-.04-.98-.05-1.86-.05-2.99v-3.04h.41v7.26h-.44l-1.08-3.68c-.24-.81-.46-1.64-.63-2.42h-.02c.03.93.04,1.8.04,3.01v3.1h-.41Z"/>
    </g>
    <text class="cls-8" transform="translate(351.58 526.88) scale(.47 1)"><tspan x="0" y="0">VI</tspan><tspan class="cls-64" x="7.35" y="0">V</tspan><tspan class="cls-67" x="11.97" y="0">A</tspan><tspan class="cls-62" x="17.47" y="0">C</tspan><tspan class="cls-44" x="22.63" y="0">OM</tspan></text>
    <text class="cls-8" transform="translate(391.26 517.68) scale(.47 1)"><tspan class="cls-62" x="0" y="0">C</tspan><tspan x="5.15" y="0">CB</tspan></text>
    <g>
      <path class="cls-6" d="M270.38,437.62c.08,0,.16,0,.24,0v2.61c-.08,0-.16,0-.24,0,0-.11,0-.22,0-.32-.12.15-.29.28-.48.33-.24.07-.52.05-.74-.08-.26-.15-.45-.42-.49-.72-.03-.22,0-.46.12-.65.14-.23.36-.41.62-.47.19-.04.4-.03.59.04.16.07.29.19.39.32,0-.36,0-.71,0-1.07ZM269.53,438.54c-.06,0-.12.03-.18.05-.27.12-.45.41-.45.7,0,.17.06.34.17.48.11.14.27.24.44.27.29.06.62-.08.77-.33.11-.18.14-.4.09-.6-.04-.2-.17-.37-.35-.48-.15-.09-.33-.11-.5-.09Z"/>
      <path class="cls-6" d="M259.84,437.66c.14-.04.3.07.31.22.02.14-.11.28-.25.27-.13,0-.26-.11-.26-.24,0-.12.09-.23.2-.25Z"/>
      <path class="cls-6" d="M271.5,437.68c.06-.02.12-.01.18.02.05.03.09.09.09.15,0,.06-.02.13-.06.17-.06.06-.15.07-.22.04-.07-.03-.12-.11-.12-.19,0-.08.06-.16.13-.19Z"/>
      <path class="cls-6" d="M261.49,438.34c.16-.06.34-.06.5,0,.15.06.28.17.34.32.06.15.05.31.05.46v1.1c-.16,0-.31,0-.47,0,0-.29,0-.57,0-.86,0-.12,0-.24-.02-.36-.01-.08-.05-.17-.12-.22-.08-.06-.18-.07-.27-.05-.1.02-.19.1-.24.19-.04.07-.06.15-.07.23,0,.1,0,.2-.01.3,0,.26,0,.51,0,.77-.16,0-.31,0-.47,0,0-.63,0-1.25,0-1.88.16,0,.31,0,.47,0,0,.06,0,.13,0,.19.09-.08.19-.15.31-.19Z"/>
      <path class="cls-6" d="M263.53,438.38c.16-.08.35-.11.52-.06.12.04.24.11.31.21.04.07.08.14.1.21.08-.14.19-.27.33-.35.15-.09.34-.12.51-.09.15.03.29.13.38.26.1.16.11.36.12.55,0,.37,0,.73,0,1.1-.08,0-.17,0-.25,0,0-.31,0-.62,0-.92,0-.15,0-.29-.02-.44-.01-.09-.06-.17-.13-.23-.09-.08-.22-.11-.34-.1-.2.01-.38.14-.46.32-.06.11-.07.24-.08.36-.02.21,0,.43,0,.64,0,.12,0,.25,0,.37-.08,0-.16,0-.24,0,0-.27,0-.55,0-.82,0-.14,0-.29-.01-.43,0-.08-.02-.17-.06-.24-.06-.11-.18-.18-.3-.2-.15-.02-.3.03-.42.12-.12.09-.19.23-.22.37-.05.23-.03.47-.03.7,0,.16,0,.33,0,.49-.08,0-.16,0-.24,0,0-.63,0-1.25,0-1.88.08,0,.16,0,.24,0,0,.11,0,.22,0,.32.08-.12.18-.23.31-.29Z"/>
      <path class="cls-6" d="M266.84,438.39c.18-.09.39-.11.58-.09.17.02.33.09.46.2.12.1.23.23.29.38.05.13.08.28.08.42-.56,0-1.13,0-1.69,0,0,.16.04.32.13.45.09.13.23.24.38.28.21.06.44.02.62-.1.13-.08.21-.2.28-.33.07.03.14.07.2.11-.07.15-.18.29-.31.38-.14.1-.3.16-.47.18-.21.02-.43,0-.61-.11-.15-.08-.26-.21-.34-.36-.19-.31-.18-.73.01-1.04.09-.15.22-.29.38-.37ZM266.85,438.66c-.14.1-.22.27-.27.43.47,0,.93,0,1.4,0-.03-.12-.08-.24-.17-.34-.24-.26-.68-.31-.96-.09Z"/>
      <path class="cls-6" d="M259.42,438.73c0-.12,0-.24,0-.35.23,0,.46,0,.7,0,0,.62,0,1.23,0,1.85-.15,0-.3,0-.45,0,0-.5,0-1,0-1.5-.08,0-.16,0-.25,0Z"/>
      <path class="cls-6" d="M271.14,438.37c.19,0,.39,0,.58,0,0,.62,0,1.23,0,1.85-.11,0-.22,0-.33,0,0-.53,0-1.05,0-1.58-.08,0-.17,0-.25,0,0-.09,0-.18,0-.28Z"/>
    </g>
    <path class="cls-6" d="M273.11,438.3c.18-.03.37,0,.54.07.16.07.29.19.38.34.12.21.15.46.11.69-.05.3-.25.57-.51.72-.21.13-.47.16-.71.13-.18-.02-.35-.1-.47-.22-.13-.13-.22-.3-.24-.49-.03-.21,0-.42.08-.61.07-.16.19-.3.32-.42.15-.12.32-.2.51-.23ZM273.09,438.74c-.1.02-.2.08-.27.16-.1.11-.16.26-.17.41,0,.1,0,.19.04.28.04.1.13.18.23.22.09.04.2.04.29.02.11-.02.22-.07.3-.15.1-.11.17-.25.18-.4.01-.1,0-.21-.04-.3-.05-.11-.14-.19-.26-.23-.1-.03-.2-.03-.31,0Z"/>
    <text class="cls-1" transform="translate(256.21 413.95) scale(.47 1)"><tspan x="0" y="0">E</tspan><tspan class="cls-58" x="3.73" y="0">C</tspan><tspan x="7.97" y="0">O FRESH</tspan></text>
    <text class="cls-21" transform="translate(261.36 376.32) scale(.47 1)"><tspan x="0" y="0">P</tspan><tspan class="cls-78" x="4.21" y="0">C</tspan><tspan x="9.02" y="0">T</tspan></text>
    <text class="cls-8" transform="translate(304.1 343.32) scale(.36 1)"><tspan class="cls-61" x="0" y="0">T</tspan><tspan class="cls-45" x="3.89" y="0">A</tspan><tspan class="cls-54" x="9.05" y="0">VEX</tspan></text>
    <text class="cls-8" transform="translate(309.95 325.29) scale(.47 1)"><tspan x="0" y="0">RE</tspan><tspan class="cls-60" x="9.5" y="0">F</tspan><tspan x="13.27" y="0">AN</tspan></text>
    <text class="cls-5" transform="translate(549.23 417.24) scale(.47 1)"><tspan x="0" y="0">S</tspan><tspan class="cls-59" x="2.87" y="0">W</tspan><tspan class="cls-75" x="7.48" y="0">A</tspan><tspan class="cls-31" x="11.04" y="0">R</tspan><tspan x="14.2" y="0">OWSKI</tspan></text>
    <text class="cls-8" transform="translate(420.44 251.3) scale(.47 1)"><tspan x="0" y="0">ICENTER</tspan></text>
    <g>
      <path class="cls-6" d="M455.75,238.66c.16-.07.42-.13.68-.13.38,0,.62.14.8.45.15.24.24.61.24,1.1,0,.6-.18,1.12-.49,1.36v.02c.28.15.6.64.6,1.56,0,.53-.1.94-.25,1.24-.2.4-.53.58-1,.58-.26,0-.46-.04-.58-.07v-6.11ZM456.12,241.21h.34c.4,0,.63-.44.63-1.04,0-.73-.26-1.01-.64-1.01-.17,0-.27.03-.33.06v2ZM456.12,244.18c.07.03.18.04.31.04.39,0,.74-.3.74-1.21,0-.85-.34-1.2-.75-1.2h-.31v2.37Z"/>
      <path class="cls-6" d="M458.46,238.58v6.21h-.37v-6.21h.37Z"/>
      <path class="cls-6" d="M459.71,238.58h.37v4.16c0,1.65-.38,2.16-.88,2.16-.14,0-.31-.06-.4-.15l.06-.65c.08.06.19.12.31.12.34,0,.53-.32.53-1.54v-4.09Z"/>
      <path class="cls-6" d="M463.19,241.62c0,2.14-.61,3.27-1.35,3.27s-1.3-1.27-1.3-3.15c0-1.97.57-3.26,1.35-3.26s1.3,1.3,1.3,3.14ZM460.94,241.72c0,1.33.33,2.52.92,2.52s.93-1.17.93-2.58c0-1.24-.3-2.53-.93-2.53s-.93,1.23-.93,2.59Z"/>
      <path class="cls-6" d="M464.05,238.58v3.68c0,1.39.29,1.98.68,1.98.43,0,.71-.61.71-1.98v-3.68h.38v3.62c0,1.91-.47,2.69-1.1,2.69-.59,0-1.04-.73-1.04-2.65v-3.66h.38Z"/>
      <path class="cls-6" d="M453.53,249.73c.16-.07.42-.13.68-.13.38,0,.62.14.8.45.15.24.24.61.24,1.1,0,.6-.18,1.12-.49,1.36v.02c.28.15.6.64.6,1.56,0,.53-.1.94-.25,1.24-.2.4-.53.58-1,.58-.26,0-.46-.04-.58-.07v-6.11ZM453.91,252.27h.34c.4,0,.63-.44.63-1.04,0-.73-.26-1.01-.64-1.01-.17,0-.27.03-.33.06v2ZM453.91,255.25c.07.03.18.04.31.04.39,0,.74-.3.74-1.21,0-.85-.34-1.2-.75-1.2h-.31v2.37Z"/>
      <path class="cls-6" d="M455.87,249.73c.19-.08.46-.13.72-.13.4,0,.66.16.84.51.15.28.23.7.23,1.18,0,.82-.24,1.36-.55,1.59v.03c.22.17.36.61.43,1.25.09.87.16,1.47.22,1.71h-.39c-.05-.18-.11-.71-.19-1.48-.09-.86-.24-1.18-.58-1.21h-.35v2.69h-.37v-6.13ZM456.24,252.56h.38c.4,0,.65-.47.65-1.18,0-.8-.27-1.15-.67-1.16-.18,0-.31.04-.37.07v2.27Z"/>
      <path class="cls-6" d="M458.56,249.65v6.21h-.37v-6.21h.37Z"/>
      <path class="cls-6" d="M461.42,255.58c-.17.13-.5.34-.89.34-.44,0-.8-.24-1.08-.82-.25-.52-.41-1.35-.41-2.31,0-1.85.6-3.21,1.57-3.21.33,0,.6.16.72.29l-.09.65c-.15-.15-.35-.27-.64-.27-.71,0-1.17.94-1.17,2.5s.44,2.51,1.12,2.51c.25,0,.41-.07.5-.17v-1.85h-.59v-.65h.96v2.99Z"/>
      <path class="cls-6" d="M462.37,249.65v6.21h-.37v-6.21h.37Z"/>
      <path class="cls-6" d="M463.58,250.33h-.88v-.68h2.15v.68h-.89v5.53h-.38v-5.53Z"/>
      <path class="cls-6" d="M465.89,250.33h-.88v-.68h2.15v.68h-.89v5.53h-.38v-5.53Z"/>
      <path class="cls-6" d="M468.98,252.95h-1.13v2.24h1.26v.67h-1.63v-6.21h1.57v.67h-1.19v1.96h1.13v.66Z"/>
    </g>
    <text class="cls-4" transform="translate(608.1 252.21) scale(.71 1)"><tspan x="0" y="0">JULIA</tspan><tspan class="cls-70" x="17.74" y="0">N</tspan><tspan x="22.67" y="0">Y</tspan></text>
    <text class="cls-8" transform="translate(552.14 381.61) scale(.47 1)"><tspan class="cls-55" x="0" y="0">P</tspan><tspan x="4.13" y="0">ANDO</tspan><tspan class="cls-36" x="28.33" y="0">R</tspan><tspan class="cls-49" x="33.34" y="0">A</tspan></text>
    <text class="cls-2" transform="translate(706.77 448.36) scale(.66 1)"><tspan x="0" y="0">A 1</tspan></text>
    <text class="cls-8" transform="translate(688.34 506.5) scale(.47 1)"><tspan x="0" y="0">PULSAR</tspan></text>
    <text class="cls-9" transform="translate(754.37 540.86) scale(.47 1)"><tspan x="0" y="0">EFB</tspan><tspan class="cls-65" x="21.26" y="0">E</tspan><tspan class="cls-46" x="28.36" y="0">T</tspan></text>
    <text class="cls-8" transform="translate(702.85 578.48) scale(.47 1)"><tspan class="cls-25" x="0" y="0">C</tspan><tspan x="5.16" y="0">OS</tspan><tspan class="cls-39" x="16.05" y="0">T</tspan><tspan class="cls-49" x="19.94" y="0">A </tspan><tspan class="cls-30" x="27.54" y="0">C</tspan><tspan class="cls-49" x="32.7" y="0">OFFEE</tspan></text>
    <text class="cls-11" transform="translate(715.25 286.02) scale(.47 1)"><tspan x="0" y="0">DI</tspan><tspan class="cls-48" x="20.72" y="0">K</tspan><tspan class="cls-43" x="33.36" y="0">A</tspan></text>
    <g>
      <polygon class="cls-34" points="232.87 624.34 226.54 628.06 226.45 623.71 232.78 619.98 239.26 623.46 239.35 627.81 232.87 624.34"/>
      <polygon class="cls-34" points="232.99 630.3 226.66 634.03 226.57 629.67 232.9 625.94 239.38 629.42 239.46 633.77 232.99 630.3"/>
      <polygon class="cls-34" points="233.11 636.26 226.77 639.98 226.69 635.64 233.02 631.91 239.49 635.38 239.58 639.73 233.11 636.26"/>
    </g>
    <g>
      <polygon class="cls-34" points="665.68 621.47 659.35 625.2 659.27 620.85 665.6 617.12 672.07 620.6 672.16 624.95 665.68 621.47"/>
      <polygon class="cls-34" points="665.8 627.44 659.47 631.16 659.38 626.81 665.71 623.08 672.19 626.56 672.28 630.91 665.8 627.44"/>
      <polygon class="cls-34" points="665.92 633.4 659.58 637.12 659.5 632.78 665.83 629.05 672.31 632.52 672.39 636.87 665.92 633.4"/>
    </g>
    <path class="cls-34" d="M454.05,337.78c0-1.12-.91-2.02-2.02-2.02h-13.19c-1.12,0-2.02.9-2.02,2.02v13.19c0,1.12.9,2.02,2.02,2.02h13.19c1.12,0,2.02-.9,2.02-2.02v-13.19ZM449.19,338.32c.56,0,1.01.45,1.01,1.01s-.45,1.01-1.01,1.01-1.01-.45-1.01-1.01.45-1.01,1.01-1.01ZM441.41,338.32c.56,0,1.01.45,1.01,1.01s-.45,1.01-1.01,1.01-1.01-.45-1.01-1.01.45-1.01,1.01-1.01ZM443.42,341.2l-.28,3.37c-.02.22-.15.39-.36.47h0c-.2.08-.34.27-.35.48l-.26,4.38c-.02.29-.26.53-.56.53h-.38c-.3,0-.54-.23-.56-.53l-.26-4.38c-.01-.22-.15-.41-.35-.48-.2-.07-.34-.26-.36-.48l-.28-3.37c-.02-.28.16-.53.44-.59l.28-.06c.19-.04.38.01.51.15l.39.39c.22.22.57.22.79,0l.39-.39c.14-.14.33-.19.51-.15l.28.06c.25.07.43.32.42.6ZM445.57,350.43c0,.15-.12.27-.27.27s-.27-.12-.27-.27v-12.12c0-.15.13-.27.27-.27s.27.12.27.27v12.12ZM451.16,345.05c-.19.05-.31.23-.28.42l.12.87c.03.2-.11.4-.32.43l-.26.03c-.17.03-.31.18-.32.35l-.17,2.77c-.02.3-.26.52-.56.52h-.38c-.3,0-.54-.23-.56-.52l-.17-2.77c-.01-.18-.15-.32-.32-.35l-.26-.03c-.2-.03-.35-.22-.32-.43l.12-.87c.03-.19-.09-.37-.28-.42-.19-.05-.32-.24-.27-.44l.76-3.61c.05-.26.35-.39.57-.24l.72.46c.12.08.28.08.41,0l.71-.46c.22-.14.52-.02.57.24l.76,3.61c.03.19-.09.39-.28.44Z"/>
    <path class="cls-34" d="M306.73,43.18l1.54-2.3c.86-1.3,2.32-2.07,3.87-2.07h24.61c1.56,0,3.01.78,3.87,2.07l1.54,2.3c.79-.11,1.57-.25,2.35-.42l9.43-2.09v-7.28c-.3.09-.61.17-.93.25-1.77.41-3.32.52-5.28.52-1.01,0-2.55-.11-3.8-.31-1.74-.28-2.95-.65-3.54-1.44-2.73,1.07-5.7,1.42-8.61,1.01-3.84-.54-6.31-.82-7.32-.82-1.01,0-3.49.27-7.33.82-3,.42-6.05.04-8.85-1.1-.03.02-.07.05-.1.07-.94.56-2.04.97-3.27,1.25-1.77.41-3.32.52-5.28.52-1.01,0-2.55-.11-3.8-.31-.3-.05-.58-.1-.85-.15v6.98s9.43,2.09,9.43,2.09c.78.17,1.56.31,2.35.42ZM310.28,43.45c.17,0,.34,0,.5,0h27.33c.17,0,.34,0,.5,0l-.57-.86c-.29-.43-.77-.69-1.29-.69h-24.61c-.52,0-1,.26-1.29.69l-.57.86ZM294.96,30.46c.32.11.78.22,1.35.31,1.07.17,2.45.27,3.31.27,1.74,0,3.1-.09,4.58-.44.06-.01.12-.03.18-.04-3.49-1.44-6.63-2.29-9.41-2.54,0,.05,0,.09,0,.14v2.3ZM291.85,31.04s0,0,0,0v-2.88c0-1.06.27-2.11.79-3.03l2.99-5.34-5.6-.89h0c-.13-.02-.25-.06-.37-.12-.63-.31-.88-1.08-.57-1.71l.46-.91c.2-.41.57-.7,1.01-.81h0l4.1-1.03c.79-.2,1.61.25,1.85,1.03h0l.51,1.58,4.3-11.83C302.44,2.04,305.35,0,308.62,0h31.66c3.26,0,6.18,2.04,7.29,5.11l4.19,11.53.31-1.2c.21-.82,1.04-1.31,1.86-1.12l4.35,1.04c.44.1.81.39,1.01.79l.49.93c.32.62.09,1.38-.53,1.7-.12.06-.25.11-.39.13l-5.61.89,2.99,5.34c.52.93.79,1.97.79,3.03v2.83s0,.07,0,.11v9.26s0,6.21,0,6.21c0,2.57-2.08,4.66-4.66,4.66h-7.76c-2.57,0-4.66-2.08-4.66-4.66,0-.02,0-.04,0-.05-.62.04-1.24.05-1.86.05h-27.33c-.62,0-1.24-.02-1.86-.05,0,.02,0,.04,0,.05,0,2.57-2.08,4.66-4.66,4.66h-7.76c-2.57,0-4.66-2.08-4.66-4.66v-6.21s0-9.31,0-9.31ZM353.93,30.09v-1.93s0-.09,0-.13c-2.91.28-6.18,1.17-9.8,2.7.09.02.19.03.29.05,1.07.17,2.45.27,3.31.27,1.74,0,3.1-.09,4.58-.44.6-.14,1.14-.31,1.63-.52ZM296.25,25.04c3.7.49,7.84,1.84,12.41,4.05,2.49,1.2,5.28,1.63,8.02,1.25,3.99-.56,6.55-.85,7.76-.85s3.77.28,7.76.85c2.74.39,5.53-.05,8.02-1.25,4.55-2.19,8.69-3.54,12.43-4.04l-2.64-4.71-6.97,1.16c-.93.15-1.87.23-2.81.23h-31.57c-.94,0-1.88-.08-2.81-.23l-6.97-1.16-2.63,4.7ZM343.02,46.19c.03.12.05.24.05.37,0,.86.69,1.55,1.55,1.55h7.76c.86,0,1.55-.69,1.55-1.55v-2.72s-8.75,1.95-8.75,1.95c-.71.16-1.43.29-2.16.4ZM305.87,46.19c-.72-.11-1.44-.24-2.16-.4l-8.75-1.95v2.72c0,.86.69,1.55,1.55,1.55h7.76c.86,0,1.55-.69,1.55-1.55,0-.13.02-.25.05-.37ZM344.65,6.17c-.67-1.84-2.42-3.06-4.38-3.06h-31.66c-1.96,0-3.71,1.22-4.38,3.06l-4.08,11.23,6.2,1.03c.76.13,1.53.19,2.3.19h31.57c.77,0,1.54-.06,2.3-.19l6.2-1.03-4.08-11.23Z"/>
    <text class="cls-24" transform="translate(380.1 30.1)"><tspan x="0" y="0">x 1200</tspan></text>
    <text class="cls-3" transform="translate(228.02 161.02) rotate(90) scale(.47 1)"><tspan x="0" y="0">ESTIL</tspan></text>
    <text class="cls-15" transform="translate(427.46 152.16) scale(.47 1)"><tspan x="0" y="0">LIL</tspan><tspan class="cls-41" x="23.84" y="0">L</tspan><tspan x="31.66" y="0">Y</tspan></text>
    <text class="cls-23" transform="translate(495.65 162.72) scale(.72 1)"><tspan x="0" y="0">A</tspan><tspan class="cls-51" x="4.34" y="0">R</tspan><tspan class="cls-68" x="8.22" y="0">T 93</tspan></text>
    <text class="cls-22" transform="translate(730.36 224.73) rotate(-90) scale(.75 1)"><tspan class="cls-63" x="0" y="0">C</tspan><tspan x="10.14" y="0">ALLIOPE</tspan></text>
    <text class="cls-2" transform="translate(695.64 482.18) scale(.66 1)"><tspan x="0" y="0">POST BANK</tspan></text>
    <text class="cls-17" transform="translate(89.91 548.92) scale(1.14 1)"><tspan x="0" y="0">IKEA</tspan></text>
    <text class="cls-14" transform="translate(497.57 250.04) scale(.47 1)"><tspan x="0" y="0">K</tspan><tspan class="cls-56" x="3.62" y="0">E</tspan><tspan class="cls-57" x="6.91" y="0">Y</tspan><tspan x="10.44" y="0">SOO</tspan></text>
    <text class="cls-23" transform="translate(467.89 158) scale(.72 1)"><tspan class="cls-66" x="0" y="0">P</tspan><tspan class="cls-68" x="3.18" y="0">ARFOIS</tspan></text>
    <text class="cls-18" transform="translate(256.01 388.66) scale(.77 1)"><tspan class="cls-80" x="0" y="0">K</tspan><tspan x="2.64" y="0">OPCH</tspan><tspan class="cls-52" x="15" y="0">E</tspan><tspan class="cls-38" x="17.55" y="0">T</tspan><tspan class="cls-33" x="19.92" y="0">O</tspan></text>
    <text class="cls-8" transform="translate(697.43 420.9) scale(.47 1)"><tspan x="0" y="0">ZL</tspan><tspan class="cls-81" x="9.45" y="0">A</tspan><tspan x="14.38" y="0">TNA RIB</tspan><tspan class="cls-71" x="44.8" y="0">K</tspan><tspan class="cls-49" x="49.88" y="0">A</tspan></text>
    <g>
      <path class="cls-6" d="M696.33,541.82l2.52-5.59v-.03h-2.3v-.75h3.06v.54l-2.5,5.57v.03h2.54v.75h-3.31v-.52Z"/>
      <path class="cls-6" d="M704.1,538.83c0,2.37-.95,3.63-2.11,3.63s-2.04-1.41-2.04-3.5c0-2.19.9-3.62,2.11-3.62s2.04,1.44,2.04,3.49ZM700.58,538.94c0,1.47.52,2.79,1.45,2.79s1.45-1.3,1.45-2.86c0-1.37-.47-2.8-1.45-2.8s-1.45,1.36-1.45,2.87Z"/>
      <path class="cls-6" d="M708.74,538.83c0,2.37-.95,3.63-2.11,3.63s-2.04-1.41-2.04-3.5c0-2.19.9-3.62,2.11-3.62s2.04,1.44,2.04,3.49ZM705.22,538.94c0,1.47.52,2.79,1.45,2.79s1.45-1.3,1.45-2.86c0-1.37-.47-2.8-1.45-2.8s-1.45,1.36-1.45,2.87Z"/>
      <path class="cls-6" d="M710.85,541.26c.26.25.65.45,1.05.45.6,0,.95-.48.95-1.18,0-.64-.24-1.01-.86-1.37-.74-.4-1.2-.98-1.2-1.95,0-1.07.58-1.87,1.47-1.87.46,0,.8.16,1,.34l-.16.73c-.15-.12-.45-.33-.86-.33-.62,0-.85.56-.85,1.03,0,.64.28.96.9,1.33.77.45,1.16,1.01,1.16,2.02,0,1.06-.52,1.98-1.59,1.98-.44,0-.92-.19-1.16-.44l.15-.75Z"/>
      <path class="cls-6" d="M714.83,535.45v2.88h2.19v-2.88h.59v6.89h-.59v-3.23h-2.19v3.23h-.58v-6.89h.58Z"/>
      <path class="cls-6" d="M722.51,538.83c0,2.37-.95,3.63-2.11,3.63s-2.04-1.41-2.04-3.5c0-2.19.9-3.62,2.11-3.62s2.04,1.44,2.04,3.49ZM718.99,538.94c0,1.47.52,2.79,1.45,2.79s1.45-1.3,1.45-2.86c0-1.37-.47-2.8-1.45-2.8s-1.45,1.36-1.45,2.87Z"/>
      <path class="cls-6" d="M723.27,535.54c.28-.07.65-.13,1.12-.13.58,0,1,.2,1.27.57.25.33.4.83.4,1.44s-.12,1.11-.35,1.47c-.31.5-.81.76-1.39.76-.18,0-.34,0-.47-.06v2.76h-.58v-6.81ZM723.85,538.86c.13.05.29.07.48.07.71,0,1.14-.52,1.14-1.47s-.42-1.35-1.07-1.35c-.26,0-.45.03-.55.07v2.68Z"/>
      <path class="cls-6" d="M691.45,547.81c.36-.08.78-.14,1.24-.14.84,0,1.44.3,1.84.86.4.56.64,1.36.64,2.47s-.23,2.04-.65,2.68c-.42.64-1.12.99-2.01.99-.42,0-.77-.03-1.06-.08v-6.78ZM692.04,553.9c.15.04.36.05.59.05,1.25,0,1.93-1.06,1.93-2.92,0-1.63-.6-2.66-1.84-2.66-.3,0-.53.04-.69.09v5.44Z"/>
      <path class="cls-6" d="M695.93,547.81c.3-.09.72-.14,1.12-.14.63,0,1.03.17,1.31.56.23.31.36.78.36,1.31,0,.91-.38,1.51-.85,1.76v.03c.35.18.56.67.67,1.39.15.96.26,1.63.35,1.89h-.61c-.07-.19-.18-.79-.3-1.65-.13-.95-.38-1.31-.91-1.34h-.55v2.99h-.58v-6.8ZM696.52,550.95h.6c.63,0,1.02-.52,1.02-1.31,0-.89-.42-1.28-1.04-1.29-.28,0-.48.04-.58.08v2.51Z"/>
      <path class="cls-6" d="M699.39,554.08c0-.38.17-.64.4-.64s.4.27.4.64-.15.64-.4.64c-.24,0-.4-.28-.4-.64Z"/>
      <path class="cls-6" d="M702.29,553.52c.26.25.65.45,1.05.45.6,0,.95-.48.95-1.18,0-.64-.24-1.01-.86-1.37-.74-.4-1.2-.98-1.2-1.95,0-1.07.58-1.87,1.47-1.87.46,0,.8.16,1,.34l-.16.73c-.15-.12-.45-.33-.86-.33-.62,0-.85.56-.85,1.03,0,.64.28.96.9,1.33.77.45,1.16,1.01,1.16,2.02,0,1.06-.52,1.98-1.59,1.98-.44,0-.92-.19-1.16-.44l.15-.75Z"/>
      <path class="cls-6" d="M706.55,548.48h-1.38v-.76h3.36v.76h-1.39v6.13h-.59v-6.13Z"/>
      <path class="cls-6" d="M711.39,551.38h-1.76v2.48h1.96v.75h-2.55v-6.89h2.45v.75h-1.86v2.18h1.76v.74Z"/>
      <path class="cls-6" d="M712.35,547.72h2.44v.75h-1.86v2.29h1.72v.74h-1.72v3.12h-.58v-6.89Z"/>
      <path class="cls-6" d="M715.84,552.44l-.47,2.17h-.61l1.54-6.89h.71l1.55,6.89h-.63l-.48-2.17h-1.61ZM717.32,551.75l-.44-1.98c-.1-.45-.17-.86-.24-1.26h-.01c-.07.41-.14.83-.23,1.25l-.44,1.99h1.37Z"/>
      <path class="cls-6" d="M719.22,554.61v-6.89h.64l1.45,3.49c.34.81.6,1.53.81,2.24h.01c-.05-.93-.07-1.77-.07-2.84v-2.88h.55v6.89h-.59l-1.44-3.5c-.32-.77-.62-1.55-.85-2.3h-.02c.03.88.05,1.71.05,2.85v2.94h-.55Z"/>
      <path class="cls-6" d="M727.53,551.09c0,2.37-.95,3.63-2.11,3.63s-2.04-1.41-2.04-3.5c0-2.19.9-3.62,2.11-3.62s2.04,1.44,2.04,3.49ZM724.01,551.2c0,1.47.52,2.79,1.45,2.79s1.45-1.3,1.45-2.86c0-1.37-.47-2.8-1.45-2.8s-1.45,1.36-1.45,2.87Z"/>
      <path class="cls-6" d="M729.28,554.61l-1.48-6.89h.63l.71,3.39c.2.93.36,1.77.48,2.58h.01c.13-.8.32-1.67.52-2.57l.77-3.4h.63l-1.62,6.89h-.65Z"/>
    </g>
    <text class="cls-19" transform="translate(681.42 521.99) scale(.66 1)"><tspan x="0" y="0">HEA</tspan><tspan class="cls-69" x="11.29" y="0">L</tspan><tspan x="13.76" y="0">TH S</tspan><tspan class="cls-32" x="25.67" y="0">T</tspan><tspan x="28.69" y="0">ORE</tspan></text>
    <g>
      <path class="cls-6" d="M323.05,505.61l-1.11-3.91h.6l.52,1.98c.13.49.25.97.32,1.35h.01c.07-.39.21-.85.36-1.36l.58-1.97h.59l.53,1.98c.12.46.24.93.3,1.34h.01c.09-.43.21-.86.35-1.35l.58-1.97h.58l-1.24,3.91h-.59l-.55-2.04c-.14-.5-.23-.88-.28-1.28h-.01c-.08.39-.17.77-.34,1.28l-.62,2.04h-.59Z"/>
      <path class="cls-6" d="M328.15,504.38l-.45,1.23h-.58l1.48-3.91h.68l1.49,3.91h-.6l-.47-1.23h-1.55ZM329.58,503.98l-.43-1.12c-.1-.26-.16-.49-.23-.71h-.01c-.06.23-.14.47-.22.71l-.43,1.13h1.31Z"/>
      <path class="cls-6" d="M331.86,505.61v-1.66l-1.38-2.25h.64l.61,1.08c.17.29.3.53.43.81h.01c.12-.25.27-.51.44-.81l.63-1.08h.64l-1.46,2.24v1.66h-.57Z"/>
      <path class="cls-6" d="M334.23,504.99c.25.14.62.25,1.01.25.58,0,.91-.27.91-.67,0-.37-.23-.57-.82-.78-.71-.23-1.15-.56-1.15-1.11,0-.61.56-1.06,1.41-1.06.45,0,.77.09.96.19l-.16.41c-.14-.07-.43-.19-.83-.19-.6,0-.82.32-.82.59,0,.37.27.54.87.75.74.25,1.11.57,1.11,1.15,0,.6-.5,1.12-1.53,1.12-.42,0-.88-.11-1.11-.25l.14-.42Z"/>
      <path class="cls-6" d="M322.18,511.96c.25.14.62.25,1.01.25.58,0,.91-.27.91-.67,0-.37-.23-.57-.82-.78-.71-.23-1.15-.56-1.15-1.11,0-.61.56-1.06,1.41-1.06.45,0,.77.09.96.19l-.16.41c-.14-.07-.43-.19-.83-.19-.6,0-.82.32-.82.59,0,.37.27.54.87.75.74.25,1.11.57,1.11,1.15,0,.6-.5,1.12-1.53,1.12-.42,0-.88-.11-1.11-.25l.14-.42Z"/>
      <path class="cls-6" d="M326.02,508.66v1.64h2.11v-1.64h.57v3.91h-.57v-1.83h-2.11v1.83h-.56v-3.91h.56Z"/>
      <path class="cls-6" d="M333.4,510.58c0,1.35-.91,2.06-2.02,2.06s-1.96-.8-1.96-1.98c0-1.24.86-2.05,2.02-2.05s1.96.82,1.96,1.98ZM330.01,510.64c0,.83.5,1.58,1.39,1.58s1.4-.74,1.4-1.62c0-.78-.45-1.59-1.39-1.59s-1.4.77-1.4,1.63Z"/>
      <path class="cls-6" d="M334.13,508.71c.27-.04.63-.08,1.08-.08.56,0,.96.12,1.22.33.24.19.38.47.38.82s-.12.63-.34.83c-.3.28-.78.43-1.33.43-.17,0-.32,0-.45-.04v1.57h-.56v-3.86ZM334.69,510.59c.12.03.28.04.47.04.68,0,1.09-.3,1.09-.83s-.41-.77-1.03-.77c-.25,0-.43.02-.53.04v1.52Z"/>
    </g>
    <g>
      <path class="cls-6" d="M483.93,246.21c-.11.08-.31.21-.56.21-.28,0-.5-.15-.68-.5-.16-.31-.26-.82-.26-1.41,0-1.13.38-1.96.99-1.96.21,0,.38.1.46.17l-.06.4c-.1-.09-.22-.16-.4-.16-.45,0-.74.57-.74,1.53s.28,1.53.71,1.53c.16,0,.26-.04.32-.1v-1.13h-.37v-.39h.6v1.82Z"/>
      <path class="cls-6" d="M485.86,244.44c0,1.31-.38,2-.85,2s-.82-.78-.82-1.93c0-1.21.36-1.99.85-1.99s.82.79.82,1.92ZM484.44,244.51c0,.81.21,1.54.58,1.54s.59-.71.59-1.58c0-.75-.19-1.54-.58-1.54s-.59.75-.59,1.58Z"/>
      <path class="cls-6" d="M486.17,242.59h.24v3.38h.78v.41h-1.02v-3.79Z"/>
      <path class="cls-6" d="M487.45,242.64c.14-.05.32-.08.5-.08.34,0,.58.16.74.47.16.31.26.75.26,1.36s-.09,1.13-.26,1.48c-.17.35-.45.55-.81.55-.17,0-.31-.02-.43-.04v-3.73ZM487.68,245.99c.06.02.15.03.24.03.5,0,.78-.59.78-1.61,0-.9-.24-1.46-.74-1.46-.12,0-.21.02-.28.05v3Z"/>
      <path class="cls-6" d="M480.16,251.94l-.19,1.19h-.24l.62-3.79h.29l.62,3.79h-.25l-.2-1.19h-.65ZM480.76,251.56l-.18-1.09c-.04-.25-.07-.47-.1-.69h0c-.03.23-.06.46-.09.69l-.18,1.1h.55Z"/>
      <path class="cls-6" d="M481.52,249.39c.14-.05.32-.08.5-.08.34,0,.58.16.74.47.16.31.26.75.26,1.36s-.09,1.13-.26,1.48c-.17.35-.45.55-.81.55-.17,0-.31-.02-.43-.04v-3.73ZM481.76,252.75c.06.02.15.03.24.03.5,0,.78-.59.78-1.61,0-.9-.24-1.46-.74-1.46-.12,0-.21.02-.28.05v3Z"/>
      <path class="cls-6" d="M483.33,249.39c.14-.05.32-.08.5-.08.34,0,.58.16.74.47.16.31.26.75.26,1.36s-.09,1.13-.26,1.48c-.17.35-.45.55-.81.55-.17,0-.31-.02-.43-.04v-3.73ZM483.57,252.75c.06.02.15.03.24.03.5,0,.78-.59.78-1.61,0-.9-.24-1.46-.74-1.46-.12,0-.21.02-.28.05v3Z"/>
      <path class="cls-6" d="M485.38,249.34v3.79h-.24v-3.79h.24Z"/>
      <path class="cls-6" d="M487.07,253.01c-.09.09-.26.18-.48.18-.52,0-.9-.68-.9-1.92s.39-1.99.96-1.99c.23,0,.37.1.43.17l-.06.4c-.09-.09-.22-.16-.37-.16-.43,0-.71.57-.71,1.57,0,.93.26,1.53.7,1.53.14,0,.29-.06.39-.16l.05.39Z"/>
      <path class="cls-6" d="M487.79,249.76h-.56v-.42h1.36v.42h-.56v3.38h-.24v-3.38Z"/>
      <path class="cls-6" d="M489.74,251.36h-.71v1.37h.79v.41h-1.03v-3.79h.99v.41h-.75v1.2h.71v.41Z"/>
      <path class="cls-6" d="M490.13,249.39c.14-.05.32-.08.5-.08.34,0,.58.16.74.47.16.31.26.75.26,1.36s-.09,1.13-.26,1.48c-.17.35-.45.55-.81.55-.17,0-.31-.02-.43-.04v-3.73ZM490.36,252.75c.06.02.15.03.24.03.5,0,.78-.59.78-1.61,0-.9-.24-1.46-.74-1.46-.12,0-.21.02-.28.05v3Z"/>
    </g>
    <text class="cls-16" transform="translate(303 178.01) rotate(-90) scale(.89 1)"><tspan x="0" y="0">OPTICLASA</tspan></text>
  </g>
  <polygon id="Galleria_Burgas0.002C" class="cls-27" points="10.97 140.53 213.02 140.53 213.02 260.5 145.46 260.5 145.46 226.89 10.97 226.89 10.97 140.53"/>
  <polygon id="Galleria_Burgas0.002B_x5E_S0.6" class="cls-29" points="213.68 327.25 213.68 261.78 144.05 261.65 144.05 227.87 40.43 227.87 40.43 286.55 10.97 286.55 10.97 327.25 213.68 327.25"/>
  <polygon id="Galleria_Burgas0.002A_x5E_NAD_x5F_01" class="cls-29" points="213.02 329.2 10.97 329.2 10.97 372.83 48.16 372.83 48.16 427.11 10.97 427.11 10.97 526.59 68.55 526.59 68.55 493.08 176.34 493.08 176.34 467.37 213.02 467.37 213.02 329.2"/>
  <polygon id="Galleria_Burgas0.001C_x5E_1.002_x5E_NA-Unt" class="cls-29" points="176.34 495.03 176.34 573.08 44.92 589.05 44.92 541.17 69.98 541.17 69.98 495.03 176.34 495.03"/>
  <rect id="Galleria_Burgas0.001B" class="cls-29" x="178.02" y="469.32" width="34.99" height="24.02"/>
  <polygon id="Galleria_Burgas0.001A_x5E_NAD_x5F_47" class="cls-29" points="178.02 495.03 178.02 572.95 213.02 568.53 213.02 495.03 178.02 495.03"/>
  <polygon id="Galleria_Burgas0.056" class="cls-29" points="252.69 492.69 252.69 544.9 276.85 549.76 276.85 492.69 252.69 492.69"/>
  <polygon id="Galleria_Burgas0.052" class="cls-29" points="345.55 492.69 345.55 561.18 376.14 564.89 376.14 492.69 345.55 492.69"/>
  <rect id="Galleria_Burgas0.050" class="cls-29" x="377.64" y="492.69" width="33.35" height="35.38"/>
  <path id="Galleria_Burgas0.042_x5E_1.044" class="cls-29" d="M423.4,492.69v36.33h21.8v12.5h-4.33v30.32c46.7,6.63,176.94,13.4,176.94,13.4v-5.69h25.32v-53.61h4.06v-33.26h-223.78Z"/>
  <path id="Galleria_Burgas0.040_x5E_10.048" class="cls-29" d="M744.36,562v25.04c-14.37.74-38.77.61-47.04.28v-6.63h-17.65v-18.7h64.69Z"/>
  <rect id="Galleria_Burgas0.037" class="cls-29" x="676.26" y="496.45" width="37.73" height="13.25"/>
  <polygon id="Galleria_Burgas0.036_x5E_NAD_x5F_13" class="cls-29" points="676.26 494.81 676.26 461.88 744.36 461.88 744.36 509.71 715.56 509.71 715.56 494.88 676.26 494.81"/>
  <rect id="Galleria_Burgas0.035" class="cls-29" x="676.26" y="428.87" width="68.1" height="31.37"/>
  <rect id="Galleria_Burgas0.034" class="cls-29" x="676.26" y="407.88" width="68.1" height="19.35"/>
  <path id="Galleria_BurgasBA0.08_x5E_BA0.10_x5E_WAD_x5F_23" class="cls-29" d="M745.87,482.81v104.23c8.46-.24,32.48-1.42,32.48-1.42v-107.21h-10.56v4.33l-21.91.07Z"/>
  <polygon id="Galleria_Burgas0.028" class="cls-29" points="676.26 294.86 778.34 294.86 778.34 404.85 763.41 404.85 763.41 395 676.26 395 676.26 294.86"/>
  <polygon id="Galleria_Burgas0.027" class="cls-29" points="676.26 292.85 778.34 292.85 778.34 252.21 761.62 252.21 761.62 260.7 676.26 260.7 676.26 292.85"/>
  <polygon id="Galleria_Burgas0.021" class="cls-29" points="622.75 194.89 578.77 194.89 578.77 104.08 610.83 104.08 610.83 128.71 622.75 128.71 622.75 194.89"/>
  <rect id="Galleria_Burgas0.020" class="cls-29" x="546.61" y="126.31" width="30.56" height="68.57"/>
  <rect id="Galleria_Burgas0.009_x5E_NAD_x5F_41" class="cls-29" x="377.63" y="93.17" width="32.51" height="101.72"/>
  <polygon id="Galleria_Burgas0.008" class="cls-29" points="365.25 195.73 345.65 195.73 345.65 138.57 337.86 138.57 337.86 127.31 366.35 127.31 365.25 195.73"/>
  <polygon id="Galleria_Burgas0.007" class="cls-29" points="336.41 127.31 325.96 127.31 325.96 195.73 344.35 195.73 344.35 140.09 336.46 140.09 336.41 127.31"/>
  <polygon id="Galleria_Burgas0.005" class="cls-29" points="324.44 195.73 277.29 195.73 277.29 93.17 313.51 93.17 313.51 127.31 324.44 127.31 324.44 195.73"/>
  <polygon id="Galleria_Burgas0.004_x5E_WAD_x5F_29" class="cls-29" points="275.72 195.73 241.34 195.73 241.34 137.55 224.98 137.55 224.98 127.31 212.47 127.31 212.47 93.17 275.72 93.17 275.72 195.73"/>
  <rect id="Galleria_Burgas0.003_x5E_S-1.13" class="cls-29" x="224.9" y="139.21" width="14.78" height="56.53"/>
  <path id="Galleria_Burgas0.063" class="cls-29" d="M324.37,330.67v20.27h-42.81c12.12-11.11,18.41-20.27,18.41-20.27h24.41Z"/>
  <path id="Galleria_Burgas0.064" class="cls-29" d="M324.37,329.35h-23.5c12.23-19.05,13.02-22.96,17.15-33.68h6.35v33.68Z"/>
  <path id="Galleria_Burgas0.070_x5E_1.062_x5E_NA-Unt" class="cls-29" d="M325.99,350.94h50.92v-25.65h134.05v-62.88h-34.91v-1.68h-65.73v-21.49c-41.63,5.13-54.65,6.66-84.73,10.8-1.39,21.82-4.09,35.58-7.16,44.1h7.66l-.1,56.81Z"/>
  <polygon id="Galleria_Burgas0.074" class="cls-29" points="411.91 239.24 411.91 259.03 443.93 259.03 443.93 236.35 411.91 239.24"/>
  <path id="Galleria_Burgas0.076_x5E_S-1.07" class="cls-29" d="M445.72,259.03h30.23v-25.06c-7.56.7-30.23,2.39-30.23,2.39v22.67Z"/>
  <path id="Galleria_Burgas0.077" class="cls-29" d="M477.45,233.97v26.76h15.91v-27.96c-3.88-.08-15.91,1.19-15.91,1.19Z"/>
  <path id="Galleria_Burgas0.078" class="cls-29" d="M495.05,232.77v27.96h15.91v-29.15c-7.08-.07-15.91,1.19-15.91,1.19Z"/>
  <polygon id="Galleria_Burgas0.079" class="cls-29" points="512.65 231.58 512.65 318.3 537.41 318.3 537.41 312.13 544.97 312.13 544.97 230.39 512.65 231.58"/>
  <polygon id="Galleria_Burgas0.080" class="cls-29" points="546.46 230.03 546.46 260.22 577.19 260.22 577.19 229.79 546.46 230.03"/>
  <rect id="Galleria_Burgas0.082" class="cls-29" x="578.77" y="229.79" width="23.08" height="29.98"/>
  <polygon id="Galleria_Burgas0.083" class="cls-29" points="603.44 229.79 603.44 259.76 637.06 259.76 637.06 251.41 615.36 229.71 603.44 229.79"/>
  <path id="Galleria_Burgas0.088" class="cls-29" d="M587.95,362.42h-41.49v31.4h24.65c5.15-14.79,16.83-31.4,16.83-31.4Z"/>
  <path id="Galleria_Burgas0.090" class="cls-29" d="M546.46,396.12v45.2l17.49-2.63c1.79-31.07,7.17-42.57,7.17-42.57h-24.65Z"/>
  <path id="Galleria_Burgas0.092" class="cls-29" d="M544.21,362.42h-31.56v50.44h-33.53v37.3c41.95-4.04,65.09-8.84,65.09-8.84v-78.9Z"/>
  <path id="Galleria_Burgas0.094_x5E_S-1.17" class="cls-29" d="M510.96,362.42h-130.86v94.39c49.54-.37,96.88-6.65,96.88-6.65v-39.27h33.98v-48.46Z"/>
  <path id="Galleria_Burgas0.096_x5E_NAD_x5F_07" class="cls-29" d="M378.19,362.42h-99.61v96.7c25.64.64,64.95-1.19,64.95-1.19v-47.05h34.66v-48.46Z"/>
  <path id="Galleria_Burgas0.095" class="cls-29" d="M345.43,412.86h32.76v43.95c-12.33.95-32.76,1.12-32.76,1.12v-45.08Z"/>
  <polygon id="Galleria_Burgas0.058_x5E_S-1.2" class="cls-29" points="276.85 459.12 274.77 459.12 252.54 436.9 252.54 428.39 276.85 428.39 276.85 459.12"/>
  <rect id="Galleria_Burgas0.060" class="cls-29" x="252.69" y="395.73" width="24.15" height="31.01"/>
  <rect id="Galleria_Burgas0.061" class="cls-29" x="252.69" y="381.61" width="24.15" height="12.27"/>
  <polygon id="Galleria_Burgas0.062" class="cls-29" points="276.85 380.2 252.69 380.2 252.69 369.78 268.1 362.42 276.85 362.42 276.85 380.2"/>
  <polygon id="Galleria_Burgas0.010_x5E_NAD_x5F_18" class="cls-29" points="411.75 93.17 411.75 195.73 463.02 195.73 463.02 124.16 487.26 124.16 487.26 93.17 411.75 93.17"/>
  <rect id="Galleria_Burgas0.011" class="cls-29" x="464.88" y="126.31" width="24.52" height="68.57"/>
  <rect id="Galleria_Burgas0.012" class="cls-29" x="491.73" y="126.31" width="22.19" height="68.57"/>
  <polygon id="Galleria_Burgas0.022A_x5E_S-1.12" class="cls-29" points="611.77 93.39 611.77 126.76 625.16 126.76 625.16 194.94 675.99 194.94 708.34 163.62 708.34 137.75 739.92 137.75 739.92 146.17 778.34 146.17 778.34 93.39 611.77 93.39"/>
  <polygon id="Galleria_Burgas0.022B" class="cls-29" points="778.34 147.8 738.03 147.8 738.03 139.69 709.8 139.69 709.8 163.5 677.02 195.89 677.02 247.64 744.73 247.64 744.73 189.08 778.34 189.08 778.34 147.8"/>
  <rect id="Galleria_Burgas0.054_x5E_S-1.06" class="cls-29" x="315.38" y="492.69" width="28.38" height="27.73"/>
  <polygon id="Galleria_Burgas0.054A_x5E_0.055" class="cls-29" points="278.67 492.69 278.67 550.25 343.76 561.15 343.76 522.13 313.68 522.13 313.68 492.69 278.67 492.69"/>
  <rect id="Galleria_Burgas0.038" class="cls-29" x="676.29" y="511.14" width="35.59" height="16.45"/>
  <path id="Galleria_Burgas0.039" class="cls-29" d="M676.12,529.44v31.22h68.49v-49.69h-31.05v18.63s-37.43.34-37.43-.17Z"/>
  <polygon id="Galleria_Burgas0.086" class="cls-29" points="546.46 261.7 546.46 303.82 552.28 303.82 552.28 350.94 599.38 350.94 605.9 346.71 612.42 342.95 620.25 339.66 630.06 337.27 633.8 336.79 637.06 336.54 637.06 261.7 546.46 261.7"/>
  <g class="cls-77">
    <g class="cls-53">
      <path class="cls-42" d="M577.79,294.32c-.95,0-1.75.28-2.43.69.27.13.41.4.54.54.54-.27,1.21-.41,1.89-.42,2.16-.02,3.66,1.6,3.67,3.76s-1.46,3.79-3.62,3.81-3.66-1.6-3.67-3.76c0-.68.13-1.35.39-1.76-.14-.27-.41-.4-.54-.67-.4.68-.66,1.63-.66,2.44.02,2.7,1.92,4.58,4.62,4.56s4.58-2.06,4.56-4.62c-.15-2.57-2.06-4.58-4.76-4.56M589.17,299.91c0,.41,0,.81-.13,1.08-.26,1.08-1.2,1.63-2.42,1.64s-2.03-.53-2.44-1.6c-.14-.27-.14-.67-.14-1.08l-.04-5.4h-.95s.04,5.54.04,5.54c0,.41.14,1.08.14,1.35.41,1.35,1.5,2.15,3.26,2.14,1.62-.01,2.83-.83,3.23-2.18.13-.41.13-.95.13-1.35l-.04-5.54h-.95s.04,5.41.04,5.41h.27ZM573.79,302.31c-.27.14-.54.14-.81.28-.4.14-.94.14-1.35.14l-2.7.02-.05-7.29,2.7-.02c.54,0,.95,0,1.35.13,1.76.39,2.71,1.6,2.73,3.49,0,.68-.13,1.35-.39,1.76.14.27.41.54.54.67.4-.68.66-1.63.66-2.44-.02-2.3-1.24-3.77-3.27-4.3-.41-.13-.95-.13-1.49-.12l-3.65.03.06,8.91,3.65-.03c.54,0,1.08,0,1.48-.15.4-.14.81-.28,1.08-.41-.14-.27-.41-.4-.54-.67M616.04,298.37l-.95-.4c-.81-.4-1.22-.8-1.23-1.61s.53-1.49,1.48-1.5,1.49.66,1.63,1.61h.81c-.15-1.76-1.23-2.43-2.45-2.42-1.35,0-2.29.96-2.28,2.31,0,1.22.69,1.89,1.77,2.42l.95.4c.68.27,1.36.8,1.36,1.75s-.66,1.49-1.61,1.5c-1.08,0-1.76-.53-1.9-2.01h-.95c.15,2.03,1.24,2.83,2.86,2.82,1.49-.01,2.56-1.1,2.55-2.45-.14-1.35-1.09-1.88-2.04-2.42M608.18,294.37l-3.45,8.94h.95s1.06-2.85,1.06-2.85l3.65-.03,1.1,2.83h1.22s-3.57-8.9-3.57-8.9h-.95ZM610.24,299.63l-3.11.02,1.06-2.71c.13-.54.4-.95.53-1.49.14.54.28.94.55,1.48l.96,2.69ZM601.42,294.42h-.95s.06,8.92.06,8.92l3.51-.02.4-.81-2.97.02-.06-8.1ZM594.57,299.2v.81s4.19-.03,4.19-.03c-.26,1.49-1.6,2.58-3.36,2.59-2.16.02-3.66-1.6-3.67-3.76s1.46-3.79,3.62-3.81c1.49-.01,2.57.66,3.12,2h.95c-.55-1.76-2.18-2.83-4.07-2.81-2.57.02-4.58,2.06-4.56,4.62.02,2.7,1.92,4.58,4.62,4.56s4.31-1.79,4.29-4.35l-5.13.04v.14Z"/>
    </g>
  </g>
</svg>