<?xml version="1.0" encoding="UTF-8"?><svg id="Layer_4" xmlns="http://www.w3.org/2000/svg" viewBox="0 0 465.28 513.56"><defs><style>.cls-1{letter-spacing:-.05em;}.cls-2{letter-spacing:-.02em;}.cls-3{fill:#ed7013;}.cls-4{font-size:6.24px;}.cls-4,.cls-5,.cls-6,.cls-7,.cls-8,.cls-9,.cls-10,.cls-11{fill:#1d1d1b;}.cls-4,.cls-5,.cls-6,.cls-8,.cls-9,.cls-10{font-family:Axiforma-Bold, Axiforma;}.cls-12{letter-spacing:-.03em;}.cls-13{fill:#f6f6f6;}.cls-14{letter-spacing:0em;}.cls-15{letter-spacing:-.02em;}.cls-16{letter-spacing:-.03em;}.cls-17,.cls-18,.cls-19,.cls-20{fill:none;stroke-miterlimit:10;}.cls-17,.cls-19{stroke:#1d1d1b;}.cls-5{font-size:23.28px;}.cls-6{font-size:14.42px;}.cls-7{fill-rule:evenodd;}.cls-8{font-size:11.36px;}.cls-21{letter-spacing:0em;}.cls-22{letter-spacing:-.02em;}.cls-18{stroke:#12100b;}.cls-19{stroke-width:2px;}.cls-20{stroke:#f6f6f6;stroke-width:10px;}.cls-9{font-size:11.74px;}.cls-23{letter-spacing:-.03em;}.cls-24{letter-spacing:0em;}.cls-10{font-size:14.62px;}.cls-25{letter-spacing:-.08em;}</style></defs><g id="cladire"><g><path class="cls-13" d="M349.88,480.17v-73.86h9.76v-93.28h100.64V181.97h-100.8V37.53h-51.84V5H5V507.86l34.27-4.49,122.2-15.03s86.84,23.17,188.41-8.17Z"/><path class="cls-20" d="M349.88,480.17v-73.86h9.76v-93.28h100.64V181.97h-100.8V37.53h-51.84V5H5V507.86l34.27-4.49,122.2-15.03s86.84,23.17,188.41-8.17Z"/><path class="cls-19" d="M349.88,480.17v-73.86h9.76v-93.28h100.64V181.97h-100.8V37.53h-51.84V5H5V507.86l34.27-4.49,122.2-15.03s86.84,23.17,188.41-8.17Z"/></g></g><g id="magazine"><polyline class="cls-17" points="5 271.95 35.09 271.95 35.09 326.98 197.98 326.98 197.98 269.73 171.08 269.73 171.08 246.6 142.37 246.6 142.37 160.81 159.28 160.81 159.1 14.73 35.25 14.73 35.25 105.94 5 105.94"/><line class="cls-17" x1="171.08" y1="269.73" x2="171.08" y2="326.98"/><line class="cls-17" x1="171.08" y1="306.58" x2="197.98" y2="306.58"/><polyline class="cls-17" points="36.32 503.85 36.32 337.73 205.2 337.73 205.2 339.62 205.2 482.51 161.48 488.35"/><path class="cls-17" d="M349.88,452.23l-54.13-8.86c18.53-92.75,31.09-183.63,35.35-271.9h28.38v18.13h21.98v-7.63"/><polyline class="cls-17" points="318.49 307.87 359.64 307.87 359.64 313.04"/><polyline class="cls-17" points="460.28 239.39 370.39 239.39 370.39 272.77 322.89 272.77"/><line class="cls-17" x1="427.39" y1="313.04" x2="427.39" y2="239.39"/><line class="cls-17" x1="441.09" y1="181.97" x2="441.09" y2="239.39"/><polyline class="cls-17" points="370.3 189.77 370.3 207.07 329.02 207.07"/><line class="cls-17" x1="370.39" y1="239.39" x2="326.27" y2="239.39"/><line class="cls-17" x1="359.64" y1="339.36" x2="314.27" y2="339.36"/><polyline class="cls-17" points="309.87 365.86 341.44 365.86 341.44 372.42 359.64 372.42"/><line class="cls-17" x1="359.64" y1="384.61" x2="306.64" y2="384.61"/><line class="cls-17" x1="300.94" y1="416.62" x2="349.88" y2="416.62"/><polyline class="cls-17" points="359.48 37.53 307.64 37.53 307.64 5"/><path class="cls-17" d="M169.93,5V150.31h41.26v-19.6c0-11.98,6.75-17.72,18.21-17.72h50.71c25.61,0,31.02,22.22,31.31,48.15h48.06"/><line class="cls-17" x1="427.39" y1="263.6" x2="460.28" y2="263.6"/><line class="cls-17" x1="5" y1="401.27" x2="36.32" y2="401.27"/><line class="cls-17" x1="36.32" y1="356.65" x2="5" y2="356.65"/></g><g id="logo"><g><path class="cls-11" d="M332.66,265.98c0-2.02,.39-4.57,1.18-7.65,.68-2.66,1.48-4.99,2.41-6.98,1.61-3.46,3.33-5.19,5.15-5.19,.87,.13,1.67,.55,2.41,1.24,1.76,1.65,2.99,4.5,3.69,8.55-.02-.05,.19-.89,.64-2.51,1.36-4.86,3.13-7.29,5.34-7.27,2.03,.02,3.83,1.7,5.4,5.04,.91,1.97,1.66,4.31,2.26,7.02,.64,2.91,.95,5.49,.95,7.74h-2.95c0-7.21-1.06-12.62-3.18-16.22-.85-1.44-1.65-2.16-2.41-2.16-1,0-1.91,1.43-2.73,4.29-.93,3.24-1.42,7.51-1.46,12.8l-3.4,.05c0-6.97-.85-12.05-2.54-15.24-.68-1.27-1.35-1.91-2-1.91-.95,0-1.94,1.27-2.96,3.8-1.63,4.11-2.47,8.95-2.51,14.53l-3.27,.05Z"/><path class="cls-11" d="M332.16,266.48v-.51c0-2.05,.4-4.67,1.19-7.77,.68-2.68,1.51-5.06,2.45-7.06,1.71-3.68,3.55-5.48,5.6-5.48,1.04,.15,1.94,.61,2.76,1.37,1.5,1.41,2.63,3.64,3.39,6.67,.03-.13,.07-.26,.11-.41,1.43-5.14,3.33-7.64,5.8-7.64h.03c2.23,.02,4.2,1.81,5.85,5.33,.92,1.99,1.69,4.39,2.29,7.13,.64,2.93,.96,5.58,.96,7.85v.5h-3.95v-.5c0-7.09-1.05-12.46-3.11-15.97-.73-1.23-1.43-1.91-1.98-1.91-.34,0-1.23,.38-2.25,3.93-.92,3.18-1.4,7.44-1.44,12.67v.49l-4.4,.06v-.51c0-6.85-.84-11.9-2.48-15-.76-1.43-1.3-1.64-1.56-1.64-.33,0-1.23,.34-2.49,3.49-1.6,4.03-2.43,8.86-2.47,14.35v.49l-4.27,.06Zm27.47-1.01h1.95c-.04-2.09-.36-4.49-.94-7.14-.58-2.67-1.33-5-2.22-6.92-1.47-3.14-3.14-4.73-4.95-4.75-1.94,.01-3.57,2.31-4.85,6.9-.53,1.95-.61,2.33-.62,2.4l-.26-.03-.7,.2s-.04-.09-.04-.16c-.68-3.89-1.86-6.66-3.53-8.22-.66-.62-1.39-.99-2.15-1.11-1.53,0-3.11,1.65-4.62,4.9-.91,1.95-1.72,4.27-2.38,6.89-.71,2.77-1.09,5.12-1.15,7.01l2.27-.03c.09-5.42,.94-10.2,2.54-14.22,1.13-2.81,2.21-4.12,3.42-4.12,.86,0,1.66,.71,2.44,2.17,1.68,3.17,2.56,8.2,2.6,14.96l2.41-.04c.07-5.09,.56-9.28,1.48-12.45,.92-3.18,1.94-4.65,3.21-4.65,.96,0,1.89,.79,2.85,2.4,2.1,3.58,3.2,8.96,3.25,15.98Z"/></g><g><path class="cls-11" d="M316.93,425.94h-.77l-.17,.67c.37,.03,.89,.36,.47,.75-.05,.05-4.39,3.36-4.39,3.36l.93-3.38c.19-.65,.9-.73,.9-.73l.17-.68h-5.22l-.17,.68c.25,.06,.96,.2,.71,1.14-1.74,6.29-1.54,5.67-1.66,6.01-.47,1.82-1.24,1.73-1.52,1.75l-.17,.68v.05h5.44l.18-.74s-.87-.17-.7-.8c.16-.61,.85-3.09,.85-3.09,2.41,3.87,3.01,4.54,5.11,4.64,.71,.03,1.59,0,2.78,0l.18-.73c-.69,0-1.14-.5-1.42-.79-.15-.16-.87-1.26-1.54-2.27-.6-.92-1.14-1.76-1.14-1.76l1.14-.91,3.25-2.6c.74-.62,1.26-.55,1.26-.55l.17-.68h-4.69Z"/><path class="cls-11" d="M339.05,425.84c-.58,0-1.13,.02-1.66,.08-4.37,.51-7.02,3.26-7.01,6.02,0,2.31,1.87,4.54,6.2,4.52,.28,0,.54-.01,.8-.02,1.05-.06,1.97-.2,2.82-.37l.5-2.15c-.84,.28-1.9,.51-2.75,.52-.2,0-.39,0-.57-.03-1.99-.2-3.28-1.48-3.29-3.12,0-1.7,1.23-3.03,3.29-3.38,.34-.06,.71-.09,1.1-.09,1.33,0,2,.44,2.44,1.02h.36l.71-2.54c-.73-.24-1.81-.44-2.94-.45Z"/><path class="cls-11" d="M327.55,425.94h-5.15l-.17,.67s1.03,.11,.71,1.14l-2.33,8.49h4.67l.17-.72s-.87-.21-.65-1.01c.02-.08,.68-2.52,.68-2.52h2.14c1.06,0,1.42,.55,1.42,.55l.62-2.52h-3.61l.54-1.98h3.13c.58,0,.98,.38,.98,.67h.35l.69-2.76h-4.21Z"/></g><g><path class="cls-11" d="M321.5,358.56c0,1.76-1.5,1.66-1.5,.09v-4.01h-1.01v3.96c0,1.75-1.5,1.64-1.5,.08,0-2.52,0-6.12,0-10.13v.14c0-1.57,1.5-1.68,1.5,.08v3.53h1.01v-3.58c0-1.57,1.5-1.66,1.5,.1v9.74m1.97-1.13v-2.03h.86s-.35,0,0,0c.95,0,1.01-2.23,.02-2.31h-.88v-1.56h.97s-.35,0,0,0c.95,0,.99-2.29,0-2.38-.24-.02,0,0,0,0h-1.72c-.59,.06-.79,.53-.79,2.38,0,1.33,0,0,0,0v5.9c0,1.84,.21,2.31,.8,2.38h1.72s-.24,.02,0,0c.99-.08,.95-2.38,0-2.38-.35,0-.61,0-.98,0m5.25-6.94c-.26-.65-.47-.88-.9-1.19-.23-.17-.92-.29-1.43,.11-.45,.35-.72,.71-.93,1.49-.25,.96-.26,1.82,.09,2.69,.34,.83,.73,1.24,1.2,1.57,.8,.56,1.08,1.41,.9,1.98-.11,.36-.24,.65-.57,.64-.44-.02-.59-.49-.74-1.09-.11-.44-.43-.74-.83-.47-.5,.34-.49,1.33-.29,1.92,.44,1.28,1,1.77,1.86,1.78,.72,0,1.2-.5,1.62-1.48,.53-1.24,.45-2.88-.13-4.02-.35-.69-.72-.91-1.23-1.29-.62-.47-.78-1.08-.56-1.51,.26-.5,.68-.14,.98,.32,.2,.32,.56,.27,.79-.08,.24-.36,.31-.99,.15-1.39m3.45,3.71c.5-.73,.68-1.66,.54-2.77-.17-1.37-.81-2.21-1.62-2.21h-1.12c-.39,0-.7,.59-.7,1.32v7.99c0,.72,.31,1.31,.7,1.31,.7,0,.93-.01,1.31-.01,.68,0,1.86-1.03,1.86-3.01,0-1.2-.34-2.09-.97-2.61Zm-1.53-3h.27c.32,0,.58,.4,.58,.93s-.26,1-.58,1h-.27v-1.93Zm.34,6.59h-.35v-2.29h.35c.38,0,.69,.51,.69,1.15s-.31,1.15-.69,1.15Zm6.35-1.35c0,1.89-.9,3.42-2.01,3.42s-2.01-1.53-2.01-3.42v-5.97c0-.72,.32-1.31,.72-1.31s.73,.59,.73,1.31v6.18c0,.54,.25,.98,.57,.98s.55-.42,.55-.95v-6.21c0-.72,.32-1.31,.73-1.31s.73,.59,.73,1.31v5.97h0m4.05,1.56l-.94-2.8c.59-.75,.96-1.56,.95-2.84-.01-1.75-.83-3.18-1.82-3.18-.48,0-1.18-.01-1.18,0h0c-.4,0-.65,.58-.65,1.31v7.99c0,.72,.31,1.31,.71,1.31s.69-.59,.69-1.31l-.02-2.37,1.03,3.02c.21,.63,.66,.89,1,.58,.34-.31,.44-1.08,.23-1.71Zm-1.94-4.5h-.34v-2.2h.34c.36,0,.66,.49,.66,1.1s-.3,1.1-.66,1.1Zm4.54-4.41s1.44,.13,.99,2.02c-.36,1.51-1.56-1.25-1.93,1.46-.04,.29-.05,2.02-.03,3.58-.04,.72,.36,2.19,1.08,1.27v-1.93c-1.09,0-.91-2.41,0-2.41,.66,0,.44-.06,.83,0,0,0,.6,.14,.58,2.31,0,0,0,1.62-.02,2.81-.08,.61-.27,1.35-1.31,1.69-1,.32-1.75-.62-1.91-.91-.16-.28-.62-1.02-.67-2.52-.05-1.5-.08-3.2,.01-4.52,.1-1.32,.64-2.08,1.22-2.56,.58-.48,1.15-.3,1.15-.3m3.3,8.35v-2.03h.86s-.35,0,0,0c.95,0,1.01-2.23,.02-2.31h-.88v-1.56h.97s-.35,0,0,0c.95,0,.99-2.29,0-2.38-.24-.02,0,0,0,0h-1.72c-.59,.06-.79,.54-.79,2.38,0,1.33,0,0,0,0v5.9c0,1.84,.21,2.31,.8,2.38h1.72s-.24,.02,0,0c.99-.08,.95-2.38,0-2.38-.35,0-.61,0-.99,0m6.27,2.12l-1.45-4.35c.59-.76,.96-1.56,.95-2.84-.01-1.74-.83-3.17-1.82-3.17-.48,0-1.23-.03-1.23,0-.4,0-.69,.56-.69,1.29v7.99c0,.72,.29,1.31,.69,1.31s.72-.59,.72-1.31v-2.8l1.61,5c.21,.63,.66,.89,.99,.58,.34-.31,.44-1.08,.23-1.71Zm-2.5-6.01h-.33v-2.21h.33c.37,0,.67,.5,.67,1.11,0,.61-.3,1.11-.67,1.11Z"/><path class="cls-11" d="M353.53,350.42c-.23,0-.42-.34-.42-.75,0-.42,.19-.75,.42-.75s.42,.34,.42,.75-.19,.75-.42,.75Zm0-1.28c-.16,0-.29,.24-.29,.53s.13,.53,.29,.53,.29-.24,.29-.53-.13-.53-.29-.53Zm-.09,.53v-.29h.08c.08,0,.11,.05,.11,.15s-.04,.15-.1,.15h-.09m.16,.09c.07-.02,.13-.1,.13-.24,0-.21-.11-.26-.21-.26h-.18v.84h.1v-.32h.06l.13,.32h.13l-.16-.34Z"/><polyline class="cls-11" points="314.28 350.12 314.27 350.12 313.69 352.86 311.77 352.86 311.77 352.88 313.34 354.63 312.73 357.42 312.74 357.44 314.28 355.71 315.81 357.44 315.83 357.42 315.22 354.63 316.78 352.88 316.78 352.86 314.85 352.86 314.28 350.12"/><polyline class="cls-11" points="356.05 350.12 356.03 350.12 355.46 352.86 353.53 352.86 353.53 352.88 355.1 354.63 354.49 357.42 354.5 357.44 356.04 355.71 357.58 357.44 357.59 357.42 356.99 354.63 358.54 352.88 358.54 352.86 356.61 352.86 356.05 350.12"/></g><text class="cls-6" transform="translate(323.85 329.43) scale(.85 1)"><tspan x="0" y="0">BMS</tspan></text><text class="cls-10" transform="translate(345.48 294.75) scale(.85 1)"><tspan x="0" y="0">IN</tspan><tspan class="cls-22" x="16.19" y="0">C</tspan><tspan x="27.13" y="0">AN</tspan><tspan class="cls-16" x="48.92" y="0">T</tspan><tspan class="cls-14" x="57.3" y="0">O</tspan></text><text class="cls-5" transform="translate(18.78 207.83) scale(.76 1)"><tspan x="0" y="0">CINEM</tspan><tspan class="cls-2" x="80.26" y="0">A</tspan><tspan x="95.88" y="0" xml:space="preserve"> CIT</tspan><tspan class="cls-12" x="140.69" y="0">Y</tspan></text><text class="cls-5" transform="translate(57.81 423.59) scale(.76 1)"><tspan x="0" y="0">PL</tspan><tspan class="cls-25" x="29.31" y="0">A</tspan><tspan class="cls-1" x="43.74" y="0">Y</tspan><tspan class="cls-24" x="58.43" y="0">G</tspan><tspan class="cls-21" x="77.28" y="0">R</tspan><tspan x="92.83" y="0">OUND</tspan></text><g><path class="cls-11" d="M430.98,246.06v4.61h-.79v-4.61h.79Z"/><path class="cls-11" d="M435.19,246.06v4.61h-.54l-2.03-2.83v2.83h-.78v-4.61h.5l2.07,2.85v-2.85h.78Z"/><path class="cls-11" d="M435.84,248.38c0-1.42,.92-2.4,2.03-2.4,.73,0,1.35,.39,1.69,.95l-.53,.61c-.27-.39-.66-.67-1.12-.67-.7,0-1.25,.63-1.25,1.51s.54,1.47,1.25,1.47c.46,0,.87-.27,1.14-.67l.54,.58c-.34,.56-.98,.98-1.73,.98-1.12,0-2.02-.95-2.02-2.36Z"/><path class="cls-11" d="M442.13,249.67h-1.37l-.3,1h-.82l1.5-4.61h.64l1.48,4.61h-.83l-.29-1Zm-1.15-.82h.92l-.46-1.54-.47,1.54Z"/><path class="cls-11" d="M447.07,246.06v4.61h-.54l-2.03-2.83v2.83h-.78v-4.61h.5l2.07,2.85v-2.85h.77Z"/><path class="cls-11" d="M447.58,246.95v-.89h3.04v.89h-1.12v3.72h-.8v-3.72h-1.12Z"/><path class="cls-11" d="M450.76,248.38c0-1.34,.9-2.4,2.04-2.4s2.04,1.07,2.04,2.39-.89,2.38-2.05,2.38-2.04-1.04-2.04-2.37Zm3.27-.01c0-.86-.55-1.48-1.23-1.48s-1.23,.63-1.23,1.48,.54,1.47,1.23,1.47,1.23-.62,1.23-1.47Z"/><path class="cls-11" d="M429.75,256.12l.45-.64c.26,.42,.64,.64,1.04,.64,.33,0,.56-.21,.56-.49,0-.23-.15-.37-.36-.48-.25-.14-.57-.25-.85-.43-.34-.23-.62-.57-.62-1.15,0-.76,.54-1.35,1.34-1.35,.46,0,.92,.19,1.29,.62l-.42,.67c-.23-.29-.59-.43-.86-.43-.31,0-.5,.18-.5,.44,0,.23,.16,.36,.32,.46,.21,.11,.6,.29,.87,.44,.38,.22,.67,.56,.67,1.15,0,.82-.58,1.4-1.44,1.4-.6,0-1.15-.29-1.49-.86Z"/><path class="cls-11" d="M432.88,253.19v-.89h3.04v.89h-1.12v3.72h-.8v-3.72h-1.12Z"/><path class="cls-11" d="M436.05,254.62c0-1.34,.9-2.4,2.04-2.4s2.04,1.07,2.04,2.39-.89,2.38-2.05,2.38-2.04-1.04-2.04-2.37Zm3.27-.01c0-.86-.55-1.48-1.23-1.48s-1.23,.63-1.23,1.48,.54,1.47,1.23,1.47,1.23-.62,1.23-1.47Z"/><path class="cls-11" d="M442.04,255.23h-.47v1.68h-.79v-4.61h1.5c.92,0,1.34,.69,1.34,1.46,0,.56-.24,1.12-.8,1.35l.95,1.8h-.92l-.83-1.68Zm-.47-.83h.64c.44,0,.61-.31,.61-.63s-.19-.62-.54-.62h-.71v1.25Z"/><path class="cls-11" d="M446.47,255.91h-1.37l-.3,1h-.82l1.5-4.61h.64l1.48,4.61h-.83l-.29-1Zm-1.15-.82h.92l-.46-1.54-.47,1.54Z"/><path class="cls-11" d="M447.69,254.61c0-1.4,.92-2.39,2.08-2.39,.66,0,1.24,.32,1.58,.75l-.51,.66c-.27-.32-.65-.52-1.07-.52-.73,0-1.27,.64-1.27,1.49s.51,1.49,1.26,1.49c.42,0,.81-.21,1.05-.49v-.63h-1.08v-.81h1.8v1.9c-.48,.59-1.1,.92-1.79,.92-1.19,0-2.04-1-2.04-2.37Z"/><path class="cls-11" d="M452.21,252.3h2.66v.86h-1.87v.99h1.73v.86h-1.73v1.04h1.87v.86h-2.66v-4.61Z"/></g><text class="cls-9" transform="translate(376.58 221.9) scale(.85 1)"><tspan x="0" y="0">CIEL</tspan><tspan class="cls-15" x="27.41" y="0">A</tspan></text><text class="cls-4" transform="translate(340.82 198.42) scale(.85 1)"><tspan x="0" y="0">PIZZIO</tspan></text><g><path class="cls-11" d="M442.39,205.83h.22l.65,1.1,.64-1.1h.22v1.94h-.33v-1.1l-.48,.81h-.11l-.48-.81v1.1h-.33v-1.94Z"/><path class="cls-11" d="M444.39,206.8c0-.6,.39-1.01,.86-1.01,.31,0,.57,.17,.71,.4l-.22,.25c-.11-.17-.28-.28-.47-.28-.3,0-.53,.27-.53,.63s.23,.62,.53,.62c.2,0,.37-.11,.48-.28l.23,.24c-.15,.23-.41,.41-.73,.41-.47,0-.85-.4-.85-.99Z"/><path class="cls-11" d="M446.75,205.83h.65c.5,0,.8,.38,.8,.97s-.3,.97-.81,.97h-.63v-1.94Zm.65,1.57c.3,0,.45-.27,.45-.6s-.15-.59-.45-.59h-.32v1.19h.32Z"/><path class="cls-11" d="M448.38,206.8c0-.56,.38-1.01,.86-1.01s.86,.45,.86,1.01-.37,1-.87,1-.86-.44-.86-.99Zm1.38,0c0-.36-.23-.62-.52-.62s-.52,.27-.52,.62,.23,.62,.52,.62,.52-.26,.52-.62Z"/><path class="cls-11" d="M451.78,205.83v1.94h-.23l-.86-1.19v1.19h-.33v-1.94h.21l.88,1.2v-1.2h.33Z"/><path class="cls-11" d="M453.03,207.35h-.58l-.13,.42h-.35l.63-1.94h.27l.62,1.94h-.35l-.12-.42Zm-.49-.35h.39l-.19-.65-.2,.65Z"/><path class="cls-11" d="M453.7,205.83h.33v1.57h.84v.37h-1.18v-1.94Z"/><path class="cls-11" d="M455.09,205.83h.65c.5,0,.8,.38,.8,.97s-.3,.97-.81,.97h-.63v-1.94Zm.65,1.57c.3,0,.45-.27,.45-.6s-.15-.59-.45-.59h-.32v1.19h.32Z"/><path class="cls-11" d="M456.65,207.44l.19-.27c.11,.18,.27,.27,.44,.27,.14,0,.24-.09,.24-.21,0-.1-.07-.15-.15-.2-.11-.06-.24-.1-.36-.18-.15-.1-.26-.24-.26-.48,0-.32,.23-.57,.57-.57,.19,0,.39,.08,.54,.26l-.18,.28c-.1-.12-.25-.18-.36-.18-.13,0-.21,.08-.21,.19,0,.1,.07,.15,.13,.19,.09,.05,.25,.12,.37,.19,.16,.09,.28,.24,.28,.48,0,.34-.24,.59-.61,.59-.25,0-.49-.12-.63-.36Z"/><path class="cls-11" d="M444.76,210.07l.19-.27c.11,.18,.27,.27,.44,.27,.14,0,.24-.09,.24-.21,0-.1-.07-.15-.15-.2-.11-.06-.24-.1-.36-.18-.15-.1-.26-.24-.26-.48,0-.32,.23-.57,.57-.57,.19,0,.39,.08,.54,.26l-.18,.28c-.1-.12-.25-.18-.36-.18-.13,0-.21,.08-.21,.19,0,.1,.07,.15,.13,.19,.09,.05,.25,.12,.37,.19,.16,.09,.28,.24,.28,.48,0,.34-.24,.59-.61,.59-.25,0-.49-.12-.63-.36Z"/><path class="cls-11" d="M446.07,208.83v-.38h1.28v.38h-.47v1.56h-.34v-1.56h-.47Z"/><path class="cls-11" d="M447.41,209.43c0-.56,.38-1.01,.86-1.01s.86,.45,.86,1.01-.37,1-.87,1-.86-.44-.86-1Zm1.38,0c0-.36-.23-.62-.52-.62s-.52,.27-.52,.62,.23,.62,.52,.62,.52-.26,.52-.62Z"/><path class="cls-11" d="M449.93,209.69h-.2v.71h-.33v-1.94h.63c.39,0,.57,.29,.57,.61,0,.23-.1,.47-.34,.57l.4,.76h-.39l-.35-.71Zm-.2-.35h.27c.19,0,.26-.13,.26-.27s-.08-.26-.23-.26h-.3v.52Z"/><path class="cls-11" d="M451.8,209.98h-.58l-.13,.42h-.35l.63-1.94h.27l.62,1.94h-.35l-.12-.42Zm-.49-.35h.39l-.19-.65-.2,.65Z"/><path class="cls-11" d="M452.31,209.43c0-.59,.39-1.01,.88-1.01,.28,0,.52,.14,.67,.31l-.22,.28c-.12-.13-.28-.22-.45-.22-.31,0-.54,.27-.54,.63s.22,.63,.53,.63c.18,0,.34-.09,.44-.21v-.27h-.46v-.34h.76v.8c-.2,.25-.46,.39-.76,.39-.5,0-.86-.42-.86-1Z"/><path class="cls-11" d="M454.22,208.46h1.12v.36h-.79v.42h.73v.36h-.73v.44h.79v.36h-1.12v-1.94Z"/></g><g><path class="cls-11" d="M252.64,51.43c0,2.26-.94,4.31-3.25,4.31h-1.36v4.58h-1.77v-13.26h3.26c2.22,0,3.12,2.17,3.12,4.38Zm-1.8-.04c0-.99-.45-1.88-1.29-1.88h-1.52v3.82h1.42c.97,0,1.39-.97,1.39-1.94Z"/><path class="cls-11" d="M253.79,55.46v-8.42h1.78v8.24c0,1.81,.68,2.67,1.67,2.67s1.65-.9,1.65-2.67v-8.24h1.79v8.42c0,3.5-1.59,5.08-3.44,5.08s-3.45-1.58-3.45-5.08Z"/><path class="cls-11" d="M262.55,47.05h1.78v10.71h4.48v2.55h-6.26v-13.26Z"/><path class="cls-11" d="M269.2,58.05l1.02-1.85c.59,1.2,1.45,1.85,2.34,1.85,.74,0,1.27-.59,1.27-1.42,0-.66-.35-1.06-.8-1.38-.56-.39-1.29-.72-1.91-1.24-.78-.66-1.4-1.65-1.4-3.3,0-2.19,1.22-3.88,3.01-3.88,1.03,0,2.08,.54,2.9,1.79l-.94,1.94c-.53-.83-1.33-1.24-1.94-1.24-.71,0-1.13,.52-1.13,1.27,0,.66,.36,1.04,.72,1.31,.47,.32,1.35,.83,1.95,1.27,.86,.63,1.51,1.62,1.51,3.3,0,2.35-1.3,4.04-3.24,4.04-1.35,0-2.59-.84-3.35-2.48Z"/><path class="cls-11" d="M277.2,47.05h5.99v2.48h-4.21v2.85h3.9v2.48h-3.9v2.98h4.21v2.48h-5.99v-13.26Z"/><path class="cls-11" d="M240.69,68.58h5.89v2.51h-4.12v2.98h3.62v2.49h-3.62v5.28h-1.77v-13.26Z"/><path class="cls-11" d="M249.67,68.58v13.26h-1.78v-13.26h1.78Z"/><path class="cls-11" d="M250.82,71.14v-2.57h6.83v2.57h-2.52v10.69h-1.79v-10.69h-2.52Z"/><path class="cls-11" d="M266.33,68.58v13.26h-1.21l-4.58-8.13v8.13h-1.74v-13.26h1.12l4.66,8.2v-8.2h1.74Z"/><path class="cls-11" d="M268.28,68.58h5.99v2.48h-4.21v2.85h3.9v2.48h-3.9v2.98h4.21v2.48h-5.99v-13.26Z"/><path class="cls-11" d="M275.14,79.58l1.02-1.85c.59,1.2,1.45,1.85,2.34,1.85,.74,0,1.27-.59,1.27-1.42,0-.66-.35-1.06-.8-1.38-.56-.39-1.29-.72-1.91-1.24-.78-.66-1.4-1.65-1.4-3.3,0-2.19,1.22-3.88,3.01-3.88,1.03,0,2.08,.54,2.9,1.79l-.94,1.94c-.53-.83-1.33-1.24-1.94-1.24-.71,0-1.13,.52-1.13,1.27,0,.66,.36,1.04,.72,1.31,.47,.32,1.35,.83,1.95,1.27,.86,.63,1.51,1.62,1.51,3.3,0,2.35-1.3,4.04-3.24,4.04-1.35,0-2.59-.84-3.35-2.48Z"/><path class="cls-11" d="M282.38,79.58l1.02-1.85c.59,1.2,1.45,1.85,2.34,1.85,.74,0,1.27-.59,1.27-1.42,0-.66-.35-1.06-.8-1.38-.56-.39-1.29-.72-1.91-1.24-.78-.66-1.4-1.65-1.4-3.3,0-2.19,1.22-3.88,3.01-3.88,1.03,0,2.08,.54,2.9,1.79l-.94,1.94c-.53-.83-1.33-1.24-1.94-1.24-.71,0-1.13,.52-1.13,1.27,0,.66,.36,1.04,.72,1.31,.47,.32,1.35,.83,1.95,1.27,.86,.63,1.51,1.62,1.51,3.3,0,2.35-1.3,4.04-3.24,4.04-1.35,0-2.59-.84-3.35-2.48Z"/></g><g><path class="cls-11" d="M174.82,292.01h1.57v-1.49h-1.75s-.05,0-.07,0c-.62,0-1.12,.76-1.12,1.69,0,.69,.28,1.28,.67,1.55l1.12,.84c.26,.2,.22,.56-.08,.56h-1.6v-.74l-.66,.74-.66,.74,.67,.74,.67,.74v-.75l1.9,.03c.62,0,1.12-.76,1.12-1.69,0-.48-.06-.99-.35-1.29l-1.45-1.14c-.12-.09-.1-.52,.03-.52h0Zm5.3-1.49v3.95c0,.7-.15,1.25-.46,1.67-.31,.42-.73,.63-1.25,.63s-.91-.2-1.19-.6c-.27-.4-.41-.99-.41-1.74v-3.89h1.2v4.08c0,.37,.21,.68,.45,.67h0c.25,0,.45-.31,.45-.68v-4.08h1.2Zm2.6,6.08c.62,0,1.12-.76,1.12-1.69,0-.64-.24-1.19-.58-1.48,.27-.29,.44-.77,.44-1.31,0-.85-.44-1.54-.99-1.59v-.02h-2.24v6.1h2.25Zm-1.05-2.52h.58c.23,0,.42,.28,.42,.63h0c0,.33-.18,.59-.39,.59h-.61v-1.23h0Zm0-2.23h.49c.19,0,.35,.24,.35,.53h0c0,.27-.15,.5-.33,.5h-.51v-1.03h0Z"/><path class="cls-7" d="M196.33,291.92v1.25c0,.87-.45,1.59-1.02,1.64v1.78h-1.3v-1.78c-.55-.07-.99-.78-.99-1.63v-2.72h1.18v2.43c0,.32,.18,.58,.39,.57h.17c.21,0,.38-.26,.38-.58v-1.29h0v-.03c0-.62,.33-1.12,.74-1.12h1.03v-.75l.66,.74,.67,.74-.66,.74-.66,.74v-.75h-.58Zm-5.73,4.67h-1.21v-3.87c0-.75,.15-1.33,.45-1.74,.31-.41,.74-.62,1.29-.63s.93,.18,1.19,.56c.26,.37,.39,.95,.39,1.74v3.93h-1.21v-1.78h-.91v1.78h0Zm.9-3.1v-1.02c0-.38-.21-.68-.45-.68h0c-.25,0-.45,.31-.45,.68v1.02h.9Zm-2.42-2.99v4.38c0,.55-.12,1-.37,1.34-.26,.35-.59,.52-.99,.52-.03,0-.05,0-.08,0-.22,.02-.69,.03-1.04-.45-.34,.52-.81,.47-.99,.46-.06,0-.13,0-.2,0-.42,0-.75-.17-.98-.52-.23-.34-.34-.84-.34-1.49v-4.23h1.19v4.15c0,.3,.17,.54,.36,.54h0c.2,0,.36-.24,.36-.54v-4.16h1.14v4.15c0,.3,.17,.54,.36,.54h0c.2,0,.36-.24,.36-.54v-4.16h1.22Zm6.79,5.17c.05,0,.1,.02,.15,.06,.05,.04,.09,.1,.11,.17,.03,.07,.04,.15,.04,.23s-.01,.15-.04,.23c-.03,.07-.06,.13-.11,.17-.05,.04-.1,.06-.15,.06s-.1-.02-.15-.06c-.05-.04-.09-.1-.11-.17-.03-.07-.04-.15-.04-.23s.01-.16,.04-.23c.03-.07,.06-.13,.11-.17,.05-.04,.1-.06,.15-.06h0Zm0,.08s-.08,.02-.12,.05c-.04,.03-.07,.08-.09,.14-.02,.06-.03,.12-.03,.19s.01,.13,.03,.19c.02,.06,.05,.11,.09,.14,.04,.03,.08,.05,.13,.05s.08-.02,.12-.05c.04-.03,.07-.08,.09-.14,.02-.06,.03-.12,.03-.19s-.01-.13-.03-.19c-.02-.06-.05-.11-.09-.14-.04-.03-.08-.05-.12-.05h0Zm-.13,.63v-.49h.11s.07,0,.08,.01c.02,0,.03,.02,.04,.05,.01,.02,.02,.05,.02,.07,0,.04,0,.07-.03,.09-.02,.03-.04,.04-.07,.04,.01,0,.02,.02,.03,.03,.01,.02,.03,.05,.05,.1l.04,.1h-.06l-.03-.08c-.02-.06-.04-.1-.06-.11,0-.01-.02-.02-.04-.02h-.03v.21h-.05Zm.05-.28h.06s.05,0,.06-.02c.01-.01,.02-.03,.02-.05,0-.01,0-.03,0-.04,0-.01-.01-.02-.02-.03,0,0-.03,0-.05,0h-.06v.15h0Z"/></g><text class="cls-8" transform="translate(179.74 321.12) scale(.47 1)"><tspan x="0" y="0">OL</tspan><tspan class="cls-23" x="16.68" y="0">A</tspan></text><path class="cls-3" d="M255.31,299.15c-.27,.04-1.3,.29-2.29,.54-7.19,1.88-13.02,7.71-15.07,15.05-.62,2.23-.85,6.64-.47,9.03,1.05,6.55,5.19,12.38,11.04,15.5,2.42,1.3,6.78,2.65,6.78,2.11s-2.36-12.88-2.56-13.36c-.12-.29-1.07-1.34-2.13-2.32-2.19-2.01-2.73-2.81-3.16-4.63-.35-1.53-2.03-11.95-2.03-12.63,0-.5,.66-.89,.99-.56,.1,.1,.77,2.83,1.49,6.08,1.22,5.48,1.34,5.89,1.74,5.95,.23,.04,.47-.06,.52-.19,.06-.14-.5-2.91-1.24-6.16-.74-3.25-1.3-5.97-1.24-6.06,.04-.08,.31-.14,.6-.14h.54l1.34,6.04c1.38,6.18,1.49,6.45,2.23,5.98,.23-.16,.08-1.08-1.05-6.1-.74-3.25-1.28-6.06-1.2-6.22,.06-.16,.31-.29,.56-.29,.43,0,.5,.17,1.3,3.72,1.98,8.87,1.84,8.39,2.29,8.44,.23,.04,.47-.06,.52-.19,.06-.14-.5-2.91-1.24-6.16-1.22-5.38-1.3-5.93-1.03-6.16,.74-.56,.85-.27,2.79,6.45,1.8,6.2,1.9,6.66,1.82,8.04-.06,1.2-.21,1.8-.97,3.49-.62,1.43-.89,2.3-.89,2.91,0,1.03,3.58,13.62,3.76,13.17,.06-.16,.5-2.19,.99-4.49l.89-4.2-.33-.99c-.35-1.08-.33-2,.23-7.36,.37-3.68,1.01-6.78,2.21-10.79,1.28-4.26,2.56-6.86,4.15-8.48,2.01-2.05,3.21-1.88,3.21,.46,0,1.63-4.75,26.28-5.25,27.23-.25,.48-.64,2.19-1.07,4.65-.37,2.13-.72,4.11-.77,4.4l-.1,.52,1.03-.29c4.11-1.18,7.21-3.04,10.07-6.04,3.83-4.01,5.79-8.93,5.81-14.57,.02-6.02-2.13-11.25-6.35-15.42-2.96-2.94-6.93-5.02-11.08-5.81-1.32-.25-6.18-.35-7.4-.14h0Zm0,0"/><path class="cls-3" d="M29.85,373.04c0-1.24-1.01-2.24-2.25-2.24H12.94c-1.24,0-2.25,1-2.25,2.24v14.66c0,1.24,1.01,2.24,2.25,2.24h14.66c1.24,0,2.25-1,2.25-2.24v-14.66Zm-5.4,.59c.62,0,1.12,.5,1.12,1.12s-.5,1.12-1.12,1.12-1.12-.5-1.12-1.12,.5-1.12,1.12-1.12Zm-8.64,0c.62,0,1.12,.5,1.12,1.12s-.5,1.12-1.12,1.12-1.12-.5-1.12-1.12,.5-1.12,1.12-1.12Zm2.23,3.21l-.31,3.75c-.02,.24-.17,.44-.4,.52h0c-.22,.09-.38,.3-.39,.54l-.29,4.86c-.02,.33-.29,.58-.62,.58h-.42c-.33,0-.6-.26-.62-.58l-.29-4.86c-.01-.24-.17-.46-.39-.54-.23-.08-.38-.29-.4-.53l-.31-3.75c-.02-.31,.18-.59,.49-.66l.31-.07c.21-.05,.42,.01,.57,.16l.43,.43c.24,.24,.64,.24,.88,0l.43-.43c.15-.15,.37-.21,.57-.16l.31,.07c.27,.07,.48,.36,.46,.66Zm2.38,10.26c0,.16-.14,.3-.3,.3s-.3-.13-.3-.3v-13.46c0-.17,.14-.3,.3-.3s.3,.13,.3,.3v13.46Zm6.22-5.99c-.21,.05-.35,.26-.32,.47l.13,.96c.03,.23-.13,.44-.35,.47l-.28,.03c-.19,.03-.34,.2-.35,.39l-.19,3.08c-.02,.33-.29,.58-.62,.58h-.42c-.33,0-.6-.25-.62-.58l-.19-3.08c-.01-.2-.16-.36-.35-.39l-.29-.03c-.22-.03-.39-.25-.35-.47l.13-.96c.03-.21-.1-.41-.31-.47-.22-.05-.35-.27-.3-.49l.84-4.01c.06-.28,.39-.43,.63-.26l.8,.51c.13,.09,.31,.09,.46,0l.79-.51c.25-.16,.57-.02,.64,.26l.85,4.01c.04,.22-.1,.43-.31,.49Z"/></g><polygon id="Galleria_Burgas2.000" class="cls-18" points="36.23 15.65 36.23 107.04 6.26 107.04 6.26 271.04 36.23 271.04 36.23 326.05 169.93 326.05 169.93 247.78 141.33 247.78 141.33 159.97 158.33 159.97 158.33 15.65 36.23 15.65"/><rect id="Galleria_BurgasFC2" class="cls-18" x="171.83" y="307.41" width="25.44" height="18.64"/><rect id="Galleria_BurgasFC1" class="cls-18" x="171.83" y="270.51" width="25.44" height="35.42"/><polygon id="Galleria_Burgas2.018" class="cls-18" points="37.2 338.32 37.2 502.2 203.98 481.86 203.98 338.32 37.2 338.32"/><polygon id="Galleria_BurgasFC8" class="cls-18" points="348.68 417.3 301.59 417.3 296.62 442.67 348.68 451.19 348.68 417.3"/><polygon id="Galleria_BurgasFC3" class="cls-18" points="348.68 415.7 348.68 404.79 358.28 404.79 358.28 385.3 307.19 385.3 301.99 415.7 348.68 415.7"/><polygon id="Galleria_BurgasFC6" class="cls-18" points="358.28 383.76 307.65 383.76 310.45 366.56 340.85 366.56 340.85 373.07 358.28 373.07 358.28 383.76"/><polygon id="Galleria_BurgasFC7" class="cls-18" points="358.28 371.64 358.28 340.04 314.62 340.04 310.79 364.96 342.1 364.96 342.1 371.64 358.28 371.64"/><polygon id="Galleria_BurgasFC5" class="cls-18" points="358.28 338.56 314.9 338.56 319.08 308.56 358.96 308.56 358.96 311.85 358.28 311.85 358.28 338.56"/><polygon id="Galleria_Burgas2.016" class="cls-18" points="426.68 240.21 426.68 311.85 360.45 311.85 360.45 307.19 319.3 307.19 323.48 273.36 371.25 273.36 371.25 240.21 426.68 240.21"/><polygon id="Galleria_Burgas2.014" class="cls-18" points="369.59 240.21 369.59 272.04 323.59 272.04 326.85 240.21 369.59 240.21"/><polygon id="Galleria_Burgas2.012" class="cls-18" points="440.33 238.5 327.25 238.5 329.65 207.83 371.19 207.83 371.19 190.5 382.22 190.5 382.22 183.07 440.33 183.07 440.33 238.5"/><polygon id="Galleria_Burgas2.010" class="cls-18" points="369.59 190.44 369.59 206.27 329.76 206.27 331.7 172.04 358.33 172.04 358.33 183.07 358.96 183.07 358.96 190.5 369.59 190.44"/><path id="Galleria_Burgas2.002" class="cls-18" d="M170.79,6.1V149.33h39.38v-21.32c2.01-12.25,8.7-13.26,16.06-15.71h57.32c31.58,1,28.57,48.19,28.57,48.19h46.18V38.56h-51.87V6.1H170.79Z"/></svg>