<?xml version="1.0" encoding="UTF-8"?>
<svg id="Layer_4" data-name="Layer 4" xmlns="http://www.w3.org/2000/svg" viewBox="0 0 820.08 773.88">
  <defs>
    <style>
      .cls-1 {
        stroke-width: 2px;
      }

      .cls-1, .cls-2, .cls-3, .cls-4 {
        stroke-miterlimit: 10;
      }

      .cls-1, .cls-2, .cls-4 {
        fill: none;
      }

      .cls-1, .cls-4 {
        stroke: #231f20;
      }

      .cls-5 {
        font-size: 10.21px;
      }

      .cls-5, .cls-6, .cls-7, .cls-8, .cls-9, .cls-10, .cls-11 {
        fill: #231f20;
      }

      .cls-5, .cls-7, .cls-8, .cls-10, .cls-11 {
        font-family: Swiss721BT-Black, 'Swis721 Blk BT';
        font-weight: 800;
      }

      .cls-2, .cls-3 {
        stroke: #000;
      }

      .cls-12 {
        fill: #f47725;
      }

      .cls-13 {
        fill: #f1f2f2;
      }

      .cls-3 {
        fill: #fff;
      }

      .cls-14 {
        letter-spacing: -.04em;
      }

      .cls-7 {
        font-size: 13.26px;
      }

      .cls-8 {
        font-size: 13.26px;
      }

      .cls-9 {
        fill-rule: evenodd;
      }

      .cls-10 {
        font-size: 39.15px;
      }

      .cls-15 {
        letter-spacing: .02em;
      }

      .cls-11 {
        font-size: 10.85px;
      }

      .cls-16 {
        fill: #010101;
      }

      .cls-17 {
        letter-spacing: -.04em;
      }
    </style>
  </defs>
  <g id="cladire">
    <g>
      <path class="cls-13" d="M808.5,764.74c-19.35-6.46-37.5-12.43-55.05-18.21-14.88-4.89-30.26-9.96-46.56-15.38-25.49-8.48-53.57-18.3-75.12-26.28-77.54-28.71-152.57-61.62-223.01-97.83-124.59-64.04-236.58-137.27-332.83-217.65-.86-.72-2.77-2.27-5.43-4.43-8.75-7.11-25.04-20.35-39.07-32.4-7.86-6.75-13.96-12.23-18.14-16.29-6.26-6.09-9.9-10.1-7.63-14.35.29-.54,168.92-316.92,168.92-316.92h640.5v761.94l-6.58-2.2Z"/>
      <path class="cls-13" d="M810.08,10v750c-35.64-11.9-65.96-21.73-101.61-33.59-23.3-7.75-51.91-17.69-74.96-26.22-75.98-28.13-150.43-60.57-222.46-97.59-117.48-60.39-230.49-132.35-331.91-217.04-6.49-5.42-71.26-57.15-69.06-61.29,0,0,167.5-314.27,167.5-314.27h632.5M820.08,0H171.59l-2.82,5.3C167.09,8.43,1.57,318.98,1.26,319.57c-2.3,4.32-1.45,8.99,2.54,13.9,1.39,1.71,3.36,3.8,6.02,6.39,4.25,4.13,10.42,9.68,18.36,16.49,14.08,12.09,30.4,25.36,39.17,32.49,2.65,2.15,4.56,3.71,5.38,4.4,96.54,80.62,208.83,154.05,333.75,218.26,70.62,36.3,145.83,69.29,223.56,98.07,21.57,7.99,49.72,17.83,75.28,26.33,16.32,5.43,31.72,10.49,46.61,15.39,17.53,5.77,35.66,11.73,54.99,18.19l13.17,4.4V0h0Z"/>
      <path class="cls-1" d="M633.51,700.19c23.05,8.53,51.66,18.47,74.96,26.22,35.66,11.86,65.97,21.68,101.61,33.59V10H177.59S10.09,324.27,10.08,324.27c-2.2,4.14,62.57,55.87,69.06,61.29,101.42,84.69,214.44,156.66,331.91,217.04,72.02,37.02,146.48,69.46,222.46,97.59Z"/>
    </g>
  </g>
  <g id="magazine">
    <polyline class="cls-4" points="810.08 263.8 702.47 263.8 702.47 248.12"/>
    <polyline class="cls-4" points="632.51 248.12 735.75 248.12 735.75 233.87 695.91 233.87 695.91 203.79 633.24 203.79 633.24 700.93"/>
    <polyline class="cls-4" points="145.71 69.69 175.09 84.73 175.21 96.5 169.38 109.24 134.28 91.09"/>
    <polyline class="cls-4" points="632.63 10 632.63 91.82 568.01 91.82 568.01 10"/>
    <line class="cls-4" x1="735.75" y1="186.74" x2="810.08" y2="186.74"/>
    <polyline class="cls-4" points="175.21 97.71 383.52 97.71 383.52 10"/>
    <polyline class="cls-4" points="810.08 116.23 751.3 116.23 751.3 123.41 735.75 123.41 735.75 186.74 630.32 186.74 630.32 178.22 540.44 99.3 401.13 99.3 401.13 59.11 461.74 59.11 461.74 10"/>
    <polyline class="cls-4" points="29.25 288.32 76.59 288.92 110.84 315.35 120.07 303.51 217.12 115.37 183.96 115.37 147.88 185.4 119.95 170.79 111.81 186.5 90.92 176.02"/>
    <path class="cls-4" d="M127.36,319.25l-27.21,35.81,11.3,8.65-19.07,26.43c66.42,48.51,133.91,93.2,202.59,133.6l-.85,2.56,16.64,9.62,9.35-17.29,13.97,7.19,8.62-15.83,62.19,33.74,20.53-38.49c-107.14-59.15-206.9-120.99-298.06-185.97Z"/>
    <line class="cls-4" x1="187.93" y1="361.24" x2="142.69" y2="426.41"/>
    <line class="cls-4" x1="214.62" y1="378.81" x2="170.72" y2="445.2"/>
    <polyline class="cls-4" points="258.9 407.22 229.99 451.75 217.97 444.08 203.54 467.01"/>
    <polyline class="cls-4" points="289.81 426.41 262.33 471.94 277.36 480.86 262.91 504.51"/>
    <line class="cls-4" x1="316.68" y1="442.7" x2="275.82" y2="512.34"/>
    <line class="cls-4" x1="294.97" y1="523.73" x2="335.64" y2="453.98"/>
    <line class="cls-4" x1="320.11" y1="518.62" x2="303.37" y2="509.33"/>
    <line class="cls-4" x1="342.71" y1="509.97" x2="364.12" y2="470.61"/>
    <line class="cls-4" x1="366.92" y1="523.1" x2="388.71" y2="484.68"/>
    <path class="cls-4" d="M557.69,669.51c13.73-29.3,32.57-46.67,57.51-49.84l-.06-47.35h-24.53l-43.97-21.43-18.83,6.94-89.27-43.23-42.14,80.4"/>
    <line class="cls-4" x1="557.69" y1="669.51" x2="557.69" y2="556.07"/>
    <polygon class="cls-4" points="450.32 234.48 555.02 234.48 555.02 388.79 537.41 388.79 537.41 386.72 512.87 386.72 512.87 372.47 435.14 372.47 435.14 320.22 440.85 320.22 440.85 296.23 450.32 296.23 450.32 234.48"/>
    <line class="cls-3" x1="158.66" y1="164.49" x2="184.57" y2="178.47"/>
    <polyline class="cls-2" points="111.81 186.5 110.02 189.59 163.67 218.98"/>
    <line class="cls-2" x1="163.67" y1="167.2" x2="141.86" y2="207.03"/>
    <line class="cls-4" x1="70.72" y1="210.51" x2="146.89" y2="251.51"/>
  </g>
  <g id="logo">
    <path class="cls-6" d="M120.7,366.97c2.12-2.12,5.21-4.39,9.26-6.8,3.51-2.09,6.79-3.69,9.85-4.8,5.32-1.95,8.93-1.96,10.84-.06.77,1.05,1.18,2.32,1.23,3.83.11,3.57-1.6,7.85-5.11,12.83.03-.07,1.13-.73,3.31-1.97,6.52-3.69,10.93-4.37,13.22-2.04,2.11,2.15,2.23,5.8.37,10.95-1.11,3.02-2.79,6.27-5.01,9.74-2.39,3.72-4.77,6.77-7.13,9.13l-3.09-3.09c7.57-7.57,12.14-14.36,13.71-20.36.62-2.4.54-4-.26-4.79-1.04-1.04-3.5-.49-7.37,1.65-4.38,2.43-9.37,6.4-14.97,11.91l-3.61-3.51c7.32-7.32,11.76-13.54,13.34-18.66.63-2.05.59-3.41-.09-4.1-1-1-3.36-.7-7.08.9-6.02,2.6-11.98,6.81-17.89,12.63l-3.48-3.37Z"/>
    <g>
      <path class="cls-6" d="M480.95,299.11v-13.75h-4.07v-4.92h12.67v4.92h-4.07v13.75h-4.54Z"/>
      <path class="cls-6" d="M490.42,289.79c0-3.04.66-5.44,1.97-7.2,1.31-1.76,3.11-2.64,5.38-2.64s4.05.88,5.36,2.64c1.31,1.76,1.97,4.16,1.97,7.2s-.66,5.43-1.97,7.19c-1.31,1.76-3.1,2.64-5.36,2.64s-4.06-.88-5.38-2.64c-1.31-1.76-1.97-4.16-1.97-7.19ZM494.99,289.79c0,1.77.22,3.06.67,3.89.45.83,1.15,1.24,2.1,1.24s1.64-.41,2.08-1.24.66-2.12.66-3.9-.22-3.09-.66-3.91-1.14-1.24-2.08-1.24-1.65.41-2.1,1.24c-.45.83-.67,2.13-.67,3.9Z"/>
      <path class="cls-6" d="M507.17,299.11v-18.67h4.31l3.96,8.68c.12.25.25.59.39,1.04s.28.99.44,1.62c-.04-.33-.07-.69-.09-1.09-.02-.4-.03-.88-.03-1.44v-8.81h4.33v18.67h-4.33l-3.96-8.62c-.12-.25-.25-.61-.4-1.08-.14-.46-.29-1-.44-1.6.04.33.08.67.1,1.03s.03.86.03,1.51v8.74h-4.31Z"/>
      <path class="cls-6" d="M453.54,330.25v-18.67h5.79c1.25,0,2.16.04,2.72.13s1.06.22,1.47.42c.72.35,1.27.91,1.65,1.66.38.75.57,1.66.57,2.74,0,.85-.14,1.58-.43,2.21-.29.63-.71,1.15-1.28,1.55.75.35,1.3.89,1.66,1.6.36.71.54,1.63.54,2.76s-.17,2.07-.52,2.88-.86,1.44-1.52,1.88c-.45.3-.96.52-1.54.65-.58.13-1.53.19-2.86.19h-6.25ZM457.94,319.03h1.87c.63,0,1.07-.12,1.32-.37s.38-.66.38-1.24c0-.62-.14-1.04-.41-1.27-.28-.23-.91-.34-1.91-.34h-1.26v3.22ZM457.94,325.89h2.1c.7,0,1.19-.14,1.49-.41.29-.27.44-.71.44-1.33s-.15-1.06-.45-1.32c-.3-.26-.81-.39-1.52-.39h-2.06v3.45Z"/>
      <path class="cls-6" d="M467.82,320.94c0-3.04.66-5.44,1.97-7.2,1.31-1.76,3.11-2.64,5.38-2.64s4.05.88,5.36,2.64c1.31,1.76,1.97,4.16,1.97,7.2s-.66,5.43-1.97,7.19c-1.31,1.76-3.1,2.64-5.36,2.64s-4.06-.88-5.38-2.64c-1.31-1.76-1.97-4.16-1.97-7.19ZM472.4,320.94c0,1.77.22,3.06.67,3.89.45.83,1.15,1.24,2.1,1.24s1.64-.41,2.08-1.24.66-2.12.66-3.9-.22-3.09-.66-3.91-1.14-1.24-2.08-1.24-1.65.41-2.1,1.24c-.45.83-.67,2.13-.67,3.9Z"/>
      <path class="cls-6" d="M484.57,330.25v-18.67h4.31l3.96,8.68c.12.25.25.59.39,1.04s.28.99.44,1.62c-.04-.33-.07-.69-.09-1.09-.02-.4-.03-.88-.03-1.44v-8.81h4.33v18.67h-4.33l-3.96-8.62c-.12-.25-.25-.61-.4-1.08-.14-.46-.29-1-.44-1.6.04.33.08.67.1,1.03s.03.86.03,1.51v8.74h-4.31Z"/>
      <path class="cls-6" d="M500.57,330.25v-18.67h5.79c1.25,0,2.16.04,2.72.13s1.06.22,1.47.42c.72.35,1.27.91,1.65,1.66.38.75.57,1.66.57,2.74,0,.85-.14,1.58-.43,2.21-.29.63-.71,1.15-1.28,1.55.75.35,1.3.89,1.66,1.6.36.71.54,1.63.54,2.76s-.17,2.07-.52,2.88-.86,1.44-1.52,1.88c-.45.3-.96.52-1.54.65-.58.13-1.53.19-2.86.19h-6.25ZM504.97,319.03h1.87c.63,0,1.07-.12,1.32-.37s.38-.66.38-1.24c0-.62-.14-1.04-.41-1.27-.28-.23-.91-.34-1.91-.34h-1.26v3.22ZM504.97,325.89h2.1c.7,0,1.19-.14,1.49-.41.29-.27.44-.71.44-1.33s-.15-1.06-.45-1.32c-.3-.26-.81-.39-1.52-.39h-2.06v3.45Z"/>
      <path class="cls-6" d="M514.85,320.94c0-3.04.66-5.44,1.97-7.2,1.31-1.76,3.11-2.64,5.38-2.64s4.05.88,5.36,2.64c1.31,1.76,1.97,4.16,1.97,7.2s-.66,5.43-1.97,7.19c-1.31,1.76-3.1,2.64-5.36,2.64s-4.06-.88-5.38-2.64c-1.31-1.76-1.97-4.16-1.97-7.19ZM519.43,320.94c0,1.77.22,3.06.67,3.89.45.83,1.15,1.24,2.1,1.24s1.64-.41,2.08-1.24.66-2.12.66-3.9-.22-3.09-.66-3.91-1.14-1.24-2.08-1.24-1.65.41-2.1,1.24c-.45.83-.67,2.13-.67,3.9Z"/>
      <path class="cls-6" d="M531.6,330.25v-18.67h4.31l3.96,8.68c.12.25.25.59.39,1.04s.28.99.44,1.62c-.04-.33-.07-.69-.09-1.09-.02-.4-.03-.88-.03-1.44v-8.81h4.33v18.67h-4.33l-3.96-8.62c-.12-.25-.25-.61-.4-1.08-.14-.46-.29-1-.44-1.6.04.33.08.67.1,1.03s.03.86.03,1.51v8.74h-4.31Z"/>
    </g>
    <g>
      <path class="cls-6" d="M217.92,41.52h3.1c.08.67.24,1.15.46,1.44.22.29.56.44,1,.44.37,0,.67-.12.88-.36.21-.24.32-.57.32-.99,0-.67-.45-1.21-1.34-1.63-.18-.08-.32-.15-.41-.19-.73-.35-1.31-.67-1.75-.96-.43-.29-.75-.56-.95-.81-.38-.51-.67-1.12-.86-1.83s-.29-1.52-.29-2.44c0-1.83.37-3.27,1.11-4.32s1.76-1.57,3.06-1.57,2.28.5,3.01,1.5c.73,1,1.15,2.44,1.24,4.3h-3.02c-.05-.54-.18-.95-.39-1.22-.21-.27-.51-.4-.89-.4-.34,0-.6.1-.76.31s-.25.53-.25.95c0,.61.44,1.12,1.31,1.53.08.04.13.07.18.09.13.06.32.15.57.26,1.15.54,1.91,1.04,2.26,1.48.44.54.76,1.16.96,1.86.2.7.3,1.52.3,2.46,0,2.04-.38,3.61-1.15,4.71-.77,1.1-1.86,1.65-3.29,1.65-1.32,0-2.36-.55-3.13-1.65-.77-1.1-1.2-2.64-1.3-4.64Z"/>
      <path class="cls-6" d="M228.21,47.29v-18.5h3.19v6.28h2.97v-6.28h3.19v18.5h-3.19v-7.17h-2.97v7.17h-3.19Z"/>
      <path class="cls-6" d="M241.51,47.29v-13.63h-2.85v-4.87h8.9v4.87h-2.85v13.63h-3.19Z"/>
      <path class="cls-6" d="M247.11,47.29l3.49-18.5h3.23l3.49,18.5h-3.16l-.37-2.45h-3.16l-.38,2.45h-3.13ZM251.21,40.96h2l-.99-6.41-1.01,6.41Z"/>
      <path class="cls-6" d="M257.76,41.52h3.1c.08.67.24,1.15.46,1.44.22.29.56.44,1,.44.37,0,.67-.12.88-.36.21-.24.32-.57.32-.99,0-.67-.45-1.21-1.34-1.63-.18-.08-.32-.15-.41-.19-.73-.35-1.31-.67-1.75-.96-.43-.29-.75-.56-.95-.81-.38-.51-.67-1.12-.86-1.83s-.29-1.52-.29-2.44c0-1.83.37-3.27,1.11-4.32s1.76-1.57,3.06-1.57,2.28.5,3.01,1.5c.73,1,1.15,2.44,1.24,4.3h-3.02c-.05-.54-.18-.95-.39-1.22-.21-.27-.51-.4-.89-.4-.34,0-.6.1-.76.31s-.25.53-.25.95c0,.61.44,1.12,1.31,1.53.08.04.13.07.18.09.13.06.32.15.57.26,1.15.54,1.91,1.04,2.26,1.48.44.54.76,1.16.96,1.86.2.7.3,1.52.3,2.46,0,2.04-.38,3.61-1.15,4.71-.77,1.1-1.86,1.65-3.29,1.65-1.32,0-2.36-.55-3.13-1.65-.77-1.1-1.2-2.64-1.3-4.64Z"/>
      <path class="cls-6" d="M270.14,47.29v-13.63h-2.85v-4.87h8.9v4.87h-2.85v13.63h-3.19Z"/>
      <path class="cls-6" d="M277.21,47.29v-18.5h3.19v13.59h4.33v4.91h-7.51Z"/>
      <path class="cls-6" d="M286.08,47.29v-18.5h3.25v18.5h-3.25Z"/>
      <path class="cls-6" d="M290.45,28.79h3.26l1.67,11.95,1.79-11.95h3.13l-3.34,18.5h-3.17l-3.34-18.5Z"/>
      <path class="cls-6" d="M301.37,47.29v-18.5h7.93v4.43h-4.74v2.46h4.01v4.25h-4.01v2.86h4.94v4.5h-8.12Z"/>
      <path class="cls-6" d="M313.07,47.29v-13.63h-2.85v-4.87h8.9v4.87h-2.85v13.63h-3.19Z"/>
      <path class="cls-6" d="M319.67,41.52h3.1c.08.67.24,1.15.46,1.44.22.29.56.44,1,.44.37,0,.67-.12.88-.36.21-.24.32-.57.32-.99,0-.67-.45-1.21-1.34-1.63-.18-.08-.32-.15-.41-.19-.73-.35-1.31-.67-1.75-.96-.43-.29-.75-.56-.95-.81-.38-.51-.67-1.12-.86-1.83s-.29-1.52-.29-2.44c0-1.83.37-3.27,1.11-4.32s1.76-1.57,3.06-1.57,2.28.5,3.01,1.5c.73,1,1.15,2.44,1.24,4.3h-3.02c-.05-.54-.18-.95-.39-1.22-.21-.27-.51-.4-.89-.4-.34,0-.6.1-.76.31s-.25.53-.25.95c0,.61.44,1.12,1.31,1.53.08.04.13.07.18.09.13.06.32.15.57.26,1.15.54,1.91,1.04,2.26,1.48.44.54.76,1.16.96,1.86.2.7.3,1.52.3,2.46,0,2.04-.38,3.61-1.15,4.71-.77,1.1-1.86,1.65-3.29,1.65-1.32,0-2.36-.55-3.13-1.65-.77-1.1-1.2-2.64-1.3-4.64Z"/>
      <path class="cls-6" d="M328.99,47.29l3.49-18.5h3.23l3.49,18.5h-3.16l-.37-2.45h-3.16l-.38,2.45h-3.13ZM333.09,40.96h2l-.99-6.41-1.01,6.41Z"/>
      <path class="cls-6" d="M228.84,78.17v-18.5h4.75c1.49,0,2.55.41,3.18,1.24s.95,2.19.95,4.08c0,1.13-.13,2.07-.39,2.81s-.66,1.34-1.21,1.77c.55.22.95.65,1.21,1.29s.39,1.58.4,2.82l.05,2.58s0,.04,0,.06c.01.74.11,1.12.28,1.16v.69h-3.21c-.06-.44-.1-.83-.13-1.16-.03-.33-.04-.59-.04-.77v-1.85c0-.96-.1-1.63-.3-2.02-.2-.39-.55-.58-1.05-.58h-1.35v6.38h-3.14ZM231.99,67.61h1.45c.51,0,.86-.13,1.05-.38.19-.26.29-.7.29-1.34s-.1-1.11-.29-1.36-.57-.38-1.13-.38h-1.37v3.47Z"/>
      <path class="cls-6" d="M239.37,78.17v-18.5h7.93v4.43h-4.74v2.46h4.01v4.25h-4.01v2.86h4.94v4.5h-8.12Z"/>
      <path class="cls-6" d="M248.51,72.4h3.1c.08.67.24,1.15.46,1.44.22.29.56.44,1,.44.37,0,.67-.12.88-.36.21-.24.32-.57.32-.99,0-.67-.45-1.21-1.34-1.63-.18-.08-.32-.15-.41-.19-.73-.35-1.31-.67-1.75-.96-.43-.29-.75-.56-.95-.81-.38-.51-.67-1.12-.86-1.83s-.29-1.52-.29-2.44c0-1.83.37-3.27,1.11-4.32s1.76-1.57,3.06-1.57,2.28.5,3.01,1.5c.73,1,1.15,2.44,1.24,4.3h-3.02c-.05-.54-.18-.95-.39-1.22-.21-.27-.51-.4-.89-.4-.34,0-.6.1-.76.31s-.25.53-.25.95c0,.61.44,1.12,1.31,1.53.08.04.13.07.18.09.13.06.32.15.57.26,1.15.54,1.91,1.04,2.26,1.48.44.54.76,1.16.96,1.86.2.7.3,1.52.3,2.46,0,2.04-.38,3.61-1.15,4.71-.77,1.1-1.86,1.65-3.29,1.65-1.32,0-2.36-.55-3.13-1.65-.77-1.1-1.2-2.64-1.3-4.64Z"/>
      <path class="cls-6" d="M260.89,78.17v-13.63h-2.85v-4.87h8.9v4.87h-2.85v13.63h-3.19Z"/>
      <path class="cls-6" d="M266.49,78.17l3.49-18.5h3.23l3.49,18.5h-3.16l-.37-2.45h-3.16l-.38,2.45h-3.13ZM270.59,71.83h2l-.99-6.41-1.01,6.41Z"/>
      <path class="cls-6" d="M277.34,59.66h3.18v11.41c0,1.06.12,1.81.35,2.26.24.45.63.67,1.18.67s.92-.22,1.15-.66c.23-.44.35-1.2.35-2.27v-11.41h3.19v11.87c0,2.32-.4,4.09-1.2,5.31-.8,1.22-1.96,1.83-3.48,1.83s-2.7-.61-3.51-1.84-1.21-3-1.21-5.31v-11.87Z"/>
      <path class="cls-6" d="M288.6,78.17v-18.5h4.75c1.49,0,2.55.41,3.18,1.24s.95,2.19.95,4.08c0,1.13-.13,2.07-.39,2.81s-.66,1.34-1.21,1.77c.55.22.95.65,1.21,1.29s.39,1.58.4,2.82l.05,2.58s0,.04,0,.06c.01.74.11,1.12.28,1.16v.69h-3.21c-.06-.44-.1-.83-.13-1.16-.03-.33-.04-.59-.04-.77v-1.85c0-.96-.1-1.63-.3-2.02-.2-.39-.55-.58-1.05-.58h-1.35v6.38h-3.14ZM291.75,67.61h1.45c.51,0,.86-.13,1.05-.38.19-.26.29-.7.29-1.34s-.1-1.11-.29-1.36-.57-.38-1.13-.38h-1.37v3.47Z"/>
      <path class="cls-6" d="M298.15,78.17l3.49-18.5h3.23l3.49,18.5h-3.16l-.37-2.45h-3.16l-.38,2.45h-3.13ZM302.24,71.83h2l-.99-6.41-1.01,6.41Z"/>
      <path class="cls-6" d="M309.26,78.17v-18.5h3.02l2.78,8.61c.09.24.18.59.27,1.03.1.44.2.98.31,1.61-.03-.33-.05-.69-.06-1.08-.01-.39-.02-.87-.02-1.43v-8.73h3.04v18.5h-3.04l-2.78-8.54c-.09-.25-.18-.61-.28-1.07s-.2-.99-.31-1.58c.03.33.05.67.07,1.02.01.36.02.86.02,1.5v8.67h-3.02Z"/>
      <path class="cls-6" d="M322.57,78.17v-13.63h-2.85v-4.87h8.9v4.87h-2.85v13.63h-3.19Z"/>
    </g>
    <text class="cls-7" transform="translate(198.21 451.03) rotate(-55.34) scale(.76 1) skewX(-.19)"><tspan x="0" y="0">PIZZA LAB</tspan></text>
    <g>
      <path class="cls-6" d="M280.54,477.25l1.55-2.71-1.69-.97-1.73,3s-.05.08-.08.12c-.61,1.06-.25,2.42.81,3.03.78.45,1.73.37,2.42-.13l2.07-1.37c.49-.32.85-.01.56.5l-1.58,2.75-.85-.49.18,1.63.18,1.63,1.5-.66,1.5-.66-.85-.49,1.92-3.25c.61-1.06.25-2.42-.81-3.03-.54-.31-1.19-.54-1.81-.25l-2.73,1.74c-.22.14-.69-.17-.56-.4h0ZM284.12,467.17l4.48,2.59c.79.46,1.27,1.09,1.43,1.9.16.81-.01,1.66-.52,2.55s-1.13,1.44-1.86,1.64c-.73.21-1.53.06-2.39-.44l-4.41-2.55,1.2-2.08,4.63,2.68c.42.24.97.1,1.21-.33h0c.24-.42.1-.97-.32-1.21l-4.63-2.68,1.2-2.08h0ZM293.59,466.71c.61-1.06.25-2.42-.81-3.03-.72-.42-1.59-.38-2.25.02-.06-.65-.43-1.27-1.04-1.62-.96-.56-2.18-.26-2.79.64h-.02s-2.22,3.85-2.22,3.85l6.91,4,2.22-3.86h0ZM289.69,466.86l.57-1c.23-.4.74-.53,1.14-.31h0c.37.21.5.69.28,1.06l-.6,1.05-1.39-.81h0ZM287.16,465.4l.48-.83c.19-.33.62-.45.95-.26h0c.31.18.42.58.24.89l-.5.88-1.17-.67h0Z"/>
      <path class="cls-9" d="M301.81,440.23l1.42.82c.99.57,1.35,1.83.84,2.84l2.02,1.17-1.29,2.24-2.03-1.17c-.63.9-1.86,1.18-2.83.62l-3.08-1.78,1.18-2.05,2.76,1.59c.36.21.82.08,1.03-.28l.17-.3c.21-.36.08-.83-.28-1.03l-1.46-.85h0s-.02-.02-.03-.02c-.7-.4-.94-1.3-.54-2h0s0,0,0,0h0s0,0,0,0h0s0,0,0,0h0s0,0,0,0h0s0-.01,0-.01h0s.14-.24.14-.24l.3-.51.57-1-.85-.49,1.5-.66,1.5-.66.18,1.63.18,1.63-.85-.49-.57,1h0ZM301.4,453.15l-1.2,2.09-4.39-2.54c-.85-.49-1.36-1.13-1.52-1.94-.17-.8.03-1.68.58-2.64s1.14-1.48,1.82-1.68c.68-.2,1.46-.04,2.35.48l4.46,2.58-1.2,2.09-2.02-1.17-.89,1.55,2.02,1.17h0ZM298.79,449.57l-1.16-.67c-.43-.25-.98-.1-1.22.33h0c-.25.43-.1.98.33,1.22l1.16.67.89-1.55h0ZM293,451.76l4.97,2.88c.62.36,1,.87,1.14,1.54.14.67,0,1.35-.39,2.05-.03.04-.05.09-.07.13-.19.39-.65,1.21-1.54,1.5.26.93-.27,1.7-.46,2-.07.11-.13.22-.2.34-.42.73-.94,1.18-1.55,1.34-.61.16-1.29.03-2.03-.4l-4.8-2.78,1.19-2.06,4.72,2.73c.34.19.77.08.96-.26h0c.19-.34.08-.77-.26-.97l-4.72-2.73,1.13-1.97,4.72,2.73c.34.19.77.08.96-.26h0c.19-.34.08-.77-.26-.97l-4.72-2.73,1.21-2.11h0ZM305.61,443.5c.05-.09.12-.16.21-.22.09-.06.19-.08.3-.08.11,0,.21.03.3.08s.16.12.22.22c.06.09.08.19.08.3,0,.11-.03.21-.08.3s-.12.16-.22.22c-.09.06-.19.08-.3.08-.11,0-.21-.03-.3-.08s-.16-.13-.22-.22c-.06-.09-.08-.2-.08-.3,0-.11.03-.21.08-.29h0ZM305.7,443.55c-.04.07-.06.15-.07.24,0,.09.02.18.07.25.05.08.11.14.18.18s.16.07.25.07c.09,0,.17-.02.25-.07.08-.05.14-.11.18-.18s.06-.16.07-.25c0-.09-.02-.17-.07-.25-.05-.08-.11-.14-.18-.18s-.16-.07-.25-.07c-.09,0-.18.02-.25.07-.08.05-.14.11-.18.18h0ZM306.28,444.2l-.55-.32.11-.19c.04-.07.07-.11.1-.13.03-.02.06-.04.09-.04.04,0,.07,0,.1.02.04.02.07.06.08.1.01.05,0,.09-.02.15.02-.01.04-.03.06-.03.03,0,.09-.02.16-.02h.15s-.06.1-.06.1h-.12c-.09,0-.15,0-.18.02-.02,0-.04.03-.06.06l-.03.05.24.14-.05.09h0ZM306.02,443.92l.06-.11c.03-.05.04-.09.04-.12,0-.03-.02-.05-.04-.06-.02,0-.03-.01-.05-.01-.02,0-.04,0-.05.02-.02.01-.04.04-.06.08l-.06.1.17.1h0Z"/>
    </g>
    <text class="cls-11" transform="translate(297.26 502.76) rotate(-59.3) scale(.76 1) skewX(-.18)"><tspan x="0" y="0">M</tspan><tspan class="cls-15" x="10.27" y="0">R</tspan><tspan x="18.75" y="0">.DONER</tspan></text>
    <text class="cls-8" transform="translate(331.9 503.11) rotate(-60.97) scale(.76 1) skewX(-.17)"><tspan x="0" y="0">BMS</tspan></text>
    <g>
      <path class="cls-6" d="M673.9,440.68h5.72c-.17,3.27-1.04,5.81-2.62,7.62-1.58,1.81-3.71,2.71-6.4,2.71-3.01,0-5.39-1.17-7.12-3.5-1.73-2.33-2.59-5.53-2.59-9.59s.86-7.25,2.57-9.58c1.71-2.34,4.05-3.51,7-3.51,2.73,0,4.87.87,6.43,2.61,1.56,1.74,2.44,4.22,2.62,7.45h-5.79c-.09-1.27-.4-2.23-.93-2.88-.54-.65-1.29-.97-2.26-.97-1.18,0-2.07.57-2.66,1.71-.59,1.14-.89,2.87-.89,5.17s.31,3.97.95,5.13c.63,1.16,1.55,1.74,2.77,1.74.94,0,1.68-.35,2.23-1.06.55-.71.87-1.72.96-3.04Z"/>
      <path class="cls-6" d="M682.27,450.32v-24.86h6.16v24.86h-6.16Z"/>
      <path class="cls-6" d="M692.1,450.32v-24.86h5.74l5.28,11.56c.16.33.33.79.52,1.38.18.6.38,1.32.58,2.16-.05-.44-.09-.92-.12-1.45-.03-.53-.04-1.17-.04-1.92v-11.73h5.76v24.86h-5.76l-5.28-11.48c-.16-.34-.34-.82-.53-1.43s-.39-1.33-.58-2.13c.06.44.1.9.13,1.38.03.48.04,1.15.04,2.02v11.64h-5.74Z"/>
      <path class="cls-6" d="M713.4,450.32v-24.86h15.04v5.96h-9v3.31h7.6v5.7h-7.6v3.85h9.36v6.04h-15.41Z"/>
      <path class="cls-6" d="M737.1,450.32h-5.47v-24.86h7.36l2.61,12.4c.03.17.1.55.21,1.16.1.6.25,1.43.43,2.49.12-.83.23-1.56.33-2.19.1-.62.19-1.09.27-1.41l2.67-12.45h7.35v24.86h-5.47l.05-12.24c0-.74,0-1.46,0-2.17,0-.7,0-1.43.02-2.19-.2,1.28-.45,2.68-.74,4.2l-.04.22-2.33,12.17h-4.22l-2.35-11.9c-.11-.54-.22-1.16-.33-1.86-.11-.7-.25-1.64-.43-2.83.03,1.07.04,1.99.06,2.75.01.77.02,1.38.02,1.84v12Z"/>
      <path class="cls-6" d="M754.56,450.32l6.62-24.86h6.12l6.62,24.86h-5.99l-.7-3.29h-5.99l-.73,3.29h-5.94ZM762.32,441.81h3.79l-1.88-8.61-1.92,8.61Z"/>
      <path class="cls-6" d="M701.65,482.15h5.72c-.17,3.27-1.04,5.81-2.62,7.62-1.58,1.81-3.71,2.71-6.4,2.71-3.01,0-5.39-1.17-7.12-3.5-1.73-2.33-2.59-5.53-2.59-9.59s.86-7.25,2.57-9.58c1.71-2.34,4.05-3.51,7-3.51,2.73,0,4.87.87,6.43,2.61,1.56,1.74,2.44,4.22,2.62,7.45h-5.79c-.09-1.27-.4-2.23-.93-2.88-.54-.65-1.29-.97-2.26-.97-1.18,0-2.07.57-2.66,1.71-.59,1.14-.89,2.87-.89,5.17s.31,3.97.95,5.13c.63,1.16,1.55,1.74,2.77,1.74.94,0,1.68-.35,2.23-1.06.55-.71.87-1.72.96-3.04Z"/>
      <path class="cls-6" d="M710.02,491.79v-24.86h6.16v24.86h-6.16Z"/>
      <path class="cls-6" d="M723.82,491.79v-18.31h-5.42v-6.55h16.88v6.55h-5.42v18.31h-6.04Z"/>
      <path class="cls-6" d="M742.15,491.79v-9.2l-6.92-15.66h6.69l3.25,8.47,3.27-8.47h6.52l-6.76,15.66v9.2h-6.04Z"/>
    </g>
    <text class="cls-10" transform="translate(615.21 137.26) scale(.47 1)"><tspan class="cls-14" x="0" y="0">A</tspan><tspan x="27.37" y="0">THLETIC</tspan></text>
    <text class="cls-5" transform="translate(638.49 228.05) scale(1.01 1)"><tspan class="cls-17" x="0" y="0">A</tspan><tspan x="7.14" y="0">THLETIC</tspan></text>
    <path class="cls-12" d="M786.15,143.02c0-1.71-1.38-3.09-3.09-3.09h-20.15c-1.7,0-3.09,1.38-3.09,3.09v20.21c0,1.71,1.38,3.09,3.09,3.09h20.15c1.7,0,3.09-1.38,3.09-3.09v-20.21ZM778.73,143.84c.85,0,1.54.69,1.54,1.54s-.69,1.55-1.54,1.55-1.54-.69-1.54-1.55.68-1.54,1.54-1.54ZM766.85,143.84c.85,0,1.54.69,1.54,1.54s-.69,1.55-1.54,1.55-1.54-.69-1.54-1.55.69-1.54,1.54-1.54ZM769.92,148.26l-.43,5.17c-.03.33-.24.6-.55.72h0c-.31.12-.52.41-.54.74l-.4,6.7c-.03.45-.4.8-.86.8h-.57c-.45,0-.82-.35-.85-.8l-.4-6.7c-.02-.33-.23-.63-.54-.74-.31-.11-.52-.4-.55-.73l-.42-5.17c-.03-.42.25-.81.67-.91l.42-.09c.29-.06.57.02.78.23l.59.6c.33.33.87.33,1.21,0l.6-.6c.21-.21.5-.29.78-.23l.43.09c.38.1.66.49.64.92ZM773.2,162.39c0,.23-.19.41-.41.41s-.42-.19-.42-.41v-18.55c0-.23.19-.41.42-.41s.41.18.41.41v18.55ZM781.74,154.14c-.29.07-.48.35-.43.64l.18,1.33c.05.31-.18.61-.48.65l-.39.05c-.27.04-.47.27-.49.54l-.26,4.25c-.03.45-.4.8-.85.8h-.57c-.45,0-.82-.35-.85-.8l-.26-4.25c-.02-.28-.23-.49-.49-.54l-.39-.05c-.31-.04-.53-.34-.48-.65l.18-1.33c.05-.29-.14-.57-.43-.64-.3-.07-.48-.37-.42-.68l1.16-5.53c.08-.39.53-.59.87-.36l1.09.7c.18.12.43.12.63,0l1.09-.7c.34-.21.79-.03.87.36l1.17,5.53c.05.3-.14.6-.43.68Z"/>
    <path class="cls-12" d="M285.47,206.67c-.5.07-2.41.54-4.24,1.01-13.32,3.49-24.13,14.33-27.93,27.97-1.15,4.14-1.58,12.35-.86,16.77,1.94,12.17,9.62,23,20.46,28.8,4.49,2.41,12.57,4.93,12.57,3.92s-4.38-23.94-4.74-24.84c-.21-.54-1.97-2.48-3.95-4.32-4.06-3.74-5.06-5.22-5.85-8.6-.65-2.84-3.77-22.21-3.77-23.47,0-.94,1.22-1.66,1.83-1.04.18.18,1.44,5.26,2.76,11.3,2.26,10.19,2.48,10.94,3.23,11.05.43.07.86-.11.97-.36.11-.25-.93-5.4-2.3-11.45-1.36-6.05-2.4-11.09-2.3-11.27.07-.14.57-.25,1.11-.25h1.01l2.48,11.23c2.55,11.48,2.77,11.99,4.13,11.12.43-.29.14-2.02-1.94-11.34-1.36-6.05-2.37-11.27-2.23-11.55.11-.29.57-.54,1.04-.54.79,0,.93.32,2.41,6.91,3.66,16.49,3.41,15.59,4.24,15.69.43.07.86-.11.97-.36.11-.25-.93-5.4-2.3-11.45-2.26-10.01-2.41-11.02-1.9-11.45,1.36-1.04,1.58-.5,5.17,11.99,3.34,11.52,3.52,12.38,3.37,14.94-.11,2.23-.4,3.35-1.8,6.48-1.15,2.66-1.65,4.28-1.65,5.4,0,1.91,6.64,25.31,6.97,24.48.11-.29.93-4.07,1.83-8.35l1.65-7.81-.61-1.84c-.65-2.02-.61-3.71.43-13.68.68-6.84,1.87-12.6,4.09-20.05,2.37-7.92,4.74-12.74,7.68-15.77,3.73-3.82,5.96-3.49,5.96.86,0,3.02-8.8,48.85-9.73,50.61-.47.9-1.19,4.07-1.97,8.64-.68,3.96-1.33,7.63-1.44,8.17l-.18.97,1.9-.54c7.61-2.2,13.35-5.65,18.67-11.23,7.11-7.45,10.73-16.6,10.77-27.07.03-11.2-3.95-20.92-11.78-28.65-5.49-5.47-12.85-9.32-20.54-10.8-2.44-.47-11.45-.65-13.72-.25h0ZM285.47,206.67"/>
    <g>
      <g>
        <path class="cls-6" d="M190.7,141.66c.14,0,.27,0,.41,0,0,1.72,0,3.44,0,5.16-.14,0-.27,0-.41,0v-.64c-.21.31-.5.55-.82.66-.42.14-.88.09-1.26-.16-.44-.3-.77-.83-.84-1.42-.05-.44,0-.9.2-1.28.23-.45.61-.81,1.05-.92.33-.09.69-.07,1,.09.27.13.5.37.67.64,0-.71,0-1.41,0-2.12ZM189.25,143.49c-.11.02-.21.05-.31.1-.46.23-.77.81-.76,1.39,0,.34.11.68.29.94.18.27.45.47.75.54.5.11,1.05-.15,1.32-.65.19-.35.23-.79.16-1.19-.07-.39-.3-.74-.6-.95-.25-.18-.56-.23-.85-.18Z"/>
        <path class="cls-6" d="M172.7,141.75c.24-.07.52.15.54.44.03.28-.19.55-.43.54-.23.02-.45-.21-.45-.48-.01-.24.15-.46.35-.5Z"/>
        <path class="cls-6" d="M192.62,141.8c.1-.04.21-.03.3.04.09.06.15.17.16.3.01.12-.03.26-.11.34-.1.11-.26.14-.38.07-.12-.06-.21-.21-.2-.37,0-.16.09-.32.23-.38Z"/>
        <path class="cls-6" d="M175.51,143.1c.27-.12.59-.13.86,0,.25.12.48.34.57.64.1.29.09.61.09.92v2.17c-.27,0-.53,0-.8,0,0-.57,0-1.14,0-1.7,0-.24,0-.48-.03-.71-.02-.17-.08-.33-.2-.44-.13-.12-.31-.13-.47-.09-.18.05-.32.2-.41.38-.07.14-.11.29-.12.45-.01.2-.02.39-.02.59v1.52c-.27,0-.54,0-.8,0v-3.72c.27,0,.54,0,.8,0,0,.12,0,.25,0,.38.16-.15.33-.29.52-.38Z"/>
        <path class="cls-6" d="M179,143.17c.27-.16.59-.21.89-.11.21.07.4.21.53.42.08.13.13.27.18.42.13-.28.32-.53.56-.69.26-.18.57-.24.87-.17.26.06.5.26.64.52.17.33.19.72.21,1.09,0,.72,0,1.45,0,2.17-.14,0-.28,0-.42,0,0-.61,0-1.22,0-1.83,0-.29,0-.58-.04-.87-.02-.17-.1-.34-.21-.45-.16-.16-.38-.22-.58-.2-.34.03-.64.29-.79.63-.1.22-.12.48-.14.72-.03.42-.01.85-.02,1.27,0,.24,0,.48,0,.73-.14,0-.27,0-.41,0,0-.54,0-1.08,0-1.62,0-.29,0-.57-.02-.86-.01-.16-.03-.33-.11-.47-.1-.22-.3-.36-.51-.39-.25-.04-.52.06-.71.24-.2.18-.32.45-.37.73-.08.46-.05.93-.06,1.39v.97c-.14,0-.27,0-.41,0,0-1.24,0-2.48,0-3.72h.41v.64c.14-.23.31-.45.53-.57Z"/>
        <path class="cls-6" d="M184.65,143.19c.31-.18.66-.22,1-.17.29.04.57.17.79.39.21.2.39.46.49.76.09.26.13.55.13.83-.96,0-1.93,0-2.89,0,0,.31.07.62.23.88.16.26.39.47.65.55.36.11.75.03,1.07-.2.21-.15.36-.4.49-.65.12.07.23.14.35.21-.13.29-.3.57-.53.76-.23.2-.52.32-.81.35-.36.04-.73-.02-1.05-.23-.25-.16-.44-.42-.59-.7-.32-.62-.31-1.45.02-2.06.16-.3.38-.56.66-.72ZM184.67,143.73c-.24.2-.38.53-.46.85.8,0,1.59,0,2.39,0-.05-.24-.14-.48-.28-.67-.41-.51-1.16-.61-1.65-.18Z"/>
        <path class="cls-6" d="M171.98,143.86c0-.23,0-.47,0-.7.4,0,.79,0,1.19,0,0,1.22,0,2.44,0,3.66-.26,0-.52,0-.77,0,0-.99,0-1.97,0-2.96-.14,0-.28,0-.42,0Z"/>
        <path class="cls-6" d="M192,143.16h1c0,1.22,0,2.44,0,3.66-.19,0-.37,0-.56,0,0-1.04,0-2.08,0-3.11-.14,0-.29,0-.43,0,0-.18,0-.36,0-.55Z"/>
      </g>
      <path class="cls-6" d="M195.38,143.02c.31-.05.64-.01.93.14.27.14.5.38.64.68.2.41.25.9.19,1.36-.08.6-.43,1.12-.88,1.43-.36.25-.8.32-1.22.26-.3-.04-.59-.19-.81-.44-.23-.25-.37-.6-.41-.96-.04-.41,0-.83.13-1.21.12-.32.32-.6.55-.82.25-.24.55-.4.87-.45ZM195.34,143.89c-.18.04-.34.15-.46.32-.16.23-.27.51-.29.81-.01.19,0,.39.07.56.08.19.22.35.39.43.16.07.33.07.5.05.19-.03.38-.13.51-.29.17-.22.29-.5.31-.8.02-.2,0-.41-.07-.59-.08-.21-.25-.38-.44-.45-.17-.06-.35-.06-.52-.02Z"/>
    </g>
    <g id="kfc">
      <path class="cls-16" d="M154.22,83.74l-.49-.24-.32.38c.22.11.48.51.08.65-.08.03-3.97.78-3.97.78l1.7-1.91c.32-.38.84-.19.84-.19l.32-.38-3.4-1.71-.32.38c.13.14.59.43.11,1-3.19,3.53-2.87,3.15-3.03,3.34-.92,1.02-1.38.73-1.54.64l-.32.38-.03.05h0l3.56,1.79.35-.43s-.48-.38-.16-.76c.3-.32,1.54-1.72,1.54-1.72.29,3.32.45,3.94,1.83,4.7l1.78.89.35-.43c-.43-.22-.59-.7-.65-1-.05-.16-.19-1.11-.29-1.97-.08-.78-.19-1.51-.19-1.51l1.05-.21,2.94-.62c.67-.13,1,.03,1,.03l.32-.38-3.07-1.54Z"/>
      <path class="cls-16" d="M168.64,90.91c-.38-.19-.75-.38-1.11-.49-3.02-1.11-5.64-.2-6.56,1.63-.76,1.51-.25,3.59,2.55,5l.54.27c.73.3,1.35.54,1.94.7l1.03-1.24c-.62-.11-1.4-.3-1.94-.57l-.38-.19c-1.24-.76-1.67-2.05-1.13-3.13s1.81-1.59,3.27-1.13c.24.05.51.19.73.3.86.43,1.16.92,1.24,1.43l.22.11,1.32-1.43c-.4-.41-1.02-.92-1.72-1.27Z"/>
      <path class="cls-16" d="M161.12,87.2l-3.34-1.68-.32.38s.62.38.11,1l-4.27,4.74,3.02,1.52.35-.43s-.51-.46-.11-.86c.03-.05,1.24-1.4,1.24-1.4l1.35.68.05.03c.7.35.73.84.73.84l1.24-1.4-1.4-.7-.97-.49.97-1.13.59.3,1.4.7c.38.19.51.59.43.76l.22.11,1.32-1.56-2.61-1.38h0Z"/>
    </g>
    <text class="cls-7" transform="translate(239.89 483.97) rotate(-58.32) scale(.76 1) skewX(-.19)"><tspan x="0" y="0">HESBURGER</tspan></text>
    <g id="kfc-2" data-name="kfc">
      <path class="cls-16" d="M86.11,245.62l-1.21-.61-.81.94c.54.27,1.21,1.28.2,1.61-.2.07-9.87,1.93-9.87,1.93l4.24-4.76c.81-.94,2.08-.47,2.08-.47l.81-.94-8.45-4.24-.81.94c.33.34,1.47,1.08.26,2.48-7.94,8.78-7.13,7.84-7.53,8.31-2.29,2.55-3.43,1.81-3.83,1.6l-.81.94-.07.13h0l8.85,4.45.87-1.07s-1.21-.94-.4-1.88c.74-.8,3.83-4.29,3.83-4.29.72,8.26,1.12,9.8,4.54,11.69l4.43,2.22.87-1.07c-1.07-.54-1.47-1.75-1.61-2.49-.13-.4-.46-2.75-.73-4.9-.2-1.95-.46-3.76-.46-3.76l2.62-.53,7.32-1.53c1.68-.33,2.48.07,2.48.07l.81-.94-7.64-3.84Z"/>
      <path class="cls-16" d="M121.99,263.47c-.94-.47-1.88-.94-2.75-1.21-7.51-2.77-14.03-.5-16.32,4.06-1.89,3.76-.62,8.93,6.35,12.43l1.34.67c1.81.74,3.35,1.35,4.83,1.75l2.56-3.08c-1.54-.27-3.49-.74-4.83-1.42l-.94-.47c-3.08-1.88-4.15-5.11-2.8-7.79s4.5-3.95,8.13-2.8c.6.14,1.27.47,1.81.74,2.15,1.08,2.88,2.29,3.08,3.56l.54.27,3.3-3.55c-1-1.01-2.55-2.29-4.29-3.16Z"/>
      <path class="cls-16" d="M103.28,254.25l-8.31-4.18-.81.94s1.54.94.26,2.48l-10.63,11.79,7.51,3.77.87-1.07s-1.27-1.14-.26-2.15c.07-.13,3.09-3.48,3.09-3.48l3.35,1.68.13.07c1.74.88,1.81,2.08,1.81,2.08l3.09-3.48-3.49-1.75-2.41-1.21,2.42-2.81,1.48.74,3.49,1.75c.94.47,1.27,1.48,1.07,1.88l.54.27,3.3-3.89-6.5-3.43h0Z"/>
    </g>
    <g>
      <path class="cls-6" d="M155.22,198.01l.95-1.79c.71.44,1.13,1.02,1.28,1.73.14.71,0,1.48-.46,2.33-.5.95-1.16,1.55-1.97,1.81s-1.67.16-2.58-.33c-.91-.48-1.48-1.13-1.73-1.95-.24-.81-.12-1.68.38-2.61.45-.85,1-1.42,1.65-1.71.65-.28,1.35-.26,2.11.06l-.96,1.81c-.3-.12-.57-.14-.8-.05-.23.09-.43.29-.59.59-.2.37-.22.72-.06,1.04.16.32.5.62,1.01.89.51.27.94.37,1.31.31.36-.06.65-.28.85-.66.16-.29.2-.57.13-.83-.07-.26-.24-.48-.52-.66Z"/>
      <path class="cls-6" d="M158.77,196.53l-5.58-2.96,1.02-1.93,5.58,2.96-1.02,1.93Z"/>
      <path class="cls-6" d="M161.07,192.21l-4.11-2.18-.9,1.7-1.47-.78,2.8-5.29,1.47.78-.9,1.7,4.11,2.18-1,1.89Z"/>
      <path class="cls-6" d="M164.11,186.46l-2.06-1.09-4.66.31,1.11-2.1h2.44s-1.36-2.04-1.36-2.04l1.08-2.04,2.39,3.98,2.06,1.09-1,1.89Z"/>
      <path class="cls-6" d="M161.64,209.41l.98-1.84c.23.06.42.04.58-.05.16-.09.31-.26.45-.53.12-.22.17-.41.17-.58,0-.16-.07-.28-.2-.35-.2-.11-.51.07-.91.54-.08.09-.14.17-.19.21-.34.38-.62.67-.84.89-.22.21-.4.36-.54.43-.27.15-.55.22-.82.22-.27,0-.55-.07-.83-.22-.55-.29-.87-.74-.95-1.35-.08-.61.08-1.3.49-2.07.4-.76.87-1.28,1.4-1.55.53-.28,1.09-.29,1.69-.05l-.95,1.8c-.18-.06-.34-.05-.49.04-.15.08-.28.24-.4.47-.11.2-.16.37-.15.5.01.13.08.23.21.3.18.1.48-.08.87-.53.04-.04.06-.07.08-.09.06-.07.14-.17.26-.3.53-.6.91-.97,1.16-1.11.3-.17.59-.27.86-.28.27,0,.55.06.84.21.62.33.97.8,1.06,1.44.09.63-.09,1.37-.54,2.22-.41.78-.91,1.31-1.48,1.6-.57.28-1.17.29-1.8.03Z"/>
      <path class="cls-6" d="M166.63,204.21l-5.58-2.96,1-1.89,1.89,1,.94-1.77-1.89-1,1-1.89,5.58,2.96-1,1.89-2.16-1.15-.94,1.77,2.16,1.15-1,1.89Z"/>
      <path class="cls-6" d="M167.24,196.32c-.91-.48-1.48-1.14-1.71-1.96-.24-.83-.1-1.71.4-2.66.5-.94,1.16-1.55,1.97-1.82.81-.27,1.68-.16,2.59.32.91.48,1.48,1.13,1.71,1.96.24.83.1,1.71-.4,2.66-.5.95-1.16,1.56-1.98,1.83-.82.27-1.68.17-2.59-.31ZM168.25,194.41c.53.28.96.39,1.31.34.35-.06.62-.28.84-.68.21-.39.24-.75.09-1.06-.15-.31-.49-.61-1.02-.89-.53-.28-.97-.4-1.31-.34-.34.05-.62.28-.83.67-.21.4-.24.76-.09,1.07.15.32.49.62,1.02.9Z"/>
      <path class="cls-6" d="M173.73,190.8l-5.58-2.96,1.29-2.43c.28-.54.54-.95.76-1.23.23-.28.46-.49.7-.64.32-.18.64-.27.97-.26s.67.1,1.02.29c.62.33,1,.78,1.12,1.34.12.57,0,1.22-.4,1.95l-.6,1.13,1.71.9-1,1.89ZM171.66,187.28l.32-.61c.21-.4.31-.68.3-.86-.01-.18-.12-.32-.34-.43-.21-.11-.4-.13-.55-.04-.15.08-.33.33-.55.73l-.32.61,1.14.6Z"/>
    </g>
    <g>
      <path class="cls-6" d="M453,567.95l9.42-9.67,3.46,1.71-1.94,13.36-3.38-1.67.36-1.72-3.38-1.67-1.16,1.32-3.36-1.66ZM459.33,566.17l2.14,1.06.91-4.51-3.05,3.45Z"/>
      <path class="cls-6" d="M464.91,573.82l5.68-11.52,5.09,2.51c1.59.79,2.6,1.6,3.03,2.46.43.85.35,1.87-.23,3.04-.35.7-.78,1.22-1.28,1.54-.51.33-1.12.48-1.84.47.52.43.82.91.9,1.44.07.53-.07,1.19-.43,1.97l-.73,1.63s0,.02-.01.04c-.21.46-.23.75-.05.87l-.21.43-3.44-1.7c.07-.31.15-.57.22-.79.07-.22.13-.39.19-.5l.57-1.15c.29-.59.39-1.07.29-1.42-.1-.35-.41-.66-.95-.92l-1.45-.72-1.96,3.97-3.37-1.66ZM471.52,568.92l1.55.77c.54.27.96.37,1.24.32.29-.06.53-.28.72-.68.2-.41.24-.74.11-1-.13-.26-.49-.54-1.09-.84l-1.47-.72-1.06,2.16Z"/>
      <path class="cls-6" d="M485.28,578.32l3.23,1.6c-.84,1.47-1.92,2.4-3.22,2.8-1.3.4-2.71.22-4.23-.53-1.7-.84-2.78-2.04-3.22-3.61-.44-1.56-.2-3.29.73-5.17.93-1.88,2.14-3.12,3.64-3.73,1.5-.61,3.09-.5,4.76.32,1.54.76,2.55,1.76,3.04,3,.49,1.24.41,2.63-.22,4.18l-3.27-1.61c.24-.61.29-1.14.13-1.59-.16-.45-.51-.81-1.06-1.08-.67-.33-1.3-.31-1.9.05-.6.36-1.16,1.08-1.68,2.15-.52,1.05-.73,1.93-.64,2.64s.48,1.24,1.17,1.58c.53.26,1.03.3,1.5.13.47-.18.89-.56,1.24-1.14Z"/>
      <path class="cls-6" d="M486.7,584.58l9.42-9.67,3.46,1.71-1.94,13.36-3.38-1.67.36-1.72-3.38-1.67-1.16,1.32-3.36-1.66ZM493.03,582.8l2.14,1.06.91-4.51-3.05,3.45Z"/>
      <path class="cls-6" d="M498.61,590.45l5.68-11.52,4.13,2.04c1.05.52,1.8.95,2.27,1.31s.83.74,1.09,1.17c.5.83.73,1.76.68,2.8-.05,1.03-.38,2.17-.99,3.41-.64,1.3-1.41,2.29-2.31,2.95-.9.66-1.9.99-3.01.98-.43,0-.93-.09-1.48-.28-.56-.18-1.41-.56-2.56-1.13l-3.49-1.72ZM503.46,589.22l.92.45c.85.42,1.54.51,2.08.26.53-.25,1.06-.91,1.59-1.97.51-1.04.71-1.86.58-2.45-.12-.6-.59-1.1-1.4-1.5l-.96-.47-2.8,5.68Z"/>
      <path class="cls-6" d="M509.03,595.6l9.42-9.67,3.46,1.71-1.94,13.36-3.38-1.67.36-1.72-3.38-1.67-1.16,1.32-3.36-1.66ZM515.37,593.82l2.14,1.06.91-4.51-3.05,3.45Z"/>
      <path class="cls-6" d="M442.31,586.57l.32-1.08c-.6.25-1.23.36-1.88.3-.65-.05-1.34-.26-2.06-.61-1.52-.75-2.45-1.88-2.79-3.4-.34-1.51-.05-3.21.88-5.09.95-1.92,2.17-3.17,3.67-3.75,1.5-.58,3.13-.43,4.89.44,1.39.68,2.32,1.61,2.8,2.77.48,1.16.47,2.46-.04,3.9l-3.24-1.6c.1-.52.06-.98-.11-1.36s-.47-.68-.9-.89c-.68-.34-1.33-.3-1.95.09-.62.4-1.21,1.16-1.76,2.29-.51,1.04-.73,1.91-.64,2.59.09.68.48,1.2,1.18,1.54.5.25.99.33,1.46.25.47-.08.86-.31,1.15-.7l-1.54-.76,1.22-2.46,4.67,2.3-3.11,6.31-2.2-1.09Z"/>
      <path class="cls-6" d="M445.4,588.09l9.42-9.67,3.46,1.71-1.94,13.36-3.38-1.67.35-1.72-3.38-1.67-1.16,1.32-3.36-1.66ZM451.73,586.31l2.14,1.06.91-4.51-3.05,3.45Z"/>
      <path class="cls-6" d="M460.39,595.49l-3.09-1.52,5.68-11.52,4.16,2.05-1.36,6.47c-.02.09-.07.29-.15.59-.08.31-.19.73-.32,1.27.26-.35.49-.66.69-.92.2-.26.36-.45.47-.58l4.36-5.03,4.15,2.05-5.68,11.52-3.09-1.52,2.83-5.65c.17-.34.34-.68.5-1,.16-.32.33-.66.51-1.01-.41.54-.87,1.12-1.38,1.74l-.07.09-4.09,4.99-2.38-1.17,1.39-6.17c.06-.28.14-.6.24-.95.1-.35.23-.83.4-1.43-.23.5-.43.93-.6,1.29s-.3.64-.41.86l-2.74,5.56Z"/>
      <path class="cls-6" d="M471.3,600.87l5.68-11.52,8.49,4.19-1.36,2.76-5.08-2.51-.76,1.53,4.29,2.12-1.3,2.64-4.3-2.12-.88,1.78,5.29,2.61-1.38,2.8-8.7-4.29Z"/>
      <path class="cls-6" d="M481.1,605.71l1.37-2.77,7.77-3.34-4.76-2.35,1.47-2.98,8.96,4.42-1.35,2.75-7.85,3.35,5.25,2.59-1.46,2.96-9.38-4.63Z"/>
      <path class="cls-6" d="M494.4,605.12c.93-1.88,2.15-3.11,3.67-3.71,1.52-.6,3.14-.47,4.85.37,1.7.84,2.78,2.05,3.23,3.62.45,1.57.21,3.29-.71,5.17-.92,1.87-2.15,3.11-3.67,3.71-1.52.6-3.14.48-4.84-.36-1.71-.84-2.79-2.05-3.24-3.62-.45-1.58-.22-3.3.71-5.17ZM497.84,606.82c-.54,1.09-.76,1.97-.68,2.65.08.68.49,1.19,1.2,1.55.71.35,1.36.36,1.94.01.58-.34,1.14-1.06,1.68-2.16.54-1.1.77-1.99.69-2.66-.08-.67-.48-1.18-1.19-1.54-.72-.35-1.37-.36-1.96-.01-.59.34-1.15,1.06-1.69,2.16Z"/>
      <path class="cls-6" d="M504.16,617.09l5.68-11.52,3.24,1.6.34,6.83c.02.2,0,.46-.03.79-.03.33-.09.72-.17,1.16.07-.22.16-.45.27-.7.11-.25.25-.55.42-.9l2.68-5.43,3.25,1.61-5.68,11.52-3.25-1.61-.36-6.79c-.01-.2,0-.47.03-.81s.09-.72.16-1.15c-.07.22-.15.45-.24.67-.1.23-.24.54-.44.95l-2.66,5.39-3.24-1.6Z"/>
      <path class="cls-6" d="M516.19,623.02l5.68-11.52,8.5,4.19-1.36,2.76-5.08-2.51-.76,1.53,4.3,2.12-1.3,2.64-4.29-2.12-.88,1.78,5.29,2.61-1.38,2.8-8.7-4.29Z"/>
    </g>
    <g>
      <path class="cls-6" d="M569.01,592.08l2.06-.08.03.89c.01.39.07.67.17.83.1.16.25.23.47.23.23,0,.38-.1.47-.28.08-.18.12-.52.1-1.02l-.22-6.1,2.33-.09.23,6.42c.04,1.1-.18,1.95-.64,2.54-.47.59-1.17.91-2.1.94-.92.03-1.62-.25-2.1-.84-.48-.59-.74-1.51-.78-2.75,0-.14,0-.35,0-.64v-.04Z"/>
      <path class="cls-6" d="M575.37,595.95l2.21-9.63,2.36-.09,2.88,9.44-2.31.09-.32-1.25-2.31.09-.24,1.27-2.29.09ZM578.25,592.58l1.46-.05-.84-3.27-.62,3.33Z"/>
      <path class="cls-6" d="M583.49,595.65l-.34-9.53,3.47-.13c1.09-.04,1.87.14,2.35.55s.74,1.1.77,2.08c.02.58-.06,1.07-.23,1.46s-.46.71-.85.95c.41.1.71.31.9.63.2.32.31.8.35,1.44l.09,1.32s0,.02,0,.03c.02.38.1.58.23.59v.36s-2.33.09-2.33.09c-.05-.23-.09-.43-.12-.6-.03-.17-.04-.3-.05-.4l-.03-.95c-.02-.49-.1-.84-.26-1.03-.15-.2-.41-.29-.78-.27l-.99.04.12,3.29-2.3.09ZM585.6,590.12l1.06-.04c.37-.01.62-.09.76-.23.14-.14.2-.37.19-.7-.01-.34-.09-.57-.24-.69s-.42-.18-.83-.17l-1,.04.06,1.79Z"/>
      <path class="cls-6" d="M590.7,590.61c-.05-1.55.24-2.79.88-3.71.64-.92,1.55-1.41,2.71-1.45,1.16-.04,2.09.37,2.8,1.24.7.87,1.08,2.08,1.14,3.64.05,1.55-.24,2.79-.88,3.71-.64.93-1.54,1.41-2.7,1.45-1.17.04-2.1-.37-2.8-1.25-.71-.87-1.09-2.08-1.14-3.63ZM593.05,590.52c.03.9.17,1.56.41,1.97.24.42.61.61,1.1.59.49-.02.83-.24,1.04-.67.21-.43.3-1.1.27-2-.03-.91-.17-1.57-.41-1.98s-.6-.61-1.09-.59c-.49.02-.84.24-1.05.67-.21.43-.31,1.1-.27,2.01Z"/>
      <path class="cls-6" d="M575.34,608.18l2.2-.08c-.02,1.26-.32,2.24-.9,2.96-.58.71-1.39,1.09-2.43,1.13-1.16.04-2.09-.37-2.79-1.24s-1.07-2.08-1.13-3.64c-.05-1.55.23-2.79.86-3.71.63-.92,1.51-1.4,2.65-1.45,1.05-.04,1.89.26,2.51.91.62.64,1,1.58,1.11,2.82l-2.23.08c-.05-.49-.18-.85-.4-1.09-.21-.24-.51-.35-.88-.34-.46.02-.79.25-1,.7s-.3,1.11-.27,2c.03.87.17,1.52.43,1.95.26.44.62.64,1.09.63.36-.01.64-.16.84-.44.2-.28.31-.67.33-1.18Z"/>
      <path class="cls-6" d="M577.94,611.78l2.21-9.63,2.36-.09,2.88,9.44-2.31.09-.31-1.25-2.31.09-.24,1.27-2.29.09ZM580.81,608.4l1.46-.05-.84-3.27-.62,3.33Z"/>
      <path class="cls-6" d="M586.05,611.47l-.34-9.53,5.48-.21.08,2.4-3.15.12.05,1.48,2.51-.09.08,2.3-2.51.09.12,3.35-2.33.09Z"/>
      <path class="cls-6" d="M592.42,611.23l-.34-9.53,5.79-.22.08,2.29-3.46.13.04,1.27,2.93-.11.08,2.19-2.93.11.05,1.47,3.61-.13.08,2.32-5.93.22Z"/>
    </g>
  </g>
  <polygon id="Galleria_Stara_Zagora3.002_S0.06" data-name="Galleria Stara Zagora3.002^S0.06" class="cls-2" points="382.59 11.4 178.06 11.4 147.43 69.69 175.9 84.45 175.9 96.98 382.59 96.98 382.59 11.4"/>
  <polygon id="Galleria_Stara_Zagora3.046" data-name="Galleria Stara Zagora3.046" class="cls-2" points="215.82 115.95 184.21 115.95 159.59 164.05 184.21 177.43 215.82 115.95"/>
  <polygon id="Galleria_Stara_Zagora3.044" data-name="Galleria Stara Zagora3.044" class="cls-2" points="183.74 178.71 163.41 218.19 142.83 206.67 163.67 167.96 183.74 178.71"/>
  <polygon id="Galleria_Stara_ZagoraNFC8" data-name="Galleria Stara ZagoraNFC8" class="cls-2" points="127.48 320.32 101.11 354.94 112.46 363.63 93.3 390.01 142.69 425.08 187.23 361.24 127.48 320.32"/>
  <polygon id="Galleria_Stara_ZagoraNFC7" data-name="Galleria Stara ZagoraNFC7" class="cls-2" points="187.93 362.24 213.6 378.81 170.72 444.16 143.84 426.03 187.93 362.24"/>
  <polygon id="Galleria_Stara_ZagoraNFC4" data-name="Galleria Stara ZagoraNFC4" class="cls-2" points="259.21 408.35 230.11 452.78 218.25 445.2 204.69 467.01 262.74 503.53 276.37 481.21 261.34 471.93 288.92 426.41 259.21 408.35"/>
  <polyline id="Galleria_Stara_ZagoraNFC3" data-name="Galleria Stara ZagoraNFC3" class="cls-2" points="290.09 427.31 263.33 471.56 278.31 480.55 263.77 504.51 275.41 511.2 315.93 443.21 289.81 427.31"/>
  <polygon id="Galleria_Stara_ZagoraNFC2" data-name="Galleria Stara ZagoraNFC2" class="cls-2" points="316.68 443.77 276.84 512.02 294.54 522.63 334.46 453.98 316.68 443.77"/>
  <polygon id="Galleria_Stara_ZagoraNFC1" data-name="Galleria Stara ZagoraNFC1" class="cls-2" points="335.64 454.86 304.39 508.97 333.62 524.84 363.07 470.61 335.64 454.86"/>
  <polygon id="Galleria_Stara_ZagoraNFC10" data-name="Galleria Stara ZagoraNFC10" class="cls-2" points="364.12 471.88 343.77 509.65 366.92 522.32 387.72 484.68 364.12 471.88"/>
  <polygon id="Galleria_Stara_ZagoraN3.024" data-name="Galleria Stara ZagoraN3.024" class="cls-4" points="389.08 485.71 368.08 522.63 404.6 542.71 424.57 505.43 389.08 485.71"/>
  <path id="Galleria_Stara_Zagora3.022" data-name="Galleria Stara Zagora3.022" class="cls-4" d="M438.8,515.46l-41.49,78.86c79.89,40.7,143.91,69.51,159.77,74.66v-112.03l-10.63-5.31-18.86,7.11-88.8-43.29Z"/>
  <path id="Galleria_Stara_ZagoraN3.021_N3.021A" data-name="Galleria Stara ZagoraN3.021^N3.021A" class="cls-4" d="M558.45,557.71v108.69c20.14-37.37,34.97-41.91,55.89-47.31v-45.94h-24.09l-31.8-15.43Z"/>
  <path id="Galleria_Stara_Zagora3.020" data-name="Galleria Stara Zagora3.020" class="cls-4" d="M808.9,264.41v493.96s-171.55-55.85-174.72-59.12V249.03h67.32v15.76l107.4-.38Z"/>
  <polygon id="Galleria_Stara_Zagora3.016" data-name="Galleria Stara Zagora3.016" class="cls-4" points="634.18 247.25 634.18 204.52 694.96 204.52 694.96 234.85 735.01 234.85 735.01 247.25 634.18 247.25"/>
  <polygon id="Galleria_Stara_Zagora3.018" data-name="Galleria Stara Zagora3.018" class="cls-4" points="808.77 11.38 633.39 11.38 633.39 92.78 567.06 92.78 567.06 11.38 462.46 11.38 462.46 59.86 402.08 59.86 402.08 98.37 540.69 98.37 631.21 177.85 631.21 185.98 735.01 185.98 735.01 122.52 750.28 122.52 750.28 115.19 808.77 115.19 808.77 11.38"/>
  <polygon id="Galleria_Stara_Zagora3.030" data-name="Galleria Stara Zagora3.030" class="cls-4" points="554.21 235.16 554.21 387.38 538.66 387.38 538.66 385.81 513.97 385.81 513.97 371.27 436.2 371.27 436.2 321.73 442.28 321.73 442.28 297.72 451.75 297.72 451.75 235.16 554.21 235.16"/>
  <polygon id="Galleria_Stara_ZagoraS3.03" data-name="Galleria Stara ZagoraS3.03" class="cls-2" points="146.58 70.46 136.35 90.02 168.58 106.69 174.14 95.57 173.69 84.02 146.58 70.46"/>
  <polygon id="Galleria_Stara_Zagora3.042A_KFC-K1_KFC-K2" data-name="Galleria Stara Zagora3.042A^KFC-K1^KFC-K2" class="cls-4" points="71.38 211.68 31.07 287.48 77.04 288.07 110.51 314.12 119.35 303.15 145.99 251.51 71.38 211.68"/>
  <polygon id="Galleria_Stara_Zagora3.042B" data-name="Galleria Stara Zagora3.042B" class="cls-4" points="90.24 176.44 72.32 210.51 146.89 250.46 162.73 218.98 108.81 189.87 110.87 186.5 90.24 176.44"/>
  <polygon id="Galleria_Stara_ZagoraNFC5_NFC6" data-name="Galleria Stara ZagoraNFC5^NFC6" class="cls-4" points="214.62 379.85 171.71 445.2 203.54 466.19 217.55 443.3 229.8 450.81 257.97 407.73 214.62 379.85"/>
</svg>