<?xml version="1.0" encoding="UTF-8"?><svg id="Layer_4" xmlns="http://www.w3.org/2000/svg" viewBox="0 0 820.08 773.88"><defs><style>.cls-1{letter-spacing:-.02em;}.cls-2{fill:#ed7013;}.cls-3{letter-spacing:-.07em;}.cls-4{fill:#f6f6f6;}.cls-5{letter-spacing:-.02em;}.cls-6,.cls-7,.cls-8,.cls-9{stroke-miterlimit:10;}.cls-6,.cls-8,.cls-9{fill:none;}.cls-6,.cls-9{stroke:#1d1d1b;}.cls-10{font-size:13.26px;}.cls-10,.cls-11,.cls-12,.cls-13,.cls-14,.cls-15,.cls-16{fill:#1d1d1b;}.cls-10,.cls-12,.cls-13,.cls-14,.cls-15{font-family:Axiforma-Bold, Axiforma;}.cls-17{letter-spacing:-.07em;}.cls-7{fill:#fff;}.cls-7,.cls-8{stroke:#12100b;}.cls-11{fill-rule:evenodd;}.cls-18{letter-spacing:0em;}.cls-19{fill:#2b2522;}.cls-9{stroke-width:2px;}.cls-12{font-size:39.15px;}.cls-13{font-size:13.26px;}.cls-14{font-size:10.85px;}.cls-15{font-size:8.81px;}.cls-20{letter-spacing:0em;}.cls-21{letter-spacing:0em;}</style></defs><g id="cladire"><g><path class="cls-4" d="M808.5,764.74c-19.35-6.46-37.5-12.43-55.05-18.21-14.88-4.89-30.26-9.96-46.56-15.38-25.49-8.48-53.57-18.3-75.12-26.28-77.54-28.71-152.57-61.62-223.01-97.83-124.59-64.04-236.58-137.27-332.83-217.65-.86-.72-2.77-2.27-5.43-4.43-8.75-7.11-25.04-20.35-39.07-32.4-7.86-6.75-13.96-12.23-18.14-16.29-6.26-6.09-9.9-10.1-7.63-14.35,.29-.54,168.92-316.92,168.92-316.92H815.08V766.94l-6.58-2.2Z"/><path class="cls-4" d="M810.08,10V760c-35.64-11.9-65.96-21.73-101.61-33.59-23.3-7.75-51.91-17.69-74.96-26.22-75.98-28.13-150.43-60.57-222.46-97.59-117.48-60.39-230.49-132.35-331.91-217.04-6.49-5.42-71.26-57.15-69.06-61.29,0,0,167.5-314.27,167.5-314.27H810.08m10-10H171.59l-2.82,5.3C167.09,8.43,1.57,318.98,1.26,319.57c-2.3,4.32-1.45,8.99,2.54,13.9,1.39,1.71,3.36,3.8,6.02,6.39,4.25,4.13,10.42,9.68,18.36,16.49,14.08,12.09,30.4,25.36,39.17,32.49,2.65,2.15,4.56,3.71,5.38,4.4,96.54,80.62,208.83,154.05,333.75,218.26,70.62,36.3,145.83,69.29,223.56,98.07,21.57,7.99,49.72,17.83,75.28,26.33,16.32,5.43,31.72,10.49,46.61,15.39,17.53,5.77,35.66,11.73,54.99,18.19l13.17,4.4V0h0Z"/><path class="cls-9" d="M633.51,700.19c23.05,8.53,51.66,18.47,74.96,26.22,35.66,11.86,65.97,21.68,101.61,33.59V10H177.59L10.08,324.27c-2.2,4.14,62.57,55.87,69.06,61.29,101.42,84.69,214.44,156.66,331.91,217.04,72.02,37.02,146.48,69.46,222.46,97.59Z"/></g></g><g id="magazine"><polyline class="cls-6" points="810.08 263.8 702.47 263.8 702.47 248.12"/><polyline class="cls-6" points="632.51 248.12 735.75 248.12 735.75 233.87 695.91 233.87 695.91 203.79 633.24 203.79 633.24 700.93"/><polyline class="cls-6" points="145.71 69.69 175.09 84.73 175.21 96.5 169.38 109.24 134.28 91.09"/><polyline class="cls-6" points="632.63 10 632.63 91.82 568.01 91.82 568.01 10"/><line class="cls-6" x1="735.75" y1="186.74" x2="810.08" y2="186.74"/><polyline class="cls-6" points="175.21 97.71 383.52 97.71 383.52 10"/><polyline class="cls-6" points="810.08 116.23 751.3 116.23 751.3 123.41 735.75 123.41 735.75 186.74 630.32 186.74 630.32 178.22 540.44 99.3 401.13 99.3 401.13 59.11 461.74 59.11 461.74 10"/><polyline class="cls-6" points="29.25 288.32 76.59 288.92 110.84 315.35 120.07 303.51 217.12 115.37 183.96 115.37 147.88 185.4 119.95 170.79 111.81 186.5 90.92 176.02"/><path class="cls-6" d="M127.36,319.25l-27.21,35.81,11.3,8.65-19.07,26.43c66.42,48.51,133.91,93.2,202.59,133.6l-.85,2.56,16.64,9.62,9.35-17.29,13.97,7.19,8.62-15.83,62.19,33.74,20.53-38.49c-107.14-59.15-206.9-120.99-298.06-185.97Z"/><line class="cls-6" x1="187.93" y1="361.24" x2="142.69" y2="426.41"/><line class="cls-6" x1="214.62" y1="378.81" x2="170.72" y2="445.2"/><line class="cls-6" x1="237.8" y1="393.82" x2="194.07" y2="460.79"/><polyline class="cls-6" points="258.9 407.22 229.99 451.75 217.97 444.08 203.54 467.01"/><polyline class="cls-6" points="289.81 426.41 262.33 471.94 277.36 480.86 262.91 504.51"/><line class="cls-6" x1="316.68" y1="442.7" x2="275.82" y2="512.34"/><line class="cls-6" x1="294.97" y1="523.73" x2="335.64" y2="453.98"/><line class="cls-6" x1="320.11" y1="518.62" x2="303.37" y2="509.33"/><line class="cls-6" x1="342.71" y1="509.97" x2="364.12" y2="470.61"/><line class="cls-6" x1="366.92" y1="523.1" x2="388.71" y2="484.68"/><path class="cls-6" d="M557.69,669.51c13.73-29.3,32.57-46.67,57.51-49.84l-.06-47.35h-24.53l-43.97-21.43-18.83,6.94-89.27-43.23-42.14,80.4"/><line class="cls-6" x1="557.69" y1="669.51" x2="557.69" y2="556.07"/><polygon class="cls-6" points="450.32 234.48 555.02 234.48 555.02 388.79 537.41 388.79 537.41 386.72 512.87 386.72 512.87 372.47 435.14 372.47 435.14 320.22 440.85 320.22 440.85 296.23 450.32 296.23 450.32 234.48"/><line class="cls-7" x1="158.66" y1="164.49" x2="184.57" y2="178.47"/><polyline class="cls-8" points="111.81 186.5 110.02 189.59 163.67 218.98"/><line class="cls-8" x1="163.67" y1="167.2" x2="141.86" y2="207.03"/></g><g id="logo"><path class="cls-16" d="M120.7,366.97c2.12-2.12,5.21-4.39,9.26-6.8,3.51-2.09,6.79-3.69,9.85-4.8,5.32-1.95,8.93-1.96,10.84-.06,.77,1.05,1.18,2.32,1.23,3.83,.11,3.57-1.6,7.85-5.11,12.83,.03-.07,1.13-.73,3.31-1.97,6.52-3.69,10.93-4.37,13.22-2.04,2.11,2.15,2.23,5.8,.37,10.95-1.11,3.02-2.79,6.27-5.01,9.74-2.39,3.72-4.77,6.77-7.13,9.13l-3.09-3.09c7.57-7.57,12.14-14.36,13.71-20.36,.62-2.4,.54-4-.26-4.79-1.04-1.04-3.5-.49-7.37,1.65-4.38,2.43-9.37,6.4-14.97,11.91l-3.61-3.51c7.32-7.32,11.76-13.54,13.34-18.66,.63-2.05,.59-3.41-.09-4.1-1-1-3.36-.7-7.08,.9-6.02,2.6-11.98,6.81-17.89,12.63l-3.48-3.37Z"/><g><path class="cls-16" d="M477.75,283.64v-3.71h11.24v3.71h-4.15v15.47h-2.95v-15.47h-4.15Z"/><path class="cls-16" d="M489.5,289.58c0-5.58,3.32-9.99,7.57-9.99s7.57,4.44,7.57,9.94-3.28,9.89-7.59,9.89-7.55-4.33-7.55-9.84Zm12.11-.05c0-3.58-2.04-6.15-4.54-6.15s-4.54,2.62-4.54,6.15,1.99,6.1,4.54,6.1,4.56-2.6,4.54-6.1Z"/><path class="cls-16" d="M519.38,279.92v19.18h-1.99l-7.53-11.76v11.76h-2.87v-19.18h1.85l7.67,11.86v-11.86h2.87Z"/><path class="cls-16" d="M466.21,324.67c0,3.01-1.69,5.58-4.6,5.58h-6.62v-19.18h6.33c2.77,0,4.13,2.44,4.13,4.78,0,1.69-.79,3.32-1.99,3.89,1.87,.62,2.75,2.7,2.75,4.93Zm-8.35-10.25v4.18h2.85c1.28,0,1.85-1.12,1.85-2.15s-.61-2.02-1.73-2.02h-2.97Zm5.35,9.94c0-1.27-.67-2.54-2.16-2.54h-3.18v5.06h3.18c1.47,0,2.16-1.3,2.16-2.52Z"/><path class="cls-16" d="M467.74,320.72c0-5.58,3.32-9.99,7.57-9.99s7.57,4.44,7.57,9.94-3.28,9.89-7.59,9.89-7.55-4.33-7.55-9.84Zm12.11-.05c0-3.58-2.04-6.15-4.54-6.15s-4.54,2.62-4.54,6.15,1.99,6.1,4.54,6.1,4.56-2.6,4.54-6.1Z"/><path class="cls-16" d="M497.62,311.07v19.18h-1.99l-7.53-11.76v11.76h-2.87v-19.18h1.85l7.67,11.86v-11.86h2.87Z"/><path class="cls-16" d="M512.07,324.67c0,3.01-1.69,5.58-4.6,5.58h-6.62v-19.18h6.33c2.77,0,4.13,2.44,4.13,4.78,0,1.69-.79,3.32-1.99,3.89,1.87,.62,2.75,2.7,2.75,4.93Zm-8.35-10.25v4.18h2.85c1.28,0,1.85-1.12,1.85-2.15s-.61-2.02-1.73-2.02h-2.97Zm5.35,9.94c0-1.27-.67-2.54-2.16-2.54h-3.18v5.06h3.18c1.47,0,2.16-1.3,2.16-2.52Z"/><path class="cls-16" d="M513.6,320.72c0-5.58,3.32-9.99,7.57-9.99s7.57,4.44,7.57,9.94-3.28,9.89-7.59,9.89-7.55-4.33-7.55-9.84Zm12.11-.05c0-3.58-2.04-6.15-4.54-6.15s-4.54,2.62-4.54,6.15,1.99,6.1,4.54,6.1,4.56-2.6,4.54-6.1Z"/><path class="cls-16" d="M543.48,311.07v19.18h-1.99l-7.53-11.76v11.76h-2.87v-19.18h1.85l7.67,11.86v-11.86h2.87Z"/></g><g><path class="cls-16" d="M223.9,44.05l1.17-2.65c.68,1.72,1.67,2.65,2.7,2.65,.86,0,1.46-.85,1.46-2.03,0-.95-.4-1.52-.92-1.98-.65-.57-1.49-1.03-2.21-1.77-.9-.95-1.61-2.37-1.61-4.73,0-3.14,1.41-5.56,3.48-5.56,1.19,0,2.4,.77,3.35,2.57l-1.09,2.78c-.61-1.18-1.53-1.78-2.23-1.78-.81,0-1.31,.75-1.31,1.83,0,.95,.41,1.49,.83,1.88,.54,.46,1.56,1.18,2.25,1.83,.99,.9,1.74,2.32,1.74,4.73,0,3.37-1.5,5.79-3.74,5.79-1.56,0-2.99-1.21-3.86-3.55Z"/><path class="cls-16" d="M233.12,28.28h2.04v7.59h4.28v-7.59h2.04v19.01h-2.04v-7.74h-4.28v7.74h-2.04V28.28Z"/><path class="cls-16" d="M242.8,31.96v-3.68h7.89v3.68h-2.91v15.33h-2.07v-15.33h-2.91Z"/><path class="cls-16" d="M256.51,43.17h-3.56l-.79,4.12h-2.14l3.89-19.01h1.67l3.83,19.01h-2.15l-.76-4.12Zm-2.98-3.4h2.4l-1.19-6.33-1.21,6.33Z"/><path class="cls-16" d="M259.49,44.05l1.17-2.65c.68,1.72,1.67,2.65,2.7,2.65,.85,0,1.46-.85,1.46-2.03,0-.95-.4-1.52-.92-1.98-.65-.57-1.49-1.03-2.21-1.77-.9-.95-1.61-2.37-1.61-4.73,0-3.14,1.41-5.56,3.48-5.56,1.19,0,2.4,.77,3.35,2.57l-1.09,2.78c-.61-1.18-1.53-1.78-2.23-1.78-.81,0-1.31,.75-1.31,1.83,0,.95,.41,1.49,.83,1.88,.54,.46,1.56,1.18,2.25,1.83,.99,.9,1.74,2.32,1.74,4.73,0,3.37-1.5,5.79-3.74,5.79-1.56,0-2.99-1.21-3.86-3.55Z"/><path class="cls-16" d="M267.63,31.96v-3.68h7.89v3.68h-2.91v15.33h-2.07v-15.33h-2.91Z"/><path class="cls-16" d="M276.84,28.28h2.06v15.36h5.17v3.65h-7.23V28.28Z"/><path class="cls-16" d="M287.44,28.28v19.01h-2.06V28.28h2.06Z"/><path class="cls-16" d="M298.67,28.28l-4.18,19.01h-1.63l-4.23-19.01h2.36l2.69,13.15,2.68-13.15h2.32Z"/><path class="cls-16" d="M299.88,28.28h6.91v3.55h-4.86v4.09h4.5v3.55h-4.5v4.27h4.86v3.55h-6.91V28.28Z"/><path class="cls-16" d="M307.73,31.96v-3.68h7.89v3.68h-2.91v15.33h-2.07v-15.33h-2.91Z"/><path class="cls-16" d="M315.93,44.05l1.17-2.65c.68,1.72,1.67,2.65,2.7,2.65,.86,0,1.46-.85,1.46-2.03,0-.95-.4-1.52-.92-1.98-.65-.57-1.49-1.03-2.21-1.77-.9-.95-1.61-2.37-1.61-4.73,0-3.14,1.41-5.56,3.48-5.56,1.19,0,2.4,.77,3.35,2.57l-1.09,2.78c-.61-1.18-1.53-1.78-2.23-1.78-.81,0-1.31,.75-1.31,1.83,0,.95,.41,1.49,.83,1.88,.54,.46,1.56,1.18,2.25,1.83,.99,.9,1.74,2.32,1.74,4.73,0,3.37-1.5,5.79-3.74,5.79-1.56,0-2.99-1.21-3.86-3.55Z"/><path class="cls-16" d="M330.3,43.17h-3.56l-.79,4.12h-2.14l3.89-19.01h1.67l3.83,19.01h-2.15l-.76-4.12Zm-2.98-3.4h2.4l-1.19-6.33-1.21,6.33Z"/><path class="cls-16" d="M237.38,71.24h-1.21v6.92h-2.04v-19.01h3.9c2.39,0,3.49,2.86,3.49,6.02,0,2.29-.62,4.6-2.07,5.58l2.47,7.41h-2.39l-2.15-6.92Zm-1.21-3.42h1.67c1.15,0,1.59-1.29,1.59-2.6s-.48-2.55-1.41-2.55h-1.85v5.15Z"/><path class="cls-16" d="M243.43,59.15h6.91v3.55h-4.86v4.09h4.5v3.55h-4.5v4.27h4.86v3.55h-6.91v-19.01Z"/><path class="cls-16" d="M251.35,74.92l1.17-2.65c.68,1.72,1.67,2.65,2.7,2.65,.85,0,1.46-.85,1.46-2.03,0-.95-.4-1.52-.92-1.98-.65-.57-1.49-1.03-2.21-1.77-.9-.95-1.61-2.37-1.61-4.73,0-3.14,1.41-5.56,3.48-5.56,1.19,0,2.4,.77,3.35,2.57l-1.09,2.78c-.61-1.18-1.53-1.78-2.23-1.78-.81,0-1.31,.75-1.31,1.83,0,.95,.41,1.49,.83,1.88,.54,.46,1.56,1.18,2.25,1.83,.99,.9,1.74,2.32,1.74,4.73,0,3.37-1.5,5.79-3.74,5.79-1.56,0-2.99-1.21-3.86-3.55Z"/><path class="cls-16" d="M259.48,62.83v-3.68h7.89v3.68h-2.91v15.33h-2.07v-15.33h-2.91Z"/><path class="cls-16" d="M273.19,74.05h-3.56l-.79,4.12h-2.14l3.89-19.01h1.67l3.83,19.01h-2.15l-.76-4.12Zm-2.98-3.4h2.4l-1.19-6.33-1.21,6.33Z"/><path class="cls-16" d="M276.97,71.22v-12.07h2.06v11.81c0,2.6,.79,3.83,1.93,3.83s1.9-1.29,1.9-3.83v-11.81h2.07v12.07c0,5.02-1.83,7.28-3.97,7.28s-3.99-2.26-3.99-7.28Z"/><path class="cls-16" d="M290.33,71.24h-1.21v6.92h-2.04v-19.01h3.9c2.39,0,3.49,2.86,3.49,6.02,0,2.29-.62,4.6-2.07,5.58l2.47,7.41h-2.39l-2.15-6.92Zm-1.21-3.42h1.67c1.15,0,1.59-1.29,1.59-2.6s-.48-2.55-1.41-2.55h-1.85v5.15Z"/><path class="cls-16" d="M301.83,74.05h-3.56l-.79,4.12h-2.14l3.89-19.01h1.67l3.83,19.01h-2.15l-.76-4.12Zm-2.98-3.4h2.4l-1.19-6.33-1.21,6.33Z"/><path class="cls-16" d="M314.67,59.15v19.01h-1.39l-5.28-11.65v11.65h-2.01v-19.01h1.3l5.38,11.76v-11.76h2.01Z"/><path class="cls-16" d="M315.99,62.83v-3.68h7.89v3.68h-2.91v15.33h-2.07v-15.33h-2.91Z"/></g><text class="cls-13" transform="translate(196.89 440.5) rotate(-55.34) scale(.76 1) skewX(-.19)"><tspan x="0" y="0">PIZZIO</tspan></text><g><path class="cls-16" d="M280.54,477.25l1.55-2.71-1.69-.97-1.73,3s-.05,.08-.08,.12c-.61,1.06-.25,2.42,.81,3.03,.78,.45,1.73,.37,2.42-.13l2.07-1.37c.49-.32,.85-.01,.56,.5l-1.58,2.75-.85-.49,.18,1.63,.18,1.63,1.5-.66,1.5-.66-.85-.49,1.92-3.25c.61-1.06,.25-2.42-.81-3.03-.54-.31-1.19-.54-1.81-.25l-2.73,1.74c-.22,.14-.69-.17-.56-.4h0Zm3.58-10.08l4.48,2.59c.79,.46,1.27,1.09,1.43,1.9,.16,.81-.01,1.66-.52,2.55s-1.13,1.44-1.86,1.64c-.73,.21-1.53,.06-2.39-.44l-4.41-2.55,1.2-2.08,4.63,2.68c.42,.24,.97,.1,1.21-.33h0c.24-.42,.1-.97-.32-1.21l-4.63-2.68,1.2-2.08h0Zm9.47-.46c.61-1.06,.25-2.42-.81-3.03-.72-.42-1.59-.38-2.25,.02-.06-.65-.43-1.27-1.04-1.62-.96-.56-2.18-.26-2.79,.64h-.02l-2.22,3.85,6.91,4,2.22-3.86h0Zm-3.9,.15l.57-1c.23-.4,.74-.53,1.14-.31h0c.37,.21,.5,.69,.28,1.06l-.6,1.05-1.39-.81h0Zm-2.53-1.46l.48-.83c.19-.33,.62-.45,.95-.26h0c.31,.18,.42,.58,.24,.89l-.5,.88-1.17-.67h0Z"/><path class="cls-11" d="M301.81,440.23l1.42,.82c.99,.57,1.35,1.83,.84,2.84l2.02,1.17-1.29,2.24-2.03-1.17c-.63,.9-1.86,1.18-2.83,.62l-3.08-1.78,1.18-2.05,2.76,1.59c.36,.21,.82,.08,1.03-.28l.17-.3c.21-.36,.08-.83-.28-1.03l-1.46-.85h0l-.03-.02c-.7-.4-.94-1.3-.54-2h0l.14-.26,.3-.51,.57-1-.85-.49,1.5-.66,1.5-.66,.18,1.63,.18,1.63-.85-.49-.57,1h0Zm-.4,12.92l-1.2,2.09-4.39-2.54c-.85-.49-1.36-1.13-1.52-1.94-.17-.8,.03-1.68,.58-2.64s1.14-1.48,1.82-1.68c.68-.2,1.46-.04,2.35,.48l4.46,2.58-1.2,2.09-2.02-1.17-.89,1.55,2.02,1.17h0Zm-2.62-3.58l-1.16-.67c-.43-.25-.98-.1-1.22,.33h0c-.25,.43-.1,.98,.33,1.22l1.16,.67,.89-1.55h0Zm-5.78,2.19l4.97,2.88c.62,.36,1,.87,1.14,1.54,.14,.67,0,1.35-.39,2.05-.03,.04-.05,.09-.07,.13-.19,.39-.65,1.21-1.54,1.5,.26,.93-.27,1.7-.46,2-.07,.11-.13,.22-.2,.34-.42,.73-.94,1.18-1.55,1.34-.61,.16-1.29,.03-2.03-.4l-4.8-2.78,1.19-2.06,4.72,2.73c.34,.19,.77,.08,.96-.26h0c.19-.34,.08-.77-.26-.97l-4.72-2.73,1.13-1.97,4.72,2.73c.34,.19,.77,.08,.96-.26h0c.19-.34,.08-.77-.26-.97l-4.72-2.73,1.21-2.11h0Zm12.61-8.25c.05-.09,.12-.16,.21-.22,.09-.06,.19-.08,.3-.08,.11,0,.21,.03,.3,.08s.16,.12,.22,.22c.06,.09,.08,.19,.08,.3,0,.11-.03,.21-.08,.3s-.12,.16-.22,.22c-.09,.06-.19,.08-.3,.08-.11,0-.21-.03-.3-.08s-.16-.13-.22-.22c-.06-.09-.08-.2-.08-.3,0-.11,.03-.21,.08-.29h0Zm.09,.05c-.04,.07-.06,.15-.07,.24,0,.09,.02,.18,.07,.25,.05,.08,.11,.14,.18,.18s.16,.07,.25,.07c.09,0,.17-.02,.25-.07,.08-.05,.14-.11,.18-.18s.06-.16,.07-.25c0-.09-.02-.17-.07-.25-.05-.08-.11-.14-.18-.18s-.16-.07-.25-.07c-.09,0-.18,.02-.25,.07-.08,.05-.14,.11-.18,.18h0Zm.59,.64l-.55-.32,.11-.19c.04-.07,.07-.11,.1-.13,.03-.02,.06-.04,.09-.04,.04,0,.07,0,.1,.02,.04,.02,.07,.06,.08,.1,.01,.05,0,.09-.02,.15,.02-.01,.04-.03,.06-.03,.03,0,.09-.02,.16-.02h.15l-.06,.1h-.12c-.09,0-.15,0-.18,.02-.02,0-.04,.03-.06,.06l-.03,.05,.24,.14-.05,.09h0Zm-.26-.27l.06-.11c.03-.05,.04-.09,.04-.12,0-.03-.02-.05-.04-.06-.02,0-.03-.01-.05-.01-.02,0-.04,0-.05,.02-.02,.01-.04,.04-.06,.08l-.06,.1,.17,.1h0Z"/></g><text class="cls-14" transform="translate(298.01 501.49) rotate(-59.3) scale(.76 1) skewX(-.18)"><tspan x="0" y="0">MR</tspan><tspan class="cls-20" x="17.51" y="0">.</tspan><tspan x="20.13" y="0">DONER</tspan></text><text class="cls-10" transform="translate(332.34 502.31) rotate(-60.97) scale(.76 1) skewX(-.17)"><tspan x="0" y="0">BMS</tspan></text><text class="cls-15" transform="translate(365.05 510.97) rotate(-62.15) scale(.76 1) skewX(-.17)"><tspan class="cls-5" x="0" y="0">C</tspan><tspan class="cls-17" x="6.59" y="0">A</tspan><tspan class="cls-21" x="12.13" y="0">TMI</tspan><tspan class="cls-1" x="28.45" y="0">’</tspan><tspan x="30.48" y="0">S</tspan></text><g><path class="cls-16" d="M664.05,437.63c0-7.88,4.55-13.31,10-13.31,3.58,0,6.65,2.18,8.32,5.29l-2.59,3.35c-1.33-2.18-3.25-3.7-5.52-3.7-3.46,0-6.18,3.49-6.18,8.36s2.67,8.16,6.15,8.16c2.28,0,4.27-1.49,5.63-3.73l2.67,3.21c-1.7,3.08-4.81,5.43-8.53,5.43-5.52,0-9.94-5.25-9.94-13.06Z"/><path class="cls-16" d="M689.06,424.78v25.54h-3.9v-25.54h3.9Z"/><path class="cls-16" d="M709.84,424.78v25.54h-2.64l-10.02-15.66v15.66h-3.82v-25.54h2.46l10.21,15.79v-15.79h3.82Z"/><path class="cls-16" d="M714.13,424.78h13.11v4.77h-9.21v5.5h8.53v4.77h-8.53v5.74h9.21v4.77h-13.11v-25.54Z"/><path class="cls-16" d="M730.8,424.78h2.56l7.59,14.48,7.51-14.48h2.62v25.54h-3.87v-14.48l-5.63,10.68h-1.33l-5.63-10.68v14.48h-3.82v-25.54Z"/><path class="cls-16" d="M765.7,444.79h-6.75l-1.49,5.53h-4.06l7.38-25.54h3.17l7.27,25.54h-4.08l-1.44-5.53Zm-5.65-4.56h4.55l-2.25-8.5-2.3,8.5Z"/><path class="cls-16" d="M690.66,479.11c0-7.88,4.55-13.31,10-13.31,3.58,0,6.65,2.18,8.32,5.29l-2.59,3.35c-1.33-2.18-3.25-3.7-5.52-3.7-3.46,0-6.18,3.49-6.18,8.36s2.67,8.16,6.15,8.16c2.28,0,4.27-1.49,5.63-3.73l2.67,3.21c-1.7,3.08-4.81,5.43-8.53,5.43-5.52,0-9.94-5.25-9.94-13.06Z"/><path class="cls-16" d="M715.67,466.25v25.54h-3.9v-25.54h3.9Z"/><path class="cls-16" d="M718.18,471.19v-4.94h14.97v4.94h-5.52v20.6h-3.93v-20.6h-5.52Z"/><path class="cls-16" d="M744.33,482.94v8.85h-3.87v-8.85l-6.62-16.69h4.47l4.08,11.2,4.16-11.2h4.47l-6.7,16.69Z"/></g><text class="cls-12" transform="translate(618.91 137.26) scale(.47 1)"><tspan class="cls-3" x="0" y="0">A</tspan><tspan class="cls-18" x="24.58" y="0">THLETIC</tspan></text><path class="cls-2" d="M786.15,143.02c0-1.71-1.38-3.09-3.09-3.09h-20.15c-1.7,0-3.09,1.38-3.09,3.09v20.21c0,1.71,1.38,3.09,3.09,3.09h20.15c1.7,0,3.09-1.38,3.09-3.09v-20.21Zm-7.42,.82c.85,0,1.54,.69,1.54,1.54s-.69,1.55-1.54,1.55-1.54-.69-1.54-1.55,.68-1.54,1.54-1.54Zm-11.88,0c.85,0,1.54,.69,1.54,1.54s-.69,1.55-1.54,1.55-1.54-.69-1.54-1.55,.69-1.54,1.54-1.54Zm3.07,4.42l-.43,5.17c-.03,.33-.24,.6-.55,.72h0c-.31,.12-.52,.41-.54,.74l-.4,6.7c-.03,.45-.4,.8-.86,.8h-.57c-.45,0-.82-.35-.85-.8l-.4-6.7c-.02-.33-.23-.63-.54-.74-.31-.11-.52-.4-.55-.73l-.42-5.17c-.03-.42,.25-.81,.67-.91l.42-.09c.29-.06,.57,.02,.78,.23l.59,.6c.33,.33,.87,.33,1.21,0l.6-.6c.21-.21,.5-.29,.78-.23l.43,.09c.38,.1,.66,.49,.64,.92Zm3.28,14.13c0,.23-.19,.41-.41,.41s-.42-.19-.42-.41v-18.55c0-.23,.19-.41,.42-.41s.41,.18,.41,.41v18.55Zm8.54-8.25c-.29,.07-.48,.35-.43,.64l.18,1.33c.05,.31-.18,.61-.48,.65l-.39,.05c-.27,.04-.47,.27-.49,.54l-.26,4.25c-.03,.45-.4,.8-.85,.8h-.57c-.45,0-.82-.35-.85-.8l-.26-4.25c-.02-.28-.23-.49-.49-.54l-.39-.05c-.31-.04-.53-.34-.48-.65l.18-1.33c.05-.29-.14-.57-.43-.64-.3-.07-.48-.37-.42-.68l1.16-5.53c.08-.39,.53-.59,.87-.36l1.09,.7c.18,.12,.43,.12,.63,0l1.09-.7c.34-.21,.79-.03,.87,.36l1.17,5.53c.05,.3-.14,.6-.43,.68Z"/><path class="cls-2" d="M285.47,206.67c-.5,.07-2.41,.54-4.24,1.01-13.32,3.49-24.13,14.33-27.93,27.97-1.15,4.14-1.58,12.35-.86,16.77,1.94,12.17,9.62,23,20.46,28.8,4.49,2.41,12.57,4.93,12.57,3.92s-4.38-23.94-4.74-24.84c-.21-.54-1.97-2.48-3.95-4.32-4.06-3.74-5.06-5.22-5.85-8.6-.65-2.84-3.77-22.21-3.77-23.47,0-.94,1.22-1.66,1.83-1.04,.18,.18,1.44,5.26,2.76,11.3,2.26,10.19,2.48,10.94,3.23,11.05,.43,.07,.86-.11,.97-.36,.11-.25-.93-5.4-2.3-11.45-1.36-6.05-2.4-11.09-2.3-11.27,.07-.14,.57-.25,1.11-.25h1.01l2.48,11.23c2.55,11.48,2.77,11.99,4.13,11.12,.43-.29,.14-2.02-1.94-11.34-1.36-6.05-2.37-11.27-2.23-11.55,.11-.29,.57-.54,1.04-.54,.79,0,.93,.32,2.41,6.91,3.66,16.49,3.41,15.59,4.24,15.69,.43,.07,.86-.11,.97-.36,.11-.25-.93-5.4-2.3-11.45-2.26-10.01-2.41-11.02-1.9-11.45,1.36-1.04,1.58-.5,5.17,11.99,3.34,11.52,3.52,12.38,3.37,14.94-.11,2.23-.4,3.35-1.8,6.48-1.15,2.66-1.65,4.28-1.65,5.4,0,1.91,6.64,25.31,6.97,24.48,.11-.29,.93-4.07,1.83-8.35l1.65-7.81-.61-1.84c-.65-2.02-.61-3.71,.43-13.68,.68-6.84,1.87-12.6,4.09-20.05,2.37-7.92,4.74-12.74,7.68-15.77,3.73-3.82,5.96-3.49,5.96,.86,0,3.02-8.8,48.85-9.73,50.61-.47,.9-1.19,4.07-1.97,8.64-.68,3.96-1.33,7.63-1.44,8.17l-.18,.97,1.9-.54c7.61-2.2,13.35-5.65,18.67-11.23,7.11-7.45,10.73-16.6,10.77-27.07,.03-11.2-3.95-20.92-11.78-28.65-5.49-5.47-12.85-9.32-20.54-10.8-2.44-.47-11.45-.65-13.72-.25h0Zm0,0"/><g><g><path class="cls-19" d="M190.7,141.66c.14,0,.27,0,.41,0v5.16c-.14,0-.27,0-.41,0v-.64c-.21,.31-.5,.55-.82,.66-.42,.14-.88,.09-1.26-.16-.44-.3-.77-.83-.84-1.42-.05-.44,0-.9,.2-1.28,.23-.45,.61-.81,1.05-.92,.33-.09,.69-.07,1,.09,.27,.13,.5,.37,.67,.64,0-.71,0-1.41,0-2.12Zm-1.45,1.82c-.11,.02-.21,.05-.31,.1-.46,.23-.77,.81-.76,1.39,0,.34,.11,.68,.29,.94,.18,.27,.45,.47,.75,.54,.5,.11,1.05-.15,1.32-.65,.19-.35,.23-.79,.16-1.19-.07-.39-.3-.74-.6-.95-.25-.18-.56-.23-.85-.18Z"/><path class="cls-19" d="M172.7,141.75c.24-.07,.52,.15,.54,.44,.03,.28-.19,.55-.43,.54-.23,.02-.45-.21-.45-.48-.01-.24,.15-.46,.35-.5Z"/><path class="cls-19" d="M192.62,141.8c.1-.04,.21-.03,.3,.04,.09,.06,.15,.17,.16,.3,.01,.12-.03,.26-.11,.34-.1,.11-.26,.14-.38,.07-.12-.06-.21-.21-.2-.37,0-.16,.09-.32,.23-.38Z"/><path class="cls-19" d="M175.51,143.1c.27-.12,.59-.13,.86,0,.25,.12,.48,.34,.57,.64,.1,.29,.09,.61,.09,.92v2.17c-.27,0-.53,0-.8,0,0-.57,0-1.14,0-1.7,0-.24,0-.48-.03-.71-.02-.17-.08-.33-.2-.44-.13-.12-.31-.13-.47-.09-.18,.05-.32,.2-.41,.38-.07,.14-.11,.29-.12,.45-.01,.2-.02,.39-.02,.59v1.52c-.27,0-.54,0-.8,0v-3.72c.27,0,.54,0,.8,0,0,.12,0,.25,0,.38,.16-.15,.33-.29,.52-.38Z"/><path class="cls-19" d="M179,143.17c.27-.16,.59-.21,.89-.11,.21,.07,.4,.21,.53,.42,.08,.13,.13,.27,.18,.42,.13-.28,.32-.53,.56-.69,.26-.18,.57-.24,.87-.17,.26,.06,.5,.26,.64,.52,.17,.33,.19,.72,.21,1.09,0,.72,0,1.45,0,2.17-.14,0-.28,0-.42,0,0-.61,0-1.22,0-1.83,0-.29,0-.58-.04-.87-.02-.17-.1-.34-.21-.45-.16-.16-.38-.22-.58-.2-.34,.03-.64,.29-.79,.63-.1,.22-.12,.48-.14,.72-.03,.42-.01,.85-.02,1.27,0,.24,0,.48,0,.73-.14,0-.27,0-.41,0v-1.62c0-.29,0-.57-.02-.86-.01-.16-.03-.33-.11-.47-.1-.22-.3-.36-.51-.39-.25-.04-.52,.06-.71,.24-.2,.18-.32,.45-.37,.73-.08,.46-.05,.93-.06,1.39v.97c-.14,0-.27,0-.41,0v-3.72h.41v.64c.14-.23,.31-.45,.53-.57Z"/><path class="cls-19" d="M184.65,143.19c.31-.18,.66-.22,1-.17,.29,.04,.57,.17,.79,.39,.21,.2,.39,.46,.49,.76,.09,.26,.13,.55,.13,.83-.96,0-1.93,0-2.89,0,0,.31,.07,.62,.23,.88,.16,.26,.39,.47,.65,.55,.36,.11,.75,.03,1.07-.2,.21-.15,.36-.4,.49-.65,.12,.07,.23,.14,.35,.21-.13,.29-.3,.57-.53,.76-.23,.2-.52,.32-.81,.35-.36,.04-.73-.02-1.05-.23-.25-.16-.44-.42-.59-.7-.32-.62-.31-1.45,.02-2.06,.16-.3,.38-.56,.66-.72Zm.02,.54c-.24,.2-.38,.53-.46,.85h2.39c-.05-.24-.14-.48-.28-.67-.41-.51-1.16-.61-1.65-.18Z"/><path class="cls-19" d="M171.98,143.86c0-.23,0-.47,0-.7,.4,0,.79,0,1.19,0v3.66c-.26,0-.52,0-.77,0,0-.99,0-1.97,0-2.96-.14,0-.28,0-.42,0Z"/><path class="cls-19" d="M192,143.16h1c0,1.22,0,2.44,0,3.66-.19,0-.37,0-.56,0,0-1.04,0-2.08,0-3.11-.14,0-.29,0-.43,0,0-.18,0-.36,0-.55Z"/></g><path class="cls-19" d="M195.38,143.02c.31-.05,.64-.01,.93,.14,.27,.14,.5,.38,.64,.68,.2,.41,.25,.9,.19,1.36-.08,.6-.43,1.12-.88,1.43-.36,.25-.8,.32-1.22,.26-.3-.04-.59-.19-.81-.44-.23-.25-.37-.6-.41-.96-.04-.41,0-.83,.13-1.21,.12-.32,.32-.6,.55-.82,.25-.24,.55-.4,.87-.45Zm-.03,.87c-.18,.04-.34,.15-.46,.32-.16,.23-.27,.51-.29,.81-.01,.19,0,.39,.07,.56,.08,.19,.22,.35,.39,.43,.16,.07,.33,.07,.5,.05,.19-.03,.38-.13,.51-.29,.17-.22,.29-.5,.31-.8,.02-.2,0-.41-.07-.59-.08-.21-.25-.38-.44-.45-.17-.06-.35-.06-.52-.02Z"/></g></g><polygon id="Galleria_Stara_Zagora3.002_S3.02" class="cls-8" points="382.59 11.4 178.06 11.4 147.43 69.69 175.9 84.45 175.9 96.98 382.59 96.98 382.59 11.4"/><polygon id="Galleria_Stara_Zagora3.046" class="cls-8" points="215.82 115.95 184.21 115.95 159.59 164.05 184.21 177.43 215.82 115.95"/><polygon id="Galleria_Stara_Zagora3.044" class="cls-8" points="183.74 178.71 163.41 218.19 142.83 206.67 163.67 167.96 183.74 178.71"/><polygon id="Galleria_Stara_Zagora3.042" class="cls-8" points="162.7 219.46 119.23 303.52 110.91 314.35 76.65 287.98 30.83 287.68 90.06 176.07 110.91 186.5 108.85 190 162.7 219.46"/><polygon id="Galleria_Stara_ZagoraNFC8" class="cls-8" points="127.48 320.32 101.11 354.94 112.46 363.63 93.3 390.01 142.69 425.08 187.23 361.24 127.48 320.32"/><polygon id="Galleria_Stara_ZagoraNFC7" class="cls-8" points="187.93 362.24 213.6 378.81 170.72 444.16 143.84 426.03 187.93 362.24"/><polygon id="Galleria_Stara_ZagoraNFC6" class="cls-8" points="214.62 379.99 236.52 393.82 194.07 459.77 171.83 444.82 214.62 379.99"/><polygon id="Galleria_Stara_ZagoraNFC5" class="cls-8" points="237.8 394.65 257.88 407.22 229.81 450.81 217.58 443.21 203.54 465.74 195.33 460.44 237.8 394.65"/><polygon id="Galleria_Stara_ZagoraNFC4" class="cls-8" points="259.21 408.35 230.11 452.78 218.25 445.2 204.69 467.01 262.74 503.53 276.37 481.21 261.34 471.93 288.92 426.41 259.21 408.35"/><polyline id="Galleria_Stara_ZagoraNFC3" class="cls-8" points="290.09 427.31 263.33 471.56 278.31 480.55 263.77 504.51 275.41 511.2 315.93 443.21 289.81 427.31"/><polygon id="Galleria_Stara_ZagoraNFC2" class="cls-8" points="316.68 443.77 276.84 512.02 294.54 522.63 334.46 453.98 316.68 443.77"/><polygon id="Galleria_Stara_ZagoraNFC1" class="cls-8" points="335.64 454.86 304.39 508.97 333.62 524.84 363.07 470.61 335.64 454.86"/><polygon id="Galleria_Stara_ZagoraNFC10_S3.04" class="cls-8" points="364.12 471.88 343.77 509.65 366.92 522.32 387.72 484.68 364.12 471.88"/><polygon id="Galleria_Stara_ZagoraN3.024" class="cls-6" points="389.08 485.71 368.08 522.63 404.6 542.71 424.57 505.43 389.08 485.71"/><path id="Galleria_Stara_Zagora3.022" class="cls-6" d="M438.8,515.46l-41.49,78.86c79.89,40.7,143.91,69.51,159.77,74.66v-112.03l-10.63-5.31-18.86,7.11-88.8-43.29Z"/><path id="Galleria_Stara_Zagora3.021" class="cls-6" d="M558.45,557.71v108.69c20.14-37.37,34.97-41.91,55.89-47.31v-45.94h-24.09l-31.8-15.43Z"/><path id="Galleria_Stara_Zagora3.020" class="cls-6" d="M808.9,264.41v493.96s-171.55-55.85-174.72-59.12V249.03h67.32v15.76l107.4-.38Z"/><polygon id="Galleria_Stara_Zagora3.018" class="cls-6" points="634.18 247.25 634.18 204.52 694.96 204.52 694.96 234.85 735.01 234.85 735.01 247.25 634.18 247.25"/><polygon id="Galleria_Stara_Zagora3.016" class="cls-6" points="808.77 11.38 633.39 11.38 633.39 92.78 567.06 92.78 567.06 11.38 462.46 11.38 462.46 59.86 402.08 59.86 402.08 98.37 540.69 98.37 631.21 177.85 631.21 185.98 735.01 185.98 735.01 122.52 750.28 122.52 750.28 115.19 808.77 115.19 808.77 11.38"/><polygon id="Galleria_Stara_Zagora3.030" class="cls-6" points="554.21 235.16 554.21 387.38 538.66 387.38 538.66 385.81 513.97 385.81 513.97 371.27 436.2 371.27 436.2 321.73 442.28 321.73 442.28 297.72 451.75 297.72 451.75 235.16 554.21 235.16"/></svg>