<?xml version="1.0" encoding="UTF-8"?><svg id="Layer_4" xmlns="http://www.w3.org/2000/svg" viewBox="0 0 821.44 788.96"><defs><style>.cls-1{letter-spacing:-.03em;}.cls-2{fill:#ed7013;}.cls-3{stroke:#000;}.cls-3,.cls-4,.cls-5,.cls-6{fill:none;stroke-miterlimit:10;}.cls-7{fill:#f6f6f6;}.cls-4{stroke:#11100d;}.cls-5,.cls-6{stroke:#1d1d1b;}.cls-8{letter-spacing:-.01em;}.cls-6{stroke-width:2px;}.cls-9{letter-spacing:0em;}.cls-10{font-family:Axiforma-Bold, Axiforma;font-size:24.34px;font-weight:700;}.cls-10,.cls-11{fill:#1d1d1b;}.cls-12{fill:#12100b;}</style></defs><g id="Cladire"><path class="cls-7" d="m809.83,779.73c-19.35-6.58-37.51-12.66-55.07-18.55-14.93-5-30.36-10.17-46.71-15.71-25.56-8.65-53.69-18.67-75.25-26.8-77.67-29.28-152.83-62.86-223.39-99.79-124.81-65.32-236.98-140.02-333.4-222-.87-.74-2.78-2.32-5.44-4.52-8.76-7.25-25.08-20.76-39.13-33.05-7.87-6.88-13.98-12.47-18.16-16.61-6.23-6.17-9.85-10.22-7.63-14.46h0c1.04-2,13.48-25.76,167.79-320.55l1.4-2.68h641.6v776.97l-6.61-2.25Z"/><path class="cls-7" d="m811.44,10v764.99c-35.7-12.14-66.07-22.16-101.79-34.26-23.34-7.9-52-18.04-75.09-26.75-76.11-28.69-150.69-61.78-222.83-99.54-117.68-61.59-230.88-135-332.48-221.38-6.5-5.52-71.38-58.29-69.17-62.51,0,0,167.79-320.55,167.79-320.55h633.57m10-10H171.81l-2.81,5.36S1.47,325.42,1.22,325.92c-2.24,4.27-1.39,8.92,2.52,13.82,1.38,1.74,3.35,3.87,6.02,6.51,4.25,4.21,10.44,9.87,18.39,16.82,14.1,12.33,30.45,25.87,39.24,33.14,2.65,2.2,4.57,3.78,5.39,4.48,96.7,82.23,209.18,157.13,334.32,222.62,70.74,37.02,146.08,70.68,223.94,100.04,21.61,8.15,49.8,18.19,75.41,26.86,16.35,5.54,31.78,10.71,46.7,15.71,17.56,5.88,35.72,11.97,55.07,18.55l13.22,4.5V0h0Z"/><path class="cls-6" d="m634.56,713.99c23.09,8.7,51.75,18.84,75.09,26.75,35.72,12.1,66.08,22.12,101.79,34.26V10H177.86S10.08,330.55,10.08,330.55c-2.21,4.22,62.68,56.99,69.17,62.51,101.59,86.39,214.8,159.79,332.48,221.38,72.15,37.76,146.73,70.84,222.83,99.54Z"/></g><g id="Magazine"><polyline class="cls-3" points="142.66 79.14 184.9 101.1 308.02 101.1 308.26 62.46 278.62 62.46 229.66 62.46 229.66 9.18"/><line class="cls-3" x1="278.62" y1="62.46" x2="278.62" y2="101.1"/><polygon class="cls-3" points="143.98 187.26 180.22 117.54 214.3 117.54 214.3 236.34 181.42 230.46 157.66 218.1 167.38 199.38 143.98 187.26"/><polygon class="cls-3" points="174.94 289.98 228.94 289.98 228.94 308.58 152.02 308.58 152.02 287.1 181.42 230.46 214.3 236.34 214.3 285.3 174.94 285.3 174.94 289.98"/><polyline class="cls-3" points="809.98 249.78 750.34 249.78 750.34 339.42 809.98 339.42"/><polyline class="cls-5" points="722.83 7.53 722.83 166.86 812.83 166.86"/><line class="cls-5" x1="723.18" y1="77.48" x2="813.3" y2="77.48"/><line class="cls-5" x1="723.18" y1="130.1" x2="812.64" y2="130.1"/><polyline class="cls-5" points="465.26 8.28 465.26 35.7 384.29 35.7 384.29 18.07 338.58 18.07 338.58 307.34 719.92 307.34 719.92 236.82 693.15 236.82 693.15 202.87 719.92 202.87 719.92 185.24 574.3 185.24 574.3 170.22 339.23 171.52"/><polyline class="cls-5" points="666.37 8.28 666.37 40.27 700.33 40.27 700.33 186.54"/></g><g id="Logos"><path class="cls-12" d="m192.91,268.75h-1.41v-3.74c0-.3-.23-.53-.51-.53h-3.82c-.28,0-.51.24-.51.53v3.74h-1.41c-.28,0-.51.24-.51.53v4.01c0,.3.23.53.51.53h7.66c.28,0,.51-.24.51-.53v-4.01c0-.3-.23-.53-.51-.53Zm-5.24-3.21h.89v.53c0,.3.23.53.51.53s.51-.24.51-.53v-.53h.9v2.94h-2.8v-2.94Zm-1.91,4.28h.76v.53c0,.3.23.53.51.53s.51-.24.51-.53v-.53h1.02v2.94h-2.8v-2.94Zm6.64,2.94h-2.82v-2.94h1.02v.53c0,.3.23.53.51.53s.51-.24.51-.53v-.53h.78v2.94Z"/><path class="cls-12" d="m200.54,257.52s0-.04,0-.06c0-.02,0-.03,0-.05,0-.02,0-.03-.02-.05,0-.02,0-.03-.02-.05,0-.01-.01-.03-.02-.04l-.02-.05-.03-.04s-.02-.03-.03-.04l-.03-.03-.05-.04h0l-10.96-7.22c-.17-.11-.37-.11-.54,0l-10.96,7.22h0l-.05.04-.03.03s-.02.03-.03.04l-.03.04-.05.03s-.02.03-.02.04c0,.02-.01.03-.02.05,0,.02-.01.03-.02.05,0,.02,0,.03,0,.05,0,.03-.01.05-.01.08v15.77c0,.3.23.53.51.53h4.59c.28,0,.51-.24.51-.53v-10.43h11.72v10.43c0,.3.23.53.51.53.03,0,.06,0,.09,0,.03,0,.06,0,.09,0h4.41c.28,0,.51-.24.51-.53v-15.77Zm-17.33,4.28v-.53h11.72v.53h-11.72Zm12.74,10.96v-12.03c0-.3-.23-.53-.51-.53h-12.74c-.28,0-.51.24-.51.53v12.03h-3.57v-14.94s10.45-6.88,10.45-6.88l10.45,6.88v14.94h-3.57Z"/><path class="cls-12" d="m190.34,255.11h-2.8c-.28,0-.51.24-.51.53,0,.3.23.53.51.53h2.8c.28,0,.51-.24.51-.53,0-.3-.23-.53-.51-.53Z"/><path class="cls-12" d="m190.34,256.72h-2.8c-.28,0-.51.24-.51.53,0,.3.23.53.51.53h2.8c.28,0,.51-.24.51-.53,0-.3-.23-.53-.51-.53Z"/><path class="cls-12" d="m296.35,87.97h-1.06v-2.83c0-.22-.17-.4-.39-.4h-2.89c-.21,0-.39.18-.39.4v2.83h-1.07c-.21,0-.39.18-.39.4v3.03c0,.22.17.4.39.4h5.79c.21,0,.39-.18.39-.4v-3.03c0-.22-.17-.4-.39-.4Zm-3.96-2.42h.67v.4c0,.22.17.4.39.4s.39-.18.39-.4v-.4h.68v2.22h-2.12v-2.22Zm-1.45,3.23h.58v.4c0,.22.17.4.39.4s.39-.18.39-.4v-.4h.77v2.22h-2.12v-2.22Zm5.02,2.22h-2.13v-2.22h.77v.4c0,.22.17.4.39.4s.39-.18.39-.4v-.4h.59v2.22Z"/><path class="cls-12" d="m302.12,79.48s0-.03,0-.05c0-.01,0-.02,0-.03,0-.01,0-.02-.01-.04,0-.01,0-.02-.01-.04,0-.01-.01-.02-.02-.03l-.02-.03-.02-.03s-.02-.02-.03-.03l-.02-.02-.04-.03h0l-8.28-5.45c-.12-.08-.28-.08-.41,0l-8.28,5.45h0l-.04.03-.02.02s-.02.02-.03.03l-.02.03-.04.02s-.01.02-.02.03c0,.01,0,.02-.01.04,0,.01,0,.03-.01.04,0,.01,0,.02,0,.03,0,.02,0,.04,0,.06v11.92c0,.22.17.4.39.4h3.47c.21,0,.39-.18.39-.4v-7.88h8.86v7.88c0,.22.17.4.39.4.02,0,.05,0,.07,0,.02,0,.05,0,.07,0h3.33c.21,0,.39-.18.39-.4v-11.92Zm-13.09,3.23v-.4h8.86v.4h-8.86Zm9.63,8.28v-9.09c0-.22-.17-.4-.39-.4h-9.63c-.21,0-.39.18-.39.4v9.09h-2.7v-11.29s7.89-5.2,7.89-5.2l7.89,5.2v11.29h-2.7Z"/><path class="cls-12" d="m294.41,77.66h-2.12c-.21,0-.39.18-.39.4s.17.4.39.4h2.12c.21,0,.39-.18.39-.4s-.17-.4-.39-.4Z"/><path class="cls-12" d="m294.41,78.88h-2.12c-.21,0-.39.18-.39.4s.17.4.39.4h2.12c.21,0,.39-.18.39-.4s-.17-.4-.39-.4Z"/><text class="cls-10" transform="translate(430.13 256.62) rotate(-.42)"><tspan x="0" y="0">T</tspan><tspan class="cls-8" x="14.6" y="0">E</tspan><tspan x="29.82" y="0">CHNOMARKE</tspan><tspan class="cls-1" x="195.82" y="0">T</tspan></text><text class="cls-10" transform="translate(465.34 111.5) rotate(-.42)"><tspan class="cls-9" x="0" y="0">C</tspan><tspan x="18.38" y="0">OMSED</tspan></text><path class="cls-11" d="m179.42,78.19l.82-1c.48.65,1.18.99,1.91.98.6,0,1.02-.33,1.02-.77,0-.36-.29-.57-.66-.74-.46-.21-1.05-.38-1.56-.66-.63-.35-1.14-.88-1.15-1.77,0-1.18.97-2.1,2.43-2.11.83,0,1.69.28,2.36.95l-.76,1.05c-.43-.44-1.08-.66-1.57-.66-.57,0-.92.29-.92.69,0,.36.3.56.59.7.38.17,1.1.44,1.58.68.7.33,1.23.86,1.23,1.77,0,1.27-1.04,2.19-2.61,2.2-1.09,0-2.11-.44-2.72-1.32Z"/><path class="cls-11" d="m185.46,75.81c-.02-2.21,1.66-3.74,3.67-3.76,1.33,0,2.46.59,3.09,1.46l-.95.95c-.5-.61-1.21-1.03-2.05-1.02-1.28,0-2.28,1-2.27,2.36,0,1.33,1.01,2.28,2.29,2.27.84,0,1.58-.43,2.07-1.06l.99.89c-.62.87-1.77,1.53-3.15,1.54-2.04.02-3.69-1.45-3.71-3.63Z"/><path class="cls-11" d="m196.96,77.73l-2.5.02-.54,1.55h-1.5s2.68-7.17,2.68-7.17h1.17s2.75,7.13,2.75,7.13h-1.51s-.54-1.54-.54-1.54Zm-2.1-1.26h1.69s-.85-2.39-.85-2.39l-.83,2.39Z"/><path class="cls-11" d="m202.15,76.63h-.85s.02,2.61.02,2.61h-1.43s-.05-7.15-.05-7.15l2.74-.02c1.68-.01,2.46,1.06,2.47,2.25,0,.86-.42,1.74-1.44,2.11l1.75,2.78h-1.68s-1.53-2.58-1.53-2.58Zm-.86-1.28h1.17c.8-.01,1.11-.5,1.11-1,0-.51-.35-.96-1-.95h-1.3s.01,1.95.01,1.95Z"/><path class="cls-11" d="m209.28,76.71l.02,2.48h-1.43s-.02-2.47-.02-2.47l-2.49-4.66h1.66s1.54,3.11,1.54,3.11l1.52-3.15h1.66s-2.45,4.68-2.45,4.68Z"/><path class="cls-11" d="m214.2,77.93l.82-1c.48.65,1.18.99,1.91.98.6,0,1.02-.33,1.02-.77,0-.36-.29-.57-.66-.74-.46-.21-1.05-.38-1.56-.66-.63-.35-1.14-.88-1.15-1.77,0-1.18.97-2.1,2.43-2.11.83,0,1.69.28,2.36.95l-.76,1.05c-.43-.44-1.08-.66-1.57-.66-.57,0-.92.29-.92.69,0,.36.3.56.59.7.38.17,1.1.44,1.58.68.7.33,1.23.86,1.23,1.77,0,1.27-1.04,2.19-2.61,2.2-1.09,0-2.11-.44-2.72-1.32Z"/><path class="cls-11" d="m220.64,71.94h1.43s.02,2.85.02,2.85l3-.02-.02-2.86h1.43s.05,7.15.05,7.15h-1.43s-.02-2.91-.02-2.91l-3,.02.02,2.92h-1.43s-.05-7.15-.05-7.15Z"/><path class="cls-11" d="m231.97,77.47l-2.5.02-.54,1.55h-1.5s2.68-7.17,2.68-7.17h1.17s2.75,7.13,2.75,7.13h-1.51s-.54-1.53-.54-1.53Zm-2.1-1.26h1.69s-.85-2.39-.85-2.39l-.83,2.39Z"/><path class="cls-11" d="m234.84,71.84l2.8-.02c2.16-.02,3.46,1.36,3.48,3.57.02,2.19-1.28,3.58-3.48,3.59l-2.74.02-.05-7.16Zm2.85,5.76c1.29,0,1.94-1.02,1.93-2.23,0-1.19-.67-2.18-1.96-2.17h-1.38s.03,4.42.03,4.42h1.38Z"/><path class="cls-11" d="m241.91,75.39c-.02-2.08,1.61-3.74,3.7-3.76s3.74,1.63,3.76,3.68c.02,2.04-1.59,3.7-3.71,3.72-2.13.02-3.73-1.59-3.75-3.64Zm5.97-.06c-.01-1.34-1.02-2.29-2.26-2.28-1.24,0-2.23,1-2.22,2.31,0,1.31,1,2.27,2.25,2.26,1.26,0,2.24-.99,2.22-2.29Z"/><path class="cls-11" d="m249.59,71.73h1.57s1.48,4.79,1.48,4.79l1.59-4.83h.91s1.69,4.79,1.69,4.79l1.39-4.83h1.57s-2.31,7.17-2.31,7.17h-1.21s-1.56-4.67-1.56-4.67l-1.49,4.7h-1.21s-2.43-7.13-2.43-7.13Z"/><path class="cls-11" d="m259.9,77.59l.82-1c.48.65,1.18.99,1.91.98.6,0,1.02-.33,1.02-.77,0-.36-.29-.57-.66-.74-.46-.21-1.05-.38-1.56-.66-.63-.35-1.14-.88-1.15-1.77,0-1.18.97-2.1,2.43-2.11.83,0,1.69.28,2.36.95l-.76,1.05c-.43-.44-1.08-.66-1.57-.66-.57,0-.92.29-.92.69,0,.36.3.56.59.7.38.17,1.1.44,1.58.68.7.33,1.23.86,1.23,1.77,0,1.27-1.04,2.19-2.61,2.2-1.09,0-2.11-.44-2.72-1.32Z"/><path class="cls-11" d="m185.8,83.83l2.8-.02c2.16-.02,3.46,1.36,3.48,3.57.02,2.19-1.28,3.58-3.48,3.59l-2.74.02-.05-7.16Zm2.85,5.76c1.29,0,1.94-1.02,1.93-2.23,0-1.19-.67-2.18-1.96-2.17h-1.38s.03,4.42.03,4.42h1.38Z"/><path class="cls-11" d="m196.85,89.36l-2.5.02-.54,1.55h-1.5s2.68-7.17,2.68-7.17h1.17s2.75,7.13,2.75,7.13h-1.51s-.54-1.54-.54-1.54Zm-2.1-1.26h1.69s-.85-2.39-.85-2.39l-.83,2.39Z"/><path class="cls-11" d="m205.83,83.68l.05,7.16h-.98s-3.74-4.36-3.74-4.36l.03,4.39h-1.41s-.05-7.15-.05-7.15h.91s3.81,4.39,3.81,4.39l-.03-4.43h1.41Z"/><path class="cls-11" d="m207.04,87.28c-.02-2.21,1.66-3.74,3.67-3.76,1.33,0,2.47.59,3.09,1.46l-.95.95c-.5-.61-1.21-1.03-2.05-1.02-1.28,0-2.28,1-2.27,2.36,0,1.33,1.01,2.28,2.29,2.27.84,0,1.58-.43,2.08-1.06l.99.89c-.62.87-1.77,1.53-3.15,1.54-2.04.01-3.69-1.45-3.71-3.63Z"/><path class="cls-11" d="m214.83,83.61l4.85-.04v1.34s-3.4.03-3.4.03v1.54s3.17-.02,3.17-.02v1.34s-3.15.02-3.15.02v1.61s3.42-.03,3.42-.03v1.34s-4.84.04-4.84.04l-.05-7.16Z"/><path class="cls-11" d="m222.83,89.49l.82-1c.48.65,1.18.99,1.91.98.6,0,1.02-.33,1.02-.77,0-.36-.29-.57-.66-.74-.46-.21-1.05-.38-1.56-.66-.63-.35-1.14-.88-1.15-1.77,0-1.18.97-2.1,2.43-2.11.83,0,1.69.28,2.36.95l-.76,1.05c-.43-.44-1.08-.66-1.57-.66-.57,0-.92.29-.92.69,0,.36.3.56.59.7.38.17,1.1.44,1.58.68.7.33,1.23.86,1.23,1.77,0,1.27-1.04,2.19-2.61,2.2-1.09,0-2.11-.44-2.72-1.32Z"/><path class="cls-11" d="m228.51,84.9v-1.39s5.53-.04,5.53-.04v1.39s-2.03.02-2.03.02l.04,5.77h-1.45s-.04-5.76-.04-5.76h-2.04Z"/><path class="cls-11" d="m234.93,88.01l-.03-4.54h1.44s.03,4.44.03,4.44c0,.98.56,1.44,1.37,1.43.79,0,1.33-.5,1.33-1.45l-.03-4.45h1.45s.03,4.53.03,4.53c.01,1.89-1.27,2.75-2.77,2.76-1.51.01-2.81-.83-2.82-2.72Z"/><path class="cls-11" d="m241.99,83.41l2.8-.02c2.16-.02,3.46,1.36,3.48,3.57.02,2.19-1.28,3.58-3.48,3.59l-2.74.02-.05-7.16Zm2.85,5.76c1.29,0,1.94-1.02,1.93-2.23,0-1.19-.67-2.18-1.96-2.17h-1.38s.03,4.42.03,4.42h1.38Z"/><path class="cls-11" d="m250.9,83.35l.05,7.16h-1.44s-.05-7.15-.05-7.15h1.44Z"/><path class="cls-11" d="m252.09,86.94c-.02-2.08,1.61-3.74,3.7-3.76,2.09-.01,3.74,1.63,3.76,3.68.02,2.04-1.59,3.7-3.71,3.72-2.13.02-3.73-1.59-3.75-3.64Zm5.97-.06c-.01-1.34-1.02-2.29-2.26-2.28-1.24,0-2.23,1-2.22,2.31,0,1.31,1,2.27,2.25,2.26,1.26,0,2.24-.99,2.22-2.29Z"/><path class="cls-2" d="m793.4,284.6c.01-1.71-1.36-3.1-3.06-3.12l-20.15-.15c-1.7-.01-3.1,1.36-3.11,3.07l-.15,20.2c-.01,1.71,1.36,3.1,3.06,3.12l20.15.15c1.7.01,3.1-1.36,3.11-3.07l.15-20.2Zm-7.43.76c.85,0,1.54.7,1.53,1.55s-.7,1.54-1.55,1.53-1.53-.7-1.53-1.56.7-1.54,1.55-1.53Zm-11.88-.09c.85,0,1.54.7,1.53,1.55s-.7,1.54-1.56,1.53c-.85,0-1.53-.7-1.53-1.56s.7-1.54,1.55-1.53Zm3.04,4.44l-.47,5.16c-.03.33-.24.6-.55.71h0c-.31.12-.52.41-.54.74l-.45,6.7c-.03.45-.41.8-.87.8h-.29s-.29,0-.29,0c-.45,0-.82-.36-.85-.81l-.35-6.7c-.02-.33-.23-.63-.53-.75-.31-.12-.51-.41-.54-.73l-.38-5.17c-.03-.42.25-.81.68-.9l.42-.09c.29-.06.57.02.78.23l.58.6c.33.33.87.34,1.21,0l.6-.59c.21-.21.5-.29.78-.22l.43.09c.38.11.66.5.63.92Zm3.17,14.16c0,.23-.19.41-.42.41s-.42-.19-.41-.41l.14-18.55c0-.23.19-.41.42-.41s.41.19.41.42l-.14,18.55Zm8.61-8.18c-.29.07-.48.35-.44.64l.17,1.33c.04.31-.18.61-.49.65l-.39.04c-.27.04-.48.27-.49.53l-.29,4.25c-.03.45-.41.8-.86.79h-.29s-.29,0-.29,0c-.45,0-.82-.35-.85-.81l-.23-4.25c-.01-.28-.22-.5-.48-.54l-.39-.05c-.3-.04-.53-.34-.48-.66l.19-1.33c.05-.29-.14-.57-.43-.64-.3-.08-.48-.38-.41-.68l1.2-5.52c.08-.39.54-.59.87-.36l1.09.71c.18.12.43.13.63,0l1.09-.7c.34-.21.79-.02.87.37l1.12,5.54c.05.3-.14.6-.44.67Z"/><polygon class="cls-2" points="292.26 334.07 282.95 339.46 282.87 333.09 292.18 327.7 301.62 332.85 301.7 339.22 292.26 334.07"/><polygon class="cls-2" points="292.37 342.8 283.06 348.19 282.98 341.81 292.28 336.42 301.73 341.58 301.81 347.94 292.37 342.8"/><polygon class="cls-2" points="292.48 351.52 283.17 356.91 283.09 350.55 292.4 345.16 301.84 350.3 301.92 356.68 292.48 351.52"/><path class="cls-12" d="m772.08,50.82h-1.41v-3.74c0-.3-.23-.53-.51-.53h-3.82c-.28,0-.51.24-.51.53v3.74h-1.41c-.28,0-.51.24-.51.53v4.01c0,.3.23.53.51.53h7.66c.28,0,.51-.24.51-.53v-4.01c0-.3-.23-.53-.51-.53Zm-5.24-3.21h.89v.53c0,.3.23.53.51.53s.51-.24.51-.53v-.53h.9v2.94h-2.8v-2.94Zm-1.91,4.28h.76v.53c0,.3.23.53.51.53s.51-.24.51-.53v-.53h1.02v2.94h-2.8v-2.94Zm6.64,2.94h-2.82v-2.94h1.02v.53c0,.3.23.53.51.53s.51-.24.51-.53v-.53h.78v2.94Z"/><path class="cls-12" d="m779.71,39.59s0-.04,0-.06c0-.02,0-.03,0-.05,0-.02,0-.03-.02-.05,0-.02,0-.03-.02-.05,0-.01-.01-.03-.02-.04l-.02-.05-.03-.04s-.02-.03-.03-.04l-.03-.03-.05-.04h0l-10.96-7.22c-.17-.11-.37-.11-.54,0l-10.96,7.22h0l-.05.04-.03.03s-.02.03-.03.04l-.03.04-.05.03s-.02.03-.02.04c0,.02-.01.03-.02.05,0,.02-.01.03-.02.05,0,.02,0,.03,0,.05,0,.03-.01.05-.01.08v15.77c0,.3.23.53.51.53h4.59c.28,0,.51-.24.51-.53v-10.43h11.72v10.43c0,.3.23.53.51.53.03,0,.06,0,.09,0,.03,0,.06,0,.09,0h4.41c.28,0,.51-.24.51-.53v-15.77Zm-17.33,4.28v-.53h11.72v.53h-11.72Zm12.74,10.96v-12.03c0-.3-.23-.53-.51-.53h-12.74c-.28,0-.51.24-.51.53v12.03h-3.57v-14.94s10.45-6.88,10.45-6.88l10.45,6.88v14.94h-3.57Z"/><path class="cls-12" d="m769.51,37.19h-2.8c-.28,0-.51.24-.51.53,0,.3.23.53.51.53h2.8c.28,0,.51-.24.51-.53,0-.3-.23-.53-.51-.53Z"/><path class="cls-12" d="m769.51,38.79h-2.8c-.28,0-.51.24-.51.53,0,.3.23.53.51.53h2.8c.28,0,.51-.24.51-.53,0-.3-.23-.53-.51-.53Z"/><path class="cls-12" d="m771.42,110.24h-1.41v-3.74c0-.3-.23-.53-.51-.53h-3.82c-.28,0-.51.24-.51.53v3.74h-1.41c-.28,0-.51.24-.51.53v4.01c0,.3.23.53.51.53h7.66c.28,0,.51-.24.51-.53v-4.01c0-.3-.23-.53-.51-.53Zm-5.24-3.21h.89v.53c0,.3.23.53.51.53s.51-.24.51-.53v-.53h.9v2.94h-2.8v-2.94Zm-1.91,4.28h.76v.53c0,.3.23.53.51.53s.51-.24.51-.53v-.53h1.02v2.94h-2.8v-2.94Zm6.64,2.94h-2.82v-2.94h1.02v.53c0,.3.23.53.51.53s.51-.24.51-.53v-.53h.78v2.94Z"/><path class="cls-12" d="m779.05,99.01s0-.04,0-.06c0-.02,0-.03,0-.05,0-.02,0-.03-.02-.05,0-.02,0-.03-.02-.05,0-.01-.01-.03-.02-.04l-.02-.05-.03-.04s-.02-.03-.03-.04l-.03-.03-.05-.04h0l-10.96-7.22c-.17-.11-.37-.11-.54,0l-10.96,7.22h0l-.05.04-.03.03s-.02.03-.03.04l-.03.04-.05.03s-.02.03-.02.04c0,.02-.01.03-.02.05,0,.02-.01.03-.02.05,0,.02,0,.03,0,.05,0,.03-.01.05-.01.08v15.77c0,.3.23.53.51.53h4.59c.28,0,.51-.24.51-.53v-10.43h11.72v10.43c0,.3.23.53.51.53.03,0,.06,0,.09,0,.03,0,.06,0,.09,0h4.41c.28,0,.51-.24.51-.53v-15.77Zm-17.33,4.28v-.53h11.72v.53h-11.72Zm12.74,10.96v-12.03c0-.3-.23-.53-.51-.53h-12.74c-.28,0-.51.24-.51.53v12.03h-3.57v-14.94s10.45-6.88,10.45-6.88l10.45,6.88v14.94h-3.57Z"/><path class="cls-12" d="m768.86,96.61h-2.8c-.28,0-.51.24-.51.53,0,.3.23.53.51.53h2.8c.28,0,.51-.24.51-.53,0-.3-.23-.53-.51-.53Z"/><path class="cls-12" d="m768.86,98.21h-2.8c-.28,0-.51.24-.51.53,0,.3.23.53.51.53h2.8c.28,0,.51-.24.51-.53,0-.3-.23-.53-.51-.53Z"/><path class="cls-12" d="m771.73,155.3h-1.41v-3.74c0-.3-.23-.53-.51-.53h-3.82c-.28,0-.51.24-.51.53v3.74h-1.41c-.28,0-.51.24-.51.53v4.01c0,.3.23.53.51.53h7.66c.28,0,.51-.24.51-.53v-4.01c0-.3-.23-.53-.51-.53Zm-5.24-3.21h.89v.53c0,.3.23.53.51.53s.51-.24.51-.53v-.53h.9v2.94h-2.8v-2.94Zm-1.91,4.28h.76v.53c0,.3.23.53.51.53s.51-.24.51-.53v-.53h1.02v2.94h-2.8v-2.94Zm6.64,2.94h-2.82v-2.94h1.02v.53c0,.3.23.53.51.53s.51-.24.51-.53v-.53h.78v2.94Z"/><path class="cls-12" d="m779.36,144.07s0-.04,0-.06c0-.02,0-.03,0-.05,0-.02,0-.03-.02-.05,0-.02,0-.03-.02-.05,0-.01-.01-.03-.02-.04l-.02-.05-.03-.04s-.02-.03-.03-.04l-.03-.03-.05-.04h0l-10.96-7.22c-.17-.11-.37-.11-.54,0l-10.96,7.22h0l-.05.04-.03.03s-.02.03-.03.04l-.03.04-.05.03s-.02.03-.02.04c0,.02-.01.03-.02.05,0,.02-.01.03-.02.05,0,.02,0,.03,0,.05,0,.03-.01.05-.01.08v15.77c0,.3.23.53.51.53h4.59c.28,0,.51-.24.51-.53v-10.43h11.72v10.43c0,.3.23.53.51.53.03,0,.06,0,.09,0,.03,0,.06,0,.09,0h4.41c.28,0,.51-.24.51-.53v-15.77Zm-17.33,4.28v-.53h11.72v.53h-11.72Zm12.74,10.96v-12.03c0-.3-.23-.53-.51-.53h-12.74c-.28,0-.51.24-.51.53v12.03h-3.57v-14.94s10.45-6.88,10.45-6.88l10.45,6.88v14.94h-3.57Z"/><path class="cls-12" d="m769.17,141.66h-2.8c-.28,0-.51.24-.51.53,0,.3.23.53.51.53h2.8c.28,0,.51-.24.51-.53,0-.3-.23-.53-.51-.53Z"/><path class="cls-12" d="m769.17,143.27h-2.8c-.28,0-.51.24-.51.53,0,.3.23.53.51.53h2.8c.28,0,.51-.24.51-.53,0-.3-.23-.53-.51-.53Z"/></g><polygon id="Galleria_Stara_Zagora0.012" class="cls-3" points="179.14 9.18 142.66 78.47 184.9 101.1 277.58 101.1 277.58 63.67 228.55 63.67 228.55 9.18 179.14 9.18"/><polygon id="Galleria_Stara_Zagora0.016" class="cls-5" points="339.17 18.86 339.17 170.66 574.72 170.66 574.72 183.88 699.25 183.88 699.25 41.17 665.64 41.17 665.64 10.32 466.18 10.32 466.18 36.76 382.7 36.76 382.7 18.86 339.17 18.86"/><polygon id="Galleria_Stara_Zagora0.017" class="cls-5" points="339.55 172.55 339.55 306.33 718.26 306.33 718.26 238.13 692.44 238.13 692.44 201.28 718.84 201.28 718.84 185.9 572.87 185.9 572.87 171.97 339.55 172.55"/><polygon id="Galleria_Stara_Zagora0.002" class="cls-4" points="180.54 118.31 144.91 187.01 168.44 198.98 158.76 217.66 181.35 229.63 213.34 235.41 213.34 118.31 180.54 118.31"/></svg>