<?xml version="1.0" encoding="UTF-8"?>
<svg id="Layer_4" data-name="Layer 4" xmlns="http://www.w3.org/2000/svg" viewBox="0 0 465.28 513.56">
  <defs>
    <style>
      .cls-1 {
        stroke-width: 2px;
      }

      .cls-1, .cls-2, .cls-3, .cls-4 {
        fill: none;
        stroke-miterlimit: 10;
      }

      .cls-1, .cls-4 {
        stroke: #231f20;
      }

      .cls-5 {
        font-size: 23.28px;
      }

      .cls-5, .cls-6, .cls-7, .cls-8, .cls-9, .cls-10, .cls-11, .cls-12, .cls-13, .cls-14 {
        fill: #231f20;
      }

      .cls-5, .cls-6, .cls-8, .cls-9, .cls-10, .cls-12, .cls-13, .cls-14 {
        font-family: BerlinSansFBDemi-Bold, 'Berlin Sans FB Demi';
        font-weight: 700;
      }

      .cls-2 {
        stroke: #000;
      }

      .cls-15 {
        fill: #f47725;
      }

      .cls-6 {
        font-size: 14.42px;
      }

      .cls-16 {
        fill: #f1f2f2;
      }

      .cls-3 {
        stroke: #f1f2f2;
        stroke-width: 10px;
      }

      .cls-8 {
        font-size: 10.33px;
      }

      .cls-9 {
        font-size: 11.74px;
      }

      .cls-10 {
        font-size: 8.02px;
      }

      .cls-11 {
        fill-rule: evenodd;
      }

      .cls-12 {
        font-size: 7.13px;
      }

      .cls-13 {
        font-size: 9.83px;
      }

      .cls-14 {
        font-size: 14.62px;
      }
    </style>
  </defs>
  <g id="cladire">
    <g>
      <path class="cls-16" d="M349.88,480.17v-73.86h9.76v-93.28h100.64v-131.07h-100.8V37.53h-51.84V5H5v502.86l34.27-4.49,122.2-15.03s86.84,23.17,188.41-8.17Z"/>
      <path class="cls-3" d="M349.88,480.17v-73.86h9.76v-93.28h100.64v-131.07h-100.8V37.53h-51.84V5H5v502.86l34.27-4.49,122.2-15.03s86.84,23.17,188.41-8.17Z"/>
      <path class="cls-1" d="M349.88,480.17v-73.86h9.76v-93.28h100.64v-131.07h-100.8V37.53h-51.84V5H5v502.86l34.27-4.49,122.2-15.03s86.84,23.17,188.41-8.17Z"/>
    </g>
  </g>
  <g id="magazine">
    <polyline class="cls-4" points="5 271.95 35.09 271.95 35.09 326.98 197.98 326.98 197.98 269.73 171.08 269.73 171.08 246.6 142.37 246.6 142.37 160.81 159.28 160.81 159.1 14.73 35.25 14.73 35.25 105.94 5 105.94"/>
    <line class="cls-4" x1="171.08" y1="269.73" x2="171.08" y2="326.98"/>
    <line class="cls-4" x1="171.08" y1="306.58" x2="197.98" y2="306.58"/>
    <polyline class="cls-4" points="36.32 503.85 36.32 337.73 205.2 337.73 205.2 339.62 205.2 482.51 161.48 488.35"/>
    <path class="cls-4" d="M349.88,452.23l-54.13-8.86c18.53-92.75,31.09-183.63,35.35-271.9h28.38v18.13h21.98v-7.63"/>
    <polyline class="cls-4" points="318.49 307.87 359.64 307.87 359.64 313.04"/>
    <polyline class="cls-4" points="460.28 239.39 370.39 239.39 370.39 272.77 322.89 272.77"/>
    <line class="cls-4" x1="427.39" y1="313.04" x2="427.39" y2="239.39"/>
    <line class="cls-4" x1="441.09" y1="181.97" x2="441.09" y2="239.39"/>
    <polyline class="cls-4" points="370.3 189.77 370.3 207.07 329.02 207.07"/>
    <line class="cls-4" x1="370.39" y1="239.39" x2="326.27" y2="239.39"/>
    <line class="cls-4" x1="359.64" y1="339.36" x2="314.27" y2="339.36"/>
    <polyline class="cls-4" points="309.87 365.86 341.44 365.86 341.44 372.42 359.64 372.42"/>
    <line class="cls-4" x1="359.64" y1="384.61" x2="306.64" y2="384.61"/>
    <line class="cls-4" x1="300.94" y1="416.62" x2="349.88" y2="416.62"/>
    <polyline class="cls-4" points="359.48 37.53 307.64 37.53 307.64 5"/>
    <path class="cls-4" d="M169.93,5v145.31h41.26v-19.6c0-11.98,6.75-17.72,18.21-17.72h50.71c25.61,0,31.02,22.22,31.31,48.15h48.06"/>
    <line class="cls-4" x1="427.39" y1="263.6" x2="460.28" y2="263.6"/>
    <line class="cls-4" x1="5" y1="401.27" x2="36.32" y2="401.27"/>
    <line class="cls-4" x1="36.32" y1="356.65" x2="5" y2="356.65"/>
    <polyline class="cls-4" points="145.1 337.73 145.1 360.22 205.2 360.22"/>
  </g>
  <g id="logo">
    <g>
      <path class="cls-7" d="M332.66,265.98c0-2.02.39-4.57,1.18-7.65.68-2.66,1.48-4.99,2.41-6.98,1.61-3.46,3.33-5.19,5.15-5.19.87.13,1.67.55,2.41,1.24,1.76,1.65,2.99,4.5,3.69,8.55-.02-.05.19-.89.64-2.51,1.36-4.86,3.13-7.29,5.34-7.27,2.03.02,3.83,1.7,5.4,5.04.91,1.97,1.66,4.31,2.26,7.02.64,2.91.95,5.49.95,7.74h-2.95c0-7.21-1.06-12.62-3.18-16.22-.85-1.44-1.65-2.16-2.41-2.16-1,0-1.91,1.43-2.73,4.29-.93,3.24-1.42,7.51-1.46,12.8l-3.4.05c0-6.97-.85-12.05-2.54-15.24-.68-1.27-1.35-1.91-2-1.91-.95,0-1.94,1.27-2.96,3.8-1.63,4.11-2.47,8.95-2.51,14.53l-3.27.05Z"/>
      <path class="cls-7" d="M332.16,266.48v-.51c0-2.05.4-4.67,1.19-7.77.68-2.68,1.51-5.06,2.45-7.06,1.71-3.68,3.55-5.48,5.6-5.48,1.04.15,1.94.61,2.76,1.37,1.5,1.41,2.63,3.64,3.39,6.67.03-.13.07-.26.11-.41,1.43-5.14,3.33-7.64,5.8-7.64h.03c2.23.02,4.2,1.81,5.85,5.33.92,1.99,1.69,4.39,2.29,7.13.64,2.93.96,5.58.96,7.85v.5h-3.95v-.5c0-7.09-1.05-12.46-3.11-15.97-.73-1.23-1.43-1.91-1.98-1.91-.34,0-1.23.38-2.25,3.93-.92,3.18-1.4,7.44-1.44,12.67v.49s-4.4.06-4.4.06v-.51c0-6.85-.84-11.9-2.48-15-.76-1.43-1.3-1.64-1.56-1.64-.33,0-1.23.34-2.49,3.49-1.6,4.03-2.43,8.86-2.47,14.35v.49s-4.27.06-4.27.06ZM359.63,265.48h1.95c-.04-2.09-.36-4.49-.94-7.14-.58-2.67-1.33-5-2.22-6.92-1.47-3.14-3.14-4.73-4.95-4.75-1.94.01-3.57,2.31-4.85,6.9-.53,1.95-.61,2.33-.62,2.4l-.26-.03-.7.2s-.04-.09-.04-.16c-.68-3.89-1.86-6.66-3.53-8.22-.66-.62-1.39-.99-2.15-1.11-1.53,0-3.11,1.65-4.62,4.9-.91,1.95-1.72,4.27-2.38,6.89-.71,2.77-1.09,5.12-1.15,7.01l2.27-.03c.09-5.42.94-10.2,2.54-14.22,1.13-2.81,2.21-4.12,3.42-4.12.86,0,1.66.71,2.44,2.17,1.68,3.17,2.56,8.2,2.6,14.96l2.41-.04c.07-5.09.56-9.28,1.48-12.45.92-3.18,1.94-4.65,3.21-4.65.96,0,1.89.79,2.85,2.4,2.1,3.58,3.2,8.96,3.25,15.98Z"/>
    </g>
    <g>
      <path class="cls-7" d="M316.93,425.94h-.77l-.17.67c.37.03.89.36.47.75-.05.05-4.39,3.36-4.39,3.36l.93-3.38c.19-.65.9-.73.9-.73l.17-.68h-5.22s-.17.68-.17.68c.25.06.96.2.71,1.14-1.74,6.29-1.54,5.67-1.66,6.01-.47,1.82-1.24,1.73-1.52,1.75l-.17.68v.05s0,0,0,0h5.44l.18-.74s-.87-.17-.7-.8c.16-.61.85-3.09.85-3.09,2.41,3.87,3.01,4.54,5.11,4.64.71.03,1.59,0,2.78,0l.18-.73c-.69,0-1.14-.5-1.42-.79-.15-.16-.87-1.26-1.54-2.27-.6-.92-1.14-1.76-1.14-1.76l1.14-.91,3.25-2.6c.74-.62,1.26-.55,1.26-.55l.17-.68h-4.69Z"/>
      <path class="cls-7" d="M339.05,425.84c-.58,0-1.13.02-1.66.08-4.37.51-7.02,3.26-7.01,6.02,0,2.31,1.87,4.54,6.2,4.52.28,0,.54-.01.8-.02,1.05-.06,1.97-.2,2.82-.37l.5-2.15c-.84.28-1.9.51-2.75.52-.2,0-.39,0-.57-.03-1.99-.2-3.28-1.48-3.29-3.12,0-1.7,1.23-3.03,3.29-3.38.34-.06.71-.09,1.1-.09,1.33,0,2,.44,2.44,1.02h.36l.71-2.54c-.73-.24-1.81-.44-2.94-.45Z"/>
      <path class="cls-7" d="M327.55,425.94h-5.15l-.17.67s1.03.11.71,1.14l-2.33,8.49h4.67s.17-.72.17-.72c0,0-.87-.21-.65-1.01.02-.08.68-2.52.68-2.52h2.06s.09,0,.09,0c1.06,0,1.42.56,1.42.56l.62-2.52h-3.61l.54-1.98h3.13c.58,0,.98.38.98.67h.35l.69-2.76h-4.21Z"/>
    </g>
    <g>
      <path class="cls-7" d="M321.5,358.56c0,1.76-1.5,1.66-1.5.09v-4.01h-1.01v3.96c0,1.75-1.5,1.64-1.5.08,0-2.52,0-6.12,0-10.13v.14c0-1.57,1.5-1.68,1.5.08v3.53s1.01,0,1.01,0v-3.58c0-1.57,1.5-1.66,1.5.1v9.74M323.47,357.43v-2.03h.86s-.35,0,0,0c.95,0,1.01-2.23.02-2.31h-.88v-1.56h.97s-.35,0,0,0c.95,0,.99-2.29,0-2.38-.24-.02,0,0,0,0h-1.72c-.59.06-.79.53-.79,2.38,0,1.33,0,0,0,0v5.9c0,1.84.21,2.31.8,2.38h1.72s-.24.02,0,0c.99-.08.95-2.38,0-2.38-.35,0-.61,0-.98,0M328.72,350.49c-.26-.65-.47-.88-.9-1.19-.23-.17-.92-.29-1.43.11-.45.35-.72.71-.93,1.49-.25.96-.26,1.82.09,2.69.34.83.73,1.24,1.2,1.57.8.56,1.08,1.41.9,1.98-.11.36-.24.65-.57.64-.44-.02-.59-.49-.74-1.09-.11-.44-.43-.74-.83-.47-.5.34-.49,1.33-.29,1.92.44,1.28,1,1.77,1.86,1.78.72,0,1.2-.5,1.62-1.48.53-1.24.45-2.88-.13-4.02-.35-.69-.72-.91-1.23-1.29-.62-.47-.78-1.08-.56-1.51.26-.5.68-.14.98.32.2.32.56.27.79-.08.24-.36.31-.99.15-1.39M332.18,354.2c.5-.73.68-1.66.54-2.77-.17-1.37-.81-2.21-1.62-2.21h-1.12c-.39,0-.7.59-.7,1.32v7.99c0,.72.31,1.31.7,1.31.7,0,.93-.01,1.31-.01.68,0,1.86-1.03,1.86-3.01,0-1.2-.34-2.09-.97-2.61ZM330.64,351.2h.27c.32,0,.58.4.58.93s-.26,1-.58,1h-.27v-1.93ZM330.99,357.8h-.35s0,0,0,0v-2.29h.35c.38,0,.69.51.69,1.15s-.31,1.15-.69,1.15ZM337.34,356.45c0,1.89-.9,3.42-2.01,3.42s-2.01-1.53-2.01-3.42v-5.97c0-.72.32-1.31.72-1.31s.73.59.73,1.31v6.18c0,.54.25.98.57.98s.55-.42.55-.95v-6.21c0-.72.32-1.31.73-1.31s.73.59.73,1.31v5.97h0M341.39,358l-.94-2.8c.59-.75.96-1.56.95-2.84-.01-1.75-.83-3.18-1.82-3.18-.48,0-1.18-.01-1.18,0h0c-.4,0-.65.58-.65,1.31v7.99c0,.72.31,1.31.71,1.31s.69-.59.69-1.31l-.02-2.37,1.03,3.02c.21.63.66.89,1,.58.34-.31.44-1.08.23-1.71ZM339.45,353.5h-.34v-2.2h.34c.36,0,.66.49.66,1.1s-.3,1.1-.66,1.1ZM343.99,349.09s1.44.13.99,2.02c-.36,1.51-1.56-1.25-1.93,1.46-.04.29-.05,2.02-.03,3.58-.04.72.36,2.19,1.08,1.27v-1.93c-1.09,0-.91-2.41,0-2.41.66,0,.44-.06.83,0,0,0,.6.14.58,2.31,0,0,0,1.62-.02,2.81-.08.61-.27,1.35-1.31,1.69-1,.32-1.75-.62-1.91-.91-.16-.28-.62-1.02-.67-2.52-.05-1.5-.08-3.2.01-4.52.1-1.32.64-2.08,1.22-2.56.58-.48,1.15-.3,1.15-.3M347.29,357.44v-2.03h.86s-.35,0,0,0c.95,0,1.01-2.23.02-2.31h-.88v-1.56h.97s-.35,0,0,0c.95,0,.99-2.29,0-2.38-.24-.02,0,0,0,0h-1.72c-.59.06-.79.54-.79,2.38,0,1.33,0,0,0,0v5.9c0,1.84.21,2.31.8,2.38h1.72s-.24.02,0,0c.99-.08.95-2.38,0-2.38-.35,0-.61,0-.99,0M353.56,359.56l-1.45-4.35c.59-.76.96-1.56.95-2.84-.01-1.74-.83-3.17-1.82-3.17-.48,0-1.23-.03-1.23,0-.4,0-.69.56-.69,1.29v7.99c0,.72.29,1.31.69,1.31s.72-.59.72-1.31v-2.8s1.61,5,1.61,5c.21.63.66.89.99.58.34-.31.44-1.08.23-1.71ZM351.06,353.54h-.33v-2.21h.33c.37,0,.67.5.67,1.11,0,.61-.3,1.11-.67,1.11Z"/>
      <path class="cls-7" d="M353.53,350.42c-.23,0-.42-.34-.42-.75,0-.42.19-.75.42-.75s.42.34.42.75-.19.75-.42.75ZM353.53,349.14c-.16,0-.29.24-.29.53s.13.53.29.53.29-.24.29-.53-.13-.53-.29-.53ZM353.44,349.67v-.29h.08c.08,0,.11.05.11.15s-.04.15-.1.15h-.09M353.6,349.76c.07-.02.13-.1.13-.24,0-.21-.11-.26-.21-.26h-.18v.84h.1v-.32h.06l.13.32h.13l-.16-.34Z"/>
      <polyline class="cls-7" points="314.28 350.12 314.27 350.12 313.69 352.86 311.77 352.86 311.77 352.88 313.34 354.63 312.73 357.42 312.74 357.44 314.28 355.71 315.81 357.44 315.83 357.42 315.22 354.63 316.78 352.88 316.78 352.86 314.85 352.86 314.28 350.12"/>
      <polyline class="cls-7" points="356.05 350.12 356.03 350.12 355.46 352.86 353.53 352.86 353.53 352.88 355.1 354.63 354.49 357.42 354.5 357.44 356.04 355.71 357.58 357.44 357.59 357.42 356.99 354.63 358.54 352.88 358.54 352.86 356.61 352.86 356.05 350.12"/>
    </g>
    <text class="cls-6" transform="translate(336.04 329.43) scale(.85 1)"><tspan x="0" y="0"> </tspan></text>
    <text class="cls-14" transform="translate(347.87 294.75) scale(.85 1)"><tspan x="0" y="0">INCANTO</tspan></text>
    <text class="cls-5" transform="translate(26.96 198.42) scale(.76 1)"><tspan x="0" y="0">CINEMA CITY</tspan></text>
    <text class="cls-5" transform="translate(57.67 435.36) scale(.76 1)"><tspan x="0" y="0">PLAYGROUND</tspan></text>
    <g>
      <path class="cls-7" d="M432.06,248.42c0,.24,0,.6.02,1.08,0,.48.02.84.02,1.08,0,.04,0,.07-.02.08,0,0-.03,0-.07.01-.11.02-.26.02-.45.02-.25,0-.41,0-.48-.02-.05-.01-.08-.04-.08-.09,0,.03,0-.15.02-.54.03-.82.05-1.36.05-1.62,0-.22,0-.54-.02-.98-.01-.44-.02-.76-.02-.98,0-.04.02-.07.06-.07.05,0,.13,0,.24,0,.11,0,.19,0,.24,0s.13,0,.24,0c.1,0,.18,0,.24,0,.05,0,.08.02.08.07,0,.22,0,.54-.03.98-.02.43-.03.76-.03.98Z"/>
      <path class="cls-7" d="M436.06,246.49c0,.23,0,.58-.02,1.04-.02.46-.03.81-.03,1.05v2.01c0,.06-.02.08-.08.08-.04,0-.1,0-.19,0-.08,0-.15,0-.19,0-.04,0-.11,0-.2-.01-.09,0-.16-.01-.2-.01-.03,0-.07-.03-.11-.1-.12-.2-.4-.63-.84-1.31-.12-.19-.3-.47-.54-.83,0-.01-.02-.02-.04-.04-.01.01-.02.04-.02.07,0,.24,0,.59.02,1.06.01.47.02.82.02,1.06,0,.07-.02.11-.07.11h-.9s-.08-.03-.08-.09c0-.22,0-.55.03-.99.02-.44.03-.77.03-1,0-.23,0-.58-.02-1.05-.02-.46-.02-.81-.02-1.04,0-.04.03-.07.1-.07.1,0,.22,0,.37-.02.03,0,.1-.02.2-.04.09-.02.16-.03.21-.03.02,0,.05.03.1.1l.97,1.56c.09.14.22.35.39.62.04.06.08.09.11.09.02,0,.03-.08.03-.24,0-.21,0-.53-.03-.96-.02-.43-.03-.75-.03-.97,0-.07.02-.11.05-.11.1,0,.26,0,.47-.02.21,0,.37-.02.47-.02.03,0,.05.03.05.09Z"/>
      <path class="cls-7" d="M439.57,249.98s-.02.08-.05.13c-.32.44-.74.67-1.27.67s-.98-.22-1.31-.65c-.33-.42-.49-.95-.49-1.58s.16-1.14.48-1.57c.33-.45.76-.68,1.27-.68.56,0,1,.2,1.32.61.03.04.05.08.05.12,0,.04-.06.18-.18.43-.12.25-.2.39-.23.42-.01.02-.03.02-.05.02,0,0-.05-.04-.13-.12-.09-.1-.18-.17-.27-.23-.14-.08-.28-.12-.42-.12-.25,0-.46.11-.61.34-.14.21-.21.46-.21.77s.07.57.21.78c.15.23.36.34.61.34.15,0,.29-.04.43-.12.09-.05.18-.12.27-.21.08-.08.12-.12.13-.12.02,0,.03.01.05.03.03.04.1.16.23.38.13.23.19.35.19.37Z"/>
      <path class="cls-7" d="M443.27,250.59s-.02.06-.06.08c-.05.02-.21.02-.48.02-.25,0-.41,0-.48-.02-.06-.01-.1-.06-.11-.14-.06-.29-.1-.45-.14-.47-.03-.01-.26-.02-.69-.02-.29,0-.45,0-.47.03-.03.03-.06.14-.1.33-.03.17-.07.26-.12.27-.06.02-.26.02-.59.02-.26,0-.4-.03-.4-.09,0-.05.2-.7.59-1.95.42-1.35.65-2.09.69-2.22.02-.08.04-.12.07-.12.05,0,.12,0,.22.02.1,0,.17.02.22.02s.12,0,.21-.01.16-.01.2-.01c.03,0,.06.03.09.1.08.21.33.94.74,2.19.41,1.26.62,1.91.62,1.97ZM441.43,247.82c-.04.09-.1.28-.18.58-.09.32-.14.5-.14.56,0,.04.05.06.16.06.05,0,.14,0,.26,0,.11,0,.18-.02.19-.05,0-.01,0-.02,0-.04,0-.07-.04-.25-.12-.55-.08-.29-.13-.48-.17-.56Z"/>
      <path class="cls-7" d="M447,246.49c0,.23,0,.58-.02,1.04-.02.46-.03.81-.03,1.05v2.01c0,.06-.02.08-.08.08-.04,0-.1,0-.19,0-.08,0-.15,0-.19,0-.04,0-.11,0-.2-.01-.09,0-.16-.01-.2-.01-.03,0-.07-.03-.11-.1-.12-.2-.4-.63-.84-1.31-.12-.19-.3-.47-.54-.83,0-.01-.02-.02-.04-.04-.01.01-.02.04-.02.07,0,.24,0,.59.02,1.06.01.47.02.82.02,1.06,0,.07-.02.11-.07.11h-.9s-.08-.03-.08-.09c0-.22,0-.55.03-.99.02-.44.03-.77.03-1,0-.23,0-.58-.02-1.05-.02-.46-.02-.81-.02-1.04,0-.04.03-.07.1-.07.1,0,.22,0,.37-.02.03,0,.1-.02.2-.04.09-.02.16-.03.21-.03.02,0,.05.03.1.1l.97,1.56c.09.14.22.35.39.62.04.06.08.09.11.09.02,0,.03-.08.03-.24,0-.21,0-.53-.03-.96-.02-.43-.03-.75-.03-.97,0-.07.02-.11.05-.11.1,0,.26,0,.47-.02.21,0,.37-.02.47-.02.03,0,.05.03.05.09Z"/>
      <path class="cls-7" d="M450.01,247.33s-.02.06-.06.06c-.07,0-.33-.02-.78-.05,0,.51-.02.87-.02,1.08,0,.24,0,.6.03,1.08.02.48.02.84.02,1.08,0,.04,0,.06-.02.07,0,0-.03,0-.07.02-.1.02-.26.02-.46.02-.22,0-.38,0-.47-.02-.05-.01-.07-.04-.07-.09,0-.24,0-.6.03-1.08s.03-.84.03-1.08c0-.16,0-.51-.02-1.06-.35.04-.62.06-.83.06-.03,0-.04-.01-.04-.03,0-.03.01-.1.04-.23.03-.14.04-.23.05-.26,0-.1.01-.19.02-.29.01-.15.03-.23.06-.23,0,0,.02,0,.04,0,.28.04.69.06,1.24.06.16,0,.44-.02.86-.06.22-.02.34-.03.34-.03.03,0,.05,0,.06,0,0,0,0,.02.01.06,0,.06,0,.13,0,.23,0,.11,0,.18,0,.23,0,.05,0,.13.02.22.01.1.02.17.02.22Z"/>
      <path class="cls-7" d="M453.89,248.54c0,.63-.17,1.17-.52,1.59-.35.44-.79.65-1.33.65s-.98-.22-1.33-.66c-.35-.43-.52-.96-.52-1.59s.17-1.16.52-1.59c.35-.44.8-.66,1.33-.66s.97.22,1.33.66c.35.44.52.97.52,1.59ZM452.9,248.53c0-.3-.08-.56-.24-.78-.16-.22-.38-.34-.63-.34s-.45.12-.62.35c-.16.22-.25.48-.25.77,0,.31.08.57.23.78.16.22.37.33.64.33.24,0,.45-.11.62-.34.16-.22.24-.47.24-.76Z"/>
      <path class="cls-7" d="M433,255.51c0,.41-.15.77-.44,1.06-.26.26-.58.42-.95.5-.01,0-.03,0-.03,0-.04,0-.13-.14-.26-.43-.14-.29-.2-.46-.2-.52,0-.02.01-.04.04-.04.25-.07.42-.12.5-.17.18-.11.27-.26.27-.47,0-.13-.06-.28-.18-.44-.2-.28-.31-.43-.33-.46-.12-.21-.18-.44-.18-.7,0-.37.15-.68.44-.93.24-.2.53-.34.88-.4.02,0,.03,0,.04,0,.03,0,.05.02.06.07.04.15.15.42.31.8,0,.01,0,.02,0,.03,0,.03-.02.05-.05.05-.01,0-.04,0-.07,0-.03,0-.06,0-.08,0-.12,0-.23.03-.33.1-.11.08-.17.19-.17.32,0,.12.06.28.19.46.22.33.33.5.34.51.12.22.18.45.18.67Z"/>
      <path class="cls-7" d="M435.95,253.57s-.02.06-.06.06c-.07,0-.33-.02-.78-.05,0,.51-.02.87-.02,1.08,0,.24,0,.6.03,1.08.02.48.02.84.02,1.08,0,.04,0,.06-.02.07,0,0-.03,0-.07.02-.1.02-.26.02-.46.02-.22,0-.38,0-.47-.02-.05,0-.07-.04-.07-.09,0-.24,0-.6.03-1.08.02-.48.03-.84.03-1.08,0-.16,0-.51-.02-1.06-.35.04-.62.06-.83.06-.03,0-.04-.01-.04-.03,0-.03.01-.1.04-.23.03-.14.04-.23.05-.26,0-.1.01-.19.02-.29.01-.15.03-.23.06-.23,0,0,.02,0,.04,0,.28.04.69.06,1.24.06.16,0,.44-.02.86-.06.22-.02.34-.03.34-.03.03,0,.05,0,.06,0,0,0,0,.02.01.06,0,.06,0,.13,0,.23,0,.11,0,.18,0,.23,0,.05,0,.13.02.22.01.1.02.17.02.22Z"/>
      <path class="cls-7" d="M439.83,254.78c0,.63-.17,1.17-.52,1.59-.35.43-.79.65-1.33.65s-.98-.22-1.33-.66c-.35-.43-.52-.96-.52-1.59s.17-1.16.52-1.59c.35-.44.8-.66,1.33-.66s.97.22,1.33.66c.35.44.52.97.52,1.59ZM438.85,254.77c0-.3-.08-.56-.24-.78-.16-.22-.38-.34-.63-.34s-.45.12-.62.35c-.16.22-.25.48-.25.77,0,.31.08.57.23.78.16.22.37.33.64.33.24,0,.45-.11.62-.34.16-.22.24-.47.24-.76Z"/>
      <path class="cls-7" d="M443.3,256.88s-.02.02-.05.03c-.07.01-.23.02-.5.02-.23,0-.38,0-.46-.02-.04,0-.06-.01-.07-.02,0,0-.02-.03-.04-.06-.03-.08-.06-.2-.11-.35-.07-.2-.17-.5-.32-.9-.03-.08-.1-.12-.22-.13.05,0-.04,0-.27,0-.03,0-.04.05-.04.16,0,.14.01.34.03.62s.03.48.03.62c0,.03,0,.05-.02.06-.02,0-.05,0-.07,0-.1,0-.26.01-.48.01-.25,0-.4,0-.45-.02s-.08-.04-.08-.09c0-.22,0-.56.03-1.01.02-.45.03-.79.03-1.01,0-.86-.02-1.53-.05-2.01v-.04s.02-.06.08-.07c.06-.01.32-.02.79-.04.32,0,.58-.01.76-.01.39,0,.72.1.96.31.28.24.42.58.42,1.02,0,.3-.04.53-.11.71s-.21.35-.4.52c-.04.03-.06.06-.06.09,0,0,.11.25.32.76.21.51.32.79.32.85ZM442.22,254.15c0-.25-.07-.42-.21-.52-.11-.07-.27-.11-.5-.11-.16,0-.25.03-.26.09-.01.07-.02.27-.02.6,0,.05,0,.12,0,.21,0,.09,0,.16,0,.2,0,.01.03.02.08.03.11.02.22.03.33.03.38,0,.57-.18.57-.53Z"/>
      <path class="cls-7" d="M447.02,256.83s-.02.06-.06.08c-.05.02-.21.02-.48.02-.25,0-.41,0-.48-.02-.06-.01-.1-.06-.11-.14-.06-.29-.1-.45-.14-.47-.03-.01-.26-.02-.69-.02-.29,0-.45,0-.47.03-.03.03-.06.14-.1.33-.03.17-.07.26-.12.27-.06.02-.26.02-.59.02-.26,0-.4-.03-.4-.09,0-.05.2-.7.59-1.95.42-1.35.65-2.09.69-2.22.02-.08.04-.12.07-.12.05,0,.12,0,.22.02.1,0,.17.02.22.02s.12,0,.21-.01.16-.01.2-.01c.03,0,.06.03.09.1.08.21.33.94.74,2.19.41,1.26.62,1.91.62,1.97ZM445.18,254.06c-.04.09-.1.28-.18.58-.09.32-.14.5-.14.56,0,.04.05.06.16.06.05,0,.14,0,.26,0,.11,0,.18-.02.19-.05,0-.01,0-.02,0-.04,0-.07-.04-.25-.12-.55-.08-.29-.13-.48-.17-.56Z"/>
      <path class="cls-7" d="M450.69,256.81c0,.05-.02.08-.07.08-.03,0-.13-.02-.28-.07-.16-.04-.25-.08-.29-.09-.36.17-.71.25-1.04.25-.53,0-.97-.21-1.31-.63-.34-.41-.51-.93-.51-1.56s.16-1.18.49-1.6c.34-.44.78-.66,1.32-.66.26,0,.51.06.74.18.25.13.45.31.59.55.03.05.04.08.04.1,0,.06-.08.21-.23.44-.15.23-.25.34-.3.34-.01,0-.05-.04-.12-.12-.08-.1-.17-.18-.26-.23-.13-.08-.28-.12-.44-.12-.26,0-.46.11-.62.34-.14.21-.21.47-.21.78,0,.33.07.59.22.79.15.2.37.3.64.3.18,0,.37-.05.59-.16,0-.07-.02-.24-.05-.51-.02-.21-.03-.38-.03-.51,0-.04.01-.06.03-.07,0,0,.02,0,.04,0,.05,0,.13,0,.23.02.1.01.18.02.23.02s.14,0,.25-.01c.11,0,.19-.01.25-.01.04,0,.07.03.07.1,0,.1,0,.24-.01.44,0,.2-.01.34-.01.44,0,.26.02.65.05,1.18v.03Z"/>
      <path class="cls-7" d="M453.71,255.96c0,.09-.01.25-.04.48-.03.25-.06.41-.08.45-.02.04-.05.06-.08.06-.02,0-.04,0-.08,0-.13-.02-.49-.03-1.1-.03-.13,0-.33,0-.59,0s-.46,0-.59,0c-.06,0-.08-.03-.08-.09,0-.23.01-.57.03-1.03.02-.46.03-.8.03-1.02s-.01-.66-.03-1.29c0-.16-.01-.41-.03-.73v-.04s.02-.07.06-.07c.13,0,.32,0,.58.01s.45.01.58.01.32,0,.57-.01.44-.01.57-.01c.09,0,.14.04.16.12,0,.05.02.19.04.43.02.24.03.38.03.43,0,.04-.02.06-.05.06-.01,0-.03,0-.05,0-.46-.04-.87-.07-1.24-.07-.09,0-.15.03-.17.08,0,.02-.01.1-.01.23s.02.23.05.27c.03.04.08.06.17.06.02,0,.05,0,.1,0,.05,0,.09,0,.12,0,.22,0,.44,0,.66-.02.02,0,.07,0,.14-.02.06,0,.11-.01.14-.01.04,0,.06.02.06.07,0-.04-.02.11-.05.47-.01.16-.02.33-.02.49,0,.04-.03.06-.08.06l-.23-.03c-.1-.01-.32-.02-.67-.02h-.27c-.07,0-.11.02-.12.06,0,0,0,.07,0,.19,0,.15,0,.25.03.3.03.08.14.12.33.14,0,0,.12,0,.38,0,.09,0,.23,0,.41-.03.18-.02.32-.03.41-.03.04,0,.06.04.06.11Z"/>
    </g>
    <text class="cls-9" transform="translate(377.97 221.9) scale(.85 1)"><tspan x="0" y="0">CIELA</tspan></text>
    <text class="cls-12" transform="translate(334.95 198.81) scale(.85 1)"><tspan x="0" y="0">PIZZA LAB</tspan></text>
    <g>
      <path class="cls-7" d="M442.39,205.83h.22l.65,1.1.64-1.1h.22v1.94h-.33v-1.1l-.48.81h-.11l-.48-.81v1.1h-.33v-1.94Z"/>
      <path class="cls-7" d="M444.39,206.8c0-.6.39-1.01.86-1.01.31,0,.57.17.71.4l-.22.25c-.11-.17-.28-.28-.47-.28-.3,0-.53.27-.53.63s.23.62.53.62c.2,0,.37-.11.48-.28l.23.24c-.15.23-.41.41-.73.41-.47,0-.85-.4-.85-.99Z"/>
      <path class="cls-7" d="M446.75,205.83h.65c.5,0,.8.38.8.97s-.3.97-.81.97h-.63v-1.94ZM447.4,207.39c.3,0,.45-.27.45-.6s-.15-.59-.45-.59h-.32v1.19h.32Z"/>
      <path class="cls-7" d="M448.38,206.8c0-.56.38-1.01.86-1.01s.86.45.86,1.01-.37,1-.87,1-.86-.44-.86-.99ZM449.76,206.8c0-.36-.23-.62-.52-.62s-.52.27-.52.62.23.62.52.62.52-.26.52-.62Z"/>
      <path class="cls-7" d="M451.78,205.83v1.94h-.23l-.86-1.19v1.19h-.33v-1.94h.21l.88,1.2v-1.2h.33Z"/>
      <path class="cls-7" d="M453.03,207.35h-.58l-.13.42h-.35l.63-1.94h.27l.62,1.94h-.35l-.12-.42ZM452.55,207h.39l-.19-.65-.2.65Z"/>
      <path class="cls-7" d="M453.7,205.83h.33v1.57h.84v.37h-1.18v-1.94Z"/>
      <path class="cls-7" d="M455.09,205.83h.65c.5,0,.8.38.8.97s-.3.97-.81.97h-.63v-1.94ZM455.74,207.39c.3,0,.45-.27.45-.6s-.15-.59-.45-.59h-.32v1.19h.32Z"/>
      <path class="cls-7" d="M456.65,207.44l.19-.27c.11.18.27.27.44.27.14,0,.24-.09.24-.21,0-.1-.07-.15-.15-.2-.11-.06-.24-.1-.36-.18-.15-.1-.26-.24-.26-.48,0-.32.23-.57.57-.57.19,0,.39.08.54.26l-.18.28c-.1-.12-.25-.18-.36-.18-.13,0-.21.08-.21.19,0,.1.07.15.13.19.09.05.25.12.37.19.16.09.28.24.28.48,0,.34-.24.59-.61.59-.25,0-.49-.12-.63-.36Z"/>
      <path class="cls-7" d="M444.76,210.07l.19-.27c.11.18.27.27.44.27.14,0,.24-.09.24-.21,0-.1-.07-.15-.15-.2-.11-.06-.24-.1-.36-.18-.15-.1-.26-.24-.26-.48,0-.32.23-.57.57-.57.19,0,.39.08.54.26l-.18.28c-.1-.12-.25-.18-.36-.18-.13,0-.21.08-.21.19,0,.1.07.15.13.19.09.05.25.12.37.19.16.09.28.24.28.48,0,.34-.24.59-.61.59-.25,0-.49-.12-.63-.36Z"/>
      <path class="cls-7" d="M446.07,208.83v-.38h1.28v.38h-.47v1.56h-.34v-1.56h-.47Z"/>
      <path class="cls-7" d="M447.41,209.43c0-.56.38-1.01.86-1.01s.86.45.86,1.01-.37,1-.87,1-.86-.44-.86-1ZM448.79,209.43c0-.36-.23-.62-.52-.62s-.52.27-.52.62.23.62.52.62.52-.26.52-.62Z"/>
      <path class="cls-7" d="M449.93,209.69h-.2v.71h-.33v-1.94h.63c.39,0,.57.29.57.61,0,.23-.1.47-.34.57l.4.76h-.39l-.35-.71ZM449.74,209.34h.27c.19,0,.26-.13.26-.27s-.08-.26-.23-.26h-.3v.52Z"/>
      <path class="cls-7" d="M451.8,209.98h-.58l-.13.42h-.35l.63-1.94h.27l.62,1.94h-.35l-.12-.42ZM451.32,209.63h.39l-.19-.65-.2.65Z"/>
      <path class="cls-7" d="M452.31,209.43c0-.59.39-1.01.88-1.01.28,0,.52.14.67.31l-.22.28c-.12-.13-.28-.22-.45-.22-.31,0-.54.27-.54.63s.22.63.53.63c.18,0,.34-.09.44-.21v-.27h-.46v-.34h.76v.8c-.2.25-.46.39-.76.39-.5,0-.86-.42-.86-1Z"/>
      <path class="cls-7" d="M454.22,208.46h1.12v.36h-.79v.42h.73v.36h-.73v.44h.79v.36h-1.12v-1.94Z"/>
    </g>
    <g>
      <path class="cls-7" d="M255.59,51.18c0,1.13-.26,2.04-.78,2.74-.56.74-1.32,1.11-2.3,1.11-.16,0-.41-.01-.74-.03-.33-.02-.58-.03-.74-.03-.18,0-.26.09-.26.26,0,.21.02.53.06.96s.06.74.06.95c0,.11-.04.16-.13.16-.25,0-.62,0-1.12-.02-.5-.02-.87-.02-1.12-.02-.12,0-.18-.07-.18-.2,0-.52,0-1.29.02-2.33.01-1.04.02-1.81.02-2.33,0-1.46-.06-3-.17-4.61v-.1c-.01-.09.05-.14.18-.16.32-.05,1.02-.07,2.11-.07.64,0,1.26,0,1.84.03.97.03,1.75.38,2.34,1.04.6.68.91,1.57.91,2.67ZM253.14,51.29c0-1.08-.46-1.63-1.39-1.63-.65,0-1,.04-1.03.13-.03.06-.04.6-.04,1.61,0,.14,0,.36.02.64.01.28.02.49.02.64,0,.09.37.14,1.1.14.89,0,1.33-.51,1.33-1.53Z"/>
      <path class="cls-7" d="M263.74,53.81c0,1.19-.12,2-.37,2.43-.46.79-1.6,1.19-3.42,1.19-.83,0-1.46-.07-1.91-.22-.71-.23-1.17-.68-1.38-1.33-.11-.32-.16-.89-.16-1.72,0-.19,0-.47.02-.85s.02-.66.02-.84c0-.54-.02-1.35-.07-2.43-.05-1.08-.07-1.89-.07-2.42,0-.11.04-.17.13-.17.25,0,.63.01,1.13.03s.88.04,1.13.04c.1,0,.15.05.15.15,0,.61-.02,1.53-.05,2.76-.04,1.23-.05,2.15-.05,2.76,0,.73.07,1.22.2,1.48.18.35.56.52,1.13.52.84,0,1.26-.46,1.26-1.39,0-.67-.01-1.69-.04-3.04-.03-1.35-.04-2.36-.04-3.04,0-.14.05-.22.15-.22.24,0,.6-.01,1.09-.04.49-.02.85-.03,1.09-.03.12,0,.18.06.18.17,0,.54-.02,1.34-.06,2.42-.04,1.08-.06,1.89-.06,2.43,0,.15,0,.37,0,.67,0,.3,0,.52,0,.67Z"/>
      <path class="cls-7" d="M270.58,57.35c-.35,0-.81,0-1.37-.03-.74-.02-1.19-.03-1.37-.04l-1.83-.03c-.18,0-.45,0-.79-.03-.12-.02-.18-.1-.18-.22,0-.51,0-1.27.02-2.28.01-1.01.02-1.77.02-2.28,0-.54-.01-1.35-.04-2.43-.03-1.08-.04-1.89-.04-2.43,0-.1.06-.15.18-.15s.31,0,.55.02c.24.01.42.02.54.02.13,0,.33,0,.6-.02s.47-.02.6-.02c.06,0,.09.04.09.13v.09c-.06.88-.11,2.19-.17,3.94v1.84c0,.6,0,1.03,0,1.31,0,.06,0,.11.01.17,0,.06.03.09.09.1h.16c.37,0,.92-.02,1.65-.07.73-.04,1.28-.07,1.65-.07.11,0,.17.05.17.16,0,.8-.05,1.48-.15,2.06-.02.12-.06.19-.13.22-.02,0-.1.01-.25.01Z"/>
      <path class="cls-7" d="M275.99,54.02c0,.94-.35,1.75-1.05,2.43-.61.6-1.36.97-2.24,1.14-.03,0-.06,0-.08,0-.09,0-.3-.33-.62-.98s-.48-1.05-.48-1.2c0-.05.03-.08.09-.1.59-.15.98-.28,1.18-.39.42-.24.64-.6.64-1.08,0-.3-.14-.64-.42-1.01-.48-.63-.74-.98-.78-1.05-.28-.48-.42-1.02-.42-1.61,0-.85.35-1.56,1.04-2.12.56-.47,1.26-.77,2.08-.91.04,0,.08,0,.1,0,.06,0,.11.06.15.17.11.34.35.95.74,1.84.01.03.02.05.02.07,0,.08-.04.12-.11.12-.03,0-.09,0-.17-.02-.08-.01-.14-.02-.18-.02-.29,0-.55.08-.77.23-.27.18-.4.42-.4.74,0,.28.15.63.44,1.05.52.74.79,1.14.81,1.17.29.51.44,1.02.44,1.53Z"/>
      <path class="cls-7" d="M283.28,55.06c0,.2-.04.57-.1,1.1-.07.58-.14.93-.2,1.04-.05.09-.12.13-.2.13-.04,0-.1,0-.18-.02-.3-.05-1.17-.07-2.61-.07-.31,0-.78,0-1.4,0-.62,0-1.09,0-1.4,0-.13,0-.2-.07-.2-.2,0-.52.03-1.3.08-2.35.05-1.04.08-1.83.08-2.35s-.02-1.52-.07-2.97c-.01-.37-.03-.93-.07-1.67v-.1c-.01-.11.04-.16.15-.16.3,0,.76,0,1.36.03s1.06.03,1.36.03.75,0,1.35-.03c.6-.02,1.05-.03,1.35-.03.21,0,.33.09.37.27.02.11.05.43.1.97s.06.87.06.99c0,.1-.04.15-.12.15-.02,0-.07,0-.13,0-1.09-.1-2.06-.15-2.93-.15-.22,0-.35.06-.4.17-.02.06-.03.23-.03.54s.04.53.12.63c.07.09.2.13.4.13.04,0,.12,0,.24-.01.12,0,.22-.01.29-.01.51,0,1.04-.02,1.56-.05.04,0,.16-.02.34-.04.14-.02.25-.03.33-.03.1,0,.15.05.15.16,0-.1-.04.26-.11,1.07-.03.37-.05.74-.05,1.12,0,.09-.06.14-.18.14l-.55-.07c-.23-.03-.76-.04-1.59-.04h-.65c-.17,0-.27.05-.29.14,0,.02,0,.17,0,.43,0,.35.02.58.06.68.07.18.33.28.78.31,0,0,.29,0,.89,0,.22,0,.54-.02.96-.07.43-.04.75-.07.96-.07.09,0,.14.08.14.25Z"/>
      <path class="cls-7" d="M250.39,66.87c0,.05-.04.08-.12.08-.31,0-.77-.03-1.39-.09-.62-.06-1.09-.09-1.4-.09-.39,0-.62.02-.69.05-.15.08-.23.3-.23.67,0,.44.1.69.29.75.08.02.21.04.37.04.28,0,.7-.02,1.26-.05.56-.04.98-.05,1.27-.05.13,0,.2.41.2,1.23,0,.71-.02,1.13-.07,1.24-.03.08-.08.13-.17.13.05,0-.08-.02-.39-.05-.44-.05-1.1-.07-1.98-.07-.29,0-.45,0-.48,0-.21.04-.31.14-.31.3,0,.66.02,1.42.07,2.28.04.78.06,1.12.06,1.04,0,.12-.13.19-.39.21.07,0-.11,0-.55,0-.76,0-1.26-.03-1.48-.09-.12-.03-.18-.1-.18-.22,0-.52.02-1.29.05-2.33.03-1.04.05-1.81.05-2.33,0-.61-.02-1.39-.07-2.32-.07-1.44-.11-2.21-.12-2.32v-.08c-.01-.12.05-.17.18-.17.3,0,.76,0,1.37.02.61.01,1.07.02,1.38.02.33,0,.82-.03,1.47-.08.66-.06,1.15-.08,1.47-.08.2,0,.32.1.34.29,0,.2,0,.5.02.9,0,.1.03.3.08.59.04.26.06.45.06.59Z"/>
      <path class="cls-7" d="M253.6,69.23c0,.55.01,1.38.04,2.48.02,1.1.04,1.93.04,2.48,0,.09-.02.15-.06.17,0,0-.06.01-.16.03-.27.04-.62.06-1.07.06-.6,0-.98-.02-1.14-.06-.12-.03-.18-.1-.18-.22,0,.07.02-.33.06-1.23.07-1.88.11-3.12.11-3.71,0-.5-.01-1.24-.04-2.24-.03-1-.04-1.74-.04-2.24,0-.1.05-.15.14-.15.13,0,.32,0,.57.02.25.01.45.02.57.02s.31,0,.56-.02c.25-.01.43-.02.56-.02.12,0,.18.05.18.15,0,.5-.02,1.24-.07,2.24-.05,1-.07,1.74-.07,2.24Z"/>
      <path class="cls-7" d="M260.81,66.73c0,.09-.04.14-.13.14-.16,0-.77-.04-1.84-.1-.02,1.18-.04,2-.04,2.46,0,.55.02,1.38.06,2.48.04,1.1.06,1.93.06,2.48,0,.09-.02.14-.06.17-.01,0-.07.02-.17.03-.25.04-.6.06-1.08.06-.53,0-.9-.02-1.11-.06-.11-.02-.17-.1-.17-.22,0-.55.02-1.37.06-2.47.04-1.1.06-1.92.06-2.47,0-.36-.02-1.17-.05-2.43-.82.09-1.47.14-1.95.14-.07,0-.1-.02-.1-.07,0-.06.03-.24.09-.54.06-.33.1-.52.11-.59.01-.22.03-.44.04-.66.03-.35.08-.52.15-.52,0,0,.04,0,.09,0,.66.1,1.64.15,2.93.15.37,0,1.05-.04,2.03-.13.53-.05.8-.07.8-.07.08,0,.13,0,.14.02s.02.06.02.14c0,.13,0,.3-.01.52,0,.25-.01.42-.01.52,0,.12.01.29.04.51.03.23.04.39.04.51Z"/>
      <path class="cls-7" d="M269.67,64.81c0,.53-.02,1.33-.06,2.39-.04,1.06-.06,1.86-.06,2.4v4.6c0,.13-.06.19-.18.19-.1,0-.25,0-.44.01-.2,0-.35.01-.44.01-.11,0-.27,0-.48-.03s-.37-.03-.48-.03c-.07,0-.16-.08-.26-.23-.29-.45-.96-1.45-1.98-3-.28-.43-.71-1.07-1.29-1.91-.02-.03-.05-.06-.09-.08-.03.03-.05.08-.05.15,0,.54.01,1.35.04,2.43.03,1.08.04,1.89.04,2.43,0,.16-.06.24-.17.24h-2.12c-.12,0-.18-.07-.18-.22,0-.5.02-1.26.06-2.28.04-1.01.06-1.78.06-2.28,0-.53-.02-1.34-.06-2.4-.04-1.07-.06-1.86-.06-2.39,0-.1.08-.15.24-.15.24,0,.53-.02.88-.06.08,0,.24-.04.48-.09.2-.04.37-.06.48-.06.05,0,.12.08.23.24l2.29,3.57c.2.32.51.79.92,1.41.1.14.19.22.26.22.05,0,.08-.18.08-.54,0-.49-.02-1.22-.07-2.21-.05-.98-.07-1.72-.07-2.21,0-.17.04-.26.13-.26.25,0,.61-.01,1.11-.04s.86-.03,1.11-.03c.08,0,.12.07.12.22Z"/>
      <path class="cls-7" d="M277.08,72.22c0,.2-.04.57-.1,1.1-.07.58-.14.93-.2,1.04-.05.09-.12.13-.2.13-.04,0-.1,0-.18-.02-.3-.05-1.17-.07-2.61-.07-.31,0-.78,0-1.4,0-.62,0-1.09,0-1.4,0-.13,0-.2-.07-.2-.2,0-.52.03-1.3.08-2.35.05-1.04.08-1.83.08-2.35s-.02-1.52-.07-2.97c-.01-.37-.03-.93-.07-1.67v-.1c-.01-.11.04-.16.15-.16.3,0,.76,0,1.36.03s1.06.03,1.36.03.75,0,1.35-.03c.6-.02,1.05-.03,1.35-.03.21,0,.33.09.37.27.02.11.05.43.1.97s.06.87.06.99c0,.1-.04.15-.12.15-.02,0-.07,0-.13,0-1.09-.1-2.06-.15-2.93-.15-.22,0-.35.06-.4.17-.02.06-.03.23-.03.54s.04.53.12.63c.07.09.2.13.4.13.04,0,.12,0,.24-.01.12,0,.22-.01.29-.01.51,0,1.04-.02,1.56-.05.04,0,.16-.02.34-.04.14-.02.25-.03.33-.03.1,0,.15.05.15.16,0-.1-.04.26-.11,1.07-.03.37-.05.74-.05,1.12,0,.09-.06.14-.18.14l-.55-.07c-.23-.03-.76-.04-1.59-.04h-.65c-.17,0-.27.05-.29.14,0,.02,0,.17,0,.43,0,.35.02.58.06.68.07.18.33.28.78.31,0,0,.29,0,.89,0,.22,0,.54-.02.96-.07.43-.04.75-.07.96-.07.09,0,.14.08.14.25Z"/>
      <path class="cls-7" d="M282.07,71.18c0,.94-.35,1.75-1.05,2.43-.61.6-1.36.97-2.24,1.14-.03,0-.06,0-.08,0-.09,0-.3-.33-.62-.98s-.48-1.05-.48-1.2c0-.05.03-.08.09-.1.59-.15.98-.28,1.18-.39.42-.24.64-.6.64-1.08,0-.3-.14-.64-.42-1.01-.48-.63-.74-.98-.78-1.05-.28-.48-.42-1.02-.42-1.61,0-.85.35-1.56,1.04-2.12.56-.47,1.26-.77,2.08-.91.04,0,.08,0,.1,0,.06,0,.11.06.15.17.11.34.35.95.74,1.84.01.03.02.05.02.07,0,.08-.04.12-.11.12-.03,0-.09,0-.17-.02-.08-.01-.14-.02-.18-.02-.29,0-.55.08-.77.23-.27.18-.4.42-.4.74,0,.28.15.63.44,1.05.52.74.79,1.14.81,1.17.29.51.44,1.02.44,1.53Z"/>
      <path class="cls-7" d="M287.27,71.18c0,.94-.35,1.75-1.05,2.43-.61.6-1.36.97-2.24,1.14-.03,0-.06,0-.08,0-.09,0-.3-.33-.62-.98s-.48-1.05-.48-1.2c0-.05.03-.08.09-.1.59-.15.98-.28,1.18-.39.42-.24.64-.6.64-1.08,0-.3-.14-.64-.42-1.01-.48-.63-.74-.98-.78-1.05-.28-.48-.42-1.02-.42-1.61,0-.85.35-1.56,1.04-2.12.56-.47,1.26-.77,2.08-.91.04,0,.08,0,.1,0,.06,0,.11.06.15.17.11.34.35.95.74,1.84.01.03.02.05.02.07,0,.08-.04.12-.11.12-.03,0-.09,0-.17-.02-.08-.01-.14-.02-.18-.02-.29,0-.55.08-.77.23-.27.18-.4.42-.4.74,0,.28.15.63.44,1.05.52.74.79,1.14.81,1.17.29.51.44,1.02.44,1.53Z"/>
    </g>
    <g>
      <path class="cls-7" d="M174.82,292.01h1.57s0-1.49,0-1.49h-1.75s-.05,0-.07,0c-.62,0-1.12.76-1.12,1.69,0,.69.28,1.28.67,1.55l1.12.84c.26.2.22.56-.08.56h-1.6s0-.74,0-.74l-.66.74-.66.74.67.74.67.74v-.75s1.9.03,1.9.03c.62,0,1.12-.76,1.12-1.69,0-.48-.06-.99-.35-1.29l-1.45-1.14c-.12-.09-.1-.52.03-.52h0ZM180.12,290.53v3.95c0,.7-.15,1.25-.46,1.67-.31.42-.73.63-1.25.63s-.91-.2-1.19-.6c-.27-.4-.41-.99-.41-1.74v-3.89s1.2,0,1.2,0v4.08c0,.37.21.68.45.67h0c.25,0,.45-.31.45-.68v-4.08s1.2,0,1.2,0h0ZM182.71,296.6c.62,0,1.12-.76,1.12-1.69,0-.64-.24-1.19-.58-1.48.27-.29.44-.77.44-1.31,0-.85-.44-1.54-.99-1.59v-.02s-2.24,0-2.24,0v6.09s2.25,0,2.25,0h0ZM181.66,294.09h.58c.23,0,.42.28.42.63h0c0,.33-.18.59-.39.59h-.61s0-1.23,0-1.23h0ZM181.66,291.86h.49c.19,0,.35.24.35.53h0c0,.27-.15.5-.33.5h-.51s0-1.03,0-1.03h0Z"/>
      <path class="cls-11" d="M196.33,291.92v1.25c0,.87-.45,1.59-1.02,1.64v1.78s-1.3,0-1.3,0v-1.79c-.55-.07-.99-.78-.99-1.63v-2.72s1.18,0,1.18,0v2.43c0,.32.18.58.39.57h.17c.21,0,.38-.26.38-.58v-1.29s0,0,0,0c0,0,0-.02,0-.03,0-.62.33-1.12.74-1.12h0s0,0,0,0h0s0,0,0,0h0s0,0,0,0h0s0,0,0,0h0s0,0,0,0h0s.14,0,.14,0h.3s.58,0,.58,0v-.75s.66.74.66.74l.67.74-.66.74-.66.74v-.75s-.58,0-.58,0h0ZM190.6,296.59h-1.21s0-3.87,0-3.87c0-.75.15-1.33.46-1.74.31-.41.74-.62,1.29-.63s.93.18,1.19.56c.26.37.39.95.39,1.74v3.93s-1.21,0-1.21,0v-1.78s-.91,0-.91,0v1.78h0ZM191.5,293.49v-1.02c0-.38-.21-.68-.45-.68h0c-.25,0-.45.31-.45.68v1.02s.9,0,.9,0h0ZM189.08,290.51v4.38c0,.55-.12,1-.37,1.34-.26.35-.59.52-.99.52-.03,0-.05,0-.08,0-.22.02-.69.03-1.04-.45-.34.52-.81.47-.99.46-.06,0-.13,0-.2,0-.42,0-.75-.17-.98-.52-.23-.34-.34-.84-.34-1.49v-4.23s1.19,0,1.19,0v4.16c0,.3.17.54.36.54h0c.2,0,.36-.24.36-.54v-4.16s1.14,0,1.14,0v4.16c0,.3.17.54.36.54h0c.2,0,.36-.24.36-.54v-4.16s1.22,0,1.22,0h0ZM195.87,295.68c.05,0,.1.02.15.06.05.04.09.1.11.17.03.07.04.15.04.23s-.01.15-.04.23c-.03.07-.06.13-.11.17-.05.04-.1.06-.15.06s-.1-.02-.15-.06c-.05-.04-.09-.1-.11-.17-.03-.07-.04-.15-.04-.23s.01-.16.04-.23c.03-.07.06-.13.11-.17.05-.04.1-.06.15-.06h0ZM195.87,295.76s-.08.02-.12.05c-.04.03-.07.08-.09.14-.02.06-.03.12-.03.19s.01.13.03.19c.02.06.05.11.09.14.04.03.08.05.13.05s.08-.02.12-.05c.04-.03.07-.08.09-.14.02-.06.03-.12.03-.19s-.01-.13-.03-.19c-.02-.06-.05-.11-.09-.14-.04-.03-.08-.05-.12-.05h0ZM195.74,296.39v-.49s.11,0,.11,0c.04,0,.07,0,.08.01.02,0,.03.02.04.05.01.02.02.05.02.07,0,.04,0,.07-.03.09-.02.03-.04.04-.07.04.01,0,.02.02.03.03.01.02.03.05.05.1l.04.1h-.06s-.03-.08-.03-.08c-.02-.06-.04-.1-.06-.11,0-.01-.02-.02-.04-.02h-.03s0,.21,0,.21h-.05ZM195.79,296.11h.06s.05,0,.06-.02c.01-.01.02-.03.02-.05,0-.01,0-.03,0-.04,0-.01-.01-.02-.02-.03,0,0-.03,0-.05,0h-.06s0,.15,0,.15h0Z"/>
    </g>
    <text class="cls-8" transform="translate(178.11 320.12) scale(.58 1)"><tspan x="0" y="0">OLA</tspan></text>
    <path class="cls-15" d="M255.31,299.15c-.27.04-1.3.29-2.29.54-7.19,1.88-13.02,7.71-15.07,15.05-.62,2.23-.85,6.64-.47,9.03,1.05,6.55,5.19,12.38,11.04,15.5,2.42,1.3,6.78,2.65,6.78,2.11s-2.36-12.88-2.56-13.36c-.12-.29-1.07-1.34-2.13-2.32-2.19-2.01-2.73-2.81-3.16-4.63-.35-1.53-2.03-11.95-2.03-12.63,0-.5.66-.89.99-.56.1.1.77,2.83,1.49,6.08,1.22,5.48,1.34,5.89,1.74,5.95.23.04.47-.06.52-.19.06-.14-.5-2.91-1.24-6.16-.74-3.25-1.3-5.97-1.24-6.06.04-.08.31-.14.6-.14h.54l1.34,6.04c1.38,6.18,1.49,6.45,2.23,5.98.23-.16.08-1.08-1.05-6.1-.74-3.25-1.28-6.06-1.2-6.22.06-.16.31-.29.56-.29.43,0,.5.17,1.3,3.72,1.98,8.87,1.84,8.39,2.29,8.44.23.04.47-.06.52-.19.06-.14-.5-2.91-1.24-6.16-1.22-5.38-1.3-5.93-1.03-6.16.74-.56.85-.27,2.79,6.45,1.8,6.2,1.9,6.66,1.82,8.04-.06,1.2-.21,1.8-.97,3.49-.62,1.43-.89,2.3-.89,2.91,0,1.03,3.58,13.62,3.76,13.17.06-.16.5-2.19.99-4.49l.89-4.2-.33-.99c-.35-1.08-.33-2,.23-7.36.37-3.68,1.01-6.78,2.21-10.79,1.28-4.26,2.56-6.86,4.15-8.48,2.01-2.05,3.21-1.88,3.21.46,0,1.63-4.75,26.28-5.25,27.23-.25.48-.64,2.19-1.07,4.65-.37,2.13-.72,4.11-.77,4.4l-.1.52,1.03-.29c4.11-1.18,7.21-3.04,10.07-6.04,3.83-4.01,5.79-8.93,5.81-14.57.02-6.02-2.13-11.25-6.35-15.42-2.96-2.94-6.93-5.02-11.08-5.81-1.32-.25-6.18-.35-7.4-.14h0ZM255.31,299.15"/>
    <path class="cls-15" d="M29.85,373.04c0-1.24-1.01-2.24-2.25-2.24h-14.66c-1.24,0-2.25,1-2.25,2.24v14.66c0,1.24,1.01,2.24,2.25,2.24h14.66c1.24,0,2.25-1,2.25-2.24v-14.66ZM24.45,373.63c.62,0,1.12.5,1.12,1.12s-.5,1.12-1.12,1.12-1.12-.5-1.12-1.12.5-1.12,1.12-1.12ZM15.81,373.63c.62,0,1.12.5,1.12,1.12s-.5,1.12-1.12,1.12-1.12-.5-1.12-1.12.5-1.12,1.12-1.12ZM18.04,376.84l-.31,3.75c-.02.24-.17.44-.4.52h0c-.22.09-.38.3-.39.54l-.29,4.86c-.02.33-.29.58-.62.58h-.42c-.33,0-.6-.26-.62-.58l-.29-4.86c-.01-.24-.17-.46-.39-.54-.23-.08-.38-.29-.4-.53l-.31-3.75c-.02-.31.18-.59.49-.66l.31-.07c.21-.05.42.01.57.16l.43.43c.24.24.64.24.88,0l.43-.43c.15-.15.37-.21.57-.16l.31.07c.27.07.48.36.46.66ZM20.42,387.09c0,.16-.14.3-.3.3s-.3-.13-.3-.3v-13.46c0-.17.14-.3.3-.3s.3.13.3.3v13.46ZM26.64,381.11c-.21.05-.35.26-.32.47l.13.96c.03.23-.13.44-.35.47l-.28.03c-.19.03-.34.2-.35.39l-.19,3.08c-.02.33-.29.58-.62.58h-.42c-.33,0-.6-.25-.62-.58l-.19-3.08c-.01-.2-.16-.36-.35-.39l-.29-.03c-.22-.03-.39-.25-.35-.47l.13-.96c.03-.21-.1-.41-.31-.47-.22-.05-.35-.27-.3-.49l.84-4.01c.06-.28.39-.43.63-.26l.8.51c.13.09.31.09.46,0l.79-.51c.25-.16.57-.02.64.26l.85,4.01c.04.22-.1.43-.31.49Z"/>
    <text class="cls-10" transform="translate(314.97 380.15) scale(.85 1)"><tspan x="0" y="0">SKARRA</tspan></text>
    <text class="cls-13" transform="translate(312.79 401.99) scale(.85 1)"><tspan x="0" y="0">ALADIN</tspan></text>
    <text class="cls-14" transform="translate(326.11 329.43) scale(.85 1)"><tspan x="0" y="0">BMS</tspan></text>
    <text class="cls-8" transform="translate(154.83 352.54) scale(.58 1)"><tspan x="0" y="0">BURGER KING</tspan></text>
  </g>
  <polygon id="Galleria_Burgas2.000" data-name="Galleria Burgas2.000" class="cls-2" points="36.23 15.65 36.23 107.04 6.26 107.04 6.26 271.04 36.23 271.04 36.23 326.05 169.93 326.05 169.93 247.78 141.33 247.78 141.33 159.97 158.33 159.97 158.33 15.65 36.23 15.65"/>
  <rect id="Galleria_BurgasFC2_S2.4_S2.6" data-name="Galleria BurgasFC2^S2.4^S2.6" class="cls-2" x="171.83" y="307.41" width="25.44" height="18.64"/>
  <rect id="Galleria_BurgasFC1" data-name="Galleria BurgasFC1" class="cls-2" x="171.83" y="270.51" width="25.44" height="35.42"/>
  <polygon id="Galleria_BurgasFC8_S2.3_S2.5" data-name="Galleria BurgasFC8^S2.3^S2.5" class="cls-2" points="348.68 417.3 301.59 417.3 296.62 442.67 348.68 451.19 348.68 417.3"/>
  <polygon id="Galleria_BurgasFC3_WAD_25" data-name="Galleria BurgasFC3^WAD_25" class="cls-2" points="348.68 415.7 348.68 404.79 358.28 404.79 358.28 385.3 307.19 385.3 301.99 415.7 348.68 415.7"/>
  <polygon id="Galleria_BurgasFC6" data-name="Galleria BurgasFC6" class="cls-2" points="358.28 383.76 307.65 383.76 310.45 366.56 340.85 366.56 340.85 373.07 358.28 373.07 358.28 383.76"/>
  <polygon id="Galleria_BurgasFC7_NAD_45" data-name="Galleria BurgasFC7^NAD_45" class="cls-2" points="358.28 371.64 358.28 340.04 314.62 340.04 310.79 364.96 342.1 364.96 342.1 371.64 358.28 371.64"/>
  <polygon id="Galleria_BurgasFC5" data-name="Galleria BurgasFC5" class="cls-2" points="358.28 338.56 314.9 338.56 319.08 308.56 358.96 308.56 358.96 311.85 358.28 311.85 358.28 338.56"/>
  <polygon id="Galleria_Burgas2.016" data-name="Galleria Burgas2.016" class="cls-2" points="426.68 240.21 426.68 311.85 360.45 311.85 360.45 307.19 319.3 307.19 323.48 273.36 371.25 273.36 371.25 240.21 426.68 240.21"/>
  <polygon id="Galleria_Burgas2.014_SA2.1B" data-name="Galleria Burgas2.014^SA2.1B" class="cls-2" points="369.59 240.21 369.59 272.04 323.59 272.04 326.85 240.21 369.59 240.21"/>
  <polygon id="Galleria_Burgas2.012" data-name="Galleria Burgas2.012" class="cls-2" points="440.33 238.5 327.25 238.5 329.65 207.83 371.19 207.83 371.19 190.5 382.22 190.5 382.22 183.07 440.33 183.07 440.33 238.5"/>
  <polygon id="Galleria_Burgas2.010" data-name="Galleria Burgas2.010" class="cls-2" points="369.59 190.44 369.59 206.27 329.76 206.27 331.7 172.04 358.33 172.04 358.33 183.07 358.96 183.07 358.96 190.5 369.59 190.44"/>
  <path id="Galleria_Burgas2.002_NAD_11" data-name="Galleria Burgas2.002^NAD_11" class="cls-2" d="M170.79,6.1v143.23h39.38v-21.32c2.01-12.25,8.7-13.26,16.06-15.71h57.32c31.58,1,28.57,48.19,28.57,48.19h46.18V38.56h-51.87V6.1h-135.64Z"/>
  <polygon id="Galleria_Burgas2.018_NAD_10_S2.6" data-name="Galleria Burgas2.018^NAD_10^S2.6" class="cls-4" points="37.08 338.59 37.08 501.96 162.11 486.89 163.15 487.19 204.33 481.82 204.33 361.27 143.9 361.27 143.9 338.59 37.08 338.59"/>
  <rect id="Galleria_BurgasNFC3" data-name="Galleria BurgasNFC3" class="cls-4" x="145.84" y="338.59" width="58.49" height="20.59"/>
</svg>