<?xml version="1.0" encoding="utf-8"?>
<!-- Generator: Adobe Illustrator 25.4.1, SVG Export Plug-In . SVG Version: 6.00 Build 0)  -->
<svg version="1.0" id="Layer_4" xmlns="http://www.w3.org/2000/svg" xmlns:xlink="http://www.w3.org/1999/xlink" x="0px" y="0px"
	 viewBox="0 0 826.9 776.9" style="enable-background:new 0 0 826.9 776.9;" xml:space="preserve">
<style type="text/css">
	.st0{fill:#F1F2F2;}
	.st1{fill:none;stroke:#000000;stroke-width:2;stroke-miterlimit:10;}
	.st2{fill:none;stroke:#000000;stroke-miterlimit:10;}
	.st3{fill:#FFFFFF;stroke:#000000;stroke-miterlimit:10;}
	.st4{fill-rule:evenodd;clip-rule:evenodd;}
	.st5{fill:#F47725;}
	.st6{fill:#231F20;}
</style>
<g id="cladire">
	<g>
		<path class="st0" d="M812,765.8c-19.3-6.5-37.5-12.4-55-18.2c-14.9-4.9-30.3-10-46.6-15.4c-25.5-8.5-53.6-18.3-75.1-26.3
			c-77.5-28.7-152.6-61.6-223-97.8c-124.6-64-236.6-137.3-332.8-217.7c-0.9-0.7-2.8-2.3-5.4-4.4c-8.8-7.1-25-20.4-39.1-32.4
			c-7.9-6.8-14-12.2-18.1-16.3c-6.3-6.1-9.9-10.1-7.6-14.4C9.5,322.4,178.1,6.1,178.1,6.1h640.5V768L812,765.8z"/>
		<path class="st0" d="M813.6,11.1v750c-35.6-11.9-66-21.7-101.6-33.6c-23.3-7.7-51.9-17.7-75-26.2c-76-28.1-150.4-60.6-222.5-97.6
			c-117.5-60.4-230.5-132.4-331.9-217c-6.5-5.4-71.3-57.2-69.1-61.3c0,0,167.5-314.3,167.5-314.3H813.6 M823.6,1.1h-10H181.1h-6
			l-2.8,5.3C170.6,9.5,5.1,320,4.8,320.6c-2.3,4.3-1.4,9,2.5,13.9c1.4,1.7,3.4,3.8,6,6.4c4.2,4.1,10.4,9.7,18.4,16.5
			c14.1,12.1,30.4,25.4,39.2,32.5c2.6,2.2,4.6,3.7,5.4,4.4c96.5,80.6,208.8,154.1,333.8,218.3c70.6,36.3,145.8,69.3,223.6,98.1
			c21.6,8,49.7,17.8,75.3,26.3c16.3,5.4,31.7,10.5,46.6,15.4c17.5,5.8,35.7,11.7,55,18.2l13.2,4.4v-13.9v-750V1.1L823.6,1.1z"/>
		<path class="st1" d="M637.1,701.3c23,8.5,51.7,18.5,75,26.2c35.7,11.9,66,21.7,101.6,33.6v-750H181.1c0,0-167.5,314.3-167.5,314.3
			c-2.2,4.1,62.6,55.9,69.1,61.3c101.4,84.7,214.4,156.7,331.9,217C486.6,640.7,561.1,673.1,637.1,701.3z"/>
	</g>
</g>
<g id="magazine">
	<polyline class="st2" points="813.6,264.9 706,264.9 706,249.2 	"/>
	<polyline class="st2" points="636.1,249.2 739.3,249.2 739.3,234.9 699.5,234.9 699.5,204.9 636.8,204.9 636.8,702 	"/>
	<polyline class="st2" points="149.3,70.8 178.6,85.8 178.8,97.6 172.9,110.3 137.8,92.2 	"/>
	<polyline class="st2" points="636.2,11.1 636.2,92.9 571.6,92.9 571.6,11.1 	"/>
	<line class="st2" x1="739.3" y1="187.8" x2="813.6" y2="187.8"/>
	<polyline class="st2" points="178.8,98.8 387.1,98.8 387.1,11.1 	"/>
	<polyline class="st2" points="813.6,117.3 754.8,117.3 754.8,124.5 739.3,124.5 739.3,187.8 633.9,187.8 633.9,179.3 544,100.4 
		404.7,100.4 404.7,60.2 465.3,60.2 465.3,11.1 	"/>
	<polyline class="st2" points="32.8,289.4 80.1,290 114.4,316.4 123.6,304.6 220.7,116.4 187.5,116.4 151.4,186.5 123.5,171.8 
		115.4,187.6 94.5,177.1 	"/>
	<path class="st2" d="M130.9,320.3l-27.2,35.8l11.3,8.6l-19.1,26.4c66.4,48.5,133.9,93.2,202.6,133.6l-0.9,2.6l16.6,9.6l9.4-17.3
		l14,7.2l8.6-15.8l62.2,33.7l20.5-38.5C321.8,447.1,222.1,385.3,130.9,320.3z"/>
	<line class="st2" x1="191.5" y1="362.3" x2="146.2" y2="427.5"/>
	<line class="st2" x1="218.2" y1="379.9" x2="174.3" y2="446.3"/>
	<line class="st2" x1="241.3" y1="394.9" x2="197.6" y2="461.9"/>
	<polyline class="st2" points="262.4,408.3 233.5,452.8 221.5,445.1 207.1,468.1 	"/>
	<polyline class="st2" points="293.4,427.5 265.9,473 280.9,481.9 266.4,505.6 	"/>
	<line class="st2" x1="320.2" y1="443.8" x2="279.4" y2="513.4"/>
	<line class="st2" x1="298.5" y1="524.8" x2="339.2" y2="455"/>
	<line class="st2" x1="323.7" y1="519.7" x2="306.9" y2="510.4"/>
	<line class="st2" x1="346.2" y1="511" x2="367.7" y2="471.7"/>
	<line class="st2" x1="370.5" y1="524.2" x2="392.3" y2="485.7"/>
	<path class="st2" d="M561.2,670.6c13.7-29.3,32.6-46.7,57.5-49.8l-0.1-47.3h-24.5l-44-21.4l-18.8,6.9l-89.3-43.2l-42.1,80.4"/>
	<line class="st2" x1="561.2" y1="670.6" x2="561.2" y2="557.1"/>
	<polygon class="st2" points="453.9,235.5 558.6,235.5 558.6,389.9 540.9,389.9 540.9,387.8 516.4,387.8 516.4,373.5 438.7,373.5 
		438.7,321.3 444.4,321.3 444.4,297.3 453.9,297.3 	"/>
	<polyline class="st2" points="438.7,321.3 384.5,321.3 384.5,214 414.8,214 414.8,222 420.9,222 420.9,235.5 444.8,235.5 
		444.8,278.2 437.8,278.2 437.8,297.3 444.4,297.3 	"/>
	<line class="st3" x1="162.2" y1="165.6" x2="188.1" y2="179.5"/>
	<polyline class="st2" points="115.4,187.6 113.6,190.6 167.2,220 	"/>
	<line class="st2" x1="167.2" y1="168.3" x2="145.4" y2="208.1"/>
</g>
<g id="logo">
	<path d="M391.2,281c0-3,0.6-6.8,1.7-11.4c1-4,2.2-7.4,3.6-10.4c2.4-5.1,4.9-7.7,7.6-7.7c1.3,0.2,2.5,0.8,3.6,1.8
		c2.6,2.5,4.4,6.7,5.5,12.7c0-0.1,0.3-1.3,0.9-3.7c2-7.2,4.6-10.8,7.9-10.8c3,0,5.7,2.5,8,7.5c1.3,2.9,2.5,6.4,3.3,10.4
		c0.9,4.3,1.4,8.2,1.4,11.5h-4.4c0-10.7-1.6-18.7-4.7-24.1c-1.3-2.1-2.4-3.2-3.6-3.2c-1.5,0-2.8,2.1-4,6.4c-1.4,4.8-2.1,11.2-2.2,19
		l-5,0.1c0-10.3-1.3-17.9-3.8-22.6c-1-1.9-2-2.8-3-2.8c-1.4,0-2.9,1.9-4.4,5.6c-2.4,6.1-3.7,13.3-3.7,21.6L391.2,281z"/>
	<g>
		<path d="M481.3,284.7V281h11.2v3.7h-4.1v15.5h-2.9v-15.5H481.3z"/>
		<path d="M493,290.6c0-5.6,3.3-10,7.6-10s7.6,4.4,7.6,9.9c0,5.5-3.3,9.9-7.6,9.9C496.3,300.5,493,296.1,493,290.6z M505.1,290.6
			c0-3.6-2-6.2-4.5-6.2c-2.5,0-4.5,2.6-4.5,6.2c0,3.5,2,6.1,4.5,6.1S505.2,294.1,505.1,290.6z"/>
		<path d="M522.9,281v19.2h-2l-7.5-11.8v11.8h-2.9V281h1.8l7.7,11.9V281H522.9z"/>
		<path d="M469.7,325.7c0,3-1.7,5.6-4.6,5.6h-6.6v-19.2h6.3c2.8,0,4.1,2.4,4.1,4.8c0,1.7-0.8,3.3-2,3.9
			C468.9,321.4,469.7,323.5,469.7,325.7z M461.4,315.5v4.2h2.9c1.3,0,1.8-1.1,1.8-2.2s-0.6-2-1.7-2H461.4z M466.7,325.4
			c0-1.3-0.7-2.5-2.2-2.5h-3.2v5.1h3.2C466.1,327.9,466.7,326.6,466.7,325.4z"/>
		<path d="M471.3,321.8c0-5.6,3.3-10,7.6-10s7.6,4.4,7.6,9.9c0,5.5-3.3,9.9-7.6,9.9C474.5,331.6,471.3,327.3,471.3,321.8z
			 M483.4,321.7c0-3.6-2-6.2-4.5-6.2c-2.5,0-4.5,2.6-4.5,6.2c0,3.5,2,6.1,4.5,6.1S483.4,325.2,483.4,321.7z"/>
		<path d="M501.2,312.1v19.2h-2l-7.5-11.8v11.8h-2.9v-19.2h1.8l7.7,11.9v-11.9H501.2z"/>
		<path d="M515.6,325.7c0,3-1.7,5.6-4.6,5.6h-6.6v-19.2h6.3c2.8,0,4.1,2.4,4.1,4.8c0,1.7-0.8,3.3-2,3.9
			C514.7,321.4,515.6,323.5,515.6,325.7z M507.3,315.5v4.2h2.8c1.3,0,1.8-1.1,1.8-2.2s-0.6-2-1.7-2H507.3z M512.6,325.4
			c0-1.3-0.7-2.5-2.2-2.5h-3.2v5.1h3.2C511.9,327.9,512.6,326.6,512.6,325.4z"/>
		<path d="M517.1,321.8c0-5.6,3.3-10,7.6-10s7.6,4.4,7.6,9.9c0,5.5-3.3,9.9-7.6,9.9C520.4,331.6,517.1,327.3,517.1,321.8z
			 M529.2,321.7c0-3.6-2-6.2-4.5-6.2c-2.5,0-4.5,2.6-4.5,6.2c0,3.5,2,6.1,4.5,6.1S529.3,325.2,529.2,321.7z"/>
		<path d="M547,312.1v19.2h-2l-7.5-11.8v11.8h-2.9v-19.2h1.8l7.7,11.9v-11.9H547z"/>
	</g>
	<g>
		<path d="M243.9,57.7h-1.1v7.2h-1.8V45.1h3.5c2.2,0,3.2,3,3.2,6.3c0,2.4-0.6,4.8-1.9,5.8l2.2,7.7h-2.2L243.9,57.7z M242.8,54.1h1.5
			c1,0,1.4-1.3,1.4-2.7c0-1.4-0.4-2.7-1.3-2.7h-1.7V54.1z"/>
		<path d="M249.3,45.1h6.3v3.7h-4.4v4.3h4.1v3.7h-4.1v4.5h4.4v3.7h-6.3V45.1z"/>
		<path d="M256.5,61.5l1.1-2.8c0.6,1.8,1.5,2.8,2.4,2.8c0.8,0,1.3-0.9,1.3-2.1c0-1-0.4-1.6-0.8-2.1c-0.6-0.6-1.3-1.1-2-1.8
			c-0.8-1-1.5-2.5-1.5-4.9c0-3.3,1.3-5.8,3.1-5.8c1.1,0,2.2,0.8,3,2.7l-1,2.9c-0.5-1.2-1.4-1.9-2-1.9c-0.7,0-1.2,0.8-1.2,1.9
			c0,1,0.4,1.6,0.8,2c0.5,0.5,1.4,1.2,2,1.9c0.9,0.9,1.6,2.4,1.6,4.9c0,3.5-1.4,6-3.4,6C258.6,65.2,257.3,64,256.5,61.5z"/>
		<path d="M263.9,48.9v-3.8h7.1v3.8h-2.6v16h-1.9v-16H263.9z"/>
		<path d="M276.3,60.6h-3.2l-0.7,4.3h-1.9l3.5-19.8h1.5l3.5,19.8H277L276.3,60.6z M273.6,57.1h2.2l-1.1-6.6L273.6,57.1z"/>
		<path d="M279.7,57.7V45.1h1.9v12.3c0,2.7,0.7,4,1.8,4c1,0,1.7-1.3,1.7-4V45.1h1.9v12.6c0,5.2-1.7,7.6-3.6,7.6
			C281.4,65.3,279.7,62.9,279.7,57.7z"/>
		<path d="M291.8,57.7h-1.1v7.2h-1.8V45.1h3.5c2.2,0,3.2,3,3.2,6.3c0,2.4-0.6,4.8-1.9,5.8l2.2,7.7h-2.2L291.8,57.7z M290.7,54.1h1.5
			c1,0,1.4-1.3,1.4-2.7c0-1.4-0.4-2.7-1.3-2.7h-1.7V54.1z"/>
		<path d="M302.2,60.6H299l-0.7,4.3h-1.9l3.5-19.8h1.5l3.5,19.8h-1.9L302.2,60.6z M299.6,57.1h2.2l-1.1-6.6L299.6,57.1z"/>
		<path d="M313.9,45.1v19.8h-1.3l-4.8-12.1v12.1H306V45.1h1.2l4.9,12.3V45.1H313.9z"/>
		<path d="M315.1,48.9v-3.8h7.1v3.8h-2.6v16h-1.9v-16H315.1z"/>
	</g>
	<g>
		<path d="M198.6,432.7c1.4,1,2.2,2.5,1.1,4.1l-0.7,0.9l2.8,1.9l-0.8,1.2l-8-5.6l1.6-2.3C195.5,431.5,197.2,431.8,198.6,432.7z
			 M197.7,434c-0.6-0.4-1.4-0.5-1.8,0.1l-0.7,1.1l2.3,1.6l0.7-1C198.7,435.1,198.3,434.4,197.7,434z"/>
		<path d="M197.4,428.8l8,5.6l-0.9,1.2l-8-5.6L197.4,428.8z"/>
		<path d="M204.9,432.6l-3.3-6.8l-2,2.9l-1.5-1l3.2-4.6l1.2,0.8l3.3,6.7l2.1-3.1l1.5,1l-3.3,4.8L204.9,432.6z"/>
		<path d="M208.7,427.2l-3.3-6.8l-2,2.9l-1.5-1l3.2-4.6l1.2,0.8l3.3,6.7l2.1-3.1l1.5,1l-3.3,4.8L208.7,427.2z"/>
		<path d="M206.6,415.4l8,5.6l-0.9,1.2l-8-5.6L206.6,415.4z"/>
		<path d="M211.4,417.2c-2.3-1.6-3.2-4.3-2-6.1s4.1-1.9,6.4-0.3c2.3,1.6,3.2,4.3,1.9,6.1C216.4,418.7,213.7,418.8,211.4,417.2z
			 M214.9,412.1c-1.5-1-3.2-0.9-3.9,0.1c-0.7,1.1-0.2,2.7,1.3,3.7c1.5,1,3.1,0.9,3.9-0.1C216.9,414.7,216.4,413.1,214.9,412.1z"/>
	</g>
	<g>
		<path d="M284.1,478.3l1.6-2.7l-1.7-1l-1.7,3c0,0-0.1,0.1-0.1,0.1c-0.6,1.1-0.2,2.4,0.8,3c0.8,0.5,1.7,0.4,2.4-0.1l2.1-1.4
			c0.5-0.3,0.9,0,0.6,0.5l-1.6,2.8l-0.8-0.5l0.2,1.6l0.2,1.6l1.5-0.7l1.5-0.7l-0.8-0.5l1.9-3.2c0.6-1.1,0.2-2.4-0.8-3
			c-0.5-0.3-1.2-0.5-1.8-0.3l-2.7,1.7C284.4,478.8,284,478.5,284.1,478.3L284.1,478.3z M287.7,468.2l4.5,2.6
			c0.8,0.5,1.3,1.1,1.4,1.9c0.2,0.8,0,1.7-0.5,2.6c-0.5,0.9-1.1,1.4-1.9,1.6c-0.7,0.2-1.5,0.1-2.4-0.4l-4.4-2.6l1.2-2.1l4.6,2.7
			c0.4,0.2,1,0.1,1.2-0.3l0,0c0.2-0.4,0.1-1-0.3-1.2l-4.6-2.7L287.7,468.2L287.7,468.2z M297.1,467.8c0.6-1.1,0.2-2.4-0.8-3
			c-0.7-0.4-1.6-0.4-2.3,0c-0.1-0.7-0.4-1.3-1-1.6c-1-0.6-2.2-0.3-2.8,0.6l0,0l-2.2,3.9l6.9,4L297.1,467.8L297.1,467.8z
			 M293.2,467.9l0.6-1c0.2-0.4,0.7-0.5,1.1-0.3l0,0c0.4,0.2,0.5,0.7,0.3,1.1l-0.6,1L293.2,467.9L293.2,467.9z M290.7,466.5l0.5-0.8
			c0.2-0.3,0.6-0.4,1-0.3v0c0.3,0.2,0.4,0.6,0.2,0.9l-0.5,0.9L290.7,466.5L290.7,466.5z"/>
		<path class="st4" d="M305.4,441.3l1.4,0.8c1,0.6,1.4,1.8,0.8,2.8l2,1.2l-1.3,2.2l-2-1.2c-0.6,0.9-1.9,1.2-2.8,0.6l-3.1-1.8l1.2-2
			l2.8,1.6c0.4,0.2,0.8,0.1,1-0.3l0.2-0.3c0.2-0.4,0.1-0.8-0.3-1l-1.5-0.8l0,0c0,0,0,0,0,0c-0.7-0.4-0.9-1.3-0.5-2l0,0l0,0l0,0l0,0
			l0,0l0,0l0,0l0,0l0,0l0,0l0,0l0.1-0.2l0.3-0.5l0.6-1l-0.8-0.5l1.5-0.7l1.5-0.7l0.2,1.6l0.2,1.6l-0.8-0.5L305.4,441.3L305.4,441.3z
			 M304.9,454.2l-1.2,2.1l-4.4-2.5c-0.8-0.5-1.4-1.1-1.5-1.9s0-1.7,0.6-2.6c0.5-0.9,1.1-1.5,1.8-1.7s1.5,0,2.4,0.5l4.5,2.6l-1.2,2.1
			l-2-1.2l-0.9,1.6L304.9,454.2L304.9,454.2z M302.3,450.6l-1.2-0.7c-0.4-0.2-1-0.1-1.2,0.3l0,0c-0.2,0.4-0.1,1,0.3,1.2l1.2,0.7
			L302.3,450.6L302.3,450.6z M296.5,452.8l5,2.9c0.6,0.4,1,0.9,1.1,1.5c0.1,0.7,0,1.3-0.4,2c0,0-0.1,0.1-0.1,0.1
			c-0.2,0.4-0.6,1.2-1.5,1.5c0.3,0.9-0.3,1.7-0.5,2c-0.1,0.1-0.1,0.2-0.2,0.3c-0.4,0.7-0.9,1.2-1.6,1.3c-0.6,0.2-1.3,0-2-0.4
			l-4.8-2.8l1.2-2.1l4.7,2.7c0.3,0.2,0.8,0.1,1-0.3l0,0c0.2-0.3,0.1-0.8-0.3-1l-4.7-2.7l1.1-2l4.7,2.7c0.3,0.2,0.8,0.1,1-0.3l0,0
			c0.2-0.3,0.1-0.8-0.3-1l-4.7-2.7L296.5,452.8L296.5,452.8z M309.2,444.6c0-0.1,0.1-0.2,0.2-0.2c0.1-0.1,0.2-0.1,0.3-0.1
			c0.1,0,0.2,0,0.3,0.1c0.1,0.1,0.2,0.1,0.2,0.2c0.1,0.1,0.1,0.2,0.1,0.3c0,0.1,0,0.2-0.1,0.3c-0.1,0.1-0.1,0.2-0.2,0.2
			c-0.1,0.1-0.2,0.1-0.3,0.1c-0.1,0-0.2,0-0.3-0.1c-0.1-0.1-0.2-0.1-0.2-0.2c-0.1-0.1-0.1-0.2-0.1-0.3
			C309.1,444.8,309.1,444.7,309.2,444.6L309.2,444.6z M309.2,444.6c0,0.1-0.1,0.2-0.1,0.2s0,0.2,0.1,0.3c0,0.1,0.1,0.1,0.2,0.2
			c0.1,0,0.2,0.1,0.2,0.1c0.1,0,0.2,0,0.3-0.1c0.1,0,0.1-0.1,0.2-0.2c0-0.1,0.1-0.2,0.1-0.2s0-0.2-0.1-0.3s-0.1-0.1-0.2-0.2
			c-0.1,0-0.2-0.1-0.2-0.1c-0.1,0-0.2,0-0.3,0.1C309.3,444.5,309.3,444.5,309.2,444.6L309.2,444.6z M309.8,445.3l-0.6-0.3l0.1-0.2
			c0-0.1,0.1-0.1,0.1-0.1c0,0,0.1,0,0.1,0c0,0,0.1,0,0.1,0c0,0,0.1,0.1,0.1,0.1c0,0,0,0.1,0,0.1c0,0,0,0,0.1,0c0,0,0.1,0,0.2,0
			l0.1,0l-0.1,0.1l-0.1,0c-0.1,0-0.2,0-0.2,0c0,0,0,0-0.1,0.1l0,0.1L309.8,445.3L309.8,445.3L309.8,445.3z M309.6,445l0.1-0.1
			c0-0.1,0-0.1,0-0.1c0,0,0,0,0-0.1c0,0,0,0-0.1,0c0,0,0,0-0.1,0c0,0,0,0-0.1,0.1l-0.1,0.1L309.6,445L309.6,445z"/>
	</g>
	<g>
		<path d="M295,497.9l0.4-0.7l5.1,0.3l-2.7-4.4l0.4-0.7l6.9,4.1l-0.6,1l-3.9-2.3l2,3.2l-0.2,0.4l-3.8-0.2l3.9,2.3l-0.6,1L295,497.9z
			"/>
		<path d="M304.3,492.1l-0.4,0.6l2.5,1.5l-0.6,1l-6.9-4.1l1.2-2c0.7-1.2,2.1-1.2,3.2-0.5c0.8,0.5,1.5,1.3,1.4,2.3l3.4,0.3l-0.7,1.2
			L304.3,492.1z M302.7,492l0.5-0.9c0.3-0.6,0-1.1-0.5-1.4c-0.5-0.3-1.1-0.3-1.4,0.2l-0.6,0.9L302.7,492z"/>
		<path d="M307.9,490.4c-0.4-0.2-0.6-0.7-0.4-1c0.2-0.3,0.7-0.4,1.1-0.1c0.4,0.3,0.6,0.7,0.4,1C308.8,490.6,308.3,490.7,307.9,490.4
			z"/>
		<path d="M302.8,484.7l1.2-2c0.9-1.6,2.8-1.7,5-0.5c2.1,1.3,2.9,3,1.9,4.6l-1.2,2L302.8,484.7z M309.6,486c0.6-0.9-0.1-2-1.3-2.7
			c-1.1-0.7-2.4-0.8-3,0.2l-0.6,1l4.2,2.5L309.6,486z"/>
		<path d="M309.4,481.6c-2-1.2-2.9-3.3-2-4.9s3.2-1.8,5.2-0.6c2,1.2,2.8,3.3,1.9,4.9C313.6,482.6,311.3,482.8,309.4,481.6z
			 M311.9,477.2c-1.3-0.8-2.6-0.6-3.2,0.3c-0.5,0.9,0,2.2,1.2,3c1.3,0.8,2.6,0.6,3.2-0.3C313.7,479.3,313.2,478,311.9,477.2z"/>
		<path d="M312.3,468.8l6.9,4.1l-0.4,0.7l-5.8,0.2l4.2,2.5l-0.6,1l-6.9-4.1l0.4-0.7l5.9-0.2l-4.3-2.5L312.3,468.8z"/>
		<path d="M313,467.6l2.1-3.5l1.3,0.8l-1.5,2.5l1.5,0.9l1.4-2.3l1.3,0.8l-1.4,2.3l1.5,0.9l1.5-2.5l1.3,0.8l-2.1,3.5L313,467.6z"/>
		<path d="M321,464l-0.4,0.6l2.5,1.5l-0.6,1l-6.9-4.1l1.2-2c0.7-1.2,2.1-1.2,3.2-0.5c0.8,0.5,1.5,1.3,1.4,2.3l3.4,0.3l-0.7,1.2
			L321,464z M319.4,463.9l0.5-0.9c0.3-0.6,0-1.1-0.5-1.4c-0.5-0.3-1.1-0.3-1.4,0.2l-0.6,0.9L319.4,463.9z"/>
	</g>
	<g>
		<path d="M336.6,496.2c1.3,0.8,2.1,2.1,1.3,3.5l-1.6,3l-8.6-4.8l1.6-2.8c0.7-1.2,2.1-1.2,3.2-0.7c0.8,0.4,1.3,1.2,1.2,1.9
			C334.4,495.6,335.6,495.7,336.6,496.2z M329.9,497.4l1.9,1l0.7-1.3c0.3-0.6,0-1.1-0.5-1.4c-0.5-0.3-1.1-0.2-1.3,0.3L329.9,497.4z
			 M335.7,497.5c-0.6-0.3-1.3-0.3-1.7,0.3l-0.8,1.4l2.3,1.3l0.8-1.4C336.7,498.4,336.2,497.8,335.7,497.5z"/>
		<path d="M331.1,491.8l0.5-0.9l6.3,0.1l-3.4-5.2l0.5-0.9l8.6,4.8l-0.7,1.3l-4.9-2.7l2.5,3.9l-0.2,0.5l-4.6-0.1l4.9,2.7l-0.7,1.3
			L331.1,491.8z"/>
		<path d="M342.5,488l-0.8-1.4c1,0,1.8-0.4,2.2-1.1c0.3-0.5,0.1-1.1-0.4-1.4c-0.4-0.2-0.8-0.1-1.2,0.1c-0.5,0.3-1,0.7-1.6,1
			c-0.7,0.3-1.6,0.4-2.7-0.2c-1.4-0.8-2-2.3-1.3-3.6c0.4-0.8,1.2-1.3,2.3-1.5l0.9,1.4c-0.7,0.1-1.3,0.5-1.6,1
			c-0.3,0.5-0.1,1,0.4,1.3c0.4,0.2,0.8,0.1,1.1-0.1c0.4-0.2,1.1-0.7,1.6-1c0.8-0.4,1.7-0.5,2.7,0.1c1.5,0.8,2.1,2.4,1.3,3.8
			C344.9,487.4,343.9,488.1,342.5,488z"/>
	</g>
	<g>
		<path d="M365.9,510.3c-1.8-0.9-2.5-2.6-1.8-3.9c0.4-0.8,1.3-1.2,2.2-1.2l0.4,1c-0.6,0-1.2,0.3-1.5,0.8c-0.4,0.8,0,1.8,1.1,2.4
			c1.1,0.6,2.2,0.4,2.6-0.4c0.3-0.5,0.2-1.1-0.2-1.7l1-0.2c0.5,0.8,0.6,1.7,0.2,2.6C369.3,510.8,367.6,511.2,365.9,510.3z"/>
		<path d="M371.2,504.1l-0.8,1.5l1.1,1l-0.5,0.9l-4.9-4.7l0.4-0.7l6.6,1.4l-0.5,0.9L371.2,504.1z M369.5,504.8l0.5-1l-2.2-0.5
			L369.5,504.8z"/>
		<path d="M368.3,501.3l-1.1-0.6l1.8-3.4l1.1,0.6l-0.7,1.2l4.6,2.5l-0.5,0.9l-4.6-2.5L368.3,501.3z"/>
		<path d="M369.3,496.8l0.3-0.6l4.2,0l-2.4-3.4l0.3-0.6l5.8,3.1l-0.5,0.9l-3.3-1.7l1.7,2.6l-0.2,0.3l-3.1,0l3.3,1.7l-0.5,0.9
			L369.3,496.8z"/>
		<path d="M372.7,490.3l5.8,3.1l-0.5,0.9l-5.8-3.1L372.7,490.3z"/>
		<path d="M373.8,488.6c0.5,0.3,0.9,0.9,1.1,1.7l-0.6,0c-0.1-0.3-0.2-0.6-0.4-0.9c0,0,0,0,0,0c-0.1,0.2-0.5,0.3-0.8,0.1
			c-0.4-0.2-0.5-0.6-0.4-0.8C373,488.5,373.4,488.4,373.8,488.6z"/>
		<path d="M378.5,490.9L378,490c0.7,0,1.2-0.3,1.4-0.7c0.2-0.4,0.1-0.8-0.3-1c-0.3-0.2-0.6-0.1-0.8,0.1c-0.3,0.2-0.6,0.5-1,0.7
			c-0.5,0.2-1.1,0.3-1.8-0.1c-1-0.5-1.4-1.5-0.9-2.4c0.3-0.5,0.8-0.9,1.5-1l0.6,0.9c-0.5,0.1-0.9,0.4-1,0.7
			c-0.2,0.3-0.1,0.7,0.3,0.9c0.3,0.2,0.5,0.1,0.8-0.1c0.3-0.2,0.7-0.5,1.1-0.7c0.5-0.3,1.1-0.4,1.8,0c1,0.5,1.4,1.6,0.9,2.5
			C380.1,490.5,379.4,490.9,378.5,490.9z"/>
	</g>
	<g>
		<path d="M667.6,438.7c0-7.9,4.6-13.3,10-13.3c3.6,0,6.6,2.2,8.3,5.3l-2.6,3.4c-1.3-2.2-3.2-3.7-5.5-3.7c-3.5,0-6.2,3.5-6.2,8.4
			c0,4.7,2.7,8.2,6.1,8.2c2.3,0,4.3-1.5,5.6-3.7l2.7,3.2c-1.7,3.1-4.8,5.4-8.5,5.4C672,451.8,667.6,446.5,667.6,438.7z"/>
		<path d="M692.6,425.8v25.5h-3.9v-25.5H692.6z"/>
		<path d="M713.4,425.8v25.5h-2.6l-10-15.7v15.7h-3.8v-25.5h2.5l10.2,15.8v-15.8H713.4z"/>
		<path d="M717.7,425.8h13.1v4.8h-9.2v5.5h8.5v4.8h-8.5v5.7h9.2v4.8h-13.1V425.8z"/>
		<path d="M734.3,425.8h2.6l7.6,14.5l7.5-14.5h2.6v25.5h-3.9v-14.5l-5.6,10.7h-1.3l-5.6-10.7v14.5h-3.8V425.8z"/>
		<path d="M769.2,445.8h-6.8l-1.5,5.5h-4.1l7.4-25.5h3.2l7.3,25.5h-4.1L769.2,445.8z M763.6,441.3h4.6l-2.3-8.5L763.6,441.3z"/>
		<path d="M694.2,480.2c0-7.9,4.6-13.3,10-13.3c3.6,0,6.6,2.2,8.3,5.3l-2.6,3.4c-1.3-2.2-3.2-3.7-5.5-3.7c-3.5,0-6.2,3.5-6.2,8.4
			c0,4.7,2.7,8.2,6.1,8.2c2.3,0,4.3-1.5,5.6-3.7l2.7,3.2c-1.7,3.1-4.8,5.4-8.5,5.4C698.6,493.2,694.2,488,694.2,480.2z"/>
		<path d="M719.2,467.3v25.5h-3.9v-25.5H719.2z"/>
		<path d="M721.7,472.3v-4.9h15v4.9h-5.5v20.6h-3.9v-20.6H721.7z"/>
		<path d="M747.9,484v8.8H744V484l-6.6-16.7h4.5l4.1,11.2l4.2-11.2h4.5L747.9,484z"/>
	</g>
	<g>
		<path d="M631.2,132.1h-4.7l-1,6.3h-2.8l5.1-28.9h2.2l5.1,28.9h-2.8L631.2,132.1z M627.2,126.9h3.2l-1.6-9.6L627.2,126.9z"/>
		<path d="M634.2,115v-5.6h10.4v5.6h-3.9v23.3H638V115H634.2z"/>
		<path d="M646.4,109.4h2.7v11.6h5.7v-11.6h2.7v28.9h-2.7v-11.8h-5.7v11.8h-2.7V109.4z"/>
		<path d="M660.4,109.4h2.7v23.4h6.8v5.6h-9.6V109.4z"/>
		<path d="M671.7,109.4h9.1v5.4h-6.4v6.2h5.9v5.4h-5.9v6.5h6.4v5.4h-9.1V109.4z"/>
		<path d="M682.1,115v-5.6h10.4v5.6h-3.9v23.3h-2.7V115H682.1z"/>
		<path d="M697,109.4v28.9h-2.7v-28.9H697z"/>
		<path d="M699.2,124c0-8.9,3.2-15.1,7-15.1c2.5,0,4.6,2.5,5.8,6l-1.8,3.8c-0.9-2.5-2.3-4.2-3.9-4.2c-2.4,0-4.3,4-4.3,9.5
			c0,5.4,1.9,9.2,4.3,9.2c1.6,0,3-1.7,3.9-4.2l1.9,3.6c-1.2,3.5-3.4,6.1-5.9,6.1C702.3,138.8,699.2,132.8,699.2,124z"/>
	</g>
	<path class="st5" d="M789.7,144.1c0-1.7-1.4-3.1-3.1-3.1h-20.1c-1.7,0-3.1,1.4-3.1,3.1v20.2c0,1.7,1.4,3.1,3.1,3.1h20.1
		c1.7,0,3.1-1.4,3.1-3.1V144.1z M782.3,144.9c0.9,0,1.5,0.7,1.5,1.5c0,0.9-0.7,1.5-1.5,1.5c-0.9,0-1.5-0.7-1.5-1.5
		C780.7,145.6,781.4,144.9,782.3,144.9z M770.4,144.9c0.9,0,1.5,0.7,1.5,1.5c0,0.9-0.7,1.5-1.5,1.5c-0.8,0-1.5-0.7-1.5-1.5
		C768.9,145.6,769.5,144.9,770.4,144.9z M773.5,149.3l-0.4,5.2c0,0.3-0.2,0.6-0.5,0.7l0,0c-0.3,0.1-0.5,0.4-0.5,0.7l-0.4,6.7
		c0,0.5-0.4,0.8-0.9,0.8h-0.3h-0.3c-0.5,0-0.8-0.4-0.9-0.8l-0.4-6.7c0-0.3-0.2-0.6-0.5-0.7c-0.3-0.1-0.5-0.4-0.5-0.7l-0.4-5.2
		c0-0.4,0.2-0.8,0.7-0.9l0.4-0.1c0.3-0.1,0.6,0,0.8,0.2l0.6,0.6c0.3,0.3,0.9,0.3,1.2,0l0.6-0.6c0.2-0.2,0.5-0.3,0.8-0.2l0.4,0.1
		C773.2,148.5,773.5,148.9,773.5,149.3z M776.7,163.5c0,0.2-0.2,0.4-0.4,0.4c-0.2,0-0.4-0.2-0.4-0.4v-18.6c0-0.2,0.2-0.4,0.4-0.4
		c0.2,0,0.4,0.2,0.4,0.4V163.5z M785.3,155.2c-0.3,0.1-0.5,0.4-0.4,0.6l0.2,1.3c0,0.3-0.2,0.6-0.5,0.7l-0.4,0
		c-0.3,0-0.5,0.3-0.5,0.5l-0.3,4.2c0,0.5-0.4,0.8-0.9,0.8h-0.3H782c-0.5,0-0.8-0.3-0.9-0.8l-0.3-4.2c0-0.3-0.2-0.5-0.5-0.5l-0.4,0
		c-0.3,0-0.5-0.3-0.5-0.7l0.2-1.3c0-0.3-0.1-0.6-0.4-0.6c-0.3-0.1-0.5-0.4-0.4-0.7l1.2-5.5c0.1-0.4,0.5-0.6,0.9-0.4l1.1,0.7
		c0.2,0.1,0.4,0.1,0.6,0l1.1-0.7c0.3-0.2,0.8,0,0.9,0.4l1.2,5.5C785.8,154.8,785.6,155.1,785.3,155.2z"/>
	<path class="st5" d="M289,207.7c-0.5,0.1-2.4,0.5-4.2,1c-13.3,3.5-24.1,14.3-27.9,28c-1.1,4.1-1.6,12.3-0.9,16.8
		c1.9,12.2,9.6,23,20.5,28.8c4.5,2.4,12.6,4.9,12.6,3.9c0-1-4.4-23.9-4.7-24.8c-0.2-0.5-2-2.5-3.9-4.3c-4.1-3.7-5.1-5.2-5.9-8.6
		c-0.6-2.8-3.8-22.2-3.8-23.5c0-0.9,1.2-1.7,1.8-1c0.2,0.2,1.4,5.3,2.8,11.3c2.3,10.2,2.5,10.9,3.2,11.1c0.4,0.1,0.9-0.1,1-0.4
		c0.1-0.3-0.9-5.4-2.3-11.4c-1.4-6-2.4-11.1-2.3-11.3c0.1-0.1,0.6-0.3,1.1-0.3h1l2.5,11.2c2.5,11.5,2.8,12,4.1,11.1
		c0.4-0.3,0.1-2-1.9-11.3c-1.4-6-2.4-11.3-2.2-11.6c0.1-0.3,0.6-0.5,1-0.5c0.8,0,0.9,0.3,2.4,6.9c3.7,16.5,3.4,15.6,4.2,15.7
		c0.4,0.1,0.9-0.1,1-0.4c0.1-0.3-0.9-5.4-2.3-11.4c-2.3-10-2.4-11-1.9-11.4c1.4-1,1.6-0.5,5.2,12c3.3,11.5,3.5,12.4,3.4,14.9
		c-0.1,2.2-0.4,3.3-1.8,6.5c-1.1,2.7-1.7,4.3-1.7,5.4c0,1.9,6.6,25.3,7,24.5c0.1-0.3,0.9-4.1,1.8-8.4l1.7-7.8l-0.6-1.8
		c-0.6-2-0.6-3.7,0.4-13.7c0.7-6.8,1.9-12.6,4.1-20.1c2.4-7.9,4.7-12.7,7.7-15.8c3.7-3.8,6-3.5,6,0.9c0,3-8.8,48.8-9.7,50.6
		c-0.5,0.9-1.2,4.1-2,8.6c-0.7,4-1.3,7.6-1.4,8.2l-0.2,1l1.9-0.5c7.6-2.2,13.4-5.7,18.7-11.2c7.1-7.5,10.7-16.6,10.8-27.1
		c0-11.2-3.9-20.9-11.8-28.7c-5.5-5.5-12.9-9.3-20.5-10.8C300.3,207.5,291.3,207.3,289,207.7L289,207.7z M289,207.7"/>
	<g>
		<g>
			<g>
				<path class="st6" d="M194.2,142.7c0.1,0,0.3,0,0.4,0c0,1.7,0,3.4,0,5.2c-0.1,0-0.3,0-0.4,0c0-0.2,0-0.4,0-0.6
					c-0.2,0.3-0.5,0.6-0.8,0.7c-0.4,0.1-0.9,0.1-1.3-0.2c-0.4-0.3-0.8-0.8-0.8-1.4c-0.1-0.4,0-0.9,0.2-1.3c0.2-0.4,0.6-0.8,1.1-0.9
					c0.3-0.1,0.7-0.1,1,0.1c0.3,0.1,0.5,0.4,0.7,0.6C194.2,144.1,194.2,143.4,194.2,142.7z M192.8,144.5c-0.1,0-0.2,0.1-0.3,0.1
					c-0.5,0.2-0.8,0.8-0.8,1.4c0,0.3,0.1,0.7,0.3,0.9c0.2,0.3,0.5,0.5,0.7,0.5c0.5,0.1,1.1-0.1,1.3-0.7c0.2-0.4,0.2-0.8,0.2-1.2
					c-0.1-0.4-0.3-0.7-0.6-0.9C193.4,144.5,193.1,144.5,192.8,144.5z"/>
			</g>
			<path class="st6" d="M176.2,142.8c0.2-0.1,0.5,0.1,0.5,0.4c0,0.3-0.2,0.5-0.4,0.5c-0.2,0-0.4-0.2-0.4-0.5
				C175.9,143.1,176,142.9,176.2,142.8z"/>
			<path class="st6" d="M196.2,142.9c0.1,0,0.2,0,0.3,0c0.1,0.1,0.2,0.2,0.2,0.3c0,0.1,0,0.3-0.1,0.3c-0.1,0.1-0.3,0.1-0.4,0.1
				c-0.1-0.1-0.2-0.2-0.2-0.4C195.9,143.1,196,142.9,196.2,142.9z"/>
			<path class="st6" d="M179.1,144.2c0.3-0.1,0.6-0.1,0.9,0c0.3,0.1,0.5,0.3,0.6,0.6c0.1,0.3,0.1,0.6,0.1,0.9c0,0.7,0,1.4,0,2.2
				c-0.3,0-0.5,0-0.8,0c0-0.6,0-1.1,0-1.7c0-0.2,0-0.5,0-0.7c0-0.2-0.1-0.3-0.2-0.4c-0.1-0.1-0.3-0.1-0.5-0.1
				c-0.2,0-0.3,0.2-0.4,0.4c-0.1,0.1-0.1,0.3-0.1,0.5c0,0.2,0,0.4,0,0.6c0,0.5,0,1,0,1.5c-0.3,0-0.5,0-0.8,0c0-1.2,0-2.5,0-3.7
				c0.3,0,0.5,0,0.8,0c0,0.1,0,0.3,0,0.4C178.7,144.4,178.9,144.2,179.1,144.2z"/>
			<path class="st6" d="M182.5,144.2c0.3-0.2,0.6-0.2,0.9-0.1c0.2,0.1,0.4,0.2,0.5,0.4c0.1,0.1,0.1,0.3,0.2,0.4
				c0.1-0.3,0.3-0.5,0.6-0.7c0.3-0.2,0.6-0.2,0.9-0.2c0.3,0.1,0.5,0.3,0.6,0.5c0.2,0.3,0.2,0.7,0.2,1.1c0,0.7,0,1.4,0,2.2
				c-0.1,0-0.3,0-0.4,0c0-0.6,0-1.2,0-1.8c0-0.3,0-0.6,0-0.9c0-0.2-0.1-0.3-0.2-0.5c-0.2-0.2-0.4-0.2-0.6-0.2
				c-0.3,0-0.6,0.3-0.8,0.6c-0.1,0.2-0.1,0.5-0.1,0.7c0,0.4,0,0.8,0,1.3c0,0.2,0,0.5,0,0.7c-0.1,0-0.3,0-0.4,0c0-0.5,0-1.1,0-1.6
				c0-0.3,0-0.6,0-0.9c0-0.2,0-0.3-0.1-0.5c-0.1-0.2-0.3-0.4-0.5-0.4c-0.3,0-0.5,0.1-0.7,0.2c-0.2,0.2-0.3,0.5-0.4,0.7
				c-0.1,0.5-0.1,0.9-0.1,1.4c0,0.3,0,0.6,0,1c-0.1,0-0.3,0-0.4,0c0-1.2,0-2.5,0-3.7c0.1,0,0.3,0,0.4,0c0,0.2,0,0.4,0,0.6
				C182.2,144.6,182.3,144.4,182.5,144.2z"/>
			<g>
				<path class="st6" d="M188.2,144.3c0.3-0.2,0.7-0.2,1-0.2c0.3,0,0.6,0.2,0.8,0.4c0.2,0.2,0.4,0.5,0.5,0.8
					c0.1,0.3,0.1,0.5,0.1,0.8c-1,0-1.9,0-2.9,0c0,0.3,0.1,0.6,0.2,0.9c0.2,0.3,0.4,0.5,0.7,0.6c0.4,0.1,0.8,0,1.1-0.2
					c0.2-0.2,0.4-0.4,0.5-0.6c0.1,0.1,0.2,0.1,0.3,0.2c-0.1,0.3-0.3,0.6-0.5,0.8c-0.2,0.2-0.5,0.3-0.8,0.3c-0.4,0-0.7,0-1-0.2
					c-0.2-0.2-0.4-0.4-0.6-0.7c-0.3-0.6-0.3-1.4,0-2.1C187.7,144.7,187.9,144.4,188.2,144.3z M188.2,144.8c-0.2,0.2-0.4,0.5-0.5,0.9
					c0.8,0,1.6,0,2.4,0c-0.1-0.2-0.1-0.5-0.3-0.7C189.5,144.5,188.7,144.4,188.2,144.8z"/>
			</g>
			<path class="st6" d="M175.5,144.9c0-0.2,0-0.5,0-0.7c0.4,0,0.8,0,1.2,0c0,1.2,0,2.4,0,3.7c-0.3,0-0.5,0-0.8,0c0-1,0-2,0-3
				C175.8,144.9,175.7,144.9,175.5,144.9z"/>
			<path class="st6" d="M195.5,144.2c0.3,0,0.7,0,1,0c0,1.2,0,2.4,0,3.7c-0.2,0-0.4,0-0.6,0c0-1,0-2.1,0-3.1c-0.1,0-0.3,0-0.4,0
				C195.5,144.6,195.5,144.4,195.5,144.2z"/>
		</g>
		<g>
			<g>
				<path class="st6" d="M198.9,144.1c0.3-0.1,0.6,0,0.9,0.1c0.3,0.1,0.5,0.4,0.6,0.7c0.2,0.4,0.3,0.9,0.2,1.4
					c-0.1,0.6-0.4,1.1-0.9,1.4c-0.4,0.2-0.8,0.3-1.2,0.3c-0.3,0-0.6-0.2-0.8-0.4c-0.2-0.3-0.4-0.6-0.4-1c0-0.4,0-0.8,0.1-1.2
					c0.1-0.3,0.3-0.6,0.6-0.8C198.3,144.3,198.6,144.1,198.9,144.1z M198.9,145c-0.2,0-0.3,0.2-0.5,0.3c-0.2,0.2-0.3,0.5-0.3,0.8
					c0,0.2,0,0.4,0.1,0.6c0.1,0.2,0.2,0.4,0.4,0.4c0.2,0.1,0.3,0.1,0.5,0c0.2,0,0.4-0.1,0.5-0.3c0.2-0.2,0.3-0.5,0.3-0.8
					c0-0.2,0-0.4-0.1-0.6c-0.1-0.2-0.2-0.4-0.4-0.4C199.2,144.9,199.1,144.9,198.9,145z"/>
			</g>
		</g>
	</g>
</g>
<polygon id="Galleria_Stara_Zagora3.002" class="st2" points="386.1,12.5 181.6,12.5 151,70.8 179.4,85.5 179.4,98 386.1,98 "/>
<polygon id="Galleria_Stara_Zagora3.046" class="st2" points="219.4,117 187.8,117 163.1,165.1 187.8,178.5 "/>
<polygon id="Galleria_Stara_Zagora3.044" class="st2" points="187.3,179.8 167,219.2 146.4,207.7 167.2,169 "/>
<polygon id="Galleria_Stara_Zagora3.042" class="st2" points="166.2,220.5 122.8,304.6 114.5,315.4 80.2,289 34.4,288.7 93.6,177.1 
	114.5,187.6 112.4,191.1 "/>
<polygon id="Galleria_Stara_ZagoraNFC8" class="st2" points="131,321.4 104.7,356 116,364.7 96.8,391.1 146.2,426.1 190.8,362.3 "/>
<polygon id="Galleria_Stara_ZagoraNFC7" class="st2" points="191.5,363.3 217.1,379.9 174.3,445.2 147.4,427.1 "/>
<polygon id="Galleria_Stara_ZagoraNFC6" class="st2" points="218.2,381.1 240.1,394.9 197.6,460.8 175.4,445.9 "/>
<polygon id="Galleria_Stara_ZagoraNFC5" class="st2" points="241.3,395.7 261.4,408.3 233.4,451.9 221.1,444.3 207.1,466.8 
	198.9,461.5 "/>
<polygon id="Galleria_Stara_ZagoraNFC4" class="st2" points="262.7,409.4 233.6,453.8 221.8,446.3 208.2,468.1 266.3,504.6 
	279.9,482.3 264.9,473 292.5,427.5 "/>
<polyline id="Galleria_Stara_ZagoraNFC3" class="st2" points="293.6,428.4 266.9,472.6 281.8,481.6 267.3,505.6 279,512.3 
	319.5,444.3 293.4,428.4 "/>
<polygon id="Galleria_Stara_ZagoraNFC2" class="st2" points="320.2,444.8 280.4,513.1 298.1,523.7 338,455 "/>
<polygon id="Galleria_Stara_ZagoraNFC1" class="st2" points="339.2,455.9 307.9,510 337.2,525.9 366.6,471.7 "/>
<polygon id="Galleria_Stara_ZagoraNFC10" class="st2" points="367.7,472.9 347.3,510.7 370.5,523.4 391.3,485.7 "/>
<polygon id="Galleria_Stara_ZagoraN3.024" class="st2" points="392.6,486.8 371.6,523.7 408.1,543.8 428.1,506.5 "/>
<path id="Galleria_Stara_ZagoraN3.022" class="st2" d="M442.3,516.5l-41.5,78.9c79.9,40.7,143.9,69.5,159.8,74.7V558l-10.6-5.3
	l-18.9,7.1L442.3,516.5z"/>
<path id="Galleria_Stara_ZagoraN3.021" class="st2" d="M562,558.8v108.7c20.1-37.4,35-41.9,55.9-47.3v-45.9h-24.1L562,558.8z"/>
<path id="Galleria_Stara_Zagora3.020" class="st2" d="M812.4,265.5v494c0,0-171.5-55.9-174.7-59.1V250.1H705v15.8L812.4,265.5z"/>
<polygon id="Galleria_Stara_Zagora3.018" class="st2" points="637.7,248.3 637.7,205.6 698.5,205.6 698.5,235.9 738.6,235.9 
	738.6,248.3 "/>
<polygon id="Galleria_Stara_Zagora3.016" class="st2" points="812.3,12.4 636.9,12.4 636.9,93.8 570.6,93.8 570.6,12.4 466,12.4 
	466,60.9 405.6,60.9 405.6,99.4 544.2,99.4 634.7,178.9 634.7,187 738.6,187 738.6,123.6 753.8,123.6 753.8,116.2 812.3,116.2 "/>
<polygon id="Galleria_Stara_ZagoraN3.030" class="st2" points="557.8,236.2 557.8,388.4 542.2,388.4 542.2,386.9 517.5,386.9 
	517.5,372.3 439.7,372.3 439.7,322.8 445.8,322.8 445.8,298.8 455.3,298.8 455.3,236.2 "/>
<polygon id="Galleria_Stara_ZagoraFC2-3" class="st2" points="444,236.2 420.3,236.2 420.3,222.9 414,222.9 414,214.7 385.2,214.7 
	385.2,320.7 443.5,320.7 443.5,298.1 437,298.1 437,277.3 444,277.3 "/>
</svg>
