<?xml version="1.0" encoding="UTF-8"?><svg id="Layer_4" xmlns="http://www.w3.org/2000/svg" viewBox="0 0 789.58 634.18"><defs><style>.cls-1{font-size:28.2px;}.cls-1,.cls-2,.cls-3,.cls-4,.cls-5,.cls-6,.cls-7,.cls-8,.cls-9,.cls-10,.cls-11,.cls-12,.cls-13,.cls-14,.cls-15,.cls-16,.cls-17,.cls-18,.cls-19,.cls-20{fill:#1d1d1b;}.cls-1,.cls-2,.cls-3,.cls-4,.cls-5,.cls-6,.cls-7,.cls-8,.cls-9,.cls-10,.cls-11,.cls-12,.cls-21,.cls-14,.cls-15,.cls-16,.cls-17,.cls-18,.cls-19{font-family:Axiforma-Bold, Axiforma;}.cls-22{letter-spacing:-.02em;}.cls-23{letter-spacing:-.05em;}.cls-2{font-size:12.6px;}.cls-3{font-size:7.02px;}.cls-24{fill:#ed7013;}.cls-4{font-size:10.48px;}.cls-25{letter-spacing:-.01em;}.cls-26{fill:#f6f6f6;}.cls-27{letter-spacing:-.03em;}.cls-28{letter-spacing:-.03em;}.cls-29{letter-spacing:-.07em;}.cls-30{letter-spacing:-.01em;}.cls-31{letter-spacing:-.11em;}.cls-5{font-size:9.22px;}.cls-32{letter-spacing:-.04em;}.cls-6{font-size:7.09px;}.cls-33{letter-spacing:-.07em;}.cls-34{letter-spacing:-.04em;}.cls-35{letter-spacing:-.03em;}.cls-36{letter-spacing:-.02em;}.cls-37{letter-spacing:0em;}.cls-38{letter-spacing:-.03em;}.cls-39{letter-spacing:-.02em;}.cls-40{letter-spacing:-.03em;}.cls-41{letter-spacing:-.02em;}.cls-7{font-size:10.4px;}.cls-42{letter-spacing:0em;}.cls-8{font-size:7.58px;}.cls-43{letter-spacing:-.01em;}.cls-44{letter-spacing:-.01em;}.cls-45{letter-spacing:0em;}.cls-46{letter-spacing:-.05em;}.cls-47{letter-spacing:-.02em;}.cls-48,.cls-49,.cls-50{fill:none;stroke-miterlimit:10;}.cls-48,.cls-50{stroke:#1d1d1b;}.cls-51{letter-spacing:-.01em;}.cls-52{letter-spacing:0em;}.cls-53{letter-spacing:-.03em;}.cls-54{letter-spacing:-.01em;}.cls-9{font-size:5.83px;}.cls-10{font-size:17.36px;}.cls-55{letter-spacing:-.03em;}.cls-56{letter-spacing:-.03em;}.cls-57{letter-spacing:-.01em;}.cls-58{letter-spacing:-.07em;}.cls-11{font-size:3.85px;}.cls-12{font-size:20.16px;}.cls-59{letter-spacing:-.11em;}.cls-60{letter-spacing:-.03em;}.cls-13{fill-rule:evenodd;}.cls-61{letter-spacing:-.01em;}.cls-62{letter-spacing:-.01em;}.cls-63{letter-spacing:-.02em;}.cls-64{letter-spacing:0em;}.cls-65{letter-spacing:-.07em;}.cls-49{stroke:#12100b;}.cls-50{stroke-width:2px;}.cls-66{letter-spacing:-.02em;}.cls-67{letter-spacing:0em;}.cls-68{letter-spacing:-.07em;}.cls-21{fill:#ee7113;font-size:28.4px;}.cls-69{letter-spacing:-.02em;}.cls-70{letter-spacing:-.01em;}.cls-71{letter-spacing:-.02em;}.cls-14{font-size:10.22px;}.cls-15{font-size:7.99px;}.cls-72{letter-spacing:-.02em;}.cls-73{letter-spacing:0em;}.cls-74{letter-spacing:-.07em;}.cls-75{letter-spacing:0em;}.cls-76{letter-spacing:-.03em;}.cls-77{letter-spacing:0em;}.cls-16{font-size:22.9px;}.cls-78{letter-spacing:0em;}.cls-17{font-size:15.19px;}.cls-79{letter-spacing:0em;}.cls-18{font-size:13.98px;}.cls-19{font-size:7.91px;}.cls-80{letter-spacing:-.03em;}.cls-81{letter-spacing:-.03em;}.cls-82{letter-spacing:-.03em;}.cls-83{letter-spacing:-.02em;}</style></defs><g id="cladire"><g><path class="cls-26" d="M5,81.22H784.58v504.47l-4.72,.26c-21.79,1.22-45.84,1.84-71.49,1.84h0c-153.48,0-327.89-22.04-344.22-24.15-1.78,.64-3.62,1.25-5.46,1.83-36.33,11.21-75.04,16.89-115.06,16.89-42.23,0-71.81-6.41-77.41-7.72l-121.31,14.92-39.88,5.22V81.22Z"/><path class="cls-26" d="M779.58,86.22v494.74c-22.8,1.27-46.77,1.83-71.22,1.83-161.9,0-344.79-24.27-344.79-24.27-2.02,.75-4.14,1.48-6.37,2.16-41.74,12.88-81.37,16.67-113.59,16.67-46.18,0-77.12-7.8-77.13-7.8l-122.2,15.03-34.27,4.49V86.22H779.58m10-10H0V600.48l11.3-1.48,34.24-4.48,120.39-14.8c7.55,1.71,36.7,7.65,77.68,7.65s79.73-5.76,116.54-17.12c1.53-.47,3.04-.97,4.54-1.49,22.29,2.85,193.02,24.04,343.68,24.04,25.75,0,49.9-.62,71.78-1.84l9.44-.53V76.22h0Z"/><path class="cls-50" d="M779.58,580.97V86.22H10v502.86l34.27-4.49,122.2-15.03s89.14,22.47,190.71-8.87c2.23-.69,4.35-1.41,6.37-2.16,0,0,242.3,32.15,416.01,22.44Z"/></g></g><g id="magazine"><polyline class="cls-48" points="611.35 86.47 611.35 97.51 578.13 97.51 578.13 119.53 545.71 119.53 545.71 190.09 676.11 190.09 676.11 242.99 745.54 242.99 745.54 184.13 779.58 184.21"/><polyline class="cls-48" points="314.27 86.22 314.27 120.9 366.93 120.9 365.88 190.5 224.11 190.5 224.11 122.35 211.61 122.35 211.61 86.22"/><polyline class="cls-48" points="344.99 190.5 344.99 133.48 337.17 133.48 337.17 120.9"/><line class="cls-48" x1="325.23" y1="120.9" x2="325.23" y2="190.5"/><line class="cls-48" x1="276.52" y1="86.22" x2="276.52" y2="190.5"/><polyline class="cls-48" points="240.48 190.5 240.48 132.67 224.11 132.67"/><polyline class="cls-48" points="78.14 322.43 214.11 322.43 214.11 133.8 207.66 133.8"/><line class="cls-48" x1="210.56" y1="133.8" x2="9.84" y2="133.8"/><line class="cls-48" x1="10" y1="322.43" x2="78.14" y2="322.43"/><polyline class="cls-48" points="10 420.73 47.34 420.73 47.34 367.75 10 367.75"/><polyline class="cls-48" points="44.27 584.6 44.27 534.84 69.35 534.84 69.35 521.37 10 521.37"/><polyline class="cls-48" points="214.11 322.43 213.46 563.79 166.48 569.57"/><polyline class="cls-48" points="213.73 462.83 177.41 462.83 177.41 568.22"/><polyline class="cls-48" points="69.35 521.37 69.68 488.31 213.66 488.31"/><path class="cls-48" d="M363.56,558.53c-45.68-5.38-77.32-11.68-111.47-18.69v-53.71h159.59v36.85h-34.68v37.32"/><line class="cls-48" x1="277.88" y1="545.04" x2="277.88" y2="486.13"/><line class="cls-48" x1="344.67" y1="486.13" x2="344.67" y2="556.22"/><line class="cls-48" x1="377.01" y1="522.99" x2="377.01" y2="486.13"/><polyline class="cls-48" points="439.91 567.25 439.91 534.6 444.5 534.6 444.5 523.95 422.25 523.95 422.49 486.13 647.72 486.13 647.72 520.73 644.1 520.73 644.1 574.44 618.53 574.44 618.53 580.67"/><polyline class="cls-48" points="696.76 582.76 696.76 575.6 679.09 575.6 679.09 574.08 679.09 555.57 675.47 555.57 675.47 401.3 745.14 401.3 745.14 476.38 767 476.38 767 471.86 780.38 471.86"/><line class="cls-48" x1="745.14" y1="476.38" x2="745.14" y2="581.24"/><line class="cls-48" x1="679.09" y1="555.57" x2="745.14" y2="555.57"/><line class="cls-48" x1="675.47" y1="522.83" x2="744.78" y2="522.83"/><polyline class="cls-48" points="745.14 504.68 714.74 504.68 675.47 504.68"/><polyline class="cls-48" points="675.47 489.84 714.74 489.84 714.74 504.68"/><line class="cls-48" x1="675.47" y1="455.25" x2="745.14" y2="455.25"/><line class="cls-48" x1="675.47" y1="422.26" x2="745.14" y2="422.26"/><polyline class="cls-48" points="780.3 245.49 760.62 245.49 760.62 253.88 675.47 253.88 675.47 390.09 762.16 390.09 762.16 400.17 779.58 400.17"/><line class="cls-48" x1="675.47" y1="288.15" x2="780.3" y2="288.15"/><path class="cls-48" d="M615.63,223.08l22.3,22.3v86.25c-13.77,.46-26.38,5.65-38.18,14.11h-48.22v-47.01h-5.89v8.31h-7.42v6.29h-26.37v7.02h-134.27v25.48h-97.82c17.63-15.45,30.45-34.3,37.84-56.95,4.45-13.62,6.93-28.63,7.33-45.1,95.63-14.42,192.55-21.17,290.71-20.69Z"/><path class="cls-48" d="M325.07,289.12v0Z"/><line class="cls-48" x1="325.07" y1="289.12" x2="317.6" y2="289.12"/><line class="cls-48" x1="511.84" y1="313.31" x2="511.84" y2="225.35"/><polyline class="cls-48" points="511.36 255.9 476.8 255.9 476.8 253.96 411.12 253.96 411.12 232.57"/><line class="cls-48" x1="444.83" y1="229.73" x2="444.83" y2="253.96"/><line class="cls-48" x1="476.8" y1="253.96" x2="476.8" y2="227.32"/><line class="cls-48" x1="494.14" y1="255.9" x2="494.14" y2="226.23"/><line class="cls-48" x1="545.63" y1="298.72" x2="545.63" y2="223.98"/><polyline class="cls-48" points="551.52 298.72 577.97 298.72 577.97 223.24"/><line class="cls-48" x1="578.77" y1="287.83" x2="637.56" y2="287.83"/><line class="cls-48" x1="577.97" y1="254.93" x2="637.93" y2="254.93"/><line class="cls-48" x1="602.72" y1="223.05" x2="602.72" y2="254.93"/><path class="cls-48" d="M589.26,355.65H268.06l-16.01,7.75v67.65l22.22,22.9c101.91,.72,198.99-5.54,290.3-20.13-.06-27.27,7.17-53.47,24.69-78.18Z"/><polyline class="cls-48" points="277.82 354.85 277.82 375.53 277.82 454.15"/><line class="cls-48" x1="252.05" y1="375.25" x2="277.82" y2="375.25"/><line class="cls-48" x1="252.05" y1="389.06" x2="277.58" y2="389.06"/><line class="cls-48" x1="252.05" y1="421.94" x2="277.88" y2="421.94"/><polyline class="cls-48" points="379.18 355.65 379.18 405.84 379.18 452.13"/><polyline class="cls-48" points="344.35 453.32 344.35 406.22 379.18 406.22"/><polyline class="cls-48" points="511.66 355.2 511.66 406.3 477.89 406.3 477.89 444.36"/><polyline class="cls-48" points="545.28 355.2 545.28 389.07 545.28 436.77"/><line class="cls-48" x1="571.11" y1="389.2" x2="545.28" y2="389.2"/><polyline class="cls-48" points="611.35 97.51 611.35 121.95 623.85 121.95 623.85 190.09"/><line class="cls-48" x1="578.13" y1="119.53" x2="578.13" y2="190.09"/><line class="cls-48" x1="410.84" y1="86.22" x2="410.84" y2="189.93"/><line class="cls-48" x1="325.07" y1="324.23" x2="299.97" y2="324.23"/><line class="cls-48" x1="429.56" y1="320.33" x2="429.56" y2="355.65"/><line class="cls-48" x1="461.24" y1="320.33" x2="461.24" y2="355.65"/><polyline class="cls-49" points="39.25 221.62 39.25 279.83 9.84 279.83"/><polyline class="cls-48" points="677.02 189.13 708.75 157.41 708.75 132.55 739.14 132.55 739.14 140.95 778.34 140.95"/><polyline class="cls-48" points="376.32 86.47 376.32 190.5 463.95 190.5 463.95 119.53 487.26 119.53 487.26 86.22"/><polyline class="cls-48" points="487.26 119.53 514.85 119.53 514.85 190.5 463.95 190.5"/><line class="cls-48" x1="490.61" y1="119.53" x2="490.61" y2="190.5"/><polyline class="cls-48" points="314.47 486.13 314.47 515.42 344.67 515.42"/></g><g id="logo"><g><path class="cls-13" d="M556.82,151.56c.07-.16,.41-.91,.2-.93,0,0-.17,.09-.26,.39-.09,.31-.14,.46-.14,.58s.13,.11,.21-.05Z"/><path class="cls-13" d="M571.09,151.97c.08-.36,.23-.74,.04-.81,0,0-.16-.03-.32,.41-.17,.43-.29,.86-.16,.92,.14,.07,.36-.16,.44-.52Z"/><path class="cls-13" d="M564.97,152.07c-.13,.3-.36,.86-.4,1.25-.04,.39-.05,.62,.13,.71,.18,.1,.39-.71,.42-.81,.04-.1,.23-1.11,.16-1.3-.09-.26-.23-.04-.3,.14Z"/><path class="cls-13" d="M566.98,151.64c-.15,.38-.41,1.1-.46,1.6-.05,.5-.06,.79,.14,.91,.2,.12,.44-.9,.48-1.03,.04-.13,.27-1.41,.18-1.66-.11-.33-.26-.05-.35,.18Z"/><path class="cls-13" d="M562.13,140.37l-16.86,11.75,16.81,11.91,16.68-11.96-16.64-11.7Zm-3.49,14.25c-.09,.02-.18,.03-.27,.05-.25,.09-.13,.42-.43,.52-.25,.08-.92,.09-1.23,.04-.43-.01-.86-.03-1.29-.04-.12,0-.25-.02-.37-.03-.07-.01-.14-.06-.23-.04-.21,.04-.28,.21-.45,.28-.34,.14-.93,.08-1.24-.05-.49-.22-.33-.74-.42-1.35,0-.21-.02-.43-.03-.64,.05-.8,.09-1.59,.14-2.39,.14-.83,.28-1.59,.5-2.33,.09-.28-.21-.43-.05-.7,.16-.26,.55-.39,.87-.49,.09-.02,.18-.04,.27-.05h.25c.47,0,1.03,.05,1.2,.28,.21,.3-.09,.33-.14,.49-.03,.22-.06,.45-.09,.67-.04,.34-.09,.69-.13,1.03-.04,.36-.09,.73-.14,1.09-.09,.52-.17,1.04-.26,1.55-.07,.35-.14,.71-.2,1.06-.03,.14-.06,.35,0,.47,.12,.04,.81,.16,.94,.1-.03-.14-.06-.29-.08-.43-.02-.24-.05-.47-.07-.71,0-.16,0-.32,0-.48,.04-.22,.01-.42,.05-.62,.13-.59,.34-1.12,.58-1.6,.15-.3,.38-.94,.9-.81,.45,.11,.66,.62,.53,1.2-.09,.37-.27,.71-.44,1.01-.14,.24-.25,.49-.41,.71-.11,.16-.44,.25-.51,.37-.05,.08-.03,.67,0,.79,.01,.05,.04,.08,.07,.11,.24,.02,.41-.23,.54-.36,.54-.56,.57-1.62,.94-2.35,.2-.39,.41-.78,.99-.53,.08,.05,.16,.1,.24,.15,.12,.15,.17,.66,.11,.93-.12,.64-.36,1.25-.71,1.68-.13,.16-.56,.27-.5,.56,.06,.28,.2,.34,.5,.39,.1,.02,.23,0,.3-.03,.14-.06,.2-.19,.32-.28,.08-.06,.29-.12,.32,.03,.07,.4-.59,.64-.88,.73Zm16.61-.33c-.72,.7-1.78,.39-1.78,.39-1.18-.31-1.14-2.07-1.15-2.23,0-.16-.11-.14-.11-.14-.23,1.58-.62,2.56-1.54,2.42-.93-.14-.75-1.72-.75-1.72h-.06c-.21,1.89-1.34,1.65-1.34,1.65l-.1,1.93c-.05,.3-.13,.36-.29,.33-.17-.02-.26-.1-.24-.27,.05-1.21,.08-3.55,.09-4.78,.02-.16-.14-.03-.14-.03,.04,.3-.13,1.45-.13,1.45-.44,2.14-1.31,1.78-1.31,1.78-1.07-.31-.62-2.22-.53-2.5,.09-.28,.17-.53,.17-.69,0-.16-.39-.13-.39-.13,.11,.21,.06,1.05,.06,1.05-.07,1.67-.87,2.27-1.26,2.24-.39-.03-.56-.44-.59-.52-.03-.09-.15-.03-.15-.03-1.2,.98-2.48,.53-2.48,.53-1.44-.58-1.53-1.54-1.33-3.05,.2-1.51,1.04-3.33,1.35-3.93,.31-.6,.5-.77,1.62-.64,1.12,.14,1.29,.86,1.29,.86,.31,1.24,.01,2.24-.12,2.81-.14,.58-.56,.83-.76,.73-.2-.1-.12-.59-.12-.59,0,0,.04-.17,.11-.98,.07-.81-.1-1.13-.1-1.13-.26-.4-.47,.07-.74,.81-.27,.74-.41,2.61-.41,3.23s.24,1.13,.91,1.15c.66,.02,.8-.4,.8-.4-.13-1.55,.77-2.64,.99-2.86,.22-.22,.52-.3,.67-.01,.15,.29,.26,.24,.55,.24s.45-.08,.66-.51c.21-.42,.57-.46,.57-.46,.55,.02,.58,.52,.6,.61,.02,.09-.08,.29,.15,.24,.23-.04,.17-.17,.17-.17,0,0,.19-1.24,.27-1.55,.08-.3,.71-.42,.83-.1,.12,.32-.1,.51-.1,.51v.27s.52-.09,.74,.59c.22,.67,.13,1.69,.13,1.69h.04l.02-.07c.32-1.87,.93-2.19,1.19-2.27,.26-.08,.44,.14,.46,.56,.02,.42-.18,1.36-.18,1.36-.24,1.33-.97,1.31-.97,1.31,0,0-.12,1.1,.52,.96,.64-.14,.82-2.39,.82-2.84s.1-.79,.3-.93c.2-.14,.6-.19,.67,0,.07,.18-.14,.21-.24,.27-.1,.06-.03,.12,.09,.19,.12,.07,.12,.18,.12,.18,0,0,0,.85,.03,1.25,.03,.4,.1,1.18,.67,1.63,.57,.45,1.41-.06,1.58-.14,.17-.07,.25,.03,.27,.18v.05c0,.12-.07,.2-.07,.2Z"/><path class="cls-13" d="M569.08,150.83s-.42,.73-.42,1.74-.06,1.39,.13,1.41c.18,.02,.49-1.08,.49-1.49s.15-1.73-.19-1.66Z"/><path class="cls-13" d="M558.42,152.36c.09-.19,.49-1.08,.24-1.11,0,0-.2,.1-.31,.47-.11,.36-.17,.54-.17,.7s.16,.14,.25-.05Z"/></g><g><path class="cls-20" d="M411.57,261.01c-1.34,.6-2.38-.03-4.01,3.33-5.14,10.55-9.13,19.11-13.88,31.43,.14-10.12,1.95-18.17,3.03-28.02,.2-1.82,.48-4.32,.44-6.2-.03-1.45-1.48-1.64-4.39-.2-1.62,.8-3.57,.73-4.31,2.65-3.16,8.19-10.47,30.97-13.86,43.85-.81,3.1,2.25,3.61,3.17,.44,2.23-7.67,7.33-24.66,10.36-33.41-.31,8.01-2.49,20.67-1.47,27.31,.32,2.09,2.27,2.99,3.27,4.76,.71,1.26,1.86,1.38,2.49-.33,2.97-8.1,8.75-22.39,14.33-33.81-1.09,5.03-5.29,26.38-6.45,34.89-.24,1.71,1.86,1.75,3.72,4.32,.42,.58,2.02,1.2,2.31-.27,.99-5.1,7.46-38.25,10-48.77,.68-2.84,.49-4.27-4.74-1.94Z"/><path class="cls-20" d="M369.22,285.09c2.23-3.33,2.88-2.65,3.41-3.66,.67-1.27,.23-2.46-2.16-2.17,0,0-.9,.06-2.56,.25,2.64-6.8,4.95-12.57,6.62-16.96,.56-1.49,.64-2.58-.29-2.8-.99-.24-3.84,1.3-5.59,1.61-.56,.1-1.09,.69-1.28,1.11-2.81,6.45-5.33,12.61-7.51,18.21-2.79,.48-6.06,1.1-9.71,1.92,2.61-6.71,5.25-13.32,7.83-19.69,1.27-3.13-2.07-3.43-3.37-.25-1.68,4.12-4.83,11.85-8.32,20.85-2.57,.63-5.28,1.35-8.13,2.17-2.06,.6-2.15,1.15-1.26,2.38,.5,.69,1.51,.62,1.98,1.11,1.21,1.27,1.93,2.8,4.09,3.03-1.93,5.14-3.85,10.45-5.59,15.55-1.09,3.2,2.02,3.86,3.22,.47,1.93-5.47,3.96-11,6.05-16.52,1.74-.4,5.95-1.31,9.85-2.16-3.09,8.46-5.12,14.89-5.89,18.02-.15,.6,.1,.94,.22,1.18,1.04,1.52,2.03,1.58,3.37,3.45,.36,.51,1.58,.79,2-.47,2.86-8.64,5.8-16.75,8.55-24.02,1.14-.25,3.19-.74,4.45-2.62Z"/><path class="cls-20" d="M371.33,298.3c-.2,.18-.41,.37-.62,.58-.24-.74-.48-1.5-.71-2.21,.67-.82,1.32-1.64,1.88-2.5,2.3-3.58-2.25-5.64-4.2-3.32-1.04,1.24-.78,2.46-.5,3.5,.09,.32,.22,.79,.39,1.34-.56,.57-1.23,1.29-2.12,2.32-2.22,2.58-1.62,5.92,.76,6.66,1.44,.45,2.79-.2,3.96-1.24,.06,.15,.12,.3,.17,.43,.62,1.55,2.54,1.08,1.81-.79-.13-.33-.29-.77-.47-1.28,.38-.48,.72-.96,1.03-1.41,1.41-2.1,.05-3.33-1.38-2.09Zm-1.5-4.92c-.22,.24-.42,.46-.62,.67-.05-.18-.1-.35-.13-.49-.66-2.5,2.2-1.81,.76-.18Zm-1.55,7.6c-.87,.53-1.56-.04-.39-1.64,.2-.27,.39-.53,.59-.79,.2,.61,.41,1.23,.61,1.84-.27,.22-.54,.43-.82,.6Z"/></g><g><rect class="cls-20" x="130.03" y="169.21" width="5.53" height="21.9"/><polygon class="cls-20" points="109.88 169.41 102.9 191.11 96.78 191.11 92.1 176.56 87.42 191.11 81.3 191.11 74.32 169.41 79.94 169.41 84.36 183.15 88.78 169.41 95.42 169.41 99.84 183.15 104.26 169.41 109.88 169.41"/><polygon class="cls-20" points="31.47 169.21 37 169.21 37 186.31 47.03 186.31 47.03 191.11 37 191.11 31.47 191.11 31.47 186.31 31.47 169.21"/><polygon class="cls-20" points="144.07 181.07 144.07 191.11 138.54 191.11 138.54 169.21 144.07 169.21 144.07 177.57 150.42 169.21 157.58 169.21 149.91 179.3 158.64 191.11 151.48 191.11 144.07 181.07"/><rect class="cls-20" x="159.38" y="169.21" width="5.53" height="21.9"/><polygon class="cls-20" points="173.13 181.07 173.13 191.11 167.6 191.11 167.6 169.21 173.13 169.21 173.13 177.57 179.49 169.21 186.65 169.21 178.98 179.3 187.7 191.11 180.54 191.11 173.13 181.07"/><rect class="cls-20" x="188.81" y="169.21" width="5.53" height="21.9"/><path class="cls-13" d="M46.84,179.11c0-5.76,4.67-10.43,10.43-10.43h2.6c4.71,0,8.69,3.12,9.99,7.41h-5.65c-1.06-1.94-3.12-3.26-5.5-3.26h-.08c-3.46,0-6.26,2.8-6.26,6.26v2.29c0,3.46,2.8,6.26,6.26,6.26h.08c2.37,0,4.44-1.32,5.5-3.27h5.65c-1.3,4.28-5.28,7.41-9.99,7.41h-2.6c-5.76,0-10.43-4.67-10.43-10.43v-2.23Z"/><path class="cls-13" d="M110.38,170.47s7.85-3.85,14.16-.07c0,0,3.09,1.96,3.02,7.71l.07,13.25h-4.97v-10.1s-8.69-.77-8.9,3.08c-.21,3.86,3.43,3.37,3.43,3.37,0,0,3.08-.35,4.2-2.38v4.27s-2.59,2.59-6.37,2.31c-3.79-.28-5.89-3.02-5.89-3.02,0,0-1.96-2.37-.63-6.37,1.33-4,6.31-4.56,6.31-4.56,0,0,2.03-.35,7.07-.28,0,0,.42-3.43-1.82-4.13-2.24-.7-5.6-.14-5.6-.14,0,0-3.08,.77-5.4,2.45l1.33-5.4Z"/></g><g><rect class="cls-20" x="27.29" y="237.44" width=".89" height="3.51"/><polygon class="cls-20" points="24.06 237.47 22.94 240.95 21.96 240.95 21.21 238.62 20.46 240.95 19.47 240.95 18.35 237.47 19.26 237.47 19.96 239.68 20.67 237.47 21.74 237.47 22.45 239.68 23.16 237.47 24.06 237.47"/><polygon class="cls-20" points="11.48 237.44 12.37 237.44 12.37 240.18 13.98 240.18 13.98 240.95 12.37 240.95 11.48 240.95 11.48 240.18 11.48 237.44"/><polygon class="cls-20" points="29.54 239.34 29.54 240.95 28.66 240.95 28.66 237.44 29.54 237.44 29.54 238.78 30.56 237.44 31.71 237.44 30.48 239.06 31.88 240.95 30.73 240.95 29.54 239.34"/><rect class="cls-20" x="32" y="237.44" width=".89" height="3.51"/><polygon class="cls-20" points="34.21 239.34 34.21 240.95 33.32 240.95 33.32 237.44 34.21 237.44 34.21 238.78 35.23 237.44 36.38 237.44 35.15 239.06 36.55 240.95 35.4 240.95 34.21 239.34"/><rect class="cls-20" x="36.72" y="237.44" width=".89" height="3.51"/><path class="cls-13" d="M13.95,239.03c0-.92,.75-1.67,1.67-1.67h.42c.76,0,1.39,.5,1.6,1.19h-.91c-.17-.31-.5-.52-.88-.52h-.01c-.55,0-1,.45-1,1v.37c0,.55,.45,1,1,1h.01c.38,0,.71-.21,.88-.52h.91c-.21,.69-.85,1.19-1.6,1.19h-.42c-.92,0-1.67-.75-1.67-1.67v-.36Z"/><path class="cls-13" d="M24.14,237.64s1.26-.62,2.27-.01c0,0,.5,.31,.48,1.24v2.13h-.79v-1.62s-1.39-.12-1.43,.49c-.03,.62,.55,.54,.55,.54,0,0,.49-.06,.67-.38v.69s-.41,.42-1.02,.37-.94-.48-.94-.48c0,0-.31-.38-.1-1.02,.21-.64,1.01-.73,1.01-.73,0,0,.33-.06,1.13-.05,0,0,.07-.55-.29-.66-.36-.11-.9-.02-.9-.02,0,0-.49,.12-.87,.39l.21-.87Z"/></g><g><path class="cls-20" d="M73.28,283.89c-1.89,0-3.43-1.17-3.43-2.61s1.54-2.61,3.43-2.61,3.43,1.17,3.43,2.61-1.54,2.61-3.43,2.61Zm0-4.23c-1.32,0-2.43,.74-2.43,1.61s1.11,1.61,2.43,1.61,2.43-.74,2.43-1.61-1.11-1.61-2.43-1.61Z"/><path class="cls-20" d="M73.66,288.17c-.18,0-.29,0-.31,0l-.48-.02,.02-5.35,.58,.1c.06,0,2.03,.24,4.87-2.19,2.6-2.23,6.73-2.15,6.9-2.15h.49v5.38l-.55-.05c-.1,0-2.57-.22-4.7,1.96-2.12,2.16-5.72,2.33-6.81,2.33Zm.22-4.28v3.27c1.15-.03,4.15-.28,5.87-2.03,1.87-1.9,3.98-2.22,4.97-2.26v-3.31c-1.12,.05-3.92,.34-5.74,1.89-2.34,2.01-4.2,2.39-5.1,2.44Z"/><path class="cls-13" d="M88.11,279.98c0-.55,.45-.92,1.15-.92s1.15,.37,1.15,.92v6.54c0,.55-.45,.92-1.15,.92s-1.15-.37-1.15-.92v-6.54h0Z"/><path class="cls-13" d="M92.62,280.13c0-.76,.46-1.08,1.44-1.08,.47,0,.89,.15,1.15,.48l4.01,5.2h.03v-4.8c0-.6,.42-.89,1.1-.89s1.1,.29,1.1,.89v6.35c0,.73-.39,1.15-1.36,1.15-.73,0-.96-.12-1.26-.49l-3.98-5.05h-.03v4.66c0,.6-.42,.89-1.1,.89s-1.1-.29-1.1-.89v-6.41h0Z"/><path class="cls-13" d="M105.71,280.75h-2.16c-.66,0-1.19-.27-1.19-.78s.53-.78,1.19-.78h6.62c.66,0,1.19,.27,1.19,.78s-.53,.78-1.19,.78h-2.16v5.76c0,.55-.45,.92-1.15,.92s-1.15-.37-1.15-.92v-5.76h0Z"/><path class="cls-13" d="M112.22,280.28c0-.82,.53-1.08,1.34-1.08h5.38c.67,0,1.16,.16,1.16,.74s-.49,.74-1.16,.74h-4.43v1.75h3.88c.6,0,1.08,.13,1.08,.71s-.48,.71-1.08,.71h-3.88v1.95h4.54c.67,0,1.16,.16,1.16,.74s-.49,.74-1.16,.74h-5.49c-.81,0-1.34-.26-1.34-1.08v-5.93h0Z"/><path class="cls-13" d="M124.3,280.62h2.36c1.01,0,1.66,.22,1.66,1.09,0,.91-.87,1.09-1.73,1.09h-2.29v-2.18h0Zm-2.29,5.9c0,.55,.45,.92,1.15,.92s1.15-.37,1.15-.92v-2.37h2.26c1.26,0,1.58,.57,1.58,1.99,0,.33,.1,1.3,1.35,1.3,.53,0,1.08-.29,1.08-.72,0-.38-.31-.73-.31-1.66,0-.82-.21-1.51-1.38-1.64v-.02c1.09-.2,1.73-1.07,1.73-1.94,0-1.04-.73-2.25-3.45-2.25h-3.81c-.81,0-1.34,.26-1.34,1.08v6.23h0Z"/><path class="cls-13" d="M140.19,281.31c-.85-.24-1.87-.4-2.95-.4-.6,0-1.64,.01-1.64,.53,0,1.04,5.23,.06,5.23,3.14,0,2.14-2.63,2.68-4.84,2.68-1.47,0-2.68-.11-4.1-.38v-2.07c1.02,.34,2.28,.53,3.42,.53,.9,0,1.71-.15,1.71-.55,0-1.08-5.23-.1-5.23-3.21,0-2.2,2.85-2.59,5.11-2.59,1.07,0,2.25,.1,3.29,.27v2.05h0Z"/><path class="cls-13" d="M144.14,281.22h.34c.6,0,1.34,.03,1.34,.66s-.69,.73-1.32,.73h-.36v-1.39h0Zm-3.49,5.83h3.49v-2.41h1.85c2.02,0,3.29-1.02,3.29-2.66,0-1.99-1.72-2.95-4.05-2.95h-4.59v8.02h0Z"/><path class="cls-13" d="M154.5,281.54c1.15,0,1.87,.71,1.87,1.56,0,.91-.77,1.54-1.87,1.54s-1.87-.63-1.87-1.54c0-.85,.71-1.56,1.87-1.56h0Zm0-2.64c-3.03,0-5.52,1.64-5.52,4.16s2.47,4.12,5.52,4.12,5.52-1.54,5.52-4.12-2.49-4.16-5.52-4.16h0Z"/><path class="cls-13" d="M163.44,281.22h.28c.62,0,1.16,.07,1.16,.69s-.59,.67-1.19,.67h-.25v-1.36h0Zm-3.54,5.83h3.54v-2.57h.07l1.59,2.57h4.18l-2.17-2.61c-.2-.23-.42-.36-.61-.48v-.06c1.35-.36,1.93-.87,1.93-2.08,0-2.02-1.9-2.79-4.15-2.79h-4.38v8.02h0Z"/><polygon class="cls-13" points="168.01 279.03 175.63 279.03 175.63 281.63 173.63 281.56 173.63 287.05 170.01 287.05 170.01 281.56 168.01 281.63 168.01 279.03 168.01 279.03"/><path class="cls-13" d="M177.5,280.38c-.48,0-.83-.28-.83-.67s.35-.67,.83-.67,.83,.28,.83,.67-.36,.67-.83,.67h0Zm0,.21c.6,0,1.09-.39,1.09-.88s-.48-.88-1.09-.88-1.09,.39-1.09,.88,.48,.88,1.09,.88h0Zm.25-.82c.2-.01,.31-.08,.31-.25,0-.24-.18-.28-.44-.28h-.55v.91h.25v-.38h.18l.25,.38h.27l-.27-.38h0Zm-.43-.14v-.23h.24c.11,0,.26,0,.26,.09,0,.11-.07,.14-.2,.14h-.3Z"/></g><g><polygon class="cls-13" points="92.9 404.26 107.52 387.37 119.99 401.46 126.38 394.26 126.52 400.31 105.73 423.85 103.06 420.84 106.47 417.2 96.76 405.91 93.17 409.84 92.9 404.26 92.9 404.26"/><polygon class="cls-13" points="156.3 382.58 176.99 382.58 176.99 387.87 173.73 387.87 173.73 406.72 186.49 398.79 186.54 412.64 156.18 412.64 156.18 407.17 159.59 407.17 159.61 387.87 156.32 387.87 156.3 382.58 156.3 382.58"/><path class="cls-13" d="M105.73,386.14c4.42,0,8.05-4.14,8.05-9.19s-3.63-9.16-8.05-9.16-8.07,4.11-8.07,9.16,3.61,9.19,8.07,9.19h0Z"/><polygon class="cls-13" points="63.3 382.92 83.98 382.92 83.98 388.21 80.73 388.21 80.73 407.06 93.5 399.13 93.52 412.98 63.19 412.98 63.19 407.54 66.57 407.54 66.59 388.21 63.28 388.21 63.3 382.92 63.3 382.92"/><path class="cls-13" d="M143.93,412.59h-21.55v-5.32h3.66l-.07-19.22h-3.66v-5.21h21.73c6.3-.03,11.31,4.98,11.38,14.82-.05,10.16-5.61,14.93-11.5,14.93h0Zm-4.3-9.3c2.51-.03,4.6-1.65,4.62-6.02,0-4.24-2.16-6.1-4.57-6.1l-.05,12.13h0Z"/></g><g id="Brandingmodul_Deichmann_quadratisch_vertikal"><path id="Deichmann" class="cls-20" d="M294.91,380.22c.02,3.88-.42,7.83-1.7,7.84h-1.66l-.1-15.57h1.48c1.2-.01,1.95,2.47,1.98,7.73m2.3,.04c-.05-7.8-1.39-14.11-3.99-14.09-.15,0-4.06,.02-4.06,.02l.17,28.24s3.9-.02,4.06-.02c2.6-.02,3.86-6.35,3.81-14.15m1.39,14.11l6.6-.04-.04-6.1-4.34,.03-.03-5.1,3.6-.02-.04-5.85-3.6,.02-.03-5.1,4.34-.03-.04-6.1-6.6,.04,.17,28.25Zm8.2-.05l2.25-.02-.17-28.24h-2.25l.17,28.26Zm5.95-14.18c-.03-4.75,.41-8.82,1.81-8.83,.95,0,1.43,2.1,1.63,4.52h2.24c-.15-6.32-1.67-10.77-3.91-10.75-2.81,.01-4.12,6.77-4.07,15.08,.05,8.32,1.44,15.04,4.25,15.03,2.34-.01,3.7-4.79,3.78-10.94h-2.23c-.11,2.51-.56,4.59-1.58,4.6-1.39,0-1.88-3.95-1.91-8.7m12.6,14.07h2.26l-.17-28.26h-2.26l.07,10.78-3.31,.02-.07-10.77h-2.25l.17,28.26h2.25l-.07-11.17,3.31-.02,.07,11.16Zm11.78-.07h2.08l-.17-28.26-3.25,.02-1.43,18.64h-.02l-1.66-18.62-3.25,.02,.17,28.25h2.08l-.13-21.14h.02l1.91,21.11h1.86l1.65-21.15h.02l.13,21.12Zm8.29-10.5h-1.9l.87-10.67h.02l1,10.67Zm1,10.44h2.42l-3.08-28.24h-2.76l-2.76,28.28h2.42l.38-4.61,2.96-.02,.44,4.59Zm8.75-.05l2.49-.02-.17-28.25h-2.18l.11,17.7h-.02l-3.25-17.66-2.59,.02,.17,28.25h2.18l-.11-17.86h.02l3.35,17.82Zm12.42-.08l-.17-28.25h-2.18l.11,17.7h-.02l-3.25-17.67-2.6,.02,.17,28.25h2.18l-.11-17.86h.02l3.35,17.82h2.49Z"/></g><path class="cls-20" d="M493.2,538.21h-25.03v-.77l18.74-19h-15.53l-.39,4.75h-1.16l.51-5.52h23.49v.64l-19.12,19h17.33l.51-5.9h1.28l-.64,6.8h0Zm116.16-6.42h-10.4l-3.34,5.65h6.03v.77h-11.81v-.77h4.49l11.94-20.15h.64l11.42,20.15h4.36v.77h-15.53v-.77h5.26l-3.08-5.65h0Zm-9.88-.9h9.5l-4.62-8.09h-.13l-4.75,8.09h0Zm-76.76,.9h-10.4l-3.34,5.52h6.03v.77h-11.81v-.77h4.49l11.94-20.15h.64l11.42,20.15h4.36v.77h-15.4v-.77h5.39l-3.34-5.52h0Zm-10.14-.9h9.5l-4.62-8.09h-.13l-4.75,8.09h0Zm39.92,6.42v-18.87h-5.13v-.77h24.39c3.47,0,4.36,2.82,4.36,4.62,0,2.57-.64,4.62-4.36,5.39-.13,0-.64,0-1.28,.13l5.52,9.63h4.36v.77h-9.88l-5.9-10.4h-6.16v9.63h5.13v.77h-16.17v-.77h5.13v-.13Zm5.78-18.87v8.47h5.78c1.28,0,2.18-.13,2.95-.26,.9-.13,1.8-.64,2.31-1.28,.64-.64,.9-1.8,.9-3.08,0-1.16-.39-2.05-.9-2.57-.64-.64-1.28-.9-2.18-1.03-.77-.26-1.93-.26-3.34-.26h-5.52Z"/><path class="cls-20" d="M501.25,412.19c-2.4,0-3.99,1.62-3.99,3.78s1.59,3.78,3.99,3.78,3.99-1.62,3.99-3.78-1.59-3.78-3.99-3.78Zm0,7.19c-1.55,0-2.67-1.11-2.67-3.41s1.13-3.41,2.67-3.41,2.67,1.11,2.67,3.41-1.12,3.41-2.67,3.41Zm9.51-6.8l.39,.26c.26,.17,.26,.27,.09,.55l-.17,.27c-.22,.35-.68,1.07-.92,1.49l-.22,.36c-.17,.29-.32,.53-.32,.53,0,0-.13-.25-.22-.38l-.1-.16c-.4-.64-.95-1.44-1.43-2.09l-.2-.27c-.09-.12-.04-.2,.03-.27l.32-.29v-.07h-2.34v.07l.43,.3c.16,.11,.29,.25,.4,.4l.19,.25c.32,.4,1.23,1.65,1.76,2.5l.17,.27c.07,.11,.1,.24,.09,.38v2.08c0,.1-.04,.2-.13,.25l-.52,.38v.06h2.37v-.06l-.52-.38c-.09-.05-.14-.15-.13-.25v-2.04c0-.16,.05-.32,.14-.45l.22-.36c.51-.84,.95-1.53,1.43-2.25l.17-.26c.15-.23,.34-.43,.58-.58l.36-.25v-.07h-1.92v.07h0Zm21.03-.39c-2.4,0-3.99,1.62-3.99,3.78s1.59,3.78,3.99,3.78,3.98-1.62,3.98-3.78-1.59-3.78-3.98-3.78Zm0,7.24c-1.59,0-2.67-1.16-2.67-3.45s1.08-3.45,2.67-3.45,2.67,1.16,2.67,3.45-1.08,3.45-2.67,3.45Zm-7.73-6.86l.52,.38c.09,.05,.14,.15,.13,.25v2.47h-3.71v-2.47c0-.1,.04-.2,.13-.25l.52-.38v-.06h-2.37v.06l.52,.38c.09,.05,.14,.15,.13,.25v5.57c0,.1-.04,.2-.13,.25l-.52,.38v.06h2.37v-.06l-.52-.38c-.09-.05-.14-.15-.13-.25v-2.69h3.71v2.69c0,.1-.04,.2-.13,.25l-.52,.38v.06h2.37v-.06l-.52-.38c-.09-.05-.14-.15-.13-.25v-5.57c0-.1,.04-.2,.13-.25l.52-.38v-.06h-2.37v.06Zm-7.81,2.99l-.77-.48c-.59-.38-1.03-.75-1.03-1.36,0-.66,.48-1.11,1.16-1.11s1.13,.35,1.47,.91l.23,.38h.09v-1.3s-.64-.35-1.6-.35c-1.3,0-2.17,.85-2.17,1.88,0,.75,.33,1.47,1.36,2.11l.77,.48c.59,.36,1.1,.74,1.1,1.44,0,.79-.52,1.2-1.26,1.2s-1.27-.27-1.73-1.03l-.32-.53h-.09v1.52c.57,.27,1.2,.4,1.83,.4,1.43,0,2.4-.82,2.4-2.05,0-.87-.44-1.49-1.44-2.11h0Z"/><g><path class="cls-13" d="M741.7,343.89c-.25,0-.66-.25-.66-.69,0,0,.23-5.9,.23-7.35,0-.38-.1-.33-.28-.33s-1.18,.33-1.57,.33c-.27,0-.29-.18-.29-.29,0-.34,1.37-.77,2.04-.92,.29-.06-.04-.96,.71-.96,.63,0,.48,.59,.68,.59,.33,0,1.36-.19,2.94-.05,1.14,.1,5.3,1.2,5.3,5.67,0,1.81-1.41,5.65-7.43,5.65-1.63,0-4.11-.77-3.93-1.32,.05-.16,.23-.36,.51-.22,.91,.44,2.51,.59,3.67,.59,1.45,0,5.58-.88,5.58-5.22,0-2.98-3.44-4.41-6.42-4.03,0,0-.24,.04-.24,.31,0,.13-.04,5.33-.04,6.72,0,.06,.02,1.52-.82,1.52h0Z"/><path class="cls-13" d="M764.99,338.58c0-.35,.28-.63,.63-.63s.63,.28,.63,.63-.28,.63-.63,.63-.63-.28-.63-.63h0Z"/><path class="cls-13" d="M718.61,338.38c0-.32,.26-.58,.58-.58s.58,.26,.58,.58-.26,.58-.58,.58-.58-.26-.58-.58h0Z"/><path class="cls-13" d="M689.84,343.04l1.92-7.88s.12-.61,.33-.75c.32-.22,.7-.21,.7-.21,0,0,.61,.04,.86,.22,.22,.16,.36,.72,.36,.72l.96,5.85s.1,.81,.38,.81,.46-.62,.46-.62l2.4-6.39s.17-.5,.39-.73c.2-.21,.54-.22,.54-.22h.74s.32,.03,.53,.27c.23,.25,.2,.85,.2,.85l.49,9.36s.1,1.09-.69,1.11c-.83,.02-.83-.71-.83-.71l-.17-8.11s-.09-.39-.31-.39c-.1,0-.26,.41-.26,.41l-2.44,6.17s-.4,1.21-1.38,1.18c-.91-.03-1.13-1.18-1.13-1.18l-.95-4.99s-.12-.47-.31-.47c-.17,0-.28,.47-.28,.47l-1.2,5.23s.02,.88-.78,.86c-.82-.02-.53-.86-.53-.86h0Z"/><path class="cls-13" d="M760.3,342.91c-.22,0-.65-.08-.65-.63s0-2.26,0-2.71,.14-.43,.32-.43h1.3c.32,0,.36,0,.36,.38s-.11,2.11-.28,2.47c-.23,.5-.47,.91-1.04,.91h0Zm-9-.34c0-.42,.51-.47,.8-.8,.42-.48,.27-1.33,.94-1.33,.77,0,.3,1.52,.41,2.31,.03,.24,.17,.45,.45,.45,.59,0,1.03-.56,1.28-1.19,.23-.56,.3-1.18,.46-1.52,.08-.17,.24-.19,.33-.2,.49-.05,.52,.58,.53,1.2,0,.42,.03,.85,.03,1.06,0,.03,.17,.53,.6,.53,.33,0,1.7-.18,1.52-3.71-.01-.29-.03-.26-.19-.28-.13-.02-.77,.01-1.25-.06-.13-.02-.45-.23-.46-.48-.01-.19,.23-.41,.37-.46,.26-.09,1.23-.04,1.33-.04,.06,0,.22,.03,.26-.06,.09-.43,.17-1.66,.17-2.09,0-.13,.11-.41,.48-.41,.5,0,.51,.33,.51,.51v1.85c0,.14,.02,.21,.08,.21h1.63c.13,0,.24-.13,.24-.21,0-.13,.08-1.13,.08-1.4s.04-.97,.52-.97,.42,.43,.42,.58v1.97h.85c.58,0,.82,.43,.82,.63,0,.42-.31,.48-.43,.48h-1.16c-.13,0-.18,.45-.18,.59s-.13,2.03-.13,2.27c0,.58,.27,1.02,.78,1.02s1.12-.74,1.21-1.08c.09-.36,.2-.88,.35-1.24,.14-.35,.3-.38,.51-.38s.48,.07,.42,.79c-.07,.78-.08,.82-.08,1.19s.37,1.2,1.03,1.2c.2,0,.63,.04,1.19-.14,.51-.17,.45-.09,.45,.15,0,.22-.64,.48-1.16,.64-.51,.15-1.09,.12-1.37-.03-.53-.29-.69-.47-.8-.58-.11-.11-.19-.1-.25-.1-.58,0-.58,.75-1.53,.75s-.96-.74-1.62-.74c-.54,0-.72,.79-1.4,.79-.77,0-.83-.75-1.59-.75s-.69,.75-1.69,.75c-.75,0-1.03-.87-1.56-.87-.65,0-.63,1.02-1.79,1.02-1.47,0-1.12-1.63-1.6-1.63-.27,0-.09,.14-.52,.14-.27,0-.3-.19-.3-.33h0Z"/><path class="cls-13" d="M706.18,340.93s.22,.09,.23,.3c0,.17,0,1.06,0,1.06,0,0,0,.34-.77,.65-.77,.31-.99,.19-1.3,.12-.31-.07-.64-.55-.64-.81s.11-.66,.4-.93c.29-.27,.52-.33,.75-.38,.22-.05,.78-.04,.92-.04s.42,.03,.42,.03h0Zm9.78,1.61s-.71,.13-.64,.53c0,0-.08,.21,.34,.24,0,0,.45,.09,.52-.16,0,0,.1-.04-.11-.46l-.11-.15h0Zm-4.04,.09s-.71,.13-.64,.53c0,0-.08,.21,.34,.24,0,0,.45,.09,.52-.16,0,0,.1-.04-.11-.46l-.11-.15h0Zm10.98,1.36c-.82,0-.29-1.48-1.04-1.48s-.87,1.29-2.06,1.29-.89-2.13-1.41-2.09c-.67,.06-1.13,.21-1.13,.46s.16,.23,.16,.76-.27,1.18-1.86,1.18c-1.16,0-1.59-.63-1.59-.95,0-.89,1.37-.99,1.37-1.24,0-.14-.43-.76-.67-.78-.3-.03-1.67,.97-1.67,1.17s.35,.47,.35,1.12c0,.82-.77,.88-1.49,.88s-1.8-.42-1.8-.89c0-.13-.02-.34,.12-.52,.3-.41,.7-.59,.99-.74,.15-.08,.14-.02,.14-.11s-.39-.43-.49-.43c-.05,0-.16-.09-.33,.08-.59,.59-.7,2.18-2.28,2.18-1.05,0-1.09-.69-1.59-.69-.43,0-1.12,.7-2.59,.7s-1.75-1.34-1.75-1.84c0-.39,.13-1.86,2.7-1.86,1.18,0,1.39,.4,1.61,.4,.08,0,.21,.02,.26-.03,.08-.08,.1-.11,.21-.11s.43-.03,.47,0c.04,.04,.21,.09,.21,.28s-.23,.76-.23,.92c0,.09-.03,.32-.04,.53,0,.17,.02,.32,.02,.33,0,.13,.04,.48,.69,.48,.76,0,1.45-.97,1.58-1.79,.08-.5,.03-1.26,.03-1.36s-.04-.21,.1-.28c.02-.01,.18-.1,.25-.1,.06,0,.13,.04,.21,.12,.04,.04,.45,.58,.98,1.08,.44,.41,.85,.61,1.2,.86,.06,.04,1.45-1.02,1.45-1.13v-.62c0-.26,.27-.47,.44-.47,.48,0,1.64,2.1,2.2,2.1,.35,0,1.49-.48,1.66-.55,.14-.06,.61-.66,.61-.72s.81,.06,.81,.47-.03,1.92,.32,1.92c1.44,0,1.24-2.44,2.26-2.44,.85,0,.36,1.64,1,1.64s.68-1.76,1.81-1.76c.45,0,.45,1.36,.98,1.36,.8,0,.88-1.32,1.71-1.32,1.43,0,.11,3.14,1.34,3.14,1.37,0,1.22-2.68,1.9-2.68,.99,0-.77,2.73,1.73,2.73,1.5,0,2.34-1.88,.74-2.36-.68-.2-1.18,.31-1.49,0-.08-.08,.2-.44,.38-.51,.12-.05,.38-.14,1.02-.14s2.2,.11,2.2,1.8c0,1.31-1.64,2.23-2.68,2.23-1.85,0-1.52-.92-2.29-.92-.66,0-.86,1.04-1.82,1.04-1.58,0-.89-2.66-1.61-2.66-.91,0-.78,2.26-1.82,2.26-.78,0-.24-2.19-.84-2.19s-1.03,2.24-1.65,2.24h0Z"/></g><g><path class="cls-13" d="M476.93,385.72c1.46-1.81,2.87-3.56,4.28-5.31,.85-1.05,1.69-2.11,2.54-3.17,.06-.07,.11-.14,.23-.13,.91,0,1.81,0,2.77,0-.35,.44-.67,.84-.99,1.25-1.31,1.64-2.62,3.29-3.93,4.92-.08,.1-.07,.17-.02,.27,.53,1,1.05,1.99,1.58,2.99,.62,1.18,1.25,2.36,1.87,3.54,.66,1.26,1.32,2.52,2,3.77,.12,.23,.07,.26-.16,.25-.77-.01-1.54,0-2.3,0-.14,0-.21-.04-.28-.17-1.42-2.73-2.84-5.46-4.27-8.2-.05-.09-.09-.19-.15-.3-.35,.31-.63,.69-.94,1.03-.73,.82-1.44,1.64-2.16,2.46-.08,.1-.07,.19-.07,.29,0,1.54,0,3.07,0,4.61,0,.21-.04,.28-.27,.28-.63-.02-1.26-.01-1.88,0-.18,0-.21-.05-.21-.22,0-7.73,0-15.46,0-23.2,0-.17,.04-.22,.22-.22,.63,.01,1.26,.02,1.88,0,.23,0,.26,.07,.26,.28,0,4.85,0,9.7,0,14.56v.41Z"/><path class="cls-13" d="M458.92,379.42c.32-.3,.59-.56,.86-.81,.73-.67,1.53-1.25,2.5-1.54,1.48-.45,2.95-.41,4.35,.29,1.09,.54,1.74,1.45,2.08,2.6,.14,.47,.21,.95,.21,1.44,0,4.14,0,8.27,0,12.41,0,.23-.05,.31-.29,.3-.6-.02-1.2-.02-1.81,0-.23,0-.27-.06-.27-.27,0-4.15,.02-8.31,0-12.46,0-1.01-.41-1.87-1.4-2.31-.63-.28-1.32-.32-2-.21-1.46,.24-2.62,1.02-3.69,2-.44,.4-.56,.81-.56,1.38,.02,3.87,.01,7.73,.02,11.6,0,.21-.04,.28-.26,.28-.61-.02-1.22-.02-1.83,0-.22,0-.27-.05-.27-.27,0-7.43,0-14.87,0-22.3,0-.28,0-.56,0-.84,0-.16,.03-.23,.21-.22,.64,.01,1.27,.01,1.91,0,.2,0,.24,.05,.24,.24,0,2.78,0,5.57,0,8.35v.35Z"/><path class="cls-13" d="M446.83,394.44c-1.85,0-3.36-.35-4.75-1.2-.82-.5-1.49-1.15-2.09-1.9-.09-.11-.06-.18,.05-.26,.53-.39,1.06-.78,1.59-1.19,.13-.1,.16-.04,.24,.05,.52,.67,1.1,1.27,1.84,1.7,1.13,.66,2.36,.86,3.66,.71,.72-.08,1.4-.28,1.96-.75,.9-.74,1.24-1.79,.8-2.86-.23-.56-.68-.93-1.18-1.25-.84-.53-1.79-.75-2.71-1.08-1.08-.39-2.2-.68-3.25-1.13-1.42-.6-2.45-1.68-2.54-3.47-.05-.95,.09-1.87,.57-2.7,.28-.48,.63-.9,1.09-1.24,1.03-.74,2.2-1.06,3.46-1.11,1.48-.05,2.84,.32,4.12,1.03,.72,.4,1.34,.92,1.89,1.53,.09,.1,.17,.22,.26,.32,.08,.09,0,.15-.06,.19-.46,.4-.92,.79-1.37,1.19-.12,.11-.17,.11-.29-.01-.45-.46-.87-.95-1.42-1.31-1.06-.71-2.21-1.04-3.48-.9-.94,.1-1.82,.38-2.21,1.35-.41,1-.32,1.89,.56,2.6,.63,.51,1.39,.77,2.14,1.03,1.22,.42,2.42,.87,3.65,1.26,.98,.31,1.79,.85,2.41,1.64,.71,.91,.96,1.95,.88,3.1-.05,.8-.26,1.53-.69,2.21-.47,.74-1.12,1.27-1.89,1.68-.93,.5-2.19,.78-3.24,.75Z"/><path class="cls-13" d="M432.89,380.49c.16-.26,.31-.51,.47-.75,.46-.69,.96-1.34,1.63-1.85,.76-.58,1.63-.88,2.56-1,.25-.03,.5-.07,.75-.06,.12,0,.15,.04,.14,.15,0,.69,0,1.38,0,2.07,0,.11-.03,.14-.15,.15-.36,.03-.72,.07-1.08,.16-1.02,.26-1.85,.79-2.51,1.61-.88,1.11-1.42,2.39-1.86,3.72-.03,.08-.02,.17-.02,.26,0,2.96,0,5.92,0,8.88,0,.21-.03,.28-.26,.28-.63-.02-1.26-.01-1.88,0-.17,0-.22-.04-.22-.22,0-5.52,0-11.05,0-16.57,0-.17,.04-.22,.21-.21,.65,.01,1.29,.01,1.94,0,.17,0,.22,.04,.21,.21,0,.97,0,1.94,0,2.91,0,.08-.03,.17,.04,.27Z"/><path class="cls-13" d="M409.32,386.42c-.3-1.5-1.09-2.69-2.3-3.6-.59-.44-1.25-.78-1.98-.95-.05-.01-.11-.02-.12-.08,0-.07,.07-.06,.11-.08,.38-.16,.77-.31,1.13-.51,.78-.43,1.44-1,1.91-1.76,.62-.99,.82-2.09,.78-3.24-.07-2.36-1.24-4.01-3.32-5.04-1.11-.55-2.33-.66-3.55-.67-2.72-.01-5.45,0-8.17,0-.23,0-.29,.06-.29,.29,0,3.85,0,7.7,0,11.55h0v11.41q0,.4,.42,.4c2.39,0,4.78,0,7.17,0,.88,0,1.76-.04,2.62-.21,1.22-.23,2.41-.55,3.45-1.29,.88-.62,1.52-1.42,1.87-2.44,.43-1.23,.5-2.49,.25-3.77Zm-13.15-9.75c0-1.24,0-2.48,0-3.72,0-.18,.03-.25,.24-.25,1.82,.01,3.65-.01,5.47,.02,.78,.01,1.56,.11,2.29,.4,1.05,.42,1.69,1.17,1.94,2.26,.18,.77,.21,1.55-.01,2.32-.29,.99-.96,1.66-1.81,2.16-1.01,.59-2.13,.77-3.28,.78-1.53,0-3.05,0-4.58,0-.2,0-.26-.05-.26-.26,.01-1.24,0-2.48,0-3.72Zm10.34,12.78c-.39,.93-1.11,1.52-2.01,1.9-.93,.39-1.92,.52-2.92,.54-1.72,.03-3.44,0-5.15,.02-.2,0-.26-.05-.26-.26,0-1.42,0-2.84,0-4.27h0c0-1.43,0-2.86,0-4.29,0-.16,.03-.22,.21-.22,1.5,0,3-.03,4.5,.01,1.12,.03,2.23,.17,3.26,.66,.97,.46,1.76,1.11,2.26,2.07,.37,.69,.45,1.45,.44,2.22,0,.56-.12,1.1-.33,1.62Z"/><path class="cls-13" d="M502.69,393.87c-.27-1.2-.36-2.42-.36-3.65,0-2.91,0-5.81,0-8.72,0-.78-.21-1.51-.6-2.18-.79-1.37-2.06-2.07-3.56-2.38-1.03-.21-2.07-.22-3.12-.06-2.17,.33-3.8,1.46-4.9,3.36-.06,.1-.1,.15,.05,.23,.58,.29,1.16,.59,1.73,.89,.17,.09,.22,.06,.3-.11,.39-.85,.97-1.55,1.83-1.95,1.26-.59,2.59-.65,3.92-.31,.99,.26,1.65,.89,1.9,1.93,.15,.61,.07,1.21,.1,1.82,0,.12-.07,.11-.15,.12-.43,.08-.87,.16-1.3,.25-2.11,.44-4.18,.97-6.1,2-.84,.45-1.58,1.05-2.09,1.87-.68,1.07-.84,2.25-.71,3.5,.13,1.28,.72,2.29,1.73,3.05,.73,.55,1.58,.82,2.49,.88,1.06,.07,2.09-.04,3.09-.43,1.13-.43,2.07-1.12,2.89-1.99,.07-.07,.11-.18,.24-.18,.08,.7,.16,1.4,.24,2.1,0,.08-.04,.2,.13,.2,.76,0,1.52,0,2.28,0-.01-.1-.01-.17-.03-.25Zm-2.71-6.58c0,.72,0,1.43,0,2.15,0,.1,0,.19-.08,.29-1.01,1.1-2.21,1.93-3.62,2.43-.7,.25-1.44,.39-2.17,.19-.92-.25-1.68-.76-2.02-1.69-.3-.82-.18-1.63,.3-2.37,.66-1.01,1.68-1.56,2.75-2.02,1.5-.64,3.06-1.02,4.66-1.3,.18-.03,.18,.04,.18,.17,0,.72,0,1.43,0,2.15Z"/><path class="cls-13" d="M426.94,390.41c-.35-.18-.7-.35-1.05-.53-.21-.1-.45-.32-.62-.27-.17,.05-.27,.35-.4,.55-1.26,1.81-3,2.46-5.01,2.22-1.33-.16-2.34-.92-3.11-2-.88-1.22-1.22-2.61-1.25-4.09,0-.21,.06-.24,.24-.23,1.75,0,3.51,0,5.26,0h2.64c.89,0,1.78,0,2.67,0,.2,0,.24-.05,.24-.24-.01-.59,.01-1.19,0-1.78-.05-1.42-.26-2.82-.94-4.09-.66-1.22-1.6-2.15-2.9-2.68-1.04-.42-2.13-.54-3.24-.46-1.48,.11-2.78,.65-3.85,1.69-.98,.96-1.62,2.11-1.99,3.42-.29,1.01-.43,2.05-.46,3.11-.03,1.12,.01,2.24,.25,3.34,.32,1.5,.92,2.85,2,3.96,.76,.79,1.64,1.39,2.68,1.74,1.33,.45,2.7,.46,4.07,.24,1.04-.17,2.02-.53,2.84-1.21,.84-.69,1.49-1.55,2.03-2.49,.08-.14,0-.16-.09-.21Zm-11.35-6.6c.12-1.19,.41-2.33,1.12-3.33,.65-.92,1.53-1.44,2.65-1.6,.68-.1,1.35-.08,2.01,.11,.64,.18,1.14,.55,1.58,1.04,.84,.94,1.13,2.08,1.23,3.29,.01,.16,.01,.33,.03,.49,.02,.19-.05,.23-.23,.23-1.36,0-2.72,0-4.08,0s-2.72,0-4.08,0c-.19,0-.24-.06-.22-.24Z"/></g><text class="cls-17" transform="translate(647.97 117.37) scale(.86 1)"><tspan x="0" y="0">TERRAN</tspan><tspan class="cls-76" x="61.92" y="0">O</tspan><tspan class="cls-65" x="74.31" y="0">V</tspan><tspan class="cls-63" x="84.5" y="0">A</tspan></text><g><path class="cls-20" d="M622.39,153.58c.05-.2,.05-.34,.04-.41-.02-.11-.07-.16-.18-.2l-.45-.05-.52,.05c-.11,.05-.2,.11-.27,.2-.07,.09-.13,.23-.18,.41-.04,.18-.04,.29-.02,.38,.02,.09,.07,.16,.18,.21l.45,.05,.32-.02,.25-.05,.21-.13,.11-.18,.02-.04h-.52l-.11,.13-.2,.02c-.11,0-.18-.02-.21-.07-.04-.04-.02-.13,.04-.25h1.02l.02-.05Zm-.54-.38c.05,0,.07,.02,.09,.05l-.04,.16h-.52v-.02c.04-.09,.07-.14,.11-.18l.21-.04,.14,.02Z"/><path class="cls-20" d="M616.83,152.37h-.5l-.5,1.84,.52,.02,.2-.72c0-.09,.05-.16,.09-.2,.05-.07,.14-.09,.27-.09,.09,0,.14,.02,.16,.05,.02,.04,.02,.07,.02,.14l-.21,.79,.5,.02,.23-.91c.04-.14,.02-.23-.04-.29-.05-.07-.2-.11-.36-.11l-.3,.05c-.09,.04-.18,.11-.25,.2l-.02-.02,.2-.79Z"/><path class="cls-20" d="M615.17,153.96l-.04-.02,.02-1h-.59l-.54,1.02-.04-.02,.11-1-.5-.02-.05,1.29,.75,.02,.45-.93h.04l-.02,.91,.72,.02,.61-1.29h-.45l-.47,1.02Z"/><path class="cls-20" d="M618.14,152.97c-.13,.05-.23,.11-.29,.2-.07,.13-.14,.25-.16,.41-.05,.14-.05,.27-.04,.38,.02,.09,.07,.16,.16,.21l.48,.05,.3-.02,.27-.05,.18-.13,.13-.2,.02-.02h-.5l-.13,.13-.2,.02c-.11,0-.18-.02-.21-.07-.02-.04-.02-.13,.02-.25h1.04l.02-.05c.05-.18,.07-.32,.05-.41-.04-.11-.09-.16-.2-.2l-.45-.05-.5,.05Zm.41,.21l.14,.02c.05,0,.07,.02,.09,.05l-.02,.16h-.54l.02-.02c0-.09,.05-.14,.09-.18l.21-.04Z"/><path class="cls-20" d="M620.53,152.92l-.25,.04c-.07,.04-.14,.09-.2,.18l-.05-.02,.07-.16v-.02l-.5-.02-.36,1.29,.52,.02,.2-.79c.04-.07,.05-.11,.09-.14,.05-.05,.13-.07,.18-.07,.07,0,.13,.02,.13,.07l-.02,.13-.02,.05,.45,.02,.04-.11,.04-.23c0-.07-.02-.11-.07-.18-.04-.04-.13-.05-.23-.05Z"/><path class="cls-20" d="M609.12,153.44h-.16c-.2,0-.36,.02-.45,.09-.11,.05-.2,.16-.21,.32-.04,.09-.04,.18,0,.23,.02,.07,.07,.09,.14,.11l.3,.04,.2-.02,.18-.05,.14-.13h.04l-.07,.18,.5,.02,.21-.82c.04-.14,.04-.25,0-.32l-.2-.14h-.79c-.11,0-.21,.04-.29,.11-.07,.04-.13,.11-.18,.21l-.02,.04,.52,.02c.02-.07,.04-.11,.09-.14l.18-.02,.14,.02,.07,.09-.02,.11-.07,.21h-.04l-.07-.09-.16-.05Zm.21,.38l-.11,.13-.23,.04h-.09l-.09-.04-.04-.07v-.05c.04-.05,.07-.09,.13-.13l.16-.02,.21,.02,.05,.09v.04Z"/><path class="cls-20" d="M610.78,152.97l.02-.04h-.52l-.34,1.27,.52,.02,.18-.73c.02-.07,.05-.14,.09-.18,.07-.07,.16-.09,.27-.09,.09,0,.14,0,.18,.04,.02,.05,.02,.09,0,.16l-.21,.79,.5,.02,.25-.91c.02-.13,0-.23-.05-.29-.05-.07-.18-.11-.34-.11l-.32,.04c-.09,.04-.16,.11-.25,.21l-.02-.02,.05-.18Z"/><path class="cls-20" d="M612.29,154.24l-.13,.2c-.05,.05-.13,.07-.25,.07h-.05l-.09,.23v.04l.18,.02,.36-.05,.23-.14,.2-.27,.77-1.4h-.52l-.54,1.06h-.02l-.02-1.06-.54-.02,.11,1.29,.29,.02v.02h.02Z"/><path class="cls-20" d="M622.75,149.54c0-.36-.05-.64-.18-.84-.13-.18-.3-.32-.52-.41-.23-.07-.5-.11-.81-.11h-1.7l-.82,.11c-.21,.09-.39,.23-.52,.41-.13,.2-.18,.48-.18,.84v1.09c0,.34,.05,.63,.18,.84,.13,.18,.3,.3,.52,.39l.82,.11h1.7c.3,0,.57-.04,.81-.11,.21-.09,.39-.21,.52-.39,.13-.21,.18-.5,.18-.84v-1.09Zm-3.63,.32c0-.18,.02-.32,.04-.47,.04-.13,.09-.21,.2-.3,.11-.05,.23-.09,.41-.09h1.25c.18,0,.32,.04,.41,.09,.11,.09,.16,.18,.2,.3l.04,.91c.02,.3-.02,.52-.11,.66-.09,.13-.25,.18-.48,.18h-1.34c-.25,0-.41-.05-.5-.18-.09-.14-.13-.36-.11-.66v-.45Z"/><path class="cls-20" d="M617.74,151.94v-.97h-2.56v-2.72h-1.11v3.69h3.67Z"/><path class="cls-20" d="M613.5,149.09v-.84h-3.88v3.69h3.95v-.89h-2.84v-.59h2.5v-.77h-2.5v-.59h2.77Z"/><path class="cls-20" d="M609.23,148.25h-1.27l-1.29,2.81-1.29-2.81h-1.2l1.68,3.69h1.68l1.68-3.69Z"/><path class="cls-20" d="M603.84,148.25h-1.18l-.02,2.68-1.88-2.68h-1.79v3.69h1.11v-2.68l1.9,2.68h1.86v-3.69Z"/><path class="cls-20" d="M598.37,149.09v-.84h-3.9v3.69h3.95v-.89h-2.84v-.59h2.5v-.77h-2.5v-.59h2.79Z"/><path class="cls-20" d="M594.04,151.94v-.02l-2.36-1.88,2.15-1.79h-1.57l-1.59,1.34h-.47v-1.34h-1.09v3.69h1.09v-1.41h.43l1.81,1.41h1.61Z"/><path class="cls-20" d="M587.45,148.27c-.04-.29-.2-.48-.5-.55l-2.59,2.15s-.04,.05-.05,.09v.09l.05,.09,2.84,2.33c.14-.13,.23-.29,.27-.48,.23-1.23,.23-2.47-.02-3.7Z"/><path class="cls-20" d="M585.7,147.59v-.02c-1.61-.11-3.22-.07-4.78,.13-.41,.02-.63,.21-.64,.59-.25,1.23-.25,2.47,0,3.69,.02,.39,.23,.61,.64,.61l4.47,.13-2.52-2.09-.5,1.31h-1.13l-.13-.04c-.14-.05-.18-.14-.13-.29l1.34-3.51h1.48l-.59,1.54,2.47-2.04Z"/></g><g><path class="cls-13" d="M393.07,131.26s1.71-.71,4.19-.1l.03,.97s-2.35-.76-4.21,.08v-.95h-.01Z"/><polygon class="cls-13" points="394.31 131.56 396.11 131.54 396.14 133.53 394.34 133.55 394.31 131.56 394.31 131.56"/><path class="cls-20" d="M390.78,132.25h0c0-.73,.49-1.38,1.31-1.85,.78-.45,1.85-.73,3.03-.75h0c1.18-.02,2.26,.24,3.05,.67,.83,.45,1.35,1.09,1.35,1.82h0c0,.73-.49,1.38-1.31,1.85-.78,.45-1.85,.73-3.03,.75h0c-1.18,.02-2.26-.24-3.05-.67-.83-.45-1.35-1.09-1.35-1.81h0Zm.43,0h0c0,.56,.44,1.06,1.13,1.44,.73,.39,1.74,.63,2.85,.61h0c1.11-.02,2.11-.28,2.83-.69,.68-.39,1.1-.91,1.09-1.47h0c0-.56-.44-1.06-1.13-1.44-.73-.39-1.74-.63-2.85-.61h0c-1.11,.02-2.11,.28-2.83,.69-.68,.39-1.1,.91-1.09,1.47h0Z"/><path class="cls-13" d="M393.07,131.26s1.71-.71,4.19-.1l.03,.97s-2.35-.76-4.21,.08v-.95h-.01Z"/><polygon class="cls-13" points="394.31 131.56 396.11 131.54 396.14 133.53 394.34 133.55 394.31 131.56 394.31 131.56"/><polygon class="cls-13" points="398.9 137.69 400.09 137.67 400.11 139.37 398.92 139.39 398.9 137.69 398.9 137.69"/><path class="cls-13" d="M378.7,138.11s1.14-.47,2.78-.06l.02,.64s-.32-.1-.78-.16l.02,1.16-1.19,.02-.02-1.19c-.28,.04-.56,.11-.82,.23v-.63h0Z"/><path class="cls-13" d="M389.97,137.81c.21,0,.6,.04,.84,.35l.56,1.34-1.18,.02-.62-1.15h-.82l.56,1.15-1.2,.02-.63-1.14h-.58l.02,1.15-1.18,.02-.02-1.7,4.25-.06h0Z"/><path class="cls-13" d="M382.66,138.78c0-.25,.4-.45,.9-.46s.91,.19,.91,.43-.4,.45-.9,.46-.91-.19-.91-.43h0Zm-1.1,.02c0-.55,.88-1.01,1.99-1.02s2.01,.42,2.01,.97-.88,1.01-1.99,1.02-2.01-.42-2.01-.97h0Z"/><path class="cls-13" d="M392.4,137.91s1.14-.47,2.78-.06l.02,.64s-.32-.1-.78-.17l.02,1.16-1.19,.02-.02-1.19c-.28,.04-.56,.11-.82,.23v-.63h0Z"/><path class="cls-13" d="M397.34,138.2h-.56c-.11,.05-.3,.15-.42,.37h.99v-.37h0Zm-.57-.49l1.69-.02,.02,1.7-1.12,.02v-.42l-1.13,.02c-.02,.12-.02,.26,0,.42l-1.17,.02s-.26-1.36,1.72-1.74h0Z"/><polygon class="cls-13" points="400.48 137.66 401.66 137.64 401.67 138.81 402.46 138.79 402.47 139.34 400.51 139.37 400.48 137.66 400.48 137.66"/><path class="cls-13" d="M403.59,138.47c0-.25,.4-.45,.9-.46s.91,.19,.91,.43-.4,.45-.9,.46-.91-.19-.91-.43h0Zm-1.1,.02c0-.55,.88-1.01,1.99-1.02s2.01,.42,2.01,.97-.88,1.01-1.99,1.02c-1.1,.02-2.01-.42-2.01-.97h0Z"/><path class="cls-13" d="M407.72,138.21c0-.14,.24-.25,.54-.26s.54,.1,.54,.24-.24,.25-.54,.26-.54-.1-.54-.24h0Zm-1.13-.36s.38-.32,1.27-.34h.77s1.19,.02,1.23,.58v.14s-.09,.35-.66,.47l.57,.44-.82,.35-1.19-.8v.56l-1.17,.02v-1.43h0Z"/><polygon class="cls-13" points="398.9 137.69 400.09 137.67 400.11 139.37 398.92 139.39 398.9 137.69 398.9 137.69"/><path class="cls-13" d="M378.7,138.11s1.14-.47,2.78-.06l.02,.64s-.32-.1-.78-.16l.02,1.16-1.19,.02-.02-1.19c-.28,.04-.56,.11-.82,.23v-.63h0Z"/><path class="cls-13" d="M389.97,137.81c.21,0,.6,.04,.84,.35l.56,1.34-1.18,.02-.62-1.15h-.82l.56,1.15-1.2,.02-.63-1.14h-.58l.02,1.15-1.18,.02-.02-1.7,4.25-.06h0Z"/><path class="cls-13" d="M382.66,138.78c0-.25,.4-.45,.9-.46s.91,.19,.91,.43-.4,.45-.9,.46-.91-.19-.91-.43h0Zm-1.1,.02c0-.55,.88-1.01,1.99-1.02s2.01,.42,2.01,.97-.88,1.01-1.99,1.02-2.01-.42-2.01-.97h0Z"/><path class="cls-13" d="M392.4,137.91s1.14-.47,2.78-.06l.02,.64s-.32-.1-.78-.17l.02,1.16-1.19,.02-.02-1.19c-.28,.04-.56,.11-.82,.23v-.63h0Z"/><path class="cls-13" d="M397.34,138.2h-.56c-.11,.05-.3,.15-.42,.37h.99v-.37h0Zm-.57-.49l1.69-.02,.02,1.7-1.12,.02v-.42l-1.13,.02c-.02,.12-.02,.26,0,.42l-1.17,.02s-.26-1.36,1.72-1.74h0Z"/><polygon class="cls-13" points="400.48 137.66 401.66 137.64 401.67 138.81 402.46 138.79 402.47 139.34 400.51 139.37 400.48 137.66 400.48 137.66"/><path class="cls-13" d="M403.59,138.47c0-.25,.4-.45,.9-.46s.91,.19,.91,.43-.4,.45-.9,.46-.91-.19-.91-.43h0Zm-1.1,.02c0-.55,.88-1.01,1.99-1.02s2.01,.42,2.01,.97-.88,1.01-1.99,1.02c-1.1,.02-2.01-.42-2.01-.97h0Z"/><path class="cls-13" d="M407.72,138.21c0-.14,.24-.25,.54-.26s.54,.1,.54,.24-.24,.25-.54,.26-.54-.1-.54-.24h0Zm-1.13-.36s.38-.32,1.27-.34h.77s1.19,.02,1.23,.58v.14s-.09,.35-.66,.47l.57,.44-.82,.35-1.19-.8v.56l-1.17,.02v-1.43h0Z"/></g><g><path class="cls-20" d="M350.81,153.38l.28-.4c.16,.26,.4,.4,.64,.4,.2,0,.35-.13,.35-.3,0-.14-.1-.23-.22-.3-.15-.08-.35-.15-.52-.27-.21-.14-.38-.35-.38-.71,0-.47,.33-.83,.83-.83,.28,0,.57,.12,.8,.38l-.26,.42c-.14-.18-.36-.27-.53-.27-.19,0-.31,.11-.31,.27,0,.14,.1,.22,.2,.28,.13,.07,.37,.18,.53,.27,.24,.13,.41,.35,.41,.71,0,.5-.36,.87-.89,.87-.37,0-.71-.18-.92-.53Z"/><path class="cls-20" d="M353.01,151.02h1.64v.53h-1.15v.61h1.07v.53h-1.07v.64h1.15v.53h-1.64v-2.84Z"/><path class="cls-20" d="M357.22,151.02l-.99,2.84h-.39l-1.01-2.84h.56l.64,1.97,.64-1.97h.55Z"/><path class="cls-20" d="M357.5,151.02h1.64v.53h-1.15v.61h1.07v.53h-1.07v.64h1.15v.53h-1.64v-2.84Z"/><path class="cls-20" d="M361.66,151.02v2.84h-.33l-1.26-1.74v1.74h-.48v-2.84h.31l1.28,1.76v-1.76h.48Z"/><path class="cls-20" d="M348.21,157.23l.28-.4c.16,.26,.4,.4,.64,.4,.2,0,.35-.13,.35-.3,0-.14-.1-.23-.22-.3-.15-.08-.35-.15-.52-.27-.21-.14-.38-.35-.38-.71,0-.47,.33-.83,.83-.83,.28,0,.57,.12,.8,.38l-.26,.42c-.14-.18-.36-.27-.53-.27-.19,0-.31,.11-.31,.27,0,.14,.1,.22,.2,.28,.13,.07,.37,.18,.53,.27,.24,.13,.41,.35,.41,.71,0,.5-.36,.86-.89,.86-.37,0-.71-.18-.92-.53Z"/><path class="cls-20" d="M350.41,154.87h1.64v.53h-1.15v.61h1.07v.53h-1.07v.64h1.15v.53h-1.64v-2.84Z"/><path class="cls-20" d="M352.32,156.3c0-.88,.57-1.48,1.25-1.48,.45,0,.83,.24,1.04,.59l-.32,.37c-.17-.24-.41-.41-.69-.41-.43,0-.77,.39-.77,.93s.33,.91,.77,.91c.29,0,.53-.17,.71-.42l.33,.36c-.21,.34-.6,.6-1.07,.6-.69,0-1.25-.58-1.25-1.45Z"/><path class="cls-20" d="M354.79,156.3c0-.83,.55-1.48,1.26-1.48s1.26,.66,1.26,1.47-.55,1.46-1.27,1.46-1.26-.64-1.26-1.46Zm2.02,0c0-.53-.34-.91-.76-.91s-.76,.39-.76,.91,.33,.9,.76,.9,.76-.38,.76-.9Z"/><path class="cls-20" d="M359.77,154.87v2.84h-.33l-1.26-1.74v1.74h-.48v-2.84h.31l1.28,1.76v-1.76h.48Z"/><path class="cls-20" d="M360.31,154.87h.95c.73,0,1.17,.55,1.17,1.43s-.44,1.42-1.19,1.42h-.93v-2.84Zm.95,2.3c.44,0,.66-.4,.66-.88s-.22-.87-.66-.87h-.47v1.75h.47Z"/><path class="cls-20" d="M362.6,157.23l.28-.4c.16,.26,.4,.4,.64,.4,.2,0,.35-.13,.35-.3,0-.14-.1-.23-.22-.3-.15-.08-.35-.15-.52-.27-.21-.14-.38-.35-.38-.71,0-.47,.33-.83,.83-.83,.28,0,.57,.12,.8,.38l-.26,.42c-.14-.18-.36-.27-.53-.27-.19,0-.31,.11-.31,.27,0,.14,.1,.22,.2,.28,.13,.07,.37,.18,.53,.27,.24,.13,.41,.35,.41,.71,0,.5-.36,.86-.89,.86-.37,0-.71-.18-.92-.53Z"/></g><text class="cls-11" transform="translate(15.89 247.57) scale(.85 1)"><tspan class="cls-44" x="0" y="0">S</tspan><tspan class="cls-56" x="2.29" y="0">T</tspan><tspan class="cls-73" x="4.5" y="0">OR</tspan><tspan class="cls-80" x="10.37" y="0">A</tspan><tspan x="12.94" y="0">GE</tspan></text><text class="cls-15" transform="translate(325.62 158.33) scale(.47 1)"><tspan x="0" y="0">TELENOR</tspan></text><g><path class="cls-20" d="M246.24,127.59h2.64v1.55h-1.85v1.79h1.72v1.55h-1.72v1.87h1.85v1.55h-2.64v-8.32Z"/><path class="cls-20" d="M252.9,127.59v8.32h-.53l-2.02-5.1v5.1h-.77v-8.32h.5l2.05,5.15v-5.15h.77Z"/><path class="cls-20" d="M253.54,131.76c0-2.53,.91-4.31,2.06-4.31,.65,0,1.23,.59,1.57,1.35l-.51,1.19c-.27-.57-.65-.93-1.06-.93-.73,0-1.26,1.15-1.26,2.69s.51,2.69,1.25,2.69c.42,0,.81-.38,1.04-.89v-1.14h-1.07v-1.45h1.78v3.42c-.47,1.06-1.09,1.66-1.77,1.66-1.18,0-2.03-1.81-2.03-4.28Z"/><path class="cls-20" d="M258.02,127.59h.78v6.72h1.97v1.6h-2.76v-8.32Z"/><path class="cls-20" d="M262.07,127.59v8.32h-.78v-8.32h.78Z"/><path class="cls-20" d="M262.6,134.49l.45-1.16c.26,.75,.64,1.16,1.03,1.16,.33,0,.56-.37,.56-.89,0-.42-.15-.66-.35-.87-.25-.25-.57-.45-.84-.78-.34-.42-.62-1.04-.62-2.07,0-1.37,.54-2.43,1.33-2.43,.45,0,.92,.34,1.28,1.13l-.42,1.22c-.23-.52-.58-.78-.85-.78-.31,0-.5,.33-.5,.8,0,.42,.16,.65,.32,.82,.21,.2,.59,.52,.86,.8,.38,.39,.66,1.01,.66,2.07,0,1.48-.57,2.53-1.43,2.53-.6,0-1.14-.53-1.47-1.55Z"/><path class="cls-20" d="M266.12,127.59h.78v3.32h1.63v-3.32h.78v8.32h-.78v-3.39h-1.63v3.39h-.78v-8.32Z"/><path class="cls-20" d="M249.8,141.1h.78v3.32h1.63v-3.32h.78v8.32h-.78v-3.39h-1.63v3.39h-.78v-8.32Z"/><path class="cls-20" d="M253.63,145.29c0-2.42,.89-4.34,2.03-4.34s2.03,1.93,2.03,4.31-.88,4.29-2.03,4.29-2.02-1.88-2.02-4.27Zm3.24-.02c0-1.55-.55-2.67-1.22-2.67s-1.22,1.14-1.22,2.67,.53,2.65,1.22,2.65,1.22-1.13,1.22-2.65Z"/><path class="cls-20" d="M258.31,141.1h.52l1.53,4.72,1.51-4.72h.53v8.32h-.78v-4.72l-1.13,3.48h-.27l-1.13-3.48v4.72h-.77v-8.32Z"/><path class="cls-20" d="M263.25,141.1h2.64v1.55h-1.85v1.79h1.72v1.55h-1.72v1.87h1.85v1.55h-2.64v-8.32Z"/></g><g id="LOGO"><path class="cls-20" d="M196.28,523.3c-.12-.02-.68-.12-1.34-.12s-1.22,.09-1.34,.12c-.07,0-.09-.05-.04-.09,.05-.03,1.38-1.05,1.38-1.05,0,0,1.33,1.01,1.38,1.05,.05,.04,.03,.1-.04,.09m-2.31,6.59s-.07,.02-.09,.09c.28,.22,.47,.71,1.05,.71s.78-.49,1.06-.71c-.02-.06-.09-.09-.09-.09,0,0-.36,.08-.97,.08s-.97-.08-.97-.08m.97-.82c-.16,0-.2-.06-.31-.06s-.31,.08-.35,.16c0,.04,.02,.07,.04,.11,.24,.03,.34,.16,.62,.16s.38-.13,.62-.16c.03-.03,.04-.07,.05-.11-.04-.08-.25-.16-.35-.16-.11,0-.15,.06-.31,.06m13.29,2.52c-.02,.32-.05,.63-.09,.95-1.5,.25-2.04-1.09-3.59-1.03,.09,.33,.17,.66,.22,1,1.27,0,1.79,1.19,3.2,1.01-.07,.37-.16,.72-.27,1.08-1.12,.11-1.51-1-2.81-.97,.01,.18,.02,.37,.02,.56,0,.1,0,.21,0,.31,1.1-.01,1.46,1.01,2.52,.96-.13,.36-.28,.71-.44,1.05-.76-.04-1.02-1.01-2.17-.93-.03,.25-.08,.5-.13,.74,1-.07,1.22,.85,1.93,.93-.18,.33-.38,.66-.59,.97-.42-.23-.79-.91-1.6-.96,.08-.26,.15-.51,.22-.78-.71,0-1.53-.28-2.21-.9,.22-1.26-1.74-2.55-1.74-3.47,0-1,.51-1.56,.51-2.91,0-1.01-.49-2.1-1.22-2.84-.14-.15-.29-.26-.46-.37,.68,.84,1.2,1.83,1.2,2.98,0,1.28-.59,1.95-.59,3.12s1.72,2.2,1.72,3.41c0,.48-.15,.94-.65,1.86,.77,.77,1.78,1.19,2.43,1.19,.21,0,.32-.06,.4-.23,.07-.14,.13-.29,.18-.43,.7,.03,1.02,.66,1.41,.92-.21,.29-.44,.56-.67,.83-.26-.29-.61-.77-1.12-.91-.09,.18-.19,.35-.29,.52,.44,.12,.74,.57,.97,.86-.25,.26-.51,.51-.78,.75-.17-.26-.43-.6-.73-.78-.11,.15-.22,.29-.34,.43,.25,.17,.48,.48,.62,.73-.31,.25-.64,.49-.98,.71-.17-1.35-2.01-2.28-1.51-3.85-.16,.28-.36,.62-.36,1.04,0,1.13,1.21,2.03,1.31,3.16-.25,.15-.51,.29-.77,.42-.04-1.24-1.32-2.6-1.32-3.62,0-1.13,1.49-2.28,1.49-3.62s-1.72-2.27-1.72-3.45,.73-1.86,.73-3.37c0-1.11-.52-2.22-1.34-2.94-.14-.13-.28-.23-.45-.32,.77,.92,1.21,1.75,1.21,3.01,0,1.42-.84,2.21-.84,3.6s1.68,2.16,1.68,3.46-1.57,2.39-1.57,3.72c0,1.21,1.38,2.42,1.4,3.86-.3,.13-.61,.25-.92,.36,.18-1.45-1.38-2.95-1.38-4.13,0-1.29,1.63-2.41,1.63-3.8s-1.65-2.05-1.65-3.48,1.01-2.23,1.01-3.81c0-1.23-.61-2.34-1.5-3.03-.02-.02-.04-.03-.06-.04-.08-.06-.15,.01-.09,.09,.63,.79,.97,1.58,.97,2.76,0,1.45-1.17,2.63-1.17,4.03,0,1.65,1.57,2.13,1.57,3.49s-1.68,2.44-1.68,3.89c0,1.34,1.59,2.82,1.31,4.36-.32,.08-.64,.16-.97,.22,.3-1.92-1.26-3.3-1.26-4.56,0-1.36,1.74-2.57,1.74-3.9,0-1.25-1.25-1.66-1.41-2.95-.02-.18-.16-.3-.36-.28-.25,.05-.58,.22-1.09,.22s-.84-.17-1.09-.22c-.19-.03-.34,.1-.36,.28-.16,1.28-1.41,1.69-1.41,2.95,0,1.33,1.74,2.54,1.74,3.9,0,1.26-1.56,2.64-1.26,4.56-.33-.06-.65-.13-.97-.22-.27-1.54,1.32-3.03,1.32-4.36,0-1.44-1.68-2.53-1.68-3.89s1.57-1.83,1.57-3.49c0-1.4-1.17-2.58-1.17-4.03,0-1.18,.34-1.97,.97-2.76,.06-.07,0-.15-.09-.09-.02,.01-.04,.03-.06,.04-.89,.69-1.5,1.8-1.5,3.03,0,1.58,1.02,2.38,1.02,3.81s-1.65,2.08-1.65,3.48,1.63,2.51,1.63,3.8c0,1.19-1.55,2.68-1.38,4.13-.31-.11-.62-.23-.92-.36,.02-1.44,1.4-2.64,1.4-3.86,0-1.33-1.57-2.42-1.57-3.72s1.68-2.07,1.68-3.46-.84-2.18-.84-3.6c0-1.26,.44-2.09,1.21-3.01-.17,.09-.31,.19-.46,.32-.81,.72-1.34,1.83-1.34,2.94,0,1.51,.73,2.19,.73,3.37s-1.72,2.11-1.72,3.45,1.49,2.48,1.49,3.62c0,1.02-1.28,2.37-1.32,3.62-.26-.13-.52-.28-.77-.42,.1-1.13,1.31-2.03,1.31-3.16,0-.42-.19-.76-.36-1.04,.5,1.57-1.35,2.5-1.51,3.85-.34-.22-.66-.46-.97-.71,.14-.25,.37-.56,.62-.73-.12-.14-.23-.28-.34-.43-.3,.18-.56,.52-.73,.78-.27-.24-.53-.49-.78-.75,.23-.29,.53-.73,.97-.86-.1-.17-.2-.34-.29-.52-.51,.13-.86,.62-1.12,.91-.23-.27-.46-.54-.67-.83,.39-.25,.71-.89,1.41-.92,.06,.15,.12,.29,.18,.43,.08,.17,.19,.23,.4,.23,.65,0,1.66-.42,2.43-1.19-.5-.92-.65-1.38-.65-1.86,0-1.21,1.72-2.23,1.72-3.41s-.59-1.85-.59-3.12c0-1.15,.52-2.14,1.19-2.98-.17,.1-.31,.22-.46,.37-.74,.74-1.22,1.83-1.22,2.84,0,1.35,.51,1.91,.51,2.91,0,.93-1.96,2.21-1.74,3.47-.68,.62-1.5,.9-2.21,.9,.06,.26,.13,.52,.22,.78-.8,.04-1.17,.73-1.6,.96-.21-.31-.41-.64-.59-.97,.72-.07,.93-1,1.93-.93-.05-.24-.1-.49-.13-.74-1.15-.08-1.41,.89-2.17,.93-.16-.34-.31-.69-.44-1.05,1.05,.05,1.41-.97,2.52-.96,0-.1,0-.21,0-.31,0-.19,0-.37,.02-.56-1.29-.03-1.69,1.08-2.81,.97-.1-.35-.19-.71-.27-1.08,1.41,.18,1.93-1.01,3.2-1.01,.06-.34,.13-.67,.23-1-1.54-.07-2.08,1.28-3.59,1.03-.04-.31-.07-.63-.09-.95,1.75,.2,2.41-1.24,4-1.07,.15-.38,.33-.75,.52-1.1-2-.35-2.68,1.32-4.54,1.06,.2-7.18,6.08-12.93,13.3-12.93s13.11,5.76,13.31,12.93c-1.86,.26-2.54-1.42-4.54-1.06,.19,.35,.37,.72,.52,1.1,1.59-.17,2.25,1.26,4,1.07m-19.01-5.58c-.98-.4-2.17-.31-3.18,.34-.16-.94-.67-1.78-1.4-2.29-.1-.07-.2,0-.2,.11,.15,1.99-1.01,3.72-2.44,5.24,1.48,.44,2.73-1.46,4.65-.79,.69-1.02,1.56-1.91,2.57-2.62m5.72-1.21c-1.23,0-2.27,.7-2.54,1.6-.02,.07,0,.11,.09,.08,.22-.1,.48-.15,.75-.15,.5,0,.95,.19,1.21,.51,.12,.38,.13,.94,0,1.25-.21-.05-.28-.21-.49-.21s-.36,.14-.7,.14-.38-.16-.61-.16c-.27,0-.31,.27-.31,.58,0,1.37,1.27,3.27,2.61,3.27s2.61-1.9,2.61-3.27c0-.31-.06-.57-.34-.61-.14,.1-.27,.19-.58,.19-.34,0-.44-.14-.64-.14-.24,0-.22,.51-.51,.55-.19-.47-.2-1.06-.04-1.59,.26-.32,.71-.51,1.21-.51,.28,0,.53,.05,.75,.15,.08,.04,.11,0,.09-.08-.27-.9-1.31-1.6-2.54-1.6m1.97,1.98c-.3,0-.64,.09-.86,.33-.02,.07-.02,.16,0,.23,.54-.18,1.01-.19,1.24,.06,.12-.11,.16-.21,.16-.32,0-.18-.18-.3-.55-.3m-4.32,.63c.26-.26,.81-.25,1.37-.04,.03-.28-.48-.59-.99-.59-.37,0-.55,.12-.55,.3,0,.11,.04,.22,.16,.32m8.52-4.66c-.98,.07-1.82,.4-2.51,.96,.29-.82,.66-1.55,1.13-2.25-1.24,.13-2.28,.59-3.04,1.36l-.59-1.55,1.32-1.16-1.76-.13-.71-1.64-.7,1.64-1.76,.13,1.31,1.16-.59,1.55c-.76-.77-1.8-1.23-3.04-1.36,.47,.7,.84,1.42,1.13,2.25-.69-.56-1.53-.9-2.51-.96,.59,.75,1.1,1.56,1.49,2.42,.04,.1,.14,.13,.24,.08,1.34-.66,2.84-1.04,4.44-1.04s3.1,.37,4.44,1.04c.1,.05,.19,.02,.24-.08,.38-.86,.9-1.66,1.49-2.42m2.13,5.88c1.91-.66,3.17,1.24,4.65,.79-1.43-1.52-2.6-3.25-2.44-5.24,0-.12-.1-.18-.19-.11-.73,.51-1.24,1.34-1.4,2.29-1.01-.65-2.2-.74-3.18-.34,1.01,.71,1.88,1.6,2.57,2.62"/></g><text class="cls-5" transform="translate(184.47 480.03) scale(.47 1)"><tspan x="0" y="0">VINOPO</tspan><tspan class="cls-59" x="38.54" y="0">L</tspan><tspan class="cls-27" x="43.28" y="0">Y</tspan></text><text class="cls-5" transform="translate(257.41 514.08) scale(.47 1)"><tspan x="0" y="0">SUBR</tspan><tspan class="cls-83" x="24.88" y="0">A</tspan></text><text class="cls-4" transform="translate(285.75 533.17) scale(.62 1)"><tspan x="0" y="0">GRAND OPTICS</tspan></text><g><path class="cls-20" d="M357.13,422.16l-.46,1.17v1.98h-.75v-7.96h.75v3.76l1.41-3.76h.9l-1.36,3.62,1.46,4.34h-.92l-1.03-3.16Z"/><path class="cls-20" d="M360.18,417.35v7.96h-.75v-7.96h.75Z"/><path class="cls-20" d="M361.01,417.35h1.46c1.12,0,1.79,1.54,1.79,4s-.68,3.96-1.82,3.96h-1.42v-7.96Zm1.46,6.43c.67,0,1.01-1.12,1.01-2.47s-.34-2.43-1.01-2.43h-.71v4.9h.71Z"/><path class="cls-20" d="M364.53,423.96l.43-1.11c.25,.72,.61,1.11,.99,1.11,.31,0,.53-.36,.53-.85,0-.4-.15-.64-.34-.83-.24-.24-.54-.43-.81-.74-.33-.4-.59-.99-.59-1.98,0-1.31,.51-2.33,1.27-2.33,.43,0,.88,.32,1.22,1.08l-.4,1.16c-.22-.5-.56-.74-.82-.74-.3,0-.48,.31-.48,.76,0,.4,.15,.62,.3,.79,.2,.19,.57,.5,.82,.77,.36,.38,.63,.97,.63,1.98,0,1.41-.55,2.42-1.36,2.42-.57,0-1.09-.51-1.41-1.49Z"/><path class="cls-20" d="M350.43,430.29h2.48v1.51h-1.74v1.79h1.53v1.5h-1.53v3.17h-.75v-7.96Z"/><path class="cls-20" d="M355.22,436.52h-1.3l-.29,1.72h-.78l1.42-7.96h.61l1.4,7.96h-.79l-.28-1.72Zm-1.09-1.42h.88l-.43-2.65-.44,2.65Z"/><path class="cls-20" d="M356.3,436.89l.43-1.11c.25,.72,.61,1.11,.99,1.11,.31,0,.53-.36,.53-.85,0-.4-.15-.64-.34-.83-.24-.24-.54-.43-.81-.74-.33-.4-.59-.99-.59-1.98,0-1.31,.51-2.33,1.27-2.33,.43,0,.88,.32,1.22,1.08l-.4,1.16c-.22-.5-.56-.74-.82-.74-.3,0-.48,.31-.48,.76,0,.4,.15,.62,.3,.79,.2,.19,.57,.5,.82,.77,.36,.38,.63,.97,.63,1.98,0,1.41-.55,2.42-1.36,2.42-.57,0-1.09-.51-1.41-1.49Z"/><path class="cls-20" d="M359.67,430.29h.75v3.18h1.56v-3.18h.75v7.96h-.75v-3.24h-1.56v3.24h-.75v-7.96Z"/><path class="cls-20" d="M364.3,430.29v7.96h-.75v-7.96h.75Z"/><path class="cls-20" d="M364.91,434.29c0-2.32,.85-4.15,1.94-4.15s1.94,1.84,1.94,4.12-.84,4.1-1.94,4.1-1.93-1.8-1.93-4.08Zm3.1-.02c0-1.49-.52-2.55-1.16-2.55s-1.16,1.09-1.16,2.55,.51,2.53,1.16,2.53,1.17-1.08,1.16-2.53Z"/><path class="cls-20" d="M372.57,430.29v7.96h-.51l-1.93-4.88v4.88h-.73v-7.96h.47l1.96,4.92v-4.92h.73Z"/></g><text class="cls-5" transform="translate(347.45 514.08) scale(.47 1)"><tspan x="0" y="0">VI</tspan><tspan class="cls-74" x="9.69" y="0">V</tspan><tspan class="cls-40" x="15.88" y="0">A</tspan><tspan class="cls-25" x="22.04" y="0">C</tspan><tspan x="29" y="0">OM</tspan></text><text class="cls-5" transform="translate(390.12 511.88) scale(.47 1)"><tspan class="cls-77" x="0" y="0">C</tspan><tspan x="6.96" y="0">CB</tspan></text><g><path class="cls-20" d="M270.38,431.82c.08,0,.16,0,.24,0v2.61c-.08,0-.16,0-.24,0,0-.11,0-.22,0-.32-.12,.15-.29,.28-.48,.33-.24,.07-.52,.05-.74-.08-.26-.15-.45-.42-.49-.72-.03-.22,0-.46,.12-.65,.14-.23,.36-.41,.62-.47,.19-.04,.4-.03,.59,.04,.16,.07,.29,.19,.39,.32,0-.36,0-.71,0-1.07Zm-.85,.92c-.06,0-.12,.03-.18,.05-.27,.12-.45,.41-.45,.7,0,.17,.06,.34,.17,.48,.11,.14,.27,.24,.44,.27,.29,.06,.62-.08,.77-.33,.11-.18,.14-.4,.09-.6-.04-.2-.17-.37-.35-.48-.15-.09-.33-.11-.5-.09Z"/><path class="cls-20" d="M259.84,431.86c.14-.04,.3,.07,.31,.22,.02,.14-.11,.28-.25,.27-.13,0-.26-.11-.26-.24,0-.12,.09-.23,.2-.25Z"/><path class="cls-20" d="M271.5,431.88c.06-.02,.12-.01,.18,.02,.05,.03,.09,.09,.09,.15,0,.06-.02,.13-.06,.17-.06,.06-.15,.07-.22,.04-.07-.03-.12-.11-.12-.19,0-.08,.06-.16,.13-.19Z"/><path class="cls-20" d="M261.49,432.54c.16-.06,.34-.06,.5,0,.15,.06,.28,.17,.34,.32,.06,.15,.05,.31,.05,.46v1.1c-.16,0-.31,0-.47,0,0-.29,0-.57,0-.86,0-.12,0-.24-.02-.36-.01-.08-.05-.17-.12-.22-.08-.06-.18-.07-.27-.05-.1,.02-.19,.1-.24,.19-.04,.07-.06,.15-.07,.23,0,.1,0,.2-.01,.3,0,.26,0,.51,0,.77-.16,0-.31,0-.47,0,0-.63,0-1.25,0-1.88,.16,0,.31,0,.47,0,0,.06,0,.13,0,.19,.09-.08,.19-.15,.31-.19Z"/><path class="cls-20" d="M263.53,432.58c.16-.08,.35-.11,.52-.06,.12,.04,.24,.11,.31,.21,.04,.07,.08,.14,.1,.21,.08-.14,.19-.27,.33-.35,.15-.09,.34-.12,.51-.09,.15,.03,.29,.13,.38,.26,.1,.16,.11,.36,.12,.55,0,.37,0,.73,0,1.1-.08,0-.17,0-.25,0,0-.31,0-.62,0-.92,0-.15,0-.29-.02-.44-.01-.09-.06-.17-.13-.23-.09-.08-.22-.11-.34-.1-.2,.01-.38,.14-.46,.32-.06,.11-.07,.24-.08,.36-.02,.21,0,.43,0,.64,0,.12,0,.25,0,.37-.08,0-.16,0-.24,0,0-.27,0-.55,0-.82,0-.14,0-.29-.01-.43,0-.08-.02-.17-.06-.24-.06-.11-.18-.18-.3-.2-.15-.02-.3,.03-.42,.12-.12,.09-.19,.23-.22,.37-.05,.23-.03,.47-.03,.7,0,.16,0,.33,0,.49-.08,0-.16,0-.24,0,0-.63,0-1.25,0-1.88,.08,0,.16,0,.24,0,0,.11,0,.22,0,.32,.08-.12,.18-.23,.31-.29Z"/><path class="cls-20" d="M266.84,432.59c.18-.09,.39-.11,.58-.09,.17,.02,.33,.09,.46,.2,.12,.1,.23,.23,.29,.38,.05,.13,.08,.28,.08,.42-.56,0-1.13,0-1.69,0,0,.16,.04,.32,.13,.45,.09,.13,.23,.24,.38,.28,.21,.06,.44,.02,.62-.1,.13-.08,.21-.2,.28-.33,.07,.03,.14,.07,.2,.11-.07,.15-.18,.29-.31,.38-.14,.1-.3,.16-.47,.18-.21,.02-.43,0-.61-.11-.15-.08-.26-.21-.34-.36-.19-.31-.18-.73,.01-1.04,.09-.15,.22-.29,.38-.37Zm.01,.27c-.14,.1-.22,.27-.27,.43,.47,0,.93,0,1.4,0-.03-.12-.08-.24-.17-.34-.24-.26-.68-.31-.96-.09Z"/><path class="cls-20" d="M259.42,432.92c0-.12,0-.24,0-.35,.23,0,.46,0,.7,0,0,.62,0,1.23,0,1.85-.15,0-.3,0-.45,0,0-.5,0-1,0-1.5-.08,0-.16,0-.25,0Z"/><path class="cls-20" d="M271.14,432.57c.19,0,.39,0,.58,0,0,.62,0,1.23,0,1.85-.11,0-.22,0-.33,0,0-.53,0-1.05,0-1.58-.08,0-.17,0-.25,0,0-.09,0-.18,0-.28Z"/></g><path class="cls-20" d="M273.11,432.5c.18-.03,.37,0,.54,.07,.16,.07,.29,.19,.38,.34,.12,.21,.15,.46,.11,.69-.05,.3-.25,.57-.51,.72-.21,.13-.47,.16-.71,.13-.18-.02-.35-.1-.47-.22-.13-.13-.22-.3-.24-.49-.03-.21,0-.42,.08-.61,.07-.16,.19-.3,.32-.42,.15-.12,.32-.2,.51-.23Zm-.02,.44c-.1,.02-.2,.08-.27,.16-.1,.11-.16,.26-.17,.41,0,.1,0,.19,.04,.28,.04,.1,.13,.18,.23,.22,.09,.04,.2,.04,.29,.02,.11-.02,.22-.07,.3-.15,.1-.11,.17-.25,.18-.4,.01-.1,0-.21-.04-.3-.05-.11-.14-.19-.26-.23-.1-.03-.2-.03-.31,0Z"/><text class="cls-8" transform="translate(254.17 408.14) scale(.47 1)"><tspan class="cls-51" x="0" y="0">E</tspan><tspan class="cls-43" x="4.74" y="0">C</tspan><tspan class="cls-67" x="10.46" y="0">O FRESH</tspan></text><text class="cls-3" transform="translate(259.14 383.93) scale(.47 1)"><tspan class="cls-58" x="0" y="0">T</tspan><tspan class="cls-68" x="3.73" y="0">A</tspan><tspan class="cls-75" x="8.15" y="0">VE</tspan><tspan class="cls-52" x="17.81" y="0">X</tspan></text><text class="cls-19" transform="translate(260.74 370.52) scale(.47 1)"><tspan x="0" y="0">PC</tspan><tspan class="cls-53" x="11.1" y="0">T</tspan></text><text class="cls-5" transform="translate(299.66 336.52) scale(.47 1)"><tspan x="0" y="0">E</tspan><tspan class="cls-32" x="5.87" y="0">X</tspan><tspan x="11.67" y="0">CESS</tspan></text><text class="cls-5" transform="translate(309.74 319.49) scale(.47 1)"><tspan x="0" y="0">RE</tspan><tspan class="cls-23" x="12.1" y="0">F</tspan><tspan x="17.22" y="0">AN</tspan></text><text class="cls-9" transform="translate(546.57 411.44) scale(.47 1)"><tspan class="cls-36" x="0" y="0">S</tspan><tspan class="cls-34" x="3.42" y="0">W</tspan><tspan x="9.37" y="0">A</tspan><tspan class="cls-37" x="13.43" y="0">R</tspan><tspan class="cls-47" x="17.32" y="0">OW</tspan><tspan class="cls-64" x="28.26" y="0">SKI</tspan></text><text class="cls-5" transform="translate(418.45 245.49) scale(.47 1)"><tspan x="0" y="0">ICENTER</tspan></text><text class="cls-5" transform="translate(455.35 245.49) scale(.47 1)"><tspan x="0" y="0">E</tspan><tspan class="cls-70" x="5.87" y="0">S</tspan><tspan x="11.36" y="0">TI</tspan><tspan class="cls-38" x="19.78" y="0">L</tspan></text><g><path class="cls-20" d="M480.01,237.34h-.25v1.65h-.42v-4.52h.81c.49,0,.72,.68,.72,1.43,0,.54-.13,1.1-.43,1.33l.51,1.76h-.49l-.45-1.65Zm-.25-.81h.35c.24,0,.33-.31,.33-.62s-.1-.61-.29-.61h-.38v1.22Z"/><path class="cls-20" d="M481.12,236.75c0-1.32,.48-2.36,1.1-2.36s1.1,1.05,1.1,2.34-.48,2.33-1.1,2.33-1.1-1.02-1.1-2.32Zm1.76-.01c0-.84-.3-1.45-.66-1.45s-.66,.62-.66,1.45,.29,1.44,.66,1.44,.66-.61,.66-1.44Z"/><path class="cls-20" d="M483.47,238.22l.24-.63c.14,.41,.34,.63,.56,.63,.18,0,.3-.2,.3-.48,0-.23-.08-.36-.19-.47-.13-.13-.31-.24-.46-.42-.19-.23-.33-.56-.33-1.13,0-.75,.29-1.32,.72-1.32,.25,0,.5,.18,.69,.61l-.22,.66c-.13-.28-.32-.42-.46-.42-.17,0-.27,.18-.27,.43,0,.23,.08,.35,.17,.45,.11,.11,.32,.28,.46,.43,.21,.21,.36,.55,.36,1.13,0,.8-.31,1.38-.77,1.38-.32,0-.62-.29-.8-.84Z"/><path class="cls-20" d="M485.38,234.47h1.43v.84h-1v.97h.93v.84h-.93v1.02h1v.84h-1.43v-4.52Z"/><path class="cls-20" d="M487.78,236.75c0-1.32,.48-2.36,1.1-2.36s1.1,1.05,1.1,2.34-.48,2.33-1.1,2.33-1.1-1.02-1.1-2.32Zm1.76-.01c0-.84-.3-1.45-.66-1.45s-.66,.62-.66,1.45,.29,1.44,.66,1.44,.66-.61,.66-1.44Z"/><path class="cls-20" d="M490.32,234.47h1.41v.86h-.98v1.02h.86v.85h-.86v1.8h-.42v-4.52Z"/><path class="cls-20" d="M479.93,245.01c0,.71-.25,1.32-.67,1.32h-.96v-4.52h.92c.4,0,.6,.58,.6,1.13,0,.4-.11,.78-.29,.92,.27,.15,.4,.64,.4,1.16Zm-1.21-2.42v.98h.41c.19,0,.27-.26,.27-.51s-.09-.48-.25-.48h-.43Zm.78,2.34c0-.3-.1-.6-.31-.6h-.46v1.19h.46c.21,0,.31-.31,.31-.59Z"/><path class="cls-20" d="M480.26,244.67v-2.87h.43v2.81c0,.62,.16,.91,.4,.91s.39-.31,.39-.91v-2.81h.43v2.87c0,1.19-.38,1.73-.82,1.73s-.83-.54-.83-1.73Z"/><path class="cls-20" d="M482.35,241.8h.42v3.65h1.07v.87h-1.5v-4.52Z"/><path class="cls-20" d="M483.91,244.07c0-1.38,.49-2.34,1.12-2.34,.35,0,.67,.32,.85,.73l-.28,.65c-.15-.31-.35-.51-.57-.51-.39,0-.68,.62-.68,1.46s.28,1.46,.68,1.46c.23,0,.44-.21,.57-.48v-.62h-.58v-.79h.97v1.86c-.26,.58-.59,.9-.96,.9-.64,0-1.1-.99-1.1-2.33Z"/><path class="cls-20" d="M487.4,245.35h-.74l-.16,.98h-.44l.8-4.52h.35l.79,4.52h-.45l-.16-.98Zm-.62-.81h.5l-.25-1.51-.25,1.51Z"/><path class="cls-20" d="M488.94,244.68h-.25v1.65h-.42v-4.52h.81c.49,0,.72,.68,.72,1.43,0,.54-.13,1.1-.43,1.33l.51,1.76h-.49l-.45-1.65Zm-.25-.81h.35c.24,0,.33-.31,.33-.62s-.1-.61-.29-.61h-.38v1.22Z"/><path class="cls-20" d="M490.62,241.8v4.52h-.42v-4.52h.42Z"/><path class="cls-20" d="M492.21,245.35h-.74l-.16,.98h-.44l.8-4.52h.35l.79,4.52h-.45l-.16-.98Zm-.62-.81h.5l-.25-1.51-.25,1.51Z"/></g><text class="cls-7" transform="translate(519.27 266.77) scale(.47 1)"><tspan x="0" y="0">OKAIDI</tspan></text><g><path class="cls-20" d="M579.55,231.06v-1.27h2.38v1.27h-.88v5.28h-.62v-5.28h-.88Z"/><path class="cls-20" d="M582.31,229.79h.62v2.62h1.29v-2.62h.61v6.55h-.61v-2.67h-1.29v2.67h-.62v-6.55Z"/><path class="cls-20" d="M585.51,229.79h2.08v1.22h-1.46v1.41h1.35v1.22h-1.35v1.47h1.46v1.22h-2.08v-6.55Z"/><path class="cls-20" d="M591.54,234.44c0,1.03-.36,1.91-.97,1.91h-1.4v-6.55h1.34c.58,0,.87,.83,.87,1.63,0,.58-.17,1.13-.42,1.33,.39,.21,.58,.92,.58,1.68Zm-1.76-3.5v1.43h.6c.27,0,.39-.38,.39-.74s-.13-.69-.37-.69h-.63Zm1.13,3.4c0-.43-.14-.87-.46-.87h-.67v1.73h.67c.31,0,.46-.44,.46-.86Z"/><path class="cls-20" d="M591.86,233.09c0-1.91,.7-3.41,1.6-3.41s1.6,1.52,1.6,3.4-.69,3.38-1.6,3.38-1.59-1.48-1.59-3.36Zm2.56-.02c0-1.22-.43-2.1-.96-2.1s-.96,.9-.96,2.1,.42,2.08,.96,2.08,.96-.89,.96-2.08Z"/><path class="cls-20" d="M595.56,229.79h1.2c.92,0,1.48,1.27,1.48,3.29s-.56,3.26-1.5,3.26h-1.17v-6.55Zm1.2,5.29c.55,0,.83-.92,.83-2.03s-.28-2-.83-2h-.59v4.03h.59Z"/><path class="cls-20" d="M599.92,234.07v2.27h-.61v-2.27l-1.05-4.28h.71l.65,2.87,.66-2.87h.71l-1.06,4.28Z"/><path class="cls-20" d="M583.9,245.87l.35-.91c.2,.59,.5,.91,.81,.91,.26,0,.44-.29,.44-.7,0-.33-.12-.52-.28-.68-.2-.19-.45-.35-.66-.61-.27-.33-.49-.82-.49-1.63,0-1.08,.42-1.91,1.05-1.91,.36,0,.72,.27,1.01,.89l-.33,.96c-.18-.41-.46-.61-.67-.61-.25,0-.39,.26-.39,.63,0,.33,.12,.51,.25,.65,.16,.16,.47,.41,.68,.63,.3,.31,.52,.8,.52,1.63,0,1.16-.45,1.99-1.12,1.99-.47,0-.9-.42-1.16-1.22Z"/><path class="cls-20" d="M586.67,240.44h.62v2.62h1.29v-2.62h.61v6.55h-.61v-2.67h-1.29v2.67h-.62v-6.55Z"/><path class="cls-20" d="M589.69,243.73c0-1.91,.7-3.41,1.6-3.41s1.6,1.52,1.6,3.4-.69,3.38-1.6,3.38-1.59-1.48-1.59-3.36Zm2.56-.02c0-1.22-.43-2.1-.96-2.1s-.96,.9-.96,2.1,.42,2.08,.96,2.08,.96-.89,.96-2.08Z"/><path class="cls-20" d="M595.6,242.6c0,1.12-.33,2.13-1.13,2.13h-.47v2.26h-.61v-6.55h1.13c.77,0,1.08,1.07,1.08,2.16Zm-.63-.02c0-.49-.16-.93-.45-.93h-.53v1.89h.49c.34,0,.48-.48,.48-.96Z"/></g><g><path class="cls-20" d="M610.22,237.14h-.28v1.85h-.48v-5.07h.91c.56,0,.81,.76,.81,1.61,0,.61-.14,1.23-.48,1.49l.58,1.98h-.56l-.5-1.85Zm-.28-.91h.39c.27,0,.37-.34,.37-.69s-.11-.68-.33-.68h-.43v1.37Z"/><path class="cls-20" d="M612.9,237.89h-.83l-.18,1.1h-.5l.91-5.07h.39l.89,5.07h-.5l-.18-1.1Zm-.7-.91h.56l-.28-1.69-.28,1.69Z"/><path class="cls-20" d="M613.86,233.92h.93c.72,0,1.15,.98,1.15,2.55s-.43,2.53-1.17,2.53h-.91v-5.07Zm.93,4.1c.43,0,.65-.71,.65-1.57s-.22-1.55-.65-1.55h-.46v3.12h.46Z"/><path class="cls-20" d="M616.82,233.92v5.07h-.48v-5.07h.48Z"/><path class="cls-20" d="M618.61,237.89h-.83l-.18,1.1h-.5l.91-5.07h.39l.89,5.07h-.5l-.18-1.1Zm-.7-.91h.56l-.28-1.69-.28,1.69Z"/><path class="cls-20" d="M621.61,233.92v5.07h-.33l-1.23-3.11v3.11h-.47v-5.07h.3l1.26,3.14v-3.14h.47Z"/><path class="cls-20" d="M621.91,234.9v-.98h1.84v.98h-.68v4.09h-.48v-4.09h-.68Z"/><path class="cls-20" d="M605.82,243.84c0,.87-.25,1.65-.88,1.65h-.37v1.75h-.48v-5.07h.88c.6,0,.84,.83,.84,1.68Zm-.49-.01c0-.38-.12-.72-.35-.72h-.41v1.46h.38c.26,0,.37-.37,.37-.74Z"/><path class="cls-20" d="M606.92,245.39h-.28v1.85h-.48v-5.07h.91c.56,0,.81,.76,.81,1.61,0,.61-.14,1.23-.48,1.49l.58,1.98h-.56l-.5-1.85Zm-.28-.91h.39c.27,0,.37-.34,.37-.69s-.11-.68-.33-.68h-.43v1.37Z"/><path class="cls-20" d="M608.17,244.72c0-1.48,.54-2.64,1.24-2.64s1.24,1.17,1.24,2.63-.54,2.62-1.24,2.62-1.24-1.15-1.24-2.6Zm1.98-.01c0-.95-.33-1.63-.74-1.63s-.74,.69-.74,1.63,.33,1.61,.74,1.61,.75-.69,.74-1.61Z"/><path class="cls-20" d="M611.03,242.17h1.59v.96h-1.11v1.14h.98v.95h-.98v2.02h-.48v-5.07Z"/><path class="cls-20" d="M612.96,242.17h1.61v.95h-1.13v1.09h1.05v.95h-1.05v1.14h1.13v.95h-1.61v-5.07Z"/><path class="cls-20" d="M614.81,246.37l.27-.71c.16,.46,.39,.71,.63,.71,.2,0,.34-.23,.34-.54,0-.25-.09-.4-.22-.53-.15-.15-.35-.27-.52-.47-.21-.25-.38-.63-.38-1.26,0-.84,.33-1.48,.81-1.48,.28,0,.56,.21,.78,.69l-.25,.74c-.14-.32-.36-.47-.52-.47-.19,0-.31,.2-.31,.49,0,.25,.1,.4,.19,.5,.13,.12,.36,.32,.53,.49,.23,.24,.41,.62,.41,1.26,0,.9-.35,1.54-.87,1.54-.36,0-.7-.32-.9-.95Z"/><path class="cls-20" d="M616.75,246.37l.27-.71c.16,.46,.39,.71,.63,.71,.2,0,.34-.23,.34-.54,0-.25-.09-.4-.22-.53-.15-.15-.35-.27-.52-.47-.21-.25-.38-.63-.38-1.26,0-.84,.33-1.48,.81-1.48,.28,0,.56,.21,.78,.69l-.25,.74c-.14-.32-.36-.47-.52-.47-.19,0-.31,.2-.31,.49,0,.25,.1,.4,.19,.5,.13,.12,.36,.32,.53,.49,.23,.24,.41,.62,.41,1.26,0,.9-.35,1.54-.87,1.54-.36,0-.7-.32-.9-.95Z"/><path class="cls-20" d="M619.38,242.17v5.07h-.48v-5.07h.48Z"/><path class="cls-20" d="M619.77,244.72c0-1.48,.54-2.64,1.24-2.64s1.24,1.17,1.24,2.63-.54,2.62-1.24,2.62-1.24-1.15-1.24-2.6Zm1.98-.01c0-.95-.33-1.63-.74-1.63s-.74,.69-.74,1.63,.33,1.61,.74,1.61,.75-.69,.74-1.61Z"/><path class="cls-20" d="M624.66,242.17v5.07h-.33l-1.23-3.11v3.11h-.47v-5.07h.3l1.26,3.14v-3.14h.47Z"/><path class="cls-20" d="M626.45,246.14h-.83l-.18,1.1h-.5l.91-5.07h.39l.89,5.07h-.5l-.18-1.1Zm-.7-.91h.56l-.28-1.69-.28,1.69Z"/><path class="cls-20" d="M627.42,242.17h.48v4.1h1.21v.98h-1.69v-5.07Z"/></g><text class="cls-5" transform="translate(595.34 270.33) scale(.47 1)"><tspan x="0" y="0">OPTICL</tspan><tspan class="cls-39" x="34.9" y="0">AS</tspan><tspan class="cls-83" x="46.5" y="0">A</tspan></text><text class="cls-5" transform="translate(550.38 375.81) scale(.47 1)"><tspan class="cls-46" x="0" y="0">P</tspan><tspan x="5.43" y="0">ANDOR</tspan><tspan class="cls-83" x="40.31" y="0">A</tspan></text><g><path class="cls-20" d="M588.37,309.21c0,1.28-.44,2.37-1.21,2.37h-1.74v-8.15h1.66c.73,0,1.08,1.04,1.08,2.03,0,.72-.21,1.41-.52,1.66,.49,.26,.72,1.15,.72,2.1Zm-2.19-4.36v1.78h.75c.33,0,.48-.47,.48-.92s-.16-.86-.45-.86h-.78Zm1.4,4.23c0-.54-.18-1.08-.57-1.08h-.84v2.15h.84c.39,0,.57-.55,.57-1.07Z"/><path class="cls-20" d="M588.99,303.43h2.58v1.52h-1.82v1.75h1.68v1.52h-1.68v1.83h1.82v1.52h-2.58v-8.15Z"/><path class="cls-20" d="M594.31,309.82h-1.33l-.29,1.77h-.8l1.45-8.15h.62l1.43,8.15h-.8l-.28-1.77Zm-1.11-1.46h.9l-.44-2.71-.45,2.71Z"/><path class="cls-20" d="M595.72,308.61v-5.17h.77v5.06c0,1.11,.29,1.64,.72,1.64s.71-.55,.71-1.64v-5.06h.77v5.17c0,2.15-.69,3.12-1.49,3.12s-1.49-.97-1.49-3.12Z"/><path class="cls-20" d="M599.15,305.01v-1.58h2.95v1.58h-1.09v6.58h-.77v-6.58h-1.09Z"/><path class="cls-20" d="M604.3,308.76v2.82h-.76v-2.82l-1.31-5.33h.88l.8,3.57,.82-3.57h.88l-1.32,5.33Z"/><path class="cls-20" d="M587.95,323.65l1.89-5.47h-1.82v-1.51h2.86v1.21l-1.85,5.43h1.91v1.51h-2.99v-1.17Z"/><path class="cls-20" d="M591.23,320.77c0-2.37,.87-4.25,1.99-4.25s1.99,1.89,1.99,4.23-.86,4.2-1.99,4.2-1.98-1.84-1.98-4.18Zm3.18-.02c0-1.52-.54-2.61-1.19-2.61s-1.19,1.11-1.19,2.61,.52,2.59,1.19,2.59,1.2-1.1,1.19-2.59Z"/><path class="cls-20" d="M599.08,316.66v8.15h-.52l-1.98-5v5h-.75v-8.15h.48l2.01,5.04v-5.04h.75Z"/><path class="cls-20" d="M599.92,316.66h2.58v1.52h-1.82v1.75h1.68v1.52h-1.68v1.83h1.82v1.52h-2.58v-8.15Z"/></g><text class="cls-14" transform="translate(706.1 442.56) scale(.66 1)"><tspan class="cls-72" x="0" y="0">A</tspan><tspan x="6.86" y="0" xml:space="preserve"> 1</tspan></text><text class="cls-5" transform="translate(686.95 500.7) scale(.47 1)"><tspan x="0" y="0">PUL</tspan><tspan class="cls-39" x="18.29" y="0">S</tspan><tspan x="23.68" y="0">AR</tspan></text><text class="cls-5" transform="translate(699.1 517.74) scale(.47 1)"><tspan x="0" y="0">ZL</tspan><tspan class="cls-33" x="11.72" y="0">A</tspan><tspan class="cls-42" x="17.51" y="0">TN</tspan><tspan class="cls-83" x="30.36" y="0">A</tspan><tspan x="36.55" y="0" xml:space="preserve"> RIBK</tspan><tspan class="cls-82" x="60.74" y="0">A</tspan></text><text class="cls-18" transform="translate(752.38 535.05) scale(.47 1)"><tspan x="0" y="0">EFBE</tspan><tspan class="cls-60" x="35.9" y="0">T</tspan></text><text class="cls-5" transform="translate(699.56 572.68) scale(.47 1)"><tspan class="cls-54" x="0" y="0">C</tspan><tspan class="cls-78" x="6.96" y="0">O</tspan><tspan class="cls-57" x="14.72" y="0">S</tspan><tspan class="cls-29" x="20.2" y="0">T</tspan><tspan class="cls-83" x="25.1" y="0">A</tspan><tspan x="31.29" y="0"> </tspan><tspan class="cls-54" x="33.57" y="0">C</tspan><tspan x="40.53" y="0">OFFEE</tspan></text><text class="cls-16" transform="translate(713.21 280.22) scale(.47 1)"><tspan x="0" y="0">DIK</tspan><tspan class="cls-55" x="40.73" y="0">A</tspan></text><g><polygon class="cls-24" points="232.87 618.53 226.54 622.26 226.45 617.91 232.78 614.18 239.26 617.66 239.35 622.01 232.87 618.53"/><polygon class="cls-24" points="232.99 624.49 226.66 628.22 226.57 623.87 232.9 620.14 239.38 623.62 239.46 627.97 232.99 624.49"/><polygon class="cls-24" points="233.11 630.46 226.77 634.18 226.69 629.83 233.02 626.11 239.49 629.58 239.58 633.93 233.11 630.46"/></g><g><polygon class="cls-24" points="665.68 615.67 659.35 619.4 659.27 615.05 665.6 611.32 672.07 614.79 672.16 619.14 665.68 615.67"/><polygon class="cls-24" points="665.8 621.63 659.47 625.36 659.38 621.01 665.71 617.28 672.19 620.76 672.28 625.1 665.8 621.63"/><polygon class="cls-24" points="665.92 627.59 659.58 631.32 659.5 626.97 665.83 623.24 672.31 626.72 672.39 631.07 665.92 627.59"/></g><path class="cls-24" d="M454.05,331.98c0-1.12-.91-2.02-2.02-2.02h-13.19c-1.12,0-2.02,.9-2.02,2.02v13.19c0,1.12,.9,2.02,2.02,2.02h13.19c1.12,0,2.02-.9,2.02-2.02v-13.19Zm-4.86,.53c.56,0,1.01,.45,1.01,1.01s-.45,1.01-1.01,1.01-1.01-.45-1.01-1.01,.45-1.01,1.01-1.01Zm-7.78,0c.56,0,1.01,.45,1.01,1.01s-.45,1.01-1.01,1.01-1.01-.45-1.01-1.01,.45-1.01,1.01-1.01Zm2.01,2.89l-.28,3.37c-.02,.22-.15,.39-.36,.47h0c-.2,.08-.34,.27-.35,.48l-.26,4.38c-.02,.29-.26,.53-.56,.53h-.38c-.3,0-.54-.23-.56-.53l-.26-4.38c-.01-.22-.15-.41-.35-.48-.2-.07-.34-.26-.36-.48l-.28-3.37c-.02-.28,.16-.53,.44-.59l.28-.06c.19-.04,.38,.01,.51,.15l.39,.39c.22,.22,.57,.22,.79,0l.39-.39c.14-.14,.33-.19,.51-.15l.28,.06c.25,.07,.43,.32,.42,.6Zm2.15,9.23c0,.15-.12,.27-.27,.27s-.27-.12-.27-.27v-12.12c0-.15,.13-.27,.27-.27s.27,.12,.27,.27v12.12Zm5.59-5.39c-.19,.05-.31,.23-.28,.42l.12,.87c.03,.2-.11,.4-.32,.43l-.26,.03c-.17,.03-.31,.18-.32,.35l-.17,2.77c-.02,.3-.26,.52-.56,.52h-.38c-.3,0-.54-.23-.56-.52l-.17-2.77c-.01-.18-.15-.32-.32-.35l-.26-.03c-.2-.03-.35-.22-.32-.43l.12-.87c.03-.19-.09-.37-.28-.42-.19-.05-.32-.24-.27-.44l.76-3.61c.05-.26,.35-.39,.57-.24l.72,.46c.12,.08,.28,.08,.41,0l.71-.46c.22-.14,.52-.02,.57,.24l.76,3.61c.03,.19-.09,.39-.28,.44Z"/><g transform="translate(-19.000000, -107.000000)"><path class="cls-24" d="M307.52,119.24l1.54-2.3c.86-1.3,2.32-2.07,3.87-2.07h24.61c1.56,0,3.01,.78,3.87,2.07l1.54,2.3c.79-.11,1.57-.25,2.35-.42l9.43-2.09v-7.28c-.3,.09-.61,.17-.93,.25-1.77,.41-3.32,.52-5.28,.52-1.01,0-2.55-.11-3.8-.31-1.74-.28-2.95-.65-3.54-1.44-2.73,1.07-5.7,1.42-8.61,1.01-3.84-.54-6.31-.82-7.32-.82-1.01,0-3.49,.27-7.33,.82-3,.42-6.05,.04-8.85-1.1-.03,.02-.07,.05-.1,.07-.94,.56-2.04,.97-3.27,1.25-1.77,.41-3.32,.52-5.28,.52-1.01,0-2.55-.11-3.8-.31-.3-.05-.58-.1-.85-.15v6.98l9.43,2.09c.78,.17,1.56,.31,2.35,.42Zm3.55,.28c.17,0,.34,0,.5,0h27.33c.17,0,.34,0,.5,0l-.57-.86c-.29-.43-.77-.69-1.29-.69h-24.61c-.52,0-1,.26-1.29,.69l-.57,.86Zm-15.32-12.99c.32,.11,.78,.22,1.35,.31,1.07,.17,2.45,.27,3.31,.27,1.74,0,3.1-.09,4.58-.44,.06-.01,.12-.03,.18-.04-3.49-1.44-6.63-2.29-9.41-2.54,0,.05,0,.09,0,.14v2.3Zm-3.1,.58h0v-2.88c0-1.06,.27-2.11,.79-3.03l2.99-5.34-5.6-.89h0c-.13-.02-.25-.06-.37-.12-.63-.31-.88-1.08-.57-1.71l.46-.91c.2-.41,.57-.7,1.01-.81h0l4.1-1.03c.79-.2,1.61,.25,1.85,1.03h0l.51,1.58,4.3-11.83c1.12-3.07,4.03-5.11,7.29-5.11h31.66c3.26,0,6.18,2.04,7.29,5.11l4.19,11.53,.31-1.2c.21-.82,1.04-1.31,1.86-1.12l4.35,1.04c.44,.1,.81,.39,1.01,.79l.49,.93c.32,.62,.09,1.38-.53,1.7-.12,.06-.25,.11-.39,.13l-5.61,.89,2.99,5.34c.52,.93,.79,1.97,.79,3.03v2.83s0,.07,0,.11v15.47c0,2.57-2.08,4.66-4.66,4.66h-7.76c-2.57,0-4.66-2.08-4.66-4.66v-.05c-.62,.04-1.24,.05-1.86,.05h-27.33c-.62,0-1.24-.02-1.86-.05v.05c0,2.57-2.08,4.66-4.66,4.66h-7.76c-2.57,0-4.66-2.08-4.66-4.66v-15.52Zm62.08-.96v-1.93s0-.09,0-.13c-2.91,.28-6.18,1.17-9.8,2.7,.09,.02,.19,.03,.29,.05,1.07,.17,2.45,.27,3.31,.27,1.74,0,3.1-.09,4.58-.44,.6-.14,1.14-.31,1.63-.52Zm-57.68-5.05c3.7,.49,7.84,1.84,12.41,4.05,2.49,1.2,5.28,1.63,8.02,1.25,3.99-.56,6.55-.85,7.76-.85,1.21,0,3.77,.28,7.76,.85,2.74,.39,5.53-.05,8.02-1.25,4.55-2.19,8.69-3.54,12.43-4.04l-2.64-4.71-6.97,1.16c-.93,.15-1.87,.23-2.81,.23h-31.57c-.94,0-1.88-.08-2.81-.23l-6.97-1.16-2.63,4.7Zm46.77,21.15c.03,.12,.05,.24,.05,.37,0,.86,.69,1.55,1.55,1.55h7.76c.86,0,1.55-.69,1.55-1.55v-2.72l-8.75,1.95c-.71,.16-1.43,.29-2.16,.4Zm-37.16,0c-.72-.11-1.44-.24-2.16-.4l-8.75-1.95v2.72c0,.86,.69,1.55,1.55,1.55h7.76c.86,0,1.55-.69,1.55-1.55,0-.13,.02-.25,.05-.37Zm38.78-40.02c-.67-1.84-2.42-3.06-4.38-3.06h-31.66c-1.96,0-3.71,1.22-4.38,3.06l-4.08,11.23,6.2,1.03c.76,.13,1.53,.19,2.3,.19h31.57c.77,0,1.54-.06,2.3-.19l6.2-1.03-4.08-11.23Z"/></g><text class="cls-21" transform="translate(380.1 24.3)"><tspan x="0" y="0">x 1200</tspan></text><text class="cls-2" transform="translate(228.02 153.63) rotate(90) scale(.47 1)"><tspan x="0" y="0">E</tspan><tspan class="cls-30" x="8.03" y="0">S</tspan><tspan x="15.52" y="0">TI</tspan><tspan class="cls-28" x="27.02" y="0">L</tspan></text><text class="cls-12" transform="translate(424.59 146.36) scale(.47 1)"><tspan x="0" y="0">LIL</tspan><tspan class="cls-31" x="31.3" y="0">L</tspan><tspan class="cls-66" x="41.66" y="0">Y</tspan></text><text class="cls-6" transform="translate(494.33 156.92) scale(.72 1)"><tspan x="0" y="0">A</tspan><tspan class="cls-62" x="4.94" y="0">R</tspan><tspan class="cls-81" x="9.63" y="0">T</tspan><tspan x="13.65" y="0" xml:space="preserve"> 93</tspan></text><text class="cls-10" transform="translate(730.36 225.63) rotate(-90) scale(.75 1)"><tspan class="cls-71" x="0" y="0">C</tspan><tspan x="12.99" y="0">ALLIOPE</tspan></text><text class="cls-14" transform="translate(692.46 476.37) scale(.66 1)"><tspan x="0" y="0">P</tspan><tspan class="cls-45" x="6.53" y="0">O</tspan><tspan class="cls-61" x="15.13" y="0">S</tspan><tspan class="cls-35" x="21.21" y="0">T</tspan><tspan x="27" y="0"> </tspan><tspan class="cls-41" x="29.53" y="0">B</tspan><tspan class="cls-79" x="36.37" y="0">AN</tspan><tspan class="cls-69" x="51.6" y="0">K</tspan></text><text class="cls-1" transform="translate(82.96 543.12) scale(1.14 1)"><tspan x="0" y="0">IKE</tspan><tspan class="cls-22" x="46.41" y="0">A</tspan></text></g><polygon id="Galleria_Burgas0.002C" class="cls-49" points="10.97 134.73 213.02 134.73 213.02 254.7 145.46 254.7 145.46 221.08 10.97 221.08 10.97 134.73"/><polygon id="Galleria_Burgas0.002B" class="cls-48" points="213.68 321.45 213.68 255.98 144.05 255.85 144.05 222.07 40.43 222.07 40.43 280.75 10.97 280.75 10.97 321.45 213.68 321.45"/><polygon id="Galleria_Burgas0.002A" class="cls-48" points="213.02 323.4 10.97 323.4 10.97 367.03 48.16 367.03 48.16 421.31 10.97 421.31 10.97 520.78 68.55 520.78 68.55 487.28 176.34 487.28 176.34 461.57 213.02 461.57 213.02 323.4"/><polygon id="Galleria_Burgas0.001C_1.002_NA-Unt" class="cls-48" points="176.34 489.23 176.34 567.27 44.92 583.25 44.92 535.36 69.98 535.36 69.98 489.23 176.34 489.23"/><rect id="Galleria_Burgas0.001B" class="cls-48" x="178.02" y="463.52" width="34.99" height="24.02"/><polygon id="Galleria_Burgas0.001A_NAD_47" class="cls-48" points="178.02 489.23 178.02 567.14 213.02 562.73 213.02 489.23 178.02 489.23"/><polygon id="Galleria_Burgas0.056" class="cls-48" points="252.69 486.89 252.69 539.09 276.85 543.95 276.85 486.89 252.69 486.89"/><polygon id="Galleria_Burgas0.052" class="cls-48" points="345.55 486.89 345.55 555.38 376.14 559.09 376.14 486.89 345.55 486.89"/><rect id="Galleria_Burgas0.050" class="cls-48" x="377.64" y="486.89" width="33.35" height="35.38"/><path id="Galleria_Burgas0.042_1.044" class="cls-48" d="M423.4,486.89v36.33h21.8v12.5h-4.33v30.32c46.7,6.63,176.94,13.4,176.94,13.4v-5.69h25.32v-53.61h4.06v-33.26h-223.78Z"/><path id="Galleria_Burgas0.040_10.048" class="cls-48" d="M744.36,556.2v25.04c-14.37,.74-38.77,.61-47.04,.28v-6.63h-17.65v-18.7h64.69Z"/><rect id="Galleria_Burgas0.039" class="cls-48" x="676.26" y="523.65" width="68.1" height="31.1"/><rect id="Galleria_Burgas0.038" class="cls-48" x="676.26" y="505.48" width="68.1" height="16.53"/><rect id="Galleria_Burgas0.037" class="cls-48" x="676.26" y="490.65" width="37.73" height="13.25"/><polygon id="Galleria_Burgas0.036" class="cls-48" points="676.26 489.01 676.26 456.08 744.36 456.08 744.36 503.91 715.56 503.91 715.56 489.08 676.26 489.01"/><rect id="Galleria_Burgas0.035" class="cls-48" x="676.26" y="423.07" width="68.1" height="31.37"/><rect id="Galleria_Burgas0.034" class="cls-48" x="676.26" y="402.08" width="68.1" height="19.35"/><path id="Galleria_BurgasBA0.08_BA0.10_WAD_23" class="cls-48" d="M745.87,477.01v104.23c8.46-.24,32.48-1.42,32.48-1.42v-107.21h-10.56v4.33l-21.91,.07Z"/><polygon id="Galleria_Burgas0.028" class="cls-48" points="676.26 289.06 778.34 289.06 778.34 399.05 763.41 399.05 763.41 389.2 676.26 389.2 676.26 289.06"/><polygon id="Galleria_Burgas0.027" class="cls-48" points="676.26 287.05 778.34 287.05 778.34 246.41 761.62 246.41 761.62 254.9 676.26 254.9 676.26 287.05"/><polygon id="Galleria_Burgas0.021" class="cls-48" points="622.75 189.08 578.77 189.08 578.77 98.27 610.83 98.27 610.83 122.91 622.75 122.91 622.75 189.08"/><rect id="Galleria_Burgas0.020" class="cls-48" x="546.61" y="120.51" width="30.56" height="68.57"/><rect id="Galleria_Burgas0.009_NAD_41" class="cls-48" x="377.63" y="87.37" width="32.51" height="101.72"/><polygon id="Galleria_Burgas0.008" class="cls-48" points="365.25 189.93 345.65 189.93 345.65 132.76 337.86 132.76 337.86 121.51 366.35 121.51 365.25 189.93"/><polygon id="Galleria_Burgas0.007" class="cls-48" points="336.41 121.51 325.96 121.51 325.96 189.93 344.35 189.93 344.35 134.29 336.46 134.29 336.41 121.51"/><polygon id="Galleria_Burgas0.005" class="cls-48" points="324.44 189.93 277.29 189.93 277.29 87.37 313.51 87.37 313.51 121.51 324.44 121.51 324.44 189.93"/><polygon id="Galleria_Burgas0.004" class="cls-48" points="275.72 189.93 241.34 189.93 241.34 131.74 224.98 131.74 224.98 121.51 212.47 121.51 212.47 87.37 275.72 87.37 275.72 189.93"/><rect id="Galleria_Burgas0.003" class="cls-48" x="224.89" y="133.41" width="14.78" height="56.53"/><path id="Galleria_Burgas0.063" class="cls-48" d="M324.37,324.87v20.27h-42.81c12.12-11.11,18.41-20.27,18.41-20.27h24.41Z"/><path id="Galleria_Burgas0.064" class="cls-48" d="M324.37,323.55h-23.5c12.23-19.05,13.02-22.96,17.15-33.68h6.35v33.68Z"/><path id="Galleria_Burgas0.070_1.062_NA-Unt" class="cls-48" d="M325.99,345.14h50.92v-25.65h134.05v-62.88h-34.91v-1.68h-65.73v-21.49c-41.63,5.13-54.65,6.66-84.73,10.8-1.39,21.82-4.09,35.58-7.16,44.1h7.66l-.1,56.81Z"/><polygon id="Galleria_Burgas0.074" class="cls-48" points="411.91 233.44 411.91 253.23 443.93 253.23 443.93 230.55 411.91 233.44"/><path id="Galleria_Burgas0.076_S-1.13" class="cls-48" d="M445.72,253.23h30.23v-25.06c-7.56,.7-30.23,2.39-30.23,2.39v22.67Z"/><path id="Galleria_Burgas0.077" class="cls-48" d="M477.45,228.17v26.76h15.91v-27.96c-3.88-.08-15.91,1.19-15.91,1.19Z"/><path id="Galleria_Burgas0.078" class="cls-48" d="M495.05,226.97v27.96h15.91v-29.15c-7.08-.07-15.91,1.19-15.91,1.19Z"/><polygon id="Galleria_Burgas0.079" class="cls-48" points="512.65 225.78 512.65 312.49 537.41 312.49 537.41 306.33 544.97 306.33 544.97 224.59 512.65 225.78"/><polygon id="Galleria_Burgas0.080" class="cls-48" points="546.46 224.59 546.46 297.88 577.19 297.88 577.19 223.98 546.46 224.59"/><rect id="Galleria_Burgas0.082_10.002" class="cls-48" x="578.77" y="223.98" width="23.08" height="29.98"/><polygon id="Galleria_Burgas0.083" class="cls-48" points="603.44 223.98 603.44 253.96 637.06 253.96 637.06 245.6 615.36 223.91 603.44 223.98"/><rect id="Galleria_Burgas0.084" class="cls-48" x="578.77" y="255.9" width="58.28" height="31.15"/><path id="Galleria_Burgas0.086" class="cls-48" d="M637.06,288.63h-58.28v11.04h-26.45v45.47h47.24c14-10.97,37.49-14.45,37.49-14.45v-42.07Z"/><path id="Galleria_Burgas0.088" class="cls-48" d="M587.95,356.62h-41.49v31.4h24.65c5.15-14.79,16.83-31.4,16.83-31.4Z"/><path id="Galleria_Burgas0.090" class="cls-48" d="M546.46,390.32v45.2l17.49-2.63c1.79-31.07,7.17-42.57,7.17-42.57h-24.65Z"/><path id="Galleria_Burgas0.092" class="cls-48" d="M544.21,356.62h-31.56v50.44h-33.53v37.3c41.95-4.04,65.09-8.84,65.09-8.84v-78.9Z"/><path id="Galleria_Burgas0.094" class="cls-48" d="M510.96,356.62h-130.86v94.39c49.54-.37,96.88-6.65,96.88-6.65v-39.27h33.98v-48.46Z"/><path id="Galleria_Burgas0.096" class="cls-48" d="M378.19,356.62h-99.61v96.7c25.64,.64,64.95-1.19,64.95-1.19v-47.05h34.66v-48.46Z"/><path id="Galleria_Burgas0.095" class="cls-48" d="M345.43,407.06h32.76v43.95c-12.33,.95-32.76,1.12-32.76,1.12v-45.08Z"/><polygon id="Galleria_Burgas0.058" class="cls-48" points="276.85 453.32 274.77 453.32 252.54 431.09 252.54 422.59 276.85 422.59 276.85 453.32"/><rect id="Galleria_Burgas0.060" class="cls-48" x="252.69" y="389.93" width="24.15" height="31.01"/><rect id="Galleria_Burgas0.061" class="cls-48" x="252.69" y="375.81" width="24.15" height="12.27"/><polygon id="Galleria_Burgas0.062" class="cls-48" points="276.85 374.4 252.69 374.4 252.69 363.98 268.1 356.62 276.85 356.62 276.85 374.4"/><polygon id="Galleria_Burgas0.01" class="cls-48" points="411.75 87.37 411.75 189.93 463.02 189.93 463.02 118.35 487.26 118.35 487.26 87.37 411.75 87.37"/><rect id="Galleria_Burgas0.011" class="cls-48" x="464.88" y="120.51" width="24.52" height="68.57"/><rect id="Galleria_Burgas0.012" class="cls-48" x="491.73" y="120.51" width="22.19" height="68.57"/><polygon id="Galleria_Burgas0.022A" class="cls-48" points="611.77 87.59 611.77 120.96 625.16 120.96 625.16 189.13 675.99 189.13 708.34 157.81 708.34 131.94 739.92 131.94 739.92 140.37 778.34 140.37 778.34 87.59 611.77 87.59"/><polygon id="Galleria_Burgas0.022B" class="cls-48" points="778.34 142 738.03 142 738.03 133.89 709.8 133.89 709.8 157.7 677.02 190.09 677.02 241.83 744.73 241.83 744.73 183.27 778.34 183.27 778.34 142"/><rect id="Galleria_Burgas0.054" class="cls-48" x="315.38" y="486.89" width="28.38" height="27.73"/><polygon id="Galleria_Burgas0.055" class="cls-48" points="278.67 486.89 278.67 544.44 343.76 555.35 343.76 516.33 313.68 516.33 313.68 486.89 278.67 486.89"/></svg>