<?xml version="1.0" encoding="UTF-8"?><svg id="Layer_4" xmlns="http://www.w3.org/2000/svg" viewBox="0 0 820.08 794.61"><defs><style>.cls-1{font-size:13.48px;}.cls-1,.cls-2,.cls-3,.cls-4,.cls-5,.cls-6,.cls-7,.cls-8,.cls-9{fill:#1d1d1b;}.cls-1,.cls-2,.cls-3,.cls-5,.cls-6,.cls-7,.cls-8{font-family:Axiforma-Bold, Axiforma;}.cls-10{fill:#ed7013;}.cls-11{fill:#f6f6f6;}.cls-12{letter-spacing:0em;}.cls-13{letter-spacing:-.03em;}.cls-2{font-size:7.21px;}.cls-14{letter-spacing:-.03em;}.cls-15{letter-spacing:-.03em;}.cls-16{letter-spacing:0em;}.cls-17{letter-spacing:0em;}.cls-3{font-size:8.73px;}.cls-18,.cls-19,.cls-20,.cls-21{fill:none;stroke-miterlimit:10;}.cls-18,.cls-20,.cls-21{stroke:#1d1d1b;}.cls-22{letter-spacing:-.02em;}.cls-23{letter-spacing:-.01em;}.cls-24{letter-spacing:-.11em;}.cls-25{letter-spacing:0em;}.cls-4,.cls-21{fill-rule:evenodd;}.cls-26{letter-spacing:-.07em;}.cls-27{letter-spacing:-.03em;}.cls-28{letter-spacing:0em;}.cls-5{font-size:17.77px;}.cls-6{font-size:8.99px;}.cls-19{stroke:#12100b;}.cls-20{stroke-width:2px;}.cls-7{font-size:17.33px;}.cls-29{letter-spacing:0em;}.cls-30{letter-spacing:-.01em;}.cls-8{font-size:9.71px;}</style></defs><g id="cladire"><g><path class="cls-11" d="M808.5,785.47c-19.35-6.46-37.5-12.43-55.05-18.21-14.88-4.89-30.26-9.96-46.56-15.38-25.49-8.48-53.57-18.3-75.12-26.28-77.54-28.71-152.57-61.62-223.01-97.83-124.59-64.04-236.58-137.27-332.83-217.65-.86-.72-2.77-2.27-5.43-4.43-8.75-7.11-25.04-20.35-39.07-32.4-7.86-6.75-13.96-12.23-18.14-16.29-6.26-6.09-9.9-10.1-7.63-14.35,.29-.54,168.92-316.92,168.92-316.92H815.08V787.67l-6.58-2.2Z"/><path class="cls-11" d="M810.08,30.73V780.73c-35.64-11.9-65.96-21.73-101.61-33.59-23.3-7.75-51.91-17.69-74.96-26.22-75.98-28.13-150.43-60.57-222.46-97.59-117.48-60.39-230.49-132.35-331.91-217.04-6.49-5.42-71.26-57.15-69.06-61.29,0,0,167.5-314.27,167.5-314.27H810.08m10-10H171.59l-2.82,5.3C167.09,29.16,1.57,339.71,1.26,340.3c-2.3,4.32-1.45,8.99,2.54,13.9,1.39,1.71,3.36,3.8,6.02,6.39,4.25,4.13,10.42,9.68,18.36,16.49,14.08,12.09,30.4,25.36,39.17,32.49,2.65,2.15,4.56,3.71,5.38,4.4,96.54,80.62,208.83,154.05,333.75,218.26,70.62,36.3,145.83,69.29,223.56,98.07,21.57,7.99,49.72,17.83,75.28,26.33,16.32,5.43,31.72,10.49,46.61,15.39,17.53,5.77,35.66,11.73,54.99,18.19l13.17,4.4V20.73h0Z"/><path class="cls-20" d="M633.51,720.92c23.05,8.53,51.66,18.47,74.96,26.22,35.66,11.86,65.97,21.68,101.61,33.59V30.73H177.59S10.09,344.99,10.08,345c-2.2,4.14,62.57,55.87,69.06,61.29,101.42,84.69,214.44,156.66,331.91,217.04,72.02,37.02,146.48,69.46,222.46,97.59Z"/></g></g><g id="magazine"><polyline class="cls-18" points="571.49 30.73 571.49 122.03 403.87 122.03 403.87 82.94 484.95 82.94 484.95 30.73"/><polyline class="cls-18" points="134.72 111.17 188.92 138.52 164.34 185.13 192.7 199.86 231.23 125.88 387.79 125.88 387.79 81.49 387.79 80.18 372.27 80.18 372.27 30.73"/><polyline class="cls-18" points="188.92 138.52 191.57 133.34 219.61 148.19"/><line class="cls-18" x1="331.12" y1="30.73" x2="331.12" y2="125.88"/><line class="cls-18" x1="484.81" y1="82.94" x2="484.81" y2="122.03"/><line class="cls-18" x1="532" y1="122.03" x2="532" y2="30.73"/><polyline class="cls-18" points="27.48 312.36 96.24 364.67 123.7 331.11 185.19 210.57 158.46 195.9 152.44 207.33 98.82 178.51"/><path class="cls-18" d="M83.47,409.89l47.91-64.82h1.35c86.29,63.98,172.11,119.69,257.17,162.16l-17.69,34.14-15.7-8.49-24.37,47.97"/><line class="cls-18" x1="191.28" y1="387.2" x2="143.07" y2="456.9"/><polyline class="cls-18" points="399.82 617.05 423.62 568.34 384.36 547.64 401.48 515.56 530.54 579.41 631.98 543.31 632.3 505.66 759.95 505.66 759.95 568.45 809.84 568.45"/><line class="cls-18" x1="423.62" y1="568.34" x2="440.87" y2="535.05"/><polyline class="cls-18" points="541.39 575.55 541.39 671.47 541.39 673.57 541.39 684.35"/><polyline class="cls-18" points="810.08 407.98 798.24 407.98 798.24 295.94 766.09 295.94 766.09 283.59 752.16 283.59 752.16 256.17 688.7 256.17 688.7 224.53 633.51 224.53 633.51 489.78 775.48 489.78 775.48 506.02"/><polyline class="cls-18" points="775.48 506.02 799.12 506.02 810.08 506.02"/><polyline class="cls-18" points="633.51 355.77 797.2 355.77 798.24 355.77"/><line class="cls-18" x1="798.24" y1="407.98" x2="633.51" y2="407.98"/><polyline class="cls-18" points="704.12 30.73 704.12 97.97 734.82 97.97 734.82 212.86 632.22 212.86 633.03 30.73"/><polyline class="cls-18" points="703.39 76.38 655.79 76.38 655.79 82.58 632.81 82.58"/><line class="cls-18" x1="734.82" y1="130.97" x2="632.6" y2="130.97"/><path class="cls-21" d="M221.19,284.44l46.6-90.82h292.06V494.35l-22.64,8.42c-113.87-58.69-223.32-122.23-327.9-191.15h43.59v11.79h36.25v8.42h50.34v-76.39h-53.35v28.99h-64.95Z"/><polyline class="cls-21" points="286.14 255.44 286.14 226.69 258.2 226.69 252.24 223.92"/><line class="cls-18" x1="296.98" y1="255.44" x2="296.98" y2="193.61"/><line class="cls-18" x1="339.49" y1="255.44" x2="339.49" y2="193.61"/><line class="cls-18" x1="339.49" y1="331.83" x2="339.49" y2="393.33"/><line class="cls-18" x1="289.15" y1="331.83" x2="289.15" y2="362.26"/><polyline class="cls-21" points="339.49 360.46 387.29 360.46 387.29 395.71 387.29 414.6 384.29 419.44"/><polyline class="cls-21" points="485.51 193.61 485.51 361.42 559.85 361.42"/><polyline class="cls-21" points="485.51 361.42 437.03 361.42 437.03 449.63"/><polyline class="cls-21" points="436.74 389.95 487.36 389.95 487.36 476.61"/><line class="cls-18" x1="487.36" y1="409.78" x2="559.85" y2="409.78"/><line class="cls-18" x1="485.51" y1="327.58" x2="559.85" y2="327.58"/><polyline class="cls-21" points="485.51 261.62 522.68 261.62 522.68 193.61"/><line class="cls-18" x1="522.68" y1="256.53" x2="559.85" y2="256.53"/><line class="cls-18" x1="437.03" y1="409.78" x2="387.29" y2="409.78"/><line class="cls-18" x1="286.14" y1="284.43" x2="286.14" y2="323.41"/><polyline class="cls-18" points="356.51 532.88 328.77 516.45 345.69 484.02"/><line class="cls-18" x1="252.91" y1="323.41" x2="242.82" y2="333.5"/></g><g id="logo"><path id="dm" class="cls-9" d="M679.06,309.33c-7,.09-10.96,7.83-10.85,13.22,.05,2.22,.79,3.21,2.29,3.19,3.98-.05,10.54-9.07,11.75-14.65l.32-1.44c-.98-.16-2.09-.34-3.51-.32m8.82,22.94l-10.25,.14c.42-2.11,1.25-4.46,2.61-7.59h-.16c-3.14,4.26-7.64,8.36-13.45,8.44-5.95,.07-9-2.88-9.13-9.15-.23-11.03,6.92-21.23,23.39-21.44,.9-.01,1.8,.04,3.23,.19l1.52-6.76v-.05c-1.67-.22-4.15-.42-6.34-.51l1.32-5.49c5.22-.46,10.56-.84,16.79-.74l-9.55,42.97Zm61.75-.78l-10.2,.13,3.32-17.96c.7-2.95,.14-4.05-1.58-4.03-3.47,.04-9.58,7.26-10.86,14.28l-1.46,7.84-10.18,.13,3.43-17.96c.69-2.95,.14-4.05-1.59-4.03-3.46,.04-9.41,7.17-10.93,14.1l-1.79,8.03-10.17,.13,5.02-22.53v-.17c-1.66-.21-4.14-.42-6.34-.51l1.32-5.49c5.4-.54,10.53-.84,16.17-.73-.56,2.29-1.49,4.94-2.71,7.54h.16c3.3-4.56,6.83-8.08,13.46-8.16,4.44-.06,7.36,1.73,7.44,5.66,.01,.71-.19,1.46-.54,2.64l.08,.06c3.36-4.91,7.48-8.54,14.09-8.62,7.3-.09,8.87,4,7.63,9.46l-3.79,20.19Z"/><g><path class="cls-9" d="M738.28,591.12c-2.13,.95-3.78-.04-6.38,5.29-8.16,16.75-14.51,30.35-22.07,49.91,.22-16.07,3.09-28.85,4.81-44.5,.32-2.88,.76-6.86,.69-9.85-.05-2.3-2.35-2.61-6.98-.33-2.57,1.27-5.67,1.16-6.85,4.22-5.03,13.01-16.65,49.19-22.04,69.65-1.29,4.92,3.58,5.74,5.04,.69,3.55-12.19,11.65-39.17,16.48-53.06-.49,12.72-3.96,32.83-2.34,43.38,.51,3.32,3.61,4.75,5.2,7.56,1.13,2,2.96,2.2,3.96-.53,4.72-12.86,13.91-35.56,22.78-53.71-1.74,7.99-8.41,41.9-10.26,55.41-.37,2.71,2.95,2.78,5.91,6.86,.66,.92,3.21,1.91,3.67-.43,1.58-8.1,11.87-60.75,15.9-77.47,1.08-4.51,.77-6.78-7.53-3.08Z"/><path class="cls-9" d="M670.95,629.37c3.55-5.28,4.57-4.21,5.42-5.82,1.07-2.01,.36-3.91-3.43-3.44,0,0-1.43,.1-4.07,.4,4.2-10.8,7.87-19.97,10.52-26.94,.9-2.36,1.02-4.09-.45-4.45-1.57-.38-6.11,2.07-8.89,2.55-.89,.15-1.74,1.1-2.03,1.76-4.47,10.25-8.47,20.02-11.93,28.92-4.44,.76-9.63,1.75-15.43,3.05,4.15-10.65,8.35-21.16,12.45-31.28,2.02-4.97-3.29-5.44-5.35-.4-2.67,6.55-7.69,18.82-13.23,33.12-4.08,1-8.4,2.14-12.92,3.44-3.28,.95-3.42,1.82-2,3.79,.79,1.1,2.41,.99,3.15,1.77,1.92,2.02,3.08,4.44,6.51,4.81-3.06,8.17-6.12,16.59-8.89,24.71-1.74,5.09,3.21,6.13,5.12,.75,3.07-8.68,6.3-17.48,9.62-26.24,2.77-.64,9.46-2.08,15.65-3.43-4.91,13.44-8.14,23.65-9.36,28.62-.23,.96,.16,1.49,.36,1.88,1.65,2.41,3.23,2.51,5.36,5.49,.58,.81,2.51,1.25,3.18-.75,4.55-13.73,9.22-26.61,13.59-38.16,1.81-.4,5.07-1.18,7.07-4.16Z"/><path class="cls-9" d="M674.31,650.34c-.32,.28-.65,.59-.99,.92-.39-1.18-.77-2.38-1.13-3.51,1.07-1.31,2.1-2.6,2.98-3.97,3.65-5.68-3.57-8.96-6.68-5.27-1.66,1.97-1.25,3.9-.79,5.56,.14,.51,.36,1.25,.63,2.12-.89,.91-1.95,2.05-3.37,3.69-3.53,4.09-2.57,9.41,1.21,10.58,2.29,.71,4.44-.32,6.3-1.97,.09,.24,.19,.47,.27,.69,.99,2.47,4.04,1.72,2.88-1.26-.2-.52-.46-1.22-.74-2.03,.6-.76,1.15-1.53,1.63-2.25,2.25-3.33,.08-5.29-2.2-3.32Zm-2.39-7.82c-.34,.39-.67,.73-.99,1.06-.08-.29-.16-.55-.21-.78-1.05-3.97,3.5-2.88,1.2-.29Zm-2.47,12.08c-1.38,.84-2.48-.06-.62-2.61,.31-.43,.63-.84,.95-1.25,.31,.96,.65,1.95,.97,2.92-.43,.36-.87,.68-1.3,.95Z"/></g><g><polygon class="cls-9" points="69.01 265.36 72.85 266.94 77.31 274.5 77.31 268.32 80.48 269.13 80.48 280.91 77.58 280.91 72.35 272.2 72.35 280.91 69.01 280.91 69.01 265.36 69.01 265.36"/><polygon class="cls-9" points="81.86 269.45 81.86 280.91 89.24 280.91 89.24 278.23 85.24 278.23 85.24 276.42 88.47 276.46 88.47 274.39 85.24 274.12 85.24 272.66 88.55 273.01 88.55 270.55 81.86 269.45 81.86 269.45"/><polygon class="cls-9" points="89.31 270.66 91.58 280.91 94.42 280.91 96.34 275.5 97.73 280.91 100.52 280.91 102.99 272.08 100.29 271.93 99.03 276.42 97.81 271.66 95.15 271.43 93.42 276.46 92.36 271.1 89.31 270.66 89.31 270.66"/><polygon class="cls-9" points="105.96 280.91 107.81 280.91 107.81 272.24 113.5 263.9 109.38 263.9 105.96 269.57 102.54 263.9 98.43 263.9 104.12 272.24 104.12 280.91 105.96 280.91 105.96 280.91"/><path class="cls-9" d="M112.97,271.67l-2.77,.18-1.34,1.25v1.41s0,4.96,0,4.96l1.38,1.43h2.68s1.31-1.46,1.31-1.46v-6.58s-1.25-1.21-1.25-1.21h0Zm-.69,7.52h-1.4v-5.34h1.4s0,5.34,0,5.34h0Z"/><path class="cls-9" d="M120.46,272.19l-1.02-1.04-4.35,.41v9.34h2.14v-3.76s1.17,0,1.17,0v3.76h2.06s0-4.24,0-4.24l-.67-.75,.67-.79v-2.94h0Zm-2.06,2.98h-1.17v-2.06h1.17v2.06h0Z"/><polygon class="cls-9" points="121.54 270.81 121.54 280.91 124.11 280.91 124.11 276.74 126.19 280.91 128.88 280.91 125.97 275.01 128.53 269.7 125.84 270.18 124.11 273.61 124.11 270.46 121.54 270.81 121.54 270.81"/><polygon class="cls-9" points="129.04 269.62 134.42 268.37 134.42 270.75 131.96 271.35 131.96 273.08 134.4 272.77 134.4 275.53 131.96 275.73 131.96 278.14 134.56 278.14 134.56 280.91 129.04 280.91 129.04 269.62 129.04 269.62"/><path class="cls-4" d="M138.32,272.58v-2.79l1.73-.47v3.05l-1.73,.21h0Zm-2.77,8.33h2.77v-5.47l1.73-.1v5.57h2.94s0-5.95,0-5.95l-.98-1.34,.9-1.44v-4.69l-1.25-1.44-6.11,2.02v2.85s0,10,0,10h0Z"/></g><g><path class="cls-9" d="M544.53,456.68c.63,.31,1.49,.5,2.51,.66,1.02,.16,1.98,.22,2.04,.98,0,.47-.51,1.1-1.59,1.1-1.62-.03-2-.91-2-1.51h-2.51c.09,1.92,1.68,3.28,4.36,3.28,2.38,0,4.33-.92,4.33-3.28,0-1.29-.96-2.21-2.45-2.59-1.56-.41-3.56-.34-3.56-1.32,.07-.66,.7-.85,1.66-.85,1.43,0,1.52,.8,1.56,1.3h2.42c-.16-1.86-1.69-3.13-4.1-3.13s-3.98,1.36-3.98,3.06c0,1.01,.54,1.89,1.34,2.3"/><polygon class="cls-9" points="513.93 448.16 509.51 440.59 501.15 445.35 502.77 448.16 513.93 448.16 513.93 448.16"/><polygon class="cls-9" points="517.49 460.97 519.88 460.97 519.88 451.41 517.49 451.41 517.49 460.97 517.49 460.97"/><path class="cls-9" d="M500.1,453.49c1.53,0,2.8,1.26,2.8,2.74s-1.27,2.71-2.8,2.71-2.77-1.23-2.77-2.71,1.27-2.74,2.77-2.74m-.06,7.7c1.08,0,2.06-.32,2.86-.85v.63h2.35v-9.56h-2.35v.76c-.83-.57-1.81-.86-2.86-.86-2.73,0-4.99,2.18-4.99,4.92s2.26,4.96,4.99,4.96"/><polygon class="cls-9" points="543.35 448.16 528.88 423.34 520.52 428.13 532.16 448.16 543.35 448.16 543.35 448.16"/><path class="cls-9" d="M511.17,458.95c-1.53,0-2.81-1.23-2.81-2.71s1.27-2.74,2.81-2.74,2.76,1.26,2.76,2.74-1.27,2.71-2.76,2.71m-.07-7.63c-2.77,0-5.02,2.18-5.02,4.92s2.26,4.96,5.02,4.96c1.05,0,2.01-.32,2.83-.85v.63h2.39v-12.81h-2.39v4.01c-.82-.57-1.78-.85-2.83-.85"/><polygon class="cls-9" points="517.49 450.53 519.88 450.53 519.88 448.16 528.69 448.16 519.31 432.07 510.91 436.84 517.49 448.16 517.49 450.53 517.49 450.53"/><path class="cls-9" d="M536.93,458.95c-1.5,0-2.77-1.23-2.77-2.71s1.27-2.74,2.77-2.74,2.73,1.26,2.73,2.74-1.24,2.71-2.73,2.71m5.12,2.02v-9.56h-2.39v.76c-.8-.57-1.78-.85-2.83-.85-2.73,0-4.99,2.18-4.99,4.92s2.26,4.96,4.99,4.96c1.09,0,2.04-.32,2.83-.85v.63h2.39Z"/><path class="cls-9" d="M525.89,458.95c-1.47,0-2.73-1.23-2.73-2.71s1.27-2.74,2.73-2.74,2.8,1.26,2.8,2.74-1.27,2.71-2.8,2.71m-.07-7.63c-2.73,0-4.99,2.18-4.99,4.92s2.26,4.96,4.99,4.96c1.08,0,2.07-.32,2.86-.85v.63h2.35v-12.81h-2.35v4.01c-.82-.57-1.78-.85-2.86-.85"/></g><g><rect class="cls-9" x="423.29" y="274.07" width="4.03" height="15.96"/><polygon class="cls-9" points="408.59 274.23 403.5 290.03 399.04 290.03 395.62 279.43 392.21 290.03 387.75 290.03 382.66 274.23 386.76 274.23 389.98 284.24 393.2 274.23 398.05 274.23 401.27 284.24 404.49 274.23 408.59 274.23"/><polygon class="cls-9" points="351.41 274.07 355.44 274.07 355.44 286.54 362.75 286.54 362.75 290.03 355.44 290.03 351.41 290.03 351.41 286.54 351.41 274.07"/><polygon class="cls-9" points="433.53 282.72 433.53 290.03 429.5 290.03 429.5 274.07 433.53 274.07 433.53 280.17 438.16 274.07 443.39 274.07 437.79 281.43 444.16 290.03 438.93 290.03 433.53 282.72"/><rect class="cls-9" x="444.7" y="274.07" width="4.03" height="15.96"/><polygon class="cls-9" points="454.73 282.72 454.73 290.03 450.7 290.03 450.7 274.07 454.73 274.07 454.73 280.17 459.37 274.07 464.59 274.07 459 281.43 465.36 290.03 460.13 290.03 454.73 282.72"/><rect class="cls-9" x="466.17" y="274.07" width="4.03" height="15.96"/><path class="cls-4" d="M362.61,281.29c0-4.2,3.41-7.6,7.61-7.6h1.9c3.43,0,6.34,2.27,7.28,5.4h-4.12c-.77-1.42-2.28-2.38-4.01-2.38h-.06c-2.52,0-4.56,2.04-4.56,4.56v1.67c0,2.52,2.04,4.56,4.56,4.56h.06c1.73,0,3.24-.96,4.01-2.38h4.12c-.94,3.12-3.85,5.4-7.28,5.4h-1.9c-4.2,0-7.61-3.4-7.61-7.6v-1.63Z"/><path class="cls-4" d="M408.96,274.99s5.73-2.8,10.33-.05c0,0,2.25,1.43,2.2,5.61l.05,9.65h-3.63s0-7.36,0-7.36c0,0-6.34-.56-6.49,2.25-.15,2.81,2.51,2.45,2.51,2.45,0,0,2.25-.25,3.06-1.74v3.11s-1.89,1.89-4.65,1.68-4.29-2.2-4.29-2.2c0,0-1.43-1.73-.46-4.64,.97-2.91,4.6-3.32,4.6-3.32,0,0,1.48-.26,5.16-.21,0,0,.31-2.5-1.33-3.01-1.63-.51-4.09-.1-4.09-.1,0,0-2.25,.56-3.94,1.79l.97-3.93Z"/></g><text class="cls-7" transform="translate(643.24 62.27) scale(.85 1)"><tspan x="0" y="0">SUBR</tspan><tspan class="cls-27" x="46.77" y="0">A</tspan></text><text class="cls-3" transform="translate(533.27 82.94) scale(.85 1)"><tspan x="0" y="0">TELENOR</tspan></text><text class="cls-7" transform="translate(415.11 109.06) scale(.85 1)"><tspan x="0" y="0">SESSI</tspan><tspan class="cls-24" x="47.98" y="0">L</tspan><tspan class="cls-22" x="56.89" y="0">Y</tspan></text><g><path class="cls-9" d="M181.72,161.44l.61-.87c.35,.57,.88,.87,1.42,.87,.45,0,.77-.28,.77-.67,0-.31-.21-.5-.48-.65-.34-.19-.78-.34-1.16-.59-.47-.31-.85-.78-.85-1.56,0-1.03,.74-1.83,1.82-1.83,.62,0,1.26,.25,1.76,.85l-.57,.92c-.32-.39-.8-.59-1.17-.59-.43,0-.69,.25-.69,.6,0,.31,.22,.49,.43,.62,.28,.15,.82,.39,1.18,.6,.52,.3,.91,.76,.91,1.56,0,1.11-.79,1.91-1.96,1.91-.82,0-1.57-.4-2.03-1.17Z"/><path class="cls-9" d="M187.64,156.24v6.27h-1.08v-6.27h1.08Z"/><path class="cls-9" d="M188.82,156.24h1.08v5.06h2.71v1.2h-3.79v-6.27Z"/><path class="cls-9" d="M197.24,156.24l-2.19,6.27h-.85l-2.22-6.27h1.24l1.41,4.33,1.4-4.33h1.22Z"/><path class="cls-9" d="M197.88,156.24h3.62v1.17h-2.55v1.35h2.36v1.17h-2.36v1.41h2.55v1.17h-3.62v-6.27Z"/><path class="cls-9" d="M204.19,160.22h-.64v2.28h-1.07v-6.27h2.05c1.25,0,1.83,.94,1.83,1.99,0,.75-.33,1.52-1.08,1.84l1.29,2.44h-1.25l-1.13-2.28Zm-.64-1.13h.88c.6,0,.83-.42,.83-.86s-.25-.84-.74-.84h-.97v1.7Z"/><path class="cls-9" d="M181.61,167.88c0-1.93,1.26-3.27,2.76-3.27,.99,0,1.84,.53,2.3,1.3l-.72,.82c-.37-.53-.9-.91-1.53-.91-.95,0-1.71,.86-1.71,2.05s.74,2,1.7,2c.63,0,1.18-.36,1.55-.92l.74,.79c-.47,.76-1.33,1.33-2.36,1.33-1.53,0-2.75-1.29-2.75-3.21Z"/><path class="cls-9" d="M187.06,167.88c0-1.82,1.22-3.27,2.78-3.27s2.78,1.45,2.78,3.25-1.21,3.23-2.79,3.23-2.78-1.42-2.78-3.22Zm4.46-.02c0-1.17-.75-2.01-1.67-2.01s-1.67,.86-1.67,2.01,.73,1.99,1.67,1.99,1.68-.85,1.67-1.99Z"/><path class="cls-9" d="M193.44,168.7v-3.98h1.08v3.89c0,.86,.41,1.26,1.01,1.26s1-.42,1-1.26v-3.89h1.08v3.98c0,1.65-.96,2.4-2.08,2.4s-2.09-.75-2.09-2.4Z"/><path class="cls-9" d="M200.45,168.71h-.64v2.28h-1.07v-6.27h2.05c1.25,0,1.83,.94,1.83,1.99,0,.75-.33,1.52-1.08,1.84l1.29,2.44h-1.25l-1.13-2.28Zm-.64-1.13h.88c.6,0,.83-.42,.83-.86s-.25-.84-.74-.84h-.97v1.7Z"/><path class="cls-9" d="M203.03,165.94v-1.21h4.14v1.21h-1.53v5.06h-1.08v-5.06h-1.53Z"/></g><text class="cls-8" transform="translate(239.98 261.31) scale(.85 1)"><tspan x="0" y="0">LAZARINI</tspan></text><g><path class="cls-9" d="M530.02,223.25c0-1.62,1.06-2.76,2.4-2.76,.76,0,1.44,.38,1.83,.87l-.59,.77c-.31-.37-.75-.6-1.23-.6-.85,0-1.47,.74-1.47,1.73s.59,1.73,1.45,1.73c.48,0,.94-.25,1.21-.57v-.73h-1.25v-.93h2.08v2.19c-.55,.68-1.27,1.06-2.07,1.06-1.37,0-2.36-1.16-2.36-2.74Z"/><path class="cls-9" d="M536.69,223.98h-.54v1.94h-.91v-5.33h1.74c1.06,0,1.55,.8,1.55,1.69,0,.64-.28,1.29-.92,1.57l1.1,2.08h-1.06l-.96-1.94Zm-.54-.96h.74c.51,0,.71-.36,.71-.73s-.21-.71-.63-.71h-.82v1.44Z"/><path class="cls-9" d="M541.82,224.76h-1.58l-.35,1.15h-.95l1.73-5.33h.74l1.71,5.33h-.96l-.34-1.15Zm-1.33-.95h1.07l-.53-1.78-.54,1.78Z"/><path class="cls-9" d="M547.53,220.58v5.33h-.62l-2.35-3.27v3.27h-.9v-5.33h.58l2.39,3.3v-3.3h.9Z"/><path class="cls-9" d="M548.54,220.58h1.77c1.37,0,2.18,1.03,2.18,2.68s-.83,2.66-2.22,2.66h-1.74v-5.33Zm1.78,4.31c.82,0,1.23-.75,1.23-1.65s-.42-1.63-1.23-1.63h-.87v3.28h.87Z"/><path class="cls-9" d="M529.93,230.48c0-1.55,1.04-2.78,2.36-2.78s2.36,1.23,2.36,2.76-1.02,2.75-2.37,2.75-2.36-1.21-2.36-2.74Zm3.78-.01c0-1-.64-1.71-1.42-1.71s-1.42,.73-1.42,1.71,.62,1.7,1.42,1.7,1.42-.72,1.42-1.7Z"/><path class="cls-9" d="M538.68,229.56c0,.91-.48,1.73-1.67,1.73h-.7v1.84h-.91v-5.33h1.67c1.14,0,1.6,.87,1.6,1.76Zm-.93-.01c0-.4-.23-.76-.66-.76h-.78v1.54h.73c.5,0,.71-.39,.71-.78Z"/><path class="cls-9" d="M538.91,228.83v-1.03h3.51v1.03h-1.29v4.3h-.92v-4.3h-1.29Z"/><path class="cls-9" d="M543.92,227.8v5.33h-.91v-5.33h.91Z"/><path class="cls-9" d="M544.67,230.48c0-1.65,1.07-2.78,2.34-2.78,.84,0,1.56,.46,1.95,1.1l-.61,.7c-.31-.45-.76-.77-1.29-.77-.81,0-1.45,.73-1.45,1.75s.62,1.7,1.44,1.7c.53,0,1-.31,1.32-.78l.63,.67c-.4,.64-1.13,1.13-2,1.13-1.29,0-2.33-1.1-2.33-2.73Z"/><path class="cls-9" d="M549.24,232.22l.52-.74c.3,.48,.74,.74,1.2,.74,.38,0,.65-.24,.65-.57,0-.27-.18-.43-.41-.56-.29-.16-.66-.29-.98-.5-.4-.27-.72-.66-.72-1.33,0-.88,.63-1.56,1.55-1.56,.53,0,1.07,.22,1.49,.72l-.49,.78c-.27-.33-.68-.5-.99-.5-.36,0-.58,.21-.58,.51,0,.27,.18,.42,.37,.53,.24,.13,.69,.33,1,.51,.44,.25,.77,.65,.77,1.33,0,.95-.67,1.62-1.66,1.62-.69,0-1.33-.34-1.72-1Z"/></g><text class="cls-6" transform="translate(503.81 299.09) scale(.85 1)"><tspan x="0" y="0">VI</tspan><tspan class="cls-26" x="9.44" y="0">V</tspan><tspan class="cls-13" x="15.47" y="0">A</tspan><tspan class="cls-17" x="21.48" y="0">C</tspan><tspan class="cls-16" x="28.26" y="0">OM</tspan></text><text class="cls-2" transform="translate(510.68 347.66) scale(.85 1)"><tspan class="cls-29" x="0" y="0">E</tspan><tspan class="cls-12" x="4.57" y="0">VELIN</tspan></text><text class="cls-5" transform="translate(498.73 390.27) scale(.58 1)"><tspan x="0" y="0">FLAIR</tspan></text><text class="cls-2" transform="translate(355.42 384.45) scale(.85 1)"><tspan x="0" y="0">E</tspan><tspan class="cls-23" x="4.59" y="0">S</tspan><tspan class="cls-28" x="8.88" y="0">TI</tspan><tspan class="cls-15" x="15.47" y="0">L</tspan></text><g><path class="cls-9" d="M304.54,361.49l2.25-3.58h-2.16v-.99h3.4v.79l-2.2,3.55h2.27v.99h-3.55v-.77Z"/><path class="cls-9" d="M308.82,356.92h.91v4.31h2.3v1.02h-3.21v-5.33Z"/><path class="cls-9" d="M315.05,361.1h-1.58l-.35,1.15h-.95l1.73-5.33h.74l1.71,5.33h-.96l-.34-1.15Zm-1.32-.95h1.07l-.53-1.78-.54,1.78Z"/><path class="cls-9" d="M316.07,357.96v-1.03h3.51v1.03h-1.29v4.3h-.92v-4.3h-1.29Z"/><path class="cls-9" d="M324.04,356.92v5.33h-.62l-2.35-3.27v3.27h-.9v-5.33h.58l2.39,3.3v-3.3h.9Z"/><path class="cls-9" d="M327.47,361.1h-1.58l-.35,1.15h-.95l1.73-5.33h.74l1.71,5.33h-.96l-.34-1.15Zm-1.32-.95h1.07l-.53-1.78-.54,1.78Z"/><path class="cls-9" d="M309.09,367.53h-.54v1.94h-.91v-5.33h1.74c1.06,0,1.55,.8,1.55,1.69,0,.64-.28,1.29-.92,1.57l1.1,2.08h-1.06l-.96-1.94Zm-.54-.96h.74c.51,0,.71-.36,.71-.73s-.21-.71-.63-.71h-.82v1.44Z"/><path class="cls-9" d="M312.7,364.14v5.33h-.91v-5.33h.91Z"/><path class="cls-9" d="M317.21,367.92c0,.84-.53,1.55-1.44,1.55h-2.07v-5.33h1.98c.87,0,1.29,.68,1.29,1.33,0,.47-.25,.92-.62,1.08,.58,.17,.86,.75,.86,1.37Zm-2.61-2.85v1.16h.89c.4,0,.58-.31,.58-.6s-.19-.56-.54-.56h-.93Zm1.67,2.76c0-.35-.21-.71-.67-.71h-.99v1.41h.99c.46,0,.67-.36,.67-.7Z"/><path class="cls-9" d="M319.42,367.35l-.56,.79v1.33h-.91v-5.33h.91v2.52l1.72-2.52h1.1l-1.66,2.42,1.78,2.91h-1.12l-1.26-2.11Z"/><path class="cls-9" d="M324.65,368.31h-1.58l-.35,1.15h-.95l1.73-5.33h.74l1.71,5.33h-.96l-.34-1.15Zm-1.32-.95h1.07l-.53-1.78-.54,1.78Z"/></g><g><path class="cls-9" d="M666.46,452.04c-1.9,0-3.44-1.18-3.44-2.62s1.54-2.62,3.44-2.62,3.44,1.18,3.44,2.62-1.54,2.62-3.44,2.62Zm0-4.24c-1.32,0-2.44,.74-2.44,1.62s1.12,1.62,2.44,1.62,2.44-.74,2.44-1.62-1.12-1.62-2.44-1.62Z"/><path class="cls-9" d="M666.85,456.34c-.18,0-.29,0-.32,0l-.48-.02,.02-5.36,.58,.1c.06,0,2.04,.23,4.89-2.2,2.61-2.23,6.75-2.15,6.93-2.15h.49v5.39l-.55-.05c-.1-.01-2.58-.22-4.72,1.96-2.13,2.17-5.74,2.34-6.83,2.34Zm.22-4.29v3.28c1.16-.03,4.17-.28,5.9-2.04,1.88-1.91,4-2.23,4.99-2.26v-3.33c-1.12,.05-3.94,.34-5.76,1.9-2.35,2.01-4.22,2.39-5.12,2.44Z"/><path class="cls-4" d="M681.35,448.12c0-.55,.45-.92,1.15-.92s1.15,.37,1.15,.92v6.56c0,.55-.45,.92-1.15,.92s-1.15-.37-1.15-.92v-6.56h0Z"/><path class="cls-4" d="M685.88,448.28c0-.77,.46-1.08,1.44-1.08,.48,0,.9,.15,1.15,.48l4.02,5.22h.03v-4.81c0-.6,.42-.89,1.11-.89s1.11,.29,1.11,.89v6.36c0,.73-.39,1.15-1.36,1.15-.73,0-.97-.12-1.26-.5l-4-5.07h-.03v4.68c0,.6-.42,.89-1.11,.89s-1.11-.29-1.11-.89v-6.43h0Z"/><path class="cls-4" d="M699.02,448.9h-2.17c-.66,0-1.19-.27-1.19-.78s.53-.78,1.19-.78h6.65c.66,0,1.19,.27,1.19,.78s-.53,.78-1.19,.78h-2.17v5.78c0,.55-.45,.92-1.15,.92s-1.15-.37-1.15-.92v-5.78h0Z"/><path class="cls-4" d="M705.55,448.43c0-.82,.53-1.08,1.35-1.08h5.4c.67,0,1.16,.16,1.16,.74s-.49,.74-1.16,.74h-4.45v1.76h3.9c.6,0,1.08,.14,1.08,.71s-.48,.71-1.08,.71h-3.9v1.96h4.56c.67,0,1.16,.16,1.16,.74s-.49,.74-1.16,.74h-5.51c-.81,0-1.35-.26-1.35-1.08v-5.95h0Z"/><path class="cls-4" d="M717.68,448.77h2.37c1.01,0,1.67,.23,1.67,1.09,0,.91-.87,1.09-1.74,1.09h-2.3v-2.19h0Zm-2.3,5.91c0,.55,.45,.92,1.15,.92s1.15-.37,1.15-.92v-2.38h2.27c1.26,0,1.58,.57,1.58,1.99,0,.33,.1,1.31,1.36,1.31,.53,0,1.08-.29,1.08-.72,0-.38-.31-.73-.31-1.67,0-.82-.21-1.51-1.39-1.64v-.02c1.09-.2,1.74-1.07,1.74-1.95,0-1.05-.73-2.25-3.46-2.25h-3.83c-.81,0-1.35,.26-1.35,1.08v6.25h0Z"/><path class="cls-4" d="M733.64,449.46c-.86-.24-1.87-.4-2.96-.4-.6,0-1.64,.01-1.64,.53,0,1.04,5.25,.06,5.25,3.15,0,2.15-2.64,2.69-4.86,2.69-1.47,0-2.69-.12-4.12-.38v-2.08c1.03,.34,2.29,.53,3.43,.53,.9,0,1.72-.15,1.72-.55,0-1.08-5.25-.1-5.25-3.21,0-2.2,2.86-2.6,5.13-2.6,1.07,0,2.26,.1,3.3,.28v2.06h0Z"/><path class="cls-4" d="M737.6,449.37h.35c.6,0,1.34,.03,1.34,.66s-.69,.74-1.33,.74h-.36v-1.4h0Zm-3.5,5.85h3.5v-2.42h1.86c2.03,0,3.31-1.02,3.31-2.67,0-1.99-1.73-2.95-4.06-2.95h-4.61v8.04h0Z"/><path class="cls-4" d="M748,449.69c1.15,0,1.87,.71,1.87,1.57,0,.92-.77,1.55-1.87,1.55s-1.87-.63-1.87-1.55c0-.85,.72-1.57,1.87-1.57h0Zm0-2.65c-3.04,0-5.54,1.64-5.54,4.17s2.48,4.13,5.54,4.13,5.54-1.55,5.54-4.13-2.5-4.17-5.54-4.17h0Z"/><path class="cls-4" d="M756.98,449.37h.28c.62,0,1.17,.07,1.17,.69s-.6,.67-1.2,.67h-.25v-1.37h0Zm-3.56,5.85h3.56v-2.58h.07l1.59,2.58h4.2l-2.18-2.61c-.2-.23-.42-.36-.61-.48v-.06c1.36-.36,1.94-.87,1.94-2.09,0-2.03-1.91-2.79-4.17-2.79h-4.4v8.04h0Z"/><polygon class="cls-4" points="761.56 447.17 769.21 447.17 769.21 449.79 767.21 449.71 767.21 455.21 763.57 455.21 763.57 449.71 761.56 449.79 761.56 447.17 761.56 447.17"/><path class="cls-4" d="M771.1,448.53c-.48,0-.83-.28-.83-.67s.36-.67,.83-.67,.83,.28,.83,.67-.36,.67-.83,.67h0Zm0,.21c.61,0,1.09-.39,1.09-.88s-.49-.88-1.09-.88-1.09,.39-1.09,.88,.48,.88,1.09,.88h0Zm.25-.82c.2-.01,.31-.08,.31-.25,0-.24-.18-.28-.44-.28h-.55v.91h.25v-.39h.18l.25,.39h.28l-.28-.39h0Zm-.43-.14v-.23h.25c.11,0,.26,0,.26,.09,0,.12-.07,.14-.2,.14h-.3Z"/></g><text class="cls-1" transform="translate(684.35 389.71) scale(.85 1)"><tspan x="0" y="0">T</tspan><tspan class="cls-30" x="8.09" y="0">E</tspan><tspan x="16.52" y="0">ODOR</tspan></text><g><polygon class="cls-10" points="600.58 11.01 605.12 8.47 605.12 11.55 600.58 14.1 596.04 11.54 596.05 8.45 600.58 11.01"/><polygon class="cls-10" points="600.59 6.79 605.13 4.24 605.13 7.33 600.59 9.87 596.05 7.31 596.06 4.23 600.59 6.79"/><polygon class="cls-10" points="600.6 2.56 605.14 .02 605.14 3.1 600.59 5.64 596.06 3.09 596.06 0 600.6 2.56"/></g><path class="cls-10" d="M321.34,288.71c0-1.22-.99-2.2-2.21-2.2h-14.4c-1.22,0-2.21,.99-2.21,2.2v14.39c0,1.22,.99,2.2,2.21,2.2h14.4c1.22,0,2.21-.98,2.21-2.2v-14.39Zm-5.31,.58c.61,0,1.1,.49,1.1,1.1s-.49,1.1-1.1,1.1-1.1-.49-1.1-1.1,.49-1.1,1.1-1.1Zm-8.49,0c.61,0,1.1,.49,1.1,1.1s-.49,1.1-1.1,1.1-1.1-.49-1.1-1.1,.49-1.1,1.1-1.1Zm2.2,3.15l-.31,3.68c-.02,.23-.17,.43-.39,.51h0c-.22,.09-.37,.29-.38,.53l-.29,4.77c-.02,.32-.29,.57-.61,.57h-.41c-.32,0-.59-.25-.61-.57l-.29-4.77c-.01-.24-.17-.45-.38-.53-.22-.08-.37-.29-.39-.52l-.3-3.68c-.02-.3,.18-.58,.48-.65l.3-.07c.21-.05,.41,.01,.56,.16l.42,.43c.24,.23,.63,.23,.86,0l.43-.43c.15-.15,.36-.21,.56-.16l.31,.07c.27,.07,.47,.35,.46,.65Zm2.34,10.07c0,.16-.13,.29-.3,.29s-.3-.13-.3-.29v-13.21c0-.16,.14-.29,.3-.29s.3,.13,.3,.29v13.21Zm6.11-5.87c-.21,.05-.34,.25-.31,.46l.13,.94c.03,.22-.13,.44-.34,.46l-.28,.03c-.19,.03-.34,.19-.35,.38l-.19,3.03c-.02,.32-.29,.57-.61,.57h-.41c-.32,0-.59-.25-.61-.57l-.19-3.03c-.01-.2-.16-.35-.35-.38l-.28-.03c-.22-.03-.38-.24-.34-.46l.13-.94c.03-.21-.1-.4-.31-.46-.21-.05-.34-.26-.3-.48l.83-3.94c.06-.28,.38-.42,.62-.26l.78,.5c.13,.09,.31,.09,.45,0l.78-.5c.24-.15,.56-.02,.62,.26l.83,3.94c.04,.21-.1,.43-.31,.48Z"/><g><g><path class="cls-9" d="M249.5,481.56c.15,.38,.42,.7,.8,.97,.39,.26,.82,.41,1.29,.46,.47,.05,.93-.01,1.39-.18,.46-.17,.87-.43,1.24-.81,.28-.31,.46-.66,.52-1.04,.06-.39,.01-.77-.15-1.14-.16-.37-.43-.69-.81-.96-.39-.26-.81-.41-1.28-.47-.46-.05-.91-.01-1.34,.12-.43,.13-.79,.35-1.09,.65-.35,.38-.58,.78-.67,1.2-.09,.42-.06,.82,.09,1.2Z"/><path class="cls-9" d="M227.61,460.83c-.18-.17-.4-.33-.65-.5l-.32-.22-1.54,1.63,.32,.22c.23,.16,.46,.31,.69,.42,.23,.12,.46,.16,.7,.14,.24-.02,.48-.16,.73-.42,.25-.27,.37-.51,.36-.71-.01-.2-.11-.39-.29-.56Z"/><path class="cls-9" d="M245.21,463.24c-11.77-8.08-23.97-10.75-27.26-5.96-3.29,4.79,3.58,15.22,15.34,23.31,11.76,8.08,23.97,10.75,27.26,5.96s-3.58-15.23-15.35-23.31Zm2.89,14.55c.64-.65,1.39-1.1,2.24-1.35,.85-.24,1.72-.3,2.6-.16,.88,.14,1.68,.45,2.4,.93,.71,.5,1.24,1.09,1.58,1.8,.34,.7,.46,1.44,.36,2.19-.1,.76-.46,1.48-1.07,2.15-.68,.7-1.45,1.21-2.3,1.51-.86,.3-1.73,.4-2.63,.28-.89-.11-1.74-.44-2.53-.98-.78-.55-1.34-1.18-1.66-1.9-.32-.72-.39-1.47-.23-2.25,.17-.78,.58-1.52,1.25-2.23Zm-20.81-13.16c-.78,.05-1.59-.21-2.42-.79l-1.08-.74-2.05,2.16-1.9-1.31,6.19-6.53,2.91,2c.53,.36,.92,.75,1.18,1.18,.25,.43,.34,.87,.27,1.34-.08,.47-.35,.95-.82,1.45-.73,.76-1.49,1.17-2.27,1.22Zm7.85,3.24l-1.36,1.44-3.26-2.24-1.07,1.13,3.38,2.32-1.36,1.44-5.28-3.63,6.19-6.53,5.28,3.63-1.36,1.44-3.38-2.32-1.03,1.09,3.26,2.24Zm7.06,4.22c-.73,.76-1.49,1.17-2.27,1.22-.79,.05-1.59-.21-2.42-.79l-1.08-.74-2.05,2.16-1.9-1.31,6.19-6.53,2.91,2c.53,.36,.92,.75,1.18,1.18,.25,.43,.34,.87,.27,1.34-.07,.47-.35,.95-.82,1.46Zm-.5,1.52c.43-.45,.93-.82,1.5-1.1,.57-.28,1.19-.47,1.84-.55,.68-.08,1.35-.05,2.01,.1,.66,.15,1.25,.4,1.78,.76,.6,.42,1.07,.93,1.43,1.52l-1.93,2.03c.02-.37-.06-.72-.23-1.04-.18-.32-.43-.6-.76-.83-.39-.26-.81-.42-1.25-.46-.44-.04-.87,.02-1.29,.18-.42,.16-.79,.41-1.12,.75-.49,.53-.71,1.08-.66,1.65,.05,.57,.37,1.07,.96,1.49,.32,.21,.68,.36,1.08,.43,.41,.08,.81,.07,1.22,0l-1.93,2.03c-.4-.12-.75-.25-1.06-.37-.31-.12-.62-.28-.91-.48-.51-.35-.92-.77-1.24-1.26-.31-.49-.51-1.02-.6-1.59-.09-.6-.04-1.18,.17-1.73,.2-.55,.54-1.06,1-1.55Zm-2.07,10.05c-4.68-2.48-4.15-2.3,.08-.27,8.41,4.04,16.42,4.89,18.99,1.14,.8-1.17,1.24-2.84,.78-4.58,.41,.9,.83,1.99,.83,2.89,.06,1.09-.27,2.22-.81,3.01-2.58,3.75-11.21,2.4-19.87-2.19Z"/><path class="cls-9" d="M240.24,469.51c-.18-.17-.4-.34-.65-.5l-.32-.22-1.54,1.63,.32,.22c.23,.17,.46,.31,.69,.42,.23,.12,.46,.17,.7,.14,.24-.02,.48-.16,.73-.42,.25-.27,.37-.51,.36-.71-.01-.2-.11-.39-.29-.56Z"/></g><path class="cls-9" d="M234.42,455.79c28.58,11.9,33.13,27.46,28.14,32.14-.07,.07-.14,.15-.21,.22,7.45-2.98,11.62-14.77-9.13-25.86-4.46-2.38-11.81-4.85-18.81-6.5"/><path class="cls-9" d="M244.09,488.04c-28.59-11.89-33.13-27.45-28.15-32.13,.07-.07,.13-.15,.2-.22-7.45,2.97-11.62,14.77,9.14,25.85,4.46,2.38,11.81,4.85,18.81,6.5"/></g><g><path d="M238.82,71.17c0-.55,.02-1.11,0-1.66-.01-.29,.07-.44,.37-.53,2.86-.86,5.76-1.57,8.75-1.76,2.72-.18,5.37,.34,8,.98,.95,.23,1.9,.51,2.84,.8,.15,.04,.35,.23,.35,.35,.01,1.28,.07,2.58-.04,3.85-.15,1.8-1.08,3.27-2.3,4.55-2.12,2.21-4.73,3.66-7.54,4.78-.14,.06-.37,.06-.51,0-2.76-1.1-5.33-2.52-7.43-4.66-1.28-1.3-2.22-2.81-2.42-4.66-.07-.67-.04-2.03-.05-2.03Zm2.89,5l-.02,.16c.7,.22,1.38,.48,2.09,.66,1.96,.51,3.94,.72,5.91,.06,1.61-.53,1.94-1.88,.77-3.09-.99-1.02-2.22-1.67-3.52-2.19-.48-.19-.96-.36-1.51-.57,.82-1.2,2.18-1.29,3.3-1.81-1.89,.02-3.76,.16-5.52,.87-.41,.17-.82,.39-1.16,.68-.43,.36-.4,.96,.05,1.29,1.17,.85,2.56,.93,3.9,1.2l.1-.17c-.58-.63-1.16-1.26-1.68-1.83,.76,.25,2.2,1.73,2.41,2.53,.21,.83-.08,1.51-.88,1.84-.44,.18-.92,.32-1.39,.35-.94,.05-1.89,.02-2.83,.02Zm10.85-5.83c2.01,1.89,2.44,3.52,1.27,4.26-.18-.58-.27-1.25-.59-1.76-.42-.66-1.04-1.21-1.58-1.8-.57-.62-1.28-.81-2.09-.66-.68,.13-1.36,.28-2.04,.44-.12,.03-.22,.11-.42,.21,.24,.07,.37,.11,.5,.15,1.28,.38,2.48,.92,3.46,1.86,1.35,1.29,1.38,2.79,.07,4.13-.23,.24-.49,.45-.74,.67,1.49-.34,2.96-.73,4.25-1.55,.61-.39,1.2-.86,1.66-1.41,.3-.36,.5-.93,.51-1.41,.07-1.82-2.3-3.55-4.26-3.13Z"/><path d="M238.83,77.51c2.05,4.3,5.78,6.56,9.81,8.45,.18,.09,.47,.1,.65,.02,2.62-1.15,5.04-2.61,7.12-4.6,1.14-1.1,2.07-2.34,2.68-3.85,.43,3.16-.72,5.66-2.98,7.73-1.99,1.82-4.3,3.12-6.79,4.11-.18,.07-.43,.09-.61,.02-2.59-1.03-5.01-2.37-7.03-4.32-2.27-2.18-2.89-3.84-2.85-7.55Z"/><path d="M225.45,80.05c-.64,0-1.17,.02-1.69-.01-.14,0-.3-.16-.4-.29-.41-.52-.79-1.06-1.2-1.58-.1-.12-.27-.26-.41-.27-.83-.03-1.67-.01-2.56-.01v2.13h-1.58v-6.18s.07-.06,.12-.06c1.78,0,3.57-.03,5.35,.02,1.11,.03,1.83,.66,2.02,1.58,.22,1.06-.15,1.76-1.23,2.32-.03,.01-.04,.05-.08,.11,.53,.71,1.07,1.43,1.67,2.24Zm-6.24-4.83v1.24c1.23,0,2.42,.01,3.62,0,.36,0,.66-.16,.66-.61,0-.4-.24-.61-.6-.62-1.22-.02-2.45,0-3.68,0Z"/><path d="M190.78,78.82c.22-.27,.43-.53,.63-.78,.07-.08,.18-.1,.27-.04,1.19,.74,2.47,.92,3.82,.76,0,0,.01,0,.02,0,2.43-.31,2.42-.96-.01-1.25-.09-.01-.17-.02-.26-.03-.85-.09-1.71-.13-2.56-.22-.24-.02-.49-.11-.72-.21-1.15-.48-1.41-1.89-.4-2.62,.55-.4,1.28-.63,1.96-.74,1.42-.23,2.82-.06,4.12,.61,.12,.06,.23,.13,.39,.23,.12,.07,.13,.24,.03,.33-.26,.23-.48,.44-.74,.62-.11,.07-.33,.07-.46,0-1.12-.48-2.27-.6-3.47-.41-.21,.03-.52,.12-.63,.33s.18,.4,.36,.42c.8,.11,1.6,.13,2.4,.24,.6,.08,1.21,.18,1.77,.39,1.33,.51,1.55,2.17,.37,2.99-.44,.31-.99,.52-1.52,.6-1.8,.29-3.57,.17-5.18-.81-.06-.04-.11-.08-.18-.13-.09-.07-.11-.21-.03-.3Z"/><path d="M275.58,79.02c.31-.39,.59-.74,.89-1.12,1.21,.8,2.54,1.02,3.95,.86,.28-.03,.57-.09,.82-.22,.18-.09,.42-.32,.41-.48,0-.15-.27-.38-.46-.43-.39-.11-.81-.13-1.22-.17-.78-.07-1.57-.12-2.35-.21-.25-.03-.5-.12-.74-.22-1.1-.47-1.28-1.99-.3-2.66,.53-.36,1.21-.57,1.85-.68,1.38-.23,2.74-.08,4.03,.54,.22,.11,.42,.24,.64,.37-.05,.08-.08,.13-.11,.17-.47,.63-.95,.93-1.81,.52-.91-.44-1.95-.39-2.95-.18-.11,.02-.21,.08-.31,.15-.16,.12-.15,.35,.02,.46,.1,.06,.2,.11,.31,.13,.99,.13,1.99,.2,2.98,.33,.37,.05,.74,.16,1.08,.3,1.21,.52,1.44,2.04,.42,2.89-.31,.25-.7,.46-1.08,.56-1.76,.44-3.51,.37-5.19-.38-.3-.14-.58-.33-.91-.53Z"/><path d="M297.39,80.01v-6.23c.68,0,1.35-.02,2.01,.02,.14,0,.28,.21,.39,.34,1.17,1.35,2.33,2.71,3.58,4.17v-4.49h1.62v6.24c-.66,0-1.3,.02-1.94-.01-.14,0-.3-.18-.41-.3-1.07-1.24-2.14-2.49-3.21-3.74-.11-.13-.23-.26-.43-.47v4.5h-1.62Z"/><path d="M211.91,73.57c1.06,0,2.03,.23,2.89,.83,1.59,1.11,1.82,3.44,.37,4.73-1.66,1.47-4.81,1.47-6.49,.02-1.47-1.27-1.27-3.6,.31-4.73,.86-.62,1.85-.86,2.93-.85Zm-.05,5.24c.67,0,1.35-.19,1.92-.55,1.04-.65,.96-2.06,0-2.75-.99-.72-2.81-.71-3.79,.02-1,.74-.95,2.14,.1,2.8,.53,.33,1.15,.48,1.76,.48Z"/><path d="M291.52,80.23c-.89-.02-1.89-.24-2.77-.89-1.53-1.13-1.69-3.42-.25-4.67,1.84-1.6,5.27-1.49,6.86,.36,1.1,1.28,.8,3.22-.54,4.25-.81,.63-1.86,.95-3.3,.94Zm-.54-1.51c.51,.14,1.06,.14,1.57-.01,.37-.11,.72-.22,1.03-.41,1.07-.64,1.06-2.04,.06-2.78-.99-.73-2.8-.73-3.79,0-1.04,.76-1.03,2.16,.08,2.8,.32,.18,.68,.29,1.05,.4Z"/><path d="M201.16,77.89v2.13h-1.59v-6.26h.43c1.57,0,3.14-.02,4.71,.03,.51,.02,1.07,.15,1.52,.39,.75,.41,.98,1.15,.87,1.97-.11,.86-.64,1.4-1.45,1.59-.53,.12-1.09,.13-1.64,.15-.93,.02-1.85,0-2.85,0Zm.02-1.42c1.22,0,2.37,.01,3.53,0,.39,0,.78-.1,.77-.61,0-.52-.38-.64-.8-.65-1.03-.01-2.07,0-3.1,0h-.4s0,1.27,0,1.27Z"/><path d="M263.42,73.77c.59,0,1.07-.03,1.54,.02,.16,.02,.36,.2,.45,.36,.74,1.26,1.46,2.54,2.18,3.81,.09,.15,.18,.29,.3,.49,.81-1.42,1.6-2.77,2.35-4.15,.22-.39,.45-.54,.92-.53,.36,0,.71,0,1.15,0-.2,.4-.3,.54-.53,.88-.96,1.46-1.96,3.4-2.65,4.58-.3,.6-.47,.79-.96,.85-.85,.11-1.3-.23-1.69-.97-.95-1.77-2-3.49-3.07-5.33Z"/><polygon points="228.76 75.19 225.82 75.19 225.82 73.79 233.3 73.79 233.3 75.19 230.36 75.19 230.36 80.02 228.76 80.02 228.76 75.19"/><rect x="272.96" y="73.8" width="1.56" height="6.21"/><rect x="284.53" y="73.8" width="1.55" height="6.21"/></g><path class="cls-4" d="M508.86,623.5l1.75-4.17,3.56,1.5c.08,.04,.08,.06,.05,.14l-.46,1.09c-.03,.08-.07,.08-.13,.05l-2.83-1.19c-.16-.07-.19-.06-.26,.11l-.35,.82c-.07,.16-.05,.19,.11,.26l4.28,1.8c.17,.07,.19,.06,.26-.11l1-2.37c.27-.64,.45-1.1-.45-1.48-1.64-.69-3.42-1.44-5.06-2.13-.14-.06-.24,.11-.24,.11,0,0,.08-.18-.08-.25l-6.75-2.84c-.93-.39-1-.17-1.41,.8l-1.88,4.47-.82-.35c-.19-.08-.17-.11-.11-.26l2.21-5.26c.08-.2,.05-.22-.09-.29l-1.28-.54c-.16-.07-.19-.07-.26,.11l-2.26,5.38-2.83-1.19,1.84-4.38,1.91,.81c.11,.05,.18,.08,.26-.11l.34-.81c.07-.17,.03-.2-.11-.26l-1.91-.81,1.42-3.37c.1-.25,.04-.31-.12-.37l-1.18-.5c-.25-.1-.26-.01-.34,.18l-1.38,3.28c-.04,.1-.01,.1-.13,.05l-.64-.27c-.19-.08-.2-.03-.26,.11l-.35,.82c-.08,.19-.02,.21,.11,.26l.64,.27c.13,.05,.08,.05,.05,.13l-1.76,4.19c-.03,.07-.04,.09-.13,.05l-3.28-1.38c-.07-.03-.1-.03-.05-.13l1.8-4.28,1.91,.81c.19,.08,.18,.09,.26-.11l.34-.81c.07-.17,.06-.2-.14-.29l-1.88-.79,1.42-3.37c.06-.15,.09-.28-.07-.35l-1.28-.54c-.16-.07-.21,0-.3,.2l-1.42,3.37-7.48-3.14c-1.09-.46-1.34,.37-1.54,.85l-1.46,3.46c-.1,.24-.09,.28,.07,.35l1.26,.53c.17,.07,.22,.04,.31-.18l1.46-3.48c.04-.1,.06-.08,.13-.05,2.25,.95,4.5,1.89,6.75,2.84l-1.92,4.56c-.37,.89,.04,1.2,.4,1.35,5.77,2.43,11.55,4.86,17.32,7.28,.14,.06,.19,.06,.26-.11l.3-.72c.04-.1,.05-.2-.14-.28l-4.16-1.75c-.08-.03-.09-.04-.05-.13l1.84-4.38,5.47,2.3-1.92,4.56c-.24,.56-.43,1,.76,1.5,4.5,1.89,9,3.78,13.49,5.67,.27,.12,.27,.12,.35-.08,.91-2.16,1.77-4.22,2.68-6.37,.06-.15,.05-.19-.11-.26l-1.27-.53c-.15-.06-.2-.04-.26,.11-.77,1.82-1.53,3.65-2.3,5.47l-.92-.39c-.18-.08-.18-.07-.11-.26l3.72-8.84c.09-.22,.1-.28-.07-.35l-1.31-.55c-.11-.04-.15-.05-.26,.21-1.25,2.98-2.5,5.96-3.76,8.93-.03,.06-.04,.09-.13,.05l-.73-.31c-.26-.11-.28-.11-.16-.39,1.24-2.95,2.48-5.9,3.72-8.84,.07-.17,.07-.18-.01-.22l-1.37-.58c-.1-.04-.1,0-.17,.16-1.25,2.98-2.57,6.12-3.83,9.1-1.92-.81-4-1.68-5.94-2.5-.39-.16-.37-.1-.23-.44h0Zm-48.75-30.77l-1.38,3.28c-.03,.07-.04,.09-.13,.05l-6.75-2.84c-1.02-.42-1.38,.49-1.39,.49l-1.69,4.01c-.04,.1-.02,.1,.05,.13l1.37,.58c.07,.03,.09,.04,.13-.05l1.53-3.65c.04-.09,.05-.08,.13-.05,2.07,.87,4.13,1.74,6.2,2.61l-2.26,5.38c-.07,.19-.04,.19,.11,.26,2.77,1.16,5.53,2.33,8.3,3.49,.17,.07,.98,.48,1.43-.59l1.61-3.82c.04-.11,.06-.18-.11-.25l-1.28-.54c-.18-.08-.21-.02-.26,.11l-1.5,3.56c-.04,.1-.07,.08-.13,.05l-6-2.52c-.1-.04-.11-.05-.07-.15l3.72-8.84c.1-.22,.12-.27-.07-.35l-1.29-.54c-.14-.06-.16-.07-.28,.2h0Zm16.28,11.03l-.35,.82c-.05,.11-.01,.21,.11,.26l2.37,1-1.84,4.38c-.03,.07-.03,.09-.13,.05-2.25-.95-4.5-1.89-6.75-2.84-.1-.04-.09-.04-.13,.05l-.35,.82c-.09,.21,0,.22,.11,.26,2.46,1.04,4.92,2.07,7.38,3.11,.17,.07,.27-.2,.29-.2,0,0-.09,.28,.08,.35,2.43,1.02,4.86,2.04,7.29,3.07,1.21,.51,1.44-.11,1.61-.5l1.61-3.83c.04-.09,.07-.19-.11-.26l-1.28-.54c-.15-.06-.2-.04-.26,.11l-1.5,3.56c-.03,.07-.04,.09-.13,.05l-6.11-2.57,1.88-4.47c.19-.45,.3-1.16-.45-1.48l-3.1-1.3c-.12-.05-.21,0-.26,.11h0Zm-33.15-14.05l-.42,1c-.03,.07-.04,.09,.05,.13l4.69,1.97s.05,.03,.03,.08l-2.17,5.16c-.08,.2-.02,.39,.13,.46,2.77,1.16,5.44,2.29,8.2,3.45,.24,.09,.95,.53,1.35-.4,.58-1.37,1.15-2.74,1.73-4.1,.03-.07,.02-.09-.14-.17l-1.19-.5c-.19-.08-.2-.05-.26,.11l-1.5,3.56c-.03,.07-.03,.09-.13,.05l-6.11-2.57c-.06-.02-.1-.02-.05-.13l1.88-4.47c.26-.63,.38-1-.49-1.39l-5.47-2.3c-.09-.04-.09-.04-.13,.05h0Zm-8.06-3.28l-.35,.82c-.08,.21,.06,.24,.2,.3l4.72,1.98c.15,.06,.12,.03,.06,.19l-1.78,4.24c-.03,.08-.05,.09-.13,.05l-2.64-1.11c-.08-.03-.09-.03-.13,.05l-.35,.82c-.07,.16-.05,.2,.11,.26l3.28,1.38c.16,.06,.29-.15,.32-.14,.04,.02-.09,.24,.13,.33l2.92,1.23c.3,.12,.38,.1,.52-.21l1.11-2.64c.04-.09,.05-.09,.13-.05l2.1,.88c.15,.07,.17,.08,.22-.01l.42-1c.03-.09-.03-.12-.14-.17l-2.83-1.19c-1.02-.41-1.36,.5-1.39,.49l-.9,2.13s-.03,.05-.07,.03l-.86-.36c-.08-.03-.08-.05-.05-.13l1.65-3.92c.41-.89,.68-1.54-.26-1.93l-5.65-2.38c-.18-.07-.3-.05-.35,.07h0Zm25.69,11.88l-1.57,3.74c-.08,.18-.03,.21,.11,.26l1.28,.54c.21,.09,.22-.02,.27-.14l1.52-3.61,7.11,2.99c.16,.07,.19,.07,.26-.11l.35-.82c.06-.15,.07-.19-.11-.26-2.61-1.1-5.12-2.15-7.73-3.25-.72-.29-1.02-.43-1.48,.67h0Zm14.46,.82l-3.34,7.93c-.03,.08-.05,.08,.05,.13l1.46,.61c.09,.04,.09,.04,.13-.05l3.34-7.93c.09-.19,.08-.28-.07-.35l-1.23-.52c-.12-.05-.25-.04-.35,.18h0Zm-41.15-10.33c-.91,2.16-1.81,4.32-2.72,6.47-.08,.18-.04,.21,.11,.26l1.37,.58c.18,.08,.22,.01,.3-.2,.89-2.13,1.79-4.25,2.68-6.38,.04-.08,.05-.19-.11-.26l-1.38-.58c-.11-.05-.18-.02-.25,.11h0Zm66.54,22.79l1.17,.49c.13,.05,.28,0,.33-.13l.56-1.33c.05-.13,0-.28-.13-.33l-1.17-.49c-.13-.05-.28,0-.33,.13l-.56,1.33c-.05,.13,0,.28,.13,.33h0Zm23.07,9.7l1.17,.49c.13,.05,.28,0,.33-.13l.56-1.33c.05-.13,0-.28-.13-.33l-1.17-.49c-.13-.05-.28,0-.33,.13l-.56,1.33c-.05,.13,0,.28,.13,.33h0Z"/><text class="cls-2" transform="translate(490.34 228.75) scale(.85 1)"><tspan x="0" y="0">KE</tspan><tspan class="cls-14" x="9.61" y="0">Y</tspan><tspan class="cls-25" x="14.26" y="0">S</tspan><tspan x="18.62" y="0">OO</tspan></text></g><polygon id="Galleria_Stara_Zagora2.002" class="cls-19" points="330.08 32.12 178.72 32.12 136.11 111.18 188.55 137.55 191.34 132.04 219.21 147.05 230.99 124.76 330.08 124.76 330.08 32.12"/><polygon id="Galleria_Stara_Zagora2.004" class="cls-19" points="331.94 32.12 331.94 125.11 386.95 125.11 386.95 81.03 371.52 81.03 371.52 32.12 331.94 32.12"/><rect id="Galleria_Stara_Zagora2.006" class="cls-19" x="404.53" y="83.6" width="79.45" height="37.72"/><rect id="Galleria_Stara_Zagora2.009" class="cls-19" x="485.76" y="32.12" width="45.51" height="89.21"/><rect id="Galleria_Stara_Zagora2.010" class="cls-19" x="532.77" y="32.12" width="38.01" height="89.21"/><polygon id="Galleria_Stara_Zagora2.011" class="cls-19" points="633.87 32.12 703.39 32.12 703.39 75.53 654.95 75.53 654.95 81.89 633.87 81.89 633.87 32.12"/><polygon id="Galleria_Stara_Zagora2.012" class="cls-19" points="633.87 83.46 633.87 130.04 733.82 130.04 733.82 98.75 703.39 98.75 703.39 77.39 656.66 77.39 656.66 83.6 633.87 83.46"/><polygon id="Galleria_Stara_Zagora2.014" class="cls-19" points="633.51 131.69 632.94 212.21 733.82 212.21 733.82 131.69 633.51 131.69"/><polygon id="Galleria_Stara_Zagora2.016" class="cls-19" points="634.38 225.39 634.38 354.65 797.2 354.65 797.2 296.8 764.99 296.8 764.99 284.47 751.31 284.47 751.31 257 687.86 257 687.86 225.39 634.38 225.39"/><rect id="Galleria_Stara_Zagora2.017" class="cls-19" x="634.38" y="356.89" width="162.82" height="50"/><polygon id="Galleria_Stara_Zagora2.018" class="cls-19" points="634.38 409.02 634.38 488.96 776.43 488.96 776.43 504.99 808.49 504.99 808.49 409.02 634.38 409.02"/><path id="Galleria_Stara_Zagora1.020_2.020" class="cls-19" d="M633.04,506.42v37.35l-90.94,32.5v107.25c109.47,46.32,257.8,92.45,266.5,95.24v-209.09h-49.62v-63.23h-125.94Z"/><path id="Galleria_Stara_Zagora2.024" class="cls-19" d="M540.33,576.87l-9.61,3.48-89.85-44.46-40.05,81.16c37.98,20.98,139.51,65.8,139.51,65.8v-105.98Z"/><polygon id="Galleria_Stara_Zagora2.026" class="cls-19" points="439.54 535.49 401.8 516.45 385.18 547.41 423.06 567.49 439.54 535.49"/><path id="Galleria_Stara_Zagora2.028" class="cls-19" d="M388.92,507.45l-43.01-22.65-16.34,31.65s37.81,22.95,42.1,23.67l17.24-32.67Z"/><path id="Galleria_Stara_Zagora2.034" class="cls-19" d="M344.61,484.23l-16.94,32.46,27.68,16.35-23.39,46.3c-86.4-49.85-174.18-108.86-187.2-123.08l46.51-67.75c70.1,49.79,145.63,91.79,153.33,95.73Z"/><path id="Galleria_Stara_Zagora2.038" class="cls-19" d="M190.15,387.56l-47.08,67.78s-52.16-38.94-58.4-46.03l47.19-63.77,58.29,42.02Z"/><polygon id="Galleria_Stara_Zagora1.036_2.040" class="cls-19" points="99.5 179.64 28.41 313.06 96.15 363.47 123.27 330.52 184.11 210.83 158.93 196.94 152.81 208.48 99.5 179.64"/><polygon id="Galleria_Stara_Zagora2.044" class="cls-19" points="191.88 134.69 165.4 184.82 192.47 198.71 219.16 149.05 191.88 134.69"/><rect id="Galleria_Stara_Zagora2.054" class="cls-19" x="523.43" y="194.27" width="35.67" height="61.58"/><rect id="Galleria_Stara_Zagora2.052" class="cls-19" x="486.15" y="194.27" width="35.6" height="66.71"/><polygon id="Galleria_Stara_Zagora2.056" class="cls-19" points="559.1 257.4 523.43 257.4 523.43 262.38 486.15 262.38 486.15 326.77 559.1 326.77 559.1 257.4"/><rect id="Galleria_Stara_Zagora2.058" class="cls-19" x="486.15" y="328.46" width="72.96" height="32.23"/><polygon id="Galleria_Stara_Zagora2.060" class="cls-19" points="559.1 362.26 437.84 362.26 437.84 389.13 488.04 389.13 488.04 409.02 559.1 409.02 559.1 362.26"/><polygon id="Galleria_Stara_Zagora2.063" class="cls-19" points="559.1 410.68 559.1 493.75 537.41 501.83 488.11 476.13 488.11 410.68 559.1 410.68"/><polygon id="Galleria_Stara_Zagora2.065" class="cls-19" points="437.84 390.88 486.5 390.88 486.5 475.28 437.84 448.88 437.84 390.88"/><polygon id="Galleria_Stara_Zagora2.066" class="cls-19" points="436.15 410.68 436.15 447.9 385.31 419.44 388.26 414.9 388.26 410.68 436.15 410.68"/><polygon id="Galleria_Stara_Zagora2.070" class="cls-19" points="386.51 361.42 386.51 414.12 384.05 418.13 340.23 392.71 340.23 361.42 386.51 361.42"/><polygon id="Galleria_Stara_Zagora1.042_2.050" class="cls-19" points="484.46 194.27 484.46 360.46 436.17 360.46 436.17 409.02 388.26 409.02 388.26 359.5 340.23 359.5 340.23 194.27 484.46 194.27"/><rect id="Galleria_Stara_Zagora2.048" class="cls-19" x="297.63" y="194.27" width="40.94" height="60.58"/><polygon id="Galleria_Stara_Zagora2.076" class="cls-19" points="296.1 194.27 296.1 254.85 287.11 254.85 287.11 225.92 258.53 225.92 252.91 223.65 268.33 194.27 296.1 194.27"/><polygon id="Galleria_Stara_Zagora2.075" class="cls-19" points="285.17 227.61 258.22 227.61 252.24 225.06 222.18 283.84 285.17 283.84 285.17 227.61"/><polygon id="Galleria_Stara_Zagora2.074" class="cls-19" points="211.25 312.17 252.21 312.17 252.21 323.13 242.75 332.59 211.25 312.17"/><polygon id="Galleria_Stara_Zagora2.072" class="cls-19" points="253.23 324.07 288.45 324.07 288.45 361.32 244.04 333.21 253.23 324.07"/><polygon id="Galleria_Stara_Zagora2.071" class="cls-19" points="289.81 332.46 338.88 332.46 338.88 392.08 289.81 362.27 289.81 332.46"/></svg>