<?xml version="1.0" encoding="UTF-8"?>
<svg id="Layer_4" data-name="Layer 4" xmlns="http://www.w3.org/2000/svg" viewBox="0 0 820.08 773.88">
  <defs>
    <style>
      .cls-1 {
        stroke-width: 2px;
      }

      .cls-1, .cls-2, .cls-3 {
        fill: none;
        stroke-miterlimit: 10;
      }

      .cls-1, .cls-3 {
        stroke: #231f20;
      }

      .cls-2 {
        stroke: #000;
      }

      .cls-4, .cls-5 {
        fill: #f47725;
      }

      .cls-5 {
        font-family: Axiforma-Bold, Axiforma;
        font-size: 36.9px;
      }

      .cls-5, .cls-6, .cls-7, .cls-8 {
        font-weight: 700;
      }

      .cls-9 {
        fill: #f1f2f2;
      }

      .cls-10, .cls-6, .cls-7, .cls-11, .cls-12, .cls-8 {
        fill: #231f20;
      }

      .cls-6 {
        font-size: 10.79px;
      }

      .cls-6, .cls-7, .cls-8 {
        font-family: BerlinSansFBDemi-Bold, 'Berlin Sans FB Demi';
      }

      .cls-7 {
        font-size: 17.51px;
      }

      .cls-13 {
        letter-spacing: -.04em;
      }

      .cls-11 {
        font-family: BritannicBold, 'Britannic Bold';
        font-size: 22.39px;
      }

      .cls-12 {
        fill-rule: evenodd;
      }

      .cls-8 {
        font-size: 8.77px;
      }

      .cls-14 {
        letter-spacing: 0em;
      }
    </style>
  </defs>
  <g id="cladire">
    <g>
      <path class="cls-9" d="M808.5,764.74c-19.35-6.46-37.5-12.43-55.05-18.21-14.88-4.89-30.26-9.96-46.56-15.38-25.49-8.48-53.57-18.3-75.12-26.28-77.54-28.71-152.57-61.62-223.01-97.83-124.59-64.04-236.58-137.27-332.83-217.65-.86-.72-2.77-2.27-5.43-4.43-8.75-7.11-25.04-20.35-39.07-32.4-7.86-6.75-13.96-12.23-18.14-16.29-6.26-6.09-9.9-10.1-7.63-14.35.29-.54,168.92-316.92,168.92-316.92h640.5v761.94l-6.58-2.2Z"/>
      <path class="cls-9" d="M810.08,10v750c-35.64-11.9-65.96-21.73-101.61-33.59-23.3-7.75-51.91-17.69-74.96-26.22-75.98-28.13-150.43-60.57-222.46-97.59-117.48-60.39-230.49-132.35-331.91-217.04-6.49-5.42-71.26-57.15-69.06-61.29,0,0,167.5-314.27,167.5-314.27h632.5M820.08,0H171.59l-2.82,5.3C167.09,8.43,1.57,318.98,1.26,319.57c-2.3,4.32-1.45,8.99,2.54,13.9,1.39,1.71,3.36,3.8,6.02,6.39,4.25,4.13,10.42,9.68,18.36,16.49,14.08,12.09,30.4,25.36,39.17,32.49,2.65,2.15,4.56,3.71,5.38,4.4,96.54,80.62,208.83,154.05,333.75,218.26,70.62,36.3,145.83,69.29,223.56,98.07,21.57,7.99,49.72,17.83,75.28,26.33,16.32,5.43,31.72,10.49,46.61,15.39,17.53,5.77,35.66,11.73,54.99,18.19l13.17,4.4V0h0Z"/>
      <path class="cls-1" d="M633.51,700.19c23.05,8.53,51.66,18.47,74.96,26.22,35.66,11.86,65.97,21.68,101.61,33.59V10H177.59S10.09,324.27,10.08,324.27c-2.2,4.14,62.57,55.87,69.06,61.29,101.42,84.69,214.44,156.66,331.91,217.04,72.02,37.02,146.48,69.46,222.46,97.59Z"/>
    </g>
  </g>
  <g id="magazine">
    <polyline class="cls-3" points="733.12 10 733.12 186.53 630.13 186.53 630.13 167.46 567.57 104.65 463.26 104.65 401.54 104.65 401.54 60.06 433.85 60.06 433.85 104.65"/>
    <polyline class="cls-3" points="384.84 10 384.84 104.04 368.86 104.04 358.64 114.73 178.87 114.73 134.26 91.3"/>
    <polyline class="cls-3" points="462.65 10 462.65 66.62 462.65 104.65"/>
    <line class="cls-3" x1="433.85" y1="67.12" x2="462.65" y2="67.12"/>
    <polyline class="cls-3" points="586.69 10 586.69 104.65 577.87 113.5 577.13 114.24"/>
    <line class="cls-3" x1="26.56" y1="293.36" x2="101.18" y2="352.5"/>
    <polyline class="cls-3" points="100.6 352.04 106.98 357.14 107.41 356.61 224.74 130.89 176.81 130.28 147.41 185.68 97.62 160.04"/>
    <polyline class="cls-3" points="107.03 408.3 111.22 402.56 112.31 400.99 94.52 389.31 149.71 318.12 262.85 395.63 257.29 404.5 388.5 482.29 367.77 522.84 351.07 513.97 329.27 558.22"/>
    <polyline class="cls-3" points="436.13 615.26 442.8 603.39 418.12 590.27 434.94 558.19 380.84 529.03 403.72 486.39 418.12 486.39 536.83 544.95 554.26 544.95 569.14 551.27 569.75 675.41"/>
    <polyline class="cls-3" points="810.08 644.94 800.52 636.68 736.75 636.68 736.75 487.36 793.87 487.36 793.87 435.36 643.11 435.36 630.74 435.36 630.74 699.16"/>
    <polyline class="cls-3" points="810.08 420.29 630.74 420.29 630.74 203.67 708.43 203.67 708.43 234.28 708.43 247.89 630.74 247.77"/>
    <polyline class="cls-3" points="708.43 235.62 750.18 235.62 750.18 247.89 810.08 247.89"/>
    <path class="cls-3" d="M288.87,157.25h249.77l34.25,34.02v292.2l-37.64,14.58c-114.27-52.96-225.6-118.86-334.61-195l9.68-18.83h35.7v18.35h38.12v8.26h51.43v-74.6h-53v-55.89l-3.75-2.31,10.04-20.78Z"/>
    <line class="cls-3" x1="335.58" y1="236.23" x2="335.58" y2="157.25"/>
    <polyline class="cls-3" points="335.58 310.83 335.58 379.35 329.46 387.41"/>
    <polyline class="cls-3" points="425.68 442.91 433.49 432.2 433.49 386.52 383.99 386.52 341.27 386.52 338.05 392.63"/>
    <polyline class="cls-3" points="482.25 270.25 531.02 270.25 531.02 236.47 572.17 236.47"/>
    <line class="cls-3" x1="482.25" y1="306.99" x2="572.89" y2="306.99"/>
    <polyline class="cls-3" points="572.17 436.21 483.95 436.21 441.47 436.21 436.45 447.08"/>
    <line class="cls-3" x1="483.46" y1="472.66" x2="483.46" y2="436.21"/>
    <polyline class="cls-3" points="543.8 435.84 543.8 468.65 533.2 468.65 533.2 497.1"/>
    <line class="cls-3" x1="282.58" y1="236.23" x2="282.58" y2="302.56"/>
    <line class="cls-3" x1="284.15" y1="310.83" x2="284.15" y2="359.03"/>
    <polyline class="cls-3" points="383.56 385.5 383.56 336.32 481.92 336.32 481.92 157.66"/>
  </g>
  <g id="logo">
    <text class="cls-7" transform="translate(624.48 86.99) scale(.85 1)"><tspan x="0" y="0">BERSHKA</tspan></text>
    <g>
      <polygon class="cls-10" points="78.2 216.47 82.82 218.36 88.17 227.49 88.17 220.03 91.98 221.01 91.98 235.23 88.5 235.23 82.22 224.71 82.22 235.23 78.2 235.23 78.2 216.47 78.2 216.47"/>
      <polygon class="cls-10" points="93.63 221.4 93.63 235.23 102.49 235.23 102.49 231.99 97.69 231.99 97.69 229.81 101.57 229.85 101.57 227.35 97.69 227.03 97.69 225.27 101.66 225.69 101.66 222.72 93.63 221.4 93.63 221.4"/>
      <polygon class="cls-10" points="102.57 222.86 105.3 235.23 108.71 235.23 111.02 228.7 112.68 235.23 116.02 235.23 119 224.58 115.76 224.39 114.25 229.81 112.77 224.06 109.59 223.79 107.51 229.85 106.24 223.39 102.57 222.86 102.57 222.86"/>
      <polygon class="cls-10" points="122.56 235.23 124.78 235.23 124.78 224.76 131.61 214.7 126.67 214.7 122.56 221.54 118.46 214.7 113.52 214.7 120.35 224.76 120.35 235.23 122.56 235.23 122.56 235.23"/>
      <path class="cls-10" d="M130.97,224.07l-3.33.22-1.61,1.51v1.71s0,5.99,0,5.99l1.65,1.73h3.22s1.57-1.76,1.57-1.76v-7.94s-1.5-1.46-1.5-1.46h0ZM130.14,233.15h-1.67v-6.44h1.67s0,6.44,0,6.44h0Z"/>
      <path class="cls-10" d="M139.97,224.7l-1.22-1.25-5.22.5v11.27h2.57v-4.54s1.41,0,1.41,0v4.54h2.47s0-5.12,0-5.12l-.81-.9.81-.95v-3.55h0ZM137.5,228.3h-1.41s0-2.49,0-2.49h1.41v2.49h0Z"/>
      <polygon class="cls-10" points="141.26 223.04 141.26 235.22 144.35 235.22 144.35 230.2 146.85 235.22 150.08 235.22 146.58 228.1 149.65 221.7 146.42 222.27 144.35 226.42 144.35 222.62 141.26 223.04 141.26 223.04"/>
      <polygon class="cls-10" points="150.26 221.6 156.73 220.1 156.73 222.97 153.77 223.69 153.77 225.77 156.7 225.4 156.7 228.74 153.77 228.97 153.77 231.89 156.89 231.89 156.89 235.22 150.26 235.22 150.26 221.6 150.26 221.6"/>
      <path class="cls-12" d="M161.4,225.17v-3.37s2.08-.57,2.08-.57v3.68l-2.08.26h0ZM158.08,235.22h3.32v-6.6l2.08-.12v6.72h3.53s0-7.18,0-7.18l-1.18-1.62,1.08-1.74v-5.65l-1.5-1.74-7.34,2.43v15.5h0Z"/>
    </g>
    <g>
      <rect class="cls-10" x="415.92" y="245.19" width="4.05" height="16.12"/>
      <polygon class="cls-10" points="401.15 245.34 396.04 261.31 391.55 261.31 388.12 250.6 384.69 261.31 380.2 261.31 375.09 245.34 379.21 245.34 382.44 255.45 385.68 245.34 390.56 245.34 393.79 255.45 397.03 245.34 401.15 245.34"/>
      <polygon class="cls-10" points="343.68 245.19 347.73 245.19 347.73 257.78 355.08 257.78 355.08 261.31 347.73 261.31 343.68 261.31 343.68 257.78 343.68 245.19"/>
      <polygon class="cls-10" points="426.21 253.93 426.21 261.31 422.16 261.31 422.16 245.19 426.21 245.19 426.21 251.35 430.87 245.19 436.12 245.19 430.5 252.62 436.89 261.31 431.64 261.31 426.21 253.93"/>
      <rect class="cls-10" x="437.43" y="245.19" width="4.05" height="16.12"/>
      <polygon class="cls-10" points="447.52 253.93 447.52 261.31 443.46 261.31 443.46 245.19 447.52 245.19 447.52 251.35 452.17 245.19 457.42 245.19 451.8 252.62 458.2 261.31 452.95 261.31 447.52 253.93"/>
      <rect class="cls-10" x="459.01" y="245.19" width="4.05" height="16.12"/>
      <path class="cls-12" d="M354.94,252.48c0-4.24,3.42-7.68,7.64-7.68h1.91c3.45,0,6.37,2.3,7.32,5.45h-4.14c-.78-1.43-2.29-2.4-4.03-2.4h-.06c-2.53,0-4.59,2.06-4.59,4.61v1.69c0,2.54,2.05,4.61,4.59,4.61h.06c1.74,0,3.26-.97,4.03-2.41h4.14c-.95,3.15-3.87,5.45-7.32,5.45h-1.91c-4.22,0-7.64-3.44-7.64-7.68v-1.64Z"/>
      <path class="cls-12" d="M401.52,246.12s5.75-2.83,10.38-.05c0,0,2.26,1.44,2.21,5.67l.05,9.75h-3.65s0-7.43,0-7.43c0,0-6.37-.57-6.52,2.27-.15,2.84,2.52,2.48,2.52,2.48,0,0,2.26-.25,3.08-1.75v3.14s-1.9,1.91-4.67,1.7-4.31-2.22-4.31-2.22c0,0-1.44-1.75-.46-4.69.97-2.94,4.63-3.36,4.63-3.36,0,0,1.49-.26,5.18-.21,0,0,.31-2.52-1.33-3.04-1.64-.52-4.11-.1-4.11-.1,0,0-2.26.57-3.96,1.8l.97-3.97Z"/>
    </g>
    <g>
      <path class="cls-10" d="M528.67,564.26c-1.22.55-2.18-.03-3.67,3.06-4.7,9.7-8.36,17.57-12.71,28.89.13-9.3,1.78-16.7,2.77-25.76.18-1.67.44-3.97.4-5.7-.03-1.33-1.35-1.51-4.02-.19-1.48.73-3.27.67-3.95,2.44-2.9,7.53-9.59,28.47-12.69,40.32-.75,2.85,2.06,3.32,2.9.4,2.04-7.06,6.71-22.67,9.49-30.72-.28,7.36-2.28,19-1.35,25.11.29,1.92,2.08,2.75,3,4.37.65,1.16,1.7,1.27,2.28-.31,2.72-7.45,8.01-20.58,13.12-31.09-1,4.63-4.84,24.25-5.91,32.07-.22,1.57,1.7,1.61,3.4,3.97.38.53,1.85,1.11,2.12-.25.91-4.69,6.84-35.16,9.16-44.84.62-2.61.45-3.92-4.34-1.78Z"/>
      <path class="cls-10" d="M489.9,586.4c2.04-3.06,2.63-2.44,3.12-3.37.61-1.17.21-2.26-1.97-1.99,0,0-.83.06-2.35.23,2.42-6.25,4.54-11.56,6.06-15.59.52-1.37.59-2.37-.26-2.57-.9-.22-3.52,1.2-5.12,1.48-.51.09-1,.63-1.17,1.02-2.57,5.93-4.88,11.59-6.87,16.74-2.56.44-5.55,1.01-8.89,1.77,2.39-6.17,4.81-12.25,7.17-18.1,1.16-2.88-1.9-3.15-3.08-.23-1.54,3.79-4.43,10.89-7.62,19.17-2.35.58-4.84,1.24-7.44,1.99-1.89.55-1.97,1.05-1.15,2.19.46.63,1.39.57,1.81,1.02,1.1,1.17,1.77,2.57,3.75,2.78-1.76,4.73-3.52,9.6-5.12,14.3-1,2.95,1.85,3.55,2.95.43,1.77-5.03,3.63-10.12,5.54-15.19,1.59-.37,5.45-1.21,9.02-1.98-2.83,7.78-4.69,13.69-5.39,16.57-.13.55.09.86.21,1.09.95,1.39,1.86,1.45,3.09,3.18.33.47,1.45.72,1.83-.43,2.62-7.95,5.31-15.4,7.83-22.09,1.04-.23,2.92-.68,4.07-2.41Z"/>
      <path class="cls-10" d="M491.83,598.53c-.18.16-.38.34-.57.53-.22-.68-.44-1.38-.65-2.03.62-.76,1.21-1.51,1.72-2.3,2.1-3.29-2.06-5.18-3.85-3.05-.96,1.14-.72,2.26-.46,3.22.08.3.21.72.36,1.23-.51.53-1.13,1.19-1.94,2.14-2.03,2.37-1.48,5.44.7,6.12,1.32.41,2.56-.19,3.63-1.14.05.14.11.27.15.4.57,1.43,2.33,1,1.66-.73-.12-.3-.26-.7-.43-1.17.34-.44.66-.89.94-1.3,1.29-1.93.04-3.06-1.27-1.92ZM490.45,594.01c-.2.22-.38.42-.57.62-.05-.17-.09-.32-.12-.45-.6-2.3,2.02-1.67.69-.17ZM489.03,601c-.8.49-1.43-.04-.36-1.51.18-.25.36-.49.54-.73.18.56.37,1.13.56,1.69-.25.21-.5.39-.75.55Z"/>
    </g>
    <g>
      <path class="cls-10" d="M647.66,570.16h2.31c.83,0,1.4-.15,1.73-.43.32-.29.48-.71.48-1.26,0-.51-.16-.91-.48-1.19-.33-.29-.89-.43-1.7-.43h-2.34v3.31h0ZM639.41,560.14h13.8c6.91,0,10.12,8.3,5.2,13.28,4.87,4.53,3.98,10.35-.29,12.9-1.54.92-3.76,1.08-5.98,1.08h-12.72v-27.25h0ZM647.66,580.62h2.78c1,0,1.69-.15,2.09-.43.39-.29.58-.71.58-1.26,0-.51-.19-.91-.58-1.19-.4-.29-1.07-.43-2.04-.43h-2.82v3.31h0Z"/>
      <polygon class="cls-10" points="663.67 559.35 671.86 559.35 671.86 587.39 663.67 587.39 663.67 559.35 663.67 559.35"/>
      <polygon class="cls-10" points="689.74 559.33 697.78 559.33 697.78 579.86 702.95 579.86 702.95 587.39 689.74 587.39 689.74 559.33 689.74 559.33"/>
      <path class="cls-10" d="M717.81,583.66h-5.48l-.81,3.73h-7.81l7.02-27.84,8.23.21,7.6,27.64h-8.1l-.65-3.73h0ZM716.33,578.15l-1.24-4.03-1.3,4.03h2.54Z"/>
      <polygon class="cls-10" points="674.49 559.33 682.53 559.33 682.53 579.86 687.71 579.86 687.71 587.39 674.49 587.39 674.49 559.33 674.49 559.33"/>
      <path class="cls-10" d="M726.13,559.27c.36,0,.71.09,1.05.28.34.18.61.45.8.79.19.34.29.7.29,1.07s-.09.72-.28,1.06c-.19.34-.45.61-.79.79-.34.19-.69.28-1.06.28s-.72-.09-1.06-.28c-.34-.19-.6-.45-.79-.79-.19-.34-.28-.69-.28-1.06s.1-.73.29-1.07c.19-.34.46-.61.8-.79.34-.18.69-.28,1.05-.28h0ZM726.13,559.63c-.3,0-.59.08-.87.23-.28.15-.51.37-.67.66-.16.29-.24.58-.24.9s.08.6.24.89c.16.28.38.5.66.66.28.16.58.24.88.24s.6-.08.88-.24c.28-.16.5-.38.66-.66.16-.28.23-.58.23-.89s-.08-.61-.24-.9c-.16-.29-.38-.51-.67-.66-.28-.15-.58-.23-.87-.23h0ZM725.2,562.6v-2.3h.79c.27,0,.46.02.59.06.12.04.22.12.29.22.07.11.11.22.11.34,0,.17-.06.31-.18.44-.12.13-.28.19-.48.21.08.03.15.07.19.12.09.09.21.24.34.46l.28.45h-.45l-.2-.36c-.16-.28-.29-.46-.39-.54-.07-.05-.17-.08-.3-.08h-.22v.98h-.37ZM725.57,561.3h.45c.21,0,.36-.03.44-.1.08-.06.12-.15.12-.26,0-.07-.02-.13-.06-.18-.04-.05-.09-.09-.16-.12-.07-.03-.19-.04-.37-.04h-.42v.7h0Z"/>
    </g>
    <g>
      <path class="cls-10" d="M695.74,353.21c-4.67,2.85-9.77,4.25-15.21,4.25-6.35,0-11.51-1.96-15.41-5.92-4.12-4.11-6.17-9.4-6.17-15.88s2.02-11.8,6.14-15.84c4.08-4.04,9.56-6.07,16.39-6.07,4.81,0,9.45,1.18,13.92,3.48v9.88c-4.36-3-8.79-4.51-13.25-4.51-4.01,0-7.18,1.18-9.49,3.51-2.3,2.33-3.45,5.51-3.45,9.55s1.08,7.03,3.28,9.4c2.2,2.41,5.16,3.59,8.89,3.59,4.78,0,9.56-1.78,14.37-5.33v9.88h0Z"/>
      <path class="cls-10" d="M778.71,353.21c-4.67,2.85-9.77,4.25-15.2,4.25-6.35,0-11.51-1.96-15.41-5.92-4.12-4.11-6.17-9.4-6.17-15.88s2.02-11.8,6.14-15.84c4.08-4.04,9.56-6.07,16.39-6.07,4.81,0,9.45,1.18,13.91,3.48v9.88c-4.36-3-8.79-4.51-13.25-4.51-4.01,0-7.18,1.18-9.49,3.51-2.3,2.33-3.45,5.51-3.45,9.55s1.08,7.03,3.28,9.4c2.2,2.41,5.16,3.59,8.89,3.59,4.78,0,9.56-1.78,14.37-5.33v9.88h0Z"/>
      <path class="cls-10" d="M737.21,353.21c-4.67,2.85-9.77,4.25-15.17,4.25-6.35,0-11.51-1.96-15.42-5.92-4.11-4.11-6.17-9.4-6.17-15.88s2.02-11.8,6.14-15.84c4.08-4.04,9.56-6.07,16.39-6.07,4.78,0,9.42,1.18,13.88,3.48v9.88c-4.36-3-8.79-4.51-13.22-4.51-4.01,0-7.18,1.18-9.49,3.51-2.3,2.33-3.45,5.51-3.45,9.55s1.08,7.03,3.28,9.4c2.2,2.41,5.16,3.59,8.89,3.59,4.74,0,9.52-1.78,14.33-5.33v9.88h0Z"/>
    </g>
    <text class="cls-7" transform="translate(489.53 217.07) scale(.85 1)"><tspan x="0" y="0">ANDREWS</tspan></text>
    <g>
      <path class="cls-10" d="M525.4,284.82c0,.08-.01.13-.04.14-.01.01-.06.02-.13.03-.19.02-.46.03-.81.03-.49,0-.78-.01-.87-.03-.09-.02-.13-.07-.13-.15,0-.29.01-.73.04-1.32.02-.59.04-1.03.04-1.32,0-.14-.03-.23-.1-.25-.11-.03-.49-.04-1.14-.04s-1.04.01-1.15.04c-.07.02-.1.1-.1.25,0,.29,0,.72.02,1.3.02.58.02,1.01.02,1.3,0,.11-.04.18-.13.19-.1.02-.4.03-.89.03-.42,0-.69-.01-.81-.03-.09-.02-.14-.08-.14-.17,0-.4.02-1,.05-1.81s.05-1.41.05-1.82c0-.43-.02-1.08-.05-1.94-.03-.86-.05-1.51-.05-1.94,0-.08.03-.12.1-.12.1,0,.24,0,.44.02s.34.02.44.02.25,0,.45-.02.35-.02.45-.02c.05,0,.08.03.08.1,0,.28-.02.69-.05,1.25-.03.55-.05.97-.05,1.25,0,.13.03.21.09.23.08.03.48.04,1.21.04.67,0,1.06-.01,1.17-.04.08-.02.11-.1.11-.23,0-.27-.01-.67-.03-1.21-.02-.54-.03-.94-.03-1.21,0-.11.04-.17.12-.17.09,0,.23,0,.42.02.19.01.33.02.42.02s.23,0,.42-.02c.19-.01.33-.02.42-.02s.14.04.14.13c0,.43-.01,1.07-.04,1.93-.03.86-.04,1.5-.04,1.93,0,.4.02,1.01.05,1.82s.05,1.41.05,1.81Z"/>
      <path class="cls-10" d="M531.08,283.26c0,.16-.03.45-.08.88-.06.46-.11.74-.15.83-.04.07-.09.11-.16.11-.03,0-.08,0-.14-.02-.23-.04-.9-.06-2.01-.06-.24,0-.6,0-1.08,0-.48,0-.83,0-1.07,0-.1,0-.16-.05-.16-.16,0-.41.02-1.04.06-1.87.04-.83.06-1.45.06-1.87s-.02-1.21-.06-2.36c0-.3-.03-.74-.05-1.33v-.08c-.01-.09.03-.13.11-.13.23,0,.58,0,1.05.02.47.02.82.02,1.05.02s.57,0,1.04-.02c.46-.01.81-.02,1.04-.02.16,0,.26.07.28.22.02.08.04.34.07.77.03.43.05.69.05.79,0,.08-.03.12-.09.12-.02,0-.05,0-.1,0-.83-.08-1.58-.12-2.25-.12-.17,0-.27.05-.31.14-.02.04-.02.19-.02.43s.03.42.09.5c.05.07.16.11.31.11.03,0,.09,0,.18,0,.09,0,.17,0,.23,0,.4,0,.8-.01,1.2-.04.04,0,.12-.01.26-.03.11-.01.19-.02.25-.02.08,0,.11.04.11.13,0-.08-.03.21-.08.85-.03.3-.04.59-.04.89,0,.07-.05.11-.14.11l-.42-.06c-.18-.02-.59-.03-1.22-.03h-.5c-.13,0-.2.04-.23.11,0,.02,0,.13,0,.34,0,.28.02.46.05.54.05.14.25.22.6.25,0,0,.22,0,.69,0,.17,0,.41-.02.74-.05s.57-.05.74-.05c.07,0,.1.07.1.2Z"/>
      <path class="cls-10" d="M537.32,284.94s-.03.04-.09.06c-.12.02-.42.03-.9.03-.41,0-.69-.01-.84-.03-.07-.01-.11-.02-.12-.03-.02-.01-.04-.05-.07-.11-.05-.14-.12-.36-.21-.64-.12-.37-.31-.92-.57-1.64-.06-.14-.19-.22-.39-.24.09,0-.07.01-.48.01-.05,0-.07.09-.07.28,0,.25.02.63.06,1.13.04.5.06.88.06,1.13,0,.06-.01.1-.04.11-.04,0-.09,0-.13.01-.18.01-.47.02-.87.02-.45,0-.72-.01-.81-.03s-.14-.08-.14-.17c0-.41.02-1.02.05-1.84s.05-1.44.05-1.85c0-1.57-.03-2.79-.09-3.67v-.08c0-.06.04-.11.14-.13.1-.02.58-.04,1.44-.07.58-.01,1.04-.02,1.39-.02.72,0,1.3.19,1.75.57.51.43.77,1.05.77,1.86,0,.54-.07.97-.2,1.29s-.38.64-.73.94c-.07.06-.11.11-.11.17,0,0,.19.46.57,1.39s.57,1.45.57,1.54ZM535.34,279.95c0-.45-.13-.77-.38-.94-.19-.13-.5-.2-.91-.2-.3,0-.46.05-.48.16-.02.13-.03.49-.03,1.09,0,.09,0,.21,0,.38s0,.29,0,.37c0,.02.05.04.15.06.19.03.39.05.6.05.69,0,1.03-.32,1.03-.97Z"/>
      <path class="cls-10" d="M544.87,284.82c0,.11-.05.17-.14.17h-1.67c-.09,0-.14-.06-.14-.19,0-.37.01-.94.04-1.68s.04-1.31.04-1.68c0-.11-.01-.16-.04-.17-.04.02-.25.59-.63,1.72-.23.66-.45,1.32-.68,1.97-.03.08-.07.14-.12.15-.02,0-.08,0-.19,0-.16,0-.26-.04-.29-.11-.17-.41-.39-1-.67-1.78-.29-.82-.52-1.42-.66-1.78,0-.02-.02-.04-.04-.06-.02.03-.03.09-.03.16,0,.36,0,.91.02,1.63.02.73.02,1.27.02,1.63,0,.13-.04.19-.13.19h-1.57c-.06,0-.1-.01-.12-.04-.01-.02-.02-.07-.02-.12,0-.4.02-1.01.05-1.82.03-.81.05-1.42.05-1.82,0-.43-.02-1.24-.05-2.42,0-.31-.02-.76-.04-1.37v-.09c0-.07.06-.11.19-.11.17,0,.43,0,.78-.02.35-.01.6-.02.78-.02.03,0,.08.08.15.23l1.38,3.56c.1.24.18.36.24.36.04,0,.11-.14.22-.42.32-.78.79-1.95,1.41-3.52.05-.14.11-.22.17-.22.09,0,.23,0,.41.02s.32.02.42.02c.08,0,.2,0,.36-.03.16-.02.28-.03.36-.03.09,0,.14.04.14.13,0,.44-.01,1.09-.04,1.96s-.04,1.52-.04,1.96c0,.4.01,1.01.04,1.82s.04,1.41.04,1.81Z"/>
      <path class="cls-10" d="M550.57,283.26c0,.16-.03.45-.08.88-.06.46-.11.74-.15.83-.04.07-.09.11-.16.11-.03,0-.08,0-.14-.02-.23-.04-.9-.06-2.01-.06-.24,0-.6,0-1.08,0-.48,0-.83,0-1.07,0-.1,0-.16-.05-.16-.16,0-.41.02-1.04.06-1.87.04-.83.06-1.45.06-1.87s-.02-1.21-.06-2.36c0-.3-.03-.74-.05-1.33v-.08c-.01-.09.03-.13.11-.13.23,0,.58,0,1.05.02.47.02.82.02,1.05.02s.57,0,1.04-.02c.46-.01.81-.02,1.04-.02.16,0,.26.07.28.22.02.08.04.34.07.77.03.43.05.69.05.79,0,.08-.03.12-.09.12-.02,0-.05,0-.1,0-.83-.08-1.58-.12-2.25-.12-.17,0-.27.05-.31.14-.02.04-.02.19-.02.43s.03.42.09.5c.05.07.16.11.31.11.03,0,.09,0,.18,0,.09,0,.17,0,.23,0,.4,0,.8-.01,1.2-.04.04,0,.12-.01.26-.03.11-.01.19-.02.25-.02.08,0,.11.04.11.13,0-.08-.03.21-.08.85-.03.3-.04.59-.04.89,0,.07-.05.11-.14.11l-.42-.06c-.18-.02-.59-.03-1.22-.03h-.5c-.13,0-.2.04-.23.11,0,.02,0,.13,0,.34,0,.28.02.46.05.54.05.14.25.22.6.25,0,0,.22,0,.69,0,.17,0,.41-.02.74-.05s.57-.05.74-.05c.07,0,.1.07.1.2Z"/>
      <path class="cls-10" d="M554.4,282.44c0,.75-.27,1.4-.8,1.93-.47.47-1.04.78-1.72.91-.02,0-.04,0-.06,0-.07,0-.23-.26-.48-.78s-.37-.84-.37-.95c0-.04.02-.07.07-.08.46-.12.76-.23.9-.31.33-.19.49-.48.49-.86,0-.24-.11-.51-.32-.81-.37-.5-.57-.78-.6-.84-.22-.39-.32-.81-.32-1.28,0-.68.26-1.24.8-1.69.43-.37.96-.61,1.6-.72.03,0,.06,0,.08,0,.05,0,.08.04.11.13.08.27.27.76.57,1.47,0,.02.01.04.01.06,0,.06-.03.09-.08.09-.03,0-.07,0-.13-.02s-.11-.02-.14-.02c-.23,0-.42.06-.59.18-.2.14-.31.34-.31.59,0,.23.11.5.34.83.4.59.61.9.63.93.22.41.33.81.33,1.22Z"/>
      <path class="cls-10" d="M527.21,293.97c0,.68-.18,1.25-.54,1.69-.41.51-1.13.77-2.17.77-.08,0-.19,0-.34,0h-.33c-1.16,0-1.85-.03-2.07-.08-.09-.02-.14-.08-.14-.17,0-.4.02-1,.06-1.8.04-.8.06-1.41.06-1.81,0-.43-.02-1.24-.06-2.42,0-.3-.03-.76-.05-1.37v-.08c0-.07.04-.11.14-.13.1-.01.46-.02,1.09-.02,1,0,1.59,0,1.76.01.77.03,1.34.18,1.71.44.49.35.73.95.73,1.78,0,.22-.06.45-.17.69-.08.17-.19.35-.32.52-.12.15-.17.22-.17.21,0,.03.04.07.12.12.22.15.39.38.52.71.11.29.17.6.17.92ZM525.19,290.84c0-.32-.13-.53-.4-.63-.15-.06-.4-.08-.74-.08s-.51.03-.51.09c0,.07,0,.18-.02.32s-.02.25-.02.32c0,.37.03.58.08.62.03.03.23.05.6.05.67,0,1.01-.23,1.01-.68ZM525.33,293.95c0-.33-.12-.56-.35-.68-.15-.07-.4-.11-.73-.11-.41,0-.62.02-.66.05-.04.04-.05.26-.05.68s.02.68.06.73c.04.05.27.07.68.07.34,0,.58-.03.72-.09.23-.11.34-.32.34-.64Z"/>
      <path class="cls-10" d="M534.35,292.48c0,1.16-.31,2.12-.94,2.91-.64.79-1.44,1.19-2.42,1.19s-1.77-.4-2.42-1.2c-.63-.78-.94-1.75-.94-2.89s.31-2.12.94-2.91c.64-.8,1.45-1.21,2.42-1.21s1.77.4,2.41,1.21c.63.79.95,1.76.95,2.91ZM532.56,292.47c0-.56-.14-1.03-.43-1.42-.3-.41-.68-.61-1.14-.61s-.82.21-1.12.63c-.3.41-.45.88-.45,1.41,0,.57.14,1.04.42,1.42.29.4.68.59,1.15.59.44,0,.82-.21,1.13-.63.29-.4.44-.86.44-1.39Z"/>
      <path class="cls-10" d="M541.59,292.48c0,1.16-.31,2.12-.94,2.91-.64.79-1.44,1.19-2.42,1.19s-1.77-.4-2.42-1.2c-.63-.78-.94-1.75-.94-2.89s.31-2.12.94-2.91c.64-.8,1.45-1.21,2.42-1.21s1.77.4,2.41,1.21c.63.79.95,1.76.95,2.91ZM539.8,292.47c0-.56-.14-1.03-.43-1.42-.3-.41-.68-.61-1.14-.61s-.82.21-1.12.63c-.3.41-.45.88-.45,1.41,0,.57.14,1.04.42,1.42.29.4.68.59,1.15.59.44,0,.82-.21,1.13-.63.29-.4.44-.86.44-1.39Z"/>
      <path class="cls-10" d="M548.08,296.06c0,.16-.06.26-.17.31-.09.04-.34.06-.74.06s-.67-.02-.85-.06c-.08-.02-.14-.04-.17-.06-.03-.02-.06-.07-.1-.16-.23-.5-.46-.99-.68-1.49-.37-.8-.6-1.24-.67-1.32-.34.14-.51.25-.51.31,0,.28,0,.7.03,1.26s.03.98.03,1.26c0,.11-.04.18-.13.19-.16.03-.46.04-.89.04s-.68-.01-.81-.04c-.09-.02-.14-.08-.14-.17,0-.4.02-1,.05-1.81s.05-1.41.05-1.82c0-.43-.02-1.08-.05-1.94-.03-.86-.05-1.51-.05-1.94,0-.08.03-.12.1-.12.1,0,.24,0,.44.02s.34.02.44.02.25,0,.45-.02c.2-.01.34-.02.44-.02.05,0,.08.03.08.1,0,.27-.01.69-.04,1.24s-.04.97-.04,1.24c0,.32.07.48.22.48.37,0,.66-.12.87-.36.15-.18.31-.5.47-.97.1-.36.27-.89.49-1.59.04-.09.11-.14.21-.14.08,0,.21,0,.37.02.16.01.29.02.37.02s.21,0,.38-.01c.17,0,.29-.01.37-.01.08,0,.11.04.11.13,0,.12-.07.42-.2.89-.39,1.4-.84,2.27-1.34,2.62-.1.07-.16.13-.16.17,0,0,.29.55.87,1.67.58,1.12.87,1.78.87,1.99Z"/>
      <path class="cls-10" d="M551.84,293.82c0,.75-.27,1.4-.8,1.93-.47.47-1.04.78-1.72.91-.02,0-.04,0-.06,0-.07,0-.23-.26-.48-.78s-.37-.84-.37-.95c0-.04.02-.07.07-.08.46-.12.76-.23.9-.31.33-.19.49-.48.49-.86,0-.24-.11-.51-.32-.81-.37-.5-.57-.78-.6-.84-.22-.39-.32-.81-.32-1.28,0-.68.26-1.24.8-1.69.43-.37.96-.61,1.6-.72.03,0,.06,0,.08,0,.05,0,.08.04.11.13.08.27.27.76.57,1.47,0,.02.01.04.01.06,0,.06-.03.09-.08.09-.03,0-.07,0-.13-.02s-.11-.02-.14-.02c-.23,0-.42.06-.59.18-.2.14-.31.34-.31.59,0,.23.11.5.34.83.4.59.61.9.63.93.22.41.33.81.33,1.22Z"/>
    </g>
    <g id="Brandingmodul_Deichmann_quadratisch_vertikal">
      <path id="Deichmann" class="cls-10" d="M446.52,367.85c.01,1.66-.7,3.36-2.68,3.37l-2.56.02-.04-6.67h2.28c1.86-.02,2.99,1.03,3,3.29M450.07,367.85c-.02-3.34-2.05-6.03-6.06-6.01-.24,0-6.27.04-6.27.04l.07,12.09s6.01-.04,6.27-.04c4.01-.03,6-2.75,5.98-6.08M452.12,373.88l10.18-.06-.02-2.61-6.7.04v-2.18s5.54-.03,5.54-.03v-2.51s-5.57.03-5.57.03v-2.18s6.69-.04,6.69-.04l-.02-2.61-10.18.06.07,12.09ZM464.78,373.8l3.48-.02-.07-12.09-3.48.02.07,12.09ZM474.06,367.69c-.01-2.03.7-3.78,2.85-3.79,1.47-.01,2.19.89,2.48,1.92l3.46-.02c-.19-2.7-2.51-4.59-5.95-4.57-4.34.02-6.4,2.92-6.38,6.48.02,3.56,2.12,6.43,6.46,6.4,3.61-.02,5.75-2.08,5.91-4.71l-3.45.02c-.19,1.07-.89,1.96-2.48,1.97-2.15.01-2.88-1.68-2.89-3.71M493.41,373.62l3.48-.02-.07-12.09-3.48.02.03,4.61-5.1.03-.03-4.61-3.48.02.07,12.09,3.48-.02-.03-4.78,5.1-.03.03,4.78ZM511.58,373.51l3.2-.02-.07-12.09-5.02.03-2.34,7.99h-.03s-2.43-7.96-2.43-7.96l-5.02.03.07,12.09,3.21-.02-.06-9.04h.03s2.8,9.03,2.8,9.03l2.87-.02,2.69-9.06h.03l.06,9.04ZM524.46,368.96l-2.93.02,1.42-4.58h.03l1.48,4.56ZM525.93,373.42l3.73-.02-4.56-12.06-4.26.02-4.46,12.12,3.73-.02.62-1.97,4.56-.03.64,1.96ZM539.44,373.34l3.84-.02-.07-12.09-3.36.02.05,7.57h-.03l-4.89-7.54-4,.02.07,12.09,3.36-.02-.05-7.64h.03s5.05,7.61,5.05,7.61ZM558.6,373.22l-.07-12.09-3.36.02.05,7.57h-.03s-4.89-7.54-4.89-7.54l-4.01.02.07,12.09,3.36-.02-.05-7.64h.03s5.05,7.61,5.05,7.61l3.85-.02Z"/>
    </g>
    <text class="cls-6" transform="translate(498.61 454.44) scale(.85 1)"><tspan x="0" y="0">ART 93</tspan></text>
    <text class="cls-8" transform="translate(221.96 313.77)"><tspan x="0" y="0">JOY OPTICS</tspan></text>
    <path class="cls-4" d="M318.91,266.27c0-1.16-.94-2.1-2.1-2.1h-13.69c-1.16,0-2.1.94-2.1,2.1v13.74c0,1.16.94,2.1,2.1,2.1h13.69c1.16,0,2.1-.94,2.1-2.1v-13.74ZM313.87,266.82c.58,0,1.05.47,1.05,1.05s-.47,1.05-1.05,1.05-1.05-.47-1.05-1.05.46-1.05,1.05-1.05ZM305.8,266.82c.58,0,1.05.47,1.05,1.05s-.47,1.05-1.05,1.05-1.04-.47-1.04-1.05.47-1.05,1.04-1.05ZM307.89,269.83l-.29,3.52c-.02.22-.16.41-.37.49h0c-.21.08-.35.28-.37.5l-.27,4.56c-.02.31-.27.55-.58.55h-.39c-.31,0-.56-.24-.58-.55l-.27-4.56c-.01-.23-.16-.43-.37-.5-.21-.08-.35-.27-.37-.5l-.29-3.51c-.02-.29.17-.55.45-.62l.29-.06c.2-.04.39.01.53.15l.4.41c.23.22.59.22.82,0l.41-.41c.14-.14.34-.2.53-.15l.29.06c.26.07.45.34.43.62ZM310.11,279.45c0,.15-.13.28-.28.28s-.28-.13-.28-.28v-12.62c0-.16.13-.28.28-.28s.28.12.28.28v12.62ZM315.92,273.83c-.2.05-.32.24-.29.44l.12.9c.03.21-.12.42-.33.44l-.27.03c-.18.03-.32.18-.33.37l-.18,2.89c-.02.31-.27.54-.58.54h-.39c-.31,0-.56-.24-.58-.54l-.18-2.89c-.01-.19-.15-.34-.33-.37l-.27-.03c-.21-.03-.36-.23-.33-.44l.12-.9c.03-.2-.1-.39-.29-.44-.2-.05-.33-.25-.28-.46l.79-3.76c.05-.27.36-.4.59-.25l.74.48c.12.08.29.08.43,0l.74-.48c.23-.15.54-.02.59.25l.79,3.76c.03.2-.09.41-.29.46Z"/>
    <text class="cls-5" transform="translate(258.35 703.26)"><tspan x="0" y="0">× </tspan><tspan class="cls-13" x="29.63" y="0">5</tspan><tspan class="cls-14" x="50.96" y="0">9</tspan><tspan x="73.79" y="0">0</tspan></text>
    <path class="cls-4" d="M178.98,712.46l2-3c1.13-1.69,3.02-2.7,5.05-2.7h32.11c2.03,0,3.93,1.02,5.05,2.7l2,3c1.03-.14,2.05-.33,3.06-.55l12.3-2.73v-9.5c-.39.12-.79.22-1.21.32-2.31.54-4.33.67-6.89.67-1.32,0-3.33-.14-4.96-.4-2.27-.36-3.85-.85-4.62-1.87-3.56,1.39-7.43,1.85-11.24,1.31-5.01-.71-8.23-1.06-9.55-1.06s-4.55.36-9.56,1.06c-3.92.55-7.9.05-11.54-1.44-.04.03-.09.06-.14.09-1.23.73-2.66,1.26-4.27,1.63-2.31.54-4.33.67-6.89.67-1.32,0-3.33-.14-4.96-.4-.39-.06-.76-.13-1.11-.2v9.1l12.3,2.73c1.01.23,2.03.41,3.06.55ZM183.6,712.82c.22,0,.44,0,.66,0h35.66c.22,0,.44,0,.66,0l-.75-1.12c-.38-.56-1.01-.9-1.68-.9h-32.11c-.68,0-1.31.34-1.68.9l-.75,1.12ZM163.62,695.87c.42.15,1.02.29,1.76.41,1.4.23,3.2.35,4.32.35,2.27,0,4.04-.12,5.98-.57.08-.02.15-.04.23-.06-4.55-1.88-8.65-2.99-12.28-3.32,0,.06,0,.12,0,.18v3ZM159.57,696.63s0,0,0,0v-3.76c0-1.38.36-2.75,1.03-3.96l3.9-6.96-7.31-1.16h0c-.17-.03-.33-.08-.48-.15-.82-.41-1.15-1.41-.74-2.23l.6-1.19c.26-.53.75-.92,1.32-1.06h0l5.35-1.34c1.04-.26,2.09.33,2.42,1.35h0l.66,2.06,5.61-15.43c1.45-4,5.26-6.66,9.51-6.66h41.3c4.26,0,8.06,2.66,9.51,6.66l5.47,15.04.41-1.57c.28-1.06,1.36-1.71,2.43-1.46l5.67,1.35c.57.14,1.05.51,1.32,1.03l.63,1.21c.42.8.11,1.79-.69,2.22-.16.08-.33.14-.5.17l-7.32,1.16,3.9,6.96c.68,1.21,1.03,2.57,1.03,3.96v3.69s0,.1,0,.14v20.18c0,3.35-2.72,6.07-6.07,6.07h-10.12c-3.35,0-6.07-2.72-6.07-6.07,0-.02,0-.05,0-.07-.81.05-1.61.07-2.42.07h-35.66c-.81,0-1.62-.02-2.42-.07,0,.02,0,.05,0,.07,0,3.35-2.72,6.07-6.07,6.07h-10.12c-3.35,0-6.07-2.72-6.07-6.07v-20.24ZM240.56,695.39v-2.52c0-.06,0-.12,0-.17-3.8.36-8.07,1.53-12.79,3.52.12.02.24.04.37.06,1.4.23,3.2.35,4.32.35,2.27,0,4.04-.12,5.98-.57.78-.18,1.49-.41,2.12-.67ZM165.31,688.8c4.83.64,10.23,2.4,16.19,5.28,3.25,1.57,6.89,2.13,10.46,1.63,5.21-.74,8.54-1.1,10.12-1.1s4.91.37,10.12,1.1c3.57.51,7.21-.06,10.46-1.63,5.93-2.86,11.34-4.62,16.21-5.27l-3.44-6.15-9.09,1.52c-1.21.2-2.43.3-3.66.3h-41.19c-1.23,0-2.45-.1-3.66-.3l-9.09-1.52-3.43,6.14ZM226.33,716.39c.04.16.06.32.06.49,0,1.12.91,2.02,2.02,2.02h10.12c1.12,0,2.02-.91,2.02-2.02v-3.55l-11.42,2.54c-.93.21-1.87.38-2.81.53ZM177.85,716.39c-.94-.14-1.88-.32-2.81-.53l-11.42-2.54v3.55c0,1.12.91,2.02,2.02,2.02h10.12c1.12,0,2.02-.91,2.02-2.02,0-.17.02-.33.06-.49ZM228.45,664.18c-.87-2.4-3.15-4-5.71-4h-41.3c-2.55,0-4.84,1.6-5.71,4l-5.33,14.65,8.09,1.35c.99.17,1.99.25,3,.25h41.19c1,0,2.01-.08,3-.25l8.09-1.35-5.33-14.65Z"/>
    <g>
      <polygon class="cls-4" points="598.34 723.9 591.27 728.78 591.28 722.87 598.35 717.99 605.4 722.89 605.39 728.8 598.34 723.9"/>
      <polygon class="cls-4" points="598.33 731.99 591.26 736.87 591.27 730.96 598.33 726.08 605.39 730.99 605.38 736.89 598.33 731.99"/>
      <polygon class="cls-4" points="598.31 740.09 591.24 744.96 591.25 739.06 598.32 734.18 605.37 739.08 605.36 744.99 598.31 740.09"/>
    </g>
    <g>
      <path class="cls-10" d="M227.76,51.9l2.15,2.15v5.18h-5.28v-1.65c0-1.52-.04-1.69-.57-2.22-.57-.53-.7-.55-3.19-.59-2.6-.02-2.62-.02-3.23.57l-.61.59v10.99l.57.59c.57.59.59.59,3.23.59s2.66,0,3.23-.59c.51-.53.57-.76.57-2.01v-1.42h5.28v4.75l-4.33,4.33h-9.51l-4.33-4.33v-14.79l4.33-4.33h9.51l2.18,2.18Z"/>
      <path class="cls-10" d="M249.67,66.63l3.7-3.7v-8.89l-2.2-2.15-2.18-2.15h-13.8v23.45h5.05l.06-2.92.06-2.89,1.35-.06,1.37-.06,7.52,7.52,3.59-3.59-4.54-4.54ZM247.52,61.81l-.57.59h-6.68v-3.76c0-2.07.04-3.82.08-3.87.04-.04,1.54-.06,3.34-.02,3.17.06,3.25.08,3.82.61.57.55.57.59.57,3.21s-.02,2.66-.57,3.23Z"/>
      <path class="cls-10" d="M277.18,53.15l-3.44-3.42h-5.89l-10.46,10.46v6.13l6.87,6.87h5.89l10.48-10.44v-6.17l-3.44-3.42ZM275.55,60.4l-3.84,3.84c-3.72,3.72-3.89,3.87-4.71,3.87-.76,0-.97-.15-2.68-1.84-1.8-1.78-1.86-1.88-1.86-2.81v-.95l3.84-3.84c3.72-3.72,3.89-3.87,4.71-3.87.76,0,.97.15,2.68,1.84,1.8,1.78,1.86,1.88,1.86,2.81v.95Z"/>
      <path class="cls-10" d="M300.61,51.88l-2.18-2.15h-6.91c-3.78,0-6.89.04-6.89.11v23.24l5.07.13v-5.3h8.77l4.33-4.33v-9.53l-2.2-2.15ZM297.52,61.64l-1.35,1.39h-6.46v-4.08c0-2.26.04-4.14.08-4.18.04-.04,1.54-.06,3.34-.02,3.17.06,3.25.08,3.82.61.57.57.57.59.57,3.42v2.85Z"/>
      <path class="cls-10" d="M323.65,51.88l-2.15-2.15h-6.82c-5.26,0-6.84.06-6.91.25-.06.15-.08,5.41-.06,11.68l.06,11.41h5.07l.06-2.6.06-2.58h8.75l4.12-4.12v-9.72l-2.18-2.18ZM320.57,58.94c-.04,2.87-.06,2.96-.59,3.51l-.57.59h-6.46v-8.22l3.13-.06,3.11-.06.72.66.7.65-.02,2.94Z"/>
    </g>
    <g>
      <path id="path14" class="cls-10" d="M203.96,430.21c-.77,1.3-1.74,2.26-2.9,2.87-2.44,1.24-5.21.94-8.31-.9-2.12-1.26-3.62-2.86-4.5-4.8-.97-2.18-.87-4.29.3-6.31l4.56,2.7c-.53.89-.59,1.8-.17,2.73.37.81,1.02,1.48,1.94,2.03.82.49,1.62.73,2.41.74.83,0,1.41-.29,1.75-.87.45-.75-.09-1.88-1.61-3.37-2.25-2.23-3.61-3.73-4.08-4.51-1.23-1.99-1.26-3.96-.11-5.91.68-1.14,1.55-2.03,2.6-2.67,1.06-.64,2.35-.88,3.87-.72,1.53.14,2.99.62,4.37,1.44,1.89,1.12,3.18,2.55,3.87,4.29.82,1.97.68,3.99-.41,6.06l-4.37-2.59c.73-1.76.23-3.16-1.51-4.19-.71-.42-1.43-.62-2.16-.59-.73.03-1.25.31-1.56.84-.41.69.16,1.78,1.71,3.28,2.24,2.19,3.62,3.71,4.15,4.55,1.23,2.03,1.29,3.99.16,5.89Z"/>
      <path id="path16" class="cls-10" d="M222.46,449.06l-4.43-2.63,6.55-11.04c.76-1.28,1.12-2.29,1.07-3.03-.08-.88-.68-1.65-1.81-2.32-2.28-1.36-4.26-.63-5.93,2.18l-6.2,10.46-4.43-2.63,10.84-18.27,4.24,2.52-1.02,1.71c-.39.66-.58,1-.56,1.01.01-.02.03-.03.05-.02,1.12-.7,2.33-1.03,3.61-1.01,1.32.01,2.53.34,3.62.99,2.22,1.32,3.27,3.22,3.15,5.72-.08,1.19-.5,2.42-1.26,3.7l-7.51,12.65Z"/>
      <path id="path18" class="cls-10" d="M242.35,452.99c-.77,1.3-1.74,2.26-2.89,2.87-2.44,1.24-5.2.94-8.31-.9-2.12-1.26-3.62-2.86-4.5-4.8-.97-2.18-.87-4.29.3-6.31l4.56,2.7c-.53.89-.59,1.8-.17,2.73.37.81,1.02,1.48,1.94,2.03.82.48,1.62.73,2.41.74.82,0,1.41-.3,1.74-.87.45-.75-.09-1.88-1.61-3.37-2.25-2.23-3.61-3.73-4.08-4.51-1.22-1.99-1.26-3.96-.11-5.91.68-1.14,1.55-2.03,2.6-2.67,1.06-.64,2.35-.88,3.87-.72,1.53.14,2.99.62,4.37,1.44,1.89,1.12,3.18,2.55,3.87,4.29.82,1.97.68,3.99-.41,6.06l-4.37-2.59c.73-1.76.23-3.16-1.51-4.19-.71-.42-1.43-.62-2.16-.59-.73.03-1.25.31-1.56.84-.41.69.16,1.78,1.71,3.28,2.24,2.2,3.62,3.71,4.15,4.55,1.23,2.03,1.29,3.99.16,5.89Z"/>
      <path id="path20" class="cls-10" d="M255.51,456.62c-.67.13-1.63-.02-2.88-.45-1.4-.5-2.36-.74-2.88-.73-1.03-.03-1.87.5-2.51,1.57-.81,1.37-.56,2.45.76,3.23.61.36,1.33.59,2.15.67.84.07,1.56-.02,2.15-.25.79-.33,1.53-1.08,2.22-2.25.12-.2.29-.51.5-.91.21-.4.37-.69.48-.88h0ZM254.9,468.31l-4.12-2.44c.02-.33.18-.9.47-1.72-1.76.63-3.76.27-6-1.06-1.55-.92-2.6-2.07-3.15-3.44-.63-1.61-.43-3.28.6-5.02,1.48-2.49,3.38-3.68,5.72-3.56,1.07.05,2.97.65,5.69,1.8,1.93.81,3.13.81,3.61,0,.42-.71.48-1.43.18-2.17-.27-.75-.75-1.33-1.47-1.75s-1.49-.59-2.27-.47c-.73.11-1.36.46-1.9,1.05l-4.28-2.54c.9-1.22,1.88-2.08,2.85-2.62,1.09-.59,2.38-.78,3.87-.58,1.38.2,2.78.72,4.18,1.55,4.73,2.87,5.64,6.76,2.72,11.67l-6.69,11.28h0Z"/>
      <path id="path22" class="cls-10" d="M218.21,418.63l-4.43-2.63,2.87-4.83,4.43,2.63-2.87,4.83Z"/>
      <path id="path24" class="cls-10" d="M205.96,439.27l-4.43-2.63,5.42-9.14,4.43,2.63-5.42,9.14Z"/>
      <path id="path26" class="cls-10" d="M270.66,479.05c-1.44,2.42-3.39,3.89-5.85,4.41-2.24.43-4.39.04-6.44-1.18-2.01-1.19-3.33-2.84-3.95-4.94-.68-2.35-.27-4.77,1.2-7.26l4.12,2.44c-.69,1.16-.92,2.27-.68,3.3.19.92.71,1.63,1.55,2.12.92.55,1.93.68,3.03.41,1.19-.34,2.16-1.14,2.91-2.4l1.67-2.81c-.8.64-1.76.94-2.87.89-1.09-.03-2.14-.35-3.17-.96-1.63-.97-2.72-2.32-3.25-4.06-.6-1.99-.27-4.05.99-6.18l7.14-12.03,4.43,2.63-6.71,11.31c-1.34,2.26-1.07,3.95.81,5.07,1.01.6,2.01.76,3.02.49,1.01-.27,1.8-.89,2.39-1.87l6.71-11.31,4.4,2.61-11.45,19.3Z"/>
    </g>
    <g>
      <path class="cls-10" d="M396.82,401.72c0,.08-.03.11-.1.11-.04,0-.17-.03-.39-.09-.21-.06-.35-.1-.4-.12-.49.23-.97.34-1.42.34-.73,0-1.33-.29-1.8-.86-.46-.57-.69-1.28-.69-2.14s.22-1.62.67-2.2c.46-.6,1.06-.9,1.8-.9.36,0,.7.08,1.01.24.34.18.61.43.81.75.04.07.06.11.06.14,0,.09-.11.29-.32.6s-.35.47-.41.47c-.01,0-.07-.06-.16-.17-.12-.14-.23-.24-.35-.32-.18-.11-.38-.17-.59-.17-.35,0-.64.16-.84.47-.19.29-.29.64-.29,1.07,0,.46.1.81.3,1.08.21.27.5.41.88.41.24,0,.51-.07.81-.21,0-.09-.03-.33-.06-.7-.03-.29-.05-.52-.05-.7,0-.05.02-.08.05-.1.01,0,.03,0,.06,0,.07,0,.17,0,.31.02.14.02.24.02.31.02.08,0,.19,0,.34-.02.15-.01.26-.02.34-.02.06,0,.09.05.09.14,0,.13,0,.33-.02.61s-.02.47-.02.61c0,.36.02.9.07,1.61v.05Z"/>
      <path class="cls-10" d="M402.24,398.93c0,.87-.24,1.6-.71,2.19-.48.6-1.09.89-1.82.89s-1.33-.3-1.82-.9c-.47-.59-.71-1.31-.71-2.18s.24-1.6.71-2.19c.48-.6,1.09-.91,1.82-.91s1.33.3,1.81.91c.47.6.71,1.33.71,2.19ZM400.89,398.92c0-.42-.11-.77-.32-1.07-.22-.31-.51-.46-.86-.46s-.61.16-.85.48c-.22.31-.34.66-.34,1.06,0,.43.1.78.31,1.07.22.3.51.45.87.45.33,0,.62-.16.85-.47.22-.3.33-.65.33-1.05Z"/>
      <path class="cls-10" d="M406.21,397.27c0,.06-.03.08-.08.08-.09,0-.44-.02-1.07-.06-.01.71-.02,1.2-.02,1.48,0,.33.01.82.03,1.48.02.66.03,1.16.03,1.48,0,.05-.01.09-.03.1,0,0-.04.01-.1.02-.14.02-.35.03-.62.03-.3,0-.52-.01-.64-.03-.07-.01-.1-.06-.1-.13,0-.33.01-.82.04-1.48.02-.66.04-1.15.04-1.48,0-.22,0-.7-.03-1.45-.47.06-.85.08-1.13.08-.04,0-.06-.01-.06-.04,0-.04.02-.14.05-.32.04-.2.06-.31.06-.36,0-.13.02-.26.02-.39.02-.21.04-.31.08-.31,0,0,.02,0,.05,0,.38.06.95.09,1.7.09.21,0,.6-.03,1.18-.08.31-.03.46-.04.46-.04.05,0,.07,0,.08,0,0,0,.01.03.01.08,0,.08,0,.18,0,.31,0,.15,0,.25,0,.31,0,.07,0,.17.02.31.02.14.02.24.02.3Z"/>
      <path class="cls-10" d="M411.51,398.93c0,.87-.24,1.6-.71,2.19-.48.6-1.09.89-1.82.89s-1.33-.3-1.82-.9c-.47-.59-.71-1.31-.71-2.18s.24-1.6.71-2.19c.48-.6,1.09-.91,1.82-.91s1.33.3,1.81.91c.47.6.71,1.33.71,2.19ZM410.17,398.92c0-.42-.11-.77-.32-1.07-.22-.31-.51-.46-.86-.46s-.61.16-.85.48c-.22.31-.34.66-.34,1.06,0,.43.1.78.31,1.07.22.3.51.45.87.45.33,0,.62-.16.85-.47.22-.3.33-.65.33-1.05Z"/>
      <path class="cls-10" d="M386.58,408.15c0,.7-.05,1.24-.15,1.62-.17.68-.46,1.21-.84,1.59-.04.05-.08.07-.11.07-.03,0-.05-.02-.08-.05-.08-.11-.21-.29-.39-.51-.1-.1-.25-.26-.45-.47-.03-.03-.04-.06-.04-.08,0-.03.01-.05.04-.08.17-.18.29-.3.33-.37.09-.13.16-.29.21-.49.07-.27.1-.71.1-1.33,0-1.43-.04-2.54-.13-3.33,0-.03,0-.05,0-.06,0-.05.04-.08.11-.08s.19,0,.33.01c.15,0,.26.01.33.01.07,0,.18,0,.31-.01.14,0,.24-.01.32-.01s.1.04.1.11c0,.38,0,.96,0,1.74,0,.77,0,1.35,0,1.74Z"/>
      <path class="cls-10" d="M390.92,409.12c0,.12-.02.34-.06.66-.04.35-.08.56-.11.62-.03.05-.07.08-.12.08-.02,0-.06,0-.11-.01-.17-.03-.68-.04-1.51-.04-.18,0-.45,0-.81,0s-.63,0-.81,0c-.08,0-.12-.04-.12-.12,0-.31.01-.78.04-1.41.03-.63.04-1.09.04-1.41s-.01-.91-.04-1.78c0-.22-.02-.56-.04-1v-.06c0-.06.02-.1.08-.1.17,0,.44,0,.79.02.35.01.61.02.79.02s.43,0,.78-.02c.35-.01.61-.02.78-.02.12,0,.19.05.21.16.01.06.03.26.05.58.02.32.04.52.04.59,0,.06-.02.09-.07.09-.01,0-.04,0-.07,0-.63-.06-1.19-.09-1.69-.09-.12,0-.2.04-.23.1-.01.03-.02.14-.02.32s.02.31.07.38c.04.05.12.08.23.08.02,0,.07,0,.14,0,.07,0,.12,0,.17,0,.3,0,.6,0,.9-.03.03,0,.09,0,.19-.02.08-.01.14-.02.19-.02.06,0,.08.03.08.1,0-.06-.02.16-.06.64-.02.22-.03.45-.03.67,0,.06-.03.08-.1.08l-.32-.04c-.13-.02-.44-.03-.92-.03h-.38c-.1,0-.15.03-.17.08,0,.01,0,.1,0,.26,0,.21.01.35.04.41.04.11.19.17.45.19,0,0,.17,0,.52,0,.13,0,.31-.01.56-.04.25-.03.43-.04.55-.04.05,0,.08.05.08.15Z"/>
      <path class="cls-10" d="M397.68,406.69s-.22.57-.66,1.68c-.45,1.14-.7,1.78-.76,1.92-.02.05-.03.08-.04.08,0,.01-.03.03-.07.04-.06.02-.23.03-.5.03-.26,0-.41,0-.47-.03-.05-.01-.08-.03-.08-.03,0,0-.02-.04-.05-.08-.01-.03-.08-.23-.2-.59l-.39-1.16-.39,1.17c-.04.13-.11.33-.2.58-.02.05-.04.08-.05.09,0,0-.04.02-.08.03-.08.02-.23.03-.46.03-.28,0-.45,0-.51-.03-.04-.01-.07-.05-.1-.12-.93-2.24-1.39-3.44-1.39-3.6,0-.22,0-.56.02-1,.01-.44.02-.78.02-1,0-.09.02-.14.07-.14.13,0,.34,0,.61.02.27.01.48.02.61.02.05,0,.08.03.08.08,0,.22,0,.56-.03,1.01-.02.45-.03.79-.03,1.01,0,.08.09.35.26.8.16.4.27.67.34.82.04.07.06.11.07.11.02,0,.07-.13.15-.4.22-.75.34-1.19.34-1.33,0-.26.01-.58,0-.98,0-.57-.01-.9-.01-.98,0-.05,0-.08.01-.09,0,0,.03-.02.08-.03.12-.02.33-.02.62-.02.45,0,.68.04.68.11,0,.19,0,.48-.02.87-.01.38-.02.67-.01.87v.21c0,.14.12.59.36,1.36.08.26.13.4.15.4.01,0,.04-.04.07-.11.07-.14.17-.41.32-.81.16-.44.24-.7.24-.79,0-.23,0-.56-.03-1.01-.02-.45-.03-.79-.03-1.01,0-.05.03-.08.08-.08.14,0,.35,0,.63-.02.28-.01.49-.02.63-.02.04,0,.07.06.07.17,0,.22,0,.55.02.99.01.44.02.77.02.98Z"/>
      <path class="cls-10" d="M401.45,410.49c-.2,0-.47,0-.79-.02-.42-.01-.69-.02-.79-.02l-1.06-.02c-.11,0-.26,0-.46-.02-.07-.01-.1-.06-.1-.13,0-.3,0-.76.01-1.36,0-.61.01-1.06.01-1.37,0-.32,0-.81-.02-1.45-.02-.64-.02-1.13-.02-1.45,0-.06.04-.09.11-.09s.18,0,.32.01c.14,0,.24.01.31.01.08,0,.19,0,.35-.01.15,0,.27-.01.35-.01.04,0,.05.03.05.08v.05c-.03.52-.06,1.31-.1,2.36v1.1c0,.36,0,.62,0,.78,0,.03,0,.07,0,.1,0,.03.02.05.05.06h.09c.21,0,.53-.01.95-.04s.74-.04.95-.04c.06,0,.1.03.1.1,0,.48-.03.89-.09,1.23-.01.07-.04.12-.07.13-.01,0-.06,0-.15,0Z"/>
      <path class="cls-10" d="M405.42,410.49c-.2,0-.47,0-.79-.02-.42-.01-.69-.02-.79-.02l-1.06-.02c-.11,0-.26,0-.46-.02-.07-.01-.1-.06-.1-.13,0-.3,0-.76.01-1.36,0-.61.01-1.06.01-1.37,0-.32,0-.81-.02-1.45-.02-.64-.02-1.13-.02-1.45,0-.06.04-.09.11-.09s.18,0,.32.01c.14,0,.24.01.31.01.08,0,.19,0,.35-.01.15,0,.27-.01.35-.01.04,0,.05.03.05.08v.05c-.03.52-.06,1.31-.1,2.36v1.1c0,.36,0,.62,0,.78,0,.03,0,.07,0,.1,0,.03.02.05.05.06h.09c.21,0,.53-.01.95-.04s.74-.04.95-.04c.06,0,.1.03.1.1,0,.48-.03.89-.09,1.23-.01.07-.04.12-.07.13-.01,0-.06,0-.15,0Z"/>
      <path class="cls-10" d="M409.76,409.12c0,.12-.02.34-.06.66-.04.35-.08.56-.11.62-.03.05-.07.08-.12.08-.02,0-.06,0-.11-.01-.17-.03-.68-.04-1.51-.04-.18,0-.45,0-.81,0s-.63,0-.81,0c-.08,0-.12-.04-.12-.12,0-.31.01-.78.04-1.41.03-.63.04-1.09.04-1.41s-.01-.91-.04-1.78c0-.22-.02-.56-.04-1v-.06c0-.06.02-.1.08-.1.17,0,.44,0,.79.02.35.01.61.02.79.02s.43,0,.78-.02c.35-.01.61-.02.78-.02.12,0,.19.05.21.16.01.06.03.26.05.58.02.32.04.52.04.59,0,.06-.02.09-.07.09-.01,0-.04,0-.07,0-.63-.06-1.19-.09-1.69-.09-.12,0-.2.04-.23.1-.01.03-.02.14-.02.32s.02.31.07.38c.04.05.12.08.23.08.02,0,.07,0,.14,0,.07,0,.12,0,.17,0,.3,0,.6,0,.9-.03.03,0,.09,0,.19-.02.08-.01.14-.02.19-.02.06,0,.08.03.08.1,0-.06-.02.16-.06.64-.02.22-.03.45-.03.67,0,.06-.03.08-.1.08l-.32-.04c-.13-.02-.44-.03-.92-.03h-.38c-.1,0-.15.03-.17.08,0,.01,0,.1,0,.26,0,.21.01.35.04.41.04.11.19.17.45.19,0,0,.17,0,.52,0,.13,0,.31-.01.56-.04.25-.03.43-.04.55-.04.05,0,.08.05.08.15Z"/>
      <path class="cls-10" d="M414.45,410.37s-.02.03-.07.04c-.09.02-.32.03-.68.03-.31,0-.52,0-.63-.03-.05,0-.08-.02-.09-.02-.01,0-.03-.04-.05-.08-.04-.11-.09-.27-.16-.48-.09-.28-.24-.69-.43-1.23-.04-.11-.14-.17-.29-.18.07,0-.05,0-.37,0-.04,0-.05.07-.05.21,0,.19.01.47.04.85.03.38.04.66.04.85,0,.05-.01.08-.03.08-.03,0-.07,0-.1,0-.14.01-.36.02-.65.02-.34,0-.54,0-.61-.03-.07-.02-.1-.06-.1-.13,0-.31.01-.77.04-1.39.02-.62.04-1.08.04-1.39,0-1.18-.02-2.1-.07-2.76v-.06s.03-.08.11-.1.44-.03,1.08-.05c.44-.01.78-.02,1.04-.02.54,0,.98.14,1.32.43.38.32.58.79.58,1.4,0,.41-.05.73-.15.97-.1.24-.28.48-.55.71-.05.04-.08.09-.08.12,0,0,.14.35.43,1.05s.43,1.09.43,1.16ZM412.96,406.62c0-.34-.09-.58-.28-.71-.15-.1-.38-.15-.69-.15-.22,0-.34.04-.36.12-.01.09-.02.37-.02.82,0,.06,0,.16,0,.28,0,.12,0,.22,0,.28,0,.01.04.03.11.04.14.03.29.04.45.04.52,0,.78-.24.78-.73Z"/>
      <path class="cls-10" d="M418.91,406.07c0,.12-.02.22-.06.31-.31.72-.73,1.48-1.26,2.28-.08.12-.11.22-.11.32,0,.15,0,.37.02.66.01.3.02.52.02.66,0,.05,0,.08-.03.09,0,0-.04,0-.1.02-.08.02-.3.03-.64.03s-.56,0-.66-.03c-.07-.01-.1-.05-.1-.12,0-.15.01-.37.03-.67.02-.3.03-.53.03-.68,0-.09-.03-.19-.08-.29-.29-.48-.69-1.21-1.23-2.19-.05-.11-.08-.2-.08-.27,0-.17,0-.42-.02-.75-.01-.33-.02-.59-.02-.75,0-.09.02-.14.07-.14.14,0,.36,0,.66.02.29.01.51.02.66.02.05,0,.08.02.08.06,0,.14,0,.36-.02.64-.01.29-.02.5-.02.64,0,.08.1.29.31.63.17.26.3.46.41.61.1-.13.23-.33.39-.6.2-.33.3-.54.3-.61,0-.14,0-.35-.03-.63-.02-.28-.03-.49-.03-.63,0-.06.01-.09.03-.1h.09c.14,0,.35,0,.64-.02.28-.02.5-.02.64-.02.05,0,.07.06.07.18,0,.15,0,.37,0,.67s0,.52,0,.67Z"/>
    </g>
    <g>
      <path class="cls-10" d="M554.68,460.32s-.23.54-.7,1.59c-.47,1.07-.75,1.68-.81,1.81-.02.05-.04.07-.04.08,0,.01-.03.02-.07.04-.06.02-.24.02-.54.02-.27,0-.44,0-.5-.02-.05-.01-.08-.02-.09-.03s-.03-.03-.05-.08c-.02-.03-.09-.21-.21-.56l-.41-1.1-.42,1.11c-.04.13-.11.31-.21.54-.03.04-.04.07-.05.08,0,0-.04.02-.09.03-.08.02-.25.02-.49.02-.3,0-.48,0-.54-.02-.04-.01-.08-.05-.11-.11-.99-2.12-1.48-3.25-1.48-3.4,0-.21,0-.52.02-.94.01-.42.02-.73.02-.94,0-.09.03-.13.08-.13.14,0,.36,0,.65.02.29.01.51.02.65.02.06,0,.09.02.09.07,0,.21,0,.53-.03.95-.02.42-.03.74-.03.95,0,.08.09.33.28.75.17.38.29.63.36.77.04.07.06.1.08.1.02,0,.07-.13.15-.38.24-.71.36-1.12.36-1.25,0-.24.01-.55,0-.92,0-.54-.01-.85-.01-.93,0-.05,0-.08.01-.09,0,0,.04-.02.08-.03.13-.02.35-.02.66-.02.48,0,.72.04.72.11,0,.18,0,.45-.02.82-.01.36-.02.63-.02.82v.2c0,.13.13.56.39,1.28.09.25.14.37.16.37.01,0,.04-.03.08-.1.07-.13.18-.38.34-.76.17-.42.26-.66.26-.74,0-.21,0-.53-.03-.96s-.03-.74-.03-.95c0-.05.03-.07.09-.07.15,0,.37,0,.67-.02.3-.01.52-.02.67-.02.05,0,.07.05.07.16,0,.21,0,.52.02.93s.02.72.02.93Z"/>
      <path class="cls-10" d="M560.21,463.74s-.03.08-.09.1c-.08.02-.31.03-.7.03-.36,0-.59,0-.69-.03-.09-.02-.14-.08-.16-.18-.09-.38-.15-.58-.2-.61-.04-.02-.38-.03-1.01-.03-.43,0-.65.01-.68.04-.04.04-.09.18-.14.42-.05.22-.11.34-.17.35-.08.02-.37.03-.86.03-.38,0-.58-.04-.58-.11,0-.07.28-.91.85-2.52.62-1.74.95-2.7,1-2.87.03-.1.07-.15.11-.15.07,0,.17,0,.31.02.14.01.25.02.32.02s.17,0,.3-.01c.13,0,.23-.01.3-.01.05,0,.09.04.13.13.12.28.48,1.22,1.08,2.84.6,1.63.9,2.48.9,2.55ZM557.54,460.15c-.05.12-.14.37-.27.75-.14.41-.2.65-.2.72,0,.05.08.07.23.08.08,0,.21,0,.38,0,.17,0,.26-.02.28-.06,0-.01,0-.03,0-.05,0-.09-.06-.33-.17-.72-.11-.38-.2-.62-.25-.73Z"/>
      <path class="cls-10" d="M564.92,459.74c0,.11-.02.21-.06.29-.33.68-.78,1.4-1.35,2.15-.08.11-.12.21-.12.3,0,.14,0,.35.02.63.02.28.02.49.02.62,0,.05-.01.08-.03.09,0,0-.04,0-.1.02-.09.02-.32.02-.68.02s-.6,0-.7-.02c-.07-.01-.11-.05-.11-.11,0-.14.01-.35.03-.64s.03-.5.03-.64c0-.08-.03-.17-.09-.27-.3-.45-.74-1.14-1.3-2.07-.06-.1-.09-.19-.09-.25,0-.16,0-.39-.02-.71-.02-.32-.02-.55-.02-.71,0-.09.02-.13.08-.13.15,0,.39,0,.7.02.31.01.55.02.7.02.06,0,.09.02.09.06,0,.13,0,.34-.02.61-.01.27-.02.47-.02.6,0,.08.11.28.33.59.18.25.32.44.43.57.1-.13.24-.32.41-.57.22-.32.32-.51.32-.57,0-.13,0-.33-.03-.6-.02-.27-.03-.47-.03-.6,0-.05.01-.09.03-.09h.09c.15,0,.38,0,.68-.02.3-.01.53-.02.68-.02.05,0,.08.06.08.17,0,.14,0,.35,0,.63,0,.28,0,.49,0,.63Z"/>
      <path class="cls-10" d="M567.96,462.02c0,.53-.22.99-.65,1.37-.38.34-.84.55-1.38.64-.02,0-.04,0-.05,0-.06,0-.19-.18-.38-.55s-.3-.59-.3-.68c0-.03.02-.05.06-.05.36-.09.61-.16.72-.22.26-.14.39-.34.39-.61,0-.17-.09-.36-.26-.57-.3-.36-.46-.56-.48-.6-.17-.27-.26-.58-.26-.91,0-.48.21-.88.64-1.2.35-.26.77-.43,1.28-.51.03,0,.05,0,.06,0,.04,0,.07.03.09.09.07.19.22.54.46,1.04,0,.02.01.03.01.04,0,.04-.02.07-.07.07-.02,0-.05,0-.1-.01s-.08-.01-.11-.01c-.18,0-.34.04-.47.13-.16.1-.25.24-.25.42,0,.16.09.36.27.59.32.42.49.64.5.66.18.29.27.58.27.86Z"/>
      <path class="cls-10" d="M550.97,470.1c0,.53-.22.99-.65,1.37-.38.34-.84.55-1.38.64-.02,0-.04,0-.05,0-.06,0-.19-.18-.38-.55s-.3-.59-.3-.68c0-.03.02-.05.06-.05.36-.09.61-.16.72-.22.26-.14.39-.34.39-.61,0-.17-.09-.36-.26-.57-.3-.36-.46-.56-.48-.6-.17-.27-.26-.58-.26-.91,0-.48.21-.88.64-1.2.35-.26.77-.43,1.28-.51.03,0,.05,0,.06,0,.04,0,.07.03.09.09.07.19.22.54.46,1.04,0,.02.01.03.01.04,0,.04-.02.07-.07.07-.02,0-.05,0-.1-.01s-.08-.01-.11-.01c-.18,0-.34.04-.47.13-.16.1-.25.24-.25.42,0,.16.09.36.27.59.32.42.49.64.5.66.18.29.27.58.27.86Z"/>
      <path class="cls-10" d="M556.65,471.79c0,.05-.01.09-.03.1,0,0-.04.01-.11.02-.15.02-.37.02-.65.02-.39,0-.63,0-.7-.02-.07-.02-.1-.05-.1-.11,0-.21,0-.52.03-.94.02-.42.03-.73.03-.94,0-.1-.03-.16-.08-.18-.08-.02-.39-.03-.91-.03s-.83.01-.92.03c-.06.01-.08.07-.08.18,0,.21,0,.51.02.92.01.41.02.72.02.92,0,.08-.03.12-.1.14-.08.02-.32.02-.71.02-.34,0-.56,0-.65-.02-.07-.01-.11-.05-.11-.12,0-.28.01-.71.04-1.29s.04-1,.04-1.29c0-.3-.01-.76-.04-1.37-.03-.61-.04-1.07-.04-1.37,0-.06.03-.09.08-.09.08,0,.2,0,.35.01s.27.01.35.01.2,0,.36-.01.28-.01.36-.01c.04,0,.06.02.06.07,0,.2-.01.49-.04.88-.03.39-.04.69-.04.88,0,.09.02.15.07.16.07.02.39.03.97.03.54,0,.85-.01.93-.03.06-.02.09-.07.09-.16,0-.19,0-.47-.03-.86-.02-.38-.03-.67-.03-.86,0-.08.03-.12.09-.12.07,0,.18,0,.33.01s.26.01.34.01.18,0,.33-.01c.15,0,.26-.01.34-.01s.11.03.11.09c0,.3-.01.76-.04,1.37-.02.61-.04,1.07-.04,1.37,0,.29.01.72.04,1.29s.04,1,.04,1.29Z"/>
      <path class="cls-10" d="M562.58,469.15c0,.82-.25,1.51-.75,2.06-.51.56-1.16.84-1.94.84s-1.42-.28-1.93-.85c-.5-.55-.75-1.24-.75-2.05s.25-1.5.75-2.06c.51-.57,1.16-.86,1.93-.86s1.42.29,1.93.86c.51.56.76,1.25.76,2.06ZM561.15,469.14c0-.39-.11-.73-.34-1-.24-.29-.54-.43-.92-.43s-.65.15-.9.45c-.24.29-.36.62-.36,1,0,.4.11.74.33,1.01.24.28.54.42.92.42.35,0,.66-.15.91-.45.24-.28.35-.61.35-.99Z"/>
      <path class="cls-10" d="M567.66,468.49c0,.64-.16,1.15-.48,1.54-.34.42-.81.63-1.41.63-.1,0-.25,0-.46-.02s-.35-.02-.45-.02c-.11,0-.16.05-.16.15,0,.12.01.3.03.54.02.24.03.42.03.54,0,.06-.03.09-.08.09-.15,0-.38,0-.69-.01-.31,0-.54-.01-.69-.01-.07,0-.11-.04-.11-.11,0-.29,0-.73.01-1.31,0-.58.01-1.02.01-1.32,0-.83-.03-1.69-.1-2.6v-.06s.03-.08.11-.09c.2-.03.63-.04,1.3-.04.39,0,.77,0,1.13.02.6.02,1.08.21,1.44.59.37.38.56.89.56,1.51ZM566.16,468.55c0-.61-.29-.92-.86-.92-.4,0-.61.02-.63.07-.02.03-.03.34-.03.91,0,.08,0,.2,0,.36,0,.16,0,.28,0,.36,0,.05.23.08.68.08.55,0,.82-.29.82-.86Z"/>
    </g>
    <text class="cls-11" transform="translate(644.96 232)"><tspan x="0" y="0">ESTIL</tspan></text>
    <g>
      <path class="cls-10" d="M454.11,443.68c0,.47-.17.88-.51,1.21-.3.3-.65.49-1.08.57-.02,0-.03,0-.04,0-.05,0-.15-.16-.3-.49-.16-.33-.23-.53-.23-.6,0-.03.02-.04.04-.05.29-.08.47-.14.57-.2.2-.12.31-.3.31-.54,0-.15-.07-.32-.2-.51-.23-.32-.36-.49-.38-.53-.14-.24-.2-.51-.2-.8,0-.42.17-.78.5-1.06.27-.23.61-.38,1-.45.02,0,.04,0,.05,0,.03,0,.05.03.07.08.05.17.17.48.36.92,0,.01,0,.03,0,.04,0,.04-.02.06-.05.06-.02,0-.04,0-.08-.01-.04,0-.07-.01-.09-.01-.14,0-.27.04-.37.12-.13.09-.19.21-.19.37,0,.14.07.32.21.52.25.37.38.57.39.59.14.26.21.51.21.76Z"/>
      <path class="cls-10" d="M458.13,443.57c0,.59-.06,1-.18,1.21-.22.4-.77.59-1.65.59-.4,0-.7-.04-.92-.11-.34-.12-.57-.34-.67-.67-.05-.16-.08-.45-.08-.86,0-.09,0-.24,0-.42,0-.19,0-.33,0-.42,0-.27-.01-.67-.03-1.21-.02-.54-.03-.94-.03-1.21,0-.06.02-.08.06-.08.12,0,.3,0,.54.02s.42.02.54.02c.05,0,.07.03.07.08,0,.31,0,.77-.03,1.38-.02.61-.02,1.07-.02,1.38,0,.37.03.61.1.74.09.17.27.26.54.26.4,0,.61-.23.61-.69,0-.34,0-.84-.02-1.52-.01-.67-.02-1.18-.02-1.52,0-.07.02-.11.07-.11.12,0,.29,0,.53-.02s.41-.02.53-.02c.06,0,.09.03.09.08,0,.27,0,.67-.03,1.21-.02.54-.03.94-.03,1.21,0,.08,0,.19,0,.34s0,.26,0,.34Z"/>
      <path class="cls-10" d="M462.67,440.5c0,.26,0,.66-.03,1.19s-.03.93-.03,1.2v2.3c0,.06-.03.09-.09.09-.05,0-.12,0-.21,0s-.17,0-.21,0c-.05,0-.13,0-.23-.01-.1,0-.18-.01-.23-.01-.04,0-.08-.04-.13-.12-.14-.23-.46-.73-.96-1.5-.14-.22-.34-.53-.62-.96,0-.01-.02-.03-.04-.04-.02.02-.02.04-.02.08,0,.27,0,.67.02,1.21.01.54.02.94.02,1.21,0,.08-.03.12-.08.12h-1.02c-.06,0-.09-.04-.09-.11,0-.25.01-.63.03-1.14.02-.51.03-.89.03-1.14,0-.27,0-.67-.03-1.2-.02-.53-.03-.93-.03-1.2,0-.05.04-.08.12-.08.11,0,.25,0,.42-.03.04,0,.12-.02.23-.04.1-.02.18-.03.23-.03.02,0,.06.04.11.12l1.1,1.78c.1.16.25.39.45.7.05.07.09.11.13.11.03,0,.04-.09.04-.27,0-.24-.01-.61-.03-1.1-.02-.49-.03-.86-.03-1.11,0-.09.02-.13.06-.13.12,0,.3,0,.53-.02s.42-.02.53-.02c.04,0,.06.04.06.11Z"/>
      <path class="cls-10" d="M467.07,442.81c0,.68-.19,1.28-.56,1.78-.33.45-.79.69-1.39.71-.11,0-.43,0-.94,0-.1,0-.24,0-.44,0s-.34-.01-.44-.01c-.06,0-.09-.03-.09-.08,0-.26,0-.64.02-1.15.02-.51.03-.9.03-1.15s0-.67-.03-1.2c-.02-.53-.02-.93-.02-1.2,0-.05.03-.08.09-.09.14-.02.37-.03.69-.03.61,0,1,0,1.18.03.47.06.83.2,1.1.42.25.21.44.5.59.88.14.36.21.72.21,1.1ZM465.94,442.81c0-.39-.1-.71-.3-.96-.2-.26-.47-.39-.8-.39-.3,0-.46.05-.46.14,0,.14,0,.34,0,.62,0,.28,0,.48,0,.62s0,.34,0,.61c0,.27,0,.48,0,.61,0,.1.16.15.47.15.34,0,.61-.13.8-.4.18-.25.27-.59.27-1Z"/>
      <path class="cls-10" d="M471.43,445.2s-.02.07-.07.09c-.06.02-.24.03-.55.03-.28,0-.46,0-.54-.03-.07-.02-.11-.07-.13-.16-.07-.33-.12-.51-.16-.54-.03-.02-.3-.02-.79-.02-.33,0-.51.01-.53.03-.03.04-.07.16-.11.37-.04.19-.08.3-.14.31-.07.02-.29.03-.67.03-.3,0-.45-.03-.45-.1,0-.06.22-.8.67-2.23.48-1.54.74-2.39.79-2.54.02-.09.05-.13.08-.13.05,0,.14,0,.25.02s.19.02.25.02.13,0,.23-.01c.1,0,.18-.01.23-.01.04,0,.07.04.1.12.1.24.38,1.08.84,2.51.47,1.44.7,2.19.7,2.25ZM469.33,442.02c-.04.1-.11.32-.21.67-.11.36-.16.58-.16.64,0,.04.06.07.18.07.06,0,.16,0,.3,0,.13,0,.2-.02.22-.06,0-.01,0-.03,0-.05,0-.08-.05-.29-.14-.63-.09-.33-.15-.55-.19-.64Z"/>
      <path class="cls-10" d="M475.12,441.66c0,.1-.02.19-.05.26-.26.6-.61,1.24-1.06,1.9-.06.1-.09.19-.09.27,0,.12,0,.31.02.55.01.25.02.43.02.55,0,.04,0,.07-.02.08,0,0-.03,0-.08.02-.07.01-.25.02-.53.02s-.47,0-.55-.02c-.06,0-.08-.04-.08-.1,0-.12,0-.31.03-.56.02-.25.03-.44.03-.57,0-.07-.02-.15-.07-.24-.24-.4-.58-1.01-1.02-1.83-.04-.09-.07-.17-.07-.22,0-.14,0-.35-.02-.63-.01-.28-.02-.49-.02-.63,0-.08.02-.12.06-.12.12,0,.3,0,.55.02s.43.02.55.02c.04,0,.07.02.07.05,0,.12,0,.3-.01.54,0,.24-.01.42-.01.54,0,.07.09.24.26.52.14.22.25.39.34.51.08-.11.19-.28.32-.5.17-.28.25-.45.25-.51,0-.12,0-.29-.02-.53-.01-.24-.02-.41-.02-.53,0-.05,0-.08.03-.08h.07c.12,0,.3,0,.53-.02.24-.01.42-.02.54-.02.04,0,.06.05.06.15,0,.12,0,.31,0,.56,0,.25,0,.43,0,.56Z"/>
      <path class="cls-10" d="M458.97,452.32s0,.08-.03.09c0,0-.04.01-.08.02-.12.01-.29.02-.51.02-.31,0-.49,0-.55-.02s-.08-.04-.08-.09c0-.18,0-.46.02-.83.02-.37.02-.64.02-.83,0-.09-.02-.14-.06-.16-.07-.02-.31-.03-.72-.03s-.65,0-.72.03c-.04.01-.06.06-.06.16,0,.18,0,.45.01.81s.01.63.01.81c0,.07-.03.11-.08.12-.06.01-.25.02-.56.02-.27,0-.44,0-.51-.02-.06-.01-.09-.05-.09-.11,0-.25.01-.63.03-1.14.02-.51.03-.89.03-1.14,0-.27,0-.67-.03-1.21-.02-.54-.03-.95-.03-1.22,0-.05.02-.08.06-.08.06,0,.15,0,.28.01.12,0,.21,0,.28,0s.16,0,.29,0c.13,0,.22-.01.29-.01.03,0,.05.02.05.06,0,.17-.01.44-.03.78-.02.35-.03.61-.03.78,0,.08.02.13.06.14.05.02.3.03.76.03.42,0,.67,0,.73-.03.05-.01.07-.06.07-.14,0-.17,0-.42-.02-.76-.01-.34-.02-.59-.02-.76,0-.07.02-.11.07-.11.06,0,.14,0,.26.01.12,0,.21,0,.26,0s.14,0,.26,0c.12,0,.21-.01.26-.01s.09.03.09.08c0,.27,0,.67-.03,1.21-.02.54-.03.94-.03,1.21,0,.25.01.63.03,1.14s.03.89.03,1.14Z"/>
      <path class="cls-10" d="M463.41,452.34s-.02.07-.07.09c-.06.02-.24.03-.55.03-.28,0-.46,0-.54-.03-.07-.02-.11-.07-.13-.16-.07-.33-.12-.51-.16-.54-.03-.02-.3-.02-.79-.02-.33,0-.51.01-.53.03-.03.04-.07.16-.11.37-.04.19-.08.3-.14.31-.07.02-.29.03-.67.03-.3,0-.45-.03-.45-.1,0-.06.22-.8.67-2.23.48-1.54.74-2.39.79-2.54.02-.09.05-.13.08-.13.05,0,.14,0,.25.02s.19.02.25.02.13,0,.23-.01c.1,0,.18-.01.23-.01.04,0,.07.04.1.12.1.24.38,1.08.84,2.51.47,1.44.7,2.19.7,2.25ZM461.32,449.16c-.04.1-.11.32-.21.67-.11.36-.16.58-.16.64,0,.04.06.07.18.07.06,0,.16,0,.3,0,.13,0,.2-.02.22-.06,0-.01,0-.03,0-.05,0-.08-.05-.29-.14-.63-.09-.33-.15-.55-.19-.64Z"/>
      <path class="cls-10" d="M467.21,450.92c0,.43-.11.78-.34,1.06-.26.32-.71.49-1.36.49-.05,0-.12,0-.21,0h-.21c-.73,0-1.16-.02-1.3-.05-.06-.01-.09-.05-.09-.11,0-.25.01-.62.04-1.13.02-.5.04-.88.04-1.13,0-.27-.01-.78-.04-1.52,0-.19-.02-.48-.03-.86v-.05s.03-.07.09-.08c.06,0,.29-.01.68-.01.63,0,1,0,1.1,0,.48.02.84.11,1.07.28.31.22.46.59.46,1.12,0,.14-.04.28-.11.44-.05.11-.12.22-.2.33-.07.09-.11.14-.11.13,0,.02.03.04.08.08.14.09.25.24.33.44.07.18.11.37.11.58ZM465.93,448.96c0-.2-.08-.33-.25-.4-.09-.04-.25-.05-.47-.05s-.32.02-.32.06c0,.04,0,.11-.01.2,0,.09-.01.16-.01.2,0,.23.02.36.05.39.02.02.15.03.38.03.42,0,.64-.14.64-.43ZM466.02,450.91c0-.21-.07-.35-.22-.43-.09-.05-.25-.07-.46-.07-.25,0-.39.01-.41.03-.02.02-.03.16-.03.43s.01.43.04.46c.03.03.17.04.43.04.21,0,.36-.02.45-.06.14-.07.22-.2.22-.4Z"/>
      <path class="cls-10" d="M468.78,449.85c0,.27,0,.69.02,1.24s.02.96.02,1.24c0,.05,0,.08-.03.09,0,0-.03,0-.08.01-.13.02-.3.03-.51.03-.29,0-.47,0-.55-.03-.06-.01-.09-.05-.09-.11,0,.04,0-.17.03-.61.04-.94.05-1.56.05-1.86,0-.25,0-.62-.02-1.12-.01-.5-.02-.87-.02-1.12,0-.05.02-.08.07-.08.06,0,.15,0,.28.01.12,0,.22,0,.28,0s.15,0,.27,0c.12,0,.21-.01.27-.01.06,0,.09.03.09.08,0,.25-.01.62-.03,1.12-.02.5-.03.87-.03,1.12Z"/>
      <path class="cls-10" d="M472.26,448.6s-.02.07-.06.07c-.08,0-.37-.02-.89-.05-.01.59-.02,1-.02,1.23,0,.27,0,.69.03,1.24.02.55.03.96.03,1.24,0,.04,0,.07-.03.08,0,0-.03.01-.08.02-.12.02-.29.03-.52.03-.25,0-.43,0-.53-.03-.06-.01-.08-.05-.08-.11,0-.27,0-.69.03-1.23.02-.55.03-.96.03-1.23,0-.18,0-.59-.02-1.21-.39.05-.71.07-.94.07-.03,0-.05-.01-.05-.04,0-.03.01-.12.04-.27.03-.16.05-.26.05-.3,0-.11.01-.22.02-.33.01-.17.04-.26.07-.26,0,0,.02,0,.04,0,.32.05.79.07,1.42.07.18,0,.5-.02.98-.07.26-.02.39-.04.39-.04.04,0,.06,0,.07,0s0,.03.01.07c0,.06,0,.15,0,.26,0,.12,0,.21,0,.26,0,.06,0,.14.02.26.01.11.02.2.02.25Z"/>
    </g>
  </g>
  <path id="Galleria_Stara_Zagora1.018" data-name="Galleria Stara Zagora1.018" class="cls-2" d="M792.97,436.21h-161.22v261.89c50.87,19.89,165.46,56.57,177.15,60.37v-113.57l-8.8-7.41h-64.08v-151.1h56.86l.1-50.18Z"/>
  <polygon id="Galleria_Stara_Zagora1.016" data-name="Galleria Stara Zagora1.016" class="cls-2" points="631.75 419.28 808.9 419.28 808.9 248.68 749.19 248.68 749.19 236.62 709.14 236.62 709.14 248.8 631.75 248.8 631.75 419.28"/>
  <rect id="Galleria_Stara_Zagora1.014x" data-name="Galleria Stara Zagora1.014x" class="cls-2" x="631.75" y="204.65" width="75.75" height="42.39"/>
  <polygon id="Galleria_Stara_Zagora1.012" data-name="Galleria Stara Zagora1.012" class="cls-2" points="732.3 185.74 630.74 185.74 630.74 167.04 577.97 114.26 587.61 104.62 587.61 11.1 732.3 11.1 732.3 185.74"/>
  <polygon id="Galleria_Stara_Zagora1.010" data-name="Galleria Stara Zagora1.010" class="cls-2" points="585.78 11.1 463.52 11.1 463.52 103.82 568.08 103.82 577.1 112.85 585.54 104.41 585.78 11.1"/>
  <rect id="Galleria_Stara_Zagora1.008" data-name="Galleria Stara Zagora1.008" class="cls-2" x="434.65" y="67.79" width="27.22" height="36.04"/>
  <rect id="Galleria_Stara_Zagora1.006" data-name="Galleria Stara Zagora1.006" class="cls-2" x="402.21" y="60.77" width="30.86" height="43.06"/>
  <polygon id="Galleria_Stara_Zagora1.036_2.038_2.040" data-name="Galleria Stara Zagora1.036^2.038^2.040" class="cls-2" points="98.48 161.95 28.21 293.36 106.79 355.59 223.44 131.81 177.31 131.18 147.59 187.6 98.48 161.95"/>
  <path id="Galleria_Stara_Zagora1.028_" data-name="Galleria Stara Zagora1.028_" class="cls-2" d="M149.73,319.32l-54.02,69.76,17.76,11.71-5.16,7.05c87.52,70.39,202.75,141.17,220.63,148.72l21.68-43.95,16.6,9.07,20.15-39.04-131.34-78.08,5.34-8.69-111.63-76.56Z"/>
  <path id="Galleria_Stara_Zagora1.020_2.020" data-name="Galleria Stara Zagora1.020^2.020" class="cls-2" d="M404.11,487.18l-22.04,41.43,54.38,29.09-16.98,32.24,24.43,13.1-6.3,11.46c33.18,17.51,114.47,54.4,131.22,58.93v-121.14l-14.48-6.42h-17.88l-118.37-58.68h-13.98Z"/>
  <polygon id="Galleria_Stara_Zagora1.052" data-name="Galleria Stara Zagora1.052" class="cls-2" points="572.17 437.14 544.53 437.14 544.53 469.54 533.99 469.54 533.99 496.47 534.93 497.1 572.17 482.84 572.17 437.14"/>
  <polygon id="Galleria_Stara_Zagora1.054" data-name="Galleria Stara Zagora1.054" class="cls-2" points="542.88 437.14 484.26 437.14 484.26 472.66 532.39 495.86 532.39 467.82 542.88 467.82 542.88 437.14"/>
  <polygon id="Galleria_Stara_Zagora1.056" data-name="Galleria Stara Zagora1.056" class="cls-2" points="482.55 437.14 442.09 437.14 436.9 448.12 482.55 471.91 482.55 437.14"/>
  <polygon id="Galleria_Stara_Zagora1.048-50" data-name="Galleria Stara Zagora1.048-50" class="cls-2" points="572.17 435.36 572.17 307.9 483.08 307.9 483.08 337.38 384.73 337.38 384.73 385.42 434.4 385.42 434.4 432.63 426.73 442.91 435.45 447.4 441.15 435.16 572.17 435.36"/>
  <polygon id="Galleria_Stara_Zagora1.046" data-name="Galleria Stara Zagora1.046" class="cls-2" points="572.17 306 483.22 306 483.22 271.32 531.83 271.32 531.83 237.27 572.17 237.27 572.17 306"/>
  <polygon id="Galleria_Stara_Zagora1.044" data-name="Galleria Stara Zagora1.044" class="cls-2" points="572.17 235.58 572.17 191.82 538.39 158.04 483.22 158.04 483.22 269.28 529.93 269.28 529.93 235.44 572.17 235.58"/>
  <polygon id="Galleria_Stara_Zagora1.042_2.050" data-name="Galleria Stara Zagora1.042^2.050" class="cls-2" points="481.3 158.04 336.52 158.04 336.52 379.88 330.82 387.41 337.62 391.45 340.93 385.48 382.73 385.48 382.73 335.5 481.3 335.5 481.3 158.04"/>
  <polygon id="Galleria_Stara_Zagora1.040" data-name="Galleria Stara Zagora1.040" class="cls-2" points="334.63 158.04 289.53 158.04 280.19 177.52 283.44 179.82 283.44 235.32 334.63 235.32 334.63 158.04"/>
  <path id="Galleria_Stara_Zagora1.062" data-name="Galleria Stara Zagora1.062" class="cls-2" d="M334.63,311.61v67.25l-5.17,7.09c-13.31-7.5-44.6-27.41-44.6-27.41v-46.93h49.77Z"/>
  <path id="Galleria_Stara_Zagora1.064-66" data-name="Galleria Stara Zagora1.064-66" class="cls-2" d="M283.44,303.58h-38.19v-18.59h-34.23l-9.24,17.98c16.86,11.48,76.18,53.63,81.67,55.16v-54.55Z"/>
  <polygon id="Galleria_Stara_Zagora1.002_" data-name="Galleria Stara Zagora1.002_" class="cls-3" points="178.51 11.61 136.29 90.92 178.51 113.32 357.9 113.32 368.17 102.59 383.99 103.06 383.99 11.61 178.51 11.61"/>
  <polygon id="Galleria_Stara_Zagora1.058" data-name="Galleria Stara Zagora1.058" class="cls-3" points="338.9 392.28 341.71 387.04 432.85 387.04 432.85 431.59 425.48 441.88 389.47 421.98 372.38 411.98 357.53 403.44 338.9 392.28"/>
</svg>