<?xml version="1.0" encoding="utf-8"?>
<!-- Generator: Adobe Illustrator 26.0.3, SVG Export Plug-In . SVG Version: 6.00 Build 0)  -->
<svg version="1.1" id="Layer_4" xmlns="http://www.w3.org/2000/svg" xmlns:xlink="http://www.w3.org/1999/xlink" x="0px" y="0px"
	 viewBox="0 0 825.4 789.6" style="enable-background:new 0 0 825.4 789.6;" xml:space="preserve">
<style type="text/css">
	.st0{fill:#F6F6F6;}
	.st1{fill:none;stroke:#1D1D1B;stroke-width:2;stroke-miterlimit:10;}
	.st2{fill:none;stroke:#000000;stroke-miterlimit:10;}
	.st3{fill:#12100B;}
	.st4{fill:#1D1D1B;}
	.st5{fill:#ED7013;}
</style>
<g id="Cladire">
	<g>
		<path class="st0" d="M808.7,778.5c-19.3-6.6-37.4-12.7-55-18.7c-14.9-5-30.2-10.2-46.5-15.8c-25.5-8.7-53.5-18.8-75-26.9
			c-77.4-29.4-152.3-63.1-222.6-100.1c-124.3-65.5-236-140.2-332-222.2c-0.9-0.7-2.8-2.3-5.4-4.5c-8.7-7.3-25-20.8-38.9-33.1
			c-7.8-6.9-13.9-12.5-18.1-16.6c-6.2-6.2-9.8-10.2-7.6-14.5L177.3,4.3l640,1.6l-2,774.9L808.7,778.5z"/>
		<path class="st0" d="M180.3,9.3l632,1.6l-1.9,762.9c-35.6-12.2-65.8-22.3-101.4-34.4c-23.3-7.9-51.8-18.1-74.8-26.9
			c-75.8-28.8-150.1-62-222-99.8C294.8,551,182.1,477.5,81,391.1c-6.5-5.5-71.1-58.3-68.8-62.5C12.2,328.6,180.3,9.3,180.3,9.3
			 M174.3-0.7l-2.8,5.4C12.9,305.7,3.8,322.9,3.3,323.9l0,0c-2.2,4.3-1.4,8.9,2.5,13.8c1.4,1.7,3.3,3.9,6,6.5
			c4.2,4.2,10.4,9.9,18.3,16.8c14,12.3,30.3,25.9,39.1,33.1c2.6,2.2,4.5,3.8,5.4,4.5c96.3,82.2,208.3,157.2,332.9,222.9
			c70.5,37.1,145.5,70.9,223.1,100.3c21.5,8.2,49.6,18.3,75.1,27c16.3,5.6,31.7,10.8,46.5,15.8c17.5,5.9,35.6,12,54.9,18.6l13.2,4.5
			l0-14l1.9-762.9l0-10l-10,0l-632-1.6L174.3-0.7L174.3-0.7z"/>
		<path class="st1" d="M634.1,712.5c23,8.7,51.6,18.9,74.8,26.9c35.6,12.2,65.9,22.2,101.4,34.4l1.9-762.9l-632-1.6
			c0,0-168.2,319.3-168.2,319.3c-2.2,4.2,62.4,57,68.8,62.5C182.1,477.5,294.8,551,412.1,612.7C483.9,650.5,558.2,683.7,634.1,712.5
			z"/>
	</g>
</g>
<g id="Magazine">
	<polyline class="st2" points="144,80.3 186.2,102.2 309.3,102.2 309.6,63.6 279.9,63.6 231,63.6 231,10.3 	"/>
	<path class="st2" d="M280.3,102.2"/>
	<line class="st2" x1="279.9" y1="63.6" x2="279.9" y2="102.2"/>
	<polygon class="st2" points="145.3,188.4 181.5,118.7 215.6,118.7 215.6,237.5 182.7,231.6 159,219.2 168.7,200.5 	"/>
	<polygon class="st2" points="176.3,291.1 230.3,291.1 230.3,309.7 153.3,309.7 153.3,288.2 182.7,231.6 215.6,237.5 215.6,286.4 
		176.3,286.4 	"/>
	<polygon class="st2" points="231.2,118.2 231.2,168.8 281.6,168.8 281.6,147.1 269.1,147.1 269.1,118.2 	"/>
	<line class="st2" x1="269.1" y1="147.1" x2="269.1" y2="168.8"/>
	<polyline class="st2" points="327.1,288.6 327.1,309.7 737.4,310.5 737.4,236 710.4,236.4 710.4,205.5 737.4,205.5 737.4,189.3 
		735.3,189.3 735.1,175.1 811.3,174.9 811.3,10.3 461.4,10.3 461.4,37.6 382.1,37.6 382.1,24.7 325.7,25.2 325.8,288.6 	"/>
	<polyline class="st2" points="325.7,176.5 611.8,176.5 611.8,189.8 632.6,189.8 632.6,237.2 637.1,237.2 637.1,310.5 	"/>
	<line class="st2" x1="611.4" y1="10.4" x2="611.4" y2="176.5"/>
	<polyline class="st2" points="811.3,250.9 751.7,250.9 751.7,340.6 811.3,340.6 	"/>
</g>
<g id="Logos">
	<g>
		<path class="st3" d="M193.7,181.2h-1.4v-3.7c0-0.3-0.2-0.5-0.5-0.5H188c-0.3,0-0.5,0.2-0.5,0.5v3.7h-1.4c-0.3,0-0.5,0.2-0.5,0.5v4
			c0,0.3,0.2,0.5,0.5,0.5h7.7c0.3,0,0.5-0.2,0.5-0.5v-4C194.2,181.5,194,181.2,193.7,181.2z M188.5,178h0.9v0.5
			c0,0.3,0.2,0.5,0.5,0.5c0.3,0,0.5-0.2,0.5-0.5V178h0.9v2.9h-2.8L188.5,178z M186.6,182.3h0.8v0.5c0,0.3,0.2,0.5,0.5,0.5
			c0.3,0,0.5-0.2,0.5-0.5v-0.5h1v2.9h-2.8V182.3z M193.2,185.2h-2.8v-2.9h1v0.5c0,0.3,0.2,0.5,0.5,0.5s0.5-0.2,0.5-0.5v-0.5h0.8
			V185.2z"/>
		<path class="st3" d="M201.3,170C201.3,170,201.3,169.9,201.3,170c0-0.1,0-0.1,0-0.1c0,0,0,0,0-0.1c0,0,0,0,0,0c0,0,0,0,0,0l0,0
			l0,0c0,0,0,0,0,0l0,0l0,0l0,0l-11-7.2c-0.2-0.1-0.4-0.1-0.5,0l-11,7.2l0,0l0,0l0,0c0,0,0,0,0,0l0,0l-0.1,0c0,0,0,0,0,0
			c0,0,0,0,0,0c0,0,0,0,0,0.1c0,0,0,0,0,0c0,0,0,0.1,0,0.1v15.8c0,0.3,0.2,0.5,0.5,0.5h4.6c0.3,0,0.5-0.2,0.5-0.5v-10.4h11.7v10.4
			c0,0.3,0.2,0.5,0.5,0.5c0,0,0.1,0,0.1,0c0,0,0.1,0,0.1,0h4.4c0.3,0,0.5-0.2,0.5-0.5V170z M184,174.3v-0.5h11.7v0.5H184z
			 M196.8,185.2v-12c0-0.3-0.2-0.5-0.5-0.5h-12.7c-0.3,0-0.5,0.2-0.5,0.5v12h-3.6v-14.9l10.4-6.9l10.4,6.9v14.9H196.8z"/>
		<path class="st3" d="M191.2,167.6h-2.8c-0.3,0-0.5,0.2-0.5,0.5c0,0.3,0.2,0.5,0.5,0.5h2.8c0.3,0,0.5-0.2,0.5-0.5
			C191.7,167.8,191.4,167.6,191.2,167.6z"/>
		<path class="st3" d="M191.2,169.2h-2.8c-0.3,0-0.5,0.2-0.5,0.5c0,0.3,0.2,0.5,0.5,0.5h2.8c0.3,0,0.5-0.2,0.5-0.5
			C191.7,169.4,191.4,169.2,191.2,169.2z"/>
	</g>
	<g>
		<path class="st3" d="M194.2,269.9h-1.4v-3.7c0-0.3-0.2-0.5-0.5-0.5h-3.8c-0.3,0-0.5,0.2-0.5,0.5v3.7h-1.4c-0.3,0-0.5,0.2-0.5,0.5
			v4c0,0.3,0.2,0.5,0.5,0.5h7.7c0.3,0,0.5-0.2,0.5-0.5v-4C194.7,270.1,194.5,269.9,194.2,269.9z M189,266.7h0.9v0.5
			c0,0.3,0.2,0.5,0.5,0.5s0.5-0.2,0.5-0.5v-0.5h0.9v2.9H189L189,266.7z M187.1,271h0.8v0.5c0,0.3,0.2,0.5,0.5,0.5s0.5-0.2,0.5-0.5
			V271h1v2.9h-2.8V271z M193.7,273.9h-2.8V271h1v0.5c0,0.3,0.2,0.5,0.5,0.5c0.3,0,0.5-0.2,0.5-0.5V271h0.8V273.9z"/>
		<path class="st3" d="M201.9,258.7C201.9,258.6,201.9,258.6,201.9,258.7c0-0.1,0-0.1,0-0.1c0,0,0,0,0-0.1c0,0,0,0,0,0c0,0,0,0,0,0
			l0,0l0,0c0,0,0,0,0,0l0,0l0,0l0,0l-11-7.2c-0.2-0.1-0.4-0.1-0.5,0l-11,7.2l0,0l0,0l0,0c0,0,0,0,0,0l0,0l-0.1,0c0,0,0,0,0,0
			c0,0,0,0,0,0c0,0,0,0,0,0.1c0,0,0,0,0,0c0,0,0,0.1,0,0.1v15.8c0,0.3,0.2,0.5,0.5,0.5h4.6c0.3,0,0.5-0.2,0.5-0.5V264h11.7v10.4
			c0,0.3,0.2,0.5,0.5,0.5c0,0,0.1,0,0.1,0c0,0,0.1,0,0.1,0h4.4c0.3,0,0.5-0.2,0.5-0.5V258.7z M184.5,262.9v-0.5h11.7v0.5H184.5z
			 M197.3,273.9v-12c0-0.3-0.2-0.5-0.5-0.5H184c-0.3,0-0.5,0.2-0.5,0.5v12h-3.6V259l10.4-6.9l10.4,6.9v14.9H197.3z"/>
		<path class="st3" d="M191.7,256.3h-2.8c-0.3,0-0.5,0.2-0.5,0.5s0.2,0.5,0.5,0.5h2.8c0.3,0,0.5-0.2,0.5-0.5
			S191.9,256.3,191.7,256.3z"/>
		<path class="st3" d="M191.7,257.9h-2.8c-0.3,0-0.5,0.2-0.5,0.5c0,0.3,0.2,0.5,0.5,0.5h2.8c0.3,0,0.5-0.2,0.5-0.5
			C192.2,258.1,191.9,257.9,191.7,257.9z"/>
	</g>
	<g>
		<path class="st3" d="M297.7,89.1h-1.1v-2.8c0-0.2-0.2-0.4-0.4-0.4h-2.9c-0.2,0-0.4,0.2-0.4,0.4v2.8h-1.1c-0.2,0-0.4,0.2-0.4,0.4v3
			c0,0.2,0.2,0.4,0.4,0.4h5.8c0.2,0,0.4-0.2,0.4-0.4v-3C298.1,89.3,297.9,89.1,297.7,89.1z M293.7,86.7h0.7v0.4
			c0,0.2,0.2,0.4,0.4,0.4s0.4-0.2,0.4-0.4v-0.4h0.7v2.2h-2.1L293.7,86.7z M292.3,89.9h0.6v0.4c0,0.2,0.2,0.4,0.4,0.4
			s0.4-0.2,0.4-0.4v-0.4h0.8v2.2h-2.1V89.9z M297.3,92.1h-2.1v-2.2h0.8v0.4c0,0.2,0.2,0.4,0.4,0.4s0.4-0.2,0.4-0.4v-0.4h0.6V92.1z"
			/>
		<path class="st3" d="M303.4,80.6C303.4,80.6,303.4,80.6,303.4,80.6C303.4,80.6,303.4,80.6,303.4,80.6c0-0.1,0-0.1,0-0.1
			c0,0,0,0,0,0c0,0,0,0,0,0l0,0l0,0c0,0,0,0,0,0l0,0l0,0l0,0l-8.3-5.5c-0.1-0.1-0.3-0.1-0.4,0l-8.3,5.5l0,0l0,0l0,0c0,0,0,0,0,0l0,0
			l0,0c0,0,0,0,0,0c0,0,0,0,0,0c0,0,0,0,0,0c0,0,0,0,0,0c0,0,0,0,0,0.1v11.9c0,0.2,0.2,0.4,0.4,0.4h3.5c0.2,0,0.4-0.2,0.4-0.4v-7.9
			h8.9v7.9c0,0.2,0.2,0.4,0.4,0.4c0,0,0,0,0.1,0c0,0,0,0,0.1,0h3.3c0.2,0,0.4-0.2,0.4-0.4V80.6z M290.3,83.9v-0.4h8.9v0.4H290.3z
			 M300,92.1V83c0-0.2-0.2-0.4-0.4-0.4H290c-0.2,0-0.4,0.2-0.4,0.4v9.1h-2.7V80.8l7.9-5.2l7.9,5.2v11.3H300z"/>
		<path class="st3" d="M295.7,78.8h-2.1c-0.2,0-0.4,0.2-0.4,0.4s0.2,0.4,0.4,0.4h2.1c0.2,0,0.4-0.2,0.4-0.4S295.9,78.8,295.7,78.8z"
			/>
		<path class="st3" d="M295.7,80h-2.1c-0.2,0-0.4,0.2-0.4,0.4c0,0.2,0.2,0.4,0.4,0.4h2.1c0.2,0,0.4-0.2,0.4-0.4
			C296.1,80.2,295.9,80,295.7,80z"/>
	</g>
	<g>
		<path class="st4" d="M378.8,235.4l0-3.5l13.9-0.1l0,3.5l-5.1,0l0.1,14.5l-3.7,0l-0.1-14.5L378.8,235.4z"/>
		<path class="st4" d="M395,231.8l12.2-0.1l0,3.4l-8.6,0.1l0,3.9l7.9-0.1l0,3.4l-7.9,0.1l0,4l8.6-0.1l0,3.4l-12.2,0.1L395,231.8z"/>
		<path class="st4" d="M409.3,240.8c0-5.5,4.2-9.4,9.2-9.4c3.3,0,6.2,1.5,7.8,3.7l-2.4,2.4c-1.3-1.5-3-2.6-5.2-2.6
			c-3.2,0-5.7,2.5-5.7,5.9c0,3.3,2.5,5.7,5.8,5.7c2.1,0,4-1.1,5.2-2.7l2.5,2.2c-1.6,2.2-4.4,3.9-7.9,3.9
			C413.5,249.9,409.3,246.3,409.3,240.8z"/>
		<path class="st4" d="M428.9,231.6l3.6,0l0.1,7.2l7.5-0.1l-0.1-7.2l3.6,0l0.1,18l-3.6,0l-0.1-7.3l-7.5,0.1l0.1,7.3l-3.6,0
			L428.9,231.6z"/>
		<path class="st4" d="M462.9,231.3l0.1,18l-2.5,0l-9.4-11l0.1,11l-3.6,0l-0.1-18l2.3,0l9.6,11.1l-0.1-11.1L462.9,231.3z"/>
		<path class="st4" d="M465.9,240.3c0-5.2,4-9.4,9.3-9.4c5.3,0,9.4,4.1,9.4,9.3c0,5.1-4,9.3-9.3,9.3
			C470,249.5,466,245.5,465.9,240.3z M480.9,240.2c0-3.4-2.6-5.7-5.7-5.7c-3.1,0-5.6,2.5-5.6,5.8c0,3.3,2.5,5.7,5.7,5.7
			S481,243.5,480.9,240.2z"/>
		<path class="st4" d="M487.6,231.1l2.4,0l7.1,10.1L504,231l2.4,0l0.1,18l-3.6,0l-0.1-10.2l-5.2,7.6l-1.2,0l-5.3-7.5l0.1,10.2
			l-3.6,0L487.6,231.1z"/>
		<path class="st4" d="M520.1,245l-6.3,0l-1.4,3.9l-3.8,0l6.7-18l2.9,0l6.9,17.9l-3.8,0L520.1,245z M514.9,241.8l4.2,0l-2.1-6
			L514.9,241.8z"/>
		<path class="st4" d="M533.2,242.2l-2.1,0l0,6.5l-3.6,0l-0.1-18l6.9-0.1c4.2,0,6.2,2.7,6.2,5.6c0,2.2-1.1,4.4-3.6,5.3l4.4,7l-4.2,0
			L533.2,242.2z M531,239l2.9,0c2,0,2.8-1.2,2.8-2.5c0-1.3-0.9-2.4-2.5-2.4l-3.3,0L531,239z"/>
		<path class="st4" d="M549.7,241.5l-2.2,2.7l0,4.5l-3.6,0l-0.1-18l3.6,0l0.1,8.5l6.8-8.5l4.4,0l-6.5,8.2l7.1,9.8l-4.4,0
			L549.7,241.5z"/>
		<path class="st4" d="M560.7,230.6l12.2-0.1l0,3.4l-8.6,0.1l0,3.9l7.9-0.1l0,3.4l-7.9,0.1l0,4l8.6-0.1l0,3.4l-12.2,0.1L560.7,230.6
			z"/>
		<path class="st4" d="M574.6,234l0-3.5l13.9-0.1l0,3.5l-5.1,0l0.1,14.5l-3.7,0l-0.1-14.5L574.6,234z"/>
	</g>
	<g>
		<path class="st4" d="M675.6,102.3l-6.3,0l-1.4,3.9l-3.8,0l6.7-18l2.9,0l6.9,17.9l-3.8,0L675.6,102.3z M670.3,99.1l4.2,0l-2.1-6
			L670.3,99.1z"/>
		<path class="st4" d="M680.9,103.1l2.1-2.5c1.2,1.6,3,2.5,4.8,2.5c1.5,0,2.6-0.8,2.6-1.9c0-0.9-0.7-1.4-1.6-1.9
			c-1.1-0.5-2.6-1-3.9-1.7c-1.6-0.9-2.9-2.2-2.9-4.5c0-3,2.4-5.3,6.1-5.3c2.1,0,4.2,0.7,5.9,2.4l-1.9,2.6c-1.1-1.1-2.7-1.7-4-1.7
			c-1.4,0-2.3,0.7-2.3,1.7c0,0.9,0.7,1.4,1.5,1.8c1,0.4,2.8,1.1,4,1.7c1.8,0.8,3.1,2.2,3.1,4.5c0,3.2-2.6,5.5-6.6,5.5
			C685,106.4,682.4,105.3,680.9,103.1z"/>
		<path class="st4" d="M702.9,98.9l-2.2,2.7l0,4.5l-3.6,0l-0.1-18l3.6,0l0.1,8.5l6.8-8.5l4.4,0l-6.5,8.2l7.1,9.8l-4.4,0L702.9,98.9z
			"/>
		<path class="st4" d="M714,87.9l12.2-0.1l0,3.4l-8.6,0.1l0,3.9l7.9-0.1l0,3.4l-7.9,0.1l0,4l8.6-0.1l0,3.4l-12.2,0.1L714,87.9z"/>
		<path class="st4" d="M744.8,87.7l0.1,18l-2.5,0l-9.4-11l0.1,11l-3.6,0l-0.1-18l2.3,0l9.6,11.1l-0.1-11.1L744.8,87.7z"/>
		<path class="st4" d="M747.2,91.2l0-3.5l13.9-0.1l0,3.5l-5.1,0l0.1,14.5l-3.7,0l-0.1-14.5L747.2,91.2z"/>
	</g>
	<g>
		<path class="st4" d="M409.7,88.3l3.6,0l0.1,7.2l7.5-0.1l-0.1-7.2l3.6,0l0.1,18l-3.6,0l-0.1-7.3l-7.5,0.1l0.1,7.3l-3.6,0
			L409.7,88.3z"/>
		<path class="st4" d="M438.2,102.2l-6.3,0l-1.4,3.9l-3.8,0l6.7-18l2.9,0l6.9,17.9l-3.8,0L438.2,102.2z M432.9,99l4.2,0l-2.1-6
			L432.9,99z"/>
		<path class="st4" d="M458.4,93.9c0,3.1-1.9,5.9-6.6,5.9l-2.8,0l0,6.2l-3.6,0l-0.1-18l6.6,0C456.6,87.9,458.4,90.9,458.4,93.9z
			 M454.8,93.9c0-1.3-0.9-2.5-2.6-2.5l-3.1,0l0,5.2l2.9,0C453.9,96.5,454.8,95.2,454.8,93.9z"/>
		<path class="st4" d="M474,93.8c0,3.1-1.9,5.9-6.6,5.9l-2.8,0l0,6.2l-3.6,0l-0.1-18l6.6,0C472.1,87.8,474,90.8,474,93.8z
			 M470.3,93.7c0-1.3-0.9-2.5-2.6-2.5l-3.1,0l0,5.2l2.9,0C469.5,96.4,470.3,95.1,470.3,93.7z"/>
		<path class="st4" d="M484,99.5l0,6.2l-3.6,0l0-6.2l-6.2-11.7l4.2,0l3.9,7.9l3.8-7.9l4.2,0L484,99.5z"/>
		<path class="st4" d="M496.2,104.2l1.5-2.9c1.6,1,3,1.3,4.2,1.3c1.9,0,2.9-1,2.9-2.3s-1.1-2.2-2.8-2.2l-2.3,0l0-3.2l2,0
			c1.7,0,2.7-0.9,2.7-2.1c0-1.3-1.1-2.1-2.5-2c-1.1,0-2.1,0.4-3.6,1.4l-1.7-2.6c1.4-1.3,3.5-2.2,5.7-2.2c3.3,0,5.7,2,5.7,4.7
			c0,2-1.3,3.5-3,4.1v0.1c2.3,0.5,3.5,2.3,3.6,4.4c0,3.1-2.6,5.3-6.4,5.4C499.9,105.9,498,105.3,496.2,104.2z"/>
		<path class="st4" d="M524.1,99.6c0,3.5-2.6,6.1-6.4,6.1c-4.7,0-6.9-3.9-7-8.6c0-5,2.4-9.9,7.7-9.9c1.6,0,3.4,0.4,5,1.5l-1.5,2.7
			c-1-0.7-2.1-1.1-3.2-1c-2.9,0-4.4,2.8-4.5,5.5c0.9-1.4,2.5-2,4.1-2C521.6,93.8,524.1,96.3,524.1,99.6z M520.6,99.7
			c0-1.6-1.3-2.8-2.9-2.8c-1.6,0-2.9,1.2-2.9,2.9c0,1.6,1.3,2.9,2.9,2.9C519.3,102.6,520.6,101.3,520.6,99.7z"/>
		<path class="st4" d="M538.5,99.5c0,3.4-2.6,6.1-6.7,6.1c-2.1,0-4.2-0.7-6-2l1.4-2.9c1.5,1,3.1,1.5,4.4,1.5c2.1,0,3.3-1.3,3.2-2.8
			c0-1.6-1.3-2.7-3.1-2.7c-1,0-2.1,0.4-3,1.2l-2.1-1.7l0.9-9l9.5-0.1l0,3.3l-6.8,0.1l-0.4,3.5c0.7-0.3,1.5-0.4,2.4-0.5
			C535.7,93.8,538.4,96,538.5,99.5z"/>
	</g>
	<g>
		<path class="st4" d="M180.7,79.3l0.8-1c0.5,0.6,1.2,1,1.9,1c0.6,0,1-0.3,1-0.8c0-0.4-0.3-0.6-0.7-0.7c-0.5-0.2-1-0.4-1.6-0.7
			c-0.6-0.4-1.1-0.9-1.1-1.8c0-1.2,1-2.1,2.4-2.1c0.8,0,1.7,0.3,2.4,1l-0.8,1.1c-0.4-0.4-1.1-0.7-1.6-0.7c-0.6,0-0.9,0.3-0.9,0.7
			c0,0.4,0.3,0.6,0.6,0.7c0.4,0.2,1.1,0.4,1.6,0.7c0.7,0.3,1.2,0.9,1.2,1.8c0,1.3-1,2.2-2.6,2.2C182.4,80.7,181.4,80.2,180.7,79.3z"
			/>
		<path class="st4" d="M186.8,76.9c0-2.2,1.7-3.7,3.7-3.8c1.3,0,2.5,0.6,3.1,1.5l-1,0.9c-0.5-0.6-1.2-1-2.1-1c-1.3,0-2.3,1-2.3,2.4
			c0,1.3,1,2.3,2.3,2.3c0.8,0,1.6-0.4,2.1-1.1l1,0.9c-0.6,0.9-1.8,1.5-3.1,1.5C188.4,80.6,186.8,79.1,186.8,76.9z"/>
		<path class="st4" d="M198.3,78.9l-2.5,0l-0.5,1.6l-1.5,0l2.7-7.2l1.2,0l2.7,7.1l-1.5,0L198.3,78.9z M196.2,77.6l1.7,0l-0.9-2.4
			L196.2,77.6z"/>
		<path class="st4" d="M203.5,77.8l-0.9,0l0,2.6l-1.4,0l-0.1-7.2l2.7,0c1.7,0,2.5,1.1,2.5,2.2c0,0.9-0.4,1.7-1.4,2.1l1.8,2.8l-1.7,0
			L203.5,77.8z M202.6,76.5l1.2,0c0.8,0,1.1-0.5,1.1-1c0-0.5-0.3-1-1-1l-1.3,0L202.6,76.5z"/>
		<path class="st4" d="M210.6,77.8l0,2.5l-1.4,0l0-2.5l-2.5-4.7l1.7,0l1.5,3.1l1.5-3.1l1.7,0L210.6,77.8z"/>
		<path class="st4" d="M215.5,79.1l0.8-1c0.5,0.6,1.2,1,1.9,1c0.6,0,1-0.3,1-0.8c0-0.4-0.3-0.6-0.7-0.7c-0.5-0.2-1-0.4-1.6-0.7
			c-0.6-0.4-1.1-0.9-1.1-1.8c0-1.2,1-2.1,2.4-2.1c0.8,0,1.7,0.3,2.4,1l-0.8,1.1c-0.4-0.4-1.1-0.7-1.6-0.7c-0.6,0-0.9,0.3-0.9,0.7
			c0,0.4,0.3,0.6,0.6,0.7c0.4,0.2,1.1,0.4,1.6,0.7c0.7,0.3,1.2,0.9,1.2,1.8c0,1.3-1,2.2-2.6,2.2C217.2,80.4,216.1,79.9,215.5,79.1z"
			/>
		<path class="st4" d="M222,73.1l1.4,0l0,2.9l3,0l0-2.9l1.4,0l0.1,7.2l-1.4,0l0-2.9l-3,0l0,2.9l-1.4,0L222,73.1z"/>
		<path class="st4" d="M233.3,78.6l-2.5,0l-0.5,1.6l-1.5,0l2.7-7.2l1.2,0l2.7,7.1l-1.5,0L233.3,78.6z M231.2,77.3l1.7,0L232,75
			L231.2,77.3z"/>
		<path class="st4" d="M236.2,73l2.8,0c2.2,0,3.5,1.4,3.5,3.6c0,2.2-1.3,3.6-3.5,3.6l-2.7,0L236.2,73z M239,78.7
			c1.3,0,1.9-1,1.9-2.2c0-1.2-0.7-2.2-2-2.2l-1.4,0l0,4.4L239,78.7z"/>
		<path class="st4" d="M243.2,76.5c0-2.1,1.6-3.7,3.7-3.8c2.1,0,3.7,1.6,3.8,3.7c0,2-1.6,3.7-3.7,3.7
			C244.8,80.2,243.2,78.6,243.2,76.5z M249.2,76.5c0-1.3-1-2.3-2.3-2.3c-1.2,0-2.2,1-2.2,2.3c0,1.3,1,2.3,2.3,2.3
			C248.2,78.7,249.2,77.8,249.2,76.5z"/>
		<path class="st4" d="M250.9,72.9l1.6,0l1.5,4.8l1.6-4.8l0.9,0l1.7,4.8l1.4-4.8l1.6,0l-2.3,7.2l-1.2,0l-1.6-4.7l-1.5,4.7l-1.2,0
			L250.9,72.9z"/>
		<path class="st4" d="M261.2,78.7l0.8-1c0.5,0.6,1.2,1,1.9,1c0.6,0,1-0.3,1-0.8c0-0.4-0.3-0.6-0.7-0.7c-0.5-0.2-1-0.4-1.6-0.7
			c-0.6-0.4-1.1-0.9-1.1-1.8c0-1.2,1-2.1,2.4-2.1c0.8,0,1.7,0.3,2.4,1l-0.8,1.1c-0.4-0.4-1.1-0.7-1.6-0.7c-0.6,0-0.9,0.3-0.9,0.7
			c0,0.4,0.3,0.6,0.6,0.7c0.4,0.2,1.1,0.4,1.6,0.7c0.7,0.3,1.2,0.9,1.2,1.8c0,1.3-1,2.2-2.6,2.2C262.8,80.1,261.8,79.6,261.2,78.7z"
			/>
		<path class="st4" d="M187.1,85l2.8,0c2.2,0,3.5,1.4,3.5,3.6c0,2.2-1.3,3.6-3.5,3.6l-2.7,0L187.1,85z M190,90.7
			c1.3,0,1.9-1,1.9-2.2c0-1.2-0.7-2.2-2-2.2l-1.4,0l0,4.4L190,90.7z"/>
		<path class="st4" d="M198.2,90.5l-2.5,0l-0.5,1.6l-1.5,0l2.7-7.2l1.2,0l2.7,7.1l-1.5,0L198.2,90.5z M196.1,89.2l1.7,0l-0.9-2.4
			L196.1,89.2z"/>
		<path class="st4" d="M207.2,84.8l0.1,7.2l-1,0l-3.7-4.4l0,4.4l-1.4,0l-0.1-7.2l0.9,0l3.8,4.4l0-4.4L207.2,84.8z"/>
		<path class="st4" d="M208.4,88.4c0-2.2,1.7-3.7,3.7-3.8c1.3,0,2.5,0.6,3.1,1.5l-1,0.9c-0.5-0.6-1.2-1-2.1-1c-1.3,0-2.3,1-2.3,2.4
			c0,1.3,1,2.3,2.3,2.3c0.8,0,1.6-0.4,2.1-1.1l1,0.9c-0.6,0.9-1.8,1.5-3.1,1.5C210,92.1,208.4,90.6,208.4,88.4z"/>
		<path class="st4" d="M216.1,84.8l4.9,0l0,1.3l-3.4,0l0,1.5l3.2,0l0,1.3l-3.2,0l0,1.6l3.4,0l0,1.3l-4.9,0L216.1,84.8z"/>
		<path class="st4" d="M224.1,90.6l0.8-1c0.5,0.6,1.2,1,1.9,1c0.6,0,1-0.3,1-0.8c0-0.4-0.3-0.6-0.7-0.7c-0.5-0.2-1-0.4-1.6-0.7
			c-0.6-0.4-1.1-0.9-1.1-1.8c0-1.2,1-2.1,2.4-2.1c0.8,0,1.7,0.3,2.4,1l-0.8,1.1c-0.4-0.4-1.1-0.7-1.6-0.7c-0.6,0-0.9,0.3-0.9,0.7
			c0,0.4,0.3,0.6,0.6,0.7c0.4,0.2,1.1,0.4,1.6,0.7c0.7,0.3,1.2,0.9,1.2,1.8c0,1.3-1,2.2-2.6,2.2C225.8,92,224.8,91.5,224.1,90.6z"/>
		<path class="st4" d="M229.8,86l0-1.4l5.5,0l0,1.4l-2,0l0,5.8l-1.5,0l0-5.8L229.8,86z"/>
		<path class="st4" d="M236.2,89.1l0-4.5l1.4,0l0,4.4c0,1,0.6,1.4,1.4,1.4c0.8,0,1.3-0.5,1.3-1.5l0-4.4l1.5,0l0,4.5
			c0,1.9-1.3,2.8-2.8,2.8C237.6,91.9,236.3,91,236.2,89.1z"/>
		<path class="st4" d="M243.3,84.6l2.8,0c2.2,0,3.5,1.4,3.5,3.6c0,2.2-1.3,3.6-3.5,3.6l-2.7,0L243.3,84.6z M246.2,90.3
			c1.3,0,1.9-1,1.9-2.2c0-1.2-0.7-2.2-2-2.2l-1.4,0l0,4.4L246.2,90.3z"/>
		<path class="st4" d="M252.2,84.5l0.1,7.2l-1.4,0l-0.1-7.2L252.2,84.5z"/>
		<path class="st4" d="M253.4,88.1c0-2.1,1.6-3.7,3.7-3.8c2.1,0,3.7,1.6,3.8,3.7c0,2-1.6,3.7-3.7,3.7
			C255,91.7,253.4,90.1,253.4,88.1z M259.4,88c0-1.3-1-2.3-2.3-2.3c-1.2,0-2.2,1-2.2,2.3c0,1.3,1,2.3,2.3,2.3
			C258.4,90.3,259.4,89.3,259.4,88z"/>
	</g>
	<g>
		<path class="st4" d="M246.1,163.7l5.2,0l0,1.1l-5.2,0L246.1,163.7z"/>
		<path class="st4" d="M246,158l5.2,0l0,0.7l-3.2,2.7l3.2,0l0,1l-5.2,0l0-0.7l3.2-2.8l-3.2,0L246,158z"/>
		<path class="st4" d="M246,156.9l0-3.5l1,0l0,2.4l1.2,0l0-2.1l1,0l0,2.1l2.1,0l0,1L246,156.9z"/>
		<path class="st4" d="M246,152.6l0-1.1l4.2,0l0-2.7l1,0l0,3.7L246,152.6z"/>
		<path class="st4" d="M250.1,145.4l0,1.8l1.1,0.4l0,1.1l-5.2-2l0-0.9l5.2-2l0,1.1L250.1,145.4z M249.1,146.9l0-1.2l-1.7,0.6
			L249.1,146.9z"/>
		<path class="st4" d="M247,144.2l-1,0l0-4.1l1,0l0,1.5l4.2,0l0,1.1l-4.2,0L247,144.2z"/>
		<path class="st4" d="M250,137.2l0,1.8l1.1,0.4l0,1.1l-5.2-2l0-0.9l5.2-2l0,1.1L250,137.2z M249.1,138.7l0-1.2l-1.7,0.6
			L249.1,138.7z"/>
		<path class="st4" d="M249.6,131c0.8,0,1.5,0.6,1.5,1.6l0,2.4l-5.2,0l0-2.3c0-1,0.7-1.5,1.3-1.5c0.5,0,0.9,0.3,1.1,0.7
			C248.4,131.3,249,131,249.6,131z M246.8,134l1.1,0l0-1c0-0.5-0.3-0.7-0.6-0.7s-0.6,0.2-0.5,0.6L246.8,134z M249.5,132.1
			c-0.3,0-0.7,0.2-0.7,0.8l0,1.1l1.4,0l0-1.1C250.2,132.3,249.8,132.1,249.5,132.1z"/>
		<path class="st4" d="M245.8,130.2l0-1.1l4.2,0l0-2.7l1,0l0,3.7L245.8,130.2z"/>
		<path class="st4" d="M245.8,125.8l0-3.5l1,0l0,2.5l1.1,0l0-2.3l1,0l0,2.3l1.2,0l0-2.5l1,0l0,3.5L245.8,125.8z"/>
		<path class="st4" d="M257.2,156.9c-1.6,0-2.7-1.2-2.7-2.7c0-1,0.4-1.8,1.1-2.3l0.7,0.7c-0.4,0.4-0.8,0.9-0.7,1.5
			c0,0.9,0.7,1.7,1.7,1.7c1,0,1.7-0.7,1.7-1.7c0-0.6-0.3-1.2-0.8-1.5l0.7-0.7c0.6,0.5,1.1,1.3,1.1,2.3
			C259.8,155.7,258.8,156.9,257.2,156.9z"/>
		<path class="st4" d="M258.6,148.5l0,1.8l1.1,0.4l0,1.1l-5.2-2l0-0.9l5.2-2l0,1.1L258.6,148.5z M257.7,150.1l0-1.2l-1.7,0.6
			L257.7,150.1z"/>
		<path class="st4" d="M258.8,147l-0.7-0.6c0.5-0.4,0.7-0.9,0.7-1.4c0-0.4-0.2-0.7-0.6-0.7c-0.3,0-0.4,0.2-0.5,0.5
			c-0.2,0.3-0.3,0.8-0.5,1.1c-0.3,0.5-0.6,0.8-1.3,0.8c-0.9,0-1.5-0.7-1.5-1.8c0-0.6,0.2-1.2,0.7-1.7l0.8,0.6
			c-0.3,0.3-0.5,0.8-0.5,1.2c0,0.4,0.2,0.7,0.5,0.7c0.3,0,0.4-0.2,0.5-0.4c0.1-0.3,0.3-0.8,0.5-1.2c0.2-0.5,0.6-0.9,1.3-0.9
			c0.9,0,1.6,0.8,1.6,1.9C259.8,145.8,259.4,146.5,258.8,147z"/>
		<path class="st4" d="M255.4,142.8l-1,0l0-4.1l1,0l0,1.5l4.2,0l0,1.1l-4.2,0L255.4,142.8z"/>
		<path class="st4" d="M254.4,138.1l0-1.1l4.2,0l0-2.7l1,0l0,3.7L254.4,138.1z"/>
		<path class="st4" d="M254.4,133.7l0-3.5l1,0l0,2.5l1.1,0l0-2.3l1,0l0,2.3l1.2,0l0-2.5l1,0l0,3.5L254.4,133.7z"/>
	</g>
	<path class="st5" d="M794.7,285.7c0-1.7-1.4-3.1-3.1-3.1l-20.1-0.2c-1.7,0-3.1,1.4-3.1,3.1l-0.2,20.2c0,1.7,1.4,3.1,3.1,3.1
		l20.1,0.2c1.7,0,3.1-1.4,3.1-3.1L794.7,285.7z M787.3,286.5c0.9,0,1.5,0.7,1.5,1.6c0,0.9-0.7,1.5-1.6,1.5c-0.9,0-1.5-0.7-1.5-1.6
		C785.7,287.2,786.4,286.5,787.3,286.5z M775.4,286.4c0.9,0,1.5,0.7,1.5,1.6c0,0.9-0.7,1.5-1.6,1.5c-0.8,0-1.5-0.7-1.5-1.6
		C773.9,287.1,774.6,286.4,775.4,286.4z M778.5,290.8L778,296c0,0.3-0.2,0.6-0.6,0.7l0,0c-0.3,0.1-0.5,0.4-0.5,0.7l-0.5,6.7
		c0,0.5-0.4,0.8-0.9,0.8l-0.3,0l-0.3,0c-0.5,0-0.8-0.4-0.8-0.8l-0.4-6.7c0-0.3-0.2-0.6-0.5-0.7c-0.3-0.1-0.5-0.4-0.5-0.7l-0.4-5.2
		c0-0.4,0.3-0.8,0.7-0.9l0.4-0.1c0.3-0.1,0.6,0,0.8,0.2l0.6,0.6c0.3,0.3,0.9,0.3,1.2,0l0.6-0.6c0.2-0.2,0.5-0.3,0.8-0.2l0.4,0.1
		C778.2,290,778.5,290.4,778.5,290.8z M781.6,305c0,0.2-0.2,0.4-0.4,0.4c-0.2,0-0.4-0.2-0.4-0.4l0.1-18.6c0-0.2,0.2-0.4,0.4-0.4
		c0.2,0,0.4,0.2,0.4,0.4L781.6,305z M790.2,296.8c-0.3,0.1-0.5,0.3-0.4,0.6l0.2,1.3c0,0.3-0.2,0.6-0.5,0.6l-0.4,0
		c-0.3,0-0.5,0.3-0.5,0.5l-0.3,4.2c0,0.5-0.4,0.8-0.9,0.8l-0.3,0l-0.3,0c-0.5,0-0.8-0.4-0.8-0.8l-0.2-4.2c0-0.3-0.2-0.5-0.5-0.5
		l-0.4-0.1c-0.3,0-0.5-0.3-0.5-0.7l0.2-1.3c0-0.3-0.1-0.6-0.4-0.6c-0.3-0.1-0.5-0.4-0.4-0.7l1.2-5.5c0.1-0.4,0.5-0.6,0.9-0.4
		l1.1,0.7c0.2,0.1,0.4,0.1,0.6,0l1.1-0.7c0.3-0.2,0.8,0,0.9,0.4l1.1,5.5C790.7,296.4,790.5,296.7,790.2,296.8z"/>
	<g>
		<polygon class="st5" points="293.6,335.2 284.3,340.6 284.2,334.2 293.5,328.8 302.9,334 303,340.4 		"/>
		<polygon class="st5" points="293.7,343.9 284.4,349.3 284.3,343 293.6,337.6 303.1,342.7 303.1,349.1 		"/>
		<polygon class="st5" points="293.8,352.7 284.5,358 284.4,351.7 293.7,346.3 303.2,351.4 303.2,357.8 		"/>
	</g>
</g>
<rect id="Galleria_Stara_ZagoraK0.01" x="232.2" y="118.7" class="st2" width="36.9" height="49.4"/>
<polygon id="Galleria_Stara_Zagora0.012" class="st2" points="180.5,10.3 144,79.6 186.2,102.2 278.9,102.2 278.9,64.8 229.9,64.8 
	229.9,10.3 "/>
<polygon id="Galleria_Stara_Zagora0.016" class="st2" points="461.4,37.6 381,37.6 381,26 326.7,26 326.7,175.5 610.4,175.5 
	610.4,11.4 462.4,11.4 "/>
<polygon id="Galleria_Stara_Zagora0.017" class="st2" points="326.7,178 326.7,287.5 328.6,287.5 328.6,308.7 636,308.7 636,238.3 
	632.6,238.3 632.6,190.5 610.4,190.5 610.4,178 "/>
<polygon id="Galleria_Stara_ZagoraS0.016" class="st2" points="610.4,11.4 610.4,189.8 634.2,189.8 634.2,235.6 638.8,235.6 
	638.8,308.7 735.8,308.7 735.8,237.6 710.4,237.6 710.4,203.9 735.8,203.9 735.8,190.9 733.8,190.9 733.8,175.1 809.5,175.1 
	809.5,12.6 "/>
</svg>
