<?xml version="1.0" encoding="utf-8"?>
<!-- Generator: Adobe Illustrator 25.4.1, SVG Export Plug-In . SVG Version: 6.00 Build 0)  -->
<svg version="1.0" id="Layer_4" xmlns="http://www.w3.org/2000/svg" xmlns:xlink="http://www.w3.org/1999/xlink" x="0px" y="0px"
	 viewBox="0 0 829 797.8" style="enable-background:new 0 0 829 797.8;" xml:space="preserve">
<style type="text/css">
	.st0{fill:#F1F2F2;}
	.st1{fill:none;stroke:#000000;stroke-width:2;stroke-miterlimit:10;}
	.st2{fill:none;stroke:#000000;stroke-miterlimit:10;}
	.st3{fill-rule:evenodd;clip-rule:evenodd;fill:none;stroke:#000000;stroke-miterlimit:10;}
	.st4{fill-rule:evenodd;clip-rule:evenodd;}
	.st5{fill:#F47725;}
</style>
<g id="cladire">
	<g>
		<path class="st0" d="M812.3,785.5c-19.3-6.5-37.5-12.4-55-18.2c-14.9-4.9-30.3-10-46.6-15.4c-25.5-8.5-53.6-18.3-75.1-26.3
			c-77.5-28.7-152.6-61.6-223-97.8C288,563.7,176,490.5,79.8,410.1c-0.9-0.7-2.8-2.3-5.4-4.4c-8.8-7.1-25-20.4-39.1-32.4
			c-7.9-6.8-14-12.2-18.1-16.3c-6.3-6.1-9.9-10.1-7.6-14.4c0.3-0.5,168.9-316.9,168.9-316.9h640.5v761.9L812.3,785.5z"/>
		<path class="st0" d="M813.9,30.7v750c-35.6-11.9-66-21.7-101.6-33.6c-23.3-7.7-51.9-17.7-75-26.2c-76-28.1-150.4-60.6-222.5-97.6
			C297.4,562.9,184.4,491,83,406.3c-6.5-5.4-71.3-57.2-69.1-61.3c0,0,167.5-314.3,167.5-314.3H813.9 M823.9,20.7h-10H181.4h-6
			l-2.8,5.3C170.9,29.2,5.4,339.7,5.1,340.3c-2.3,4.3-1.4,9,2.5,13.9c1.4,1.7,3.4,3.8,6,6.4c4.2,4.1,10.4,9.7,18.4,16.5
			c14.1,12.1,30.4,25.4,39.2,32.5c2.6,2.2,4.6,3.7,5.4,4.4c96.5,80.6,208.8,154.1,333.8,218.3c70.6,36.3,145.8,69.3,223.6,98.1
			c21.6,8,49.7,17.8,75.3,26.3c16.3,5.4,31.7,10.5,46.6,15.4c17.5,5.8,35.7,11.7,55,18.2l13.2,4.4v-13.9v-750V20.7L823.9,20.7z"/>
		<path class="st1" d="M637.4,720.9c23,8.5,51.7,18.5,75,26.2c35.7,11.9,66,21.7,101.6,33.6v-750H181.4c0,0-167.5,314.3-167.5,314.3
			c-2.2,4.1,62.6,55.9,69.1,61.3c101.4,84.7,214.4,156.7,331.9,217C486.9,660.4,561.4,692.8,637.4,720.9z"/>
	</g>
</g>
<g id="magazine">
	<polyline class="st2" points="575.3,30.7 575.3,122 407.7,122 407.7,82.9 488.8,82.9 488.8,30.7 	"/>
	<polyline class="st2" points="138.6,111.2 192.8,138.5 168.2,185.1 196.5,199.9 235.1,125.9 391.6,125.9 391.6,81.5 391.6,80.2 
		376.1,80.2 376.1,30.7 	"/>
	<polyline class="st2" points="192.8,138.5 195.4,133.3 223.5,148.2 	"/>
	<line class="st2" x1="335" y1="30.7" x2="335" y2="125.9"/>
	<line class="st2" x1="488.6" y1="82.9" x2="488.6" y2="122"/>
	<line class="st2" x1="535.8" y1="122" x2="535.8" y2="30.7"/>
	<polyline class="st2" points="31.3,312.4 100.1,364.7 127.5,331.1 189,210.6 162.3,195.9 156.3,207.3 102.7,178.5 	"/>
	<path class="st2" d="M136.6,345.1"/>
	<path class="st2" d="M87.3,409.9l47.9-64.8h1.3c86.3,64,172.1,119.7,257.2,162.2l-17.7,34.1l-15.7-8.5l-24.4,48"/>
	<line class="st2" x1="195.1" y1="387.2" x2="146.9" y2="456.9"/>
	<polyline class="st2" points="403.7,617.1 427.5,568.3 388.2,547.6 405.3,515.6 534.4,579.4 635.8,543.3 636.1,505.7 763.8,505.7 
		763.8,568.5 813.7,568.5 	"/>
	<line class="st2" x1="427.5" y1="568.3" x2="444.7" y2="535"/>
	<polyline class="st2" points="545.2,575.5 545.2,671.5 545.2,673.6 545.2,684.3 	"/>
	<polyline class="st2" points="813.9,408 802.1,408 802.1,295.9 769.9,295.9 769.9,283.6 756,283.6 756,256.2 692.5,256.2 
		692.5,224.5 637.4,224.5 637.4,489.8 779.3,489.8 779.3,506 	"/>
	<polyline class="st2" points="779.3,506 803,506 813.9,506 	"/>
	<polyline class="st2" points="637.4,355.8 801,355.8 802.1,355.8 	"/>
	<line class="st2" x1="802.1" y1="408" x2="637.4" y2="408"/>
	<polyline class="st2" points="708,30.7 708,98 738.7,98 738.7,212.9 636.1,212.9 636.9,30.7 	"/>
	<polyline class="st2" points="707.2,76.4 659.6,76.4 659.6,82.6 636.6,82.6 	"/>
	<line class="st2" x1="738.7" y1="131" x2="636.4" y2="131"/>
	<path class="st3" d="M225,284.4l46.6-90.8h292.1v300.7l-22.6,8.4c-113.9-58.7-223.3-122.2-327.9-191.2h43.6v11.8H293v8.4h50.3
		v-76.4H290v29L225,284.4z"/>
	<polyline class="st3" points="290,255.4 290,226.7 262,226.7 256.1,223.9 	"/>
	<line class="st3" x1="300.8" y1="255.4" x2="300.8" y2="193.6"/>
	<line class="st3" x1="343.3" y1="255.4" x2="343.3" y2="193.6"/>
	<line class="st3" x1="343.3" y1="331.8" x2="343.3" y2="393.3"/>
	<line class="st3" x1="293" y1="331.8" x2="293" y2="362.3"/>
	<polyline class="st3" points="343.3,360.5 391.1,360.5 391.1,395.7 391.1,414.6 388.1,419.4 	"/>
	<polyline class="st3" points="489.4,193.6 489.4,361.4 563.7,361.4 	"/>
	<polyline class="st3" points="489.4,361.4 440.9,361.4 440.9,449.6 	"/>
	<polyline class="st3" points="440.6,389.9 491.2,389.9 491.2,476.6 	"/>
	<line class="st3" x1="491.2" y1="409.8" x2="563.7" y2="409.8"/>
	<line class="st3" x1="489.4" y1="327.6" x2="563.7" y2="327.6"/>
	<polyline class="st3" points="489.4,261.6 526.5,261.6 526.5,193.6 	"/>
	<line class="st3" x1="526.5" y1="256.5" x2="563.7" y2="256.5"/>
	<line class="st2" x1="440.9" y1="409.8" x2="391.1" y2="409.8"/>
	<line class="st2" x1="290" y1="284.4" x2="290" y2="323.4"/>
	<polyline class="st2" points="360.4,532.9 332.6,516.4 349.5,484 	"/>
	<line class="st2" x1="256.7" y1="323.4" x2="246.7" y2="333.5"/>
</g>
<g id="logo">
	<g>
		<path id="dm_1_" d="M682.9,309.3c-7,0.1-11,7.8-10.8,13.2c0,2.2,0.8,3.2,2.3,3.2c4-0.1,10.5-9.1,11.8-14.7l0.3-1.4
			C685.4,309.5,684.3,309.3,682.9,309.3 M691.7,332.3l-10.2,0.1c0.4-2.1,1.2-4.5,2.6-7.6l-0.2,0c-3.1,4.3-7.6,8.4-13.5,8.4
			c-6,0.1-9-2.9-9.1-9.2c-0.2-11,6.9-21.2,23.4-21.4c0.9,0,1.8,0,3.2,0.2l1.5-6.8l0-0.1c-1.7-0.2-4.1-0.4-6.3-0.5l1.3-5.5
			c5.2-0.5,10.6-0.8,16.8-0.7L691.7,332.3z M753.5,331.5l-10.2,0.1l3.3-18c0.7-2.9,0.1-4-1.6-4c-3.5,0-9.6,7.3-10.9,14.3l-1.5,7.8
			l-10.2,0.1l3.4-18c0.7-2.9,0.1-4-1.6-4c-3.5,0-9.4,7.2-10.9,14.1l-1.8,8l-10.2,0.1l5-22.5l0-0.2c-1.7-0.2-4.1-0.4-6.3-0.5l1.3-5.5
			c5.4-0.5,10.5-0.8,16.2-0.7c-0.6,2.3-1.5,4.9-2.7,7.5l0.2,0c3.3-4.6,6.8-8.1,13.5-8.2c4.4-0.1,7.4,1.7,7.4,5.7
			c0,0.7-0.2,1.5-0.5,2.6l0.1,0.1c3.4-4.9,7.5-8.5,14.1-8.6c7.3-0.1,8.9,4,7.6,9.5L753.5,331.5z"/>
	</g>
	<g>
		<path d="M742.1,591.1c-2.1,0.9-3.8,0-6.4,5.3c-8.2,16.8-14.5,30.3-22.1,49.9c0.2-16.1,3.1-28.9,4.8-44.5c0.3-2.9,0.8-6.9,0.7-9.9
			c-0.1-2.3-2.3-2.6-7-0.3c-2.6,1.3-5.7,1.2-6.8,4.2c-5,13-16.6,49.2-22,69.6c-1.3,4.9,3.6,5.7,5,0.7c3.5-12.2,11.6-39.2,16.5-53.1
			c-0.5,12.7-4,32.8-2.3,43.4c0.5,3.3,3.6,4.8,5.2,7.6c1.1,2,3,2.2,4-0.5c4.7-12.9,13.9-35.6,22.8-53.7c-1.7,8-8.4,41.9-10.3,55.4
			c-0.4,2.7,3,2.8,5.9,6.9c0.7,0.9,3.2,1.9,3.7-0.4c1.6-8.1,11.9-60.7,15.9-77.5C750.7,589.7,750.4,587.4,742.1,591.1z"/>
		<path d="M674.8,629.4c3.5-5.3,4.6-4.2,5.4-5.8c1.1-2,0.4-3.9-3.4-3.4c0,0-1.4,0.1-4.1,0.4c4.2-10.8,7.9-20,10.5-26.9
			c0.9-2.4,1-4.1-0.5-4.4c-1.6-0.4-6.1,2.1-8.9,2.6c-0.9,0.2-1.7,1.1-2,1.8c-4.5,10.2-8.5,20-11.9,28.9c-4.4,0.8-9.6,1.8-15.4,3.1
			c4.1-10.7,8.4-21.2,12.5-31.3c2-5-3.3-5.4-5.4-0.4c-2.7,6.5-7.7,18.8-13.2,33.1c-4.1,1-8.4,2.1-12.9,3.4c-3.3,0.9-3.4,1.8-2,3.8
			c0.8,1.1,2.4,1,3.1,1.8c1.9,2,3.1,4.4,6.5,4.8c-3.1,8.2-6.1,16.6-8.9,24.7c-1.7,5.1,3.2,6.1,5.1,0.7c3.1-8.7,6.3-17.5,9.6-26.2
			c2.8-0.6,9.5-2.1,15.7-3.4c-4.9,13.4-8.1,23.7-9.4,28.6c-0.2,1,0.2,1.5,0.4,1.9c1.7,2.4,3.2,2.5,5.4,5.5c0.6,0.8,2.5,1.2,3.2-0.7
			c4.5-13.7,9.2-26.6,13.6-38.2C669.5,633.1,672.8,632.3,674.8,629.4z"/>
		<path d="M678.1,650.3c-0.3,0.3-0.7,0.6-1,0.9c-0.4-1.2-0.8-2.4-1.1-3.5c1.1-1.3,2.1-2.6,3-4c3.7-5.7-3.6-9-6.7-5.3
			c-1.7,2-1.2,3.9-0.8,5.6c0.1,0.5,0.4,1.2,0.6,2.1c-0.9,0.9-2,2.1-3.4,3.7c-3.5,4.1-2.6,9.4,1.2,10.6c2.3,0.7,4.4-0.3,6.3-2
			c0.1,0.2,0.2,0.5,0.3,0.7c1,2.5,4,1.7,2.9-1.3c-0.2-0.5-0.5-1.2-0.7-2c0.6-0.8,1.1-1.5,1.6-2.2
			C682.6,650.3,680.4,648.4,678.1,650.3z M675.8,642.5c-0.3,0.4-0.7,0.7-1,1.1c-0.1-0.3-0.2-0.6-0.2-0.8
			C673.5,638.8,678.1,639.9,675.8,642.5z M673.3,654.6c-1.4,0.8-2.5-0.1-0.6-2.6c0.3-0.4,0.6-0.8,0.9-1.3c0.3,1,0.6,1.9,1,2.9
			C674.2,654,673.7,654.3,673.3,654.6z"/>
	</g>
	<g>
		<polygon points="72.9,265.4 76.7,266.9 81.2,274.5 81.2,268.3 84.3,269.1 84.3,280.9 81.4,280.9 76.2,272.2 76.2,280.9 
			72.9,280.9 72.9,265.4 		"/>
		<polygon points="85.7,269.5 85.7,280.9 93.1,280.9 93.1,278.2 89.1,278.2 89.1,276.4 92.3,276.5 92.3,274.4 89.1,274.1 
			89.1,272.7 92.4,273 92.4,270.5 85.7,269.5 		"/>
		<polygon points="93.2,270.7 95.4,280.9 98.3,280.9 100.2,275.5 101.6,280.9 104.4,280.9 106.8,272.1 104.1,271.9 102.9,276.4 
			101.6,271.7 99,271.4 97.3,276.5 96.2,271.1 93.2,270.7 		"/>
		<polygon points="109.8,280.9 111.7,280.9 111.7,272.2 117.3,263.9 113.2,263.9 109.8,269.6 106.4,263.9 102.3,263.9 108,272.2 
			108,280.9 109.8,280.9 		"/>
		<path d="M116.8,271.7l-2.8,0.2l-1.3,1.3v1.4v5l1.4,1.4h2.7l1.3-1.5v-6.6L116.8,271.7L116.8,271.7z M116.1,279.2h-1.4v-5.3h1.4
			V279.2L116.1,279.2z"/>
		<path d="M124.3,272.2l-1-1l-4.3,0.4v2.7l0,6.7h2.1v-3.8h1.2v3.8h2.1v-4.2l-0.7-0.7l0.7-0.8V272.2L124.3,272.2z M122.3,275.2h-1.2
			v-2.1h1.2V275.2L122.3,275.2z"/>
		<polygon points="125.4,270.8 125.4,280.9 128,280.9 128,276.7 130,280.9 132.7,280.9 129.8,275 132.4,269.7 129.7,270.2 
			128,273.6 128,270.5 125.4,270.8 		"/>
		<polygon points="132.9,269.6 138.3,268.4 138.3,270.8 135.8,271.3 135.8,273.1 138.2,272.8 138.2,275.5 135.8,275.7 135.8,278.1 
			138.4,278.1 138.4,280.9 132.9,280.9 132.9,269.6 		"/>
		<path class="st4" d="M142.2,272.6v-2.8l1.7-0.5v3L142.2,272.6L142.2,272.6z M139.4,280.9h2.8v-5.5l1.7-0.1v5.6h2.9v-6l-1-1.3
			l0.9-1.4v-4.7l-1.2-1.4l-6.1,2v2.8V280.9L139.4,280.9z"/>
	</g>
	<g>
		<path d="M548.4,456.7c0.6,0.3,1.5,0.5,2.5,0.7c1,0.2,2,0.2,2,1c0,0.5-0.5,1.1-1.6,1.1c-1.6,0-2-0.9-2-1.5h-2.5
			c0.1,1.9,1.7,3.3,4.4,3.3c2.4,0,4.3-0.9,4.3-3.3c0-1.3-1-2.2-2.5-2.6c-1.6-0.4-3.6-0.3-3.6-1.3c0.1-0.7,0.7-0.9,1.7-0.9
			c1.4,0,1.5,0.8,1.6,1.3h2.4c-0.2-1.9-1.7-3.1-4.1-3.1c-2.5,0-4,1.4-4,3.1C547,455.4,547.6,456.3,548.4,456.7"/>
		<polygon points="517.8,448.2 513.4,440.6 505,445.4 506.6,448.2 517.8,448.2 		"/>
		<polygon points="521.3,461 523.7,461 523.7,451.4 521.3,451.4 521.3,461 		"/>
		<path d="M503.9,453.5c1.5,0,2.8,1.3,2.8,2.7c0,1.5-1.3,2.7-2.8,2.7c-1.5,0-2.8-1.2-2.8-2.7C501.2,454.8,502.4,453.5,503.9,453.5
			 M503.9,461.2c1.1,0,2.1-0.3,2.9-0.9v0.6h2.4v-9.6h-2.4v0.8c-0.8-0.6-1.8-0.9-2.9-0.9c-2.7,0-5,2.2-5,4.9
			C498.9,458.9,501.1,461.2,503.9,461.2"/>
		<polygon points="547.2,448.2 532.7,423.3 524.4,428.1 536,448.2 547.2,448.2 		"/>
		<path d="M515,458.9c-1.5,0-2.8-1.2-2.8-2.7c0-1.5,1.3-2.7,2.8-2.7c1.5,0,2.8,1.3,2.8,2.7C517.8,457.7,516.5,458.9,515,458.9
			 M514.9,451.3c-2.8,0-5,2.2-5,4.9c0,2.7,2.3,5,5,5c1,0,2-0.3,2.8-0.9v0.6h2.4v-12.8h-2.4v4C516.9,451.6,516,451.3,514.9,451.3"/>
		<polygon points="521.3,450.5 523.7,450.5 523.7,448.2 532.5,448.2 523.1,432.1 514.8,436.8 521.3,448.2 521.3,450.5 		"/>
		<path d="M540.8,458.9c-1.5,0-2.8-1.2-2.8-2.7c0-1.5,1.3-2.7,2.8-2.7c1.5,0,2.7,1.3,2.7,2.7C543.5,457.7,542.3,458.9,540.8,458.9
			 M545.9,461v-9.6h-2.4v0.8c-0.8-0.6-1.8-0.9-2.8-0.9c-2.7,0-5,2.2-5,4.9c0,2.7,2.3,5,5,5c1.1,0,2-0.3,2.8-0.9v0.6H545.9L545.9,461
			z"/>
		<path d="M529.7,458.9c-1.5,0-2.7-1.2-2.7-2.7c0-1.5,1.3-2.7,2.7-2.7c1.5,0,2.8,1.3,2.8,2.7C532.5,457.7,531.3,458.9,529.7,458.9
			 M529.7,451.3c-2.7,0-5,2.2-5,4.9c0,2.7,2.3,5,5,5c1.1,0,2.1-0.3,2.9-0.9v0.6h2.4v-12.8h-2.4v4
			C531.7,451.6,530.7,451.3,529.7,451.3"/>
	</g>
	<g>
		<rect x="427.1" y="274.1" width="4" height="16"/>
		<polygon points="412.4,274.2 407.3,290 402.9,290 399.5,279.4 396.1,290 391.6,290 386.5,274.2 390.6,274.2 393.8,284.2 
			397,274.2 401.9,274.2 405.1,284.2 408.3,274.2 		"/>
		<polygon points="355.2,274.1 359.3,274.1 359.3,286.5 366.6,286.5 366.6,290 359.3,290 355.2,290 355.2,286.5 		"/>
		<polygon points="437.4,282.7 437.4,290 433.3,290 433.3,274.1 437.4,274.1 437.4,280.2 442,274.1 447.2,274.1 441.6,281.4 
			448,290 442.8,290 		"/>
		<rect x="448.5" y="274.1" width="4" height="16"/>
		<polygon points="458.6,282.7 458.6,290 454.5,290 454.5,274.1 458.6,274.1 458.6,280.2 463.2,274.1 468.4,274.1 462.8,281.4 
			469.2,290 464,290 		"/>
		<rect x="470" y="274.1" width="4" height="16"/>
		<path class="st4" d="M366.5,281.3c0-4.2,3.4-7.6,7.6-7.6h1.9c3.4,0,6.3,2.3,7.3,5.4h-4.1c-0.8-1.4-2.3-2.4-4-2.4H375
			c-2.5,0-4.6,2-4.6,4.6v1.7c0,2.5,2,4.6,4.6,4.6h0.1c1.7,0,3.2-1,4-2.4h4.1c-0.9,3.1-3.8,5.4-7.3,5.4h-1.9c-4.2,0-7.6-3.4-7.6-7.6
			V281.3z"/>
		<path class="st4" d="M412.8,275c0,0,5.7-2.8,10.3,0c0,0,2.3,1.4,2.2,5.6l0.1,9.7h-3.6v-7.4c0,0-6.3-0.6-6.5,2.2
			c-0.2,2.8,2.5,2.5,2.5,2.5s2.2-0.3,3.1-1.7v3.1c0,0-1.9,1.9-4.6,1.7c-2.8-0.2-4.3-2.2-4.3-2.2s-1.4-1.7-0.5-4.6
			c1-2.9,4.6-3.3,4.6-3.3s1.5-0.3,5.2-0.2c0,0,0.3-2.5-1.3-3c-1.6-0.5-4.1-0.1-4.1-0.1s-2.2,0.6-3.9,1.8L412.8,275z"/>
	</g>
	<g>
		<path d="M647.4,60.1l1.3-1.8c0.7,1.2,1.8,1.8,2.9,1.8c0.9,0,1.6-0.6,1.6-1.4c0-0.6-0.4-1-1-1.3c-0.7-0.4-1.6-0.7-2.4-1.2
			c-1-0.6-1.7-1.6-1.7-3.2c0-2.1,1.5-3.7,3.7-3.7c1.3,0,2.6,0.5,3.6,1.7l-1.2,1.9c-0.6-0.8-1.6-1.2-2.4-1.2c-0.9,0-1.4,0.5-1.4,1.2
			c0,0.6,0.4,1,0.9,1.3c0.6,0.3,1.7,0.8,2.4,1.2c1.1,0.6,1.9,1.6,1.9,3.2c0,2.3-1.6,3.9-4,3.9C649.8,62.5,648.3,61.7,647.4,60.1z"/>
		<path d="M657.1,57.6v-8.1h2.2v8c0,1.8,0.8,2.6,2.1,2.6c1.2,0,2-0.9,2-2.6v-8h2.2v8.1c0,3.4-2,4.9-4.2,4.9
			C659.1,62.5,657.1,61,657.1,57.6z"/>
		<path d="M676.4,58.5c0,2-1.3,3.7-3.5,3.7h-5V49.5h4.8c2.1,0,3.1,1.6,3.1,3.2c0,1.1-0.6,2.2-1.5,2.6
			C675.7,55.7,676.4,57.1,676.4,58.5z M670.1,51.7v2.8h2.1c1,0,1.4-0.7,1.4-1.4s-0.5-1.4-1.3-1.4H670.1z M674.1,58.3
			c0-0.8-0.5-1.7-1.6-1.7h-2.4V60h2.4C673.6,60,674.1,59.1,674.1,58.3z"/>
		<path d="M681.6,57.6h-1.3v4.7h-2.2V49.5h4.2c2.6,0,3.7,1.9,3.7,4.1c0,1.5-0.7,3.1-2.2,3.8l2.6,5h-2.6L681.6,57.6z M680.3,55.3h1.8
			c1.2,0,1.7-0.9,1.7-1.8c0-0.9-0.5-1.7-1.5-1.7h-2V55.3z"/>
		<path d="M693.9,59.5h-3.8l-0.8,2.8H687l4.2-12.8h1.8l4.1,12.8h-2.3L693.9,59.5z M690.8,57.2h2.6l-1.3-4.3L690.8,57.2z"/>
	</g>
	<g>
		<path d="M537.2,77.7v-1.2h4.2v1.2h-1.6v5.2h-1.1v-5.2H537.2z"/>
		<path d="M542.2,76.5h3.7v1.2h-2.6v1.4h2.4v1.2h-2.4v1.4h2.6v1.2h-3.7V76.5z"/>
		<path d="M546.9,76.5h1.1v5.2h2.8v1.2h-3.9V76.5z"/>
		<path d="M551.5,76.5h3.7v1.2h-2.6v1.4h2.4v1.2h-2.4v1.4h2.6v1.2h-3.7V76.5z"/>
		<path d="M560.9,76.5v6.5h-0.8l-2.8-4v4h-1.1v-6.5h0.7l2.9,4v-4H560.9z"/>
		<path d="M561.8,79.7c0-1.9,1.3-3.4,2.9-3.4c1.6,0,2.9,1.5,2.9,3.3c0,1.8-1.2,3.3-2.9,3.3C563.1,83,561.8,81.6,561.8,79.7z
			 M566.4,79.7c0-1.2-0.8-2.1-1.7-2.1c-1,0-1.7,0.9-1.7,2.1c0,1.2,0.8,2.1,1.7,2.1C565.7,81.8,566.4,80.9,566.4,79.7z"/>
		<path d="M570.2,80.6h-0.7v2.3h-1.1v-6.5h2.1c1.3,0,1.9,1,1.9,2c0,0.8-0.3,1.6-1.1,1.9l1.3,2.5h-1.3L570.2,80.6z M569.6,79.4h0.9
			c0.6,0,0.9-0.4,0.9-0.9c0-0.5-0.3-0.9-0.8-0.9h-1V79.4z"/>
	</g>
	<g>
		<path d="M419.2,106.9l1.3-1.8c0.7,1.2,1.8,1.8,2.9,1.8c0.9,0,1.6-0.6,1.6-1.4c0-0.6-0.4-1-1-1.3c-0.7-0.4-1.6-0.7-2.4-1.2
			c-1-0.6-1.7-1.6-1.7-3.2c0-2.1,1.5-3.7,3.7-3.7c1.3,0,2.6,0.5,3.6,1.7l-1.2,1.9c-0.6-0.8-1.6-1.2-2.4-1.2c-0.9,0-1.4,0.5-1.4,1.2
			c0,0.6,0.4,1,0.9,1.3c0.6,0.3,1.7,0.8,2.4,1.2c1.1,0.6,1.9,1.6,1.9,3.2c0,2.3-1.6,3.9-4,3.9C421.7,109.3,420.2,108.5,419.2,106.9z
			"/>
		<path d="M429.1,96.2h7.4v2.4h-5.2v2.8h4.8v2.4h-4.8v2.9h5.2v2.4h-7.4V96.2z"/>
		<path d="M437.6,106.9l1.3-1.8c0.7,1.2,1.8,1.8,2.9,1.8c0.9,0,1.6-0.6,1.6-1.4c0-0.6-0.4-1-1-1.3c-0.7-0.4-1.6-0.7-2.4-1.2
			c-1-0.6-1.7-1.6-1.7-3.2c0-2.1,1.5-3.7,3.7-3.7c1.3,0,2.6,0.5,3.6,1.7l-1.2,1.9c-0.6-0.8-1.6-1.2-2.4-1.2c-0.9,0-1.4,0.5-1.4,1.2
			c0,0.6,0.4,1,0.9,1.3c0.6,0.3,1.7,0.8,2.4,1.2c1.1,0.6,1.9,1.6,1.9,3.2c0,2.3-1.6,3.9-4,3.9C440,109.3,438.5,108.5,437.6,106.9z"
			/>
		<path d="M446.5,106.9l1.3-1.8c0.7,1.2,1.8,1.8,2.9,1.8c0.9,0,1.6-0.6,1.6-1.4c0-0.6-0.4-1-1-1.3c-0.7-0.4-1.6-0.7-2.4-1.2
			c-1-0.6-1.7-1.6-1.7-3.2c0-2.1,1.5-3.7,3.7-3.7c1.3,0,2.6,0.5,3.6,1.7l-1.2,1.9c-0.6-0.8-1.6-1.2-2.4-1.2c-0.9,0-1.4,0.5-1.4,1.2
			c0,0.6,0.4,1,0.9,1.3c0.6,0.3,1.7,0.8,2.4,1.2c1.1,0.6,1.9,1.6,1.9,3.2c0,2.3-1.6,3.9-4,3.9C449,109.3,447.5,108.5,446.5,106.9z"
			/>
		<path d="M458.6,96.2v12.8h-2.2V96.2H458.6z"/>
		<path d="M461,96.2h2.2v10.3h5.5v2.5H461V96.2z"/>
		<path d="M473.5,104.6v4.4h-2.2v-4.4l-3.7-8.4h2.5l2.3,5.6l2.3-5.6h2.5L473.5,104.6z"/>
	</g>
	<g>
		<path d="M185.6,161.4l0.6-0.9c0.4,0.6,0.9,0.9,1.4,0.9c0.4,0,0.8-0.3,0.8-0.7c0-0.3-0.2-0.5-0.5-0.7c-0.3-0.2-0.8-0.3-1.2-0.6
			c-0.5-0.3-0.8-0.8-0.8-1.6c0-1,0.7-1.8,1.8-1.8c0.6,0,1.3,0.3,1.8,0.8l-0.6,0.9c-0.3-0.4-0.8-0.6-1.2-0.6c-0.4,0-0.7,0.2-0.7,0.6
			c0,0.3,0.2,0.5,0.4,0.6c0.3,0.2,0.8,0.4,1.2,0.6c0.5,0.3,0.9,0.8,0.9,1.6c0,1.1-0.8,1.9-2,1.9C186.8,162.6,186,162.2,185.6,161.4z
			"/>
		<path d="M191.5,156.2v6.3h-1.1v-6.3H191.5z"/>
		<path d="M192.7,156.2h1.1v5.1h2.7v1.2h-3.8V156.2z"/>
		<path d="M201.1,156.2l-2.2,6.3H198l-2.2-6.3h1.2l1.4,4.3l1.4-4.3H201.1z"/>
		<path d="M201.7,156.2h3.6v1.2h-2.5v1.3h2.4v1.2h-2.4v1.4h2.5v1.2h-3.6V156.2z"/>
		<path d="M208,160.2h-0.6v2.3h-1.1v-6.3h2c1.3,0,1.8,0.9,1.8,2c0,0.8-0.3,1.5-1.1,1.8l1.3,2.4h-1.3L208,160.2z M207.4,159.1h0.9
			c0.6,0,0.8-0.4,0.8-0.9c0-0.4-0.3-0.8-0.7-0.8h-1V159.1z"/>
		<path d="M185.5,167.9c0-1.9,1.3-3.3,2.8-3.3c1,0,1.8,0.5,2.3,1.3l-0.7,0.8c-0.4-0.5-0.9-0.9-1.5-0.9c-1,0-1.7,0.9-1.7,2.1
			c0,1.2,0.7,2,1.7,2c0.6,0,1.2-0.4,1.6-0.9l0.7,0.8c-0.5,0.8-1.3,1.3-2.4,1.3C186.7,171.1,185.5,169.8,185.5,167.9z"/>
		<path d="M190.9,167.9c0-1.8,1.2-3.3,2.8-3.3c1.6,0,2.8,1.5,2.8,3.2c0,1.8-1.2,3.2-2.8,3.2C192.1,171.1,190.9,169.7,190.9,167.9z
			 M195.4,167.9c0-1.2-0.8-2-1.7-2c-0.9,0-1.7,0.9-1.7,2c0,1.1,0.7,2,1.7,2C194.6,169.9,195.4,169,195.4,167.9z"/>
		<path d="M197.3,168.7v-4h1.1v3.9c0,0.9,0.4,1.3,1,1.3c0.6,0,1-0.4,1-1.3v-3.9h1.1v4c0,1.7-1,2.4-2.1,2.4
			C198.2,171.1,197.3,170.4,197.3,168.7z"/>
		<path d="M204.3,168.7h-0.6v2.3h-1.1v-6.3h2c1.3,0,1.8,0.9,1.8,2c0,0.8-0.3,1.5-1.1,1.8l1.3,2.4h-1.3L204.3,168.7z M203.7,167.6
			h0.9c0.6,0,0.8-0.4,0.8-0.9c0-0.4-0.3-0.8-0.7-0.8h-1V167.6z"/>
		<path d="M206.9,165.9v-1.2h4.1v1.2h-1.5v5.1h-1.1v-5.1H206.9z"/>
	</g>
	<g>
		<path d="M244.5,254.1h1.2v5.8h3.1v1.4h-4.3V254.1z"/>
		<path d="M252.9,259.8h-2.1l-0.5,1.6H249l2.3-7.2h1l2.3,7.2h-1.3L252.9,259.8z M251.1,258.5h1.4l-0.7-2.4L251.1,258.5z"/>
		<path d="M255,260.3l3-4.8h-2.9v-1.3h4.6v1.1l-3,4.8h3.1v1.3H255V260.3z"/>
		<path d="M264,259.8h-2.1l-0.5,1.6h-1.3l2.3-7.2h1l2.3,7.2h-1.3L264,259.8z M262.2,258.5h1.4l-0.7-2.4L262.2,258.5z"/>
		<path d="M268.5,258.7h-0.7v2.6h-1.2v-7.2h2.3c1.4,0,2.1,1.1,2.1,2.3c0,0.9-0.4,1.7-1.2,2.1l1.5,2.8h-1.4L268.5,258.7z
			 M267.7,257.4h1c0.7,0,1-0.5,1-1c0-0.5-0.3-1-0.8-1h-1.1V257.4z"/>
		<path d="M273.3,254.1v7.2h-1.2v-7.2H273.3z"/>
		<path d="M279.9,254.1v7.2h-0.8l-3.2-4.4v4.4h-1.2v-7.2h0.8l3.2,4.4v-4.4H279.9z"/>
		<path d="M282.5,254.1v7.2h-1.2v-7.2H282.5z"/>
	</g>
	<g>
		<path d="M502.3,228.6c0,1.1-0.7,2-1.8,2h-2.7v-6.8h2.5c1.1,0,1.7,0.9,1.7,1.7c0,0.6-0.3,1.2-0.8,1.4
			C501.9,227.1,502.3,227.8,502.3,228.6z M498.9,225v1.5h1.1c0.5,0,0.7-0.4,0.7-0.8c0-0.4-0.2-0.7-0.7-0.7H498.9z M501,228.5
			c0-0.5-0.3-0.9-0.9-0.9h-1.3v1.8h1.3C500.8,229.4,501,228.9,501,228.5z"/>
		<path d="M502.9,227.2c0-2,1.3-3.6,3-3.6c1.7,0,3,1.6,3,3.5c0,2-1.3,3.5-3,3.5C504.2,230.7,502.9,229.2,502.9,227.2z M507.7,227.2
			c0-1.3-0.8-2.2-1.8-2.2c-1,0-1.8,0.9-1.8,2.2c0,1.2,0.8,2.2,1.8,2.2C506.9,229.4,507.7,228.4,507.7,227.2z"/>
		<path d="M509.1,225.1v-1.3h4.5v1.3H512v5.5h-1.2v-5.5H509.1z"/>
		<path d="M514.4,223.8h3.9v1.3h-2.8v1.5h2.6v1.3h-2.6v1.5h2.8v1.3h-3.9V223.8z"/>
	</g>
	<g>
		<path d="M533.9,223.3c0-1.6,1.1-2.8,2.4-2.8c0.8,0,1.4,0.4,1.8,0.9l-0.6,0.8c-0.3-0.4-0.8-0.6-1.2-0.6c-0.8,0-1.5,0.7-1.5,1.7
			c0,1,0.6,1.7,1.5,1.7c0.5,0,0.9-0.2,1.2-0.6v-0.7h-1.3v-0.9h2.1v2.2c-0.6,0.7-1.3,1.1-2.1,1.1C534.8,226,533.9,224.8,533.9,223.3z
			"/>
		<path d="M540.5,224H540v1.9h-0.9v-5.3h1.7c1.1,0,1.6,0.8,1.6,1.7c0,0.6-0.3,1.3-0.9,1.6l1.1,2.1h-1.1L540.5,224z M540,223h0.7
			c0.5,0,0.7-0.4,0.7-0.7c0-0.4-0.2-0.7-0.6-0.7H540V223z"/>
		<path d="M545.7,224.8h-1.6l-0.3,1.2h-1l1.7-5.3h0.7l1.7,5.3h-1L545.7,224.8z M544.3,223.8h1.1l-0.5-1.8L544.3,223.8z"/>
		<path d="M551.4,220.6v5.3h-0.6l-2.3-3.3v3.3h-0.9v-5.3h0.6l2.4,3.3v-3.3H551.4z"/>
		<path d="M552.4,220.6h1.8c1.4,0,2.2,1,2.2,2.7c0,1.6-0.8,2.7-2.2,2.7h-1.7V220.6z M554.2,224.9c0.8,0,1.2-0.8,1.2-1.7
			c0-0.9-0.4-1.6-1.2-1.6h-0.9v3.3H554.2z"/>
		<path d="M533.8,230.5c0-1.6,1-2.8,2.4-2.8s2.4,1.2,2.4,2.8c0,1.5-1,2.7-2.4,2.7C534.8,233.2,533.8,232,533.8,230.5z M537.6,230.5
			c0-1-0.6-1.7-1.4-1.7c-0.8,0-1.4,0.7-1.4,1.7c0,1,0.6,1.7,1.4,1.7C536.9,232.2,537.6,231.4,537.6,230.5z"/>
		<path d="M542.5,229.6c0,0.9-0.5,1.7-1.7,1.7h-0.7v1.8h-0.9v-5.3h1.7C542.1,227.8,542.5,228.7,542.5,229.6z M541.6,229.5
			c0-0.4-0.2-0.8-0.7-0.8h-0.8v1.5h0.7C541.4,230.3,541.6,229.9,541.6,229.5z"/>
		<path d="M542.7,228.8v-1h3.5v1H545v4.3H544v-4.3H542.7z"/>
		<path d="M547.8,227.8v5.3h-0.9v-5.3H547.8z"/>
		<path d="M548.5,230.5c0-1.6,1.1-2.8,2.3-2.8c0.8,0,1.6,0.5,2,1.1l-0.6,0.7c-0.3-0.5-0.8-0.8-1.3-0.8c-0.8,0-1.4,0.7-1.4,1.7
			c0,1,0.6,1.7,1.4,1.7c0.5,0,1-0.3,1.3-0.8l0.6,0.7c-0.4,0.6-1.1,1.1-2,1.1C549.6,233.2,548.5,232.1,548.5,230.5z"/>
		<path d="M553.1,232.2l0.5-0.7c0.3,0.5,0.7,0.7,1.2,0.7c0.4,0,0.7-0.2,0.7-0.6c0-0.3-0.2-0.4-0.4-0.6c-0.3-0.2-0.7-0.3-1-0.5
			c-0.4-0.3-0.7-0.7-0.7-1.3c0-0.9,0.6-1.6,1.5-1.6c0.5,0,1.1,0.2,1.5,0.7l-0.5,0.8c-0.3-0.3-0.7-0.5-1-0.5c-0.4,0-0.6,0.2-0.6,0.5
			c0,0.3,0.2,0.4,0.4,0.5c0.2,0.1,0.7,0.3,1,0.5c0.4,0.3,0.8,0.6,0.8,1.3c0,0.9-0.7,1.6-1.7,1.6
			C554.1,233.2,553.5,232.9,553.1,232.2z"/>
	</g>
	<g>
		<path d="M513.3,292.4l-2.3,6.6H510l-2.3-6.6h1.3l1.5,4.6l1.5-4.6H513.3z"/>
		<path d="M515.1,292.4v6.6h-1.1v-6.6H515.1z"/>
		<path d="M521.3,292.4l-2.3,6.6h-0.9l-2.3-6.6h1.3l1.5,4.6l1.5-4.6H521.3z"/>
		<path d="M524.5,297.6h-2l-0.4,1.4h-1.2l2.2-6.6h0.9l2.1,6.6h-1.2L524.5,297.6z M522.8,296.5h1.3l-0.7-2.2L522.8,296.5z"/>
		<path d="M526.2,295.8c0-2,1.3-3.5,2.9-3.5c1,0,1.9,0.6,2.4,1.4l-0.8,0.9c-0.4-0.6-0.9-1-1.6-1c-1,0-1.8,0.9-1.8,2.2
			c0,1.2,0.8,2.1,1.8,2.1c0.7,0,1.2-0.4,1.6-1l0.8,0.8c-0.5,0.8-1.4,1.4-2.5,1.4C527.5,299.2,526.2,297.8,526.2,295.8z"/>
		<path d="M532,295.8c0-1.9,1.3-3.5,2.9-3.5s2.9,1.5,2.9,3.4c0,1.9-1.3,3.4-3,3.4C533.3,299.2,532,297.7,532,295.8z M536.7,295.8
			c0-1.2-0.8-2.1-1.8-2.1c-1,0-1.8,0.9-1.8,2.1c0,1.2,0.8,2.1,1.8,2.1S536.7,297,536.7,295.8z"/>
		<path d="M538.8,292.4h0.7l2.2,3.8l2.2-3.8h0.8v6.6h-1.1v-3.8l-1.6,2.8h-0.4l-1.6-2.8v3.8h-1.1V292.4z"/>
	</g>
	<g>
		<path d="M515,342.3h3.1v1h-2.2v1.1h2v1h-2v1.2h2.2v1H515V342.3z"/>
		<path d="M522.9,342.3l-1.9,5.3h-0.7l-1.9-5.3h1l1.2,3.7l1.2-3.7H522.9z"/>
		<path d="M523.4,342.3h3.1v1h-2.2v1.1h2v1h-2v1.2h2.2v1h-3.1V342.3z"/>
		<path d="M527.4,342.3h0.9v4.3h2.3v1h-3.2V342.3z"/>
		<path d="M532.1,342.3v5.3h-0.9v-5.3H532.1z"/>
		<path d="M537,342.3v5.3h-0.6l-2.3-3.3v3.3h-0.9v-5.3h0.6l2.4,3.3v-3.3H537z"/>
	</g>
	<g>
		<path d="M503.4,377.1h5v2.5h-3.5v2.9h3.1v2.5h-3.1v5.2h-1.5V377.1z"/>
		<path d="M509.6,377.1h1.5v10.6h3.8v2.5h-5.4V377.1z"/>
		<path d="M520,387.4h-2.6l-0.6,2.8h-1.6l2.9-13.1h1.2l2.8,13.1h-1.6L520,387.4z M517.8,385.1h1.8l-0.9-4.4L517.8,385.1z"/>
		<path d="M524.6,377.1v13.1h-1.5v-13.1H524.6z"/>
		<path d="M528.7,385.5h-0.9v4.8h-1.5v-13.1h2.9c1.8,0,2.6,2,2.6,4.2c0,1.6-0.5,3.2-1.5,3.9l1.8,5.1h-1.8L528.7,385.5z M527.8,383.1
			h1.2c0.8,0,1.2-0.9,1.2-1.8c0-0.9-0.4-1.8-1-1.8h-1.4V383.1z"/>
	</g>
	<g>
		<path d="M408.8,535.3c0,1.2-0.6,2.3-2.2,2.3h-0.9v2.4h-1.2v-7h2.2C408.2,533,408.8,534.1,408.8,535.3z M407.6,535.3
			c0-0.5-0.3-1-0.9-1h-1v2h1C407.3,536.3,407.6,535.8,407.6,535.3z"/>
		<path d="M412.4,538.5h-2.1l-0.5,1.5h-1.3l2.3-7h1l2.2,7h-1.3L412.4,538.5z M410.7,537.2h1.4l-0.7-2.3L410.7,537.2z"/>
		<path d="M414.7,537.4V533h1.2v4.4c0,1,0.5,1.4,1.1,1.4c0.7,0,1.1-0.5,1.1-1.4V533h1.2v4.5c0,1.9-1.1,2.7-2.3,2.7
			C415.7,540.1,414.7,539.3,414.7,537.4z"/>
		<path d="M420.6,533h1.2v5.7h3v1.3h-4.2V533z"/>
		<path d="M428.8,538.5h-2.1l-0.5,1.5H425l2.3-7h1l2.2,7h-1.3L428.8,538.5z M427.1,537.2h1.4l-0.7-2.3L427.1,537.2z"/>
		<path d="M410.5,542.5l-2.5,7h-1l-2.5-7h1.4l1.6,4.9l1.6-4.9H410.5z"/>
		<path d="M411.3,542.5h4.1v1.3h-2.8v1.5h2.6v1.3h-2.6v1.6h2.8v1.3h-4.1V542.5z"/>
		<path d="M421.5,542.5v7h-0.8l-3.1-4.3v4.3h-1.2v-7h0.8l3.2,4.3v-4.3H421.5z"/>
		<path d="M422.3,543.8v-1.4h4.6v1.4h-1.7v5.7H424v-5.7H422.3z"/>
		<path d="M428.9,542.5v7h-1.2v-7H428.9z"/>
	</g>
	<g>
		<path d="M355.5,374.9h3.1v1h-2.2v1.1h2v1h-2v1.2h2.2v1h-3.1V374.9z"/>
		<path d="M359.1,379.3l0.5-0.7c0.3,0.5,0.7,0.7,1.2,0.7c0.4,0,0.6-0.2,0.6-0.6c0-0.3-0.2-0.4-0.4-0.6c-0.3-0.2-0.7-0.3-1-0.5
			c-0.4-0.3-0.7-0.7-0.7-1.3c0-0.9,0.6-1.6,1.5-1.6c0.5,0,1.1,0.2,1.5,0.7l-0.5,0.8c-0.3-0.3-0.7-0.5-1-0.5c-0.4,0-0.6,0.2-0.6,0.5
			c0,0.3,0.2,0.4,0.4,0.5c0.2,0.1,0.7,0.3,1,0.5c0.4,0.3,0.8,0.6,0.8,1.3c0,0.9-0.7,1.6-1.7,1.6C360.1,380.3,359.5,380,359.1,379.3z
			"/>
		<path d="M362.7,375.9v-1h3.5v1h-1.3v4.3H364v-4.3H362.7z"/>
		<path d="M367.7,374.9v5.3h-0.9v-5.3H367.7z"/>
		<path d="M368.7,374.9h0.9v4.3h2.3v1h-3.2V374.9z"/>
	</g>
	<g>
		<path d="M308.4,361.5l2.2-3.6h-2.2v-1h3.4v0.8l-2.2,3.6h2.3v1h-3.6V361.5z"/>
		<path d="M312.7,356.9h0.9v4.3h2.3v1h-3.2V356.9z"/>
		<path d="M318.9,361.1h-1.6l-0.3,1.2h-1l1.7-5.3h0.7l1.7,5.3h-1L318.9,361.1z M317.6,360.1h1.1l-0.5-1.8L317.6,360.1z"/>
		<path d="M319.9,358v-1h3.5v1h-1.3v4.3h-0.9V358H319.9z"/>
		<path d="M327.9,356.9v5.3h-0.6l-2.3-3.3v3.3H324v-5.3h0.6l2.4,3.3v-3.3H327.9z"/>
		<path d="M331.3,361.1h-1.6l-0.3,1.2h-1l1.7-5.3h0.7l1.7,5.3h-1L331.3,361.1z M330,360.1h1.1l-0.5-1.8L330,360.1z"/>
		<path d="M312.9,367.5h-0.5v1.9h-0.9v-5.3h1.7c1.1,0,1.6,0.8,1.6,1.7c0,0.6-0.3,1.3-0.9,1.6l1.1,2.1h-1.1L312.9,367.5z
			 M312.4,366.6h0.7c0.5,0,0.7-0.4,0.7-0.7c0-0.4-0.2-0.7-0.6-0.7h-0.8V366.6z"/>
		<path d="M316.5,364.1v5.3h-0.9v-5.3H316.5z"/>
		<path d="M321.1,367.9c0,0.8-0.5,1.6-1.4,1.6h-2.1v-5.3h2c0.9,0,1.3,0.7,1.3,1.3c0,0.5-0.2,0.9-0.6,1.1
			C320.8,366.7,321.1,367.3,321.1,367.9z M318.4,365.1v1.2h0.9c0.4,0,0.6-0.3,0.6-0.6c0-0.3-0.2-0.6-0.5-0.6H318.4z M320.1,367.8
			c0-0.4-0.2-0.7-0.7-0.7h-1v1.4h1C319.9,368.5,320.1,368.2,320.1,367.8z"/>
		<path d="M323.3,367.4l-0.6,0.8v1.3h-0.9v-5.3h0.9v2.5l1.7-2.5h1.1l-1.7,2.4l1.8,2.9h-1.1L323.3,367.4z"/>
		<path d="M328.5,368.3h-1.6l-0.3,1.2h-1l1.7-5.3h0.7l1.7,5.3h-1L328.5,368.3z M327.2,367.4h1.1l-0.5-1.8L327.2,367.4z"/>
	</g>
	<g>
		<path d="M670.3,452c-1.9,0-3.4-1.2-3.4-2.6c0-1.4,1.5-2.6,3.4-2.6c1.9,0,3.4,1.2,3.4,2.6C673.7,450.9,672.2,452,670.3,452z
			 M670.3,447.8c-1.3,0-2.4,0.7-2.4,1.6c0,0.9,1.1,1.6,2.4,1.6s2.4-0.7,2.4-1.6C672.7,448.5,671.6,447.8,670.3,447.8z"/>
		<path d="M670.7,456.3c-0.2,0-0.3,0-0.3,0l-0.5,0l0-5.4l0.6,0.1c0.1,0,2,0.2,4.9-2.2c2.6-2.2,6.7-2.2,6.9-2.2l0.5,0v5.4l-0.5-0.1
			c-0.1,0-2.6-0.2-4.7,2C675.4,456.2,671.8,456.3,670.7,456.3z M670.9,452.1l0,3.3c1.2,0,4.2-0.3,5.9-2c1.9-1.9,4-2.2,5-2.3v-3.3
			c-1.1,0.1-3.9,0.3-5.8,1.9C673.7,451.6,671.8,452,670.9,452.1z"/>
		<path class="st4" d="M685.2,448.1c0-0.6,0.4-0.9,1.1-0.9c0.7,0,1.1,0.4,1.1,0.9v6.6c0,0.6-0.4,0.9-1.1,0.9c-0.7,0-1.1-0.4-1.1-0.9
			V448.1L685.2,448.1z"/>
		<path class="st4" d="M689.7,448.3c0-0.8,0.5-1.1,1.4-1.1c0.5,0,0.9,0.1,1.1,0.5l4,5.2h0v-4.8c0-0.6,0.4-0.9,1.1-0.9
			c0.7,0,1.1,0.3,1.1,0.9v6.4c0,0.7-0.4,1.1-1.4,1.1c-0.7,0-1-0.1-1.3-0.5l-4-5.1h0v4.7c0,0.6-0.4,0.9-1.1,0.9
			c-0.7,0-1.1-0.3-1.1-0.9V448.3L689.7,448.3z"/>
		<path class="st4" d="M702.9,448.9h-2.2c-0.7,0-1.2-0.3-1.2-0.8c0-0.5,0.5-0.8,1.2-0.8h6.6c0.7,0,1.2,0.3,1.2,0.8
			c0,0.5-0.5,0.8-1.2,0.8h-2.2v5.8c0,0.6-0.4,0.9-1.1,0.9c-0.7,0-1.1-0.4-1.1-0.9V448.9L702.9,448.9z"/>
		<path class="st4" d="M709.4,448.4c0-0.8,0.5-1.1,1.3-1.1h5.4c0.7,0,1.2,0.2,1.2,0.7c0,0.6-0.5,0.7-1.2,0.7h-4.4v1.8h3.9
			c0.6,0,1.1,0.1,1.1,0.7c0,0.6-0.5,0.7-1.1,0.7h-3.9v2h4.6c0.7,0,1.2,0.2,1.2,0.7c0,0.6-0.5,0.7-1.2,0.7h-5.5
			c-0.8,0-1.3-0.3-1.3-1.1V448.4L709.4,448.4z"/>
		<path class="st4" d="M721.5,448.8h2.4c1,0,1.7,0.2,1.7,1.1c0,0.9-0.9,1.1-1.7,1.1h-2.3V448.8L721.5,448.8L721.5,448.8z
			 M719.2,454.7c0,0.6,0.4,0.9,1.1,0.9c0.7,0,1.1-0.4,1.1-0.9v-2.4h2.3c1.3,0,1.6,0.6,1.6,2c0,0.3,0.1,1.3,1.4,1.3
			c0.5,0,1.1-0.3,1.1-0.7c0-0.4-0.3-0.7-0.3-1.7c0-0.8-0.2-1.5-1.4-1.6v0c1.1-0.2,1.7-1.1,1.7-1.9c0-1-0.7-2.3-3.5-2.3h-3.8
			c-0.8,0-1.3,0.3-1.3,1.1V454.7L719.2,454.7z"/>
		<path class="st4" d="M737.5,449.5c-0.9-0.2-1.9-0.4-3-0.4c-0.6,0-1.6,0-1.6,0.5c0,1,5.2,0.1,5.2,3.1c0,2.1-2.6,2.7-4.9,2.7
			c-1.5,0-2.7-0.1-4.1-0.4V453c1,0.3,2.3,0.5,3.4,0.5c0.9,0,1.7-0.1,1.7-0.6c0-1.1-5.2-0.1-5.2-3.2c0-2.2,2.9-2.6,5.1-2.6
			c1.1,0,2.3,0.1,3.3,0.3V449.5L737.5,449.5z"/>
		<path class="st4" d="M741.4,449.4h0.3c0.6,0,1.3,0,1.3,0.7c0,0.7-0.7,0.7-1.3,0.7h-0.4V449.4L741.4,449.4L741.4,449.4z
			 M737.9,455.2h3.5v-2.4h1.9c2,0,3.3-1,3.3-2.7c0-2-1.7-3-4.1-3h-4.6V455.2L737.9,455.2z"/>
		<path class="st4" d="M751.8,449.7c1.2,0,1.9,0.7,1.9,1.6c0,0.9-0.8,1.5-1.9,1.5c-1.1,0-1.9-0.6-1.9-1.5
			C750,450.4,750.7,449.7,751.8,449.7L751.8,449.7L751.8,449.7z M751.8,447c-3,0-5.5,1.6-5.5,4.2c0,2.6,2.5,4.1,5.5,4.1
			c3.1,0,5.5-1.5,5.5-4.1C757.4,448.7,754.9,447,751.8,447L751.8,447z"/>
		<path class="st4" d="M760.8,449.4h0.3c0.6,0,1.2,0.1,1.2,0.7c0,0.6-0.6,0.7-1.2,0.7h-0.3V449.4L760.8,449.4L760.8,449.4z
			 M757.3,455.2h3.6v-2.6h0.1l1.6,2.6h4.2l-2.2-2.6c-0.2-0.2-0.4-0.4-0.6-0.5v-0.1c1.4-0.4,1.9-0.9,1.9-2.1c0-2-1.9-2.8-4.2-2.8
			h-4.4V455.2L757.3,455.2z"/>
		<polygon class="st4" points="765.4,447.2 773.1,447.2 773.1,449.8 771,449.7 771,455.2 767.4,455.2 767.4,449.7 765.4,449.8 
			765.4,447.2 		"/>
		<path class="st4" d="M774.9,448.5c-0.5,0-0.8-0.3-0.8-0.7c0-0.4,0.4-0.7,0.8-0.7c0.5,0,0.8,0.3,0.8,0.7
			C775.8,448.2,775.4,448.5,774.9,448.5L774.9,448.5L774.9,448.5z M774.9,448.7c0.6,0,1.1-0.4,1.1-0.9c0-0.5-0.5-0.9-1.1-0.9
			c-0.6,0-1.1,0.4-1.1,0.9C773.8,448.3,774.3,448.7,774.9,448.7L774.9,448.7L774.9,448.7z M775.2,447.9c0.2,0,0.3-0.1,0.3-0.2
			c0-0.2-0.2-0.3-0.4-0.3h-0.6v0.9h0.3v-0.4h0.2l0.3,0.4h0.3L775.2,447.9L775.2,447.9L775.2,447.9z M774.8,447.8v-0.2h0.2
			c0.1,0,0.3,0,0.3,0.1c0,0.1-0.1,0.1-0.2,0.1H774.8L774.8,447.8z"/>
	</g>
	<g>
		<path d="M688.4,381.7v-1.9h6.6v1.9h-2.4v8h-1.7v-8H688.4z"/>
		<path d="M696,379.7h5.7v1.9h-4v2.1h3.7v1.9h-3.7v2.2h4v1.9H696V379.7z"/>
		<path d="M702.7,384.8c0-2.9,1.9-5.2,4.4-5.2s4.4,2.3,4.4,5.2c0,2.8-1.9,5.1-4.4,5.1C704.6,389.9,702.7,387.6,702.7,384.8z
			 M709.8,384.7c0-1.9-1.2-3.2-2.7-3.2c-1.5,0-2.7,1.4-2.7,3.2c0,1.8,1.2,3.2,2.7,3.2S709.8,386.6,709.8,384.7z"/>
		<path d="M712.9,379.7h3.3c2.6,0,4.1,1.9,4.1,5c0,3-1.5,5-4.2,5h-3.2V379.7z M716.3,387.8c1.5,0,2.3-1.4,2.3-3.1c0-1.7-0.8-3-2.3-3
			h-1.6v6.1H716.3z"/>
		<path d="M721.3,384.8c0-2.9,1.9-5.2,4.4-5.2s4.4,2.3,4.4,5.2c0,2.8-1.9,5.1-4.4,5.1C723.2,389.9,721.3,387.6,721.3,384.8z
			 M728.4,384.7c0-1.9-1.2-3.2-2.7-3.2c-1.5,0-2.7,1.4-2.7,3.2c0,1.8,1.2,3.2,2.7,3.2S728.4,386.6,728.4,384.7z"/>
		<path d="M734.2,386.1h-1v3.6h-1.7v-10h3.2c2,0,2.9,1.5,2.9,3.2c0,1.2-0.5,2.4-1.7,2.9l2.1,3.9h-2L734.2,386.1z M733.2,384.3h1.4
			c1,0,1.3-0.7,1.3-1.4c0-0.7-0.4-1.3-1.2-1.3h-1.5V384.3z"/>
	</g>
	<g>
		<polygon class="st5" points="604.4,11 609,8.5 609,11.6 604.4,14.1 599.9,11.5 599.9,8.5 		"/>
		<polygon class="st5" points="604.4,6.8 609,4.2 609,7.3 604.4,9.9 599.9,7.3 599.9,4.2 		"/>
		<polygon class="st5" points="604.4,2.6 609,0 609,3.1 604.4,5.6 599.9,3.1 599.9,0 		"/>
	</g>
	<path class="st5" d="M325.2,288.7c0-1.2-1-2.2-2.2-2.2h-14.4c-1.2,0-2.2,1-2.2,2.2v14.4c0,1.2,1,2.2,2.2,2.2H323
		c1.2,0,2.2-1,2.2-2.2V288.7z M319.9,289.3c0.6,0,1.1,0.5,1.1,1.1c0,0.6-0.5,1.1-1.1,1.1c-0.6,0-1.1-0.5-1.1-1.1
		C318.8,289.8,319.3,289.3,319.9,289.3z M311.4,289.3c0.6,0,1.1,0.5,1.1,1.1c0,0.6-0.5,1.1-1.1,1.1c-0.6,0-1.1-0.5-1.1-1.1
		C310.3,289.8,310.8,289.3,311.4,289.3z M313.6,292.4l-0.3,3.7c0,0.2-0.2,0.4-0.4,0.5l0,0c-0.2,0.1-0.4,0.3-0.4,0.5l-0.3,4.8
		c0,0.3-0.3,0.6-0.6,0.6h-0.2h-0.2c-0.3,0-0.6-0.3-0.6-0.6l-0.3-4.8c0-0.2-0.2-0.4-0.4-0.5c-0.2-0.1-0.4-0.3-0.4-0.5l-0.3-3.7
		c0-0.3,0.2-0.6,0.5-0.6l0.3-0.1c0.2,0,0.4,0,0.6,0.2l0.4,0.4c0.2,0.2,0.6,0.2,0.9,0l0.4-0.4c0.1-0.1,0.4-0.2,0.6-0.2l0.3,0.1
		C313.4,291.9,313.6,292.1,313.6,292.4z M315.9,302.5c0,0.2-0.1,0.3-0.3,0.3c-0.2,0-0.3-0.1-0.3-0.3v-13.2c0-0.2,0.1-0.3,0.3-0.3
		c0.2,0,0.3,0.1,0.3,0.3V302.5z M322,296.6c-0.2,0.1-0.3,0.3-0.3,0.5l0.1,0.9c0,0.2-0.1,0.4-0.3,0.5l-0.3,0c-0.2,0-0.3,0.2-0.3,0.4
		l-0.2,3c0,0.3-0.3,0.6-0.6,0.6h-0.2h-0.2c-0.3,0-0.6-0.2-0.6-0.6l-0.2-3c0-0.2-0.2-0.4-0.3-0.4l-0.3,0c-0.2,0-0.4-0.2-0.3-0.5
		l0.1-0.9c0-0.2-0.1-0.4-0.3-0.5c-0.2-0.1-0.3-0.3-0.3-0.5l0.8-3.9c0.1-0.3,0.4-0.4,0.6-0.3l0.8,0.5c0.1,0.1,0.3,0.1,0.4,0l0.8-0.5
		c0.2-0.2,0.6,0,0.6,0.3l0.8,3.9C322.4,296.4,322.2,296.6,322,296.6z"/>
	<g>
		<g>
			<path d="M253.3,481.6c0.2,0.4,0.4,0.7,0.8,1c0.4,0.3,0.8,0.4,1.3,0.5c0.5,0,0.9,0,1.4-0.2c0.5-0.2,0.9-0.4,1.2-0.8
				c0.3-0.3,0.5-0.7,0.5-1c0.1-0.4,0-0.8-0.1-1.1c-0.2-0.4-0.4-0.7-0.8-1c-0.4-0.3-0.8-0.4-1.3-0.5c-0.5-0.1-0.9,0-1.3,0.1
				c-0.4,0.1-0.8,0.3-1.1,0.7c-0.4,0.4-0.6,0.8-0.7,1.2C253.2,480.8,253.2,481.2,253.3,481.6z"/>
			<path d="M231.5,460.8c-0.2-0.2-0.4-0.3-0.7-0.5l-0.3-0.2l-1.5,1.6l0.3,0.2c0.2,0.2,0.5,0.3,0.7,0.4c0.2,0.1,0.5,0.2,0.7,0.1
				c0.2,0,0.5-0.2,0.7-0.4c0.3-0.3,0.4-0.5,0.4-0.7C231.7,461.2,231.6,461,231.5,460.8z"/>
			<path d="M249.1,463.2c-11.8-8.1-24-10.8-27.3-6c-3.3,4.8,3.6,15.2,15.3,23.3c11.8,8.1,24,10.8,27.3,6
				C267.7,481.8,260.8,471.3,249.1,463.2z M251.9,477.8c0.6-0.7,1.4-1.1,2.2-1.3c0.9-0.2,1.7-0.3,2.6-0.2c0.9,0.1,1.7,0.4,2.4,0.9
				c0.7,0.5,1.2,1.1,1.6,1.8c0.3,0.7,0.5,1.4,0.4,2.2c-0.1,0.8-0.5,1.5-1.1,2.2c-0.7,0.7-1.4,1.2-2.3,1.5c-0.9,0.3-1.7,0.4-2.6,0.3
				c-0.9-0.1-1.7-0.4-2.5-1c-0.8-0.5-1.3-1.2-1.7-1.9c-0.3-0.7-0.4-1.5-0.2-2.2C250.9,479.3,251.3,478.5,251.9,477.8z M231.1,464.6
				c-0.8,0.1-1.6-0.2-2.4-0.8l-1.1-0.7l-2.1,2.2l-1.9-1.3l6.2-6.5l2.9,2c0.5,0.4,0.9,0.8,1.2,1.2c0.3,0.4,0.3,0.9,0.3,1.3
				c-0.1,0.5-0.4,1-0.8,1.5C232.7,464.2,231.9,464.6,231.1,464.6z M239,467.9l-1.4,1.4l-3.3-2.2l-1.1,1.1l3.4,2.3l-1.4,1.4l-5.3-3.6
				l6.2-6.5l5.3,3.6l-1.4,1.4l-3.4-2.3l-1,1.1L239,467.9z M246,472.1c-0.7,0.8-1.5,1.2-2.3,1.2c-0.8,0.1-1.6-0.2-2.4-0.8l-1.1-0.7
				l-2.1,2.2l-1.9-1.3l6.2-6.5l2.9,2c0.5,0.4,0.9,0.8,1.2,1.2c0.3,0.4,0.3,0.9,0.3,1.3C246.8,471.1,246.5,471.6,246,472.1z
				 M245.5,473.6c0.4-0.4,0.9-0.8,1.5-1.1c0.6-0.3,1.2-0.5,1.8-0.5c0.7-0.1,1.4,0,2,0.1c0.7,0.2,1.3,0.4,1.8,0.8
				c0.6,0.4,1.1,0.9,1.4,1.5l-1.9,2c0-0.4-0.1-0.7-0.2-1c-0.2-0.3-0.4-0.6-0.8-0.8c-0.4-0.3-0.8-0.4-1.3-0.5c-0.4,0-0.9,0-1.3,0.2
				c-0.4,0.2-0.8,0.4-1.1,0.8c-0.5,0.5-0.7,1.1-0.7,1.6c0,0.6,0.4,1.1,1,1.5c0.3,0.2,0.7,0.4,1.1,0.4c0.4,0.1,0.8,0.1,1.2,0l-1.9,2
				c-0.4-0.1-0.7-0.2-1.1-0.4c-0.3-0.1-0.6-0.3-0.9-0.5c-0.5-0.4-0.9-0.8-1.2-1.3c-0.3-0.5-0.5-1-0.6-1.6c-0.1-0.6,0-1.2,0.2-1.7
				C244.7,474.6,245.1,474.1,245.5,473.6z M243.5,483.7c-4.7-2.5-4.2-2.3,0.1-0.3c8.4,4,16.4,4.9,19,1.1c0.8-1.2,1.2-2.8,0.8-4.6
				c0.4,0.9,0.8,2,0.8,2.9c0.1,1.1-0.3,2.2-0.8,3C260.8,489.6,252.1,488.2,243.5,483.7z"/>
			<path d="M244.1,469.5c-0.2-0.2-0.4-0.3-0.7-0.5l-0.3-0.2l-1.5,1.6l0.3,0.2c0.2,0.2,0.5,0.3,0.7,0.4c0.2,0.1,0.5,0.2,0.7,0.1
				c0.2,0,0.5-0.2,0.7-0.4c0.3-0.3,0.4-0.5,0.4-0.7C244.4,469.9,244.3,469.7,244.1,469.5z"/>
		</g>
		<path d="M238.3,455.8c28.6,11.9,33.1,27.5,28.1,32.1c-0.1,0.1-0.1,0.1-0.2,0.2c7.5-3,11.6-14.8-9.1-25.9
			C252.6,459.9,245.3,457.4,238.3,455.8"/>
		<path d="M247.9,488c-28.6-11.9-33.1-27.5-28.1-32.1c0.1-0.1,0.1-0.1,0.2-0.2c-7.5,3-11.6,14.8,9.1,25.9
			C233.6,483.9,240.9,486.4,247.9,488"/>
	</g>
	<g>
		<path d="M242.7,71.2c0-0.6,0-1.1,0-1.7c0-0.3,0.1-0.4,0.4-0.5c2.9-0.9,5.8-1.6,8.8-1.8c2.7-0.2,5.4,0.3,8,1c1,0.2,1.9,0.5,2.8,0.8
			c0.1,0,0.4,0.2,0.4,0.4c0,1.3,0.1,2.6,0,3.9c-0.2,1.8-1.1,3.3-2.3,4.5c-2.1,2.2-4.7,3.7-7.5,4.8c-0.1,0.1-0.4,0.1-0.5,0
			c-2.8-1.1-5.3-2.5-7.4-4.7c-1.3-1.3-2.2-2.8-2.4-4.7C242.6,72.5,242.7,71.2,242.7,71.2z M245.6,76.2c0,0.1,0,0.1,0,0.2
			c0.7,0.2,1.4,0.5,2.1,0.7c2,0.5,3.9,0.7,5.9,0.1c1.6-0.5,1.9-1.9,0.8-3.1c-1-1-2.2-1.7-3.5-2.2c-0.5-0.2-1-0.4-1.5-0.6
			c0.8-1.2,2.2-1.3,3.3-1.8c-1.9,0-3.8,0.2-5.5,0.9c-0.4,0.2-0.8,0.4-1.2,0.7c-0.4,0.4-0.4,1,0.1,1.3c1.2,0.9,2.6,0.9,3.9,1.2
			c0-0.1,0-0.1,0.1-0.2c-0.6-0.6-1.2-1.3-1.7-1.8c0.8,0.3,2.2,1.7,2.4,2.5c0.2,0.8-0.1,1.5-0.9,1.8c-0.4,0.2-0.9,0.3-1.4,0.3
			C247.4,76.2,246.5,76.2,245.6,76.2z M256.4,70.3c2,1.9,2.4,3.5,1.3,4.3c-0.2-0.6-0.3-1.2-0.6-1.8c-0.4-0.7-1-1.2-1.6-1.8
			c-0.6-0.6-1.3-0.8-2.1-0.7c-0.7,0.1-1.4,0.3-2,0.4c-0.1,0-0.2,0.1-0.4,0.2c0.2,0.1,0.4,0.1,0.5,0.1c1.3,0.4,2.5,0.9,3.5,1.9
			c1.4,1.3,1.4,2.8,0.1,4.1c-0.2,0.2-0.5,0.4-0.7,0.7c1.5-0.3,3-0.7,4.2-1.5c0.6-0.4,1.2-0.9,1.7-1.4c0.3-0.4,0.5-0.9,0.5-1.4
			C260.7,71.7,258.4,69.9,256.4,70.3z"/>
		<path d="M242.7,77.5c2.1,4.3,5.8,6.6,9.8,8.5c0.2,0.1,0.5,0.1,0.6,0c2.6-1.2,5-2.6,7.1-4.6c1.1-1.1,2.1-2.3,2.7-3.9
			c0.4,3.2-0.7,5.7-3,7.7c-2,1.8-4.3,3.1-6.8,4.1c-0.2,0.1-0.4,0.1-0.6,0c-2.6-1-5-2.4-7-4.3C243.2,82.9,242.6,81.2,242.7,77.5z"/>
		<path d="M229.3,80c-0.6,0-1.2,0-1.7,0c-0.1,0-0.3-0.2-0.4-0.3c-0.4-0.5-0.8-1.1-1.2-1.6c-0.1-0.1-0.3-0.3-0.4-0.3
			c-0.8,0-1.7,0-2.6,0V80h-1.6c0-2,0-4.1,0-6.2c0,0,0.1-0.1,0.1-0.1c1.8,0,3.6,0,5.4,0c1.1,0,1.8,0.7,2,1.6c0.2,1.1-0.2,1.8-1.2,2.3
			c0,0,0,0.1-0.1,0.1C228.1,78.5,228.7,79.2,229.3,80z M223,75.2v1.2c1.2,0,2.4,0,3.6,0c0.4,0,0.7-0.2,0.7-0.6
			c0-0.4-0.2-0.6-0.6-0.6C225.5,75.2,224.3,75.2,223,75.2z"/>
		<path d="M194.6,78.8c0.2-0.3,0.4-0.5,0.6-0.8c0.1-0.1,0.2-0.1,0.3,0c1.2,0.7,2.5,0.9,3.8,0.8c0,0,0,0,0,0c2.4-0.3,2.4-1,0-1.2
			c-0.1,0-0.2,0-0.3,0c-0.9-0.1-1.7-0.1-2.6-0.2c-0.2,0-0.5-0.1-0.7-0.2c-1.2-0.5-1.4-1.9-0.4-2.6c0.6-0.4,1.3-0.6,2-0.7
			c1.4-0.2,2.8-0.1,4.1,0.6c0.1,0.1,0.2,0.1,0.4,0.2c0.1,0.1,0.1,0.2,0,0.3c-0.3,0.2-0.5,0.4-0.7,0.6c-0.1,0.1-0.3,0.1-0.5,0
			c-1.1-0.5-2.3-0.6-3.5-0.4c-0.2,0-0.5,0.1-0.6,0.3c-0.1,0.2,0.2,0.4,0.4,0.4c0.8,0.1,1.6,0.1,2.4,0.2c0.6,0.1,1.2,0.2,1.8,0.4
			c1.3,0.5,1.5,2.2,0.4,3c-0.4,0.3-1,0.5-1.5,0.6c-1.8,0.3-3.6,0.2-5.2-0.8c-0.1,0-0.1-0.1-0.2-0.1C194.6,79,194.5,78.9,194.6,78.8z
			"/>
		<path d="M279.4,79c0.3-0.4,0.6-0.7,0.9-1.1c1.2,0.8,2.5,1,3.9,0.9c0.3,0,0.6-0.1,0.8-0.2c0.2-0.1,0.4-0.3,0.4-0.5
			c0-0.2-0.3-0.4-0.5-0.4c-0.4-0.1-0.8-0.1-1.2-0.2c-0.8-0.1-1.6-0.1-2.3-0.2c-0.3,0-0.5-0.1-0.7-0.2c-1.1-0.5-1.3-2-0.3-2.7
			c0.5-0.4,1.2-0.6,1.9-0.7c1.4-0.2,2.7-0.1,4,0.5c0.2,0.1,0.4,0.2,0.6,0.4c-0.1,0.1-0.1,0.1-0.1,0.2c-0.5,0.6-0.9,0.9-1.8,0.5
			c-0.9-0.4-2-0.4-3-0.2c-0.1,0-0.2,0.1-0.3,0.2c-0.2,0.1-0.2,0.4,0,0.5c0.1,0.1,0.2,0.1,0.3,0.1c1,0.1,2,0.2,3,0.3
			c0.4,0,0.7,0.2,1.1,0.3c1.2,0.5,1.4,2,0.4,2.9c-0.3,0.3-0.7,0.5-1.1,0.6c-1.8,0.4-3.5,0.4-5.2-0.4C280,79.4,279.7,79.2,279.4,79z"
			/>
		<path d="M301.2,80v-6.2c0.7,0,1.3,0,2,0c0.1,0,0.3,0.2,0.4,0.3c1.2,1.4,2.3,2.7,3.6,4.2v-4.5h1.6V80c-0.7,0-1.3,0-1.9,0
			c-0.1,0-0.3-0.2-0.4-0.3c-1.1-1.2-2.1-2.5-3.2-3.7c-0.1-0.1-0.2-0.3-0.4-0.5V80H301.2z"/>
		<path d="M215.8,73.6c1.1,0,2,0.2,2.9,0.8c1.6,1.1,1.8,3.4,0.4,4.7c-1.7,1.5-4.8,1.5-6.5,0c-1.5-1.3-1.3-3.6,0.3-4.7
			C213.7,73.8,214.7,73.6,215.8,73.6z M215.7,78.8c0.7,0,1.4-0.2,1.9-0.5c1-0.7,1-2.1,0-2.8c-1-0.7-2.8-0.7-3.8,0
			c-1,0.7-1,2.1,0.1,2.8C214.5,78.7,215.1,78.8,215.7,78.8z"/>
		<path d="M295.4,80.2c-0.9,0-1.9-0.2-2.8-0.9c-1.5-1.1-1.7-3.4-0.3-4.7c1.8-1.6,5.3-1.5,6.9,0.4c1.1,1.3,0.8,3.2-0.5,4.3
			C297.8,79.9,296.8,80.2,295.4,80.2z M294.8,78.7c0.5,0.1,1.1,0.1,1.6,0c0.4-0.1,0.7-0.2,1-0.4c1.1-0.6,1.1-2,0.1-2.8
			c-1-0.7-2.8-0.7-3.8,0c-1,0.8-1,2.2,0.1,2.8C294.1,78.5,294.4,78.6,294.8,78.7z"/>
		<path d="M205,77.9V80h-1.6v-6.3l0.4,0c1.6,0,3.1,0,4.7,0c0.5,0,1.1,0.2,1.5,0.4c0.8,0.4,1,1.1,0.9,2c-0.1,0.9-0.6,1.4-1.5,1.6
			c-0.5,0.1-1.1,0.1-1.6,0.1C206.9,77.9,206,77.9,205,77.9z M205,76.5c1.2,0,2.4,0,3.5,0c0.4,0,0.8-0.1,0.8-0.6
			c0-0.5-0.4-0.6-0.8-0.6c-1,0-2.1,0-3.1,0l-0.4,0V76.5z"/>
		<path d="M267.3,73.8c0.6,0,1.1,0,1.5,0c0.2,0,0.4,0.2,0.5,0.4c0.7,1.3,1.5,2.5,2.2,3.8c0.1,0.1,0.2,0.3,0.3,0.5
			c0.8-1.4,1.6-2.8,2.3-4.1c0.2-0.4,0.4-0.5,0.9-0.5c0.4,0,0.7,0,1.2,0c-0.2,0.4-0.3,0.5-0.5,0.9c-1,1.5-2,3.4-2.7,4.6
			c-0.3,0.6-0.5,0.8-1,0.8c-0.8,0.1-1.3-0.2-1.7-1C269.4,77.3,268.3,75.6,267.3,73.8z"/>
		<polygon points="232.6,75.2 229.7,75.2 229.7,73.8 237.1,73.8 237.1,75.2 234.2,75.2 234.2,80 232.6,80 		"/>
		<rect x="276.8" y="73.8" width="1.6" height="6.2"/>
		<rect x="288.4" y="73.8" width="1.6" height="6.2"/>
	</g>
	<g>
		<path class="st4" d="M512.7,623.5c0.6-1.4,1.2-2.8,1.8-4.2c1.2,0.5,2.4,1,3.6,1.5c0.1,0,0.1,0.1,0.1,0.1c-0.1,0.3-0.3,0.8-0.5,1.1
			c0,0.1-0.1,0.1-0.1,0.1c-0.9-0.4-1.9-0.8-2.8-1.2c-0.2-0.1-0.2-0.1-0.3,0.1c-0.1,0.3-0.2,0.5-0.3,0.8c-0.1,0.2-0.1,0.2,0.1,0.3
			c1.4,0.6,2.9,1.2,4.3,1.8c0.2,0.1,0.2,0.1,0.3-0.1c0.3-0.8,0.7-1.6,1-2.4c0.3-0.6,0.5-1.1-0.5-1.5c-1.6-0.7-3.4-1.4-5.1-2.1
			c-0.1-0.1-0.2,0.1-0.2,0.1s0.1-0.2-0.1-0.2c-2.2-0.9-4.5-1.9-6.7-2.8c-0.9-0.4-1-0.2-1.4,0.8c-0.6,1.5-1.3,3-1.9,4.5
			c-0.3-0.1-0.5-0.2-0.8-0.3c-0.2-0.1-0.2-0.1-0.1-0.3c0.7-1.7,1.5-3.5,2.2-5.3c0.1-0.2,0.1-0.2-0.1-0.3c-0.4-0.2-0.9-0.4-1.3-0.5
			c-0.2-0.1-0.2-0.1-0.3,0.1c-0.8,1.8-1.5,3.6-2.3,5.4c-0.9-0.4-1.9-0.8-2.8-1.2c0.6-1.5,1.2-2.9,1.8-4.4c0.6,0.3,1.3,0.5,1.9,0.8
			c0.1,0,0.2,0.1,0.3-0.1c0.1-0.2,0.2-0.6,0.3-0.8c0.1-0.2,0-0.2-0.1-0.3c-0.6-0.3-1.3-0.5-1.9-0.8c0.5-1.1,0.9-2.2,1.4-3.4
			c0.1-0.2,0-0.3-0.1-0.4c-0.5-0.2-0.7-0.3-1.2-0.5c-0.2-0.1-0.3,0-0.3,0.2c-0.5,1.1-0.9,2.2-1.4,3.3c0,0.1,0,0.1-0.1,0.1
			c-0.2-0.1-0.4-0.2-0.6-0.3c-0.2-0.1-0.2,0-0.3,0.1c-0.1,0.3-0.2,0.5-0.3,0.8c-0.1,0.2,0,0.2,0.1,0.3c0.2,0.1,0.4,0.2,0.6,0.3
			c0.1,0.1,0.1,0.1,0.1,0.1c-0.6,1.4-1.2,2.8-1.8,4.2c0,0.1,0,0.1-0.1,0.1c-1.1-0.5-2.2-0.9-3.3-1.4c-0.1,0-0.1,0-0.1-0.1
			c0.6-1.4,1.2-2.9,1.8-4.3c0.6,0.3,1.3,0.5,1.9,0.8c0.2,0.1,0.2,0.1,0.3-0.1c0.1-0.3,0.2-0.5,0.3-0.8c0.1-0.2,0.1-0.2-0.1-0.3
			c-0.7-0.3-1.2-0.5-1.9-0.8c0.5-1.1,0.9-2.2,1.4-3.4c0.1-0.1,0.1-0.3-0.1-0.4c-0.4-0.2-0.9-0.4-1.3-0.5c-0.2-0.1-0.2,0-0.3,0.2
			c-0.5,1.1-0.9,2.2-1.4,3.4c-2.5-1-5-2.1-7.5-3.1c-1.1-0.5-1.3,0.4-1.5,0.9c-0.5,1.2-1,2.3-1.5,3.5c-0.1,0.2-0.1,0.3,0.1,0.4
			c0.5,0.2,0.8,0.3,1.3,0.5c0.2,0.1,0.2,0,0.3-0.2c0.5-1.2,1-2.3,1.5-3.5c0-0.1,0.1-0.1,0.1-0.1c2.2,0.9,4.5,1.9,6.7,2.8
			c-0.6,1.5-1.3,3-1.9,4.6c-0.4,0.9,0,1.2,0.4,1.3c5.8,2.4,11.5,4.9,17.3,7.3c0.1,0.1,0.2,0.1,0.3-0.1c0.1-0.3,0.2-0.5,0.3-0.7
			c0-0.1,0.1-0.2-0.1-0.3c-1.4-0.6-2.7-1.1-4.2-1.7c-0.1,0-0.1,0-0.1-0.1c0.6-1.5,1.2-2.9,1.8-4.4c1.8,0.8,3.6,1.5,5.5,2.3
			c-0.6,1.5-1.3,3-1.9,4.6c-0.2,0.6-0.4,1,0.8,1.5c4.5,1.9,9,3.8,13.5,5.7c0.3,0.1,0.3,0.1,0.4-0.1c0.9-2.2,1.8-4.2,2.7-6.4
			c0.1-0.1,0-0.2-0.1-0.3c-0.4-0.2-0.8-0.4-1.3-0.5c-0.1-0.1-0.2,0-0.3,0.1c-0.8,1.8-1.5,3.6-2.3,5.5c-0.3-0.1-0.6-0.3-0.9-0.4
			c-0.2-0.1-0.2-0.1-0.1-0.3c1.2-2.9,2.5-5.9,3.7-8.8c0.1-0.2,0.1-0.3-0.1-0.4c-0.5-0.2-0.9-0.4-1.3-0.6c-0.1,0-0.2,0-0.3,0.2
			c-1.3,3-2.5,6-3.8,8.9c0,0.1,0,0.1-0.1,0.1c-0.2-0.1-0.5-0.2-0.7-0.3c-0.3-0.1-0.3-0.1-0.2-0.4c1.2-2.9,2.5-5.9,3.7-8.8
			c0.1-0.2,0.1-0.2,0-0.2c-0.5-0.2-0.9-0.4-1.4-0.6c-0.1,0-0.1,0-0.2,0.2c-1.3,3-2.6,6.1-3.8,9.1c-1.9-0.8-4-1.7-5.9-2.5
			C512.5,623.8,512.6,623.8,512.7,623.5L512.7,623.5z M464,592.7c-0.5,1.1-0.9,2.2-1.4,3.3c0,0.1,0,0.1-0.1,0.1
			c-2.2-0.9-4.5-1.9-6.7-2.8c-1-0.4-1.4,0.5-1.4,0.5c-0.6,1.3-1.1,2.7-1.7,4c0,0.1,0,0.1,0.1,0.1c0.5,0.2,0.9,0.4,1.4,0.6
			c0.1,0,0.1,0,0.1-0.1c0.5-1.2,1-2.4,1.5-3.6c0-0.1,0.1-0.1,0.1-0.1c2.1,0.9,4.1,1.7,6.2,2.6c-0.8,1.8-1.5,3.6-2.3,5.4
			c-0.1,0.2,0,0.2,0.1,0.3c2.8,1.2,5.5,2.3,8.3,3.5c0.2,0.1,1,0.5,1.4-0.6c0.5-1.1,1.1-2.7,1.6-3.8c0-0.1,0.1-0.2-0.1-0.3
			c-0.4-0.2-0.9-0.4-1.3-0.5c-0.2-0.1-0.2,0-0.3,0.1c-0.5,1.2-1,2.4-1.5,3.6c0,0.1-0.1,0.1-0.1,0.1c-2-0.8-4-1.7-6-2.5
			c-0.1,0-0.1,0-0.1-0.1c1.2-2.9,2.5-5.9,3.7-8.8c0.1-0.2,0.1-0.3-0.1-0.4c-0.5-0.2-0.8-0.4-1.3-0.5
			C464.1,592.5,464.1,592.5,464,592.7L464,592.7z M480.2,603.8c-0.1,0.3-0.2,0.5-0.3,0.8c0,0.1,0,0.2,0.1,0.3c0.8,0.3,1.6,0.7,2.4,1
			c-0.6,1.5-1.2,2.9-1.8,4.4c0,0.1,0,0.1-0.1,0.1c-2.2-0.9-4.5-1.9-6.7-2.8c-0.1,0-0.1,0-0.1,0.1c-0.1,0.3-0.2,0.5-0.3,0.8
			c-0.1,0.2,0,0.2,0.1,0.3c2.5,1,4.9,2.1,7.4,3.1c0.2,0.1,0.3-0.2,0.3-0.2c0,0-0.1,0.3,0.1,0.4c2.4,1,4.9,2,7.3,3.1
			c1.2,0.5,1.4-0.1,1.6-0.5c0.5-1.3,1.1-2.6,1.6-3.8c0-0.1,0.1-0.2-0.1-0.3c-0.4-0.2-0.9-0.4-1.3-0.5c-0.1-0.1-0.2,0-0.3,0.1
			c-0.5,1.2-1,2.4-1.5,3.6c0,0.1,0,0.1-0.1,0.1c-2-0.9-4.1-1.7-6.1-2.6c0.6-1.5,1.3-3,1.9-4.5c0.2-0.4,0.3-1.2-0.5-1.5
			c-1-0.4-2.1-0.9-3.1-1.3C480.4,603.6,480.3,603.7,480.2,603.8L480.2,603.8z M447.1,589.7c-0.1,0.3-0.3,0.7-0.4,1
			c0,0.1,0,0.1,0.1,0.1l4.7,2c0,0,0,0,0,0.1l-2.2,5.2c-0.1,0.2,0,0.4,0.1,0.5c2.8,1.2,5.4,2.3,8.2,3.4c0.2,0.1,0.9,0.5,1.3-0.4
			c0.6-1.4,1.2-2.7,1.7-4.1c0-0.1,0-0.1-0.1-0.2c-0.4-0.2-0.8-0.3-1.2-0.5c-0.2-0.1-0.2-0.1-0.3,0.1c-0.5,1.2-1,2.4-1.5,3.6
			c0,0.1,0,0.1-0.1,0.1c-2-0.9-4.1-1.7-6.1-2.6c-0.1,0-0.1,0-0.1-0.1l1.9-4.5c0.3-0.6,0.4-1-0.5-1.4c-1.8-0.8-3.6-1.5-5.5-2.3
			C447.1,589.6,447.1,589.6,447.1,589.7L447.1,589.7z M439,586.4c-0.1,0.3-0.2,0.5-0.3,0.8c-0.1,0.2,0.1,0.2,0.2,0.3
			c1.6,0.7,3.1,1.3,4.7,2c0.1,0.1,0.1,0,0.1,0.2l-1.8,4.2c0,0.1,0,0.1-0.1,0.1c-0.9-0.4-1.8-0.7-2.6-1.1c-0.1,0-0.1,0-0.1,0.1
			c-0.1,0.3-0.2,0.5-0.3,0.8c-0.1,0.2,0,0.2,0.1,0.3c1.1,0.5,2.2,0.9,3.3,1.4c0.2,0.1,0.3-0.2,0.3-0.1c0,0-0.1,0.2,0.1,0.3
			c1,0.4,1.9,0.8,2.9,1.2c0.3,0.1,0.4,0.1,0.5-0.2c0.4-0.9,0.7-1.8,1.1-2.6c0-0.1,0.1-0.1,0.1-0.1c0.7,0.3,1.4,0.6,2.1,0.9
			c0.2,0.1,0.2,0.1,0.2,0c0.1-0.3,0.3-0.7,0.4-1c0-0.1,0-0.1-0.1-0.2c-0.9-0.4-1.9-0.8-2.8-1.2c-1-0.4-1.4,0.5-1.4,0.5
			c-0.3,0.7-0.6,1.4-0.9,2.1c0,0,0,0.1-0.1,0c-0.3-0.1-0.6-0.2-0.9-0.4c-0.1,0-0.1-0.1-0.1-0.1l1.6-3.9c0.4-0.9,0.7-1.5-0.3-1.9
			c-1.9-0.8-3.8-1.6-5.7-2.4C439.2,586.3,439.1,586.3,439,586.4L439,586.4z M464.7,598.3c-0.5,1.2-1,2.5-1.6,3.7
			c-0.1,0.2,0,0.2,0.1,0.3c0.4,0.2,0.9,0.4,1.3,0.5c0.2,0.1,0.2,0,0.3-0.1c0.5-1.2,1-2.4,1.5-3.6c2.4,1,4.7,2,7.1,3
			c0.2,0.1,0.2,0.1,0.3-0.1c0.1-0.3,0.2-0.5,0.3-0.8c0.1-0.1,0.1-0.2-0.1-0.3c-2.6-1.1-5.1-2.2-7.7-3.3
			C465.5,597.4,465.2,597.2,464.7,598.3L464.7,598.3z M479.2,599.1c-1.1,2.6-2.2,5.3-3.3,7.9c0,0.1-0.1,0.1,0.1,0.1
			c0.5,0.2,1,0.4,1.5,0.6c0.1,0,0.1,0,0.1-0.1c1.1-2.6,2.2-5.3,3.3-7.9c0.1-0.2,0.1-0.3-0.1-0.4c-0.4-0.2-0.8-0.3-1.2-0.5
			C479.4,598.9,479.3,598.9,479.2,599.1L479.2,599.1z M438,588.8c-0.9,2.2-1.8,4.3-2.7,6.5c-0.1,0.2,0,0.2,0.1,0.3
			c0.5,0.2,0.9,0.4,1.4,0.6c0.2,0.1,0.2,0,0.3-0.2c0.9-2.1,1.8-4.3,2.7-6.4c0-0.1,0.1-0.2-0.1-0.3c-0.4-0.2-1-0.4-1.4-0.6
			C438.2,588.6,438.1,588.7,438,588.8L438,588.8z M504.6,611.6l1.2,0.5c0.1,0.1,0.3,0,0.3-0.1l0.6-1.3c0.1-0.1,0-0.3-0.1-0.3
			l-1.2-0.5c-0.1-0.1-0.3,0-0.3,0.1l-0.6,1.3C504.4,611.4,504.4,611.5,504.6,611.6L504.6,611.6z M527.6,621.3l1.2,0.5
			c0.1,0.1,0.3,0,0.3-0.1l0.6-1.3c0.1-0.1,0-0.3-0.1-0.3l-1.2-0.5c-0.1-0.1-0.3,0-0.3,0.1l-0.6,1.3
			C527.5,621.1,527.5,621.2,527.6,621.3L527.6,621.3z"/>
	</g>
</g>
<polygon id="Galleria_Stara_Zagora2.002" class="st2" points="333.9,32.1 182.6,32.1 140,111.2 192.4,137.5 195.2,132 223,147 
	234.8,124.8 333.9,124.8 "/>
<polygon id="Galleria_Stara_Zagora2.004" class="st2" points="335.8,32.1 335.8,125.1 390.8,125.1 390.8,81 375.4,81 375.4,32.1 "/>
<rect id="Galleria_Stara_Zagora2.006" x="408.4" y="83.6" class="st2" width="79.4" height="37.7"/>
<rect id="Galleria_Stara_Zagora2.009" x="489.6" y="32.1" class="st2" width="45.5" height="89.2"/>
<rect id="Galleria_Stara_Zagora2.010" x="536.6" y="32.1" class="st2" width="38" height="89.2"/>
<polygon id="Galleria_Stara_Zagora2.011" class="st2" points="637.7,32.1 707.2,32.1 707.2,75.5 658.8,75.5 658.8,81.9 637.7,81.9 
	"/>
<polygon id="Galleria_Stara_Zagora2.012" class="st2" points="637.7,83.5 637.7,130 737.7,130 737.7,98.8 707.2,98.8 707.2,77.4 
	660.5,77.4 660.5,83.6 "/>
<polygon id="Galleria_Stara_Zagora2.014" class="st2" points="637.4,131.7 636.8,212.2 737.7,212.2 737.7,131.7 "/>
<polygon id="Galleria_Stara_Zagora2.016" class="st2" points="638.2,225.4 638.2,354.7 801,354.7 801,296.8 768.8,296.8 
	768.8,284.5 755.2,284.5 755.2,257 691.7,257 691.7,225.4 "/>
<rect id="Galleria_Stara_Zagora2.017" x="638.2" y="356.9" class="st2" width="162.8" height="50"/>
<polygon id="Galleria_Stara_Zagora2.018" class="st2" points="638.2,409 638.2,489 780.3,489 780.3,505 812.3,505 812.3,409 "/>
<path id="Galleria_Stara_Zagora2.020" class="st2" d="M636.9,506.4v37.3l-90.9,32.5v107.2c109.5,46.3,257.8,92.5,266.5,95.2V569.7
	h-49.6v-63.2H636.9z"/>
<path id="Galleria_Stara_Zagora2.024" class="st2" d="M544.2,576.9l-9.6,3.5l-89.9-44.5l-40,81.2c38,21,139.5,65.8,139.5,65.8
	S544.2,577.8,544.2,576.9z"/>
<polygon id="Galleria_Stara_Zagora2.026" class="st2" points="443.4,535.5 405.6,516.5 389,547.4 426.9,567.5 "/>
<path id="Galleria_Stara_Zagora2.028" class="st2" d="M392.8,507.4l-43-22.6l-16.3,31.6c0,0,37.8,23,42.1,23.7L392.8,507.4z"/>
<path id="Galleria_Stara_Zagora2.034" class="st2" d="M348.5,484.2l-16.9,32.5l27.7,16.3l-23.4,46.3
	c-86.4-49.8-174.2-108.9-187.2-123.1l46.5-67.8C265.2,438.3,340.7,480.3,348.5,484.2z"/>
<path id="Galleria_Stara_Zagora2.038" class="st2" d="M194,387.6l-47.1,67.8c0,0-52.2-38.9-58.4-46l47.2-63.8L194,387.6z"/>
<polygon id="Galleria_Stara_Zagora2.040" class="st2" points="103.3,179.6 32.3,313.1 100,363.5 127.1,330.5 188,210.8 162.8,196.9 
	156.7,208.5 "/>
<polygon id="Galleria_Stara_Zagora2.044" class="st2" points="195.7,134.7 169.2,184.8 196.3,198.7 223,149 "/>
<rect id="Galleria_Stara_Zagora2.054" x="527.3" y="194.3" class="st2" width="35.7" height="61.6"/>
<rect id="Galleria_Stara_Zagora2.052" x="490" y="194.3" class="st2" width="35.6" height="66.7"/>
<polygon id="Galleria_Stara_Zagora2.056" class="st2" points="562.9,257.4 527.3,257.4 527.3,262.4 490,262.4 490,326.8 
	562.9,326.8 "/>
<rect id="Galleria_Stara_Zagora2.058" x="490" y="328.5" class="st2" width="73" height="32.2"/>
<polygon id="Galleria_Stara_Zagora2.060" class="st2" points="562.9,362.3 441.7,362.3 441.7,389.1 491.9,389.1 491.9,409 
	562.9,409 "/>
<polygon id="Galleria_Stara_Zagora2.063" class="st2" points="562.9,410.7 562.9,493.8 541.2,501.8 492,476.1 492,410.7 "/>
<polygon id="Galleria_Stara_Zagora2.065" class="st2" points="441.7,390.9 490.3,390.9 490.3,475.3 441.7,448.9 "/>
<polygon id="Galleria_Stara_Zagora2.066" class="st2" points="440,410.7 440,447.9 389.2,419.4 392.1,414.9 392.1,410.7 "/>
<polygon id="Galleria_Stara_Zagora2.070" class="st2" points="390.3,361.4 390.3,414.1 387.9,418.1 344.1,392.7 344.1,361.4 "/>
<polygon id="Galleria_Stara_Zagora2.050" class="st2" points="488.3,194.3 488.3,360.5 440,360.5 440,409 392.1,409 392.1,359.5 
	344.1,359.5 344.1,194.3 "/>
<rect id="Galleria_Stara_Zagora2.048" x="301.5" y="194.3" class="st2" width="40.9" height="60.6"/>
<polygon id="Galleria_Stara_Zagora2.076" class="st2" points="299.9,194.3 299.9,254.8 291,254.8 291,225.9 262.4,225.9 
	256.7,223.7 272.2,194.3 "/>
<polygon id="Galleria_Stara_Zagora2.075" class="st2" points="289,227.6 262.1,227.6 256.1,225.1 226,283.8 289,283.8 "/>
<polygon id="Galleria_Stara_Zagora2.074" class="st2" points="215.1,312.2 256,312.2 256,323.1 246.6,332.6 "/>
<polygon id="Galleria_Stara_Zagora2.072" class="st2" points="257.1,324.1 292.3,324.1 292.3,361.3 247.9,333.2 "/>
<polygon id="Galleria_Stara_Zagora2.071" class="st2" points="293.6,332.5 342.7,332.5 342.7,392.1 293.6,362.3 "/>
</svg>
