<?xml version="1.0" encoding="UTF-8"?><svg id="Layer_4" xmlns="http://www.w3.org/2000/svg" viewBox="0 0 789.58 524.26"><defs><style>.cls-1{letter-spacing:-.03em;}.cls-2{letter-spacing:-.02em;}.cls-3{font-size:9.68px;}.cls-3,.cls-4,.cls-5,.cls-6,.cls-7,.cls-8,.cls-9,.cls-10,.cls-11,.cls-12,.cls-13,.cls-14,.cls-15,.cls-16,.cls-17,.cls-18,.cls-19{fill:#1d1d1b;}.cls-3,.cls-4,.cls-5,.cls-6,.cls-7,.cls-8,.cls-9,.cls-10,.cls-11,.cls-12,.cls-13,.cls-15,.cls-16,.cls-17,.cls-19{font-family:Axiforma-Bold, Axiforma;font-weight:700;}.cls-4{font-size:10.45px;}.cls-20{fill:#ed7013;}.cls-5{font-size:6.76px;}.cls-21{fill:#f6f6f6;}.cls-22{letter-spacing:-.03em;}.cls-23{letter-spacing:-.01em;}.cls-24{fill:#fff;}.cls-24,.cls-14{fill-rule:evenodd;}.cls-6{font-size:7.74px;}.cls-7{font-size:31.95px;}.cls-25{letter-spacing:-.03em;}.cls-26{letter-spacing:-.03em;}.cls-27{letter-spacing:0em;}.cls-8{font-size:4.44px;}.cls-9{font-size:9px;}.cls-10{font-size:13.21px;}.cls-28{letter-spacing:-.03em;}.cls-29{letter-spacing:0em;}.cls-11{font-size:6.21px;}.cls-12{font-size:24.02px;}.cls-30,.cls-31,.cls-32{fill:none;stroke-miterlimit:10;}.cls-30,.cls-32{stroke:#1d1d1b;}.cls-13{font-size:3.36px;}.cls-33{letter-spacing:-.02em;}.cls-34{letter-spacing:0em;}.cls-35{letter-spacing:0em;}.cls-36{letter-spacing:-.01em;}.cls-31{stroke:#12100b;}.cls-32{stroke-width:2px;}.cls-37{letter-spacing:-.03em;}.cls-15{font-size:4.64px;}.cls-16{font-size:12.95px;}.cls-38{letter-spacing:-.02em;}.cls-39{letter-spacing:-.02em;}.cls-40{letter-spacing:0em;}.cls-41{letter-spacing:0em;}.cls-42{letter-spacing:0em;}.cls-43{letter-spacing:-.07em;}.cls-44{letter-spacing:-.03em;}.cls-45{letter-spacing:0em;}.cls-46{letter-spacing:-.05em;}.cls-17{font-size:9.24px;}.cls-47{letter-spacing:-.01em;}.cls-48{letter-spacing:-.01em;}.cls-19{font-size:8.75px;}.cls-49{letter-spacing:-.01em;}</style></defs><g id="cladire"><path class="cls-21" d="m5,5h779.58v504.47l-4.72.26c-21.79,1.22-45.84,1.84-71.49,1.84h0c-153.48,0-327.89-22.04-344.22-24.15-1.78.64-3.62,1.25-5.46,1.83-36.33,11.21-75.04,16.89-115.06,16.89-42.23,0-71.81-6.41-77.41-7.72l-121.31,14.92-39.88,5.22V5Z"/><path class="cls-21" d="m779.58,10v494.74c-22.8,1.27-46.77,1.83-71.22,1.83-161.9,0-344.79-24.27-344.79-24.27-2.02.75-4.14,1.48-6.37,2.16-41.74,12.88-81.37,16.67-113.59,16.67-46.18,0-77.12-7.8-77.13-7.8l-122.2,15.03-34.27,4.49V10h769.58m10-10H0v524.26l11.3-1.48,34.24-4.48,120.39-14.8c7.55,1.71,36.7,7.65,77.68,7.65s79.73-5.76,116.54-17.12c1.53-.47,3.04-.97,4.54-1.49,22.29,2.85,193.03,24.04,343.68,24.04,25.75,0,49.9-.62,71.78-1.84l9.44-.53V0h0Z"/><path class="cls-32" d="m779.58,504.74V10H10v502.86l34.27-4.49,122.2-15.03s89.14,22.47,190.71-8.87c2.23-.69,4.35-1.41,6.37-2.16,0,0,242.3,32.15,416.01,22.44Z"/></g><g id="magazine"><polyline class="cls-30" points="779.58 106.62 745.8 106.62 745.8 133.12 684.23 133.12 684.23 105.56 546.47 105.56 546.47 43.98 578.28 43.98 578.28 21.31 612.1 21.31 612.1 10"/><line class="cls-30" x1="612.1" y1="105.56" x2="612.1" y2="21.31"/><line class="cls-30" x1="566.95" y1="43.98" x2="566.95" y2="105.56"/><polyline class="cls-30" points="504.47 10 504.47 43.25 535.3 43.25 535.3 104.74 378.87 104.74 378.87 10"/><polyline class="cls-30" points="504.22 43.03 484.63 43.03 484.63 104.74"/><line class="cls-30" x1="512.87" y1="43.25" x2="512.87" y2="104.74"/><line class="cls-30" x1="428.88" y1="10" x2="428.88" y2="104.74"/><polyline class="cls-30" points="46.36 10 46.36 70.24 10 70.24"/><path class="cls-30" d="m10,135.24h79.67v42.98h118.99v-42.65c2.97-14.27,11.05-25.42,27.24-30.5h132.94v-61.82h-62.39v-22.1h-92.65v-11.15"/><line class="cls-30" x1="346.41" y1="105.07" x2="346.41" y2="43.25"/><line class="cls-30" x1="312.89" y1="43.25" x2="312.89" y2="105.07"/><polyline class="cls-30" points="279.94 105.07 279.94 40.15 290.3 40.15 290.63 21.31"/><polyline class="cls-30" points="213.8 21.15 213.8 55.81 180.36 55.81 180.36 111.76 206.79 111.76 216.11 118.41"/><polyline class="cls-30" points="166.48 493.35 215.6 486.64 215.6 425.02 208.66 425.02 208.66 355.69 46.69 355.69 46.69 363.36 28.34 363.36 28.34 355.45 10 355.61"/><polyline class="cls-30" points="10 453.56 35.52 453.56 35.52 442.55 47.34 442.55 47.34 508.06"/><line class="cls-30" x1="280.14" y1="468.99" x2="280.14" y2="414.99"/><line class="cls-30" x1="306.7" y1="414.99" x2="306.7" y2="473.7"/><line class="cls-30" x1="347.07" y1="414.99" x2="347.07" y2="479.93"/><line class="cls-30" x1="380.42" y1="478.28" x2="380.42" y2="484.42"/><line class="cls-30" x1="380.42" y1="441.98" x2="380.42" y2="414.99"/><polyline class="cls-30" points="431.8 458.87 479.84 458.87 479.84 415.31"/><line class="cls-30" x1="612.56" y1="415.31" x2="612.56" y2="504.15"/><polyline class="cls-30" points="685.86 506.42 685.86 495.57 645.81 495.57 645.81 415.31"/><path class="cls-30" d="m779.58,392.89h-12.73v5.14h-20.63v-55.7h-61.49v42.65c-4.22,20.05-19.75,29.72-38.66,30.34h-222.08v29.03h7.83v33.93h-51.38v-36.29h9.71v2.61h24.14v-29.61h-156.84l-1.22-.04v49.54c33.43,6.47,53.62,10.17,107.35,17.81"/><polyline class="cls-30" points="779.58 321.69 745.96 321.69 745.96 332.53 684.23 332.53 684.23 143.32 745.8 143.32 745.8 167.3 779.58 167.3"/><polyline class="cls-30" points="745.8 167.3 745.8 210.69 684.23 210.69"/><line class="cls-30" x1="745.8" y1="178.06" x2="684.23" y2="178.06"/><polyline class="cls-30" points="745.96 321.69 745.96 309.13 684.23 309.13"/><path class="cls-30" d="m612.94,153.11l17.53,17.53v75.97c-15.69,2.21-29.15,9.79-41.19,20.75h-32.3v-22.35h-77.81v6.52h22.92v16.31h-22.43v8.73h101.46c-14,22.19-21.66,46-22,71.67-92.14,12.97-185.24,19.31-279.27,19.18l-17.53-17.53v-62.13c13.65-6.4,25.1-14.53,34.01-24.65l15.99,12.23h99.83v-7.5h-33.28v-4.4h-5.95v3.75h-56.6l-13.46-9.71c18.89-24.26,29.85-52.39,30.99-85.31,99.06-12.9,192.95-20.19,279.09-19.08Z"/><polyline class="cls-30" points="372.92 263.45 372.92 228.71 326.35 228.71 321.76 226.1"/><line class="cls-30" x1="479.19" y1="245.02" x2="479.19" y2="157.3"/><polyline class="cls-30" points="630.48 210.99 545.74 210.99 545.74 153.86"/><line class="cls-30" x1="557" y1="245.02" x2="557" y2="210.99"/><line class="cls-30" x1="584.57" y1="153" x2="584.57" y2="210.99"/><line class="cls-30" x1="612.1" y1="210.99" x2="611.63" y2="153"/><line class="cls-30" x1="525.84" y1="276.18" x2="525.84" y2="352.62"/><polyline class="cls-30" points="565.48 309.64 526.58 309.64 526.58 352.25"/><line class="cls-30" x1="546.15" y1="309.21" x2="546.15" y2="350.06"/><polyline class="cls-30" points="412.15 275.36 412.15 291.38 479.68 291.38"/><line class="cls-30" x1="412.15" y1="291.38" x2="412.15" y2="363.33"/><polyline class="cls-30" points="312.32 275.36 312.32 342.97 262.33 342.97"/><line class="cls-30" x1="312.65" y1="309.94" x2="262.33" y2="309.94"/><polyline class="cls-31" points="676.52 402.21 681.65 409.12 681.65 495.57"/><line class="cls-30" x1="310.7" y1="367.25" x2="310.7" y2="342.4"/><polyline class="cls-30" points="10 291.52 46.73 291.52 46.73 338.21 207.98 338.21 207.98 190.96 78.69 190.96 78.69 146.41 10 146.41"/><polyline class="cls-30" points="77.99 338.21 77.99 294.38 207.98 294.38"/><line class="cls-31" x1="447.08" y1="414.96" x2="447.08" y2="458.71"/></g><g id="logo"><text class="cls-12" transform="translate(642.72 74.35) scale(.85 1)"><tspan class="cls-40" x="0" y="0">C</tspan><tspan x="18.14" y="0">OMSED</tspan></text><text class="cls-6" transform="translate(570.29 75.46) scale(.85 1)"><tspan x="0" y="0">L</tspan><tspan class="cls-48" x="4.8" y="0">E</tspan><tspan x="9.64" y="0">ONARDO</tspan></text><text class="cls-11" transform="translate(547.32 74.78) scale(.6 1)"><tspan x="0" y="0">HARIZM</tspan><tspan class="cls-44" x="25.11" y="0">A</tspan></text><path class="cls-18" d="m517.35,72.15c0-1.15.77-2.06,1.75-2.06s1.75.92,1.75,2.05-.76,2.04-1.75,2.04-1.75-.89-1.75-2.03Zm2.8-.01c0-.74-.47-1.27-1.05-1.27s-1.05.54-1.05,1.27.46,1.26,1.05,1.26,1.05-.54,1.05-1.26Z"/><path class="cls-18" d="m524.27,70.16v3.96h-.46l-1.74-2.43v2.43h-.66v-3.96h.43l1.77,2.45v-2.45h.66Z"/><path class="cls-18" d="m526.52,72.74v1.37h-.67v-1.37l-1.15-2.59h.78l.71,1.74.72-1.74h.78l-1.16,2.59Z"/><path class="cls-18" d="m528.83,72.11l-1-1.96h.78l.66,1.35.69-1.35h.79l-1.06,1.96,1.05,2h-.78l-.7-1.39-.71,1.39h-.79l1.08-2Z"/><path class="cls-18" d="m514.15,75.51h.74l.68,2.66.76-2.66h.43l.78,2.66.67-2.66h.74l-1.11,3.96h-.57l-.71-2.59-.71,2.59h-.57l-1.11-3.96Z"/><path class="cls-18" d="m519.06,77.5c0-1.15.77-2.06,1.75-2.06s1.75.92,1.75,2.05-.76,2.04-1.75,2.04-1.75-.89-1.75-2.03Zm2.8-.01c0-.74-.47-1.27-1.05-1.27s-1.05.54-1.05,1.27.46,1.26,1.05,1.26,1.05-.54,1.05-1.26Z"/><path class="cls-18" d="m523.11,75.51h.45l1.32,2.24,1.31-2.24h.45v3.96h-.67v-2.24l-.98,1.65h-.23l-.98-1.65v2.24h-.66v-3.96Z"/><path class="cls-18" d="m529.18,78.61h-1.17l-.26.86h-.7l1.28-3.96h.55l1.26,3.96h-.71l-.25-.86Zm-.98-.71h.79l-.39-1.32-.4,1.32Z"/><path class="cls-18" d="m533.42,75.51v3.96h-.46l-1.74-2.43v2.43h-.66v-3.96h.43l1.77,2.45v-2.45h.66Z"/><text class="cls-10" transform="translate(432.41 64.75) scale(.85 1)"><tspan x="0" y="0">T</tspan><tspan class="cls-23" x="7.93" y="0">E</tspan><tspan x="16.18" y="0">ODOR</tspan></text><path class="cls-18" d="m352.68,82.73c.91,0,1.74.49,1.74,1.68v.7h1.85v.91h-5.36v-1.68c0-1.15.88-1.61,1.77-1.61Zm-.01.93c-.4,0-.76.23-.76.67v.78h1.54v-.73c0-.5-.39-.72-.78-.72Z"/><path class="cls-18" d="m355.11,79.95v1.59l1.16.35v.96l-5.36-1.74v-.75l5.36-1.71v.96l-1.16.34Zm-.96,1.33v-1.07l-1.78.53,1.78.54Z"/><path class="cls-18" d="m351.95,78.94h-1.04v-3.53h1.04v1.3h4.32v.92h-4.32v1.3Z"/><path class="cls-18" d="m354.32,73.36v.54h1.95v.91h-5.36v-1.74c0-1.07.8-1.56,1.7-1.56.65,0,1.3.28,1.57.92l2.09-1.1v1.07l-1.95.96Zm-.96.54v-.75c0-.51-.36-.71-.73-.71s-.72.22-.72.63v.83h1.45Z"/><path class="cls-18" d="m350.92,69.73h5.36v.92h-5.36v-.92Z"/><path class="cls-18" d="m355.5,69.01l-3.6-2.26v2.17h-.99v-3.42h.8l3.57,2.21v-2.28h.99v3.57h-.77Z"/><path class="cls-18" d="m350.92,63.79h5.36v.92h-5.36v-.92Z"/><path class="cls-18" d="m355.11,60.34v1.59l1.16.35v.96l-5.36-1.74v-.75l5.36-1.71v.96l-1.16.34Zm-.96,1.33v-1.07l-1.78.53,1.78.54Z"/><path class="cls-18" d="m359.93,76.91c.91,0,1.74.49,1.74,1.68v.7h1.85v.91h-5.36v-1.68c0-1.15.88-1.61,1.77-1.61Zm-.01.93c-.4,0-.76.23-.76.67v.78h1.54v-.73c0-.5-.39-.72-.78-.72Z"/><path class="cls-18" d="m358.17,76.26v-3.09h1v2.17h1.15v-2.01h1v2.01h1.2v-2.17h1v3.09h-5.36Z"/><path class="cls-18" d="m359.93,69.04c.91,0,1.74.49,1.74,1.68v.7h1.85v.91h-5.36v-1.68c0-1.15.88-1.61,1.77-1.61Zm-.01.93c-.4,0-.76.23-.76.67v.78h1.54v-.73c0-.5-.39-.72-.78-.72Z"/><path class="cls-18" d="m358.17,68.39v-3.09h1v2.17h1.15v-2.01h1v2.01h1.2v-2.17h1v3.09h-5.36Z"/><path class="cls-14" d="m285.93,68.58c-.45-.24-1.04-.29-1.68-.29h0s-1.81,0-1.81,0v.02s0,.02,0,.04v5.45h0v.53h1.81c.63,0,1.22-.05,1.67-.28.85-.42,1.34-1.34,1.34-2.73s-.49-2.29-1.33-2.73Zm-.19,3.69c-.3.69-1.04.72-1.94.68v-3.25s0-.04.01-.04c1.18-.1,1.92.18,2.06,1.27.06.46,0,1.01-.14,1.34Z"/><path class="cls-14" d="m290.38,70.01c-.46-.24-1.24-.24-1.7-.03-.82.38-1.45,1.38-1.21,2.72.19,1.05.87,1.63,1.87,1.73.97.09,1.86-.41,2.06-1.45h-1.15c-.16.37-.59.6-1.03.44-.33-.12-.53-.49-.54-.95h2.8c.03-1.23-.38-2.09-1.1-2.47Zm-1.7,1.65c.08-.5.34-.89.81-.89.43,0,.67.4.74.89h-1.55Z"/><path class="cls-14" d="m300.95,69.94h-1.2v.55c-.25-.42-.59-.73-1.24-.67-.39.04-.7.23-.92.46-.33.35-.51.89-.55,1.48-.04.59.06,1.25.35,1.7.27.43.76.68,1.29.68.46,0,.76-.25.97-.53.02-.03.05-.09.09-.09,0,.52.02,1.01-.21,1.24-.22.23-.8.22-.99,0-.03-.04-.06-.1-.08-.15-.02-.05-.04-.1-.06-.16h-1.23c.07.71.43,1.11.99,1.29.56.18,1.33.17,1.86-.06.49-.22.82-.73.9-1.39.05-.42.03-.91.03-1.43,0-.98,0-2.91,0-2.91Zm-1.82,3.09c-.47.07-.79-.31-.84-.81-.07-.69.14-1.21.62-1.29.21-.03.41.02.53.13.47.41.46,1.85-.31,1.96Z"/><path class="cls-14" d="m308.95,72.54c0-.5.03-1.01,0-1.45-.08-1.1-1.01-1.35-2.06-1.27-.81.06-1.49.48-1.52,1.48h1.16c.04-.11.05-.2.1-.3.21-.34,1-.36,1.11.09.11.46-.25.5-.58.56-.7.12-1.41.17-1.75.68-.32.48-.21,1.36.1,1.71.22.25.57.38.92.4.5.03.95-.17,1.21-.41.04-.04.09-.08.14-.1,0,.11.02.28.06.38h1.25c-.17-.45-.14-1.13-.14-1.77Zm-1.63.96c-.31.12-.77.05-.85-.28-.03-.11-.03-.24.01-.35.14-.42.85-.38,1.23-.56,0-.01,0-.01.01-.01.01,0,.01,0,.01.01.02.55-.06,1.06-.41,1.2Z"/><path class="cls-14" d="m294.01,73.28c-.25.34-1.19.33-1.14-.27.02-.22.25-.33.45-.38.63-.18,1.41-.25,1.74-.72.17-.24.24-.72.17-1.06-.05-.24-.21-.48-.34-.59-.36-.33-1-.48-1.66-.43-.79.06-1.41.42-1.48,1.4h1.15c.03-.12.04-.22.11-.31.23-.26,1-.24.99.16,0,.18-.19.29-.34.35-.48.2-1.19.21-1.55.46-.25.17-.49.5-.5.96-.01.45.13.8.35,1.05.67.74,2.41.75,3.04-.04.18-.23.29-.58.31-.97h-1.19c-.03.15-.04.29-.13.4Z"/><path class="cls-14" d="m303.8,71.92c0,.2-.01.39-.03.55,0,.11-.05.24-.08.31-.13.35-.6.68-1.01.37-.13-.1-.21-.32-.22-.53-.03-.8-.02-2.67-.02-2.67,0,0-.28,0-.7,0h-.04c-.15,0-.31,0-.48,0,0,0,0,0,0,0h-.03v1.95h0c-.02,1.09.04,2.07.7,2.4.1.05.23.1.35.12.52.1.99-.07,1.28-.34.11-.1.17-.24.27-.34v.58h1.23v-4.37h-1.23v1.98Z"/><rect class="cls-18" x="309.27" y="68.3" width="1.24" height="6.01"/><rect class="cls-18" x="295.57" y="69.96" width="1.25" height="4.36"/><rect class="cls-18" x="295.57" y="68.3" width="1.25" height="1.11"/><text class="cls-17" transform="translate(217.94 76.19) scale(.85 1)"><tspan class="cls-42" x="0" y="0">S</tspan><tspan class="cls-38" x="5.58" y="0">C</tspan><tspan x="12.49" y="0">AN</tspan><tspan class="cls-28" x="26.25" y="0">D</tspan><tspan x="33.1" y="0">A</tspan><tspan class="cls-1" x="39.53" y="0">L</tspan></text><text class="cls-19" transform="translate(383.39 63.53) scale(.85 1)"><tspan class="cls-46" x="0" y="0">F</tspan><tspan x="4.86" y="0">AN POIN</tspan><tspan class="cls-37" x="42.76" y="0">T</tspan></text><polygon class="cls-18" points="29.97 84.7 36.87 87.53 44.88 101.13 44.88 90.02 50.57 91.47 50.57 112.65 45.36 112.65 35.97 96.98 35.97 112.65 29.97 112.65 29.97 84.7 29.97 84.7"/><polygon class="cls-18" points="53.04 92.05 53.04 112.65 66.29 112.65 66.29 107.82 59.12 107.82 59.12 104.58 64.91 104.64 64.91 100.92 59.12 100.44 59.12 97.81 65.05 98.44 65.05 94.02 53.04 92.05 53.04 92.05"/><polygon class="cls-18" points="66.41 94.23 70.49 112.65 75.59 112.65 79.04 102.92 81.52 112.65 86.53 112.65 90.98 96.78 86.13 96.5 83.87 104.58 81.66 96.02 76.9 95.61 73.8 104.64 71.9 95.02 66.41 94.23 66.41 94.23"/><polygon class="cls-18" points="96.31 112.65 99.62 112.65 99.62 97.06 109.84 82.08 102.45 82.08 96.31 92.26 90.17 82.08 82.78 82.08 93 97.06 93 112.65 96.31 112.65 96.31 112.65"/><path class="cls-18" d="m108.88,96.03l-4.98.33-2.4,2.25v2.54s0,8.92,0,8.92l2.47,2.57h4.81s2.35-2.62,2.35-2.62v-11.82s-2.25-2.17-2.25-2.17h0Zm-1.24,13.51h-2.5s0-9.59,0-9.59h2.5s0,9.59,0,9.59h0Z"/><path class="cls-18" d="m122.34,96.97l-1.83-1.86-7.81.74v16.79h3.84v-6.76s2.1,0,2.1,0v6.76h3.69s0-7.63,0-7.63l-1.21-1.34,1.21-1.42v-5.28h0Zm-3.69,5.35h-2.1s0-3.71,0-3.71h2.1v3.71h0Z"/><polygon class="cls-18" points="124.27 94.49 124.27 112.64 128.9 112.64 128.9 105.16 132.62 112.64 137.45 112.64 132.23 102.03 136.82 92.49 131.99 93.35 128.9 99.53 128.9 93.87 124.27 94.49 124.27 94.49"/><polygon class="cls-18" points="137.74 92.35 147.4 90.11 147.4 94.39 142.98 95.46 142.98 98.57 147.36 98.01 147.36 102.98 142.98 103.32 142.98 107.67 147.64 107.67 147.64 112.64 137.74 112.64 137.74 92.35 137.74 92.35"/><path class="cls-14" d="m154.39,97.66v-5.02s3.11-.85,3.11-.85v5.48l-3.11.39h0Zm-4.97,14.98h4.97v-9.83l3.11-.18v10.01h5.28s0-10.7,0-10.7l-1.76-2.41,1.62-2.59v-8.42s-2.24-2.59-2.24-2.59l-10.97,3.62v23.09h0Z"/><path class="cls-18" d="m262.71,431.5c0,.94-.5,1.8-1.74,1.8h-.73v1.91h-.94v-5.54h1.74c1.19,0,1.67.91,1.67,1.83Zm-.96-.01c0-.41-.24-.79-.69-.79h-.81v1.6h.76c.52,0,.74-.41.74-.81Z"/><path class="cls-18" d="m265.58,434.01h-1.65l-.36,1.2h-.99l1.8-5.54h.77l1.77,5.54h-1l-.35-1.2Zm-1.38-.99h1.11l-.55-1.84-.56,1.84Z"/><path class="cls-18" d="m267.33,433.19v-3.51h.95v3.44c0,.76.36,1.12.89,1.12s.88-.38.88-1.12v-3.44h.96v3.51c0,1.46-.85,2.12-1.84,2.12s-1.84-.66-1.84-2.12Z"/><path class="cls-18" d="m272,429.68h.95v4.47h2.39v1.06h-3.34v-5.54Z"/><path class="cls-18" d="m278.47,434.01h-1.65l-.36,1.2h-.99l1.8-5.54h.77l1.77,5.54h-1l-.35-1.2Zm-1.38-.99h1.11l-.55-1.84-.56,1.84Z"/><path class="cls-18" d="m264.09,437.17l-1.93,5.54h-.75l-1.96-5.54h1.09l1.24,3.83,1.24-3.83h1.07Z"/><path class="cls-18" d="m264.65,437.17h3.2v1.03h-2.25v1.19h2.08v1.03h-2.08v1.24h2.25v1.03h-3.2v-5.54Z"/><path class="cls-18" d="m272.73,437.17v5.54h-.64l-2.44-3.39v3.39h-.93v-5.54h.6l2.49,3.42v-3.42h.93Z"/><path class="cls-18" d="m273.34,438.24v-1.07h3.65v1.07h-1.35v4.46h-.96v-4.46h-1.35Z"/><path class="cls-18" d="m278.55,437.17v5.54h-.95v-5.54h.95Z"/><text class="cls-5" transform="translate(286.42 439.34) scale(.85 1)"><tspan x="0" y="0">RENI</tspan></text><path class="cls-18" d="m321.62,432.09h.85v1.99h1.78v-1.99h.85v5h-.85v-2.03h-1.78v2.03h-.85v-5Z"/><path class="cls-18" d="m325.76,435.72c0-.56.3-1.07.8-1.28h0c-.37-.22-.62-.6-.62-1.1,0-.76.56-1.33,1.41-1.33s1.41.56,1.41,1.33c0,.5-.25.89-.63,1.09v.02c.49.2.81.71.81,1.27,0,.84-.64,1.45-1.59,1.45s-1.59-.61-1.59-1.45Zm2.32-.12c0-.39-.28-.68-.73-.68s-.74.29-.74.68c0,.41.3.7.74.7s.73-.29.73-.7Zm-.11-2.15c0-.35-.24-.62-.62-.62s-.63.27-.63.62.24.62.63.62.63-.28.63-.62Z"/><path class="cls-18" d="m329.24,436.24l.49-.7c.28.45.7.7,1.13.7.36,0,.61-.22.61-.53,0-.25-.17-.4-.39-.52-.27-.15-.62-.27-.92-.47-.37-.25-.67-.62-.67-1.24,0-.83.59-1.46,1.45-1.46.49,0,1,.2,1.4.68l-.45.73c-.25-.31-.64-.47-.93-.47-.34,0-.55.2-.55.48,0,.25.17.39.35.49.22.12.65.31.94.48.41.24.72.61.72,1.24,0,.88-.63,1.52-1.56,1.52-.65,0-1.25-.32-1.61-.93Z"/><path class="cls-18" d="m327.01,442.01c0,1.1-.67,1.93-1.56,1.93-.45,0-.76-.24-.98-.55v.46h-.79v-5.14h.81v1.88c.22-.3.52-.52.96-.52.89,0,1.56.84,1.56,1.94Zm-.83,0c0-.58-.35-1.05-.86-1.05s-.86.48-.86,1.05.35,1.06.86,1.06.86-.48.86-1.06Z"/><path class="cls-18" d="m330.45,440.16l-1.26,3.87c-.3.91-.69,1.39-1.33,1.39-.24,0-.45-.07-.6-.18l.14-.8c.12.07.26.12.4.12.26,0,.45-.18.61-.58l.06-.17-1.37-3.64h.94l.81,2.4.71-2.4h.89Z"/><path class="cls-18" d="m316.51,445.61h.85v1.99h1.78v-1.99h.85v5h-.85v-2.03h-1.78v2.03h-.85v-5Z"/><path class="cls-18" d="m322.29,448.78h-.51v1.82h-.85v-5h1.63c1,0,1.46.75,1.46,1.58,0,.6-.26,1.21-.86,1.47l1.03,1.95h-1l-.9-1.82Zm-.51-.9h.7c.48,0,.66-.34.66-.68s-.2-.67-.59-.67h-.77v1.35Z"/><path class="cls-18" d="m325.67,445.61v5h-.86v-5h.86Z"/><path class="cls-18" d="m326.25,449.75l.49-.7c.28.45.7.7,1.13.7.36,0,.61-.22.61-.53,0-.25-.17-.4-.39-.52-.27-.15-.62-.27-.92-.47-.37-.25-.67-.62-.67-1.24,0-.83.59-1.46,1.45-1.46.49,0,1,.2,1.4.68l-.45.73c-.25-.31-.64-.47-.93-.47-.34,0-.55.2-.55.48,0,.25.17.39.35.49.22.12.65.31.94.48.41.24.72.61.72,1.24,0,.88-.63,1.52-1.56,1.52-.65,0-1.25-.32-1.61-.93Z"/><path class="cls-18" d="m329.64,446.57v-.97h3.29v.97h-1.21v4.03h-.86v-4.03h-1.21Z"/><path class="cls-18" d="m333.08,448.12c0-1.45.97-2.6,2.21-2.6s2.21,1.16,2.21,2.59-.96,2.58-2.22,2.58-2.21-1.13-2.21-2.56Zm3.54-.01c0-.93-.6-1.6-1.33-1.6s-1.33.68-1.33,1.6.58,1.59,1.33,1.59,1.33-.68,1.33-1.59Z"/><path class="cls-18" d="m309.63,456.51l.49-.7c.28.45.7.7,1.13.7.36,0,.61-.22.61-.53,0-.25-.17-.4-.39-.52-.27-.15-.62-.27-.92-.47-.37-.25-.67-.62-.67-1.24,0-.83.59-1.46,1.45-1.46.5,0,1,.2,1.4.68l-.45.73c-.25-.31-.64-.47-.93-.47-.34,0-.55.2-.55.48,0,.25.17.39.35.49.22.12.65.31.94.48.41.24.72.61.72,1.24,0,.88-.63,1.52-1.56,1.52-.65,0-1.25-.32-1.61-.93Z"/><path class="cls-18" d="m313.02,453.33v-.97h3.29v.97h-1.21v4.03h-.86v-4.03h-1.21Z"/><path class="cls-18" d="m316.46,454.88c0-1.45.97-2.6,2.21-2.6s2.21,1.16,2.21,2.59-.96,2.58-2.22,2.58-2.21-1.13-2.21-2.56Zm3.54-.01c0-.93-.6-1.6-1.33-1.6s-1.33.68-1.33,1.6.58,1.59,1.33,1.59,1.33-.68,1.33-1.59Z"/><path class="cls-18" d="m322.44,452.36v5h-.86v-5h.86Z"/><path class="cls-18" d="m323.14,454.88c0-1.54,1-2.6,2.2-2.6.79,0,1.46.43,1.83,1.03l-.57.66c-.29-.43-.71-.72-1.21-.72-.76,0-1.36.68-1.36,1.64s.59,1.59,1.35,1.59c.5,0,.94-.29,1.24-.73l.59.63c-.37.6-1.06,1.06-1.88,1.06-1.21,0-2.19-1.03-2.19-2.55Z"/><path class="cls-18" d="m327.78,452.36h.85v1.99h1.78v-1.99h.85v5h-.85v-2.03h-1.78v2.03h-.85v-5Z"/><path class="cls-18" d="m333.58,455.38l-.52.74v1.24h-.85v-5h.85v2.36l1.61-2.36h1.03l-1.56,2.27,1.67,2.72h-1.05l-1.18-1.98Z"/><path class="cls-18" d="m335.7,454.88c0-1.45.97-2.6,2.21-2.6s2.21,1.16,2.21,2.59-.96,2.58-2.22,2.58-2.21-1.13-2.21-2.56Zm3.54-.01c0-.93-.6-1.6-1.33-1.6s-1.33.68-1.33,1.6.58,1.59,1.33,1.59,1.33-.68,1.33-1.59Z"/><path class="cls-18" d="m344.38,452.36l-1.74,5h-.68l-1.77-5h.98l1.12,3.45,1.12-3.45h.97Z"/><path class="cls-18" d="m351.24,431.87h2.84v.95h-1.98v1.12h1.74v.94h-1.74v1.99h-.85v-5Z"/><path class="cls-18" d="m356.7,435.79h-1.48l-.33,1.08h-.89l1.62-5h.7l1.6,5h-.9l-.32-1.08Zm-1.24-.89h1l-.49-1.66-.51,1.66Z"/><path class="cls-18" d="m361.71,435.41c0,.78-.49,1.45-1.35,1.45h-1.94v-5h1.85c.81,0,1.21.63,1.21,1.24,0,.44-.23.87-.58,1.01.55.16.81.7.81,1.28Zm-2.44-2.67v1.09h.83c.37,0,.54-.29.54-.56s-.18-.53-.51-.53h-.87Zm1.56,2.59c0-.33-.2-.66-.63-.66h-.93v1.32h.93c.43,0,.63-.34.63-.66Z"/><path class="cls-18" d="m363.26,431.87v5h-.86v-5h.86Z"/><path class="cls-18" d="m366.48,435.79h-1.48l-.33,1.08h-.89l1.62-5h.7l1.6,5h-.9l-.32-1.08Zm-1.24-.89h1l-.49-1.66-.51,1.66Z"/><path class="cls-18" d="m371.83,431.87v5h-.58l-2.2-3.06v3.06h-.84v-5h.54l2.24,3.09v-3.09h.84Z"/><path class="cls-18" d="m372.52,434.39c0-1.45.97-2.6,2.21-2.6s2.21,1.16,2.21,2.59-.96,2.58-2.22,2.58-2.21-1.13-2.21-2.56Zm3.54-.01c0-.93-.6-1.6-1.33-1.6s-1.33.68-1.33,1.6.58,1.59,1.33,1.59,1.33-.68,1.33-1.59Z"/><path class="cls-18" d="m354.11,442.77l.49-.7c.28.45.7.7,1.13.7.36,0,.61-.22.61-.53,0-.25-.17-.4-.39-.52-.27-.15-.62-.27-.92-.47-.37-.25-.67-.62-.67-1.24,0-.83.59-1.46,1.45-1.46.5,0,1,.2,1.4.68l-.45.73c-.25-.31-.64-.47-.93-.47-.34,0-.55.2-.55.48,0,.25.17.39.35.49.22.12.65.31.94.48.41.24.72.61.72,1.24,0,.88-.63,1.52-1.56,1.52-.65,0-1.25-.32-1.61-.93Z"/><path class="cls-18" d="m357.96,438.63h.85v1.99h1.78v-1.99h.85v5h-.85v-2.03h-1.78v2.03h-.85v-5Z"/><path class="cls-18" d="m362.14,441.14c0-1.45.97-2.6,2.21-2.6s2.21,1.16,2.21,2.59-.96,2.58-2.22,2.58-2.21-1.13-2.21-2.56Zm3.54-.01c0-.93-.6-1.6-1.33-1.6s-1.33.68-1.33,1.6.58,1.59,1.33,1.59,1.33-.68,1.33-1.59Z"/><path class="cls-18" d="m367.26,438.63h2.88v.93h-2.02v1.08h1.88v.93h-1.88v1.12h2.02v.93h-2.88v-5Z"/><path class="cls-18" d="m370.56,442.77l.49-.7c.28.45.7.7,1.13.7.36,0,.61-.22.61-.53,0-.25-.17-.4-.39-.52-.27-.15-.62-.27-.92-.47-.37-.25-.67-.62-.67-1.24,0-.83.59-1.46,1.45-1.46.5,0,1,.2,1.4.68l-.45.73c-.25-.31-.64-.47-.93-.47-.34,0-.55.2-.55.48,0,.25.17.39.35.49.22.12.65.31.94.48.41.24.72.61.72,1.24,0,.88-.63,1.52-1.56,1.52-.65,0-1.25-.32-1.61-.93Z"/><path class="cls-18" d="m391.94,425.69h.86v4.04h2.16v.96h-3.01v-5Z"/><path class="cls-18" d="m395.37,428.86v-3.17h.86v3.1c0,.68.33,1.01.81,1.01s.79-.34.79-1.01v-3.1h.86v3.17c0,1.32-.77,1.91-1.66,1.91s-1.66-.59-1.66-1.91Z"/><path class="cls-18" d="m399.34,428.21c0-1.54,1-2.6,2.2-2.6.79,0,1.46.43,1.83,1.03l-.57.66c-.29-.43-.71-.72-1.21-.72-.76,0-1.36.68-1.36,1.64s.59,1.59,1.35,1.59c.5,0,.94-.29,1.24-.73l.59.63c-.37.6-1.06,1.06-1.88,1.06-1.21,0-2.19-1.03-2.19-2.55Z"/><path class="cls-18" d="m405.75,428.96v1.73h-.85v-1.73l-1.46-3.26h.98l.9,2.19.92-2.19h.98l-1.47,3.26Z"/><path class="cls-18" d="m386.66,432.45h2.84v.95h-1.98v1.12h1.74v.94h-1.74v1.99h-.85v-5Z"/><path class="cls-18" d="m392.13,436.36h-1.48l-.33,1.08h-.89l1.62-5h.7l1.6,5h-.9l-.32-1.08Zm-1.24-.89h1l-.49-1.66-.51,1.66Z"/><path class="cls-18" d="m393.37,436.59l.49-.7c.28.45.7.7,1.13.7.36,0,.61-.22.61-.53,0-.25-.17-.4-.39-.52-.27-.15-.62-.27-.92-.47-.37-.25-.67-.62-.67-1.24,0-.83.59-1.46,1.45-1.46.5,0,1,.2,1.4.68l-.45.73c-.25-.31-.64-.47-.93-.47-.34,0-.55.2-.55.48,0,.25.17.39.35.49.22.12.65.31.94.48.41.24.72.61.72,1.24,0,.88-.63,1.52-1.56,1.52-.65,0-1.25-.32-1.61-.93Z"/><path class="cls-18" d="m397.21,432.45h.85v1.99h1.78v-1.99h.85v5h-.85v-2.03h-1.78v2.03h-.85v-5Z"/><path class="cls-18" d="m402.49,432.45v5h-.86v-5h.86Z"/><path class="cls-18" d="m403.19,434.96c0-1.45.97-2.6,2.21-2.6s2.21,1.16,2.21,2.59-.96,2.58-2.22,2.58-2.21-1.13-2.21-2.56Zm3.54-.01c0-.93-.6-1.6-1.33-1.6s-1.33.68-1.33,1.6.58,1.59,1.33,1.59,1.33-.68,1.33-1.59Z"/><path class="cls-18" d="m411.93,432.45v5h-.58l-2.2-3.06v3.06h-.84v-5h.54l2.24,3.09v-3.09h.84Z"/><path class="cls-18" d="m511.13,467.59h-15.2v-.47l11.38-11.54h-9.43l-.23,2.88h-.7l.31-3.35h14.27v.39l-11.62,11.54h10.53l.31-3.59h.78l-.39,4.13h0Zm70.56-3.9h-6.32l-2.03,3.43h3.66v.47h-7.17v-.47h2.73l7.25-12.24h.39l6.94,12.24h2.65v.47h-9.43v-.47h3.2l-1.87-3.43h0Zm-6-.55h5.77l-2.81-4.91h-.08l-2.88,4.91h0Zm-46.63.55h-6.32l-2.03,3.35h3.66v.47h-7.17v-.47h2.73l7.25-12.24h.39l6.94,12.24h2.65v.47h-9.36v-.47h3.27l-2.03-3.35h0Zm-6.16-.55h5.77l-2.81-4.91h-.08l-2.88,4.91h0Zm24.25,3.9v-11.46h-3.12v-.47h14.81c2.11,0,2.65,1.72,2.65,2.81,0,1.56-.39,2.81-2.65,3.27-.08,0-.39,0-.78.08l3.35,5.85h2.65v.47h-6l-3.59-6.32h-3.74v5.85h3.12v.47h-9.82v-.47h3.12v-.08Zm3.51-11.46v5.15h3.51c.78,0,1.33-.08,1.79-.16.55-.08,1.09-.39,1.4-.78.39-.39.55-1.09.55-1.87,0-.7-.23-1.25-.55-1.56-.39-.39-.78-.55-1.33-.62-.47-.16-1.17-.16-2.03-.16h-3.35Z"/><text class="cls-5" transform="translate(614.09 461.35) scale(.85 1)"><tspan x="0" y="0">ANDRE</tspan><tspan class="cls-39" x="24.14" y="0">W</tspan><tspan x="31.2" y="0">S</tspan></text><text class="cls-5" transform="translate(698.99 325.07) scale(.85 1)"><tspan x="0" y="0">M</tspan><tspan class="cls-2" x="6.34" y="0">A</tspan><tspan class="cls-35" x="10.9" y="0">S</tspan><tspan x="14.98" y="0">ON</tspan><tspan class="cls-39" x="26.07" y="0">’</tspan><tspan class="cls-45" x="27.63" y="0">S</tspan></text><path class="cls-18" d="m603.52,240.31c.43.21,1.01.34,1.7.45.69.11,1.34.15,1.38.66,0,.32-.34.75-1.08.75-1.1-.02-1.36-.62-1.36-1.03h-1.7c.06,1.3,1.14,2.23,2.95,2.23,1.61,0,2.93-.62,2.93-2.23,0-.88-.65-1.5-1.66-1.75-1.05-.28-2.41-.23-2.41-.9.05-.45.47-.58,1.12-.58.97,0,1.03.54,1.05.88h1.64c-.11-1.26-1.14-2.12-2.78-2.12s-2.69.92-2.69,2.08c0,.68.36,1.28.91,1.56"/><polygon class="cls-18" points="582.8 234.53 579.8 229.4 574.14 232.63 575.24 234.53 582.8 234.53 582.8 234.53"/><polygon class="cls-18" points="585.21 243.22 586.83 243.22 586.83 236.74 585.21 236.74 585.21 243.22 585.21 243.22"/><path class="cls-18" d="m573.43,238.15c1.03,0,1.9.86,1.9,1.86s-.86,1.84-1.9,1.84-1.87-.83-1.87-1.84.86-1.86,1.87-1.86m-.04,5.22c.73,0,1.4-.21,1.94-.58v.43h1.59v-6.48h-1.59v.51c-.56-.39-1.23-.58-1.94-.58-1.85,0-3.38,1.48-3.38,3.34s1.53,3.36,3.38,3.36"/><polygon class="cls-18" points="602.73 234.53 592.93 217.7 587.26 220.96 595.14 234.53 602.73 234.53 602.73 234.53"/><path class="cls-18" d="m580.93,241.85c-1.04,0-1.9-.83-1.9-1.84s.86-1.86,1.9-1.86,1.87.86,1.87,1.86-.86,1.84-1.87,1.84m-.05-5.18c-1.87,0-3.4,1.48-3.4,3.34s1.53,3.36,3.4,3.36c.71,0,1.36-.21,1.92-.58v.43h1.62v-8.68h-1.62v2.72c-.56-.39-1.21-.58-1.92-.58"/><polygon class="cls-18" points="585.21 236.14 586.83 236.14 586.83 234.53 592.8 234.53 586.44 223.63 580.75 226.86 585.21 234.53 585.21 236.14 585.21 236.14"/><path class="cls-18" d="m598.38,241.85c-1.02,0-1.88-.83-1.88-1.84s.86-1.86,1.88-1.86,1.85.86,1.85,1.86-.84,1.84-1.85,1.84m3.47,1.37v-6.48h-1.62v.51c-.54-.39-1.2-.58-1.92-.58-1.85,0-3.38,1.48-3.38,3.34s1.53,3.36,3.38,3.36c.74,0,1.38-.21,1.92-.58v.43h1.62Z"/><path class="cls-18" d="m590.9,241.85c-.99,0-1.85-.83-1.85-1.84s.86-1.86,1.85-1.86,1.89.86,1.89,1.86-.86,1.84-1.89,1.84m-.05-5.18c-1.85,0-3.38,1.48-3.38,3.34s1.53,3.36,3.38,3.36c.73,0,1.4-.21,1.94-.58v.43h1.59v-8.68h-1.59v2.72c-.56-.39-1.21-.58-1.94-.58"/><path class="cls-18" d="m716.6,273.74c-2.73,1.66-5.7,2.48-8.88,2.48-3.7,0-6.72-1.14-9-3.45-2.4-2.39-3.6-5.47-3.6-9.24s1.18-6.87,3.58-9.22c2.38-2.35,5.58-3.53,9.57-3.53,2.81,0,5.52.69,8.12,2.02v5.75c-2.54-1.74-5.13-2.63-7.74-2.63-2.34,0-4.19.69-5.54,2.05-1.34,1.36-2.01,3.21-2.01,5.56s.63,4.09,1.91,5.47c1.28,1.4,3.01,2.09,5.19,2.09,2.79,0,5.58-1.03,8.39-3.1v5.75h0Z"/><path class="cls-18" d="m765.03,273.74c-2.73,1.66-5.7,2.48-8.88,2.48-3.7,0-6.72-1.14-9-3.45-2.4-2.39-3.6-5.47-3.6-9.24s1.18-6.87,3.58-9.22c2.38-2.35,5.58-3.53,9.57-3.53,2.81,0,5.52.69,8.12,2.02v5.75c-2.54-1.74-5.13-2.63-7.74-2.63-2.34,0-4.19.69-5.54,2.05-1.34,1.36-2.02,3.21-2.02,5.56s.63,4.09,1.91,5.47c1.28,1.4,3.01,2.09,5.19,2.09,2.79,0,5.58-1.03,8.39-3.1v5.75h0Z"/><path class="cls-18" d="m740.8,273.74c-2.73,1.66-5.7,2.48-8.86,2.48-3.71,0-6.72-1.14-9-3.45-2.4-2.39-3.6-5.47-3.6-9.24s1.18-6.87,3.58-9.22c2.38-2.35,5.58-3.53,9.57-3.53,2.79,0,5.5.69,8.1,2.02v5.75c-2.54-1.74-5.13-2.63-7.72-2.63-2.34,0-4.19.69-5.54,2.05-1.34,1.36-2.02,3.21-2.02,5.56s.63,4.09,1.91,5.47c1.28,1.4,3.01,2.09,5.19,2.09,2.77,0,5.56-1.03,8.37-3.1v5.75h0Z"/><text class="cls-3" transform="translate(697.07 164.85)"><tspan x="0" y="0">GIANNI</tspan></text><text class="cls-8" transform="translate(613.26 187.01) scale(.85 1)"><tspan x="0" y="0">GIULIAN</tspan></text><path class="cls-18" d="m450.39,191.99c-1.07.48-1.91-.02-3.22,2.67-4.12,8.47-7.33,15.34-11.15,25.23.11-8.12,1.56-14.58,2.43-22.49.16-1.46.38-3.47.35-4.98-.03-1.16-1.19-1.32-3.52-.16-1.3.64-2.86.59-3.46,2.13-2.54,6.58-8.4,24.86-11.13,35.2-.65,2.48,1.81,2.9,2.55.35,1.79-6.16,5.88-19.8,8.32-26.82-.25,6.43-2,16.59-1.18,21.92.26,1.68,1.82,2.4,2.63,3.82.57,1.01,1.49,1.11,2-.27,2.38-6.5,7.02-17.97,11.5-27.14-.88,4.04-4.25,21.18-5.18,28.01-.19,1.37,1.49,1.4,2.98,3.47.34.46,1.62.97,1.85-.22.8-4.1,5.99-30.7,8.03-39.15.55-2.28.39-3.42-3.8-1.56Z"/><path class="cls-18" d="m416.4,211.32c1.79-2.67,2.31-2.13,2.74-2.94.54-1.02.18-1.98-1.73-1.74,0,0-.72.05-2.06.2,2.12-5.46,3.98-10.09,5.31-13.62.45-1.19.51-2.07-.23-2.25-.79-.19-3.08,1.05-4.49,1.29-.45.08-.88.55-1.02.89-2.26,5.18-4.28,10.12-6.03,14.62-2.24.38-4.86.89-7.79,1.54,2.09-5.39,4.22-10.69,6.29-15.81,1.02-2.51-1.66-2.75-2.7-.2-1.35,3.31-3.88,9.51-6.68,16.74-2.06.5-4.24,1.08-6.52,1.74-1.66.48-1.73.92-1.01,1.91.4.55,1.22.5,1.59.89.97,1.02,1.55,2.24,3.28,2.43-1.55,4.13-3.09,8.39-4.49,12.49-.88,2.57,1.62,3.1,2.58.38,1.55-4.39,3.18-8.83,4.86-13.26,1.4-.32,4.78-1.05,7.9-1.73-2.48,6.79-4.11,11.96-4.73,14.47-.12.48.08.75.18.95.83,1.22,1.63,1.27,2.71,2.77.29.41,1.27.63,1.6-.38,2.3-6.94,4.66-13.45,6.86-19.29.91-.2,2.56-.6,3.57-2.1Z"/><path class="cls-18" d="m418.09,221.92c-.16.14-.33.3-.5.46-.2-.6-.39-1.2-.57-1.77.54-.66,1.06-1.32,1.51-2.01,1.84-2.87-1.8-4.53-3.37-2.66-.84,1-.63,1.97-.4,2.81.07.26.18.63.32,1.07-.45.46-.99,1.04-1.7,1.87-1.78,2.07-1.3,4.75.61,5.35,1.16.36,2.24-.16,3.18-.99.05.12.09.24.14.35.5,1.25,2.04.87,1.45-.64-.1-.26-.23-.61-.37-1.02.3-.38.58-.77.82-1.14,1.14-1.68.04-2.67-1.11-1.68Zm-1.21-3.95c-.17.2-.34.37-.5.54-.04-.15-.08-.28-.11-.39-.53-2,1.77-1.46.61-.15Zm-1.25,6.1c-.7.43-1.25-.03-.31-1.32.16-.22.32-.43.48-.63.16.49.33.99.49,1.47-.22.18-.44.34-.66.48Z"/><text class="cls-5" transform="translate(332.28 250.79) scale(.85 1)"><tspan x="0" y="0">F</tspan><tspan class="cls-29" x="4.07" y="0">U</tspan><tspan x="8.96" y="0">SION</tspan></text><text class="cls-5" transform="translate(274.16 296.89) scale(.85 1)"><tspan x="0" y="0">TWINSE</tspan><tspan class="cls-26" x="27.13" y="0">T</tspan></text><text class="cls-5" transform="translate(534.59 296.89) scale(.85 1)"><tspan class="cls-25" x="0" y="0">D</tspan><tspan class="cls-34" x="5.01" y="0">APHINE</tspan></text><text class="cls-13" transform="translate(546.93 326.23) scale(.72 1)"><tspan x="0" y="0">TIMELAND</tspan></text><text class="cls-15" transform="translate(527.43 326.74) scale(.85 1)"><tspan x="0" y="0">GI</tspan><tspan class="cls-22" x="5.21" y="0">O</tspan><tspan class="cls-43" x="9" y="0">V</tspan><tspan x="12.11" y="0">ANI</tspan></text><path class="cls-20" d="m531.13,254.72c0-.93-.75-1.68-1.68-1.68h-10.98c-.93,0-1.68.75-1.68,1.68v10.98c0,.93.75,1.68,1.68,1.68h10.98c.93,0,1.68-.75,1.68-1.68v-10.98Zm-4.05.44c.47,0,.84.37.84.84s-.38.84-.84.84-.84-.37-.84-.84.37-.84.84-.84Zm-6.47,0c.47,0,.84.37.84.84s-.38.84-.84.84-.84-.37-.84-.84.38-.84.84-.84Zm1.67,2.4l-.23,2.81c-.02.18-.13.33-.3.39h0c-.17.07-.28.22-.29.4l-.22,3.64c-.02.25-.22.44-.47.44h-.31c-.25,0-.45-.19-.47-.44l-.22-3.64c-.01-.18-.13-.34-.29-.4-.17-.06-.28-.22-.3-.4l-.23-2.81c-.02-.23.13-.44.36-.49l.23-.05c.16-.03.31,0,.43.12l.32.32c.18.18.48.18.66,0l.33-.32c.11-.11.27-.16.42-.12l.23.05c.21.06.36.27.35.5Zm1.79,7.68c0,.12-.1.22-.23.22s-.23-.1-.23-.22v-10.09c0-.13.1-.23.23-.23s.23.1.23.23v10.09Zm4.66-4.48c-.16.04-.26.19-.24.35l.1.72c.02.17-.1.33-.26.35l-.21.03c-.15.02-.26.15-.27.29l-.14,2.31c-.02.25-.22.44-.47.44h-.31c-.25,0-.45-.19-.47-.44l-.14-2.31c0-.15-.12-.27-.27-.29l-.21-.03c-.17-.02-.29-.19-.26-.35l.1-.72c.02-.16-.08-.31-.24-.35-.16-.04-.26-.2-.23-.37l.63-3c.04-.21.29-.32.47-.2l.6.38c.1.07.23.07.34,0l.59-.38c.19-.12.43-.02.48.2l.64,3c.03.16-.07.32-.24.37Z"/><path class="cls-18" d="m376.69,321.3c.31.21.68.31,1.1.32.43,0,.83-.11,1.21-.32.38-.21.7-.49.96-.86.26-.36.43-.78.51-1.25.05-.38,0-.73-.15-1.05-.16-.32-.39-.59-.7-.78-.31-.2-.68-.3-1.11-.31-.43,0-.83.11-1.21.31-.38.2-.69.46-.95.78-.26.32-.42.67-.48,1.05-.07.47-.03.89.11,1.25.15.36.38.65.69.86Z"/><path class="cls-18" d="m349.45,317.01c-.22-.03-.47-.05-.75-.04h-.36l-.32,2.03h.36c.26,0,.5,0,.74-.04.23-.03.43-.12.6-.26.17-.14.28-.37.33-.7.05-.34.02-.58-.1-.72-.11-.15-.28-.24-.51-.27Z"/><path class="cls-18" d="m363.97,309.71c-13.06,0-23.65,4.31-23.65,9.63s10.59,9.63,23.65,9.63,23.65-4.31,23.65-9.63-10.59-9.63-23.65-9.63Zm9.72,9.48c.14-.83.47-1.55.99-2.18.52-.63,1.15-1.12,1.88-1.47.73-.35,1.5-.53,2.29-.54.79,0,1.5.19,2.12.54.62.35,1.09.84,1.41,1.47.32.63.42,1.35.3,2.18-.15.88-.46,1.66-.95,2.33-.49.67-1.1,1.2-1.84,1.58-.73.38-1.54.57-2.42.58-.87,0-1.62-.2-2.23-.58-.61-.38-1.06-.91-1.34-1.58-.28-.67-.35-1.45-.22-2.33Zm-22.51.86c-.56.45-1.31.67-2.24.66h-1.2l-.43,2.7h-2.11l1.29-8.13h3.24c.59,0,1.09.09,1.5.28.41.19.71.48.9.88.18.39.23.9.14,1.52-.16.95-.51,1.65-1.08,2.1Zm7.6-1.62l-.28,1.79h-3.62l-.22,1.4h3.75l-.28,1.79h-5.86l1.29-8.13h5.86l-.28,1.79h-3.75l-.21,1.36h3.62Zm7.51-.48c-.16.95-.52,1.65-1.08,2.1-.57.45-1.31.67-2.24.66h-1.2l-.43,2.7h-2.11l1.29-8.13h3.24c.59,0,1.09.09,1.5.28.41.19.71.48.9.88.19.39.23.9.14,1.52Zm.41,1.41c.09-.56.28-1.1.56-1.61.28-.51.65-.97,1.11-1.37.47-.41,1-.73,1.57-.97.58-.23,1.15-.35,1.73-.35.67,0,1.29.14,1.87.41l-.4,2.53c-.18-.29-.41-.51-.71-.67-.3-.15-.64-.23-1-.23-.43,0-.83.11-1.18.3-.36.2-.65.47-.88.8-.23.34-.38.72-.46,1.15-.09.65.02,1.18.36,1.59.33.4.83.61,1.49.62.35,0,.7-.08,1.04-.23.34-.15.65-.36.92-.63l-.4,2.53c-.36.11-.69.2-.99.27-.3.07-.61.11-.93.11-.57,0-1.1-.11-1.59-.31-.49-.21-.91-.5-1.28-.89-.38-.41-.64-.87-.77-1.39-.13-.52-.15-1.08-.05-1.68Zm3.64,8.65c-4.81.55-4.32.42-.08-.24,8.44-1.31,14.91-4.82,14.91-8.99,0-1.3-.53-2.78-1.79-3.86.77.46,1.66,1.07,2.12,1.75.61.79.95,1.81.95,2.7,0,4.17-7.21,7.62-16.12,8.64Z"/><path class="cls-18" d="m363.47,317.01c-.23-.03-.48-.05-.75-.04h-.36l-.32,2.03h.35c.26,0,.51,0,.74-.04.24-.03.44-.12.6-.26.17-.14.28-.37.33-.7.05-.34.02-.58-.1-.72-.11-.15-.28-.24-.51-.27Z"/><path class="cls-18" d="m351.96,309.68c27.72-5.84,39.21,3.55,37.88,9.66-.02.09-.03.18-.04.27,4.08-6.11,1.11-17.16-20.28-14.77-4.59.51-11.42,2.46-17.55,4.84"/><path class="cls-18" d="m375.97,328.99c-27.72,5.84-39.21-3.54-37.88-9.65.02-.09.02-.18.04-.27-4.08,6.11-1.11,17.16,20.28,14.76,4.59-.51,11.42-2.46,17.55-4.84"/><path d="m724.63,437.95c0-.53,0-1.06,0-1.59,0-.28.05-.42.28-.51,2.13-.83,4.29-1.5,6.52-1.69,2.03-.17,4,.32,5.96.93.71.22,1.41.49,2.11.76.11.04.26.22.26.34.01,1.23.05,2.46-.03,3.68-.11,1.72-.8,3.12-1.71,4.35-1.57,2.12-3.52,3.5-5.61,4.57-.1.05-.28.05-.38,0-2.06-1.05-3.98-2.4-5.55-4.44-.95-1.24-1.66-2.68-1.81-4.45-.06-.64-.03-1.94-.04-1.94Zm2.16,4.77l-.02.15c.52.21,1.03.46,1.56.63,1.46.48,2.94.68,4.41.05,1.2-.51,1.44-1.8.57-2.95-.74-.97-1.65-1.59-2.63-2.08-.36-.18-.72-.34-1.13-.54.61-1.15,1.62-1.23,2.46-1.73-1.41.02-2.8.15-4.11.84-.31.16-.61.38-.87.65-.32.34-.3.91.04,1.23.87.81,1.91.88,2.91,1.14l.07-.16c-.43-.6-.86-1.2-1.26-1.75.57.24,1.64,1.65,1.8,2.42.16.79-.06,1.44-.65,1.76-.33.17-.69.31-1.04.33-.7.05-1.41.02-2.11.02Zm8.07-5.59c1.5,1.81,1.82,3.35.95,4.07-.14-.55-.2-1.19-.44-1.68-.32-.63-.78-1.15-1.18-1.71-.42-.59-.96-.78-1.56-.62-.51.13-1.01.27-1.52.42-.09.03-.17.11-.31.2.18.07.28.1.38.14.96.36,1.85.88,2.58,1.77,1.01,1.23,1.03,2.66.06,3.94-.17.23-.37.43-.55.64,1.11-.32,2.2-.7,3.16-1.48.45-.37.89-.83,1.23-1.35.23-.35.37-.88.38-1.34.05-1.73-1.72-3.39-3.18-2.99Z"/><path d="m724.64,444c1.54,4.11,4.32,6.26,7.32,8.06.14.08.35.09.48.02,1.95-1.1,3.75-2.5,5.3-4.4.85-1.05,1.54-2.24,1.99-3.68.32,3.02-.53,5.41-2.21,7.38-1.48,1.74-3.2,2.98-5.05,3.94-.13.07-.32.08-.45.02-1.93-.98-3.73-2.26-5.25-4.12-1.69-2.08-2.16-3.66-2.13-7.21Z"/><path d="m714.68,446.44c-.48,0-.87.02-1.26-.01-.11,0-.23-.16-.3-.28-.3-.49-.59-1.01-.89-1.5-.07-.12-.2-.25-.31-.26-.62-.02-1.24,0-1.91,0v2.03s-1.17,0-1.17,0c0-1.96,0-3.92,0-5.9.02-.01.05-.05.09-.05,1.33,0,2.66-.04,3.99,0,.83.03,1.37.63,1.51,1.51.16,1.01-.11,1.68-.91,2.22-.02.01-.03.05-.06.11.4.68.8,1.36,1.25,2.14Zm-4.66-4.61v1.18c.92,0,1.81,0,2.7-.01.27,0,.49-.15.49-.58,0-.38-.18-.58-.45-.59-.91-.02-1.82,0-2.74,0Z"/><path d="m688.84,445.31c.16-.26.32-.5.47-.75.05-.08.14-.1.2-.04.89.7,1.84.87,2.85.72,0,0,0,0,.01,0,1.81-.3,1.8-.92-.01-1.19-.06,0-.13-.02-.19-.03-.64-.08-1.27-.12-1.91-.2-.18-.02-.36-.11-.54-.2-.86-.46-1.06-1.8-.3-2.5.41-.38.95-.6,1.46-.71,1.06-.22,2.1-.06,3.07.58.09.06.17.13.29.22.09.07.1.23.02.32-.19.22-.36.42-.55.59-.08.07-.24.06-.34,0-.83-.46-1.69-.57-2.58-.39-.16.03-.39.12-.47.31s.13.38.27.4c.59.1,1.2.13,1.79.23.45.08.9.17,1.32.37.99.48,1.16,2.07.28,2.86-.33.29-.74.5-1.13.58-1.34.28-2.66.17-3.86-.77-.04-.03-.08-.07-.13-.12-.07-.07-.08-.2-.03-.28Z"/><path d="m752.03,445.39c.23-.37.44-.7.66-1.07.91.76,1.9.97,2.94.82.21-.03.43-.09.61-.21.14-.09.31-.31.3-.46,0-.15-.2-.36-.34-.41-.29-.1-.6-.13-.91-.16-.58-.07-1.17-.11-1.75-.19-.19-.03-.38-.11-.55-.21-.82-.45-.96-1.9-.22-2.54.4-.34.9-.55,1.38-.65,1.03-.22,2.04-.08,3,.51.16.1.31.23.48.36-.04.08-.06.12-.08.16-.35.61-.7.89-1.35.5-.68-.42-1.46-.37-2.2-.17-.08.02-.16.08-.23.15-.12.11-.11.34.01.44.08.06.15.11.23.12.74.13,1.48.19,2.22.31.27.04.55.15.8.29.9.5,1.08,1.95.32,2.76-.23.24-.52.44-.8.54-1.31.43-2.61.35-3.87-.36-.23-.13-.43-.32-.68-.5Z"/><path d="m768.28,446.32v-5.95c.49,0,.99-.02,1.49.01.1,0,.21.2.29.32.87,1.29,1.74,2.58,2.67,3.97v-4.29s1.2,0,1.2,0v5.96c-.48,0-.96.02-1.43-.01-.11,0-.22-.17-.3-.29-.8-1.19-1.6-2.38-2.4-3.57-.08-.13-.17-.25-.32-.45v4.29s-1.2,0-1.2,0Z"/><path d="m704.58,440.27c.79,0,1.52.22,2.16.79,1.19,1.06,1.36,3.28.28,4.52-1.23,1.41-3.59,1.41-4.84.03-1.1-1.21-.95-3.44.22-4.52.64-.59,1.38-.82,2.18-.82Zm-.03,5.01c.5,0,1.01-.19,1.43-.53.78-.62.71-1.97,0-2.63-.74-.69-2.09-.68-2.83.02-.75.71-.71,2.05.08,2.67.39.31.85.46,1.32.46Z"/><path d="m763.91,446.53c-.66-.02-1.41-.23-2.06-.85-1.14-1.08-1.26-3.26-.2-4.46,1.36-1.53,3.92-1.43,5.11.33.82,1.22.6,3.07-.39,4.06-.6.6-1.38.91-2.46.91Zm-.4-1.44c.38.13.79.13,1.17-.01.27-.1.54-.21.77-.39.8-.62.79-1.95.04-2.65-.74-.69-2.09-.69-2.83,0-.77.73-.76,2.06.07,2.67.24.17.5.28.78.38Z"/><path d="m696.58,444.41v2.03s-1.18,0-1.18,0v-5.98s.31.01.31.01c1.17,0,2.34-.03,3.51.01.38.01.8.14,1.14.37.56.39.73,1.1.65,1.88-.08.82-.47,1.34-1.08,1.52-.4.12-.81.13-1.22.14-.69.02-1.38,0-2.13,0Zm.01-1.36c.91,0,1.77,0,2.63-.01.29,0,.58-.1.58-.59,0-.5-.28-.61-.6-.62-.77-.01-1.54,0-2.31,0h-.3s0,1.22,0,1.22Z"/><path d="m742.96,440.39c.44,0,.8-.03,1.15.01.12.02.27.19.34.34.55,1.2,1.09,2.42,1.63,3.63.06.14.14.28.23.47.6-1.36,1.19-2.65,1.74-3.96.16-.38.33-.52.68-.51.27,0,.53,0,.86,0-.15.38-.23.51-.39.84-.71,1.39-1.46,3.25-1.97,4.38-.23.57-.35.75-.71.81-.63.1-.97-.22-1.26-.93-.71-1.69-1.5-3.33-2.3-5.09Z"/><polygon points="717.14 441.79 714.94 441.8 714.94 440.47 720.52 440.46 720.52 441.79 718.33 441.79 718.33 446.41 717.15 446.41 717.14 441.79"/><rect x="750.07" y="440.41" width="1.16" height="5.93" transform="translate(-.75 1.27) rotate(-.1)"/><rect x="758.69" y="440.4" width="1.16" height="5.93" transform="translate(-.75 1.28) rotate(-.1)"/><path class="cls-14" d="m534.64,201.11v-2.96h2.52c.06,0,.06.01.06.07v.77c0,.05-.02.06-.06.06h-2c-.11,0-.13,0-.13.13v.58c0,.11.02.13.13.13h3.04c.12,0,.13-.01.13-.13v-1.68c0-.45,0-.78-.65-.78h-3.59c-.1,0-.12.13-.12.13,0,0,0-.13-.11-.13h-4.79c-.66,0-.65.15-.65.84v3.17h-.58c-.13,0-.13-.02-.13-.13v-3.73c0-.14-.03-.15-.13-.15h-.91c-.11,0-.13,0-.13.13v3.82h-2v-3.1h1.36c.08,0,.13,0,.13-.14v-.58c0-.12-.03-.13-.13-.13h-1.36v-2.39c0-.17-.06-.19-.17-.19h-.84c-.18,0-.16.06-.16.19v2.33c0,.07.02.06-.06.06h-.45c-.13,0-.13.03-.13.13v.58c0,.13.04.13.13.13h.45c.09,0,.06.01.06.06v2.97c0,.05,0,.06-.06.06h-2.33c-.05,0-.06,0-.06-.06v-3.04h1.36c.13,0,.13,0,.13-.13v-.57c0-.12-.01-.14-.16-.14h-1.33v-2.39c0-.1-.02-.19-.13-.19h-.91c-.11,0-.13.05-.13.19v2.39h-5.3c-.77,0-.71.56-.71.91v2.46c0,.17.02.19.13.19h.9c.12,0,.14-.03.14-.18v-2.47c0-.07.02-.06.06-.06h4.79v3.23c0,.63.33.71.58.71h12.29c.1,0,.13-.01.13-.13v-.51c0-.07-.02-.13-.15-.13h-2.95c-.06,0-.06,0-.06-.06v-3.1h3.88v3.23c0,.4,0,.71.84.71h9.57c.19,0,.19,0,.19-.14v-4.52c0-.1-.02-.13-.13-.13h-.9c-.1,0-.13.02-.13.13v3.88h-.65c-.13,0-.13,0-.13-.13v-6.27c0-.16,0-.19-.13-.19h-.93c-.08,0-.1,0-.1.19v6.34s0,.06-.06.06h-.52c-.18,0-.19,0-.19-.19v-6.27c0-.12,0-.13-.06-.13h-.97c-.07,0-.06.02-.06.14v6.46c-1.36,0-2.84,0-4.21,0-.28,0-.25.03-.25-.21h0Zm-37.18-6.19v2.33s0,.06-.06.06h-4.79c-.72,0-.71.65-.71.65v2.85c0,.07.01.07.06.06h.97c.05,0,.06,0,.06-.06v-2.59c0-.06.01-.06.06-.06h4.4v3.82c0,.13.02.13.13.13h5.88c.12,0,.71.04.71-.72v-2.71c0-.08-.01-.12-.13-.12h-.91c-.13,0-.13.04-.13.13v2.52c0,.07-.02.07-.06.06h-4.25c-.07,0-.08,0-.08-.07v-6.27c0-.16,0-.2-.13-.19h-.92c-.1,0-.11,0-.12.19h0Zm12.61,2.52v.58c0,.08.05.13.13.13h1.68v3.1s0,.06-.06.06h-4.78c-.07,0-.06,0-.06.06v.58c0,.15.06.13.13.13h5.24c.12,0,.11-.19.12-.19,0,0,.02.19.14.19h5.17c.86,0,.84-.43.84-.71v-2.72c0-.06,0-.13-.13-.13h-.91c-.11,0-.13.03-.13.13v2.52s0,.06-.06.06h-4.33v-3.17c0-.32-.11-.78-.65-.78h-2.2c-.09,0-.13.05-.13.13h0Zm-23.54-.06v.71c0,.05,0,.07.06.06h3.33s.04,0,.04.04v3.66c0,.14.09.24.2.24h5.82c.17,0,.71.08.71-.58v-2.91c0-.05,0-.06-.13-.06h-.84c-.14,0-.13.02-.13.13v2.52c0,.05,0,.06-.06.06h-4.33s-.07.01-.06-.06v-3.17c0-.45-.02-.7-.65-.71h-3.88c-.06,0-.06,0-.06.06h0Zm-5.69.06v.58c0,.15.1.13.19.13h3.35c.1,0,.08-.01.08.1v3.01c0,.06,0,.06-.06.06h-1.88c-.05,0-.06,0-.06.06v.58c0,.12.02.13.13.13h2.33c.11,0,.14-.16.16-.16.03,0,0,.17.16.16h2.07c.21,0,.25-.04.26-.26v-1.88c0-.06,0-.07.06-.06h1.49c.11,0,.12,0,.13-.06v-.71c0-.06-.05-.06-.13-.06h-2c-.72.01-.69.65-.71.65v1.51s0,.04-.03.04h-.61c-.06,0-.06-.01-.06-.06v-2.78c.02-.64.02-1.1-.65-1.1h-4.01c-.12,0-.19.05-.19.13h0Zm18.49.65v2.65c0,.13.04.13.13.13h.91c.15,0,.13-.07.13-.16v-2.56h5.04c.11,0,.13,0,.13-.13v-.58c0-.1,0-.13-.13-.13h-5.49c-.51.01-.72,0-.72.78h0Zm8.92-3.17v5.63c0,.05-.01.06.06.06h1.03c.06,0,.06,0,.06-.06v-5.63c0-.13-.02-.19-.13-.19h-.87c-.09,0-.16.04-.16.19h0Zm-27.42,4.2v4.59c0,.13.03.13.13.13h.97c.13,0,.14-.05.13-.19v-4.53c0-.06-.02-.12-.13-.13h-.98c-.08,0-.12.03-.12.13h0Zm45.88-3.13h.83c.09,0,.16-.07.16-.16v-.94c0-.09-.07-.16-.16-.16h-.83c-.09,0-.16.07-.16.16v.94c0,.09.07.16.16.16h0Zm16.37,0h.83c.09,0,.16-.07.16-.16v-.94c0-.09-.07-.16-.16-.16h-.83c-.09,0-.16.07-.16.16v.94c0,.09.07.16.16.16h0Z"/><path class="cls-14" d="m334.28,50.26c0,.78-.2,2.91-.21,4.08,0,.91.07,1.64.11,1.92.13-.09.25-.2.37-.3,0-.38.05-1.44.38-3.42.28-1.64.32-2.56.32-3-.32-.45-.71-.84-1.16-1.16.08.45.19,1.28.18,1.88h0Z"/><path class="cls-14" d="m335.06,52.59c-.31,1.76-.39,2.8-.41,3.27.92-.89,1.49-2.13,1.49-3.51,0-.95-.27-1.84-.75-2.59-.01.49-.08,1.38-.34,2.83h0Z"/><path class="cls-14" d="m333.97,54.34c0-1.17.17-3.3.17-4.08,0-.66-.14-1.61-.23-2.01-.76-.49-1.66-.77-2.63-.77-.44,0-.86.06-1.26.17l.67,2.61-.53-.28c-.1-.62-.29-1.41-.69-2.14-.14.06-.28.12-.41.19.31.63.46,1.2.52,1.65l-.77-.41-.07-1.05c-.15.09-.29.19-.43.3v1.22s-.76-.48-.76-.48c-.08.1-.16.2-.24.31l1.36.98-.57.29-.2-.05-.79-.93c-.06.1-.12.2-.17.31l.53.98-1,.51c-.02.14-.04.29-.04.44l1.38-.54.14.16-1.53.79s0,.09,0,.14l1.28.61-1.05.63c.07.21.15.4.24.6l.85.03-.26.9c.15.19.31.36.49.52l1.33-1.09.02.3-1.14.98c.14.12.29.23.45.33l.74-.61.07,1.03c.57.23,1.19.36,1.84.36,1.06,0,2.04-.34,2.83-.91-.03-.23-.14-1.01-.14-1.98h0Z"/><path class="cls-24" d="m328.85,50.07l-.02-.27.77.46c0,.1,0,.19-.02.26l-.74-.46h0Z"/><path class="cls-24" d="m330.22,50.65l.65.39.09.37-.73-.46c0-.08,0-.18-.01-.3h0Z"/><polygon class="cls-24" points="328.9 51.11 329.26 50.97 330.37 51.76 329.38 51.8 328.9 51.11 328.9 51.11"/><path class="cls-24" d="m331.55,51.85l-.4-1.59.33-.23-.02-.42-.44.11-.16-.62c.16-.11.53-.39.69-.69l-.16-.33s-.38.31-.68.4l-.13-.53c.23-.04.47-.06.71-.06.9,0,1.74.27,2.44.73-.03,1.04-.15,2.08-.3,3.12-.93.22-1.88.11-1.88.11h0Z"/><polygon class="cls-24" points="329.67 52.33 330.14 52.32 330.13 52.54 329.8 52.62 329.67 52.33 329.67 52.33"/><polygon class="cls-24" points="329.77 55.07 329.74 54.36 329.95 54.12 330.51 54.8 330.26 55.46 329.77 55.07 329.77 55.07"/><polygon class="cls-24" points="329.79 55.84 330.04 56.03 329.82 56.63 329.79 55.84 329.79 55.84"/><path class="cls-24" d="m330.29,56.55l.12-.25.46.34c-.2-.02-.39-.05-.58-.1h0Z"/><path class="cls-24" d="m331.25,56.66v-.23s0-.16,0-.16l-.6-.48.27-.56.37.27.02-.63-.99-1.19.34-.3.67,1.2.04-1-.24-.62.26-.23,1.88.06c-.18,1.2-.34,2.39-.38,3.58-.5.2-1.04.31-1.61.31-.01,0-.02,0-.04,0h0Z"/><path class="cls-14" d="m333.77,80.23c.47,0,.44.22.44.44,0,.17.03.67-.84,1.03-.1.01-.38,0-.45-.32,0,0-.6-1.53-.69-1.71-.09-.18-.4-.2-.64-.2s-2.11.38-2.11,1.82,1.55,2,3.24,2,2.98-.8,2.98-2.24-.91-1.67-1.49-1.67c-.67,0-.82.84-.44.84h0Z"/><path class="cls-14" d="m335.08,95.17c-.13.22-.29.27-.44.27h-4.57c-.4,0-.53.18-.53.29,0,.27.53,1.51.69,1.8.16.29.36.07.42-.07.07-.13.13-.24.49-.24h3.51c.16,0,.31.04.44.27.03.05.06.07.11.09-.05.02-.1.06-.15.13-.24.33-.36.29-.64.29h-6.31c-.33,0-.6.02-.6-.16,0-.44.84-.69,1.42-.93.58-.24.27-1.04-.13-.95-.4.09-1.53.27-1.93.36-.4.09-.67.24-.67.4,0,.16.24.42.24.42l.03,1.88-.03,1.88s-.24.27-.24.42c0,.16.27.31.67.4.4.09,1.53.27,1.93.36.4.09.71-.71.13-.95-.58-.24-1.42-.49-1.42-.93,0-.18.27-.16.6-.16h6.31c.29,0,.4-.04.64.29.24.33.51.04.51-.49v-1.63c0-.33-.1-.57-.23-.62.12-.04.23-.16.23-.31v-1.87c0-.24-.33-.44-.46-.22h0Z"/><path class="cls-14" d="m335.08,73.34c-.13.22-.29.27-.44.27h-7.57c-.4,0-.53.18-.53.29,0,.27.53,1.51.69,1.8.16.29.36.07.42-.07.07-.13.13-.24.49-.24h1.69c-.16.12-.26.31-.26.62,0,1.05.76.88.92,1.46h-.42c-.4,0-.53.18-.53.29,0,.27.53,1.51.69,1.8.16.29.36.07.42-.07.07-.13.13-.24.49-.24h3.51c.16,0,.31.04.44.27.13.22.46.02.46-.22v-1.87c0-.24-.33-.44-.46-.22-.13.22-.29.27-.44.27h-2.28c-.45-.14-1.35-.48-1.35-1,0-.22.6-.16.6-.67,0-.12-.25-.3-.58-.42h3.61c.16,0,.31.04.44.27.13.22.46.02.46-.22v-1.87c0-.24-.33-.44-.46-.22h0Z"/><path class="cls-14" d="m335.08,63.88c-.13.22-.29.27-.44.27-.31,0-5.04-.1-5.04,1.66,0,.55.37.65.53.93h-.06c-.4,0-.53.18-.53.29,0,.27.53,1.51.69,1.8.16.29.36.07.42-.07.07-.13.13-.24.49-.24h3.51c.15,0,.3.04.43.24-.19.03-.41.19-.41.35,0,.18-.16.22-.36.22s-.29,0-2.49.18c-2.2.18-2.13,1.11-2.13,2.09s.47,1.82,1.22,1.82.82-.49.82-.87c0-.38-.09-.67-.58-.67s-.64.31-.64.31c0,0-.04-.16-.04-.51s.56-.56,1.04-.56c.4,0,.42.71.56.98.46.92,1.2,1.38,2.11,1.38s1.37-.53,1.37-.71v-1.55c0-.36-.2-.51-.2-.62s.2-.18.2-.31v-.98c0-.3-.05-.44-.12-.51.07-.06.12-.15.12-.24v-1.87c0-.24-.33-.44-.46-.22-.13.22-.29.27-.44.27h-3.46c-.14,0-.34-.18-.34-.37,0-.47,3.31-.62,3.8-.62.16,0,.31.04.44.27.13.22.46.02.46-.22v-1.68c0-.24-.33-.44-.46-.22h0Z"/><path class="cls-14" d="m329.44,85.14c0,.49.22.4.31.75h-2.84c-.4,0-.53.18-.53.29,0,.27.53,1.39.69,1.68.16.29.47.07.53-.07.07-.13.13-.13.49-.13h6.64c.19,0,.33-.01.44-.03-.03.01-.06.04-.09.08-.13.22-.29.27-.44.27-.31,0-5.04-.1-5.04,1.66,0,.64.48.67.58,1.07-.36.17-.65.48-.65,1,0,.87.51.76.62,1.2h-.09c-.4,0-.53.18-.53.29,0,.27.53,1.51.69,1.8.16.29.36.07.42-.07.07-.13.13-.24.49-.24h3.51c.16,0,.31.04.44.27.13.22.46.02.46-.22v-1.87c0-.24-.33-.44-.46-.22-.13.22-.29.27-.44.27h-3.32c-.34,0-.57-.25-.57-.44,0-.2.13-.36.53-.36h3.35c.16,0,.31.04.44.27.13.22.46.02.46-.22v-1.68c0-.24-.33-.44-.46-.22-.13.22-.29.27-.44.27,0,0-3.56,0-3.57,0-.12,0-.23-.17-.23-.32,0-.47,3.31-.62,3.8-.62.16,0,.31.04.44.27.13.22.46.02.46-.22v-1.68c0-.17-.16-.31-.3-.32.33-.08.3-.23.3-.33,0-.13.08-.26-.53-.62-.11-.07-.04-.22.18-.42.22-.2.49-.31.49-1.15s-.13-1.75-3.18-1.75c-2.4,0-3.06,1.31-3.06,1.8h0Z"/><path class="cls-14" d="m335.08,59.4c-.13.22-.29.27-.44.27h-7.37c-.4,0-.53.18-.53.29,0,.19.36.79.57,1.27.09.21.07.44.11.53.16.29.36.07.42-.07.07-.13.13-.24.49-.24h1.75c-.11.12-.33.42-.33.85,0,.58,1.09,1.75,3.38,1.75.95,0,1.64-.29,2.07-.47.42-.18.35-.38.35-.67v-3.29c0-.24-.33-.44-.46-.22h0Z"/><polygon class="cls-24" points="328.53 53.56 328.4 53.98 329.17 53.94 328.53 53.56 328.53 53.56"/><polygon class="cls-24" points="329.2 53.31 329.72 53.53 330.06 53.18 329.2 53.31 329.2 53.31"/><polygon class="cls-24" points="329.27 52.7 328.97 52.29 328.15 52.15 327.38 52.52 328.35 52.94 329.27 52.7 329.27 52.7"/><polygon class="cls-24" points="327.93 53.8 327.53 54.03 327.91 54.01 327.93 53.8 327.93 53.8"/><polygon class="cls-24" points="328.21 54.56 327.97 55.29 328.73 54.53 328.21 54.56 328.21 54.56"/><path class="cls-24" d="m330.37,85.36c0-.4,1.33-.58,2-.58s1.82.18,1.82.62-1.35.51-1.82.51-2-.16-2-.56h0Z"/><path class="cls-24" d="m330.31,81.63c0-.2.62-.64,1.22-.64s.78.51.78.76c0,.1-.01.23-.11.24-1.7.22-1.89-.16-1.89-.36h0Z"/><path class="cls-24" d="m332.55,71.04h1.78c.2,0,.44.04.44.31,0,.27-.09.53-.98.53s-1.24-.38-1.24-.84h0Z"/><path class="cls-24" d="m330.77,62.02c0-.24.71-.67,1.98-.67s1.82.31,1.82.51c0,.2-.51.64-1.8.64s-2-.33-2-.49h0Z"/><path class="cls-14" d="m327.63,63.79c-.26,0-.45-.21-.45-.46,0-.25.19-.46.45-.46s.45.21.45.46c0,.25-.19.46-.45.46h0Z"/><path class="cls-24" d="m328.01,63.33c0-.2-.16-.37-.38-.37s-.38.16-.38.37c0,.21.16.37.38.37s.38-.16.38-.37h0Z"/><path class="cls-14" d="m327.89,63.43v.08h-.52v-.2c0-.12.05-.18.15-.18.09,0,.13.06.14.14l.23-.15v.09l-.23.14v.09s.23,0,.23,0h0Z"/><path class="cls-24" d="m327.6,63.33c0-.07,0-.13-.09-.13-.06,0-.08.06-.08.11v.11s.16,0,.16,0v-.09h0Z"/><polygon class="cls-18" points="140.45 250.22 139.84 250.22 131.41 227.8 135.12 227.8 140.2 242.01 140.24 242.01 145.31 227.8 148.9 227.8 140.45 250.22"/><polygon class="cls-18" points="64.57 227.8 64.57 231.46 56.41 231.46 56.41 236.98 64.04 236.98 64.04 240.51 56.41 240.51 56.41 246.13 65.32 246.13 65.32 249.79 53.18 249.79 53.18 227.8 64.57 227.8"/><polygon class="cls-18" points="104.63 227.8 104.63 231.46 96.47 231.46 96.47 237.14 104.09 237.14 104.09 240.67 96.47 240.67 96.47 246.13 105.37 246.13 105.37 249.79 93.23 249.79 93.23 227.8 104.63 227.8"/><polygon class="cls-18" points="165.9 227.8 165.9 231.46 157.74 231.46 157.74 237.19 165.37 237.19 165.37 240.71 157.74 240.71 157.74 246.13 166.65 246.13 166.65 249.79 154.51 249.79 154.51 227.8 165.9 227.8"/><path class="cls-18" d="m179.31,246.18c3.67,0,5.33-2.45,5.33-7.39s-1.66-7.4-5.33-7.4h-2.42v14.78h2.42Zm-5.65,3.61v-21.99h5.65c5.64,0,8.54,4.55,8.54,11s-2.89,11-8.54,11h-5.65Z"/><path class="cls-18" d="m85.12,230.15l-1.52,2.8c-1.35-1.18-2.78-1.85-4.53-1.85-2.41,0-3.13,1.23-3.13,2.38,0,3.93,9.68,1.65,9.68,9.42,0,4.25-2.77,7.19-6.69,7.19-2.72,0-5.06-1.11-6.97-3.94l1.74-2.67c1.6,1.98,3.2,2.99,5.28,2.99,2.41,0,3.59-1.53,3.59-3.2,0-4.7-9.92-1.54-9.92-9.56,0-3.52,2.67-6.2,6.47-6.2,2.44,0,4.69,1.14,6.01,2.65Z"/><path class="cls-18" d="m46.5,249.71l-.28-3.22c-.26.07-.56.1-.9.1-1.36,0-2.04-.55-2.85-2.25-.3-.63-.63-1.4-.91-2-.32-.67-.53-.96-.85-1.23,2.38-.76,4.06-3.07,4.06-6.57,0-3.9-2.12-6.75-6.16-6.75h-6.78v21.99h3.23v-8.07h1.45c.82,0,1.19.39,1.54,1.1.33.68,1.47,3.18,1.47,3.18,1.44,3.02,3.05,4.04,5.2,4.04.77,0,1.42-.17,1.78-.32Zm-7.87-11.33h-3.58v-7.06h3.55c2.03,0,2.97,1.31,2.97,3.39,0,2.58-1.27,3.67-2.94,3.67"/><path class="cls-18" d="m127.99,249.71l-.28-3.22c-.25.07-.55.1-.9.1-1.36,0-2.04-.55-2.85-2.25-.3-.63-.63-1.4-.91-2-.32-.67-.53-.96-.85-1.23,2.38-.76,4.06-3.07,4.06-6.57,0-3.9-2.12-6.75-6.16-6.75h-6.78v21.99h3.23v-8.07h1.45c.82,0,1.2.39,1.55,1.1.33.68,1.47,3.18,1.47,3.18,1.44,3.02,3.04,4.04,5.19,4.04.77,0,1.42-.17,1.77-.32Zm-7.86-11.33h-3.58v-7.06h3.55c2.03,0,2.97,1.31,2.97,3.39,0,2.58-1.27,3.67-2.94,3.67"/><text class="cls-9" transform="translate(694.51 197.67) scale(.85 1)"><tspan x="0" y="0">SK</tspan><tspan class="cls-49" x="11.72" y="0">E</tspan><tspan class="cls-27" x="17.34" y="0">CHE</tspan><tspan class="cls-41" x="36.89" y="0">R</tspan><tspan x="42.93" y="0">S</tspan></text><text class="cls-4" transform="translate(650.99 463.15) scale(.91 1)"><tspan x="0" y="0">BUZZ</tspan></text><text class="cls-7" transform="translate(66.75 428.48) scale(1.4 1)"><tspan x="0" y="0">IKE</tspan><tspan class="cls-33" x="52.59" y="0">A</tspan></text><text class="cls-16" transform="translate(108.94 321.31) scale(.81 1)"><tspan class="cls-36" x="0" y="0">C</tspan><tspan x="9.78" y="0">OLL</tspan><tspan class="cls-47" x="36.83" y="0">E</tspan><tspan x="44.93" y="0">CTIVE</tspan></text><path class="cls-18" d="m284.14,352.25c0-1.26.83-2.15,1.87-2.15.59,0,1.12.29,1.42.67l-.46.6c-.24-.29-.59-.47-.96-.47-.66,0-1.14.57-1.14,1.34s.46,1.34,1.13,1.34c.38,0,.73-.19.95-.44v-.57h-.97v-.72h1.62v1.71c-.43.53-.99.83-1.61.83-1.07,0-1.84-.9-1.84-2.13Z"/><path class="cls-18" d="m288.01,352.26c0-1.21.81-2.16,1.84-2.16s1.84.96,1.84,2.15-.8,2.14-1.84,2.14-1.83-.94-1.83-2.13Zm2.94-.01c0-.77-.5-1.33-1.1-1.33s-1.1.57-1.1,1.33.48,1.32,1.1,1.32,1.11-.56,1.1-1.32Z"/><path class="cls-18" d="m291.81,350.97v-.8h2.73v.8h-1.01v3.35h-.72v-3.35h-1.01Z"/><path class="cls-18" d="m294.67,352.26c0-1.21.81-2.16,1.84-2.16s1.84.96,1.84,2.15-.8,2.14-1.84,2.14-1.83-.94-1.83-2.13Zm2.94-.01c0-.77-.5-1.33-1.1-1.33s-1.1.57-1.1,1.33.48,1.32,1.1,1.32,1.11-.56,1.1-1.32Z"/><path class="cls-18" d="m276.7,359.49l.34-.65c.21.24.46.37.7.37.41,0,.67-.32.67-.85v-2.57h.71v2.59c0,1.13-.6,1.62-1.32,1.62-.39,0-.79-.16-1.09-.51Z"/><path class="cls-18" d="m279.86,355.78h2.39v.77h-1.68v.89h1.56v.77h-1.56v.93h1.68v.77h-2.39v-4.15Z"/><path class="cls-18" d="m282.54,355.78h.77l.71,2.79.8-2.79h.45l.82,2.79.7-2.79h.77l-1.17,4.15h-.6l-.75-2.72-.75,2.72h-.6l-1.17-4.15Z"/><path class="cls-18" d="m288,355.78h2.39v.77h-1.68v.89h1.56v.77h-1.56v.93h1.68v.77h-2.39v-4.15Z"/><path class="cls-18" d="m291.04,355.78h.71v3.35h1.79v.8h-2.5v-4.15Z"/><path class="cls-18" d="m294,355.78h.71v3.35h1.79v.8h-2.5v-4.15Z"/><path class="cls-18" d="m296.96,355.78h2.39v.77h-1.68v.89h1.56v.77h-1.56v.93h1.68v.77h-2.39v-4.15Z"/><path class="cls-18" d="m301.13,358.42h-.42v1.51h-.71v-4.15h1.35c.83,0,1.21.62,1.21,1.31,0,.5-.21,1-.72,1.22l.85,1.62h-.83l-.75-1.51Zm-.42-.75h.58c.4,0,.55-.28.55-.57s-.17-.56-.49-.56h-.64v1.12Z"/><path class="cls-18" d="m304.65,358.5v1.44h-.71v-1.44l-1.21-2.71h.82l.75,1.82.76-1.82h.82l-1.22,2.71Z"/></g><path id="Galleria_Burgas1.010" class="cls-31" d="m47.34,12.03v59.27H12.23v62.91h78.75v42.83h117.03v-42.03c1.45-9.39,7-16.61,7-16.61l-8.36-5.76h-26.99v-57.92h33.37V12.03H47.34Z"/><path id="Galleria_Burgas1.011" class="cls-31" d="m215.01,22v34.48h-33.52v54.2h25.3l9.05,6.37c5.85-6.43,14.56-10.99,19.92-12.67h43.51V39.27h10.19v-17.27h-74.44Z"/><polygon id="Galleria_Burgas1.012" class="cls-31" points="291.48 22 305.73 22 305.73 43.9 312.13 43.9 312.13 104.24 280.82 104.24 280.82 41.16 291.48 41.16 291.48 22"/><rect id="Galleria_Burgas1.016" class="cls-31" x="313.73" y="43.9" width="31.89" height="60.34"/><rect id="Galleria_Burgas1.016B" class="cls-31" x="347.33" y="43.9" width="20.8" height="60.34"/><rect id="Galleria_Burgas1.017_1.017A" class="cls-31" x="379.45" y="11.33" width="48.69" height="92.91"/><rect id="Galleria_Burgas1.019" class="cls-31" x="485.72" y="43.98" width="26.29" height="60.26"/><rect id="Galleria_Burgas1.020" class="cls-31" x="513.62" y="43.98" width="20.91" height="60.26"/><rect id="Galleria_Burgas1.024" class="cls-31" x="547.28" y="44.81" width="18.8" height="59.93"/><polygon id="Galleria_Burgas1.025" class="cls-31" points="567.68 44.81 567.68 104.74 611.33 104.74 611.33 22.19 579.1 22.19 579.1 44.81 567.68 44.81"/><polygon id="Galleria_Burgas1.026_NAD_15" class="cls-31" points="612.93 104.74 685.05 104.74 685.05 132.24 745.05 132.24 745.05 106.07 778.3 106.07 778.3 11.33 612.93 11.33 612.93 104.74"/><rect id="Galleria_Burgas1.027" class="cls-31" x="684.82" y="143.9" width="60.34" height="33.37"/><rect id="Galleria_Burgas1.027A" class="cls-31" x="684.82" y="178.87" width="60.34" height="31.09"/><polygon id="Galleria_Burgas1.028" class="cls-31" points="684.82 211.67 684.82 308.47 746.76 308.47 746.76 320.93 778.3 320.93 778.3 168.24 746.65 168.24 746.65 211.67 684.82 211.67"/><rect id="Galleria_Burgas1.032" class="cls-31" x="684.82" y="309.84" width="60.34" height="21.94"/><path id="Galleria_Burgas1.040" class="cls-31" d="m644.96,416.11h-31.69v86.82c28.71,1.69,71.99,2.37,71.99,2.37v-9.07h-40.16l-.14-80.11Z"/><path id="Galleria_Burgas0.042_1.044" class="cls-31" d="m611.7,416.11h-130.96v43.63h-47.98v19.65h-51.44v3.73c55.87,6.64,178.11,18.81,230.38,19.77v-86.79Z"/><polygon id="Galleria_Burgas1.048" class="cls-31" points="413.39 416.11 381.31 416.11 381.31 441.08 390.72 441.08 390.72 443.7 413.39 443.7 413.39 416.11"/><polygon id="Galleria_Burgas1.049" class="cls-31" points="379.65 416.11 347.99 416.11 347.99 479.25 379.65 483.4 379.65 416.11"/><polygon id="Galleria_Burgas1.050" class="cls-31" points="346.19 416.11 307.47 416.11 307.47 473.02 346.19 479.11 346.19 416.11"/><polygon id="Galleria_Burgas1.052" class="cls-31" points="305.59 416.11 280.96 416.11 280.96 468.32 305.59 472.61 305.59 416.11"/><polygon id="Galleria_Burgas1.054" class="cls-31" points="279.42 416.11 257.13 416.11 257.13 463.76 279.2 468.18 279.42 416.11"/><polygon id="Galleria_Burgas0.001C_1.002_NA-Unt" class="cls-31" points="11.12 356.31 11.12 452.83 34.77 452.83 34.77 441.63 48.18 441.63 48.18 507.04 214.96 485.88 214.96 425.73 208.01 425.73 208.01 356.31 47.34 356.31 47.34 364.33 27.58 364.33 27.58 356.31 11.12 356.31"/><polygon id="Galleria_Burgas1.074_NAD_42" class="cls-31" points="612.3 153.86 612.7 210.39 629.84 210.39 629.84 171.06 612.3 153.86"/><polygon id="Galleria_Burgas1.073" class="cls-31" points="610.95 153.86 585.25 153.86 585.25 210.39 611.63 210.39 610.95 153.86"/><path id="Galleria_Burgas1.072" class="cls-31" d="m583.85,210.39h-37.41v-55.82c17.39-.71,37.41-1.03,37.41-1.03v56.84Z"/><path id="Galleria_Burgas1.068" class="cls-31" d="m544.72,154.63v57.15h11.39v32.46h-76.09v-85.99c34.57-3.08,64.7-3.62,64.7-3.62Z"/><path id="Galleria_Burgas1.058" class="cls-31" d="m371.97,229.44v37.05h-55.21l-12.98-9.19c8.55-9.77,18.31-30.15,18.31-30.15l3.87,2.22,46.02.07Z"/><path id="Galleria_Burgas1.096" class="cls-31" d="m296.32,263.92c-2.95,6.53-26.12,21.57-33.38,24.28v20.97h48.62v-33.17l-15.24-12.07Z"/><rect id="Galleria_Burgas1.094" class="cls-31" x="262.94" y="310.62" width="48.62" height="31.69"/><polygon id="Galleria_Burgas1.092_" class="cls-31" points="309.97 343.54 262.94 343.54 262.94 349.61 280.18 366.85 309.97 366.85 309.97 343.54"/><path id="Galleria_Burgas1.088" class="cls-31" d="m313.12,276.1v67.44h-1.56v22.99c41.3-.3,99.78-4.02,99.78-4.02v-86.41h-98.21Z"/><polygon id="Galleria_Burgas1.082" class="cls-31" points="526.6 310.54 526.6 351.76 545.44 349.29 545.44 310.54 526.6 310.54"/><path id="Galleria_Burgas1.081" class="cls-31" d="m546.96,310.54v38.56l11.49-1.48c.49-14.4,4.28-33.45,6.11-37.08h-17.61Z"/><path id="Galleria_Burgas1.080" class="cls-31" d="m526.6,308.77h38.36c3.25-12.03,15.09-31.55,15.09-31.55h-53.44v31.55Z"/><path id="Galleria_Burgas1.077_WAD_32" class="cls-31" d="m557.97,211.89v54.39h31.08c15.51-12.45,25.86-18.1,40.79-20.15v-34.23h-71.87Z"/><rect id="Galleria_Burgas1.005" class="cls-30" x="78.96" y="295.4" width="128.3" height="41.88"/><polygon id="Galleria_Burgas1.007" class="cls-30" points="46.73 337.28 76.73 337.28 76.73 293.43 207.26 293.43 207.26 190.96 77.19 190.96 77.19 147.54 12.23 147.54 12.23 290.45 46.73 290.45 46.73 337.28"/><polygon id="Galleria_Burgas0.070_1.062" class="cls-31" points="478.32 158.32 478.32 253.04 501.1 253.04 501.1 266.5 479.19 266.5 479.19 290.19 412.91 290.19 412.91 266.5 379.7 266.5 379.7 263.45 373.82 263.45 373.82 228.11 326.88 228.11 323.31 226.1 328.27 212.25 331.03 202.1 333.05 191.06 334.15 181.46 334.7 176.87 334.7 173.2 390.9 166.4 432.04 162.18 459.96 159.79 478.32 158.32"/><polygon id="Galleria_Burgas1.035_1.038" class="cls-31" points="685.86 343.7 685.86 387.4 684.23 392.42 681.65 397.73 678 402.21 665.83 411.32 655.86 415.31 649.27 416.11 647.3 416.11 647.3 493.99 687.45 493.99 687.45 504.15 726.77 504.15 746.28 504.15 778.3 502.89 778.3 394.19 768.27 394.19 768.27 398.92 745.16 398.92 745.16 343.7 685.86 343.7"/><polygon id="Galleria_Burgas1.046" class="cls-31" points="448.06 415.95 448.06 457.73 478.54 457.73 478.54 416.19 448.06 415.95"/><polygon id="Galleria_Burgas1.047" class="cls-31" points="424.96 415.95 424.96 442.98 432.83 442.98 432.83 457.48 445.85 457.48 445.85 416.19 424.96 415.95"/><path id="Galleria_Burgas1.018" class="cls-30" d="m429.67,11.83v92.11h54.2v-61.96h19.61V11.46s-73.8.74-73.8.37Z"/><path id="Galleria_Burgas1.083_1.084_1.085_1.086" class="cls-30" d="m412.87,292.1v69.88l32.48-2.31,20.16-1.85,18.47-1.85,24.17-2.46,16.62-2.31v-73.73h-44.79v14.78s-67.34.08-67.11-.15Z"/></svg>