<?xml version="1.0" encoding="UTF-8"?>
<svg id="Layer_4" data-name="Layer 4" xmlns="http://www.w3.org/2000/svg" xmlns:xlink="http://www.w3.org/1999/xlink" viewBox="0 0 789.58 626.98">
  <defs>
    <style>
      .cls-1 {
        font-size: 10.22px;
      }

      .cls-1, .cls-2, .cls-3, .cls-4, .cls-5, .cls-6, .cls-7, .cls-8, .cls-9, .cls-10, .cls-11, .cls-12, .cls-13, .cls-14, .cls-15, .cls-16, .cls-17, .cls-18, .cls-19, .cls-20, .cls-21, .cls-22 {
        font-weight: 700;
      }

      .cls-1, .cls-3, .cls-4, .cls-23, .cls-5, .cls-6, .cls-7, .cls-8, .cls-9, .cls-10, .cls-11, .cls-12, .cls-24, .cls-13, .cls-14, .cls-15, .cls-25, .cls-16, .cls-17, .cls-18, .cls-19, .cls-20, .cls-21, .cls-22 {
        fill: #231f20;
      }

      .cls-1, .cls-3, .cls-4, .cls-5, .cls-6, .cls-7, .cls-8, .cls-10, .cls-11, .cls-12, .cls-13, .cls-14, .cls-15, .cls-16, .cls-17, .cls-18, .cls-19, .cls-20, .cls-21, .cls-22 {
        font-family: MicrosoftYaHei-Bold, 'Microsoft YaHei';
      }

      .cls-26 {
        letter-spacing: -.03em;
      }

      .cls-27 {
        stroke-width: 2px;
      }

      .cls-27, .cls-28, .cls-29, .cls-30 {
        fill: none;
      }

      .cls-27, .cls-28, .cls-30 {
        stroke-miterlimit: 10;
      }

      .cls-27, .cls-30 {
        stroke: #231f20;
      }

      .cls-28 {
        stroke: #000;
      }

      .cls-31 {
        letter-spacing: 0em;
      }

      .cls-32 {
        fill: #f47725;
      }

      .cls-2 {
        fill: #f47825;
        font-family: TrebuchetMS-Bold, 'Trebuchet MS';
        font-size: 28.4px;
      }

      .cls-33 {
        letter-spacing: -.01em;
      }

      .cls-34 {
        letter-spacing: .01em;
      }

      .cls-35 {
        letter-spacing: -.04em;
      }

      .cls-3 {
        font-size: 6.67px;
      }

      .cls-4 {
        font-size: 5.83px;
      }

      .cls-36 {
        letter-spacing: -.08em;
      }

      .cls-37 {
        fill: #f1f2f2;
      }

      .cls-38 {
        letter-spacing: .01em;
      }

      .cls-39 {
        fill: #131718;
      }

      .cls-40 {
        letter-spacing: -.01em;
      }

      .cls-5 {
        font-size: 7.58px;
      }

      .cls-41 {
        letter-spacing: -.02em;
      }

      .cls-42 {
        letter-spacing: 0em;
      }

      .cls-6 {
        font-size: 15.19px;
      }

      .cls-43 {
        letter-spacing: 0em;
      }

      .cls-7 {
        font-size: 7.58px;
      }

      .cls-8 {
        font-size: 22.9px;
      }

      .cls-44 {
        letter-spacing: -.04em;
      }

      .cls-9 {
        font-family: Axiforma-Bold, 'Axiforma Bold';
        font-size: 3.85px;
      }

      .cls-45 {
        letter-spacing: -.03em;
      }

      .cls-46 {
        letter-spacing: -.06em;
      }

      .cls-47 {
        letter-spacing: -.08em;
      }

      .cls-48 {
        letter-spacing: -.01em;
      }

      .cls-49 {
        letter-spacing: -.02em;
      }

      .cls-50 {
        clip-path: url(#clippath-1);
      }

      .cls-10 {
        font-size: 10.48px;
      }

      .cls-11 {
        font-size: 17.36px;
      }

      .cls-51 {
        letter-spacing: 0em;
      }

      .cls-12 {
        font-size: 7.09px;
      }

      .cls-52 {
        letter-spacing: -.08em;
      }

      .cls-53 {
        letter-spacing: -.04em;
      }

      .cls-24 {
        font-family: Bauhaus93, 'Bauhaus 93';
        font-size: 12.28px;
      }

      .cls-13 {
        font-size: 20.16px;
      }

      .cls-54 {
        letter-spacing: 0em;
      }

      .cls-55 {
        letter-spacing: -.07em;
      }

      .cls-56 {
        letter-spacing: -.06em;
      }

      .cls-14 {
        font-size: 9.22px;
      }

      .cls-57 {
        letter-spacing: .02em;
      }

      .cls-58 {
        letter-spacing: -.06em;
      }

      .cls-15 {
        font-size: 6.43px;
      }

      .cls-25 {
        fill-rule: evenodd;
      }

      .cls-16 {
        font-size: 7.99px;
      }

      .cls-59 {
        letter-spacing: .02em;
      }

      .cls-60 {
        letter-spacing: -.03em;
      }

      .cls-61 {
        letter-spacing: -.08em;
      }

      .cls-62 {
        letter-spacing: 0em;
      }

      .cls-17 {
        font-size: 13.98px;
      }

      .cls-63 {
        letter-spacing: 0em;
      }

      .cls-64 {
        letter-spacing: -.01em;
      }

      .cls-18 {
        font-size: 4.18px;
      }

      .cls-65 {
        letter-spacing: -.08em;
      }

      .cls-19 {
        font-size: 28.2px;
      }

      .cls-66 {
        letter-spacing: -.07em;
      }

      .cls-67 {
        letter-spacing: -.03em;
      }

      .cls-68 {
        letter-spacing: 0em;
      }

      .cls-20 {
        font-size: 5.04px;
      }

      .cls-69 {
        letter-spacing: -.06em;
      }

      .cls-21 {
        font-size: 12.6px;
      }

      .cls-70 {
        letter-spacing: 0em;
      }

      .cls-71 {
        letter-spacing: 0em;
      }

      .cls-22 {
        font-size: 7.91px;
      }

      .cls-72 {
        clip-path: url(#clippath);
      }

      .cls-73 {
        letter-spacing: -.02em;
      }

      .cls-74 {
        letter-spacing: -.07em;
      }
    </style>
    <clipPath id="clippath">
      <rect class="cls-29" x="567.28" y="281.21" width="50.65" height="9.32" transform="translate(-1.99 4.16) rotate(-.4)"/>
    </clipPath>
    <clipPath id="clippath-1">
      <rect class="cls-29" x="567.28" y="281.21" width="50.65" height="9.32" transform="translate(-1.99 4.16) rotate(-.4)"/>
    </clipPath>
  </defs>
  <g id="cladire">
    <g>
      <path class="cls-37" d="M5,74.03h779.58v504.47l-4.72.26c-21.79,1.22-45.84,1.84-71.49,1.84h0c-153.48,0-327.89-22.04-344.22-24.15-1.78.64-3.62,1.25-5.46,1.83-36.33,11.21-75.04,16.89-115.06,16.89-42.23,0-71.81-6.41-77.41-7.72l-121.31,14.92-39.88,5.22V74.03Z"/>
      <path class="cls-37" d="M779.58,79.03v494.74c-22.8,1.27-46.77,1.83-71.22,1.83-161.9,0-344.79-24.27-344.79-24.27-2.02.75-4.14,1.48-6.37,2.16-41.74,12.88-81.37,16.67-113.59,16.67-46.18,0-77.12-7.8-77.13-7.8l-122.2,15.03-34.27,4.49V79.03h769.58M789.58,69.03H0v524.26l11.3-1.48,34.24-4.48,120.39-14.8c7.55,1.71,36.7,7.65,77.68,7.65s79.73-5.76,116.54-17.12c1.53-.47,3.04-.97,4.54-1.49,22.29,2.85,193.02,24.04,343.68,24.04,25.75,0,49.9-.62,71.78-1.84l9.44-.53V69.03h0Z"/>
      <path class="cls-27" d="M779.58,573.77V79.03H10v502.86l34.27-4.49,122.2-15.03s89.14,22.47,190.71-8.87c2.23-.69,4.35-1.41,6.37-2.16,0,0,242.3,32.15,416.01,22.44Z"/>
    </g>
  </g>
  <g id="magazine">
    <polyline class="cls-30" points="611.35 79.27 611.35 90.32 578.13 90.32 578.13 112.33 545.71 112.33 545.71 182.89 676.11 182.89 676.11 235.8 745.54 235.8 745.54 176.93 779.58 177.01"/>
    <polyline class="cls-30" points="314.27 79.03 314.27 113.7 366.93 113.7 365.88 183.3 224.11 183.3 224.11 115.15 211.61 115.15 211.61 79.03"/>
    <polyline class="cls-30" points="344.99 183.3 344.99 126.28 337.17 126.28 337.17 113.7"/>
    <line class="cls-30" x1="325.23" y1="113.7" x2="325.23" y2="183.3"/>
    <line class="cls-30" x1="276.52" y1="79.03" x2="276.52" y2="183.3"/>
    <polyline class="cls-30" points="240.48 183.3 240.48 125.48 224.11 125.48"/>
    <polyline class="cls-30" points="78.14 315.23 214.11 315.23 214.11 126.61 207.66 126.61"/>
    <line class="cls-30" x1="210.56" y1="126.61" x2="9.84" y2="126.61"/>
    <line class="cls-30" x1="10" y1="315.23" x2="78.14" y2="315.23"/>
    <polyline class="cls-30" points="10 413.53 47.34 413.53 47.34 360.55 10 360.55"/>
    <polyline class="cls-30" points="44.27 577.4 44.27 527.64 69.35 527.64 69.35 514.18 10 514.18"/>
    <polyline class="cls-30" points="214.11 315.23 213.46 556.59 166.48 562.37"/>
    <polyline class="cls-30" points="213.73 455.63 177.41 455.63 177.41 561.03"/>
    <polyline class="cls-30" points="69.35 514.18 69.68 481.11 213.66 481.11"/>
    <path class="cls-30" d="M363.56,551.33c-45.68-5.38-77.32-11.68-111.47-18.69v-53.71h159.59v36.85h-34.68v37.32"/>
    <line class="cls-30" x1="277.88" y1="537.84" x2="277.88" y2="478.94"/>
    <line class="cls-30" x1="344.67" y1="478.94" x2="344.67" y2="549.03"/>
    <line class="cls-30" x1="377.01" y1="515.79" x2="377.01" y2="478.94"/>
    <polyline class="cls-30" points="439.91 560.06 439.91 527.4 444.5 527.4 444.5 516.76 422.25 516.76 422.49 478.94 647.72 478.94 647.72 513.53 644.1 513.53 644.1 567.24 618.53 567.24 618.53 573.47"/>
    <polyline class="cls-30" points="696.76 575.56 696.76 568.41 679.09 568.41 679.09 566.88 679.09 548.38 675.47 548.38 675.47 394.1 745.14 394.1 745.14 469.18 767 469.18 767 464.66 780.38 464.66"/>
    <line class="cls-30" x1="745.14" y1="469.18" x2="745.14" y2="574.04"/>
    <line class="cls-30" x1="679.09" y1="548.38" x2="745.14" y2="548.38"/>
    <polyline class="cls-30" points="675.47 515.63 712.88 515.63 712.88 497.3"/>
    <polyline class="cls-30" points="745.14 497.48 714.74 497.48 675.47 497.48"/>
    <polyline class="cls-30" points="675.47 482.64 714.74 482.64 714.74 497.48"/>
    <line class="cls-30" x1="675.47" y1="448.06" x2="745.14" y2="448.06"/>
    <line class="cls-30" x1="675.47" y1="415.07" x2="745.14" y2="415.07"/>
    <polyline class="cls-30" points="780.3 238.3 760.62 238.3 760.62 246.68 675.47 246.68 675.47 382.89 762.16 382.89 762.16 392.97 779.58 392.97"/>
    <line class="cls-30" x1="675.47" y1="280.96" x2="780.3" y2="280.96"/>
    <path class="cls-30" d="M615.63,215.88l22.3,22.3v86.25c-13.77.46-26.38,5.65-38.18,14.11h-48.22s0-47.01,0-47.01h-5.89v8.31h-7.42v6.29h-26.37v7.02h-134.27v25.48h-97.82c17.63-15.45,30.45-34.3,37.84-56.95,4.45-13.62,6.93-28.63,7.33-45.1,95.63-14.42,192.55-21.17,290.71-20.69Z"/>
    <path class="cls-30" d="M325.07,281.92v56.69-56.69Z"/>
    <line class="cls-30" x1="325.07" y1="281.92" x2="317.6" y2="281.92"/>
    <line class="cls-30" x1="511.84" y1="306.12" x2="511.84" y2="218.15"/>
    <polyline class="cls-30" points="511.36 248.7 476.8 248.7 476.8 246.76 411.12 246.76 411.12 225.37"/>
    <line class="cls-30" x1="444.83" y1="222.53" x2="444.83" y2="246.76"/>
    <line class="cls-30" x1="476.8" y1="246.76" x2="476.8" y2="220.12"/>
    <line class="cls-30" x1="494.14" y1="248.7" x2="494.14" y2="219.04"/>
    <line class="cls-30" x1="545.63" y1="291.52" x2="545.63" y2="216.79"/>
    <polyline class="cls-30" points="545.28 247.73 577.97 247.73 577.97 216.04"/>
    <line class="cls-30" x1="577.97" y1="247.73" x2="637.93" y2="247.73"/>
    <line class="cls-30" x1="602.72" y1="215.85" x2="602.72" y2="247.73"/>
    <path class="cls-30" d="M589.26,348.45h-321.2s-16.01,7.75-16.01,7.75v67.65l22.22,22.9c101.91.72,198.99-5.54,290.3-20.13-.06-27.27,7.17-53.47,24.69-78.18Z"/>
    <polyline class="cls-30" points="277.82 347.65 277.82 368.34 277.82 446.96"/>
    <line class="cls-30" x1="252.05" y1="368.05" x2="277.82" y2="368.05"/>
    <line class="cls-30" x1="252.05" y1="381.86" x2="277.58" y2="381.86"/>
    <line class="cls-30" x1="252.05" y1="414.74" x2="277.88" y2="414.74"/>
    <polyline class="cls-30" points="379.18 348.45 379.18 398.64 379.18 444.94"/>
    <polyline class="cls-30" points="344.35 446.12 344.35 399.02 379.18 399.02"/>
    <polyline class="cls-30" points="511.66 348 511.66 399.1 477.89 399.1 477.89 437.16"/>
    <polyline class="cls-30" points="545.28 348 545.28 381.87 545.28 429.58"/>
    <line class="cls-30" x1="571.11" y1="382" x2="545.28" y2="382"/>
    <polyline class="cls-30" points="611.35 90.32 611.35 114.75 623.85 114.75 623.85 182.89"/>
    <line class="cls-30" x1="578.13" y1="112.33" x2="578.13" y2="182.89"/>
    <line class="cls-30" x1="410.84" y1="79.03" x2="410.84" y2="182.73"/>
    <line class="cls-30" x1="325.07" y1="317.03" x2="299.97" y2="317.03"/>
    <line class="cls-30" x1="429.56" y1="313.13" x2="429.56" y2="348.45"/>
    <line class="cls-30" x1="461.24" y1="313.13" x2="461.24" y2="348.45"/>
    <polyline class="cls-28" points="39.25 214.43 39.25 272.63 9.84 272.63"/>
    <polyline class="cls-30" points="677.02 181.94 708.75 150.21 708.75 125.35 739.14 125.35 739.14 133.76 778.34 133.76"/>
    <polyline class="cls-30" points="376.32 79.27 376.32 183.3 463.95 183.3 463.95 112.33 487.26 112.33 487.26 79.03"/>
    <polyline class="cls-30" points="487.26 112.33 514.85 112.33 514.85 183.3 463.95 183.3"/>
    <line class="cls-30" x1="490.61" y1="112.33" x2="490.61" y2="183.3"/>
    <polyline class="cls-30" points="314.47 478.94 314.47 508.22 344.67 508.22"/>
  </g>
  <g id="logo">
    <g>
      <path class="cls-25" d="M556.82,144.36c.07-.16.41-.91.2-.93,0,0-.17.09-.26.39-.09.31-.14.46-.14.58s.13.11.21-.05Z"/>
      <path class="cls-25" d="M571.09,144.77c.08-.36.23-.74.04-.81,0,0-.16-.03-.32.41-.17.43-.29.86-.16.92.14.07.36-.16.44-.52Z"/>
      <path class="cls-25" d="M564.97,144.87c-.13.3-.36.86-.4,1.25-.04.39-.05.62.13.71.18.1.39-.71.42-.81.04-.1.23-1.11.16-1.3-.09-.26-.23-.04-.3.14Z"/>
      <path class="cls-25" d="M566.98,144.45c-.15.38-.41,1.1-.46,1.6-.05.5-.06.79.14.91.2.12.44-.9.48-1.03.04-.13.27-1.41.18-1.66-.11-.33-.26-.05-.35.18Z"/>
      <path class="cls-25" d="M562.13,133.17l-16.86,11.75,16.81,11.91,16.68-11.96-16.64-11.7ZM558.64,147.42c-.09.02-.18.03-.27.05-.25.09-.13.42-.43.52-.25.08-.92.09-1.23.04-.43-.01-.86-.03-1.29-.04-.12,0-.25-.02-.37-.03-.07-.01-.14-.06-.23-.04-.21.04-.28.21-.45.28-.34.14-.93.08-1.24-.05-.49-.22-.33-.74-.42-1.35,0-.21-.02-.43-.03-.64.05-.8.09-1.59.14-2.39.14-.83.28-1.59.5-2.33.09-.28-.21-.43-.05-.7.16-.26.55-.39.87-.49.09-.02.18-.04.27-.05h.12s.13,0,.13,0c.47,0,1.03.05,1.2.29.21.3-.09.33-.14.49-.03.22-.06.45-.09.67-.04.34-.09.69-.13,1.03-.04.36-.09.73-.14,1.09-.09.52-.17,1.04-.26,1.55-.07.35-.14.71-.2,1.06-.03.14-.06.35,0,.47.12.04.81.16.94.1-.03-.14-.06-.29-.08-.43-.02-.24-.05-.47-.07-.71,0-.16,0-.32,0-.48.04-.22.01-.42.05-.62.13-.59.34-1.12.58-1.6.15-.3.38-.94.9-.81.45.11.66.62.53,1.2-.09.37-.27.71-.44,1.01-.14.24-.25.49-.41.71-.11.16-.44.25-.51.37-.05.08-.03.67,0,.79.01.05.04.08.07.11.24.02.41-.23.54-.36.54-.56.57-1.62.94-2.35.2-.39.41-.78.99-.53.08.05.16.1.24.15.12.15.17.66.11.93-.12.64-.36,1.25-.71,1.68-.13.16-.56.27-.5.56.06.28.2.34.5.39.1.02.23,0,.3-.03.14-.06.2-.19.32-.28.08-.06.29-.12.32.03.07.4-.59.64-.88.73ZM575.25,147.09c-.72.7-1.78.39-1.78.39-1.18-.31-1.14-2.07-1.15-2.23,0-.16-.11-.14-.11-.14-.23,1.58-.62,2.56-1.54,2.42-.93-.14-.75-1.72-.75-1.72h-.06c-.21,1.89-1.34,1.65-1.34,1.65l-.1,1.93c-.05.3-.13.36-.29.33-.17-.02-.26-.1-.24-.27.05-1.21.08-3.55.09-4.78.02-.16-.14-.03-.14-.03.04.3-.13,1.45-.13,1.45-.44,2.14-1.31,1.78-1.31,1.78-1.07-.31-.62-2.22-.53-2.5.09-.28.17-.53.17-.69,0-.16-.39-.13-.39-.13.11.21.06,1.05.06,1.05-.07,1.67-.87,2.27-1.26,2.24-.39-.03-.56-.44-.59-.52-.03-.09-.15-.03-.15-.03-1.2.98-2.48.53-2.48.53-1.44-.58-1.53-1.54-1.33-3.05.2-1.51,1.04-3.33,1.35-3.93.31-.6.5-.77,1.62-.64,1.12.14,1.29.86,1.29.86.31,1.24.01,2.24-.12,2.81-.14.58-.56.83-.76.73-.2-.1-.12-.59-.12-.59,0,0,.04-.17.11-.98.07-.81-.1-1.13-.1-1.13-.26-.4-.47.07-.74.81-.27.74-.41,2.61-.41,3.23s.24,1.13.91,1.15c.66.02.8-.4.8-.4-.13-1.55.77-2.64.99-2.86.22-.22.52-.3.67-.01.15.29.26.24.55.24s.45-.08.66-.51c.21-.42.57-.46.57-.46.55.02.58.52.6.61.02.09-.08.29.15.24.23-.04.17-.17.17-.17,0,0,.19-1.24.27-1.55.08-.3.71-.42.83-.1.12.32-.1.51-.1.51v.27s.52-.09.74.59c.22.67.13,1.69.13,1.69h.04s.02-.07.02-.07c.32-1.87.93-2.19,1.19-2.27.26-.08.44.14.46.56.02.42-.18,1.36-.18,1.36-.24,1.33-.97,1.31-.97,1.31,0,0-.12,1.1.52.96.64-.14.82-2.39.82-2.84s.1-.79.3-.93c.2-.14.6-.19.67,0,.07.18-.14.21-.24.27-.1.06-.03.12.09.19.12.07.12.18.12.18,0,0,0,.85.03,1.25.03.4.1,1.18.67,1.63.57.45,1.41-.06,1.58-.14.17-.07.25.03.27.18,0,.01,0,.02,0,.03v.02c0,.12-.08.2-.08.2Z"/>
      <path class="cls-25" d="M569.08,143.63s-.42.73-.42,1.74-.06,1.39.13,1.41c.18.02.49-1.08.49-1.49s.15-1.73-.19-1.66Z"/>
      <path class="cls-25" d="M558.42,145.16c.09-.19.49-1.08.24-1.11,0,0-.2.1-.31.47-.11.36-.17.54-.17.7s.16.14.25-.05Z"/>
    </g>
    <g>
      <path class="cls-23" d="M433.57,253.81c-1.34.6-2.38-.03-4.01,3.33-5.14,10.55-9.13,19.11-13.88,31.43.14-10.12,1.95-18.17,3.03-28.02.2-1.82.48-4.32.44-6.2-.03-1.45-1.48-1.64-4.39-.2-1.62.8-3.57.73-4.31,2.65-3.16,8.19-10.47,30.97-13.86,43.85-.81,3.1,2.25,3.61,3.17.44,2.23-7.67,7.33-24.66,10.36-33.41-.31,8.01-2.49,20.67-1.47,27.31.32,2.09,2.27,2.99,3.27,4.76.71,1.26,1.86,1.38,2.49-.33,2.97-8.1,8.75-22.39,14.33-33.81-1.09,5.03-5.29,26.38-6.45,34.89-.24,1.71,1.86,1.75,3.72,4.32.42.58,2.02,1.2,2.31-.27.99-5.1,7.46-38.25,10-48.77.68-2.84.49-4.27-4.74-1.94Z"/>
      <path class="cls-23" d="M391.22,277.9c2.23-3.33,2.88-2.65,3.41-3.66.67-1.27.23-2.46-2.16-2.17,0,0-.9.06-2.56.25,2.64-6.8,4.95-12.57,6.62-16.96.56-1.49.64-2.58-.29-2.8-.99-.24-3.84,1.3-5.59,1.61-.56.1-1.09.69-1.28,1.11-2.81,6.45-5.33,12.61-7.51,18.21-2.79.48-6.06,1.1-9.71,1.92,2.61-6.71,5.25-13.32,7.83-19.69,1.27-3.13-2.07-3.43-3.37-.25-1.68,4.12-4.83,11.85-8.32,20.85-2.57.63-5.28,1.35-8.13,2.17-2.06.6-2.15,1.15-1.26,2.38.5.69,1.51.62,1.98,1.11,1.21,1.27,1.93,2.8,4.09,3.03-1.93,5.14-3.85,10.45-5.59,15.55-1.09,3.2,2.02,3.86,3.22.47,1.93-5.47,3.96-11,6.05-16.52,1.74-.4,5.95-1.31,9.85-2.16-3.09,8.46-5.12,14.89-5.89,18.02-.15.6.1.94.22,1.18,1.04,1.52,2.03,1.58,3.37,3.45.36.51,1.58.79,2-.47,2.86-8.64,5.8-16.75,8.55-24.02,1.14-.25,3.19-.74,4.45-2.62Z"/>
      <path class="cls-23" d="M393.33,291.1c-.2.18-.41.37-.62.58-.24-.74-.48-1.5-.71-2.21.67-.82,1.32-1.64,1.88-2.5,2.3-3.58-2.25-5.64-4.2-3.32-1.04,1.24-.78,2.46-.5,3.5.09.32.22.79.39,1.34-.56.57-1.23,1.29-2.12,2.32-2.22,2.58-1.62,5.92.76,6.66,1.44.45,2.79-.2,3.96-1.24.06.15.12.3.17.43.62,1.55,2.54,1.08,1.81-.79-.13-.33-.29-.77-.47-1.28.38-.48.72-.96,1.03-1.41,1.41-2.1.05-3.33-1.38-2.09ZM391.83,286.18c-.22.24-.42.46-.62.67-.05-.18-.1-.35-.13-.49-.66-2.5,2.2-1.81.76-.18ZM390.27,293.78c-.87.53-1.56-.04-.39-1.64.2-.27.39-.53.59-.79.2.61.41,1.23.61,1.84-.27.22-.54.43-.82.6Z"/>
    </g>
    <g>
      <rect class="cls-23" x="130.03" y="162.01" width="5.53" height="21.9"/>
      <polygon class="cls-23" points="109.88 162.22 102.9 183.91 96.78 183.91 92.1 169.36 87.42 183.91 81.3 183.91 74.32 162.22 79.94 162.22 84.36 175.95 88.78 162.22 95.42 162.22 99.84 175.95 104.26 162.22 109.88 162.22"/>
      <polygon class="cls-23" points="31.47 162.01 37 162.01 37 179.12 47.03 179.12 47.03 183.91 37 183.91 31.47 183.91 31.47 179.12 31.47 162.01"/>
      <polygon class="cls-23" points="144.07 173.88 144.07 183.91 138.54 183.91 138.54 162.01 144.07 162.01 144.07 170.38 150.42 162.01 157.58 162.01 149.91 172.1 158.64 183.91 151.48 183.91 144.07 173.88"/>
      <rect class="cls-23" x="159.38" y="162.01" width="5.53" height="21.9"/>
      <polygon class="cls-23" points="173.13 173.88 173.13 183.91 167.6 183.91 167.6 162.01 173.13 162.01 173.13 170.38 179.49 162.01 186.65 162.01 178.98 172.1 187.7 183.91 180.54 183.91 173.13 173.88"/>
      <rect class="cls-23" x="188.81" y="162.01" width="5.53" height="21.9"/>
      <path class="cls-25" d="M46.84,171.91c0-5.76,4.67-10.43,10.43-10.43h2.6c4.71,0,8.69,3.12,9.99,7.41h-5.65c-1.06-1.94-3.12-3.26-5.5-3.26h-.08c-3.46,0-6.26,2.8-6.26,6.26v2.29c0,3.46,2.8,6.26,6.26,6.26h.08c2.37,0,4.44-1.32,5.5-3.27h5.65c-1.3,4.28-5.28,7.41-9.99,7.41h-2.6c-5.76,0-10.43-4.67-10.43-10.43v-2.23Z"/>
      <path class="cls-25" d="M110.38,163.27s7.85-3.85,14.16-.07c0,0,3.09,1.96,3.02,7.71l.07,13.25h-4.97s0-10.1,0-10.1c0,0-8.69-.77-8.9,3.08-.21,3.86,3.43,3.37,3.43,3.37,0,0,3.08-.35,4.2-2.38v4.27s-2.59,2.59-6.37,2.31c-3.79-.28-5.89-3.02-5.89-3.02,0,0-1.96-2.37-.63-6.37,1.33-4,6.31-4.56,6.31-4.56,0,0,2.03-.35,7.07-.28,0,0,.42-3.43-1.82-4.13-2.24-.7-5.6-.14-5.6-.14,0,0-3.08.77-5.4,2.45l1.33-5.4Z"/>
    </g>
    <g>
      <rect class="cls-23" x="27.29" y="230.24" width=".89" height="3.51"/>
      <polygon class="cls-23" points="24.06 230.27 22.94 233.76 21.96 233.76 21.21 231.42 20.46 233.76 19.47 233.76 18.35 230.27 19.26 230.27 19.96 232.48 20.67 230.27 21.74 230.27 22.45 232.48 23.16 230.27 24.06 230.27"/>
      <polygon class="cls-23" points="11.48 230.24 12.37 230.24 12.37 232.99 13.98 232.99 13.98 233.76 12.37 233.76 11.48 233.76 11.48 232.99 11.48 230.24"/>
      <polygon class="cls-23" points="29.54 232.15 29.54 233.76 28.66 233.76 28.66 230.24 29.54 230.24 29.54 231.58 30.56 230.24 31.71 230.24 30.48 231.86 31.88 233.76 30.73 233.76 29.54 232.15"/>
      <rect class="cls-23" x="32" y="230.24" width=".89" height="3.51"/>
      <polygon class="cls-23" points="34.21 232.15 34.21 233.76 33.32 233.76 33.32 230.24 34.21 230.24 34.21 231.58 35.23 230.24 36.38 230.24 35.15 231.86 36.55 233.76 35.4 233.76 34.21 232.15"/>
      <rect class="cls-23" x="36.72" y="230.24" width=".89" height="3.51"/>
      <path class="cls-25" d="M13.95,231.83c0-.92.75-1.67,1.67-1.67h.42c.76,0,1.39.5,1.6,1.19h-.91c-.17-.31-.5-.52-.88-.52h-.01c-.55,0-1,.45-1,1v.37c0,.55.45,1,1,1h.01c.38,0,.71-.21.88-.52h.91c-.21.69-.85,1.19-1.6,1.19h-.42c-.92,0-1.67-.75-1.67-1.67v-.36Z"/>
      <path class="cls-25" d="M24.14,230.44s1.26-.62,2.27-.01c0,0,.5.31.48,1.24v2.13s-.79,0-.79,0v-1.62s-1.39-.12-1.43.49c-.03.62.55.54.55.54,0,0,.49-.06.67-.38v.69s-.41.42-1.02.37-.94-.48-.94-.48c0,0-.31-.38-.1-1.02.21-.64,1.01-.73,1.01-.73,0,0,.33-.06,1.13-.05,0,0,.07-.55-.29-.66-.36-.11-.9-.02-.9-.02,0,0-.49.12-.87.39l.21-.87Z"/>
    </g>
    <g>
      <path class="cls-23" d="M73.28,276.69c-1.89,0-3.43-1.17-3.43-2.61s1.54-2.61,3.43-2.61,3.43,1.17,3.43,2.61-1.54,2.61-3.43,2.61ZM73.28,272.46c-1.32,0-2.43.74-2.43,1.61s1.11,1.61,2.43,1.61,2.43-.74,2.43-1.61-1.11-1.61-2.43-1.61Z"/>
      <path class="cls-23" d="M73.66,280.97c-.18,0-.29,0-.31,0l-.48-.02.02-5.35.58.1c.06,0,2.03.24,4.87-2.19,2.6-2.23,6.73-2.15,6.9-2.15h.49v5.38l-.55-.05c-.1,0-2.57-.22-4.7,1.96-2.12,2.16-5.72,2.33-6.81,2.33ZM73.88,276.7v3.27c1.15-.03,4.15-.28,5.87-2.03,1.87-1.9,3.98-2.22,4.97-2.26v-3.31c-1.12.05-3.92.34-5.74,1.89-2.34,2.01-4.2,2.39-5.1,2.44Z"/>
      <path class="cls-25" d="M88.11,272.78c0-.55.45-.92,1.15-.92s1.15.37,1.15.92v6.54c0,.55-.45.92-1.15.92s-1.15-.37-1.15-.92v-6.54h0Z"/>
      <path class="cls-25" d="M92.62,272.93c0-.76.46-1.08,1.44-1.08.47,0,.89.15,1.15.48l4.01,5.2h.03v-4.8c0-.6.42-.89,1.1-.89s1.1.29,1.1.89v6.35c0,.73-.39,1.15-1.36,1.15-.73,0-.96-.12-1.26-.49l-3.98-5.05h-.03v4.66c0,.6-.42.89-1.1.89s-1.1-.29-1.1-.89v-6.41h0Z"/>
      <path class="cls-25" d="M105.71,273.55h-2.16c-.66,0-1.19-.27-1.19-.78s.53-.78,1.19-.78h6.62c.66,0,1.19.27,1.19.78s-.53.78-1.19.78h-2.16v5.76c0,.55-.45.92-1.15.92s-1.15-.37-1.15-.92v-5.76h0Z"/>
      <path class="cls-25" d="M112.22,273.08c0-.82.53-1.08,1.34-1.08h5.38c.67,0,1.16.16,1.16.74s-.49.74-1.16.74h-4.43v1.75h3.88c.6,0,1.08.13,1.08.71s-.48.71-1.08.71h-3.88v1.95h4.54c.67,0,1.16.16,1.16.74s-.49.74-1.16.74h-5.49c-.81,0-1.34-.26-1.34-1.08v-5.93h0Z"/>
      <path class="cls-25" d="M124.3,273.42h2.36c1.01,0,1.66.22,1.66,1.09,0,.91-.87,1.09-1.73,1.09h-2.29v-2.18h0ZM122.01,279.31c0,.55.45.92,1.15.92s1.15-.37,1.15-.92v-2.37h2.26c1.26,0,1.58.57,1.58,1.99,0,.33.1,1.3,1.35,1.3.53,0,1.08-.29,1.08-.72,0-.38-.31-.73-.31-1.66,0-.82-.21-1.51-1.38-1.64v-.02c1.09-.2,1.73-1.07,1.73-1.94,0-1.04-.73-2.25-3.45-2.25h-3.81c-.81,0-1.34.26-1.34,1.08v6.23h0Z"/>
      <path class="cls-25" d="M140.19,274.11c-.85-.24-1.87-.4-2.95-.4-.6,0-1.64.01-1.64.53,0,1.04,5.23.06,5.23,3.14,0,2.14-2.63,2.68-4.84,2.68-1.47,0-2.68-.11-4.1-.38v-2.07c1.02.34,2.28.53,3.42.53.9,0,1.71-.15,1.71-.55,0-1.08-5.23-.1-5.23-3.21,0-2.2,2.85-2.59,5.11-2.59,1.07,0,2.25.1,3.29.27v2.05h0Z"/>
      <path class="cls-25" d="M144.14,274.02h.34c.6,0,1.34.03,1.34.66s-.69.73-1.32.73h-.36v-1.39h0ZM140.65,279.85h3.49v-2.41h1.85c2.02,0,3.29-1.02,3.29-2.66,0-1.99-1.72-2.95-4.05-2.95h-4.59v8.02h0Z"/>
      <path class="cls-25" d="M154.5,274.34c1.15,0,1.87.71,1.87,1.56,0,.91-.77,1.54-1.87,1.54s-1.87-.63-1.87-1.54c0-.85.71-1.56,1.87-1.56h0ZM154.5,271.7c-3.03,0-5.52,1.64-5.52,4.16s2.47,4.12,5.52,4.12,5.52-1.54,5.52-4.12-2.49-4.16-5.52-4.16h0Z"/>
      <path class="cls-25" d="M163.44,274.02h.28c.62,0,1.16.07,1.16.69s-.59.67-1.19.67h-.25v-1.36h0ZM159.9,279.85h3.54v-2.57h.07l1.59,2.57h4.18l-2.17-2.61c-.2-.23-.42-.36-.61-.48v-.06c1.35-.36,1.93-.87,1.93-2.08,0-2.02-1.9-2.79-4.15-2.79h-4.38v8.02h0Z"/>
      <polygon class="cls-25" points="168.01 271.83 175.63 271.83 175.63 274.43 173.63 274.36 173.63 279.85 170.01 279.85 170.01 274.36 168.01 274.43 168.01 271.83 168.01 271.83"/>
      <path class="cls-25" d="M177.5,273.18c-.48,0-.83-.28-.83-.67s.35-.67.83-.67.83.28.83.67-.36.67-.83.67h0ZM177.5,273.39c.6,0,1.09-.39,1.09-.88s-.48-.88-1.09-.88-1.09.39-1.09.88.48.88,1.09.88h0ZM177.75,272.57c.2-.01.31-.08.31-.25,0-.24-.18-.28-.44-.28h-.55v.91h.25v-.38h.18l.25.38h.27l-.27-.38h0ZM177.32,272.43v-.23h.24c.11,0,.26,0,.26.09,0,.11-.07.14-.2.14h-.3Z"/>
    </g>
    <g>
      <polygon class="cls-25" points="92.9 397.06 107.52 380.17 119.99 394.26 126.38 387.06 126.52 393.11 105.73 416.66 103.06 413.64 106.47 410 96.76 398.71 93.17 402.64 92.9 397.06 92.9 397.06"/>
      <polygon class="cls-25" points="156.3 375.38 176.99 375.38 176.99 380.67 173.73 380.67 173.73 399.53 186.49 391.59 186.54 405.45 156.18 405.45 156.18 399.97 159.59 399.97 159.61 380.67 156.32 380.67 156.3 375.38 156.3 375.38"/>
      <path class="cls-25" d="M105.73,378.94c4.42,0,8.05-4.14,8.05-9.19s-3.63-9.16-8.05-9.16-8.07,4.11-8.07,9.16,3.61,9.19,8.07,9.19h0Z"/>
      <polygon class="cls-25" points="63.3 375.72 83.98 375.72 83.98 381.01 80.73 381.01 80.73 399.87 93.5 391.93 93.52 405.79 63.19 405.79 63.19 400.34 66.57 400.34 66.59 381.01 63.28 381.01 63.3 375.72 63.3 375.72"/>
      <path class="cls-25" d="M143.93,405.39h-21.55v-5.32h3.66l-.07-19.22h-3.66v-5.21h21.73c6.3-.03,11.31,4.98,11.38,14.82-.05,10.16-5.61,14.93-11.5,14.93h0ZM139.62,396.1c2.51-.03,4.6-1.65,4.62-6.02,0-4.24-2.16-6.1-4.57-6.1l-.05,12.13h0Z"/>
    </g>
    <g id="Brandingmodul_Deichmann_quadratisch_vertikal">
      <path id="Deichmann" class="cls-23" d="M294.91,373.03c.02,3.88-.42,7.83-1.7,7.84h-1.66s-.1-15.57-.1-15.57h1.48c1.2-.01,1.95,2.47,1.98,7.73M297.21,373.06c-.05-7.8-1.39-14.11-3.99-14.09-.15,0-4.06.02-4.06.02l.17,28.24s3.9-.02,4.06-.02c2.6-.02,3.86-6.35,3.81-14.15M298.61,387.17l6.6-.04-.04-6.1-4.34.03-.03-5.1,3.6-.02-.04-5.85-3.6.02-.03-5.1,4.34-.03-.04-6.1-6.6.04.17,28.25ZM306.81,387.12l2.25-.02-.17-28.24h-2.25s.17,28.26.17,28.26ZM312.75,372.94c-.03-4.75.41-8.82,1.81-8.83.95,0,1.43,2.1,1.63,4.52h2.24c-.15-6.32-1.67-10.77-3.91-10.75-2.81.01-4.12,6.77-4.07,15.08.05,8.32,1.44,15.04,4.25,15.03,2.34-.01,3.7-4.79,3.78-10.94h-2.23c-.11,2.51-.56,4.59-1.58,4.6-1.39,0-1.88-3.95-1.91-8.7M325.36,387h2.26s-.17-28.26-.17-28.26h-2.26s.07,10.78.07,10.78l-3.31.02-.07-10.77h-2.25s.17,28.26.17,28.26h2.25s-.07-11.17-.07-11.17l3.31-.02.07,11.16ZM337.13,386.93h2.08s-.17-28.26-.17-28.26l-3.25.02-1.43,18.64h-.02s-1.66-18.62-1.66-18.62l-3.25.02.17,28.25h2.08s-.13-21.14-.13-21.14h.02s1.91,21.11,1.91,21.11h1.86s1.65-21.15,1.65-21.15h.02s.13,21.12.13,21.12ZM345.43,376.43h-1.9s.87-10.67.87-10.67h.02s1,10.67,1,10.67ZM346.43,386.87h2.42s-3.08-28.24-3.08-28.24h-2.76s-2.76,28.28-2.76,28.28h2.42s.38-4.61.38-4.61l2.96-.02.44,4.59ZM355.18,386.82l2.49-.02-.17-28.25h-2.18s.11,17.7.11,17.7h-.02s-3.25-17.66-3.25-17.66l-2.59.02.17,28.25h2.18s-.11-17.86-.11-17.86h.02s3.35,17.82,3.35,17.82ZM367.6,386.75l-.17-28.25h-2.18s.11,17.7.11,17.7h-.02s-3.25-17.67-3.25-17.67l-2.6.02.17,28.25h2.18s-.11-17.86-.11-17.86h.02s3.35,17.82,3.35,17.82h2.49Z"/>
    </g>
    <path class="cls-23" d="M493.2,531.01h-25.03v-.77l18.74-19h-15.53l-.39,4.75h-1.16l.51-5.52h23.49v.64l-19.12,19h17.33l.51-5.9h1.28l-.64,6.8h0ZM609.36,524.59h-10.4l-3.34,5.65h6.03v.77h-11.81v-.77h4.49l11.94-20.15h.64l11.42,20.15h4.36v.77h-15.53v-.77h5.26l-3.08-5.65h0ZM599.48,523.7h9.5l-4.62-8.09h-.13l-4.75,8.09h0ZM522.72,524.59h-10.4l-3.34,5.52h6.03v.77h-11.81v-.77h4.49l11.94-20.15h.64l11.42,20.15h4.36v.77h-15.4v-.77h5.39l-3.34-5.52h0ZM512.58,523.7h9.5l-4.62-8.09h-.13l-4.75,8.09h0ZM552.5,530.11v-18.87h-5.13v-.77h24.39c3.47,0,4.36,2.82,4.36,4.62,0,2.57-.64,4.62-4.36,5.39-.13,0-.64,0-1.28.13l5.52,9.63h4.36v.77h-9.88l-5.9-10.4h-6.16v9.63h5.13v.77h-16.17v-.77h5.13v-.13ZM558.28,511.25v8.47h5.78c1.28,0,2.18-.13,2.95-.26.9-.13,1.8-.64,2.31-1.28.64-.64.9-1.8.9-3.08,0-1.16-.39-2.05-.9-2.57-.64-.64-1.28-.9-2.18-1.03-.77-.26-1.93-.26-3.34-.26h-5.52Z"/>
    <path class="cls-23" d="M501.25,404.99c-2.4,0-3.99,1.62-3.99,3.78s1.59,3.78,3.99,3.78,3.99-1.62,3.99-3.78-1.59-3.78-3.99-3.78ZM501.25,412.18c-1.55,0-2.67-1.11-2.67-3.41s1.13-3.41,2.67-3.41,2.67,1.11,2.67,3.41-1.12,3.41-2.67,3.41ZM510.75,405.38l.39.26c.26.17.26.27.09.55l-.17.27c-.22.35-.68,1.07-.92,1.49l-.22.36c-.17.29-.32.53-.32.53,0,0-.13-.25-.22-.38l-.1-.16c-.4-.64-.95-1.44-1.43-2.09l-.2-.27c-.09-.12-.04-.2.03-.27l.32-.29v-.07h-2.34v.07l.43.3c.16.11.29.25.4.4l.19.25c.32.4,1.23,1.65,1.76,2.5l.17.27c.07.11.1.24.09.38v2.08c0,.1-.04.2-.13.25l-.52.38v.06h2.37v-.06l-.52-.38c-.09-.05-.14-.15-.13-.25v-2.04c0-.16.05-.32.14-.45l.22-.36c.51-.84.95-1.53,1.43-2.25l.17-.26c.15-.23.34-.43.58-.58l.36-.25v-.07h-1.92v.07h0ZM531.78,404.99c-2.4,0-3.99,1.62-3.99,3.78s1.59,3.78,3.99,3.78,3.98-1.62,3.98-3.78-1.59-3.78-3.98-3.78ZM531.78,412.23c-1.59,0-2.67-1.16-2.67-3.45s1.08-3.45,2.67-3.45,2.67,1.16,2.67,3.45-1.08,3.45-2.67,3.45ZM524.05,405.37l.52.38c.09.05.14.15.13.25v2.47h-3.71v-2.47c0-.1.04-.2.13-.25l.52-.38v-.06h-2.37v.06l.52.38c.09.05.14.15.13.25v5.57c0,.1-.04.2-.13.25l-.52.38v.06h2.37v-.06l-.52-.38c-.09-.05-.14-.15-.13-.25v-2.69h3.71v2.69c0,.1-.04.2-.13.25l-.52.38v.06h2.37v-.06l-.52-.38c-.09-.05-.14-.15-.13-.25v-5.57c0-.1.04-.2.13-.25l.52-.38v-.06h-2.37v.06ZM516.24,408.36l-.77-.48c-.59-.38-1.03-.75-1.03-1.36,0-.66.48-1.11,1.16-1.11s1.13.35,1.47.91l.23.38h.09v-1.3s-.64-.35-1.6-.35c-1.3,0-2.17.85-2.17,1.88,0,.75.33,1.47,1.36,2.11l.77.48c.59.36,1.1.74,1.1,1.44,0,.79-.52,1.2-1.26,1.2s-1.27-.27-1.73-1.03l-.32-.53h-.09v1.52c.57.27,1.2.4,1.83.4,1.43,0,2.4-.82,2.4-2.05,0-.87-.44-1.49-1.44-2.11h0Z"/>
    <g>
      <path class="cls-25" d="M741.7,336.69c-.25,0-.66-.25-.66-.69,0,0,.23-5.9.23-7.35,0-.38-.1-.33-.28-.33s-1.18.33-1.57.33c-.27,0-.29-.18-.29-.29,0-.34,1.37-.77,2.04-.92.29-.06-.04-.96.71-.96.63,0,.48.59.68.59.33,0,1.36-.19,2.94-.05,1.14.1,5.3,1.2,5.3,5.67,0,1.81-1.41,5.65-7.43,5.65-1.63,0-4.11-.77-3.93-1.32.05-.16.23-.36.51-.22.91.44,2.51.59,3.67.59,1.45,0,5.58-.88,5.58-5.22,0-2.98-3.44-4.41-6.42-4.03,0,0-.24.04-.24.31,0,.13-.04,5.33-.04,6.72,0,.06.02,1.52-.82,1.52h0Z"/>
      <path class="cls-25" d="M764.99,331.38c0-.35.28-.63.63-.63s.63.28.63.63-.28.63-.63.63-.63-.28-.63-.63h0Z"/>
      <path class="cls-25" d="M718.61,331.19c0-.32.26-.58.58-.58s.58.26.58.58-.26.58-.58.58-.58-.26-.58-.58h0Z"/>
      <path class="cls-25" d="M689.84,335.85l1.92-7.88s.12-.61.33-.75c.32-.22.7-.21.7-.21,0,0,.61.04.86.22.22.16.36.72.36.72l.96,5.85s.1.81.38.81.46-.62.46-.62l2.4-6.39s.17-.5.39-.73c.2-.21.54-.22.54-.22h.74s.32.03.53.27c.23.25.2.85.2.85l.49,9.36s.1,1.09-.69,1.11c-.83.02-.83-.71-.83-.71l-.17-8.11s-.09-.39-.31-.39c-.1,0-.26.41-.26.41l-2.44,6.17s-.4,1.21-1.38,1.18c-.91-.03-1.13-1.18-1.13-1.18l-.95-4.99s-.12-.47-.31-.47c-.17,0-.28.47-.28.47l-1.2,5.23s.02.88-.78.86c-.82-.02-.53-.86-.53-.86h0Z"/>
      <path class="cls-25" d="M760.3,335.71c-.22,0-.65-.08-.65-.63s0-2.26,0-2.71.14-.43.32-.43h1.3c.32,0,.36,0,.36.38s-.11,2.11-.28,2.47c-.23.5-.47.91-1.04.91h0ZM751.29,335.38c0-.42.51-.47.8-.8.42-.48.27-1.33.94-1.33.77,0,.3,1.52.41,2.31.03.24.17.45.45.45.59,0,1.03-.56,1.28-1.19.23-.56.3-1.18.46-1.52.08-.17.24-.19.33-.2.49-.05.52.58.53,1.2,0,.42.03.85.03,1.06,0,.03.17.53.6.53.33,0,1.7-.18,1.52-3.71-.01-.29-.03-.26-.19-.28-.13-.02-.77.01-1.25-.06-.13-.02-.45-.23-.46-.48-.01-.19.23-.41.37-.46.26-.09,1.23-.04,1.33-.04.06,0,.22.03.26-.06.09-.43.17-1.66.17-2.09,0-.13.11-.41.48-.41.5,0,.51.33.51.51v1.85c0,.14.02.21.08.21h1.63c.13,0,.24-.13.24-.21,0-.13.08-1.13.08-1.4s.04-.97.52-.97.42.43.42.58v1.97h.85c.58,0,.82.43.82.63,0,.42-.31.48-.43.48h-1.16c-.13,0-.18.45-.18.59s-.13,2.03-.13,2.27c0,.58.27,1.02.78,1.02s1.12-.74,1.21-1.08c.09-.36.2-.88.35-1.24.14-.35.3-.38.51-.38s.48.07.42.79c-.07.78-.08.82-.08,1.19s.37,1.2,1.03,1.2c.2,0,.63.04,1.19-.14.51-.17.45-.09.45.15,0,.22-.64.48-1.16.64-.51.15-1.09.12-1.37-.03-.53-.29-.69-.47-.8-.58-.11-.11-.19-.1-.25-.1-.58,0-.58.75-1.53.75s-.96-.74-1.62-.74c-.54,0-.72.79-1.4.79-.77,0-.83-.75-1.59-.75s-.69.75-1.69.75c-.75,0-1.03-.87-1.56-.87-.65,0-.63,1.02-1.79,1.02-1.47,0-1.12-1.63-1.6-1.63-.27,0-.09.14-.52.14-.27,0-.3-.19-.3-.33h0Z"/>
      <path class="cls-25" d="M706.18,333.73s.22.09.23.3c0,.17,0,1.06,0,1.06,0,0,0,.34-.77.65-.77.31-.99.19-1.3.12-.31-.07-.64-.55-.64-.81s.11-.66.4-.93c.29-.27.52-.33.75-.38.22-.05.78-.04.92-.04s.42.03.42.03h0ZM715.96,335.35s-.71.13-.64.53c0,0-.08.21.34.24,0,0,.45.09.52-.16,0,0,.1-.04-.11-.46l-.11-.15h0ZM711.92,335.43s-.71.13-.64.53c0,0-.08.21.34.24,0,0,.45.09.52-.16,0,0,.1-.04-.11-.46l-.11-.15h0ZM722.9,336.79c-.82,0-.29-1.48-1.04-1.48s-.87,1.29-2.06,1.29-.89-2.13-1.41-2.09c-.67.06-1.13.21-1.13.46s.16.23.16.76-.27,1.18-1.86,1.18c-1.16,0-1.59-.63-1.59-.95,0-.89,1.37-.99,1.37-1.24,0-.14-.43-.76-.67-.78-.3-.03-1.67.97-1.67,1.17s.35.47.35,1.12c0,.82-.77.88-1.49.88s-1.8-.42-1.8-.89c0-.13-.02-.34.12-.52.3-.41.7-.59.99-.74.15-.08.14-.02.14-.11s-.39-.43-.49-.43c-.05,0-.16-.09-.33.08-.59.59-.7,2.18-2.28,2.18-1.05,0-1.09-.69-1.59-.69-.43,0-1.12.7-2.59.7s-1.75-1.34-1.75-1.84c0-.39.13-1.86,2.7-1.86,1.18,0,1.39.4,1.61.4.08,0,.21.02.26-.03.08-.08.1-.11.21-.11s.43-.03.47,0c.04.04.21.09.21.28s-.23.76-.23.92c0,.09-.03.32-.04.53,0,.17.02.32.02.33,0,.13.04.48.69.48.76,0,1.45-.97,1.58-1.79.08-.5.03-1.26.03-1.36s-.04-.21.1-.28c.02-.01.18-.1.25-.1.06,0,.13.04.21.12.04.04.45.58.98,1.08.44.41.85.61,1.2.86.06.04,1.45-1.02,1.45-1.13v-.62c0-.26.27-.47.44-.47.48,0,1.64,2.1,2.2,2.1.35,0,1.49-.48,1.66-.55.14-.06.61-.66.61-.72s.81.06.81.47-.03,1.92.32,1.92c1.44,0,1.24-2.44,2.26-2.44.85,0,.36,1.64,1,1.64s.68-1.76,1.81-1.76c.45,0,.45,1.36.98,1.36.8,0,.88-1.32,1.71-1.32,1.43,0,.11,3.14,1.34,3.14,1.37,0,1.22-2.68,1.9-2.68.99,0-.77,2.73,1.73,2.73,1.5,0,2.34-1.88.74-2.36-.68-.2-1.18.31-1.49,0-.08-.08.2-.44.38-.51.12-.05.38-.14,1.02-.14s2.2.11,2.2,1.8c0,1.31-1.64,2.23-2.68,2.23-1.85,0-1.52-.92-2.29-.92-.66,0-.86,1.04-1.82,1.04-1.58,0-.89-2.66-1.61-2.66-.91,0-.78,2.26-1.82,2.26-.78,0-.24-2.19-.84-2.19s-1.03,2.24-1.65,2.24h0Z"/>
    </g>
    <g>
      <path class="cls-25" d="M476.93,378.52c1.46-1.81,2.87-3.56,4.28-5.31.85-1.05,1.69-2.11,2.54-3.17.06-.07.11-.14.23-.13.91,0,1.81,0,2.77,0-.35.44-.67.84-.99,1.25-1.31,1.64-2.62,3.29-3.93,4.92-.08.1-.07.17-.02.27.53,1,1.05,1.99,1.58,2.99.62,1.18,1.25,2.36,1.87,3.54.66,1.26,1.32,2.52,2,3.77.12.23.07.26-.16.25-.77-.01-1.54,0-2.3,0-.14,0-.21-.04-.28-.17-1.42-2.73-2.84-5.46-4.27-8.2-.05-.09-.09-.19-.15-.3-.35.31-.63.69-.94,1.03-.73.82-1.44,1.64-2.16,2.46-.08.1-.07.19-.07.29,0,1.54,0,3.07,0,4.61,0,.21-.04.28-.27.28-.63-.02-1.26-.01-1.88,0-.18,0-.21-.05-.21-.22,0-7.73,0-15.46,0-23.2,0-.17.04-.22.22-.22.63.01,1.26.02,1.88,0,.23,0,.26.07.26.28,0,4.85,0,9.7,0,14.56v.41Z"/>
      <path class="cls-25" d="M458.92,372.22c.32-.3.59-.56.86-.81.73-.67,1.53-1.25,2.5-1.54,1.48-.45,2.95-.41,4.35.29,1.09.54,1.74,1.45,2.08,2.6.14.47.21.95.21,1.44,0,4.14,0,8.27,0,12.41,0,.23-.05.31-.29.3-.6-.02-1.2-.02-1.81,0-.23,0-.27-.06-.27-.27,0-4.15.02-8.31,0-12.46,0-1.01-.41-1.87-1.4-2.31-.63-.28-1.32-.32-2-.21-1.46.24-2.62,1.02-3.69,2-.44.4-.56.81-.56,1.38.02,3.87.01,7.73.02,11.6,0,.21-.04.28-.26.28-.61-.02-1.22-.02-1.83,0-.22,0-.27-.05-.27-.27,0-7.43,0-14.87,0-22.3,0-.28,0-.56,0-.84,0-.16.03-.23.21-.22.64.01,1.27.01,1.91,0,.2,0,.24.05.24.24,0,2.78,0,5.57,0,8.35v.35Z"/>
      <path class="cls-25" d="M446.83,387.25c-1.85,0-3.36-.35-4.75-1.2-.82-.5-1.49-1.15-2.09-1.9-.09-.11-.06-.18.05-.26.53-.39,1.06-.78,1.59-1.19.13-.1.16-.04.24.05.52.67,1.1,1.27,1.84,1.7,1.13.66,2.36.86,3.66.71.72-.08,1.4-.28,1.96-.75.9-.74,1.24-1.79.8-2.86-.23-.56-.68-.93-1.18-1.25-.84-.53-1.79-.75-2.71-1.08-1.08-.39-2.2-.68-3.25-1.13-1.42-.6-2.45-1.68-2.54-3.47-.05-.95.09-1.87.57-2.7.28-.48.63-.9,1.09-1.24,1.03-.74,2.2-1.06,3.46-1.11,1.48-.05,2.84.32,4.12,1.03.72.4,1.34.92,1.89,1.53.09.1.17.22.26.32.08.09,0,.15-.06.19-.46.4-.92.79-1.37,1.19-.12.11-.17.11-.29-.01-.45-.46-.87-.95-1.42-1.31-1.06-.71-2.21-1.04-3.48-.9-.94.1-1.82.38-2.21,1.35-.41,1-.32,1.89.56,2.6.63.51,1.39.77,2.14,1.03,1.22.42,2.42.87,3.65,1.26.98.31,1.79.85,2.41,1.64.71.91.96,1.95.88,3.1-.05.8-.26,1.53-.69,2.21-.47.74-1.12,1.27-1.89,1.68-.93.5-2.19.78-3.24.75Z"/>
      <path class="cls-25" d="M432.89,373.29c.16-.26.31-.51.47-.75.46-.69.96-1.34,1.63-1.85.76-.58,1.63-.88,2.56-1,.25-.03.5-.07.75-.06.12,0,.15.04.14.15,0,.69,0,1.38,0,2.07,0,.11-.03.14-.15.15-.36.03-.72.07-1.08.16-1.02.26-1.85.79-2.51,1.61-.88,1.11-1.42,2.39-1.86,3.72-.03.08-.02.17-.02.26,0,2.96,0,5.92,0,8.88,0,.21-.03.28-.26.28-.63-.02-1.26-.01-1.88,0-.17,0-.22-.04-.22-.22,0-5.52,0-11.05,0-16.57,0-.17.04-.22.21-.21.65.01,1.29.01,1.94,0,.17,0,.22.04.21.21,0,.97,0,1.94,0,2.91,0,.08-.03.17.04.27Z"/>
      <path class="cls-25" d="M409.32,379.22c-.3-1.5-1.09-2.69-2.3-3.6-.59-.44-1.25-.78-1.98-.95-.05-.01-.11-.02-.12-.08,0-.07.07-.06.11-.08.38-.16.77-.31,1.13-.51.78-.43,1.44-1,1.91-1.76.62-.99.82-2.09.78-3.24-.07-2.36-1.24-4.01-3.32-5.04-1.11-.55-2.33-.66-3.55-.67-2.72-.01-5.45,0-8.17,0-.23,0-.29.06-.29.29,0,3.85,0,7.7,0,11.55h0v11.41q0,.4.42.4c2.39,0,4.78,0,7.17,0,.88,0,1.76-.04,2.62-.21,1.22-.23,2.41-.55,3.45-1.29.88-.62,1.52-1.42,1.87-2.44.43-1.23.5-2.49.25-3.77ZM396.16,369.47c0-1.24,0-2.48,0-3.72,0-.18.03-.25.24-.25,1.82.01,3.65-.01,5.47.02.78.01,1.56.11,2.29.4,1.05.42,1.69,1.17,1.94,2.26.18.77.21,1.55-.01,2.32-.29.99-.96,1.66-1.81,2.16-1.01.59-2.13.77-3.28.78-1.53,0-3.05,0-4.58,0-.2,0-.26-.05-.26-.26.01-1.24,0-2.48,0-3.72ZM406.5,382.24c-.39.93-1.11,1.52-2.01,1.9-.93.39-1.92.52-2.92.54-1.72.03-3.44,0-5.15.02-.2,0-.26-.05-.26-.26,0-1.42,0-2.84,0-4.27h0c0-1.43,0-2.86,0-4.29,0-.16.03-.22.21-.22,1.5,0,3-.03,4.5.01,1.12.03,2.23.17,3.26.66.97.46,1.76,1.11,2.26,2.07.37.69.45,1.45.44,2.22,0,.56-.12,1.1-.33,1.62Z"/>
      <path class="cls-25" d="M502.69,386.68c-.27-1.2-.36-2.42-.36-3.65,0-2.91,0-5.81,0-8.72,0-.78-.21-1.51-.6-2.18-.79-1.37-2.06-2.07-3.56-2.38-1.03-.21-2.07-.22-3.12-.06-2.17.33-3.8,1.46-4.9,3.36-.06.1-.1.15.05.23.58.29,1.16.59,1.73.89.17.09.22.06.3-.11.39-.85.97-1.55,1.83-1.95,1.26-.59,2.59-.65,3.92-.31.99.26,1.65.89,1.9,1.93.15.61.07,1.21.1,1.82,0,.12-.07.11-.15.12-.43.08-.87.16-1.3.25-2.11.44-4.18.97-6.1,2-.84.45-1.58,1.05-2.09,1.87-.68,1.07-.84,2.25-.71,3.5.13,1.28.72,2.29,1.73,3.05.73.55,1.58.82,2.49.88,1.06.07,2.09-.04,3.09-.43,1.13-.43,2.07-1.12,2.89-1.99.07-.07.11-.18.24-.18.08.7.16,1.4.24,2.1,0,.08-.04.2.13.2.76,0,1.52,0,2.28,0-.01-.1-.01-.17-.03-.25ZM499.97,380.09c0,.72,0,1.43,0,2.15,0,.1,0,.19-.08.29-1.01,1.1-2.21,1.93-3.62,2.43-.7.25-1.44.39-2.17.19-.92-.25-1.68-.76-2.02-1.69-.3-.82-.18-1.63.3-2.37.66-1.01,1.68-1.56,2.75-2.02,1.5-.64,3.06-1.02,4.66-1.3.18-.03.18.04.18.17,0,.72,0,1.43,0,2.15Z"/>
      <path class="cls-25" d="M426.94,383.21c-.35-.18-.7-.35-1.05-.53-.21-.1-.45-.32-.62-.27-.17.05-.27.35-.4.55-1.26,1.81-3,2.46-5.01,2.22-1.33-.16-2.34-.92-3.11-2-.88-1.22-1.22-2.61-1.25-4.09,0-.21.06-.24.24-.23,1.75,0,3.51,0,5.26,0h2.64c.89,0,1.78,0,2.67,0,.2,0,.24-.05.24-.24-.01-.59.01-1.19,0-1.78-.05-1.42-.26-2.82-.94-4.09-.66-1.22-1.6-2.15-2.9-2.68-1.04-.42-2.13-.54-3.24-.46-1.48.11-2.78.65-3.85,1.69-.98.96-1.62,2.11-1.99,3.42-.29,1.01-.43,2.05-.46,3.11-.03,1.12.01,2.24.25,3.34.32,1.5.92,2.85,2,3.96.76.79,1.64,1.39,2.68,1.74,1.33.45,2.7.46,4.07.24,1.04-.17,2.02-.53,2.84-1.21.84-.69,1.49-1.55,2.03-2.49.08-.14,0-.16-.09-.21ZM415.59,376.61c.12-1.19.41-2.33,1.12-3.33.65-.92,1.53-1.44,2.65-1.6.68-.1,1.35-.08,2.01.11.64.18,1.14.55,1.58,1.04.84.94,1.13,2.08,1.23,3.29.01.16.01.33.03.49.02.19-.05.23-.23.23-1.36,0-2.72,0-4.08,0s-2.72,0-4.08,0c-.19,0-.24-.06-.22-.24Z"/>
    </g>
    <text class="cls-6" transform="translate(646.75 110.17) scale(.86 1)"><tspan x="0" y="0">TERRANO</tspan><tspan class="cls-69" x="76.12" y="0">V</tspan><tspan class="cls-68" x="86.12" y="0">A</tspan></text>
    <g>
      <path class="cls-25" d="M393.07,124.06s1.71-.71,4.19-.1l.03.97s-2.35-.76-4.21.08v-.95h-.01Z"/>
      <polygon class="cls-25" points="394.31 124.36 396.11 124.34 396.14 126.33 394.34 126.36 394.31 124.36 394.31 124.36"/>
      <path class="cls-23" d="M390.78,125.05h0c0-.73.49-1.38,1.31-1.85.78-.45,1.85-.73,3.03-.75h0s0,0,0,0c1.18-.02,2.26.24,3.05.67.83.45,1.35,1.09,1.35,1.82h0s0,0,0,0c0,.73-.49,1.38-1.31,1.85-.78.45-1.85.73-3.03.75h0s0,0,0,0c-1.18.02-2.26-.24-3.05-.67-.83-.45-1.35-1.09-1.35-1.81h0ZM391.21,125.04h0s0,0,0,0c0,.56.44,1.06,1.13,1.44.73.39,1.74.63,2.85.61h0s0,0,0,0c1.11-.02,2.11-.28,2.83-.69.68-.39,1.1-.91,1.09-1.47h0s0,0,0,0c0-.56-.44-1.06-1.13-1.44-.73-.39-1.74-.63-2.85-.61h0s0,0,0,0c-1.11.02-2.11.28-2.83.69-.68.39-1.1.91-1.09,1.47h0Z"/>
      <path class="cls-25" d="M393.07,124.06s1.71-.71,4.19-.1l.03.97s-2.35-.76-4.21.08v-.95h-.01Z"/>
      <polygon class="cls-25" points="394.31 124.36 396.11 124.34 396.14 126.33 394.34 126.36 394.31 124.36 394.31 124.36"/>
      <polygon class="cls-25" points="398.9 130.49 400.09 130.47 400.11 132.17 398.92 132.19 398.9 130.49 398.9 130.49"/>
      <path class="cls-25" d="M378.7,130.91s1.14-.47,2.78-.06l.02.64s-.32-.1-.78-.16l.02,1.16-1.19.02-.02-1.19c-.28.04-.56.11-.82.23v-.63h0Z"/>
      <path class="cls-25" d="M389.97,130.61c.21,0,.6.04.84.35l.56,1.34-1.18.02-.62-1.15h-.82s.56,1.15.56,1.15l-1.2.02-.63-1.14h-.58s.02,1.15.02,1.15l-1.18.02-.02-1.7,4.25-.06h0Z"/>
      <path class="cls-25" d="M382.66,131.59c0-.25.4-.45.9-.46s.91.19.91.43-.4.45-.9.46-.91-.19-.91-.43h0ZM381.57,131.6c0-.55.88-1.01,1.99-1.02s2.01.42,2.01.97-.88,1.01-1.99,1.02-2.01-.42-2.01-.97h0Z"/>
      <path class="cls-25" d="M392.4,130.72s1.14-.47,2.78-.06l.02.64s-.32-.1-.78-.17l.02,1.16-1.19.02-.02-1.19c-.28.04-.56.11-.82.23v-.63h0Z"/>
      <path class="cls-25" d="M397.34,131.01h-.56c-.11.05-.3.15-.42.37h.99s0-.37,0-.37h0ZM396.77,130.52l1.69-.02.02,1.7-1.12.02v-.42s-1.13.02-1.13.02c-.02.12-.02.26,0,.42l-1.17.02s-.26-1.36,1.72-1.74h0Z"/>
      <polygon class="cls-25" points="400.48 130.46 401.66 130.44 401.67 131.61 402.46 131.6 402.47 132.14 400.51 132.17 400.48 130.46 400.48 130.46"/>
      <path class="cls-25" d="M403.59,131.27c0-.25.4-.45.9-.46s.91.19.91.43-.4.45-.9.46-.91-.19-.91-.43h0ZM402.5,131.29c0-.55.88-1.01,1.99-1.02s2.01.42,2.01.97-.88,1.01-1.99,1.02c-1.1.02-2.01-.42-2.01-.97h0Z"/>
      <path class="cls-25" d="M407.72,131.01c0-.14.24-.25.54-.26s.54.1.54.24-.24.25-.54.26-.54-.1-.54-.24h0ZM406.59,130.66s.38-.32,1.27-.34h.77s1.19.02,1.23.58v.14s-.09.35-.66.47l.57.44-.82.35-1.19-.8v.56s-1.17.02-1.17.02v-1.4s0-.03,0-.03h0Z"/>
      <polygon class="cls-25" points="398.9 130.49 400.09 130.47 400.11 132.17 398.92 132.19 398.9 130.49 398.9 130.49"/>
      <path class="cls-25" d="M378.7,130.91s1.14-.47,2.78-.06l.02.64s-.32-.1-.78-.16l.02,1.16-1.19.02-.02-1.19c-.28.04-.56.11-.82.23v-.63h0Z"/>
      <path class="cls-25" d="M389.97,130.61c.21,0,.6.04.84.35l.56,1.34-1.18.02-.62-1.15h-.82s.56,1.15.56,1.15l-1.2.02-.63-1.14h-.58s.02,1.15.02,1.15l-1.18.02-.02-1.7,4.25-.06h0Z"/>
      <path class="cls-25" d="M382.66,131.59c0-.25.4-.45.9-.46s.91.19.91.43-.4.45-.9.46-.91-.19-.91-.43h0ZM381.57,131.6c0-.55.88-1.01,1.99-1.02s2.01.42,2.01.97-.88,1.01-1.99,1.02-2.01-.42-2.01-.97h0Z"/>
      <path class="cls-25" d="M392.4,130.72s1.14-.47,2.78-.06l.02.64s-.32-.1-.78-.17l.02,1.16-1.19.02-.02-1.19c-.28.04-.56.11-.82.23v-.63h0Z"/>
      <path class="cls-25" d="M397.34,131.01h-.56c-.11.05-.3.15-.42.37h.99s0-.37,0-.37h0ZM396.77,130.52l1.69-.02.02,1.7-1.12.02v-.42s-1.13.02-1.13.02c-.02.12-.02.26,0,.42l-1.17.02s-.26-1.36,1.72-1.74h0Z"/>
      <polygon class="cls-25" points="400.48 130.46 401.66 130.44 401.67 131.61 402.46 131.6 402.47 132.14 400.51 132.17 400.48 130.46 400.48 130.46"/>
      <path class="cls-25" d="M403.59,131.27c0-.25.4-.45.9-.46s.91.19.91.43-.4.45-.9.46-.91-.19-.91-.43h0ZM402.5,131.29c0-.55.88-1.01,1.99-1.02s2.01.42,2.01.97-.88,1.01-1.99,1.02c-1.1.02-2.01-.42-2.01-.97h0Z"/>
      <path class="cls-25" d="M407.72,131.01c0-.14.24-.25.54-.26s.54.1.54.24-.24.25-.54.26-.54-.1-.54-.24h0ZM406.59,130.66s.38-.32,1.27-.34h.77s1.19.02,1.23.58v.14s-.09.35-.66.47l.57.44-.82.35-1.19-.8v.56s-1.17.02-1.17.02v-1.4s0-.03,0-.03h0Z"/>
    </g>
    <text class="cls-9" transform="translate(17.32 240.37) scale(.85 1)"><tspan x="0" y="0">S</tspan><tspan class="cls-45" x="1.9" y="0">T</tspan><tspan x="3.71" y="0">O</tspan><tspan class="cls-70" x="6.36" y="0">R</tspan><tspan class="cls-73" x="8.46" y="0">A</tspan><tspan x="10.75" y="0">GE</tspan></text>
    <text class="cls-16" transform="translate(325.87 151.14) scale(.47 1)"><tspan x="0" y="0">TELENOR</tspan></text>
    <g>
      <path class="cls-23" d="M248.48,121.93v1.88h1.24v1.21h-1.24v2.41h1.71v1.27h-2.37v-8.05h2.4v1.27h-1.73Z"/>
      <path class="cls-23" d="M253.27,128.82l-1.83-5.09v4.99h-.64v-8.06h.32l1.78,4.86v-4.86h.64v8.16h-.27Z"/>
      <path class="cls-23" d="M257.09,121.32l-.28,1.15c-.08-.15-.2-.3-.36-.45s-.31-.22-.42-.22c-.37,0-.66.27-.88.81-.21.54-.32,1.26-.32,2.16s.1,1.54.31,2.06c.21.51.5.77.86.77.24,0,.43-.14.59-.42v-1.58h-.52v-1.22h1.19v3.6c-.16.28-.36.5-.62.65-.25.16-.5.23-.75.23-.54,0-.97-.38-1.28-1.13-.32-.76-.47-1.76-.47-3s.17-2.25.52-3.03c.34-.78.81-1.17,1.39-1.17.41,0,.76.26,1.05.79Z"/>
      <path class="cls-23" d="M257.84,128.71v-8.05h.67v6.78h1.7v1.27h-2.37Z"/>
      <path class="cls-23" d="M260.76,128.71v-8.05h.67v8.05h-.67Z"/>
      <path class="cls-23" d="M262.04,128.27l.25-1.28c.26.4.52.59.78.59.39,0,.59-.29.59-.88,0-.27-.05-.54-.14-.79s-.28-.53-.57-.84c-.29-.31-.48-.56-.58-.76s-.18-.44-.23-.71c-.05-.27-.08-.58-.08-.91,0-.62.11-1.14.32-1.55.21-.41.49-.62.82-.62.44,0,.75.17.96.52l-.2,1.23c-.23-.36-.48-.54-.74-.54-.15,0-.27.09-.36.26-.08.17-.13.4-.13.68,0,.46.24.94.72,1.44.25.26.43.51.54.73s.2.48.25.77c.06.29.09.62.09.99,0,.65-.12,1.19-.36,1.61-.24.42-.56.63-.97.63-.35,0-.67-.19-.95-.58Z"/>
      <path class="cls-23" d="M267.07,128.71v-3.63h-1.5v3.63h-.67v-8.05h.67v3.15h1.5v-3.15h.66v8.05h-.66Z"/>
      <path class="cls-23" d="M253.22,142.22v-3.63h-1.5v3.63h-.67v-8.05h.67v3.15h1.5v-3.15h.66v8.05h-.66Z"/>
      <path class="cls-23" d="M254.47,138.13c0-1.15.15-2.12.44-2.91.29-.79.69-1.19,1.18-1.19.54,0,.95.36,1.24,1.08s.43,1.73.43,3.02-.15,2.33-.45,3.09c-.3.76-.72,1.14-1.27,1.14-.5,0-.89-.38-1.16-1.13-.27-.75-.4-1.79-.4-3.1ZM255.16,138.13c0,.94.07,1.67.22,2.19.15.52.37.77.65.77.33,0,.59-.25.76-.76.18-.51.26-1.24.26-2.2,0-1.89-.33-2.83-.98-2.83-.3,0-.53.26-.69.77s-.24,1.2-.24,2.06Z"/>
      <path class="cls-23" d="M261.85,142.23h-.65l-.39-4.34-.76,4.45h-.24l-.76-4.45-.41,4.34h-.64l.76-8.06h.35l.81,5.42.8-5.42h.35l.77,8.06Z"/>
      <path class="cls-23" d="M262.93,135.44v1.88h1.24v1.21h-1.24v2.41h1.71v1.27h-2.37v-8.05h2.4v1.27h-1.73Z"/>
    </g>
    <g id="LOGO">
      <path class="cls-23" d="M196.28,516.1c-.12-.02-.68-.12-1.34-.12s-1.22.09-1.34.12c-.07,0-.09-.05-.04-.09.05-.03,1.38-1.05,1.38-1.05,0,0,1.33,1.01,1.38,1.05.05.04.03.1-.04.09M193.97,522.69s-.07.02-.09.09c.28.22.47.71,1.05.71s.78-.49,1.06-.71c-.02-.06-.09-.09-.09-.09,0,0-.36.08-.97.08s-.97-.08-.97-.08M194.94,521.87c-.16,0-.2-.06-.31-.06s-.31.08-.35.16c0,.04.02.07.04.11.24.03.34.16.62.16s.38-.13.62-.16c.03-.03.04-.07.05-.11-.04-.08-.25-.16-.35-.16-.11,0-.15.06-.31.06M208.23,524.38c-.02.32-.05.63-.09.95-1.5.25-2.04-1.09-3.59-1.03.09.33.17.66.22,1,1.27,0,1.79,1.19,3.2,1.01-.07.37-.16.72-.27,1.08-1.12.11-1.51-1-2.81-.97.01.18.02.37.02.56,0,.1,0,.21,0,.31,1.1-.01,1.46,1.01,2.52.96-.13.36-.28.71-.44,1.05-.76-.04-1.02-1.01-2.17-.93-.03.25-.08.5-.13.74,1-.07,1.22.85,1.93.93-.18.33-.38.66-.59.97-.42-.23-.79-.91-1.6-.96.08-.26.15-.51.22-.78-.71,0-1.53-.28-2.21-.9.22-1.26-1.74-2.55-1.74-3.47,0-1,.51-1.56.51-2.91,0-1.01-.49-2.1-1.22-2.84-.14-.15-.29-.26-.46-.37.68.84,1.2,1.83,1.2,2.98,0,1.28-.59,1.95-.59,3.12s1.72,2.2,1.72,3.41c0,.48-.15.94-.65,1.86.77.77,1.78,1.19,2.43,1.19.21,0,.32-.06.4-.23.07-.14.13-.29.18-.43.7.03,1.02.66,1.41.92-.21.29-.44.56-.67.83-.26-.29-.61-.77-1.12-.91-.09.18-.19.35-.29.52.44.12.74.57.97.86-.25.26-.51.51-.78.75-.17-.26-.43-.6-.73-.78-.11.15-.22.29-.34.43.25.17.48.48.62.73-.31.25-.64.49-.98.71-.17-1.35-2.01-2.28-1.51-3.85-.16.28-.36.62-.36,1.04,0,1.13,1.21,2.03,1.31,3.16-.25.15-.51.29-.77.42-.04-1.24-1.32-2.6-1.32-3.62,0-1.13,1.49-2.28,1.49-3.62s-1.72-2.27-1.72-3.45.73-1.86.73-3.37c0-1.11-.52-2.22-1.34-2.94-.14-.13-.28-.23-.45-.32.77.92,1.21,1.75,1.21,3.01,0,1.42-.84,2.21-.84,3.6s1.68,2.16,1.68,3.46-1.57,2.39-1.57,3.72c0,1.21,1.38,2.42,1.4,3.86-.3.13-.61.25-.92.36.18-1.45-1.38-2.95-1.38-4.13,0-1.29,1.63-2.41,1.63-3.8s-1.65-2.05-1.65-3.48,1.01-2.23,1.01-3.81c0-1.23-.61-2.34-1.5-3.03-.02-.02-.04-.03-.06-.04-.08-.06-.15.01-.09.09.63.79.97,1.58.97,2.76,0,1.45-1.17,2.63-1.17,4.03,0,1.65,1.57,2.13,1.57,3.49s-1.68,2.44-1.68,3.89c0,1.34,1.59,2.82,1.31,4.36-.32.08-.64.16-.97.22.3-1.92-1.26-3.3-1.26-4.56,0-1.36,1.74-2.57,1.74-3.9,0-1.25-1.25-1.66-1.41-2.95-.02-.18-.16-.3-.36-.28-.25.05-.58.22-1.09.22s-.84-.17-1.09-.22c-.19-.03-.34.1-.36.28-.16,1.28-1.41,1.69-1.41,2.95,0,1.33,1.74,2.54,1.74,3.9,0,1.26-1.56,2.64-1.26,4.56-.33-.06-.65-.13-.97-.22-.27-1.54,1.32-3.03,1.32-4.36,0-1.44-1.68-2.53-1.68-3.89s1.57-1.83,1.57-3.49c0-1.4-1.17-2.58-1.17-4.03,0-1.18.34-1.97.97-2.76.06-.07,0-.15-.09-.09-.02.01-.04.03-.06.04-.89.69-1.5,1.8-1.5,3.03,0,1.58,1.02,2.38,1.02,3.81s-1.65,2.08-1.65,3.48,1.63,2.51,1.63,3.8c0,1.19-1.55,2.68-1.38,4.13-.31-.11-.62-.23-.92-.36.02-1.44,1.4-2.64,1.4-3.86,0-1.33-1.57-2.42-1.57-3.72s1.68-2.07,1.68-3.46-.84-2.18-.84-3.6c0-1.26.44-2.09,1.21-3.01-.17.09-.31.19-.46.32-.81.72-1.34,1.83-1.34,2.94,0,1.51.73,2.19.73,3.37s-1.72,2.11-1.72,3.45,1.49,2.48,1.49,3.62c0,1.02-1.28,2.37-1.32,3.62-.26-.13-.52-.28-.77-.42.1-1.13,1.31-2.03,1.31-3.16,0-.42-.19-.76-.36-1.04.5,1.57-1.35,2.5-1.51,3.85-.34-.22-.66-.46-.97-.71.14-.25.37-.56.62-.73-.12-.14-.23-.28-.34-.43-.3.18-.56.52-.73.78-.27-.24-.53-.49-.78-.75.23-.29.53-.73.97-.86-.1-.17-.2-.34-.29-.52-.51.13-.86.62-1.12.91-.23-.27-.46-.54-.67-.83.39-.25.71-.89,1.41-.92.06.15.12.29.18.43.08.17.19.23.4.23.65,0,1.66-.42,2.43-1.19-.5-.92-.65-1.38-.65-1.86,0-1.21,1.72-2.23,1.72-3.41s-.59-1.85-.59-3.12c0-1.15.52-2.14,1.19-2.98-.17.1-.31.22-.46.37-.74.74-1.22,1.83-1.22,2.84,0,1.35.51,1.91.51,2.91,0,.93-1.96,2.21-1.74,3.47-.68.62-1.5.9-2.21.9.06.26.13.52.22.78-.8.04-1.17.73-1.6.96-.21-.31-.41-.64-.59-.97.72-.07.93-1,1.93-.93-.05-.24-.1-.49-.13-.74-1.15-.08-1.41.89-2.17.93-.16-.34-.31-.69-.44-1.05,1.05.05,1.41-.97,2.52-.96,0-.1,0-.21,0-.31,0-.19,0-.37.02-.56-1.29-.03-1.69,1.08-2.81.97-.1-.35-.19-.71-.27-1.08,1.41.18,1.93-1.01,3.2-1.01.06-.34.13-.67.23-1-1.54-.07-2.08,1.28-3.59,1.03-.04-.31-.07-.63-.09-.95,1.75.2,2.41-1.24,4-1.07.15-.38.33-.75.52-1.1-2-.35-2.68,1.32-4.54,1.06.2-7.18,6.08-12.93,13.3-12.93s13.11,5.76,13.31,12.93c-1.86.26-2.54-1.42-4.54-1.06.19.35.37.72.52,1.1,1.59-.17,2.25,1.26,4,1.07M189.22,518.8c-.98-.4-2.17-.31-3.18.34-.16-.94-.67-1.78-1.4-2.29-.1-.07-.2,0-.2.11.15,1.99-1.01,3.72-2.44,5.24,1.48.44,2.73-1.46,4.65-.79.69-1.02,1.56-1.91,2.57-2.62M194.94,517.6c-1.23,0-2.27.7-2.54,1.6-.02.07,0,.11.09.08.22-.1.48-.15.75-.15.5,0,.95.19,1.21.51.12.38.13.94,0,1.25-.21-.05-.28-.21-.49-.21s-.36.14-.7.14-.38-.16-.61-.16c-.27,0-.31.27-.31.58,0,1.37,1.27,3.27,2.61,3.27s2.61-1.9,2.61-3.27c0-.31-.06-.57-.34-.61-.14.1-.27.19-.58.19-.34,0-.44-.14-.64-.14-.24,0-.22.51-.51.55-.19-.47-.2-1.06-.04-1.59.26-.32.71-.51,1.21-.51.28,0,.53.05.75.15.08.04.11,0,.09-.08-.27-.9-1.31-1.6-2.54-1.6M196.91,519.57c-.3,0-.64.09-.86.33-.02.07-.02.16,0,.23.54-.18,1.01-.19,1.24.06.12-.11.16-.21.16-.32,0-.18-.18-.3-.55-.3M192.58,520.2c.26-.26.81-.25,1.37-.04.03-.28-.48-.59-.99-.59-.37,0-.55.12-.55.3,0,.11.04.22.16.32M201.1,515.54c-.98.07-1.82.4-2.51.96.29-.82.66-1.55,1.13-2.25-1.24.13-2.28.59-3.04,1.36l-.59-1.55,1.32-1.16-1.76-.13-.71-1.64-.7,1.64-1.76.13,1.31,1.16-.59,1.55c-.76-.77-1.8-1.23-3.04-1.36.47.7.84,1.42,1.13,2.25-.69-.56-1.53-.9-2.51-.96.59.75,1.1,1.56,1.49,2.42.04.1.14.13.24.08,1.34-.66,2.84-1.04,4.44-1.04s3.1.37,4.44,1.04c.1.05.19.02.24-.08.38-.86.9-1.66,1.49-2.42M203.23,521.42c1.91-.66,3.17,1.24,4.65.79-1.43-1.52-2.6-3.25-2.44-5.24,0-.12-.1-.18-.19-.11-.73.51-1.24,1.34-1.4,2.29-1.01-.65-2.2-.74-3.18-.34,1.01.71,1.88,1.6,2.57,2.62"/>
    </g>
    <text class="cls-14" transform="translate(184.55 472.84) scale(.47 1)"><tspan x="0" y="0">VINOPO</tspan><tspan class="cls-65" x="38.66" y="0">L</tspan><tspan class="cls-42" x="43" y="0">Y</tspan></text>
    <text class="cls-14" transform="translate(257.1 506.88) scale(.47 1)"><tspan x="0" y="0">SUBRA</tspan></text>
    <text class="cls-10" transform="translate(285.42 525.97) scale(.62 1)"><tspan x="0" y="0">GRAND OPTICS</tspan></text>
    <text class="cls-14" transform="translate(349.41 513.88) scale(.47 1)"><tspan x="0" y="0">VI</tspan><tspan class="cls-56" x="9.68" y="0">V</tspan><tspan class="cls-49" x="15.75" y="0">A</tspan><tspan class="cls-64" x="22.54" y="0">C</tspan><tspan x="28.63" y="0">OM</tspan></text>
    <text class="cls-14" transform="translate(390.58 504.68) scale(.47 1)"><tspan class="cls-67" x="0" y="0">C</tspan><tspan x="5.92" y="0">CB</tspan></text>
    <g>
      <path class="cls-23" d="M270.38,424.62c.08,0,.16,0,.24,0v2.61c-.08,0-.16,0-.24,0,0-.11,0-.22,0-.32-.12.15-.29.28-.48.33-.24.07-.52.05-.74-.08-.26-.15-.45-.42-.49-.72-.03-.22,0-.46.12-.65.14-.23.36-.41.62-.47.19-.04.4-.03.59.04.16.07.29.19.39.32,0-.36,0-.71,0-1.07ZM269.53,425.54c-.06,0-.12.03-.18.05-.27.12-.45.41-.45.7,0,.17.06.34.17.48.11.14.27.24.44.27.29.06.62-.08.77-.33.11-.18.14-.4.09-.6-.04-.2-.17-.37-.35-.48-.15-.09-.33-.11-.5-.09Z"/>
      <path class="cls-23" d="M259.84,424.66c.14-.04.3.07.31.22.02.14-.11.28-.25.27-.13,0-.26-.11-.26-.24,0-.12.09-.23.2-.25Z"/>
      <path class="cls-23" d="M271.5,424.68c.06-.02.12-.01.18.02.05.03.09.09.09.15,0,.06-.02.13-.06.17-.06.06-.15.07-.22.04-.07-.03-.12-.11-.12-.19,0-.08.06-.16.13-.19Z"/>
      <path class="cls-23" d="M261.49,425.34c.16-.06.34-.06.5,0,.15.06.28.17.34.32.06.15.05.31.05.46v1.1c-.16,0-.31,0-.47,0,0-.29,0-.57,0-.86,0-.12,0-.24-.02-.36-.01-.08-.05-.17-.12-.22-.08-.06-.18-.07-.27-.05-.1.02-.19.1-.24.19-.04.07-.06.15-.07.23,0,.1,0,.2-.01.3,0,.26,0,.51,0,.77-.16,0-.31,0-.47,0,0-.63,0-1.25,0-1.88.16,0,.31,0,.47,0,0,.06,0,.13,0,.19.09-.08.19-.15.31-.19Z"/>
      <path class="cls-23" d="M263.53,425.38c.16-.08.35-.11.52-.06.12.04.24.11.31.21.04.07.08.14.1.21.08-.14.19-.27.33-.35.15-.09.34-.12.51-.09.15.03.29.13.38.26.1.16.11.36.12.55,0,.37,0,.73,0,1.1-.08,0-.17,0-.25,0,0-.31,0-.62,0-.92,0-.15,0-.29-.02-.44-.01-.09-.06-.17-.13-.23-.09-.08-.22-.11-.34-.1-.2.01-.38.14-.46.32-.06.11-.07.24-.08.36-.02.21,0,.43,0,.64,0,.12,0,.25,0,.37-.08,0-.16,0-.24,0,0-.27,0-.55,0-.82,0-.14,0-.29-.01-.43,0-.08-.02-.17-.06-.24-.06-.11-.18-.18-.3-.2-.15-.02-.3.03-.42.12-.12.09-.19.23-.22.37-.05.23-.03.47-.03.7,0,.16,0,.33,0,.49-.08,0-.16,0-.24,0,0-.63,0-1.25,0-1.88.08,0,.16,0,.24,0,0,.11,0,.22,0,.32.08-.12.18-.23.31-.29Z"/>
      <path class="cls-23" d="M266.84,425.39c.18-.09.39-.11.58-.09.17.02.33.09.46.2.12.1.23.23.29.38.05.13.08.28.08.42-.56,0-1.13,0-1.69,0,0,.16.04.32.13.45.09.13.23.24.38.28.21.06.44.02.62-.1.13-.08.21-.2.28-.33.07.03.14.07.2.11-.07.15-.18.29-.31.38-.14.1-.3.16-.47.18-.21.02-.43,0-.61-.11-.15-.08-.26-.21-.34-.36-.19-.31-.18-.73.01-1.04.09-.15.22-.29.38-.37ZM266.85,425.66c-.14.1-.22.27-.27.43.47,0,.93,0,1.4,0-.03-.12-.08-.24-.17-.34-.24-.26-.68-.31-.96-.09Z"/>
      <path class="cls-23" d="M259.42,425.73c0-.12,0-.24,0-.35.23,0,.46,0,.7,0,0,.62,0,1.23,0,1.85-.15,0-.3,0-.45,0,0-.5,0-1,0-1.5-.08,0-.16,0-.25,0Z"/>
      <path class="cls-23" d="M271.14,425.37c.19,0,.39,0,.58,0,0,.62,0,1.23,0,1.85-.11,0-.22,0-.33,0,0-.53,0-1.05,0-1.58-.08,0-.17,0-.25,0,0-.09,0-.18,0-.28Z"/>
    </g>
    <path class="cls-23" d="M273.11,425.3c.18-.03.37,0,.54.07.16.07.29.19.38.34.12.21.15.46.11.69-.05.3-.25.57-.51.72-.21.13-.47.16-.71.13-.18-.02-.35-.1-.47-.22-.13-.13-.22-.3-.24-.49-.03-.21,0-.42.08-.61.07-.16.19-.3.32-.42.15-.12.32-.2.51-.23ZM273.09,425.74c-.1.02-.2.08-.27.16-.1.11-.16.26-.17.41,0,.1,0,.19.04.28.04.1.13.18.23.22.09.04.2.04.29.02.11-.02.22-.07.3-.15.1-.11.17-.25.18-.4.01-.1,0-.21-.04-.3-.05-.11-.14-.19-.26-.23-.1-.03-.2-.03-.31,0Z"/>
    <text class="cls-5" transform="translate(254.47 400.95) scale(.47 1)"><tspan x="0" y="0">E</tspan><tspan class="cls-48" x="4.33" y="0">C</tspan><tspan class="cls-63" x="9.34" y="0">O FRESH</tspan></text>
    <text class="cls-22" transform="translate(260.77 363.32) scale(.47 1)"><tspan x="0" y="0">PCT</tspan></text>
    <text class="cls-14" transform="translate(303.05 330.32) scale(.36 1)"><tspan class="cls-61" x="0" y="0">T</tspan><tspan class="cls-46" x="5.07" y="0">A</tspan><tspan x="11.45" y="0">V</tspan><tspan class="cls-59" x="18.04" y="0">E</tspan><tspan class="cls-54" x="23.49" y="0">X</tspan></text>
    <text class="cls-14" transform="translate(308.53 312.29) scale(.47 1)"><tspan x="0" y="0">RE</tspan><tspan class="cls-58" x="11.71" y="0">F</tspan><tspan x="16.3" y="0">AN</tspan></text>
    <text class="cls-4" transform="translate(547.37 404.24) scale(.47 1)"><tspan x="0" y="0">S</tspan><tspan class="cls-44" x="3.51" y="0">W</tspan><tspan x="9.56" y="0">A</tspan><tspan class="cls-40" x="13.94" y="0">R</tspan><tspan x="17.95" y="0">OWSKI</tspan></text>
    <text class="cls-14" transform="translate(418.66 238.3) scale(.47 1)"><tspan x="0" y="0">ICENTER</tspan></text>
    <g>
      <path class="cls-23" d="M455.84,231.79h-.94v-6.59c.42-.04.71-.06.87-.06.32,0,.57.15.75.44.18.29.27.71.27,1.25s-.13.94-.39,1.24c.38.29.57.87.57,1.77,0,.6-.11,1.08-.32,1.43-.21.35-.49.53-.82.53ZM455.45,226.14v1.58c.08.01.17.02.27.02.36,0,.53-.29.53-.86,0-.51-.16-.76-.49-.76-.08,0-.19,0-.31.02ZM455.45,228.63v2.18c.11.02.2.03.27.03.24,0,.42-.09.53-.27.11-.18.17-.47.17-.88,0-.38-.05-.65-.15-.82-.1-.17-.28-.26-.54-.26-.05,0-.14,0-.28.01Z"/>
      <path class="cls-23" d="M457.47,231.79v-6.6h.55v6.6h-.55Z"/>
      <path class="cls-23" d="M458.38,230.27h.49c.05.38.2.58.45.58.18,0,.31-.12.38-.37.07-.25.11-.63.11-1.13v-4.14h.55v4.1c0,.88-.09,1.53-.26,1.95s-.45.63-.84.63c-.25,0-.46-.14-.62-.43-.16-.29-.24-.68-.26-1.19Z"/>
      <path class="cls-23" d="M460.81,228.44c0-.94.12-1.73.36-2.38.24-.65.56-.97.96-.97.44,0,.78.29,1.02.88s.35,1.41.35,2.48-.12,1.91-.37,2.53c-.25.62-.59.94-1.04.94-.41,0-.73-.31-.95-.93-.22-.62-.33-1.46-.33-2.54ZM461.38,228.44c0,.77.06,1.37.18,1.79.12.42.3.63.53.63.27,0,.48-.21.63-.62.14-.41.22-1.02.22-1.81,0-1.55-.27-2.32-.8-2.32-.24,0-.43.21-.56.63-.13.42-.2.98-.2,1.69Z"/>
      <path class="cls-23" d="M463.99,225.2h.55v4.47c0,.35.05.64.15.86.1.22.24.33.42.33.2,0,.35-.11.46-.33s.17-.52.17-.89v-4.45h.55v4.54c0,.68-.11,1.21-.32,1.59s-.5.58-.85.58-.63-.19-.83-.56-.29-.91-.29-1.61v-4.53Z"/>
      <path class="cls-23" d="M453.39,242.86h-.94v-6.59c.42-.04.71-.06.87-.06.32,0,.57.15.75.44.18.29.27.71.27,1.25s-.13.94-.39,1.24c.38.29.57.87.57,1.77,0,.6-.11,1.08-.32,1.43-.21.35-.49.53-.82.53ZM452.99,237.2v1.58c.08.01.17.02.26.02.36,0,.53-.29.53-.86,0-.51-.16-.76-.49-.76-.09,0-.19,0-.31.02ZM452.99,239.7v2.18c.11.02.2.03.27.03.24,0,.42-.09.53-.27.11-.18.17-.47.17-.88,0-.38-.05-.65-.15-.82-.1-.17-.28-.26-.54-.26-.05,0-.15,0-.28.01Z"/>
      <path class="cls-23" d="M456.75,242.86l-.82-2.72c-.08,0-.2-.01-.35-.03v2.76h-.57v-6.6s.15-.01.36-.03.37-.03.5-.03c.78,0,1.17.65,1.17,1.94,0,.39-.05.75-.16,1.07s-.24.55-.41.68l.91,2.97h-.63ZM455.58,237.28v1.83c.1.02.18.03.23.03.23,0,.4-.07.5-.21.11-.14.16-.41.16-.81,0-.32-.06-.55-.17-.68-.11-.13-.29-.19-.54-.19-.06,0-.12,0-.18.03Z"/>
      <path class="cls-23" d="M457.65,242.86v-6.6h.55v6.6h-.55Z"/>
      <path class="cls-23" d="M461.12,236.8l-.23.94c-.06-.12-.16-.25-.3-.37s-.25-.18-.35-.18c-.3,0-.54.22-.72.66-.18.44-.26,1.03-.26,1.77s.09,1.26.26,1.68c.17.42.41.63.7.63.19,0,.36-.11.48-.34v-1.3h-.43v-1h.97v2.95c-.13.23-.3.41-.5.53-.21.13-.41.19-.61.19-.44,0-.79-.31-1.05-.93-.26-.62-.39-1.44-.39-2.46s.14-1.84.42-2.48c.28-.64.66-.95,1.14-.95.34,0,.63.22.86.65Z"/>
      <path class="cls-23" d="M461.75,242.86v-6.6h.55v6.6h-.55Z"/>
      <path class="cls-23" d="M464.19,237.3v5.56h-.55v-5.56h-.98v-1.04h2.55v1.04h-1.03Z"/>
      <path class="cls-23" d="M466.82,237.3v5.56h-.55v-5.56h-.98v-1.04h2.55v1.04h-1.03Z"/>
      <path class="cls-23" d="M468.75,237.3v1.54h1.02v1h-1.02v1.98h1.4v1.04h-1.94v-6.6h1.97v1.04h-1.42Z"/>
    </g>
    <text class="cls-7" transform="translate(605.82 239.21) scale(.71 1)"><tspan x="0" y="0">JULIANY</tspan></text>
    <text class="cls-14" transform="translate(549.93 368.61) scale(.47 1)"><tspan class="cls-74" x="0" y="0">P</tspan><tspan x="5.45" y="0">ANDORA</tspan></text>
    <text class="cls-1" transform="translate(705.66 435.36) scale(.66 1)"><tspan x="0" y="0">A 1</tspan></text>
    <text class="cls-17" transform="translate(752.76 527.86) scale(.47 1)"><tspan x="0" y="0">EFB</tspan><tspan class="cls-51" x="25.34" y="0">E</tspan><tspan class="cls-43" x="33.44" y="0">T</tspan></text>
    <text class="cls-14" transform="translate(715.56 565.48) scale(.47 1)"><tspan x="0" y="0"> </tspan></text>
    <text class="cls-8" transform="translate(712.56 273.02) scale(.47 1)"><tspan x="0" y="0">DIKA</tspan></text>
    <g>
      <polygon class="cls-32" points="232.87 611.34 226.54 615.06 226.45 610.71 232.78 606.98 239.26 610.46 239.35 614.81 232.87 611.34"/>
      <polygon class="cls-32" points="232.99 617.3 226.66 621.03 226.57 616.67 232.9 612.94 239.38 616.42 239.46 620.77 232.99 617.3"/>
      <polygon class="cls-32" points="233.11 623.26 226.77 626.98 226.69 622.64 233.02 618.91 239.49 622.38 239.58 626.73 233.11 623.26"/>
    </g>
    <g>
      <polygon class="cls-32" points="665.68 608.47 659.35 612.2 659.27 607.85 665.6 604.12 672.07 607.6 672.16 611.95 665.68 608.47"/>
      <polygon class="cls-32" points="665.8 614.44 659.47 618.16 659.38 613.81 665.71 610.08 672.19 613.56 672.28 617.91 665.8 614.44"/>
      <polygon class="cls-32" points="665.92 620.4 659.58 624.12 659.5 619.78 665.83 616.05 672.31 619.52 672.39 623.87 665.92 620.4"/>
    </g>
    <path class="cls-32" d="M454.05,324.78c0-1.12-.91-2.02-2.02-2.02h-13.19c-1.12,0-2.02.9-2.02,2.02v13.19c0,1.12.9,2.02,2.02,2.02h13.19c1.12,0,2.02-.9,2.02-2.02v-13.19ZM449.19,325.32c.56,0,1.01.45,1.01,1.01s-.45,1.01-1.01,1.01-1.01-.45-1.01-1.01.45-1.01,1.01-1.01ZM441.41,325.32c.56,0,1.01.45,1.01,1.01s-.45,1.01-1.01,1.01-1.01-.45-1.01-1.01.45-1.01,1.01-1.01ZM443.42,328.2l-.28,3.37c-.02.22-.15.39-.36.47h0c-.2.08-.34.27-.35.48l-.26,4.38c-.02.29-.26.53-.56.53h-.38c-.3,0-.54-.23-.56-.53l-.26-4.38c-.01-.22-.15-.41-.35-.48-.2-.07-.34-.26-.36-.48l-.28-3.37c-.02-.28.16-.53.44-.59l.28-.06c.19-.04.38.01.51.15l.39.39c.22.22.57.22.79,0l.39-.39c.14-.14.33-.19.51-.15l.28.06c.25.07.43.32.42.6ZM445.57,337.43c0,.15-.12.27-.27.27s-.27-.12-.27-.27v-12.12c0-.15.13-.27.27-.27s.27.12.27.27v12.12ZM451.16,332.05c-.19.05-.31.23-.28.42l.12.87c.03.2-.11.4-.32.43l-.26.03c-.17.03-.31.18-.32.35l-.17,2.77c-.02.3-.26.52-.56.52h-.38c-.3,0-.54-.23-.56-.52l-.17-2.77c-.01-.18-.15-.32-.32-.35l-.26-.03c-.2-.03-.35-.22-.32-.43l.12-.87c.03-.19-.09-.37-.28-.42-.19-.05-.32-.24-.27-.44l.76-3.61c.05-.26.35-.39.57-.24l.72.46c.12.08.28.08.41,0l.71-.46c.22-.14.52-.02.57.24l.76,3.61c.03.19-.09.39-.28.44Z"/>
    <path class="cls-32" d="M306.73,43.18l1.54-2.3c.86-1.3,2.32-2.07,3.87-2.07h24.61c1.56,0,3.01.78,3.87,2.07l1.54,2.3c.79-.11,1.57-.25,2.35-.42l9.43-2.09v-7.28c-.3.09-.61.17-.93.25-1.77.41-3.32.52-5.28.52-1.01,0-2.55-.11-3.8-.31-1.74-.28-2.95-.65-3.54-1.44-2.73,1.07-5.7,1.42-8.61,1.01-3.84-.54-6.31-.82-7.32-.82-1.01,0-3.49.27-7.33.82-3,.42-6.05.04-8.85-1.1-.03.02-.07.05-.1.07-.94.56-2.04.97-3.27,1.25-1.77.41-3.32.52-5.28.52-1.01,0-2.55-.11-3.8-.31-.3-.05-.58-.1-.85-.15v6.98s9.43,2.09,9.43,2.09c.78.17,1.56.31,2.35.42ZM310.28,43.45c.17,0,.34,0,.5,0h27.33c.17,0,.34,0,.5,0l-.57-.86c-.29-.43-.77-.69-1.29-.69h-24.61c-.52,0-1,.26-1.29.69l-.57.86ZM294.96,30.46c.32.11.78.22,1.35.31,1.07.17,2.45.27,3.31.27,1.74,0,3.1-.09,4.58-.44.06-.01.12-.03.18-.04-3.49-1.44-6.63-2.29-9.41-2.54,0,.05,0,.09,0,.14v2.3ZM291.85,31.04s0,0,0,0v-2.88c0-1.06.27-2.11.79-3.03l2.99-5.34-5.6-.89h0c-.13-.02-.25-.06-.37-.12-.63-.31-.88-1.08-.57-1.71l.46-.91c.2-.41.57-.7,1.01-.81h0l4.1-1.03c.79-.2,1.61.25,1.85,1.03h0l.51,1.58,4.3-11.83C302.44,2.04,305.35,0,308.62,0h31.66c3.26,0,6.18,2.04,7.29,5.11l4.19,11.53.31-1.2c.21-.82,1.04-1.31,1.86-1.12l4.35,1.04c.44.1.81.39,1.01.79l.49.93c.32.62.09,1.38-.53,1.7-.12.06-.25.11-.39.13l-5.61.89,2.99,5.34c.52.93.79,1.97.79,3.03v2.83s0,.07,0,.11v9.26s0,6.21,0,6.21c0,2.57-2.08,4.66-4.66,4.66h-7.76c-2.57,0-4.66-2.08-4.66-4.66,0-.02,0-.04,0-.05-.62.04-1.24.05-1.86.05h-27.33c-.62,0-1.24-.02-1.86-.05,0,.02,0,.04,0,.05,0,2.57-2.08,4.66-4.66,4.66h-7.76c-2.57,0-4.66-2.08-4.66-4.66v-6.21s0-9.31,0-9.31ZM353.93,30.09v-1.93s0-.09,0-.13c-2.91.28-6.18,1.17-9.8,2.7.09.02.19.03.29.05,1.07.17,2.45.27,3.31.27,1.74,0,3.1-.09,4.58-.44.6-.14,1.14-.31,1.63-.52ZM296.25,25.04c3.7.49,7.84,1.84,12.41,4.05,2.49,1.2,5.28,1.63,8.02,1.25,3.99-.56,6.55-.85,7.76-.85s3.77.28,7.76.85c2.74.39,5.53-.05,8.02-1.25,4.55-2.19,8.69-3.54,12.43-4.04l-2.64-4.71-6.97,1.16c-.93.15-1.87.23-2.81.23h-31.57c-.94,0-1.88-.08-2.81-.23l-6.97-1.16-2.63,4.7ZM343.02,46.19c.03.12.05.24.05.37,0,.86.69,1.55,1.55,1.55h7.76c.86,0,1.55-.69,1.55-1.55v-2.72s-8.75,1.95-8.75,1.95c-.71.16-1.43.29-2.16.4ZM305.87,46.19c-.72-.11-1.44-.24-2.16-.4l-8.75-1.95v2.72c0,.86.69,1.55,1.55,1.55h7.76c.86,0,1.55-.69,1.55-1.55,0-.13.02-.25.05-.37ZM344.65,6.17c-.67-1.84-2.42-3.06-4.38-3.06h-31.66c-1.96,0-3.71,1.22-4.38,3.06l-4.08,11.23,6.2,1.03c.76.13,1.53.19,2.3.19h31.57c.77,0,1.54-.06,2.3-.19l6.2-1.03-4.08-11.23Z"/>
    <text class="cls-2" transform="translate(380.1 30.1)"><tspan x="0" y="0">x 1200</tspan></text>
    <text class="cls-21" transform="translate(228.02 146.58) rotate(90) scale(.47 1)"><tspan x="0" y="0">ESTIL</tspan></text>
    <text class="cls-13" transform="translate(425.4 139.16) scale(.47 1)"><tspan x="0" y="0">LIL</tspan><tspan class="cls-52" x="28.81" y="0">L</tspan><tspan x="38.29" y="0">Y</tspan></text>
    <text class="cls-12" transform="translate(493.89 149.72) scale(.72 1)"><tspan x="0" y="0">A</tspan><tspan class="cls-41" x="5.33" y="0">R</tspan><tspan x="10.13" y="0">T 93</tspan></text>
    <text class="cls-11" transform="translate(730.36 217) rotate(-90) scale(.75 1)"><tspan x="0" y="0">CALLIOPE</tspan></text>
    <text class="cls-1" transform="translate(691.6 469.18) scale(.66 1)"><tspan x="0" y="0">POST BANK</tspan></text>
    <text class="cls-19" transform="translate(82.17 535.92) scale(1.14 1)"><tspan x="0" y="0">IK</tspan><tspan class="cls-34" x="28.99" y="0">E</tspan><tspan x="45.52" y="0">A</tspan></text>
    <text class="cls-3" transform="translate(496.47 237.04) scale(.47 1)"><tspan x="0" y="0">KE</tspan><tspan class="cls-33" x="8.43" y="0">Y</tspan><tspan x="12.68" y="0">SOO</tspan></text>
    <text class="cls-12" transform="translate(465.73 145) scale(.72 1)"><tspan class="cls-66" x="0" y="0">P</tspan><tspan x="4.19" y="0">ARFOIS</tspan></text>
    <text class="cls-20" transform="translate(254.14 375.66) scale(.77 1)"><tspan class="cls-26" x="0" y="0">K</tspan><tspan class="cls-31" x="3.32" y="0">OPCH</tspan><tspan class="cls-71" x="18.28" y="0">E</tspan><tspan class="cls-35" x="21.2" y="0">T</tspan><tspan x="24.14" y="0">O</tspan></text>
    <text class="cls-14" transform="translate(694.07 407.9) scale(.47 1)"><tspan x="0" y="0">Z</tspan><tspan class="cls-57" x="6" y="0">L</tspan><tspan class="cls-47" x="11.27" y="0">A</tspan><tspan x="17.51" y="0">TNA RIBKA</tspan></text>
    <g>
      <path class="cls-23" d="M695.5,529.34v-.42l2.01-5.74h-1.97v-1.15h3.14v.42l-2.01,5.74h2.09v1.15h-3.24Z"/>
      <path class="cls-23" d="M699.27,525.63c0-1.04.19-1.92.56-2.64.38-.72.88-1.08,1.51-1.08.69,0,1.22.33,1.59.98.37.65.55,1.57.55,2.75s-.19,2.11-.57,2.8c-.38.69-.92,1.04-1.63,1.04-.65,0-1.14-.34-1.49-1.03-.34-.69-.52-1.62-.52-2.81ZM700.16,525.63c0,.85.09,1.52.29,1.99.19.47.47.7.83.7.43,0,.75-.23.98-.69s.34-1.13.34-2c0-1.71-.42-2.57-1.25-2.57-.38,0-.67.23-.88.7-.2.46-.31,1.09-.31,1.87Z"/>
      <path class="cls-23" d="M704.01,525.63c0-1.04.19-1.92.56-2.64.38-.72.88-1.08,1.51-1.08.69,0,1.22.33,1.59.98.37.65.55,1.57.55,2.75s-.19,2.11-.57,2.8c-.38.69-.92,1.04-1.63,1.04-.65,0-1.14-.34-1.49-1.03-.34-.69-.52-1.62-.52-2.81ZM704.89,525.63c0,.85.09,1.52.29,1.99.19.47.47.7.83.7.43,0,.75-.23.98-.69s.34-1.13.34-2c0-1.71-.42-2.57-1.25-2.57-.38,0-.67.23-.88.7-.2.46-.31,1.09-.31,1.87Z"/>
      <path class="cls-23" d="M710.77,528.94l.32-1.16c.34.36.67.54,1,.54.5,0,.75-.27.75-.8,0-.25-.06-.49-.18-.71s-.36-.48-.73-.76c-.37-.28-.62-.51-.75-.69s-.23-.4-.3-.65c-.07-.25-.1-.53-.1-.83,0-.57.14-1.04.41-1.41.27-.37.62-.56,1.05-.56.56,0,.97.16,1.23.47l-.26,1.12c-.3-.33-.62-.49-.95-.49-.2,0-.35.08-.46.24-.11.16-.16.36-.16.62,0,.42.31.85.92,1.31.32.24.55.46.7.66.14.2.25.44.33.7.07.27.11.57.11.9,0,.59-.15,1.08-.46,1.46-.31.38-.72.57-1.24.57-.45,0-.85-.18-1.22-.53Z"/>
      <path class="cls-23" d="M717.21,529.34v-3.29h-1.92v3.29h-.85v-7.31h.85v2.87h1.92v-2.87h.84v7.31h-.84Z"/>
      <path class="cls-23" d="M718.81,525.63c0-1.04.19-1.92.56-2.64.38-.72.88-1.08,1.51-1.08.69,0,1.22.33,1.59.98.37.65.55,1.57.55,2.75s-.19,2.11-.57,2.8c-.38.69-.92,1.04-1.63,1.04-.65,0-1.14-.34-1.49-1.03-.34-.69-.52-1.62-.52-2.81ZM719.7,525.63c0,.85.09,1.52.29,1.99.19.47.47.7.83.7.43,0,.75-.23.98-.69s.34-1.13.34-2c0-1.71-.42-2.57-1.25-2.57-.38,0-.67.23-.88.7-.2.46-.31,1.09-.31,1.87Z"/>
      <path class="cls-23" d="M724.63,526.65v2.69h-.85v-7.31c.57-.04.9-.05,1-.05.76,0,1.32.18,1.67.53.35.35.53.91.53,1.66,0,1.68-.65,2.51-1.95,2.51-.1,0-.23-.01-.39-.04ZM724.63,523.16v2.34c.14.02.26.04.34.04.39,0,.67-.1.85-.3.18-.2.27-.52.27-.97,0-.76-.4-1.14-1.21-1.14-.09,0-.18,0-.26.02Z"/>
      <path class="cls-23" d="M690.02,541.61h-1.07v-7.31c.68-.04,1.11-.05,1.29-.05.7,0,1.26.31,1.67.94.41.62.62,1.45.62,2.48,0,2.63-.83,3.94-2.5,3.94ZM689.81,535.44v4.99c.14.02.29.03.45.03.43,0,.77-.24,1.01-.71.24-.48.37-1.14.37-2,0-1.56-.48-2.35-1.44-2.35-.09,0-.22.01-.39.03Z"/>
      <path class="cls-23" d="M695.99,541.61l-1.28-3.02c-.13,0-.31-.01-.54-.04v3.05h-.89v-7.31s.23-.01.56-.04c.32-.03.58-.04.78-.04,1.22,0,1.83.72,1.83,2.16,0,.43-.08.83-.25,1.18-.17.36-.38.61-.64.75l1.42,3.29h-.99ZM694.17,535.43v2.03c.16.02.28.03.36.03.36,0,.62-.08.78-.23.17-.15.25-.45.25-.89,0-.36-.09-.61-.27-.75-.18-.14-.46-.21-.84-.21-.09,0-.19,0-.29.03Z"/>
      <path class="cls-23" d="M697.47,540.96c0-.25.06-.46.17-.64s.25-.26.42-.26.3.09.42.26c.12.17.17.39.17.64s-.06.46-.17.64c-.11.18-.25.26-.42.26s-.3-.09-.42-.26c-.12-.18-.17-.39-.17-.64Z"/>
      <path class="cls-23" d="M701.66,541.2l.32-1.16c.34.36.67.54,1,.54.5,0,.75-.27.75-.8,0-.25-.06-.49-.18-.71s-.36-.48-.73-.76c-.37-.28-.62-.51-.75-.69s-.23-.4-.3-.65c-.07-.25-.1-.53-.1-.83,0-.57.14-1.04.41-1.41.27-.37.62-.56,1.05-.56.56,0,.97.16,1.23.47l-.26,1.12c-.3-.33-.62-.49-.95-.49-.2,0-.35.08-.46.24-.11.16-.16.36-.16.62,0,.42.31.85.92,1.31.32.24.55.46.7.66.14.2.25.44.33.7.07.27.11.57.11.9,0,.59-.15,1.08-.46,1.46-.31.38-.72.57-1.24.57-.45,0-.85-.18-1.22-.53Z"/>
      <path class="cls-23" d="M707.29,535.45v6.16h-.85v-6.16h-1.53v-1.15h3.99v1.15h-1.6Z"/>
      <path class="cls-23" d="M710.3,535.45v1.71h1.59v1.1h-1.59v2.19h2.18v1.15h-3.04v-7.31h3.07v1.15h-2.22Z"/>
      <path class="cls-23" d="M714.13,535.45v1.71h1.69v1.1h-1.69v3.34h-.85v-7.31h3.17v1.15h-2.32Z"/>
      <path class="cls-23" d="M719.64,541.61l-.35-1.48h-1.65l-.34,1.48h-.95l1.92-7.41h.38l1.94,7.41h-.94ZM718.46,536.43l-.58,2.7h1.16l-.58-2.7Z"/>
      <path class="cls-23" d="M724.25,541.71l-2.34-4.63v4.53h-.82v-7.32h.41l2.27,4.41v-4.41h.82v7.41h-.35Z"/>
      <path class="cls-23" d="M725.36,537.89c0-1.04.19-1.92.56-2.64.38-.72.88-1.08,1.51-1.08.69,0,1.22.33,1.59.98.37.65.55,1.57.55,2.75s-.19,2.11-.57,2.8c-.38.69-.92,1.04-1.63,1.04-.65,0-1.14-.34-1.49-1.03-.34-.69-.52-1.62-.52-2.81ZM726.24,537.89c0,.85.09,1.52.29,1.99.19.47.47.7.83.7.43,0,.75-.23.98-.69s.34-1.13.34-2c0-1.71-.42-2.57-1.25-2.57-.38,0-.67.23-.88.7-.2.46-.31,1.09-.31,1.87Z"/>
      <path class="cls-23" d="M732.11,541.71h-.47l-1.8-7.41h.94l1.11,4.94,1.18-4.94h.92l-1.88,7.41Z"/>
    </g>
    <text class="cls-15" transform="translate(678.3 508.99) scale(.66 1)"><tspan x="0" y="0">H</tspan><tspan class="cls-38" x="5.28" y="0">E</tspan><tspan x="9.05" y="0">A</tspan><tspan class="cls-55" x="13.88" y="0">L</tspan><tspan x="16.95" y="0">TH S</tspan><tspan class="cls-53" x="32.03" y="0">T</tspan><tspan class="cls-62" x="35.79" y="0">ORE</tspan></text>
    <g>
      <path class="cls-23" d="M325.55,492.67h-.34l-1.01-2.62-.98,2.62h-.34l-1.52-4.21h.86l.87,2.5.94-2.5h.36l.94,2.5.87-2.5h.86l-1.5,4.21Z"/>
      <path class="cls-23" d="M329.89,492.61l-.34-.84h-1.59l-.32.84h-.91l1.85-4.21h.36l1.86,4.21h-.91ZM328.75,489.67l-.56,1.53h1.11l-.56-1.53Z"/>
      <path class="cls-23" d="M332.63,490.91v1.7h-.82v-1.7l-1.56-2.45h.87l1.1,1.77,1.1-1.77h.87l-1.55,2.45Z"/>
      <path class="cls-23" d="M334.45,492.38l.3-.66c.32.2.64.31.96.31.48,0,.72-.15.72-.45,0-.14-.06-.28-.17-.41-.11-.13-.35-.27-.7-.43-.35-.16-.59-.29-.72-.39-.12-.1-.22-.23-.28-.37s-.1-.3-.1-.47c0-.32.13-.59.39-.8.26-.21.6-.32,1.01-.32.54,0,.93.09,1.18.27l-.25.63c-.29-.19-.59-.28-.91-.28-.19,0-.34.04-.44.13-.1.09-.16.21-.16.35,0,.24.29.49.88.74.31.14.53.26.67.38.14.11.24.25.31.4.07.15.11.32.11.51,0,.34-.15.61-.44.83s-.69.33-1.19.33c-.43,0-.82-.1-1.17-.3Z"/>
      <path class="cls-23" d="M321.64,499.34l.3-.66c.32.2.64.31.96.31.48,0,.72-.15.72-.45,0-.14-.06-.28-.17-.41-.11-.13-.35-.27-.7-.43-.35-.16-.59-.29-.72-.39-.12-.1-.22-.23-.28-.37s-.1-.3-.1-.47c0-.32.13-.59.39-.8.26-.21.6-.32,1.01-.32.54,0,.93.09,1.18.27l-.25.63c-.29-.19-.59-.28-.91-.28-.19,0-.34.04-.44.13-.1.09-.16.21-.16.35,0,.24.29.49.88.74.31.14.53.26.67.38.14.11.24.25.31.4.07.15.11.32.11.51,0,.34-.15.61-.44.83s-.69.33-1.19.33c-.43,0-.82-.1-1.17-.3Z"/>
      <path class="cls-23" d="M327.83,499.57v-1.87h-1.84v1.87h-.82v-4.15h.82v1.63h1.84v-1.63h.81v4.15h-.81Z"/>
      <path class="cls-23" d="M329.37,497.46c0-.59.18-1.09.54-1.5.36-.41.84-.61,1.45-.61.67,0,1.17.19,1.53.56.35.37.53.89.53,1.56s-.18,1.2-.55,1.59-.89.59-1.57.59c-.62,0-1.1-.2-1.43-.58-.33-.39-.5-.92-.5-1.6ZM330.22,497.46c0,.49.09.86.27,1.13.18.27.45.4.8.4.41,0,.72-.13.94-.39s.32-.64.32-1.14c0-.97-.4-1.46-1.2-1.46-.37,0-.65.13-.84.39-.2.26-.29.62-.29,1.06Z"/>
      <path class="cls-23" d="M334.96,498.04v1.53h-.82v-4.15c.55-.02.87-.03.96-.03.73,0,1.27.1,1.6.3.34.2.51.51.51.94,0,.95-.63,1.43-1.88,1.43-.09,0-.22,0-.37-.02ZM334.96,496.06v1.33c.14.01.25.02.33.02.38,0,.65-.06.82-.17.17-.11.26-.29.26-.55,0-.43-.39-.65-1.16-.65-.09,0-.17,0-.25.01Z"/>
    </g>
    <g>
      <path class="cls-23" d="M483.84,229.68l-.14.57c-.04-.08-.1-.15-.19-.22s-.16-.11-.22-.11c-.19,0-.34.13-.45.4s-.17.63-.17,1.08.05.77.16,1.03c.11.26.26.38.44.38.12,0,.22-.07.3-.21v-.79h-.27v-.61h.61v1.8c-.08.14-.19.25-.32.33-.13.08-.26.12-.39.12-.28,0-.5-.19-.66-.57s-.24-.88-.24-1.5.09-1.13.27-1.51.42-.58.72-.58c.21,0,.39.13.54.4Z"/>
      <path class="cls-23" d="M484.13,231.33c0-.57.08-1.06.23-1.46.15-.4.35-.6.61-.6.28,0,.49.18.64.54.15.36.22.86.22,1.51s-.08,1.16-.23,1.55c-.15.38-.37.57-.66.57-.26,0-.46-.19-.6-.57-.14-.38-.21-.89-.21-1.55ZM484.49,231.33c0,.47.04.84.12,1.09.08.26.19.39.33.39.17,0,.3-.13.39-.38s.14-.62.14-1.1c0-.94-.17-1.42-.5-1.42-.15,0-.27.13-.35.38-.08.26-.12.6-.12,1.03Z"/>
      <path class="cls-23" d="M486.14,233.38v-4.03h.34v3.39h.88v.64h-1.22Z"/>
      <path class="cls-23" d="M488.07,233.38h-.43v-4.02c.27-.02.45-.03.52-.03.28,0,.51.17.67.52.17.34.25.8.25,1.37,0,1.45-.34,2.17-1.01,2.17ZM487.98,229.98v2.75c.06.01.12.02.18.02.17,0,.31-.13.41-.39s.15-.63.15-1.1c0-.86-.19-1.29-.58-1.29-.04,0-.09,0-.16.02Z"/>
      <path class="cls-23" d="M480.73,240.14l-.14-.82h-.67l-.14.82h-.38l.77-4.08h.15l.78,4.08h-.38ZM480.26,237.29l-.23,1.49h.47l-.23-1.49Z"/>
      <path class="cls-23" d="M481.75,240.14h-.43v-4.02c.27-.02.45-.03.52-.03.28,0,.51.17.67.52.17.34.25.8.25,1.37,0,1.45-.34,2.17-1.01,2.17ZM481.67,236.74v2.75c.06.01.12.02.18.02.17,0,.31-.13.41-.39s.15-.63.15-1.1c0-.86-.19-1.29-.58-1.29-.04,0-.09,0-.16.02Z"/>
      <path class="cls-23" d="M483.5,240.14h-.43v-4.02c.27-.02.45-.03.52-.03.28,0,.51.17.67.52.17.34.25.8.25,1.37,0,1.45-.34,2.17-1.01,2.17ZM483.41,236.74v2.75c.06.01.12.02.18.02.17,0,.31-.13.41-.39s.15-.63.15-1.1c0-.86-.19-1.29-.58-1.29-.04,0-.09,0-.16.02Z"/>
      <path class="cls-23" d="M484.82,240.14v-4.03h.34v4.03h-.34Z"/>
      <path class="cls-23" d="M486.9,236.32l-.14.59c-.08-.16-.2-.24-.37-.24s-.29.14-.4.42c-.1.28-.16.64-.16,1.07s.05.77.14,1.03c.1.25.22.38.38.38.18,0,.33-.14.43-.41l.16.58c-.14.31-.35.46-.62.46s-.48-.19-.63-.56c-.15-.37-.23-.88-.23-1.51,0-.6.08-1.09.25-1.49.17-.4.38-.6.64-.6.22,0,.4.09.53.28Z"/>
      <path class="cls-23" d="M488.02,236.75v3.39h-.34v-3.39h-.62v-.64h1.61v.64h-.65Z"/>
      <path class="cls-23" d="M489.24,236.75v.94h.64v.61h-.64v1.21h.88v.64h-1.23v-4.03h1.24v.64h-.9Z"/>
      <path class="cls-23" d="M490.87,240.14h-.43v-4.02c.27-.02.45-.03.52-.03.28,0,.51.17.67.52.17.34.25.8.25,1.37,0,1.45-.34,2.17-1.01,2.17ZM490.78,236.74v2.75c.06.01.12.02.18.02.17,0,.31-.13.41-.39s.15-.63.15-1.1c0-.86-.19-1.29-.58-1.29-.04,0-.09,0-.16.02Z"/>
    </g>
    <text class="cls-24" transform="translate(303 165.01) rotate(-90) scale(.89 1)"><tspan x="0" y="0">OPTICLASA</tspan></text>
    <g id="Douglas">
      <g class="cls-72">
        <g class="cls-50">
          <path class="cls-39" d="M577.79,281.32c-.95,0-1.75.28-2.43.69.27.13.41.4.54.54.54-.27,1.21-.41,1.89-.42,2.16-.02,3.66,1.6,3.67,3.76s-1.46,3.79-3.62,3.81c-2.16.02-3.66-1.6-3.67-3.76,0-.68.13-1.35.39-1.76-.14-.27-.41-.4-.54-.67-.4.68-.66,1.63-.66,2.44.02,2.7,1.92,4.58,4.62,4.56s4.58-2.06,4.56-4.62c-.15-2.57-2.06-4.58-4.76-4.56M589.17,286.91c0,.41,0,.81-.13,1.08-.26,1.08-1.2,1.63-2.42,1.64s-2.03-.53-2.44-1.6c-.14-.27-.14-.67-.14-1.08l-.04-5.4h-.95s.04,5.54.04,5.54c0,.41.14,1.08.14,1.35.41,1.35,1.5,2.15,3.26,2.14,1.62-.01,2.83-.83,3.23-2.18.13-.41.13-.95.13-1.35l-.04-5.54h-.95s.04,5.41.04,5.41h.27ZM573.79,289.31c-.27.14-.54.14-.81.28-.4.14-.94.14-1.35.14l-2.7.02-.05-7.29,2.7-.02c.54,0,.95,0,1.35.13,1.76.39,2.71,1.6,2.73,3.49,0,.68-.13,1.35-.39,1.76.14.27.41.54.54.67.4-.68.66-1.63.66-2.44-.02-2.3-1.24-3.77-3.27-4.3-.41-.13-.95-.13-1.49-.12l-3.65.03.06,8.91,3.65-.03c.54,0,1.08,0,1.48-.15.4-.14.81-.28,1.08-.41-.14-.27-.41-.4-.54-.67M616.04,285.37l-.95-.4c-.81-.4-1.22-.8-1.23-1.61s.53-1.49,1.48-1.5,1.49.66,1.63,1.61h.81c-.15-1.76-1.23-2.43-2.45-2.42-1.35,0-2.29.96-2.28,2.31,0,1.22.69,1.89,1.77,2.42l.95.4c.68.27,1.36.8,1.36,1.75s-.66,1.49-1.61,1.5c-1.08,0-1.76-.53-1.9-2.01h-.95c.15,2.03,1.24,2.83,2.86,2.82,1.49-.01,2.56-1.1,2.55-2.45-.14-1.35-1.09-1.88-2.04-2.42M608.18,281.37l-3.45,8.94h.95s1.06-2.85,1.06-2.85l3.65-.03,1.1,2.83h1.22s-3.57-8.9-3.57-8.9h-.95ZM610.24,286.63l-3.11.02,1.06-2.71c.13-.54.4-.95.53-1.49.14.54.28.94.55,1.48l.96,2.69ZM601.42,281.42h-.95s.06,8.92.06,8.92l3.51-.02.4-.81-2.97.02-.06-8.1ZM594.57,286.2v.81s4.19-.03,4.19-.03c-.26,1.49-1.6,2.58-3.36,2.59-2.16.02-3.66-1.6-3.67-3.76s1.46-3.79,3.62-3.81c1.49-.01,2.57.66,3.12,2h.95c-.55-1.76-2.18-2.83-4.07-2.81-2.57.02-4.58,2.06-4.56,4.62.02,2.7,1.92,4.58,4.62,4.56s4.31-1.79,4.29-4.35l-5.13.04v.14Z"/>
        </g>
      </g>
    </g>
    <g>
      <path class="cls-23" d="M559.92,230.6l-1.07-2.31-.43.83v1.48h-.68v-5.42h.68v2.59l1.31-2.59h.78l-1.21,2.37,1.44,3.05h-.82Z"/>
      <path class="cls-23" d="M561.07,230.6v-5.42h.68v5.42h-.68Z"/>
      <path class="cls-23" d="M564.74,230.6l-1.07-2.31-.43.83v1.48h-.68v-5.42h.68v2.59l1.31-2.59h.78l-1.21,2.37,1.44,3.05h-.82Z"/>
      <path class="cls-23" d="M565.7,227.85c0-.77.15-1.43.45-1.96s.7-.8,1.21-.8c.55,0,.98.24,1.27.73.29.48.44,1.16.44,2.04s-.15,1.57-.46,2.08c-.31.51-.74.77-1.3.77-.52,0-.91-.25-1.19-.76-.28-.51-.41-1.2-.41-2.09ZM566.41,227.85c0,.63.08,1.13.23,1.47.15.35.37.52.67.52.34,0,.6-.17.78-.51.18-.34.27-.84.27-1.48,0-1.27-.33-1.91-1-1.91-.3,0-.54.17-.7.52s-.24.81-.24,1.39Z"/>
      <path class="cls-23" d="M557.66,239.71h-.66l-.4-2.92-.78,3h-.24l-.78-3-.42,2.92h-.66l.78-5.43h.36l.83,3.65.82-3.65h.36l.79,5.43Z"/>
      <path class="cls-23" d="M558.09,239.7v-5.42h.68v5.42h-.68Z"/>
      <path class="cls-23" d="M559.57,239.7v-5.42h.68v4.57h1.74v.85h-2.42Z"/>
      <path class="cls-23" d="M564.8,239.7l-.28-1.1h-1.32l-.27,1.1h-.76l1.54-5.5h.3l1.55,5.5h-.75ZM563.85,235.86l-.46,2h.92l-.46-2Z"/>
      <path class="cls-23" d="M568.48,239.78l-1.87-3.43v3.36h-.66v-5.43h.33l1.82,3.27v-3.27h.66v5.5h-.28Z"/>
      <path class="cls-23" d="M569.37,236.94c0-.77.15-1.43.45-1.96s.7-.8,1.21-.8c.55,0,.98.24,1.27.73.29.48.44,1.16.44,2.04s-.15,1.57-.46,2.08c-.31.51-.74.77-1.3.77-.52,0-.91-.25-1.19-.76-.28-.51-.41-1.2-.41-2.09ZM570.08,236.94c0,.63.08,1.13.23,1.47.15.35.37.52.67.52.34,0,.6-.17.78-.51.18-.34.27-.84.27-1.48,0-1.27-.33-1.91-1-1.91-.3,0-.54.17-.7.52s-.24.81-.24,1.39Z"/>
    </g>
    <g>
      <path class="cls-23" d="M517.7,255.79c0-1.05.2-1.93.61-2.66s.95-1.09,1.63-1.09c.75,0,1.32.33,1.72.98.4.66.59,1.58.59,2.76s-.21,2.13-.62,2.82c-.41.7-1,1.04-1.77,1.04-.7,0-1.24-.34-1.61-1.03s-.56-1.63-.56-2.83ZM518.67,255.79c0,.86.1,1.53.31,2,.21.47.51.71.9.71.46,0,.82-.23,1.06-.69.24-.46.37-1.13.37-2.01,0-1.72-.45-2.59-1.35-2.59-.41,0-.73.23-.95.7-.22.47-.33,1.1-.33,1.89Z"/>
      <path class="cls-23" d="M522.84,259.53v-.42l2.18-5.77h-2.14v-1.16h3.4v.42l-2.19,5.77h2.26v1.16h-3.52Z"/>
      <path class="cls-23" d="M526.93,255.79c0-1.05.2-1.93.61-2.66s.95-1.09,1.63-1.09c.75,0,1.32.33,1.72.98.4.66.59,1.58.59,2.76s-.21,2.13-.62,2.82c-.41.7-1,1.04-1.77,1.04-.7,0-1.24-.34-1.61-1.03s-.56-1.63-.56-2.83ZM527.89,255.79c0,.86.1,1.53.31,2,.21.47.51.71.9.71.46,0,.82-.23,1.06-.69.24-.46.37-1.13.37-2.01,0-1.72-.45-2.59-1.35-2.59-.41,0-.73.23-.95.7-.22.47-.33,1.1-.33,1.89Z"/>
      <path class="cls-23" d="M535.73,259.63l-2.53-4.65v4.56h-.89v-7.36h.45l2.47,4.44v-4.44h.89v7.46h-.38Z"/>
      <path class="cls-23" d="M538.11,253.33v1.72h1.72v1.11h-1.72v2.2h2.37v1.16h-3.29v-7.35h3.33v1.16h-2.41Z"/>
      <path class="cls-23" d="M522.27,271.87v-7.35h.93v6.2h2.36v1.16h-3.29Z"/>
      <path class="cls-23" d="M526.32,271.87v-7.35h.93v7.35h-.93Z"/>
      <path class="cls-23" d="M530.28,271.97h-.51l-1.95-7.46h1.02l1.21,4.97,1.28-4.97h1l-2.04,7.46Z"/>
      <path class="cls-23" d="M533.8,265.67v1.72h1.72v1.11h-1.72v2.2h2.37v1.16h-3.29v-7.35h3.33v1.16h-2.41Z"/>
    </g>
    <text class="cls-18" transform="translate(580.51 234.69) scale(.71 1)"><tspan x="0" y="0">A</tspan><tspan class="cls-60" x="3.14" y="0">L</tspan><tspan x="5.31" y="0">CHEMIS</tspan><tspan class="cls-36" x="22.16" y="0">T</tspan><tspan x="24.46" y="0">A</tspan></text>
  </g>
  <polygon id="Galleria_Burgas0.002C" data-name="Galleria Burgas0.002C" class="cls-28" points="10.97 127.53 213.02 127.53 213.02 247.5 145.46 247.5 145.46 213.89 10.97 213.89 10.97 127.53"/>
  <polygon id="Galleria_Burgas0.002B_S0.6" data-name="Galleria Burgas0.002B^S0.6" class="cls-30" points="213.68 314.25 213.68 248.78 144.05 248.65 144.05 214.87 40.43 214.87 40.43 273.55 10.97 273.55 10.97 314.25 213.68 314.25"/>
  <polygon id="Galleria_Burgas0.002A_NAD_01" data-name="Galleria Burgas0.002A^NAD_01" class="cls-30" points="213.02 316.2 10.97 316.2 10.97 359.83 48.16 359.83 48.16 414.11 10.97 414.11 10.97 513.59 68.55 513.59 68.55 480.08 176.34 480.08 176.34 454.37 213.02 454.37 213.02 316.2"/>
  <polygon id="Galleria_Burgas0.001C_1.002_NA-Unt" data-name="Galleria Burgas0.001C^1.002^NA-Unt" class="cls-30" points="176.34 482.03 176.34 560.08 44.92 576.05 44.92 528.17 69.98 528.17 69.98 482.03 176.34 482.03"/>
  <rect id="Galleria_Burgas0.001B" data-name="Galleria Burgas0.001B" class="cls-30" x="178.02" y="456.32" width="34.99" height="24.02"/>
  <polygon id="Galleria_Burgas0.001A_NAD_47" data-name="Galleria Burgas0.001A^NAD_47" class="cls-30" points="178.02 482.03 178.02 559.95 213.02 555.53 213.02 482.03 178.02 482.03"/>
  <polygon id="Galleria_Burgas0.056" data-name="Galleria Burgas0.056" class="cls-30" points="252.69 479.69 252.69 531.9 276.85 536.76 276.85 479.69 252.69 479.69"/>
  <polygon id="Galleria_Burgas0.052" data-name="Galleria Burgas0.052" class="cls-30" points="345.55 479.69 345.55 548.18 376.14 551.89 376.14 479.69 345.55 479.69"/>
  <rect id="Galleria_Burgas0.050" data-name="Galleria Burgas0.050" class="cls-30" x="377.64" y="479.69" width="33.35" height="35.38"/>
  <path id="Galleria_Burgas0.042_1.044" data-name="Galleria Burgas0.042^1.044" class="cls-30" d="M423.4,479.69v36.33h21.8v12.5h-4.33v30.32c46.7,6.63,176.94,13.4,176.94,13.4v-5.69h25.32v-53.61h4.06v-33.26h-223.78Z"/>
  <path id="Galleria_Burgas0.040_10.048" data-name="Galleria Burgas0.040^10.048" class="cls-30" d="M744.36,549v25.04c-14.37.74-38.77.61-47.04.28v-6.63h-17.65v-18.7h64.69Z"/>
  <rect id="Galleria_Burgas0.037" data-name="Galleria Burgas0.037" class="cls-30" x="676.26" y="483.45" width="37.73" height="13.25"/>
  <polygon id="Galleria_Burgas0.036_NAD_13" data-name="Galleria Burgas0.036^NAD_13" class="cls-30" points="676.26 481.81 676.26 448.88 744.36 448.88 744.36 496.71 715.56 496.71 715.56 481.88 676.26 481.81"/>
  <rect id="Galleria_Burgas0.035" data-name="Galleria Burgas0.035" class="cls-30" x="676.26" y="415.87" width="68.1" height="31.37"/>
  <rect id="Galleria_Burgas0.034" data-name="Galleria Burgas0.034" class="cls-30" x="676.26" y="394.88" width="68.1" height="19.35"/>
  <path id="Galleria_BurgasBA0.08_BA0.10_WAD_23" data-name="Galleria BurgasBA0.08^BA0.10^WAD_23" class="cls-30" d="M745.87,469.81v104.23c8.46-.24,32.48-1.42,32.48-1.42v-107.21h-10.56v4.33l-21.91.07Z"/>
  <polygon id="Galleria_Burgas0.028" data-name="Galleria Burgas0.028" class="cls-30" points="676.26 281.86 778.34 281.86 778.34 391.85 763.41 391.85 763.41 382 676.26 382 676.26 281.86"/>
  <polygon id="Galleria_Burgas0.027" data-name="Galleria Burgas0.027" class="cls-30" points="676.26 279.85 778.34 279.85 778.34 239.21 761.62 239.21 761.62 247.7 676.26 247.7 676.26 279.85"/>
  <polygon id="Galleria_Burgas0.021" data-name="Galleria Burgas0.021" class="cls-30" points="622.75 181.89 578.77 181.89 578.77 91.08 610.83 91.08 610.83 115.71 622.75 115.71 622.75 181.89"/>
  <rect id="Galleria_Burgas0.020" data-name="Galleria Burgas0.020" class="cls-30" x="546.61" y="113.31" width="30.56" height="68.57"/>
  <rect id="Galleria_Burgas0.009_NAD_41" data-name="Galleria Burgas0.009^NAD_41" class="cls-30" x="377.63" y="80.17" width="32.51" height="101.72"/>
  <polygon id="Galleria_Burgas0.008" data-name="Galleria Burgas0.008" class="cls-30" points="365.25 182.73 345.65 182.73 345.65 125.57 337.86 125.57 337.86 114.31 366.35 114.31 365.25 182.73"/>
  <polygon id="Galleria_Burgas0.007" data-name="Galleria Burgas0.007" class="cls-30" points="336.41 114.31 325.96 114.31 325.96 182.73 344.35 182.73 344.35 127.09 336.46 127.09 336.41 114.31"/>
  <polygon id="Galleria_Burgas0.005" data-name="Galleria Burgas0.005" class="cls-30" points="324.44 182.73 277.29 182.73 277.29 80.17 313.51 80.17 313.51 114.31 324.44 114.31 324.44 182.73"/>
  <polygon id="Galleria_Burgas0.004_WAD_29" data-name="Galleria Burgas0.004^WAD_29" class="cls-30" points="275.72 182.73 241.34 182.73 241.34 124.55 224.98 124.55 224.98 114.31 212.47 114.31 212.47 80.17 275.72 80.17 275.72 182.73"/>
  <rect id="Galleria_Burgas0.003_S-1.13" data-name="Galleria Burgas0.003^S-1.13" class="cls-30" x="224.9" y="126.21" width="14.78" height="56.53"/>
  <path id="Galleria_Burgas0.063" data-name="Galleria Burgas0.063" class="cls-30" d="M324.37,317.67v20.27h-42.81c12.12-11.11,18.41-20.27,18.41-20.27h24.41Z"/>
  <path id="Galleria_Burgas0.064" data-name="Galleria Burgas0.064" class="cls-30" d="M324.37,316.35h-23.5c12.23-19.05,13.02-22.96,17.15-33.68h6.35v33.68Z"/>
  <path id="Galleria_Burgas0.070_1.062_NA-Unt_S-1.11A" data-name="Galleria Burgas0.070^1.062^NA-Unt^S-1.11A" class="cls-30" d="M325.99,337.94h50.92v-25.65h134.05v-62.88h-34.91v-1.68h-65.73v-21.49c-41.63,5.13-54.65,6.66-84.73,10.8-1.39,21.82-4.09,35.58-7.16,44.1h7.66l-.1,56.81Z"/>
  <polygon id="Galleria_Burgas0.074" data-name="Galleria Burgas0.074" class="cls-30" points="411.91 226.24 411.91 246.03 443.93 246.03 443.93 223.35 411.91 226.24"/>
  <path id="Galleria_Burgas0.076_S-1.07" data-name="Galleria Burgas0.076^S-1.07" class="cls-30" d="M445.72,246.03h30.23v-25.06c-7.56.7-30.23,2.39-30.23,2.39v22.67Z"/>
  <path id="Galleria_Burgas0.077" data-name="Galleria Burgas0.077" class="cls-30" d="M477.45,220.97v26.76h15.91v-27.96c-3.88-.08-15.91,1.19-15.91,1.19Z"/>
  <path id="Galleria_Burgas0.078" data-name="Galleria Burgas0.078" class="cls-30" d="M495.05,219.77v27.96h15.91v-29.15c-7.08-.07-15.91,1.19-15.91,1.19Z"/>
  <polygon id="Galleria_Burgas0.079x" data-name="Galleria Burgas0.079x" class="cls-30" points="512.65 218.58 512.65 305.3 537.41 305.3 537.41 299.13 544.97 299.13 544.97 217.39 512.65 218.58"/>
  <polygon id="Galleria_Burgas0.080_S-1.22" data-name="Galleria Burgas0.080^S-1.22" class="cls-30" points="546.46 217.03 546.46 247.22 577.19 247.22 577.19 216.79 546.46 217.03"/>
  <rect id="Galleria_Burgas0.082" data-name="Galleria Burgas0.082" class="cls-30" x="578.77" y="216.79" width="23.08" height="29.98"/>
  <polygon id="Galleria_Burgas0.083" data-name="Galleria Burgas0.083" class="cls-30" points="603.44 216.79 603.44 246.76 637.06 246.76 637.06 238.41 615.36 216.71 603.44 216.79"/>
  <path id="Galleria_Burgas0.088" data-name="Galleria Burgas0.088" class="cls-30" d="M587.95,349.42h-41.49v31.4h24.65c5.15-14.79,16.83-31.4,16.83-31.4Z"/>
  <path id="Galleria_Burgas0.090" data-name="Galleria Burgas0.090" class="cls-30" d="M546.46,383.12v45.2l17.49-2.63c1.79-31.07,7.17-42.57,7.17-42.57h-24.65Z"/>
  <path id="Galleria_Burgas0.092" data-name="Galleria Burgas0.092" class="cls-30" d="M544.21,349.42h-31.56v50.44h-33.53v37.3c41.95-4.04,65.09-8.84,65.09-8.84v-78.9Z"/>
  <path id="Galleria_Burgas0.094_S-1.17" data-name="Galleria Burgas0.094^S-1.17" class="cls-30" d="M510.96,349.42h-130.86v94.39c49.54-.37,96.88-6.65,96.88-6.65v-39.27h33.98v-48.46Z"/>
  <path id="Galleria_Burgas0.096_NAD_07" data-name="Galleria Burgas0.096^NAD_07" class="cls-30" d="M378.19,349.42h-99.61v96.7c25.64.64,64.95-1.19,64.95-1.19v-47.05h34.66v-48.46Z"/>
  <path id="Galleria_Burgas0.095" data-name="Galleria Burgas0.095" class="cls-30" d="M345.43,399.86h32.76v43.95c-12.33.95-32.76,1.12-32.76,1.12v-45.08Z"/>
  <polygon id="Galleria_Burgas0.058_S-1.2" data-name="Galleria Burgas0.058^S-1.2" class="cls-30" points="276.85 446.12 274.77 446.12 252.54 423.9 252.54 415.39 276.85 415.39 276.85 446.12"/>
  <rect id="Galleria_Burgas0.060" data-name="Galleria Burgas0.060" class="cls-30" x="252.69" y="382.73" width="24.15" height="31.01"/>
  <rect id="Galleria_Burgas0.061" data-name="Galleria Burgas0.061" class="cls-30" x="252.69" y="368.61" width="24.15" height="12.27"/>
  <polygon id="Galleria_Burgas0.062" data-name="Galleria Burgas0.062" class="cls-30" points="276.85 367.2 252.69 367.2 252.69 356.78 268.1 349.42 276.85 349.42 276.85 367.2"/>
  <polygon id="Galleria_Burgas0.010_NAD_18" data-name="Galleria Burgas0.010^NAD_18" class="cls-30" points="411.75 80.17 411.75 182.73 463.02 182.73 463.02 111.16 487.26 111.16 487.26 80.17 411.75 80.17"/>
  <rect id="Galleria_Burgas0.011" data-name="Galleria Burgas0.011" class="cls-30" x="464.88" y="113.31" width="24.52" height="68.57"/>
  <rect id="Galleria_Burgas0.012" data-name="Galleria Burgas0.012" class="cls-30" x="491.73" y="113.31" width="22.19" height="68.57"/>
  <polygon id="Galleria_Burgas0.022A_S-1.12" data-name="Galleria Burgas0.022A^S-1.12" class="cls-30" points="611.77 80.39 611.77 113.76 625.16 113.76 625.16 181.94 675.99 181.94 708.34 150.62 708.34 124.75 739.92 124.75 739.92 133.17 778.34 133.17 778.34 80.39 611.77 80.39"/>
  <polygon id="Galleria_Burgas0.022B" data-name="Galleria Burgas0.022B" class="cls-30" points="778.34 134.8 738.03 134.8 738.03 126.69 709.8 126.69 709.8 150.5 677.02 182.89 677.02 234.64 744.73 234.64 744.73 176.08 778.34 176.08 778.34 134.8"/>
  <rect id="Galleria_Burgas0.054_S-1.06" data-name="Galleria Burgas0.054^S-1.06" class="cls-30" x="315.38" y="479.69" width="28.38" height="27.73"/>
  <polygon id="Galleria_Burgas0.054A_0.055" data-name="Galleria Burgas0.054A^0.055" class="cls-30" points="278.67 479.69 278.67 537.25 343.76 548.15 343.76 509.13 313.68 509.13 313.68 479.69 278.67 479.69"/>
  <rect id="Galleria_Burgas0.038" data-name="Galleria Burgas0.038" class="cls-30" x="676.29" y="498.14" width="35.59" height="16.45"/>
  <path id="Galleria_Burgas0.039" data-name="Galleria Burgas0.039" class="cls-30" d="M676.12,516.44v31.22h68.49v-49.69h-31.05v18.63s-37.43.34-37.43-.17Z"/>
  <polygon id="Galleria_Burgas0.086_0.086-A_0.086-B" data-name="Galleria Burgas0.086^0.086-A^0.086-B" class="cls-30" points="546.46 248.7 546.46 290.82 552.28 290.82 552.28 337.94 599.38 337.94 605.9 333.71 612.42 329.95 620.25 326.66 630.06 324.27 633.8 323.79 637.06 323.54 637.06 248.7 546.46 248.7"/>
</svg>