<?xml version="1.0" encoding="UTF-8"?><svg id="Layer_4" xmlns="http://www.w3.org/2000/svg" viewBox="0 0 820.22 788.5"><defs><style>.cls-1{letter-spacing:-.03em;}.cls-2{fill:#ed7013;}.cls-3{stroke:#000;}.cls-3,.cls-4,.cls-5{fill:none;stroke-miterlimit:10;}.cls-4,.cls-5{stroke:#1d1d1b;}.cls-6{letter-spacing:-.01em;}.cls-5{stroke-width:2px;}.cls-7{font-family:Axiforma-Bold, Axiforma;font-size:24.34px;}.cls-7,.cls-8{fill:#1d1d1b;}.cls-9{letter-spacing:0em;}.cls-10{fill:#12100b;}</style></defs><g id="Cladire"><g><path class="cls-8" d="M178.24,10.02l631.95,1.59-1.92,762.91c-35.58-12.2-65.84-22.27-101.44-34.42-23.26-7.94-51.82-18.12-74.83-26.86-75.84-28.81-150.15-61.99-222.02-99.83-117.22-61.72-229.95-135.21-331.07-221.62-6.47-5.53-71.05-58.31-68.84-62.52,0,0,168.17-319.26,168.17-319.26m-6.03-10.02l-2.82,5.35C10.82,306.4,1.76,323.6,1.23,324.61h0c-2.25,4.26-1.41,8.91,2.48,13.82,1.38,1.74,3.34,3.86,5.99,6.51,4.23,4.21,10.39,9.87,18.3,16.82,14.04,12.33,30.31,25.87,39.05,33.15,2.64,2.2,4.55,3.78,5.37,4.49,96.25,82.25,208.26,157.23,332.91,222.86,70.46,37.1,145.53,70.86,223.12,100.33,21.54,8.18,49.63,18.27,75.15,26.98,16.29,5.56,31.67,10.76,46.54,15.78,17.5,5.91,35.6,12.02,54.89,18.64l13.21,4.53,.04-13.96,1.92-762.91,.03-10-10-.03L178.27,.02l-6.05-.02h0Z"/><path class="cls-5" d="M632,713.23c23.01,8.74,51.57,18.92,74.83,26.86,35.6,12.15,65.86,22.22,101.44,34.42l1.92-762.91-631.95-1.59S10.08,329.27,10.08,329.27c-2.21,4.2,62.37,56.99,68.84,62.52,101.12,86.41,213.85,159.9,331.07,221.62,71.87,37.84,146.18,71.02,222.02,99.83Z"/></g></g><g id="Magazine"><polyline class="cls-3" points="141.91 80.99 184.15 102.95 307.27 102.95 307.51 64.31 277.87 64.31 228.91 64.31 228.91 11.03"/><line class="cls-3" x1="277.87" y1="64.31" x2="277.87" y2="102.95"/><polygon class="cls-3" points="143.23 189.11 179.47 119.39 213.55 119.39 213.55 238.19 180.67 232.31 156.91 219.95 166.63 201.23 143.23 189.11"/><polygon class="cls-3" points="174.19 291.83 228.19 291.83 228.19 310.43 151.27 310.43 151.27 288.95 180.67 232.31 213.55 238.19 213.55 287.15 174.19 287.15 174.19 291.83"/><polyline class="cls-3" points="809.23 251.63 749.59 251.63 749.59 341.27 809.23 341.27"/><polyline class="cls-4" points="722.08 9.38 722.08 168.71 812.08 168.71"/><line class="cls-4" x1="722.43" y1="79.33" x2="812.54" y2="79.33"/><line class="cls-4" x1="722.43" y1="131.96" x2="811.89" y2="131.96"/><polyline class="cls-4" points="464.51 10.13 464.51 37.56 383.54 37.56 383.54 19.93 337.83 19.93 337.83 309.2 719.17 309.2 719.17 238.68 692.4 238.68 692.4 204.72 719.17 204.72 719.17 187.09 573.55 187.09 573.55 172.07 338.48 173.38"/><polyline class="cls-4" points="665.62 10.13 665.62 42.13 699.58 42.13 699.58 188.4"/></g><g id="Logos"><g><path class="cls-10" d="M191.65,181.93h-1.41v-3.74c0-.3-.23-.53-.51-.53h-3.82c-.28,0-.51,.24-.51,.53v3.74h-1.41c-.28,0-.51,.24-.51,.53v4.01c0,.3,.23,.53,.51,.53h7.66c.28,0,.51-.24,.51-.53v-4.01c0-.3-.23-.53-.51-.53Zm-5.24-3.21h.89v.53c0,.3,.23,.53,.51,.53s.51-.24,.51-.53v-.53h.9v2.94h-2.8v-2.94Zm-1.92,4.28h.76v.53c0,.3,.23,.53,.51,.53s.51-.24,.51-.53v-.53h1.02v2.94h-2.8v-2.94Zm6.64,2.94h-2.82v-2.94h1.02v.53c0,.3,.23,.53,.51,.53s.51-.24,.51-.53v-.53h.78v2.94Z"/><path class="cls-10" d="M199.27,170.7s0-.04,0-.06c0-.02,0-.03,0-.05,0-.02,0-.03-.02-.05,0-.02,0-.03-.02-.05,0-.01-.01-.03-.02-.04l-.02-.05-.03-.04s-.02-.03-.03-.04l-.03-.03-.05-.04h0l-10.96-7.22c-.17-.11-.37-.11-.54,0l-10.96,7.22h0l-.05,.04-.03,.03s-.02,.03-.03,.04l-.03,.04-.05,.03s-.02,.03-.02,.04c0,.02-.01,.03-.02,.05,0,.02-.01,.03-.02,.05,0,.02,0,.03,0,.05,0,.03-.01,.05-.01,.08v15.77c0,.3,.23,.53,.51,.53h4.59c.28,0,.51-.24,.51-.53v-10.43h11.72v10.43c0,.3,.23,.53,.51,.53,.03,0,.06,0,.09,0,.03,0,.06,0,.09,0h4.41c.28,0,.51-.24,.51-.53v-15.77Zm-17.33,4.28v-.53h11.72v.53h-11.72Zm12.74,10.96v-12.03c0-.3-.23-.53-.51-.53h-12.74c-.28,0-.51,.24-.51,.53v12.03h-3.57v-14.94s10.45-6.88,10.45-6.88l10.45,6.88v14.94h-3.57Z"/><path class="cls-10" d="M189.08,168.29h-2.8c-.28,0-.51,.24-.51,.53,0,.3,.23,.53,.51,.53h2.8c.28,0,.51-.24,.51-.53,0-.3-.23-.53-.51-.53Z"/><path class="cls-10" d="M189.08,169.9h-2.8c-.28,0-.51,.24-.51,.53,0,.3,.23,.53,.51,.53h2.8c.28,0,.51-.24,.51-.53,0-.3-.23-.53-.51-.53Z"/></g><g><path class="cls-10" d="M192.16,270.6h-1.41v-3.74c0-.3-.23-.53-.51-.53h-3.82c-.28,0-.51,.24-.51,.53v3.74h-1.41c-.28,0-.51,.24-.51,.53v4.01c0,.3,.23,.53,.51,.53h7.66c.28,0,.51-.24,.51-.53v-4.01c0-.3-.23-.53-.51-.53Zm-5.24-3.21h.89v.53c0,.3,.23,.53,.51,.53s.51-.24,.51-.53v-.53h.9v2.94h-2.8v-2.94Zm-1.92,4.28h.76v.53c0,.3,.23,.53,.51,.53s.51-.24,.51-.53v-.53h1.02v2.94h-2.8v-2.94Zm6.64,2.94h-2.82v-2.94h1.02v.53c0,.3,.23,.53,.51,.53s.51-.24,.51-.53v-.53h.78v2.94Z"/><path class="cls-10" d="M199.78,259.37s0-.04,0-.06c0-.02,0-.03,0-.05,0-.02,0-.03-.02-.05,0-.02,0-.03-.02-.05,0-.01-.01-.03-.02-.04l-.02-.05-.03-.04s-.02-.03-.03-.04l-.03-.03-.05-.04h0l-10.96-7.22c-.17-.11-.37-.11-.54,0l-10.96,7.22h0l-.05,.04-.03,.03s-.02,.03-.03,.04l-.03,.04-.05,.03s-.02,.03-.02,.04c0,.02-.01,.03-.02,.05,0,.02-.01,.03-.02,.05,0,.02,0,.03,0,.05,0,.03-.01,.05-.01,.08v15.77c0,.3,.23,.53,.51,.53h4.59c.28,0,.51-.24,.51-.53v-10.43h11.72v10.43c0,.3,.23,.53,.51,.53,.03,0,.06,0,.09,0,.03,0,.06,0,.09,0h4.41c.28,0,.51-.24,.51-.53v-15.77Zm-17.33,4.28v-.53h11.72v.53h-11.72Zm12.74,10.96v-12.03c0-.3-.23-.53-.51-.53h-12.74c-.28,0-.51,.24-.51,.53v12.03h-3.57v-14.94s10.45-6.88,10.45-6.88l10.45,6.88v14.94h-3.57Z"/><path class="cls-10" d="M189.59,256.97h-2.8c-.28,0-.51,.24-.51,.53,0,.3,.23,.53,.51,.53h2.8c.28,0,.51-.24,.51-.53,0-.3-.23-.53-.51-.53Z"/><path class="cls-10" d="M189.59,258.57h-2.8c-.28,0-.51,.24-.51,.53,0,.3,.23,.53,.51,.53h2.8c.28,0,.51-.24,.51-.53,0-.3-.23-.53-.51-.53Z"/></g><g><path class="cls-10" d="M295.6,89.82h-1.06v-2.83c0-.22-.17-.4-.39-.4h-2.89c-.21,0-.39,.18-.39,.4v2.83h-1.07c-.21,0-.39,.18-.39,.4v3.03c0,.22,.17,.4,.39,.4h5.79c.21,0,.39-.18,.39-.4v-3.03c0-.22-.17-.4-.39-.4Zm-3.96-2.42h.67v.4c0,.22,.17,.4,.39,.4s.39-.18,.39-.4v-.4h.68v2.22h-2.12v-2.22Zm-1.45,3.23h.58v.4c0,.22,.17,.4,.39,.4s.39-.18,.39-.4v-.4h.77v2.22h-2.12v-2.22Zm5.02,2.22h-2.13v-2.22h.77v.4c0,.22,.17,.4,.39,.4s.39-.18,.39-.4v-.4h.59v2.22Z"/><path class="cls-10" d="M301.36,81.34s0-.03,0-.05c0-.01,0-.02,0-.03,0-.01,0-.02-.01-.04,0-.01,0-.02-.01-.04,0-.01-.01-.02-.02-.03l-.02-.03-.02-.03s-.02-.02-.03-.03l-.02-.02-.04-.03h0l-8.28-5.45c-.12-.08-.28-.08-.41,0l-8.28,5.45h0l-.04,.03-.02,.02s-.02,.02-.03,.03l-.02,.03-.04,.02s-.01,.02-.02,.03c0,.01,0,.02-.01,.04,0,.01,0,.03-.01,.04,0,.01,0,.02,0,.03,0,.02,0,.04,0,.06v11.92c0,.22,.17,.4,.39,.4h3.47c.21,0,.39-.18,.39-.4v-7.88h8.86v7.88c0,.22,.17,.4,.39,.4,.02,0,.05,0,.07,0,.02,0,.05,0,.07,0h3.33c.21,0,.39-.18,.39-.4v-11.92Zm-13.09,3.23v-.4h8.86v.4h-8.86Zm9.63,8.28v-9.09c0-.22-.17-.4-.39-.4h-9.63c-.21,0-.39,.18-.39,.4v9.09h-2.7v-11.29s7.89-5.2,7.89-5.2l7.89,5.2v11.29h-2.7Z"/><path class="cls-10" d="M293.66,79.52h-2.12c-.21,0-.39,.18-.39,.4s.17,.4,.39,.4h2.12c.21,0,.39-.18,.39-.4s-.17-.4-.39-.4Z"/><path class="cls-10" d="M293.66,80.73h-2.12c-.21,0-.39,.18-.39,.4s.17,.4,.39,.4h2.12c.21,0,.39-.18,.39-.4s-.17-.4-.39-.4Z"/></g><text class="cls-7" transform="translate(429.38 258.47) rotate(-.42)"><tspan x="0" y="0">T</tspan><tspan class="cls-6" x="14.6" y="0">E</tspan><tspan x="29.82" y="0">CHNOMARKE</tspan><tspan class="cls-1" x="195.82" y="0">T</tspan></text><text class="cls-7" transform="translate(464.59 113.35) rotate(-.42)"><tspan class="cls-9" x="0" y="0">C</tspan><tspan x="18.38" y="0">OMSED</tspan></text><g><path class="cls-8" d="M178.67,80.04l.82-1c.48,.65,1.18,.99,1.91,.98,.6,0,1.02-.33,1.02-.77,0-.36-.29-.57-.66-.74-.46-.21-1.05-.38-1.56-.66-.63-.35-1.14-.88-1.15-1.77,0-1.18,.97-2.1,2.43-2.11,.83,0,1.69,.28,2.36,.95l-.76,1.05c-.43-.44-1.08-.66-1.57-.66-.57,0-.92,.29-.92,.69,0,.36,.3,.56,.59,.7,.38,.17,1.1,.44,1.58,.68,.7,.33,1.23,.86,1.23,1.77,0,1.27-1.04,2.19-2.61,2.2-1.09,0-2.11-.44-2.72-1.32Z"/><path class="cls-8" d="M184.71,77.66c-.02-2.21,1.66-3.74,3.67-3.76,1.33,0,2.46,.59,3.09,1.46l-.95,.95c-.5-.61-1.21-1.03-2.05-1.02-1.28,0-2.28,1-2.27,2.36,0,1.33,1.01,2.28,2.29,2.27,.84,0,1.58-.43,2.07-1.06l.99,.89c-.62,.87-1.77,1.53-3.15,1.54-2.04,.02-3.69-1.45-3.71-3.63Z"/><path class="cls-8" d="M196.2,79.58l-2.5,.02-.54,1.55h-1.5s2.68-7.17,2.68-7.17h1.17s2.75,7.13,2.75,7.13h-1.51s-.54-1.54-.54-1.54Zm-2.1-1.26h1.69s-.85-2.39-.85-2.39l-.83,2.39Z"/><path class="cls-8" d="M201.4,78.49h-.85s.02,2.61,.02,2.61h-1.43s-.05-7.15-.05-7.15l2.74-.02c1.68-.01,2.46,1.06,2.47,2.25,0,.86-.42,1.74-1.44,2.11l1.75,2.78h-1.68s-1.53-2.58-1.53-2.58Zm-.86-1.28h1.17c.8-.01,1.11-.5,1.11-1,0-.51-.35-.96-1-.95h-1.3s.01,1.95,.01,1.95Z"/><path class="cls-8" d="M208.53,78.56l.02,2.48h-1.43s-.02-2.47-.02-2.47l-2.49-4.66h1.66s1.54,3.11,1.54,3.11l1.52-3.15h1.66s-2.45,4.68-2.45,4.68Z"/><path class="cls-8" d="M213.45,79.79l.82-1c.48,.65,1.18,.99,1.91,.98,.6,0,1.02-.33,1.02-.77,0-.36-.29-.57-.66-.74-.46-.21-1.05-.38-1.56-.66-.63-.35-1.14-.88-1.15-1.77,0-1.18,.97-2.1,2.43-2.11,.83,0,1.69,.28,2.36,.95l-.76,1.05c-.43-.44-1.08-.66-1.57-.66-.57,0-.92,.29-.92,.69,0,.36,.3,.56,.59,.7,.38,.17,1.1,.44,1.58,.68,.7,.33,1.23,.86,1.23,1.77,0,1.27-1.04,2.19-2.61,2.2-1.09,0-2.11-.44-2.72-1.32Z"/><path class="cls-8" d="M219.89,73.8h1.43s.02,2.85,.02,2.85l3-.02-.02-2.86h1.43s.05,7.15,.05,7.15h-1.43s-.02-2.91-.02-2.91l-3,.02,.02,2.92h-1.43s-.05-7.15-.05-7.15Z"/><path class="cls-8" d="M231.21,79.33l-2.5,.02-.54,1.55h-1.5s2.68-7.17,2.68-7.17h1.17s2.75,7.13,2.75,7.13h-1.51s-.54-1.53-.54-1.53Zm-2.1-1.26h1.69s-.85-2.39-.85-2.39l-.83,2.39Z"/><path class="cls-8" d="M234.09,73.69l2.8-.02c2.16-.02,3.46,1.36,3.48,3.57,.02,2.19-1.28,3.58-3.48,3.59l-2.74,.02-.05-7.16Zm2.85,5.76c1.29,0,1.94-1.02,1.93-2.23,0-1.19-.67-2.18-1.96-2.17h-1.38s.03,4.42,.03,4.42h1.38Z"/><path class="cls-8" d="M241.16,77.25c-.02-2.08,1.61-3.74,3.7-3.76s3.74,1.63,3.76,3.68c.02,2.04-1.59,3.7-3.71,3.72-2.13,.02-3.73-1.59-3.75-3.64Zm5.97-.06c-.01-1.34-1.02-2.29-2.26-2.28-1.24,0-2.23,1-2.22,2.31,0,1.31,1,2.27,2.25,2.26,1.26,0,2.24-.99,2.22-2.29Z"/><path class="cls-8" d="M248.84,73.58h1.57s1.48,4.79,1.48,4.79l1.59-4.83h.91s1.69,4.79,1.69,4.79l1.39-4.83h1.57s-2.31,7.17-2.31,7.17h-1.21s-1.56-4.67-1.56-4.67l-1.49,4.7h-1.21s-2.43-7.13-2.43-7.13Z"/><path class="cls-8" d="M259.15,79.45l.82-1c.48,.65,1.18,.99,1.91,.98,.6,0,1.02-.33,1.02-.77,0-.36-.29-.57-.66-.74-.46-.21-1.05-.38-1.56-.66-.63-.35-1.14-.88-1.15-1.77,0-1.18,.97-2.1,2.43-2.11,.83,0,1.69,.28,2.36,.95l-.76,1.05c-.43-.44-1.08-.66-1.57-.66-.57,0-.92,.29-.92,.69,0,.36,.3,.56,.59,.7,.38,.17,1.1,.44,1.58,.68,.7,.33,1.23,.86,1.23,1.77,0,1.27-1.04,2.19-2.61,2.2-1.09,0-2.11-.44-2.72-1.32Z"/><path class="cls-8" d="M185.04,85.68l2.8-.02c2.16-.02,3.46,1.36,3.48,3.57,.02,2.19-1.28,3.58-3.48,3.59l-2.74,.02-.05-7.16Zm2.85,5.76c1.29,0,1.94-1.02,1.93-2.23,0-1.19-.67-2.18-1.96-2.17h-1.38s.03,4.42,.03,4.42h1.38Z"/><path class="cls-8" d="M196.1,91.21l-2.5,.02-.54,1.55h-1.5s2.68-7.17,2.68-7.17h1.17s2.75,7.13,2.75,7.13h-1.51s-.54-1.54-.54-1.54Zm-2.1-1.26h1.69s-.85-2.39-.85-2.39l-.83,2.39Z"/><path class="cls-8" d="M205.08,85.53l.05,7.16h-.98s-3.74-4.36-3.74-4.36l.03,4.39h-1.41s-.05-7.15-.05-7.15h.91s3.81,4.39,3.81,4.39l-.03-4.43h1.41Z"/><path class="cls-8" d="M206.29,89.13c-.02-2.21,1.66-3.74,3.67-3.76,1.33,0,2.47,.59,3.09,1.46l-.95,.95c-.5-.61-1.21-1.03-2.05-1.02-1.28,0-2.28,1-2.27,2.36,0,1.33,1.01,2.28,2.29,2.27,.84,0,1.58-.43,2.08-1.06l.99,.89c-.62,.87-1.77,1.53-3.15,1.54-2.04,.01-3.69-1.45-3.71-3.63Z"/><path class="cls-8" d="M214.08,85.47l4.85-.04v1.34s-3.4,.03-3.4,.03v1.54s3.17-.02,3.17-.02v1.34s-3.15,.02-3.15,.02v1.61s3.42-.03,3.42-.03v1.34s-4.84,.04-4.84,.04l-.05-7.16Z"/><path class="cls-8" d="M222.08,91.35l.82-1c.48,.65,1.18,.99,1.91,.98,.6,0,1.02-.33,1.02-.77,0-.36-.29-.57-.66-.74-.46-.21-1.05-.38-1.56-.66-.63-.35-1.14-.88-1.15-1.77,0-1.18,.97-2.1,2.43-2.11,.83,0,1.69,.28,2.36,.95l-.76,1.05c-.43-.44-1.08-.66-1.57-.66-.57,0-.92,.29-.92,.69,0,.36,.3,.56,.59,.7,.38,.17,1.1,.44,1.58,.68,.7,.33,1.23,.86,1.23,1.77,0,1.27-1.04,2.19-2.61,2.2-1.09,0-2.11-.44-2.72-1.32Z"/><path class="cls-8" d="M227.76,86.75v-1.39s5.53-.04,5.53-.04v1.39s-2.03,.02-2.03,.02l.04,5.77h-1.45s-.04-5.76-.04-5.76h-2.04Z"/><path class="cls-8" d="M234.17,89.86l-.03-4.54h1.44s.03,4.44,.03,4.44c0,.98,.56,1.44,1.37,1.43,.79,0,1.33-.5,1.33-1.45l-.03-4.45h1.45s.03,4.53,.03,4.53c.01,1.89-1.27,2.75-2.77,2.76-1.51,.01-2.81-.83-2.82-2.72Z"/><path class="cls-8" d="M241.24,85.27l2.8-.02c2.16-.02,3.46,1.36,3.48,3.57,.02,2.19-1.28,3.58-3.48,3.59l-2.74,.02-.05-7.16Zm2.85,5.76c1.29,0,1.94-1.02,1.93-2.23,0-1.19-.67-2.18-1.96-2.17h-1.38s.03,4.42,.03,4.42h1.38Z"/><path class="cls-8" d="M250.14,85.2l.05,7.16h-1.44s-.05-7.15-.05-7.15h1.44Z"/><path class="cls-8" d="M251.34,88.8c-.02-2.08,1.61-3.74,3.7-3.76,2.09-.01,3.74,1.63,3.76,3.68,.02,2.04-1.59,3.7-3.71,3.72-2.13,.02-3.73-1.59-3.75-3.64Zm5.97-.06c-.01-1.34-1.02-2.29-2.26-2.28-1.24,0-2.23,1-2.22,2.31,0,1.31,1,2.27,2.25,2.26,1.26,0,2.24-.99,2.22-2.29Z"/></g><path class="cls-2" d="M792.65,286.45c.01-1.71-1.36-3.1-3.06-3.12l-20.15-.15c-1.7-.01-3.1,1.36-3.11,3.07l-.15,20.2c-.01,1.71,1.36,3.1,3.06,3.12l20.15,.15c1.7,.01,3.1-1.36,3.11-3.07l.15-20.2Zm-7.43,.76c.85,0,1.54,.7,1.53,1.55s-.7,1.54-1.55,1.53-1.53-.7-1.53-1.56,.7-1.54,1.55-1.53Zm-11.88-.09c.85,0,1.54,.7,1.53,1.55s-.7,1.54-1.56,1.53c-.85,0-1.53-.7-1.53-1.56s.7-1.54,1.55-1.53Zm3.04,4.44l-.47,5.16c-.03,.33-.24,.6-.55,.71h0c-.31,.12-.52,.41-.54,.74l-.45,6.7c-.03,.45-.41,.8-.87,.8h-.29s-.29,0-.29,0c-.45,0-.82-.36-.85-.81l-.35-6.7c-.02-.33-.23-.63-.53-.75-.31-.12-.51-.41-.54-.73l-.38-5.17c-.03-.42,.25-.81,.68-.9l.42-.09c.29-.06,.57,.02,.78,.23l.58,.6c.33,.33,.87,.34,1.21,0l.6-.59c.21-.21,.5-.29,.78-.22l.43,.09c.38,.11,.66,.5,.63,.92Zm3.17,14.16c0,.23-.19,.41-.42,.41s-.42-.19-.41-.41l.14-18.55c0-.23,.19-.41,.42-.41s.41,.19,.41,.42l-.14,18.55Zm8.61-8.18c-.29,.07-.48,.35-.44,.64l.17,1.33c.04,.31-.18,.61-.49,.65l-.39,.04c-.27,.04-.48,.27-.49,.53l-.29,4.25c-.03,.45-.41,.8-.86,.79h-.29s-.29,0-.29,0c-.45,0-.82-.35-.85-.81l-.23-4.25c-.01-.28-.22-.5-.48-.54l-.39-.05c-.3-.04-.53-.34-.48-.66l.19-1.33c.05-.29-.14-.57-.43-.64-.3-.08-.48-.38-.41-.68l1.2-5.52c.08-.39,.54-.59,.87-.36l1.09,.71c.18,.12,.43,.13,.63,0l1.09-.7c.34-.21,.79-.02,.87,.37l1.12,5.54c.05,.3-.14,.6-.44,.67Z"/><g><polygon class="cls-2" points="291.5 335.92 282.2 341.32 282.12 334.94 291.42 329.55 300.87 334.7 300.95 341.07 291.5 335.92"/><polygon class="cls-2" points="291.62 344.65 282.31 350.04 282.23 343.67 291.53 338.28 300.98 343.43 301.06 349.8 291.62 344.65"/><polygon class="cls-2" points="291.73 353.38 282.42 358.76 282.34 352.4 291.65 347.01 301.09 352.16 301.17 358.53 291.73 353.38"/></g><g><path class="cls-10" d="M771.33,52.68h-1.41v-3.74c0-.3-.23-.53-.51-.53h-3.82c-.28,0-.51,.24-.51,.53v3.74h-1.41c-.28,0-.51,.24-.51,.53v4.01c0,.3,.23,.53,.51,.53h7.66c.28,0,.51-.24,.51-.53v-4.01c0-.3-.23-.53-.51-.53Zm-5.24-3.21h.89v.53c0,.3,.23,.53,.51,.53s.51-.24,.51-.53v-.53h.9v2.94h-2.8v-2.94Zm-1.92,4.28h.76v.53c0,.3,.23,.53,.51,.53s.51-.24,.51-.53v-.53h1.02v2.94h-2.8v-2.94Zm6.64,2.94h-2.82v-2.94h1.02v.53c0,.3,.23,.53,.51,.53s.51-.24,.51-.53v-.53h.78v2.94Z"/><path class="cls-10" d="M778.95,41.45s0-.04,0-.06c0-.02,0-.03,0-.05,0-.02,0-.03-.02-.05,0-.02,0-.03-.02-.05,0-.01-.01-.03-.02-.04l-.02-.05-.03-.04s-.02-.03-.03-.04l-.03-.03-.05-.04h0l-10.96-7.22c-.17-.11-.37-.11-.54,0l-10.96,7.22h0l-.05,.04-.03,.03s-.02,.03-.03,.04l-.03,.04-.05,.03s-.02,.03-.02,.04c0,.02-.01,.03-.02,.05,0,.02-.01,.03-.02,.05,0,.02,0,.03,0,.05,0,.03-.01,.05-.01,.08v15.77c0,.3,.23,.53,.51,.53h4.59c.28,0,.51-.24,.51-.53v-10.43h11.72v10.43c0,.3,.23,.53,.51,.53,.03,0,.06,0,.09,0,.03,0,.06,0,.09,0h4.41c.28,0,.51-.24,.51-.53v-15.77Zm-17.33,4.28v-.53h11.72v.53h-11.72Zm12.74,10.96v-12.03c0-.3-.23-.53-.51-.53h-12.74c-.28,0-.51,.24-.51,.53v12.03h-3.57v-14.94s10.45-6.88,10.45-6.88l10.45,6.88v14.94h-3.57Z"/><path class="cls-10" d="M768.76,39.04h-2.8c-.28,0-.51,.24-.51,.53,0,.3,.23,.53,.51,.53h2.8c.28,0,.51-.24,.51-.53,0-.3-.23-.53-.51-.53Z"/><path class="cls-10" d="M768.76,40.65h-2.8c-.28,0-.51,.24-.51,.53,0,.3,.23,.53,.51,.53h2.8c.28,0,.51-.24,.51-.53,0-.3-.23-.53-.51-.53Z"/></g><g><path class="cls-10" d="M770.67,112.1h-1.41v-3.74c0-.3-.23-.53-.51-.53h-3.82c-.28,0-.51,.24-.51,.53v3.74h-1.41c-.28,0-.51,.24-.51,.53v4.01c0,.3,.23,.53,.51,.53h7.66c.28,0,.51-.24,.51-.53v-4.01c0-.3-.23-.53-.51-.53Zm-5.24-3.21h.89v.53c0,.3,.23,.53,.51,.53s.51-.24,.51-.53v-.53h.9v2.94h-2.8v-2.94Zm-1.92,4.28h.76v.53c0,.3,.23,.53,.51,.53s.51-.24,.51-.53v-.53h1.02v2.94h-2.8v-2.94Zm6.64,2.94h-2.82v-2.94h1.02v.53c0,.3,.23,.53,.51,.53s.51-.24,.51-.53v-.53h.78v2.94Z"/><path class="cls-10" d="M778.3,100.87s0-.04,0-.06c0-.02,0-.03,0-.05,0-.02,0-.03-.02-.05,0-.02,0-.03-.02-.05,0-.01-.01-.03-.02-.04l-.02-.05-.03-.04s-.02-.03-.03-.04l-.03-.03-.05-.04h0l-10.96-7.22c-.17-.11-.37-.11-.54,0l-10.96,7.22h0l-.05,.04-.03,.03s-.02,.03-.03,.04l-.03,.04-.05,.03s-.02,.03-.02,.04c0,.02-.01,.03-.02,.05,0,.02-.01,.03-.02,.05,0,.02,0,.03,0,.05,0,.03-.01,.05-.01,.08v15.77c0,.3,.23,.53,.51,.53h4.59c.28,0,.51-.24,.51-.53v-10.43h11.72v10.43c0,.3,.23,.53,.51,.53,.03,0,.06,0,.09,0,.03,0,.06,0,.09,0h4.41c.28,0,.51-.24,.51-.53v-15.77Zm-17.33,4.28v-.53h11.72v.53h-11.72Zm12.74,10.96v-12.03c0-.3-.23-.53-.51-.53h-12.74c-.28,0-.51,.24-.51,.53v12.03h-3.57v-14.94s10.45-6.88,10.45-6.88l10.45,6.88v14.94h-3.57Z"/><path class="cls-10" d="M768.11,98.46h-2.8c-.28,0-.51,.24-.51,.53,0,.3,.23,.53,.51,.53h2.8c.28,0,.51-.24,.51-.53,0-.3-.23-.53-.51-.53Z"/><path class="cls-10" d="M768.11,100.07h-2.8c-.28,0-.51,.24-.51,.53,0,.3,.23,.53,.51,.53h2.8c.28,0,.51-.24,.51-.53,0-.3-.23-.53-.51-.53Z"/></g><g><path class="cls-10" d="M771.98,157.15h-1.41v-3.74c0-.3-.23-.53-.51-.53h-3.82c-.28,0-.51,.24-.51,.53v3.74h-1.41c-.28,0-.51,.24-.51,.53v4.01c0,.3,.23,.53,.51,.53h7.66c.28,0,.51-.24,.51-.53v-4.01c0-.3-.23-.53-.51-.53Zm-5.24-3.21h.89v.53c0,.3,.23,.53,.51,.53s.51-.24,.51-.53v-.53h.9v2.94h-2.8v-2.94Zm-1.92,4.28h.76v.53c0,.3,.23,.53,.51,.53s.51-.24,.51-.53v-.53h1.02v2.94h-2.8v-2.94Zm6.64,2.94h-2.82v-2.94h1.02v.53c0,.3,.23,.53,.51,.53s.51-.24,.51-.53v-.53h.78v2.94Z"/><path class="cls-10" d="M779.61,145.92s0-.04,0-.06c0-.02,0-.03,0-.05,0-.02,0-.03-.02-.05,0-.02,0-.03-.02-.05,0-.01-.01-.03-.02-.04l-.02-.05-.03-.04s-.02-.03-.03-.04l-.03-.03-.05-.04h0l-10.96-7.22c-.17-.11-.37-.11-.54,0l-10.96,7.22h0l-.05,.04-.03,.03s-.02,.03-.03,.04l-.03,.04-.05,.03s-.02,.03-.02,.04c0,.02-.01,.03-.02,.05,0,.02-.01,.03-.02,.05,0,.02,0,.03,0,.05,0,.03-.01,.05-.01,.08v15.77c0,.3,.23,.53,.51,.53h4.59c.28,0,.51-.24,.51-.53v-10.43h11.72v10.43c0,.3,.23,.53,.51,.53,.03,0,.06,0,.09,0,.03,0,.06,0,.09,0h4.41c.28,0,.51-.24,.51-.53v-15.77Zm-17.33,4.28v-.53h11.72v.53h-11.72Zm12.74,10.96v-12.03c0-.3-.23-.53-.51-.53h-12.74c-.28,0-.51,.24-.51,.53v12.03h-3.57v-14.94s10.45-6.88,10.45-6.88l10.45,6.88v14.94h-3.57Z"/><path class="cls-10" d="M769.41,143.52h-2.8c-.28,0-.51,.24-.51,.53,0,.3,.23,.53,.51,.53h2.8c.28,0,.51-.24,.51-.53,0-.3-.23-.53-.51-.53Z"/><path class="cls-10" d="M769.41,145.12h-2.8c-.28,0-.51,.24-.51,.53,0,.3,.23,.53,.51,.53h2.8c.28,0,.51-.24,.51-.53,0-.3-.23-.53-.51-.53Z"/></g></g><polygon id="Galleria_Stara_Zagora0.012" class="cls-3" points="178.39 11.03 141.91 80.33 184.15 102.95 276.83 102.95 276.83 65.52 227.8 65.52 227.8 11.03 178.39 11.03"/><polygon id="Galleria_Stara_Zagora0.016" class="cls-4" points="338.42 20.71 338.42 172.51 573.97 172.51 573.97 185.73 698.5 185.73 698.5 43.03 664.89 43.03 664.89 12.17 465.43 12.17 465.43 38.62 381.95 38.62 381.95 20.71 338.42 20.71"/><polygon id="Galleria_Stara_Zagora0.017" class="cls-4" points="338.8 174.4 338.8 308.18 717.51 308.18 717.51 239.99 691.69 239.99 691.69 203.13 718.09 203.13 718.09 187.75 572.12 187.75 572.12 173.82 338.8 174.4"/></svg>