<?xml version="1.0" encoding="utf-8"?>
<!-- Generator: Adobe Illustrator 26.0.3, SVG Export Plug-In . SVG Version: 6.00 Build 0)  -->
<svg version="1.1" id="Layer_4" xmlns="http://www.w3.org/2000/svg" xmlns:xlink="http://www.w3.org/1999/xlink" x="0px" y="0px"
	 viewBox="0 0 793.3 530" style="enable-background:new 0 0 793.3 530;" xml:space="preserve">
<style type="text/css">
	.st0{fill:#F1F2F2;}
	.st1{fill:none;stroke:#000000;stroke-width:2;stroke-miterlimit:10;}
	.st2{fill:none;stroke:#000000;stroke-miterlimit:10;}
	.st3{fill-rule:evenodd;clip-rule:evenodd;}
	.st4{fill:#F47725;}
	.st5{fill-rule:evenodd;clip-rule:evenodd;fill:#FFFFFF;}
</style>
<g id="cladire">
	<g>
		<path class="st0" d="M6.9,6.1h779.6v504.5l-4.7,0.3c-21.8,1.2-45.8,1.8-71.5,1.8c0,0,0,0,0,0c-153.5,0-327.9-22-344.2-24.1
			c-1.8,0.6-3.6,1.3-5.5,1.8c-36.3,11.2-75,16.9-115.1,16.9c-42.2,0-71.8-6.4-77.4-7.7L46.8,514.4l-39.9,5.2V6.1z"/>
		<path class="st0" d="M781.5,11.1v28.3v69.7v61.3v154.3v0.4v71.7v46.7v62.5c-22.8,1.3-46.8,1.8-71.2,1.8
			c-161.9,0-344.8-24.3-344.8-24.3c-2,0.8-4.1,1.5-6.4,2.2c-41.7,12.9-81.4,16.7-113.6,16.7c-46.2,0-77.1-7.8-77.1-7.8l-122.2,15
			l-34.3,4.5v-50.1v-10.5v-7.2V345.6v-53v-45.3V146.5V58.7V11.1H679H703H781.5 M791.5,1.1h-10H703H679H11.9h-10v10v47.6v87.8v100.8
			v45.3v53v100.6v7.2v10.5v50.1v11.4l11.3-1.5l34.2-4.5l120.4-14.8c7.6,1.7,36.7,7.7,77.7,7.7c40.5,0,79.7-5.8,116.5-17.1
			c1.5-0.5,3-1,4.5-1.5c22.3,2.9,193,24,343.7,24c25.8,0,49.9-0.6,71.8-1.8l9.4-0.5v-9.5v-62.5v-46.7V325v-0.4V170.4v-61.3V39.4
			V11.1V1.1L791.5,1.1z"/>
		<path class="st1" d="M781.5,505.8v-62.5v-46.7V325v-0.4V170.4v-61.3V39.4V11.1H703H679H11.9v47.6v87.8v100.8v45.3v53v100.6v7.2
			v10.5v50.1l34.3-4.5l122.2-15c0,0,89.1,22.5,190.7-8.9c2.2-0.7,4.3-1.4,6.4-2.2C365.4,483.4,607.7,515.5,781.5,505.8z"/>
	</g>
</g>
<g id="magazine">
	<polyline class="st2" points="781.5,107.7 747.7,107.7 747.7,134.2 686.1,134.2 686.1,106.6 548.4,106.6 548.4,45.1 580.2,45.1 
		580.2,22.4 614,22.4 614,11.1 	"/>
	<line class="st2" x1="614" y1="106.6" x2="614" y2="22.4"/>
	<line class="st2" x1="568.8" y1="45.1" x2="568.8" y2="106.6"/>
	<polyline class="st2" points="506.3,11.1 506.3,44.3 537.2,44.3 537.2,105.8 380.8,105.8 380.8,11.1 	"/>
	<polyline class="st2" points="506.3,44.3 492.3,44.3 492.3,105.8 	"/>
	<line class="st2" x1="514.8" y1="44.3" x2="514.8" y2="105.8"/>
	<polyline class="st2" points="430.8,45 449.2,45 449.2,105.8 	"/>
	<line class="st2" x1="430.8" y1="11.1" x2="430.8" y2="105.8"/>
	<polyline class="st2" points="48.2,11.1 48.2,71.3 11.9,71.3 	"/>
	<path class="st2" d="M11.9,136.3h79.7v43h119v-42.7c3-14.3,11.1-25.4,27.2-30.5h132.9V44.3h-62.4V22.2h-92.6V11.1"/>
	<line class="st2" x1="348.3" y1="106.1" x2="348.3" y2="44.3"/>
	<line class="st2" x1="314.8" y1="44.3" x2="314.8" y2="106.1"/>
	<polyline class="st2" points="281.8,106.1 281.8,41.2 292.2,41.2 292.5,22.4 	"/>
	<polyline class="st2" points="215.7,22.2 215.7,56.9 182.2,56.9 182.2,112.8 208.7,112.8 218,119.5 	"/>
	<polyline class="st2" points="11.9,343.7 209.9,343.7 209.9,189.1 148.8,189.1 148.8,210.5 142.5,210.5 142.5,188.3 83.3,188.3 
		83.3,146.1 11.9,146.1 	"/>
	<polyline class="st2" points="209.9,210.5 115,210.5 115,276.9 108,276.9 108,343.1 	"/>
	<polyline class="st2" points="151.3,210.5 151.3,226.4 157.9,226.4 171.9,234.1 171.9,228.4 209.9,228.4 	"/>
	<polyline class="st2" points="209.9,276.8 127.6,276.8 115,276.8 	"/>
	<polyline class="st2" points="209.9,298 127.4,298 127.4,276.8 	"/>
	<polyline class="st2" points="168.4,494.4 217.5,487.7 217.5,426.1 210.5,426.1 210.5,356.8 48.6,356.8 48.6,364.4 30.2,364.4 
		30.2,356.5 11.9,356.7 	"/>
	<polyline class="st2" points="11.9,454.6 37.4,454.6 37.4,443.6 49.2,443.6 49.2,509.1 	"/>
	<line class="st2" x1="282" y1="470.1" x2="282" y2="416.1"/>
	<line class="st2" x1="308.6" y1="416.1" x2="308.6" y2="474.8"/>
	<line class="st2" x1="348.9" y1="416.1" x2="348.9" y2="481"/>
	<line class="st2" x1="382.3" y1="479.4" x2="382.3" y2="485.5"/>
	<line class="st2" x1="382.3" y1="443.1" x2="382.3" y2="416.1"/>
	<polyline class="st2" points="433.7,459.9 481.7,459.9 481.7,416.4 	"/>
	<line class="st2" x1="448.3" y1="459.9" x2="448.3" y2="416.4"/>
	<line class="st2" x1="614.4" y1="416.4" x2="614.4" y2="505.2"/>
	<polyline class="st2" points="687.7,507.5 687.7,496.6 647.7,496.6 647.7,416.4 	"/>
	<path class="st2" d="M781.5,394h-12.7v5.1h-20.6v-55.7h-61.5v42.7c-4.2,20.1-19.8,29.7-38.7,30.3H425.9v29h7.8v33.9h-51.4v-36.3
		h9.7v2.6h24.1v-29.6h-134h-22.8l-1.2,0v49.5c33.4,6.5,53.6,10.2,107.4,17.8"/>
	<polyline class="st2" points="781.5,322.8 747.8,322.8 747.8,333.6 686.1,333.6 686.1,144.4 747.7,144.4 747.7,168.4 781.5,168.4 	
		"/>
	<polyline class="st2" points="747.7,168.4 747.7,211.8 686.1,211.8 	"/>
	<line class="st2" x1="747.7" y1="179.1" x2="686.1" y2="179.1"/>
	<polyline class="st2" points="747.8,322.8 747.8,310.2 686.1,310.2 	"/>
	<path class="st2" d="M614.8,154.2l17.5,17.5v76c-15.7,2.2-29.1,9.8-41.2,20.8h-32.3v-22.3h-77.8v6.5H504v16.3h-22.4v8.7H583
		c-14,22.2-21.7,46-22,71.7c-92.1,13-185.2,19.3-279.3,19.2L264.2,351v-62.1c13.6-6.4,25.1-14.5,34-24.6l16,12.2H414v-7.5h-33.3
		v-4.4h-6v3.8h-56.6l-13.5-9.7c18.9-24.3,29.9-52.4,31-85.3C434.8,160.4,528.7,153.1,614.8,154.2z"/>
	<polyline class="st2" points="374.8,264.5 374.8,229.8 328.2,229.8 323.6,227.2 	"/>
	<path class="st2" d="M380.8,264.5"/>
	<line class="st2" x1="481.1" y1="246.1" x2="481.1" y2="158.4"/>
	<path class="st2" d="M558.9,246.1"/>
	<polyline class="st2" points="632.4,212.1 547.6,212.1 547.6,154.9 	"/>
	<line class="st2" x1="558.9" y1="246.1" x2="558.9" y2="212.1"/>
	<line class="st2" x1="586.5" y1="154.1" x2="586.5" y2="212.1"/>
	<line class="st2" x1="614" y1="212.1" x2="613.5" y2="154.1"/>
	<line class="st2" x1="527.7" y1="277.3" x2="527.7" y2="353.7"/>
	<polyline class="st2" points="567.4,310.7 513.7,310.7 513.7,355.4 	"/>
	<line class="st2" x1="548" y1="310.3" x2="548" y2="351.1"/>
	<line class="st2" x1="481.6" y1="277.7" x2="481.6" y2="358.8"/>
	<polyline class="st2" points="414,276.4 414,292.5 481.6,292.5 	"/>
	<polyline class="st2" points="448.3,362 448.3,292.1 448.3,268.8 414,268.8 	"/>
	<line class="st2" x1="414" y1="292.5" x2="414" y2="364.4"/>
	<polyline class="st2" points="314.2,276.4 314.2,344.1 264.2,344.1 	"/>
	<line class="st2" x1="314.5" y1="311" x2="264.2" y2="311"/>
	<line class="st2" x1="312.6" y1="368.3" x2="312.6" y2="343.5"/>
</g>
<g id="logo">
	<g>
		<path d="M645.4,66.6c0-5.5,3.6-9.2,7.8-9.2c2.8,0,5.2,1.5,6.5,3.7l-2,2.3c-1-1.5-2.5-2.6-4.3-2.6c-2.7,0-4.8,2.4-4.8,5.8
			c0,3.3,2.1,5.7,4.8,5.7c1.8,0,3.3-1,4.4-2.6l2.1,2.2c-1.3,2.1-3.8,3.8-6.7,3.8C648.9,75.7,645.4,72,645.4,66.6z"/>
		<path d="M660.8,66.6c0-5.2,3.5-9.2,7.9-9.2s7.9,4.1,7.9,9.2c0,5.1-3.4,9.2-7.9,9.2C664.2,75.7,660.8,71.7,660.8,66.6z M673.4,66.6
			c0-3.3-2.1-5.7-4.7-5.7c-2.6,0-4.7,2.4-4.7,5.7c0,3.2,2.1,5.6,4.7,5.6S673.4,69.8,673.4,66.6z"/>
		<path d="M679,57.7h2l5.9,10.1l5.9-10.1h2v17.7h-3V65.4l-4.4,7.4h-1l-4.4-7.4v10.1h-3V57.7z"/>
		<path d="M696.9,72.4l1.7-2.5c1,1.6,2.5,2.5,4,2.5c1.3,0,2.2-0.8,2.2-1.9c0-0.9-0.6-1.4-1.4-1.8c-1-0.5-2.2-1-3.3-1.7
			c-1.3-0.9-2.4-2.2-2.4-4.4c0-2.9,2.1-5.2,5.1-5.2c1.8,0,3.6,0.7,5,2.4l-1.6,2.6c-0.9-1.1-2.3-1.7-3.3-1.7c-1.2,0-1.9,0.7-1.9,1.7
			c0,0.9,0.6,1.4,1.2,1.8c0.8,0.4,2.3,1.1,3.3,1.7c1.5,0.8,2.6,2.2,2.6,4.4c0,3.1-2.2,5.4-5.5,5.4C700.3,75.7,698.2,74.6,696.9,72.4
			z"/>
		<path d="M710.6,57.7h10.2V61h-7.2v3.8h6.7v3.3h-6.7v4h7.2v3.3h-10.2V57.7z"/>
		<path d="M723.6,57.7h5.9c4.6,0,7.3,3.4,7.3,8.9c0,5.4-2.8,8.8-7.4,8.8h-5.8V57.7z M729.5,72c2.7,0,4.1-2.5,4.1-5.5
			c0-3-1.4-5.4-4.1-5.4h-2.9V72H729.5z"/>
	</g>
	<g>
		<path d="M572.7,70.8h1v4.6h2.5v1.1h-3.5V70.8z"/>
		<path d="M576.8,70.8h3.3v1.1h-2.3v1.2h2.1v1.1h-2.1v1.3h2.3v1.1h-3.3V70.8z"/>
		<path d="M580.6,73.7c0-1.7,1.1-3,2.5-3s2.5,1.3,2.5,3c0,1.6-1.1,3-2.5,3C581.7,76.6,580.6,75.3,580.6,73.7z M584.7,73.7
			c0-1.1-0.7-1.8-1.5-1.8c-0.8,0-1.5,0.8-1.5,1.8c0,1,0.7,1.8,1.5,1.8S584.7,74.7,584.7,73.7z"/>
		<path d="M590.7,70.8v5.7H590l-2.5-3.5v3.5h-1v-5.7h0.6l2.6,3.5v-3.5H590.7z"/>
		<path d="M594.3,75.3h-1.7l-0.4,1.2h-1l1.9-5.7h0.8l1.8,5.7h-1L594.3,75.3z M592.9,74.3h1.1l-0.6-1.9L592.9,74.3z"/>
		<path d="M597.9,74.5h-0.6v2.1h-1v-5.7h1.9c1.1,0,1.7,0.9,1.7,1.8c0,0.7-0.3,1.4-1,1.7l1.2,2.2h-1.1L597.9,74.5z M597.3,73.4h0.8
			c0.5,0,0.8-0.4,0.8-0.8c0-0.4-0.2-0.8-0.7-0.8h-0.9V73.4z"/>
		<path d="M600.8,70.8h1.9c1.5,0,2.3,1.1,2.3,2.9c0,1.8-0.9,2.9-2.4,2.9h-1.9V70.8z M602.7,75.4c0.9,0,1.3-0.8,1.3-1.8
			c0-1-0.4-1.8-1.3-1.8h-0.9v3.5H602.7z"/>
		<path d="M605.5,73.7c0-1.7,1.1-3,2.5-3s2.5,1.3,2.5,3c0,1.6-1.1,3-2.5,3C606.6,76.6,605.5,75.3,605.5,73.7z M609.6,73.7
			c0-1.1-0.7-1.8-1.5-1.8c-0.8,0-1.5,0.8-1.5,1.8c0,1,0.7,1.8,1.5,1.8S609.6,74.7,609.6,73.7z"/>
	</g>
	<g>
		<path d="M549.2,72.1h0.6v2.1h1.3v-2.1h0.6v5.2h-0.6v-2.1h-1.3v2.1h-0.6V72.1z"/>
		<path d="M554,76.2h-1.1l-0.2,1.1h-0.6l1.2-5.2h0.5l1.2,5.2h-0.7L554,76.2z M553.1,75.2h0.7l-0.4-1.7L553.1,75.2z"/>
		<path d="M556.3,75.4h-0.4v1.9h-0.6v-5.2h1.2c0.7,0,1.1,0.8,1.1,1.6c0,0.6-0.2,1.2-0.6,1.5l0.7,2h-0.7L556.3,75.4z M555.9,74.5h0.5
			c0.3,0,0.5-0.3,0.5-0.7c0-0.4-0.1-0.7-0.4-0.7h-0.6V74.5z"/>
		<path d="M558.7,72.1v5.2h-0.6v-5.2H558.7z"/>
		<path d="M559.2,76.5l1.5-3.5h-1.5v-1h2.3v0.8l-1.5,3.4h1.5v1h-2.4V76.5z"/>
		<path d="M562.1,72.1h0.4l1.2,2.9l1.2-2.9h0.4v5.2h-0.6v-2.9l-0.9,2.2h-0.2l-0.9-2.2v2.9h-0.6V72.1z"/>
		<path d="M567.7,76.2h-1.1l-0.2,1.1h-0.6l1.2-5.2h0.5l1.2,5.2h-0.7L567.7,76.2z M566.8,75.2h0.7l-0.4-1.7L566.8,75.2z"/>
	</g>
	<g>
		<path d="M519.2,73.2c0-1.2,0.8-2.1,1.8-2.1s1.8,0.9,1.8,2.1c0,1.1-0.8,2-1.8,2C520,75.3,519.2,74.4,519.2,73.2z M522,73.2
			c0-0.7-0.5-1.3-1.1-1.3c-0.6,0-1,0.5-1,1.3c0,0.7,0.5,1.3,1,1.3C521.6,74.5,522,73.9,522,73.2z"/>
		<path d="M526.1,71.2v4h-0.5l-1.7-2.4v2.4h-0.7v-4h0.4l1.8,2.4v-2.4H526.1z"/>
		<path d="M528.4,73.8v1.4h-0.7v-1.4l-1.2-2.6h0.8l0.7,1.7l0.7-1.7h0.8L528.4,73.8z"/>
		<path d="M530.7,73.2l-1-2h0.8l0.7,1.4l0.7-1.4h0.8l-1.1,2l1.1,2h-0.8l-0.7-1.4l-0.7,1.4h-0.8L530.7,73.2z"/>
		<path d="M516,76.6h0.7l0.7,2.7l0.8-2.7h0.4l0.8,2.7l0.7-2.7h0.7l-1.1,4h-0.6l-0.7-2.6l-0.7,2.6h-0.6L516,76.6z"/>
		<path d="M520.9,78.6c0-1.2,0.8-2.1,1.8-2.1c1,0,1.8,0.9,1.8,2.1c0,1.1-0.8,2-1.8,2C521.7,80.6,520.9,79.7,520.9,78.6z M523.7,78.6
			c0-0.7-0.5-1.3-1.1-1.3c-0.6,0-1,0.5-1,1.3c0,0.7,0.5,1.3,1,1.3C523.3,79.8,523.7,79.3,523.7,78.6z"/>
		<path d="M525,76.6h0.4l1.3,2.2l1.3-2.2h0.5v4h-0.7v-2.2l-1,1.7h-0.2l-1-1.7v2.2H525V76.6z"/>
		<path d="M531.1,79.7h-1.2l-0.3,0.9h-0.7l1.3-4h0.5l1.3,4h-0.7L531.1,79.7z M530.1,79h0.8l-0.4-1.3L530.1,79z"/>
		<path d="M535.3,76.6v4h-0.5l-1.7-2.4v2.4h-0.7v-4h0.4l1.8,2.4v-2.4H535.3z"/>
	</g>
	<g>
		<path d="M453.8,63.6h0.7l2,3.4l2-3.4h0.7v6.1h-1v-3.4l-1.5,2.5h-0.4l-1.5-2.5v3.4h-1V63.6z"/>
		<path d="M460.3,63.6h3.5v1.1h-2.5v1.3h2.3v1.1h-2.3v1.4h2.5v1.1h-3.5V63.6z"/>
		<path d="M466.4,67.5h-0.6v2.2h-1v-6.1h2c1.2,0,1.8,0.9,1.8,1.9c0,0.7-0.3,1.5-1,1.8l1.3,2.4h-1.2L466.4,67.5z M465.8,66.4h0.8
			c0.6,0,0.8-0.4,0.8-0.8c0-0.4-0.2-0.8-0.7-0.8h-0.9V66.4z"/>
		<path d="M469.1,66.7c0-1.9,1.2-3.2,2.7-3.2c1,0,1.8,0.5,2.2,1.3l-0.7,0.8c-0.4-0.5-0.9-0.9-1.5-0.9c-0.9,0-1.6,0.8-1.6,2
			c0,1.1,0.7,1.9,1.6,1.9c0.6,0,1.1-0.4,1.5-0.9l0.7,0.8c-0.5,0.7-1.3,1.3-2.3,1.3C470.3,69.8,469.1,68.5,469.1,66.7z"/>
		<path d="M477.4,68.4h-1.8l-0.4,1.3h-1.1l2-6.1h0.8l1.9,6.1h-1.1L477.4,68.4z M475.9,67.3h1.2l-0.6-2L475.9,67.3z"/>
		<path d="M481.2,67.5h-0.6v2.2h-1v-6.1h2c1.2,0,1.8,0.9,1.8,1.9c0,0.7-0.3,1.5-1,1.8l1.3,2.4h-1.2L481.2,67.5z M480.5,66.4h0.8
			c0.6,0,0.8-0.4,0.8-0.8c0-0.4-0.2-0.8-0.7-0.8h-0.9V66.4z"/>
		<path d="M485.3,63.6v6.1h-1v-6.1H485.3z"/>
	</g>
	<g>
		<path d="M354.6,83.8c0.9,0,1.7,0.5,1.7,1.7v0.7h1.8v0.9h-5.4v-1.7C352.8,84.3,353.7,83.8,354.6,83.8z M354.5,84.7
			c-0.4,0-0.8,0.2-0.8,0.7v0.8h1.5v-0.7C355.3,85,354.9,84.7,354.5,84.7z"/>
		<path d="M357,81v1.6l1.2,0.4v1l-5.4-1.7v-0.7l5.4-1.7v1L357,81z M356,82.4v-1.1l-1.8,0.5L356,82.4z"/>
		<path d="M353.8,80h-1v-3.5h1v1.3h4.3v0.9h-4.3V80z"/>
		<path d="M356.2,74.4V75h1.9v0.9h-5.4v-1.7c0-1.1,0.8-1.6,1.7-1.6c0.6,0,1.3,0.3,1.6,0.9l2.1-1.1v1.1L356.2,74.4z M355.2,75v-0.7
			c0-0.5-0.4-0.7-0.7-0.7c-0.4,0-0.7,0.2-0.7,0.6V75H355.2z"/>
		<path d="M352.8,70.8h5.4v0.9h-5.4V70.8z"/>
		<path d="M357.4,70.1l-3.6-2.3V70h-1v-3.4h0.8l3.6,2.2v-2.3h1v3.6H357.4z"/>
		<path d="M352.8,64.9h5.4v0.9h-5.4V64.9z"/>
		<path d="M357,61.4V63l1.2,0.4v1l-5.4-1.7v-0.7l5.4-1.7v1L357,61.4z M356,62.8v-1.1l-1.8,0.5L356,62.8z"/>
		<path d="M361.8,78c0.9,0,1.7,0.5,1.7,1.7v0.7h1.8v0.9H360v-1.7C360,78.5,360.9,78,361.8,78z M361.8,78.9c-0.4,0-0.8,0.2-0.8,0.7
			v0.8h1.5v-0.7C362.6,79.1,362.2,78.9,361.8,78.9z"/>
		<path d="M360,77.3v-3.1h1v2.2h1.2v-2h1v2h1.2v-2.2h1v3.1H360z"/>
		<path d="M361.8,70.1c0.9,0,1.7,0.5,1.7,1.7v0.7h1.8v0.9H360v-1.7C360,70.6,360.9,70.1,361.8,70.1z M361.8,71
			c-0.4,0-0.8,0.2-0.8,0.7v0.8h1.5v-0.7C362.6,71.3,362.2,71,361.8,71z"/>
		<path d="M360,69.5v-3.1h1v2.2h1.2v-2h1v2h1.2v-2.2h1v3.1H360z"/>
	</g>
	<g>
		<path class="st3" d="M287.8,69.7c-0.5-0.2-1-0.3-1.7-0.3v0h-1.8v0c0,0,0,0,0,0c0,0.2,0,0.3,0,0.5c0,1.7,0,3.3,0,5h0v0.5h1.8v0
			c0.6,0,1.2-0.1,1.7-0.3c0.9-0.4,1.3-1.3,1.3-2.7C289.1,71,288.7,70.1,287.8,69.7z M287.6,73.4c-0.3,0.7-1,0.7-1.9,0.7
			c0-1.1,0-2.2,0-3.3c0,0,0,0,0,0c1.2-0.1,1.9,0.2,2.1,1.3C287.8,72.5,287.8,73,287.6,73.4z"/>
		<path class="st3" d="M292.3,71.1c-0.5-0.2-1.2-0.2-1.7,0c-0.8,0.4-1.5,1.4-1.2,2.7c0.2,1.1,0.9,1.6,1.9,1.7c1,0.1,1.9-0.4,2.1-1.4
			c-0.4,0-0.8,0-1.1,0c-0.2,0.4-0.6,0.6-1,0.4c-0.3-0.1-0.5-0.5-0.5-0.9c0.9,0,1.9,0,2.8,0C293.4,72.3,293,71.5,292.3,71.1z
			 M290.6,72.7c0.1-0.5,0.3-0.9,0.8-0.9c0.4,0,0.7,0.4,0.7,0.9C291.6,72.7,291.1,72.7,290.6,72.7z"/>
		<path class="st3" d="M302.8,71h-1.2l0,0.6c-0.3-0.4-0.6-0.7-1.2-0.7c-0.4,0-0.7,0.2-0.9,0.5c-0.3,0.4-0.5,0.9-0.6,1.5
			c0,0.6,0.1,1.3,0.3,1.7c0.3,0.4,0.8,0.7,1.3,0.7c0.5,0,0.8-0.2,1-0.5c0,0,0-0.1,0.1-0.1c0,0.5,0,1-0.2,1.2c-0.2,0.2-0.8,0.2-1,0
			c0,0-0.1-0.1-0.1-0.1c0,0,0-0.1-0.1-0.2c-0.4,0-0.8,0-1.2,0c0.1,0.7,0.4,1.1,1,1.3c0.6,0.2,1.3,0.2,1.9-0.1
			c0.5-0.2,0.8-0.7,0.9-1.4c0.1-0.4,0-0.9,0-1.4C302.8,73,302.8,71,302.8,71z M301,74.1c-0.5,0.1-0.8-0.3-0.8-0.8
			c-0.1-0.7,0.1-1.2,0.6-1.3c0.2,0,0.4,0,0.5,0.1C301.8,72.6,301.8,74,301,74.1z"/>
		<path class="st3" d="M310.8,73.6c0-0.5,0-1,0-1.4c-0.1-1.1-1-1.4-2.1-1.3c-0.8,0.1-1.5,0.5-1.5,1.5c0.4,0,0.8,0,1.2,0
			c0-0.1,0-0.2,0.1-0.3c0.2-0.3,1-0.4,1.1,0.1c0.1,0.5-0.2,0.5-0.6,0.6c-0.7,0.1-1.4,0.2-1.8,0.7c-0.3,0.5-0.2,1.4,0.1,1.7
			c0.2,0.3,0.6,0.4,0.9,0.4c0.5,0,0.9-0.2,1.2-0.4c0,0,0.1-0.1,0.1-0.1c0,0.1,0,0.3,0.1,0.4c0.4,0,0.8,0,1.3,0
			C310.8,74.9,310.8,74.3,310.8,73.6z M309.2,74.6c-0.3,0.1-0.8,0.1-0.9-0.3c0-0.1,0-0.2,0-0.4c0.1-0.4,0.8-0.4,1.2-0.6c0,0,0,0,0,0
			c0,0,0,0,0,0C309.6,73.9,309.6,74.4,309.2,74.6z"/>
		<path class="st3" d="M295.9,74.4c-0.3,0.3-1.2,0.3-1.1-0.3c0-0.2,0.3-0.3,0.5-0.4c0.6-0.2,1.4-0.3,1.7-0.7
			c0.2-0.2,0.2-0.7,0.2-1.1c0-0.2-0.2-0.5-0.3-0.6c-0.4-0.3-1-0.5-1.7-0.4c-0.8,0.1-1.4,0.4-1.5,1.4h1.2c0-0.1,0-0.2,0.1-0.3
			c0.2-0.3,1-0.2,1,0.2c0,0.2-0.2,0.3-0.3,0.4c-0.5,0.2-1.2,0.2-1.5,0.5c-0.3,0.2-0.5,0.5-0.5,1c0,0.5,0.1,0.8,0.3,1
			c0.7,0.7,2.4,0.7,3,0c0.2-0.2,0.3-0.6,0.3-1H296C296,74.1,296,74.2,295.9,74.4z"/>
		<path class="st3" d="M305.7,73c0,0.2,0,0.4,0,0.6c0,0.1-0.1,0.2-0.1,0.3c-0.1,0.4-0.6,0.7-1,0.4c-0.1-0.1-0.2-0.3-0.2-0.5
			c0-0.8,0-2.7,0-2.7s-0.3,0-0.7,0h0c-0.1,0-0.3,0-0.5,0c0,0,0,0,0,0h0v2h0c0,1.1,0,2.1,0.7,2.4c0.1,0.1,0.2,0.1,0.3,0.1
			c0.5,0.1,1-0.1,1.3-0.3c0.1-0.1,0.2-0.2,0.3-0.3v0.6h1.2V71h-1.2V73z"/>
		<rect x="311.1" y="69.4" class="st3" width="1.2" height="6"/>
		<rect x="297.4" y="71" class="st3" width="1.3" height="4.4"/>
		<rect x="297.4" y="69.4" class="st3" width="1.3" height="1.1"/>
	</g>
	<g>
		<path d="M220,76.1l0.7-1c0.4,0.6,1,1,1.5,1c0.5,0,0.8-0.3,0.8-0.7c0-0.3-0.2-0.5-0.5-0.7c-0.4-0.2-0.8-0.4-1.3-0.6
			c-0.5-0.3-0.9-0.8-0.9-1.7c0-1.1,0.8-2,2-2c0.7,0,1.4,0.3,1.9,0.9l-0.6,1c-0.3-0.4-0.9-0.6-1.3-0.6c-0.5,0-0.7,0.3-0.7,0.7
			c0,0.3,0.2,0.5,0.5,0.7c0.3,0.2,0.9,0.4,1.3,0.7c0.6,0.3,1,0.8,1,1.7c0,1.2-0.9,2.1-2.1,2.1C221.3,77.4,220.5,76.9,220,76.1z"/>
		<path d="M224.9,73.9c0-2.1,1.4-3.6,3-3.6c1.1,0,2,0.6,2.5,1.4l-0.8,0.9c-0.4-0.6-1-1-1.7-1c-1,0-1.9,0.9-1.9,2.2
			c0,1.3,0.8,2.2,1.8,2.2c0.7,0,1.3-0.4,1.7-1l0.8,0.9c-0.5,0.8-1.4,1.4-2.6,1.4C226.2,77.4,224.9,76,224.9,73.9z"/>
		<path d="M234.2,75.8h-2l-0.4,1.5h-1.2l2.2-6.8h1l2.2,6.8h-1.2L234.2,75.8z M232.5,74.6h1.4l-0.7-2.3L232.5,74.6z"/>
		<path d="M241.5,70.4v6.8h-0.8l-3-4.2v4.2h-1.1v-6.8h0.7l3.1,4.2v-4.2H241.5z"/>
		<path d="M242.8,70.4h2.3c1.8,0,2.8,1.3,2.8,3.4c0,2.1-1.1,3.4-2.8,3.4h-2.2V70.4z M245.1,76c1,0,1.6-1,1.6-2.1
			c0-1.1-0.5-2.1-1.6-2.1H244V76H245.1z"/>
		<path d="M251.7,75.8h-2l-0.4,1.5H248l2.2-6.8h1l2.2,6.8h-1.2L251.7,75.8z M250,74.6h1.4l-0.7-2.3L250,74.6z"/>
		<path d="M254.1,70.4h1.2V76h2.9v1.3h-4.1V70.4z"/>
	</g>
	<g>
		<path d="M387.8,35.9h2.8v0.9h-2V38h1.7v0.9h-1.7v2h-0.9V35.9z"/>
		<path d="M393.2,39.8h-1.5l-0.3,1.1h-0.9l1.6-5h0.7l1.6,5h-0.9L393.2,39.8z M392,38.9h1l-0.5-1.7L392,38.9z"/>
		<path d="M398.6,35.9v5H398l-2.2-3.1v3.1H395v-5h0.5l2.2,3.1v-3.1H398.6z"/>
		<path d="M404,37.5c0,0.9-0.5,1.6-1.6,1.6h-0.7v1.7h-0.9v-5h1.6C403.6,35.9,404,36.7,404,37.5z M403.2,37.5c0-0.4-0.2-0.7-0.6-0.7
			h-0.7v1.4h0.7C403,38.3,403.2,37.9,403.2,37.5z"/>
		<path d="M404.4,38.4c0-1.5,1-2.6,2.2-2.6s2.2,1.2,2.2,2.6c0,1.4-1,2.6-2.2,2.6C405.3,41,404.4,39.8,404.4,38.4z M407.9,38.4
			c0-0.9-0.6-1.6-1.3-1.6c-0.7,0-1.3,0.7-1.3,1.6c0,0.9,0.6,1.6,1.3,1.6S407.9,39.3,407.9,38.4z"/>
		<path d="M410.4,35.9v5h-0.9v-5H410.4z"/>
		<path d="M414.9,35.9v5h-0.6l-2.2-3.1v3.1h-0.8v-5h0.5l2.2,3.1v-3.1H414.9z"/>
		<path d="M415.5,36.9v-1h3.3v1h-1.2v4h-0.9v-4H415.5z"/>
	</g>
	<g>
		<polygon points="31.8,85.8 38.7,88.6 46.8,102.2 46.8,91.1 52.4,92.5 52.4,113.7 47.2,113.7 37.9,98.1 37.9,113.7 31.8,113.7 
			31.8,85.8 		"/>
		<polygon points="54.9,93.1 54.9,113.7 68.2,113.7 68.2,108.9 61,108.9 61,105.7 66.8,105.7 66.8,102 61,101.5 61,98.9 66.9,99.5 
			66.9,95.1 54.9,93.1 		"/>
		<polygon points="68.3,95.3 72.4,113.7 77.5,113.7 80.9,104 83.4,113.7 88.4,113.7 92.9,97.9 88,97.6 85.7,105.7 83.5,97.1 
			78.8,96.7 75.7,105.7 73.8,96.1 68.3,95.3 		"/>
		<polygon points="98.2,113.7 101.5,113.7 101.5,98.1 111.7,83.2 104.3,83.2 98.2,93.3 92,83.2 84.7,83.2 94.9,98.1 94.9,113.7 
			98.2,113.7 		"/>
		<path d="M110.8,97.1l-5,0.3l-2.4,2.3v2.5v8.9l2.5,2.6h4.8l2.3-2.6V99.3L110.8,97.1L110.8,97.1z M109.5,110.6H107V101h2.5V110.6
			L109.5,110.6z"/>
		<path d="M124.2,98.1l-1.8-1.9l-7.8,0.7v4.8l0,12h3.8V107h2.1v6.8h3.7v-7.6l-1.2-1.3l1.2-1.4V98.1L124.2,98.1z M120.5,103.4h-2.1
			v-3.7h2.1V103.4L120.5,103.4z"/>
		<polygon points="126.2,95.6 126.2,113.7 130.8,113.7 130.8,106.2 134.5,113.7 139.3,113.7 134.1,103.1 138.7,93.6 133.9,94.4 
			130.8,100.6 130.8,94.9 126.2,95.6 		"/>
		<polygon points="139.6,93.4 149.3,91.2 149.3,95.5 144.9,96.5 144.9,99.6 149.2,99.1 149.2,104.1 144.9,104.4 144.9,108.8 
			149.5,108.8 149.5,113.7 139.6,113.7 139.6,93.4 		"/>
		<path class="st3" d="M156.3,98.7v-5l3.1-0.8v5.5L156.3,98.7L156.3,98.7z M151.3,113.7h5v-9.8l3.1-0.2v10h5.3V103l-1.8-2.4l1.6-2.6
			v-8.4l-2.2-2.6l-11,3.6v5.1V113.7L151.3,113.7z"/>
	</g>
	<g>
		<path d="M264.6,432.6c0,0.9-0.5,1.8-1.7,1.8h-0.7v1.9h-0.9v-5.5h1.7C264.1,430.8,264.6,431.7,264.6,432.6z M263.6,432.6
			c0-0.4-0.2-0.8-0.7-0.8h-0.8v1.6h0.8C263.4,433.4,263.6,433,263.6,432.6z"/>
		<path d="M267.5,435.1h-1.6l-0.4,1.2h-1l1.8-5.5h0.8l1.8,5.5h-1L267.5,435.1z M266.1,434.1h1.1l-0.5-1.8L266.1,434.1z"/>
		<path d="M269.2,434.3v-3.5h1v3.4c0,0.8,0.4,1.1,0.9,1.1c0.5,0,0.9-0.4,0.9-1.1v-3.4h1v3.5c0,1.5-0.8,2.1-1.8,2.1
			C270.1,436.4,269.2,435.7,269.2,434.3z"/>
		<path d="M273.9,430.8h1v4.5h2.4v1.1h-3.3V430.8z"/>
		<path d="M280.3,435.1h-1.6l-0.4,1.2h-1l1.8-5.5h0.8l1.8,5.5h-1L280.3,435.1z M279,434.1h1.1l-0.5-1.8L279,434.1z"/>
		<path d="M266,438.2l-1.9,5.5h-0.8l-2-5.5h1.1l1.2,3.8l1.2-3.8H266z"/>
		<path d="M266.5,438.2h3.2v1h-2.2v1.2h2.1v1h-2.1v1.2h2.2v1h-3.2V438.2z"/>
		<path d="M274.6,438.2v5.5H274l-2.4-3.4v3.4h-0.9v-5.5h0.6l2.5,3.4v-3.4H274.6z"/>
		<path d="M275.2,439.3v-1.1h3.6v1.1h-1.3v4.5h-1v-4.5H275.2z"/>
		<path d="M280.4,438.2v5.5h-1v-5.5H280.4z"/>
	</g>
	<g>
		<path d="M290.1,438.6h-0.5v1.8h-0.9v-5h1.6c1,0,1.5,0.8,1.5,1.6c0,0.6-0.3,1.2-0.9,1.5l1,1.9h-1L290.1,438.6z M289.6,437.7h0.7
			c0.5,0,0.7-0.3,0.7-0.7c0-0.4-0.2-0.7-0.6-0.7h-0.8V437.7z"/>
		<path d="M292.6,435.4h2.9v0.9h-2v1.1h1.9v0.9h-1.9v1.1h2v0.9h-2.9V435.4z"/>
		<path d="M299.9,435.4v5h-0.6l-2.2-3.1v3.1h-0.8v-5h0.5l2.2,3.1v-3.1H299.9z"/>
		<path d="M301.7,435.4v5h-0.9v-5H301.7z"/>
	</g>
	<g>
		<path d="M316.3,434.1v-1h3.3v1h-1.2v4h-0.9v-4H316.3z"/>
		<path d="M320.1,433.2h2.9v0.9h-2v1.1h1.9v0.9H321v1.1h2v0.9h-2.9V433.2z"/>
		<path d="M323.5,435.7c0-1.5,1-2.6,2.2-2.6c1.2,0,2.2,1.2,2.2,2.6c0,1.4-1,2.6-2.2,2.6C324.4,438.3,323.5,437.1,323.5,435.7z
			 M327,435.7c0-0.9-0.6-1.6-1.3-1.6c-0.7,0-1.3,0.7-1.3,1.6c0,0.9,0.6,1.6,1.3,1.6C326.4,437.3,327,436.6,327,435.7z"/>
		<path d="M328.6,433.2h1.7c1.3,0,2,1,2,2.5c0,1.5-0.8,2.5-2.1,2.5h-1.6V433.2z M330.3,437.2c0.8,0,1.2-0.7,1.2-1.5
			c0-0.8-0.4-1.5-1.2-1.5h-0.8v3.1H330.3z"/>
		<path d="M332.8,435.7c0-1.5,1-2.6,2.2-2.6c1.2,0,2.2,1.2,2.2,2.6c0,1.4-1,2.6-2.2,2.6C333.7,438.3,332.8,437.1,332.8,435.7z
			 M336.3,435.7c0-0.9-0.6-1.6-1.3-1.6c-0.7,0-1.3,0.7-1.3,1.6c0,0.9,0.6,1.6,1.3,1.6C335.7,437.3,336.3,436.6,336.3,435.7z"/>
		<path d="M339.3,436.4h-0.5v1.8h-0.9v-5h1.6c1,0,1.5,0.8,1.5,1.6c0,0.6-0.3,1.2-0.9,1.5l1,1.9h-1L339.3,436.4z M338.7,435.5h0.7
			c0.5,0,0.7-0.3,0.7-0.7c0-0.4-0.2-0.7-0.6-0.7h-0.8V435.5z"/>
		<path d="M314.6,442.4c0-1.5,1-2.6,2.2-2.6c0.8,0,1.5,0.4,1.8,1l-0.6,0.7c-0.3-0.4-0.7-0.7-1.2-0.7c-0.8,0-1.4,0.7-1.4,1.6
			c0,0.9,0.6,1.6,1.4,1.6c0.5,0,0.9-0.3,1.2-0.7l0.6,0.6c-0.4,0.6-1.1,1.1-1.9,1.1C315.6,445,314.6,444,314.6,442.4z"/>
		<path d="M318.9,442.4c0-1.5,1-2.6,2.2-2.6c1.2,0,2.2,1.2,2.2,2.6c0,1.4-1,2.6-2.2,2.6C319.9,445,318.9,443.9,318.9,442.4z
			 M322.5,442.4c0-0.9-0.6-1.6-1.3-1.6c-0.7,0-1.3,0.7-1.3,1.6c0,0.9,0.6,1.6,1.3,1.6C321.9,444,322.5,443.3,322.5,442.4z"/>
		<path d="M327.7,439.9v5h-0.6l-2.2-3.1v3.1h-0.8v-5h0.5l2.2,3.1v-3.1H327.7z"/>
		<path d="M328.4,442.4c0-1.5,1-2.6,2.2-2.6c0.8,0,1.5,0.4,1.8,1l-0.6,0.7c-0.3-0.4-0.7-0.7-1.2-0.7c-0.8,0-1.4,0.7-1.4,1.6
			c0,0.9,0.6,1.6,1.4,1.6c0.5,0,0.9-0.3,1.2-0.7l0.6,0.6c-0.4,0.6-1.1,1.1-1.9,1.1C329.4,445,328.4,444,328.4,442.4z"/>
		<path d="M333,439.9h2.9v0.9h-2v1.1h1.9v0.9h-1.9v1.1h2v0.9H333V439.9z"/>
		<path d="M339.8,441.6c0,0.9-0.5,1.6-1.6,1.6h-0.7v1.7h-0.9v-5h1.6C339.3,439.9,339.8,440.7,339.8,441.6z M338.9,441.6
			c0-0.4-0.2-0.7-0.6-0.7h-0.7v1.4h0.7C338.7,442.3,338.9,441.9,338.9,441.6z"/>
		<path d="M340,440.9v-1h3.3v1H342v4h-0.9v-4H340z"/>
	</g>
	<g>
		<path d="M353.1,433h2.8v0.9h-2v1.1h1.7v0.9H354v2h-0.9V433z"/>
		<path d="M358.6,436.9h-1.5l-0.3,1.1h-0.9l1.6-5h0.7l1.6,5h-0.9L358.6,436.9z M357.3,436h1l-0.5-1.7L357.3,436z"/>
		<path d="M363.6,436.5c0,0.8-0.5,1.5-1.3,1.5h-1.9v-5h1.9c0.8,0,1.2,0.6,1.2,1.2c0,0.4-0.2,0.9-0.6,1
			C363.3,435.4,363.6,435.9,363.6,436.5z M361.1,433.8v1.1h0.8c0.4,0,0.5-0.3,0.5-0.6c0-0.3-0.2-0.5-0.5-0.5H361.1z M362.7,436.4
			c0-0.3-0.2-0.7-0.6-0.7h-0.9v1.3h0.9C362.5,437.1,362.7,436.7,362.7,436.4z"/>
		<path d="M365.1,433v5h-0.9v-5H365.1z"/>
		<path d="M368.4,436.9h-1.5l-0.3,1.1h-0.9l1.6-5h0.7l1.6,5h-0.9L368.4,436.9z M367.1,436h1l-0.5-1.7L367.1,436z"/>
		<path d="M373.7,433v5h-0.6l-2.2-3.1v3.1h-0.8v-5h0.5l2.2,3.1V433H373.7z"/>
		<path d="M374.4,435.5c0-1.5,1-2.6,2.2-2.6s2.2,1.2,2.2,2.6c0,1.4-1,2.6-2.2,2.6C375.3,438,374.4,436.9,374.4,435.5z M377.9,435.5
			c0-0.9-0.6-1.6-1.3-1.6c-0.7,0-1.3,0.7-1.3,1.6c0,0.9,0.6,1.6,1.3,1.6C377.4,437,377.9,436.4,377.9,435.5z"/>
		<path d="M356,443.9l0.5-0.7c0.3,0.5,0.7,0.7,1.1,0.7c0.4,0,0.6-0.2,0.6-0.5c0-0.2-0.2-0.4-0.4-0.5c-0.3-0.1-0.6-0.3-0.9-0.5
			c-0.4-0.2-0.7-0.6-0.7-1.2c0-0.8,0.6-1.5,1.4-1.5c0.5,0,1,0.2,1.4,0.7l-0.5,0.7c-0.3-0.3-0.6-0.5-0.9-0.5c-0.3,0-0.5,0.2-0.5,0.5
			c0,0.2,0.2,0.4,0.3,0.5c0.2,0.1,0.6,0.3,0.9,0.5c0.4,0.2,0.7,0.6,0.7,1.2c0,0.9-0.6,1.5-1.6,1.5C357,444.8,356.4,444.5,356,443.9z
			"/>
		<path d="M359.8,439.7h0.9v2h1.8v-2h0.9v5h-0.9v-2h-1.8v2h-0.9V439.7z"/>
		<path d="M364,442.2c0-1.5,1-2.6,2.2-2.6s2.2,1.2,2.2,2.6c0,1.4-1,2.6-2.2,2.6C365,444.8,364,443.7,364,442.2z M367.6,442.2
			c0-0.9-0.6-1.6-1.3-1.6c-0.7,0-1.3,0.7-1.3,1.6c0,0.9,0.6,1.6,1.3,1.6C367,443.8,367.6,443.1,367.6,442.2z"/>
		<path d="M369.1,439.7h2.9v0.9h-2v1.1h1.9v0.9H370v1.1h2v0.9h-2.9V439.7z"/>
		<path d="M372.4,443.9l0.5-0.7c0.3,0.5,0.7,0.7,1.1,0.7c0.4,0,0.6-0.2,0.6-0.5c0-0.2-0.2-0.4-0.4-0.5c-0.3-0.1-0.6-0.3-0.9-0.5
			c-0.4-0.2-0.7-0.6-0.7-1.2c0-0.8,0.6-1.5,1.4-1.5c0.5,0,1,0.2,1.4,0.7l-0.5,0.7c-0.3-0.3-0.6-0.5-0.9-0.5c-0.3,0-0.5,0.2-0.5,0.5
			c0,0.2,0.2,0.4,0.3,0.5c0.2,0.1,0.6,0.3,0.9,0.5c0.4,0.2,0.7,0.6,0.7,1.2c0,0.9-0.6,1.5-1.6,1.5
			C373.4,444.8,372.8,444.5,372.4,443.9z"/>
	</g>
	<g>
		<path d="M393.8,426.8h0.9v4h2.2v1h-3V426.8z"/>
		<path d="M397.2,429.9v-3.2h0.9v3.1c0,0.7,0.3,1,0.8,1c0.5,0,0.8-0.3,0.8-1v-3.1h0.9v3.2c0,1.3-0.8,1.9-1.7,1.9
			C398,431.9,397.2,431.3,397.2,429.9z"/>
		<path d="M401.2,429.3c0-1.5,1-2.6,2.2-2.6c0.8,0,1.5,0.4,1.8,1l-0.6,0.7c-0.3-0.4-0.7-0.7-1.2-0.7c-0.8,0-1.4,0.7-1.4,1.6
			c0,0.9,0.6,1.6,1.4,1.6c0.5,0,0.9-0.3,1.2-0.7l0.6,0.6c-0.4,0.6-1.1,1.1-1.9,1.1C402.2,431.8,401.2,430.8,401.2,429.3z"/>
		<path d="M407.6,430v1.7h-0.9V430l-1.5-3.3h1l0.9,2.2l0.9-2.2h1L407.6,430z"/>
		<path d="M388.5,433.5h2.8v0.9h-2v1.1h1.7v0.9h-1.7v2h-0.9V433.5z"/>
		<path d="M394,437.4h-1.5l-0.3,1.1h-0.9l1.6-5h0.7l1.6,5h-0.9L394,437.4z M392.8,436.6h1l-0.5-1.7L392.8,436.6z"/>
		<path d="M395.2,437.7l0.5-0.7c0.3,0.5,0.7,0.7,1.1,0.7c0.4,0,0.6-0.2,0.6-0.5c0-0.2-0.2-0.4-0.4-0.5c-0.3-0.1-0.6-0.3-0.9-0.5
			c-0.4-0.2-0.7-0.6-0.7-1.2c0-0.8,0.6-1.5,1.4-1.5c0.5,0,1,0.2,1.4,0.7l-0.5,0.7c-0.3-0.3-0.6-0.5-0.9-0.5c-0.3,0-0.5,0.2-0.5,0.5
			c0,0.2,0.2,0.4,0.3,0.5c0.2,0.1,0.6,0.3,0.9,0.5c0.4,0.2,0.7,0.6,0.7,1.2c0,0.9-0.6,1.5-1.6,1.5
			C396.2,438.6,395.6,438.3,395.2,437.7z"/>
		<path d="M399.1,433.5h0.9v2h1.8v-2h0.9v5h-0.9v-2h-1.8v2h-0.9V433.5z"/>
		<path d="M404.4,433.5v5h-0.9v-5H404.4z"/>
		<path d="M405.1,436c0-1.5,1-2.6,2.2-2.6c1.2,0,2.2,1.2,2.2,2.6c0,1.4-1,2.6-2.2,2.6C406,438.6,405.1,437.5,405.1,436z M408.6,436
			c0-0.9-0.6-1.6-1.3-1.6c-0.7,0-1.3,0.7-1.3,1.6c0,0.9,0.6,1.6,1.3,1.6C408,437.6,408.6,436.9,408.6,436z"/>
		<path d="M413.8,433.5v5h-0.6l-2.2-3.1v3.1h-0.8v-5h0.5l2.2,3.1v-3.1H413.8z"/>
	</g>
	<g>
		<path d="M513,468.7h-15.2v-0.5l11.4-11.5h-4.7h-4.8l-0.2,2.9h-0.7l0.3-3.4h14.3v0.4l-11.6,11.5h10.5l0.3-3.6h0.8L513,468.7
			L513,468.7z M583.6,464.8h-6.3l-2,3.4h3.7v0.5h-7.2v-0.5h2.7l7.3-12.2h0.4l6.9,12.2h2.7v0.5h-9.4v-0.5h3.2L583.6,464.8
			L583.6,464.8z M577.6,464.2h5.8l-2.8-4.9h-0.1L577.6,464.2L577.6,464.2z M530.9,464.8h-6.3l-2,3.4h3.7v0.5h-7.2v-0.5h2.7l7.3-12.2
			h0.4l6.9,12.2h2.7v0.5h-9.4v-0.5h3.3L530.9,464.8L530.9,464.8z M524.8,464.2h5.8l-2.8-4.9h-0.1L524.8,464.2L524.8,464.2z
			 M549,468.1v-11.5h-3.1v-0.5h10.9h3.9c2.1,0,2.7,1.7,2.7,2.8c0,1.6-0.4,2.8-2.7,3.3c-0.1,0-0.4,0-0.8,0.1l3.4,5.8h2.7v0.5h-6
			l-3.6-6.3h-3.7v5.8h3.1v0.5h-9.8v-0.5L549,468.1L549,468.1z M552.5,456.7v5.1h3.5c0.8,0,1.3-0.1,1.8-0.2c0.5-0.1,1.1-0.4,1.4-0.8
			c0.4-0.4,0.5-1.1,0.5-1.9c0-0.7-0.2-1.2-0.5-1.6c-0.4-0.4-0.8-0.5-1.3-0.6c-0.5-0.2-1.2-0.2-2-0.2H552.5L552.5,456.7L552.5,456.7z
			"/>
	</g>
	<g>
		<path d="M618.7,461.4h-1.5l-0.3,1.1H616l1.6-5h0.7l1.6,5H619L618.7,461.4z M617.5,460.5h1l-0.5-1.7L617.5,460.5z"/>
		<path d="M624.1,457.4v5h-0.6l-2.2-3.1v3.1h-0.8v-5h0.5l2.2,3.1v-3.1H624.1z"/>
		<path d="M625,457.4h1.7c1.3,0,2,1,2,2.5c0,1.5-0.8,2.5-2.1,2.5H625V457.4z M626.7,461.5c0.8,0,1.2-0.7,1.2-1.5
			c0-0.8-0.4-1.5-1.2-1.5h-0.8v3.1H626.7z"/>
		<path d="M630.8,460.6h-0.5v1.8h-0.9v-5h1.6c1,0,1.5,0.8,1.5,1.6c0,0.6-0.3,1.2-0.9,1.5l1,1.9h-1L630.8,460.6z M630.3,459.7h0.7
			c0.5,0,0.7-0.3,0.7-0.7c0-0.4-0.2-0.7-0.6-0.7h-0.8V459.7z"/>
		<path d="M633.3,457.4h2.9v0.9h-2v1.1h1.9v0.9h-1.9v1.1h2v0.9h-2.9V457.4z"/>
		<path d="M636.5,457.4h0.9l0.9,3.4l1-3.4h0.5l1,3.4l0.8-3.4h0.9l-1.4,5h-0.7l-0.9-3.3l-0.9,3.3h-0.7L636.5,457.4z"/>
		<path d="M642.6,461.6l0.5-0.7c0.3,0.5,0.7,0.7,1.1,0.7c0.4,0,0.6-0.2,0.6-0.5c0-0.2-0.2-0.4-0.4-0.5c-0.3-0.1-0.6-0.3-0.9-0.5
			c-0.4-0.2-0.7-0.6-0.7-1.2c0-0.8,0.6-1.5,1.5-1.5c0.5,0,1,0.2,1.4,0.7l-0.5,0.7c-0.3-0.3-0.6-0.5-0.9-0.5c-0.3,0-0.5,0.2-0.5,0.5
			c0,0.2,0.2,0.4,0.3,0.5c0.2,0.1,0.7,0.3,0.9,0.5c0.4,0.2,0.7,0.6,0.7,1.2c0,0.9-0.6,1.5-1.6,1.5
			C643.6,462.5,643,462.2,642.6,461.6z"/>
	</g>
	<g>
		<path d="M701.3,321.2h0.6l1.7,2.8l1.7-2.8h0.6v5h-0.9v-2.8l-1.2,2.1h-0.3l-1.2-2.1v2.8h-0.8V321.2z"/>
		<path d="M709,325.1h-1.5l-0.3,1.1h-0.9l1.6-5h0.7l1.6,5h-0.9L709,325.1z M707.8,324.2h1l-0.5-1.7L707.8,324.2z"/>
		<path d="M710.2,325.3l0.5-0.7c0.3,0.5,0.7,0.7,1.1,0.7c0.4,0,0.6-0.2,0.6-0.5c0-0.2-0.2-0.4-0.4-0.5c-0.3-0.1-0.6-0.3-0.9-0.5
			c-0.4-0.2-0.7-0.6-0.7-1.2c0-0.8,0.6-1.5,1.5-1.5c0.5,0,1,0.2,1.4,0.7l-0.5,0.7c-0.3-0.3-0.6-0.5-0.9-0.5c-0.3,0-0.5,0.2-0.5,0.5
			c0,0.2,0.2,0.4,0.3,0.5c0.2,0.1,0.7,0.3,0.9,0.5c0.4,0.2,0.7,0.6,0.7,1.2c0,0.9-0.6,1.5-1.6,1.5
			C711.2,326.2,710.6,325.9,710.2,325.3z"/>
		<path d="M713.8,323.7c0-1.5,1-2.6,2.2-2.6c1.2,0,2.2,1.2,2.2,2.6c0,1.4-1,2.6-2.2,2.6C714.8,326.2,713.8,325.1,713.8,323.7z
			 M717.4,323.7c0-0.9-0.6-1.6-1.3-1.6c-0.7,0-1.3,0.7-1.3,1.6c0,0.9,0.6,1.6,1.3,1.6C716.8,325.2,717.4,324.6,717.4,323.7z"/>
		<path d="M722.6,321.2v5H722l-2.2-3.1v3.1H719v-5h0.5l2.2,3.1v-3.1H722.6z"/>
		<path d="M724.3,321.3c0,0.5-0.3,0.9-0.9,1.3l-0.2-0.4c0.2-0.2,0.4-0.4,0.5-0.6c0,0,0,0,0,0c-0.2,0-0.4-0.2-0.4-0.5
			c0-0.3,0.2-0.5,0.5-0.5C724.1,320.7,724.3,321,724.3,321.3z"/>
		<path d="M724.5,325.3l0.5-0.7c0.3,0.5,0.7,0.7,1.1,0.7c0.4,0,0.6-0.2,0.6-0.5c0-0.2-0.2-0.4-0.4-0.5c-0.3-0.1-0.6-0.3-0.9-0.5
			c-0.4-0.2-0.7-0.6-0.7-1.2c0-0.8,0.6-1.5,1.5-1.5c0.5,0,1,0.2,1.4,0.7l-0.5,0.7c-0.3-0.3-0.6-0.5-0.9-0.5c-0.3,0-0.5,0.2-0.5,0.5
			c0,0.2,0.2,0.4,0.3,0.5c0.2,0.1,0.7,0.3,0.9,0.5c0.4,0.2,0.7,0.6,0.7,1.2c0,0.9-0.6,1.5-1.6,1.5
			C725.4,326.2,724.8,325.9,724.5,325.3z"/>
	</g>
	<g>
		<path d="M605.4,241.4c0.4,0.2,1,0.3,1.7,0.4c0.7,0.1,1.3,0.2,1.4,0.7c0,0.3-0.3,0.7-1.1,0.7c-1.1,0-1.4-0.6-1.4-1h-1.7
			c0.1,1.3,1.1,2.2,2.9,2.2c1.6,0,2.9-0.6,2.9-2.2c0-0.9-0.6-1.5-1.7-1.8c-1.1-0.3-2.4-0.2-2.4-0.9c0-0.4,0.5-0.6,1.1-0.6
			c1,0,1,0.5,1.1,0.9h1.6c-0.1-1.3-1.1-2.1-2.8-2.1c-1.7,0-2.7,0.9-2.7,2.1C604.5,240.5,604.9,241.1,605.4,241.4"/>
		<polygon points="584.7,235.6 581.7,230.5 576,233.7 577.1,235.6 584.7,235.6 		"/>
		<polygon points="587.1,244.3 588.7,244.3 588.7,237.8 587.1,237.8 587.1,244.3 		"/>
		<path d="M575.3,239.2c1,0,1.9,0.9,1.9,1.9c0,1-0.9,1.8-1.9,1.8c-1,0-1.9-0.8-1.9-1.8C573.4,240.1,574.3,239.2,575.3,239.2
			 M575.3,244.4c0.7,0,1.4-0.2,1.9-0.6v0.4h1.6v-6.5h-1.6v0.5c-0.6-0.4-1.2-0.6-1.9-0.6c-1.9,0-3.4,1.5-3.4,3.3
			C571.9,242.9,573.4,244.4,575.3,244.4"/>
		<polygon points="604.6,235.6 594.8,218.8 589.1,222 597,235.6 604.6,235.6 		"/>
		<path d="M582.8,242.9c-1,0-1.9-0.8-1.9-1.8c0-1,0.9-1.9,1.9-1.9c1,0,1.9,0.9,1.9,1.9C584.7,242.1,583.8,242.9,582.8,242.9
			 M582.8,237.8c-1.9,0-3.4,1.5-3.4,3.3c0,1.8,1.5,3.4,3.4,3.4c0.7,0,1.4-0.2,1.9-0.6v0.4h1.6v-8.7h-1.6v2.7
			C584.1,237.9,583.5,237.8,582.8,237.8"/>
		<polygon points="587.1,237.2 588.7,237.2 588.7,235.6 594.7,235.6 588.3,224.7 582.6,227.9 587.1,235.6 587.1,237.2 		"/>
		<path d="M600.3,242.9c-1,0-1.9-0.8-1.9-1.8c0-1,0.9-1.9,1.9-1.9c1,0,1.9,0.9,1.9,1.9C602.1,242.1,601.3,242.9,600.3,242.9
			 M603.7,244.3v-6.5h-1.6v0.5c-0.5-0.4-1.2-0.6-1.9-0.6c-1.9,0-3.4,1.5-3.4,3.3c0,1.8,1.5,3.4,3.4,3.4c0.7,0,1.4-0.2,1.9-0.6v0.4
			H603.7L603.7,244.3z"/>
		<path d="M592.8,242.9c-1,0-1.9-0.8-1.9-1.8c0-1,0.9-1.9,1.9-1.9c1,0,1.9,0.9,1.9,1.9C594.7,242.1,593.8,242.9,592.8,242.9
			 M592.7,237.8c-1.9,0-3.4,1.5-3.4,3.3c0,1.8,1.5,3.4,3.4,3.4c0.7,0,1.4-0.2,1.9-0.6v0.4h1.6v-8.7h-1.6v2.7
			C594.1,237.9,593.5,237.8,592.7,237.8"/>
	</g>
	<g>
		<path d="M718.5,274.8c-2.7,1.7-5.7,2.5-8.9,2.5c-3.7,0-6.7-1.1-9-3.4c-2.4-2.4-3.6-5.5-3.6-9.2c0-3.8,1.2-6.9,3.6-9.2
			c2.4-2.3,5.6-3.5,9.6-3.5c2.8,0,5.5,0.7,8.1,2v5.7c-2.5-1.7-5.1-2.6-7.7-2.6c-2.3,0-4.2,0.7-5.5,2c-1.3,1.4-2,3.2-2,5.6
			c0,2.3,0.6,4.1,1.9,5.5c1.3,1.4,3,2.1,5.2,2.1c2.8,0,5.6-1,8.4-3.1V274.8L718.5,274.8z"/>
		<path d="M766.9,274.8c-2.7,1.7-5.7,2.5-8.9,2.5c-3.7,0-6.7-1.1-9-3.4c-2.4-2.4-3.6-5.5-3.6-9.2c0-3.8,1.2-6.9,3.6-9.2
			c2.4-2.3,5.6-3.5,9.6-3.5c2.8,0,5.5,0.7,8.1,2v5.7c-2.5-1.7-5.1-2.6-7.7-2.6c-2.3,0-4.2,0.7-5.5,2c-1.3,1.4-2,3.2-2,5.6
			c0,2.3,0.6,4.1,1.9,5.5c1.3,1.4,3,2.1,5.2,2.1c2.8,0,5.6-1,8.4-3.1V274.8L766.9,274.8z"/>
		<path d="M742.7,274.8c-2.7,1.7-5.7,2.5-8.9,2.5c-3.7,0-6.7-1.1-9-3.4c-2.4-2.4-3.6-5.5-3.6-9.2c0-3.8,1.2-6.9,3.6-9.2
			c2.4-2.3,5.6-3.5,9.6-3.5c2.8,0,5.5,0.7,8.1,2v5.7c-2.5-1.7-5.1-2.6-7.7-2.6c-2.3,0-4.2,0.7-5.5,2c-1.3,1.4-2,3.2-2,5.6
			c0,2.3,0.6,4.1,1.9,5.5c1.3,1.4,3,2.1,5.2,2.1c2.8,0,5.6-1,8.4-3.1V274.8L742.7,274.8z"/>
	</g>
	<g>
		<path d="M703,160.9c0-1.5,1-2.6,2.2-2.6c0.7,0,1.3,0.4,1.7,0.8l-0.6,0.7c-0.3-0.3-0.7-0.6-1.2-0.6c-0.8,0-1.4,0.7-1.4,1.6
			c0,0.9,0.6,1.6,1.4,1.6c0.5,0,0.9-0.2,1.1-0.5v-0.7h-1.2v-0.9h2v2.1c-0.5,0.6-1.2,1-1.9,1C703.9,163.5,703,162.4,703,160.9z"/>
		<path d="M708.7,158.4v5h-0.9v-5H708.7z"/>
		<path d="M712,162.4h-1.5l-0.3,1.1h-0.9l1.6-5h0.7l1.6,5h-0.9L712,162.4z M710.7,161.5h1l-0.5-1.7L710.7,161.5z"/>
		<path d="M717.3,158.4v5h-0.6l-2.2-3.1v3.1h-0.8v-5h0.5l2.2,3.1v-3.1H717.3z"/>
		<path d="M721.9,158.4v5h-0.6l-2.2-3.1v3.1h-0.8v-5h0.5l2.2,3.1v-3.1H721.9z"/>
		<path d="M723.7,158.4v5h-0.9v-5H723.7z"/>
	</g>
	<g>
		<path d="M615.3,186.5c0-1,0.7-1.7,1.5-1.7c0.5,0,0.9,0.2,1.1,0.5l-0.4,0.5c-0.2-0.2-0.5-0.4-0.8-0.4c-0.5,0-0.9,0.5-0.9,1.1
			c0,0.6,0.4,1.1,0.9,1.1c0.3,0,0.6-0.2,0.8-0.4v-0.4h-0.8v-0.6h1.3v1.3c-0.3,0.4-0.8,0.7-1.3,0.7
			C615.9,188.1,615.3,187.4,615.3,186.5z"/>
		<path d="M619.1,184.8v3.3h-0.6v-3.3H619.1z"/>
		<path d="M619.7,186.9v-2.1h0.6v2c0,0.4,0.2,0.7,0.5,0.7c0.3,0,0.5-0.2,0.5-0.7v-2h0.6v2.1c0,0.9-0.5,1.3-1.1,1.3
			C620.2,188.2,619.7,187.8,619.7,186.9z"/>
		<path d="M622.4,184.8h0.6v2.7h1.4v0.6h-2V184.8z"/>
		<path d="M625.3,184.8v3.3h-0.6v-3.3H625.3z"/>
		<path d="M627.5,187.4h-1l-0.2,0.7h-0.6l1.1-3.3h0.5l1.1,3.3h-0.6L627.5,187.4z M626.6,186.8h0.7l-0.3-1.1L626.6,186.8z"/>
		<path d="M631,184.8v3.3h-0.4l-1.5-2v2h-0.6v-3.3h0.4l1.5,2v-2H631z"/>
	</g>
	<g>
		<path d="M452.3,193.1c-1.1,0.5-1.9,0-3.2,2.7c-4.1,8.5-7.3,15.3-11.1,25.2c0.1-8.1,1.6-14.6,2.4-22.5c0.2-1.5,0.4-3.5,0.4-5
			c0-1.2-1.2-1.3-3.5-0.2c-1.3,0.6-2.9,0.6-3.5,2.1c-2.5,6.6-8.4,24.9-11.1,35.2c-0.7,2.5,1.8,2.9,2.5,0.4
			c1.8-6.2,5.9-19.8,8.3-26.8c-0.2,6.4-2,16.6-1.2,21.9c0.3,1.7,1.8,2.4,2.6,3.8c0.6,1,1.5,1.1,2-0.3c2.4-6.5,7-18,11.5-27.1
			c-0.9,4-4.2,21.2-5.2,28c-0.2,1.4,1.5,1.4,3,3.5c0.3,0.5,1.6,1,1.9-0.2c0.8-4.1,6-30.7,8-39.2
			C456.6,192.4,456.5,191.2,452.3,193.1z"/>
		<path d="M418.3,212.4c1.8-2.7,2.3-2.1,2.7-2.9c0.5-1,0.2-2-1.7-1.7c0,0-0.7,0.1-2.1,0.2c2.1-5.5,4-10.1,5.3-13.6
			c0.5-1.2,0.5-2.1-0.2-2.2c-0.8-0.2-3.1,1-4.5,1.3c-0.4,0.1-0.9,0.6-1,0.9c-2.3,5.2-4.3,10.1-6,14.6c-2.2,0.4-4.9,0.9-7.8,1.5
			c2.1-5.4,4.2-10.7,6.3-15.8c1-2.5-1.7-2.8-2.7-0.2c-1.3,3.3-3.9,9.5-6.7,16.7c-2.1,0.5-4.2,1.1-6.5,1.7c-1.7,0.5-1.7,0.9-1,1.9
			c0.4,0.6,1.2,0.5,1.6,0.9c1,1,1.6,2.2,3.3,2.4c-1.5,4.1-3.1,8.4-4.5,12.5c-0.9,2.6,1.6,3.1,2.6,0.4c1.5-4.4,3.2-8.8,4.9-13.3
			c1.4-0.3,4.8-1.1,7.9-1.7c-2.5,6.8-4.1,12-4.7,14.5c-0.1,0.5,0.1,0.8,0.2,0.9c0.8,1.2,1.6,1.3,2.7,2.8c0.3,0.4,1.3,0.6,1.6-0.4
			c2.3-6.9,4.7-13.4,6.9-19.3C415.6,214.3,417.3,213.9,418.3,212.4z"/>
		<path d="M420,223c-0.2,0.1-0.3,0.3-0.5,0.5c-0.2-0.6-0.4-1.2-0.6-1.8c0.5-0.7,1.1-1.3,1.5-2c1.8-2.9-1.8-4.5-3.4-2.7
			c-0.8,1-0.6,2-0.4,2.8c0.1,0.3,0.2,0.6,0.3,1.1c-0.4,0.5-1,1-1.7,1.9c-1.8,2.1-1.3,4.8,0.6,5.3c1.2,0.4,2.2-0.2,3.2-1
			c0,0.1,0.1,0.2,0.1,0.3c0.5,1.2,2,0.9,1.5-0.6c-0.1-0.3-0.2-0.6-0.4-1c0.3-0.4,0.6-0.8,0.8-1.1C422.2,223,421.1,222,420,223z
			 M418.8,219.1c-0.2,0.2-0.3,0.4-0.5,0.5c0-0.1-0.1-0.3-0.1-0.4C417.6,217.2,419.9,217.7,418.8,219.1z M417.5,225.2
			c-0.7,0.4-1.3,0-0.3-1.3c0.2-0.2,0.3-0.4,0.5-0.6c0.2,0.5,0.3,1,0.5,1.5C418,224.9,417.7,225,417.5,225.2z"/>
	</g>
	<g>
		<path d="M334.6,246.9h2.8v0.9h-2v1.1h1.7v0.9h-1.7v2h-0.9V246.9z"/>
		<path d="M338,250v-3.2h0.9v3.1c0,0.7,0.3,1,0.8,1c0.5,0,0.8-0.3,0.8-1v-3.1h0.9v3.2c0,1.3-0.8,1.9-1.7,1.9
			C338.8,252,338,251.4,338,250z"/>
		<path d="M341.9,251l0.5-0.7c0.3,0.5,0.7,0.7,1.1,0.7c0.4,0,0.6-0.2,0.6-0.5c0-0.2-0.2-0.4-0.4-0.5c-0.3-0.1-0.6-0.3-0.9-0.5
			c-0.4-0.2-0.7-0.6-0.7-1.2c0-0.8,0.6-1.5,1.4-1.5c0.5,0,1,0.2,1.4,0.7l-0.5,0.7c-0.3-0.3-0.6-0.5-0.9-0.5c-0.3,0-0.5,0.2-0.5,0.5
			c0,0.2,0.2,0.4,0.3,0.5c0.2,0.1,0.6,0.3,0.9,0.5c0.4,0.2,0.7,0.6,0.7,1.2c0,0.9-0.6,1.5-1.6,1.5
			C342.8,251.9,342.3,251.6,341.9,251z"/>
		<path d="M346.6,246.9v5h-0.9v-5H346.6z"/>
		<path d="M347.3,249.4c0-1.5,1-2.6,2.2-2.6s2.2,1.2,2.2,2.6c0,1.4-1,2.6-2.2,2.6C348.2,251.9,347.3,250.8,347.3,249.4z
			 M350.8,249.4c0-0.9-0.6-1.6-1.3-1.6c-0.7,0-1.3,0.7-1.3,1.6c0,0.9,0.6,1.6,1.3,1.6C350.2,251,350.8,250.3,350.8,249.4z"/>
		<path d="M356,246.9v5h-0.6l-2.2-3.1v3.1h-0.8v-5h0.5l2.2,3.1v-3.1H356z"/>
	</g>
	<g>
		<path d="M276.1,293.9v-1h3.3v1h-1.2v4h-0.9v-4H276.1z"/>
		<path d="M279.5,293h0.9l0.9,3.4l1-3.4h0.5l1,3.4l0.8-3.4h0.9l-1.4,5h-0.7l-0.9-3.3l-0.9,3.3h-0.7L279.5,293z"/>
		<path d="M286.9,293v5h-0.9v-5H286.9z"/>
		<path d="M291.5,293v5h-0.6l-2.2-3.1v3.1h-0.8v-5h0.5l2.2,3.1V293H291.5z"/>
		<path d="M292.1,297.1l0.5-0.7c0.3,0.5,0.7,0.7,1.1,0.7c0.4,0,0.6-0.2,0.6-0.5c0-0.2-0.2-0.4-0.4-0.5c-0.3-0.1-0.6-0.3-0.9-0.5
			c-0.4-0.2-0.7-0.6-0.7-1.2c0-0.8,0.6-1.5,1.4-1.5c0.5,0,1,0.2,1.4,0.7l-0.5,0.7c-0.3-0.3-0.6-0.5-0.9-0.5c-0.3,0-0.5,0.2-0.5,0.5
			c0,0.2,0.2,0.4,0.3,0.5c0.2,0.1,0.6,0.3,0.9,0.5c0.4,0.2,0.7,0.6,0.7,1.2c0,0.9-0.6,1.5-1.6,1.5
			C293,298.1,292.4,297.7,292.1,297.1z"/>
		<path d="M295.9,293h2.9v0.9h-2v1.1h1.9v0.9h-1.9v1.1h2v0.9h-2.9V293z"/>
		<path d="M299.2,293.9v-1h3.3v1h-1.2v4h-0.9v-4H299.2z"/>
	</g>
	<g>
		<path d="M274.6,323v-1h3.3v1h-1.2v4h-0.9v-4H274.6z"/>
		<path d="M278.4,322.1h2.9v0.9h-2v1.1h1.9v0.9h-1.9v1.1h2v0.9h-2.9V322.1z"/>
		<path d="M281.8,324.6c0-1.5,1-2.6,2.2-2.6c1.2,0,2.2,1.2,2.2,2.6c0,1.4-1,2.6-2.2,2.6C282.7,327.1,281.8,326,281.8,324.6z
			 M285.3,324.6c0-0.9-0.6-1.6-1.3-1.6c-0.7,0-1.3,0.7-1.3,1.6c0,0.9,0.6,1.6,1.3,1.6C284.7,326.2,285.3,325.5,285.3,324.6z"/>
		<path d="M286.9,322.1h1.7c1.3,0,2,1,2,2.5c0,1.5-0.8,2.5-2.1,2.5h-1.6V322.1z M288.6,326.1c0.8,0,1.2-0.7,1.2-1.5
			c0-0.8-0.4-1.5-1.2-1.5h-0.8v3.1H288.6z"/>
		<path d="M291.1,324.6c0-1.5,1-2.6,2.2-2.6c1.2,0,2.2,1.2,2.2,2.6c0,1.4-1,2.6-2.2,2.6C292,327.1,291.1,326,291.1,324.6z
			 M294.6,324.6c0-0.9-0.6-1.6-1.3-1.6c-0.7,0-1.3,0.7-1.3,1.6c0,0.9,0.6,1.6,1.3,1.6C294,326.2,294.6,325.5,294.6,324.6z"/>
		<path d="M297.6,325.2h-0.5v1.8h-0.9v-5h1.6c1,0,1.5,0.8,1.5,1.6c0,0.6-0.3,1.2-0.9,1.5l1,1.9h-1L297.6,325.2z M297.1,324.3h0.7
			c0.5,0,0.7-0.3,0.7-0.7c0-0.4-0.2-0.7-0.6-0.7h-0.8V324.3z"/>
	</g>
	<g>
		<path d="M416.5,327v-1.8h3.9v1.8h-1.4v7.7h-1V327H416.5z"/>
		<path d="M422,325.2v9.5h-1v-9.5H422z"/>
		<path d="M423.1,325.2h0.7l2,5.4l1.9-5.4h0.7v9.5h-1v-5.4l-1.5,4h-0.3l-1.5-4v5.4h-1V325.2z"/>
		<path d="M429.4,325.2h3.4v1.8h-2.4v2h2.2v1.8h-2.2v2.1h2.4v1.8h-3.4V325.2z"/>
		<path d="M433.4,330c0-2.8,1.1-5,2.6-5s2.6,2.2,2.6,4.9c0,2.7-1.1,4.9-2.6,4.9C434.5,334.8,433.4,332.7,433.4,330z M437.5,329.9
			c0-1.8-0.7-3-1.6-3c-0.9,0-1.6,1.3-1.6,3c0,1.7,0.7,3,1.6,3S437.5,331.7,437.5,329.9z"/>
		<path d="M439.3,331.2v-6h1v5.9c0,1.3,0.4,1.9,0.9,1.9c0.6,0,0.9-0.6,0.9-1.9v-5.9h1v6c0,2.5-0.9,3.6-1.9,3.6
			C440.2,334.9,439.3,333.7,439.3,331.2z"/>
		<path d="M443.8,327v-1.8h3.9v1.8h-1.4v7.7h-1V327H443.8z"/>
	</g>
	<g>
		<path d="M536.9,293h1.7c1.3,0,2,1,2,2.5c0,1.5-0.8,2.5-2.1,2.5h-1.6V293z M538.6,297c0.8,0,1.2-0.7,1.2-1.5c0-0.8-0.4-1.5-1.2-1.5
			h-0.8v3.1H538.6z"/>
		<path d="M543.5,296.9H542l-0.3,1.1h-0.9l1.6-5h0.7l1.6,5h-0.9L543.5,296.9z M542.2,296h1l-0.5-1.7L542.2,296z"/>
		<path d="M548.3,294.6c0,0.9-0.5,1.6-1.6,1.6h-0.7v1.7h-0.9v-5h1.6C547.8,293,548.3,293.8,548.3,294.6z M547.4,294.6
			c0-0.4-0.2-0.7-0.6-0.7h-0.7v1.4h0.7C547.2,295.3,547.4,295,547.4,294.6z"/>
		<path d="M548.9,293h0.9v2h1.8v-2h0.9v5h-0.9v-2h-1.8v2h-0.9V293z"/>
		<path d="M554.2,293v5h-0.9v-5H554.2z"/>
		<path d="M558.7,293v5h-0.6l-2.2-3.1v3.1h-0.8v-5h0.5l2.2,3.1V293H558.7z"/>
		<path d="M559.7,293h2.9v0.9h-2v1.1h1.9v0.9h-1.9v1.1h2v0.9h-2.9V293z"/>
	</g>
	<g>
		<path d="M548.8,325.3v-0.5h1.4v0.5h-0.5v2h-0.4v-2H548.8z"/>
		<path d="M550.8,324.8v2.5h-0.4v-2.5H550.8z"/>
		<path d="M551.2,324.8h0.2l0.7,1.4l0.7-1.4h0.2v2.5h-0.4v-1.4l-0.5,1h-0.1l-0.5-1v1.4h-0.4V324.8z"/>
		<path d="M553.5,324.8h1.2v0.5h-0.9v0.5h0.8v0.5h-0.8v0.6h0.9v0.5h-1.2V324.8z"/>
		<path d="M555.1,324.8h0.4v2h0.9v0.5h-1.3V324.8z"/>
		<path d="M557.5,326.8h-0.6l-0.1,0.5h-0.4l0.7-2.5h0.3l0.7,2.5h-0.4L557.5,326.8z M557,326.3h0.4l-0.2-0.8L557,326.3z"/>
		<path d="M559.8,324.8v2.5h-0.2l-0.9-1.5v1.5h-0.4v-2.5h0.2l1,1.5v-1.5H559.8z"/>
		<path d="M560.2,324.8h0.7c0.5,0,0.9,0.5,0.9,1.2c0,0.8-0.3,1.2-0.9,1.2h-0.7V324.8z M560.9,326.8c0.3,0,0.5-0.3,0.5-0.8
			c0-0.4-0.2-0.8-0.5-0.8h-0.3v1.5H560.9z"/>
	</g>
	<g>
		<path d="M529.5,326.1c0-1,0.7-1.8,1.5-1.8c0.5,0,0.9,0.2,1.2,0.6l-0.4,0.5c-0.2-0.2-0.5-0.4-0.8-0.4c-0.5,0-0.9,0.5-0.9,1.1
			c0,0.6,0.4,1.1,0.9,1.1c0.3,0,0.6-0.2,0.8-0.4v-0.5H531v-0.6h1.3v1.4c-0.4,0.4-0.8,0.7-1.3,0.7
			C530.1,327.9,529.5,327.1,529.5,326.1z"/>
		<path d="M533.4,324.4v3.4h-0.6v-3.4H533.4z"/>
		<path d="M533.9,326.1c0-1,0.7-1.8,1.5-1.8s1.5,0.8,1.5,1.8c0,1-0.7,1.8-1.5,1.8C534.5,327.9,533.9,327.1,533.9,326.1z
			 M536.3,326.1c0-0.6-0.4-1.1-0.9-1.1c-0.5,0-0.9,0.5-0.9,1.1c0,0.6,0.4,1.1,0.9,1.1S536.3,326.7,536.3,326.1z"/>
		<path d="M539.9,324.4l-1.2,3.4h-0.5l-1.2-3.4h0.7l0.8,2.4l0.8-2.4H539.9z"/>
		<path d="M541.5,327.1h-1l-0.2,0.7h-0.6l1.1-3.4h0.5l1.1,3.4h-0.6L541.5,327.1z M540.6,326.5h0.7l-0.3-1.1L540.6,326.5z"/>
		<path d="M545.2,324.4v3.4h-0.4l-1.5-2.1v2.1h-0.6v-3.4h0.4l1.5,2.1v-2.1H545.2z"/>
		<path d="M546.4,324.4v3.4h-0.6v-3.4H546.4z"/>
	</g>
	<path class="st4" d="M439.1,275.1c0-0.9-0.8-1.7-1.7-1.7h-11c-0.9,0-1.7,0.8-1.7,1.7v11c0,0.9,0.8,1.7,1.7,1.7h11
		c0.9,0,1.7-0.8,1.7-1.7V275.1z M435.1,275.5c0.5,0,0.8,0.4,0.8,0.8c0,0.5-0.4,0.8-0.8,0.8c-0.5,0-0.8-0.4-0.8-0.8
		C434.3,275.9,434.6,275.5,435.1,275.5z M428.6,275.5c0.5,0,0.8,0.4,0.8,0.8c0,0.5-0.4,0.8-0.8,0.8c-0.5,0-0.8-0.4-0.8-0.8
		C427.8,275.9,428.2,275.5,428.6,275.5z M430.3,277.9l-0.2,2.8c0,0.2-0.1,0.3-0.3,0.4l0,0c-0.2,0.1-0.3,0.2-0.3,0.4l-0.2,3.6
		c0,0.2-0.2,0.4-0.5,0.4h-0.2h-0.2c-0.2,0-0.4-0.2-0.5-0.4l-0.2-3.6c0-0.2-0.1-0.3-0.3-0.4c-0.2-0.1-0.3-0.2-0.3-0.4l-0.2-2.8
		c0-0.2,0.1-0.4,0.4-0.5l0.2,0c0.2,0,0.3,0,0.4,0.1l0.3,0.3c0.2,0.2,0.5,0.2,0.7,0l0.3-0.3c0.1-0.1,0.3-0.2,0.4-0.1l0.2,0
		C430.2,277.5,430.3,277.7,430.3,277.9z M432.1,285.6c0,0.1-0.1,0.2-0.2,0.2c-0.1,0-0.2-0.1-0.2-0.2v-10.1c0-0.1,0.1-0.2,0.2-0.2
		c0.1,0,0.2,0.1,0.2,0.2V285.6z M436.7,281.1c-0.2,0-0.3,0.2-0.2,0.3l0.1,0.7c0,0.2-0.1,0.3-0.3,0.4l-0.2,0c-0.1,0-0.3,0.1-0.3,0.3
		l-0.1,2.3c0,0.2-0.2,0.4-0.5,0.4h-0.2h-0.2c-0.2,0-0.4-0.2-0.5-0.4l-0.1-2.3c0-0.2-0.1-0.3-0.3-0.3l-0.2,0c-0.2,0-0.3-0.2-0.3-0.4
		l0.1-0.7c0-0.2-0.1-0.3-0.2-0.3c-0.2,0-0.3-0.2-0.2-0.4l0.6-3c0-0.2,0.3-0.3,0.5-0.2l0.6,0.4c0.1,0.1,0.2,0.1,0.3,0l0.6-0.4
		c0.2-0.1,0.4,0,0.5,0.2l0.6,3C437,280.9,436.9,281.1,436.7,281.1z"/>
	<g id="layer1" transform="translate(0,43)">
		<path id="path840" d="M82.5,354.5c-0.3,0.7-0.3,1.3-0.3,1.9v8.2c0,0,4.4-5.7,5.4-7c0.8-1,1.7-2.4,1.7-3.1h14.3
			c-1,0.7-2.1,1.8-3,2.9c-0.8,1-5.2,6.4-5.2,6.4s6.6,10,7.5,11.3c0.5,0.7,1,1.4,1.6,1.9H88c0-0.7-0.6-2-1.3-3
			c-0.7-1-4.5-6.8-4.5-6.8v7.9c0,0.7,0,1.3,0.3,1.9H68.8c0.3-0.7,0.3-1.3,0.3-1.9v-18.7c0-0.7,0-1.3-0.3-1.9H82.5z M133.2,354.5
			h-26.5c0.3,0.7,0.3,1.3,0.3,1.9v18.7c0,0.7,0,1.3-0.3,1.9h26.5v-6.3c-0.7,0.3-1.3,0.3-1.9,0.3h-11.1v-3h10.7v-4.8h-10.7v-3h11.1
			c0.7,0,1.3,0,1.9,0.3L133.2,354.5z M169.9,375.1c0.2,0.7,0.6,1.4,1.1,1.9h-14.3c0.1-0.7-0.2-1.3-0.4-1.9c0,0-0.2-0.5-0.5-1.3
			l-0.1-0.3h-8.3l-0.1,0.3c0,0-0.2,0.6-0.5,1.3s-0.5,1.3-0.4,1.9H135c0.5-0.6,0.8-1.2,1-1.9l6.8-18.7c0.2-0.7,0.5-1.3,0.4-1.9h19.1
			c-0.2,0.7,0.2,1.3,0.4,1.9C163.3,357.9,169.4,373.9,169.9,375.1 M153.7,368.8l-2-5.2c-0.2-0.5-0.3-1-0.4-1.5
			c-0.1,0.5-0.2,1-0.4,1.5c-0.1,0.2-0.9,2.5-1.9,5.2H153.7z M62,356.4c0-0.7,0-1.3,0.3-1.9H47.4c0.3,0.7,0.3,1.3,0.3,1.9v18.7
			c0,0.7,0,1.3-0.3,1.9h14.9c-0.3-0.7-0.3-1.3-0.3-1.9V356.4z"/>
	</g>
	<g>
		<g>
			<path d="M378.6,322.4c0.3,0.2,0.7,0.3,1.1,0.3c0.4,0,0.8-0.1,1.2-0.3c0.4-0.2,0.7-0.5,1-0.9c0.3-0.4,0.4-0.8,0.5-1.3
				c0.1-0.4,0-0.7-0.2-1.1c-0.2-0.3-0.4-0.6-0.7-0.8c-0.3-0.2-0.7-0.3-1.1-0.3c-0.4,0-0.8,0.1-1.2,0.3c-0.4,0.2-0.7,0.5-0.9,0.8
				c-0.3,0.3-0.4,0.7-0.5,1.1c-0.1,0.5,0,0.9,0.1,1.3C378,321.9,378.3,322.2,378.6,322.4z"/>
			<path d="M351.3,318.1c-0.2,0-0.5,0-0.8,0h-0.4l-0.3,2h0.4c0.3,0,0.5,0,0.7,0c0.2,0,0.4-0.1,0.6-0.3c0.2-0.1,0.3-0.4,0.3-0.7
				c0.1-0.3,0-0.6-0.1-0.7C351.7,318.2,351.5,318.1,351.3,318.1z"/>
			<path d="M365.8,310.8c-13.1,0-23.6,4.3-23.6,9.6c0,5.3,10.6,9.6,23.6,9.6c13.1,0,23.6-4.3,23.6-9.6
				C389.5,315.1,378.9,310.8,365.8,310.8z M375.6,320.3c0.1-0.8,0.5-1.6,1-2.2c0.5-0.6,1.1-1.1,1.9-1.5c0.7-0.4,1.5-0.5,2.3-0.5
				c0.8,0,1.5,0.2,2.1,0.5c0.6,0.4,1.1,0.8,1.4,1.5c0.3,0.6,0.4,1.4,0.3,2.2c-0.1,0.9-0.5,1.7-1,2.3c-0.5,0.7-1.1,1.2-1.8,1.6
				c-0.7,0.4-1.5,0.6-2.4,0.6c-0.9,0-1.6-0.2-2.2-0.6c-0.6-0.4-1.1-0.9-1.3-1.6C375.5,321.9,375.4,321.1,375.6,320.3z M353.1,321.1
				c-0.6,0.4-1.3,0.7-2.2,0.7h-1.2l-0.4,2.7h-2.1l1.3-8.1h3.2c0.6,0,1.1,0.1,1.5,0.3c0.4,0.2,0.7,0.5,0.9,0.9
				c0.2,0.4,0.2,0.9,0.1,1.5C354,320,353.6,320.7,353.1,321.1z M360.7,319.5l-0.3,1.8h-3.6l-0.2,1.4h3.7l-0.3,1.8h-5.9l1.3-8.1h5.9
				l-0.3,1.8h-3.8l-0.2,1.4H360.7z M368.2,319c-0.2,1-0.5,1.7-1.1,2.1c-0.6,0.4-1.3,0.7-2.2,0.7h-1.2l-0.4,2.7h-2.1l1.3-8.1h3.2
				c0.6,0,1.1,0.1,1.5,0.3c0.4,0.2,0.7,0.5,0.9,0.9C368.2,317.9,368.3,318.4,368.2,319z M368.6,320.4c0.1-0.6,0.3-1.1,0.6-1.6
				c0.3-0.5,0.7-1,1.1-1.4c0.5-0.4,1-0.7,1.6-1c0.6-0.2,1.2-0.3,1.7-0.3c0.7,0,1.3,0.1,1.9,0.4l-0.4,2.5c-0.2-0.3-0.4-0.5-0.7-0.7
				c-0.3-0.2-0.6-0.2-1-0.2c-0.4,0-0.8,0.1-1.2,0.3c-0.4,0.2-0.7,0.5-0.9,0.8c-0.2,0.3-0.4,0.7-0.5,1.1c-0.1,0.7,0,1.2,0.4,1.6
				c0.3,0.4,0.8,0.6,1.5,0.6c0.4,0,0.7-0.1,1-0.2c0.3-0.2,0.7-0.4,0.9-0.6l-0.4,2.5c-0.4,0.1-0.7,0.2-1,0.3
				c-0.3,0.1-0.6,0.1-0.9,0.1c-0.6,0-1.1-0.1-1.6-0.3c-0.5-0.2-0.9-0.5-1.3-0.9c-0.4-0.4-0.6-0.9-0.8-1.4
				C368.5,321.6,368.5,321,368.6,320.4z M372.2,329.1c-4.8,0.6-4.3,0.4-0.1-0.2c8.4-1.3,14.9-4.8,14.9-9c0-1.3-0.5-2.8-1.8-3.9
				c0.8,0.5,1.7,1.1,2.1,1.8c0.6,0.8,0.9,1.8,0.9,2.7C388.3,324.6,381.1,328.1,372.2,329.1z"/>
			<path d="M365.3,318.1c-0.2,0-0.5,0-0.8,0h-0.4l-0.3,2h0.4c0.3,0,0.5,0,0.7,0c0.2,0,0.4-0.1,0.6-0.3c0.2-0.1,0.3-0.4,0.3-0.7
				c0-0.3,0-0.6-0.1-0.7C365.7,318.2,365.6,318.1,365.3,318.1z"/>
		</g>
		<path d="M353.8,310.8c27.7-5.8,39.2,3.5,37.9,9.7c0,0.1,0,0.2,0,0.3c4.1-6.1,1.1-17.2-20.3-14.8
			C366.8,306.4,360,308.4,353.8,310.8"/>
		<path d="M377.8,330.1c-27.7,5.8-39.2-3.5-37.9-9.7c0-0.1,0-0.2,0-0.3c-4.1,6.1-1.1,17.2,20.3,14.8
			C364.9,334.4,371.7,332.5,377.8,330.1"/>
	</g>
	<g>
		<path d="M291.8,354.8l-1.9,0c0,0,0,0,0,0l-1.3,0h-0.4v3.2h0.6v-2.5h0.8c0.2,0,0.4,0.2,0.4,0.4l0,1.3v0.2l0,0.7h0.6v-2.3
			c0-0.1,0-0.1,0-0.2h0.9c0.2,0,0.4,0.2,0.4,0.4l0,1.3v0.2l0,0.7h0.6v-2.3C292.7,355.1,292.3,354.8,291.8,354.8L291.8,354.8z"/>
		<path d="M301.4,354.8l-1.4,0h-0.4v3.2h0.6v-2.5h0.9c0.2,0,0.4,0.2,0.4,0.4l0,1.3v0.2l0,0.7h0.6v-2.3
			C302.2,355.1,301.9,354.8,301.4,354.8L301.4,354.8z"/>
		<path d="M306.8,356.9v-0.3h2l0-1c0-0.5-0.4-0.8-0.8-0.8h-1c-0.5,0-0.8,0.4-0.8,0.8l0,0.7l0,0.7c0,0.5,0.4,0.8,0.8,0.8h1.8v-0.6
			l-1.6,0C307,357.3,306.8,357.1,306.8,356.9L306.8,356.9z M306.8,355.8c0-0.2,0.2-0.4,0.4-0.4h0.5c0.2,0,0.4,0.2,0.4,0.4v0.2h-1.3
			V355.8L306.8,355.8z"/>
		<path d="M305.2,357.3c-0.2,0-0.4-0.2-0.4-0.4v-1.5h1.1v-0.6h-1.1V354l-0.6,0.4v2.7c0,0.5,0.4,0.8,0.8,0.8h0.9v-0.6L305.2,357.3
			L305.2,357.3z"/>
		<path d="M299.1,355.6c0-0.5-0.4-0.8-0.8-0.8h-1.2c-0.5,0-0.8,0.4-0.8,0.8l0,0.7l0,0.7c0,0.5,0.4,0.8,0.8,0.8h1.2
			c0.5,0,0.8-0.4,0.8-0.8l0-0.7L299.1,355.6L299.1,355.6z M298.5,356.9c0,0.2-0.2,0.4-0.4,0.4h-0.7c-0.2,0-0.4-0.2-0.4-0.4v-1.1
			c0-0.2,0.2-0.4,0.4-0.4h0.7c0.2,0,0.4,0.2,0.4,0.4V356.9L298.5,356.9z"/>
		<polygon points="302.8,354.8 302.8,357.9 303.5,357.9 303.5,354.8 302.8,354.8 		"/>
		<polygon points="302.8,354 303.5,354 303.5,354.6 302.8,354.6 302.8,354 		"/>
		<path d="M287,356.6v0.7h-1.1c-0.2,0-0.4-0.2-0.4-0.4c0-0.2,0.2-0.4,0.4-0.4L287,356.6L287,356.6z M285.7,356
			c-0.5,0-0.8,0.4-0.8,0.8v0.3c0,0.5,0.4,0.8,0.8,0.8h2v-0.6l0-0.7l0-1c0-0.5-0.4-0.8-0.8-0.8H285l0,0.6l1.7,0
			c0.2,0,0.3,0.1,0.3,0.3c0,0.2-0.1,0.3-0.3,0.3L285.7,356L285.7,356z"/>
		<path d="M282,355.3c-0.1,0-0.2-0.2-0.2-0.3c0-0.2,0.2-0.4,0.4-0.4l2.4,0V354h-2.6c-0.5,0-0.8,0.4-0.8,0.8v0.3
			c0,0.4,0.2,0.7,0.6,0.8c0.1,0,2,0.7,2.1,0.7c0.1,0.1,0.2,0.2,0.2,0.3c0,0.2-0.2,0.4-0.4,0.4l-2.4,0v0.6h2.6c0.5,0,0.8-0.4,0.8-0.8
			v-0.3c0-0.3-0.2-0.6-0.5-0.8C284,356,282,355.3,282,355.3L282,355.3z"/>
		<path d="M294.1,355.7c-0.1,0-0.1-0.1-0.1-0.2c0-0.1,0.1-0.2,0.2-0.2l1.8,0v-0.6h-2c-0.4,0-0.7,0.3-0.7,0.7v0.2
			c0,0.2,0.2,0.5,0.4,0.6c0.1,0,1.4,0.6,1.5,0.6c0.1,0,0.1,0.1,0.1,0.2c0,0.1-0.1,0.2-0.2,0.2l-1.8,0v0.7h2c0.3,0,0.7-0.3,0.7-0.7
			v-0.2c0-0.3-0.2-0.5-0.4-0.6C295.5,356.4,294.1,355.8,294.1,355.7L294.1,355.7z"/>
		<path d="M272.9,355.9c0-0.7,0.4-1.2,1-1.5c0,0.1,0,0.3,0,0.4c0,1,0.8,1.7,1.7,1.7c0.1,0,0.3,0,0.4,0c-0.2,0.6-0.8,1-1.5,1
			C273.6,357.5,272.9,356.8,272.9,355.9L272.9,355.9z"/>
		<path d="M274,354.8c0-0.9,0.7-1.6,1.6-1.6c0.7,0,1.2,0.4,1.5,1c-0.1,0-0.3,0-0.4,0c-1,0-1.7,0.8-1.7,1.7c0,0.1,0,0.3,0,0.4
			C274.4,356,274,355.4,274,354.8L274,354.8z"/>
		<path d="M276.8,354.3c0.9,0,1.6,0.7,1.6,1.6c0,0.7-0.4,1.2-1,1.5c0-0.1,0-0.3,0-0.4c0-1-0.8-1.7-1.7-1.7c-0.1,0-0.3,0-0.4,0
			C275.5,354.7,276.1,354.3,276.8,354.3L276.8,354.3z"/>
		<path d="M276.3,356c0-0.1,0-0.3,0-0.4c0.6,0.2,1,0.8,1,1.5c0,0.9-0.7,1.6-1.6,1.6c-0.7,0-1.2-0.4-1.5-1c0.1,0,0.3,0,0.4,0
			C275.5,357.7,276.3,356.9,276.3,356L276.3,356z"/>
	</g>
	<g>
		<path d="M707.2,443.6c0-0.5,0-1.1,0-1.6c0-0.3,0.1-0.4,0.4-0.5c2.8-0.8,5.6-1.5,8.5-1.7c2.7-0.2,5.2,0.3,7.8,1
			c0.9,0.2,1.8,0.5,2.8,0.8c0.1,0,0.3,0.2,0.3,0.3c0,1.3,0.1,2.5,0,3.8c-0.1,1.8-1.1,3.2-2.2,4.4c-2.1,2.2-4.6,3.6-7.4,4.7
			c-0.1,0.1-0.4,0.1-0.5,0c-2.7-1.1-5.2-2.5-7.3-4.5c-1.2-1.3-2.2-2.7-2.4-4.5C707.2,444.9,707.2,443.6,707.2,443.6z M710,448.5
			c0,0.1,0,0.1,0,0.2c0.7,0.2,1.3,0.5,2,0.6c1.9,0.5,3.8,0.7,5.8,0.1c1.6-0.5,1.9-1.8,0.7-3c-1-1-2.2-1.6-3.4-2.1
			c-0.5-0.2-0.9-0.4-1.5-0.6c0.8-1.2,2.1-1.3,3.2-1.8c-1.8,0-3.7,0.2-5.4,0.8c-0.4,0.2-0.8,0.4-1.1,0.7c-0.4,0.4-0.4,0.9,0,1.3
			c1.1,0.8,2.5,0.9,3.8,1.2c0-0.1,0-0.1,0.1-0.2c-0.6-0.6-1.1-1.2-1.6-1.8c0.7,0.2,2.1,1.7,2.3,2.5c0.2,0.8-0.1,1.5-0.9,1.8
			c-0.4,0.2-0.9,0.3-1.4,0.3C711.9,448.5,711,448.5,710,448.5z M720.6,442.8c2,1.8,2.4,3.4,1.2,4.2c-0.2-0.6-0.3-1.2-0.6-1.7
			c-0.4-0.6-1-1.2-1.5-1.8c-0.6-0.6-1.2-0.8-2-0.6c-0.7,0.1-1.3,0.3-2,0.4c-0.1,0-0.2,0.1-0.4,0.2c0.2,0.1,0.4,0.1,0.5,0.1
			c1.3,0.4,2.4,0.9,3.4,1.8c1.3,1.3,1.3,2.7,0.1,4c-0.2,0.2-0.5,0.4-0.7,0.7c1.5-0.3,2.9-0.7,4.1-1.5c0.6-0.4,1.2-0.8,1.6-1.4
			c0.3-0.4,0.5-0.9,0.5-1.4C724.8,444.1,722.5,442.4,720.6,442.8z"/>
		<path d="M707.2,449.8c2,4.2,5.6,6.4,9.6,8.2c0.2,0.1,0.5,0.1,0.6,0c2.6-1.1,4.9-2.5,6.9-4.5c1.1-1.1,2-2.3,2.6-3.8
			c0.4,3.1-0.7,5.5-2.9,7.5c-1.9,1.8-4.2,3-6.6,4c-0.2,0.1-0.4,0.1-0.6,0c-2.5-1-4.9-2.3-6.9-4.2C707.8,455,707.2,453.4,707.2,449.8
			z"/>
		<path d="M694.2,452.3c-0.6,0-1.1,0-1.7,0c-0.1,0-0.3-0.2-0.4-0.3c-0.4-0.5-0.8-1-1.2-1.5c-0.1-0.1-0.3-0.3-0.4-0.3
			c-0.8,0-1.6,0-2.5,0v2.1h-1.5c0-2,0-4,0-6c0,0,0.1-0.1,0.1-0.1c1.7,0,3.5,0,5.2,0c1.1,0,1.8,0.6,2,1.5c0.2,1-0.1,1.7-1.2,2.3
			c0,0,0,0.1-0.1,0.1C693.1,450.8,693.6,451.5,694.2,452.3z M688.1,447.5v1.2c1.2,0,2.4,0,3.5,0c0.4,0,0.6-0.2,0.6-0.6
			c0-0.4-0.2-0.6-0.6-0.6C690.5,447.5,689.3,447.5,688.1,447.5z"/>
		<path d="M660.4,451.1c0.2-0.3,0.4-0.5,0.6-0.8c0.1-0.1,0.2-0.1,0.3,0c1.2,0.7,2.4,0.9,3.7,0.7c0,0,0,0,0,0c2.4-0.3,2.4-0.9,0-1.2
			c-0.1,0-0.2,0-0.2,0c-0.8-0.1-1.7-0.1-2.5-0.2c-0.2,0-0.5-0.1-0.7-0.2c-1.1-0.5-1.4-1.8-0.4-2.6c0.5-0.4,1.3-0.6,1.9-0.7
			c1.4-0.2,2.7-0.1,4,0.6c0.1,0.1,0.2,0.1,0.4,0.2c0.1,0.1,0.1,0.2,0,0.3c-0.3,0.2-0.5,0.4-0.7,0.6c-0.1,0.1-0.3,0.1-0.4,0
			c-1.1-0.5-2.2-0.6-3.4-0.4c-0.2,0-0.5,0.1-0.6,0.3c-0.1,0.2,0.2,0.4,0.3,0.4c0.8,0.1,1.6,0.1,2.3,0.2c0.6,0.1,1.2,0.2,1.7,0.4
			c1.3,0.5,1.5,2.1,0.4,2.9c-0.4,0.3-1,0.5-1.5,0.6c-1.8,0.3-3.5,0.2-5.1-0.8c-0.1,0-0.1-0.1-0.2-0.1
			C660.3,451.3,660.3,451.1,660.4,451.1z"/>
		<path d="M743.1,451.3c0.3-0.4,0.6-0.7,0.9-1.1c1.2,0.8,2.5,1,3.8,0.8c0.3,0,0.6-0.1,0.8-0.2c0.2-0.1,0.4-0.3,0.4-0.5
			c0-0.1-0.3-0.4-0.4-0.4c-0.4-0.1-0.8-0.1-1.2-0.2c-0.8-0.1-1.5-0.1-2.3-0.2c-0.2,0-0.5-0.1-0.7-0.2c-1.1-0.5-1.3-1.9-0.3-2.6
			c0.5-0.4,1.2-0.6,1.8-0.7c1.3-0.2,2.7-0.1,3.9,0.5c0.2,0.1,0.4,0.2,0.6,0.4c-0.1,0.1-0.1,0.1-0.1,0.2c-0.5,0.6-0.9,0.9-1.8,0.5
			c-0.9-0.4-1.9-0.4-2.9-0.2c-0.1,0-0.2,0.1-0.3,0.1c-0.2,0.1-0.1,0.3,0,0.4c0.1,0.1,0.2,0.1,0.3,0.1c1,0.1,1.9,0.2,2.9,0.3
			c0.4,0,0.7,0.2,1.1,0.3c1.2,0.5,1.4,2,0.4,2.8c-0.3,0.2-0.7,0.5-1.1,0.5c-1.7,0.4-3.4,0.4-5.1-0.4
			C743.7,451.6,743.4,451.4,743.1,451.3z"/>
		<path d="M764.4,452.2v-6.1c0.7,0,1.3,0,2,0c0.1,0,0.3,0.2,0.4,0.3c1.1,1.3,2.3,2.6,3.5,4.1v-4.4h1.6v6.1c-0.6,0-1.3,0-1.9,0
			c-0.1,0-0.3-0.2-0.4-0.3c-1-1.2-2.1-2.4-3.1-3.6c-0.1-0.1-0.2-0.3-0.4-0.5v4.4H764.4z"/>
		<path d="M681,445.9c1,0,2,0.2,2.8,0.8c1.6,1.1,1.8,3.4,0.4,4.6c-1.6,1.4-4.7,1.4-6.3,0c-1.4-1.2-1.2-3.5,0.3-4.6
			C679,446.2,679.9,445.9,681,445.9z M680.9,451.1c0.7,0,1.3-0.2,1.9-0.5c1-0.6,0.9-2,0-2.7c-1-0.7-2.7-0.7-3.7,0
			c-1,0.7-0.9,2.1,0.1,2.7C679.7,450.9,680.3,451.1,680.9,451.1z"/>
		<path d="M758.6,452.4c-0.9,0-1.8-0.2-2.7-0.9c-1.5-1.1-1.6-3.3-0.2-4.6c1.8-1.6,5.1-1.5,6.7,0.3c1.1,1.2,0.8,3.1-0.5,4.1
			C761.1,452.1,760,452.4,758.6,452.4z M758.1,451c0.5,0.1,1,0.1,1.5,0c0.4-0.1,0.7-0.2,1-0.4c1-0.6,1-2,0.1-2.7
			c-1-0.7-2.7-0.7-3.7,0c-1,0.7-1,2.1,0.1,2.7C757.4,450.8,757.7,450.9,758.1,451z"/>
		<path d="M670.5,450.2v2.1h-1.5v-6.1l0.4,0c1.5,0,3.1,0,4.6,0c0.5,0,1,0.1,1.5,0.4c0.7,0.4,1,1.1,0.9,1.9c-0.1,0.8-0.6,1.4-1.4,1.5
			c-0.5,0.1-1.1,0.1-1.6,0.1C672.4,450.2,671.5,450.2,670.5,450.2z M670.5,448.8c1.2,0,2.3,0,3.4,0c0.4,0,0.8-0.1,0.8-0.6
			c0-0.5-0.4-0.6-0.8-0.6c-1,0-2,0-3,0l-0.4,0V448.8z"/>
		<path d="M731.2,446.1c0.6,0,1,0,1.5,0c0.2,0,0.4,0.2,0.4,0.3c0.7,1.2,1.4,2.5,2.1,3.7c0.1,0.1,0.2,0.3,0.3,0.5
			c0.8-1.4,1.6-2.7,2.3-4c0.2-0.4,0.4-0.5,0.9-0.5c0.4,0,0.7,0,1.1,0c-0.2,0.4-0.3,0.5-0.5,0.9c-0.9,1.4-1.9,3.3-2.6,4.5
			c-0.3,0.6-0.5,0.8-0.9,0.8c-0.8,0.1-1.3-0.2-1.7-0.9C733.3,449.6,732.3,447.9,731.2,446.1z"/>
		<polygon points="697.4,447.5 694.5,447.5 694.5,446.2 701.8,446.2 701.8,447.5 699,447.5 699,452.2 697.4,452.2 		"/>
		<rect x="740.5" y="446.2" width="1.5" height="6.1"/>
		<rect x="751.8" y="446.2" width="1.5" height="6.1"/>
	</g>
	<g>
		<path class="st3" d="M536.5,202.2c0-1,0-2,0-3c0.8,0,1.7,0,2.5,0c0.1,0,0.1,0,0.1,0.1c0,0.2,0,0.6,0,0.8c0,0.1,0,0.1-0.1,0.1
			c-0.7,0-1.3,0-2,0c-0.1,0-0.1,0-0.1,0.1c0,0.2,0,0.4,0,0.6c0,0.1,0,0.1,0.1,0.1c1,0,2,0,3,0c0.1,0,0.1,0,0.1-0.1
			c0-0.6,0-1.1,0-1.7c0-0.5,0-0.8-0.6-0.8c-1.2,0-2.4,0-3.6,0c-0.1,0-0.1,0.1-0.1,0.1s0-0.1-0.1-0.1c-1.6,0-3.2,0-4.8,0
			c-0.7,0-0.6,0.2-0.6,0.8c0,1.1,0,2.1,0,3.2c-0.2,0-0.4,0-0.6,0c-0.1,0-0.1,0-0.1-0.1c0-1.2,0-2.5,0-3.7c0-0.1,0-0.1-0.1-0.1
			c-0.3,0-0.6,0-0.9,0c-0.1,0-0.1,0-0.1,0.1c0,1.3,0,2.5,0,3.8c-0.7,0-1.3,0-2,0c0-1,0-2.1,0-3.1c0.5,0,0.9,0,1.4,0
			c0.1,0,0.1,0,0.1-0.1c0-0.2,0-0.4,0-0.6c0-0.1,0-0.1-0.1-0.1c-0.5,0-0.9,0-1.4,0c0-0.8,0-1.6,0-2.4c0-0.2-0.1-0.2-0.2-0.2
			c-0.3,0-0.5,0-0.8,0c-0.2,0-0.2,0.1-0.2,0.2c0,0.8,0,1.6,0,2.3c0,0.1,0,0.1-0.1,0.1c-0.2,0-0.3,0-0.5,0c-0.1,0-0.1,0-0.1,0.1
			c0,0.2,0,0.4,0,0.6c0,0.1,0,0.1,0.1,0.1c0.2,0,0.3,0,0.5,0c0.1,0,0.1,0,0.1,0.1c0,1,0,2,0,3c0,0.1,0,0.1-0.1,0.1
			c-0.8,0-1.6,0-2.3,0c-0.1,0-0.1,0-0.1-0.1c0-1,0-2,0-3c0.5,0,0.9,0,1.4,0c0.1,0,0.1,0,0.1-0.1c0-0.2,0-0.4,0-0.6
			c0-0.1,0-0.1-0.2-0.1c-0.5,0-0.9,0-1.3,0c0-0.8,0-1.6,0-2.4c0-0.1,0-0.2-0.1-0.2c-0.3,0-0.6,0-0.9,0c-0.1,0-0.1,0.1-0.1,0.2
			c0,0.8,0,1.6,0,2.4c-1.8,0-3.5,0-5.3,0c-0.8,0-0.7,0.6-0.7,0.9c0,0.8,0,1.6,0,2.5c0,0.2,0,0.2,0.1,0.2c0.3,0,0.6,0,0.9,0
			c0.1,0,0.1,0,0.1-0.2c0-0.9,0-1.6,0-2.5c0-0.1,0-0.1,0.1-0.1c1.6,0,3.2,0,4.8,0c0,1.1,0,2.2,0,3.2c0,0.6,0.3,0.7,0.6,0.7
			c4.1,0,8.2,0,12.3,0c0.1,0,0.1,0,0.1-0.1c0-0.2,0-0.3,0-0.5c0-0.1,0-0.1-0.2-0.1c-1,0-1.9,0-3,0c-0.1,0-0.1,0-0.1-0.1
			c0-1,0-2.1,0-3.1c1.3,0,2.6,0,3.9,0c0,1.1,0,2.2,0,3.2c0,0.4,0,0.7,0.8,0.7c3.2,0,6.4,0,9.6,0c0.2,0,0.2,0,0.2-0.1
			c0-1.5,0-3,0-4.5c0-0.1,0-0.1-0.1-0.1c-0.3,0-0.6,0-0.9,0c-0.1,0-0.1,0-0.1,0.1c0,1.3,0,2.6,0,3.9c-0.2,0-0.5,0-0.7,0
			c-0.1,0-0.1,0-0.1-0.1c0-2.1,0-4.2,0-6.3c0-0.2,0-0.2-0.1-0.2c-0.3,0-0.6,0-0.9,0c-0.1,0-0.1,0-0.1,0.2c0,2.1,0,4.2,0,6.3
			c0,0,0,0.1-0.1,0.1c-0.2,0-0.3,0-0.5,0c-0.2,0-0.2,0-0.2-0.2c0-2.1,0-4.2,0-6.3c0-0.1,0-0.1-0.1-0.1c-0.3,0-0.6,0-1,0
			c-0.1,0-0.1,0-0.1,0.1c0,2.1,0,4.3,0,6.5c-1.4,0-2.8,0-4.2,0C536.5,202.4,536.5,202.4,536.5,202.2L536.5,202.2z M499.3,196
			c0,0.8,0,1.6,0,2.3c0,0,0,0.1-0.1,0.1c-1.6,0-3.2,0-4.8,0c-0.7,0-0.7,0.6-0.7,0.6c0,0.9,0,1.9,0,2.8c0,0.1,0,0.1,0.1,0.1
			c0.3,0,0.6,0,1,0c0.1,0,0.1,0,0.1-0.1c0-0.9,0-1.7,0-2.6c0-0.1,0-0.1,0.1-0.1c1.5,0,2.9,0,4.4,0c0,1.3,0,2.5,0,3.8
			c0,0.1,0,0.1,0.1,0.1c2,0,3.9,0,5.9,0c0.1,0,0.7,0,0.7-0.7c0-0.8,0-1.9,0-2.7c0-0.1,0-0.1-0.1-0.1c-0.3,0-0.6,0-0.9,0
			c-0.1,0-0.1,0-0.1,0.1c0,0.8,0,1.7,0,2.5c0,0.1,0,0.1-0.1,0.1c-1.4,0-2.8,0-4.3,0c-0.1,0-0.1,0-0.1-0.1c0-2.1,0-4.2,0-6.3
			c0-0.2,0-0.2-0.1-0.2c-0.3,0-0.6,0-0.9,0C499.4,195.8,499.3,195.8,499.3,196L499.3,196z M512,198.5c0,0.2,0,0.4,0,0.6
			c0,0.1,0,0.1,0.1,0.1c0.6,0,1.1,0,1.7,0c0,1,0,2.1,0,3.1c0,0,0,0.1-0.1,0.1c-1.6,0-3.2,0-4.8,0c-0.1,0-0.1,0-0.1,0.1
			c0,0.2,0,0.4,0,0.6c0,0.1,0.1,0.1,0.1,0.1c1.7,0,3.5,0,5.2,0c0.1,0,0.1-0.2,0.1-0.2c0,0,0,0.2,0.1,0.2c1.7,0,3.4,0,5.2,0
			c0.9,0,0.8-0.4,0.8-0.7c0-0.9,0-1.8,0-2.7c0-0.1,0-0.1-0.1-0.1c-0.3,0-0.6,0-0.9,0c-0.1,0-0.1,0-0.1,0.1c0,0.8,0,1.7,0,2.5
			c0,0,0,0.1-0.1,0.1c-1.4,0-2.9,0-4.3,0c0-1.1,0-2.1,0-3.2c0-0.3-0.1-0.8-0.6-0.8c-0.7,0-1.5,0-2.2,0
			C512,198.4,512,198.4,512,198.5L512,198.5z M488.4,198.5c0,0.2,0,0.5,0,0.7c0,0.1,0,0.1,0.1,0.1h3.3c0,0,0,0,0,0v3.7
			c0,0.1,0.1,0.2,0.2,0.2c2,0,3.9,0,5.8,0c0.2,0,0.7,0.1,0.7-0.6c0-1,0-1.9,0-2.9c0-0.1,0-0.1-0.1-0.1c-0.3,0-0.6,0-0.8,0
			c-0.1,0-0.1,0-0.1,0.1c0,0.8,0,1.7,0,2.5c0,0.1,0,0.1-0.1,0.1c-1.4,0-2.9,0-4.3,0c0,0-0.1,0-0.1-0.1v-3.2c0-0.4,0-0.7-0.6-0.7
			C491.1,198.4,489.8,198.4,488.4,198.5C488.4,198.4,488.4,198.4,488.4,198.5L488.4,198.5z M482.7,198.5c0,0.2,0,0.4,0,0.6
			c0,0.1,0.1,0.1,0.2,0.1c1.1,0,2.2,0,3.3,0c0.1,0,0.1,0,0.1,0.1v3c0,0.1,0,0.1-0.1,0.1c-0.6,0-1.3,0-1.9,0c-0.1,0-0.1,0-0.1,0.1
			c0,0.2,0,0.4,0,0.6c0,0.1,0,0.1,0.1,0.1c0.8,0,1.6,0,2.3,0c0.1,0,0.1-0.2,0.2-0.2c0,0,0,0.2,0.2,0.2c0.7,0,1.4,0,2.1,0
			c0.2,0,0.3,0,0.3-0.3c0-0.6,0-1.3,0-1.9c0-0.1,0-0.1,0.1-0.1c0.5,0,1,0,1.5,0c0.1,0,0.1,0,0.1-0.1c0-0.2,0-0.5,0-0.7
			c0-0.1,0-0.1-0.1-0.1c-0.7,0-1.3,0-2,0c-0.7,0-0.7,0.6-0.7,0.6c0,0.5,0,1,0,1.5c0,0,0,0,0,0c-0.2,0-0.4,0-0.6,0
			c-0.1,0-0.1,0-0.1-0.1v-2.8c0-0.6,0-1.1-0.6-1.1c-1.3,0-2.7,0-4,0C482.8,198.4,482.7,198.4,482.7,198.5L482.7,198.5z M501.2,199.2
			c0,0.9,0,1.8,0,2.7c0,0.1,0,0.1,0.1,0.1c0.3,0,0.6,0,0.9,0c0.1,0,0.1-0.1,0.1-0.2c0-0.8,0-1.7,0-2.6c1.7,0,3.4,0,5,0
			c0.1,0,0.1,0,0.1-0.1c0-0.2,0-0.4,0-0.6c0-0.1,0-0.1-0.1-0.1c-1.9,0-3.6,0-5.5,0C501.4,198.4,501.2,198.4,501.2,199.2L501.2,199.2
			z M510.1,196c0,1.9,0,3.8,0,5.6c0,0.1,0,0.1,0.1,0.1c0.3,0,0.7,0,1,0c0.1,0,0.1,0,0.1-0.1c0-1.9,0-3.8,0-5.6c0-0.1,0-0.2-0.1-0.2
			c-0.3,0-0.6,0-0.9,0C510.2,195.8,510.1,195.8,510.1,196L510.1,196z M482.7,200.2c0,1.5,0,3.1,0,4.6c0,0.1,0,0.1,0.1,0.1
			c0.3,0,0.6,0,1,0c0.1,0,0.1,0,0.1-0.2c0-1.5,0-3,0-4.5c0-0.1,0-0.1-0.1-0.1c-0.3,0-0.7,0-1,0C482.8,200.1,482.7,200.1,482.7,200.2
			L482.7,200.2z M528.6,197.1h0.8c0.1,0,0.2-0.1,0.2-0.2V196c0-0.1-0.1-0.2-0.2-0.2h-0.8c-0.1,0-0.2,0.1-0.2,0.2v0.9
			C528.4,197,528.5,197.1,528.6,197.1L528.6,197.1z M545,197.1h0.8c0.1,0,0.2-0.1,0.2-0.2V196c0-0.1-0.1-0.2-0.2-0.2H545
			c-0.1,0-0.2,0.1-0.2,0.2v0.9C544.8,197,544.9,197.1,545,197.1L545,197.1z"/>
	</g>
	<g>
		<path class="st3" d="M336.2,51.3c0,0.8-0.2,2.9-0.2,4.1c0,0.9,0.1,1.6,0.1,1.9c0.1-0.1,0.2-0.2,0.4-0.3c0-0.4,0-1.4,0.4-3.4
			c0.3-1.6,0.3-2.6,0.3-3c-0.3-0.4-0.7-0.8-1.2-1.2C336.1,49.9,336.2,50.7,336.2,51.3L336.2,51.3z"/>
		<path class="st3" d="M336.9,53.7c-0.3,1.8-0.4,2.8-0.4,3.3c0.9-0.9,1.5-2.1,1.5-3.5c0-1-0.3-1.8-0.7-2.6
			C337.3,51.3,337.2,52.2,336.9,53.7L336.9,53.7z"/>
		<path class="st3" d="M335.8,55.4c0-1.2,0.2-3.3,0.2-4.1c0-0.7-0.1-1.6-0.2-2c-0.8-0.5-1.7-0.8-2.6-0.8c-0.4,0-0.9,0.1-1.3,0.2
			l0.7,2.6l-0.5-0.3c-0.1-0.6-0.3-1.4-0.7-2.1c-0.1,0.1-0.3,0.1-0.4,0.2c0.3,0.6,0.5,1.2,0.5,1.6l-0.8-0.4l-0.1-1.1
			c-0.1,0.1-0.3,0.2-0.4,0.3v1.2l-0.8-0.5c-0.1,0.1-0.2,0.2-0.2,0.3l1.4,1l-0.6,0.3l-0.2,0l-0.8-0.9c-0.1,0.1-0.1,0.2-0.2,0.3l0.5,1
			l-1,0.5c0,0.1,0,0.3,0,0.4l1.4-0.5l0.1,0.2l-1.5,0.8c0,0,0,0.1,0,0.1l1.3,0.6l-1,0.6c0.1,0.2,0.1,0.4,0.2,0.6l0.8,0l-0.3,0.9
			c0.1,0.2,0.3,0.4,0.5,0.5l1.3-1.1l0,0.3l-1.1,1c0.1,0.1,0.3,0.2,0.5,0.3l0.7-0.6l0.1,1c0.6,0.2,1.2,0.4,1.8,0.4
			c1.1,0,2-0.3,2.8-0.9C336,57.2,335.8,56.4,335.8,55.4L335.8,55.4z"/>
		<path class="st5" d="M330.7,51.2l0-0.3l0.8,0.5c0,0.1,0,0.2,0,0.3L330.7,51.2L330.7,51.2z"/>
		<path class="st5" d="M332.1,51.7l0.7,0.4l0.1,0.4l-0.7-0.5C332.1,52,332.1,51.8,332.1,51.7L332.1,51.7z"/>
		<polygon class="st5" points="330.8,52.2 331.1,52 332.3,52.8 331.3,52.9 330.8,52.2 		"/>
		<path class="st5" d="M333.4,52.9l-0.4-1.6l0.3-0.2l0-0.4l-0.4,0.1l-0.2-0.6c0.2-0.1,0.5-0.4,0.7-0.7l-0.2-0.3c0,0-0.4,0.3-0.7,0.4
			l-0.1-0.5c0.2,0,0.5-0.1,0.7-0.1c0.9,0,1.7,0.3,2.4,0.7c0,1-0.2,2.1-0.3,3.1C334.4,53,333.4,52.9,333.4,52.9L333.4,52.9z"/>
		<polygon class="st5" points="331.6,53.4 332,53.4 332,53.6 331.7,53.7 331.6,53.4 		"/>
		<polygon class="st5" points="331.6,56.1 331.6,55.4 331.8,55.2 332.4,55.9 332.1,56.5 331.6,56.1 		"/>
		<polygon class="st5" points="331.7,56.9 331.9,57.1 331.7,57.7 331.7,56.9 		"/>
		<path class="st5" d="M332.2,57.6l0.1-0.2l0.5,0.3C332.6,57.7,332.4,57.7,332.2,57.6L332.2,57.6z"/>
		<path class="st5" d="M333.1,57.7l0-0.2v-0.2l-0.6-0.5l0.3-0.6l0.4,0.3l0-0.6l-1-1.2l0.3-0.3l0.7,1.2l0-1L333,54l0.3-0.2l1.9,0.1
			c-0.2,1.2-0.3,2.4-0.4,3.6C334.3,57.6,333.7,57.7,333.1,57.7C333.2,57.7,333.1,57.7,333.1,57.7L333.1,57.7z"/>
		<path class="st3" d="M335.6,81.3c0.5,0,0.4,0.2,0.4,0.4c0,0.2,0,0.7-0.8,1c-0.1,0-0.4,0-0.4-0.3c0,0-0.6-1.5-0.7-1.7
			c-0.1-0.2-0.4-0.2-0.6-0.2c-0.2,0-2.1,0.4-2.1,1.8c0,1.4,1.6,2,3.2,2c1.7,0,3-0.8,3-2.2c0-1.4-0.9-1.7-1.5-1.7
			C335.4,80.5,335.3,81.3,335.6,81.3L335.6,81.3z"/>
		<path class="st3" d="M337,96.3c-0.1,0.2-0.3,0.3-0.4,0.3c0,0-4.2,0-4.6,0c-0.4,0-0.5,0.2-0.5,0.3c0,0.3,0.5,1.5,0.7,1.8
			c0.2,0.3,0.4,0.1,0.4-0.1c0.1-0.1,0.1-0.2,0.5-0.2s3.4,0,3.5,0c0.2,0,0.3,0,0.4,0.3c0,0,0.1,0.1,0.1,0.1c0,0-0.1,0.1-0.1,0.1
			c-0.2,0.3-0.4,0.3-0.6,0.3s-6,0-6.3,0s-0.6,0-0.6-0.2c0-0.4,0.8-0.7,1.4-0.9c0.6-0.2,0.3-1-0.1-1c-0.4,0.1-1.5,0.3-1.9,0.4
			c-0.4,0.1-0.7,0.2-0.7,0.4c0,0.2,0.2,0.4,0.2,0.4l0,1.9l0,1.9c0,0-0.2,0.3-0.2,0.4c0,0.2,0.3,0.3,0.7,0.4c0.4,0.1,1.5,0.3,1.9,0.4
			c0.4,0.1,0.7-0.7,0.1-1c-0.6-0.2-1.4-0.5-1.4-0.9c0-0.2,0.3-0.2,0.6-0.2s6,0,6.3,0s0.4,0,0.6,0.3c0.2,0.3,0.5,0,0.5-0.5v-1.6
			c0-0.3-0.1-0.6-0.2-0.6c0.1,0,0.2-0.2,0.2-0.3v-1.9C337.4,96.2,337.1,96,337,96.3L337,96.3z"/>
		<path class="st3" d="M337,74.4c-0.1,0.2-0.3,0.3-0.4,0.3c0,0-7.2,0-7.6,0c-0.4,0-0.5,0.2-0.5,0.3c0,0.3,0.5,1.5,0.7,1.8
			c0.2,0.3,0.4,0.1,0.4-0.1c0.1-0.1,0.1-0.2,0.5-0.2c0.1,0,0.8,0,1.7,0c-0.2,0.1-0.3,0.3-0.3,0.6c0,1.1,0.8,0.9,0.9,1.5
			c-0.2,0-0.4,0-0.4,0c-0.4,0-0.5,0.2-0.5,0.3c0,0.3,0.5,1.5,0.7,1.8c0.2,0.3,0.4,0.1,0.4-0.1c0.1-0.1,0.1-0.2,0.5-0.2s3.4,0,3.5,0
			c0.2,0,0.3,0,0.4,0.3c0.1,0.2,0.5,0,0.5-0.2v-1.9c0-0.2-0.3-0.4-0.5-0.2c-0.1,0.2-0.3,0.3-0.4,0.3c0,0-1.1,0-2.3,0
			c-0.4-0.1-1.4-0.5-1.4-1c0-0.2,0.6-0.2,0.6-0.7c0-0.1-0.3-0.3-0.6-0.4c1.7,0,3.5,0,3.6,0c0.2,0,0.3,0,0.4,0.3
			c0.1,0.2,0.5,0,0.5-0.2v-1.9C337.4,74.4,337.1,74.2,337,74.4L337,74.4z"/>
		<path class="st3" d="M337,65c-0.1,0.2-0.3,0.3-0.4,0.3c-0.3,0-5-0.1-5,1.7c0,0.6,0.4,0.6,0.5,0.9c0,0,0,0-0.1,0
			c-0.4,0-0.5,0.2-0.5,0.3c0,0.3,0.5,1.5,0.7,1.8c0.2,0.3,0.4,0.1,0.4-0.1c0.1-0.1,0.1-0.2,0.5-0.2s3.4,0,3.5,0c0.1,0,0.3,0,0.4,0.2
			c-0.2,0-0.4,0.2-0.4,0.3c0,0.2-0.2,0.2-0.4,0.2s-0.3,0-2.5,0.2c-2.2,0.2-2.1,1.1-2.1,2.1s0.5,1.8,1.2,1.8c0.8,0,0.8-0.5,0.8-0.9
			c0-0.4-0.1-0.7-0.6-0.7c-0.5,0-0.6,0.3-0.6,0.3s0-0.2,0-0.5c0-0.4,0.6-0.6,1-0.6c0.4,0,0.4,0.7,0.6,1c0.5,0.9,1.2,1.4,2.1,1.4
			c0.9,0,1.4-0.5,1.4-0.7c0-0.2,0-1.2,0-1.6c0-0.4-0.2-0.5-0.2-0.6s0.2-0.2,0.2-0.3c0-0.1,0-0.3,0-1c0-0.3,0-0.4-0.1-0.5
			c0.1-0.1,0.1-0.1,0.1-0.2v-1.9c0-0.2-0.3-0.4-0.5-0.2c-0.1,0.2-0.3,0.3-0.4,0.3c0,0-2.1,0-3.5,0c-0.1,0-0.3-0.2-0.3-0.4
			c0-0.5,3.3-0.6,3.8-0.6c0.2,0,0.3,0,0.4,0.3c0.1,0.2,0.5,0,0.5-0.2v-1.7C337.4,64.9,337.1,64.7,337,65L337,65z"/>
		<path class="st3" d="M331.3,86.2c0,0.5,0.2,0.4,0.3,0.8c-1.5,0-2.7,0-2.8,0c-0.4,0-0.5,0.2-0.5,0.3c0,0.3,0.5,1.4,0.7,1.7
			c0.2,0.3,0.5,0.1,0.5-0.1c0.1-0.1,0.1-0.1,0.5-0.1c0.3,0,5.9,0,6.6,0c0.2,0,0.3,0,0.4,0c0,0-0.1,0-0.1,0.1
			c-0.1,0.2-0.3,0.3-0.4,0.3c-0.3,0-5-0.1-5,1.7c0,0.6,0.5,0.7,0.6,1.1c-0.4,0.2-0.6,0.5-0.6,1c0,0.9,0.5,0.8,0.6,1.2
			c0,0-0.1,0-0.1,0c-0.4,0-0.5,0.2-0.5,0.3c0,0.3,0.5,1.5,0.7,1.8c0.2,0.3,0.4,0.1,0.4-0.1c0.1-0.1,0.1-0.2,0.5-0.2s3.4,0,3.5,0
			c0.2,0,0.3,0,0.4,0.3c0.1,0.2,0.5,0,0.5-0.2v-1.9c0-0.2-0.3-0.4-0.5-0.2c-0.1,0.2-0.3,0.3-0.4,0.3c0,0-2,0-3.3,0
			c-0.3,0-0.6-0.2-0.6-0.4c0-0.2,0.1-0.4,0.5-0.4c0.4,0,3.2,0,3.4,0c0.2,0,0.3,0,0.4,0.3c0.1,0.2,0.5,0,0.5-0.2v-1.7
			c0-0.2-0.3-0.4-0.5-0.2c-0.1,0.2-0.3,0.3-0.4,0.3c0,0-3.6,0-3.6,0c-0.1,0-0.2-0.2-0.2-0.3c0-0.5,3.3-0.6,3.8-0.6
			c0.2,0,0.3,0,0.4,0.3c0.1,0.2,0.5,0,0.5-0.2V89c0-0.2-0.2-0.3-0.3-0.3c0.3-0.1,0.3-0.2,0.3-0.3c0-0.1,0.1-0.3-0.5-0.6
			c-0.1-0.1,0-0.2,0.2-0.4c0.2-0.2,0.5-0.3,0.5-1.2c0-0.8-0.1-1.8-3.2-1.8C332,84.4,331.3,85.7,331.3,86.2L331.3,86.2z"/>
		<path class="st3" d="M337,60.5c-0.1,0.2-0.3,0.3-0.4,0.3c0,0-7,0-7.4,0c-0.4,0-0.5,0.2-0.5,0.3c0,0.2,0.4,0.8,0.6,1.3
			c0.1,0.2,0.1,0.4,0.1,0.5c0.2,0.3,0.4,0.1,0.4-0.1c0.1-0.1,0.1-0.2,0.5-0.2c0.1,0,0.8,0,1.8,0c-0.1,0.1-0.3,0.4-0.3,0.8
			c0,0.6,1.1,1.8,3.4,1.8c1,0,1.6-0.3,2.1-0.5c0.4-0.2,0.4-0.4,0.4-0.7c0-0.2,0-3.3,0-3.3C337.4,60.5,337.1,60.3,337,60.5L337,60.5z
			"/>
		<polygon class="st5" points="330.4,54.6 330.3,55.1 331.1,55 330.4,54.6 		"/>
		<polygon class="st5" points="331.1,54.4 331.6,54.6 331.9,54.3 331.1,54.4 		"/>
		<polygon class="st5" points="331.2,53.8 330.9,53.4 330,53.2 329.3,53.6 330.2,54 331.2,53.8 		"/>
		<polygon class="st5" points="329.8,54.9 329.4,55.1 329.8,55.1 329.8,54.9 		"/>
		<polygon class="st5" points="330.1,55.6 329.9,56.4 330.6,55.6 330.1,55.6 		"/>
		<path class="st5" d="M332.3,86.4c0-0.4,1.3-0.6,2-0.6s1.8,0.2,1.8,0.6s-1.4,0.5-1.8,0.5C333.8,87,332.3,86.8,332.3,86.4
			L332.3,86.4z"/>
		<path class="st5" d="M332.2,82.7c0-0.2,0.6-0.6,1.2-0.6c0.6,0,0.8,0.5,0.8,0.8c0,0.1,0,0.2-0.1,0.2
			C332.4,83.3,332.2,82.9,332.2,82.7L332.2,82.7z"/>
		<path class="st5" d="M334.4,72.1c0,0,1.6,0,1.8,0s0.4,0,0.4,0.3c0,0.3-0.1,0.5-1,0.5C334.8,73,334.4,72.6,334.4,72.1L334.4,72.1z"
			/>
		<path class="st5" d="M332.6,63.1c0-0.2,0.7-0.7,2-0.7c1.3,0,1.8,0.3,1.8,0.5c0,0.2-0.5,0.6-1.8,0.6
			C333.4,63.6,332.6,63.3,332.6,63.1L332.6,63.1z"/>
		<path class="st3" d="M329.5,64.9c-0.3,0-0.5-0.2-0.5-0.5c0-0.2,0.2-0.5,0.5-0.5c0.3,0,0.5,0.2,0.5,0.5
			C330,64.7,329.8,64.9,329.5,64.9L329.5,64.9z"/>
		<path class="st5" d="M329.9,64.4c0-0.2-0.2-0.4-0.4-0.4c-0.2,0-0.4,0.2-0.4,0.4c0,0.2,0.2,0.4,0.4,0.4
			C329.7,64.8,329.9,64.6,329.9,64.4L329.9,64.4z"/>
		<path class="st3" d="M329.8,64.5L329.8,64.5l-0.5,0.1v-0.2c0-0.1,0-0.2,0.1-0.2c0.1,0,0.1,0.1,0.1,0.1l0.2-0.1v0.1l-0.2,0.1v0.1
			H329.8L329.8,64.5z"/>
		<path class="st5" d="M329.5,64.4c0-0.1,0-0.1-0.1-0.1c-0.1,0-0.1,0.1-0.1,0.1v0.1L329.5,64.4L329.5,64.4L329.5,64.4z"/>
	</g>
	<g>
		<polygon points="190.2,223 190,223 187.4,217.7 188.5,217.7 190.1,221.1 190.1,221.1 191.7,217.7 192.8,217.7 		"/>
		<polygon points="166.4,217.7 166.4,218.6 163.8,218.6 163.8,219.9 166.2,219.9 166.2,220.7 163.8,220.7 163.8,222 166.6,222 
			166.6,222.9 162.8,222.9 162.8,217.7 		"/>
		<polygon points="179,217.7 179,218.6 176.4,218.6 176.4,219.9 178.8,219.9 178.8,220.7 176.4,220.7 176.4,222 179.2,222 
			179.2,222.9 175.4,222.9 175.4,217.7 		"/>
		<polygon points="198.2,217.7 198.2,218.6 195.6,218.6 195.6,219.9 198,219.9 198,220.8 195.6,220.8 195.6,222 198.4,222 
			198.4,222.9 194.6,222.9 194.6,217.7 		"/>
		<path d="M202.4,222.1c1.2,0,1.7-0.6,1.7-1.8c0-1.2-0.5-1.8-1.7-1.8h-0.8v3.5H202.4z M200.6,222.9v-5.2h1.8c1.8,0,2.7,1.1,2.7,2.6
			s-0.9,2.6-2.7,2.6H200.6z"/>
		<path d="M172.8,218.3l-0.5,0.7c-0.4-0.3-0.9-0.4-1.4-0.4c-0.8,0-1,0.3-1,0.6c0,0.9,3,0.4,3,2.2c0,1-0.9,1.7-2.1,1.7
			c-0.9,0-1.6-0.3-2.2-0.9l0.5-0.6c0.5,0.5,1,0.7,1.7,0.7c0.8,0,1.1-0.4,1.1-0.8c0-1.1-3.1-0.4-3.1-2.3c0-0.8,0.8-1.5,2-1.5
			C171.7,217.6,172.4,217.9,172.8,218.3z"/>
		<path d="M160.7,222.9l-0.1-0.8c-0.1,0-0.2,0-0.3,0c-0.4,0-0.6-0.1-0.9-0.5c-0.1-0.1-0.2-0.3-0.3-0.5c-0.1-0.2-0.2-0.2-0.3-0.3
			c0.7-0.2,1.3-0.7,1.3-1.6c0-0.9-0.7-1.6-1.9-1.6h-2.1v5.2h1V221c0,0,0.4,0,0.5,0c0.3,0,0.4,0.1,0.5,0.3c0.1,0.2,0.5,0.8,0.5,0.8
			c0.5,0.7,1,1,1.6,1C160.4,223,160.6,222.9,160.7,222.9z M158.3,220.2h-1.1v-1.7h1.1c0.6,0,0.9,0.3,0.9,0.8
			C159.2,219.9,158.8,220.2,158.3,220.2"/>
		<path d="M186.3,222.9l-0.1-0.8c-0.1,0-0.2,0-0.3,0c-0.4,0-0.6-0.1-0.9-0.5c-0.1-0.1-0.2-0.3-0.3-0.5c-0.1-0.2-0.2-0.2-0.3-0.3
			c0.7-0.2,1.3-0.7,1.3-1.6c0-0.9-0.7-1.6-1.9-1.6h-2.1v5.2h1V221c0,0,0.4,0,0.5,0c0.3,0,0.4,0.1,0.5,0.3c0.1,0.2,0.5,0.8,0.5,0.8
			c0.5,0.7,1,1,1.6,1C186,223,186.2,222.9,186.3,222.9z M183.8,220.2h-1.1v-1.7h1.1c0.6,0,0.9,0.3,0.9,0.8
			C184.7,219.9,184.3,220.2,183.8,220.2"/>
	</g>
	<g>
		<polygon points="80,250.6 79.7,250.6 75.9,242.9 77.6,242.9 79.9,247.8 79.9,247.8 82.2,242.9 83.9,242.9 		"/>
		<polygon points="45.2,242.9 45.2,244.1 41.5,244.1 41.5,246.1 45,246.1 45,247.3 41.5,247.3 41.5,249.2 45.6,249.2 45.6,250.5 
			40,250.5 40,242.9 		"/>
		<polygon points="63.6,242.9 63.6,244.1 59.8,244.1 59.8,246.1 63.3,246.1 63.3,247.3 59.8,247.3 59.8,249.2 63.9,249.2 
			63.9,250.5 58.4,250.5 58.4,242.9 		"/>
		<polygon points="91.7,242.9 91.7,244.1 87.9,244.1 87.9,246.1 91.4,246.1 91.4,247.3 87.9,247.3 87.9,249.2 92,249.2 92,250.5 
			86.5,250.5 86.5,242.9 		"/>
		<path d="M97.8,249.2c1.7,0,2.4-0.8,2.4-2.6c0-1.7-0.8-2.6-2.4-2.6h-1.1v5.1H97.8z M95.2,250.5v-7.6h2.6c2.6,0,3.9,1.6,3.9,3.8
			c0,2.2-1.3,3.8-3.9,3.8H95.2z"/>
		<path d="M54.6,243.7l-0.7,1c-0.6-0.4-1.3-0.6-2.1-0.6c-1.1,0-1.4,0.4-1.4,0.8c0,1.4,4.4,0.6,4.4,3.3c0,1.5-1.3,2.5-3.1,2.5
			c-1.2,0-2.3-0.4-3.2-1.4l0.8-0.9c0.7,0.7,1.5,1,2.4,1c1.1,0,1.6-0.5,1.6-1.1c0-1.6-4.5-0.5-4.5-3.3c0-1.2,1.2-2.1,3-2.1
			C53,242.8,54,243.2,54.6,243.7z"/>
		<path d="M36.9,250.5l-0.1-1.1c-0.1,0-0.3,0-0.4,0c-0.6,0-0.9-0.2-1.3-0.8c-0.1-0.2-0.3-0.5-0.4-0.7c-0.1-0.2-0.2-0.3-0.4-0.4
			c1.1-0.3,1.9-1.1,1.9-2.3c0-1.4-1-2.3-2.8-2.3h-3.1v7.6h1.5v-2.8c0,0,0.5,0,0.7,0c0.4,0,0.5,0.1,0.7,0.4c0.2,0.2,0.7,1.1,0.7,1.1
			c0.7,1,1.4,1.4,2.4,1.4C36.5,250.6,36.8,250.5,36.9,250.5z M33.3,246.5h-1.6v-2.4h1.6c0.9,0,1.4,0.5,1.4,1.2
			C34.7,246.2,34.1,246.5,33.3,246.5"/>
		<path d="M74.3,250.5l-0.1-1.1c-0.1,0-0.3,0-0.4,0c-0.6,0-0.9-0.2-1.3-0.8c-0.1-0.2-0.3-0.5-0.4-0.7c-0.1-0.2-0.2-0.3-0.4-0.4
			c1.1-0.3,1.9-1.1,1.9-2.3c0-1.4-1-2.3-2.8-2.3h-3.1v7.6H69v-2.8c0,0,0.5,0,0.7,0c0.4,0,0.5,0.1,0.7,0.4c0.2,0.2,0.7,1.1,0.7,1.1
			c0.7,1,1.4,1.4,2.4,1.4C73.8,250.6,74.1,250.5,74.3,250.5z M70.7,246.5H69v-2.4h1.6c0.9,0,1.4,0.5,1.4,1.2
			C72,246.2,71.5,246.5,70.7,246.5"/>
	</g>
	<g>
		<polygon points="174.3,322.8 174.1,322.8 171.4,317.5 172.6,317.5 174.2,320.8 174.2,320.8 175.8,317.5 176.9,317.5 		"/>
		<polygon points="150.5,317.5 150.5,318.3 147.9,318.3 147.9,319.6 150.3,319.6 150.3,320.5 147.9,320.5 147.9,321.8 150.7,321.8 
			150.7,322.7 146.9,322.7 146.9,317.5 		"/>
		<polygon points="163,317.5 163,318.3 160.5,318.3 160.5,319.7 162.9,319.7 162.9,320.5 160.5,320.5 160.5,321.8 163.3,321.8 
			163.3,322.7 159.5,322.7 159.5,317.5 		"/>
		<polygon points="182.2,317.5 182.2,318.3 179.7,318.3 179.7,319.7 182.1,319.7 182.1,320.5 179.7,320.5 179.7,321.8 182.5,321.8 
			182.5,322.7 178.7,322.7 178.7,317.5 		"/>
		<path d="M186.4,321.8c1.2,0,1.7-0.6,1.7-1.8c0-1.2-0.5-1.8-1.7-1.8h-0.8v3.5H186.4z M184.7,322.7v-5.2h1.8c1.8,0,2.7,1.1,2.7,2.6
			c0,1.5-0.9,2.6-2.7,2.6H184.7z"/>
		<path d="M156.9,318l-0.5,0.7c-0.4-0.3-0.9-0.4-1.4-0.4c-0.8,0-1,0.3-1,0.6c0,0.9,3,0.4,3,2.2c0,1-0.9,1.7-2.1,1.7
			c-0.9,0-1.6-0.3-2.2-0.9l0.5-0.6c0.5,0.5,1,0.7,1.7,0.7c0.8,0,1.1-0.4,1.1-0.8c0-1.1-3.1-0.4-3.1-2.3c0-0.8,0.8-1.5,2-1.5
			C155.8,317.4,156.5,317.7,156.9,318z"/>
		<path d="M144.8,322.6l-0.1-0.8c-0.1,0-0.2,0-0.3,0c-0.4,0-0.6-0.1-0.9-0.5c-0.1-0.1-0.2-0.3-0.3-0.5c-0.1-0.2-0.2-0.2-0.3-0.3
			c0.7-0.2,1.3-0.7,1.3-1.6c0-0.9-0.7-1.6-1.9-1.6h-2.1v5.2h1v-1.9c0,0,0.4,0,0.5,0c0.3,0,0.4,0.1,0.5,0.3c0.1,0.2,0.5,0.8,0.5,0.8
			c0.5,0.7,1,1,1.6,1C144.5,322.7,144.7,322.7,144.8,322.6z M142.3,320h-1.1v-1.7h1.1c0.6,0,0.9,0.3,0.9,0.8
			C143.3,319.7,142.9,320,142.3,320"/>
		<path d="M170.3,322.6l-0.1-0.8c-0.1,0-0.2,0-0.3,0c-0.4,0-0.6-0.1-0.9-0.5c-0.1-0.1-0.2-0.3-0.3-0.5c-0.1-0.2-0.2-0.2-0.3-0.3
			c0.7-0.2,1.3-0.7,1.3-1.6c0-0.9-0.7-1.6-1.9-1.6h-2.1v5.2h1v-1.9c0,0,0.4,0,0.5,0c0.3,0,0.4,0.1,0.5,0.3c0.1,0.2,0.5,0.8,0.5,0.8
			c0.5,0.7,1,1,1.6,1C170,322.7,170.2,322.7,170.3,322.6z M167.9,320h-1.1v-1.7h1.1c0.6,0,0.9,0.3,0.9,0.8
			C168.8,319.7,168.4,320,167.9,320"/>
	</g>
	<g>
		<polygon points="179.3,288.5 179.1,288.5 176.4,283.2 177.6,283.2 179.2,286.6 179.2,286.6 180.8,283.2 181.9,283.2 		"/>
		<polygon points="155.5,283.2 155.5,284.1 152.9,284.1 152.9,285.4 155.3,285.4 155.3,286.2 152.9,286.2 152.9,287.5 155.7,287.5 
			155.7,288.4 151.9,288.4 151.9,283.2 		"/>
		<polygon points="168,283.2 168,284.1 165.5,284.1 165.5,285.4 167.9,285.4 167.9,286.2 165.5,286.2 165.5,287.5 168.3,287.5 
			168.3,288.4 164.5,288.4 164.5,283.2 		"/>
		<polygon points="187.2,283.2 187.2,284.1 184.7,284.1 184.7,285.4 187.1,285.4 187.1,286.2 184.7,286.2 184.7,287.5 187.5,287.5 
			187.5,288.4 183.7,288.4 183.7,283.2 		"/>
		<path d="M191.4,287.5c1.2,0,1.7-0.6,1.7-1.8c0-1.2-0.5-1.8-1.7-1.8h-0.8v3.5H191.4z M189.7,288.4v-5.2h1.8c1.8,0,2.7,1.1,2.7,2.6
			c0,1.5-0.9,2.6-2.7,2.6H189.7z"/>
		<path d="M161.9,283.7l-0.5,0.7c-0.4-0.3-0.9-0.4-1.4-0.4c-0.8,0-1,0.3-1,0.6c0,0.9,3,0.4,3,2.2c0,1-0.9,1.7-2.1,1.7
			c-0.9,0-1.6-0.3-2.2-0.9l0.5-0.6c0.5,0.5,1,0.7,1.7,0.7c0.8,0,1.1-0.4,1.1-0.8c0-1.1-3.1-0.4-3.1-2.3c0-0.8,0.8-1.5,2-1.5
			C160.8,283.1,161.5,283.4,161.9,283.7z"/>
		<path d="M149.8,288.4l-0.1-0.8c-0.1,0-0.2,0-0.3,0c-0.4,0-0.6-0.1-0.9-0.5c-0.1-0.1-0.2-0.3-0.3-0.5c-0.1-0.2-0.2-0.2-0.3-0.3
			c0.7-0.2,1.3-0.7,1.3-1.6c0-0.9-0.7-1.6-1.9-1.6h-2.1v5.2h1v-1.9c0,0,0.4,0,0.5,0c0.3,0,0.4,0.1,0.5,0.3c0.1,0.2,0.5,0.8,0.5,0.8
			c0.5,0.7,1,1,1.6,1C149.5,288.5,149.7,288.4,149.8,288.4z M147.3,285.7h-1.1V284h1.1c0.6,0,0.9,0.3,0.9,0.8
			C148.3,285.4,147.9,285.7,147.3,285.7"/>
		<path d="M175.4,288.4l-0.1-0.8c-0.1,0-0.2,0-0.3,0c-0.4,0-0.6-0.1-0.9-0.5c-0.1-0.1-0.2-0.3-0.3-0.5c-0.1-0.2-0.2-0.2-0.3-0.3
			c0.7-0.2,1.3-0.7,1.3-1.6c0-0.9-0.7-1.6-1.9-1.6h-2.1v5.2h1v-1.9c0,0,0.4,0,0.5,0c0.3,0,0.4,0.1,0.5,0.3c0.1,0.2,0.5,0.8,0.5,0.8
			c0.5,0.7,1,1,1.6,1C175,288.5,175.2,288.4,175.4,288.4z M172.9,285.7h-1.1V284h1.1c0.6,0,0.9,0.3,0.9,0.8
			C173.8,285.4,173.4,285.7,172.9,285.7"/>
	</g>
	<g>
		<polygon points="189,202.5 188.8,202.5 186.2,197.2 187.3,197.2 188.9,200.6 188.9,200.6 190.5,197.2 191.6,197.2 		"/>
		<polygon points="165.2,197.2 165.2,198.1 162.7,198.1 162.7,199.4 165,199.4 165,200.2 162.7,200.2 162.7,201.5 165.4,201.5 
			165.4,202.4 161.6,202.4 161.6,197.2 		"/>
		<polygon points="177.8,197.2 177.8,198.1 175.2,198.1 175.2,199.4 177.6,199.4 177.6,200.2 175.2,200.2 175.2,201.5 178,201.5 
			178,202.4 174.2,202.4 174.2,197.2 		"/>
		<polygon points="197,197.2 197,198.1 194.4,198.1 194.4,199.4 196.8,199.4 196.8,200.2 194.4,200.2 194.4,201.5 197.2,201.5 
			197.2,202.4 193.4,202.4 193.4,197.2 		"/>
		<path d="M201.2,201.5c1.2,0,1.7-0.6,1.7-1.8c0-1.2-0.5-1.8-1.7-1.8h-0.8v3.5H201.2z M199.4,202.4v-5.2h1.8c1.8,0,2.7,1.1,2.7,2.6
			c0,1.5-0.9,2.6-2.7,2.6H199.4z"/>
		<path d="M171.7,197.7l-0.5,0.7c-0.4-0.3-0.9-0.4-1.4-0.4c-0.8,0-1,0.3-1,0.6c0,0.9,3,0.4,3,2.2c0,1-0.9,1.7-2.1,1.7
			c-0.9,0-1.6-0.3-2.2-0.9l0.5-0.6c0.5,0.5,1,0.7,1.7,0.7c0.8,0,1.1-0.4,1.1-0.8c0-1.1-3.1-0.4-3.1-2.3c0-0.8,0.8-1.5,2-1.5
			C170.5,197.1,171.2,197.4,171.7,197.7z"/>
		<path d="M159.5,202.4l-0.1-0.8c-0.1,0-0.2,0-0.3,0c-0.4,0-0.6-0.1-0.9-0.5c-0.1-0.1-0.2-0.3-0.3-0.5c-0.1-0.2-0.2-0.2-0.3-0.3
			c0.7-0.2,1.3-0.7,1.3-1.6c0-0.9-0.7-1.6-1.9-1.6h-2.1v5.2h1v-1.9c0,0,0.4,0,0.5,0c0.3,0,0.4,0.1,0.5,0.3c0.1,0.2,0.5,0.8,0.5,0.8
			c0.5,0.7,1,1,1.6,1C159.2,202.5,159.4,202.4,159.5,202.4z M157.1,199.7H156V198h1.1c0.6,0,0.9,0.3,0.9,0.8
			C158,199.4,157.6,199.7,157.1,199.7"/>
		<path d="M185.1,202.4l-0.1-0.8c-0.1,0-0.2,0-0.3,0c-0.4,0-0.6-0.1-0.9-0.5c-0.1-0.1-0.2-0.3-0.3-0.5c-0.1-0.2-0.2-0.2-0.3-0.3
			c0.7-0.2,1.3-0.7,1.3-1.6c0-0.9-0.7-1.6-1.9-1.6h-2.1v5.2h1v-1.9c0,0,0.4,0,0.5,0c0.3,0,0.4,0.1,0.5,0.3c0.1,0.2,0.5,0.8,0.5,0.8
			c0.5,0.7,1,1,1.6,1C184.8,202.5,185,202.4,185.1,202.4z M182.6,199.7h-1.1V198h1.1c0.6,0,0.9,0.3,0.9,0.8
			C183.5,199.4,183.2,199.7,182.6,199.7"/>
	</g>
</g>
<path id="Galleria_Burgas1.010" class="st2" d="M49.2,13.1v59.3H14.1v62.9h78.8v42.8h117v-42c1.4-9.4,7-16.6,7-16.6l-8.4-5.8h-27
	V55.8h33.4V13.1H49.2z"/>
<path id="Galleria_Burgas1.011" class="st2" d="M216.9,23.1v34.5h-33.5v54.2h25.3l9,6.4c5.9-6.4,14.6-11,19.9-12.7h43.5V40.3h10.2
	V23.1H216.9z"/>
<polygon id="Galleria_Burgas1.012" class="st2" points="293.4,23.1 307.6,23.1 307.6,45 314,45 314,105.3 282.7,105.3 282.7,42.2 
	293.4,42.2 "/>
<rect id="Galleria_Burgas1.016" x="315.6" y="45" class="st2" width="31.9" height="60.3"/>
<rect id="Galleria_Burgas1.016B" x="349.2" y="45" class="st2" width="20.8" height="60.3"/>
<rect id="Galleria_Burgas1.017_x5E_1.017A" x="381.3" y="12.4" class="st2" width="48.7" height="92.9"/>
<rect id="Galleria_Burgas1.018" x="431.5" y="45.9" class="st2" width="16.9" height="59.4"/>
<polygon id="Galleria_Burgas1.019" class="st2" points="431.5,44.3 431.5,12.4 505.6,12.4 505.6,43.5 491.5,43.5 491.5,105.3 
	450,105.3 450,44.3 "/>
<rect id="Galleria_Burgas1.019A" x="493.2" y="45.1" class="st2" width="20.8" height="60.3"/>
<rect id="Galleria_Burgas1.020" x="515.5" y="45.1" class="st2" width="20.9" height="60.3"/>
<rect id="Galleria_Burgas1.024" x="549.2" y="45.9" class="st2" width="18.8" height="59.9"/>
<polygon id="Galleria_Burgas1.025" class="st2" points="569.6,45.9 569.6,105.8 613.2,105.8 613.2,23.3 581,23.3 581,45.9 "/>
<polygon id="Galleria_Burgas1.026_x5E_NAD_x5F_15" class="st2" points="614.8,105.8 686.9,105.8 686.9,133.3 746.9,133.3 
	746.9,107.2 780.2,107.2 780.2,12.4 614.8,12.4 "/>
<rect id="Galleria_Burgas1.027" x="686.7" y="145" class="st2" width="60.3" height="33.4"/>
<rect id="Galleria_Burgas1.027A" x="686.7" y="180" class="st2" width="60.3" height="31.1"/>
<polygon id="Galleria_Burgas1.028" class="st2" points="686.7,212.8 686.7,309.6 748.6,309.6 748.6,322 780.2,322 780.2,169.3 
	748.5,169.3 748.5,212.8 "/>
<rect id="Galleria_Burgas1.032" x="686.7" y="310.9" class="st2" width="60.3" height="21.9"/>
<path id="Galleria_Burgas1.035_x5E_1.038" class="st2" d="M676.8,406
	c5-5.4,7.8-10.1,10.4-19.9V344h60.2v55.6h22v-4.8h10.9v109.8c0,0-44.7,2.8-91.9,1.8v-10.4h-7.2h-32.6v-78.9
	C665.1,416.8,676.8,406,676.8,406z"/>
<path id="Galleria_Burgas1.040" class="st2" d="M646.8,417.2h-31.7V504c28.7,1.7,72,2.4,72,2.4v-9.1H647L646.8,417.2z"/>
<path id="Galleria_Burgas0.042_x5E_1.044" class="st2" d="M613.6,417.2h-131v43.6h-48v19.7h-51.4v3.7
	c55.9,6.6,178.1,18.8,230.4,19.8V417.2z"/>
<rect id="Galleria_Burgas1.046" x="449.2" y="417.2" class="st2" width="31.7" height="42.1"/>
<polygon id="Galleria_Burgas1-047" class="st2" points="447.4,417.2 426.7,417.2 426.7,444.5 434.5,444.5 434.5,459.2 447.4,459.2 
	"/>
<polygon id="Galleria_Burgas1.048" class="st2" points="415.3,417.2 383.2,417.2 383.2,442.2 392.6,442.2 392.6,444.8 415.3,444.8 
	"/>
<polygon id="Galleria_Burgas1.049" class="st2" points="381.5,417.2 349.9,417.2 349.9,480.3 381.5,484.5 "/>
<polygon id="Galleria_Burgas1.050" class="st2" points="348.1,417.2 309.3,417.2 309.3,474.1 348.1,480.2 "/>
<polygon id="Galleria_Burgas1.052" class="st2" points="307.5,417.2 282.8,417.2 282.8,469.4 307.5,473.7 "/>
<polygon id="Galleria_Burgas1.054" class="st2" points="281.3,417.2 259,417.2 259,464.8 281.1,469.3 "/>
<polygon id="Galleria_Burgas0.001C_x5E_1.002_x5E_NA-Unt" class="st2" points="13,357.4 13,453.9 36.6,453.9 36.6,442.7 50.1,442.7 
	50.1,508.1 216.8,487 216.8,426.8 209.9,426.8 209.9,357.4 49.2,357.4 49.2,365.4 29.5,365.4 29.5,357.4 "/>
<polygon id="Galleria_BurgasBA1.10" class="st2" points="13,343.1 13,146.8 82.6,146.8 82.6,189.1 141.7,189.1 141.7,209.4 
	114.1,209.4 114.1,276.2 107.2,276.2 107.2,343.1 "/>
<polygon id="Galleria_Burgas1.004" class="st2" points="109,343.1 209.2,343.1 209.2,298.8 126.7,298.8 126.7,277.7 109,277.7 "/>
<rect id="Galleria_Burgas1.005" x="128.4" y="277.7" class="st2" width="80.8" height="19.3"/>
<polygon id="Galleria_Burgas1-007" class="st2" points="209.2,276.1 209.2,229.3 172.8,229.3 172.8,235.3 157.9,227 150.5,227 
	150.5,211.2 115.9,211.2 115.9,276.1 "/>
<polygon id="Galleria_Burgas1.007B" class="st2" points="152.1,211.2 152.1,225.4 158,225.4 171,232.9 171,227.6 209.2,227.6 
	209.2,211.2 "/>
<rect id="Galleria_Burgas1.008" x="149.6" y="189.9" class="st2" width="59.6" height="19.8"/>
<polygon id="Galleria_Burgas1.074_x5E_NAD_x5F_42" class="st2" points="614.2,154.9 614.6,211.5 631.7,211.5 631.7,172.1 "/>
<polygon id="Galleria_Burgas1.073" class="st2" points="612.8,154.9 587.1,154.9 587.1,211.5 613.5,211.5 "/>
<path id="Galleria_Burgas1.072" class="st2" d="M585.7,211.5h-37.4v-55.8
	c17.4-0.7,37.4-1,37.4-1V211.5z"/>
<path id="Galleria_Burgas1-068" class="st2" d="M546.6,155.7v57.1H558v32.5h-76.1v-86C516.5,156.3,546.6,155.7,546.6,155.7z"/>
<path id="Galleria_Burgas0.070_x5E_1.062_x5E_NA-Unt" class="st2" d="M480.1,159.4v93.9H503v14.8h-22.2v23.5H449v-23.5h-67.6v-4.4
	h-6v-34.8h-46.9l-4-2.2c9-19,11.5-40.5,11.7-53.1C399.3,166.3,470.3,158.8,480.1,159.4z"/>
<path id="Galleria_Burgas1.058" class="st2" d="M373.8,230.5v37.1h-55.2l-13-9.2c8.6-9.8,18.3-30.2,18.3-30.2l3.9,2.2L373.8,230.5z"
	/>
<path id="Galleria_Burgas1.096" class="st2" d="M298.2,265c-2.9,6.5-26.1,21.6-33.4,24.3v21h48.6v-33.2L298.2,265z"/>
<rect id="Galleria_Burgas1.094" x="264.8" y="311.7" class="st2" width="48.6" height="31.7"/>
<polygon id="Galleria_Burgas1.092" class="st2" points="311.8,344.6 264.8,344.6 264.8,350.7 282.1,367.9 311.8,367.9 "/>
<path id="Galleria_Burgas1.088" class="st2" d="M315,277.2v67.4h-1.6v23c41.3-0.3,99.8-4,99.8-4v-86.4H315z"/>
<path id="Galleria_Burgas1.086" class="st2" d="M414.8,293.1v70.5c13-0.1,32.9-2.3,32.9-2.3v-68.2H414.8z"/>
<path id="Galleria_Burgas1.085" class="st2" d="M449.1,293.1v68c11.1-0.8,32-3,32-3v-65.1H449.1z"/>
<path id="Galleria_Burgas1-084" class="st2" d="M482.1,278.3v79.8c9.5-0.9,30.9-3.4,30.9-3.4v-44.9h14v-31.6H482.1z"/>
<polygon id="Galleria_Burgas1.083" class="st2" points="527,311.6 514.6,311.6 514.6,354.5 527,353.1 "/>
<polygon id="Galleria_Burgas1.082" class="st2" points="528.5,311.6 528.5,352.8 547.3,350.4 547.3,311.6 "/>
<path id="Galleria_Burgas1.081" class="st2" d="M548.8,311.6v38.6l11.5-1.5c0.5-14.4,4.3-33.4,6.1-37.1H548.8z"/>
<path id="Galleria_Burgas1.080" class="st2" d="M528.5,309.8h38.4c3.3-12,15.1-31.6,15.1-31.6h-53.4V309.8z"/>
<path id="Galleria_Burgas1.077_x5E_WAD_x5F_32" class="st2" d="M559.8,213v54.4h31.1c15.5-12.5,25.9-18.1,40.8-20.2V213H559.8z"/>
</svg>
