<?xml version="1.0" encoding="UTF-8"?>
<svg id="Layer_4" xmlns="http://www.w3.org/2000/svg" viewBox="0 0 820.08 773.88">
  <defs>
    <style>
      .cls-1 {
        stroke-width: 2px;
      }

      .cls-1, .cls-2, .cls-3 {
        fill: none;
        stroke-miterlimit: 10;
      }

      .cls-1, .cls-3 {
        stroke: #231f20;
      }

      .cls-4 {
        letter-spacing: 0em;
      }

      .cls-2 {
        stroke: #000;
      }

      .cls-5, .cls-6 {
        fill: #f47725;
      }

      .cls-7 {
        letter-spacing: -.05em;
      }

      .cls-8 {
        fill: #f1f2f2;
      }

      .cls-9 {
        letter-spacing: .01em;
      }

      .cls-10 {
        font-size: 8.77px;
      }

      .cls-10, .cls-11, .cls-12, .cls-13, .cls-14, .cls-15 {
        fill: #231f20;
      }

      .cls-10, .cls-6, .cls-14, .cls-15 {
        font-family: Axiforma-Bold, 'Axiforma Bold';
        font-weight: 700;
      }

      .cls-16 {
        letter-spacing: 0em;
      }

      .cls-12 {
        font-family: BritannicBold, 'Britannic Bold';
        font-size: 22.39px;
      }

      .cls-17 {
        letter-spacing: 0em;
      }

      .cls-18 {
        letter-spacing: 0em;
      }

      .cls-6 {
        font-size: 36.9px;
      }

      .cls-19 {
        letter-spacing: -.03em;
      }

      .cls-13 {
        fill-rule: evenodd;
      }

      .cls-14 {
        font-size: 17.51px;
      }

      .cls-15 {
        font-size: 10.79px;
      }
    </style>
  </defs>
  <g id="cladire">
    <g>
      <path class="cls-8" d="M808.5,764.74c-19.35-6.46-37.5-12.43-55.05-18.21-14.88-4.89-30.26-9.96-46.56-15.38-25.49-8.48-53.57-18.3-75.12-26.28-77.54-28.71-152.57-61.62-223.01-97.83-124.59-64.04-236.58-137.27-332.83-217.65-.86-.72-2.77-2.27-5.43-4.43-8.75-7.11-25.04-20.35-39.07-32.4-7.86-6.75-13.96-12.23-18.14-16.29-6.26-6.09-9.9-10.1-7.63-14.35.29-.54,168.92-316.92,168.92-316.92h640.5v761.94l-6.58-2.2Z"/>
      <path class="cls-8" d="M810.08,10v750c-35.64-11.9-65.96-21.73-101.61-33.59-23.3-7.75-51.91-17.69-74.96-26.22-75.98-28.13-150.43-60.57-222.46-97.59-117.48-60.39-230.49-132.35-331.91-217.04-6.49-5.42-71.26-57.15-69.06-61.29,0,0,167.5-314.27,167.5-314.27h632.5M820.08,0H171.59l-2.82,5.3C167.09,8.43,1.57,318.98,1.26,319.57c-2.3,4.32-1.45,8.99,2.54,13.9,1.39,1.71,3.36,3.8,6.02,6.39,4.25,4.13,10.42,9.68,18.36,16.49,14.08,12.09,30.4,25.36,39.17,32.49,2.65,2.15,4.56,3.71,5.38,4.4,96.54,80.62,208.83,154.05,333.75,218.26,70.62,36.3,145.83,69.29,223.56,98.07,21.57,7.99,49.72,17.83,75.28,26.33,16.32,5.43,31.72,10.49,46.61,15.39,17.53,5.77,35.66,11.73,54.99,18.19l13.17,4.4V0h0Z"/>
      <path class="cls-1" d="M633.51,700.19c23.05,8.53,51.66,18.47,74.96,26.22,35.66,11.86,65.97,21.68,101.61,33.59V10H177.59S10.09,324.27,10.08,324.27c-2.2,4.14,62.57,55.87,69.06,61.29,101.42,84.69,214.44,156.66,331.91,217.04,72.02,37.02,146.48,69.46,222.46,97.59Z"/>
    </g>
  </g>
  <g id="magazine">
    <polyline class="cls-3" points="733.12 10 733.12 186.53 630.13 186.53 630.13 167.46 567.57 104.65 463.26 104.65 401.54 104.65 401.54 60.06 433.85 60.06 433.85 104.65"/>
    <polyline class="cls-3" points="384.84 10 384.84 104.04 368.86 104.04 358.64 114.73 178.87 114.73 134.26 91.3"/>
    <polyline class="cls-3" points="462.65 10 462.65 66.62 462.65 104.65"/>
    <line class="cls-3" x1="433.85" y1="67.12" x2="462.65" y2="67.12"/>
    <polyline class="cls-3" points="586.69 10 586.69 104.65 577.87 113.5 577.13 114.24"/>
    <line class="cls-3" x1="26.56" y1="293.36" x2="101.18" y2="352.5"/>
    <polyline class="cls-3" points="100.6 352.04 106.98 357.14 107.41 356.61 224.74 130.89 176.81 130.28 147.41 185.68 97.62 160.04"/>
    <polyline class="cls-3" points="107.03 408.3 111.22 402.56 112.31 400.99 94.52 389.31 149.71 318.12 262.85 395.63 257.29 404.5 388.5 482.29 367.77 522.84 351.07 513.97 329.27 558.22"/>
    <polyline class="cls-3" points="436.13 615.26 442.8 603.39 418.12 590.27 434.94 558.19 380.84 529.03 403.72 486.39 418.12 486.39 536.83 544.95 554.26 544.95 569.14 551.27 569.75 675.41"/>
    <polyline class="cls-3" points="810.08 644.94 800.52 636.68 736.75 636.68 736.75 487.36 793.87 487.36 793.87 435.36 643.11 435.36 630.74 435.36 630.74 699.16"/>
    <polyline class="cls-3" points="810.08 420.29 630.74 420.29 630.74 203.67 708.43 203.67 708.43 234.28 708.43 247.89 630.74 247.77"/>
    <polyline class="cls-3" points="708.43 235.62 750.18 235.62 750.18 247.89 810.08 247.89"/>
    <path class="cls-3" d="M288.87,157.25h249.77l34.25,34.02v292.2l-37.64,14.58c-114.27-52.96-225.6-118.86-334.61-195l9.68-18.83h35.7v18.35h38.12v8.26h51.43v-74.6h-53v-55.89l-3.75-2.31,10.04-20.78Z"/>
    <line class="cls-3" x1="335.58" y1="236.23" x2="335.58" y2="157.25"/>
    <polyline class="cls-3" points="335.58 310.83 335.58 379.35 329.46 387.41"/>
    <polyline class="cls-3" points="425.68 442.91 433.49 432.2 433.49 386.52 383.99 386.52 341.27 386.52 338.05 392.63"/>
    <polyline class="cls-3" points="482.25 270.25 531.02 270.25 531.02 236.47 572.17 236.47"/>
    <line class="cls-3" x1="482.25" y1="306.99" x2="572.89" y2="306.99"/>
    <polyline class="cls-3" points="572.17 436.21 483.95 436.21 441.47 436.21 436.45 447.08"/>
    <line class="cls-3" x1="483.46" y1="472.66" x2="483.46" y2="436.21"/>
    <polyline class="cls-3" points="543.8 435.84 543.8 468.65 533.2 468.65 533.2 497.1"/>
    <line class="cls-3" x1="282.58" y1="236.23" x2="282.58" y2="302.56"/>
    <line class="cls-3" x1="284.15" y1="310.83" x2="284.15" y2="359.03"/>
    <polyline class="cls-3" points="383.56 385.5 383.56 336.32 481.92 336.32 481.92 157.66"/>
  </g>
  <g id="logo">
    <text class="cls-14" transform="translate(627.98 86.99) scale(.85 1)"><tspan x="0" y="0">BERSH</tspan><tspan class="cls-9" x="47.57" y="0">K</tspan><tspan x="57.23" y="0">A</tspan></text>
    <g>
      <polygon class="cls-11" points="78.2 216.47 82.82 218.36 88.17 227.49 88.17 220.03 91.98 221.01 91.98 235.23 88.5 235.23 82.22 224.71 82.22 235.23 78.2 235.23 78.2 216.47 78.2 216.47"/>
      <polygon class="cls-11" points="93.63 221.4 93.63 235.23 102.49 235.23 102.49 231.99 97.69 231.99 97.69 229.81 101.57 229.85 101.57 227.35 97.69 227.03 97.69 225.27 101.66 225.69 101.66 222.72 93.63 221.4 93.63 221.4"/>
      <polygon class="cls-11" points="102.57 222.86 105.3 235.23 108.71 235.23 111.02 228.7 112.68 235.23 116.02 235.23 119 224.58 115.76 224.39 114.25 229.81 112.77 224.06 109.59 223.79 107.51 229.85 106.24 223.39 102.57 222.86 102.57 222.86"/>
      <polygon class="cls-11" points="122.56 235.23 124.78 235.23 124.78 224.76 131.61 214.7 126.67 214.7 122.56 221.54 118.46 214.7 113.52 214.7 120.35 224.76 120.35 235.23 122.56 235.23 122.56 235.23"/>
      <path class="cls-11" d="M130.97,224.07l-3.33.22-1.61,1.51v1.71s0,5.99,0,5.99l1.65,1.73h3.22s1.57-1.76,1.57-1.76v-7.94s-1.5-1.46-1.5-1.46h0ZM130.14,233.15h-1.67v-6.44h1.67s0,6.44,0,6.44h0Z"/>
      <path class="cls-11" d="M139.97,224.7l-1.22-1.25-5.22.5v11.27h2.57v-4.54s1.41,0,1.41,0v4.54h2.47s0-5.12,0-5.12l-.81-.9.81-.95v-3.55h0ZM137.5,228.3h-1.41s0-2.49,0-2.49h1.41v2.49h0Z"/>
      <polygon class="cls-11" points="141.26 223.04 141.26 235.22 144.35 235.22 144.35 230.2 146.85 235.22 150.08 235.22 146.58 228.1 149.65 221.7 146.42 222.27 144.35 226.42 144.35 222.62 141.26 223.04 141.26 223.04"/>
      <polygon class="cls-11" points="150.26 221.6 156.73 220.1 156.73 222.97 153.77 223.69 153.77 225.77 156.7 225.4 156.7 228.74 153.77 228.97 153.77 231.89 156.89 231.89 156.89 235.22 150.26 235.22 150.26 221.6 150.26 221.6"/>
      <path class="cls-13" d="M161.4,225.17v-3.37s2.08-.57,2.08-.57v3.68l-2.08.26h0ZM158.08,235.22h3.32v-6.6l2.08-.12v6.72h3.53s0-7.18,0-7.18l-1.18-1.62,1.08-1.74v-5.65l-1.5-1.74-7.34,2.43v15.5h0Z"/>
    </g>
    <g>
      <rect class="cls-11" x="415.92" y="245.19" width="4.05" height="16.12"/>
      <polygon class="cls-11" points="401.15 245.34 396.04 261.31 391.55 261.31 388.12 250.6 384.69 261.31 380.2 261.31 375.09 245.34 379.21 245.34 382.44 255.45 385.68 245.34 390.56 245.34 393.79 255.45 397.03 245.34 401.15 245.34"/>
      <polygon class="cls-11" points="343.68 245.19 347.73 245.19 347.73 257.78 355.08 257.78 355.08 261.31 347.73 261.31 343.68 261.31 343.68 257.78 343.68 245.19"/>
      <polygon class="cls-11" points="426.21 253.93 426.21 261.31 422.16 261.31 422.16 245.19 426.21 245.19 426.21 251.35 430.87 245.19 436.12 245.19 430.5 252.62 436.89 261.31 431.64 261.31 426.21 253.93"/>
      <rect class="cls-11" x="437.43" y="245.19" width="4.05" height="16.12"/>
      <polygon class="cls-11" points="447.52 253.93 447.52 261.31 443.46 261.31 443.46 245.19 447.52 245.19 447.52 251.35 452.17 245.19 457.42 245.19 451.8 252.62 458.2 261.31 452.95 261.31 447.52 253.93"/>
      <rect class="cls-11" x="459.01" y="245.19" width="4.05" height="16.12"/>
      <path class="cls-13" d="M354.94,252.48c0-4.24,3.42-7.68,7.64-7.68h1.91c3.45,0,6.37,2.3,7.32,5.45h-4.14c-.78-1.43-2.29-2.4-4.03-2.4h-.06c-2.53,0-4.59,2.06-4.59,4.61v1.69c0,2.54,2.05,4.61,4.59,4.61h.06c1.74,0,3.26-.97,4.03-2.41h4.14c-.95,3.15-3.87,5.45-7.32,5.45h-1.91c-4.22,0-7.64-3.44-7.64-7.68v-1.64Z"/>
      <path class="cls-13" d="M401.52,246.12s5.75-2.83,10.38-.05c0,0,2.26,1.44,2.21,5.67l.05,9.75h-3.65s0-7.43,0-7.43c0,0-6.37-.57-6.52,2.27-.15,2.84,2.52,2.48,2.52,2.48,0,0,2.26-.25,3.08-1.75v3.14s-1.9,1.91-4.67,1.7-4.31-2.22-4.31-2.22c0,0-1.44-1.75-.46-4.69.97-2.94,4.63-3.36,4.63-3.36,0,0,1.49-.26,5.18-.21,0,0,.31-2.52-1.33-3.04-1.64-.52-4.11-.1-4.11-.1,0,0-2.26.57-3.96,1.8l.97-3.97Z"/>
    </g>
    <g>
      <path class="cls-11" d="M528.67,564.26c-1.22.55-2.18-.03-3.67,3.06-4.7,9.7-8.36,17.57-12.71,28.89.13-9.3,1.78-16.7,2.77-25.76.18-1.67.44-3.97.4-5.7-.03-1.33-1.35-1.51-4.02-.19-1.48.73-3.27.67-3.95,2.44-2.9,7.53-9.59,28.47-12.69,40.32-.75,2.85,2.06,3.32,2.9.4,2.04-7.06,6.71-22.67,9.49-30.72-.28,7.36-2.28,19-1.35,25.11.29,1.92,2.08,2.75,3,4.37.65,1.16,1.7,1.27,2.28-.31,2.72-7.45,8.01-20.58,13.12-31.09-1,4.63-4.84,24.25-5.91,32.07-.22,1.57,1.7,1.61,3.4,3.97.38.53,1.85,1.11,2.12-.25.91-4.69,6.84-35.16,9.16-44.84.62-2.61.45-3.92-4.34-1.78Z"/>
      <path class="cls-11" d="M489.9,586.4c2.04-3.06,2.63-2.44,3.12-3.37.61-1.17.21-2.26-1.97-1.99,0,0-.83.06-2.35.23,2.42-6.25,4.54-11.56,6.06-15.59.52-1.37.59-2.37-.26-2.57-.9-.22-3.52,1.2-5.12,1.48-.51.09-1,.63-1.17,1.02-2.57,5.93-4.88,11.59-6.87,16.74-2.56.44-5.55,1.01-8.89,1.77,2.39-6.17,4.81-12.25,7.17-18.1,1.16-2.88-1.9-3.15-3.08-.23-1.54,3.79-4.43,10.89-7.62,19.17-2.35.58-4.84,1.24-7.44,1.99-1.89.55-1.97,1.05-1.15,2.19.46.63,1.39.57,1.81,1.02,1.1,1.17,1.77,2.57,3.75,2.78-1.76,4.73-3.52,9.6-5.12,14.3-1,2.95,1.85,3.55,2.95.43,1.77-5.03,3.63-10.12,5.54-15.19,1.59-.37,5.45-1.21,9.02-1.98-2.83,7.78-4.69,13.69-5.39,16.57-.13.55.09.86.21,1.09.95,1.39,1.86,1.45,3.09,3.18.33.47,1.45.72,1.83-.43,2.62-7.95,5.31-15.4,7.83-22.09,1.04-.23,2.92-.68,4.07-2.41Z"/>
      <path class="cls-11" d="M491.83,598.53c-.18.16-.38.34-.57.53-.22-.68-.44-1.38-.65-2.03.62-.76,1.21-1.51,1.72-2.3,2.1-3.29-2.06-5.18-3.85-3.05-.96,1.14-.72,2.26-.46,3.22.08.3.21.72.36,1.23-.51.53-1.13,1.19-1.94,2.14-2.03,2.37-1.48,5.44.7,6.12,1.32.41,2.56-.19,3.63-1.14.05.14.11.27.15.4.57,1.43,2.33,1,1.66-.73-.12-.3-.26-.7-.43-1.17.34-.44.66-.89.94-1.3,1.29-1.93.04-3.06-1.27-1.92ZM490.45,594.01c-.2.22-.38.42-.57.62-.05-.17-.09-.32-.12-.45-.6-2.3,2.02-1.67.69-.17ZM489.03,601c-.8.49-1.43-.04-.36-1.51.18-.25.36-.49.54-.73.18.56.37,1.13.56,1.69-.25.21-.5.39-.75.55Z"/>
    </g>
    <g>
      <path class="cls-11" d="M647.66,570.16h2.31c.83,0,1.4-.15,1.73-.43.32-.29.48-.71.48-1.26,0-.51-.16-.91-.48-1.19-.33-.29-.89-.43-1.7-.43h-2.34v3.31h0ZM639.41,560.14h13.8c6.91,0,10.12,8.3,5.2,13.28,4.87,4.53,3.98,10.35-.29,12.9-1.54.92-3.76,1.08-5.98,1.08h-12.72v-27.25h0ZM647.66,580.62h2.78c1,0,1.69-.15,2.09-.43.39-.29.58-.71.58-1.26,0-.51-.19-.91-.58-1.19-.4-.29-1.07-.43-2.04-.43h-2.82v3.31h0Z"/>
      <polygon class="cls-11" points="663.67 559.35 671.86 559.35 671.86 587.39 663.67 587.39 663.67 559.35 663.67 559.35"/>
      <polygon class="cls-11" points="689.74 559.33 697.78 559.33 697.78 579.86 702.95 579.86 702.95 587.39 689.74 587.39 689.74 559.33 689.74 559.33"/>
      <path class="cls-11" d="M717.81,583.66h-5.48l-.81,3.73h-7.81l7.02-27.84,8.23.21,7.6,27.64h-8.1l-.65-3.73h0ZM716.33,578.15l-1.24-4.03-1.3,4.03h2.54Z"/>
      <polygon class="cls-11" points="674.49 559.33 682.53 559.33 682.53 579.86 687.71 579.86 687.71 587.39 674.49 587.39 674.49 559.33 674.49 559.33"/>
      <path class="cls-11" d="M726.13,559.27c.36,0,.71.09,1.05.28.34.18.61.45.8.79.19.34.29.7.29,1.07s-.09.72-.28,1.06c-.19.34-.45.61-.79.79-.34.19-.69.28-1.06.28s-.72-.09-1.06-.28c-.34-.19-.6-.45-.79-.79-.19-.34-.28-.69-.28-1.06s.1-.73.29-1.07c.19-.34.46-.61.8-.79.34-.18.69-.28,1.05-.28h0ZM726.13,559.63c-.3,0-.59.08-.87.23-.28.15-.51.37-.67.66-.16.29-.24.58-.24.9s.08.6.24.89c.16.28.38.5.66.66.28.16.58.24.88.24s.6-.08.88-.24c.28-.16.5-.38.66-.66.16-.28.23-.58.23-.89s-.08-.61-.24-.9c-.16-.29-.38-.51-.67-.66-.28-.15-.58-.23-.87-.23h0ZM725.2,562.6v-2.3h.79c.27,0,.46.02.59.06.12.04.22.12.29.22.07.11.11.22.11.34,0,.17-.06.31-.18.44-.12.13-.28.19-.48.21.08.03.15.07.19.12.09.09.21.24.34.46l.28.45h-.45l-.2-.36c-.16-.28-.29-.46-.39-.54-.07-.05-.17-.08-.3-.08h-.22v.98h-.37ZM725.57,561.3h.45c.21,0,.36-.03.44-.1.08-.06.12-.15.12-.26,0-.07-.02-.13-.06-.18-.04-.05-.09-.09-.16-.12-.07-.03-.19-.04-.37-.04h-.42v.7h0Z"/>
    </g>
    <g>
      <path class="cls-11" d="M695.74,353.21c-4.67,2.85-9.77,4.25-15.21,4.25-6.35,0-11.51-1.96-15.41-5.92-4.12-4.11-6.17-9.4-6.17-15.88s2.02-11.8,6.14-15.84c4.08-4.04,9.56-6.07,16.39-6.07,4.81,0,9.45,1.18,13.92,3.48v9.88c-4.36-3-8.79-4.51-13.25-4.51-4.01,0-7.18,1.18-9.49,3.51-2.3,2.33-3.45,5.51-3.45,9.55s1.08,7.03,3.28,9.4c2.2,2.41,5.16,3.59,8.89,3.59,4.78,0,9.56-1.78,14.37-5.33v9.88h0Z"/>
      <path class="cls-11" d="M778.71,353.21c-4.67,2.85-9.77,4.25-15.2,4.25-6.35,0-11.51-1.96-15.41-5.92-4.12-4.11-6.17-9.4-6.17-15.88s2.02-11.8,6.14-15.84c4.08-4.04,9.56-6.07,16.39-6.07,4.81,0,9.45,1.18,13.91,3.48v9.88c-4.36-3-8.79-4.51-13.25-4.51-4.01,0-7.18,1.18-9.49,3.51-2.3,2.33-3.45,5.51-3.45,9.55s1.08,7.03,3.28,9.4c2.2,2.41,5.16,3.59,8.89,3.59,4.78,0,9.56-1.78,14.37-5.33v9.88h0Z"/>
      <path class="cls-11" d="M737.21,353.21c-4.67,2.85-9.77,4.25-15.17,4.25-6.35,0-11.51-1.96-15.42-5.92-4.11-4.11-6.17-9.4-6.17-15.88s2.02-11.8,6.14-15.84c4.08-4.04,9.56-6.07,16.39-6.07,4.78,0,9.42,1.18,13.88,3.48v9.88c-4.36-3-8.79-4.51-13.22-4.51-4.01,0-7.18,1.18-9.49,3.51-2.3,2.33-3.45,5.51-3.45,9.55s1.08,7.03,3.28,9.4c2.2,2.41,5.16,3.59,8.89,3.59,4.74,0,9.52-1.78,14.33-5.33v9.88h0Z"/>
    </g>
    <text class="cls-14" transform="translate(492.44 217.07) scale(.85 1)"><tspan x="0" y="0">ANDR</tspan><tspan class="cls-17" x="43.31" y="0">E</tspan><tspan x="52.08" y="0">WS</tspan></text>
    <g>
      <path class="cls-11" d="M521.54,277.32v3.21h3.14v-3.21h.85v7.67h-.85v-3.6h-3.14v3.6h-.84v-7.67h.84Z"/>
      <path class="cls-11" d="M530.35,281.4h-2.53v2.77h2.82v.83h-3.66v-7.67h3.51v.83h-2.67v2.42h2.53v.82Z"/>
      <path class="cls-11" d="M531.73,277.42c.42-.1,1.03-.16,1.61-.16.9,0,1.48.19,1.88.63.33.34.51.87.51,1.46,0,1.01-.54,1.68-1.22,1.96v.03c.5.2.8.75.95,1.55.21,1.07.37,1.81.5,2.11h-.87c-.11-.22-.25-.88-.43-1.83-.19-1.06-.54-1.46-1.3-1.49h-.79v3.32h-.84v-7.57ZM532.57,280.92h.86c.9,0,1.46-.58,1.46-1.46,0-.99-.61-1.42-1.49-1.43-.41,0-.69.05-.83.09v2.8Z"/>
      <path class="cls-11" d="M542.39,281.62c-.05-1.07-.11-2.36-.1-3.31h-.03c-.22.9-.49,1.86-.82,2.91l-1.15,3.72h-.64l-1.05-3.65c-.31-1.08-.57-2.07-.75-2.98h-.02c-.02.96-.07,2.24-.12,3.39l-.17,3.29h-.8l.45-7.67h1.07l1.11,3.71c.27.94.49,1.79.66,2.58h.03c.16-.77.4-1.62.68-2.58l1.16-3.71h1.07l.41,7.67h-.82l-.16-3.37Z"/>
      <path class="cls-11" d="M548.03,281.4h-2.53v2.77h2.82v.83h-3.65v-7.67h3.51v.83h-2.67v2.42h2.53v.82Z"/>
      <path class="cls-11" d="M549.29,283.79c.38.27.93.5,1.5.5.86,0,1.36-.54,1.36-1.31,0-.72-.35-1.13-1.22-1.53-1.06-.44-1.72-1.09-1.72-2.17,0-1.2.84-2.08,2.1-2.08.67,0,1.15.18,1.44.38l-.23.81c-.21-.14-.65-.36-1.23-.36-.89,0-1.22.63-1.22,1.15,0,.72.4,1.07,1.29,1.48,1.1.5,1.66,1.13,1.66,2.25,0,1.18-.74,2.21-2.28,2.21-.63,0-1.31-.22-1.66-.49l.21-.83Z"/>
      <path class="cls-11" d="M523.19,288.8c.37-.09.95-.16,1.53-.16.84,0,1.38.17,1.78.56.34.3.54.75.54,1.35,0,.74-.41,1.39-1.1,1.69v.02c.62.18,1.34.79,1.34,1.92,0,.66-.22,1.16-.55,1.54-.45.49-1.19.72-2.25.72-.58,0-1.02-.05-1.3-.09v-7.55ZM524.03,291.94h.76c.89,0,1.41-.55,1.41-1.29,0-.9-.58-1.25-1.43-1.25-.39,0-.61.03-.74.07v2.47ZM524.03,295.62c.16.03.4.05.7.05.87,0,1.67-.38,1.67-1.49,0-1.05-.76-1.48-1.68-1.48h-.69v2.93Z"/>
      <path class="cls-11" d="M533.97,292.46c0,2.64-1.36,4.04-3.02,4.04s-2.92-1.57-2.92-3.89c0-2.44,1.28-4.03,3.02-4.03s2.92,1.6,2.92,3.88ZM528.92,292.58c0,1.64.75,3.11,2.07,3.11s2.08-1.45,2.08-3.19c0-1.53-.67-3.12-2.07-3.12s-2.08,1.51-2.08,3.2Z"/>
      <path class="cls-11" d="M540.61,292.46c0,2.64-1.36,4.04-3.02,4.04s-2.92-1.57-2.92-3.89c0-2.44,1.28-4.03,3.02-4.03s2.92,1.6,2.92,3.88ZM535.57,292.58c0,1.64.75,3.11,2.07,3.11s2.08-1.45,2.08-3.19c0-1.53-.67-3.12-2.07-3.12s-2.08,1.51-2.08,3.2Z"/>
      <path class="cls-11" d="M541.7,288.7h.84v3.7h.03c.17-.3.35-.57.51-.82l1.99-2.88h1.04l-2.35,3.26,2.54,4.42h-.99l-2.14-3.77-.62.84v2.93h-.84v-7.67Z"/>
      <path class="cls-11" d="M546.81,295.16c.38.27.93.5,1.5.5.86,0,1.36-.54,1.36-1.31,0-.72-.35-1.13-1.22-1.53-1.06-.44-1.72-1.09-1.72-2.17,0-1.2.84-2.08,2.1-2.08.67,0,1.15.18,1.44.38l-.23.81c-.21-.14-.65-.36-1.23-.36-.89,0-1.22.63-1.22,1.15,0,.72.4,1.07,1.29,1.48,1.1.5,1.66,1.13,1.66,2.25,0,1.18-.74,2.21-2.28,2.21-.63,0-1.31-.22-1.66-.49l.21-.83Z"/>
    </g>
    <g id="Brandingmodul_x5F_Deichmann_x5F_quadratisch_x5F_vertikal">
      <path id="Deichmann" class="cls-11" d="M446.52,367.85c.01,1.66-.7,3.36-2.68,3.37l-2.56.02-.04-6.67h2.28c1.86-.02,2.99,1.03,3,3.29M450.07,367.85c-.02-3.34-2.05-6.03-6.06-6.01-.24,0-6.27.04-6.27.04l.07,12.09s6.01-.04,6.27-.04c4.01-.03,6-2.75,5.98-6.08M452.12,373.88l10.18-.06-.02-2.61-6.7.04v-2.18s5.54-.03,5.54-.03v-2.51s-5.57.03-5.57.03v-2.18s6.69-.04,6.69-.04l-.02-2.61-10.18.06.07,12.09ZM464.78,373.8l3.48-.02-.07-12.09-3.48.02.07,12.09ZM474.06,367.69c-.01-2.03.7-3.78,2.85-3.79,1.47-.01,2.19.89,2.48,1.92l3.46-.02c-.19-2.7-2.51-4.59-5.95-4.57-4.34.02-6.4,2.92-6.38,6.48.02,3.56,2.12,6.43,6.46,6.4,3.61-.02,5.75-2.08,5.91-4.71l-3.45.02c-.19,1.07-.89,1.96-2.48,1.97-2.15.01-2.88-1.68-2.89-3.71M493.41,373.62l3.48-.02-.07-12.09-3.48.02.03,4.61-5.1.03-.03-4.61-3.48.02.07,12.09,3.48-.02-.03-4.78,5.1-.03.03,4.78ZM511.58,373.51l3.2-.02-.07-12.09-5.02.03-2.34,7.99h-.03s-2.43-7.96-2.43-7.96l-5.02.03.07,12.09,3.21-.02-.06-9.04h.03s2.8,9.03,2.8,9.03l2.87-.02,2.69-9.06h.03l.06,9.04ZM524.46,368.96l-2.93.02,1.42-4.58h.03l1.48,4.56ZM525.93,373.42l3.73-.02-4.56-12.06-4.26.02-4.46,12.12,3.73-.02.62-1.97,4.56-.03.64,1.96ZM539.44,373.34l3.84-.02-.07-12.09-3.36.02.05,7.57h-.03l-4.89-7.54-4,.02.07,12.09,3.36-.02-.05-7.64h.03s5.05,7.61,5.05,7.61ZM558.6,373.22l-.07-12.09-3.36.02.05,7.57h-.03s-4.89-7.54-4.89-7.54l-4.01.02.07,12.09,3.36-.02-.05-7.64h.03s5.05,7.61,5.05,7.61l3.85-.02Z"/>
    </g>
    <text class="cls-15" transform="translate(499.83 454.44) scale(.85 1)"><tspan x="0" y="0">A</tspan><tspan class="cls-16" x="6.6" y="0">R</tspan><tspan x="12.5" y="0">T 93</tspan></text>
    <text class="cls-10" transform="translate(221.96 313.77)"><tspan x="0" y="0">J</tspan><tspan class="cls-19" x="3.24" y="0">O</tspan><tspan x="9.04" y="0">Y OPTICS</tspan></text>
    <path class="cls-5" d="M318.91,266.27c0-1.16-.94-2.1-2.1-2.1h-13.69c-1.16,0-2.1.94-2.1,2.1v13.74c0,1.16.94,2.1,2.1,2.1h13.69c1.16,0,2.1-.94,2.1-2.1v-13.74ZM313.87,266.82c.58,0,1.05.47,1.05,1.05s-.47,1.05-1.05,1.05-1.05-.47-1.05-1.05.46-1.05,1.05-1.05ZM305.8,266.82c.58,0,1.05.47,1.05,1.05s-.47,1.05-1.05,1.05-1.04-.47-1.04-1.05.47-1.05,1.04-1.05ZM307.89,269.83l-.29,3.52c-.02.22-.16.41-.37.49h0c-.21.08-.35.28-.37.5l-.27,4.56c-.02.31-.27.55-.58.55h-.39c-.31,0-.56-.24-.58-.55l-.27-4.56c-.01-.23-.16-.43-.37-.5-.21-.08-.35-.27-.37-.5l-.29-3.51c-.02-.29.17-.55.45-.62l.29-.06c.2-.04.39.01.53.15l.4.41c.23.22.59.22.82,0l.41-.41c.14-.14.34-.2.53-.15l.29.06c.26.07.45.34.43.62ZM310.11,279.45c0,.15-.13.28-.28.28s-.28-.13-.28-.28v-12.62c0-.16.13-.28.28-.28s.28.12.28.28v12.62ZM315.92,273.83c-.2.05-.32.24-.29.44l.12.9c.03.21-.12.42-.33.44l-.27.03c-.18.03-.32.18-.33.37l-.18,2.89c-.02.31-.27.54-.58.54h-.39c-.31,0-.56-.24-.58-.54l-.18-2.89c-.01-.19-.15-.34-.33-.37l-.27-.03c-.21-.03-.36-.23-.33-.44l.12-.9c.03-.2-.1-.39-.29-.44-.2-.05-.33-.25-.28-.46l.79-3.76c.05-.27.36-.4.59-.25l.74.48c.12.08.29.08.43,0l.74-.48c.23-.15.54-.02.59.25l.79,3.76c.03.2-.09.41-.29.46Z"/>
    <text class="cls-6" transform="translate(258.35 703.26)"><tspan x="0" y="0">× </tspan><tspan class="cls-7" x="29.82" y="0">5</tspan><tspan class="cls-4" x="46.87" y="0">9</tspan><tspan class="cls-18" x="65.66" y="0">0</tspan></text>
    <path class="cls-5" d="M178.98,712.46l2-3c1.13-1.69,3.02-2.7,5.05-2.7h32.11c2.03,0,3.93,1.02,5.05,2.7l2,3c1.03-.14,2.05-.33,3.06-.55l12.3-2.73v-9.5c-.39.12-.79.22-1.21.32-2.31.54-4.33.67-6.89.67-1.32,0-3.33-.14-4.96-.4-2.27-.36-3.85-.85-4.62-1.87-3.56,1.39-7.43,1.85-11.24,1.31-5.01-.71-8.23-1.06-9.55-1.06s-4.55.36-9.56,1.06c-3.92.55-7.9.05-11.54-1.44-.04.03-.09.06-.14.09-1.23.73-2.66,1.26-4.27,1.63-2.31.54-4.33.67-6.89.67-1.32,0-3.33-.14-4.96-.4-.39-.06-.76-.13-1.11-.2v9.1l12.3,2.73c1.01.23,2.03.41,3.06.55ZM183.6,712.82c.22,0,.44,0,.66,0h35.66c.22,0,.44,0,.66,0l-.75-1.12c-.38-.56-1.01-.9-1.68-.9h-32.11c-.68,0-1.31.34-1.68.9l-.75,1.12ZM163.62,695.87c.42.15,1.02.29,1.76.41,1.4.23,3.2.35,4.32.35,2.27,0,4.04-.12,5.98-.57.08-.02.15-.04.23-.06-4.55-1.88-8.65-2.99-12.28-3.32,0,.06,0,.12,0,.18v3ZM159.57,696.63s0,0,0,0v-3.76c0-1.38.36-2.75,1.03-3.96l3.9-6.96-7.31-1.16h0c-.17-.03-.33-.08-.48-.15-.82-.41-1.15-1.41-.74-2.23l.6-1.19c.26-.53.75-.92,1.32-1.06h0l5.35-1.34c1.04-.26,2.09.33,2.42,1.35h0l.66,2.06,5.61-15.43c1.45-4,5.26-6.66,9.51-6.66h41.3c4.26,0,8.06,2.66,9.51,6.66l5.47,15.04.41-1.57c.28-1.06,1.36-1.71,2.43-1.46l5.67,1.35c.57.14,1.05.51,1.32,1.03l.63,1.21c.42.8.11,1.79-.69,2.22-.16.08-.33.14-.5.17l-7.32,1.16,3.9,6.96c.68,1.21,1.03,2.57,1.03,3.96v3.69s0,.1,0,.14v20.18c0,3.35-2.72,6.07-6.07,6.07h-10.12c-3.35,0-6.07-2.72-6.07-6.07,0-.02,0-.05,0-.07-.81.05-1.61.07-2.42.07h-35.66c-.81,0-1.62-.02-2.42-.07,0,.02,0,.05,0,.07,0,3.35-2.72,6.07-6.07,6.07h-10.12c-3.35,0-6.07-2.72-6.07-6.07v-20.24ZM240.56,695.39v-2.52c0-.06,0-.12,0-.17-3.8.36-8.07,1.53-12.79,3.52.12.02.24.04.37.06,1.4.23,3.2.35,4.32.35,2.27,0,4.04-.12,5.98-.57.78-.18,1.49-.41,2.12-.67ZM165.31,688.8c4.83.64,10.23,2.4,16.19,5.28,3.25,1.57,6.89,2.13,10.46,1.63,5.21-.74,8.54-1.1,10.12-1.1s4.91.37,10.12,1.1c3.57.51,7.21-.06,10.46-1.63,5.93-2.86,11.34-4.62,16.21-5.27l-3.44-6.15-9.09,1.52c-1.21.2-2.43.3-3.66.3h-41.19c-1.23,0-2.45-.1-3.66-.3l-9.09-1.52-3.43,6.14ZM226.33,716.39c.04.16.06.32.06.49,0,1.12.91,2.02,2.02,2.02h10.12c1.12,0,2.02-.91,2.02-2.02v-3.55l-11.42,2.54c-.93.21-1.87.38-2.81.53ZM177.85,716.39c-.94-.14-1.88-.32-2.81-.53l-11.42-2.54v3.55c0,1.12.91,2.02,2.02,2.02h10.12c1.12,0,2.02-.91,2.02-2.02,0-.17.02-.33.06-.49ZM228.45,664.18c-.87-2.4-3.15-4-5.71-4h-41.3c-2.55,0-4.84,1.6-5.71,4l-5.33,14.65,8.09,1.35c.99.17,1.99.25,3,.25h41.19c1,0,2.01-.08,3-.25l8.09-1.35-5.33-14.65Z"/>
    <g>
      <polygon class="cls-5" points="598.34 723.9 591.27 728.78 591.28 722.87 598.35 717.99 605.4 722.89 605.39 728.8 598.34 723.9"/>
      <polygon class="cls-5" points="598.33 731.99 591.26 736.87 591.27 730.96 598.33 726.08 605.39 730.99 605.38 736.89 598.33 731.99"/>
      <polygon class="cls-5" points="598.31 740.09 591.24 744.96 591.25 739.06 598.32 734.18 605.37 739.08 605.36 744.99 598.31 740.09"/>
    </g>
    <g>
      <path class="cls-11" d="M227.76,51.9l2.15,2.15v5.18h-5.28v-1.65c0-1.52-.04-1.69-.57-2.22-.57-.53-.7-.55-3.19-.59-2.6-.02-2.62-.02-3.23.57l-.61.59v10.99l.57.59c.57.59.59.59,3.23.59s2.66,0,3.23-.59c.51-.53.57-.76.57-2.01v-1.42h5.28v4.75l-4.33,4.33h-9.51l-4.33-4.33v-14.79l4.33-4.33h9.51l2.18,2.18Z"/>
      <path class="cls-11" d="M249.67,66.63l3.7-3.7v-8.89l-2.2-2.15-2.18-2.15h-13.8v23.45h5.05l.06-2.92.06-2.89,1.35-.06,1.37-.06,7.52,7.52,3.59-3.59-4.54-4.54ZM247.52,61.81l-.57.59h-6.68v-3.76c0-2.07.04-3.82.08-3.87.04-.04,1.54-.06,3.34-.02,3.17.06,3.25.08,3.82.61.57.55.57.59.57,3.21s-.02,2.66-.57,3.23Z"/>
      <path class="cls-11" d="M277.18,53.15l-3.44-3.42h-5.89l-10.46,10.46v6.13l6.87,6.87h5.89l10.48-10.44v-6.17l-3.44-3.42ZM275.55,60.4l-3.84,3.84c-3.72,3.72-3.89,3.87-4.71,3.87-.76,0-.97-.15-2.68-1.84-1.8-1.78-1.86-1.88-1.86-2.81v-.95l3.84-3.84c3.72-3.72,3.89-3.87,4.71-3.87.76,0,.97.15,2.68,1.84,1.8,1.78,1.86,1.88,1.86,2.81v.95Z"/>
      <path class="cls-11" d="M300.61,51.88l-2.18-2.15h-6.91c-3.78,0-6.89.04-6.89.11v23.24l5.07.13v-5.3h8.77l4.33-4.33v-9.53l-2.2-2.15ZM297.52,61.64l-1.35,1.39h-6.46v-4.08c0-2.26.04-4.14.08-4.18.04-.04,1.54-.06,3.34-.02,3.17.06,3.25.08,3.82.61.57.57.57.59.57,3.42v2.85Z"/>
      <path class="cls-11" d="M323.65,51.88l-2.15-2.15h-6.82c-5.26,0-6.84.06-6.91.25-.06.15-.08,5.41-.06,11.68l.06,11.41h5.07l.06-2.6.06-2.58h8.75l4.12-4.12v-9.72l-2.18-2.18ZM320.57,58.94c-.04,2.87-.06,2.96-.59,3.51l-.57.59h-6.46v-8.22l3.13-.06,3.11-.06.72.66.7.65-.02,2.94Z"/>
    </g>
    <g>
      <path id="path14" class="cls-11" d="M203.96,430.21c-.77,1.3-1.74,2.26-2.9,2.87-2.44,1.24-5.21.94-8.31-.9-2.12-1.26-3.62-2.86-4.5-4.8-.97-2.18-.87-4.29.3-6.31l4.56,2.7c-.53.89-.59,1.8-.17,2.73.37.81,1.02,1.48,1.94,2.03.82.49,1.62.73,2.41.74.83,0,1.41-.29,1.75-.87.45-.75-.09-1.88-1.61-3.37-2.25-2.23-3.61-3.73-4.08-4.51-1.23-1.99-1.26-3.96-.11-5.91.68-1.14,1.55-2.03,2.6-2.67,1.06-.64,2.35-.88,3.87-.72,1.53.14,2.99.62,4.37,1.44,1.89,1.12,3.18,2.55,3.87,4.29.82,1.97.68,3.99-.41,6.06l-4.37-2.59c.73-1.76.23-3.16-1.51-4.19-.71-.42-1.43-.62-2.16-.59-.73.03-1.25.31-1.56.84-.41.69.16,1.78,1.71,3.28,2.24,2.19,3.62,3.71,4.15,4.55,1.23,2.03,1.29,3.99.16,5.89Z"/>
      <path id="path16" class="cls-11" d="M222.46,449.06l-4.43-2.63,6.55-11.04c.76-1.28,1.12-2.29,1.07-3.03-.08-.88-.68-1.65-1.81-2.32-2.28-1.36-4.26-.63-5.93,2.18l-6.2,10.46-4.43-2.63,10.84-18.27,4.24,2.52-1.02,1.71c-.39.66-.58,1-.56,1.01.01-.02.03-.03.05-.02,1.12-.7,2.33-1.03,3.61-1.01,1.32.01,2.53.34,3.62.99,2.22,1.32,3.27,3.22,3.15,5.72-.08,1.19-.5,2.42-1.26,3.7l-7.51,12.65Z"/>
      <path id="path18" class="cls-11" d="M242.35,452.99c-.77,1.3-1.74,2.26-2.89,2.87-2.44,1.24-5.2.94-8.31-.9-2.12-1.26-3.62-2.86-4.5-4.8-.97-2.18-.87-4.29.3-6.31l4.56,2.7c-.53.89-.59,1.8-.17,2.73.37.81,1.02,1.48,1.94,2.03.82.48,1.62.73,2.41.74.82,0,1.41-.3,1.74-.87.45-.75-.09-1.88-1.61-3.37-2.25-2.23-3.61-3.73-4.08-4.51-1.22-1.99-1.26-3.96-.11-5.91.68-1.14,1.55-2.03,2.6-2.67,1.06-.64,2.35-.88,3.87-.72,1.53.14,2.99.62,4.37,1.44,1.89,1.12,3.18,2.55,3.87,4.29.82,1.97.68,3.99-.41,6.06l-4.37-2.59c.73-1.76.23-3.16-1.51-4.19-.71-.42-1.43-.62-2.16-.59-.73.03-1.25.31-1.56.84-.41.69.16,1.78,1.71,3.28,2.24,2.2,3.62,3.71,4.15,4.55,1.23,2.03,1.29,3.99.16,5.89Z"/>
      <path id="path20" class="cls-11" d="M255.51,456.62c-.67.13-1.63-.02-2.88-.45-1.4-.5-2.36-.74-2.88-.73-1.03-.03-1.87.5-2.51,1.57-.81,1.37-.56,2.45.76,3.23.61.36,1.33.59,2.15.67.84.07,1.56-.02,2.15-.25.79-.33,1.53-1.08,2.22-2.25.12-.2.29-.51.5-.91.21-.4.37-.69.48-.88h0ZM254.9,468.31l-4.12-2.44c.02-.33.18-.9.47-1.72-1.76.63-3.76.27-6-1.06-1.55-.92-2.6-2.07-3.15-3.44-.63-1.61-.43-3.28.6-5.02,1.48-2.49,3.38-3.68,5.72-3.56,1.07.05,2.97.65,5.69,1.8,1.93.81,3.13.81,3.61,0,.42-.71.48-1.43.18-2.17-.27-.75-.75-1.33-1.47-1.75s-1.49-.59-2.27-.47c-.73.11-1.36.46-1.9,1.05l-4.28-2.54c.9-1.22,1.88-2.08,2.85-2.62,1.09-.59,2.38-.78,3.87-.58,1.38.2,2.78.72,4.18,1.55,4.73,2.87,5.64,6.76,2.72,11.67l-6.69,11.28h0Z"/>
      <path id="path22" class="cls-11" d="M218.21,418.63l-4.43-2.63,2.87-4.83,4.43,2.63-2.87,4.83Z"/>
      <path id="path24" class="cls-11" d="M205.96,439.27l-4.43-2.63,5.42-9.14,4.43,2.63-5.42,9.14Z"/>
      <path id="path26" class="cls-11" d="M270.66,479.05c-1.44,2.42-3.39,3.89-5.85,4.41-2.24.43-4.39.04-6.44-1.18-2.01-1.19-3.33-2.84-3.95-4.94-.68-2.35-.27-4.77,1.2-7.26l4.12,2.44c-.69,1.16-.92,2.27-.68,3.3.19.92.71,1.63,1.55,2.12.92.55,1.93.68,3.03.41,1.19-.34,2.16-1.14,2.91-2.4l1.67-2.81c-.8.64-1.76.94-2.87.89-1.09-.03-2.14-.35-3.17-.96-1.63-.97-2.72-2.32-3.25-4.06-.6-1.99-.27-4.05.99-6.18l7.14-12.03,4.43,2.63-6.71,11.31c-1.34,2.26-1.07,3.95.81,5.07,1.01.6,2.01.76,3.02.49,1.01-.27,1.8-.89,2.39-1.87l6.71-11.31,4.4,2.61-11.45,19.3Z"/>
    </g>
    <g>
      <path class="cls-11" d="M397.09,401.6c-.28.12-.84.32-1.5.32-.74,0-1.35-.22-1.83-.76-.42-.48-.68-1.25-.68-2.15,0-1.72,1.01-2.98,2.65-2.98.57,0,1.01.15,1.22.26l-.15.61c-.26-.14-.59-.25-1.08-.25-1.19,0-1.96.87-1.96,2.32s.75,2.33,1.88,2.33c.41,0,.7-.07.84-.15v-1.72h-.99v-.6h1.61v2.77Z"/>
      <path class="cls-11" d="M402.23,398.91c0,1.99-1.02,3.04-2.27,3.04s-2.2-1.18-2.2-2.93c0-1.83.96-3.03,2.27-3.03s2.2,1.21,2.2,2.92ZM398.44,399c0,1.23.57,2.34,1.56,2.34s1.57-1.09,1.57-2.4c0-1.15-.51-2.35-1.56-2.35s-1.57,1.14-1.57,2.41Z"/>
      <path class="cls-11" d="M403.8,396.72h-1.49v-.63h3.62v.63h-1.49v5.14h-.64v-5.14Z"/>
      <path class="cls-11" d="M410.46,398.91c0,1.99-1.02,3.04-2.27,3.04s-2.2-1.18-2.2-2.93c0-1.83.96-3.03,2.27-3.03s2.2,1.21,2.2,2.92ZM406.66,399c0,1.23.57,2.34,1.56,2.34s1.57-1.09,1.57-2.4c0-1.15-.51-2.35-1.56-2.35s-1.57,1.14-1.57,2.41Z"/>
      <path class="cls-11" d="M388.02,404.65h.63v3.86c0,1.53-.64,2-1.48,2-.23,0-.51-.06-.67-.14l.09-.61c.13.06.32.11.53.11.57,0,.9-.3.9-1.43v-3.8Z"/>
      <path class="cls-11" d="M392.23,407.71h-1.9v2.08h2.12v.62h-2.75v-5.77h2.64v.62h-2.01v1.82h1.9v.62Z"/>
      <path class="cls-11" d="M394.13,410.42l-1.24-5.77h.67l.58,2.92c.15.72.28,1.44.36,1.99h.01c.08-.57.23-1.26.4-2l.65-2.91h.66l.59,2.93c.14.68.27,1.37.34,1.98h.01c.1-.63.24-1.28.39-2l.65-2.91h.65l-1.38,5.77h-.66l-.62-3c-.15-.74-.25-1.3-.32-1.88h-.01c-.09.57-.2,1.14-.38,1.88l-.7,3h-.66Z"/>
      <path class="cls-11" d="M399.47,404.65h.63v5.14h2.09v.62h-2.72v-5.77Z"/>
      <path class="cls-11" d="M402.89,404.65h.63v5.14h2.09v.62h-2.72v-5.77Z"/>
      <path class="cls-11" d="M408.85,407.71h-1.9v2.08h2.12v.62h-2.75v-5.77h2.64v.62h-2.01v1.82h1.9v.62Z"/>
      <path class="cls-11" d="M409.89,404.72c.32-.08.78-.12,1.21-.12.67,0,1.11.15,1.41.47.25.26.38.65.38,1.1,0,.76-.41,1.27-.92,1.47v.03c.38.15.6.57.72,1.16.16.8.28,1.36.38,1.58h-.65c-.08-.16-.19-.66-.33-1.38-.15-.8-.41-1.1-.98-1.12h-.59v2.5h-.63v-5.69ZM410.52,407.35h.65c.67,0,1.1-.44,1.1-1.1,0-.75-.46-1.07-1.12-1.08-.3,0-.52.04-.62.07v2.11Z"/>
      <path class="cls-11" d="M414.79,410.42v-2.45l-1.54-3.32h.72l.69,1.59c.19.44.33.79.49,1.19h.01c.14-.38.3-.75.49-1.19l.7-1.59h.72l-1.64,3.31v2.46h-.64Z"/>
    </g>
    <g>
      <path class="cls-11" d="M550.33,463.84l-1.32-5.44h.71l.62,2.75c.16.68.29,1.36.39,1.88h.02c.08-.54.25-1.19.42-1.89l.7-2.74h.7l.63,2.76c.15.65.29,1.29.36,1.86h.02c.11-.6.25-1.2.42-1.88l.69-2.74h.69l-1.47,5.44h-.7l-.66-2.83c-.16-.69-.27-1.23-.34-1.78h-.02c-.09.54-.21,1.07-.4,1.78l-.74,2.83h-.7Z"/>
      <path class="cls-11" d="M556.41,462.13l-.54,1.71h-.69l1.77-5.44h.81l1.78,5.44h-.72l-.56-1.71h-1.84ZM558.12,461.58l-.51-1.57c-.12-.36-.19-.68-.27-.99h-.01c-.08.32-.16.65-.26.99l-.51,1.57h1.57Z"/>
      <path class="cls-11" d="M560.85,463.84v-2.31l-1.64-3.13h.76l.73,1.5c.2.41.35.74.52,1.12h.02c.15-.35.32-.71.53-1.12l.75-1.5h.76l-1.74,3.12v2.32h-.68Z"/>
      <path class="cls-11" d="M563.67,462.98c.3.19.74.36,1.2.36.69,0,1.09-.38,1.09-.93,0-.51-.28-.8-.98-1.08-.85-.31-1.37-.77-1.37-1.54,0-.85.67-1.48,1.68-1.48.53,0,.92.13,1.15.27l-.18.57c-.17-.1-.52-.26-.99-.26-.71,0-.98.44-.98.82,0,.51.32.76,1.04,1.05.88.35,1.33.8,1.33,1.6,0,.84-.59,1.57-1.82,1.57-.5,0-1.05-.15-1.33-.35l.17-.59Z"/>
      <path class="cls-11" d="M549.3,471.06c.3.19.74.36,1.2.36.69,0,1.09-.38,1.09-.93,0-.51-.28-.8-.98-1.08-.85-.31-1.37-.77-1.37-1.54,0-.85.67-1.48,1.68-1.48.53,0,.92.13,1.15.27l-.18.57c-.17-.1-.52-.26-.99-.26-.71,0-.98.44-.98.82,0,.51.32.76,1.04,1.05.88.35,1.33.8,1.33,1.6,0,.84-.59,1.57-1.82,1.57-.5,0-1.05-.15-1.33-.35l.17-.59Z"/>
      <path class="cls-11" d="M553.87,466.47v2.28h2.52v-2.28h.68v5.44h-.68v-2.55h-2.52v2.55h-.67v-5.44h.67Z"/>
      <path class="cls-11" d="M562.68,469.13c0,1.87-1.09,2.87-2.42,2.87s-2.34-1.11-2.34-2.76c0-1.73,1.03-2.86,2.42-2.86s2.34,1.14,2.34,2.75ZM558.64,469.22c0,1.16.6,2.2,1.66,2.2s1.67-1.03,1.67-2.26c0-1.08-.54-2.21-1.66-2.21s-1.67,1.07-1.67,2.27Z"/>
      <path class="cls-11" d="M563.55,466.54c.32-.06.75-.1,1.29-.1.66,0,1.15.16,1.46.45.29.26.46.65.46,1.14s-.14.88-.4,1.16c-.36.4-.93.6-1.59.6-.2,0-.39,0-.54-.05v2.18h-.67v-5.38ZM564.22,469.16c.15.04.33.06.56.06.81,0,1.3-.41,1.3-1.16s-.49-1.07-1.23-1.07c-.29,0-.52.02-.63.06v2.11Z"/>
    </g>
    <text class="cls-12" transform="translate(644.96 232)"><tspan x="0" y="0">ESTIL</tspan></text>
  </g>
  <path id="Galleria_Stara_Zagora1.018" class="cls-2" d="M792.97,436.21h-161.22v261.89c50.87,19.89,165.46,56.57,177.15,60.37v-113.57l-8.8-7.41h-64.08v-151.1h56.86l.1-50.18Z"/>
  <polygon id="Galleria_Stara_Zagora1.016" class="cls-2" points="631.75 419.28 808.9 419.28 808.9 248.68 749.19 248.68 749.19 236.62 709.14 236.62 709.14 248.8 631.75 248.8 631.75 419.28"/>
  <rect id="Galleria_Stara_Zagora1.014" class="cls-2" x="631.75" y="204.65" width="75.75" height="42.39"/>
  <polygon id="Galleria_Stara_Zagora1.012" class="cls-2" points="732.3 185.74 630.74 185.74 630.74 167.04 577.97 114.26 587.61 104.62 587.61 11.1 732.3 11.1 732.3 185.74"/>
  <polygon id="Galleria_Stara_Zagora1.010" class="cls-2" points="585.78 11.1 463.52 11.1 463.52 103.82 568.08 103.82 577.1 112.85 585.54 104.41 585.78 11.1"/>
  <rect id="Galleria_Stara_Zagora1.008" class="cls-2" x="434.65" y="67.79" width="27.22" height="36.04"/>
  <rect id="Galleria_Stara_Zagora1.006" class="cls-2" x="402.21" y="60.77" width="30.86" height="43.06"/>
  <polygon id="Galleria_Stara_Zagora2.040" class="cls-2" points="98.48 161.95 28.21 293.36 106.79 355.59 223.44 131.81 177.31 131.18 147.59 187.6 98.48 161.95"/>
  <path id="Galleria_Stara_Zagora1.028_x5F_" class="cls-2" d="M149.73,319.32l-54.02,69.76,17.76,11.71-5.16,7.05c87.52,70.39,202.75,141.17,220.63,148.72l21.68-43.95,16.6,9.07,20.15-39.04-131.34-78.08,5.34-8.69-111.63-76.56Z"/>
  <path id="Galleria_Stara_Zagora1.020_x5E_2.020" class="cls-2" d="M404.11,487.18l-22.04,41.43,54.38,29.09-16.98,32.24,24.43,13.1-6.3,11.46c33.18,17.51,114.47,54.4,131.22,58.93v-121.14l-14.48-6.42h-17.88l-118.37-58.68h-13.98Z"/>
  <polygon id="Galleria_Stara_Zagora1.052" class="cls-2" points="572.17 437.14 544.53 437.14 544.53 469.54 533.99 469.54 533.99 496.47 534.93 497.1 572.17 482.84 572.17 437.14"/>
  <polygon id="Galleria_Stara_Zagora1.054" class="cls-2" points="542.88 437.14 484.26 437.14 484.26 472.66 532.39 495.86 532.39 467.82 542.88 467.82 542.88 437.14"/>
  <polygon id="Galleria_Stara_Zagora1.056" class="cls-2" points="482.55 437.14 442.09 437.14 436.9 448.12 482.55 471.91 482.55 437.14"/>
  <polygon id="Galleria_Stara_Zagora1.048-50" class="cls-2" points="572.17 435.36 572.17 307.9 483.08 307.9 483.08 337.38 384.73 337.38 384.73 385.42 434.4 385.42 434.4 432.63 426.73 442.91 435.45 447.4 441.15 435.16 572.17 435.36"/>
  <polygon id="Galleria_Stara_Zagora1.046" class="cls-2" points="572.17 306 483.22 306 483.22 271.32 531.83 271.32 531.83 237.27 572.17 237.27 572.17 306"/>
  <polygon id="Galleria_Stara_Zagora1.044" class="cls-2" points="572.17 235.58 572.17 191.82 538.39 158.04 483.22 158.04 483.22 269.28 529.93 269.28 529.93 235.44 572.17 235.58"/>
  <polygon id="Galleria_Stara_Zagora1.042_x5E_2.050" class="cls-2" points="481.3 158.04 336.52 158.04 336.52 379.88 330.82 387.41 337.62 391.45 340.93 385.48 382.73 385.48 382.73 335.5 481.3 335.5 481.3 158.04"/>
  <polygon id="Galleria_Stara_Zagora1.040" class="cls-2" points="334.63 158.04 289.53 158.04 280.19 177.52 283.44 179.82 283.44 235.32 334.63 235.32 334.63 158.04"/>
  <path id="Galleria_Stara_Zagora1.062" class="cls-2" d="M334.63,311.61v67.25l-5.17,7.09c-13.31-7.5-44.6-27.41-44.6-27.41v-46.93h49.77Z"/>
  <path id="Galleria_Stara_Zagora1.064-66" class="cls-2" d="M283.44,303.58h-38.19v-18.59h-34.23l-9.24,17.98c16.86,11.48,76.18,53.63,81.67,55.16v-54.55Z"/>
  <polygon id="Galleria_Stara_Zagora1.002_x5F_" class="cls-3" points="178.51 11.61 136.29 90.92 178.51 113.32 357.9 113.32 368.17 102.59 383.99 103.06 383.99 11.61 178.51 11.61"/>
  <polygon id="Galleria_Stara_Zagora1.058" class="cls-3" points="338.9 392.28 341.71 387.04 432.85 387.04 432.85 431.59 425.48 441.88 389.47 421.98 372.38 411.98 357.53 403.44 338.9 392.28"/>
</svg>