<?xml version="1.0" encoding="utf-8"?>
<!-- Generator: Adobe Illustrator 25.4.1, SVG Export Plug-In . SVG Version: 6.00 Build 0)  -->
<svg version="1.0" id="Layer_4" xmlns="http://www.w3.org/2000/svg" xmlns:xlink="http://www.w3.org/1999/xlink" x="0px" y="0px"
	 viewBox="0 0 467.7 515.9" style="enable-background:new 0 0 467.7 515.9;" xml:space="preserve">
<style type="text/css">
	.st0{fill:#F1F2F2;}
	.st1{fill:none;stroke:#F1F2F2;stroke-width:10;stroke-miterlimit:10;}
	.st2{fill:none;stroke:#000000;stroke-width:2;stroke-miterlimit:10;}
	.st3{fill:none;stroke:#000000;stroke-miterlimit:10;}
	.st4{display:none;fill:none;stroke:#000000;stroke-miterlimit:10;}
	.st5{display:none;}
	.st6{display:inline;}
	.st7{fill-rule:evenodd;clip-rule:evenodd;}
	.st8{fill:#F47725;}
</style>
<g id="cladire">
	<g>
		<path class="st0" d="M351.5,481.1v-73.9h9.8v-93.3h100.6v-131H361.1V38.4h-51.8V5.9H6.7v47.6v87.8v100.8v45.3v53V441v7.2v10.5
			v50.1l34.3-4.5l122.2-15C163.1,489.2,250,512.4,351.5,481.1z"/>
		<path class="st1" d="M351.5,481.1v-73.9h9.8v-93.3h100.6v-131H361.1V38.4h-51.8V5.9H6.7v47.6v87.8v100.8v45.3v53V441v7.2v10.5
			v50.1l34.3-4.5l122.2-15C163.1,489.2,250,512.4,351.5,481.1z"/>
		<path class="st2" d="M351.5,481.1v-73.9h9.8v-93.3h100.6v-131H361.1V38.4h-51.8V5.9H6.7v47.6v87.8v100.8v45.3v53V441v7.2v10.5
			v50.1l34.3-4.5l122.2-15C163.1,489.2,250,512.4,351.5,481.1z"/>
	</g>
</g>
<g id="magazine">
	<polyline class="st3" points="6.7,272.8 36.7,272.8 36.7,327.9 199.6,327.9 199.6,270.6 172.7,270.6 172.7,247.5 144,247.5 
		144,161.7 160.9,161.7 160.8,15.6 36.9,15.6 36.9,106.8 6.7,106.8 	"/>
	<line class="st3" x1="172.7" y1="270.6" x2="172.7" y2="327.9"/>
	<line class="st3" x1="172.7" y1="307.5" x2="199.6" y2="307.5"/>
	<polyline class="st3" points="38,504.7 38,338.6 206.9,338.6 206.9,340.5 206.9,483.4 163.1,489.2 	"/>
	<path class="st3" d="M351.5,453.1l-54.1-8.9c18.5-92.8,31.1-183.6,35.4-271.9h28.4v18.1h22v-7.6"/>
	<polyline class="st3" points="320.1,308.8 361.3,308.8 361.3,313.9 	"/>
	<polyline class="st3" points="461.9,240.3 372,240.3 372,273.7 324.5,273.7 	"/>
	<line class="st3" x1="429" y1="313.9" x2="429" y2="240.3"/>
	<line class="st3" x1="442.7" y1="182.9" x2="442.7" y2="240.3"/>
	<polyline class="st3" points="372,190.7 372,208 330.7,208 	"/>
	<line class="st3" x1="372" y1="240.3" x2="327.9" y2="240.3"/>
	<line class="st3" x1="361.3" y1="340.2" x2="315.9" y2="340.2"/>
	<polyline class="st3" points="311.5,366.7 343.1,366.7 343.1,373.3 361.3,373.3 	"/>
	<line class="st3" x1="361.3" y1="385.5" x2="308.3" y2="385.5"/>
	<line class="st3" x1="302.6" y1="417.5" x2="351.5" y2="417.5"/>
	<polyline class="st3" points="361.1,38.4 309.3,38.4 309.3,5.9 	"/>
	<path class="st3" d="M171.6,5.9v145.3h41.3v-19.6c0-12,6.8-17.7,18.2-17.7h50.7c25.6,0,31,22.2,31.3,48.1h48.1"/>
	<polyline class="st4" points="438.7,5.9 438.7,38.9 484.1,38.9 484.1,28 497.9,28 498.3,5.9 	"/>
	<polyline class="st4" points="372.6,480.3 372.6,475.3 423.9,475.3 423.9,485.2 	"/>
	<line class="st3" x1="429" y1="264.5" x2="461.9" y2="264.5"/>
	<line class="st3" x1="6.7" y1="402.2" x2="38" y2="402.2"/>
	<line class="st3" x1="38" y1="357.5" x2="6.7" y2="357.5"/>
</g>
<g id="logo">
	<g>
		<path d="M334.3,266.9c0-2,0.4-4.6,1.2-7.6c0.7-2.7,1.5-5,2.4-7c1.6-3.5,3.3-5.2,5.1-5.2c0.9,0.1,1.7,0.5,2.4,1.2
			c1.8,1.7,3,4.5,3.7,8.5c0,0,0.2-0.9,0.6-2.5c1.4-4.9,3.1-7.3,5.3-7.3c2,0,3.8,1.7,5.4,5c0.9,2,1.7,4.3,2.3,7c0.6,2.9,1,5.5,1,7.7
			h-3c0-7.2-1.1-12.6-3.2-16.2c-0.8-1.4-1.7-2.2-2.4-2.2c-1,0-1.9,1.4-2.7,4.3c-0.9,3.2-1.4,7.5-1.5,12.8h-3.4c0-7-0.8-12-2.5-15.2
			c-0.7-1.3-1.3-1.9-2-1.9c-1,0-1.9,1.3-3,3.8c-1.6,4.1-2.5,9-2.5,14.5L334.3,266.9z"/>
		<path d="M333.8,267.4v-0.5c0-2.1,0.4-4.7,1.2-7.8c0.7-2.7,1.5-5.1,2.4-7.1c1.7-3.7,3.5-5.5,5.6-5.5c1,0.2,1.9,0.6,2.8,1.4
			c1.5,1.4,2.6,3.6,3.4,6.7c0-0.1,0.1-0.3,0.1-0.4c1.4-5.1,3.3-7.6,5.8-7.6l0,0c2.2,0,4.2,1.8,5.9,5.3c0.9,2,1.7,4.4,2.3,7.1
			c0.6,2.9,1,5.6,1,7.9v0.5h-4v-0.5c0-7.1-1-12.5-3.1-16c-0.7-1.2-1.4-1.9-2-1.9c-0.3,0-1.2,0.4-2.3,3.9c-0.9,3.2-1.4,7.4-1.4,12.7
			v0.5l-4.4,0.1v-0.5c0-6.9-0.8-11.9-2.5-15c-0.8-1.4-1.3-1.6-1.6-1.6c-0.3,0-1.2,0.3-2.5,3.5c-1.6,4-2.4,8.9-2.5,14.4v0.5
			L333.8,267.4z M361.3,266.4h2c0-2.1-0.4-4.5-0.9-7.1c-0.6-2.7-1.3-5-2.2-6.9c-1.5-3.1-3.1-4.7-5-4.7s-3.6,2.3-4.9,6.9
			c-0.5,1.9-0.6,2.3-0.6,2.4h-0.3l-0.7,0.2c0,0,0-0.1,0-0.2c-0.7-3.9-1.9-6.7-3.5-8.2c-0.7-0.6-1.4-1-2.1-1.1
			c-1.5,0-3.1,1.7-4.6,4.9c-0.9,1.9-1.7,4.3-2.4,6.9c-0.7,2.8-1.1,5.1-1.2,7h2.3c0.1-5.4,0.9-10.2,2.5-14.2c1.1-2.8,2.2-4.1,3.4-4.1
			c0.9,0,1.7,0.7,2.4,2.2c1.7,3.2,2.6,8.2,2.6,15h2.4c0.1-5.1,0.6-9.3,1.5-12.4c0.9-3.2,1.9-4.7,3.2-4.7c1,0,1.9,0.8,2.8,2.4
			C360.1,254,361.2,259.3,361.3,266.4z"/>
	</g>
	<g>
		<path d="M318.6,426.8h-0.8l-0.2,0.7c0.4,0,0.9,0.4,0.5,0.8c-0.1,0-4.4,3.4-4.4,3.4l0.9-3.4c0.2-0.7,0.9-0.7,0.9-0.7l0.2-0.7h-5.2
			l-0.2,0.7c0.2,0.1,1,0.2,0.7,1.1c-1.7,6.3-1.5,5.7-1.7,6c-0.5,1.8-1.2,1.7-1.5,1.7l-0.2,0.7l0,0l0,0h5.4l0.2-0.7
			c0,0-0.9-0.2-0.7-0.8c0.2-0.6,0.8-3.1,0.8-3.1c2.4,3.9,3,4.5,5.1,4.6c0.7,0,1.6,0,2.8,0l0.2-0.7c-0.7,0-1.1-0.5-1.4-0.8
			c-0.1-0.2-0.9-1.3-1.5-2.3c-0.6-0.9-1.1-1.8-1.1-1.8l1.1-0.9l3.3-2.6c0.7-0.6,1.3-0.6,1.3-0.6l0.2-0.7L318.6,426.8z"/>
		<path d="M340.7,426.7c-0.6,0-1.1,0-1.7,0.1c-4.4,0.5-7,3.3-7,6c0,2.3,1.9,4.5,6.2,4.5c0.3,0,0.5,0,0.8,0c1-0.1,2-0.2,2.8-0.4
			l0.5-2.2c-0.8,0.3-1.9,0.5-2.7,0.5c-0.2,0-0.4,0-0.6,0c-2-0.2-3.3-1.5-3.3-3.1c0-1.7,1.2-3,3.3-3.4c0.3-0.1,0.7-0.1,1.1-0.1
			c1.3,0,2,0.4,2.4,1h0.4l0.7-2.5C342.9,426.9,341.8,426.7,340.7,426.7z"/>
		<path d="M329.2,426.8h-5.1l-0.2,0.7c0,0,1,0.1,0.7,1.1l-2.3,8.5h4.7l0.2-0.7c0,0-0.9-0.2-0.6-1c0-0.1,0.7-2.5,0.7-2.5h2.1h0.1
			c1.1,0,1.4,0.6,1.4,0.6l0.6-2.5h-2.1h-1.5l0.5-2h0.9h2.2c0.6,0,1,0.4,1,0.7h0.4l0.7-2.8h-4.4V426.8z"/>
	</g>
	<g>
		<path d="M323.2,359.4c0,1.8-1.5,1.7-1.5,0.1c0-2.5,0-2.2,0-4h-1v4c0,1.8-1.5,1.6-1.5,0.1c0-2.5,0-6.1,0-10.1v0.1
			c0-1.6,1.5-1.7,1.5,0.1v3.5h1c0-1.8,0-1.1,0-3.6c0-1.6,1.5-1.7,1.5,0.1C323.2,351.6,323.2,357.5,323.2,359.4 M325.1,358.3v-2h0.9
			c0,0-0.3,0,0,0c1,0,1-2.2,0-2.3h-0.9v-1.6h1c0,0-0.3,0,0,0c1,0,1-2.3,0-2.4c-0.2,0,0,0,0,0h-1.7c-0.6,0.1-0.8,0.5-0.8,2.4
			c0,1.3,0,0,0,0v5.9c0,1.8,0.2,2.3,0.8,2.4h1.7c0,0-0.2,0,0,0c1-0.1,1-2.4,0-2.4C325.8,358.3,325.5,358.3,325.1,358.3 M330.4,351.4
			c-0.3-0.6-0.5-0.9-0.9-1.2c-0.2-0.2-0.9-0.3-1.4,0.1c-0.4,0.3-0.7,0.7-0.9,1.5c-0.3,1-0.3,1.8,0.1,2.7c0.3,0.8,0.7,1.2,1.2,1.6
			c0.8,0.6,1.1,1.4,0.9,2c-0.1,0.4-0.2,0.6-0.6,0.6s-0.6-0.5-0.7-1.1c-0.1-0.4-0.4-0.7-0.8-0.5c-0.5,0.3-0.5,1.3-0.3,1.9
			c0.4,1.3,1,1.8,1.9,1.8c0.7,0,1.2-0.5,1.6-1.5c0.5-1.2,0.4-2.9-0.1-4c-0.4-0.7-0.7-0.9-1.2-1.3c-0.6-0.5-0.8-1.1-0.6-1.5
			c0.3-0.5,0.7-0.1,1,0.3c0.2,0.3,0.6,0.3,0.8-0.1C330.5,352.4,330.5,351.8,330.4,351.4 M333.8,355.1c0.5-0.7,0.7-1.7,0.5-2.8
			c-0.2-1.4-0.8-2.2-1.6-2.2h-1.1l0,0c-0.4,0-0.7,0.6-0.7,1.3v8c0,0.7,0.3,1.3,0.7,1.3c0.7,0,0.9,0,1.3,0c0.7,0,1.9-1,1.9-3
			C334.8,356.5,334.5,355.6,333.8,355.1z M332.3,352.1h0.3c0.3,0,0.6,0.4,0.6,0.9s-0.3,1-0.6,1h-0.3V352.1z M332.6,358.7h-0.4l0,0
			l0,0v-2.3h0.4c0.4,0,0.7,0.5,0.7,1.1C333.3,358.2,333,358.7,332.6,358.7z M339,357.3c0,1.9-0.9,3.4-2,3.4s-2-1.5-2-3.4v-6
			c0-0.7,0.3-1.3,0.7-1.3c0.4,0,0.7,0.6,0.7,1.3v6.2c0,0.5,0.3,1,0.6,1c0.3,0,0.5-0.4,0.5-1v-6.2c0-0.7,0.3-1.3,0.7-1.3
			c0.4,0,0.7,0.6,0.7,1.3L339,357.3L339,357.3 M343,358.9l-0.9-2.8c0.6-0.8,1-1.6,0.9-2.8c0-1.7-0.8-3.2-1.8-3.2c-0.5,0-1.2,0-1.2,0
			l0,0c-0.4,0-0.7,0.6-0.7,1.3v8c0,0.7,0.3,1.3,0.7,1.3c0.4,0,0.7-0.6,0.7-1.3V357l1,3c0.2,0.6,0.7,0.9,1,0.6
			C343.2,360.3,343.3,359.5,343,358.9z M341.1,354.4h-0.3v-2.2h0.3c0.4,0,0.7,0.5,0.7,1.1C341.8,353.9,341.5,354.4,341.1,354.4z
			 M345.6,350c0,0,1.4,0.1,1,2c-0.4,1.5-1.6-1.3-1.9,1.5c0,0.3-0.1,2,0,3.6c0,0.7,0.4,2.2,1.1,1.3c0,0,0-1.1,0-1.9
			c-1.1,0-0.9-2.4,0-2.4c0.7,0,0.4-0.1,0.8,0c0,0,0.6,0.1,0.6,2.3c0,0,0,1.6,0,2.8c-0.1,0.6-0.3,1.4-1.3,1.7c-1,0.3-1.7-0.6-1.9-0.9
			c-0.2-0.3-0.6-1-0.7-2.5s-0.1-3.2,0-4.5s0.6-2.1,1.2-2.6C345.1,349.8,345.6,350,345.6,350 M348.9,358.3v-2h0.9c0,0-0.3,0,0,0
			c1,0,1-2.2,0-2.3h-0.9v-1.6h1c0,0-0.3,0,0,0c1,0,1-2.3,0-2.4c-0.2,0,0,0,0,0h-1.7c-0.6,0.1-0.8,0.5-0.8,2.4c0,1.3,0,0,0,0v5.9
			c0,1.8,0.2,2.3,0.8,2.4h1.7c0,0-0.2,0,0,0c1-0.1,1-2.4,0-2.4C349.6,358.3,349.3,358.3,348.9,358.3 M355.2,360.4l-1.4-4.3
			c0.6-0.8,1-1.6,0.9-2.8c0-1.7-0.8-3.2-1.8-3.2c-0.5,0-1.2,0-1.2,0c-0.4,0-0.7,0.6-0.7,1.3v8c0,0.7,0.3,1.3,0.7,1.3
			c0.4,0,0.7-0.6,0.7-1.3v-2.8l1.6,5c0.2,0.6,0.7,0.9,1,0.6C355.3,361.8,355.4,361.1,355.2,360.4z M352.7,354.4h-0.3v-2.2h0.3
			c0.4,0,0.7,0.5,0.7,1.1C353.4,353.9,353.1,354.4,352.7,354.4z"/>
		<path d="M355.2,351.3c-0.2,0-0.4-0.3-0.4-0.8c0-0.4,0.2-0.8,0.4-0.8c0.2,0,0.4,0.3,0.4,0.8S355.4,351.3,355.2,351.3z M355.2,350
			c-0.2,0-0.3,0.2-0.3,0.5s0.1,0.5,0.3,0.5c0.2,0,0.3-0.2,0.3-0.5C355.5,350.3,355.3,350,355.2,350z M355.1,350.6v-0.3h0.1
			c0.1,0,0.1,0.1,0.1,0.1C355.3,350.5,355.2,350.6,355.1,350.6L355.1,350.6 M355.3,350.6c0.1,0,0.1-0.1,0.1-0.2
			c0-0.2-0.1-0.3-0.2-0.3H355v0.8h0.1v-0.3H355.3v0.3h0.1L355.3,350.6z"/>
		<polyline points="315.9,351 315.9,351 315.3,353.7 313.4,353.7 313.4,353.8 315,355.5 314.4,358.3 314.4,358.3 315.9,356.6 
			317.5,358.3 317.5,358.3 316.9,355.5 318.4,353.8 318.4,353.7 316.5,353.7 315.9,351 		"/>
		<polyline points="357.7,351 357.7,351 357.1,353.7 355.2,353.7 355.2,353.8 356.8,355.5 356.1,358.3 356.2,358.3 357.7,356.6 
			359.2,358.3 359.2,358.3 358.6,355.5 360.2,353.8 360.2,353.7 358.3,353.7 357.7,351 		"/>
	</g>
	<g>
		<path d="M333.5,327.2c0,1.7-1.1,3.1-2.9,3.1h-4.1v-10.7h4c1.7,0,2.6,1.4,2.6,2.7c0,0.9-0.5,1.8-1.2,2.2
			C333,324.8,333.5,326,333.5,327.2z M328.3,321.5v2.3h1.8c0.8,0,1.2-0.6,1.2-1.2s-0.4-1.1-1.1-1.1L328.3,321.5L328.3,321.5z
			 M331.6,327c0-0.7-0.4-1.4-1.3-1.4h-2v2.8h2C331.2,328.4,331.6,327.7,331.6,327z"/>
		<path d="M335,319.7h1.2l3.6,6l3.5-6h1.2v10.7h-1.8v-6l-2.6,4.5h-0.6l-2.6-4.5v6H335V319.7z"/>
		<path d="M345.7,328.5l1-1.5c0.6,1,1.5,1.5,2.4,1.5c0.8,0,1.3-0.5,1.3-1.1c0-0.5-0.4-0.9-0.8-1.1c-0.6-0.3-1.3-0.6-2-1
			c-0.8-0.5-1.4-1.3-1.4-2.7c0-1.8,1.3-3.1,3.1-3.1c1.1,0,2.1,0.4,3,1.4l-1,1.6c-0.5-0.7-1.4-1-2-1c-0.7,0-1.2,0.4-1.2,1
			c0,0.5,0.4,0.8,0.7,1.1c0.5,0.3,1.4,0.7,2,1c0.9,0.5,1.5,1.3,1.5,2.7c0,1.9-1.3,3.2-3.3,3.2C347.8,330.5,346.5,329.8,345.7,328.5z
			"/>
	</g>
	<g>
		<path d="M350,284.8v10.8h-1.9v-10.8H350z"/>
		<path d="M359.9,284.8v10.8h-1.3l-4.8-6.6v6.6H352v-10.8h1.2l4.8,6.7v-6.7H359.9z"/>
		<path d="M361.4,290.3c0-3.3,2.2-5.6,4.8-5.6c1.7,0,3.2,0.9,4,2.2l-1.2,1.4c-0.6-0.9-1.5-1.6-2.6-1.6c-1.6,0-2.9,1.5-2.9,3.5
			s1.3,3.5,2.9,3.5c1.1,0,2-0.6,2.7-1.6l1.3,1.4c-0.8,1.3-2.3,2.3-4.1,2.3C363.5,295.8,361.4,293.6,361.4,290.3z"/>
		<path d="M376.1,293.3h-3.2l-0.7,2.3h-1.9l3.5-10.8h1.5l3.5,10.8h-1.9L376.1,293.3z M373.5,291.4h2.2l-1.1-3.6L373.5,291.4z"/>
		<path d="M387.7,284.8v10.8h-1.3l-4.8-6.6v6.6h-1.8v-10.8h1.2l4.8,6.7v-6.7H387.7z"/>
		<path d="M388.9,286.9v-2.1h7.1v2.1h-2.6v8.7h-1.9v-8.7H388.9z"/>
		<path d="M396.4,290.3c0-3.1,2.1-5.6,4.8-5.6c2.7,0,4.8,2.5,4.8,5.6s-2.1,5.6-4.8,5.6C398.4,295.8,396.4,293.4,396.4,290.3z
			 M404,290.2c0-2-1.3-3.5-2.9-3.5s-2.9,1.5-2.9,3.5s1.3,3.4,2.9,3.4C402.8,293.7,404,292.2,404,290.2z"/>
	</g>
	<g>
		<path d="M21.1,200.2c0-5.3,3.1-9,6.7-9c2.4,0,4.5,1.5,5.6,3.6l-1.7,2.3c-0.9-1.5-2.2-2.5-3.7-2.5c-2.3,0-4.2,2.4-4.2,5.6
			c0,3.2,1.8,5.5,4.2,5.5c1.5,0,2.9-1,3.8-2.5l1.8,2.2c-1.1,2.1-3.3,3.7-5.8,3.7C24.1,209,21.1,205.4,21.1,200.2z"/>
		<path d="M38,191.5v17.2h-2.6v-17.2H38z"/>
		<path d="M52.1,191.5v17.2h-1.8l-6.8-10.5v10.5h-2.6v-17.2h1.7l6.9,10.6v-10.6H52.1z"/>
		<path d="M55,191.5h8.9v3.2h-6.2v3.7h5.8v3.2h-5.8v3.9h6.2v3.2H55V191.5z"/>
		<path d="M66.2,191.5h1.7l5.1,9.8l5.1-9.8h1.8v17.2h-2.6V199l-3.8,7.2h-0.9l-3.8-7.2v9.8h-2.6C66.2,208.8,66.2,191.5,66.2,191.5z"
			/>
		<path d="M89.8,205h-4.6l-1,3.7h-2.7l5-17.2h2.1l4.9,17.2h-2.8L89.8,205z M86,201.9h3l-1.5-5.7L86,201.9z"/>
		<path d="M98.3,200.2c0-5.3,3.1-9,6.7-9c2.4,0,4.5,1.5,5.6,3.6l-1.7,2.3c-0.9-1.5-2.2-2.5-3.7-2.5c-2.3,0-4.2,2.4-4.2,5.6
			c0,3.2,1.8,5.5,4.2,5.5c1.5,0,2.9-1,3.8-2.5l1.8,2.2c-1.1,2.1-3.3,3.7-5.8,3.7C101.3,209,98.3,205.4,98.3,200.2z"/>
		<path d="M115.2,191.5v17.2h-2.6v-17.2H115.2z"/>
		<path d="M116.9,194.8v-3.3H127v3.3h-3.7v13.9h-2.7v-13.9H116.9z"/>
		<path d="M134.5,202.8v6h-2.6v-6l-4.5-11.2h3l2.8,7.5l2.8-7.5h3L134.5,202.8z"/>
	</g>
	<g>
		<path d="M70.3,413c0,2.9-1.4,5.6-4.8,5.6h-2v5.9h-2.6v-17.2h4.8C69,407.3,70.3,410.1,70.3,413z M67.7,412.9c0-1.3-0.7-2.4-1.9-2.4
			h-2.2v5h2.1C67.1,415.4,67.7,414.2,67.7,412.9z"/>
		<path d="M72.2,407.3h2.6v13.9h6.6v3.3h-9.3v-17.2H72.2z"/>
		<path d="M90.1,420.8h-4.6l-1,3.7h-2.7l5-17.2H89l4.9,17.2h-2.8L90.1,420.8z M86.3,417.7h3.1l-1.5-5.7L86.3,417.7z"/>
		<path d="M100,418.5v6h-2.6v-6l-4.5-11.2h3l2.8,7.5l2.8-7.5h3L100,418.5z"/>
		<path d="M104.5,415.9c0-5.2,3.1-8.9,6.9-8.9c2.2,0,4.1,1.2,5.3,2.8l-1.7,2.5c-0.9-1.2-2.2-1.9-3.6-1.9c-2.4,0-4.2,2.4-4.2,5.6
			c0,3.1,1.7,5.6,4.2,5.6c1.4,0,2.7-0.8,3.5-1.8v-2.4h-3.6v-3h6v7.1c-1.6,2.2-3.7,3.4-6,3.4C107.4,424.7,104.5,421,104.5,415.9z"/>
		<path d="M123.7,418.2h-1.6v6.3h-2.6v-17.2h5c3.1,0,4.5,2.6,4.5,5.4c0,2.1-0.8,4.2-2.7,5.1l3.2,6.7h-3.1L123.7,418.2z M122.2,415.1
			h2.1c1.5,0,2-1.2,2-2.4c0-1.2-0.6-2.3-1.8-2.3h-2.4v4.7H122.2z"/>
		<path d="M130.6,415.9c0-5,3-9,6.8-9s6.8,4,6.8,8.9s-3,8.9-6.8,8.9C133.5,424.8,130.6,420.9,130.6,415.9z M141.5,415.9
			c0-3.2-1.8-5.5-4.1-5.5s-4.1,2.4-4.1,5.5s1.8,5.5,4.1,5.5S141.5,419,141.5,415.9z"/>
		<path d="M146.2,418.2v-10.9h2.6V418c0,2.4,1,3.5,2.5,3.5c1.4,0,2.4-1.2,2.4-3.5v-10.7h2.7v10.9c0,4.5-2.4,6.6-5.1,6.6
			C148.6,424.8,146.2,422.7,146.2,418.2z"/>
		<path d="M170.3,407.3v17.2h-1.8l-6.8-10.5v10.5h-2.6v-17.2h1.7l6.9,10.6v-10.6H170.3z"/>
		<path d="M173.2,407.3h5.1c3.9,0,6.3,3.3,6.3,8.6c0,5.3-2.4,8.6-6.4,8.6h-5L173.2,407.3L173.2,407.3z M178.3,421.2
			c2.4,0,3.6-2.4,3.6-5.3s-1.2-5.3-3.6-5.3h-2.5v10.6L178.3,421.2L178.3,421.2z"/>
	</g>
	<g>
		<path d="M432.6,246.9v4.6h-0.8v-4.6H432.6z"/>
		<path d="M436.8,246.9v4.6h-0.5l-2-2.8v2.8h-0.8v-4.6h0.5l2.1,2.9v-2.9H436.8z"/>
		<path d="M437.5,249.3c0-1.4,0.9-2.4,2-2.4c0.7,0,1.3,0.4,1.7,1l-0.5,0.6c-0.3-0.4-0.7-0.7-1.1-0.7c-0.7,0-1.3,0.6-1.3,1.5
			s0.5,1.5,1.2,1.5c0.5,0,0.9-0.3,1.1-0.7l0.5,0.6c-0.3,0.6-1,1-1.7,1C438.4,251.6,437.5,250.7,437.5,249.3z"/>
		<path d="M443.8,250.6h-1.4l-0.3,1h-0.8l1.5-4.6h0.6l1.5,4.6h-0.8L443.8,250.6z M442.6,249.7h0.9l-0.5-1.5L442.6,249.7z"/>
		<path d="M448.7,246.9v4.6h-0.5l-2-2.8v2.8h-0.8v-4.6h0.5l2.1,2.9v-2.9H448.7z"/>
		<path d="M449.2,247.8v-0.9h3v0.9h-1.1v3.7h-0.8v-3.7H449.2z"/>
		<path d="M452.4,249.3c0-1.3,0.9-2.4,2-2.4s2,1.1,2,2.4c0,1.3-0.9,2.4-2,2.4C453.3,251.6,452.4,250.6,452.4,249.3z M455.7,249.3
			c0-0.9-0.6-1.5-1.2-1.5c-0.7,0-1.2,0.6-1.2,1.5c0,0.8,0.5,1.5,1.2,1.5C455.1,250.7,455.7,250.1,455.7,249.3z"/>
		<path d="M431.4,257l0.5-0.6c0.3,0.4,0.6,0.6,1,0.6c0.3,0,0.6-0.2,0.6-0.5c0-0.2-0.2-0.4-0.4-0.5c-0.2-0.1-0.6-0.2-0.8-0.4
			c-0.3-0.2-0.6-0.6-0.6-1.1c0-0.8,0.5-1.3,1.3-1.3c0.5,0,0.9,0.2,1.3,0.6l-0.4,0.7c-0.2-0.3-0.6-0.4-0.9-0.4s-0.5,0.2-0.5,0.4
			s0.2,0.4,0.3,0.5c0.2,0.1,0.6,0.3,0.9,0.4c0.4,0.2,0.7,0.6,0.7,1.1c0,0.8-0.6,1.4-1.4,1.4C432.3,257.9,431.7,257.6,431.4,257z"/>
		<path d="M434.5,254.1v-0.9h3v0.9h-1.1v3.7h-0.8v-3.7L434.5,254.1L434.5,254.1z"/>
		<path d="M437.7,255.5c0-1.3,0.9-2.4,2-2.4s2,1.1,2,2.4s-0.9,2.4-2,2.4S437.7,256.8,437.7,255.5z M441,255.5c0-0.9-0.6-1.5-1.2-1.5
			c-0.7,0-1.2,0.6-1.2,1.5c0,0.8,0.5,1.5,1.2,1.5C440.4,257,441,256.3,441,255.5z"/>
		<path d="M443.7,256.1h-0.5v1.7h-0.8v-4.6h1.5c0.9,0,1.3,0.7,1.3,1.5c0,0.6-0.2,1.1-0.8,1.4l1,1.8h-0.9L443.7,256.1z M443.2,255.3
			h0.6c0.4,0,0.6-0.3,0.6-0.6s-0.2-0.6-0.5-0.6h-0.7V255.3z"/>
		<path d="M448.1,256.8h-1.4l-0.3,1h-0.8l1.5-4.6h0.6l1.5,4.6h-0.8L448.1,256.8z M447,256h0.9l-0.5-1.5L447,256z"/>
		<path d="M449.3,255.5c0-1.4,0.9-2.4,2.1-2.4c0.7,0,1.2,0.3,1.6,0.7l-0.5,0.7c-0.3-0.3-0.7-0.5-1.1-0.5c-0.7,0-1.3,0.6-1.3,1.5
			c0,0.8,0.5,1.5,1.3,1.5c0.4,0,0.8-0.2,1.1-0.5v-0.6h-1.1v-0.8h1.8v1.9c-0.5,0.6-1.1,0.9-1.8,0.9
			C450.2,257.9,449.3,256.9,449.3,255.5z"/>
		<path d="M453.9,253.2h2.7v0.9h-1.9v1h1.7v0.9h-1.7v1h1.9v0.9h-2.7V253.2z"/>
	</g>
	<g>
		<path d="M378.6,218.5c0-2.7,1.7-4.5,3.8-4.5c1.4,0,2.5,0.7,3.2,1.8l-1,1.1c-0.5-0.7-1.2-1.3-2.1-1.3c-1.3,0-2.4,1.2-2.4,2.8
			s1,2.8,2.3,2.8c0.9,0,1.6-0.5,2.1-1.3l1,1.1c-0.6,1-1.8,1.8-3.3,1.8C380.3,222.9,378.6,221.1,378.6,218.5z"/>
		<path d="M388.2,214.1v8.7h-1.5v-8.7H388.2z"/>
		<path d="M389.8,214.1h5v1.6h-3.5v1.9h3.3v1.6h-3.3v1.9h3.5v1.6h-5V214.1z"/>
		<path d="M396.2,214.1h1.5v7h3.7v1.7h-5.2V214.1z"/>
		<path d="M406.3,220.9h-2.6l-0.6,1.9h-1.5l2.8-8.7h1.2l2.8,8.7h-1.6L406.3,220.9z M404.2,219.4h1.7l-0.9-2.9L404.2,219.4z"/>
	</g>
	<g>
		<path d="M345.7,196.2c0,0.8-0.4,1.5-1.4,1.5h-0.6v1.6h-0.8v-4.6h1.4C345.3,194.7,345.7,195.4,345.7,196.2z M344.9,196.2
			c0-0.3-0.2-0.7-0.6-0.7h-0.7v1.3h0.6C344.8,196.9,344.9,196.5,344.9,196.2z"/>
		<path d="M347.1,194.7v4.6h-0.8v-4.6H347.1z"/>
		<path d="M347.7,198.6l1.9-3.1h-1.9v-0.9h2.9v0.7l-1.9,3.1h2v0.9h-3.1v-0.7H347.7z"/>
		<path d="M351.2,198.6l1.9-3.1h-1.9v-0.9h2.9v0.7l-1.9,3.1h2v0.9h-3.1v-0.7H351.2z"/>
		<path d="M355.7,194.7v4.6h-0.8v-4.6H355.7z"/>
		<path d="M356.3,197c0-1.3,0.9-2.4,2-2.4s2,1.1,2,2.4c0,1.3-0.9,2.4-2,2.4C357.2,199.4,356.3,198.3,356.3,197z M359.6,197
			c0-0.9-0.6-1.5-1.2-1.5c-0.7,0-1.2,0.6-1.2,1.5c0,0.8,0.5,1.5,1.2,1.5S359.6,197.8,359.6,197z"/>
	</g>
	<g>
		<path d="M444,206.7h0.2l0.7,1.1l0.6-1.1h0.2v1.9h-0.3v-1.1l-0.5,0.8h-0.1l-0.5-0.8v1.1H444V206.7z"/>
		<path d="M446,207.7c0-0.6,0.4-1,0.9-1c0.3,0,0.6,0.2,0.7,0.4l-0.2,0.3c-0.1-0.2-0.3-0.3-0.5-0.3c-0.3,0-0.5,0.3-0.5,0.6
			c0,0.4,0.2,0.6,0.5,0.6c0.2,0,0.4-0.1,0.5-0.3l0.2,0.2c-0.1,0.2-0.4,0.4-0.7,0.4C446.4,208.7,446,208.3,446,207.7z"/>
		<path d="M448.4,206.7h0.6c0.5,0,0.8,0.4,0.8,1s-0.3,1-0.8,1h-0.6V206.7z M449.1,208.3c0.3,0,0.5-0.3,0.5-0.6s-0.2-0.6-0.5-0.6
			h-0.3v1.2L449.1,208.3L449.1,208.3z"/>
		<path d="M450,207.7c0-0.6,0.4-1,0.9-1s0.9,0.4,0.9,1s-0.4,1-0.9,1S450,208.2,450,207.7z M451.4,207.7c0-0.4-0.2-0.6-0.5-0.6
			s-0.5,0.3-0.5,0.6c0,0.4,0.2,0.6,0.5,0.6C451.2,208.3,451.4,208,451.4,207.7z"/>
		<path d="M453.4,206.7v1.9h-0.2l-0.9-1.2v1.2H452v-1.9h0.2l0.9,1.2v-1.2H453.4z"/>
		<path d="M454.7,208.2h-0.6l-0.1,0.4h-0.3l0.6-1.9h0.3l0.6,1.9h-0.3L454.7,208.2z M454.2,207.9h0.4l-0.2-0.6L454.2,207.9z"/>
		<path d="M455.4,206.7h0.3v1.6h0.8v0.4h-1.2v-2H455.4z"/>
		<path d="M456.7,206.7h0.6c0.5,0,0.8,0.4,0.8,1s-0.3,1-0.8,1h-0.6V206.7z M457.4,208.3c0.3,0,0.5-0.3,0.5-0.6s-0.2-0.6-0.5-0.6
			h-0.3v1.2L457.4,208.3L457.4,208.3z"/>
		<path d="M458.3,208.3l0.2-0.3c0.1,0.2,0.3,0.3,0.4,0.3s0.2-0.1,0.2-0.2c0-0.1-0.1-0.2-0.2-0.2c-0.1-0.1-0.2-0.1-0.4-0.2
			c-0.1-0.1-0.3-0.2-0.3-0.5s0.2-0.6,0.6-0.6c0.2,0,0.4,0.1,0.5,0.3l-0.2,0.3c-0.1-0.1-0.2-0.2-0.4-0.2c-0.1,0-0.2,0.1-0.2,0.2
			c0,0.1,0.1,0.2,0.1,0.2c0.1,0,0.3,0.1,0.4,0.2c0.2,0.1,0.3,0.2,0.3,0.5s-0.2,0.6-0.6,0.6C458.7,208.7,458.4,208.6,458.3,208.3z"/>
		<path d="M446.4,211l0.2-0.3c0.1,0.2,0.3,0.3,0.4,0.3s0.2-0.1,0.2-0.2c0-0.1-0.1-0.2-0.2-0.2c-0.1-0.1-0.2-0.1-0.4-0.2
			c-0.1-0.1-0.3-0.2-0.3-0.5s0.2-0.6,0.6-0.6c0.2,0,0.4,0.1,0.5,0.3l-0.2,0.3c-0.1-0.1-0.2-0.2-0.4-0.2c-0.1,0-0.2,0.1-0.2,0.2
			c0,0.1,0.1,0.2,0.1,0.2c0.1,0,0.3,0.1,0.4,0.2c0.2,0.1,0.3,0.2,0.3,0.5s-0.2,0.6-0.6,0.6C446.8,211.3,446.5,211.2,446.4,211z"/>
		<path d="M447.7,209.7v-0.4h1.3v0.4h-0.5v1.6h-0.3v-1.6H447.7z"/>
		<path d="M449.1,210.3c0-0.6,0.4-1,0.9-1s0.9,0.4,0.9,1s-0.4,1-0.9,1C449.4,211.3,449.1,210.9,449.1,210.3z M450.4,210.3
			c0-0.4-0.2-0.6-0.5-0.6s-0.5,0.3-0.5,0.6c0,0.4,0.2,0.6,0.5,0.6C450.2,210.9,450.4,210.7,450.4,210.3z"/>
		<path d="M451.6,210.6h-0.2v0.7h-0.3v-1.9h0.6c0.4,0,0.6,0.3,0.6,0.6c0,0.2-0.1,0.5-0.3,0.6l0.4,0.8H452L451.6,210.6z M451.4,210.2
			h0.3c0.2,0,0.3-0.1,0.3-0.3c0-0.1-0.1-0.3-0.2-0.3h-0.3L451.4,210.2L451.4,210.2z"/>
		<path d="M453.5,210.9h-0.6l-0.1,0.4h-0.3l0.6-1.9h0.3l0.6,1.9h-0.3L453.5,210.9z M453,210.5h0.4l-0.2-0.6L453,210.5z"/>
		<path d="M454,210.3c0-0.6,0.4-1,0.9-1c0.3,0,0.5,0.1,0.7,0.3l-0.2,0.3c-0.1-0.1-0.3-0.2-0.5-0.2c-0.3,0-0.5,0.3-0.5,0.6
			s0.2,0.6,0.5,0.6c0.2,0,0.3-0.1,0.4-0.2v-0.3h-0.5v-0.3h0.8v0.8c-0.2,0.2-0.5,0.4-0.8,0.4C454.3,211.3,454,210.9,454,210.3z"/>
		<path d="M455.9,209.3h1.1v0.4h-0.8v0.4h0.7v0.4h-0.7v0.4h0.8v0.4h-1.1V209.3z"/>
	</g>
	<g class="st5">
		<path class="st6" d="M444.4,19.1c0-1.4,0.9-2.4,2-2.4c0.7,0,1.3,0.4,1.7,1l-0.5,0.6c-0.3-0.4-0.7-0.7-1.1-0.7
			c-0.7,0-1.3,0.6-1.3,1.5s0.5,1.5,1.2,1.5c0.5,0,0.9-0.3,1.1-0.7l0.5,0.6c-0.3,0.6-1,1-1.7,1C445.3,21.5,444.4,20.6,444.4,19.1z"/>
		<path class="st6" d="M448.4,19.1c0-1.4,0.9-2.4,2-2.4c0.7,0,1.3,0.4,1.7,1l-0.5,0.6c-0.3-0.4-0.7-0.7-1.1-0.7
			c-0.7,0-1.3,0.6-1.3,1.5s0.5,1.5,1.2,1.5c0.5,0,0.9-0.3,1.1-0.7l0.5,0.6c-0.3,0.6-1,1-1.7,1C449.3,21.5,448.4,20.6,448.4,19.1z"/>
		<path class="st6" d="M452.5,19.1c0-1.4,0.9-2.4,2-2.4c0.7,0,1.3,0.4,1.7,1l-0.5,0.6c-0.3-0.4-0.7-0.7-1.1-0.7
			c-0.7,0-1.3,0.6-1.3,1.5s0.5,1.5,1.2,1.5c0.5,0,0.9-0.3,1.1-0.7l0.5,0.6c-0.3,0.6-1,1-1.7,1C453.4,21.5,452.5,20.6,452.5,19.1z"/>
		<path class="st6" d="M457.7,20.7l0.5-0.6c0.3,0.4,0.6,0.6,1,0.6c0.3,0,0.6-0.2,0.6-0.5c0-0.2-0.2-0.4-0.4-0.5
			c-0.2-0.1-0.6-0.2-0.8-0.4c-0.3-0.2-0.6-0.6-0.6-1.1c0-0.8,0.5-1.3,1.3-1.3c0.5,0,0.9,0.2,1.3,0.6l-0.4,0.7
			c-0.2-0.3-0.6-0.4-0.9-0.4s-0.5,0.2-0.5,0.4c0,0.2,0.2,0.4,0.3,0.5c0.2,0.1,0.6,0.3,0.9,0.4c0.4,0.2,0.7,0.6,0.7,1.1
			c0,0.8-0.6,1.4-1.4,1.4C458.6,21.5,458.1,21.2,457.7,20.7z"/>
		<path class="st6" d="M460.9,17.7v-0.9h3v0.9h-1.1v3.7H462v-3.7H460.9z"/>
		<path class="st6" d="M464,19.1c0-1.3,0.9-2.4,2-2.4s2,1.1,2,2.4s-0.9,2.4-2,2.4S464,20.5,464,19.1z M467.3,19.1
			c0-0.9-0.6-1.5-1.2-1.5c-0.7,0-1.2,0.6-1.2,1.5c0,0.8,0.5,1.5,1.2,1.5S467.3,20,467.3,19.1z"/>
		<path class="st6" d="M470,19.8h-0.5v1.7h-0.8v-4.6h1.5c0.9,0,1.3,0.7,1.3,1.5c0,0.6-0.2,1.1-0.8,1.4l1,1.8h-0.9L470,19.8z
			 M469.5,18.9h0.6c0.4,0,0.6-0.3,0.6-0.6c0-0.3-0.2-0.6-0.5-0.6h-0.7V18.9z"/>
		<path class="st6" d="M474.4,20.4H473l-0.3,1h-0.8l1.5-4.6h0.6l1.5,4.6h-0.8L474.4,20.4z M473.3,19.6h0.9l-0.5-1.5L473.3,19.6z"/>
		<path class="st6" d="M475.7,19.1c0-1.4,0.9-2.4,2.1-2.4c0.7,0,1.2,0.3,1.6,0.7l-0.5,0.7c-0.3-0.3-0.7-0.5-1.1-0.5
			c-0.7,0-1.3,0.6-1.3,1.5c0,0.8,0.5,1.5,1.3,1.5c0.4,0,0.8-0.2,1.1-0.5v-0.6h-1.1v-0.8h1.8v1.9c-0.5,0.6-1.1,0.9-1.8,0.9
			C476.5,21.5,475.7,20.5,475.7,19.1z"/>
		<path class="st6" d="M480.2,16.8h2.7v0.9H481v1h1.7v0.9H481v1h1.9v0.9h-2.7L480.2,16.8L480.2,16.8z"/>
	</g>
	<g>
		<path d="M241.8,74.4h-3.2l-0.7,4.2H236l3.5-19.5h1.5l3.4,19.5h-1.9L241.8,74.4z M239.2,71h2.1l-1.1-6.5L239.2,71z"/>
		<path d="M243.9,62.9v-3.8h7v3.8h-2.6v15.7h-1.8V62.9H243.9z"/>
		<path d="M252.1,59.2h1.8V67h3.8v-7.8h1.8v19.5h-1.8v-7.9h-3.8v7.9h-1.8V59.2z"/>
		<path d="M261.6,59.2h1.8v15.7h4.6v3.7h-6.5V59.2H261.6z"/>
		<path d="M269.2,59.2h6.2v3.6h-4.3V67h4v3.6h-4V75h4.3v3.6h-6.2V59.2z"/>
		<path d="M276.2,62.9v-3.8h7v3.8h-2.6v15.7h-1.8V62.9H276.2z"/>
		<path d="M286.3,59.2v19.5h-1.8V59.2H286.3z"/>
		<path d="M287.8,69c0-6,2.1-10.2,4.7-10.2c1.7,0,3.1,1.7,3.9,4l-1.2,2.6c-0.6-1.7-1.5-2.8-2.6-2.8c-1.6,0-2.9,2.7-2.9,6.4
			c0,3.6,1.3,6.2,2.9,6.2c1.1,0,2-1.1,2.6-2.8l1.3,2.5c-0.8,2.3-2.3,4.1-4,4.1C289.9,78.9,287.8,74.9,287.8,69z"/>
	</g>
	<g>
		<path d="M176.5,292.9h1.6v-1.5h-1.7c0,0,0,0-0.1,0c-0.6,0-1.1,0.8-1.1,1.7c0,0.7,0.3,1.3,0.7,1.5l1.1,0.8c0.3,0.2,0.2,0.6-0.1,0.6
			h-1.6v-0.7l-0.7,0.7l-0.7,0.7l0.7,0.7l0.7,0.7v-0.7h1.9c0.6,0,1.1-0.8,1.1-1.7c0-0.5-0.1-1-0.3-1.3l-1.5-1.1
			C176.3,293.3,176.3,292.9,176.5,292.9L176.5,292.9z M181.8,291.4v3.9c0,0.7-0.2,1.3-0.5,1.7c-0.3,0.4-0.7,0.6-1.2,0.6
			s-0.9-0.2-1.2-0.6s-0.4-1-0.4-1.7v-3.9h1.2v4.1c0,0.4,0.2,0.7,0.4,0.7l0,0c0.2,0,0.4-0.3,0.4-0.7v-4.1H181.8L181.8,291.4z
			 M184.4,297.5c0.6,0,1.1-0.8,1.1-1.7c0-0.6-0.2-1.2-0.6-1.5c0.3-0.3,0.4-0.8,0.4-1.3c0-0.8-0.4-1.5-1-1.6l0,0h-2.2v6.1H184.4
			L184.4,297.5z M183.3,295h0.6c0.2,0,0.4,0.3,0.4,0.6l0,0c0,0.3-0.2,0.6-0.4,0.6h-0.6V295L183.3,295z M183.3,292.7h0.5
			c0.2,0,0.4,0.2,0.4,0.5l0,0c0,0.3-0.1,0.5-0.3,0.5h-0.5L183.3,292.7L183.3,292.7z"/>
		<path class="st7" d="M198,292.8v1.3c0,0.9-0.5,1.6-1,1.6v1.8h-1.3v-1.8c-0.6-0.1-1-0.8-1-1.6v-2.7h1.2v2.4c0,0.3,0.2,0.6,0.4,0.6
			h0.2c0.2,0,0.4-0.3,0.4-0.6v-1.3l0,0l0,0c0-0.6,0.3-1.1,0.7-1.1l0,0l0,0l0,0l0,0l0,0l0,0l0,0l0,0l0,0l0,0l0,0h0.1h0.3h0.6v-0.7
			l0.7,0.7l0.7,0.7l-0.7,0.7l-0.7,0.7v-0.7H198L198,292.8z M192.3,297.5h-1.2v-3.9c0-0.7,0.2-1.3,0.5-1.7c0.3-0.4,0.7-0.6,1.3-0.6
			c0.5,0,0.9,0.2,1.2,0.6s0.4,1,0.4,1.7v3.9h-1.2v-1.8h-0.9L192.3,297.5L192.3,297.5z M193.2,294.4v-1c0-0.4-0.2-0.7-0.5-0.7l0,0
			c-0.2,0-0.5,0.3-0.5,0.7v1H193.2L193.2,294.4z M190.7,291.4v4.4c0,0.5-0.1,1-0.4,1.3c-0.3,0.3-0.6,0.5-1,0.5h-0.1
			c-0.2,0-0.7,0-1-0.4c-0.3,0.5-0.8,0.5-1,0.5c-0.1,0-0.1,0-0.2,0c-0.4,0-0.7-0.2-1-0.5c-0.2-0.3-0.3-0.8-0.3-1.5v-4.2h1.2v4.2
			c0,0.3,0.2,0.5,0.4,0.5l0,0c0.2,0,0.4-0.2,0.4-0.5v-4.2h1.1v4.2c0,0.3,0.2,0.5,0.4,0.5l0,0c0.2,0,0.4-0.2,0.4-0.5v-4.2
			L190.7,291.4L190.7,291.4z M197.5,296.6c0.1,0,0.1,0,0.1,0.1c0,0,0.1,0.1,0.1,0.2s0,0.1,0,0.2s0,0.2,0,0.2c0,0.1-0.1,0.1-0.1,0.2
			l-0.1,0.1c-0.1,0-0.1,0-0.1-0.1c0,0-0.1-0.1-0.1-0.2s0-0.1,0-0.2s0-0.2,0-0.2c0-0.1,0.1-0.1,0.1-0.2S197.5,296.6,197.5,296.6
			L197.5,296.6z M197.5,296.6h-0.1l-0.1,0.1c0,0.1,0,0.1,0,0.2s0,0.1,0,0.2s0.1,0.1,0.1,0.1l0.1,0.1c0,0,0.1,0,0.1-0.1l0.1-0.1
			c0-0.1,0-0.1,0-0.2s0-0.1,0-0.2s-0.1-0.1-0.1-0.1S197.6,296.6,197.5,296.6L197.5,296.6z M197.4,297.3v-0.5h0.1h0.1l0,0
			c0,0,0,0,0,0.1v0.1c0,0,0,0-0.1,0l0,0v0.1v0.1L197.4,297.3v-0.2c0-0.1,0-0.1-0.1-0.1l0,0l0,0L197.4,297.3L197.4,297.3L197.4,297.3
			z M197.4,297L197.4,297c0.1,0,0.1,0,0.1,0s0,0,0-0.1l0,0l0,0c0,0,0,0-0.1,0h-0.1L197.4,297L197.4,297z"/>
	</g>
	<g>
		<path d="M181.6,317.8c0-2.4,0.9-4.4,2-4.4s2,1.9,2,4.4c0,2.4-0.9,4.3-2,4.3C182.5,322.1,181.6,320.2,181.6,317.8z M184.9,317.8
			c0-1.6-0.6-2.7-1.2-2.7c-0.7,0-1.2,1.1-1.2,2.7c0,1.5,0.5,2.7,1.2,2.7S184.9,319.3,184.9,317.8z"/>
		<path d="M186.3,313.6h0.8v6.8h2v1.6h-2.8V313.6z"/>
		<path d="M191.7,320.2h-1.4L190,322h-0.8l1.5-8.4h0.6l1.5,8.4H192L191.7,320.2z M190.6,318.7h0.9l-0.5-2.8L190.6,318.7z"/>
	</g>
	<g class="st5">
		<path class="st6" d="M399,481.5l-0.3,0.7v1.2h-0.4v-4.7h0.4v2.2l0.8-2.2h0.5l-0.8,2.1l0.9,2.5h-0.5L399,481.5z"/>
		<path class="st6" d="M400.3,478.7h1.5v0.9h-1v1h0.9v0.9h-0.9v1.9h-0.4v-4.7H400.3z"/>
		<path class="st6" d="M401.9,481.1c0-1.4,0.5-2.4,1.1-2.4c0.4,0,0.8,0.4,0.9,1l-0.3,0.6c-0.2-0.4-0.4-0.7-0.6-0.7
			c-0.4,0-0.7,0.6-0.7,1.5s0.3,1.5,0.7,1.5c0.3,0,0.5-0.3,0.6-0.7l0.3,0.6c-0.2,0.6-0.5,1-1,1S401.9,482.5,401.9,481.1z"/>
		<path class="st6" d="M394,490.2l0.3-0.7c0.1,0.4,0.4,0.7,0.6,0.7s0.3-0.2,0.3-0.5c0-0.2-0.1-0.4-0.2-0.5s-0.3-0.3-0.5-0.4
			c-0.2-0.2-0.3-0.6-0.3-1.2c0-0.8,0.3-1.4,0.7-1.4c0.3,0,0.5,0.2,0.7,0.6l-0.2,0.7c-0.1-0.3-0.3-0.4-0.5-0.4s-0.3,0.2-0.3,0.4
			c0,0.2,0.1,0.4,0.2,0.5s0.3,0.3,0.5,0.4c0.2,0.2,0.4,0.6,0.4,1.2c0,0.8-0.3,1.4-0.8,1.4C394.5,491,394.2,490.7,394,490.2z"/>
		<path class="st6" d="M395.7,487.2v-0.9h1.7v0.9h-0.6v3.8h-0.4v-3.8H395.7z"/>
		<path class="st6" d="M397.5,488.7c0-1.4,0.5-2.4,1.1-2.4s1.1,1.1,1.1,2.4s-0.5,2.4-1.1,2.4C398,491,397.5,490,397.5,488.7z
			 M399.3,488.6c0-0.9-0.3-1.5-0.7-1.5c-0.4,0-0.7,0.6-0.7,1.5s0.3,1.5,0.7,1.5S399.3,489.5,399.3,488.6z"/>
		<path class="st6" d="M400.8,489.3h-0.3v1.7h-0.4v-4.7h0.8c0.5,0,0.7,0.7,0.7,1.5c0,0.6-0.1,1.1-0.4,1.4l0.5,1.8h-0.5L400.8,489.3z
			 M400.6,488.4h0.4c0.2,0,0.3-0.3,0.3-0.6c0-0.3-0.1-0.6-0.3-0.6h-0.4V488.4z"/>
		<path class="st6" d="M403.3,490h-0.8l-0.2,1h-0.5l0.8-4.7h0.4l0.8,4.7h-0.5L403.3,490z M402.7,489.1h0.5l-0.3-1.6L402.7,489.1z"/>
		<path class="st6" d="M404,488.6c0-1.4,0.5-2.4,1.2-2.4c0.4,0,0.7,0.3,0.9,0.8l-0.3,0.7c-0.2-0.3-0.4-0.5-0.6-0.5
			c-0.4,0-0.7,0.6-0.7,1.5c0,0.8,0.3,1.5,0.7,1.5c0.2,0,0.5-0.2,0.6-0.5V489h-0.6v-0.8h1v1.9c-0.3,0.6-0.6,0.9-1,0.9
			C404.5,491,404,490,404,488.6z"/>
		<path class="st6" d="M406.5,486.3h1.5v0.9h-1v1h1v0.9h-1v1h1v0.9h-1.5V486.3z"/>
	</g>
	<path class="st8" d="M257,300c-0.3,0-1.3,0.3-2.3,0.5c-7.2,1.9-13,7.7-15.1,15c-0.6,2.2-0.9,6.6-0.5,9c1,6.5,5.2,12.4,11,15.5
		c2.4,1.3,6.8,2.7,6.8,2.1c0-0.5-2.4-12.9-2.6-13.4c-0.1-0.3-1.1-1.3-2.1-2.3c-2.2-2-2.7-2.8-3.2-4.6c-0.3-1.5-2-12-2-12.6
		c0-0.5,0.7-0.9,1-0.6c0.1,0.1,0.8,2.8,1.5,6.1c1.2,5.5,1.3,5.9,1.7,5.9c0.2,0,0.5-0.1,0.5-0.2c0.1-0.1-0.5-2.9-1.2-6.2
		c-0.7-3.3-1.3-6-1.2-6.1c0-0.1,0.3-0.1,0.6-0.1h0.5l1.3,6c1.4,6.2,1.5,6.5,2.2,6c0.2-0.2,0.1-1.1-1-6.1c-0.7-3.3-1.3-6.1-1.2-6.2
		c0.1-0.2,0.3-0.3,0.6-0.3c0.4,0,0.5,0.2,1.3,3.7c2,8.9,1.8,8.4,2.3,8.4c0.2,0,0.5-0.1,0.5-0.2c0.1-0.1-0.5-2.9-1.2-6.2
		c-1.2-5.4-1.3-5.9-1-6.2c0.7-0.6,0.9-0.3,2.8,6.5c1.8,6.2,1.9,6.7,1.8,8c-0.1,1.2-0.2,1.8-1,3.5c-0.6,1.4-0.9,2.3-0.9,2.9
		c0,1,3.6,13.6,3.8,13.2c0.1-0.2,0.5-2.2,1-4.5l0.9-4.2l-0.3-1c-0.3-1.1-0.3-2,0.2-7.4c0.4-3.7,1-6.8,2.2-10.8
		c1.3-4.3,2.6-6.9,4.1-8.5c2-2.1,3.2-1.9,3.2,0.5c0,1.6-4.7,26.3-5.2,27.2c-0.3,0.5-0.6,2.2-1.1,4.6c-0.4,2.1-0.7,4.1-0.8,4.4
		l-0.1,0.5l1-0.3c4.1-1.2,7.2-3,10.1-6c3.8-4,5.8-8.9,5.8-14.6c0-6-2.1-11.3-6.4-15.4c-3-2.9-6.9-5-11.1-5.8
		C263,299.9,258.2,299.8,257,300L257,300z"/>
	<path class="st8" d="M31.5,373.9c0-1.2-1-2.2-2.2-2.2H14.6c-1.2,0-2.2,1-2.2,2.2v14.7c0,1.2,1,2.2,2.2,2.2h14.7
		c1.2,0,2.2-1,2.2-2.2V373.9z M26.1,374.5c0.6,0,1.1,0.5,1.1,1.1s-0.5,1.1-1.1,1.1s-1.1-0.5-1.1-1.1S25.5,374.5,26.1,374.5z
		 M17.5,374.5c0.6,0,1.1,0.5,1.1,1.1s-0.5,1.1-1.1,1.1s-1.1-0.5-1.1-1.1C16.3,375,16.8,374.5,17.5,374.5z M19.7,377.7l-0.3,3.7
		c0,0.2-0.2,0.4-0.4,0.5l0,0c-0.2,0.1-0.4,0.3-0.4,0.5l-0.3,4.9c0,0.3-0.3,0.6-0.6,0.6h-0.2h-0.2c-0.3,0-0.6-0.3-0.6-0.6l-0.3-4.9
		c0-0.2-0.2-0.5-0.4-0.5c-0.2-0.1-0.4-0.3-0.4-0.5l-0.3-3.7c0-0.3,0.2-0.6,0.5-0.7H16c0.2,0,0.4,0,0.6,0.2l0.4,0.4
		c0.2,0.2,0.6,0.2,0.9,0l0.4-0.4c0.2-0.2,0.4-0.2,0.6-0.2l0.3,0.1C19.5,377.1,19.7,377.4,19.7,377.7z M22.1,388
		c0,0.2-0.1,0.3-0.3,0.3c-0.2,0-0.3-0.1-0.3-0.3v-13.5c0-0.2,0.1-0.3,0.3-0.3c0.2,0,0.3,0.1,0.3,0.3V388z M28.3,382
		c-0.2,0.1-0.3,0.3-0.3,0.5l0.1,1c0,0.2-0.1,0.4-0.4,0.5h-0.3c-0.2,0-0.3,0.2-0.4,0.4l-0.2,3.1c0,0.3-0.3,0.6-0.6,0.6H26h-0.2
		c-0.3,0-0.6-0.3-0.6-0.6l-0.2-3.1c0-0.2-0.2-0.4-0.4-0.4h-0.3c-0.2,0-0.4-0.2-0.4-0.5l0.1-1c0-0.2-0.1-0.4-0.3-0.5
		c-0.2-0.1-0.4-0.3-0.3-0.5l0.8-4c0.1-0.3,0.4-0.4,0.6-0.3l0.8,0.5c0.1,0.1,0.3,0.1,0.5,0l0.8-0.5c0.2-0.2,0.6,0,0.6,0.3l0.8,4
		C28.6,381.7,28.5,381.9,28.3,382z"/>
</g>
<polygon id="Galleria_Burgas2.000" class="st3" points="37.9,16.5 37.9,107.9 7.9,107.9 7.9,271.9 37.9,271.9 37.9,326.9 
	171.6,326.9 171.6,248.7 143,248.7 143,160.9 160,160.9 160,16.5 "/>
<rect id="Galleria_BurgasFC2" x="173.5" y="308.3" class="st3" width="25.4" height="18.6"/>
<rect id="Galleria_BurgasFC1" x="173.5" y="271.4" class="st3" width="25.4" height="35.4"/>
<polygon id="Galleria_Burgas2.018" class="st3" points="38.8,339.2 38.8,503.1 205.6,482.7 205.6,339.2 "/>
<polygon id="Galleria_BurgasFC8_x5E_S2.3_x5E_S2.5" class="st3" points="350.3,418.2 303.2,418.2 298.3,443.6 350.3,452.1 "/>
<polygon id="Galleria_BurgasFC3" class="st3" points="350.3,416.6 350.3,405.7 359.9,405.7 359.9,386.2 308.8,386.2 303.6,416.6 "/>
<polygon id="Galleria_BurgasFC6" class="st3" points="359.9,384.6 309.3,384.6 312.1,367.4 342.5,367.4 342.5,374 359.9,374 "/>
<polygon id="Galleria_BurgasFC7_x5E_NAD_x5F_45" class="st3" points="359.9,372.5 359.9,340.9 316.3,340.9 312.4,365.8 343.8,365.8 
	343.8,372.5 "/>
<polygon id="Galleria_BurgasFC5" class="st3" points="359.9,339.4 316.6,339.4 320.7,309.4 360.6,309.4 360.6,312.7 359.9,312.7 "/>
<polygon id="Galleria_Burgas2.016" class="st3" points="428.3,241.1 428.3,312.7 362.1,312.7 362.1,308.1 321,308.1 325.1,274.2 
	372.9,274.2 372.9,241.1 "/>
<polygon id="Galleria_Burgas2.014_x5E_SA2.1B" class="st3" points="371.2,241.1 371.2,272.9 325.2,272.9 328.5,241.1 "/>
<polygon id="Galleria_Burgas2.012" class="st3" points="442,239.4 328.9,239.4 331.3,208.7 372.8,208.7 372.8,191.4 383.9,191.4 
	383.9,184 442,184 "/>
<polygon id="Galleria_Burgas2.010" class="st3" points="371.2,191.3 371.2,207.2 331.4,207.2 333.4,172.9 360,172.9 360,184 
	360.6,184 360.6,191.4 "/>
<path id="Galleria_Burgas2.002" class="st3" d="M172.4,7v143.2h39.4v-21.3c2-12.3,8.7-13.3,16.1-15.7h57.3
	c31.6,1,28.6,48.2,28.6,48.2H360V39.5h-51.9V7H172.4z"/>
</svg>
