<?xml version="1.0" encoding="UTF-8"?><svg id="Layer_4" xmlns="http://www.w3.org/2000/svg" viewBox="0 0 604.58 650.37"><defs><style>.cls-1{fill:#13110c;}.cls-2{letter-spacing:-.01em;}.cls-3{letter-spacing:-.02em;}.cls-4{font-size:3.92px;}.cls-4,.cls-5,.cls-6,.cls-7,.cls-8,.cls-9,.cls-10,.cls-11,.cls-12,.cls-13,.cls-14,.cls-15,.cls-16,.cls-17,.cls-18,.cls-19,.cls-20,.cls-21,.cls-22,.cls-23,.cls-24{fill:#1d1d1b;}.cls-4,.cls-5,.cls-6,.cls-7,.cls-8,.cls-9,.cls-10,.cls-11,.cls-13,.cls-14,.cls-15,.cls-16,.cls-17,.cls-18,.cls-19,.cls-20,.cls-21,.cls-22,.cls-24{font-family:Axiforma-Bold, Axiforma;}.cls-25{letter-spacing:-.02em;}.cls-26{fill:#ed7013;}.cls-27{letter-spacing:0em;}.cls-5{font-size:7.06px;}.cls-28{fill:#f6f6f6;}.cls-29{letter-spacing:-.02em;}.cls-6{font-size:8.2px;}.cls-30,.cls-31{fill:#070606;}.cls-32{letter-spacing:-.02em;}.cls-33{letter-spacing:-.01em;}.cls-34{stroke-width:2px;}.cls-34,.cls-35{stroke:#1d1d1b;}.cls-34,.cls-35,.cls-36{fill:none;}.cls-7{font-size:5.52px;}.cls-37{letter-spacing:-.03em;}.cls-38{letter-spacing:-.02em;}.cls-39{letter-spacing:-.01em;}.cls-8{font-size:4.99px;}.cls-9{font-size:3.31px;}.cls-40{letter-spacing:-.02em;}.cls-10{font-size:7.9px;}.cls-41{letter-spacing:-.03em;}.cls-35,.cls-36{stroke-miterlimit:10;}.cls-42{letter-spacing:-.02em;}.cls-43{letter-spacing:0em;}.cls-11{font-size:5.68px;}.cls-12,.cls-31{fill-rule:evenodd;}.cls-44{letter-spacing:-.03em;}.cls-45{letter-spacing:0em;}.cls-13{font-size:6.37px;}.cls-46{letter-spacing:-.03em;}.cls-14{font-size:4.17px;}.cls-47{letter-spacing:-.01em;}.cls-48{letter-spacing:-.02em;}.cls-49{letter-spacing:-.02em;}.cls-50{letter-spacing:-.02em;}.cls-15{font-size:4.38px;}.cls-16{font-size:7.92px;}.cls-51{letter-spacing:0em;}.cls-36{stroke:#12100b;}.cls-52{letter-spacing:-.03em;}.cls-17{font-size:5px;}.cls-53{letter-spacing:0em;}.cls-54{letter-spacing:-.04em;}.cls-55{letter-spacing:-.03em;}.cls-56{letter-spacing:0em;}.cls-57{letter-spacing:0em;}.cls-18{font-size:4px;}.cls-19{font-size:3.27px;}.cls-58{letter-spacing:-.03em;}.cls-59{letter-spacing:-.03em;}.cls-60{letter-spacing:0em;}.cls-61{fill:#12100b;}.cls-62{letter-spacing:-.03em;}.cls-63{letter-spacing:-.01em;}.cls-64{letter-spacing:-.02em;}.cls-20{font-size:3.32px;}.cls-21{font-size:5.62px;}.cls-22{font-size:4.1px;}.cls-65{letter-spacing:-.05em;}.cls-24{font-size:9.74px;}.cls-66{letter-spacing:0em;}.cls-67{letter-spacing:-.07em;}</style></defs><g id="cladire"><g><polygon class="cls-28" points="187.59 645.37 187.59 512.27 63.95 512.27 64.28 316.81 5.24 301.69 7.85 258.88 8.85 249.39 25.33 192.77 39.85 138.37 73.94 54.49 159.72 29.85 226.55 11.36 226.55 73.62 318.64 73.62 318.64 5 564.06 5 599.58 32.19 599.58 621.93 576.13 645.37 187.59 645.37"/><path class="cls-28" d="M562.37,10l32.21,24.66V502.29s0,117.56,0,117.56l-20.51,20.51H192.59v-133.1H68.95l.33-194.34-58.8-15.05,2.35-38.58,.94-8.94,16.37-56.24,14.46-54.16L77.65,58.62l83.45-23.96,60.45-16.73v60.69h102.09V10h238.73m3.39-10h-252.12V68.62h-82.09V4.79l-12.67,3.51-60.45,16.73h-.05s-.05,.03-.05,.03l-83.45,23.96-4.67,1.34-1.83,4.51-33.05,81.34-.24,.58-.16,.6-14.43,54.05L4.18,247.56l-.25,.86-.09,.89-.94,8.94-.02,.22v.22s-2.37,38.58-2.37,38.58l-.5,8.25,8,2.05,51.27,13.13-.32,186.57-.02,10.02h123.65v133.1h395.61l2.93-2.93,20.51-20.51,2.93-2.93V232.64s0-197.98,0-197.98v-4.94l-3.92-3-32.21-24.66-2.69-2.06h0Z"/><polygon class="cls-34" points="13.78 250.36 12.84 259.3 10.48 297.87 69.29 312.93 68.95 507.27 192.59 507.27 192.59 640.37 239.94 640.37 574.06 640.37 594.58 619.86 594.58 502.29 594.58 232.64 594.58 34.66 562.37 10 339.47 10 323.64 10 323.64 78.62 221.55 78.62 221.55 17.93 161.1 34.66 77.65 58.62 44.6 139.96 30.15 194.12 13.78 250.36"/></g></g><g id="magazine"><polyline class="cls-35" points="339.47 10 339.47 88.56 376.01 88.56 376.01 112.32 491.72 112.32 491.72 105.62 517.3 105.62 517.3 87.35 546.53 87.35 546.53 80.65 562.37 80.65 562.37 70.9 567.24 70.9 567.24 13.45"/><polyline class="cls-35" points="415.59 10 415.59 61.16 441.17 61.16 441.17 112.32"/><polyline class="cls-35" points="400.98 112.32 400.98 139.72 376.62 139.72 376.62 112.32"/><path class="cls-35" d="M388.8,188.44h-30.45l-63.95-48.72h-5.48v-27.41h-51.77v13.7h-28.02v30.41c56.24,0,70.01,23.24,108.75,51.15h67.33s3.57-19.14,3.57-19.14Z"/><line class="cls-35" x1="339.47" y1="174.06" x2="339.47" y2="207.59"/><line class="cls-35" x1="288.92" y1="139.72" x2="288.92" y2="184.99"/><line class="cls-35" x1="314.28" y1="154.87" x2="314.28" y2="204.95"/><line class="cls-35" x1="263.03" y1="112.32" x2="263.03" y2="167.61"/><path class="cls-35" d="M30.15,194.12h4.13v7.02h48.75c5-31.58,23.53-45.35,52.46-45.44h59.9V34.66h-34.29"/><line class="cls-35" x1="135.49" y1="155.7" x2="135.49" y2="42.01"/><line class="cls-35" x1="93.33" y1="174.06" x2="48.63" y2="129.37"/><path class="cls-35" d="M58.24,201.14v13.63h10.74v4.96h18.59c-2.42-3.39-3.83-9.92-4.54-18.59"/><polyline class="cls-35" points="13.78 250.36 58.24 250.36 58.24 232.01 95.63 232.01 101.75 250.36 101.75 409.84 69.29 409.84 69.29 312.93 10.48 297.87"/><polyline class="cls-35" points="101.75 281.41 61.76 281.41 61.76 311"/><line class="cls-35" x1="69.29" y1="341.15" x2="101.75" y2="341.15"/><line class="cls-35" x1="69.29" y1="316.22" x2="101.75" y2="316.22"/><polyline class="cls-35" points="68.98 474.73 81.59 474.73 81.59 459.81 192.59 459.81 238.91 459.81 242.74 465.55 242.74 492.72 236.99 492.72 236.99 501.15 192.59 501.15 192.59 507.27"/><line class="cls-35" x1="192.59" y1="501.15" x2="192.59" y2="459.81"/><polygon class="cls-35" points="467.81 459.81 364.65 459.81 262.26 459.81 257.28 465.16 257.28 485.07 260.73 485.07 260.73 493.11 264.17 493.11 264.17 502.29 454.03 502.29 454.03 496.55 467.81 496.55 467.81 492.72 472.02 492.72 472.02 465.93 467.81 459.81"/><line class="cls-35" x1="364.65" y1="502.29" x2="364.65" y2="459.81"/><line class="cls-35" x1="338.81" y1="459.81" x2="338.81" y2="502.29"/><polyline class="cls-35" points="390.87 459.81 390.87 476.14 364.65 476.14"/><polyline class="cls-35" points="594.49 502.29 497.32 502.29 497.32 493.65 486.11 493.65 486.11 465.62 490.47 459.81 490.47 315.5 531.58 315.5 531.58 332.94 594.49 332.94"/><polyline class="cls-35" points="531.58 332.94 531.58 338.04 517.41 338.04 517.41 408.9 490.47 408.9"/><line class="cls-35" x1="517.41" y1="367.16" x2="490.47" y2="367.16"/><line class="cls-35" x1="517.41" y1="341.79" x2="490.47" y2="341.79"/><polygon class="cls-35" points="420.74 167.83 478.65 179.91 455.27 290.12 455.27 315.5 467.85 315.5 467.85 400.91 322.54 400.91 322.54 355.95 344.84 355.95 344.84 326.09 336.57 326.09 336.57 312.43 322.54 312.43 322.54 246.96 390.16 246.96 390.16 266.03 386.93 266.03 386.93 271.42 394.48 271.42 394.48 264.59 404.55 264.59 404.55 246.24 420.74 167.83"/><line class="cls-35" x1="476.77" y1="188.75" x2="415.99" y2="188.75"/><line class="cls-35" x1="456.03" y1="175.19" x2="456.03" y2="188.75"/><polyline class="cls-35" points="441.24 188.75 441.24 240.13 465.87 240.13"/><line class="cls-35" x1="411.11" y1="214.44" x2="471.32" y2="214.44"/><line class="cls-35" x1="344.84" y1="341.79" x2="467.85" y2="341.79"/><line class="cls-35" x1="394.48" y1="271.42" x2="394.48" y2="341.79"/><line class="cls-35" x1="441.24" y1="341.79" x2="441.24" y2="400.91"/><line class="cls-35" x1="467.85" y1="367.16" x2="441.24" y2="367.16"/><path class="cls-35" d="M142.16,394.97V235.23c2.95-8.23,8.3-13.14,16.73-13.8h111.14c20.68,22.48,38.96,26.97,43.88,25.9v153.59s-165.82,0-165.82,0l-5.93-5.93Z"/><line class="cls-35" x1="236.94" y1="400.91" x2="236.94" y2="221.42"/><line class="cls-35" x1="262.11" y1="221.42" x2="262.11" y2="265.31"/><line class="cls-35" x1="288.37" y1="237.61" x2="288.37" y2="265.31"/><polyline class="cls-35" points="313.91 341.79 288.37 341.79 288.37 400.91"/><line class="cls-35" x1="236.94" y1="341.79" x2="142.16" y2="341.79"/><polyline class="cls-35" points="142.16 367.16 161.04 367.16 186.58 367.16 186.58 400.91"/><line class="cls-35" x1="160.68" y1="400.91" x2="160.68" y2="367.16"/><polyline class="cls-35" points="186.58 371.35 201.69 371.35 201.69 400.91"/><polyline class="cls-35" points="186.58 341.79 186.58 316.38 160.68 316.38 142.16 316.38"/><polyline class="cls-35" points="148.15 225.77 160.68 240.13 160.68 316.38"/><line class="cls-35" x1="160.68" y1="290.48" x2="142.16" y2="290.48"/><line class="cls-35" x1="160.68" y1="265.31" x2="142.16" y2="265.31"/><path class="cls-35" d="M594.49,302.28h-88.49v-87.84h11.4c14.58-25.72,15.6-50.68,0-74.72h-11.4s0-19.7,0-19.7h63.22v112.61h25.27"/><line class="cls-35" x1="569.22" y1="145.22" x2="520.66" y2="145.22"/><line class="cls-35" x1="533.66" y1="120.03" x2="533.66" y2="145.22"/><line class="cls-35" x1="569.22" y1="175.19" x2="528.7" y2="175.19"/><line class="cls-35" x1="569.22" y1="207.59" x2="520.98" y2="207.59"/><line class="cls-35" x1="569.22" y1="232.64" x2="506" y2="232.64"/><line class="cls-35" x1="569.22" y1="160.91" x2="526.87" y2="160.91"/><line class="cls-35" x1="429.82" y1="188.75" x2="429.82" y2="169.86"/><line class="cls-35" x1="506" y1="266.65" x2="594.49" y2="266.65"/><polyline class="cls-35" points="546.53 87.35 546.53 103.97 567.24 103.97 567.24 70.9"/><line class="cls-35" x1="322.54" y1="355.95" x2="322.54" y2="312.43"/><polyline class="cls-35" points="58.24 232.01 31.38 232.01 31.38 250.36"/><polyline class="cls-35" points="218.97 221.42 218.97 265.31 236.94 265.31 313.91 265.31"/></g><g id="logo"><path class="cls-26" d="M562.91,88.85c0-.78-.63-1.41-1.41-1.41h-9.22c-.78,0-1.41,.63-1.41,1.41v9.22c0,.78,.63,1.41,1.41,1.41h9.22c.78,0,1.41-.63,1.41-1.41v-9.22Zm-3.4,.37c.39,0,.71,.32,.71,.71s-.32,.71-.71,.71-.7-.31-.7-.71,.31-.71,.7-.71Zm-5.44,0c.39,0,.71,.32,.71,.71s-.32,.71-.71,.71-.7-.31-.7-.71,.32-.71,.7-.71Zm1.41,2.02l-.2,2.36c-.01,.15-.11,.28-.25,.33h0c-.14,.06-.24,.19-.25,.34l-.18,3.06c-.01,.21-.18,.37-.39,.37h-.26c-.21,0-.38-.16-.39-.37l-.18-3.06c0-.15-.11-.29-.25-.34-.14-.05-.24-.18-.25-.33l-.19-2.36c-.01-.19,.11-.37,.31-.41l.19-.04c.13-.03,.26,0,.36,.1l.27,.27c.15,.15,.4,.15,.55,0l.27-.27c.09-.09,.23-.13,.36-.1l.2,.04c.17,.05,.3,.23,.29,.42Zm1.5,6.45c0,.1-.09,.19-.19,.19s-.19-.08-.19-.19v-8.47c0-.1,.09-.19,.19-.19s.19,.08,.19,.19v8.47Zm3.91-3.76c-.13,.03-.22,.16-.2,.29l.08,.61c.02,.14-.08,.28-.22,.3l-.18,.02c-.12,.02-.22,.12-.22,.25l-.12,1.94c-.01,.21-.18,.37-.39,.37h-.26c-.21,0-.38-.16-.39-.37l-.12-1.94c0-.13-.1-.23-.22-.25l-.18-.02c-.14-.02-.24-.16-.22-.3l.08-.61c.02-.13-.06-.26-.2-.29-.14-.03-.22-.17-.19-.31l.53-2.52c.04-.18,.24-.27,.4-.17l.5,.32c.08,.06,.2,.06,.29,0l.5-.32c.16-.1,.36-.01,.4,.17l.53,2.52c.02,.14-.06,.27-.2,.31Z"/><path class="cls-26" d="M341.01,332.94c0-.97-.78-1.75-1.75-1.75h-11.43c-.97,0-1.75,.78-1.75,1.75v11.43c0,.97,.78,1.75,1.75,1.75h11.43c.97,0,1.75-.78,1.75-1.75v-11.43Zm-4.21,.46c.48,0,.87,.39,.87,.87s-.39,.87-.87,.87-.87-.39-.87-.87,.39-.87,.87-.87Zm-6.73,0c.48,0,.88,.39,.88,.87s-.39,.87-.88,.87-.87-.39-.87-.87,.39-.87,.87-.87Zm1.74,2.5l-.24,2.92c-.02,.19-.13,.34-.31,.41h0c-.17,.07-.29,.23-.31,.42l-.23,3.79c-.02,.25-.23,.45-.49,.45h-.32c-.26,0-.47-.2-.48-.45l-.23-3.79c-.01-.19-.13-.35-.31-.42-.18-.06-.29-.23-.31-.41l-.24-2.92c-.02-.24,.14-.46,.38-.51l.24-.05c.16-.04,.32,.01,.44,.13l.33,.34c.19,.19,.5,.19,.68,0l.34-.34c.12-.12,.28-.16,.44-.13l.24,.05c.21,.06,.38,.28,.36,.52Zm1.86,7.99c0,.13-.11,.23-.23,.23s-.24-.11-.24-.23v-10.49c0-.13,.11-.23,.24-.23s.23,.1,.23,.23v10.49Zm4.84-4.66c-.17,.04-.27,.2-.25,.36l.1,.75c.03,.18-.1,.35-.27,.37l-.22,.03c-.15,.02-.27,.15-.28,.3l-.15,2.4c-.02,.26-.23,.45-.48,.45h-.33c-.26,0-.47-.2-.48-.45l-.15-2.4c0-.16-.13-.28-.28-.3l-.22-.03c-.17-.02-.3-.19-.27-.37l.1-.75c.03-.16-.08-.32-.24-.36-.17-.04-.27-.21-.24-.38l.66-3.13c.05-.22,.3-.33,.49-.21l.62,.4c.1,.07,.24,.07,.36,0l.62-.4c.19-.12,.45-.02,.5,.21l.66,3.13c.03,.17-.08,.34-.24,.38Z"/><path class="cls-26" d="M51.44,235.81c0-.85-.69-1.54-1.55-1.54h-10.09c-.85,0-1.54,.69-1.54,1.54v10.09c0,.85,.69,1.54,1.54,1.54h10.09c.85,0,1.55-.69,1.55-1.54v-10.09Zm-3.72,.41c.43,0,.77,.34,.77,.77s-.34,.77-.77,.77-.77-.34-.77-.77,.34-.77,.77-.77Zm-5.95,0c.43,0,.77,.34,.77,.77s-.34,.77-.77,.77-.77-.34-.77-.77,.34-.77,.77-.77Zm1.54,2.21l-.21,2.58c-.01,.16-.12,.3-.27,.36h0c-.15,.06-.26,.2-.27,.37l-.2,3.35c-.02,.23-.2,.4-.43,.4h-.29c-.23,0-.41-.18-.43-.4l-.2-3.35c-.01-.17-.12-.31-.27-.37-.16-.06-.26-.2-.27-.36l-.21-2.58c-.02-.21,.12-.41,.33-.45l.21-.05c.14-.03,.29,.01,.39,.11l.29,.3c.17,.16,.44,.16,.6,0l.3-.3c.1-.1,.25-.14,.39-.11l.21,.05c.19,.05,.33,.25,.32,.46Zm1.64,7.06c0,.11-.09,.2-.21,.2s-.21-.09-.21-.2v-9.26c0-.11,.1-.21,.21-.21s.21,.09,.21,.21v9.26Zm4.28-4.12c-.15,.04-.24,.17-.22,.32l.09,.66c.02,.15-.09,.3-.24,.32l-.2,.02c-.13,.02-.24,.13-.24,.27l-.13,2.12c-.01,.23-.2,.4-.43,.4h-.29c-.23,0-.41-.17-.43-.4l-.13-2.12c0-.14-.11-.25-.24-.27l-.2-.02c-.15-.02-.27-.17-.24-.32l.09-.66c.02-.15-.07-.28-.22-.32-.15-.04-.24-.19-.21-.34l.58-2.76c.04-.2,.27-.29,.44-.18l.55,.35c.09,.06,.21,.06,.31,0l.54-.35c.17-.11,.4-.02,.44,.18l.58,2.76c.03,.15-.07,.3-.22,.34Z"/><g><polygon class="cls-26" points="251.38 531.14 244.26 535.34 244.16 530.44 251.29 526.24 258.57 530.15 258.67 535.05 251.38 531.14"/><polygon class="cls-26" points="251.52 537.85 244.39 542.05 244.29 537.15 251.42 532.95 258.71 536.86 258.8 541.76 251.52 537.85"/><polygon class="cls-26" points="251.65 544.56 244.52 548.75 244.42 543.86 251.55 539.66 258.83 543.57 258.93 548.47 251.65 544.56"/></g><g><polygon class="cls-26" points="483.88 530.8 476.76 534.99 476.66 530.09 483.79 525.9 491.07 529.81 491.17 534.7 483.88 530.8"/><polygon class="cls-26" points="484.02 537.51 476.89 541.7 476.8 536.8 483.92 532.61 491.21 536.52 491.3 541.41 484.02 537.51"/><polygon class="cls-26" points="484.15 544.21 477.02 548.4 476.93 543.51 484.05 539.32 491.34 543.22 491.44 548.12 484.15 544.21"/></g><g><path class="cls-23" d="M349.85,51.02c-.24,.2-.46,.37-.67,.51,0,0,0,0,0-.01,0-1-1-1.79-2.29-1.79s-2.29,.79-2.29,1.79c0,.89,.78,1.6,1.85,1.76v2.62s.47,.02,.47,.02c.02,0,.08,0,.19,0,.68,0,2.95-.11,4.3-1.48,1.23-1.25,2.65-1.15,2.71-1.14l.55,.06v-3.69h-.49c-.11-.02-2.7-.06-4.35,1.34Zm-4.25,.5c0-.37,.53-.79,1.29-.79s1.29,.42,1.29,.79-.5,.76-1.23,.78l-.49-.08v.03c-.51-.12-.85-.44-.85-.73Zm8.08,.8c-.69,.06-1.9,.33-2.98,1.42-.92,.93-2.48,1.13-3.26,1.17v-1.61c.63-.07,1.72-.38,3.05-1.52,.97-.83,2.43-1.04,3.18-1.1v1.64Z"/><path class="cls-23" d="M356.65,50.16c-.43,0-.7,.23-.7,.56v3.99c0,.34,.27,.56,.7,.56s.7-.23,.7-.56v-3.99c0-.34-.27-.56-.7-.56Z"/><path class="cls-23" d="M363.43,50.16c-.42,0-.67,.18-.67,.54v2.93h-.02l-2.45-3.18c-.15-.21-.41-.3-.7-.3-.6,0-.88,.19-.88,.66v3.92c0,.36,.26,.54,.67,.54s.67-.18,.67-.54v-2.85h.02l2.43,3.09c.18,.23,.32,.3,.77,.3,.59,0,.83-.25,.83-.7v-3.88c0-.36-.26-.54-.67-.54Z"/><path class="cls-23" d="M369.42,50.25h-4.04c-.4,0-.73,.16-.73,.47s.32,.47,.73,.47h1.32v3.52c0,.34,.27,.56,.7,.56s.7-.23,.7-.56v-3.52h1.32c.4,0,.73-.16,.73-.47s-.32-.47-.73-.47Z"/><path class="cls-23" d="M374.85,54.28h-2.77v-1.19h2.37c.37,0,.66-.08,.66-.43s-.29-.43-.66-.43h-2.37v-1.07h2.7c.41,0,.71-.1,.71-.45s-.3-.45-.71-.45h-3.28c-.49,0-.82,.16-.82,.66v3.62c0,.5,.32,.66,.82,.66h3.35c.41,0,.71-.1,.71-.45s-.3-.45-.71-.45Z"/><path class="cls-23" d="M381.91,51.62c0-.64-.44-1.37-2.11-1.37h-2.33c-.5,0-.82,.16-.82,.66v3.81c0,.34,.27,.56,.7,.56s.7-.23,.7-.56v-1.45h1.38c.77,0,.96,.35,.96,1.21,0,.2,.06,.8,.83,.8,.32,0,.66-.18,.66-.44,0-.23-.19-.45-.19-1.02,0-.5-.13-.92-.84-1h0c.67-.14,1.06-.67,1.06-1.2Zm-2.46,.82h-1.4v-1.33h1.44c.61,0,1.01,.14,1.01,.67,0,.56-.53,.67-1.06,.67Z"/><path class="cls-23" d="M404.76,50.99c-.41-.6-1.29-.85-2.28-.85h-2.67v1.91c-.32-1.22-1.68-1.99-3.3-1.99-1.5,0-2.77,.67-3.2,1.74-.08-1.12-1.09-1.66-2.46-1.66h-2.8v2.86c-.55-1.23-3.08-.82-3.08-1.39,0-.31,.64-.32,1-.32,.66,0,1.28,.1,1.8,.24v-1.25c-.63-.1-1.36-.17-2.01-.17-1.38,0-3.12,.24-3.12,1.58,0,1.9,3.19,1.3,3.19,1.96,0,.24-.5,.34-1.04,.34-.7,0-1.46-.11-2.09-.32v1.27c.87,.16,1.61,.23,2.5,.23,1.15,0,2.47-.24,2.84-1.12v.99h2.13v-1.47h1.13c.89,0,1.54-.33,1.84-.89,.05,1.53,1.53,2.44,3.36,2.44,1.62,0,2.98-.72,3.3-1.95v1.87h2.16v-1.57h.04l.97,1.57h2.55l-1.32-1.59c-.12-.14-.26-.22-.37-.29v-.04c.82-.22,1.18-.53,1.18-1.27,0-.04-.01-.08-.01-.12l.98-.04v3.35h2.21v-3.35l1.22,.05v-1.59h-4.65v.85Zm-14.36,1.34h-.22v-.85h.21c.36,0,.82,.02,.82,.4s-.42,.45-.81,.45Zm6.11,1.24c-.67,0-1.14-.38-1.14-.94,0-.52,.44-.96,1.14-.96s1.14,.44,1.14,.96c0,.56-.47,.94-1.14,.94Zm5.62-1.26h-.15v-.83h.17c.38,0,.71,.05,.71,.42s-.36,.41-.73,.41Z"/><path class="cls-23" d="M410.89,50.45c0-.15-.11-.17-.27-.17h-.34v.56h.15v-.23h.11l.15,.23h.17l-.17-.23c.12,0,.19-.05,.19-.15Zm-.27,.07h-.18v-.14h.15c.07,0,.16,0,.16,.06,0,.07-.04,.08-.12,.08Z"/><path class="cls-23" d="M410.56,50.02c-.37,0-.67,.24-.67,.54s.29,.53,.67,.53,.67-.24,.67-.53-.3-.54-.67-.54Zm0,.95c-.29,0-.51-.17-.51-.41s.22-.41,.51-.41,.51,.17,.51,.41-.22,.41-.51,.41Z"/></g><text class="cls-7" transform="translate(378.33 129.37)"><tspan x="0" y="0">BOBOQ</tspan></text><g><path class="cls-23" d="M510.39,128.72l-.4,.48v.81h-.65v-3.26h.65v1.54l1.23-1.54h.79l-1.19,1.48,1.28,1.78h-.8l-.9-1.29Z"/><path class="cls-23" d="M512.37,128.82v-2.07h.66v2.02c0,.45,.25,.66,.62,.66s.61-.22,.61-.66v-2.02h.66v2.07c0,.86-.59,1.25-1.27,1.25s-1.27-.39-1.27-1.25Z"/><path class="cls-23" d="M515.41,128.39c0-1.01,.77-1.7,1.68-1.7,.6,0,1.12,.28,1.4,.67l-.44,.43c-.23-.28-.55-.47-.93-.47-.58,0-1.04,.45-1.04,1.07s.45,1.04,1.04,1.04c.38,0,.72-.19,.95-.48l.45,.41c-.29,.39-.81,.69-1.44,.69-.93,0-1.68-.67-1.68-1.67Z"/><path class="cls-23" d="M518.97,126.75h.65v1.3h1.37v-1.3h.65v3.26h-.65v-1.33h-1.37v1.33h-.65v-3.26Z"/><path class="cls-23" d="M525.15,126.75v3.26h-.45l-1.69-2v2h-.64v-3.26h.42l1.72,2.02v-2.02h.64Z"/><path class="cls-23" d="M526.53,126.75v3.26h-.66v-3.26h.66Z"/><path class="cls-23" d="M528.99,129.31h-1.14l-.25,.71h-.68l1.24-3.26h.53l1.23,3.26h-.69l-.24-.71Zm-.95-.58h.77l-.38-1.08-.39,1.08Z"/><path class="cls-23" d="M513.13,132.93c0,.56-.35,1.06-1.2,1.06h-.5v1.12h-.65v-3.26h1.2c.82,0,1.15,.53,1.15,1.08Zm-.67,0c0-.24-.17-.46-.48-.46h-.56v.94h.52c.36,0,.51-.24,.51-.48Z"/><path class="cls-23" d="M513.4,133.5c0-.95,.75-1.7,1.7-1.7s1.7,.75,1.7,1.69-.74,1.68-1.7,1.68-1.69-.74-1.69-1.67Zm2.72,0c0-.61-.46-1.04-1.02-1.04s-1.02,.45-1.02,1.04,.45,1.04,1.02,1.04,1.02-.44,1.02-1.04Z"/><path class="cls-23" d="M517.33,131.86h.66v2.63h1.65v.63h-2.31v-3.26Z"/><path class="cls-23" d="M519.79,134.56l.38-.45c.22,.3,.53,.45,.86,.45,.27,0,.47-.15,.47-.35,0-.16-.13-.26-.29-.34-.21-.1-.48-.18-.71-.3-.29-.16-.52-.41-.52-.81,0-.54,.45-.95,1.11-.95,.38,0,.77,.13,1.07,.44l-.35,.48c-.19-.2-.49-.3-.71-.3-.26,0-.42,.13-.42,.31,0,.16,.13,.26,.26,.32,.17,.08,.5,.2,.72,.31,.32,.15,.56,.4,.56,.81,0,.58-.48,.99-1.2,.99-.5,0-.96-.21-1.23-.61Z"/><path class="cls-23" d="M523.79,133.83l-.4,.48v.81h-.65v-3.26h.65v1.54l1.23-1.54h.79l-1.19,1.48,1.28,1.78h-.8l-.9-1.29Z"/><path class="cls-23" d="M527.55,134.41h-1.14l-.25,.71h-.68l1.24-3.26h.53l1.23,3.26h-.69l-.24-.71Zm-.95-.58h.77l-.38-1.08-.39,1.08Z"/></g><g><path class="cls-23" d="M541.11,151.44c0,.57-.42,1.06-1.15,1.06h-1.66v-3.63h1.58c.69,0,1.03,.46,1.03,.9,0,.32-.2,.63-.5,.74,.47,.12,.69,.51,.69,.93Zm-2.09-1.94v.79h.71c.32,0,.46-.21,.46-.41s-.15-.38-.43-.38h-.74Zm1.34,1.88c0-.24-.17-.48-.54-.48h-.8v.96h.8c.37,0,.54-.25,.54-.48Z"/><path class="cls-23" d="M541.71,148.86h2.46v.68h-1.73v.78h1.6v.68h-1.6v.82h1.73v.68h-2.46v-3.63Z"/><path class="cls-23" d="M546,151.17h-.43v1.32h-.73v-3.63h1.39c.85,0,1.24,.55,1.24,1.15,0,.44-.22,.88-.74,1.07l.88,1.42h-.85l-.77-1.32Zm-.43-.65h.59c.41,0,.57-.25,.57-.5s-.17-.49-.5-.49h-.66v.98Z"/><path class="cls-23" d="M548.16,148.86h.73v2.93h1.84v.7h-2.57v-3.63Z"/><path class="cls-23" d="M551.93,148.86v3.63h-.73v-3.63h.73Z"/><path class="cls-23" d="M555.84,148.86v3.63h-.5l-1.88-2.23v2.23h-.72v-3.63h.46l1.92,2.25v-2.25h.72Z"/><path class="cls-23" d="M527.64,154.56h1.42c1.1,0,1.75,.7,1.75,1.82s-.66,1.81-1.78,1.81h-1.39v-3.63Zm1.42,2.93c.65,0,.99-.51,.99-1.12s-.33-1.11-.99-1.11h-.7v2.24h.7Z"/><path class="cls-23" d="M531.21,156.38c0-1.06,.83-1.89,1.89-1.89s1.89,.84,1.89,1.88-.82,1.87-1.9,1.87-1.89-.82-1.89-1.86Zm3.03,0c0-.68-.51-1.16-1.13-1.16s-1.13,.5-1.13,1.16,.5,1.15,1.13,1.15,1.14-.49,1.13-1.15Z"/><path class="cls-23" d="M538.69,154.56v3.63h-.5l-1.88-2.23v2.23h-.72v-3.63h.46l1.92,2.25v-2.25h.72Z"/><path class="cls-23" d="M542.59,154.56v3.63h-.5l-1.88-2.23v2.23h-.72v-3.63h.46l1.92,2.25v-2.25h.72Z"/><path class="cls-23" d="M543.4,154.56h2.46v.68h-1.73v.78h1.6v.68h-1.6v.82h1.73v.68h-2.46v-3.63Z"/><path class="cls-23" d="M547.69,156.87h-.43v1.32h-.73v-3.63h1.39c.85,0,1.24,.55,1.24,1.15,0,.44-.22,.88-.74,1.07l.88,1.42h-.85l-.77-1.32Zm-.43-.65h.59c.41,0,.57-.25,.57-.5s-.17-.49-.5-.49h-.66v.98Z"/><path class="cls-23" d="M552.23,156.75l-.45,.54v.9h-.73v-3.63h.73v1.71l1.38-1.71h.88l-1.33,1.65,1.42,1.98h-.89l-1.01-1.44Z"/><path class="cls-23" d="M554.48,154.56h2.46v.68h-1.73v.78h1.6v.68h-1.6v.82h1.73v.68h-2.46v-3.63Z"/><path class="cls-23" d="M560.42,157.13c0,.57-.42,1.06-1.15,1.06h-1.66v-3.63h1.58c.69,0,1.03,.46,1.03,.9,0,.32-.2,.63-.5,.74,.47,.12,.69,.51,.69,.93Zm-2.09-1.94v.79h.71c.32,0,.46-.21,.46-.41s-.15-.38-.43-.38h-.74Zm1.34,1.88c0-.24-.17-.48-.54-.48h-.8v.96h.8c.37,0,.54-.25,.54-.48Z"/><path class="cls-23" d="M562.84,157.4h-1.27l-.28,.79h-.76l1.39-3.63h.59l1.37,3.63h-.77l-.27-.79Zm-1.06-.65h.86l-.42-1.21-.43,1.21Z"/><path class="cls-23" d="M566.95,155.76c0,.62-.39,1.18-1.34,1.18h-.56v1.25h-.73v-3.63h1.34c.91,0,1.28,.59,1.28,1.2Zm-.74,0c0-.27-.19-.52-.53-.52h-.62v1.05h.58c.4,0,.57-.27,.57-.53Z"/></g><text class="cls-11" transform="translate(530.78 169.04)"><tspan x="0" y="0">NO</tspan><tspan class="cls-2" x="9.32" y="0">R</tspan><tspan x="13.08" y="0">TH FISH</tspan></text><g><path class="cls-23" d="M542.18,187.44h-.54l-.12,.47c.26,.02,.62,.25,.33,.53-.04,.03-3.07,2.35-3.07,2.35l.65-2.37c.13-.46,.63-.51,.63-.51l.12-.47h-3.65s-.12,.48-.12,.48c.17,.04,.67,.14,.5,.8-1.22,4.41-1.08,3.97-1.16,4.21-.33,1.27-.87,1.21-1.06,1.22l-.12,.47v.03s0,0,0,0h3.81l.13-.52s-.61-.12-.49-.56c.12-.43,.59-2.17,.59-2.17,1.69,2.71,2.11,3.18,3.58,3.25,.5,.02,1.12,0,1.94,0l.13-.51c-.48,0-.8-.35-.99-.56-.1-.11-.61-.88-1.08-1.59-.42-.64-.8-1.24-.8-1.24l.8-.64,2.28-1.82c.52-.43,.89-.39,.89-.39l.12-.47h-3.28Z"/><path class="cls-23" d="M557.66,187.37c-.41,0-.79,.01-1.17,.06-3.06,.36-4.91,2.28-4.91,4.22,0,1.62,1.31,3.18,4.35,3.17,.19,0,.38,0,.56-.02,.73-.04,1.38-.14,1.97-.26l.35-1.51c-.59,.2-1.33,.36-1.92,.36-.14,0-.27,0-.4-.02-1.39-.14-2.3-1.04-2.3-2.19,0-1.19,.86-2.12,2.3-2.37,.24-.04,.5-.06,.77-.06,.93,0,1.4,.31,1.71,.71h.25l.5-1.78c-.51-.16-1.27-.31-2.06-.32Z"/><path class="cls-23" d="M549.62,187.44h-3.6l-.12,.47s.72,.08,.5,.8l-1.63,5.94h3.27s.12-.51,.12-.51c0,0-.61-.15-.45-.71,.01-.05,.48-1.77,.48-1.77h1.44s.06,0,.06,0c.74,0,.99,.39,.99,.39l.44-1.77h-2.53l.38-1.39h2.19c.4,0,.69,.27,.69,.47h.25l.48-1.93h-2.95Z"/></g><text class="cls-16" transform="translate(531.96 251.93)"><tspan x="0" y="0">50 </tspan><tspan class="cls-39" x="11.77" y="0">S</tspan><tspan class="cls-51" x="16.48" y="0">TYLE</tspan></text><text class="cls-7" transform="translate(528.51 285.53)"><tspan x="0" y="0">SZ</tspan><tspan class="cls-62" x="6.94" y="0">A</tspan><tspan class="cls-60" x="10.62" y="0">CH</tspan><tspan class="cls-64" x="19.09" y="0">O</tspan><tspan class="cls-60" x="23.67" y="0">WNI</tspan><tspan class="cls-42" x="35.65" y="0">C</tspan><tspan class="cls-3" x="39.78" y="0">A</tspan></text><text class="cls-7" transform="translate(496.95 329.22)"><tspan x="0" y="0">BIG </tspan><tspan class="cls-33" x="11.38" y="0">S</tspan><tspan class="cls-67" x="14.66" y="0">T</tspan><tspan x="17.59" y="0">AR</tspan></text><text class="cls-4" transform="translate(491.32 354.48)"><tspan x="0" y="0">CIPO&amp;</tspan><tspan class="cls-25" x="12.8" y="0">B</tspan><tspan x="15.42" y="0">AX</tspan><tspan class="cls-66" x="20.76" y="0">X</tspan></text><path class="cls-12" d="M508.86,387.84c.69,.02,1.3-.65,1.37-1.22,.07-.55-.39-1.06-.85-1.07-.35,0-.68,0-1.05,0-.42,.73-.81,1.48-1.18,2.26,.67,.01,1.09,0,1.7,.02Zm.57-4.75c.36-.77,.78-1.49,1.15-2.24,.49-.01,.68-.02,1.09,0,.54,.02,.78,.47,.83,.76,.07,.41-.14,.78-.37,1.02-.58,.61-1.72,.51-2.7,.46Zm-11.27-4.58h4.91l.4,1.5-5.99-.37,.67-1.13Zm6.06,4.11l1.24-1.95,3.75-.31-3.47-.2,.95-1.67h6.2c3.75,0,3.86,1.61,3.64,2.73-.22,1.12-.78,1.95-1.64,2.49-.86,.54-1.72,.63-1.72,.63,.67,.47,1.29,1.71,1.24,2.48-.04,.77-.12,1.57-1.55,2.65-1.43,1.08-3.51,1.28-3.51,1.28h-8.63l-.48-1.64,4.18-.3-4.34-.31-.57-1.95-1,1.86-5.65-.39,.72-1.31,12.45-.83-11.59-.7,.62-1.14,12.56-.82-11.7-.75,.74-1.31,6.99-.44,.57,1.88Zm-6.12,6.54l-.84,1.56h-5.98l.62-1.15,6.2-.41Z"/><text class="cls-10" transform="translate(513.22 431.48)"><tspan x="0" y="0">MEDI</tspan><tspan class="cls-48" x="21" y="0">A</tspan><tspan class="cls-45" x="26.3" y="0" xml:space="preserve"> EXPE</tspan><tspan class="cls-47" x="48.64" y="0">R</tspan><tspan class="cls-41" x="53.87" y="0">T</tspan></text><text class="cls-24" transform="translate(102.48 487.13)"><tspan class="cls-59" x="0" y="0">A</tspan><tspan class="cls-40" x="6.51" y="0">C</tspan><tspan x="13.79" y="0">APU</tspan><tspan class="cls-37" x="33.86" y="0">L</tspan><tspan class="cls-57" x="39.58" y="0">C</tspan><tspan x="46.93" y="0">O</tspan></text><g><path class="cls-23" d="M203.1,473.93c0-2.02,1.55-3.43,3.5-3.43,1.11,0,2.1,.47,2.67,1.07l-.87,.95c-.46-.46-1.1-.74-1.8-.74-1.24,0-2.14,.91-2.14,2.14s.87,2.14,2.12,2.14c.71,0,1.37-.3,1.77-.71v-.9h-1.83v-1.16h3.04v2.72c-.81,.84-1.85,1.32-3.02,1.32-2.01,0-3.45-1.44-3.45-3.4Z"/><path class="cls-23" d="M214.06,475.8h-2.31l-.51,1.43h-1.39l2.53-6.62h1.08l2.49,6.62h-1.4l-.49-1.43Zm-1.93-1.18h1.56l-.77-2.2-.79,2.2Z"/><path class="cls-23" d="M216.76,470.62h.88l2.6,3.75,2.57-3.75h.9v6.62h-1.33v-3.75l-1.93,2.77h-.46l-1.93-2.77v3.75h-1.31v-6.62Z"/><path class="cls-23" d="M225.18,470.62h4.49v1.24h-3.15v1.42h2.92v1.24h-2.92v1.49h3.15v1.24h-4.49v-6.62Z"/><path class="cls-23" d="M206.26,486.18h-2.31l-.51,1.43h-1.39l2.53-6.62h1.08l2.49,6.62h-1.4l-.49-1.43Zm-1.93-1.18h1.56l-.77-2.2-.79,2.2Z"/><path class="cls-23" d="M211.08,485.2h-.79v2.41h-1.33v-6.62h2.53c1.55,0,2.27,.99,2.27,2.1,0,.8-.4,1.6-1.34,1.94l1.6,2.58h-1.55l-1.4-2.41Zm-.79-1.19h1.08c.74,0,1.03-.45,1.03-.9s-.31-.89-.91-.89h-1.2v1.79Z"/><path class="cls-23" d="M215.01,480.99h4.49v1.24h-3.15v1.42h2.92v1.24h-2.92v1.49h3.15v1.24h-4.49v-6.62Z"/><path class="cls-23" d="M226.36,480.99v6.62h-.9l-3.43-4.06v4.06h-1.31v-6.62h.84l3.49,4.09v-4.09h1.31Z"/><path class="cls-23" d="M231.37,486.18h-2.31l-.51,1.43h-1.39l2.53-6.62h1.08l2.49,6.62h-1.4l-.49-1.43Zm-1.93-1.18h1.56l-.77-2.2-.79,2.2Z"/></g><g><path class="cls-23" d="M315.91,488.48c.43,.21,1,.34,1.69,.44,.69,.11,1.33,.15,1.37,.66,0,.32-.34,.74-1.07,.74-1.09-.02-1.35-.62-1.35-1.02h-1.69c.06,1.29,1.13,2.21,2.93,2.21,1.6,0,2.91-.62,2.91-2.21,0-.87-.64-1.49-1.65-1.74-1.05-.27-2.39-.23-2.39-.89,.05-.44,.47-.57,1.11-.57,.96,0,1.03,.54,1.05,.87h1.63c-.11-1.25-1.14-2.1-2.76-2.1s-2.67,.91-2.67,2.06c0,.68,.36,1.27,.9,1.55"/><polygon class="cls-23" points="295.34 482.75 292.37 477.65 286.75 480.86 287.84 482.75 295.34 482.75 295.34 482.75"/><polygon class="cls-23" points="297.74 491.36 299.34 491.36 299.34 484.93 297.74 484.93 297.74 491.36 297.74 491.36"/><path class="cls-23" d="M286.04,486.33c1.03,0,1.88,.85,1.88,1.85s-.85,1.83-1.88,1.83-1.86-.83-1.86-1.83,.85-1.85,1.86-1.85m-.04,5.18c.73,0,1.39-.21,1.92-.57v.42h1.58v-6.43h-1.58v.51c-.55-.38-1.22-.58-1.92-.58-1.84,0-3.36,1.47-3.36,3.31s1.52,3.33,3.36,3.33"/><polygon class="cls-23" points="315.12 482.75 305.39 466.04 299.77 469.27 307.6 482.75 315.12 482.75 315.12 482.75"/><path class="cls-23" d="M293.48,490c-1.03,0-1.89-.83-1.89-1.83s.86-1.85,1.89-1.85,1.86,.85,1.86,1.85-.85,1.83-1.86,1.83m-.05-5.14c-1.86,0-3.38,1.47-3.38,3.31s1.52,3.33,3.38,3.33c.7,0,1.35-.21,1.9-.57v.42h1.6v-8.62h-1.6v2.7c-.55-.38-1.2-.57-1.9-.57"/><polygon class="cls-23" points="297.74 484.34 299.34 484.34 299.34 482.75 305.26 482.75 298.96 471.92 293.31 475.13 297.74 482.75 297.74 484.34 297.74 484.34"/><path class="cls-23" d="M310.8,490c-1.01,0-1.86-.83-1.86-1.83s.85-1.85,1.86-1.85,1.84,.85,1.84,1.85-.83,1.83-1.84,1.83m3.44,1.36v-6.43h-1.6v.51c-.54-.38-1.19-.57-1.9-.57-1.84,0-3.36,1.47-3.36,3.31s1.52,3.33,3.36,3.33c.73,0,1.37-.21,1.9-.57v.42h1.6Z"/><path class="cls-23" d="M303.38,490c-.99,0-1.84-.83-1.84-1.83s.85-1.85,1.84-1.85,1.88,.85,1.88,1.85-.85,1.83-1.88,1.83m-.05-5.14c-1.84,0-3.36,1.47-3.36,3.31s1.52,3.33,3.36,3.33c.73,0,1.39-.21,1.93-.57v.42h1.58v-8.62h-1.58v2.7c-.55-.38-1.2-.57-1.93-.57"/></g><g><path class="cls-12" d="M364.57,472.36c-.21-.27-.58-.06-.74,.04-1.15,.68-1.32,1.89-1.72,2.58-.32,.55-.84,.96-1.3,.99-.35,.03-.72-.04-1.09-.21-.91-.4-1.4-.91-1.52-1-.24-.19-2.13-2.04-3.66-2.12,0,0-.19-.38-.24-.39-.11-.01-.23,.23-.31,.26-.08,.03-.21-.26-.29-.25-.08,.01-.15,.3-.3,.45-.11,.11-.25,.1-.32,.23-.03,.05-.02,.13-.05,.22-.06,.16-.28,.18-.28,.35,0,.19,.18,.23,.34,.36,.12,.11,.13,.18,.28,.24,.13,.04,.31-.1,.48-.05,.14,.04,.27,.07,.3,.21,.03,.13,0,.34-.17,.31-.06,0-.3-.09-.6-.06-.36,.04-.78,.16-.82,.57-.02,.23,.26,.49,.53,.44,.19-.04,.1-.26,.2-.37,.13-.14,.89,.48,1.6,.48,.3,0,.52-.07,.74-.3,.02-.02,.05-.06,.08-.06,.03,0,.08,.03,.1,.04,.57,.46,1,1.37,3.08,1.38,.29,0,.63,.14,.9,.39,.24,.23,.39,.58,.52,.93,.21,.53,.58,1.05,1.15,1.63,.03,.03,.5,.39,.54,.42,0,0,.04,.09,.03,.13-.01,.35-.06,1.35,.69,1.4,.18,0,.14-.12,.14-.21,0-.18-.03-.35,.06-.53,.13-.25-.27-.36-.26-.89,0-.4-.33-.33-.5-.63-.1-.18-.18-.27-.18-.48,.04-1.21-.26-2-.4-2.2-.12-.15-.21-.21-.1-.27,.63-.41,.77-.8,.77-.8,.33-.78,.63-1.5,1.05-1.81,.08-.07,.3-.22,.43-.29,.39-.18,.59-.29,.7-.4,.18-.17,.32-.53,.15-.75Z"/><path class="cls-12" d="M345.61,484.02h2.75c.26,0,.46-.21,.46-.47v-5.26h-1.57v4.77c0,.15-.12,.26-.27,.27-.14,0-.27-.12-.27-.27v-4.77s-1.57,0-1.57,0v5.26c0,.26,.21,.47,.47,.47Z"/><path class="cls-12" d="M350.93,479.24c0-.15,.12-.26,.27-.26s.26,.11,.27,.26v4.79h1.57v-4.79c0-.15,.12-.26,.27-.26s.27,.12,.27,.26v4.78h1.57v-5.21c0-.28-.23-.51-.51-.51h-4.76c-.28,0-.51,.23-.51,.51v5.21h1.57v-4.78Z"/><path class="cls-12" d="M342.5,482.59h1.59c.29,0,.52-.23,.52-.52v-3.26c0-.29-.22-.52-.51-.52h-3.17v5.73h1.57v-1.44Zm0-3.61h.27c.14,0,.27,.11,.27,.27v2.36c0,.16-.13,.27-.27,.27h-.27v-2.9Z"/><path class="cls-12" d="M358.84,478.3h-2.65c-.28,0-.51,.23-.51,.51v5.21h1.57v-1.44h.53v1.44h1.57v-5.21c0-.28-.23-.51-.51-.51Zm-1.06,3.58h-.53v-2.63c0-.15,.12-.26,.27-.26s.26,.11,.27,.26v2.64Z"/><path class="cls-12" d="M360.58,482.6c-.38,0-.69,.32-.69,.71s.31,.71,.7,.71,.7-.32,.7-.71-.31-.71-.71-.71Zm.01,1.31c-.33,0-.59-.27-.59-.6s.27-.6,.58-.6h0c.32,0,.59,.27,.59,.6s-.26,.6-.59,.6Z"/><path class="cls-12" d="M360.67,483.37c.1-.03,.16-.12,.16-.23,0-.16-.12-.24-.34-.24h-.16v.81h.15v-.32l.24,.32h.19l-.26-.34h.01Zm-.18-.11v-.22h.03c.11,0,.16,.04,.16,.1,0,.08-.06,.12-.17,.12h-.03Z"/></g><g><path class="cls-23" d="M218.53,275.52c-.8,.35-1.41-.02-2.39,1.98-3.05,6.27-5.43,11.36-8.25,18.68,.08-6.01,1.16-10.8,1.8-16.66,.12-1.08,.28-2.57,.26-3.69-.02-.86-.88-.98-2.61-.12-.96,.47-2.12,.43-2.56,1.58-1.88,4.87-6.22,18.41-8.24,26.07-.48,1.84,1.34,2.15,1.89,.26,1.33-4.56,4.36-14.66,6.16-19.86-.18,4.76-1.48,12.29-.87,16.24,.19,1.24,1.35,1.78,1.95,2.83,.42,.75,1.11,.82,1.48-.2,1.76-4.82,5.2-13.31,8.52-20.1-.65,2.99-3.14,15.68-3.84,20.74-.14,1.02,1.1,1.04,2.21,2.57,.25,.34,1.2,.72,1.37-.16,.59-3.03,4.44-22.74,5.95-29,.41-1.69,.29-2.54-2.82-1.15Z"/><path class="cls-23" d="M193.36,289.84c1.33-1.98,1.71-1.58,2.03-2.18,.4-.75,.14-1.46-1.28-1.29,0,0-.54,.04-1.52,.15,1.57-4.04,2.94-7.47,3.93-10.08,.33-.88,.38-1.53-.17-1.67-.59-.14-2.28,.78-3.33,.95-.33,.06-.65,.41-.76,.66-1.67,3.84-3.17,7.49-4.46,10.83-1.66,.28-3.6,.66-5.77,1.14,1.55-3.99,3.12-7.92,4.66-11.71,.75-1.86-1.23-2.04-2-.15-1,2.45-2.87,7.04-4.95,12.4-1.53,.37-3.14,.8-4.83,1.29-1.23,.35-1.28,.68-.75,1.42,.3,.41,.9,.37,1.18,.66,.72,.76,1.15,1.66,2.43,1.8-1.15,3.06-2.29,6.21-3.32,9.25-.65,1.91,1.2,2.3,1.91,.28,1.15-3.25,2.36-6.54,3.6-9.82,1.03-.24,3.54-.78,5.85-1.28-1.84,5.03-3.05,8.85-3.5,10.71-.09,.36,.06,.56,.13,.7,.62,.9,1.21,.94,2.01,2.05,.22,.3,.94,.47,1.19-.28,1.7-5.14,3.45-9.96,5.08-14.28,.68-.15,1.9-.44,2.64-1.56Z"/><path class="cls-23" d="M194.61,297.68c-.12,.1-.24,.22-.37,.34-.14-.44-.29-.89-.42-1.31,.4-.49,.79-.97,1.12-1.49,1.37-2.13-1.34-3.35-2.5-1.97-.62,.74-.47,1.46-.3,2.08,.05,.19,.13,.47,.23,.8-.33,.34-.73,.77-1.26,1.38-1.32,1.53-.96,3.52,.45,3.96,.86,.27,1.66-.12,2.36-.74,.03,.09,.07,.18,.1,.26,.37,.92,1.51,.64,1.08-.47-.08-.19-.17-.45-.28-.76,.22-.28,.43-.57,.61-.84,.84-1.25,.03-1.98-.82-1.24Zm-.89-2.93c-.13,.14-.25,.27-.37,.4-.03-.11-.06-.21-.08-.29-.39-1.48,1.31-1.08,.45-.11Zm-.92,4.52c-.52,.32-.93-.02-.23-.98,.12-.16,.23-.32,.35-.47,.12,.36,.24,.73,.36,1.09-.16,.13-.32,.25-.49,.35Z"/></g><g id="Brandingmodul_Deichmann_quadratisch_vertikal"><path id="Deichmann" class="cls-23" d="M331.73,291.15c0,.85-.36,1.71-1.38,1.72h-1.31s-.02-3.4-.02-3.4h1.17c.95-.01,1.53,.53,1.54,1.68m1.82,0c-.01-1.7-1.05-3.08-3.1-3.06-.12,0-3.21,.02-3.21,.02l.04,6.17s3.08-.02,3.21-.02c2.05-.01,3.08-1.4,3.07-3.11m1.05,3.08l5.22-.03v-1.33s-3.44,.02-3.44,.02v-1.11s2.84-.02,2.84-.02v-1.28s-2.86,.02-2.86,.02v-1.11s3.43-.02,3.43-.02v-1.33s-5.23,.03-5.23,.03l.04,6.17Zm6.49-.04h1.78s-.04-6.18-.04-6.18h-1.78s.04,6.18,.04,6.18Zm4.75-3.12c0-1.04,.36-1.93,1.46-1.94,.75,0,1.12,.45,1.27,.98h1.77c-.1-1.39-1.29-2.35-3.05-2.34-2.23,.01-3.28,1.49-3.27,3.31,.01,1.82,1.09,3.28,3.31,3.27,1.85-.01,2.94-1.06,3.03-2.4h-1.77c-.1,.56-.46,1.01-1.27,1.02-1.1,0-1.47-.86-1.48-1.9m9.92,3.03h1.78s-.04-6.18-.04-6.18h-1.78s.01,2.36,.01,2.36l-2.62,.02v-2.35s-1.8,.01-1.8,.01l.04,6.17h1.78s-.01-2.45-.01-2.45l2.62-.02v2.44Zm9.33-.06h1.64s-.04-6.18-.04-6.18l-2.57,.02-1.2,4.08h-.01l-1.25-4.06-2.57,.02,.04,6.17h1.64s-.03-4.63-.03-4.63h.01l1.44,4.61h1.47s1.38-4.63,1.38-4.63h.01l.03,4.61Zm6.6-2.32h-1.5s.73-2.33,.73-2.33h.02l.76,2.33Zm.76,2.28h1.91s-2.34-6.17-2.34-6.17h-2.18s-2.28,6.2-2.28,6.2h1.91s.32-1.02,.32-1.02h2.34s.33,.99,.33,.99Zm6.92-.04h1.97s-.04-6.18-.04-6.18h-1.72s.02,3.87,.02,3.87h-.01l-2.5-3.85h-2.05s.04,6.18,.04,6.18h1.72s-.02-3.91-.02-3.91h.01l2.59,3.88Zm9.82-.06l-.04-6.17h-1.72s.02,3.87,.02,3.87h-.01l-2.5-3.85h-2.05s.04,6.18,.04,6.18h1.72s-.02-3.91-.02-3.91h.01l2.59,3.88h1.97Z"/></g><g><path class="cls-23" d="M414.44,294.34c-1.92,1.1-4.01,1.64-6.24,1.64-2.6,0-4.72-.76-6.32-2.29-1.69-1.59-2.53-3.63-2.53-6.14s.83-4.56,2.52-6.12c1.67-1.56,3.92-2.35,6.72-2.35,1.98,0,3.88,.46,5.71,1.34v3.82c-1.79-1.16-3.61-1.75-5.44-1.75-1.64,0-2.95,.46-3.89,1.36-.94,.9-1.42,2.13-1.42,3.69s.44,2.72,1.34,3.63c.9,.93,2.12,1.39,3.65,1.39,1.96,0,3.92-.69,5.89-2.06v3.82h0Z"/><path class="cls-23" d="M448.47,294.34c-1.92,1.1-4.01,1.64-6.24,1.64-2.6,0-4.72-.76-6.32-2.29-1.69-1.59-2.53-3.63-2.53-6.14s.83-4.56,2.52-6.12c1.67-1.56,3.92-2.35,6.72-2.35,1.97,0,3.88,.46,5.71,1.34v3.82c-1.79-1.16-3.61-1.75-5.44-1.75-1.65,0-2.95,.46-3.89,1.36-.94,.9-1.42,2.13-1.42,3.69s.44,2.72,1.34,3.63c.9,.93,2.12,1.39,3.65,1.39,1.96,0,3.92-.69,5.89-2.06v3.82h0Z"/><path class="cls-23" d="M431.45,294.34c-1.92,1.1-4.01,1.64-6.22,1.64-2.6,0-4.72-.76-6.33-2.29-1.69-1.59-2.53-3.63-2.53-6.14s.83-4.56,2.52-6.12c1.67-1.56,3.92-2.35,6.72-2.35,1.96,0,3.86,.46,5.7,1.34v3.82c-1.79-1.16-3.61-1.75-5.42-1.75-1.65,0-2.95,.46-3.89,1.36-.94,.9-1.42,2.13-1.42,3.69s.44,2.72,1.35,3.63c.9,.93,2.12,1.39,3.65,1.39,1.95,0,3.91-.69,5.88-2.06v3.82h0Z"/></g><g><path class="cls-23" d="M353.47,368.75l1.55,1.55v3.71h-3.79v-1.18c0-1.09-.03-1.21-.41-1.59-.41-.38-.5-.39-2.29-.42-1.86-.01-1.88-.01-2.32,.41l-.44,.42v7.88l.41,.42c.41,.42,.42,.42,2.32,.42s1.91,0,2.32-.42c.36-.38,.41-.55,.41-1.44v-1.02h3.79v3.41l-3.11,3.11h-6.82l-3.11-3.11v-10.61l3.11-3.11h6.82l1.56,1.56Z"/><path class="cls-23" d="M369.19,379.31l2.65-2.65v-6.38l-1.58-1.55-1.56-1.55h-9.9v16.83h3.62l.05-2.09,.05-2.08,.97-.05,.99-.05,5.4,5.4,2.58-2.58-3.26-3.26Zm-1.55-3.46l-.41,.42h-4.79v-2.7c0-1.49,.03-2.74,.06-2.77,.03-.03,1.11-.04,2.4-.01,2.27,.05,2.33,.06,2.74,.44,.41,.39,.41,.42,.41,2.3s-.02,1.91-.41,2.32Z"/><path class="cls-23" d="M388.93,369.64l-2.47-2.46h-4.23l-7.5,7.5v4.4l4.93,4.93h4.23l7.52-7.49v-4.43l-2.47-2.46Zm-1.17,5.2l-2.76,2.76c-2.67,2.67-2.79,2.77-3.38,2.77-.55,0-.7-.11-1.93-1.32-1.29-1.27-1.33-1.35-1.33-2.02v-.68l2.76-2.76c2.67-2.67,2.79-2.77,3.38-2.77,.55,0,.7,.11,1.93,1.32,1.29,1.27,1.33,1.35,1.33,2.02v.68Z"/><path class="cls-23" d="M405.74,368.73l-1.56-1.55h-4.96c-2.71,0-4.94,.03-4.94,.08v16.67l3.64,.09v-3.81h6.29l3.11-3.11v-6.84l-1.58-1.55Zm-2.21,7l-.97,1h-4.64v-2.93c0-1.62,.03-2.97,.06-3,.03-.03,1.11-.04,2.4-.01,2.27,.05,2.33,.06,2.74,.44,.41,.41,.41,.42,.41,2.46v2.05Z"/><path class="cls-23" d="M422.28,368.73l-1.55-1.55h-4.9c-3.77,0-4.91,.05-4.96,.18-.05,.11-.06,3.88-.05,8.38l.05,8.19h3.64l.05-1.86,.05-1.85h6.28l2.96-2.96v-6.97l-1.56-1.56Zm-2.21,5.06c-.03,2.06-.05,2.12-.42,2.52l-.41,.42h-4.64v-5.9l2.24-.05,2.23-.05,.52,.47,.5,.47v2.11Z"/></g><text class="cls-21" transform="translate(447.65 357.99)"><tspan class="cls-65" x="0" y="0">F</tspan><tspan x="3.12" y="0">A</tspan><tspan class="cls-63" x="7.04" y="0">R</tspan><tspan class="cls-44" x="10.76" y="0">T</tspan></text><text class="cls-14" transform="translate(442.5 385.23)"><tspan class="cls-38" x="0" y="0">B</tspan><tspan class="cls-46" x="2.79" y="0">A</tspan><tspan x="5.58" y="0">G H</tspan><tspan class="cls-50" x="13.21" y="0">A</tspan><tspan class="cls-53" x="16.03" y="0">U</tspan><tspan x="19.05" y="0">SE</tspan></text><text class="cls-19" transform="translate(444.41 227.52)"><tspan class="cls-54" x="0" y="0">B</tspan><tspan class="cls-58" x="2.14" y="0">Y</tspan><tspan class="cls-56" x="4.28" y="0" xml:space="preserve"> OH L</tspan><tspan class="cls-32" x="13.2" y="0">A</tspan><tspan x="15.39" y="0" xml:space="preserve"> L</tspan><tspan class="cls-32" x="18.23" y="0">A</tspan></text><text class="cls-17" transform="translate(446.43 203.25)"><tspan class="cls-49" x="0" y="0">BA</tspan><tspan x="6.72" y="0">SHMIR</tspan></text><g><path class="cls-23" d="M417.8,202.44l.24-.32c.14,.21,.34,.32,.56,.32,.18,0,.3-.1,.3-.25,0-.12-.08-.19-.19-.24-.13-.07-.31-.13-.45-.22-.18-.12-.33-.29-.33-.58,0-.38,.29-.68,.72-.68,.24,0,.49,.09,.69,.31l-.22,.34c-.12-.14-.31-.22-.46-.22-.17,0-.27,.09-.27,.22,0,.12,.08,.18,.17,.23,.11,.06,.32,.14,.46,.22,.21,.11,.36,.28,.36,.58,0,.41-.31,.71-.77,.71-.32,0-.62-.15-.79-.43Z"/><path class="cls-23" d="M419.56,202.5l1.04-1.56h-1v-.43h1.57v.35l-1.02,1.55h1.05v.43h-1.64v-.33Z"/><path class="cls-23" d="M423.33,200.51v2.32h-.29l-1.09-1.42v1.42h-.42v-2.32h.27l1.11,1.44v-1.44h.41Z"/><path class="cls-23" d="M423.76,201.99v-1.47h.42v1.44c0,.32,.16,.47,.4,.47s.39-.16,.39-.47v-1.44h.43v1.47c0,.61-.38,.89-.82,.89s-.82-.28-.82-.89Z"/><path class="cls-23" d="M426.51,201.99h-.25v.85h-.42v-2.32h.8c.49,0,.72,.35,.72,.74,0,.28-.13,.56-.43,.68l.51,.91h-.49l-.44-.85Zm-.25-.42h.34c.24,0,.33-.16,.33-.32s-.1-.31-.29-.31h-.38v.63Z"/><path class="cls-23" d="M427.61,201.68c0-.68,.48-1.21,1.09-1.21s1.09,.54,1.09,1.2-.47,1.2-1.1,1.2-1.09-.52-1.09-1.19Zm1.75,0c0-.43-.3-.75-.66-.75s-.66,.32-.66,.75,.29,.74,.66,.74,.66-.31,.66-.74Zm-.66-1.91h.46l-.28,.58h-.37l.18-.58Z"/><path class="cls-23" d="M429.87,200.51h.46l.42,1.56,.48-1.56h.27l.49,1.56,.42-1.56h.46l-.69,2.32h-.36l-.45-1.52-.45,1.52h-.36l-.7-2.32Z"/><path class="cls-23" d="M433.78,201.91l-.26,.34v.58h-.42v-2.32h.42v1.1l.79-1.1h.51l-.77,1.06,.82,1.27h-.52l-.58-.92Z"/><path class="cls-23" d="M436.19,202.33h-.73l-.16,.5h-.44l.8-2.32h.34l.79,2.32h-.44l-.16-.5Zm-.61-.42h.49l-.24-.77-.25,.77Z"/><path class="cls-23" d="M438.09,200.51v2.32h-.42v-2.32h.42Z"/><path class="cls-23" d="M422.64,206.09l.24-.32c.14,.21,.34,.32,.56,.32,.18,0,.3-.1,.3-.25,0-.12-.08-.19-.19-.24-.13-.07-.31-.13-.45-.22-.18-.12-.33-.29-.33-.58,0-.38,.29-.68,.72-.68,.24,0,.49,.09,.69,.31l-.22,.34c-.12-.14-.31-.22-.46-.22-.17,0-.27,.09-.27,.22,0,.12,.08,.18,.17,.23,.11,.06,.32,.14,.46,.22,.21,.11,.36,.28,.36,.58,0,.41-.31,.71-.77,.71-.32,0-.62-.15-.79-.43Z"/><path class="cls-23" d="M426.05,204.93c0,.4-.22,.75-.77,.75h-.32v.8h-.42v-2.32h.78c.53,0,.74,.38,.74,.77Zm-.43,0c0-.17-.11-.33-.31-.33h-.36v.67h.34c.23,0,.33-.17,.33-.34Z"/><path class="cls-23" d="M426.22,205.33c0-.68,.48-1.21,1.09-1.21s1.09,.54,1.09,1.2-.47,1.2-1.1,1.2-1.09-.52-1.09-1.19Zm1.75,0c0-.43-.3-.75-.66-.75s-.66,.32-.66,.75,.29,.74,.66,.74,.66-.31,.66-.74Zm-.66-1.91h.46l-.28,.58h-.37l.18-.58Z"/><path class="cls-23" d="M430.27,206.04v.45h-1.49v-.81l-.2,.13v-.42l.2-.14v-1.09h.42v.8l.3-.21v.42l-.3,.21v.66h1.06Z"/><path class="cls-23" d="M431.22,205.56l-.26,.34v.58h-.42v-2.32h.42v1.1l.79-1.1h.51l-.77,1.06,.82,1.27h-.52l-.58-.92Z"/><path class="cls-23" d="M433.63,205.98h-.73l-.16,.5h-.44l.8-2.32h.34l.79,2.32h-.44l-.16-.5Zm-.61-.42h.49l-.24-.77-.25,.77Z"/></g><g><path class="cls-23" d="M460.81,181.05v1.94h-.26l-1-1.19v1.19h-.38v-1.94h.25l1.02,1.2v-1.2h.38Z"/><path class="cls-23" d="M461.23,181.05h1.32v.36h-.92v.42h.86v.36h-.86v.44h.92v.36h-1.32v-1.94Z"/><path class="cls-23" d="M462.7,181.05h.43l.39,1.3,.44-1.3h.25l.45,1.3,.39-1.3h.42l-.64,1.94h-.33l-.41-1.27-.41,1.27h-.33l-.64-1.94Z"/><path class="cls-23" d="M467.08,182.32v.67h-.39v-.67l-.66-1.27h.45l.41,.85,.42-.85h.45l-.67,1.27Z"/><path class="cls-23" d="M467.76,182.02c0-.56,.44-1.01,1.01-1.01s1.01,.45,1.01,1.01-.44,1-1.01,1-1.01-.44-1.01-.99Zm1.62,0c0-.36-.27-.62-.61-.62s-.61,.27-.61,.62,.26,.62,.61,.62,.61-.26,.61-.62Z"/><path class="cls-23" d="M470.71,182.28h-.23v.71h-.39v-1.94h.74c.45,0,.66,.29,.66,.61,0,.23-.12,.47-.39,.57l.47,.76h-.45l-.41-.71Zm-.23-.35h.32c.22,0,.3-.13,.3-.27s-.09-.26-.27-.26h-.35v.52Z"/><path class="cls-23" d="M472.48,182.22l-.24,.29v.48h-.39v-1.94h.39v.92l.74-.92h.47l-.71,.88,.76,1.06h-.48l-.54-.77Z"/><path class="cls-23" d="M460.06,184.08h.39v.77h.81v-.77h.39v1.94h-.39v-.79h-.81v.79h-.39v-1.94Z"/><path class="cls-23" d="M461.96,185.06c0-.56,.44-1.01,1.01-1.01s1.01,.45,1.01,1.01-.44,1-1.01,1-1.01-.44-1.01-.99Zm1.62,0c0-.36-.27-.62-.61-.62s-.61,.27-.61,.62,.26,.62,.61,.62,.61-.26,.61-.62Z"/><path class="cls-23" d="M464.05,184.46v-.38h1.5v.38h-.55v1.56h-.39v-1.56h-.55Z"/><path class="cls-23" d="M466.36,184.08h.76c.58,0,.93,.38,.93,.97s-.35,.97-.95,.97h-.74v-1.94Zm.76,1.57c.35,0,.53-.27,.53-.6s-.18-.59-.53-.59h-.37v1.19h.37Z"/><path class="cls-23" d="M468.26,185.06c0-.56,.44-1.01,1.01-1.01s1.01,.45,1.01,1.01-.44,1-1.01,1-1.01-.44-1.01-.99Zm1.62,0c0-.36-.27-.62-.61-.62s-.61,.27-.61,.62,.26,.62,.61,.62,.61-.26,.61-.62Z"/><path class="cls-23" d="M470.48,185.05c0-.59,.45-1.01,1.03-1.01,.33,0,.61,.14,.78,.31l-.25,.28c-.13-.13-.32-.22-.53-.22-.36,0-.63,.27-.63,.63s.25,.63,.62,.63c.21,0,.4-.09,.52-.21v-.27h-.54v-.34h.89v.8c-.24,.25-.54,.39-.88,.39-.59,0-1.01-.42-1.01-1Z"/></g><text class="cls-20" transform="translate(432.83 183.16)"><tspan x="0" y="0">KANDULSKI</tspan></text><text class="cls-9" transform="translate(418.94 183.16)"><tspan x="0" y="0">RUCH</tspan></text><g><path class="cls-23" d="M192.23,382.27c0,.33-.24,.61-.66,.61h-.95v-2.09h.91c.4,0,.59,.27,.59,.52,0,.18-.11,.36-.29,.42,.27,.07,.4,.29,.4,.54Zm-1.2-1.12v.45h.41c.18,0,.27-.12,.27-.23s-.09-.22-.25-.22h-.43Zm.77,1.08c0-.14-.1-.28-.31-.28h-.46v.55h.46c.21,0,.31-.14,.31-.27Z"/><path class="cls-23" d="M192.57,380.79h.42v1.69h1.06v.4h-1.48v-2.09Z"/><path class="cls-23" d="M194.25,382.11v-1.32h.42v1.3c0,.29,.16,.42,.4,.42s.39-.14,.39-.42v-1.3h.42v1.32c0,.55-.38,.8-.81,.8s-.82-.25-.82-.8Z"/><path class="cls-23" d="M196.32,380.79h1.41v.39h-.99v.45h.92v.39h-.92v.47h.99v.39h-1.41v-2.09Z"/><path class="cls-23" d="M187.54,385.79l.24-.29c.14,.19,.34,.29,.55,.29,.18,0,.3-.09,.3-.22,0-.1-.08-.17-.19-.22-.13-.06-.31-.11-.45-.2-.18-.1-.33-.26-.33-.52,0-.34,.29-.61,.71-.61,.24,0,.49,.08,.69,.28l-.22,.3c-.12-.13-.31-.19-.46-.19-.17,0-.27,.08-.27,.2,0,.1,.08,.16,.17,.21,.11,.05,.32,.13,.46,.2,.2,.1,.36,.25,.36,.52,0,.37-.31,.64-.76,.64-.32,0-.61-.13-.79-.39Z"/><path class="cls-23" d="M189.43,384.06h.42v.83h.88v-.83h.42v2.09h-.42v-.85h-.88v.85h-.42v-2.09Z"/><path class="cls-23" d="M192.71,385.69h-.73l-.16,.45h-.44l.8-2.09h.34l.79,2.09h-.44l-.16-.45Zm-.61-.37h.49l-.24-.69-.25,.69Z"/><path class="cls-23" d="M193.56,384.06h.82c.63,0,1,.4,1,1.05s-.38,1.04-1.02,1.04h-.8v-2.09Zm.82,1.69c.38,0,.57-.29,.57-.65s-.19-.64-.57-.64h-.4v1.29h.4Z"/><path class="cls-23" d="M195.61,385.11c0-.61,.48-1.09,1.09-1.09s1.09,.48,1.09,1.08-.47,1.08-1.09,1.08-1.08-.47-1.08-1.07Zm1.74,0c0-.39-.29-.67-.65-.67s-.65,.29-.65,.67,.29,.66,.65,.66,.65-.28,.65-.66Z"/><path class="cls-23" d="M197.86,384.06h.46l.42,1.4,.47-1.4h.27l.48,1.4,.42-1.4h.46l-.69,2.09h-.35l-.44-1.37-.44,1.37h-.35l-.69-2.09Z"/></g><text class="cls-22" transform="translate(290.55 368.14)"><tspan x="0" y="0">MEDICINE</tspan></text><text class="cls-15" transform="translate(143.79 304.8)"><tspan x="0" y="0">A</tspan><tspan class="cls-55" x="3.05" y="0">L</tspan><tspan x="5.62" y="0">OI</tspan><tspan class="cls-29" x="10.7" y="0">W</tspan></text><text class="cls-18" transform="translate(144.44 277.38)"><tspan x="0" y="0">TRADE</tspan><tspan x=".37" y="4">MODE</tspan></text><g><path class="cls-23" d="M145.73,246.75h-.26v.8h-.44v-2.2h.84c.51,0,.75,.33,.75,.7,0,.26-.13,.53-.45,.65l.53,.86h-.52l-.46-.8Zm-.26-.4h.36c.25,0,.34-.15,.34-.3s-.1-.29-.3-.29h-.4v.59Z"/><path class="cls-23" d="M147.03,245.35h1.49v.41h-1.05v.47h.97v.41h-.97v.49h1.05v.41h-1.49v-2.2Z"/><path class="cls-23" d="M150.51,246.07c0,.38-.24,.71-.81,.71h-.34v.76h-.44v-2.2h.81c.55,0,.78,.36,.78,.73Zm-.45,0c0-.16-.11-.31-.32-.31h-.38v.63h.35c.24,0,.35-.16,.35-.32Z"/><path class="cls-23" d="M150.69,246.45c0-.64,.5-1.15,1.15-1.15s1.15,.51,1.15,1.14-.5,1.13-1.15,1.13-1.14-.5-1.14-1.13Zm1.83,0c0-.41-.31-.71-.69-.71s-.69,.3-.69,.71,.3,.7,.69,.7,.69-.3,.69-.7Z"/><path class="cls-23" d="M154.04,246.75h-.26v.8h-.44v-2.2h.84c.51,0,.75,.33,.75,.7,0,.26-.13,.53-.45,.65l.53,.86h-.52l-.46-.8Zm-.26-.4h.36c.25,0,.34-.15,.34-.3s-.1-.29-.3-.29h-.4v.59Z"/><path class="cls-23" d="M155.1,245.77v-.43h1.7v.43h-.63v1.77h-.45v-1.77h-.63Z"/><path class="cls-23" d="M157.08,245.35h1.49v.41h-1.05v.47h.97v.41h-.97v.49h1.05v.41h-1.49v-2.2Z"/><path class="cls-23" d="M159.67,246.75h-.26v.8h-.44v-2.2h.84c.51,0,.75,.33,.75,.7,0,.26-.13,.53-.45,.65l.53,.86h-.52l-.46-.8Zm-.26-.4h.36c.25,0,.34-.15,.34-.3s-.1-.29-.3-.29h-.4v.59Z"/><path class="cls-23" d="M148.33,250.22v.76h-.44v-.76l-.75-1.44h.51l.46,.96,.47-.96h.51l-.76,1.44Z"/><path class="cls-23" d="M149.09,249.89c0-.64,.5-1.15,1.15-1.15s1.15,.51,1.15,1.14-.5,1.13-1.15,1.13-1.14-.5-1.14-1.13Zm1.83,0c0-.41-.31-.71-.69-.71s-.69,.3-.69,.71,.3,.7,.69,.7,.69-.3,.69-.7Z"/><path class="cls-23" d="M151.72,250.18v-1.4h.44v1.37c0,.3,.17,.44,.42,.44s.41-.15,.41-.44v-1.37h.45v1.4c0,.58-.4,.84-.86,.84s-.86-.26-.86-.84Z"/><path class="cls-23" d="M155.77,248.78v2.2h-.3l-1.14-1.35v1.35h-.43v-2.2h.28l1.16,1.36v-1.36h.43Z"/><path class="cls-23" d="M156.12,249.89c0-.67,.51-1.14,1.16-1.14,.37,0,.7,.15,.89,.36l-.29,.32c-.15-.15-.37-.25-.6-.25-.41,0-.71,.3-.71,.71s.29,.71,.71,.71c.24,0,.46-.1,.59-.24v-.3h-.61v-.38h1.01v.91c-.27,.28-.62,.44-1,.44-.67,0-1.15-.48-1.15-1.13Z"/></g><text class="cls-13" transform="translate(237.52 244.5)"><tspan x="0" y="0">5.10.15</tspan></text><text class="cls-6" transform="translate(290.51 258.23)"><tspan x="0" y="0">PINO</tspan></text><text class="cls-6" transform="translate(214.53 141.63)"><tspan x="0" y="0">OUTHORN</tspan></text><g><path class="cls-23" d="M319.03,178.33v-1.17h4.69v1.17h-1.73v4.88h-1.23v-4.88h-1.73Z"/><path class="cls-23" d="M323.93,180.21c0-1.76,1.38-3.16,3.16-3.16s3.15,1.4,3.15,3.14-1.37,3.12-3.16,3.12-3.15-1.37-3.15-3.11Zm5.05-.02c0-1.13-.85-1.94-1.89-1.94s-1.89,.83-1.89,1.94,.83,1.93,1.89,1.93,1.9-.82,1.89-1.93Z"/><path class="cls-23" d="M335.61,179.16c0,1.03-.65,1.97-2.23,1.97h-.93v2.09h-1.21v-6.06h2.24c1.52,0,2.14,.99,2.14,2Zm-1.24-.02c0-.45-.31-.86-.88-.86h-1.04v1.75h.97c.66,0,.95-.44,.95-.88Z"/><path class="cls-23" d="M316.59,187.83v-1.17h4.69v1.17h-1.73v4.88h-1.23v-4.88h-1.73Z"/><path class="cls-23" d="M321.5,189.71c0-1.76,1.38-3.16,3.16-3.16s3.15,1.4,3.15,3.14-1.37,3.12-3.16,3.12-3.15-1.37-3.15-3.11Zm5.05-.02c0-1.13-.85-1.94-1.89-1.94s-1.89,.83-1.89,1.94,.83,1.93,1.89,1.93,1.9-.82,1.89-1.93Z"/><path class="cls-23" d="M331.11,190.62v2.1h-1.21v-2.1l-2.07-3.96h1.4l1.28,2.66,1.3-2.66h1.4l-2.1,3.96Z"/><path class="cls-23" d="M333.17,191.68l.7-.84c.4,.55,.99,.84,1.61,.84,.51,0,.87-.27,.87-.65,0-.3-.24-.48-.55-.63-.39-.18-.89-.33-1.31-.57-.53-.3-.96-.75-.96-1.51,0-1,.84-1.77,2.07-1.77,.7,0,1.43,.25,1.99,.82l-.65,.88c-.36-.38-.91-.57-1.33-.57-.48,0-.78,.24-.78,.58,0,.3,.25,.47,.49,.6,.32,.15,.93,.38,1.34,.58,.59,.29,1.03,.74,1.03,1.51,0,1.07-.89,1.84-2.22,1.84-.93,0-1.78-.39-2.29-1.13Z"/></g><text class="cls-6" transform="translate(42.25 183.22)"><tspan x="0" y="0">DIVE</tspan><tspan class="cls-43" x="20.16" y="0">R</tspan><tspan class="cls-27" x="25.67" y="0">SE</tspan></text><text class="cls-5" transform="translate(529.98 223.05)"><tspan x="0" y="0">SIZEER</tspan></text><text class="cls-8" transform="translate(366.81 470.05)"><tspan x="0" y="0">PI</tspan><tspan class="cls-52" x="4.75" y="0">T</tspan><tspan x="7.57" y="0" xml:space="preserve"> BUL</tspan><tspan class="cls-52" x="18.96" y="0">L</tspan></text><path class="cls-26" d="M501.29,160c-.22,.03-1.04,.23-1.83,.43-5.76,1.51-10.44,6.18-12.08,12.07-.5,1.79-.68,5.33-.37,7.24,.84,5.25,4.16,9.93,8.85,12.43,1.94,1.04,5.44,2.13,5.44,1.69s-1.89-10.33-2.05-10.72c-.09-.23-.85-1.07-1.71-1.86-1.76-1.62-2.19-2.25-2.53-3.71-.28-1.23-1.63-9.58-1.63-10.13,0-.4,.53-.71,.79-.45,.08,.08,.62,2.27,1.2,4.88,.98,4.4,1.07,4.72,1.4,4.77,.19,.03,.37-.05,.42-.16,.05-.11-.4-2.33-.99-4.94-.59-2.61-1.04-4.78-.99-4.86,.03-.06,.25-.11,.48-.11h.44l1.07,4.85c1.1,4.95,1.2,5.17,1.79,4.8,.19-.12,.06-.87-.84-4.89-.59-2.61-1.03-4.86-.96-4.99,.05-.12,.25-.23,.45-.23,.34,0,.4,.14,1.04,2.98,1.58,7.11,1.48,6.73,1.83,6.77,.19,.03,.37-.05,.42-.16,.05-.11-.4-2.33-.99-4.94-.98-4.32-1.04-4.75-.82-4.94,.59-.45,.68-.22,2.24,5.17,1.44,4.97,1.52,5.34,1.46,6.45-.05,.96-.17,1.44-.78,2.8-.5,1.15-.71,1.85-.71,2.33,0,.82,2.87,10.92,3.01,10.56,.05-.12,.4-1.76,.79-3.6l.71-3.37-.26-.79c-.28-.87-.26-1.6,.19-5.9,.29-2.95,.81-5.44,1.77-8.65,1.03-3.42,2.05-5.5,3.32-6.8,1.61-1.65,2.58-1.51,2.58,.37,0,1.3-3.81,21.08-4.21,21.84-.2,.39-.51,1.75-.85,3.73-.3,1.71-.57,3.29-.62,3.53l-.08,.42,.82-.23c3.29-.95,5.78-2.44,8.08-4.85,3.07-3.22,4.64-7.16,4.66-11.68,.02-4.83-1.71-9.02-5.09-12.36-2.38-2.36-5.56-4.02-8.88-4.66-1.06-.2-4.96-.28-5.93-.11h0Zm0,0"/><g><path class="cls-23" d="M184.85,117.66c-1.16,.02-2.22-.13-3.22-.61-.41-.2-.78-.44-1.07-.79-.56-.66-.55-1.42,.03-2.06,.37-.41,.83-.7,1.35-.89,1.87-.69,3.72-.67,5.55,.15,.43,.19,.8,.47,1.09,.84,.22,.28,.13,.59-.21,.7-1.03,.33-2.07,.66-3.1,.97-.12,.04-.31,0-.42-.07-.24-.17-.19-.51,.07-.66,.09-.05,.19-.07,.28-.11,.28-.13,.34-.46,.11-.68-.33-.32-.91-.38-1.34-.14-.43,.24-.64,.7-.53,1.18,.1,.45,.51,.81,.99,.84,.33,.02,.67,0,1,.01,.34,0,.44,.1,.44,.43,0,.18,0,.36,0,.54,0,.23-.12,.35-.35,.35-.25,0-.49,0-.67,0Z"/><g><path class="cls-23" d="M169.16,94.44c0,.86,0,1.72,0,2.58,0,.4-.13,.54-.53,.54-.53,0-1.06,0-1.59,0-.5,0-.6-.11-.6-.59,0-1.69,0-3.37,0-5.06,0-.49-.12-.61-.62-.61-.06,0-.12,0-.17,0-.38-.02-.62,.15-.78,.5-.8,1.75-1.61,3.49-2.41,5.24-.17,.37-.42,.54-.82,.53-.56-.02-1.11,0-1.67,0-.31,0-.41-.14-.28-.43,.92-2.01,1.84-4.02,2.76-6.03,.14-.3,.38-.42,.7-.42,.9,0,1.81,0,2.71,0,.44,0,.58-.14,.58-.58,0-.55,0-1.1,0-1.65,0-.34,.15-.49,.49-.49,.58,0,1.16,0,1.74,0,.33,0,.48,.15,.48,.48,0,.56,0,1.13,0,1.69,0,.4,.15,.55,.55,.55,.9,0,1.8,0,2.69,0,.39,0,.63,.15,.8,.51,.89,1.96,1.79,3.92,2.68,5.88,.02,.05,.05,.09,.06,.14,.07,.21-.02,.35-.24,.35-.64,0-1.29,.01-1.93,0-.3,0-.48-.19-.61-.46-.7-1.53-1.41-3.06-2.11-4.59-.12-.26-.24-.53-.36-.79-.13-.28-.36-.43-.67-.43-.12,0-.25,0-.37,0-.33,0-.49,.16-.49,.49,0,.56,0,1.11,0,1.67,0,.33,0,.65,0,.98Z"/><path class="cls-23" d="M167.22,103.71v2.55c-2.97-.15-5.57-1.17-7.81-3.1-3.32-2.85-4.39-6.59-4.45-9.19h2.53c.18,2.6,1.15,4.86,3,6.71,1.85,1.85,4.1,2.85,6.73,3.02Z"/><path class="cls-23" d="M178.01,93.97h2.53c-.15,6.53-5.69,12.1-12.25,12.27v-2.53c2.6-.17,4.86-1.16,6.71-3.01,1.85-1.85,2.84-4.11,3.02-6.73Z"/><path class="cls-23" d="M180.55,92.9h-2.54c-.18-2.61-1.16-4.86-3.01-6.72-1.85-1.85-4.1-2.84-6.72-3.02v-2.52c5.86,.04,11.96,5.04,12.27,12.25Z"/><path class="cls-23" d="M167.22,83.17c-2.61,.18-4.86,1.16-6.71,3.01-1.85,1.85-2.83,4.11-3.01,6.72h-2.52c.11-6.23,5.39-12.04,12.25-12.27v2.54Z"/><path class="cls-23" d="M146.82,114.47c0-.86,0-1.72,0-2.58,0-.31,.11-.42,.42-.42,.8,0,1.59,0,2.39,0,.29,0,.4,.12,.41,.41,0,.14,0,.28,0,.41,0,.42,.25,.67,.68,.68,.93,0,1.85,0,2.78,0,.5,0,.82,.24,.97,.71,.36,1.14,.72,2.27,1.08,3.41,.1,.31,.02,.41-.3,.42-.88,0-1.77,0-2.65,0-.35,0-.53-.14-.63-.48-.23-.74-.47-1.47-.7-2.21-.11-.35-.39-.54-.69-.49-.32,.05-.52,.31-.52,.67,0,.69,0,1.39,0,2.08,0,.31-.11,.42-.42,.42-.8,0-1.59,0-2.39,0-.3,0-.41-.11-.41-.41,0-.88,0-1.75,0-2.63Z"/><path class="cls-23" d="M170.66,117.21c-.52,.14-1.01,.31-1.51,.39-1.11,.18-2.19,.05-3.22-.45-.39-.19-.75-.44-1.03-.78-.29-.35-.44-.76-.44-1.22,0-.58,0-1.16,0-1.74,0-.33,.11-.44,.44-.44,.79,0,1.58,0,2.37,0,.34,0,.44,.1,.44,.44,0,.61,0,1.22,0,1.82,0,.55,.39,.99,.91,1.09,.54,.1,1.1-.17,1.27-.68,.07-.22,.08-.49,.02-.72-.13-.53-.32-1.04-.48-1.55-.09-.29-.02-.4,.28-.4,.91,0,1.81,0,2.72,0,.3,0,.49,.14,.58,.42,.4,1.24,.79,2.48,1.18,3.72,.09,.28,0,.4-.29,.4-.9,0-1.8,0-2.69,0-.27,0-.44-.14-.56-.3Z"/><path class="cls-23" d="M159.77,112.79c1.03,.05,2.02,.21,2.95,.67,.44,.22,.83,.49,1.13,.9,.41,.56,.41,1.19,.01,1.75-.39,.55-.94,.88-1.55,1.1-1.72,.63-3.46,.62-5.17-.04-.46-.18-.88-.43-1.23-.79-.7-.72-.69-1.6,.03-2.3,.64-.62,1.43-.92,2.28-1.09,.52-.1,1.04-.14,1.57-.2Zm1.12,2.45c0-.59-.51-1.08-1.12-1.09-.62,0-1.14,.5-1.14,1.1,0,.59,.51,1.08,1.13,1.08,.63,0,1.14-.49,1.13-1.09Z"/><path class="cls-23" d="M176.79,117.5c-.6,0-1.2,0-1.8,0-.34,0-.43-.1-.44-.44,0-.18,0-.36,0-.54,0-.26,.12-.36,.38-.37,.6-.01,.85-.35,.66-.93-.11-.34-.22-.69-.32-1.03-.2-.65,.2-1.21,.88-1.22,.67-.01,1.33,0,2,0,.56,0,1.11,0,1.67,0,.3,0,.41,.11,.41,.4,0,.18,0,.36,0,.54,0,.31-.1,.41-.42,.41-.39,0-.65,.2-.69,.54-.01,.1,.01,.22,.04,.32,.11,.37,.23,.73,.34,1.09,.2,.66-.21,1.22-.9,1.23-.61,0-1.22,0-1.82,0Z"/></g></g><g><path d="M297.62,319.81c-1.76,0-3.51-.02-5.27,0-.53,0-.77-.17-.71-.71,0-.02,0-.04,0-.06q-.02-1.45,1.43-1.61c.7-.08,.95-.4,.74-1.08-.39-1.31-.81-2.61-1.25-3.9-.05-.15-.3-.33-.46-.33-2.72-.02-5.43-.02-8.15,0-.16,0-.4,.18-.47,.33-.5,1.16-.99,2.33-1.44,3.51-.38,1-.1,1.39,.97,1.5,.28,.03,.57,.01,.86,.02,.12,0,.28-.04,.36,.02,.69,.48,.23,1.19,.33,1.79,.06,.38-.22,.52-.59,.52-1.47,0-2.94,0-4.41,0-.94,0-1.88-.01-2.82,0-.45,0-.65-.17-.6-.62,0-.02,0-.04,0-.06,.02-.49-.13-1.09,.1-1.43,.18-.27,.83-.23,1.28-.29,.77-.1,1.16-.59,1.43-1.25,2.07-4.99,4.16-9.97,6.24-14.95,1.11-2.65,2.23-5.3,3.31-7.96,.21-.52,.5-.72,1.06-.69,.79,.04,1.59,.04,2.39,0,.56-.03,.83,.18,1.02,.72,2.22,6.39,4.46,12.77,6.7,19.16,.44,1.25,.87,2.5,1.32,3.75,.37,1.02,.74,1.27,1.81,1.3q.9,.02,.9,.88c0,1.61,.14,1.45-1.44,1.45-1.55,0-3.1,0-4.66,0Zm-8.95-20.31c-1.45,3.59-2.82,7.01-4.21,10.48h7.39c-1.05-3.46-2.08-6.87-3.17-10.48Z"/><path d="M271.75,315.93c0,1.08-.02,2.16,0,3.25,.01,.49-.17,.67-.64,.64-.39-.02-.78,.03-1.16-.02-.21-.03-.47-.14-.59-.3-.27-.39-.59-.42-1.01-.34-1.46,.29-2.91,.69-4.38,.8-6.28,.46-11.02-2.85-12.75-8.93-1.19-4.19-.97-8.33,.99-12.27,2.32-4.67,6.9-6.77,11.85-6.32,1.23,.11,2.4,.42,3.52,.97,.76,.37,1.06,.24,1.52-.45,.12-.18,.39-.33,.61-.37,.4-.06,.81,0,1.22-.02,.42-.01,.57,.18,.57,.6-.01,2.18-.01,4.37,0,6.55,0,.45-.19,.6-.62,.62-1.6,.06-1.59,.07-1.99-1.49-.38-1.48-.94-2.88-2.44-3.55-2.62-1.16-4.99-.64-6.47,1.83-.97,1.62-1.46,3.41-1.67,5.26-.42,3.65-.36,7.3,.69,10.85,.28,.96,.79,1.88,1.35,2.72,1.77,2.65,7.35,2.37,8.47-1.3,.21-.68,.39-1.37,.54-2.07,.08-.38,.25-.51,.62-.5,2.15,.05,1.72-.31,1.76,1.7,.02,.71,0,1.43,0,2.14Z"/><path d="M275.94,304.72c.44,.65,.89,1.33,1.44,2.15,.35-.74,.68-1.36,.93-2.01,.13-.35,.29-.48,.65-.47,.75,.02,1.5,0,2.38,0-.26,.54-.19,1.18-1.01,1.15-.16,0-.37,.23-.5,.39-.53,.72-1.03,1.46-1.57,2.24,.43,.68,1.19,.73,1.95,.74-.14,1.03-.23,1.1-1.21,1.11-.79,.01-1.55-.06-2.21-.6-1.11,.74-2.32,.94-3.62,.72-1.4-.23-2.38-1.1-2.62-2.31-.22-1.12,.34-2.21,1.53-2.95,.29-.18,.6-.32,.81-.43-.16-.69-.44-1.35-.41-2,.02-.52,.31-1.11,.66-1.51,.93-1.04,2.99-1.17,4.13-.35,1.06,.76,1.15,2.26,.14,3.12-.44,.38-.97,.66-1.48,1.01Zm-.07,3.63c-.72-.99-1.41-1.94-2.13-2.93-.77,.57-1.1,1.29-1.01,2.18,.07,.68,.41,1.2,1.08,1.41,.79,.24,1.48,.03,2.06-.66Zm-.86-4.61c.84-.41,1.17-.94,1.23-1.64,.05-.6-.33-1.08-.82-1.08-.52,0-.97,.42-.9,1.01,.07,.56,.31,1.1,.49,1.71Z"/></g><g><path class="cls-12" d="M210.15,364.9h-3.93c.3-3.26,.58-6.48,.9-9.97-1.63,1.23-3.06,2.32-4.78,3.62h3.75c-.12,1.27-.22,2.38-.33,3.6-2.89,0-5.75,.09-8.6-.04-1.21-.05-1.72-1.34-1.16-2.5,.18-.38,.47-.75,.8-1.01,3.64-2.85,7.26-5.7,10.95-8.46,.59-.44,1.53-.59,2.3-.55,1.08,.05,1.52,.79,1.41,1.92-.45,4.41-.87,8.83-1.31,13.4Z"/><path class="cls-12" d="M215.23,364.98h-4.49c.4-3.76,.64-7.48,1.23-11.14,.46-2.82,2.17-4.19,5.1-4.31,3.25-.14,6.52-.03,9.77-.03,.19,2.11-1.33,3.81-3.46,3.86-1.78,.04-3.57,.03-5.35,0-1.15-.02-1.78,.39-1.85,1.64-.09,1.65-.31,3.29-.47,4.93-.16,1.64-.32,3.28-.49,5.05Z"/><path class="cls-12" d="M216.44,359.68c.1-1.13,.2-2.2,.31-3.36h6.33c-.26,2.99-1.94,3.88-6.64,3.36Z"/></g><g><path d="M103.52,73.57c-.41,.24-.63,.13-.84-.1-.34-.37-.47-.83-.51-1.31-.01-.13,.05-.33,.14-.39,.49-.3,.98-.62,1.52-.81,.43-.15,.91-.06,1.26,.3,.67,.69,1.36,1.37,1.96,2.12,.43,.54,.74,1.21,.44,1.92-.15,.35-.37,.72-.67,.95-.72,.54-1.5,1-2.25,1.49-.29,.19-.58,.37-.86,.57-.1,.07-.18,.17-.36,.34,.27,.04,.43,.08,.59,.09,.4,.03,.79,.04,1.19,.07,.4,.04,.73,.21,.83,.62,.16,.62,.33,1.25,.41,1.89,.05,.47-.22,.65-.67,.58-2.54-.39-5.08-.76-7.62-1.18-1.2-.2-2.38-.5-3.57-.76-.08-.02-.15-.05-.23-.07-.32-.1-.54-.28-.49-.66,.05-.39,.35-.51,.66-.49,.65,.03,1.3,.08,1.93,.19,.93,.16,1.84,.39,2.76,.57,.19,.04,.4,.06,.59,.03,.14-.02,.34-.11,.37-.22,.05-.13,0-.37-.09-.47-1.36-1.4-2.1-3.17-2.99-4.85-.25-.47-.09-.77,.41-.93,.72-.23,1.38-.21,1.92,.42,.4,.47,.84,.91,1.22,1.4,.27,.35,.19,.56-.2,.75-.02,.01-.05,.02-.07,.03-.34,.17-.75,.27-.76,.76,0,.54,.36,.84,.76,1.09,.41,.25,.87,.26,1.31,.1,1.35-.49,2.51-1.26,3.39-2.4,.74-.97,.63-2.12-.22-2.94-.34-.33-.76-.42-1.21-.35-.42,.07-.54,.38-.36,.77,.13,.28,.21,.57,.32,.86Z"/><path d="M101.89,143.4c.71,.02,1.53-.24,2.23-.78,.55-.42,1-.96,1.55-1.36,.96-.69,.69-2.09,.05-2.68-.71-.65-1.21-1.46-1.39-2.44-.08-.44,.24-1.14,.63-1.32,.84-.38,1.71-.35,2.56-.06,.57,.19,.82,1.28,.44,1.75-.09,.11-.25,.2-.39,.24-.44,.14-.83,.06-1.15-.31-.06-.08-.22-.15-.29-.13-.08,.03-.16,.18-.16,.28,.01,.42,.1,.82,.5,1.06,1.01,.6,2.47,0,2.74-1.14,.2-.86,.14-1.72-.18-2.54-.2-.51-.52-1-1.05-1.2-1.38-.51-2.81-.68-4.25-.39-.34,.07-.68,.3-.93,.54-.71,.67-.92,1.51-.81,2.5,.07,.65-.03,1.35-.2,1.99-.21,.79-1.09,1.16-1.65,.7-.35-.29-.53-.82-.71-1.28-.06-.15,.11-.39,.19-.59,.07-.17,.2-.34,.2-.51,0-.19-.05-.45-.18-.57-.1-.09-.41-.07-.53,.02-.87,.63-1.72,1.29-2.55,1.95-.33,.26-.35,.66-.2,1.02,.35,.83,.68,1.67,1.12,2.45,.37,.66,.83,1.3,1.36,1.85,.77,.79,1.82,.92,3.06,.94Z"/><path d="M100.72,115.11s0,0,0,0c-.5,0-1.01,0-1.51,0-.63,0-.67-.04-.7-.67-.03-.49,.24-.83,.73-.9,.48-.07,.97-.14,1.46-.2,1.5-.18,2.99-.22,4.45,.26,.45,.15,.8,.09,1.15-.17,.13-.1,.29-.26,.28-.38,0-.11-.21-.25-.35-.31-.57-.24-1.15-.49-1.74-.66-.95-.27-1.91-.64-2.88-.67-1.61-.04-3.22,.17-4.83,.29-.14,.01-.3,.15-.4,.27-.32,.4-.2,.86-.09,1.29,.17,.67,.37,1.33,.55,1.99,.05,.2,.09,.42-.16,.55-.74,.38-1.48,.77-2.22,1.16-.52,.27-.66,.56-.44,1.1,.37,.92,.77,1.83,1.18,2.73,.44,.99,.44,.98-.38,1.69-.09,.08-.17,.26-.14,.35,.11,.38,.59,.57,.94,.39,1.43-.72,2.96-1.13,4.51-1.5,1.22-.29,2.43-.65,3.64-.99,.25-.07,.53-.18,.51-.52-.02-.35-.18-.64-.54-.69-.58-.08-1.18-.18-1.76-.15-.8,.04-1.6,.2-2.4,.31-1.2,.16-1.47-.07-1.53-1.31-.05-.94,.1-1.13,1-1.44,1.12-.39,2.25-.69,3.45-.71,.3,0,.46-.27,.43-.67-.02-.28-.13-.47-.46-.46-.57,.01-1.14,0-1.71,0Z"/><path d="M101.89,143.4c-1.24-.02-2.29-.15-3.06-.94-.53-.54-.99-1.18-1.36-1.85-.44-.78-.77-1.62-1.12-2.45-.15-.36-.13-.76,.2-1.02,.84-.67,1.69-1.32,2.55-1.95,.13-.09,.43-.11,.53-.02,.13,.12,.18,.37,.18,.57,0,.17-.14,.34-.2,.51-.07,.2-.25,.44-.19,.59,.18,.45,.36,.98,.71,1.28,.55,.46,1.44,.08,1.65-.7,.17-.64,.27-1.34,.2-1.99-.11-.99,.1-1.82,.81-2.5,.26-.24,.6-.48,.93-.54,1.45-.29,2.88-.12,4.25,.39,.53,.2,.85,.69,1.05,1.2,.32,.82,.38,1.68,.18,2.54-.27,1.15-1.73,1.74-2.74,1.14-.4-.24-.49-.64-.5-1.06,0-.1,.08-.25,.16-.28,.07-.03,.23,.05,.29,.13,.31,.37,.7,.46,1.15,.31,.14-.05,.3-.13,.39-.24,.38-.47,.13-1.56-.44-1.75-.85-.28-1.72-.32-2.56,.06-.39,.18-.71,.88-.63,1.32,.18,.97,.68,1.79,1.39,2.44,.65,.59,.91,1.98-.05,2.68-.55,.4-1,.94-1.55,1.36-.7,.54-1.52,.79-2.23,.78Z"/><path d="M101.89,143.4c-1.24-.02-2.29-.15-3.06-.94-.53-.54-.99-1.18-1.36-1.85-.44-.78-.77-1.62-1.12-2.45-.15-.36-.13-.76,.2-1.02,.84-.67,1.69-1.32,2.55-1.95,.13-.09,.43-.11,.53-.02,.13,.12,.18,.37,.18,.57,0,.17-.14,.34-.2,.51-.07,.2-.25,.44-.19,.59,.18,.45,.36,.98,.71,1.28,.55,.46,1.44,.08,1.65-.7,.17-.64,.27-1.34,.2-1.99-.11-.99,.1-1.82,.81-2.5,.26-.24,.6-.48,.93-.54,1.45-.29,2.88-.12,4.25,.39,.53,.2,.85,.69,1.05,1.2,.32,.82,.38,1.68,.18,2.54-.27,1.15-1.73,1.74-2.74,1.14-.4-.24-.49-.64-.5-1.06,0-.1,.08-.25,.16-.28,.07-.03,.23,.05,.29,.13,.31,.37,.7,.46,1.15,.31,.14-.05,.3-.13,.39-.24,.38-.47,.13-1.56-.44-1.75-.85-.28-1.72-.32-2.56,.06-.39,.18-.71,.88-.63,1.32,.18,.97,.68,1.79,1.39,2.44,.65,.59,.91,1.98-.05,2.68-.55,.4-1,.94-1.55,1.36-.7,.54-1.52,.79-2.23,.78Z"/><path d="M100.72,115.11c.57,0,1.14,.01,1.71,0,.34,0,.45,.18,.46,.46,.03,.41-.13,.67-.43,.67-1.19,.02-2.33,.33-3.45,.71-.89,.31-1.05,.5-1,1.44,.07,1.24,.34,1.47,1.53,1.31,.8-.11,1.6-.27,2.4-.31,.58-.03,1.18,.07,1.76,.15,.37,.05,.52,.34,.54,.69,.02,.34-.26,.45-.51,.52-1.21,.34-2.42,.69-3.64,.99-1.55,.37-3.08,.78-4.51,1.5-.35,.17-.83-.02-.94-.39-.03-.1,.05-.28,.14-.35,.82-.71,.82-.7,.38-1.69-.4-.91-.81-1.81-1.18-2.73-.22-.54-.07-.83,.44-1.1,.74-.39,1.47-.78,2.22-1.16,.26-.13,.22-.34,.16-.55-.18-.67-.38-1.32-.55-1.99-.11-.44-.24-.89,.09-1.29,.1-.12,.26-.26,.4-.27,1.61-.12,3.22-.33,4.83-.29,.96,.02,1.93,.4,2.88,.67,.6,.17,1.17,.42,1.74,.66,.14,.06,.34,.2,.35,.31,0,.12-.16,.28-.28,.38-.35,.26-.7,.31-1.15,.17-1.45-.47-2.95-.44-4.45-.26-.49,.06-.97,.13-1.46,.2-.48,.07-.75,.41-.73,.9,.03,.63,.08,.67,.7,.67,.5,0,1.01,0,1.51,0,0,0,0,0,0,0Z"/><path d="M100.72,115.11c.57,0,1.14,.01,1.71,0,.34,0,.45,.18,.46,.46,.03,.41-.13,.67-.43,.67-1.19,.02-2.33,.33-3.45,.71-.89,.31-1.05,.5-1,1.44,.07,1.24,.34,1.47,1.53,1.31,.8-.11,1.6-.27,2.4-.31,.58-.03,1.18,.07,1.76,.15,.37,.05,.52,.34,.54,.69,.02,.34-.26,.45-.51,.52-1.21,.34-2.42,.69-3.64,.99-1.55,.37-3.08,.78-4.51,1.5-.35,.17-.83-.02-.94-.39-.03-.1,.05-.28,.14-.35,.82-.71,.82-.7,.38-1.69-.4-.89-.8-1.79-1.16-2.69,.41-.21,.6-.71,.43-1.14,.74-.39,1.47-.78,2.22-1.16,.26-.13,.22-.34,.16-.55-.18-.67-.38-1.32-.55-1.99-.11-.44-.24-.89,.09-1.29,.1-.12,.26-.26,.4-.27,1.61-.12,3.22-.33,4.83-.29,.96,.02,1.93,.4,2.88,.67,.6,.17,1.17,.42,1.74,.66,.14,.06,.34,.2,.35,.31,0,.12-.16,.28-.28,.38-.35,.26-.7,.31-1.15,.17-1.45-.47-2.95-.44-4.45-.26-.49,.06-.97,.13-1.46,.2-.48,.07-.75,.41-.73,.9,.03,.63,.08,.67,.7,.67,.5,0,1.01,0,1.51,0,0,0,0,0,0,0Z"/><path d="M108.49,102.8c-.92-.14-2.02-.4-2.9-1.22-.38-.35-.44-.79-.26-1.24,.35-.82,.94-1.4,1.85-1.6,.54-.12,1,.03,1.36,.44,.28,.32,.12,.89-.3,1-.07,.02-.19-.04-.26-.11-.08-.08-.11-.21-.19-.3-.24-.28-.49-.27-.65,.06-.16,.33-.27,.69-.39,1.04-.09,.26,.07,.41,.29,.38,.97-.16,1.97-.27,2.8-.9,.53-.41,.55-.94,.39-1.51-.28-1.04-1.01-1.73-1.91-2.24-.5-.28-1.05-.49-1.6-.66-1.28-.4-2.4,.14-2.85,1.42-.25,.72-.4,1.48-.55,2.23-.21,1.11-.75,1.75-1.69,1.82-.88,.06-1.7-.09-2.31-.86-.66-.82-1.07-1.73-1.2-2.77-.02-.2-.04-.41,.02-.59,.08-.24,.24-.45,.37-.67,.19,.12,.4,.22,.55,.38,.36,.36,.62,.8,1.16,.98,1.5,.49,2.27-.53,2.28-1.77,0-.24-.22-.54-.42-.71-.32-.27-.69-.5-1.08-.66-.48-.2-.99-.32-1.5-.46-.31-.08-.62-.12-.93-.21-.33-.09-.52-.33-.52-.67,0-.33,.27-.5,.55-.54,.48-.07,.98-.17,1.45-.09,2.28,.38,4.56,.81,6.84,1.22,.23,.04,.46,.11,.7,.15,2.21,.4,3.24,1.92,3.76,3.93,.27,1.04,.32,2.07-.15,3.07-.49,1.01-1.5,1.66-2.74,1.66Z"/><path d="M108.49,102.8c-.92-.14-2.02-.4-2.9-1.22-.38-.35-.44-.79-.26-1.24,.35-.82,.94-1.4,1.85-1.6,.54-.12,1,.03,1.36,.44,.28,.32,.12,.89-.3,1-.07,.02-.19-.04-.26-.11-.08-.08-.11-.21-.19-.3-.24-.28-.49-.27-.65,.06-.16,.33-.27,.69-.39,1.04-.09,.26,.07,.41,.29,.38,.97-.16,1.97-.27,2.8-.9,.53-.41,.55-.94,.39-1.51-.28-1.04-1.01-1.73-1.91-2.24-.5-.28-1.05-.49-1.6-.66-1.28-.4-2.4,.14-2.85,1.42-.25,.72-.4,1.48-.55,2.23-.21,1.11-.75,1.75-1.69,1.82-.88,.06-1.7-.09-2.31-.86-.66-.82-1.07-1.73-1.2-2.77-.02-.2-.04-.41,.02-.59,.08-.24,.24-.45,.37-.67,.19,.12,.4,.22,.55,.38,.36,.36,.62,.8,1.16,.98,1.5,.49,2.27-.53,2.28-1.77,0-.24-.22-.54-.42-.71-.32-.27-.69-.5-1.08-.66-.48-.2-.99-.32-1.5-.46-.31-.08-.62-.12-.93-.21-.33-.09-.52-.33-.52-.67,0-.33,.27-.5,.55-.54,.48-.07,.98-.17,1.45-.09,2.28,.38,4.56,.81,6.84,1.22,.23,.04,.46,.11,.7,.15,2.21,.4,3.24,1.92,3.76,3.93,.27,1.04,.32,2.07-.15,3.07-.49,1.01-1.5,1.66-2.74,1.66Z"/></g><g><path class="cls-31" d="M450.43,43.98h17.72v4.43h-13.29v13.29h-4.43v-17.72"/><rect class="cls-30" x="463.72" y="57.27" width="4.43" height="4.43"/><path class="cls-31" d="M457.07,50.63h17.72v4.43h-13.29v13.29h-4.43v-17.72"/><polygon class="cls-30" points="486.58 48.76 486.58 52.45 484.93 52.45 484.93 44 492.47 44 492.47 45.38 486.58 45.38 486.58 47.41 490.66 47.41 490.66 48.76 486.58 48.76"/><polygon class="cls-30" points="500.79 52.45 502.55 52.45 498.53 44.01 497.07 44.01 493.16 52.45 494.76 52.48 497.79 46.08 500.79 52.45"/><path class="cls-30" d="M505.91,51.07h3.24c.6,0,1.04-.08,1.31-.25,.32-.18,.49-.48,.49-.9s-.16-.73-.49-.92c-.27-.16-.71-.24-1.31-.24h-3.24v2.31Zm0-3.71h3.35c.51,0,.88-.07,1.09-.21,.24-.16,.36-.42,.36-.77s-.12-.61-.34-.76c-.22-.15-.59-.23-1.11-.23h-3.35v1.98Zm5.13,.67c1.06,.35,1.59,1.02,1.59,1.99,0,.77-.26,1.37-.79,1.81-.27,.22-.59,.38-.95,.47-.35,.1-.8,.15-1.34,.15h-5.3v-8.45h5.23c.54,0,.98,.04,1.3,.12,.32,.09,.61,.22,.84,.42,.48,.39,.72,.95,.72,1.7,0,.83-.44,1.42-1.32,1.79Z"/><path class="cls-30" d="M516.55,47.61h2.95c.43,0,.74-.01,.91-.04,.18-.03,.35-.08,.51-.15,.35-.17,.52-.48,.52-.92s-.17-.75-.52-.92c-.15-.08-.32-.13-.5-.16-.18-.03-.48-.04-.92-.04h-2.95v2.22Zm0,1.4v3.44h-1.65v-8.45h4.8c.64,0,1.14,.04,1.51,.11,.37,.07,.69,.2,.97,.38,.31,.22,.54,.51,.69,.88,.14,.36,.21,.73,.21,1.14,0,1.38-.79,2.18-2.37,2.42l2.42,3.52h-1.8l-2.38-3.44h-2.41Z"/><polygon class="cls-30" points="532.99 44 531.14 44 528.78 47.33 526.48 44 524.53 44 527.94 48.92 527.94 52.44 529.59 52.44 529.59 48.92 532.99 44"/><polygon class="cls-30" points="540.78 52.44 542.8 52.44 538.74 47.42 542.8 44 540.62 44 536.14 47.6 536.14 44 534.5 44 534.5 52.44 536.14 52.44 536.14 49.53 537.53 48.49 540.78 52.44"/><polygon class="cls-30" points="551.5 52.45 553.26 52.45 549.25 44.01 547.78 44.01 543.86 52.45 545.47 52.48 548.51 46.08 551.5 52.45"/><polygon class="cls-30" points="486.6 58.5 486.6 62.19 484.95 62.19 484.95 53.74 492.49 53.74 492.49 55.12 486.6 55.12 486.6 57.15 490.68 57.15 490.68 58.5 486.6 58.5"/><path class="cls-30" d="M506.09,57.34h2.95c.43,0,.73-.01,.91-.03,.18-.03,.35-.08,.52-.15,.35-.17,.52-.48,.52-.92s-.17-.75-.52-.92c-.16-.08-.32-.13-.5-.16-.18-.03-.49-.04-.92-.04h-2.95v2.22Zm0,1.4v3.44h-1.65v-8.45h4.8c.64,0,1.14,.04,1.52,.11,.37,.07,.69,.2,.96,.38,.31,.22,.53,.51,.69,.88,.14,.35,.21,.73,.21,1.14,0,1.38-.78,2.18-2.37,2.42l2.42,3.51h-1.8l-2.38-3.44h-2.4Z"/><polygon class="cls-30" points="518.61 62.06 515.39 56.34 515.39 62.17 513.89 62.17 513.89 53.73 515.95 53.73 518.77 58.8 521.73 53.73 523.65 53.73 523.65 62.17 522 62.17 522 56.34 518.61 62.06"/><polygon class="cls-30" points="529.81 58.65 529.81 62.18 528.16 62.18 528.16 58.65 524.75 53.73 526.7 53.73 529.01 57.06 531.36 53.73 533.21 53.73 529.81 58.65"/><path class="cls-30" d="M502.22,55.78c0-1.17-.96-2.12-2.13-2.13h-4.37c-1.17,0-2.13,.95-2.13,2.13v4.37c0,1.17,.96,2.13,2.13,2.13h4.37c1.17,0,2.13-.95,2.13-2.13v-4.37Zm-1.6,3.95c0,.78-.51,1.12-1.08,1.12h-3.27c-.62,0-1.08-.36-1.08-1.12v-3.54c0-.72,.52-1.12,1.08-1.12h3.27c.55,0,1.08,.39,1.08,1.12v3.54Z"/><path class="cls-30" d="M488.04,65.7c-.06-.66-.59-1.01-1.27-1.01-.94,0-1.45,.84-1.45,1.69,0,1.02,.47,1.76,1.45,1.76,.7,0,1.21-.49,1.31-1.17h.28c-.12,.9-.78,1.41-1.59,1.41-1.22,0-1.73-.95-1.73-2s.61-1.93,1.73-1.93c.81,0,1.47,.4,1.55,1.25h-.28Z"/><path class="cls-30" d="M489.04,66.46c-.02,.88,.45,1.69,1.38,1.69,.71,0,1.21-.42,1.35-1.12h.28c-.15,.89-.72,1.36-1.62,1.36-1.09,0-1.68-.86-1.66-1.9-.02-1.03,.53-2.03,1.66-2.03s1.71,.92,1.66,2h-3.04Zm2.76-.24c-.02-.79-.52-1.52-1.38-1.52-.83,0-1.32,.78-1.38,1.52h2.76Z"/><path class="cls-30" d="M492.66,64.54h.28v.8h.01c.2-.56,.75-.89,1.35-.89,1.32,0,1.34,1.06,1.34,1.52v2.33h-.28v-2.38c0-.38-.04-1.23-1.07-1.23-.85,0-1.35,.66-1.35,1.57v2.03h-.28v-3.76Z"/><path class="cls-30" d="M497.76,64.78h-.82v2.63c0,.6,.28,.67,.81,.65v.24c-.56,.04-1.12-.04-1.09-.89v-2.63h-.69v-.24h.69v-1.17h.28v1.17h.82v.24Z"/><path class="cls-30" d="M498.48,65.37h.02c.14-.5,.76-.88,1.44-.85v.28c-.29-.04-.69,.03-1.04,.36-.27,.29-.4,.52-.42,1.08v2.06h-.28v-3.76h.28v.83Z"/><path class="cls-30" d="M503.14,68.3h-.28v-.8h-.01c-.2,.56-.75,.89-1.34,.89-1.32,0-1.34-1.06-1.34-1.52v-2.32h.28v2.38c0,.38,.04,1.23,1.07,1.23,.85,0,1.35-.66,1.35-1.57v-2.03h.28v3.76Z"/><path class="cls-30" d="M503.89,64.54h.28v.77h.02c.12-.47,.61-.85,1.18-.85,.72,0,1.05,.41,1.13,.8h.02c.23-.52,.58-.8,1.19-.8,.68,0,1.18,.4,1.18,1.28v2.57h-.28v-2.58c0-.96-.69-1.03-.9-1.03-.68,0-1.18,.48-1.18,1.38v2.22h-.28v-2.58c0-.94-.65-1.03-.88-1.03-.53,0-1.19,.42-1.19,1.38v2.22h-.28v-3.76Z"/><path class="cls-30" d="M511.19,64.54h.67v-.77c0-.53,.38-.75,.83-.75,.09,0,.21,.01,.33,.04v.24c-.12-.02-.24-.04-.33-.04-.32,0-.55,.11-.55,.53v.75h.78v.24h-.78v3.52h-.28v-3.52h-.67v-.24Zm2.09-1.46h.28v.75h-.28v-.75Zm0,1.46h.28v3.76h-.28v-3.76Z"/><path class="cls-30" d="M515.75,64.78h-.82v2.63c0,.6,.28,.67,.81,.65v.24c-.55,.04-1.13-.04-1.09-.89v-2.63h-.69v-.24h.69v-1.17h.28v1.17h.82v.24Z"/><path class="cls-30" d="M516.19,64.54h.28v.8h.02c.2-.56,.75-.89,1.34-.89,1.32,0,1.34,1.06,1.34,1.52v2.33h-.28v-2.38c0-.38-.04-1.23-1.07-1.23-.85,0-1.35,.66-1.35,1.57v2.03h-.28v-3.76Z"/><path class="cls-30" d="M520.02,66.46c-.02,.88,.46,1.69,1.38,1.69,.71,0,1.21-.42,1.34-1.12h.28c-.15,.89-.72,1.36-1.62,1.36-1.09,0-1.68-.86-1.66-1.9-.02-1.03,.53-2.03,1.66-2.03s1.71,.92,1.65,2h-3.04Zm2.76-.24c-.02-.79-.52-1.52-1.37-1.52s-1.32,.78-1.38,1.52h2.76Z"/><path class="cls-30" d="M523.77,67.05c.04,.69,.57,1.1,1.24,1.1,.49,0,1.19-.15,1.19-.8,0-1.27-2.58-.4-2.58-1.93,0-.74,.72-.97,1.36-.97,.79,0,1.39,.34,1.39,1.2h-.28c0-.68-.48-.96-1.11-.96-.51,0-1.08,.19-1.08,.72,0,.61,.64,.69,1.25,.82,.74,.14,1.33,.32,1.33,1.11s-.81,1.04-1.47,1.04c-.86,0-1.5-.46-1.52-1.34h.28Z"/><path class="cls-30" d="M527.21,67.05c.04,.69,.57,1.1,1.24,1.1,.49,0,1.19-.15,1.19-.8,0-1.27-2.58-.4-2.58-1.93,0-.74,.72-.97,1.36-.97,.79,0,1.39,.34,1.39,1.2h-.28c0-.68-.48-.96-1.11-.96-.5,0-1.08,.19-1.08,.72,0,.61,.64,.69,1.25,.82,.74,.14,1.33,.32,1.33,1.11s-.81,1.04-1.47,1.04c-.86,0-1.5-.46-1.52-1.34h.28Z"/></g><g><path class="cls-61" d="M410.6,474.03c-1.06-.55-2.25-.31-3.07,.42-.1,.09-.16,.14-.22,.21-.06-.07-.1-.1-.19-.19-.89-.82-2.09-.96-3.05-.47-.99,.5-1.49,1.28-1.54,2.36-.04,.79,.28,1.51,.83,2.07,1.26,1.27,3.18,3.21,3.74,3.74l.03,.02s.05,.02,.07,.03c0,0,.03,.01,.04,.01,.02,0,.06,0,.08,0,.08,0,.13-.02,.18-.05l.04-.03c1.26-1.27,2.49-2.49,3.75-3.76,.55-.55,.82-1.26,.81-2.05-.05-1.08-.53-1.83-1.49-2.34Zm.1,4.31c-1.07,1.09-3.38,3.38-3.39,3.4,0,0-2.3-2.3-3.38-3.38-.47-.47-.93-1.07-.95-1.74-.04-1.07,.45-1.76,1.29-2.19,.82-.42,1.85-.29,2.63,.49,.1,.1,.36,.41,.41,.48,.05-.06,.28-.35,.38-.45,.84-.82,1.8-.92,2.61-.54,1.06,.49,1.33,1.25,1.33,2.07-.02,.78-.27,1.2-.92,1.87Z"/><path class="cls-61" d="M409.8,477.37c0-.1-.06-.26-.14-.36-.18-.23-1.93-1.89-2.19-2.11-.15-.13-.28-.05-.36,.02-.29,.28-1.96,1.86-2.14,2.07-.05,.05-.15,.15-.15,.44,0,.48,0,1.79,0,2.26,0,.22,.13,.39,.37,.39,.8,0,1.32,0,2.12,0h0c.8,0,1.32,0,2.12,0,.13,0,.36-.08,.36-.39,0-.48,0-1.85,0-2.33Zm-.6,2.25c-.65,0-1.24,0-1.89,0h0c-.65,0-2.01,0-2.01,0,0,0,0-1.81,0-2.19,0-.07,0-.08,.03-.13,.2-.21,1.98-1.91,1.98-1.91,0,0,1.92,1.85,1.99,1.92,0,0,.02,.03,.02,.06,0,.39,0,1.72,0,2.1,0,.06,0,.15,0,.15,0,0-.09,0-.13,0Z"/><path class="cls-61" d="M420.96,482.18h-1.65v-3.76h-3.35v3.76h-1.65v-8.49h1.65v3.37h3.35v-3.37h1.65v8.49Z"/><path class="cls-61" d="M428.69,479.11c0,.46-.08,.89-.26,1.28-.17,.39-.4,.73-.7,1.02-.3,.29-.65,.51-1.05,.68-.4,.17-.83,.25-1.28,.25s-.88-.08-1.28-.25c-.4-.17-.74-.4-1.04-.69-.3-.29-.53-.63-.7-1.03-.17-.39-.26-.82-.26-1.27s.09-.87,.26-1.26c.17-.39,.41-.74,.71-1.03,.3-.29,.64-.52,1.04-.69,.4-.17,.82-.25,1.27-.25s.88,.08,1.28,.25c.4,.17,.75,.39,1.05,.68,.3,.29,.53,.63,.7,1.03,.17,.4,.26,.82,.26,1.28Zm-1.53,0c0-.26-.05-.51-.14-.73-.09-.23-.22-.43-.38-.6-.16-.17-.34-.3-.56-.4-.21-.1-.44-.14-.68-.14s-.47,.05-.68,.14-.4,.23-.56,.4-.28,.37-.38,.6c-.09,.23-.14,.47-.14,.73s.05,.51,.14,.73c.09,.23,.22,.43,.38,.6s.34,.3,.56,.4,.44,.14,.68,.14,.47-.05,.68-.14c.21-.1,.4-.23,.56-.4,.16-.17,.28-.37,.38-.6,.09-.23,.14-.47,.14-.73Z"/><path class="cls-61" d="M438.75,482.18h-1.53v-3.67c0-.43-.1-.76-.31-.98s-.47-.33-.77-.33c-.23,0-.46,.04-.66,.11-.21,.07-.41,.2-.61,.37,.06,.25,.1,.53,.1,.84v3.67h-1.53v-3.67c0-.43-.1-.76-.31-.98-.21-.22-.46-.33-.76-.33-.23,0-.44,.04-.62,.12-.18,.08-.36,.21-.55,.39v4.48h-1.53v-6.15h1.53v.46c.19-.18,.42-.33,.68-.45,.26-.11,.52-.17,.79-.17,.3,0,.6,.07,.9,.2,.3,.13,.57,.33,.79,.58,.32-.28,.64-.49,.97-.61,.33-.12,.68-.18,1.08-.18,.32,0,.62,.05,.91,.14s.54,.25,.75,.46c.21,.21,.38,.47,.51,.8,.13,.32,.19,.71,.19,1.16v3.74Z"/><path class="cls-61" d="M442.5,482.15c-.12,.06-.26,.1-.41,.14-.15,.04-.31,.05-.47,.05-.23,0-.44-.03-.65-.09-.21-.06-.39-.16-.55-.29-.16-.13-.28-.31-.37-.53-.09-.22-.14-.48-.14-.78v-7.29h1.56v7.03c0,.26,.05,.43,.15,.53,.1,.1,.22,.14,.37,.14,.18,0,.35-.05,.51-.16v1.25Z"/><path class="cls-61" d="M448.23,482.18h-1.53v-.33c-.27,.18-.55,.31-.86,.38s-.61,.11-.93,.11c-.3,0-.57-.04-.81-.13-.24-.09-.45-.22-.63-.38-.18-.17-.31-.36-.41-.59-.1-.23-.14-.48-.14-.75,0-.35,.08-.65,.23-.91,.15-.26,.36-.47,.62-.65,.26-.17,.57-.3,.92-.39,.35-.09,.73-.13,1.13-.13h.88c0-.36-.12-.65-.35-.86-.23-.21-.57-.32-1.01-.32-.21,0-.43,.04-.66,.12-.23,.08-.45,.22-.68,.43l-.9-.91c.33-.31,.7-.55,1.13-.72,.43-.17,.87-.26,1.32-.26,.43,0,.8,.07,1.14,.2,.33,.13,.6,.31,.8,.52,.27,.27,.46,.57,.56,.9,.11,.33,.16,.76,.16,1.28v3.4Zm-1.53-1.53v-1.14h-.7c-.21,0-.41,.01-.6,.04-.19,.03-.35,.08-.49,.14-.14,.07-.25,.15-.33,.26s-.12,.23-.12,.38c0,.21,.08,.39,.25,.52,.17,.13,.38,.2,.64,.2,.23,0,.45-.04,.68-.11,.22-.07,.45-.17,.68-.31Z"/><path class="cls-61" d="M404.69,484.58s-.04,.04-.07,.04c-.02,0-.05-.02-.09-.05-.04-.03-.08-.07-.14-.11-.06-.04-.14-.07-.23-.11-.09-.03-.2-.05-.33-.05s-.25,.02-.35,.06-.18,.09-.25,.15-.12,.14-.15,.23c-.04,.09-.05,.18-.05,.27,0,.12,.03,.23,.08,.31,.05,.08,.12,.15,.21,.21,.09,.06,.18,.1,.29,.14,.11,.04,.22,.08,.34,.11,.12,.04,.23,.08,.34,.13,.11,.05,.21,.1,.29,.17,.09,.07,.16,.15,.21,.25,.05,.1,.08,.23,.08,.38s-.03,.3-.08,.43c-.05,.14-.13,.25-.23,.35-.1,.1-.22,.18-.37,.24-.14,.06-.31,.09-.5,.09-.24,0-.45-.04-.62-.13-.17-.09-.33-.2-.46-.35l.07-.11s.04-.04,.07-.04c.02,0,.04,.01,.06,.03s.05,.05,.09,.08,.08,.06,.12,.1c.05,.04,.1,.07,.17,.1,.06,.03,.14,.06,.22,.08,.08,.02,.18,.03,.28,.03,.14,0,.27-.02,.39-.07,.11-.04,.21-.1,.29-.18,.08-.08,.14-.17,.18-.27s.06-.22,.06-.33c0-.13-.03-.24-.08-.32s-.12-.15-.21-.21-.18-.1-.29-.14-.22-.07-.34-.11c-.12-.04-.23-.08-.34-.12-.11-.04-.21-.1-.29-.17-.09-.07-.16-.16-.21-.26-.05-.1-.08-.23-.08-.39,0-.12,.02-.24,.07-.35s.11-.21,.2-.3c.09-.09,.2-.16,.33-.21,.13-.05,.28-.08,.45-.08,.19,0,.36,.03,.51,.09,.15,.06,.29,.15,.41,.28l-.06,.12Z"/><path class="cls-61" d="M405.77,486.4v.05c0,.19,.02,.36,.07,.51s.11,.27,.19,.37c.08,.1,.18,.17,.3,.22,.12,.05,.25,.07,.39,.07,.13,0,.24-.01,.34-.04,.09-.03,.17-.06,.24-.1,.06-.04,.12-.07,.15-.1,.04-.03,.07-.04,.08-.04,.02,0,.04,0,.05,.03l.07,.08c-.04,.05-.1,.1-.16,.14s-.14,.08-.23,.11c-.08,.03-.17,.06-.27,.08s-.19,.03-.29,.03c-.18,0-.34-.03-.48-.09-.14-.06-.27-.15-.37-.27s-.18-.26-.24-.43c-.06-.17-.08-.36-.08-.58,0-.18,.03-.35,.08-.51,.05-.16,.13-.29,.23-.4,.1-.11,.22-.2,.36-.26s.31-.1,.49-.1c.14,0,.28,.02,.4,.07,.12,.05,.23,.12,.32,.22,.09,.1,.16,.21,.22,.35,.05,.14,.08,.3,.08,.48,0,.04,0,.06-.02,.08-.01,.01-.03,.02-.05,.02h-1.87Zm1.71-.16c0-.14-.02-.26-.06-.37-.04-.11-.09-.2-.16-.28-.07-.08-.15-.13-.25-.17-.1-.04-.2-.06-.32-.06-.13,0-.25,.02-.36,.06-.1,.04-.2,.1-.27,.18s-.14,.17-.18,.28c-.05,.11-.08,.23-.09,.36h1.7Z"/><path class="cls-61" d="M408.74,485.84c.04-.1,.08-.2,.14-.28s.11-.15,.18-.21c.07-.06,.14-.1,.22-.13,.08-.03,.17-.05,.27-.05,.05,0,.11,0,.16,.01,.05,0,.1,.03,.14,.05l-.02,.17s-.02,.04-.05,.04c-.02,0-.05,0-.09-.02-.04-.01-.1-.02-.17-.02-.1,0-.19,.02-.26,.05s-.15,.08-.21,.14c-.06,.06-.11,.13-.16,.22-.05,.09-.09,.19-.13,.31v1.66h-.25v-2.57h.13s.05,0,.06,.02c.01,.01,.02,.03,.02,.06l.02,.54Z"/><path class="cls-61" d="M412.05,485.57s-.02,.02-.02,.02c0,0-.02,0-.03,0-.02,0-.04-.01-.07-.03-.03-.02-.07-.05-.12-.08-.05-.03-.11-.05-.19-.08s-.17-.03-.27-.03c-.15,0-.28,.03-.39,.08-.11,.05-.21,.13-.29,.23-.08,.1-.14,.22-.18,.36s-.06,.3-.06,.47,.02,.34,.06,.48c.04,.14,.1,.26,.18,.35s.17,.17,.28,.22c.11,.05,.23,.07,.37,.07,.12,0,.23-.01,.31-.04,.08-.03,.15-.06,.21-.1,.05-.03,.1-.07,.13-.1,.03-.03,.06-.04,.08-.04s.04,0,.05,.03l.06,.08c-.04,.05-.09,.1-.15,.14s-.13,.08-.2,.12c-.08,.03-.16,.06-.25,.08-.09,.02-.18,.03-.28,.03-.16,0-.31-.03-.45-.09s-.25-.15-.35-.26c-.1-.11-.17-.25-.23-.41s-.08-.35-.08-.56c0-.2,.03-.37,.08-.54,.05-.16,.13-.3,.23-.42s.22-.21,.37-.27c.14-.06,.31-.1,.49-.1,.17,0,.31,.03,.44,.08,.13,.05,.24,.13,.34,.22l-.06,.09Z"/><path class="cls-61" d="M412.94,486.4v.05c0,.19,.02,.36,.07,.51s.11,.27,.19,.37c.08,.1,.18,.17,.3,.22,.12,.05,.25,.07,.39,.07,.13,0,.24-.01,.34-.04,.09-.03,.17-.06,.24-.1,.06-.04,.12-.07,.15-.1,.04-.03,.07-.04,.08-.04,.02,0,.04,0,.05,.03l.07,.08c-.04,.05-.1,.1-.16,.14s-.14,.08-.23,.11c-.08,.03-.17,.06-.27,.08s-.19,.03-.29,.03c-.18,0-.34-.03-.48-.09-.14-.06-.27-.15-.37-.27s-.18-.26-.24-.43c-.06-.17-.08-.36-.08-.58,0-.18,.03-.35,.08-.51,.05-.16,.13-.29,.23-.4,.1-.11,.22-.2,.36-.26s.31-.1,.49-.1c.14,0,.28,.02,.4,.07,.12,.05,.23,.12,.32,.22,.09,.1,.16,.21,.22,.35,.05,.14,.08,.3,.08,.48,0,.04,0,.06-.02,.08-.01,.01-.03,.02-.05,.02h-1.87Zm1.71-.16c0-.14-.02-.26-.06-.37-.04-.11-.09-.2-.16-.28-.07-.08-.15-.13-.25-.17-.1-.04-.2-.06-.32-.06-.13,0-.25,.02-.36,.06-.1,.04-.2,.1-.27,.18s-.14,.17-.18,.28c-.05,.11-.08,.23-.09,.36h1.7Z"/><path class="cls-61" d="M417.22,487.79v-2.57h.14s.07,.02,.07,.06l.02,.37c.1-.14,.21-.26,.34-.35s.27-.13,.44-.13c.19,0,.34,.05,.45,.16,.11,.11,.19,.26,.23,.45,.03-.1,.07-.2,.13-.27,.06-.08,.12-.14,.19-.19,.07-.05,.15-.09,.24-.11,.09-.02,.17-.04,.26-.04,.13,0,.24,.02,.34,.06,.1,.04,.19,.1,.26,.19,.07,.08,.12,.18,.16,.3,.04,.12,.06,.26,.06,.41v1.64h-.25v-1.64c0-.25-.05-.44-.16-.57-.11-.13-.26-.2-.46-.2-.09,0-.18,.02-.26,.05-.08,.03-.15,.08-.22,.15-.06,.06-.11,.15-.15,.24-.04,.1-.06,.21-.06,.34v1.64h-.25v-1.64c0-.25-.05-.44-.15-.57-.1-.13-.24-.2-.43-.2-.14,0-.27,.04-.39,.12-.12,.08-.22,.2-.32,.34v1.95h-.25Z"/><path class="cls-61" d="M422.53,485.18c.18,0,.35,.03,.49,.09,.15,.06,.27,.15,.37,.27s.18,.25,.23,.42c.05,.16,.08,.34,.08,.55s-.03,.38-.08,.54c-.05,.16-.13,.3-.23,.42s-.22,.2-.37,.27c-.15,.06-.31,.09-.49,.09s-.35-.03-.49-.09c-.15-.06-.27-.15-.37-.27s-.18-.25-.23-.42-.08-.34-.08-.54,.03-.38,.08-.55,.13-.3,.23-.42,.22-.2,.37-.27,.31-.09,.49-.09Zm0,2.45c.15,0,.29-.03,.4-.08s.21-.13,.29-.23c.08-.1,.13-.22,.17-.35,.04-.14,.06-.29,.06-.47s-.02-.33-.06-.46c-.04-.14-.1-.26-.17-.36s-.17-.18-.29-.23c-.11-.05-.25-.08-.4-.08s-.29,.03-.4,.08c-.11,.05-.21,.13-.29,.23s-.13,.22-.17,.36c-.04,.14-.06,.29-.06,.46s.02,.33,.06,.47c.04,.14,.1,.26,.17,.35,.08,.1,.17,.17,.29,.23s.25,.08,.4,.08Z"/><path class="cls-61" d="M424.81,485.22v2.9c0,.09-.01,.17-.04,.25-.03,.08-.06,.14-.11,.2-.05,.06-.11,.1-.19,.13s-.17,.05-.27,.05c-.05,0-.09,0-.13-.01-.04,0-.08-.02-.12-.04v-.12s.02-.02,.03-.03c0,0,.02,0,.03,0,.01,0,.03,0,.06,.01s.05,0,.09,0c.14,0,.24-.04,.31-.11s.1-.18,.1-.32v-2.9h.25Zm.11-.89s0,.06-.02,.09c-.01,.03-.03,.05-.05,.07-.02,.02-.05,.04-.07,.05-.03,.01-.06,.02-.09,.02s-.06,0-.09-.02c-.03-.01-.05-.03-.07-.05s-.04-.04-.05-.07c-.01-.03-.02-.06-.02-.09s0-.06,.02-.09c.01-.03,.03-.05,.05-.07s.04-.04,.07-.05c.03-.01,.06-.02,.09-.02s.06,0,.09,.02c.03,.01,.05,.03,.07,.05,.02,.02,.04,.05,.05,.07s.02,.06,.02,.09Z"/><path class="cls-61" d="M425.91,486.4v.05c0,.19,.02,.36,.07,.51s.11,.27,.19,.37c.08,.1,.18,.17,.3,.22,.12,.05,.25,.07,.39,.07,.13,0,.24-.01,.34-.04,.09-.03,.17-.06,.24-.1s.12-.07,.15-.1c.04-.03,.07-.04,.08-.04,.02,0,.04,0,.05,.03l.07,.08c-.04,.05-.1,.1-.16,.14-.07,.04-.14,.08-.23,.11s-.17,.06-.27,.08c-.1,.02-.19,.03-.29,.03-.18,0-.34-.03-.48-.09-.14-.06-.27-.15-.37-.27-.1-.12-.18-.26-.24-.43-.06-.17-.08-.36-.08-.58,0-.18,.03-.35,.08-.51,.05-.16,.13-.29,.23-.4,.1-.11,.22-.2,.36-.26,.14-.06,.31-.1,.49-.1,.14,0,.28,.02,.4,.07s.23,.12,.32,.22c.09,.1,.16,.21,.22,.35,.05,.14,.08,.3,.08,.48,0,.04,0,.06-.02,.08-.01,.01-.03,.02-.05,.02h-1.87Zm1.71-.16c0-.14-.02-.26-.06-.37-.04-.11-.09-.2-.16-.28-.07-.08-.15-.13-.25-.17-.1-.04-.2-.06-.32-.06-.13,0-.25,.02-.36,.06-.11,.04-.2,.1-.27,.18s-.14,.17-.18,.28c-.05,.11-.08,.23-.09,.36h1.7Z"/><path class="cls-61" d="M430.72,485.34v.09s-.02,.06-.07,.07l-.39,.03c.05,.07,.09,.14,.11,.22,.03,.08,.04,.17,.04,.26,0,.12-.02,.24-.07,.34-.04,.1-.11,.19-.19,.26-.08,.07-.18,.13-.29,.17-.11,.04-.24,.06-.37,.06-.15,0-.28-.02-.4-.07-.07,.04-.13,.09-.17,.15-.04,.06-.06,.11-.06,.17,0,.07,.03,.13,.08,.17s.12,.07,.21,.09c.09,.02,.18,.03,.29,.03s.22,.01,.33,.02c.11,0,.22,.02,.33,.03,.11,.02,.21,.04,.29,.08,.09,.04,.15,.09,.21,.16,.05,.07,.08,.16,.08,.28,0,.11-.03,.21-.08,.31-.05,.1-.13,.18-.23,.26-.1,.08-.22,.14-.37,.18-.14,.05-.3,.07-.48,.07s-.34-.02-.47-.06c-.14-.04-.25-.09-.34-.15-.09-.06-.16-.14-.21-.22-.05-.08-.07-.17-.07-.26,0-.14,.04-.25,.13-.35,.09-.1,.21-.17,.37-.23-.09-.03-.16-.07-.21-.13s-.08-.13-.08-.23c0-.04,0-.07,.02-.11,.01-.04,.03-.08,.06-.12,.03-.04,.06-.08,.1-.11,.04-.03,.08-.07,.13-.09-.12-.07-.22-.16-.29-.28-.07-.12-.1-.25-.1-.41,0-.12,.02-.24,.07-.34,.04-.1,.11-.19,.19-.26,.08-.07,.18-.13,.29-.17,.11-.04,.24-.06,.38-.06,.11,0,.22,.01,.31,.04,.1,.03,.18,.07,.26,.12h.66Zm-.27,2.63c0-.08-.02-.15-.06-.19s-.1-.09-.17-.11-.15-.05-.24-.06c-.09-.01-.19-.02-.29-.02-.1,0-.2-.01-.3-.02-.1,0-.2-.02-.29-.03-.07,.03-.13,.06-.18,.09s-.1,.07-.14,.11-.07,.09-.09,.14-.03,.11-.03,.16c0,.08,.02,.15,.06,.21,.04,.06,.1,.12,.17,.17,.07,.05,.17,.08,.27,.11s.23,.04,.37,.04c.13,0,.25-.01,.37-.04s.21-.07,.29-.12c.08-.05,.15-.12,.2-.19s.07-.15,.07-.24Zm-.96-1.31c.11,0,.21-.02,.29-.05,.09-.03,.16-.08,.22-.13,.06-.06,.1-.12,.13-.2,.03-.08,.05-.17,.05-.26s-.02-.18-.05-.26c-.03-.08-.08-.15-.14-.21s-.13-.1-.22-.13c-.09-.03-.18-.05-.29-.05s-.21,.02-.29,.05c-.09,.03-.16,.07-.22,.13s-.1,.13-.14,.21c-.03,.08-.05,.17-.05,.26s.02,.18,.05,.26c.03,.08,.08,.15,.14,.2,.06,.06,.13,.1,.22,.13,.09,.03,.18,.05,.29,.05Z"/><path class="cls-61" d="M432.41,485.18c.18,0,.35,.03,.49,.09s.27,.15,.37,.27c.1,.12,.18,.25,.23,.42,.05,.16,.08,.34,.08,.55s-.03,.38-.08,.54c-.05,.16-.13,.3-.23,.42-.1,.12-.22,.2-.37,.27-.15,.06-.31,.09-.49,.09s-.35-.03-.49-.09c-.15-.06-.27-.15-.37-.27s-.18-.25-.23-.42c-.05-.16-.08-.34-.08-.54s.03-.38,.08-.55c.05-.16,.13-.3,.23-.42s.22-.2,.37-.27,.31-.09,.49-.09Zm0,2.45c.15,0,.29-.03,.4-.08,.11-.05,.21-.13,.29-.23,.08-.1,.13-.22,.17-.35,.04-.14,.06-.29,.06-.47s-.02-.33-.06-.46-.1-.26-.17-.36c-.08-.1-.17-.18-.29-.23-.11-.05-.25-.08-.4-.08s-.29,.03-.4,.08c-.11,.05-.21,.13-.29,.23-.08,.1-.13,.22-.17,.36s-.06,.29-.06,.46,.02,.33,.06,.47c.04,.14,.1,.26,.17,.35,.08,.1,.17,.17,.29,.23,.11,.05,.25,.08,.4,.08Z"/><path class="cls-61" d="M437.95,484.04v3.75h-.13s-.07-.02-.08-.07l-.03-.41c-.11,.15-.25,.28-.4,.37-.15,.09-.32,.14-.51,.14-.32,0-.56-.11-.74-.33-.18-.22-.26-.55-.26-.98,0-.19,.02-.36,.07-.53,.05-.16,.12-.3,.22-.42,.09-.12,.21-.21,.35-.28,.14-.07,.3-.1,.48-.1s.32,.03,.45,.1,.24,.16,.33,.28v-1.52h.25Zm-.25,1.74c-.1-.15-.21-.25-.33-.31s-.26-.09-.41-.09-.28,.03-.4,.08c-.11,.05-.21,.13-.29,.23-.08,.1-.13,.22-.17,.36-.04,.14-.06,.29-.06,.46,0,.38,.07,.66,.21,.84,.14,.18,.34,.27,.61,.27,.17,0,.32-.04,.46-.13s.26-.21,.37-.37v-1.35Z"/><path class="cls-61" d="M439.95,485.18c.18,0,.35,.03,.49,.09s.27,.15,.37,.27c.1,.12,.18,.25,.23,.42,.05,.16,.08,.34,.08,.55s-.03,.38-.08,.54c-.05,.16-.13,.3-.23,.42-.1,.12-.22,.2-.37,.27-.15,.06-.31,.09-.49,.09s-.35-.03-.49-.09c-.15-.06-.27-.15-.37-.27s-.18-.25-.23-.42c-.05-.16-.08-.34-.08-.54s.03-.38,.08-.55c.05-.16,.13-.3,.23-.42s.22-.2,.37-.27,.31-.09,.49-.09Zm0,2.45c.15,0,.29-.03,.4-.08,.11-.05,.21-.13,.29-.23,.08-.1,.13-.22,.17-.35,.04-.14,.06-.29,.06-.47s-.02-.33-.06-.46-.1-.26-.17-.36c-.08-.1-.17-.18-.29-.23-.11-.05-.25-.08-.4-.08s-.29,.03-.4,.08c-.11,.05-.21,.13-.29,.23s-.13,.22-.17,.36-.06,.29-.06,.46,.02,.33,.06,.47c.04,.14,.1,.26,.17,.35,.08,.1,.17,.17,.29,.23,.11,.05,.25,.08,.4,.08Z"/><path class="cls-61" d="M441.95,487.79v-2.57h.14s.07,.02,.07,.06l.02,.37c.1-.14,.21-.26,.34-.35s.27-.13,.44-.13c.19,0,.34,.05,.45,.16,.11,.11,.19,.26,.23,.45,.03-.1,.07-.2,.13-.27,.06-.08,.12-.14,.19-.19s.15-.09,.24-.11c.09-.02,.17-.04,.26-.04,.13,0,.24,.02,.34,.06,.1,.04,.19,.1,.26,.19,.07,.08,.12,.18,.16,.3,.04,.12,.06,.26,.06,.41v1.64h-.25v-1.64c0-.25-.05-.44-.16-.57-.11-.13-.26-.2-.46-.2-.09,0-.17,.02-.26,.05-.08,.03-.15,.08-.22,.15-.06,.06-.11,.15-.15,.24-.04,.1-.06,.21-.06,.34v1.64h-.25v-1.64c0-.25-.05-.44-.15-.57s-.24-.2-.43-.2c-.14,0-.27,.04-.39,.12-.12,.08-.22,.2-.32,.34v1.95h-.25Z"/><path class="cls-61" d="M448.24,485.22v2.57h-.14s-.07-.02-.07-.07l-.02-.38c-.12,.15-.26,.27-.41,.36-.16,.09-.33,.13-.52,.13-.14,0-.27-.02-.37-.07-.11-.04-.2-.11-.27-.19-.07-.08-.12-.19-.16-.3-.04-.12-.05-.25-.05-.4v-1.64h.25v1.64c0,.24,.05,.43,.17,.57,.11,.14,.28,.21,.5,.21,.17,0,.32-.04,.47-.13,.15-.09,.27-.2,.39-.35v-1.93h.25Z"/></g><g><path class="cls-1" d="M554.37,137.47h-1.21v-3.06c0-.24-.2-.44-.44-.44h-3.28c-.24,0-.44,.2-.44,.44v3.06h-1.21c-.24,0-.44,.2-.44,.44v3.28c0,.24,.2,.44,.44,.44h6.57c.24,0,.44-.2,.44-.44v-3.28c0-.24-.2-.44-.44-.44Zm-4.49-2.62h.76v.44c0,.24,.2,.44,.44,.44s.44-.2,.44-.44v-.44h.77v2.4h-2.4v-2.4Zm-1.65,3.5h.66v.44c0,.24,.2,.44,.44,.44s.44-.2,.44-.44v-.44h.87v2.4h-2.4v-2.4Zm5.7,2.4h-2.42v-2.4h.87v.44c0,.24,.2,.44,.44,.44s.44-.2,.44-.44v-.44h.67v2.4Z"/><path class="cls-1" d="M560.92,128.29s0-.03,0-.05c0-.01,0-.02,0-.04,0-.01,0-.03-.01-.04,0-.01,0-.03-.01-.04,0-.01-.01-.02-.02-.03l-.02-.04-.03-.03s-.02-.02-.03-.03l-.03-.02-.04-.03h0l-9.4-5.9c-.14-.09-.32-.09-.46,0l-9.4,5.9h0l-.04,.03-.03,.02s-.02,.02-.03,.03l-.03,.03-.04,.02s-.01,.02-.02,.03c0,.01,0,.03-.01,.04,0,.02-.01,.03-.01,.04,0,.01,0,.02,0,.04,0,.02,0,.04-.01,.07v12.9c0,.24,.2,.44,.44,.44h3.93c.24,0,.44-.2,.44-.44v-8.52h10.05v8.52c0,.24,.2,.44,.44,.44,.03,0,.05,0,.08,0,.03,0,.05,0,.08,0h3.78c.24,0,.44-.2,.44-.44v-12.9Zm-14.86,3.5v-.44h10.05v.44h-10.05Zm10.93,8.96v-9.84c0-.24-.2-.44-.44-.44h-10.93c-.24,0-.44,.2-.44,.44v9.84h-3.06v-12.22l8.96-5.63,8.96,5.63v12.22h-3.06Z"/><path class="cls-1" d="M552.17,126.32h-2.4c-.24,0-.44,.2-.44,.44s.2,.44,.44,.44h2.4c.24,0,.44-.2,.44-.44s-.2-.44-.44-.44Z"/><path class="cls-1" d="M552.17,127.64h-2.4c-.24,0-.44,.2-.44,.44s.2,.44,.44,.44h2.4c.24,0,.44-.2,.44-.44s-.2-.44-.44-.44Z"/></g><g><path class="cls-23" d="M151.41,326.03c0,.55-.35,1.05-1.19,1.05h-.5v1.12h-.65v-3.24h1.2c.81,0,1.14,.53,1.14,1.07Zm-.66,0c0-.24-.17-.46-.47-.46h-.56v.93h.52c.35,0,.51-.24,.51-.47Z"/><path class="cls-23" d="M152.91,326.91l-.4,.48v.81h-.65v-3.24h.65v1.53l1.23-1.53h.78l-1.19,1.47,1.27,1.76h-.8l-.9-1.28Z"/><path class="cls-23" d="M158.23,326.03c0,.55-.35,1.05-1.19,1.05h-.5v1.12h-.65v-3.24h1.2c.81,0,1.14,.53,1.14,1.07Zm-.66,0c0-.24-.17-.46-.47-.46h-.56v.93h.52c.35,0,.51-.24,.51-.47Z"/><path class="cls-23" d="M159.73,327.02h-.39v1.18h-.65v-3.24h1.24c.76,0,1.11,.49,1.11,1.02,0,.39-.2,.78-.66,.95l.78,1.26h-.76l-.68-1.18Zm-.39-.58h.53c.36,0,.5-.22,.5-.44s-.15-.43-.45-.43h-.59v.88Z"/><path class="cls-23" d="M161.43,326.59c0-.94,.74-1.69,1.69-1.69s1.69,.75,1.69,1.68-.73,1.67-1.69,1.67-1.68-.73-1.68-1.66Zm2.7,0c0-.6-.46-1.04-1.01-1.04s-1.01,.44-1.01,1.04,.44,1.03,1.01,1.03,1.02-.44,1.01-1.03Z"/><path class="cls-23" d="M167.67,326.03c0,.55-.35,1.05-1.19,1.05h-.5v1.12h-.65v-3.24h1.2c.81,0,1.14,.53,1.14,1.07Zm-.66,0c0-.24-.17-.46-.47-.46h-.56v.93h.52c.35,0,.51-.24,.51-.47Z"/><path class="cls-23" d="M168.13,324.96h2.19v.6h-1.54v.7h1.43v.6h-1.43v.73h1.54v.6h-2.19v-3.24Z"/><path class="cls-23" d="M171.95,327.02h-.39v1.18h-.65v-3.24h1.24c.76,0,1.11,.49,1.11,1.02,0,.39-.2,.78-.66,.95l.78,1.26h-.76l-.68-1.18Zm-.39-.58h.53c.36,0,.5-.22,.5-.44s-.15-.43-.45-.43h-.59v.88Z"/><path class="cls-23" d="M173.52,325.58v-.63h2.5v.63h-.92v2.61h-.66v-2.61h-.92Z"/><path class="cls-23" d="M177.89,327.07v1.12h-.65v-1.12l-1.11-2.12h.75l.68,1.42,.7-1.42h.75l-1.12,2.12Z"/><path class="cls-23" d="M148.35,330.03h.43l1.27,1.83,1.26-1.83h.44v3.24h-.65v-1.83l-.94,1.35h-.22l-.94-1.35v1.83h-.64v-3.24Z"/><path class="cls-23" d="M154.19,332.56h-1.13l-.25,.7h-.68l1.23-3.24h.53l1.22,3.24h-.68l-.24-.7Zm-.95-.58h.76l-.38-1.08-.39,1.08Z"/><path class="cls-23" d="M158.27,330.03v3.24h-.44l-1.68-1.98v1.98h-.64v-3.24h.41l1.71,2v-2h.64Z"/><path class="cls-23" d="M160.72,332.56h-1.13l-.25,.7h-.68l1.23-3.24h.53l1.22,3.24h-.68l-.24-.7Zm-.95-.58h.76l-.38-1.08-.39,1.08Z"/><path class="cls-23" d="M161.73,331.65c0-.99,.76-1.68,1.71-1.68,.54,0,1.02,.23,1.3,.53l-.42,.46c-.22-.22-.54-.36-.88-.36-.6,0-1.05,.45-1.05,1.05s.42,1.05,1.04,1.05c.35,0,.67-.15,.87-.35v-.44h-.89v-.56h1.48v1.33c-.39,.41-.91,.64-1.48,.64-.98,0-1.69-.71-1.69-1.66Z"/><path class="cls-23" d="M165.46,330.03h2.19v.6h-1.54v.7h1.43v.6h-1.43v.73h1.54v.6h-2.19v-3.24Z"/><path class="cls-23" d="M168.25,330.03h.43l1.27,1.83,1.26-1.83h.44v3.24h-.65v-1.83l-.94,1.35h-.22l-.94-1.35v1.83h-.64v-3.24Z"/><path class="cls-23" d="M172.36,330.03h2.19v.6h-1.54v.7h1.43v.6h-1.43v.73h1.54v.6h-2.19v-3.24Z"/><path class="cls-23" d="M177.91,330.03v3.24h-.44l-1.68-1.98v1.98h-.64v-3.24h.41l1.71,2v-2h.64Z"/><path class="cls-23" d="M178.33,330.66v-.63h2.5v.63h-.92v2.61h-.66v-2.61h-.92Z"/></g></g><polygon id="Nova_ParkV1004" class="cls-36" points="340.6 11.44 340.6 87.44 376.66 87.44 376.66 111.46 440.22 111.46 440.22 62.27 414.43 62.27 414.43 11.44 340.6 11.44"/><polygon id="Nova_ParkV1006" class="cls-36" points="416.4 11.44 416.4 60.37 442.01 60.37 442.01 111.46 491.01 111.46 491.01 104.63 516.55 104.63 516.55 86.42 545.54 86.42 545.54 79.79 561.76 79.79 561.76 70.08 566.51 70.08 566.51 14.89 561.76 11.44 416.4 11.44"/><rect id="Nova_ParkV1002" class="cls-36" x="377.35" y="113.05" width="22.86" height="26.07"/><polygon id="Nova_ParkV1008" class="cls-36" points="506.76 120.71 506.76 138.79 517.88 138.79 521.2 144.39 532.7 144.39 532.7 120.71 506.76 120.71"/><rect id="Nova_ParkV1009" class="cls-36" x="534.59" y="120.71" width="33.89" height="23.68"/><path id="Nova_ParkV1010" class="cls-36" d="M521.89,145.98h46.6v14.03h-40.85c-2.12-8.28-5.75-14.03-5.75-14.03Z"/><path id="Nova_ParkV1012" class="cls-36" d="M527.97,161.64h40.51v12.94h-39.03c.15-7.34-1.48-12.94-1.48-12.94Z"/><path id="Nova_ParkV1014" class="cls-36" d="M529.45,175.78h39.03v31.02h-46.6c8.55-18.05,7.56-31.02,7.56-31.02Z"/><polygon id="Nova_ParkV1016" class="cls-36" points="521.2 208.31 568.48 208.31 568.48 231.84 506.68 231.84 506.68 215.35 517.8 215.35 521.2 208.31"/><rect id="Nova_ParkV1018" class="cls-36" x="506.68" y="233.43" width="86.54" height="32.53"/><rect id="Nova_ParkV1020" class="cls-36" x="506.68" y="267.39" width="86.54" height="33.97"/><polygon id="Nova_ParkV1022" class="cls-36" points="491.28 316.34 491.28 341.02 516.6 341.02 516.6 337.37 530.8 337.37 530.8 316.34 491.28 316.34"/><rect id="Nova_ParkV1024" class="cls-36" x="491.28" y="342.55" width="25.31" height="23.92"/><rect id="Nova_ParkV1026" class="cls-36" x="491.28" y="367.91" width="25.31" height="40.14"/><polygon id="Nova_ParkV1028" class="cls-36" points="518.54 338.89 532.75 338.89 532.75 334 592.97 334 592.97 501.51 498.1 501.51 498.1 492.7 486.93 492.7 486.93 465.88 491.28 459.81 491.28 409.86 518.54 409.86 518.54 338.89"/><polygon id="Nova_ParkV1030" class="cls-36" points="391.72 460.65 391.72 476.94 365.65 476.94 365.65 501.46 453.21 501.46 453.21 495.74 466.84 495.74 466.84 492 471.24 492 471.24 466.04 467.28 460.65 391.72 460.65"/><rect id="Nova_ParkV1036" class="cls-36" x="365.65" y="460.65" width="24.2" height="14.74"/><rect id="Nova_ParkV1038" class="cls-36" x="339.81" y="460.65" width="24.09" height="40.81"/><polygon id="Nova_ParkV1040" class="cls-36" points="262.81 460.65 337.94 460.65 337.94 501.46 264.9 501.46 264.9 492.33 261.49 492.33 261.49 484.33 257.97 484.33 257.97 465.27 262.81 460.65"/><polygon id="Nova_ParkV1046" class="cls-36" points="193.3 460.65 193.3 500.47 236.19 500.47 236.19 492 241.8 492 241.8 465.82 238.17 460.65 193.3 460.65"/><polygon id="Nova_ParkV1054" class="cls-36" points="82.44 460.65 82.44 475.39 70.58 475.39 70.58 505.96 191.36 505.96 191.36 460.65 82.44 460.65"/><rect id="Nova_ParkV1056" class="cls-36" x="70.58" y="341.79" width="30.5" height="67.18"/><rect id="Nova_ParkV1058" class="cls-36" x="70.58" y="317.18" width="30.5" height="23.21"/><polygon id="Nova_ParkV1060" class="cls-36" points="62.75 282.11 101.08 282.11 101.08 315.22 70.58 315.22 70.58 311.87 62.75 309.68 62.75 282.11"/><polygon id="Nova_ParkV1062" class="cls-36" points="15.03 251.09 14.16 259.8 11.84 296.73 60.97 309.5 60.97 280.62 101.08 280.62 101.08 251.09 95 232.73 59.01 232.73 59.01 250.94 15.03 251.09"/><path id="Nova_ParkV1064" class="cls-36" d="M59,201.93v12.28h10.88v4.69h16.27c-4.29-8.48-3.79-16.97-3.79-16.97h-23.36Z"/><path id="Nova_ParkV1066" class="cls-36" d="M49.45,131.46l-3.45,8.58-14.14,53.1h3.19v7.29h47.31c2-16.67,9.98-26.37,9.98-26.37l-42.89-42.61Z"/><path id="Nova_ParkV1068" class="cls-36" d="M50.4,130.01l28.37-69.98,56.04-16.28v110.8c-31.39,.35-41.48,18.14-41.48,18.14l-42.93-42.67Z"/><polygon id="Nova_ParkV1070" class="cls-36" points="136.41 43.23 136.41 154.65 194.53 154.65 194.53 35.65 162.88 35.65 136.41 43.23"/><path id="Nova_ParkV1076" class="cls-36" d="M288.24,183.31V112.96h-24.1v54c13.25,7.09,24.1,16.34,24.1,16.34Z"/><polygon id="Nova_ParkV1078" class="cls-36" points="289.84 140.58 289.84 184.33 313.37 203.25 313.37 155.43 294.07 140.58 289.84 140.58"/><polygon id="Nova_ParkV1080" class="cls-36" points="315.09 156.46 315.09 204.32 318.4 206.61 338.62 206.61 338.62 174.62 315.09 156.46"/><polygon id="Nova_ParkV1082" class="cls-36" points="340.1 175.19 340.1 206.61 384.31 206.61 387.74 188.75 357.7 188.75 340.1 175.19"/><polygon id="Nova_ParkV1086" class="cls-36" points="421.51 169.04 417.54 188.03 429 188.03 429 170.56 421.51 169.04"/><polygon id="Nova_ParkV1088" class="cls-36" points="430.7 170.9 430.7 188.03 455.2 188.03 455.2 175.78 430.7 170.9"/><polygon id="Nova_ParkV1090" class="cls-36" points="456.9 175.78 456.9 188.03 476.08 188.03 477.78 180.31 456.9 175.78"/><polygon id="Nova_ParkV1092" class="cls-36" points="442.04 189.61 442.04 213.55 470.74 213.55 475.62 189.61 442.04 189.61"/><polygon id="Nova_ParkV1148" class="cls-36" points="416.88 189.61 440.23 189.61 440.23 213.55 411.98 213.55 416.88 189.61"/><polygon id="Nova_ParkV1094" class="cls-36" points="442.04 215.25 442.04 239.42 464.93 239.42 470.4 215.25 442.04 215.25"/><polygon id="Nova_ParkV1098" class="cls-36" points="411.98 215.25 440.23 215.25 440.23 240.96 464.93 240.96 454.26 290.56 454.26 316.34 466.95 316.34 466.95 341.02 395.17 341.02 395.17 265.31 405.47 265.31 405.47 246.58 411.98 215.25"/><rect id="Nova_ParkV1100" class="cls-36" x="442.09" y="342.55" width="24.86" height="23.92"/><polygon id="Nova_ParkV1105" class="cls-36" points="345.65 342.55 440.56 342.55 440.56 399.97 323.13 399.97 323.13 356.56 345.65 356.56 345.65 342.55"/><rect id="Nova_ParkV1102" class="cls-36" x="442.09" y="367.91" width="24.86" height="32.05"/><polygon id="Nova_ParkV1142" class="cls-36" points="323.13 247.55 323.13 311.73 337.19 311.73 337.19 325.19 345.67 325.19 345.67 341.02 393.79 341.02 393.79 272.17 386.01 272.17 386.01 265.31 389.51 265.31 389.51 247.55 323.13 247.55"/><rect id="Nova_ParkV1110" class="cls-36" x="289.06" y="342.55" width="23.86" height="57.42"/><polygon id="Nova_ParkV0114" class="cls-36" points="237.79 266.2 312.92 266.2 312.92 341.02 287.36 341.02 287.36 399.97 237.79 399.97 237.79 266.2"/><path id="Nova_ParkV1140" class="cls-36" d="M289.06,239.09v25.56h23.86v-16.42c-13.48-.65-23.86-9.14-23.86-9.14Z"/><path id="Nova_ParkV1138" class="cls-36" d="M269.55,222.36h-6.66v42.29h24.63v-26.62c-11.4-8.13-17.97-15.67-17.97-15.67Z"/><rect id="Nova_ParkV1136" class="cls-36" x="237.79" y="222.36" width="23.34" height="42.29"/><path id="Nova_ParkV1130" class="cls-36" d="M148.15,226.91l11.64,13.38v24.36h-16.85v-29c1.68-5.63,5.21-8.73,5.21-8.73Z"/><rect id="Nova_ParkV1128" class="cls-36" x="142.95" y="266.2" width="16.85" height="23.51"/><rect id="Nova_ParkV1126" class="cls-36" x="142.95" y="291.49" width="16.85" height="24.12"/><rect id="Nova_ParkV1124" class="cls-36" x="142.95" y="317.18" width="42.57" height="23.97"/><polygon id="Nova_ParkV1114" class="cls-36" points="142.95 342.55 142.95 366.46 187.45 366.46 187.45 370.51 202.43 370.51 202.43 399.97 236.01 399.97 236.01 342.55 142.95 342.55"/><rect id="Nova_ParkV1116" class="cls-36" x="187.35" y="371.97" width="13.62" height="28"/><rect id="Nova_ParkV1118" class="cls-36" x="161.56" y="368.14" width="24.54" height="31.83"/><polygon id="Nova_ParkV1120" class="cls-36" points="142.95 394.74 142.95 368.14 159.79 368.14 159.79 399.97 148.56 399.97 142.95 394.74"/><rect id="Nova_ParkV1134" class="cls-35" x="219.97" y="222.36" width="16.13" height="42.29"/><polygon id="Nova_ParkV0118" class="cls-35" points="149.36 225.77 161.71 239.87 161.71 315.61 187.37 315.61 187.37 341.15 236.01 341.15 236.01 266.2 217.55 266.2 217.55 222.36 158.54 222.36 155.06 223.05 151.42 224.73 149.36 225.77"/><polygon id="Nova_ParkV1073" class="cls-35" points="209.77 126.68 209.77 155.56 218.05 155.96 222.59 155.96 227.7 156.45 236.09 157.67 243.52 159.29 250.75 161.48 258.7 164.48 262.18 166.27 262.18 112.96 238.09 112.96 238.09 126.76 209.77 126.68"/></svg>