<?xml version="1.0" encoding="UTF-8"?><svg id="Layer4" xmlns="http://www.w3.org/2000/svg" viewBox="0 0 634.63 743.73"><defs><style>.cls-1{letter-spacing:0em;}.cls-2{font-size:4.26px;}.cls-2,.cls-3,.cls-4,.cls-5,.cls-6,.cls-7,.cls-8,.cls-9,.cls-10,.cls-11,.cls-12,.cls-13,.cls-14,.cls-15,.cls-16,.cls-17,.cls-18,.cls-19,.cls-20,.cls-21,.cls-22,.cls-23,.cls-24,.cls-25,.cls-26,.cls-27,.cls-28,.cls-29,.cls-30,.cls-31,.cls-32,.cls-33,.cls-34,.cls-35,.cls-36,.cls-37,.cls-38{fill:#1d1d1b;}.cls-2,.cls-3,.cls-4,.cls-5,.cls-6,.cls-7,.cls-8,.cls-9,.cls-10,.cls-11,.cls-12,.cls-13,.cls-14,.cls-15,.cls-16,.cls-17,.cls-19,.cls-20,.cls-21,.cls-22,.cls-23,.cls-24,.cls-25,.cls-26,.cls-39,.cls-27,.cls-28,.cls-29,.cls-30,.cls-31,.cls-32,.cls-33,.cls-34,.cls-35,.cls-37,.cls-38{font-family:Axiforma-Bold, Axiforma;}.cls-40{letter-spacing:-.03em;}.cls-41{letter-spacing:-.02em;}.cls-42{letter-spacing:-.05em;}.cls-43{letter-spacing:-.03em;}.cls-44{letter-spacing:-.02em;}.cls-3{font-size:3.92px;}.cls-45,.cls-39{fill:#ed7013;}.cls-46{stroke:#000;}.cls-46,.cls-47,.cls-48,.cls-49{fill:none;stroke-miterlimit:10;}.cls-4{font-size:6.08px;}.cls-50{fill:#f6f6f6;}.cls-51{letter-spacing:0em;}.cls-52{letter-spacing:-.03em;}.cls-53{letter-spacing:0em;}.cls-54{letter-spacing:0em;}.cls-5{font-size:4.81px;}.cls-55{letter-spacing:-.03em;}.cls-56{letter-spacing:-.02em;}.cls-57{letter-spacing:-.01em;}.cls-6{font-size:6.08px;}.cls-58{letter-spacing:-.07em;}.cls-59{letter-spacing:-.01em;}.cls-60{letter-spacing:-.03em;}.cls-61{letter-spacing:-.02em;}.cls-62{letter-spacing:-.01em;}.cls-7{font-size:7.24px;}.cls-8{font-size:5.51px;}.cls-63{letter-spacing:-.03em;}.cls-9{font-size:2.41px;}.cls-64{letter-spacing:-.02em;}.cls-65{letter-spacing:-.02em;}.cls-66{letter-spacing:-.02em;}.cls-67{letter-spacing:-.03em;}.cls-68{letter-spacing:-.08em;}.cls-69{letter-spacing:-.02em;}.cls-10{font-size:7.11px;}.cls-11{font-size:7.94px;}.cls-70{letter-spacing:-.03em;}.cls-71{letter-spacing:0em;}.cls-12{font-size:6.01px;}.cls-72{letter-spacing:-.07em;}.cls-73{letter-spacing:-.02em;}.cls-74{letter-spacing:0em;}.cls-75{letter-spacing:-.02em;}.cls-76{letter-spacing:-.03em;}.cls-47,.cls-49{stroke:#1d1d1b;}.cls-13{font-size:2.21px;}.cls-77{letter-spacing:-.06em;}.cls-78{letter-spacing:0em;}.cls-14{font-size:4.8px;}.cls-79{letter-spacing:-.07em;}.cls-80{fill:#13110c;}.cls-80,.cls-18,.cls-81{fill-rule:evenodd;}.cls-82{letter-spacing:0em;}.cls-15{font-size:3.92px;}.cls-83{letter-spacing:0em;}.cls-84{letter-spacing:-.03em;}.cls-16{font-size:10.25px;}.cls-17{font-size:10.6px;}.cls-85{letter-spacing:0em;}.cls-86{letter-spacing:-.02em;}.cls-87{letter-spacing:-.02em;}.cls-88{letter-spacing:-.05em;}.cls-89{letter-spacing:-.02em;}.cls-90{letter-spacing:-.02em;}.cls-91{letter-spacing:0em;}.cls-92{letter-spacing:-.01em;}.cls-93{letter-spacing:-.02em;}.cls-94{letter-spacing:-.03em;}.cls-19{font-size:4.89px;}.cls-20{font-size:11.94px;}.cls-95{letter-spacing:-.03em;}.cls-96{letter-spacing:-.02em;}.cls-97{letter-spacing:-.03em;}.cls-98{letter-spacing:0em;}.cls-21{font-size:3.9px;}.cls-22{font-size:9.62px;}.cls-99{letter-spacing:-.03em;}.cls-100{letter-spacing:-.07em;}.cls-23{font-size:5px;}.cls-24{font-size:8.47px;}.cls-101{letter-spacing:-.02em;}.cls-48{stroke:#12100b;}.cls-102{letter-spacing:-.04em;}.cls-103{letter-spacing:0em;}.cls-49{stroke-width:2px;}.cls-104{letter-spacing:-.03em;}.cls-105{letter-spacing:0em;}.cls-106{letter-spacing:0em;}.cls-25{font-size:4.81px;}.cls-26{font-size:3.54px;}.cls-107{letter-spacing:0em;}.cls-108{letter-spacing:-.05em;}.cls-39{font-size:22px;}.cls-109{letter-spacing:-.03em;}.cls-110{letter-spacing:-.07em;}.cls-111{letter-spacing:-.02em;}.cls-27{font-size:9.39px;}.cls-28{font-size:9.26px;}.cls-112{letter-spacing:0em;}.cls-81{fill:#f7f8f8;}.cls-113{letter-spacing:-.03em;}.cls-29{font-size:5.84px;}.cls-114{fill:#12100b;}.cls-30{font-size:7.77px;}.cls-31{font-size:3.76px;}.cls-115{letter-spacing:-.01em;}.cls-116{letter-spacing:-.04em;}.cls-117{letter-spacing:-.03em;}.cls-118{letter-spacing:-.02em;}.cls-32{font-size:4.03px;}.cls-33{font-size:3.42px;}.cls-34{font-size:5.4px;}.cls-119{letter-spacing:-.02em;}.cls-35{font-size:6.58px;}.cls-120{letter-spacing:-.02em;}.cls-37{font-size:10.09px;}.cls-38{font-size:4.77px;}.cls-121{letter-spacing:-.02em;}.cls-122{letter-spacing:-.04em;}</style></defs><g id="cladire"><g><polygon class="cls-50" points="185.36 700.71 185.36 522.7 61.04 522.7 61.04 327.95 5 313.87 5 269.69 37.89 147.17 71.02 63.78 157.23 40.27 211.54 25.86 211.54 84.85 307.11 84.85 307.11 5 558.7 5 599.09 48.34 599.09 679.61 577.99 700.71 185.36 700.71"/><path class="cls-50" d="M556.52,10l37.57,40.31V677.54l-18.17,18.17H190.36v-178.01H66.04v-193.65l-56.04-14.08v-39.62l32.65-121.61,32.1-80.8,83.79-22.85,47.99-12.74v57.49h105.58V10h244.41m4.35-10H302.11V79.85h-85.58V19.36l-12.56,3.33-47.99,12.74h-.03l-.03,.02-83.79,22.85-4.82,1.31-1.84,4.64-32.1,80.8-.21,.54-.15,.56L.34,267.76l-.34,1.27v48.73l7.56,1.9,48.47,12.18v195.85h124.32v178.01h399.7l2.93-2.93,18.17-18.17,2.93-2.93V46.37l-2.69-2.88L563.84,3.18l-2.97-3.18h0Z"/><polygon class="cls-49" points="158.54 45.09 206.54 32.36 206.54 89.85 312.11 89.85 312.11 10 556.52 10 594.09 50.31 594.09 677.54 575.92 695.71 231.36 695.71 190.36 695.71 190.36 517.7 66.04 517.7 66.04 324.05 10 309.97 10 279.19 10 270.35 42.65 148.74 74.75 67.95 158.54 45.09"/></g></g><g id="magazine"><polyline class="cls-47" points="594.09 91.5 567.28 91.5 567.28 97.5 516.03 97.5 516.03 148.74 374.28 148.74 374.28 97.8 336.53 97.8 336.53 18.96 564.87 18.96"/><polyline class="cls-47" points="413.54 18.96 413.54 96.6 427.03 96.6 427.03 148.74"/><line class="cls-47" x1="465.31" y1="18.96" x2="465.31" y2="148.74"/><polyline class="cls-47" points="594.09 148.74 584.35 148.74 584.35 130.03 530.67 130.03 530.67 162.96 503.15 162.96 503.15 312.28 594.09 312.28"/><polyline class="cls-47" points="594.09 420.09 489.17 420.09 489.17 327.16 529.31 327.16 529.31 344.31 594.09 344.31"/><line class="cls-47" x1="529.31" y1="344.31" x2="489.17" y2="344.31"/><polyline class="cls-47" points="594.09 199.47 541.5 199.47 541.5 194.64 503.15 194.64"/><polyline class="cls-47" points="541.5 199.47 541.5 211.87 503.15 211.87"/><polyline class="cls-47" points="529.31 249.96 529.31 263.11 529.31 276.26 503.15 276.26"/><line class="cls-47" x1="529.31" y1="263.11" x2="503.15" y2="263.11"/><polyline class="cls-47" points="518.53 344.31 518.53 378.73 489.17 378.73"/><line class="cls-47" x1="489.17" y1="362.38" x2="518.53" y2="362.38"/><polyline class="cls-47" points="594.09 504.08 567.28 504.08 567.28 517.78 492.26 517.78 492.26 504.35 485.39 504.35 485.39 462.3 594.09 462.3"/><polygon class="cls-47" points="471.2 462.3 439.54 462.3 255.9 462.3 255.9 504.4 261.28 504.4 261.28 517.7 464.55 517.7 464.55 503.77 471.2 503.77 471.2 462.3"/><line class="cls-47" x1="439.22" y1="517.62" x2="439.22" y2="462.3"/><line class="cls-47" x1="388.25" y1="517.62" x2="388.25" y2="462.3"/><line class="cls-47" x1="363.55" y1="517.62" x2="363.55" y2="462.3"/><polyline class="cls-47" points="285.98 462.3 285.98 489.21 312.57 489.21 312.57 462.3"/><line class="cls-47" x1="255.9" y1="485.72" x2="285.98" y2="485.72"/><polyline class="cls-47" points="66.04 484.14 78.91 484.14 78.91 462.3 241.02 462.3 241.02 504.09 235 504.09 235 517.7 190.36 517.7"/><line class="cls-47" x1="190.36" y1="517.7" x2="190.36" y2="462.3"/><line class="cls-47" x1="158.7" y1="462.3" x2="158.7" y2="517.7"/><path class="cls-47" d="M66.04,422.46h43.06v-157.35c-1.22-7.67-3.5-15.09-6.79-22.28H56.44v18.53l-43.92-.39"/><path class="cls-47" d="M55.93,199.06v20.38h15.13v10.21h23.89l-.42-.74c-12.55-31.48,5.25-53.2,38.64-54.52l59.11,.2V45.09h-33.73"/><polyline class="cls-47" points="29.14 199.06 56.55 199.06 92.13 199.06"/><line class="cls-47" x1="109.1" y1="279.39" x2="10" y2="279.39"/><line class="cls-47" x1="109.1" y1="327.12" x2="66.04" y2="327.12"/><polyline class="cls-47" points="109.1 396.1 84.39 396.1 84.39 378.33 84.31 378.33 73.79 378.33 66.04 378.33"/><path class="cls-47" d="M206.54,121.53h81.78v27.22h3.16l65.68,49.83h17.37v27.16h-61.89c-35.63-29.12-70.4-52.77-106.1-51.16v-53.05Z"/><line class="cls-47" x1="235.9" y1="121.53" x2="235.9" y2="178.59"/><line class="cls-47" x1="288.32" y1="148.74" x2="288.32" y2="206.95"/><line class="cls-47" x1="337.23" y1="183.45" x2="337.23" y2="225.73"/><line class="cls-47" x1="361.76" y1="198.58" x2="361.76" y2="225.73"/><path class="cls-47" d="M312.57,249.02v171.25H143.62l-12.01-12.52v-127.29h39.87v-4.35h-39.87v-31.95c4.08-13.45,13.07-20.35,26.58-21.21h113.58c19.71,17.58,27.13,24.31,40.8,26.07Z"/><line class="cls-47" x1="235.9" y1="222.95" x2="235.9" y2="420.27"/><polyline class="cls-47" points="312.57 312.18 259.51 312.18 259.51 348.27 235.9 348.27"/><polyline class="cls-47" points="312.57 275.57 286.33 275.57 286.33 235.69"/><line class="cls-47" x1="299.45" y1="244.95" x2="299.45" y2="275.57"/><polyline class="cls-47" points="235.9 398.29 262.09 398.29 262.09 420.09"/><polyline class="cls-47" points="235.9 378.73 210.01 378.73 210.01 420.27"/><polyline class="cls-47" points="235.9 276.11 171.48 276.11 171.48 251.33"/><polyline class="cls-47" points="200.21 222.95 200.21 251.33 131.61 251.33"/><line class="cls-47" x1="184.74" y1="222.95" x2="184.74" y2="251.33"/><line class="cls-47" x1="158.19" y1="222.95" x2="158.19" y2="251.33"/><polyline class="cls-47" points="171.48 280.46 171.48 378.73 171.48 392.1 143.62 420.27"/><line class="cls-47" x1="131.61" y1="378.73" x2="171.48" y2="378.73"/><line class="cls-47" x1="131.61" y1="353.94" x2="171.48" y2="353.94"/><line class="cls-47" x1="131.61" y1="327.12" x2="171.48" y2="327.12"/><line class="cls-47" x1="131.61" y1="302.64" x2="171.48" y2="302.64"/><path class="cls-47" d="M321.21,249.02v72.59h13.57v14.77h8.54v31.15h-22.11v52.74h114.55l30.14-11.08v-82.03h-51.75v-5.55h38.18v-16.38l19.59-95.96-56.27-12.21-6.53,31.81c-2.35,11.05-9.06,17.76-20.1,20.16h-67.83Z"/><line class="cls-47" x1="468.57" y1="225.73" x2="409.13" y2="225.73"/><line class="cls-47" x1="426.8" y1="199.47" x2="426.8" y2="225.73"/><line class="cls-47" x1="441.41" y1="202.64" x2="441.41" y2="225.73"/><line class="cls-47" x1="458.35" y1="206.32" x2="458.35" y2="225.73"/><polyline class="cls-47" points="463.62 249.96 414.15 249.96 414.15 321.61"/><line class="cls-47" x1="458.35" y1="276.11" x2="321.21" y2="276.11"/><line class="cls-47" x1="337.23" y1="249.02" x2="337.23" y2="276.11"/><line class="cls-47" x1="351.68" y1="249.02" x2="351.68" y2="276.11"/><line class="cls-47" x1="363.36" y1="249.02" x2="363.36" y2="276.11"/><line class="cls-47" x1="375.69" y1="249.02" x2="375.69" y2="276.11"/><line class="cls-47" x1="388.76" y1="249.02" x2="388.76" y2="276.11"/><line class="cls-47" x1="414.15" y1="249.96" x2="402.82" y2="241.68"/><polyline class="cls-47" points="414.15 327.16 414.15 379.26 438.89 379.26 438.89 419.12"/><polyline class="cls-47" points="414.15 352.57 388.21 352.57 388.21 420.27"/><polyline class="cls-47" points="465.9 352.57 426.77 352.57 426.77 379.26"/><line class="cls-47" x1="465.9" y1="390.23" x2="438.89" y2="390.23"/><polyline class="cls-47" points="82.45 242.82 82.45 255.46 106.97 255.46"/><line class="cls-47" x1="66.04" y1="352.84" x2="109.1" y2="352.84"/><polyline class="cls-47" points="56.44 242.82 35.67 242.82 35.67 261.17"/><polyline class="cls-47" points="567.28 97.5 567.28 114.46 594.09 114.46"/><line class="cls-47" x1="321.21" y1="321.61" x2="321.21" y2="367.53"/><polyline class="cls-47" points="235.9 162.42 249.25 162.42 249.25 183.59"/><polyline class="cls-47" points="321.21 403.52 336.06 403.52 336.06 420.27"/><line class="cls-47" x1="453.56" y1="299.26" x2="414.15" y2="299.26"/><line class="cls-47" x1="503.15" y1="249.96" x2="594.09" y2="249.96"/></g><g id="logo"><g><polygon class="cls-36" points="142.92 123.95 142.53 123.95 137.05 112.95 139.46 112.95 142.76 119.92 142.79 119.92 146.08 112.95 148.41 112.95 142.92 123.95"/><polygon class="cls-36" points="93.67 112.95 93.67 114.75 88.37 114.75 88.37 117.46 93.33 117.46 93.33 119.19 88.37 119.19 88.37 121.94 94.16 121.94 94.16 123.74 86.28 123.74 86.28 112.95 93.67 112.95"/><polygon class="cls-36" points="119.67 112.95 119.67 114.75 114.38 114.75 114.38 117.54 119.32 117.54 119.32 119.27 114.38 119.27 114.38 121.94 120.16 121.94 120.16 123.74 112.28 123.74 112.28 112.95 119.67 112.95"/><polygon class="cls-36" points="159.44 112.95 159.44 114.75 154.15 114.75 154.15 117.56 159.1 117.56 159.1 119.29 154.15 119.29 154.15 121.94 159.93 121.94 159.93 123.74 152.05 123.74 152.05 112.95 159.44 112.95"/><path class="cls-36" d="M168.15,121.97c2.38,0,3.46-1.2,3.46-3.62s-1.07-3.63-3.46-3.63h-1.57v7.25h1.57Zm-3.67,1.77v-10.79h3.67c3.66,0,5.54,2.23,5.54,5.39s-1.88,5.39-5.54,5.39h-3.67Z"/><path class="cls-36" d="M107.01,114.1l-.99,1.37c-.88-.58-1.81-.91-2.94-.91-1.57,0-2.03,.6-2.03,1.17,0,1.93,6.28,.81,6.28,4.62,0,2.08-1.8,3.53-4.34,3.53-1.77,0-3.29-.55-4.52-1.93l1.13-1.31c1.04,.97,2.08,1.46,3.42,1.46,1.56,0,2.33-.75,2.33-1.57,0-2.31-6.44-.75-6.44-4.69,0-1.73,1.73-3.04,4.2-3.04,1.58,0,3.05,.56,3.9,1.3Z"/><path class="cls-36" d="M81.94,123.7l-.18-1.58c-.17,.04-.37,.05-.59,.05-.88,0-1.32-.27-1.85-1.1-.19-.31-.41-.69-.59-.98-.21-.33-.34-.47-.55-.6,1.55-.37,2.63-1.51,2.63-3.22,0-1.91-1.37-3.31-4-3.31h-4.4v10.79h2.1v-3.96h.94c.53,0,.77,.19,1,.54,.22,.33,.96,1.56,.96,1.56,.94,1.48,1.98,1.98,3.37,1.98,.5,0,.92-.08,1.15-.16Zm-5.1-5.56h-2.32v-3.46h2.3c1.32,0,1.93,.65,1.93,1.66,0,1.27-.83,1.8-1.91,1.8"/><path class="cls-36" d="M134.83,123.7l-.18-1.58c-.16,.04-.36,.05-.58,.05-.88,0-1.32-.27-1.85-1.1-.19-.31-.41-.69-.59-.98-.21-.33-.34-.47-.55-.6,1.55-.37,2.64-1.51,2.64-3.22,0-1.91-1.37-3.31-4-3.31h-4.4v10.79h2.1v-3.96h.94c.54,0,.78,.19,1,.54,.22,.33,.96,1.56,.96,1.56,.94,1.48,1.97,1.98,3.37,1.98,.5,0,.92-.08,1.15-.16Zm-5.1-5.56h-2.32v-3.46h2.3c1.32,0,1.93,.65,1.93,1.66,0,1.27-.82,1.8-1.91,1.8"/></g><g><path class="cls-18" d="M247.35,151.18c.31-.31,.36-.58,.45-.98,1.21,.04,3.93,.09,3.93,1.83,0,1.16-.98,2.55-3.75,3.53-.94,.36-2.14,.58-3.08,.58-.54,0-.67-.13-.71-.22-.09-.18-.13-.36,.27-.89l2.9-3.84h0Zm-3.44,3.04c-.58,.71-1.3,1.61-1.3,2.59,0,.22,.04,.58,.31,.71,.27,.13,.85,.13,1.12,.13,1.7,0,4.06-.67,5.49-1.52,1.56-.85,3.17-2.37,3.17-4.29,0-1.12-.45-2.32-1.38-2.95-.89-.54-2.19-.71-3.22-.71-1.34,0-3.22,.4-4.51,.94-.63,.31-1.07,.58-1.25,1.3-.04,.22-.18,.67-.18,.94s.18,.45,.49,.45c.63,0,1.56-.4,2.23-.54,.09,0,.4-.04,.4-.22s-.67-.13-.71-.13h-.36v-.04c.89-.36,1.88-.54,2.86-.63l-3.17,3.97h0Z"/><path class="cls-18" d="M255.08,153.91h-.04c-.22,.45-.58,1.03-.58,1.56,0,.22,.09,.4,.18,.63-.31,.27-.58,.54-1.03,.54-.31,0-.58-.13-.58-.54s.27-.94,.54-1.21c.4-.4,1.03-.71,1.47-.98l.04,.04v-.04h0Zm2.41,1.03c-.4,.31-.8,.85-1.38,.71,.27-.49,.54-.98,.54-1.56,0-.4-.09-.67-.49-.76,.13-.09,.31-.18,.31-.36,0-.4-.45-.49-.71-.49-.85,.04-1.79,.36-2.5,.98-.76,.58-1.21,1.21-1.21,2.23,.04,1.21,.67,1.88,1.38,1.88,.85,0,1.47-.4,2.05-.98,.94,0,1.52-.31,2.14-1.07l-.13-.58h0Z"/><path class="cls-18" d="M261.28,153.95c.27-.27,1.61-1.47,1.92-1.47,.09,0,.27,0,.31,.71,0,.31-.36,.63-.54,.8-.45,.4-1.38,1.43-1.38,2.05,0,.18,.13,.27,.31,.27,.54,0,1.65-.94,2.05-1.25l.09,.58c-.67,.63-2.1,2.19-3.08,2.19-.49,0-.76-.45-.76-.89,0-.4,.13-.76,.27-1.12l-.04-.04c-.49,.49-1.38,1.65-2.1,1.65-.67,0-1.03-.71-1.03-1.3,0-1.3,.98-2.63,1.83-3.17,.18-.13,.36-.13,.58-.13,.18,0,.89-.13,.8,.27,0,.22-.36,.58-.49,.71-.4,.45-.49,.58-1.03,.94-.4,.31-.71,.58-.71,1.16,0,.04,0,.18,.09,.18,.22,0,.94-.4,1.61-.94l1.3-1.21h0Z"/><path class="cls-18" d="M267.49,155.56h-.04c-.49,.54-1.88,1.74-2.59,1.74-.76,0-.98-.98-.98-1.56,0-1.74,2.86-3.17,3.89-3.26,.18,0,.71,.04,.71,.36,0,.22-.27,.4-.45,.54l-1.52,.8c-.85,.45-1.79,.85-1.7,1.83,.04,.09,.09,.13,.22,.13,.36,0,1.16-.36,1.7-.85l1.43-1.56c.09-.13,.27-.36,.49-.36,.27,0,.49,.45,.49,.67,0,.18-.18,.49-.27,.67l-.98,1.88h0l2.01-1.43,.09,.54-2.81,2.1c-1.38,2.23-2.55,3.08-3.08,3.08-.18,0-.31-.13-.31-.31,0-.94,2.05-2.63,2.77-3.17l.94-1.83h0Z"/><path class="cls-18" d="M271.38,153.77c.94-.89,1.74-2.19,2.01-2.9h0c-.94,.71-1.56,1.79-2.05,2.86l.04,.04h0Zm2.72,1.79c-.71,.71-1.97,2.05-3.13,2.05-.94,0-1.16-.94-1.16-1.7,0-1.38,.63-2.86,1.43-3.97,1.25-1.38,2.46-2.68,2.86-2.68,.22,0,.31,.31,.27,.49-.09,1.25-.45,2.46-3.3,5.23-.13,.22-.18,.58-.09,.94,.13,.27,.31,.54,.67,.54,.71,0,1.74-.85,2.28-1.3l.18,.4h0Z"/><path class="cls-18" d="M278.03,153.82l.04,.04c-2.63,2.63-3.04,2.59-3.3,2.68-.22,0-.27-.22-.27-.27,0-.67,.36-1.47,3.53-2.46h0Zm-.71,1.79l.04,.04c-.18,.36-.49,1.07-.49,1.47s.18,.71,.63,.71c.63,0,2.41-1.43,2.99-2.05l-.09-.49c-.58,.36-1.34,1.03-1.88,1.03-.22,0-.45-.09-.45-.31,0-.63,1.16-1.56,1.16-1.97,0-.31-.13-.45-.36-.54,.09-.04,.45-.18,.45-.36,0-.13-.27-.63-.85-.63-1.56,.04-5,1.74-4.96,3.39,.04,.71,.8,1.56,1.16,1.56,.31,0,1.16-.67,1.43-.89l1.21-.98h0Z"/><path class="cls-18" d="M282.5,153.68c.09,.49,.13,.85,.18,1.12-.04,.76-.27,.98-1.07,1.47-.27-.36-.54-.76-1.03-.76l1.92-1.83h0Zm1.79,2.14c-.63,.49-1.16,.89-2.01,.76,.85-.54,1.74-1.34,1.74-2.41,0-.63-.22-1.07-.27-1.56-.04-.36-.13-.49-.54-.49-.45,0-.71,.45-.76,.85l-2.86,2.68c-.13,.09-.31,.27-.31,.45,0,.13,.09,.27,.22,.27s.22-.09,.27-.18c.27,.94,1.25,1.47,2.14,1.52,1.03,.04,2.5-1.16,3.3-1.97l-.13-.54-.8,.63h0Z"/><g><path class="cls-18" d="M247.26,150.97c.31-.31,.36-.58,.45-.98,1.21,.04,3.93,.09,3.93,1.83,0,1.16-.98,2.55-3.75,3.53-.94,.36-2.14,.58-3.08,.58-.54,0-.67-.13-.71-.22-.09-.18-.13-.36,.27-.89l2.9-3.84h0Zm-3.44,3.04c-.58,.71-1.3,1.61-1.3,2.59,0,.22,.04,.58,.31,.71,.27,.13,.85,.13,1.12,.13,1.7,0,4.06-.67,5.49-1.52,1.56-.85,3.17-2.37,3.17-4.29,0-1.12-.45-2.32-1.38-2.95-.89-.54-2.19-.71-3.22-.71-1.34,0-3.22,.4-4.51,.94-.63,.31-1.07,.58-1.25,1.3-.04,.22-.18,.67-.18,.94s.18,.45,.49,.45c.63,0,1.56-.4,2.23-.54,.09,0,.4-.04,.4-.22s-.67-.13-.71-.13h-.36v-.04c.89-.36,1.88-.54,2.86-.63l-3.17,3.97h0Z"/><path class="cls-18" d="M254.98,153.69h-.04c-.22,.45-.58,1.03-.58,1.56,0,.22,.09,.4,.18,.63-.31,.27-.58,.54-1.03,.54-.31,0-.58-.13-.58-.54s.27-.94,.54-1.21c.4-.4,1.03-.71,1.47-.98l.04,.04v-.04h0Zm2.41,1.03c-.4,.31-.8,.85-1.38,.71,.27-.49,.54-.98,.54-1.56,0-.4-.09-.67-.49-.76,.13-.09,.31-.18,.31-.36,0-.4-.45-.49-.71-.49-.85,.04-1.79,.36-2.5,.98-.76,.58-1.21,1.21-1.21,2.23,.04,1.21,.67,1.88,1.38,1.88,.85,0,1.47-.4,2.05-.98,.94,0,1.52-.31,2.14-1.07l-.13-.58h0Z"/><path class="cls-18" d="M261.19,153.74c.27-.27,1.61-1.47,1.92-1.47,.09,0,.27,0,.31,.71,0,.31-.36,.63-.54,.8-.45,.4-1.38,1.43-1.38,2.05,0,.18,.13,.27,.31,.27,.54,0,1.65-.94,2.05-1.25l.09,.58c-.67,.63-2.1,2.19-3.08,2.19-.49,0-.76-.45-.76-.89,0-.4,.13-.76,.27-1.12l-.04-.04c-.49,.49-1.38,1.65-2.1,1.65-.67,0-1.03-.71-1.03-1.3,0-1.3,.98-2.63,1.83-3.17,.18-.13,.36-.13,.58-.13,.18,0,.89-.13,.8,.27,0,.22-.36,.58-.49,.71-.4,.45-.49,.58-1.03,.94-.4,.31-.71,.58-.71,1.16,0,.04,0,.18,.09,.18,.22,0,.94-.4,1.61-.94l1.3-1.21h0Z"/><path class="cls-18" d="M267.4,155.35h-.04c-.49,.54-1.88,1.74-2.59,1.74-.76,0-.98-.98-.98-1.56,0-1.74,2.86-3.17,3.89-3.26,.18,0,.71,.04,.71,.36,0,.22-.27,.4-.45,.54l-1.52,.8c-.85,.45-1.79,.85-1.7,1.83,.04,.09,.09,.13,.22,.13,.36,0,1.16-.36,1.7-.85l1.43-1.56c.09-.13,.27-.36,.49-.36,.27,0,.49,.45,.49,.67,0,.18-.18,.49-.27,.67l-.98,1.88h0l2.01-1.43,.09,.54-2.81,2.1c-1.38,2.23-2.55,3.08-3.08,3.08-.18,0-.31-.13-.31-.31,0-.94,2.05-2.63,2.77-3.17l.94-1.83h0Z"/><path class="cls-18" d="M271.28,153.56c.94-.89,1.74-2.19,2.01-2.9h0c-.94,.71-1.56,1.79-2.05,2.86l.04,.04h0Zm2.72,1.79c-.71,.71-1.97,2.05-3.13,2.05-.94,0-1.16-.94-1.16-1.7,0-1.38,.63-2.86,1.43-3.97,1.25-1.38,2.46-2.68,2.86-2.68,.22,0,.31,.31,.27,.49-.09,1.25-.45,2.46-3.3,5.23-.13,.22-.18,.58-.09,.94,.13,.27,.31,.54,.67,.54,.71,0,1.74-.85,2.28-1.3l.18,.4h0Z"/><path class="cls-18" d="M277.94,153.6l.04,.04c-2.63,2.63-3.04,2.59-3.3,2.68-.22,0-.27-.22-.27-.27,0-.67,.36-1.47,3.53-2.46h0Zm-.71,1.79l.04,.04c-.18,.36-.49,1.07-.49,1.47s.18,.71,.63,.71c.63,0,2.41-1.43,2.99-2.05l-.09-.49c-.58,.36-1.34,1.03-1.88,1.03-.22,0-.45-.09-.45-.31,0-.63,1.16-1.56,1.16-1.97,0-.31-.13-.45-.36-.54,.09-.04,.45-.18,.45-.36,0-.13-.27-.63-.85-.63-1.56,.04-5,1.74-4.96,3.39,.04,.71,.8,1.56,1.16,1.56,.31,0,1.16-.67,1.43-.89l1.21-.98h0Z"/><path class="cls-18" d="M282.4,153.47c.09,.49,.13,.85,.18,1.12-.04,.76-.27,.98-1.07,1.47-.27-.36-.54-.76-1.03-.76l1.92-1.83h0Zm1.79,2.14c-.63,.49-1.16,.89-2.01,.76,.85-.54,1.74-1.34,1.74-2.41,0-.63-.22-1.07-.27-1.56-.04-.36-.13-.49-.54-.49-.45,0-.71,.45-.76,.85l-2.86,2.68c-.13,.09-.31,.27-.31,.45,0,.13,.09,.27,.22,.27s.22-.09,.27-.18c.27,.94,1.25,1.47,2.14,1.52,1.03,.04,2.5-1.16,3.3-1.97l-.13-.54-.8,.63h0Z"/></g></g><text class="cls-27" transform="translate(294.87 200.94) rotate(-.42)"><tspan x="0" y="0">SPHIN</tspan><tspan class="cls-112" x="29.32" y="0">X</tspan></text><g><path class="cls-36" d="M341.39,207.96c0,.52-.38,.97-1.05,.98h-1.52l-.02-3.32h1.45c.63-.02,.95,.41,.95,.81,0,.29-.17,.58-.45,.68,.43,.1,.63,.46,.64,.85Zm-1.93-1.76v.72h.66c.29,0,.42-.2,.42-.38,0-.18-.14-.35-.4-.35h-.68Zm1.24,1.72c0-.22-.16-.44-.5-.44h-.73v.88h.74c.34,0,.49-.23,.49-.45Z"/><path class="cls-36" d="M343.61,208.2h-1.16l-.25,.73h-.7l1.24-3.33h.54l1.28,3.31h-.7l-.25-.71Zm-.98-.59h.78l-.4-1.11-.39,1.11Z"/><path class="cls-36" d="M344.75,208.43l1.63-2.25h-1.58v-.6l2.49-.02v.5l-1.6,2.23h1.67v.6l-2.6,.02v-.48Z"/><path class="cls-36" d="M349.37,207.72v1.15h-.66v-1.15l-1.16-2.17h.77l.71,1.45,.71-1.46h.77l-1.14,2.18Z"/><path class="cls-36" d="M350.92,205.53h.67l.02,2.68h1.69v.63l-2.35,.02-.02-3.33Z"/><path class="cls-36" d="M354.38,205.51l.02,3.33h-.67l-.02-3.32h.67Z"/><path class="cls-36" d="M356.91,208.1h-1.16l-.25,.73h-.7l1.24-3.33h.54l1.28,3.31h-.7l-.25-.71Zm-.98-.59h.78l-.4-1.11-.39,1.11Z"/><path class="cls-36" d="M338.67,212.69c0-1.01,.77-1.73,1.75-1.74,.56,0,1.05,.23,1.35,.53l-.43,.48c-.23-.23-.56-.37-.91-.37-.62,0-1.07,.47-1.07,1.08,0,.6,.44,1.07,1.07,1.07,.36,0,.69-.16,.89-.36v-.45h-.92v-.57h1.52v1.36c-.39,.43-.92,.67-1.5,.67-1.01,0-1.74-.71-1.75-1.7Z"/><path class="cls-36" d="M343.56,213.1h-.4v1.21h-.66l-.02-3.32h1.27c.78-.02,1.14,.48,1.15,1.04,0,.4-.2,.81-.67,.98l.82,1.29h-.78l-.71-1.2Zm-.4-.6h.54c.37,0,.52-.23,.51-.46,0-.24-.16-.44-.46-.44h-.6v.9Z"/><path class="cls-36" d="M345.31,212.65c0-.97,.75-1.74,1.72-1.75s1.74,.76,1.75,1.71c0,.95-.74,1.72-1.72,1.73-.99,0-1.73-.74-1.74-1.69Zm2.77-.03c0-.62-.48-1.06-1.05-1.06-.58,0-1.04,.46-1.03,1.07,0,.61,.46,1.05,1.05,1.05s1.04-.46,1.03-1.07Z"/><path class="cls-36" d="M349.01,213.7l.38-.47c.22,.3,.55,.46,.89,.46,.28,0,.48-.15,.47-.36,0-.17-.13-.26-.3-.34-.21-.1-.49-.18-.72-.31-.29-.16-.53-.41-.53-.82,0-.55,.45-.98,1.13-.98,.39,0,.78,.13,1.1,.44l-.35,.49c-.2-.21-.5-.31-.73-.31-.27,0-.43,.13-.42,.32,0,.17,.14,.26,.27,.33,.18,.08,.51,.2,.74,.31,.33,.16,.57,.4,.57,.82,0,.59-.48,1.02-1.21,1.02-.51,0-.98-.2-1.26-.61Z"/><path class="cls-36" d="M351.8,213.77l1.63-2.25h-1.58v-.6l2.49-.02v.5l-1.6,2.23h1.67v.6l-2.6,.02v-.48Z"/><path class="cls-36" d="M354.92,210.9l2.26-.02v.62h-1.58v.73h1.47v.61h-1.46v.76h1.59v.61l-2.25,.02-.03-3.33Z"/><path class="cls-36" d="M358.87,212.88l-.41,.49v.83h-.66l-.02-3.32h.67v1.57l1.26-1.58h.81l-1.21,1.52,1.32,1.8h-.82l-.93-1.31Z"/></g><text class="cls-14" transform="translate(364.75 214.12) rotate(-.42)"><tspan x="0" y="0">TUI</tspan></text><g><path class="cls-36" d="M443.66,212.84s-.02,.5-.03,1.08c-.02,.76-.02,1.05,.01,1.07,.02,.02,.09,.03,.15,.03,.09,0,.11-.02,.13-.15,.14-.84,.4-1.3,.88-1.56,.17-.09,.62-.22,.78-.22,.04,0,.05,.49,.04,2.55-.01,2.49-.02,2.56-.09,2.69-.12,.2-.3,.28-.63,.31l-.29,.02v.34h2.99v-.34l-.29-.02c-.34-.02-.52-.11-.63-.31-.07-.13-.08-.2-.09-2.69,0-2.06,0-2.55,.04-2.55,.03,0,.17,.03,.31,.06,.75,.16,1.17,.67,1.34,1.61,.04,.24,.06,.26,.14,.26,.22,0,.22,.02,.19-.88,0-.46-.03-.95-.04-1.08l-.02-.24h-2.44c-1.34,0-2.44,.01-2.44,.03h0Zm0,0"/><path class="cls-36" d="M443.61,215.67s-.03,.3-.03,.63v.6h1.26v-1.26h-.6c-.33,0-.62,.01-.63,.03h0Zm0,0"/><path class="cls-36" d="M447.4,216.28v.63h1.22v-1.26h-1.22v.63Zm0,0"/><path class="cls-36" d="M451.17,215.67s-.03,.3-.03,.63v.6h1.26v-1.26h-.6c-.33,0-.62,.01-.63,.03h0Zm0,0"/><path class="cls-36" d="M454.93,216.28v.63h1.26v-1.26h-1.26v.63Zm0,0"/></g><text class="cls-13" transform="translate(459.76 216.84) rotate(-.42) scale(.7 1)"><tspan class="cls-116" x="0" y="0">K</tspan><tspan x="1.44" y="0">OLPO</tspan><tspan class="cls-57" x="7.96" y="0">R</tspan><tspan x="9.42" y="0">TER</tspan></text><text class="cls-33" transform="translate(414.09 216.23) rotate(-.42)"><tspan x="0" y="0">ZIA</tspan><tspan class="cls-65" x="5.67" y="0">J</tspan><tspan class="cls-84" x="7.6" y="0">A</tspan></text><text class="cls-33" transform="translate(428.71 216.86) rotate(-.42)"><tspan x="0" y="0">P</tspan><tspan class="cls-44" x="2.18" y="0">L</tspan><tspan class="cls-85" x="4.25" y="0">U</tspan><tspan x="6.72" y="0">S</tspan></text><text class="cls-32" transform="translate(423.52 265.14) rotate(-.42)"><tspan x="0" y="0">ZIE</tspan><tspan class="cls-60" x="6.45" y="0">L</tspan><tspan x="8.82" y="0">ONE </tspan><tspan class="cls-119" x="19" y="0">Z</tspan><tspan x="21.56" y="0">OO</tspan></text><text class="cls-5" transform="translate(417.7 241.36) rotate(-.42)"><tspan x="0" y="0">VISION EXPRESS</tspan></text><g><path class="cls-36" d="M395.48,266.92l-.02-2.43h.67v1.7h.78v-1.59h.66v1.58h.82v-1.71h.66l.02,2.43-3.59,.03Z"/><path class="cls-36" d="M397.61,262.65l.53,.44h.89v.71l-3.58,.03v-.72h1.69l-1.7-1.36v-.87l1.63,1.3,1.94-1.42v.88l-1.41,1Z"/><path class="cls-36" d="M397.24,260.85c-1.04,0-1.87-.81-1.88-1.85,0-1.05,.82-1.87,1.84-1.88,1.02,0,1.85,.8,1.86,1.86,0,1.07-.8,1.87-1.83,1.88Zm-.03-2.99c-.67,0-1.15,.51-1.14,1.13,0,.62,.5,1.12,1.16,1.11,.65,0,1.14-.5,1.13-1.13,0-.63-.49-1.12-1.15-1.11Z"/><path class="cls-36" d="M402.5,269.07c.61,0,1.17,.37,1.17,1.31v.55h1.24v.71l-3.58,.03v-1.32c-.02-.9,.57-1.27,1.16-1.27Zm0,.73c-.27,0-.51,.19-.51,.53v.62h1.04v-.58c0-.39-.27-.56-.53-.56Z"/><path class="cls-36" d="M403.59,267.41v.43h1.31v.71l-3.58,.03v-1.37c-.02-.84,.52-1.23,1.12-1.24,.43,0,.87,.21,1.06,.72l1.39-.88v.84l-1.29,.77Zm-.64,.43v-.59c0-.4-.25-.56-.5-.55-.26,0-.48,.17-.48,.5v.65h.98Z"/><path class="cls-36" d="M404.09,263.35v1.25l.79,.27v.75l-3.59-1.34v-.59l3.57-1.38v.76l-.77,.27Zm-.63,1.05v-.84l-1.2,.43,1.2,.42Z"/><path class="cls-36" d="M401.27,261.91v-.72l2.89-.02v-1.82h.68l.02,2.54-3.59,.03Z"/><path class="cls-36" d="M401.22,255.84l3.59-.03v.49l-2.18,1.87,2.2-.02v.71l-3.58,.03v-.46l2.2-1.91-2.22,.02v-.71Z"/><path class="cls-36" d="M401.21,254.32l3.59-.03v.72l-3.58,.03v-.72Z"/><path class="cls-36" d="M404,251.59v1.25l.79,.27v.75l-3.59-1.34v-.59l3.57-1.38v.76l-.77,.27Zm-.63,1.05v-.84l-1.2,.43,1.2,.42Z"/></g><path class="cls-18" d="M381.47,271.04c.51,0,1.06-.17,1.06-.77,0-.6-.56-.77-1.06-.77s-1.05,.17-1.05,.77c0,.6,.55,.77,1.05,.77h0Zm0,.89c-1.05,0-1.82-.56-1.82-1.67,0-1.1,.78-1.67,1.82-1.67s1.83,.56,1.83,1.67-.78,1.67-1.83,1.67h0Zm1.71-3.93h-3.41v-.82h.58c-.42-.21-.76-.57-.68-1.08h.93v.29c0,.5,.3,.72,.77,.72h1.81v.88h0Zm-.42-4.26c.38,.24,.55,.62,.55,1.06,0,.63-.46,1.04-1.09,1.04-.7,0-.99-.55-1.09-1.16-.01-.09-.03-.21-.05-.36-.05-.37-.16-.56-.34-.56-.34,0-.38,.23-.39,.54,0,.29,.16,.47,.43,.62l-.41,.69c-.5-.21-.69-.77-.73-1.28-.05-.65,.3-1.51,1.1-1.51h2.44v.91h-.42Zm-1.26,.02c.07,.14,.13,.31,.17,.49,.04,.2,.08,.47,.24,.62,.29,.26,.7,.02,.7-.34s-.31-.76-.78-.76h-.32Zm1.68-1.61h-3.41v-.86h.4c-.33-.24-.5-.59-.5-.99,0-.76,.45-1.09,1.18-1.09h2.33v.88h-2.06c-.37,0-.68,.08-.68,.51,0,.43,.3,.67,.72,.67h2.03v.88h0Zm-1.76-4.41c.47,0,1-.15,1-.72,0-.58-.53-.71-1.01-.71s-.98,.17-.98,.72c0,.55,.54,.71,.99,.71h0Zm2.09,.79v-.96c.26-.06,.34-.28,.34-.53,0-.6-.29-.74-.85-.74h-.3c.35,.2,.48,.52,.48,.92,0,.98-.86,1.41-1.73,1.41s-1.81-.38-1.81-1.39c0-.42,.16-.75,.53-.95h-.41v-.83h3.19c.36,0,.63,.03,.82,.1,.65,.22,.8,.93,.8,1.54,0,.7-.27,1.4-1.06,1.44h0Zm-1.45-5.99l.42-.72c.5,.24,.81,.95,.81,1.48,0,.48-.17,.85-.5,1.13-.33,.28-.78,.47-1.35,.47-.97,0-1.81-.52-1.81-1.58,0-.56,.2-.95,.53-1.21,.39-.3,.94-.39,1.54-.32v2.17c.44-.02,.81-.2,.81-.7,0-.29-.19-.6-.46-.72h0Zm-1.04,1.41v-1.34c-.38,0-.62,.23-.62,.68,0,.43,.23,.67,.62,.66h0Z"/><text class="cls-23" transform="translate(359.33 268.74) rotate(-90.42)"><tspan x="0" y="0">PL</tspan><tspan class="cls-68" x="6.3" y="0">A</tspan><tspan class="cls-111" x="9.4" y="0">Y</tspan></text><text class="cls-9" transform="translate(344.99 274.35) rotate(-90.42)"><tspan x="0" y="0">ESMOKING</tspan><tspan class="cls-66" x="13.59" y="0" xml:space="preserve"> W</tspan><tspan x="16.65" y="0">ORLD</tspan></text><text class="cls-25" transform="translate(331.32 269.82) rotate(-90.42)"><tspan x="0" y="0">I</tspan><tspan class="cls-72" x="1.51" y="0">T</tspan><tspan class="cls-107" x="4.06" y="0">AK</tspan><tspan class="cls-75" x="10.76" y="0">A</tspan></text><g><path class="cls-36" d="M305.01,269.25v.28h.85v.46l-2.32,.02v-.89c-.01-.54,.34-.8,.72-.8,.28,0,.56,.14,.69,.47l.9-.57v.54l-.84,.5Zm-.42,.28v-.38c0-.26-.16-.36-.32-.36-.17,0-.31,.11-.31,.32v.42h.63Z"/><path class="cls-36" d="M305.34,266.62v.81l.51,.18v.49l-2.33-.87v-.38l2.31-.89v.49l-.5,.18Zm-.41,.68v-.55l-.77,.28,.77,.27Z"/><path class="cls-36" d="M303.51,265.22l2.32-.02v.47l-2.32,.02v-.47Z"/><path class="cls-36" d="M303.49,262.72l2.32-.02v.32l-1.41,1.21h1.42v.45l-2.32,.02v-.3l1.43-1.24h-1.44v-.45Z"/><path class="cls-36" d="M305.12,260.39c.36,0,.68,.27,.68,.73v1.06l-2.31,.02v-1.01c-.01-.44,.28-.66,.57-.66,.2,0,.4,.12,.47,.31,.07-.3,.32-.44,.59-.44Zm-1.23,1.35h.51v-.46c0-.2-.14-.29-.27-.29-.13,0-.24,.1-.24,.28v.47Zm1.2-.86c-.15,0-.31,.11-.31,.35v.51h.62v-.51c0-.24-.16-.34-.31-.34Z"/><path class="cls-36" d="M304.64,260.15c-.68,0-1.21-.52-1.22-1.2,0-.68,.53-1.21,1.2-1.22,.66,0,1.2,.52,1.21,1.2,0,.69-.52,1.21-1.18,1.22Zm-.02-1.94c-.43,0-.74,.33-.74,.73,0,.4,.32,.72,.75,.72,.42,0,.74-.32,.73-.73,0-.41-.32-.73-.74-.72Z"/><path class="cls-36" d="M303.45,257.65v-.51l1.55-.48-1.57-.52v-.3l1.56-.55-1.57-.45v-.51l2.32,.75v.39l-1.51,.5,1.52,.48v.39l-2.31,.79Z"/><path class="cls-36" d="M307.75,267.18h-.45v-1.79h.44v.66h1.88v.46h-1.87v.68Z"/><path class="cls-36" d="M308.45,265.29c-.68,0-1.21-.52-1.22-1.2,0-.68,.53-1.21,1.19-1.22,.66,0,1.2,.52,1.21,1.2,0,.69-.52,1.21-1.18,1.22Zm-.02-1.94c-.43,0-.74,.33-.74,.73,0,.4,.32,.72,.75,.72,.42,0,.74-.32,.73-.73,0-.41-.32-.73-.74-.72Z"/><path class="cls-36" d="M308.74,262.51h-1.47v-.46h1.44c.32-.01,.47-.19,.47-.45,0-.26-.16-.43-.47-.43h-1.44v-.46h1.47c.61-.02,.89,.4,.9,.89,0,.49-.27,.91-.88,.92Z"/><path class="cls-36" d="M308.72,259.46v.28h.85v.46l-2.32,.02v-.89c-.01-.54,.34-.8,.72-.8,.28,0,.56,.14,.69,.47l.9-.57v.54l-.84,.5Zm-.42,.28v-.38c0-.26-.16-.36-.32-.36-.17,0-.31,.11-.31,.32v.42h.63Z"/></g><text class="cls-30" transform="translate(187.56 265.78) rotate(-.42)"><tspan x="0" y="0">MOHI</tspan><tspan class="cls-67" x="22.29" y="0">T</tspan><tspan class="cls-91" x="26.74" y="0">O</tspan></text><text class="cls-2" transform="translate(139 242.53) rotate(-.42)"><tspan x="0" y="0">OPTI</tspan><tspan class="cls-121" x="10.23" y="0">K</tspan></text><text class="cls-12" transform="translate(139.11 266.55) rotate(-.42)"><tspan x="0" y="0">MARLEN</tspan></text><text class="cls-12" transform="translate(60.64 214.19) rotate(-.42)"><tspan x="0" y="0">BILIBIKE</tspan></text><text class="cls-8" transform="translate(139.74 295.33) rotate(-.42)"><tspan x="0" y="0">L</tspan><tspan class="cls-100" x="3.42" y="0">AV</tspan><tspan x="10.59" y="0">ARD</tspan></text><text class="cls-38" transform="translate(139.74 316.17) rotate(-.42)"><tspan x="0" y="0">LANCE</tspan><tspan class="cls-62" x="16.77" y="0">R</tspan><tspan class="cls-43" x="19.93" y="0">T</tspan><tspan x="22.66" y="0">O</tspan></text><g><path class="cls-36" d="M140.83,338.32c0-.96,.72-1.63,1.65-1.64,.53,0,1,.21,1.27,.5l-.41,.45c-.22-.22-.53-.35-.86-.35-.59,0-1.01,.44-1.01,1.02,0,.57,.42,1.01,1.02,1.01,.34,0,.65-.15,.84-.34v-.43h-.87v-.54h1.44v1.28c-.37,.4-.87,.63-1.42,.64-.95,0-1.64-.67-1.65-1.61Z"/><path class="cls-36" d="M145.09,336.71l.02,3.15h-.63l-.02-3.14h.63Z"/><path class="cls-36" d="M147.49,339.16h-1.1l-.24,.69h-.66l1.18-3.15h.52l1.21,3.13h-.66l-.24-.68Zm-.92-.55h.74l-.37-1.05-.37,1.05Z"/><path class="cls-36" d="M148.47,338.27c0-.97,.73-1.64,1.61-1.65,.58,0,1.08,.26,1.36,.64l-.42,.42c-.22-.27-.53-.45-.9-.45-.56,0-1,.44-1,1.04,0,.58,.44,1,1.01,1,.37,0,.69-.19,.91-.47l.44,.39c-.27,.38-.78,.67-1.38,.68-.9,0-1.62-.64-1.63-1.6Z"/><path class="cls-36" d="M151.68,338.24c0-.91,.71-1.64,1.63-1.65s1.64,.72,1.65,1.62c0,.9-.7,1.63-1.63,1.63-.94,0-1.64-.7-1.65-1.6Zm2.62-.03c0-.59-.45-1-.99-1-.54,0-.98,.44-.98,1.02,0,.58,.44,1,.99,.99s.98-.43,.98-1.01Z"/><path class="cls-36" d="M155.46,336.63h.42l1.25,1.77,1.21-1.79h.43l.02,3.14h-.63v-1.78l-.92,1.32h-.22l-.92-1.31v1.78h-.61l-.02-3.14Z"/><path class="cls-36" d="M159.29,338.19c0-.91,.71-1.64,1.63-1.65s1.64,.72,1.65,1.62c0,.9-.7,1.63-1.63,1.63-.94,0-1.64-.7-1.65-1.6Zm2.62-.03c0-.59-.45-1-.99-1-.54,0-.98,.44-.98,1.02,0,.58,.44,1,.99,.99,.55,0,.98-.43,.98-1.01Z"/><path class="cls-36" d="M144.03,343.42c0-.97,.73-1.64,1.61-1.65,.58,0,1.08,.26,1.36,.64l-.42,.42c-.22-.27-.53-.45-.9-.45-.56,0-1,.44-1,1.04,0,.58,.44,1,1.01,1,.37,0,.69-.19,.91-.47l.44,.39c-.27,.38-.78,.67-1.38,.68-.9,0-1.62-.64-1.63-1.6Z"/><path class="cls-36" d="M147.24,343.39c0-.92,.71-1.64,1.63-1.65s1.64,.72,1.65,1.62c0,.9-.7,1.63-1.63,1.63-.94,0-1.64-.7-1.65-1.6Zm2.62-.03c0-.59-.45-1.01-.99-1-.54,0-.98,.44-.98,1.02,0,.58,.44,1,.99,.99,.55,0,.98-.43,.98-1.01Z"/><path class="cls-36" d="M153.71,341.76l.02,3.15h-.43l-1.64-1.91v1.93h-.61l-.02-3.14h.4l1.67,1.93v-1.95h.61Z"/><path class="cls-36" d="M154.13,342.37v-.61l2.43-.02v.61h-.89l.02,2.54h-.64l-.02-2.53h-.9Z"/><path class="cls-36" d="M157.6,341.73l.02,3.15h-.63l-.02-3.14h.63Z"/></g><text class="cls-10" transform="translate(140.39 368.85) rotate(-.42)"><tspan x="0" y="0">DUK</tspan><tspan class="cls-95" x="15.58" y="0">A</tspan></text><text class="cls-6" transform="translate(139.74 396.06) rotate(-.42)"><tspan x="0" y="0">A</tspan><tspan class="cls-88" x="4.23" y="0">P</tspan><tspan x="7.81" y="0">A</tspan><tspan class="cls-92" x="12.04" y="0">R</tspan><tspan class="cls-55" x="16.07" y="0">T</tspan></text><text class="cls-34" transform="translate(213.14 402.1) rotate(-.42)"><tspan class="cls-104" x="0" y="0">R</tspan><tspan class="cls-71" x="3.46" y="0">YL</tspan><tspan class="cls-102" x="10.47" y="0">K</tspan><tspan x="13.99" y="0">O</tspan></text><text class="cls-26" transform="translate(237.11 410.13) rotate(-.42)"><tspan class="cls-87" x="0" y="0">C</tspan><tspan x="2.65" y="0">ALZEDONI</tspan><tspan class="cls-64" x="21.54" y="0">A</tspan></text><g><path class="cls-36" d="M215.8,323.67c-.51,.23-.9-.01-1.52,1.26-1.94,3.98-3.45,7.22-5.24,11.87,.05-3.82,.73-6.86,1.14-10.58,.07-.69,.18-1.63,.16-2.34-.01-.55-.56-.62-1.66-.08-.61,.3-1.35,.28-1.63,1-1.19,3.09-3.95,11.7-5.23,16.56-.31,1.17,.85,1.36,1.2,.17,.84-2.9,2.77-9.31,3.91-12.62-.12,3.02-.94,7.81-.55,10.31,.12,.79,.86,1.13,1.24,1.8,.27,.48,.7,.52,.94-.13,1.12-3.06,3.3-8.45,5.41-12.77-.41,1.9-2,9.96-2.44,13.17-.09,.65,.7,.66,1.4,1.63,.16,.22,.76,.45,.87-.1,.37-1.93,2.82-14.44,3.78-18.42,.26-1.07,.18-1.61-1.79-.73Z"/><path class="cls-36" d="M199.81,332.77c.84-1.26,1.09-1,1.29-1.38,.25-.48,.09-.93-.81-.82,0,0-.34,.02-.97,.1,1-2.57,1.87-4.75,2.5-6.41,.21-.56,.24-.97-.11-1.06-.37-.09-1.45,.49-2.11,.61-.21,.04-.41,.26-.48,.42-1.06,2.44-2.01,4.76-2.83,6.88-1.05,.18-2.29,.42-3.67,.73,.99-2.53,1.98-5.03,2.96-7.44,.48-1.18-.78-1.29-1.27-.1-.63,1.56-1.83,4.47-3.14,7.87-.97,.24-1.99,.51-3.07,.82-.78,.23-.81,.43-.48,.9,.19,.26,.57,.23,.75,.42,.46,.48,.73,1.06,1.55,1.14-.73,1.94-1.45,3.95-2.11,5.87-.41,1.21,.76,1.46,1.22,.18,.73-2.06,1.5-4.16,2.29-6.24,.66-.15,2.25-.5,3.72-.81-1.17,3.2-1.93,5.62-2.22,6.81-.05,.23,.04,.35,.08,.45,.39,.57,.77,.6,1.27,1.3,.14,.19,.6,.3,.75-.18,1.08-3.26,2.19-6.33,3.23-9.07,.43-.09,1.2-.28,1.68-.99Z"/><path class="cls-36" d="M200.61,337.75c-.08,.07-.15,.14-.24,.22-.09-.28-.18-.57-.27-.83,.25-.31,.5-.62,.71-.94,.87-1.35-.85-2.13-1.59-1.25-.39,.47-.3,.93-.19,1.32,.03,.12,.08,.3,.15,.51-.21,.22-.46,.49-.8,.88-.84,.97-.61,2.24,.29,2.52,.54,.17,1.06-.08,1.5-.47,.02,.06,.04,.11,.06,.16,.23,.59,.96,.41,.68-.3-.05-.12-.11-.29-.18-.48,.14-.18,.27-.36,.39-.53,.53-.79,.02-1.26-.52-.79Zm-.57-1.86c-.08,.09-.16,.17-.23,.25-.02-.07-.04-.13-.05-.18-.25-.94,.83-.69,.29-.07Zm-.59,2.87c-.33,.2-.59-.02-.15-.62,.07-.1,.15-.2,.22-.3,.07,.23,.15,.46,.23,.69-.1,.08-.21,.16-.31,.23Z"/></g><path class="cls-36" d="M305.11,364.35c.16,.36,.39,.55,.66,1.1,.38,.76,.84,1.68,1.28,2.38h-2.01c-.29-.52-.56-1.11-.81-1.6-.33-.66-.6-.95-.77-1.33-.56,.09-.99,.08-.99,.08v2.85h-1.53v-8.85h2.12c2.19,0,3.49,1.08,3.49,2.9,0,.6-.15,1.03-.41,1.48-.27,.43-.64,.75-1.04,.98h0Zm-2.17-3.82h-.47v2.8h.52c.85,0,1.91-.16,1.91-1.42,0-.92-.69-1.39-1.96-1.39h0Zm-5.24,5.15h-3.35l-.92,2.15h-1.75l3.7-8.86h1.27l3.82,8.86h-1.86l-.91-2.15h0Zm-1.67-4.23s-1.09,2.71-1.09,2.71h2.18l-1.09-2.71Zm-8.51,4.84h3.66v1.54h-5.18v-8.85h5.18v1.52h-3.66v2.15h3.68v1.52h-3.68v2.13Zm-5.42,1.54h-2.81v-8.85h1.71c.96,0,1.72,.07,2.27,.4,.81,.49,1.26,1.27,1.26,2.21,0,.64-.27,1.1-.74,1.52,.88,.44,1.35,.92,1.35,1.97,0,1.51-1.33,2.75-3.03,2.75Zm-.58-7.35h-.7v2.16h.75c.61,0,1.34-.11,1.34-1.03,0-.48-.12-1.13-1.4-1.13Zm.31,3.66h-1.01v2.17h.97c1.69,0,1.69-.67,1.69-.97s0-1.19-1.64-1.19Zm-5.47,3.65l-.62-.69c-.59,.64-1.43,1.04-2.36,1.04h0c-1.62,0-2.94-1.34-2.94-3,0-1.04,.55-1.95,1.37-2.44h0c-.45-.47-.68-.99-.68-1.6,0-.64,.25-1.25,.69-1.71,.44-.45,1.04-.71,1.67-.71,.63,0,1.23,.26,1.67,.71h0c.19,.19,.35,.42,.46,.67l-1.33,.68c-.04-.1-.11-.2-.18-.28-.33-.34-.88-.35-1.22-.02l-.02,.02c-.17,.17-.26,.4-.26,.63,0,.23,.08,.46,.26,.63h.01l2.33,2.52c.24-1.05,1.14-1.82,2.24-1.82v1.52s-.04,0-.05,0c-.34,.03-.61,.39-.76,.9-.08,.28-.12,.57-.12,.86l1.86,2.08h-2.01Zm-3.49-3.91c-.54,.15-.94,.65-.94,1.25,0,.82,.65,1.48,1.45,1.48h0c.53,0,1.02-.24,1.36-.64l-1.86-2.09Zm-7.3-4.89h1.52v7.32h2.73v1.53h-4.25v-8.85Zm-4.88,0h1.52v7.32h2.73v1.53h-4.25v-8.85Zm-4.63,8.96c-2.11,0-3.31-1.48-3.31-3.69v-5.27h1.52v5.2c0,1.42,.57,2.2,1.79,2.2,1.56,0,1.89-1.2,1.89-2.2v-5.2h1.52v5.27c0,2.21-1.3,3.69-3.41,3.69Zm-7.42-2.57h-.78v2.46h-1.52v-8.85h1.98c2.28,0,3.57,1.5,3.57,3.21s-1.22,3.18-3.26,3.18Zm-.33-4.85h-.45v3.34h.63c1.13,0,1.82-.73,1.82-1.67s-.7-1.67-2-1.67Z"/><g><polygon class="cls-36" points="334.5 294.68 338.05 296.13 342.17 303.13 342.17 297.41 345.1 298.16 345.1 309.06 342.42 309.06 337.59 301 337.59 309.06 334.5 309.06 334.5 294.68 334.5 294.68"/><polygon class="cls-36" points="346.37 298.46 346.37 309.06 353.19 309.06 353.19 306.58 349.5 306.58 349.5 304.91 352.48 304.94 352.48 303.03 349.5 302.78 349.5 301.43 352.56 301.75 352.56 299.47 346.37 298.46 346.37 298.46"/><polygon class="cls-36" points="353.26 299.58 355.35 309.06 357.98 309.06 359.76 304.06 361.03 309.06 363.61 309.06 365.9 300.9 363.4 300.75 362.24 304.91 361.11 300.5 358.65 300.29 357.06 304.94 356.08 299.99 353.26 299.58 353.26 299.58"/><polygon class="cls-36" points="368.64 309.06 370.35 309.06 370.35 301.04 375.61 293.33 371.8 293.33 368.64 298.57 365.48 293.33 361.68 293.33 366.94 301.04 366.94 309.06 368.64 309.06 368.64 309.06"/><path class="cls-36" d="M375.12,300.51l-2.56,.17-1.24,1.16v5.9l1.27,1.33h2.47l1.21-1.35v-6.09l-1.16-1.12h0Zm-.64,6.96h-1.29v-4.94h1.29v4.94h0Z"/><path class="cls-36" d="M382.04,300.99l-.94-.96-4.02,.38v8.64h1.98v-3.48h1.08v3.48h1.9v-3.93l-.62-.69,.62-.73v-2.72h0Zm-1.9,2.75h-1.08v-1.91h1.08v1.91h0Z"/><polygon class="cls-36" points="383.04 299.72 383.04 309.06 385.42 309.06 385.42 305.21 387.33 309.06 389.82 309.06 387.13 303.6 389.49 298.69 387.01 299.13 385.42 302.31 385.42 299.4 383.04 299.72 383.04 299.72"/><polygon class="cls-36" points="389.97 298.62 394.94 297.46 394.94 299.66 392.67 300.22 392.67 301.81 394.92 301.53 394.92 304.09 392.67 304.26 392.67 306.5 395.06 306.5 395.06 309.06 389.97 309.06 389.97 298.62 389.97 298.62"/><path class="cls-18" d="M398.54,301.35v-2.58l1.6-.44v2.82l-1.6,.2h0Zm-2.56,7.71h2.56v-5.06l1.6-.09v5.15h2.72v-5.51l-.91-1.24,.83-1.33v-4.33l-1.15-1.33-5.65,1.86v11.88h0Z"/></g><text class="cls-4" transform="translate(440.54 402.1) rotate(-.42)"><tspan class="cls-58" x="0" y="0">W</tspan><tspan class="cls-53" x="6.02" y="0">.</tspan><tspan x="7.49" y="0">KRU</tspan><tspan class="cls-41" x="20.23" y="0">K</tspan></text><text class="cls-35" transform="translate(428.7 369.7) rotate(-.42)"><tspan x="0" y="0">QUI</tspan><tspan class="cls-78" x="12.42" y="0">O</tspan><tspan class="cls-51" x="17.95" y="0">S</tspan><tspan x="21.93" y="0">QUE</tspan></text><text class="cls-28" transform="translate(404.22 410.11) rotate(-90.42)"><tspan x="0" y="0">FIELMANN</tspan></text><text class="cls-30" transform="translate(420.45 340.91) rotate(-.42)"><tspan x="0" y="0">MONNARI</tspan></text><text class="cls-7" transform="translate(416.19 290.57) rotate(-.42)"><tspan x="0" y="0">SUN </tspan><tspan class="cls-63" x="17.16" y="0">L</tspan><tspan x="21.41" y="0">O</tspan><tspan class="cls-122" x="27.55" y="0">O</tspan><tspan class="cls-103" x="33.39" y="0">X</tspan></text><g><path class="cls-36" d="M426.26,309.53l.53-.66c.31,.42,.77,.65,1.25,.64,.39,0,.67-.21,.67-.51,0-.23-.19-.37-.43-.48-.3-.14-.69-.25-1.02-.43-.41-.23-.75-.58-.75-1.16,0-.77,.64-1.37,1.59-1.38,.54,0,1.1,.18,1.54,.62l-.5,.69c-.28-.29-.71-.43-1.03-.43-.37,0-.6,.19-.6,.45,0,.23,.19,.37,.38,.46,.25,.11,.72,.29,1.04,.44,.46,.22,.8,.56,.81,1.16,0,.83-.68,1.43-1.71,1.44-.72,0-1.38-.29-1.78-.86Z"/><path class="cls-36" d="M429.85,305.62h1.03l.97,3.13,1.04-3.16h.59l1.11,3.14,.91-3.15h1.03l-1.51,4.68h-.79l-1.02-3.05-.97,3.07h-.79l-1.59-4.66Z"/><path class="cls-36" d="M438.01,305.56l.04,4.68h-.94l-.04-4.67h.94Z"/><path class="cls-36" d="M441.58,309.2h-1.63l-.35,1.03h-.98l1.75-4.69h.77l1.79,4.66h-.99l-.36-1Zm-1.37-.83h1.1l-.56-1.56-.55,1.56Z"/><path class="cls-36" d="M442.6,306.43v-.91l3.62-.03v.91h-1.33l.03,3.78h-.95l-.03-3.77h-1.34Z"/><path class="cls-36" d="M428,315.57c-.01-1.42,1.08-2.43,2.46-2.44,.79,0,1.48,.32,1.89,.75l-.61,.68c-.33-.32-.78-.52-1.28-.52-.87,0-1.51,.66-1.5,1.52,0,.84,.62,1.51,1.51,1.5,.5,0,.97-.22,1.25-.51v-.64h-1.3v-.81l2.14-.02v1.92c-.55,.6-1.29,.94-2.11,.95-1.42,.01-2.45-1-2.46-2.39Z"/><path class="cls-36" d="M433,317.07l.53-.66c.31,.42,.77,.65,1.25,.64,.39,0,.67-.21,.67-.51,0-.23-.19-.37-.43-.48-.3-.14-.69-.25-1.02-.43-.41-.23-.75-.58-.75-1.16,0-.77,.63-1.37,1.58-1.38,.54,0,1.1,.18,1.54,.62l-.5,.69c-.28-.29-.71-.43-1.03-.43-.37,0-.6,.19-.6,.45,0,.23,.19,.37,.38,.46,.25,.11,.72,.29,1.04,.44,.46,.22,.8,.56,.81,1.16,0,.83-.68,1.43-1.71,1.44-.72,0-1.38-.29-1.78-.86Z"/><path class="cls-36" d="M437.2,313.16h.62l1.86,2.64,1.8-2.67h.63l.03,4.68h-.94l-.02-2.65-1.35,1.97h-.32l-1.38-1.94,.02,2.65h-.92l-.03-4.67Z"/></g><text class="cls-20" transform="translate(517.86 399.99) scale(.85 1)"><tspan x="0" y="0">BE</tspan><tspan class="cls-74" x="15.87" y="0">R</tspan><tspan x="23.9" y="0">SHK</tspan><tspan class="cls-89" x="48.65" y="0">A</tspan></text><text class="cls-30" transform="translate(505.83 206.28) rotate(-.42)"><tspan x="0" y="0">SI</tspan><tspan class="cls-52" x="7.14" y="0">L</tspan><tspan class="cls-56" x="11.7" y="0">C</tspan><tspan class="cls-98" x="17.51" y="0">ARE</tspan></text><text class="cls-22" transform="translate(513.01 291.96) rotate(-.42)"><tspan x="0" y="0">SUPER PHARM</tspan><tspan x="15.92" y="11.55">APTEK</tspan><tspan class="cls-101" x="47.36" y="11.55">A</tspan></text><text class="cls-21" transform="translate(503.8 259.52) rotate(-.42)"><tspan class="cls-115" x="0" y="0">F</tspan><tspan class="cls-94" x="2.31" y="0">OT</tspan><tspan class="cls-76" x="7.75" y="0">O</tspan><tspan x="10.93" y="0">JOKER</tspan></text><g><path class="cls-36" d="M508.26,266.85c-.91,0-1.64,1.19-1.64,2.65s.73,2.65,1.64,2.65,1.64-1.19,1.64-2.65-.73-2.65-1.64-2.65m-1.93,2.65c0-1.72,.86-3.11,1.93-3.11s1.93,1.39,1.93,3.11-.86,3.11-1.93,3.11-1.93-1.39-1.93-3.11m.66-.89c.21-.78,.7-1.34,1.27-1.34,.29,0,.57,.15,.79,.41,.36,.4,.59,1.07,.59,1.83,0,.39-.06,.77-.17,1.08-.37,.06-.73-.17-.91-.5,.48-.52,.61-1.48,.51-2.39-.56,.24-1.07,.84-1.15,1.82-.21-.49-.54-.83-.92-.91m1.85-.35c.03,.77-.24,1.38-.66,1.71,.24,.64,.63,1,1.1,1.03-.25,.45-.61,.73-1.02,.73-.04,0-.08,0-.11,0v-1.78c0-.73,.25-1.41,.69-1.69m-.96,3.39c-.58-.27-1-1.13-1-2.15,0-.17,.01-.33,.03-.49h0c.54,.08,.96,.79,.96,1.72v.91Z"/><path class="cls-36" d="M526.59,270.64h-.32l-.28-.9h-.33v.9h-.29v-2.27h.76c.23,0,.42,.31,.42,.68,0,.29-.11,.54-.27,.64l.3,.95Zm-.93-1.87v.61h.42c.1,0,.19-.14,.19-.3s-.08-.3-.19-.3h-.43Z"/><path class="cls-36" d="M520.65,269.51c0-.67,.33-1.19,.75-1.19,.33,0,.6,.31,.7,.76v.05h-.3c-.09-.24-.23-.39-.4-.39-.25,0-.46,.35-.46,.77s.21,.77,.46,.77c.17,0,.31-.15,.4-.39h.32v.05c-.12,.45-.39,.76-.71,.76-.42,0-.75-.52-.75-1.18"/><polygon class="cls-36" points="511.52 270.64 511.52 269.76 510.99 268.37 511.32 268.37 511.67 269.35 512.01 268.37 512.33 268.37 511.81 269.77 511.81 270.64 511.52 270.64"/><polygon class="cls-36" points="512.72 268.37 513.06 270.05 513.42 268.37 513.72 268.37 513.22 270.64 512.91 270.64 512.41 268.37 512.72 268.37"/><path class="cls-36" d="M515.62,268.97c0,.14,.02,.18,.33,.3,.18,.07,.27,.12,.34,.2,.11,.12,.17,.29,.17,.5,0,.46-.22,.73-.57,.73s-.57-.28-.59-.76h.28c.03,.25,.13,.37,.32,.37,.18,0,.27-.12,.27-.31,0-.1-.02-.16-.1-.22-.03-.02-.07-.04-.12-.06l-.05-.02h-.03c-.18-.09-.32-.16-.38-.23-.1-.1-.15-.27-.15-.46,0-.42,.21-.69,.53-.69s.5,.24,.53,.67h-.28c-.03-.2-.11-.29-.26-.29s-.24,.11-.24,.27"/><polygon class="cls-36" points="523.26 269.73 522.69 269.73 522.69 270.64 522.4 270.64 522.4 268.37 522.69 268.37 522.69 269.33 523.26 269.33 523.26 268.37 523.54 268.37 523.54 270.64 523.26 270.64 523.26 269.73"/><polygon class="cls-36" points="524.28 269.34 524.8 269.34 524.8 269.73 524.28 269.73 524.28 270.23 525.02 270.23 525.02 270.64 523.99 270.64 523.99 268.37 525.02 268.37 525.02 268.77 524.28 268.77 524.28 269.34"/><path class="cls-36" d="M520.4,269.5c0,.67-.33,1.19-.75,1.19s-.75-.52-.75-1.18,.33-1.19,.75-1.19,.75,.52,.75,1.18m-1.21,0c0,.42,.2,.77,.46,.77s.46-.34,.46-.77-.2-.76-.46-.76-.46,.34-.46,.76"/><path class="cls-36" d="M518.69,270.64h-.32l-.28-.9h-.33v.9h-.29v-2.27h.77c.23,0,.42,.31,.42,.68,0,.29-.11,.54-.27,.64l.3,.95Zm-.93-1.87v.61h.42c.1,0,.19-.14,.19-.3s-.08-.3-.19-.3h-.43Z"/><polygon class="cls-36" points="514.29 269.34 514.82 269.34 514.82 269.73 514.29 269.73 514.29 270.23 515.03 270.23 515.03 270.64 514 270.64 514 268.37 515.03 268.37 515.03 268.77 514.29 268.77 514.29 269.34"/><path class="cls-36" d="M517.93,272.35h-.28l-.06,.26h-.16l.28-1.19h.16l.28,1.19h-.16l-.06-.26Zm-.23-.21h.18l-.09-.42-.09,.42Z"/><polygon class="cls-36" points="519.09 272.61 518.95 272.61 518.95 271.42 519.09 271.42 519.39 272.16 519.39 271.42 519.54 271.42 519.54 272.61 519.39 272.61 519.09 271.87 519.09 272.61"/><polygon class="cls-36" points="514.85 271.94 515.14 271.94 515.14 272.14 514.85 272.14 514.85 272.61 514.7 272.61 514.7 271.42 515.22 271.42 515.22 271.64 514.85 271.64 514.85 271.94"/><path class="cls-36" d="M516.17,271.63v.32h.2c.05,0,.1-.07,.1-.16s-.04-.16-.1-.16h-.2Zm.47,.98h-.17l-.14-.47h-.16v.47h-.15v-1.19h.38c.12,0,.22,.16,.22,.36,0,.15-.06,.28-.15,.34l.16,.5Z"/><path class="cls-36" d="M520.4,272.02c0-.35,.18-.62,.4-.62,.17,0,.31,.16,.37,.4v.03h-.16c-.05-.13-.12-.21-.21-.21-.13,0-.24,.18-.24,.4s.11,.4,.24,.4c.09,0,.16-.08,.21-.2h.16v.03c-.06,.24-.2,.4-.38,.4-.22,0-.4-.27-.4-.62"/><polygon class="cls-36" points="522.12 271.94 522.39 271.94 522.39 272.14 522.12 272.14 522.12 272.4 522.48 272.4 522.48 272.61 521.97 272.61 521.97 271.42 522.48 271.42 522.48 271.64 522.12 271.64 522.12 271.94"/></g><text class="cls-14" transform="translate(490.73 338.5) rotate(-.42)"><tspan class="cls-59" x="0" y="0">E</tspan><tspan x="3" y="0">CHO </tspan><tspan class="cls-108" x="15.64" y="0">F</tspan><tspan class="cls-90" x="18.3" y="0">A</tspan><tspan x="21.54" y="0">SHION</tspan></text><text class="cls-19" transform="translate(493.66 355.74) rotate(-.42)"><tspan x="0" y="0">E</tspan><tspan class="cls-82" x="3.11" y="0">S</tspan><tspan class="cls-113" x="6.07" y="0">O</tspan><tspan x="10.08" y="0">TIQ</tspan></text><text class="cls-3" transform="translate(491.92 373.08) rotate(-.42)"><tspan x="0" y="0">F</tspan><tspan class="cls-97" x="2.36" y="0">R</tspan><tspan x="4.87" y="0">YZJERE</tspan><tspan class="cls-73" x="20.01" y="0">K</tspan></text><text class="cls-17" transform="translate(511.77 488.9) rotate(-.42)"><tspan class="cls-106" x="0" y="0">RO</tspan><tspan x="16" y="0">SSMANN</tspan></text><g><path class="cls-36" d="M444.34,483.38c0-1.17,.9-2.1,2.08-2.11s2.1,.92,2.11,2.07c0,1.15-.89,2.08-2.09,2.09-1.2,0-2.1-.89-2.11-2.05Zm3.36-.04c0-.75-.58-1.29-1.27-1.28-.7,0-1.25,.56-1.25,1.3,0,.74,.56,1.28,1.27,1.27s1.26-.55,1.25-1.29Z"/><path class="cls-36" d="M449.18,481.32l2.69-.02v.76h-1.87v.92h1.66v.75h-1.64v1.61h-.79l-.03-4.02Z"/><path class="cls-36" d="M452.46,481.3l2.68-.02v.76h-1.87v.92h1.66v.75h-1.64v1.61h-.79l-.03-4.02Z"/><path class="cls-36" d="M456.56,481.27l.03,4.03h-.81l-.03-4.02h.81Z"/><path class="cls-36" d="M457.24,483.29c0-1.24,.93-2.1,2.07-2.11,.75,0,1.39,.33,1.74,.82l-.54,.53c-.28-.34-.68-.58-1.15-.58-.72,0-1.28,.56-1.28,1.33,0,.75,.57,1.28,1.29,1.28,.47,0,.89-.24,1.17-.6l.56,.5c-.35,.49-1,.86-1.77,.87-1.15,0-2.08-.81-2.09-2.04Z"/><path class="cls-36" d="M461.62,481.23l2.73-.02v.75h-1.91v.88h1.78v.74h-1.77v.92h1.92v.74l-2.72,.02-.03-4.03Z"/><path class="cls-36" d="M445.63,491.23l.46-.56c.27,.36,.66,.56,1.07,.55,.34,0,.58-.18,.57-.43,0-.2-.16-.32-.37-.42-.26-.12-.59-.21-.88-.37-.35-.2-.64-.5-.64-1,0-.67,.55-1.18,1.36-1.19,.47,0,.95,.16,1.33,.54l-.43,.59c-.24-.25-.61-.37-.88-.37-.32,0-.52,.16-.51,.39,0,.2,.17,.32,.33,.4,.21,.1,.62,.25,.89,.38,.39,.19,.69,.49,.69,1,0,.71-.58,1.23-1.47,1.24-.62,0-1.18-.25-1.53-.74Z"/><path class="cls-36" d="M449.25,487.86h.81v1.6h1.7v-1.62h.79l.03,4.02h-.81v-1.63h-1.7v1.65h-.79l-.03-4.02Z"/><path class="cls-36" d="M453.23,489.86c0-1.17,.9-2.1,2.08-2.11s2.1,.92,2.11,2.07c0,1.15-.9,2.08-2.09,2.09-1.2,0-2.1-.89-2.11-2.05Zm3.36-.04c0-.75-.58-1.29-1.27-1.28-.7,0-1.25,.56-1.25,1.3,0,.74,.56,1.28,1.27,1.27,.71,0,1.26-.55,1.25-1.29Z"/><path class="cls-36" d="M458.07,487.79l2.73-.02v.75h-1.91v.88h1.78v.74h-1.77v.92h1.92v.74l-2.72,.02-.03-4.03Z"/><path class="cls-36" d="M461.22,491.11l.46-.56c.27,.36,.66,.56,1.07,.55,.34,0,.58-.18,.57-.43,0-.2-.16-.32-.37-.42-.26-.12-.59-.21-.88-.37-.35-.2-.64-.5-.64-1,0-.67,.55-1.18,1.36-1.19,.47,0,.95,.16,1.33,.54l-.43,.59c-.24-.25-.61-.37-.88-.37-.32,0-.52,.16-.51,.39,0,.2,.17,.32,.33,.4,.21,.1,.62,.25,.89,.38,.39,.19,.69,.49,.69,1,0,.71-.58,1.23-1.47,1.24-.62,0-1.18-.25-1.53-.74Z"/></g><text class="cls-16" transform="translate(85.43 496.73) rotate(-.42)"><tspan x="0" y="0">HOME</tspan><tspan class="cls-77" x="32.72" y="0">&amp;</tspan><tspan class="cls-42" x="39.27" y="0">Y</tspan><tspan class="cls-54" x="45.73" y="0">OU</tspan></text><text class="cls-11" transform="translate(379.05 505.05) rotate(-90.42)"><tspan class="cls-86" x="0" y="0">W</tspan><tspan class="cls-40" x="8.31" y="0">O</tspan><tspan class="cls-96" x="14.8" y="0">J</tspan><tspan class="cls-69" x="19.28" y="0">A</tspan><tspan x="24.63" y="0">S</tspan></text><g><path class="cls-36" d="M283.72,494.73c-.07,.05-.12,.53-.12,1.07v.97l-.58,.12c-2.46,.45-4.29,4.06-3.58,7.07,.45,1.86,1.68,3.5,3.06,3.99,.67,.23,.68,.43,.07,1.43-.45,.73-1.33,1-1.08,.3,.07-.13,.27-.25,.45-.25,.38,0,.45-.3,.08-.43-.37-.15-1.05,.07-1.41,.43-.82,.82-.08,2,1.2,2,.98,0,1.7-.78,1.96-2.11l.2-1.02,.78-.2c.95-.23,1.86-.85,2.38-1.58,.37-.57,.4-.57,1.32-.47,1.61,.17,2.88-.58,3.08-1.8,.13-.77-.47-1.5-1.55-1.9-1.02-.38-1.38-.7-1.38-1.2,0-.7,.3-1.05,.88-1.05,.72,0,.88,.13,1.28,1.05,.2,.43,.38,.78,.42,.78,.05,0,.08-.42,.08-.92v-.9l-.7-.2c-.65-.17-1.33-.13-2.21,.12-.28,.07-.38-.03-.57-.53-.12-.33-.65-1.03-1.17-1.55-.53-.52-1.05-1.18-1.15-1.48-.1-.3-.42-.85-.72-1.21-.48-.62-.8-.78-1.03-.53h0Zm.7,1.75c.2,.25,.18,.3-.05,.3-.17,0-.27-.13-.27-.37,0-.2,.02-.32,.05-.28,.02,.03,.15,.2,.27,.35h0Zm-.82,2.71v1.93l-.68,.98c-1.12,1.58-1.07,3.1,.13,3.66,.58,.27,.62,.43,.33,1.38l-.2,.63-.87-.43c-1.56-.78-2.53-2.6-2.55-4.76,0-1.56,.33-2.68,1.15-3.75,.6-.78,1.78-1.56,2.38-1.56,.27,0,.3,.17,.3,1.91h0Zm1.17-1.1c0,.72-.38,2.01-.58,2.01-.05,0-.08-.63-.08-1.41,0-1.3,.03-1.41,.33-1.41,.28,0,.33,.12,.33,.82h0Zm1.83,.47c.3,.33,.68,.92,.85,1.28,.25,.58,.27,.7,.05,1-.3,.43-.3,1.43,.02,1.86,.13,.2,.63,.52,1.12,.73,.48,.2,1.02,.48,1.18,.63,.63,.57,.1,1.86-.77,1.86-.58,0-1.07-.43-1.38-1.25-.38-1-.63-.97-.53,.08,.07,.73,.02,.93-.38,1.48-.68,.96-3.05,2.03-2.75,1.25,.05-.15,.1-.55,.1-.9,0-.53,.07-.65,.48-.83,1.25-.52,1.93-2.08,1.2-2.81-.2-.2-.57-.35-.85-.35-.55,0-.63,.18-.25,.5,.32,.27,.32,.73-.02,1.07-.47,.47-.57,.28-.57-1.03,0-1.21,.05-1.38,.83-2.91,.47-.9,.83-1.76,.83-1.95,0-.48,.23-.42,.83,.28h0Zm-3,4.98c0,.57-.07,.88-.17,.82-.18-.12-.22-.8-.07-1.38,.17-.6,.23-.43,.23,.57h0Zm0,0"/><path class="cls-36" d="M311.29,497.07c-1.08,.27-1.33,.47-.67,.57,.33,.05,.37,.15,.42,1.17l.05,1.13h-.77c-1.96,0-3.41,1.43-3.41,3.36,0,1.07,.4,1.9,1.17,2.43,.7,.47,1.73,.48,2.41,.03,.63-.42,.75-.42,.75,0,0,.38-.05,.38,1.25,.1,.9-.2,.95-.23,.55-.35l-.47-.12v-4.31c0-2.36-.05-4.29-.12-4.29-.08,.02-.6,.13-1.17,.28h0Zm-.63,3.4l.43,.18-.1,4.49-.45,.15c-1.07,.37-2.13-.96-2.13-2.65,0-1.91,.92-2.8,2.25-2.18h0Zm0,0"/><path class="cls-36" d="M314.6,497.14c-.45,.45-.05,1.46,.57,1.46,.77,0,1.21-.95,.7-1.46-.25-.25-1.02-.25-1.27,0h0Zm0,0"/><path class="cls-36" d="M334.57,497.14c-.33,.33-.25,1.1,.15,1.3,.78,.43,1.66-.42,1.2-1.15-.22-.33-1.07-.43-1.35-.15h0Zm0,0"/><path class="cls-36" d="M293.29,499.22c-.38,.47-.88,.9-1.12,.95-.53,.13-.53,.43,0,.43h.42v2.06c0,1.12,.08,2.3,.18,2.58,.32,.88,1.36,1.1,2.56,.53l.67-.32-.7-.02c-1.08-.02-1.22-.35-1.22-2.8v-2.05h.92c.68,0,.92-.07,.92-.23,0-.18-.25-.27-.87-.3l-.88-.05-.08-.82-.08-.83-.72,.85Zm0,0"/><path class="cls-36" d="M299.44,500.19c-.27,.23-.55,.58-.6,.75-.18,.57-.42,.37-.42-.33,0-.77-.12-.8-1.4-.35l-.82,.28,.45,.28c.43,.28,.43,.3,.43,2.5v2.21l-.45,.18c-.38,.15-.15,.18,1.28,.18s1.65-.03,1.22-.17l-.55-.18v-1.95c0-1.7,.05-2.01,.32-2.35,.28-.33,.37-.37,.63-.18,.17,.1,.4,.25,.53,.32,.63,.3,1.17-.96,.58-1.4-.42-.32-.65-.27-1.21,.2h0Zm0,0"/><g><path class="cls-36" d="M329.73,500.19l-1.07,.35,.45,.28c.43,.28,.43,.3,.43,2.51v2.23l-.45,.17c-.37,.13-.08,.17,1.28,.17,1.45,0,1.65-.03,1.22-.17l-.55-.18v-1.93c0-1.63,.05-2,.32-2.35l.32-.4,.58,.32c.5,.27,.63,.28,.85,.1,.43-.35,.33-1.15-.15-1.38-.52-.23-1.12,.13-1.63,1l-.37,.62-.08-.85-.08-.85-1.06,.37Zm0,0"/><path class="cls-36" d="M345.26,500.09c-.82,.37-1.23,.9-1.23,1.56,0,.88,.4,1.36,1.58,1.86,.77,.32,1.15,.58,1.27,.85,.32,.87-.5,1.73-1.41,1.5-.32-.08-.57-.37-.88-1.02-.25-.5-.52-.92-.6-.92s-.1,.12-.05,.27c.05,.15,.1,.55,.1,.9,0,.57,.07,.65,.52,.82,1.3,.45,3.06-.03,3.54-.97,.6-1.15,.25-1.81-1.38-2.63-1.08-.55-1.27-.7-1.32-1.1-.07-.6,.37-1.12,.95-1.12s.75,.13,1.17,.95c.2,.4,.4,.72,.43,.72,.05,0,.08-.37,.08-.83,0-.8-.02-.82-.62-.98-.88-.25-1.36-.22-2.15,.13h0Zm0,0"/></g><path class="cls-36" d="M302.31,500.27c-1.23,.62-1.36,1.66-.22,1.66,.42,0,.48-.07,.48-.48,0-.83,.28-1.35,.73-1.35,.63,0,1.1,.72,1.1,1.66v.8l-.87,.2c-1.83,.43-2.63,1.18-2.36,2.23,.28,1.13,1.66,1.43,2.65,.58,.32-.28,.58-.43,.58-.33,0,.3,.65,.85,1,.85,.18,0,.62-.12,.97-.28l.62-.27-.5-.1-.5-.1-.08-2.3c-.08-2.28-.08-2.31-.55-2.71-.62-.53-2.05-.55-3.05-.07h0Zm1.83,4.78c-.65,.48-1.56,0-1.56-.8,0-.43,.57-1.03,1.18-1.23l.57-.2,.05,1.02c.03,.8,0,1.05-.23,1.21h0Zm0,0"/><path class="cls-36" d="M314.57,500.25l-.92,.3,.47,.22,.45,.22v4.54l-.45,.18c-.38,.15-.17,.18,1.2,.18s1.58-.03,1.22-.18l-.47-.18v-2.8c0-3.18,.12-2.98-1.5-2.48h0Zm0,0"/><path class="cls-36" d="M323.92,500.29c-.78,.4-1.1,.83-.95,1.31,.08,.25,.25,.33,.68,.33,.53,0,.57-.03,.57-.6,0-.78,.27-1.23,.73-1.23,.6,0,.98,.57,1.07,1.56l.07,.88-.88,.22c-1.76,.42-2.48,1-2.48,2.01,0,.18,.22,.57,.48,.83,.68,.67,1.46,.67,2.26-.03,.32-.28,.58-.43,.58-.33,0,.3,.65,.85,1,.85,.18,0,.62-.12,.97-.28l.62-.27-.5-.1-.5-.1-.08-2.3c-.08-2.28-.08-2.31-.55-2.71-.63-.53-2.05-.55-3.08-.05h0Zm1.86,4.76c-.65,.48-1.56,0-1.56-.8,0-.43,.57-1.03,1.18-1.23l.57-.2,.05,1.02c.03,.8,0,1.05-.23,1.21h0Zm0,0"/><path class="cls-36" d="M334.54,500.25c-.87,.27-.9,.3-.53,.48,.35,.2,.37,.3,.37,2.51s-.02,2.3-.37,2.48c-.3,.13-.05,.18,1.2,.18s1.5-.05,1.22-.18c-.38-.18-.38-.25-.38-3,0-3.18,.12-3-1.5-2.48h0Zm0,0"/><path class="cls-36" d="M337.54,500.14c-.88,.17-.9,.18-.53,.42,.35,.25,.37,.37,.37,2.13,0,1.02,.08,2.1,.18,2.4,.38,1.08,1.81,1.33,2.93,.53l.68-.5,.1,.5c.08,.47,.12,.48,.8,.38,.4-.07,.9-.17,1.13-.23l.42-.12-.45-.13-.47-.12v-5.48l-.78,.12c-.43,.07-.98,.17-1.22,.23l-.42,.12,.47,.18,.45,.2v2.05c0,2.05,0,2.06-.42,2.25-.23,.12-.6,.2-.8,.2-.92-.02-1.12-.55-1.12-3.15,0-1.65-.05-2.18-.2-2.16-.12,.02-.63,.1-1.13,.18h0Zm0,0"/><path class="cls-36" d="M316.88,500.32c.3,.15,.63,.82,1.43,2.95,1.4,3.71,1.36,3.71,2.83-.07,.72-1.86,1.23-2.95,1.4-2.98,.15-.05-.18-.08-.73-.08s-.85,.03-.67,.08c.18,.05,.4,.13,.47,.2,.1,.1-1.1,3.91-1.3,4.14-.05,.05-1.41-3.96-1.41-4.16,0-.07,.17-.15,.38-.18,.2-.03-.35-.08-1.22-.08-1.35-.03-1.53,0-1.18,.18h0Zm0,0"/></g><text class="cls-4" transform="translate(292.56 474.4) rotate(-.42)"><tspan x="0" y="0">YES</tspan></text><text class="cls-15" transform="translate(259.22 473.77) rotate(-.42)"><tspan x="0" y="0">INTIMISSIMI</tspan></text><g><path class="cls-36" d="M213.91,467.22s-4.63,7.64-3.49,15.76c.87,6.17,3.05,9.95,.58,17.14,0,0,4.07-5.13,4.07-12.58,0-4.34-3.85-13.42-1.16-20.32Z"/><g><path class="cls-36" d="M198.59,508.64c-.06-.03-.13-.06-.19-.09-.19-.09-.36-.19-.32-.38,.05-.24,.21-.29,.34-.29,.11,0,.24,.06,.33,.1,.05,.03,.09,.05,.09,.05l.06-.31s-.12-.08-.24-.12c-.12-.03-.61-.12-.85,.31-.26,.48,.1,.78,.4,.94h0c.24,.13,.54,.25,.5,.5-.04,.24-.26,.29-.39,.29-.18,0-.48-.17-.48-.17l-.11,.33s.11,.08,.23,.12c.12,.03,.72,.13,.96-.3,.26-.48-.05-.8-.35-.97Z"/><polygon class="cls-36" points="202.41 507.97 203.46 507.97 203.46 507.63 202.07 507.63 202.07 509.89 203.46 509.89 203.46 509.56 202.41 509.56 202.41 508.88 203.15 508.88 203.15 508.55 202.41 508.55 202.41 507.97"/><path class="cls-36" d="M207.08,507.63h-.57v2.26h.33v-.93h.51s.62,0,.62-.69-.89-.64-.89-.64Zm.29,1.09h-.53v-.82h.37s.48,0,.48,.41c0,.35-.32,.41-.32,.41Z"/><polygon class="cls-36" points="212.54 508.52 211.37 508.52 211.37 507.63 211.02 507.63 211.02 509.89 211.37 509.89 211.37 508.85 212.54 508.85 212.54 509.89 212.89 509.89 212.89 507.63 212.54 507.63 212.54 508.52"/><path class="cls-36" d="M217.11,507.61c-.64,0-1.16,.52-1.16,1.16s.52,1.16,1.16,1.16,1.16-.52,1.16-1.16-.52-1.16-1.16-1.16Zm0,1.99c-.46,0-.83-.37-.83-.83s.37-.83,.83-.83,.83,.37,.83,.83-.37,.83-.83,.83Z"/><path class="cls-36" d="M222.34,508.87s.4-.09,.4-.62c0-.67-.76-.62-.76-.62h-.65v2.26h.33v-.98h.34l.7,.98h.38l-.74-1.02Zm-.16-.2h-.52v-.77h.37s.44,0,.44,.41c0,.29-.29,.36-.29,.36Z"/><path class="cls-36" d="M227.22,507.63h-.3l-.8,2.27h.3l.19-.55h.91l.2,.55h.3l-.81-2.27Zm-.55,1.54l.33-1.11h.08l.39,1.11h-.8Z"/></g></g><path class="cls-18" d="M170.47,475.25c0-.21,0-.41,.09-.53,.14-.2,.57-.38,.79-.52,.61-.37,1.21-.74,1.82-1.11,.16-.1,.79-.4,.83-.55,.05-.21-.59-.55-.73-.64-.59-.39-1.16-.83-1.8-1.16-.38-.2-.61-.33-.93,.02h0c0-.66,0-1.33,0-1.99,0,0,.02,.02,.03,.02,.11,.22,.58,.6,.79,.75,.63,.51,1.27,1.02,1.9,1.53,.6,.49,1.2,.98,1.8,1.46,1.53,1.19,2.98,2.46,3.99,4.18,.15,.25,.26,.53,.35,.82,.33,1.02,.41,2.12,.19,3.18-.04,.18-.1,.32-.22,.41-.22,.16-.31-.1-.31-.31,.01-1.1,.02-2.08-.33-3.14-.18-.55-.41-1.04-.69-1.5-.59-.94-1.82-2.25-3.08-2.48-.38-.07-1.04,.45-1.28,.6-.59,.36-1.2,.68-1.76,1.08-.31,.21-.59,.45-.88,.68-.2,.17-.34,.39-.51,.59h0c-.02-.46-.04-.93-.06-1.39h0Zm-.08,29.24c.08-1.28,.39-2.42,1.11-2.99,.42-.33,1.05-.61,1.75-.34,.38,.15,.69,.39,.92,.69,.26,.34,.46,.75,.62,1.19,.67,1.91,.57,5.41-.76,6.46-.17,.13-.36,.25-.58,.33-.51,.18-1.13,.01-1.48-.2-.69-.43-1.04-1.15-1.28-2.02-.28-1-.36-2.08-.3-3.12h0Zm.58,2.63c.16,.4,.41,.73,.79,.9,.55,.24,1.24,.16,1.73-.06,.7-.31,1.05-.96,1.24-1.8,.21-.96,.03-2.15-.38-2.74-.48-.67-1.63-.84-2.45-.35-.74,.44-1.06,1.21-1.14,2.28-.04,.6-.02,1.2,.21,1.76h0Zm-.57-11.81c0-.3,.04-.59,.12-.81,.05-.13,.14-.39,.34-.27,.21,.12,.26,.59,.2,.92-.1,.56-.44,1.47-.09,1.96,.25,.35,.77,.33,1.37,.33h1.31c.34,0,.7,.01,.96-.07,.21-.07,.32-.18,.47-.3v2.25h0l-.02-.02c-.14-.28-.69-.34-1.13-.34h-1.78c-.28,0-.65,.04-.86-.05-.38-.15-.56-.52-.67-.97-.21-.85-.24-1.77-.21-2.64h0Zm.06-6.92c.04-.23,.09-.48,.12-.66,.19,0,.56-.02,.7,.04-.14,.27-.3,.53-.42,.83-.2,.5-.24,1.44-.11,2.06,.07,.31,.19,.9,.61,.82,.41-.08,.56-.52,.7-.87,.34-.87,.47-1.94,.88-2.73,.24-.47,.7-.97,1.31-.49,.49,.39,.67,1.21,.81,1.99,.24,1.32,.09,2.51-.11,3.81-.02,.11-.04,.22-.11,.27-.09,.06-.72-.04-.83-.09,.16-.29,.4-.52,.54-.85,.27-.63,.36-1.76,.19-2.58-.09-.42-.28-1.12-.86-1.01-.49,.09-.65,.68-.8,1.11-.31,.9-.51,2.42-1.24,2.86-.29,.17-.67,.09-.86-.11-.31-.31-.41-.8-.49-1.33-.13-.87-.18-1.82-.08-2.71,.01-.13,.03-.25,.05-.38h0Zm-.1-8.14c0-.73,.03-1.68,.24-2.37h2.6c.43,0,.97,.06,1.32-.04,.15-.04,.27-.12,.37-.2,.03-.04,.07-.08,.11-.12,.04,.61,.08,1.22,.12,1.83h-.01c-.13,.06-.32,.04-.44,.12-.05,.17,.1,.38,.15,.52,.37,.94,.47,2.4,.26,3.38-.24,1.13-.63,2.03-1.61,2.41-.59,.23-1.21,0-1.58-.27-.64-.47-.96-1.23-1.18-2.1-.27-1.04-.34-2.08-.35-3.15h0Zm.61,2.29c.23,.74,.57,1.34,1.29,1.59,.21,.07,.54,.1,.79,.04,.16-.04,.3-.11,.42-.18,.24-.14,.43-.32,.59-.54,.17-.24,.31-.55,.4-.86,.3-.98,.32-2.77-.53-3.12-.18-.08-.48-.06-.73-.06-.53,0-1.9-.09-2.18,.12-.2,.16-.26,.49-.28,.85-.03,.72,.02,1.47,.24,2.16h0Z"/><g><path class="cls-36" d="M73.53,406.75l-.47,.56v.95h-.76l-.03-3.81h.76v1.79l1.44-1.81h.92l-1.39,1.74,1.51,2.07h-.94l-1.07-1.5Z"/><path class="cls-36" d="M75.49,407.6l.43-.53c.26,.34,.63,.53,1.02,.52,.32,0,.54-.17,.54-.41,0-.19-.15-.3-.35-.39-.24-.11-.56-.2-.83-.35-.34-.19-.61-.47-.61-.94,0-.63,.52-1.12,1.29-1.12,.44,0,.9,.15,1.26,.51l-.4,.56c-.23-.24-.58-.35-.84-.35-.3,0-.49,.15-.49,.37,0,.19,.16,.3,.31,.37,.2,.09,.58,.23,.84,.36,.37,.18,.65,.46,.66,.94,0,.68-.55,1.17-1.39,1.17-.58,0-1.12-.23-1.45-.7Z"/><path class="cls-36" d="M79.69,404.41l.03,3.81h-.77l-.03-3.81h.77Z"/><path class="cls-36" d="M80.53,404.4l2.58-.02v.71h-1.81v.83h1.69v.7h-1.68v.87h1.82v.7l-2.58,.02-.03-3.81Z"/><path class="cls-36" d="M83.56,406.29c0-1.16,.88-1.98,2-1.99,.64,0,1.21,.26,1.54,.61l-.5,.55c-.26-.26-.64-.42-1.04-.42-.71,0-1.23,.53-1.22,1.24,0,.69,.51,1.23,1.23,1.22,.41,0,.79-.18,1.02-.42v-.52h-1.06v-.66h1.74v1.56c-.45,.49-1.05,.77-1.72,.77-1.15,0-1.99-.82-2-1.95Z"/><path class="cls-36" d="M89.88,407.32h-1.33l-.29,.84h-.8l1.43-3.82h.62l1.46,3.8h-.8l-.29-.82Zm-1.12-.67h.9l-.45-1.27-.44,1.27Z"/><path class="cls-36" d="M92.65,406.73h-.45v1.39h-.75l-.03-3.81h1.46c.89-.02,1.31,.55,1.31,1.19,0,.46-.23,.92-.77,1.12l.93,1.48h-.89l-.81-1.38Zm-.46-.68h.62c.43,0,.59-.27,.59-.53,0-.27-.18-.51-.53-.51h-.69v1.04Z"/><path class="cls-36" d="M98.15,404.27l.03,3.81h-.52l-1.99-2.32,.02,2.34h-.75l-.03-3.81h.48l2.03,2.34-.02-2.36h.75Z"/><path class="cls-36" d="M99.77,404.26l.03,3.81h-.77l-.03-3.81h.77Z"/><path class="cls-36" d="M100.62,404.25l2.58-.02v.71h-1.81v.83h1.69v.7h-1.68v.87h1.82v.7l-2.58,.02-.03-3.81Z"/><path class="cls-36" d="M69.47,413.84l.43-.53c.25,.34,.63,.53,1.01,.52,.32,0,.54-.17,.54-.41,0-.19-.15-.3-.35-.39-.24-.11-.56-.2-.83-.35-.34-.19-.61-.47-.61-.94,0-.63,.52-1.12,1.29-1.12,.44,0,.9,.15,1.26,.51l-.4,.56c-.23-.24-.58-.35-.84-.35-.3,0-.49,.15-.49,.37,0,.19,.16,.3,.31,.37,.2,.09,.58,.23,.84,.36,.37,.18,.65,.46,.66,.94,0,.68-.55,1.17-1.39,1.17-.58,0-1.12-.23-1.45-.7Z"/><path class="cls-36" d="M72.41,410.66h.84l.79,2.55,.85-2.57h.48l.9,2.55,.74-2.57h.84l-1.23,3.81h-.64l-.83-2.49-.79,2.5h-.64l-1.29-3.8Z"/><path class="cls-36" d="M79.07,410.61l.03,3.81h-.77l-.03-3.81h.77Z"/><path class="cls-36" d="M81.97,413.57h-1.33l-.29,.84h-.8l1.43-3.82h.62l1.46,3.8h-.8l-.29-.82Zm-1.12-.67h.9l-.45-1.27-.44,1.27Z"/><path class="cls-36" d="M82.81,411.32v-.74l2.94-.02v.74h-1.08l.02,3.08h-.77l-.02-3.07h-1.09Z"/><path class="cls-36" d="M88.61,412.84l-.47,.57v.95h-.76l-.03-3.81h.76v1.79l1.44-1.81h.92l-1.39,1.74,1.51,2.07h-.94l-1.07-1.5Z"/><path class="cls-36" d="M90.57,413.68l.43-.53c.25,.34,.63,.53,1.01,.52,.32,0,.54-.17,.54-.41,0-.19-.15-.3-.35-.39-.24-.11-.56-.2-.83-.35-.34-.19-.61-.47-.61-.94,0-.63,.52-1.12,1.29-1.12,.44,0,.9,.15,1.26,.51l-.4,.56c-.23-.24-.58-.35-.84-.35-.3,0-.49,.15-.49,.37,0,.19,.16,.3,.31,.37,.2,.09,.58,.23,.84,.36,.37,.18,.65,.46,.66,.94,0,.68-.55,1.16-1.39,1.17-.58,0-1.12-.23-1.45-.7Z"/><path class="cls-36" d="M94.77,410.49l.03,3.81h-.77l-.03-3.81h.77Z"/><path class="cls-36" d="M97.67,413.45h-1.33l-.29,.84h-.8l1.43-3.82h.62l1.46,3.8h-.8l-.29-.82Zm-1.12-.67h.9l-.45-1.27-.44,1.27Z"/><path class="cls-36" d="M98.99,413.72l1.87-2.57h-1.82v-.69l2.85-.02v.57l-1.83,2.55h1.91v.69l-2.98,.02v-.55Z"/><path class="cls-36" d="M103.82,412.72l-.47,.56v.95h-.76l-.03-3.81h.76v1.79l1.44-1.81h.92l-1.39,1.74,1.51,2.07h-.94l-1.07-1.5Z"/><path class="cls-36" d="M106.93,410.4l.03,3.81h-.77l-.03-3.81h.77Z"/></g><text class="cls-6" transform="translate(73.94 368.08) rotate(-.42)"><tspan x="0" y="0">KUBENZ</tspan></text><text class="cls-24" transform="translate(49.66 302.15) rotate(-.42)"><tspan x="0" y="0">M </tspan><tspan class="cls-93" x="10.04" y="0">B</tspan><tspan x="15.71" y="0">AN</tspan><tspan class="cls-93" x="28.33" y="0">K</tspan></text><text class="cls-37" transform="translate(62 272) rotate(-.42)"><tspan x="0" y="0">HEBE</tspan></text><text class="cls-29" transform="translate(85.43 251.16) rotate(-.42) scale(.89 1)"><tspan class="cls-61" x="0" y="0">S</tspan><tspan x="3.42" y="0">WISS</tspan></text><text class="cls-6" transform="translate(210.76 155.23) rotate(-.42)"><tspan x="0" y="0">L</tspan><tspan class="cls-1" x="3.77" y="0">E</tspan><tspan class="cls-105" x="7.62" y="0">VI</tspan><tspan class="cls-120" x="14.01" y="0"></tspan><tspan class="cls-83" x="15.41" y="0">S</tspan></text><text class="cls-31" transform="translate(236.33 174.41) rotate(-.42)"><tspan class="cls-118" x="0" y="0">G</tspan><tspan class="cls-110" x="2.96" y="0">A</tspan><tspan x="5.32" y="0">T</tspan><tspan class="cls-79" x="7.58" y="0">T</tspan><tspan class="cls-117" x="9.57" y="0">A</tspan></text><g><path class="cls-36" d="M324.56,409.97v-.45h1.79v.44h-.66v1.88h-.46v-1.87h-.68Z"/><path class="cls-36" d="M327.13,409.5l.02,2.32h-.47l-.02-2.32h.47Z"/><path class="cls-36" d="M327.64,409.49h.31l.92,1.31,.89-1.32h.31l.02,2.32h-.46v-1.31l-.68,.98h-.16l-.68-.97v1.32h-.45l-.02-2.32Z"/><path class="cls-36" d="M330.6,409.47h1.57v.42h-1.1v.51h1.03v.43h-1.02v.53h1.11v.43h-1.57l-.02-2.31Z"/><path class="cls-36" d="M323.14,413.76v-.45h1.79v.44h-.66v1.88h-.46v-1.87h-.68Z"/><path class="cls-36" d="M325.99,414.76h-.28v.85h-.46l-.02-2.32h.89c.54-.01,.8,.34,.8,.72,0,.28-.14,.56-.47,.69l.57,.9h-.54l-.5-.84Zm-.28-.42h.38c.26,0,.36-.16,.36-.32,0-.17-.11-.31-.32-.31h-.42v.63Z"/><path class="cls-36" d="M327.36,413.28h1.57v.42h-1.1v.51h1.03v.43h-1.02v.53h1.11v.43h-1.57l-.02-2.31Z"/><path class="cls-36" d="M331.35,413.25l.02,2.32h-.32l-1.21-1.41v1.42h-.45l-.02-2.32h.29l1.24,1.42v-1.44h.45Z"/><path class="cls-36" d="M331.86,413.24h.91c.7-.01,1.12,.43,1.13,1.15,0,.71-.42,1.16-1.13,1.17h-.89l-.02-2.32Zm.93,1.87c.42,0,.63-.33,.63-.72,0-.39-.22-.71-.64-.71h-.45v1.43h.46Z"/></g><g><polygon class="cls-45" points="248.73 539.58 243.04 542.93 242.96 539.02 248.65 535.67 254.47 538.79 254.55 542.7 248.73 539.58"/><polygon class="cls-45" points="248.84 544.93 243.15 548.28 243.07 544.37 248.76 541.02 254.58 544.15 254.65 548.05 248.84 544.93"/><polygon class="cls-45" points="248.94 550.29 243.25 553.64 243.17 549.73 248.86 546.38 254.68 549.5 254.76 553.41 248.94 550.29"/></g><g><polygon class="cls-45" points="479.42 539.28 473.41 542.83 473.32 538.69 479.34 535.14 485.5 538.45 485.58 542.58 479.42 539.28"/><polygon class="cls-45" points="479.54 544.95 473.52 548.49 473.44 544.35 479.45 540.81 485.61 544.11 485.69 548.25 479.54 544.95"/><polygon class="cls-45" points="479.65 550.62 473.63 554.16 473.55 550.02 479.57 546.48 485.72 549.78 485.8 553.92 479.65 550.62"/></g><g><polygon class="cls-45" points="38.71 442.29 35.71 437.2 39.22 437.13 42.22 442.22 39.42 447.43 35.92 447.5 38.71 442.29"/><polygon class="cls-45" points="33.92 442.39 30.91 437.29 34.42 437.22 37.42 442.31 34.62 447.53 31.12 447.6 33.92 442.39"/><polygon class="cls-45" points="29.12 442.48 26.12 437.38 29.62 437.31 32.62 442.41 29.82 447.62 26.32 447.69 29.12 442.48"/></g><g><polygon class="cls-45" points="621.04 442.54 624.28 448.03 620.5 448.11 617.26 442.61 620.28 436.99 624.06 436.91 621.04 442.54"/><polygon class="cls-45" points="626.22 442.43 629.46 447.93 625.68 448.01 622.44 442.51 625.46 436.88 629.23 436.81 626.22 442.43"/><polygon class="cls-45" points="631.4 442.33 634.63 447.83 630.86 447.91 627.62 442.41 630.63 436.78 634.42 436.71 631.4 442.33"/></g><g><polygon class="cls-45" points="283.58 67.34 289.07 64.1 289.15 67.89 283.65 71.13 278.02 68.11 277.95 64.33 283.58 67.34"/><polygon class="cls-45" points="283.47 62.16 288.97 58.92 289.05 62.71 283.55 65.95 277.92 62.93 277.85 59.15 283.47 62.16"/><polygon class="cls-45" points="283.37 56.99 288.87 53.75 288.95 57.53 283.44 60.76 277.82 57.75 277.75 53.97 283.37 56.99"/></g><g><polygon class="cls-45" points="621.04 597.3 624.28 602.8 620.5 602.88 617.26 597.38 620.28 591.75 624.06 591.68 621.04 597.3"/><polygon class="cls-45" points="626.22 597.2 629.46 602.7 625.68 602.78 622.44 597.28 625.46 591.65 629.23 591.57 626.22 597.2"/><polygon class="cls-45" points="631.4 597.1 634.63 602.6 630.86 602.67 627.62 597.17 630.63 591.55 634.42 591.47 631.4 597.1"/></g><path class="cls-45" d="M52.21,247.05c0-.8-.65-1.44-1.44-1.44h-9.43c-.8,0-1.44,.65-1.44,1.44v9.43c0,.8,.65,1.44,1.44,1.44h9.43c.8,0,1.44-.64,1.44-1.44v-9.43Zm-3.47,.38c.4,0,.72,.32,.72,.72s-.32,.72-.72,.72-.72-.32-.72-.72,.32-.72,.72-.72Zm-5.56,0c.4,0,.72,.32,.72,.72s-.32,.72-.72,.72-.72-.32-.72-.72,.32-.72,.72-.72Zm1.44,2.06l-.2,2.41c-.01,.15-.11,.28-.26,.34h0c-.14,.06-.24,.19-.25,.35l-.19,3.13c-.01,.21-.19,.37-.4,.37h-.27c-.21,0-.39-.16-.4-.37l-.19-3.13c0-.15-.11-.29-.25-.35-.15-.05-.24-.19-.26-.34l-.2-2.41c-.01-.2,.11-.38,.31-.42l.2-.04c.13-.03,.27,0,.37,.11l.28,.28c.16,.15,.41,.15,.56,0l.28-.28c.1-.1,.24-.14,.36-.11l.2,.04c.18,.05,.31,.23,.3,.43Zm1.53,6.59c0,.1-.09,.19-.19,.19s-.19-.09-.19-.19v-8.66c0-.11,.09-.19,.19-.19s.19,.09,.19,.19v8.66Zm4-3.85c-.14,.03-.22,.16-.2,.3l.08,.62c.02,.14-.08,.28-.23,.3l-.18,.02c-.12,.02-.22,.13-.23,.25l-.12,1.98c-.01,.21-.19,.37-.4,.37h-.27c-.21,0-.39-.16-.4-.37l-.12-1.98c0-.13-.11-.23-.23-.25l-.18-.02c-.14-.02-.25-.16-.23-.3l.08-.62c.02-.14-.07-.26-.2-.3-.14-.03-.23-.17-.19-.32l.54-2.58c.04-.18,.25-.27,.41-.17l.51,.33c.08,.06,.2,.06,.29,0l.51-.33c.16-.1,.37-.01,.41,.17l.55,2.58c.02,.14-.06,.28-.2,.32Z"/><path class="cls-45" d="M339.53,343.56c0-.8-.65-1.44-1.44-1.44h-9.43c-.8,0-1.44,.65-1.44,1.44v9.43c0,.8,.65,1.44,1.44,1.44h9.43c.8,0,1.44-.64,1.44-1.44v-9.43Zm-3.47,.38c.4,0,.72,.32,.72,.72s-.32,.72-.72,.72-.72-.32-.72-.72,.32-.72,.72-.72Zm-5.56,0c.4,0,.72,.32,.72,.72s-.32,.72-.72,.72-.72-.32-.72-.72,.32-.72,.72-.72Zm1.44,2.06l-.2,2.41c-.01,.15-.11,.28-.26,.34h0c-.14,.06-.24,.19-.25,.35l-.19,3.13c-.01,.21-.19,.37-.4,.37h-.27c-.21,0-.39-.16-.4-.37l-.19-3.13c0-.15-.11-.29-.25-.35-.15-.05-.24-.19-.26-.34l-.2-2.41c-.01-.2,.11-.38,.31-.42l.2-.04c.13-.03,.27,0,.37,.11l.28,.28c.16,.15,.41,.15,.56,0l.28-.28c.1-.1,.24-.14,.36-.11l.2,.04c.18,.05,.31,.23,.3,.43Zm1.53,6.59c0,.1-.09,.19-.19,.19s-.19-.09-.19-.19v-8.66c0-.11,.09-.19,.19-.19s.19,.09,.19,.19v8.66Zm4-3.85c-.14,.03-.22,.16-.2,.3l.08,.62c.02,.14-.08,.28-.23,.3l-.18,.02c-.12,.02-.22,.13-.23,.25l-.12,1.98c-.01,.21-.19,.37-.4,.37h-.27c-.21,0-.39-.16-.4-.37l-.12-1.98c0-.13-.11-.23-.23-.25l-.18-.02c-.14-.02-.25-.16-.23-.3l.08-.62c.02-.14-.07-.26-.2-.3-.14-.03-.23-.17-.19-.32l.54-2.58c.04-.18,.25-.27,.41-.17l.51,.33c.08,.06,.2,.06,.29,0l.51-.33c.16-.1,.37-.01,.41,.17l.55,2.58c.02,.14-.06,.28-.2,.32Z"/><text class="cls-39" transform="translate(377.25 631.15)"><tspan x="0" y="0"> </tspan><tspan class="cls-70" x="17.67" y="0">9</tspan><tspan class="cls-109" x="30.71" y="0">1</tspan><tspan x="43.65" y="0">0</tspan></text><g transform="translate(-19.000000, -107.000000)"><path class="cls-45" d="M319.3,737.47l1.19-1.79c.67-1.01,1.8-1.61,3.01-1.61h19.14c1.21,0,2.34,.61,3.01,1.61l1.19,1.79c.61-.08,1.22-.19,1.82-.33l7.33-1.63v-5.66c-.23,.07-.47,.13-.72,.19-1.38,.32-2.58,.4-4.11,.4-.79,0-1.99-.08-2.96-.24-1.35-.22-2.29-.51-2.75-1.12-2.12,.83-4.43,1.1-6.7,.78-2.98-.42-4.91-.63-5.7-.63s-2.71,.21-5.7,.63c-2.33,.33-4.71,.03-6.88-.86-.03,.02-.05,.04-.08,.05-.73,.43-1.59,.75-2.54,.97-1.38,.32-2.58,.4-4.11,.4-.79,0-1.99-.08-2.96-.24-.23-.04-.45-.08-.66-.12v5.43l7.33,1.63c.6,.13,1.21,.24,1.82,.33Zm2.76,.21c.13,0,.26,0,.39,0h21.26c.13,0,.26,0,.39,0l-.44-.67c-.22-.34-.6-.54-1-.54h-19.14c-.4,0-.78,.2-1,.54l-.44,.67Zm-11.92-10.11c.25,.09,.61,.17,1.05,.24,.83,.13,1.91,.21,2.57,.21,1.36,0,2.41-.07,3.56-.34,.05-.01,.09-.02,.14-.03-2.71-1.12-5.15-1.78-7.32-1.98,0,.04,0,.07,0,.11v1.79Zm-2.41,.45h0v-2.24c0-.83,.21-1.64,.61-2.36l2.32-4.15-4.36-.69h0c-.1-.02-.2-.05-.29-.09-.49-.24-.69-.84-.44-1.33l.36-.71c.16-.32,.45-.55,.79-.63h0l3.19-.8c.62-.15,1.25,.2,1.44,.8h0l.39,1.23,3.35-9.2c.87-2.39,3.13-3.97,5.67-3.97h24.62c2.54,0,4.81,1.59,5.67,3.97l3.26,8.97,.24-.93c.17-.63,.81-1.02,1.45-.87l3.38,.81c.34,.08,.63,.3,.79,.61l.38,.72c.25,.48,.07,1.07-.41,1.32-.09,.05-.2,.08-.3,.1l-4.36,.69,2.32,4.15c.4,.72,.61,1.53,.61,2.36v2.2s0,.06,0,.09v12.03c0,2-1.62,3.62-3.62,3.62h-6.04c-2,0-3.62-1.62-3.62-3.62v-.04c-.48,.03-.96,.04-1.44,.04h-21.26c-.48,0-.96-.01-1.44-.04v.04c0,2-1.62,3.62-3.62,3.62h-6.04c-2,0-3.62-1.62-3.62-3.62v-12.07Zm48.29-.74v-1.5s0-.07,0-.1c-2.27,.21-4.81,.91-7.62,2.1,.07,.01,.15,.03,.22,.04,.83,.13,1.91,.21,2.57,.21,1.36,0,2.41-.07,3.56-.34,.47-.11,.89-.24,1.27-.4Zm-44.87-3.93c2.88,.38,6.1,1.43,9.65,3.15,1.94,.93,4.11,1.27,6.24,.97,3.11-.44,5.09-.66,6.04-.66s2.93,.22,6.03,.66c2.13,.3,4.3-.04,6.24-.97,3.54-1.7,6.76-2.75,9.66-3.14l-2.05-3.67-5.42,.9c-.72,.12-1.45,.18-2.18,.18h-24.56c-.73,0-1.46-.06-2.18-.18l-5.42-.9-2.05,3.66Zm36.38,16.45c.02,.09,.04,.19,.04,.29,0,.67,.54,1.21,1.21,1.21h6.04c.67,0,1.21-.54,1.21-1.21v-2.12l-6.81,1.51c-.56,.12-1.11,.23-1.68,.31Zm-28.9,0c-.56-.09-1.12-.19-1.68-.31l-6.81-1.51v2.12c0,.67,.54,1.21,1.21,1.21h6.04c.67,0,1.21-.54,1.21-1.21,0-.1,.01-.2,.04-.29Zm30.17-31.13c-.52-1.43-1.88-2.38-3.4-2.38h-24.62c-1.52,0-2.88,.95-3.4,2.38l-3.18,8.74,4.83,.8c.59,.1,1.19,.15,1.79,.15h24.56c.6,0,1.2-.05,1.79-.15l4.83-.8-3.18-8.74Z"/></g><g><g><path class="cls-36" d="M440.99,47.49c.2-.31,.31-.67,.31-1.08,0-.42-.11-.81-.31-1.19-.2-.37-.48-.68-.84-.94-.36-.26-.77-.43-1.23-.51-.37-.05-.72,0-1.03,.15-.32,.15-.57,.38-.77,.69-.19,.31-.3,.67-.3,1.09,0,.42,.11,.81,.3,1.18,.2,.37,.45,.68,.77,.93,.32,.25,.66,.41,1.03,.47,.46,.07,.87,.03,1.23-.11,.36-.15,.64-.37,.84-.68Z"/><path class="cls-36" d="M436.78,74.23c-.03,.22-.04,.46-.04,.74v.35l1.99,.32v-.35c0-.25,0-.49-.04-.72-.03-.23-.11-.43-.25-.59-.14-.16-.36-.27-.68-.33-.33-.05-.57-.02-.71,.1-.14,.11-.23,.28-.27,.5Z"/><path class="cls-36" d="M429.61,59.98c0,12.82,4.23,23.21,9.45,23.21,5.22,0,9.45-10.39,9.45-23.21,0-12.82-4.23-23.21-9.45-23.21-5.22,0-9.45,10.39-9.45,23.21Zm9.3-9.54c-.81-.14-1.52-.46-2.14-.97-.61-.51-1.1-1.12-1.44-1.84-.35-.72-.52-1.47-.53-2.25,0-.78,.18-1.47,.53-2.08,.34-.61,.83-1.07,1.44-1.38,.61-.32,1.33-.41,2.14-.3,.87,.15,1.63,.46,2.29,.94,.66,.48,1.18,1.08,1.55,1.8,.37,.72,.56,1.51,.56,2.37,0,.86-.19,1.59-.56,2.19-.37,.6-.89,1.04-1.55,1.31-.66,.27-1.42,.34-2.29,.21Zm.84,22.09c.44,.55,.65,1.29,.65,2.19v1.17l2.65,.42v2.07l-7.98-1.26v-3.17c0-.58,.09-1.06,.27-1.47,.19-.41,.47-.7,.86-.88,.39-.18,.88-.22,1.49-.13,.94,.15,1.62,.51,2.06,1.06Zm-1.59-7.45l1.76,.28v3.55l1.38,.22v-3.68l1.76,.28v5.75l-7.98-1.26v-5.75l1.76,.28v3.68l1.33,.21v-3.55Zm-.47-7.37c.94,.16,1.62,.51,2.06,1.06,.44,.56,.65,1.28,.65,2.19v1.18l2.65,.42v2.07l-7.98-1.26v-3.18c0-.58,.09-1.06,.27-1.47,.19-.4,.47-.7,.86-.88,.39-.18,.88-.23,1.49-.14Zm1.38-.4c-.55-.09-1.08-.27-1.58-.55-.5-.28-.95-.64-1.34-1.09-.41-.46-.72-.98-.95-1.54-.22-.57-.34-1.13-.34-1.7,0-.66,.14-1.27,.4-1.83l2.49,.39c-.29,.17-.5,.41-.65,.7-.15,.3-.22,.62-.22,.98,0,.43,.1,.81,.3,1.16,.19,.35,.46,.64,.79,.87,.33,.23,.71,.38,1.12,.45,.64,.09,1.16-.02,1.56-.35,.4-.32,.6-.81,.61-1.47,0-.34-.08-.68-.23-1.02-.15-.34-.36-.64-.62-.9l2.49,.39c.11,.36,.2,.68,.26,.98,.07,.29,.1,.6,.11,.92,0,.56-.1,1.08-.31,1.56-.2,.48-.49,.89-.87,1.25-.4,.38-.85,.62-1.36,.75-.51,.13-1.06,.14-1.65,.05Zm8.49-3.57c.54,4.72,.41,4.24-.24,.08-1.29-8.28-4.73-14.64-8.82-14.64-1.27,0-2.73,.52-3.79,1.76,.46-.76,1.05-1.63,1.72-2.08,.78-.6,1.77-.93,2.65-.93,4.09,0,7.47,7.08,8.48,15.82Z"/><path class="cls-36" d="M436.78,60.47c-.03,.22-.04,.47-.04,.74v.35l1.99,.31v-.35c0-.25,0-.5-.04-.73-.03-.23-.11-.43-.25-.59-.14-.16-.36-.27-.68-.33-.33-.05-.57-.02-.71,.09-.14,.11-.23,.28-.27,.5Z"/></g><path class="cls-36" d="M429.58,71.76c-5.73-27.2,3.48-38.48,9.48-37.17,.09,.02,.18,.03,.27,.04-5.99-4-16.84-1.09-14.49,19.9,.51,4.51,2.42,11.2,4.75,17.23"/><path class="cls-36" d="M448.54,48.2c5.73,27.2-3.48,38.48-9.47,37.17-.09-.02-.18-.02-.27-.04,5.99,4,16.84,1.09,14.49-19.9-.51-4.51-2.42-11.2-4.75-17.23"/></g><g id="g10" transform="matrix(1.25,0,0,-1.25,0,172)"><g id="g12" transform="matrix(0.9991569,0,0,0.99581555,-1938.4245,-1808.7215)"><path id="path14" class="cls-36" d="M357.19,66.71c0,.82-.2,1.54-.61,2.14-.87,1.26-2.37,1.88-4.51,1.88-1.46,0-2.71-.33-3.75-1-1.16-.75-1.74-1.76-1.76-3.03h3.14c0,.56,.25,1,.74,1.32,.43,.28,.97,.41,1.6,.41,.56,0,1.05-.11,1.45-.32,.42-.23,.63-.53,.63-.89,0-.48-.61-.85-1.84-1.12-1.82-.42-2.97-.74-3.45-.97-1.23-.59-1.85-1.5-1.85-2.72,0-.72,.17-1.37,.52-1.97,.34-.59,.93-1.06,1.76-1.4,.82-.36,1.71-.54,2.67-.54,1.3,0,2.39,.31,3.28,.93,1.01,.69,1.55,1.67,1.63,2.94h-3.01c-.16-1.02-.84-1.54-2.04-1.54-.49,0-.92,.11-1.28,.32-.36,.22-.54,.49-.54,.82,0,.43,.62,.79,1.86,1.06,1.81,.4,2.97,.73,3.49,.97,1.24,.6,1.86,1.51,1.86,2.7Z"/><path id="path16" class="cls-36" d="M372.34,70.39h-3.06v-6.96c0-.81-.12-1.38-.37-1.71-.3-.39-.85-.58-1.63-.58-1.57,0-2.37,.89-2.37,2.66v6.59h-3.06v-11.52h2.93v1.08c0,.42,0,.63,.02,.63,0-.01,0-.02,.02-.02,.36-.63,.87-1.12,1.54-1.47,.68-.36,1.39-.54,2.15-.54,1.53,0,2.65,.6,3.34,1.79,.32,.58,.48,1.27,.48,2.07v7.98Z"/><path id="path18" class="cls-36" d="M383.68,66.71c0,.82-.2,1.54-.61,2.14-.87,1.26-2.37,1.88-4.51,1.88-1.46,0-2.71-.33-3.75-1-1.16-.75-1.75-1.76-1.76-3.03h3.14c0,.56,.25,1,.74,1.32,.43,.28,.97,.41,1.61,.41,.56,0,1.05-.11,1.45-.32,.42-.23,.63-.53,.63-.89,0-.48-.61-.85-1.85-1.12-1.82-.42-2.97-.74-3.45-.97-1.23-.59-1.84-1.5-1.84-2.72,0-.72,.17-1.37,.52-1.97,.35-.59,.93-1.06,1.76-1.4,.82-.36,1.71-.54,2.67-.54,1.3,0,2.39,.31,3.27,.93,1.01,.69,1.56,1.67,1.63,2.94h-3.02c-.16-1.02-.84-1.54-2.04-1.54-.49,0-.92,.11-1.28,.32-.36,.22-.54,.49-.54,.82,0,.43,.62,.79,1.86,1.06,1.81,.4,2.97,.73,3.49,.97,1.24,.6,1.87,1.51,1.87,2.7Z"/><path id="path20" class="cls-36" d="M391.5,64.77c-.3,.24-.84,.44-1.61,.58-.87,.16-1.43,.31-1.69,.45-.54,.27-.8,.75-.8,1.43,0,.87,.45,1.3,1.36,1.3,.42,0,.86-.09,1.3-.28,.45-.2,.79-.44,1.02-.71,.3-.37,.46-.93,.46-1.66,0-.13,0-.32-.02-.56-.01-.24-.02-.43-.02-.54h0Zm3.23,5.62h-2.84c-.09-.16-.18-.47-.28-.93-.71,.78-1.83,1.17-3.38,1.17-1.07,0-1.95-.24-2.65-.74-.81-.58-1.21-1.41-1.21-2.51,0-1.57,.61-2.65,1.84-3.24,.57-.27,1.71-.52,3.45-.74,1.23-.16,1.85-.49,1.85-1,0-.45-.19-.8-.57-1.06-.36-.27-.79-.41-1.28-.41s-.94,.14-1.3,.41c-.34,.25-.56,.59-.65,1.02h-2.95c.09-.82,.33-1.49,.66-2.01,.38-.58,.98-1.02,1.8-1.34,.77-.29,1.64-.43,2.6-.43,3.28,.03,4.92,1.59,4.92,4.69v7.11h0Z"/><path id="path22" class="cls-36" d="M360.96,57.37h-3.06v-3.05h3.06v3.05Z"/><path id="path24" class="cls-36" d="M360.96,70.39h-3.06v-5.76h3.06v5.76Z"/><path id="path26" class="cls-36" d="M406.02,71.04c0,1.53-.55,2.75-1.65,3.67-1.01,.82-2.23,1.23-3.64,1.23s-2.56-.4-3.51-1.21c-1.06-.91-1.58-2.15-1.58-3.72h2.84c0,.73,.22,1.31,.65,1.73,.38,.38,.85,.56,1.43,.56,.63,0,1.19-.22,1.67-.65,.51-.49,.76-1.13,.76-1.92v-1.77c-.22,.52-.61,.92-1.19,1.21-.56,.29-1.2,.43-1.91,.43-1.13,0-2.09-.33-2.88-.99-.91-.76-1.37-1.82-1.37-3.16v-7.59h3.06v7.13c0,1.43,.65,2.14,1.95,2.14,.69,0,1.26-.2,1.69-.61,.43-.4,.65-.92,.65-1.54v-7.13h3.04v12.17Z"/></g></g><g><path d="M279.24,298.46c-1.3,0-2.59-.01-3.89,0-.39,0-.57-.13-.52-.52,0-.01,0-.03,0-.05q-.01-1.07,1.05-1.19c.51-.06,.7-.3,.55-.8-.29-.96-.6-1.92-.92-2.87-.04-.11-.22-.24-.34-.24-2-.01-4.01-.01-6.01,0-.12,0-.3,.13-.35,.25-.37,.85-.73,1.71-1.06,2.58-.28,.73-.08,1.02,.72,1.1,.21,.02,.42,0,.63,.01,.09,0,.2-.03,.27,.02,.51,.35,.17,.88,.24,1.32,.04,.28-.16,.38-.43,.38-1.08,0-2.17,0-3.25,0-.69,0-1.39,0-2.08,0-.33,0-.48-.13-.44-.46,0-.01,0-.03,0-.05,.01-.36-.1-.8,.08-1.05,.14-.2,.61-.17,.95-.22,.57-.07,.85-.43,1.06-.92,1.53-3.67,3.07-7.33,4.6-11,.82-1.95,1.64-3.9,2.44-5.85,.16-.38,.37-.53,.78-.51,.59,.03,1.18,.03,1.76,0,.41-.02,.61,.13,.75,.53,1.64,4.7,3.29,9.39,4.95,14.09,.32,.92,.64,1.84,.97,2.76,.27,.75,.55,.94,1.34,.96q.66,.02,.66,.64c0,1.19,.1,1.07-1.06,1.07-1.14,0-2.29,0-3.43,0Zm-6.61-14.94l-3.11,7.71h5.45l-2.34-7.71Z"/><path d="M260.16,295.61c0,.8-.01,1.59,0,2.39,0,.36-.13,.49-.47,.47-.28-.02-.58,.02-.86-.01-.15-.02-.35-.1-.43-.22-.2-.28-.44-.31-.75-.25-1.07,.21-2.14,.51-3.23,.59-4.64,.34-8.13-2.1-9.4-6.57-.88-3.08-.71-6.13,.73-9.02,1.71-3.43,5.09-4.98,8.74-4.65,.91,.08,1.77,.31,2.59,.71,.56,.27,.79,.17,1.12-.33,.09-.13,.29-.25,.45-.27,.29-.04,.6,0,.9-.01,.31,0,.42,.13,.42,.44,0,1.61,0,3.21,0,4.82,0,.33-.14,.44-.46,.46-1.18,.05-1.17,.05-1.47-1.1-.28-1.09-.7-2.12-1.8-2.61-1.93-.85-3.68-.47-4.77,1.34-.72,1.19-1.08,2.51-1.23,3.87-.31,2.69-.26,5.37,.51,7.98,.21,.7,.58,1.38,1,2,1.3,1.95,5.42,1.74,6.25-.96,.15-.5,.29-1.01,.4-1.52,.06-.28,.18-.38,.46-.37,1.58,.03,1.27-.23,1.3,1.25,.01,.53,0,1.05,0,1.58Z"/><path d="M263.25,287.36l1.06,1.58c.26-.54,.5-1,.68-1.48,.1-.26,.21-.35,.48-.35,.55,.02,1.11,0,1.76,0-.19,.4-.14,.87-.74,.85-.12,0-.28,.17-.37,.29-.39,.53-.76,1.08-1.15,1.64,.32,.5,.88,.54,1.44,.55-.1,.76-.17,.81-.89,.82-.58,.01-1.14-.05-1.63-.44-.82,.54-1.71,.69-2.67,.53-1.03-.17-1.76-.81-1.93-1.7-.16-.82,.25-1.63,1.13-2.17,.21-.13,.45-.24,.6-.32-.12-.51-.32-.99-.31-1.47,.01-.38,.23-.82,.49-1.11,.69-.76,2.21-.86,3.04-.26,.78,.56,.84,1.66,.11,2.29-.33,.28-.72,.49-1.09,.74Zm-.05,2.67l-1.57-2.15c-.57,.42-.81,.95-.75,1.6,.05,.5,.3,.89,.8,1.04,.58,.17,1.09,.03,1.52-.48Zm-.63-3.39c.62-.3,.86-.69,.91-1.2,.04-.44-.24-.79-.6-.8-.38,0-.71,.31-.66,.74,.05,.41,.23,.81,.36,1.25Z"/></g><g><path class="cls-36" d="M178.59,227.86c.08,.08,.08,.2,0,.28s-.2,.08-.28,0-.08-.2,0-.28,.2-.08,.28,0"/><g><path class="cls-36" d="M179.32,229.43c.49,.78,1.21,1.91,1.21,1.91l-.82,.82s-1.13-.72-1.91-1.21c-.19-.12-.68-.42-.86-.52-.07-.04-.02-.15,.05-.12,.12,.04,.36,.13,.62,.21,.27,.09,.57,.18,.79,.26,.02,0,.03,0,.03,0,0,0,0,0-.02-.03,0,0-.24-.24-.51-.5-.32-.31-.63-.6-.67-.64-.06-.05,.02-.14,.08-.1,.17,.11,.49,.32,.8,.52,.27,.16,.52,.32,.62,.38,.02,.01,.03,0,.03,0,0,0,0-.01,0-.03-.06-.1-.22-.35-.38-.62-.2-.32-.41-.64-.52-.8-.04-.07,.05-.14,.1-.08,.38,.4,.76,.79,1.14,1.18,.02,.02,.03,.03,.04,.02,0,0,0,0,0-.03-.07-.22-.17-.52-.26-.79-.09-.25-.17-.5-.21-.61-.03-.07,.08-.13,.12-.05,.11,.18,.41,.68,.52,.86"/><path class="cls-36" d="M176.5,229.94c.08,.08,.08,.2,0,.28s-.2,.08-.28,0-.08-.2,0-.28,.2-.08,.28,0"/><path class="cls-36" d="M176.88,229c.08,.08,.08,.2,0,.28s-.2,.08-.28,0-.08-.2,0-.28,.2-.08,.28,0"/><path class="cls-36" d="M177.64,228.24c.08,.08,.08,.2,0,.28s-.2,.08-.28,0-.08-.2,0-.28,.2-.08,.28,0"/><path class="cls-36" d="M177.73,234.14l-1.26-1.26c-.21-.21-.32-.29-.46-.32-.16-.03-.31,.02-.43,.14-.31,.31-.29,.61,0,.9l1.35,1.35-.44,.44-2.71-2.71,.44-.44,.73,.73c0-.22,.11-.46,.27-.63,.62-.62,1.22-.39,1.66,.05l1.3,1.3"/><path class="cls-36" d="M173.03,235.41c-.07-.07-.07-.07-.04-.11,.04-.05,.11-.13,.18-.2,.03-.03,.05-.05,.07-.07,.37-.36,.92-.25,1.31,.14,.36,.36,.58,.78,.13,1.29-.01,.01-.02,.03-.04,.04-.06,.06-.15,.14-.24,.21-.03,.03-.03,.02-.07,0m.62-1.97c-.32-.32-.77-.52-1.1-.52-.15,0-.52,0-.96,.43,0,0-.33,.33-.46,.5-.14,.18-.17,.34,0,.51l2.72,2.72,.42-.42-.81-.81s.14-.12,.27-.25c.37-.37,.46-.71,.46-1.08,0-.48-.31-.86-.55-1.09"/><path class="cls-36" d="M173.41,238.46l-1.26-1.26c-.21-.21-.32-.29-.47-.32-.16-.03-.31,.02-.43,.14-.3,.3-.2,.52,.09,.81l1.35,1.35-.44,.44-1.35-1.35c-.29-.29-.49-.39-.8-.08-.13,.13-.18,.27-.15,.41,.03,.15,.14,.3,.34,.5l1.24,1.24-.44,.44-1.23-1.23c-.42-.42-.52-.63-.5-.98,.01-.26,.14-.52,.37-.75,.21-.21,.52-.32,.85-.31-.01-.33,.1-.64,.31-.85,.62-.62,1.22-.39,1.66,.05l1.3,1.3"/><path class="cls-36" d="M170.19,241.24c.01,.32-.13,.64-.4,.92s-.6,.41-.94,.4c-.32,0-.59-.14-.89-.44l-1.24-1.24,.44-.44,1.17,1.17c.3,.3,.63,.56,1.04,.16s.14-.74-.15-1.04l-1.17-1.17,.44-.44,1.24,1.24c.3,.3,.44,.58,.45,.89"/><rect class="cls-36" x="166.73" y="241.19" width=".63" height="3.01" transform="translate(-122.68 189.2) rotate(-45)"/><path class="cls-36" d="M165.67,240.82c.14,.14,.14,.36,0,.5s-.36,.14-.5,0-.14-.37,0-.5,.36-.14,.5,0"/><path class="cls-36" d="M165.57,242.74c-.34,.36-.13,.67,.14,.93l1.24,1.24-.44,.44-1.21-1.21c-.32-.32-.48-.62-.49-.92-.02-.36,.11-.63,.4-.89l.11-.1,.38,.38s-.07,.05-.13,.12"/><polyline class="cls-36" points="163.46 243.76 165.78 246.08 165.34 246.53 163.02 244.2 162.08 245.14 161.7 244.75 164.03 242.43 164.41 242.81"/></g></g><g><polygon class="cls-80" points="471.51 57.42 556.79 57.42 556.79 74.48 471.51 74.48 471.51 57.42 471.51 57.42"/><path class="cls-80" d="M561.06,66.17c0,3.27,1.65,6.2,4.55,7.64,2.73,1.35,6.36,1.35,9.1,0,2.7-1.33,4.54-4.36,4.54-7.64,0-5.01-4-9.1-9.09-9.1s-9.09,4.06-9.09,9.1h0Zm9.1-6.74c-.91,3.1-3.64,7.65-5.63,9.88h4.72v1.35c0,.77-.61,1.56-1.5,1.55-1.23-.01-2.77-.58-3.7-2.16-.68-1.15-1.17-2.06-1.17-3.88,0-3.98,3.2-7.27,7.28-7.27s7.28,3.39,7.28,7.27c0,1.82-.85,3.4-1.13,3.85-.99,1.61-2.51,2.18-3.68,2.2-.81,.01-1.55-.58-1.55-1.55v-1.35h4.79c-2.06-2.23-4.79-6.78-5.69-9.88h0Z"/><path class="cls-81" d="M544.3,62.62v7.57c0,.72-.59,1.3-1.3,1.3s-1.3-.59-1.3-1.3v-7.58c0-1.21,.99-2.2,2.2-2.2h7.49c1.84,0,3.33,1.49,3.33,3.33,0,1.37-.82,2.54-2,3.05l1.98,2.83c.38,.54,.24,1.29-.29,1.66-.54,.38-1.29,.24-1.66-.29l-2.75-3.93h-3.06c-1.21,0-2.2-.99-2.2-2.2v-.02h6.49c.61,0,1.11-.5,1.11-1.11s-.5-1.11-1.11-1.11h-6.92Zm-10.62,4.43l-2.41-3.44c-.07-.09-.16-.15-.28-.15s-.21,.05-.28,.15l-2.41,3.44h5.37Zm4.7,2.56c.38,.54,.24,1.29-.29,1.66-.54,.38-1.29,.24-1.66-.29l-1.2-1.71h-8.48l-1.2,1.71c-.38,.54-1.13,.67-1.66,.29-.54-.38-.67-1.12-.29-1.66l5.92-8.46c.35-.49,.86-.76,1.47-.76s1.12,.27,1.47,.76l5.92,8.46h0Zm-26.77-6.99v7.57c0,.72-.59,1.3-1.3,1.3s-1.3-.59-1.3-1.3v-7.58c0-1.21,.99-2.2,2.2-2.2h7.49c1.84,0,3.33,1.49,3.33,3.33s-1.49,3.33-3.33,3.33h-4.46c-1.21,0-2.2-.99-2.2-2.2v-.02h6.49c.61,0,1.11-.5,1.11-1.11s-.5-1.11-1.11-1.11h-6.92Zm-10.16,8.87c1.84,0,3.33-1.49,3.33-3.33s-1.49-3.33-3.33-3.33h-6.19c-.61,0-1.11-.5-1.11-1.11s.5-1.11,1.11-1.11h9.09v-.02c0-1.21-.99-2.2-2.2-2.2h-7.06c-1.84,0-3.33,1.49-3.33,3.33s1.49,3.33,3.33,3.33h6.19c.61,0,1.11,.5,1.11,1.11s-.5,1.11-1.11,1.11h-9.52v.02c0,1.21,.99,2.2,2.2,2.2h7.49Z"/></g><g><path d="M547.16,236.29v-.25c0-1.63,0-3.26,0-4.89,0-.24-.02-.48-.06-.71-.12-.65-.55-.98-1.21-.94-.97,.05-1.56,.68-1.57,1.65,0,1.63,0,3.26,0,4.89v.26h-2.33v-.25c0-1.67,0-3.35,0-5.02,0-.22-.03-.45-.08-.67-.12-.54-.46-.84-1.01-.88-.58-.05-1.11,.11-1.58,.46-.11,.08-.15,.18-.15,.32,0,1.93,0,3.85,0,5.78,0,.08,0,.16,0,.26h-2.33v-8.59h2.23v.61c.12-.07,.2-.12,.28-.17,.71-.43,1.47-.66,2.31-.58,.7,.07,1.27,.38,1.69,.94,.03,.04,.06,.08,.09,.13,.49-.48,1.05-.79,1.7-.95,.77-.19,1.55-.2,2.31,.03,1.14,.33,1.77,1.14,1.98,2.28,.06,.34,.08,.68,.09,1.03,0,1.67,0,3.35,0,5.02v.25h-2.34Z"/><path d="M553.26,236.33v2.66h-2.3v-11.28h2.17v.6c.11-.07,.17-.11,.24-.15,1.23-.79,3-.73,4.1,.14,.58,.46,.94,1.07,1.15,1.78,.32,1.08,.34,2.16,.05,3.24-.5,1.85-2.02,3.01-3.94,3.02-.48,0-.97,0-1.48,0Zm.03-1.84c.45,0,.89,0,1.33,0,.66-.01,1.2-.29,1.5-.88,.51-1.01,.55-2.08,.2-3.15-.13-.41-.44-.69-.86-.81-.69-.19-1.36-.12-2,.24-.14,.08-.19,.17-.19,.33,0,1.34,0,2.67,0,4.01,0,.07,0,.14,.01,.26Z"/><path d="M567.1,223.91v7.08c.29,0,.56,0,.83,0,.06,0,.13-.09,.18-.15,.66-.98,1.31-1.96,1.96-2.95,.09-.14,.19-.19,.36-.19,.74,0,1.49,0,2.28,0-.05,.08-.09,.14-.12,.19-.82,1.19-1.63,2.37-2.45,3.56-.09,.14-.1,.23-.01,.37,.89,1.44,1.76,2.89,2.64,4.34,.03,.04,.05,.08,.09,.15-.07,0-.13,.02-.19,.02-.74,0-1.48,0-2.21,0-.14,0-.21-.05-.28-.16-.66-1.05-1.33-2.08-1.99-3.13-.08-.13-.17-.18-.32-.17-.24,.01-.48,0-.74,0v3.45h-2.33v-12.4h2.33Z"/><path d="M535.56,232.59h-5.61c.08,1.13,.68,1.75,1.4,1.93,.98,.24,1.77-.08,2.26-.96l1.86,.75c-.26,.68-.68,1.21-1.29,1.57-.8,.48-1.69,.61-2.6,.56-.44-.02-.9-.1-1.32-.22-1.03-.31-1.79-.98-2.21-1.97-.62-1.45-.68-2.94-.06-4.41,.59-1.4,1.71-2.11,3.2-2.27,.85-.09,1.67,0,2.43,.43,1.06,.59,1.64,1.52,1.83,2.69,.1,.61,.09,1.24,.13,1.9Zm-2.15-1.53c.04-.87-.66-1.59-1.54-1.64-1.05-.05-1.76,.64-1.88,1.64h3.43Z"/><path d="M560.62,236.3v-6.69h-1.19v-1.9h3.52v8.59h-2.33Z"/><path d="M561.32,227.17l-.65-.69c.14-.18,.3-.36,.43-.56,.13-.2,.22-.43,.35-.69h-1.22v-2.39h2.35s.02,.02,.02,.03c-.01,.71,.01,1.42-.05,2.13-.08,.88-.61,1.55-1.24,2.18Z"/></g><g><path class="cls-114" d="M564.71,151.89c.21-.06,.11,.1,.07,.21-.02,.05-.03,.45-.07,.57-.03,.08-.54,.55-.64,.64-.65,.62-4.08,3.77-4.98,4.98-.57,.77-1.8,3.06-1.92,3.34-.21,.5-.27,.97-.57,1.35-.25,.32-1.35,.83-1.64,.78-.41-.07-.83-1.2-1.07-1.49-.25-.32-1.19-1.05-1.28-1.14-.23-.21-.38-.48-.21-.85,.14-.31,1.19-.86,1.64-.71,.36,.12,1.04,1.88,1.35,1.64,.79-.61,1.3-1.73,1.92-2.49,1.53-1.89,4.8-5.06,6.68-6.4,.21-.15,.49-.37,.71-.43"/><path class="cls-114" d="M538.7,183.4l3.56-25.54h3.63l-2.07,14.76,4.26-6.15h4.58l-5.52,7.8,3.42,9.12h-4.43s-1.95-5.74-2.71-7.88l-1.1,7.88"/><path class="cls-114" d="M557.16,183.4l3.56-25.54h3.63l-2.06,14.76,4.26-6.15h4.58l-5.52,7.8,3.42,9.12h-4.43s-1.95-5.74-2.71-7.88l-1.1,7.88"/><polyline class="cls-114" points="557.58 166.48 553.94 166.48 551.59 183.4 555.23 183.4"/></g><text class="cls-23" transform="translate(371.32 271.93) rotate(-90.42)"><tspan x="0" y="0">OLIM</tspan><tspan class="cls-99" x="13.61" y="0">P</tspan></text></g><polygon id="Nova_ParkV0004" class="cls-47" points="592.56 90.6 592.56 50.6 564.15 19.67 466.13 19.67 466.13 148.03 515.52 148.03 515.52 96.51 566.48 96.51 566.48 90.6 592.56 90.6"/><polygon id="Nova_ParkV0003" class="cls-47" points="464.33 148.03 464.33 19.67 414.61 19.67 414.61 95.74 427.84 95.74 427.84 148.03 464.33 148.03"/><polygon id="Nova_ParkV0002" class="cls-47" points="412.9 19.67 337.38 19.67 337.38 96.97 375.14 96.97 375.14 147.98 426.54 147.98 426.54 97.5 412.9 97.5 412.9 19.67"/><polygon id="Nova_ParkV0006" class="cls-48" points="583.48 149.82 592.56 149.82 592.56 198.58 541.96 198.58 541.96 193.91 503.8 193.91 503.8 163.76 531.55 163.76 531.55 131.08 583.48 131.08 583.48 149.82"/><rect id="Nova_ParkV0007" class="cls-48" x="503.8" y="195.35" width="37.06" height="15.75"/><polygon id="Nova_ParkV0008" class="cls-48" points="542.01 200.02 542.01 212.31 503.8 212.31 503.8 249.02 592.56 249.02 592.56 200.02 542.01 200.02"/><rect id="Nova_ParkV0010" class="cls-48" x="503.8" y="250.57" width="24.55" height="12"/><rect id="Nova_ParkV0011" class="cls-47" x="503.8" y="263.93" width="24.55" height="11.55"/><polygon id="Nova_ParkV0012" class="cls-47" points="529.98 250.57 529.98 277.1 503.8 277.1 503.8 311.61 592.56 311.61 592.56 250.57 530.76 250.57 529.98 250.57"/><rect id="Nova_ParkV0014" class="cls-47" x="489.97" y="327.98" width="38.38" height="15.57"/><rect id="Nova_ParkV0016" class="cls-47" x="489.97" y="345.2" width="27.73" height="16.32"/><rect id="Nova_ParkV0018" class="cls-47" x="489.97" y="363.25" width="27.82" height="14.64"/><polygon id="Nova_ParkV0022" class="cls-47" points="519.57 345.2 519.57 379.65 489.97 379.65 489.97 419.12 592.99 419.12 592.99 345.2 519.57 345.2"/><polygon id="Nova_ParkV0024" class="cls-47" points="486.44 463.12 486.44 503.68 493.03 503.68 493.03 516.72 566.13 516.72 566.13 503.54 592.65 503.54 592.65 463.12 486.44 463.12"/><polygon id="Nova_ParkV0026" class="cls-47" points="440.02 463.12 470.35 463.12 470.35 503 463.88 503 463.88 516.72 440.02 516.72 440.02 463.12"/><rect id="Nova_ParkV0028" class="cls-47" x="389.11" y="463.12" width="49.14" height="53.61"/><polygon id="Nova_ParkV0030" class="cls-47" points="387.51 463.12 364.36 463.12 364.36 516.72 387.51 516.72 387.51 463.53 387.51 463.12"/><polygon id="Nova_parkV0034" class="cls-47" points="313.27 463.12 362.58 463.12 362.58 516.72 262.18 516.72 262.18 503.53 256.68 503.53 256.68 486.32 285.42 486.32 285.42 490 313.27 490 313.27 463.12"/><rect id="Nova_ParkV0036" class="cls-47" x="287.04" y="463.12" width="24.74" height="25.25"/><rect id="Nova_ParkV0038" class="cls-47" x="256.68" y="463.12" width="28.74" height="21.88"/><polygon id="Nova_ParkV0040" class="cls-47" points="191.17 463.12 191.17 516.72 234.04 516.72 234.04 503.49 240.18 503.49 240.18 463.12 191.17 463.12"/><rect id="Nova_ParkV0042" class="cls-47" x="159.33" y="463.12" width="30.31" height="53.19"/><polygon id="Nova_ParkV0044" class="cls-47" points="79.75 463.12 79.75 484.88 67.29 484.88 67.29 516.72 157.88 516.72 157.88 463.12 79.75 463.12"/><polygon id="Nova_ParkV0050" class="cls-47" points="67.41 378.73 67.41 421.58 108.34 421.58 108.34 396.95 83.34 396.95 83.34 378.73 67.41 378.73"/><polygon id="Nova_ParkV0052" class="cls-47" points="85.43 395.14 85.43 377.51 67.41 377.51 67.41 353.94 108.34 353.94 108.34 395.14 85.43 395.14"/><rect id="Nova_ParkV0056" class="cls-47" x="67.41" y="328.12" width="40.93" height="23.67"/><polygon id="Nova_ParkV0058" class="cls-47" points="11.38 280.46 108.34 280.46 108.34 326.31 67.41 326.31 67.41 322.69 11.38 308.68 11.38 280.46"/><polygon id="Nova_ParkV0060" class="cls-47" points="57.5 243.8 57.5 262.19 13.67 262.19 11.38 270.8 11.38 278.73 108.34 278.73 108.34 265.14 106.41 256.08 81.41 256.08 81.41 243.8 57.5 243.8"/><path id="Nova_ParkV0067" class="cls-47" d="M30.8,198.04h60.49c9.72-25.03,40.35-24.41,40.35-24.41h59.57V45.83h-31.28l-84.29,23.36-31.41,79.86-13.43,48.99Z"/><path id="Nova_ParkV0064" class="cls-47" d="M90.75,199.8H56.98v18.52h14.83v10.26h21.78c-6.94-15.2-2.84-28.77-2.84-28.77Z"/><polygon id="Nova_ParkV0062" class="cls-47" points="83.18 243.43 83.18 254.74 105.9 254.74 101.99 243.43 83.18 243.43"/><polygon id="Nova_ParkV0102" class="cls-47" points="439.55 417.87 439.55 391.03 465.08 391.03 465.08 408.88 439.55 417.87"/><polygon id="Nova_ParkV0104" class="cls-47" points="465.08 389.17 465.08 353.36 427.39 353.36 427.39 378.73 439.19 378.73 439.19 389.17 465.08 389.17"/><polygon id="Nova_ParkV0100" class="cls-47" points="415.22 327.98 465.08 327.98 465.08 351.88 425.8 351.88 425.8 378.73 415.22 378.73 415.22 327.98"/><rect id="Nova_ParkV0110" class="cls-47" x="322.11" y="404.45" width="13.22" height="14.92"/><polygon id="Nova_ParkV0108" class="cls-47" points="322.11 277.16 322.11 320.53 335.33 320.53 335.33 335.77 344.2 335.77 344.2 367.95 322.11 367.95 322.11 402.8 336.77 402.8 336.77 419.36 387.18 419.36 387.18 351.75 413.1 351.75 413.1 277.16 322.11 277.16"/><polygon id="Nova_ParkV0096" class="cls-47" points="415.22 320.67 415.22 300.04 452.4 300.04 451.32 305.85 451.32 320.67 415.22 320.67"/><polygon id="Nova_ParkV0094" class="cls-47" points="415.22 277.16 415.22 298.33 453.04 298.33 457.41 277.16 415.22 277.16"/><polygon id="Nova_ParkV0092" class="cls-47" points="415.22 250.57 415.22 275.48 457.41 275.48 462.56 250.57 415.22 250.57"/><path id="Nova_ParkV0090" class="cls-47" d="M410.39,226.5h57.6l-4.81,22.52h-48.38l-10.56-7.34c6.41-8.56,6.15-15.18,6.15-15.18Z"/><polygon id="Nova_ParkV0082" class="cls-47" points="410.85 225.05 425.93 225.05 425.93 200.06 416.41 197.94 410.85 225.05"/><polygon id="Nova_ParkV0084" class="cls-47" points="427.39 200.02 427.39 225.05 440.54 225.05 440.54 203.22 427.39 200.02"/><polygon id="Nova_ParkV0086" class="cls-47" points="442.2 203.22 442.2 225.05 457.41 225.05 457.41 207.04 442.2 203.22"/><polygon id="Nova_ParkV0088" class="cls-47" points="458.99 206.95 458.99 225.05 467.99 225.05 471.03 210.1 458.99 206.95"/><path id="Nova_ParkV0152" class="cls-46" d="M389.78,249.96v25.52h23.32v-24.91l-10.25-7.43c-4.95,5.29-13.08,6.82-13.08,6.82Z"/><rect id="Nova_ParkV0150" class="cls-46" x="376.27" y="249.96" width="11.93" height="25.52"/><rect id="Nova_ParkV0148_" class="cls-46" x="364.32" y="249.96" width="10.71" height="25.52"/><rect id="Nova_ParkV0146" class="cls-46" x="352.55" y="249.96" width="10.05" height="25.52"/><rect id="Nova_ParkV0144" class="cls-46" x="337.67" y="249.96" width="13.42" height="25.61"/><rect id="Nova_ParkV0142" class="cls-46" x="322.11" y="249.96" width="14.66" height="25.05"/><rect id="Nova_ParkV0080" class="cls-46" x="362.6" y="199.47" width="10.78" height="25.58"/><polygon id="Nova_ParkV0078" class="cls-46" points="337.67 184.89 337.67 225.05 360.82 225.05 360.82 199.04 356.49 199.04 337.67 184.89"/><polygon id="Nova_ParkV0074" class="cls-46" points="289.18 149.26 289.18 206.28 312.57 225.05 336.53 225.05 336.53 184.22 291.35 149.99 289.18 149.26"/><path id="Nova_ParkV0072" class="cls-46" d="M236.33,121.97v39.49h13.6v21.99c16.99,5.96,37.4,21.52,37.4,21.52V121.97h-51Z"/><path id="Nova_ParkV0073" class="cls-46" d="M236.46,163.47h12.21v18.91c-4.9-2.68-12.21-4.54-12.21-4.54v-14.37Z"/><path id="Nova_ParkV0070" class="cls-46" d="M207.4,122.32h27.49v54.97c-15.53-4.6-27.49-3.66-27.49-3.66v-51.31Z"/><polygon id="Nova_ParkV0112" class="cls-46" points="260.15 313.19 260.15 349.34 236.33 349.34 236.33 397.99 262.96 397.99 262.96 419.36 311.78 419.36 311.78 313.19 260.15 313.19"/><rect id="Nova_ParkV0113" class="cls-46" x="236.33" y="398.85" width="25.1" height="20.51"/><polygon id="Nova_ParkV0114" class="cls-46" points="258.52 311.39 311.78 311.39 311.78 276.54 285.15 276.54 285.15 235.78 271.29 223.65 236.33 223.65 236.33 347.35 258.52 347.35 258.52 311.39"/><polygon id="Nova_ParkV0140" class="cls-46" points="287.12 237.14 287.12 275.01 298.64 275.01 298.64 245.36 287.12 237.14"/><path id="Nova_ParkV0141" class="cls-46" d="M300.48,246.53v28.48h11.3v-25.05c-5.15-.93-11.3-3.43-11.3-3.43Z"/><rect id="Nova_ParkV0116" class="cls-46" x="210.76" y="379.35" width="24.35" height="40.01"/><polygon id="Nova_ParkV0118" class="cls-46" points="235.11 277.16 235.11 378.33 209.25 378.33 209.25 419.36 145.3 419.36 172.46 391.69 172.46 277.16 235.11 277.16"/><polygon id="Nova_ParkV0120" class="cls-46" points="132.43 379.35 170.77 379.35 170.77 391.31 143.62 418.87 132.43 407.3 132.43 379.35"/><rect id="Nova_ParkV0122" class="cls-46" x="132.43" y="354.43" width="38.34" height="23.24"/><rect id="Nova_ParkV0124" class="cls-46" x="132.43" y="328.12" width="38.34" height="24.74"/><rect id="Nova_ParkV0126" class="cls-46" x="132.43" y="303.38" width="38.34" height="22.92"/><rect id="Nova_ParkV0128" class="cls-46" x="132.43" y="281.16" width="38.34" height="20.99"/><rect id="Nova_ParkV0130" class="cls-46" x="132.43" y="252.1" width="38.34" height="23.47"/><polygon id="Nova_ParkV0138" class="cls-46" points="172.32 252.1 172.32 275.57 235.11 275.57 235.11 223.65 201.03 223.65 201.03 252.1 172.32 252.1"/><rect id="Nova_ParkV0136" class="cls-46" x="185.67" y="223.65" width="13.71" height="26.8"/><rect id="Nova_ParkV0134" class="cls-46" x="158.91" y="223.65" width="24.9" height="26.8"/><path id="Nova_ParkV0132" class="cls-46" d="M157.55,223.65v26.8h-25.12v-5.98c6.08-20.83,25.12-20.83,25.12-20.83Z"/><rect id="Nova_ParkV0105" class="cls-47" x="389.11" y="353.36" width="24" height="65.76"/><polygon id="Nova_ParkV0103" class="cls-47" points="414.09 380.25 438.24 380.25 438.24 417.87 436.31 419.12 414.15 419.12 414.09 380.25"/></svg>