<?xml version="1.0" encoding="utf-8"?>
<!-- Generator: Adobe Illustrator 25.4.1, SVG Export Plug-In . SVG Version: 6.00 Build 0)  -->
<svg version="1.1" xmlns="http://www.w3.org/2000/svg" xmlns:xlink="http://www.w3.org/1999/xlink" x="0px" y="0px"
	 viewBox="0 0 1190.6 841.9" style="enable-background:new 0 0 1190.6 841.9;" xml:space="preserve">
<style type="text/css">
	.st0{fill:#F6F6F6;}
	.st1{fill:none;stroke:#000000;stroke-width:2;}
	.st2{fill:none;stroke:#000000;stroke-miterlimit:10;}
	.st3{fill-rule:evenodd;clip-rule:evenodd;fill:none;stroke:#000000;stroke-miterlimit:10;}
	.st4{fill:#ED7013;}
	.st5{font-family:'Axiforma-Bold';}
	.st6{font-size:5.5177px;}
	.st7{font-size:4.4094px;}
	.st8{font-size:4.9157px;}
	.st9{font-size:5.6775px;}
	.st10{font-size:7.9247px;}
	.st11{font-size:3.9155px;}
	.st12{fill-rule:evenodd;clip-rule:evenodd;}
	.st13{font-size:7.8979px;}
	.st14{font-size:9.7415px;}
	.st15{font-size:8.9599px;}
	.st16{font-size:5.6239px;}
	.st17{font-size:4.1736px;}
	.st18{font-size:4.5983px;}
	.st19{font-size:5.0006px;}
	.st20{font-size:3.7669px;}
	.st21{font-size:2.6184px;}
	.st22{font-size:3.3159px;}
	.st23{font-size:3.3117px;}
	.st24{font-size:2.8202px;}
	.st25{font-size:4.1001px;}
	.st26{font-size:4.3784px;}
	.st27{font-size:4px;}
	.st28{font-size:2.9682px;}
	.st29{font-size:6.3739px;}
	.st30{font-size:8.2001px;}
	.st31{font-size:5.8194px;}
	.st32{font-size:7.0562px;}
	.st33{font-size:4.9864px;}
	.st34{fill-rule:evenodd;clip-rule:evenodd;fill:#070606;}
	.st35{fill:#070606;}
	.st36{fill:#12100B;}
	.st37{fill:none;stroke:#12100B;stroke-miterlimit:10;}
</style>
<g id="cladire">
	<g>
		<polygon class="st0" points="480.3,741.1 480.3,608 356.7,608 357,412.6 298,397.5 300.6,354.6 301.6,345.2 318.1,288.5 
			332.6,234.1 366.7,150.2 452.5,125.6 519.3,107.1 519.3,169.4 611.4,169.4 611.4,100.8 856.8,100.8 892.3,128 892.3,717.7 
			868.9,741.1 		"/>
		<path class="st0" d="M855.1,105.8l32.2,24.7v198l0,269.7v117.6l-20.5,20.5H532.7h-47.3V603H361.7l0.3-194.3l-58.8-15.1l2.4-38.6
			l0.9-8.9l16.4-56.2l14.5-54.2l33-81.3l83.4-24l60.5-16.7v60.7h102.1v-68.6h15.8H855.1 M858.5,95.8h-3.4H632.2h-15.8h-10v10v58.6
			h-82.1v-50.7v-13.1l-12.7,3.5l-60.5,16.7l0,0l0,0l-83.4,24l-4.7,1.3l-1.8,4.5l-33,81.3l-0.2,0.6l-0.2,0.6l-14.4,54l-16.3,56.1
			l-0.2,0.9l-0.1,0.9l-0.9,8.9l0,0.2l0,0.2l-2.4,38.6l-0.5,8.2l8,2l51.3,13.1L351.7,603l0,10h10h113.6v123.1v10h10h47.3h334.1h4.1
			l2.9-2.9l20.5-20.5l2.9-2.9v-4.1V598.1l0-269.7v-198v-4.9l-3.9-3l-32.2-24.7L858.5,95.8L858.5,95.8z"/>
		<polygon class="st1" points="306.5,346.1 305.6,355.1 303.2,393.6 362,408.7 361.7,603 485.3,603 485.3,736.1 532.7,736.1 
			866.8,736.1 887.3,715.6 887.3,598.1 887.3,328.4 887.3,130.4 855.1,105.8 632.2,105.8 616.4,105.8 616.4,174.4 514.3,174.4 
			514.3,113.7 453.8,130.4 370.4,154.4 337.4,235.7 322.9,289.9 		"/>
	</g>
</g>
<g id="magazine">
	<polyline class="st2" points="632.2,105.8 632.2,184.3 668.8,184.3 668.8,208.1 784.5,208.1 784.5,201.4 810,201.4 810,183.1 
		839.3,183.1 839.3,176.4 855.1,176.4 855.1,166.7 860,166.7 860,109.2 	"/>
	<polyline class="st2" points="708.3,105.8 708.3,156.9 733.9,156.9 733.9,208.1 	"/>
	<polyline class="st2" points="693.7,208.1 693.7,235.5 669.4,235.5 669.4,208.1 	"/>
	<path class="st2" d="M681.5,284.2h-30.5l-63.9-48.7h-5.5v-27.4h-51.8v13.7h-28v28.9l0,1.5c56.2,0,70,23.2,108.8,51.2l67.3,0
		L681.5,284.2z"/>
	<line class="st2" x1="632.2" y1="269.8" x2="632.2" y2="303.3"/>
	<line class="st2" x1="581.7" y1="235.5" x2="581.7" y2="280.8"/>
	<line class="st2" x1="607" y1="250.6" x2="607" y2="300.7"/>
	<line class="st2" x1="555.8" y1="208.1" x2="555.8" y2="263.4"/>
	<line class="st2" x1="529.9" y1="221.8" x2="529.9" y2="254.6"/>
	<path class="st2" d="M322.9,289.9h4.1v7h48.7c5-31.6,23.5-45.3,52.5-45.4l59.9,0v-121h-34.3"/>
	<line class="st2" x1="428.2" y1="251.5" x2="428.2" y2="137.8"/>
	<line class="st2" x1="386.1" y1="269.8" x2="341.4" y2="225.1"/>
	<path class="st2" d="M351,296.9v13.6h10.7v5h18.6c-2.4-3.4-3.8-9.9-4.5-18.6"/>
	<polyline class="st2" points="306.5,346.1 351,346.1 351,327.8 388.4,327.8 394.5,346.1 394.5,505.6 362,505.6 362,408.7 
		303.2,393.6 	"/>
	<polyline class="st2" points="394.5,377.2 354.5,377.2 354.5,406.8 	"/>
	<line class="st2" x1="362" y1="436.9" x2="394.5" y2="436.9"/>
	<line class="st2" x1="362" y1="412" x2="394.5" y2="412"/>
	<polyline class="st2" points="361.7,570.5 374.3,570.5 374.3,555.6 485.3,555.6 531.7,555.6 535.5,561.3 535.5,588.5 529.7,588.5 
		529.7,596.9 485.3,596.9 485.3,603 	"/>
	<line class="st2" x1="485.3" y1="596.9" x2="485.3" y2="555.6"/>
	<polygon class="st2" points="760.6,555.6 657.4,555.6 555,555.6 550,560.9 550,580.8 553.5,580.8 553.5,588.9 556.9,588.9 
		556.9,598.1 746.8,598.1 746.8,592.3 760.6,592.3 760.6,588.5 764.8,588.5 764.8,561.7 	"/>
	<line class="st2" x1="657.4" y1="598.1" x2="657.4" y2="555.6"/>
	<line class="st2" x1="631.6" y1="555.6" x2="631.6" y2="598.1"/>
	<polyline class="st2" points="683.6,555.6 683.6,571.9 657.4,571.9 	"/>
	<polyline class="st2" points="887.2,598.1 790.1,598.1 790.1,589.4 778.9,589.4 778.9,561.4 783.2,555.6 783.2,411.3 824.3,411.3 
		824.3,428.7 887.2,428.7 	"/>
	<polyline class="st2" points="824.3,428.7 824.3,433.8 810.2,433.8 810.2,504.7 783.2,504.7 	"/>
	<line class="st2" x1="810.2" y1="462.9" x2="783.2" y2="462.9"/>
	<line class="st2" x1="810.2" y1="437.6" x2="783.2" y2="437.6"/>
	<polygon class="st2" points="713.5,263.6 771.4,275.7 748,385.9 748,411.3 760.6,411.3 760.6,496.7 615.3,496.7 615.3,451.7 
		637.6,451.7 637.6,421.9 629.3,421.9 629.3,408.2 615.3,408.2 615.3,342.7 682.9,342.7 682.9,361.8 679.7,361.8 679.7,367.2 
		687.2,367.2 687.2,360.3 697.3,360.3 697.3,342 	"/>
	<line class="st2" x1="769.5" y1="284.5" x2="708.7" y2="284.5"/>
	<line class="st2" x1="748.8" y1="271" x2="748.8" y2="284.5"/>
	<polyline class="st2" points="734,284.5 734,335.9 758.6,335.9 	"/>
	<line class="st2" x1="703.9" y1="310.2" x2="764.1" y2="310.2"/>
	<line class="st2" x1="637.6" y1="437.6" x2="760.6" y2="437.6"/>
	<line class="st2" x1="687.2" y1="367.2" x2="687.2" y2="437.6"/>
	<line class="st2" x1="734" y1="437.6" x2="734" y2="496.7"/>
	<line class="st2" x1="760.6" y1="462.9" x2="734" y2="462.9"/>
	<path class="st2" d="M434.9,490.7V331c3-8.2,8.3-13.1,16.7-13.8h78.8h32.4c20.7,22.5,39,27,43.9,25.9v153.6H440.8L434.9,490.7z"/>
	<line class="st2" x1="529.7" y1="496.7" x2="529.7" y2="317.2"/>
	<polyline class="st2" points="606.7,361.1 529.7,361.1 504.5,361.1 504.5,317.2 	"/>
	<line class="st2" x1="554.9" y1="317.2" x2="554.9" y2="361.1"/>
	<line class="st2" x1="581.1" y1="333.4" x2="581.1" y2="361.1"/>
	<polyline class="st2" points="606.7,437.6 581.1,437.6 581.1,496.7 	"/>
	<line class="st2" x1="529.7" y1="437.6" x2="434.9" y2="437.6"/>
	<polyline class="st2" points="434.9,462.9 453.8,462.9 479.3,462.9 479.3,496.7 	"/>
	<line class="st2" x1="453.4" y1="496.7" x2="453.4" y2="462.9"/>
	<polyline class="st2" points="479.3,467.1 494.4,467.1 494.4,496.7 	"/>
	<polyline class="st2" points="479.3,437.6 479.3,412.1 453.4,412.1 434.9,412.1 	"/>
	<polyline class="st2" points="440.9,321.5 453.4,335.9 453.4,412.1 	"/>
	<line class="st2" x1="453.4" y1="386.2" x2="434.9" y2="386.2"/>
	<line class="st2" x1="453.4" y1="361.1" x2="434.9" y2="361.1"/>
	<path class="st2" d="M887.2,398h-88.5v-87.8l11.4,0c14.6-25.7,15.6-50.7,0-74.7h-11.4v-19.7H862v112.6h25.3"/>
	<line class="st2" x1="862" y1="241" x2="813.4" y2="241"/>
	<line class="st2" x1="826.4" y1="215.8" x2="826.4" y2="241"/>
	<line class="st2" x1="862" y1="271" x2="821.4" y2="271"/>
	<line class="st2" x1="862" y1="303.3" x2="813.7" y2="303.3"/>
	<line class="st2" x1="862" y1="328.4" x2="798.7" y2="328.4"/>
	<line class="st3" x1="862" y1="256.7" x2="819.6" y2="256.7"/>
	<line class="st2" x1="722.6" y1="284.5" x2="722.6" y2="265.6"/>
	<line class="st2" x1="798.7" y1="362.4" x2="887.2" y2="362.4"/>
	<polyline class="st2" points="839.3,183.1 839.3,199.7 860,199.7 860,166.7 	"/>
	<line class="st2" x1="615.3" y1="451.7" x2="615.3" y2="408.2"/>
	<polyline class="st2" points="351,327.8 324.1,327.8 324.1,346.1 	"/>
</g>
<g id="logo">
	<path class="st4" d="M855.7,184.6c0-0.8-0.6-1.4-1.4-1.4H845c-0.8,0-1.4,0.6-1.4,1.4v9.2c0,0.8,0.6,1.4,1.4,1.4h9.2
		c0.8,0,1.4-0.6,1.4-1.4V184.6z M852.3,185c0.4,0,0.7,0.3,0.7,0.7c0,0.4-0.3,0.7-0.7,0.7c-0.4,0-0.7-0.3-0.7-0.7
		C851.6,185.3,851.9,185,852.3,185z M846.8,185c0.4,0,0.7,0.3,0.7,0.7c0,0.4-0.3,0.7-0.7,0.7c-0.4,0-0.7-0.3-0.7-0.7
		C846.1,185.3,846.4,185,846.8,185z M848.2,187l-0.2,2.4c0,0.2-0.1,0.3-0.3,0.3l0,0c-0.1,0.1-0.2,0.2-0.2,0.3l-0.2,3.1
		c0,0.2-0.2,0.4-0.4,0.4h-0.1h-0.1c-0.2,0-0.4-0.2-0.4-0.4l-0.2-3.1c0-0.2-0.1-0.3-0.2-0.3c-0.1-0.1-0.2-0.2-0.3-0.3l-0.2-2.4
		c0-0.2,0.1-0.4,0.3-0.4l0.2,0c0.1,0,0.3,0,0.4,0.1l0.3,0.3c0.2,0.2,0.4,0.2,0.6,0l0.3-0.3c0.1-0.1,0.2-0.1,0.4-0.1l0.2,0
		C848.1,186.6,848.2,186.8,848.2,187z M849.7,193.5c0,0.1-0.1,0.2-0.2,0.2c-0.1,0-0.2-0.1-0.2-0.2V185c0-0.1,0.1-0.2,0.2-0.2
		c0.1,0,0.2,0.1,0.2,0.2V193.5z M853.6,189.7c-0.1,0-0.2,0.2-0.2,0.3l0.1,0.6c0,0.1-0.1,0.3-0.2,0.3l-0.2,0c-0.1,0-0.2,0.1-0.2,0.2
		l-0.1,1.9c0,0.2-0.2,0.4-0.4,0.4h-0.1h-0.1c-0.2,0-0.4-0.2-0.4-0.4l-0.1-1.9c0-0.1-0.1-0.2-0.2-0.2l-0.2,0c-0.1,0-0.2-0.2-0.2-0.3
		l0.1-0.6c0-0.1-0.1-0.3-0.2-0.3c-0.1,0-0.2-0.2-0.2-0.3l0.5-2.5c0-0.2,0.2-0.3,0.4-0.2l0.5,0.3c0.1,0.1,0.2,0.1,0.3,0l0.5-0.3
		c0.2-0.1,0.4,0,0.4,0.2l0.5,2.5C853.9,189.5,853.8,189.6,853.6,189.7z"/>
	<path class="st4" d="M633.8,428.7c0-1-0.8-1.7-1.8-1.7h-11.4c-1,0-1.7,0.8-1.7,1.7v11.4c0,1,0.8,1.7,1.7,1.7H632
		c1,0,1.8-0.8,1.8-1.7V428.7z M629.6,429.2c0.5,0,0.9,0.4,0.9,0.9c0,0.5-0.4,0.9-0.9,0.9c-0.5,0-0.9-0.4-0.9-0.9
		C628.7,429.6,629.1,429.2,629.6,429.2z M622.8,429.2c0.5,0,0.9,0.4,0.9,0.9c0,0.5-0.4,0.9-0.9,0.9c-0.5,0-0.9-0.4-0.9-0.9
		C621.9,429.6,622.3,429.2,622.8,429.2z M624.6,431.7l-0.2,2.9c0,0.2-0.1,0.3-0.3,0.4l0,0c-0.2,0.1-0.3,0.2-0.3,0.4l-0.2,3.8
		c0,0.3-0.2,0.5-0.5,0.5h-0.2h-0.2c-0.3,0-0.5-0.2-0.5-0.5l-0.2-3.8c0-0.2-0.1-0.4-0.3-0.4c-0.2-0.1-0.3-0.2-0.3-0.4l-0.2-2.9
		c0-0.2,0.1-0.5,0.4-0.5l0.2-0.1c0.2,0,0.3,0,0.4,0.1l0.3,0.3c0.2,0.2,0.5,0.2,0.7,0l0.3-0.3c0.1-0.1,0.3-0.2,0.4-0.1l0.2,0.1
		C624.4,431.2,624.6,431.4,624.6,431.7z M626.4,439.7c0,0.1-0.1,0.2-0.2,0.2c-0.1,0-0.2-0.1-0.2-0.2v-10.5c0-0.1,0.1-0.2,0.2-0.2
		c0.1,0,0.2,0.1,0.2,0.2V439.7z M631.3,435c-0.2,0-0.3,0.2-0.2,0.4l0.1,0.8c0,0.2-0.1,0.3-0.3,0.4l-0.2,0c-0.2,0-0.3,0.2-0.3,0.3
		l-0.1,2.4c0,0.3-0.2,0.5-0.5,0.5h-0.2h-0.2c-0.3,0-0.5-0.2-0.5-0.5l-0.1-2.4c0-0.2-0.1-0.3-0.3-0.3l-0.2,0c-0.2,0-0.3-0.2-0.3-0.4
		l0.1-0.8c0-0.2-0.1-0.3-0.2-0.4c-0.2,0-0.3-0.2-0.2-0.4l0.7-3.1c0-0.2,0.3-0.3,0.5-0.2l0.6,0.4c0.1,0.1,0.2,0.1,0.4,0l0.6-0.4
		c0.2-0.1,0.4,0,0.5,0.2l0.7,3.1C631.5,434.8,631.4,434.9,631.3,435z"/>
	<path class="st4" d="M344.2,331.6c0-0.9-0.7-1.5-1.5-1.5h-10.1c-0.9,0-1.5,0.7-1.5,1.5v10.1c0,0.9,0.7,1.5,1.5,1.5h10.1
		c0.9,0,1.5-0.7,1.5-1.5V331.6z M340.5,332c0.4,0,0.8,0.3,0.8,0.8c0,0.4-0.3,0.8-0.8,0.8c-0.4,0-0.8-0.3-0.8-0.8
		C339.7,332.3,340,332,340.5,332z M334.5,332c0.4,0,0.8,0.3,0.8,0.8c0,0.4-0.3,0.8-0.8,0.8c-0.4,0-0.8-0.3-0.8-0.8
		C333.7,332.3,334.1,332,334.5,332z M336.1,334.2l-0.2,2.6c0,0.2-0.1,0.3-0.3,0.4l0,0c-0.2,0.1-0.3,0.2-0.3,0.4l-0.2,3.3
		c0,0.2-0.2,0.4-0.4,0.4h-0.1h-0.1c-0.2,0-0.4-0.2-0.4-0.4l-0.2-3.3c0-0.2-0.1-0.3-0.3-0.4c-0.2-0.1-0.3-0.2-0.3-0.4l-0.2-2.6
		c0-0.2,0.1-0.4,0.3-0.5l0.2,0c0.1,0,0.3,0,0.4,0.1l0.3,0.3c0.2,0.2,0.4,0.2,0.6,0l0.3-0.3c0.1-0.1,0.3-0.1,0.4-0.1l0.2,0
		C335.9,333.8,336.1,334,336.1,334.2z M337.7,341.2c0,0.1-0.1,0.2-0.2,0.2c-0.1,0-0.2-0.1-0.2-0.2V332c0-0.1,0.1-0.2,0.2-0.2
		c0.1,0,0.2,0.1,0.2,0.2V341.2z M342,337.1c-0.1,0-0.2,0.2-0.2,0.3l0.1,0.7c0,0.2-0.1,0.3-0.2,0.3l-0.2,0c-0.1,0-0.2,0.1-0.2,0.3
		l-0.1,2.1c0,0.2-0.2,0.4-0.4,0.4h-0.1h-0.1c-0.2,0-0.4-0.2-0.4-0.4l-0.1-2.1c0-0.1-0.1-0.2-0.2-0.3l-0.2,0c-0.2,0-0.3-0.2-0.2-0.3
		l0.1-0.7c0-0.1-0.1-0.3-0.2-0.3c-0.1,0-0.2-0.2-0.2-0.3l0.6-2.8c0-0.2,0.3-0.3,0.4-0.2l0.5,0.4c0.1,0.1,0.2,0.1,0.3,0l0.5-0.4
		c0.2-0.1,0.4,0,0.4,0.2l0.6,2.8C342.2,336.9,342.1,337.1,342,337.1z"/>
	<g>
		<polygon class="st4" points="544.1,626.9 537,631.1 536.9,626.2 544,622 551.3,625.9 551.4,630.8 		"/>
		<polygon class="st4" points="544.3,633.6 537.1,637.8 537,632.9 544.2,628.7 551.5,632.6 551.5,637.5 		"/>
		<polygon class="st4" points="544.4,640.3 537.3,644.5 537.2,639.6 544.3,635.4 551.6,639.3 551.7,644.2 		"/>
	</g>
	<g>
		<polygon class="st4" points="776.6,626.6 769.5,630.8 769.4,625.9 776.5,621.7 783.8,625.6 783.9,630.5 		"/>
		<polygon class="st4" points="776.8,633.3 769.6,637.5 769.5,632.6 776.7,628.4 784,632.3 784,637.2 		"/>
		<polygon class="st4" points="776.9,640 769.8,644.2 769.7,639.3 776.8,635.1 784.1,639 784.2,643.9 		"/>
	</g>
	<g>
		<path d="M642.6,146.8c-0.2,0.2-0.5,0.4-0.7,0.5c0,0,0,0,0,0c0-1-1-1.8-2.3-1.8s-2.3,0.8-2.3,1.8c0,0.9,0.8,1.6,1.8,1.8l0,2.6
			l0.5,0c0,0,0.1,0,0.2,0c0.7,0,3-0.1,4.3-1.5c1.2-1.3,2.7-1.1,2.7-1.1l0.6,0.1v-3.7l-0.5,0C646.8,145.4,644.2,145.4,642.6,146.8z
			 M638.4,147.3c0-0.4,0.5-0.8,1.3-0.8s1.3,0.4,1.3,0.8c0,0.4-0.5,0.8-1.2,0.8l-0.5-0.1l0,0C638.7,147.9,638.4,147.6,638.4,147.3z
			 M646.4,148.1c-0.7,0.1-1.9,0.3-3,1.4c-0.9,0.9-2.5,1.1-3.3,1.2l0-1.6c0.6-0.1,1.7-0.4,3-1.5c1-0.8,2.4-1,3.2-1.1V148.1z"/>
		<path d="M649.4,145.9c-0.4,0-0.7,0.2-0.7,0.6v4c0,0.3,0.3,0.6,0.7,0.6c0.4,0,0.7-0.2,0.7-0.6v-4
			C650.1,146.1,649.8,145.9,649.4,145.9z"/>
		<path d="M656.2,145.9c-0.4,0-0.7,0.2-0.7,0.5v2.9h0l-2.4-3.2c-0.2-0.2-0.4-0.3-0.7-0.3c-0.6,0-0.9,0.2-0.9,0.7v3.9
			c0,0.4,0.3,0.5,0.7,0.5c0.4,0,0.7-0.2,0.7-0.5v-2.8h0l2.4,3.1c0.2,0.2,0.3,0.3,0.8,0.3c0.6,0,0.8-0.3,0.8-0.7v-3.9
			C656.8,146.1,656.6,145.9,656.2,145.9z"/>
		<path d="M662.2,146h-4c-0.4,0-0.7,0.2-0.7,0.5c0,0.3,0.3,0.5,0.7,0.5h1.3v3.5c0,0.3,0.3,0.6,0.7,0.6s0.7-0.2,0.7-0.6V147h1.3
			c0.4,0,0.7-0.2,0.7-0.5C662.9,146.2,662.6,146,662.2,146z"/>
		<path d="M667.6,150h-2.8v-1.2h2.4c0.4,0,0.7-0.1,0.7-0.4c0-0.4-0.3-0.4-0.7-0.4h-2.4v-1.1h2.7c0.4,0,0.7-0.1,0.7-0.5
			c0-0.4-0.3-0.5-0.7-0.5h-3.3c-0.5,0-0.8,0.2-0.8,0.7v3.6c0,0.5,0.3,0.7,0.8,0.7h3.4c0.4,0,0.7-0.1,0.7-0.5
			C668.3,150.1,668,150,667.6,150z"/>
		<path d="M674.7,147.4c0-0.6-0.4-1.4-2.1-1.4h-2.3c-0.5,0-0.8,0.2-0.8,0.7v3.8c0,0.3,0.3,0.6,0.7,0.6s0.7-0.2,0.7-0.6V149h1.4
			c0.8,0,1,0.3,1,1.2c0,0.2,0.1,0.8,0.8,0.8c0.3,0,0.7-0.2,0.7-0.4c0-0.2-0.2-0.4-0.2-1c0-0.5-0.1-0.9-0.8-1v0
			C674.3,148.4,674.7,147.9,674.7,147.4z M672.2,148.2h-1.4v-1.3h1.4c0.6,0,1,0.1,1,0.7C673.3,148.1,672.7,148.2,672.2,148.2z"/>
		<path d="M697.5,146.8c-0.4-0.6-1.3-0.8-2.3-0.8h-2.7v1.9c-0.3-1.2-1.7-2-3.3-2c-1.5,0-2.8,0.7-3.2,1.7c-0.1-1.1-1.1-1.7-2.5-1.7
			h-2.8v2.9c-0.6-1.2-3.1-0.8-3.1-1.4c0-0.3,0.6-0.3,1-0.3c0.7,0,1.3,0.1,1.8,0.2V146c-0.6-0.1-1.4-0.2-2-0.2
			c-1.4,0-3.1,0.2-3.1,1.6c0,1.9,3.2,1.3,3.2,2c0,0.2-0.5,0.3-1,0.3c-0.7,0-1.5-0.1-2.1-0.3v1.3c0.9,0.2,1.6,0.2,2.5,0.2
			c1.1,0,2.5-0.2,2.8-1.1v1h2.1v-1.5h1.1c0.9,0,1.5-0.3,1.8-0.9c0,1.5,1.5,2.4,3.4,2.4c1.6,0,3-0.7,3.3-2v1.9h2.2v-1.6h0l1,1.6h2.6
			l-1.3-1.6c-0.1-0.1-0.3-0.2-0.4-0.3v0c0.8-0.2,1.2-0.5,1.2-1.3c0,0,0-0.1,0-0.1l1,0v3.4h2.2v-3.4l1.2,0v-1.6h-4.7V146.8z
			 M683.1,148.1h-0.2v-0.9h0.2c0.4,0,0.8,0,0.8,0.4C683.9,148,683.5,148.1,683.1,148.1z M689.2,149.3c-0.7,0-1.1-0.4-1.1-0.9
			c0-0.5,0.4-1,1.1-1c0.7,0,1.1,0.4,1.1,1C690.4,148.9,689.9,149.3,689.2,149.3z M694.9,148.1h-0.2v-0.8h0.2c0.4,0,0.7,0,0.7,0.4
			C695.6,148,695.2,148.1,694.9,148.1z"/>
		<path d="M703.6,146.2c0-0.1-0.1-0.2-0.3-0.2H703v0.6h0.2v-0.2h0.1l0.2,0.2h0.2l-0.2-0.2C703.6,146.3,703.6,146.3,703.6,146.2z
			 M703.4,146.3h-0.2v-0.1h0.1c0.1,0,0.2,0,0.2,0.1C703.5,146.3,703.5,146.3,703.4,146.3z"/>
		<path d="M703.3,145.8c-0.4,0-0.7,0.2-0.7,0.5c0,0.3,0.3,0.5,0.7,0.5c0.4,0,0.7-0.2,0.7-0.5C704,146,703.7,145.8,703.3,145.8z
			 M703.3,146.7c-0.3,0-0.5-0.2-0.5-0.4c0-0.2,0.2-0.4,0.5-0.4c0.3,0,0.5,0.2,0.5,0.4C703.8,146.6,703.6,146.7,703.3,146.7z"/>
	</g>
	<text transform="matrix(1 0 0 1 673.2194 225.1276)" class="st5 st6">BOBOQ</text>
	<text transform="matrix(1 0 0 1 803.4901 225.7711)"><tspan x="0" y="0" class="st5 st7">KUCHNIA </tspan><tspan x="8.7" y="2.6" class="st5 st7"> </tspan><tspan x="1.3" y="5.1" class="st5 st7">POLSKA</tspan></text>
	<text transform="matrix(1 0 0 1 832.5881 248.2545)"><tspan x="0" y="0" class="st5 st8">BERLIN </tspan><tspan x="-9.1" y="5.7" class="st5 st8">DONNER KEBAP</tspan></text>
	<text transform="matrix(1 0 0 1 826.6335 264.7968)" class="st5 st9">NORTH FISH</text>
	<g>
		<path d="M834.9,283.2h-0.5l-0.1,0.5c0.3,0,0.6,0.3,0.3,0.5c0,0-3.1,2.4-3.1,2.4l0.7-2.4c0.1-0.5,0.6-0.5,0.6-0.5l0.1-0.5l-3.7,0
			l-0.1,0.5c0.2,0,0.7,0.1,0.5,0.8c-1.2,4.4-1.1,4-1.2,4.2c-0.3,1.3-0.9,1.2-1.1,1.2l-0.1,0.5l0,0h0h3.8l0.1-0.5
			c0,0-0.6-0.1-0.5-0.6c0.1-0.4,0.6-2.2,0.6-2.2c1.7,2.7,2.1,3.2,3.6,3.2c0.5,0,1.1,0,1.9,0l0.1-0.5c-0.5,0-0.8-0.3-1-0.6
			c-0.1-0.1-0.6-0.9-1.1-1.6c-0.4-0.6-0.8-1.2-0.8-1.2l0.8-0.6l2.3-1.8c0.5-0.4,0.9-0.4,0.9-0.4l0.1-0.5L834.9,283.2z"/>
		<path d="M850.4,283.1c-0.4,0-0.8,0-1.2,0.1c-3.1,0.4-4.9,2.3-4.9,4.2c0,1.6,1.3,3.2,4.3,3.2c0.2,0,0.4,0,0.6,0
			c0.7,0,1.4-0.1,2-0.3l0.4-1.5c-0.6,0.2-1.3,0.4-1.9,0.4c-0.1,0-0.3,0-0.4,0c-1.4-0.1-2.3-1-2.3-2.2c0-1.2,0.9-2.1,2.3-2.4
			c0.2,0,0.5-0.1,0.8-0.1c0.9,0,1.4,0.3,1.7,0.7h0.3l0.5-1.8C852,283.3,851.2,283.1,850.4,283.1z"/>
		<path d="M842.4,283.2h-3.6l-0.1,0.5c0,0,0.7,0.1,0.5,0.8l-1.6,5.9l3.3,0l0.1-0.5c0,0-0.6-0.1-0.5-0.7c0-0.1,0.5-1.8,0.5-1.8l1.4,0
			h0.1c0.7,0,1,0.4,1,0.4l0.4-1.8h-1.5h-1l0.4-1.4h0.7l1.5,0c0.4,0,0.7,0.3,0.7,0.5h0.2l0.5-1.9H842.4z"/>
	</g>
	<text transform="matrix(1 0 0 1 828.2036 347.6864)" class="st5 st10">50 STYLE</text>
	<text transform="matrix(1 0 0 1 825.0236 381.2934)" class="st5 st6">SZACHOWNICA</text>
	<text transform="matrix(1 0 0 1 791.8424 424.9768)" class="st5 st6">BIG STAR</text>
	<text transform="matrix(1 0 0 1 786.0653 450.236)" class="st5 st11">CIPO&amp;BAXX</text>
	<path class="st12" d="M801.6,483.6c0.7,0,1.3-0.6,1.4-1.2c0.1-0.6-0.4-1.1-0.8-1.1c-0.3,0-0.7,0-1,0c-0.4,0.7-0.8,1.5-1.2,2.3
		C800.6,483.6,801,483.6,801.6,483.6z M802.2,478.9c0.4-0.8,0.8-1.5,1.2-2.2c0.5,0,0.7,0,1.1,0c0.5,0,0.8,0.5,0.8,0.8
		c0.1,0.4-0.1,0.8-0.4,1C804.3,479,803.2,478.9,802.2,478.9z M790.9,474.3h4.9l0.4,1.5l-6-0.4L790.9,474.3z M797,478.4l1.2-1.9
		l3.8-0.3l-3.5-0.2l1-1.7c0,0,2.5,0,6.2,0c3.8,0,3.9,1.6,3.6,2.7c-0.2,1.1-0.8,1.9-1.6,2.5c-0.9,0.5-1.7,0.6-1.7,0.6
		c0.7,0.5,1.3,1.7,1.2,2.5c0,0.8-0.1,1.6-1.5,2.6c-1.4,1.1-3.5,1.3-3.5,1.3h-8.6l-0.5-1.6l4.2-0.3l-4.3-0.3l-0.6-1.9l-1,1.9
		l-5.7-0.4l0.7-1.3l12.4-0.8l-11.6-0.7l0.6-1.1l12.6-0.8l-11.7-0.7l0.7-1.3l7-0.4L797,478.4z M790.8,484.9l-0.8,1.6h-6l0.6-1.1
		L790.8,484.9z"/>
	<text transform="matrix(1 0 0 1 810.863 527.243)" class="st5 st13">MEDIA EXPERT</text>
	<text transform="matrix(1 0 0 1 399.8149 582.8895)" class="st5 st14">ACAPULCO</text>
	<text transform="matrix(1 0 0 1 496.9669 578.6753)" class="st5 st15">SOLVIS</text>
	<g>
		<path d="M608.7,584.2c0.4,0.2,1,0.3,1.7,0.4c0.7,0.1,1.3,0.2,1.4,0.7c0,0.3-0.3,0.7-1.1,0.7c-1.1,0-1.3-0.6-1.3-1h-1.7
			c0.1,1.3,1.1,2.2,2.9,2.2c1.6,0,2.9-0.6,2.9-2.2c0-0.9-0.6-1.5-1.6-1.7c-1-0.3-2.4-0.2-2.4-0.9c0-0.4,0.5-0.6,1.1-0.6
			c1,0,1,0.5,1,0.9h1.6c-0.1-1.3-1.1-2.1-2.8-2.1c-1.7,0-2.7,0.9-2.7,2.1C607.8,583.4,608.1,584,608.7,584.2"/>
		<polygon points="588.1,578.5 585.1,573.4 579.5,576.6 580.6,578.5 588.1,578.5 		"/>
		<polygon points="590.5,587.1 592.1,587.1 592.1,580.7 590.5,580.7 590.5,587.1 		"/>
		<path d="M578.8,582.1c1,0,1.9,0.8,1.9,1.8c0,1-0.9,1.8-1.9,1.8c-1,0-1.9-0.8-1.9-1.8C576.9,582.9,577.8,582.1,578.8,582.1
			 M578.7,587.3c0.7,0,1.4-0.2,1.9-0.6v0.4h1.6v-6.4h-1.6v0.5c-0.6-0.4-1.2-0.6-1.9-0.6c-1.8,0-3.4,1.5-3.4,3.3
			C575.4,585.8,576.9,587.3,578.7,587.3"/>
		<polygon points="607.9,578.5 598.1,561.8 592.5,565 600.3,578.5 607.9,578.5 		"/>
		<path d="M586.2,585.8c-1,0-1.9-0.8-1.9-1.8c0-1,0.9-1.8,1.9-1.8c1,0,1.9,0.8,1.9,1.8C588.1,584.9,587.2,585.8,586.2,585.8
			 M586.2,580.6c-1.9,0-3.4,1.5-3.4,3.3c0,1.8,1.5,3.3,3.4,3.3c0.7,0,1.3-0.2,1.9-0.6v0.4h1.6v-8.6h-1.6v2.7
			C587.5,580.8,586.9,580.6,586.2,580.6"/>
		<polygon points="590.5,580.1 592.1,580.1 592.1,578.5 598,578.5 591.7,567.7 586.1,570.9 590.5,578.5 590.5,580.1 		"/>
		<path d="M603.5,585.8c-1,0-1.9-0.8-1.9-1.8c0-1,0.9-1.8,1.9-1.8c1,0,1.8,0.8,1.8,1.8C605.4,584.9,604.6,585.8,603.5,585.8
			 M607,587.1v-6.4h-1.6v0.5c-0.5-0.4-1.2-0.6-1.9-0.6c-1.8,0-3.4,1.5-3.4,3.3c0,1.8,1.5,3.3,3.4,3.3c0.7,0,1.4-0.2,1.9-0.6v0.4H607
			L607,587.1z"/>
		<path d="M596.1,585.8c-1,0-1.8-0.8-1.8-1.8c0-1,0.9-1.8,1.8-1.8c1,0,1.9,0.8,1.9,1.8C598,584.9,597.2,585.8,596.1,585.8
			 M596.1,580.6c-1.8,0-3.4,1.5-3.4,3.3c0,1.8,1.5,3.3,3.4,3.3c0.7,0,1.4-0.2,1.9-0.6v0.4h1.6v-8.6H598v2.7
			C597.5,580.8,596.8,580.6,596.1,580.6"/>
	</g>
	<g>
		<path class="st12" d="M657.3,568.1c-0.2-0.3-0.6-0.1-0.7,0c-1.2,0.7-1.3,1.9-1.7,2.6c-0.3,0.6-0.8,1-1.3,1c-0.3,0-0.7,0-1.1-0.2
			c-0.9-0.4-1.4-0.9-1.5-1c-0.2-0.2-2.1-2-3.7-2.1c0,0-0.2-0.4-0.2-0.4c-0.1,0-0.2,0.2-0.3,0.3c-0.1,0-0.2-0.3-0.3-0.2
			c-0.1,0-0.2,0.3-0.3,0.4c-0.1,0.1-0.2,0.1-0.3,0.2c0,0,0,0.1,0,0.2c-0.1,0.2-0.3,0.2-0.3,0.4c0,0.2,0.2,0.2,0.3,0.4
			c0.1,0.1,0.1,0.2,0.3,0.2c0.1,0,0.3-0.1,0.5,0c0.1,0,0.3,0.1,0.3,0.2c0,0.1,0,0.3-0.2,0.3c-0.1,0-0.3-0.1-0.6-0.1
			c-0.4,0-0.8,0.2-0.8,0.6c0,0.2,0.3,0.5,0.5,0.4c0.2,0,0.1-0.3,0.2-0.4c0.1-0.1,0.9,0.5,1.6,0.5c0.3,0,0.5-0.1,0.7-0.3
			c0,0,0-0.1,0.1-0.1c0,0,0.1,0,0.1,0c0.6,0.5,1,1.4,3.1,1.4c0.3,0,0.6,0.1,0.9,0.4c0.2,0.2,0.4,0.6,0.5,0.9
			c0.2,0.5,0.6,1.1,1.2,1.6c0,0,0.5,0.4,0.5,0.4c0,0,0,0.1,0,0.1c0,0.3-0.1,1.4,0.7,1.4c0.2,0,0.1-0.1,0.1-0.2c0-0.2,0-0.3,0.1-0.5
			c0.1-0.2-0.3-0.4-0.3-0.9c0-0.4-0.3-0.3-0.5-0.6c-0.1-0.2-0.2-0.3-0.2-0.5c0-1.2-0.3-2-0.4-2.2c-0.1-0.1-0.2-0.2-0.1-0.3
			c0.6-0.4,0.8-0.8,0.8-0.8c0.3-0.8,0.6-1.5,1-1.8c0.1-0.1,0.3-0.2,0.4-0.3c0.4-0.2,0.6-0.3,0.7-0.4
			C657.3,568.7,657.5,568.3,657.3,568.1z"/>
		<path class="st12" d="M638.4,579.8h2.7c0.3,0,0.5-0.2,0.5-0.5v-5.3H640l0,4.8c0,0.1-0.1,0.3-0.3,0.3c-0.1,0-0.3-0.1-0.3-0.3l0-4.8
			h-1.6v5.3C637.9,579.6,638.1,579.8,638.4,579.8z"/>
		<path class="st12" d="M643.7,575c0-0.1,0.1-0.3,0.3-0.3c0.1,0,0.3,0.1,0.3,0.3v4.8h1.6V575c0-0.1,0.1-0.3,0.3-0.3
			c0.1,0,0.3,0.1,0.3,0.3v4.8h1.6v-5.2c0-0.3-0.2-0.5-0.5-0.5H645h-2.4c-0.3,0-0.5,0.2-0.5,0.5v5.2h1.6V575z"/>
		<path class="st12" d="M635.2,578.3h1.6c0.3,0,0.5-0.2,0.5-0.5v-3.3c0-0.3-0.2-0.5-0.5-0.5h-3.2v5.7h1.6V578.3z M635.2,574.7h0.3
			c0.1,0,0.3,0.1,0.3,0.3v2.4c0,0.2-0.1,0.3-0.3,0.3h-0.3V574.7z"/>
		<path class="st12" d="M651.6,574.1h-2.7c-0.3,0-0.5,0.2-0.5,0.5v5.2h1.6v-1.4h0.5v1.4h1.6v-5.2
			C652.1,574.3,651.9,574.1,651.6,574.1z M650.5,577.6H650V575c0-0.1,0.1-0.3,0.3-0.3c0.1,0,0.3,0.1,0.3,0.3V577.6z"/>
		<path class="st12" d="M653.3,578.4c-0.4,0-0.7,0.3-0.7,0.7c0,0.4,0.3,0.7,0.7,0.7c0.4,0,0.7-0.3,0.7-0.7
			C654,578.7,653.7,578.4,653.3,578.4z M653.3,579.7c-0.3,0-0.6-0.3-0.6-0.6c0-0.3,0.3-0.6,0.6-0.6h0c0.3,0,0.6,0.3,0.6,0.6
			C653.9,579.4,653.7,579.7,653.3,579.7z"/>
		<path class="st12" d="M653.4,579.1c0.1,0,0.2-0.1,0.2-0.2c0-0.2-0.1-0.2-0.3-0.2h-0.2v0.8h0.2v-0.3l0.2,0.3h0.2L653.4,579.1
			L653.4,579.1z M653.2,579v-0.2h0c0.1,0,0.2,0,0.2,0.1C653.4,579,653.4,579,653.2,579L653.2,579z"/>
	</g>
	<g>
		<path d="M511.5,368.8c-0.8,0.4-1.4,0-2.4,2c-3.1,6.3-5.4,11.4-8.3,18.7c0.1-6,1.2-10.8,1.8-16.7c0.1-1.1,0.3-2.6,0.3-3.7
			c0-0.9-0.9-1-2.6-0.1c-1,0.5-2.1,0.4-2.6,1.6c-1.9,4.9-6.2,18.4-8.2,26.1c-0.5,1.8,1.3,2.1,1.9,0.3c1.3-4.6,4.4-14.7,6.2-19.9
			c-0.2,4.8-1.5,12.3-0.9,16.2c0.2,1.2,1.3,1.8,1.9,2.8c0.4,0.7,1.1,0.8,1.5-0.2c1.8-4.8,5.2-13.3,8.5-20.1
			c-0.7,3-3.1,15.7-3.8,20.7c-0.1,1,1.1,1,2.2,2.6c0.2,0.3,1.2,0.7,1.4-0.2c0.6-3,4.4-22.7,5.9-29
			C514.7,368.2,514.6,367.4,511.5,368.8z"/>
		<path d="M486.3,383.1c1.3-2,1.7-1.6,2-2.2c0.4-0.8,0.1-1.5-1.3-1.3c0,0-0.5,0-1.5,0.2c1.6-4,2.9-7.5,3.9-10.1
			c0.3-0.9,0.4-1.5-0.2-1.7c-0.6-0.1-2.3,0.8-3.3,1c-0.3,0.1-0.6,0.4-0.8,0.7c-1.7,3.8-3.2,7.5-4.5,10.8c-1.7,0.3-3.6,0.7-5.8,1.1
			c1.6-4,3.1-7.9,4.7-11.7c0.8-1.9-1.2-2-2-0.1c-1,2.5-2.9,7-4.9,12.4c-1.5,0.4-3.1,0.8-4.8,1.3c-1.2,0.4-1.3,0.7-0.7,1.4
			c0.3,0.4,0.9,0.4,1.2,0.7c0.7,0.8,1.2,1.7,2.4,1.8c-1.1,3.1-2.3,6.2-3.3,9.2c-0.6,1.9,1.2,2.3,1.9,0.3c1.1-3.3,2.4-6.5,3.6-9.8
			c1-0.2,3.5-0.8,5.9-1.3c-1.8,5-3,8.9-3.5,10.7c-0.1,0.4,0.1,0.6,0.1,0.7c0.6,0.9,1.2,0.9,2,2.1c0.2,0.3,0.9,0.5,1.2-0.3
			c1.7-5.1,3.4-10,5.1-14.3C484.4,384.5,485.6,384.2,486.3,383.1z"/>
		<path d="M487.6,390.9c-0.1,0.1-0.2,0.2-0.4,0.3c-0.1-0.4-0.3-0.9-0.4-1.3c0.4-0.5,0.8-1,1.1-1.5c1.4-2.1-1.3-3.4-2.5-2
			c-0.6,0.7-0.5,1.5-0.3,2.1c0.1,0.2,0.1,0.5,0.2,0.8c-0.3,0.3-0.7,0.8-1.3,1.4c-1.3,1.5-1,3.5,0.5,4c0.9,0.3,1.7-0.1,2.4-0.7
			c0,0.1,0.1,0.2,0.1,0.3c0.4,0.9,1.5,0.6,1.1-0.5c-0.1-0.2-0.2-0.5-0.3-0.8c0.2-0.3,0.4-0.6,0.6-0.8
			C489.2,390.9,488.4,390.2,487.6,390.9z M486.7,388c-0.1,0.1-0.2,0.3-0.4,0.4c0-0.1-0.1-0.2-0.1-0.3
			C485.8,386.6,487.5,387,486.7,388z M485.8,392.5c-0.5,0.3-0.9,0-0.2-1c0.1-0.2,0.2-0.3,0.4-0.5c0.1,0.4,0.2,0.7,0.4,1.1
			C486.1,392.3,485.9,392.4,485.8,392.5z"/>
	</g>
	<g id="Brandingmodul_x5F_Deichmann_x5F_quadratisch_x5F_vertikal">
		<path id="Deichmann" d="M624.5,386.9c0,0.8-0.4,1.7-1.4,1.7l-1.3,0l0-3.4l1.2,0C623.9,385.2,624.5,385.8,624.5,386.9 M626.3,386.9
			c0-1.7-1.1-3.1-3.1-3.1c-0.1,0-3.2,0-3.2,0l0,6.2c0,0,3.1,0,3.2,0C625.3,390,626.3,388.6,626.3,386.9 M627.3,390l5.2,0l0-1.3
			l-3.4,0l0-1.1l2.8,0l0-1.3l-2.8,0l0-1.1l3.4,0l0-1.3l-5.2,0L627.3,390z M633.8,390l1.8,0l0-6.2l-1.8,0L633.8,390z M638.6,386.8
			c0-1,0.4-1.9,1.5-1.9c0.8,0,1.1,0.5,1.3,1l1.8,0c-0.1-1.4-1.3-2.3-3.1-2.3c-2.2,0-3.3,1.5-3.3,3.3c0,1.8,1.1,3.3,3.3,3.3
			c1.9,0,2.9-1.1,3-2.4l-1.8,0c-0.1,0.5-0.5,1-1.3,1C639,388.7,638.6,387.9,638.6,386.8 M648.5,389.9l1.8,0l0-6.2l-1.8,0l0,2.4
			l-2.6,0l0-2.4l-1.8,0l0,6.2l1.8,0l0-2.4l2.6,0L648.5,389.9z M657.8,389.8l1.6,0l0-6.2l-2.6,0l-1.2,4.1h0l-1.2-4.1l-2.6,0l0,6.2
			l1.6,0l0-4.6h0l1.4,4.6l1.5,0l1.4-4.6h0L657.8,389.8z M664.4,387.5l-1.5,0l0.7-2.3h0L664.4,387.5z M665.2,389.8l1.9,0l-2.3-6.2
			l-2.2,0l-2.3,6.2l1.9,0l0.3-1l2.3,0L665.2,389.8z M672.1,389.7l2,0l0-6.2l-1.7,0l0,3.9h0l-2.5-3.8l-2.1,0l0,6.2l1.7,0l0-3.9h0
			L672.1,389.7z M681.9,389.7l0-6.2l-1.7,0l0,3.9h0l-2.5-3.8l-2.1,0l0,6.2l1.7,0l0-3.9h0l2.6,3.9L681.9,389.7z"/>
	</g>
	<g>
		<path d="M707.2,390.1c-1.9,1.1-4,1.6-6.2,1.6c-2.6,0-4.7-0.8-6.3-2.3c-1.7-1.6-2.5-3.6-2.5-6.1c0-2.5,0.8-4.6,2.5-6.1
			c1.7-1.6,3.9-2.3,6.7-2.3c2,0,3.9,0.5,5.7,1.3v3.8c-1.8-1.2-3.6-1.7-5.4-1.7c-1.6,0-2.9,0.5-3.9,1.4c-0.9,0.9-1.4,2.1-1.4,3.7
			c0,1.5,0.4,2.7,1.3,3.6c0.9,0.9,2.1,1.4,3.6,1.4c2,0,3.9-0.7,5.9-2.1V390.1L707.2,390.1z"/>
		<path d="M741.2,390.1c-1.9,1.1-4,1.6-6.2,1.6c-2.6,0-4.7-0.8-6.3-2.3c-1.7-1.6-2.5-3.6-2.5-6.1c0-2.5,0.8-4.6,2.5-6.1
			c1.7-1.6,3.9-2.3,6.7-2.3c2,0,3.9,0.5,5.7,1.3v3.8c-1.8-1.2-3.6-1.7-5.4-1.7c-1.6,0-2.9,0.5-3.9,1.4c-0.9,0.9-1.4,2.1-1.4,3.7
			c0,1.5,0.4,2.7,1.3,3.6c0.9,0.9,2.1,1.4,3.6,1.4c2,0,3.9-0.7,5.9-2.1V390.1L741.2,390.1z"/>
		<path d="M724.2,390.1c-1.9,1.1-4,1.6-6.2,1.6c-2.6,0-4.7-0.8-6.3-2.3c-1.7-1.6-2.5-3.6-2.5-6.1c0-2.5,0.8-4.6,2.5-6.1
			c1.7-1.6,3.9-2.3,6.7-2.3c2,0,3.9,0.5,5.7,1.3v3.8c-1.8-1.2-3.6-1.7-5.4-1.7c-1.6,0-2.9,0.5-3.9,1.4c-0.9,0.9-1.4,2.1-1.4,3.7
			c0,1.5,0.4,2.7,1.3,3.6c0.9,0.9,2.1,1.4,3.6,1.4c1.9,0,3.9-0.7,5.9-2.1V390.1L724.2,390.1z"/>
	</g>
	<g>
		<path d="M646.2,464.5l1.5,1.5v3.7H644v-1.2c0-1.1,0-1.2-0.4-1.6c-0.4-0.4-0.5-0.4-2.3-0.4c-1.9,0-1.9,0-2.3,0.4l-0.4,0.4v7.9
			l0.4,0.4c0.4,0.4,0.4,0.4,2.3,0.4s1.9,0,2.3-0.4c0.4-0.4,0.4-0.5,0.4-1.4v-1h3.8v3.4l-3.1,3.1h-6.8l-3.1-3.1v-10.6l3.1-3.1h6.8
			L646.2,464.5z"/>
		<path d="M661.9,475.1l2.7-2.7V466l-1.6-1.5l-1.6-1.5h-9.9v16.8h3.6l0-2.1l0-2.1l1,0l1,0l5.4,5.4l2.6-2.6L661.9,475.1z
			 M660.4,471.6L660,472h-4.8v-2.7c0-1.5,0-2.7,0.1-2.8c0,0,1.1,0,2.4,0c2.3,0,2.3,0.1,2.7,0.4c0.4,0.4,0.4,0.4,0.4,2.3
			C660.8,471.1,660.8,471.2,660.4,471.6z"/>
		<path d="M681.7,465.4l-2.5-2.5H675l-7.5,7.5v4.4l4.9,4.9h4.2l7.5-7.5v-4.4L681.7,465.4z M680.5,470.6l-2.8,2.8
			c-2.7,2.7-2.8,2.8-3.4,2.8c-0.5,0-0.7-0.1-1.9-1.3c-1.3-1.3-1.3-1.3-1.3-2v-0.7l2.8-2.8c2.7-2.7,2.8-2.8,3.4-2.8
			c0.5,0,0.7,0.1,1.9,1.3c1.3,1.3,1.3,1.3,1.3,2V470.6z"/>
		<path d="M698.5,464.5l-1.6-1.5h-5c-2.7,0-4.9,0-4.9,0.1c0,0,0,3.8,0,8.4v8.3l3.6,0.1V476h6.3l3.1-3.1V466L698.5,464.5z
			 M696.3,471.5l-1,1h-4.6v-2.9c0-1.6,0-3,0.1-3c0,0,1.1,0,2.4,0c2.3,0,2.3,0.1,2.7,0.4c0.4,0.4,0.4,0.4,0.4,2.5V471.5z"/>
		<path d="M715,464.5l-1.5-1.5h-4.9c-3.8,0-4.9,0-5,0.2c0,0.1-0.1,3.9,0,8.4l0,8.2h3.6l0-1.9l0-1.8h6.3l3-3v-7L715,464.5z
			 M712.8,469.6c0,2.1,0,2.1-0.4,2.5l-0.4,0.4h-4.6v-5.9l2.2,0l2.2,0l0.5,0.5l0.5,0.5L712.8,469.6z"/>
	</g>
	<text transform="matrix(1 0 0 1 741.3647 453.7481)" class="st5 st16">FART</text>
	<text transform="matrix(1 0 0 1 737.1232 480.994)" class="st5 st17">BAG HAUSE</text>
	<text transform="matrix(1 0 0 1 737.5626 321.5167)"><tspan x="0" y="0" class="st5 st18">MADAME </tspan><tspan x="9.2" y="2.7" class="st5 st18"> </tspan><tspan x="-1" y="5.3" class="st5 st18">ELEGANCE</tspan></text>
	<text transform="matrix(1 0 0 1 741.0917 299.0082)" class="st5 st19">BASHMIR</text>
	<text transform="matrix(1 0 0 1 709.4892 299.0084)"><tspan x="0" y="0" class="st5 st20">SZNUROWKA </tspan><tspan x="10.5" y="2.2" class="st5 st20"> </tspan><tspan x="4.1" y="4.4" class="st5 st20">SPOKKA</tspan></text>
	<text transform="matrix(1 0 0 1 753.0023 278.7477)"><tspan x="0" y="0" class="st5 st21">NEW YORK </tspan><tspan x="5.9" y="1.5" class="st5 st21"> </tspan><tspan x="0.6" y="3" class="st5 st21">HOT DOG</tspan></text>
	<text transform="matrix(1 0 0 1 727.3112 278.9234)" class="st5 st22">KANDULSKI</text>
	<text transform="matrix(1 0 0 1 712.5435 278.9237)" class="st5 st23">RUCH</text>
	<text transform="matrix(1 0 0 1 483.843 478.6349)"><tspan x="0" y="0" class="st5 st24">BLUE </tspan><tspan x="3" y="1.6" class="st5 st24"> </tspan><tspan x="-2.5" y="3.3" class="st5 st24">SHADOW</tspan></text>
	<text transform="matrix(1 0 0 1 585.339 463.8953)" class="st5 st25">MEDICINE</text>
	<text transform="matrix(1 0 0 1 437.9098 400.5605)" class="st5 st26">ALOIW</text>
	<text transform="matrix(1 0 0 1 438.3294 373.1408)"><tspan x="0" y="0" class="st5 st27">TRADE</tspan><tspan x="0.3" y="4" class="st5 st27">MODE</tspan></text>
	<text transform="matrix(1 0 0 1 439.0966 343.3057)"><tspan x="0" y="0" class="st5 st28">REPORTER </tspan><tspan x="6.4" y="1.7" class="st5 st28"> </tspan><tspan x="1.7" y="3.4" class="st5 st28">YOUNG</tspan></text>
	<text transform="matrix(1 0 0 1 532.2159 340.2577)" class="st5 st29">5.10.15</text>
	<text transform="matrix(1 0 0 1 585.2037 353.9908)" class="st5 st30">PINO</text>
	<text transform="matrix(1 0 0 1 558.0803 238.1892)" class="st5 st31">TATUUM</text>
	<text transform="matrix(1 0 0 1 612.9349 278.9771)"><tspan x="0" y="0" class="st5 st30">TOP </tspan><tspan x="7" y="4.7" class="st5 st30"> </tspan><tspan x="-2.1" y="9.5" class="st5 st30">TOYS</tspan></text>
	<text transform="matrix(1 0 0 1 338.6609 278.9771)" class="st5 st30">DIVERSE</text>
	<text transform="matrix(1 0 0 1 825.2332 318.8124)" class="st5 st32">SIZEER</text>
	<text transform="matrix(1 0 0 1 661.4973 565.8102)" class="st5 st33">PIT BULL</text>
	<path class="st4" d="M794,255.8c-0.2,0-1,0.2-1.8,0.4c-5.8,1.5-10.4,6.2-12.1,12.1c-0.5,1.8-0.7,5.3-0.4,7.2
		c0.8,5.2,4.2,9.9,8.9,12.4c1.9,1,5.4,2.1,5.4,1.7c0-0.4-1.9-10.3-2.1-10.7c-0.1-0.2-0.9-1.1-1.7-1.9c-1.8-1.6-2.2-2.3-2.5-3.7
		c-0.3-1.2-1.6-9.6-1.6-10.1c0-0.4,0.5-0.7,0.8-0.5c0.1,0.1,0.6,2.3,1.2,4.9c1,4.4,1.1,4.7,1.4,4.8c0.2,0,0.4,0,0.4-0.2
		c0-0.1-0.4-2.3-1-4.9c-0.6-2.6-1-4.8-1-4.9c0-0.1,0.2-0.1,0.5-0.1h0.4l1.1,4.8c1.1,5,1.2,5.2,1.8,4.8c0.2-0.1,0.1-0.9-0.8-4.9
		c-0.6-2.6-1-4.9-1-5c0-0.1,0.2-0.2,0.5-0.2c0.3,0,0.4,0.1,1,3c1.6,7.1,1.5,6.7,1.8,6.8c0.2,0,0.4,0,0.4-0.2c0-0.1-0.4-2.3-1-4.9
		c-1-4.3-1-4.8-0.8-4.9c0.6-0.5,0.7-0.2,2.2,5.2c1.4,5,1.5,5.3,1.5,6.4c0,1-0.2,1.4-0.8,2.8c-0.5,1.1-0.7,1.8-0.7,2.3
		c0,0.8,2.9,10.9,3,10.6c0-0.1,0.4-1.8,0.8-3.6l0.7-3.4l-0.3-0.8c-0.3-0.9-0.3-1.6,0.2-5.9c0.3-3,0.8-5.4,1.8-8.7
		c1-3.4,2.1-5.5,3.3-6.8c1.6-1.6,2.6-1.5,2.6,0.4c0,1.3-3.8,21.1-4.2,21.8c-0.2,0.4-0.5,1.8-0.9,3.7c-0.3,1.7-0.6,3.3-0.6,3.5
		l-0.1,0.4l0.8-0.2c3.3-0.9,5.8-2.4,8.1-4.8c3.1-3.2,4.6-7.2,4.7-11.7c0-4.8-1.7-9-5.1-12.4c-2.4-2.4-5.6-4-8.9-4.7
		C798.9,255.7,795,255.6,794,255.8L794,255.8z M794,255.8"/>
	<g>
		<path d="M477.6,213.4c-1.2,0-2.2-0.1-3.2-0.6c-0.4-0.2-0.8-0.4-1.1-0.8c-0.6-0.7-0.5-1.4,0-2.1c0.4-0.4,0.8-0.7,1.3-0.9
			c1.9-0.7,3.7-0.7,5.5,0.2c0.4,0.2,0.8,0.5,1.1,0.8c0.2,0.3,0.1,0.6-0.2,0.7c-1,0.3-2.1,0.7-3.1,1c-0.1,0-0.3,0-0.4-0.1
			c-0.2-0.2-0.2-0.5,0.1-0.7c0.1,0,0.2-0.1,0.3-0.1c0.3-0.1,0.3-0.5,0.1-0.7c-0.3-0.3-0.9-0.4-1.3-0.1c-0.4,0.2-0.6,0.7-0.5,1.2
			c0.1,0.5,0.5,0.8,1,0.8c0.3,0,0.7,0,1,0c0.3,0,0.4,0.1,0.4,0.4c0,0.2,0,0.4,0,0.5c0,0.2-0.1,0.3-0.3,0.4
			C478,213.4,477.8,213.4,477.6,213.4z"/>
		<g>
			<path d="M461.9,190.2c0,0.9,0,1.7,0,2.6c0,0.4-0.1,0.5-0.5,0.5c-0.5,0-1.1,0-1.6,0c-0.5,0-0.6-0.1-0.6-0.6c0-1.7,0-3.4,0-5.1
				c0-0.5-0.1-0.6-0.6-0.6c-0.1,0-0.1,0-0.2,0c-0.4,0-0.6,0.2-0.8,0.5c-0.8,1.7-1.6,3.5-2.4,5.2c-0.2,0.4-0.4,0.5-0.8,0.5
				c-0.6,0-1.1,0-1.7,0c-0.3,0-0.4-0.1-0.3-0.4c0.9-2,1.8-4,2.8-6c0.1-0.3,0.4-0.4,0.7-0.4c0.9,0,1.8,0,2.7,0c0.4,0,0.6-0.1,0.6-0.6
				c0-0.6,0-1.1,0-1.7c0-0.3,0.2-0.5,0.5-0.5c0.6,0,1.2,0,1.7,0c0.3,0,0.5,0.2,0.5,0.5c0,0.6,0,1.1,0,1.7c0,0.4,0.2,0.5,0.6,0.5
				c0.9,0,1.8,0,2.7,0c0.4,0,0.6,0.2,0.8,0.5c0.9,2,1.8,3.9,2.7,5.9c0,0,0,0.1,0.1,0.1c0.1,0.2,0,0.4-0.2,0.4c-0.6,0-1.3,0-1.9,0
				c-0.3,0-0.5-0.2-0.6-0.5c-0.7-1.5-1.4-3.1-2.1-4.6c-0.1-0.3-0.2-0.5-0.4-0.8c-0.1-0.3-0.4-0.4-0.7-0.4c-0.1,0-0.2,0-0.4,0
				c-0.3,0-0.5,0.2-0.5,0.5c0,0.6,0,1.1,0,1.7C461.9,189.5,461.9,189.9,461.9,190.2z"/>
			<path d="M460,199.5c0,0.9,0,1.7,0,2.6c-3-0.1-5.6-1.2-7.8-3.1c-3.3-2.9-4.4-6.6-4.4-9.2c0.8,0,1.7,0,2.5,0c0.2,2.6,1.2,4.9,3,6.7
				C455.1,198.3,457.3,199.3,460,199.5z"/>
			<path d="M470.8,189.7c0.9,0,1.7,0,2.5,0c-0.2,6.5-5.7,12.1-12.2,12.3c0-0.8,0-1.7,0-2.5c2.6-0.2,4.9-1.2,6.7-3
				C469.6,194.6,470.6,192.4,470.8,189.7z"/>
			<path d="M473.3,188.7c-0.9,0-1.7,0-2.5,0c-0.2-2.6-1.2-4.9-3-6.7c-1.8-1.9-4.1-2.8-6.7-3c0-0.8,0-1.7,0-2.5
				C466.9,176.4,473,181.4,473.3,188.7z"/>
			<path d="M460,178.9c-2.6,0.2-4.9,1.2-6.7,3c-1.8,1.9-2.8,4.1-3,6.7c-0.9,0-1.7,0-2.5,0c0.1-6.2,5.4-12,12.2-12.3
				C460,177.2,460,178.1,460,178.9z"/>
			<path d="M439.6,210.2c0-0.9,0-1.7,0-2.6c0-0.3,0.1-0.4,0.4-0.4c0.8,0,1.6,0,2.4,0c0.3,0,0.4,0.1,0.4,0.4c0,0.1,0,0.3,0,0.4
				c0,0.4,0.3,0.7,0.7,0.7c0.9,0,1.9,0,2.8,0c0.5,0,0.8,0.2,1,0.7c0.4,1.1,0.7,2.3,1.1,3.4c0.1,0.3,0,0.4-0.3,0.4
				c-0.9,0-1.8,0-2.6,0c-0.3,0-0.5-0.1-0.6-0.5c-0.2-0.7-0.5-1.5-0.7-2.2c-0.1-0.3-0.4-0.5-0.7-0.5c-0.3,0.1-0.5,0.3-0.5,0.7
				c0,0.7,0,1.4,0,2.1c0,0.3-0.1,0.4-0.4,0.4c-0.8,0-1.6,0-2.4,0c-0.3,0-0.4-0.1-0.4-0.4C439.6,212,439.6,211.1,439.6,210.2z"/>
			<path d="M463.4,213c-0.5,0.1-1,0.3-1.5,0.4c-1.1,0.2-2.2,0.1-3.2-0.4c-0.4-0.2-0.7-0.4-1-0.8c-0.3-0.4-0.4-0.8-0.4-1.2
				c0-0.6,0-1.2,0-1.7c0-0.3,0.1-0.4,0.4-0.4c0.8,0,1.6,0,2.4,0c0.3,0,0.4,0.1,0.4,0.4c0,0.6,0,1.2,0,1.8c0,0.5,0.4,1,0.9,1.1
				c0.5,0.1,1.1-0.2,1.3-0.7c0.1-0.2,0.1-0.5,0-0.7c-0.1-0.5-0.3-1-0.5-1.6c-0.1-0.3,0-0.4,0.3-0.4c0.9,0,1.8,0,2.7,0
				c0.3,0,0.5,0.1,0.6,0.4c0.4,1.2,0.8,2.5,1.2,3.7c0.1,0.3,0,0.4-0.3,0.4c-0.9,0-1.8,0-2.7,0C463.7,213.3,463.5,213.1,463.4,213z"
				/>
			<path d="M452.5,208.5c1,0,2,0.2,2.9,0.7c0.4,0.2,0.8,0.5,1.1,0.9c0.4,0.6,0.4,1.2,0,1.8c-0.4,0.5-0.9,0.9-1.6,1.1
				c-1.7,0.6-3.5,0.6-5.2,0c-0.5-0.2-0.9-0.4-1.2-0.8c-0.7-0.7-0.7-1.6,0-2.3c0.6-0.6,1.4-0.9,2.3-1.1
				C451.5,208.7,452,208.6,452.5,208.5z M453.6,211c0-0.6-0.5-1.1-1.1-1.1c-0.6,0-1.1,0.5-1.1,1.1c0,0.6,0.5,1.1,1.1,1.1
				C453.1,212.1,453.6,211.6,453.6,211z"/>
			<path d="M469.5,213.3c-0.6,0-1.2,0-1.8,0c-0.3,0-0.4-0.1-0.4-0.4c0-0.2,0-0.4,0-0.5c0-0.3,0.1-0.4,0.4-0.4c0.6,0,0.8-0.4,0.7-0.9
				c-0.1-0.3-0.2-0.7-0.3-1c-0.2-0.6,0.2-1.2,0.9-1.2c0.7,0,1.3,0,2,0c0.6,0,1.1,0,1.7,0c0.3,0,0.4,0.1,0.4,0.4c0,0.2,0,0.4,0,0.5
				c0,0.3-0.1,0.4-0.4,0.4c-0.4,0-0.7,0.2-0.7,0.5c0,0.1,0,0.2,0,0.3c0.1,0.4,0.2,0.7,0.3,1.1c0.2,0.7-0.2,1.2-0.9,1.2
				C470.8,213.3,470.1,213.3,469.5,213.3z"/>
		</g>
	</g>
	<g>
		<path d="M590.4,415.6c-1.8,0-3.5,0-5.3,0c-0.5,0-0.8-0.2-0.7-0.7c0,0,0,0,0-0.1c0-1.4,0-1.4,1.4-1.6c0.7-0.1,0.9-0.4,0.7-1.1
			c-0.4-1.3-0.8-2.6-1.3-3.9c-0.1-0.1-0.3-0.3-0.5-0.3c-2.7,0-5.4,0-8.1,0c-0.2,0-0.4,0.2-0.5,0.3c-0.5,1.2-1,2.3-1.4,3.5
			c-0.4,1-0.1,1.4,1,1.5c0.3,0,0.6,0,0.9,0c0.1,0,0.3,0,0.4,0c0.7,0.5,0.2,1.2,0.3,1.8c0.1,0.4-0.2,0.5-0.6,0.5c-1.5,0-2.9,0-4.4,0
			c-0.9,0-1.9,0-2.8,0c-0.4,0-0.7-0.2-0.6-0.6c0,0,0,0,0-0.1c0-0.5-0.1-1.1,0.1-1.4c0.2-0.3,0.8-0.2,1.3-0.3
			c0.8-0.1,1.2-0.6,1.4-1.3c2.1-5,4.2-10,6.2-15c1.1-2.7,2.2-5.3,3.3-8c0.2-0.5,0.5-0.7,1.1-0.7c0.8,0,1.6,0,2.4,0
			c0.6,0,0.8,0.2,1,0.7c2.2,6.4,4.5,12.8,6.7,19.2c0.4,1.2,0.9,2.5,1.3,3.7c0.4,1,0.7,1.3,1.8,1.3c0.9,0,0.9,0,0.9,0.9
			c0,1.6,0.1,1.5-1.4,1.5C593.5,415.6,591.9,415.6,590.4,415.6z M581.4,395.3c-1.4,3.6-2.8,7-4.2,10.5c2.5,0,4.9,0,7.4,0
			C583.5,402.3,582.5,398.9,581.4,395.3z"/>
		<path d="M564.5,411.7c0,1.1,0,2.2,0,3.2c0,0.5-0.2,0.7-0.6,0.6c-0.4,0-0.8,0-1.2,0c-0.2,0-0.5-0.1-0.6-0.3c-0.3-0.4-0.6-0.4-1-0.3
			c-1.5,0.3-2.9,0.7-4.4,0.8c-6.3,0.5-11-2.9-12.7-8.9c-1.2-4.2-1-8.3,1-12.3c2.3-4.7,6.9-6.8,11.8-6.3c1.2,0.1,2.4,0.4,3.5,1
			c0.8,0.4,1.1,0.2,1.5-0.5c0.1-0.2,0.4-0.3,0.6-0.4c0.4-0.1,0.8,0,1.2,0c0.4,0,0.6,0.2,0.6,0.6c0,2.2,0,4.4,0,6.6
			c0,0.5-0.2,0.6-0.6,0.6c-1.6,0.1-1.6,0.1-2-1.5c-0.4-1.5-0.9-2.9-2.4-3.5c-2.6-1.2-5-0.6-6.5,1.8c-1,1.6-1.5,3.4-1.7,5.3
			c-0.4,3.7-0.4,7.3,0.7,10.9c0.3,1,0.8,1.9,1.3,2.7c1.8,2.7,7.4,2.4,8.5-1.3c0.2-0.7,0.4-1.4,0.5-2.1c0.1-0.4,0.2-0.5,0.6-0.5
			c2.1,0,1.7-0.3,1.8,1.7C564.5,410.3,564.5,411,564.5,411.7z"/>
		<path d="M568.7,400.5c0.4,0.7,0.9,1.3,1.4,2.1c0.3-0.7,0.7-1.4,0.9-2c0.1-0.4,0.3-0.5,0.7-0.5c0.8,0,1.5,0,2.4,0
			c-0.3,0.5-0.2,1.2-1,1.2c-0.2,0-0.4,0.2-0.5,0.4c-0.5,0.7-1,1.5-1.6,2.2c0.4,0.7,1.2,0.7,1.9,0.7c-0.1,1-0.2,1.1-1.2,1.1
			c-0.8,0-1.6-0.1-2.2-0.6c-1.1,0.7-2.3,0.9-3.6,0.7c-1.4-0.2-2.4-1.1-2.6-2.3c-0.2-1.1,0.3-2.2,1.5-3c0.3-0.2,0.6-0.3,0.8-0.4
			c-0.2-0.7-0.4-1.4-0.4-2c0-0.5,0.3-1.1,0.7-1.5c0.9-1,3-1.2,4.1-0.4c1.1,0.8,1.1,2.3,0.1,3.1C569.7,399.9,569.2,400.1,568.7,400.5
			z M568.6,404.1c-0.7-1-1.4-1.9-2.1-2.9c-0.8,0.6-1.1,1.3-1,2.2c0.1,0.7,0.4,1.2,1.1,1.4C567.3,405,568,404.8,568.6,404.1z
			 M567.8,399.5c0.8-0.4,1.2-0.9,1.2-1.6c0-0.6-0.3-1.1-0.8-1.1c-0.5,0-1,0.4-0.9,1C567.3,398.4,567.6,398.9,567.8,399.5z"/>
	</g>
	<g>
		<g>
			<path class="st12" d="M502.9,460.7c-1.3,0-2.5,0-3.9,0c0.3-3.3,0.6-6.5,0.9-10c-1.6,1.2-3.1,2.3-4.8,3.6c1.4,0,2.5,0,3.8,0
				c-0.1,1.3-0.2,2.4-0.3,3.6c-2.9,0-5.8,0.1-8.6,0c-1.2-0.1-1.7-1.3-1.2-2.5c0.2-0.4,0.5-0.7,0.8-1c3.6-2.8,7.3-5.7,11-8.5
				c0.6-0.4,1.5-0.6,2.3-0.6c1.1,0,1.5,0.8,1.4,1.9C503.8,451.7,503.3,456.1,502.9,460.7z"/>
			<path class="st12" d="M508,460.7c-1.5,0-2.9,0-4.5,0c0.4-3.8,0.6-7.5,1.2-11.1c0.5-2.8,2.2-4.2,5.1-4.3c3.3-0.1,6.5,0,9.8,0
				c0.2,2.1-1.3,3.8-3.5,3.9c-1.8,0-3.6,0-5.4,0c-1.1,0-1.8,0.4-1.8,1.6c-0.1,1.6-0.3,3.3-0.5,4.9C508.3,457.3,508.1,459,508,460.7z
				"/>
			<path class="st12" d="M509.2,455.4c0.1-1.1,0.2-2.2,0.3-3.4c2.1,0,4.2,0,6.3,0C515.6,455.1,513.9,456,509.2,455.4z"/>
		</g>
	</g>
	<g>
		<path d="M396.3,169.3c-0.4,0.2-0.6,0.1-0.8-0.1c-0.3-0.4-0.5-0.8-0.5-1.3c0-0.1,0-0.3,0.1-0.4c0.5-0.3,1-0.6,1.5-0.8
			c0.4-0.1,0.9-0.1,1.3,0.3c0.7,0.7,1.4,1.4,2,2.1c0.4,0.5,0.7,1.2,0.4,1.9c-0.1,0.4-0.4,0.7-0.7,0.9c-0.7,0.5-1.5,1-2.2,1.5
			c-0.3,0.2-0.6,0.4-0.9,0.6c-0.1,0.1-0.2,0.2-0.4,0.3c0.3,0,0.4,0.1,0.6,0.1c0.4,0,0.8,0,1.2,0.1c0.4,0,0.7,0.2,0.8,0.6
			c0.2,0.6,0.3,1.3,0.4,1.9c0.1,0.5-0.2,0.6-0.7,0.6c-2.5-0.4-5.1-0.8-7.6-1.2c-1.2-0.2-2.4-0.5-3.6-0.8c-0.1,0-0.2,0-0.2-0.1
			c-0.3-0.1-0.5-0.3-0.5-0.7c0.1-0.4,0.3-0.5,0.7-0.5c0.6,0,1.3,0.1,1.9,0.2c0.9,0.2,1.8,0.4,2.8,0.6c0.2,0,0.4,0.1,0.6,0
			c0.1,0,0.3-0.1,0.4-0.2c0-0.1,0-0.4-0.1-0.5c-1.4-1.4-2.1-3.2-3-4.9c-0.2-0.5-0.1-0.8,0.4-0.9c0.7-0.2,1.4-0.2,1.9,0.4
			c0.4,0.5,0.8,0.9,1.2,1.4c0.3,0.3,0.2,0.6-0.2,0.7c0,0,0,0-0.1,0c-0.3,0.2-0.8,0.3-0.8,0.8c0,0.5,0.4,0.8,0.8,1.1
			c0.4,0.3,0.9,0.3,1.3,0.1c1.3-0.5,2.5-1.3,3.4-2.4c0.7-1,0.6-2.1-0.2-2.9c-0.3-0.3-0.8-0.4-1.2-0.3c-0.4,0.1-0.5,0.4-0.4,0.8
			C396.1,168.8,396.2,169,396.3,169.3z"/>
		<path d="M394.6,239.2c0.7,0,1.5-0.2,2.2-0.8c0.5-0.4,1-1,1.5-1.4c1-0.7,0.7-2.1,0-2.7c-0.7-0.7-1.2-1.5-1.4-2.4
			c-0.1-0.4,0.2-1.1,0.6-1.3c0.8-0.4,1.7-0.3,2.6-0.1c0.6,0.2,0.8,1.3,0.4,1.8c-0.1,0.1-0.2,0.2-0.4,0.2c-0.4,0.1-0.8,0.1-1.1-0.3
			c-0.1-0.1-0.2-0.2-0.3-0.1c-0.1,0-0.2,0.2-0.2,0.3c0,0.4,0.1,0.8,0.5,1.1c1,0.6,2.5,0,2.7-1.1c0.2-0.9,0.1-1.7-0.2-2.5
			c-0.2-0.5-0.5-1-1-1.2c-1.4-0.5-2.8-0.7-4.3-0.4c-0.3,0.1-0.7,0.3-0.9,0.5c-0.7,0.7-0.9,1.5-0.8,2.5c0.1,0.7,0,1.4-0.2,2
			c-0.2,0.8-1.1,1.2-1.6,0.7c-0.4-0.3-0.5-0.8-0.7-1.3c-0.1-0.1,0.1-0.4,0.2-0.6c0.1-0.2,0.2-0.3,0.2-0.5c0-0.2-0.1-0.5-0.2-0.6
			c-0.1-0.1-0.4-0.1-0.5,0c-0.9,0.6-1.7,1.3-2.6,2c-0.3,0.3-0.3,0.7-0.2,1c0.3,0.8,0.7,1.7,1.1,2.4c0.4,0.7,0.8,1.3,1.4,1.8
			C392.4,239,393.4,239.1,394.6,239.2z"/>
		<path d="M393.5,210.9C393.5,210.9,393.5,210.9,393.5,210.9c-0.5,0-1,0-1.5,0c-0.6,0-0.7,0-0.7-0.7c0-0.5,0.2-0.8,0.7-0.9
			c0.5-0.1,1-0.1,1.5-0.2c1.5-0.2,3-0.2,4.4,0.3c0.4,0.1,0.8,0.1,1.1-0.2c0.1-0.1,0.3-0.3,0.3-0.4c0-0.1-0.2-0.3-0.4-0.3
			c-0.6-0.2-1.1-0.5-1.7-0.7c-0.9-0.3-1.9-0.6-2.9-0.7c-1.6,0-3.2,0.2-4.8,0.3c-0.1,0-0.3,0.1-0.4,0.3c-0.3,0.4-0.2,0.9-0.1,1.3
			c0.2,0.7,0.4,1.3,0.6,2c0.1,0.2,0.1,0.4-0.2,0.5c-0.7,0.4-1.5,0.8-2.2,1.2c-0.5,0.3-0.7,0.6-0.4,1.1c0.4,0.9,0.8,1.8,1.2,2.7
			c0.4,1,0.4,1-0.4,1.7c-0.1,0.1-0.2,0.3-0.1,0.4c0.1,0.4,0.6,0.6,0.9,0.4c1.4-0.7,3-1.1,4.5-1.5c1.2-0.3,2.4-0.6,3.6-1
			c0.3-0.1,0.5-0.2,0.5-0.5c0-0.3-0.2-0.6-0.5-0.7c-0.6-0.1-1.2-0.2-1.8-0.1c-0.8,0-1.6,0.2-2.4,0.3c-1.2,0.2-1.5-0.1-1.5-1.3
			c-0.1-0.9,0.1-1.1,1-1.4c1.1-0.4,2.3-0.7,3.4-0.7c0.3,0,0.5-0.3,0.4-0.7c0-0.3-0.1-0.5-0.5-0.5C394.6,210.9,394,210.9,393.5,210.9
			z"/>
		<path d="M394.6,239.2c-1.2,0-2.3-0.1-3.1-0.9c-0.5-0.5-1-1.2-1.4-1.8c-0.4-0.8-0.8-1.6-1.1-2.4c-0.2-0.4-0.1-0.8,0.2-1
			c0.8-0.7,1.7-1.3,2.6-2c0.1-0.1,0.4-0.1,0.5,0c0.1,0.1,0.2,0.4,0.2,0.6c0,0.2-0.1,0.3-0.2,0.5c-0.1,0.2-0.2,0.4-0.2,0.6
			c0.2,0.5,0.4,1,0.7,1.3c0.6,0.5,1.4,0.1,1.6-0.7c0.2-0.6,0.3-1.3,0.2-2c-0.1-1,0.1-1.8,0.8-2.5c0.3-0.2,0.6-0.5,0.9-0.5
			c1.4-0.3,2.9-0.1,4.3,0.4c0.5,0.2,0.8,0.7,1,1.2c0.3,0.8,0.4,1.7,0.2,2.5c-0.3,1.1-1.7,1.7-2.7,1.1c-0.4-0.2-0.5-0.6-0.5-1.1
			c0-0.1,0.1-0.2,0.2-0.3c0.1,0,0.2,0.1,0.3,0.1c0.3,0.4,0.7,0.5,1.1,0.3c0.1,0,0.3-0.1,0.4-0.2c0.4-0.5,0.1-1.6-0.4-1.8
			c-0.9-0.3-1.7-0.3-2.6,0.1c-0.4,0.2-0.7,0.9-0.6,1.3c0.2,1,0.7,1.8,1.4,2.4c0.6,0.6,0.9,2,0,2.7c-0.6,0.4-1,0.9-1.5,1.4
			C396.2,238.9,395.3,239.2,394.6,239.2z"/>
		<path d="M394.6,239.2c-1.2,0-2.3-0.1-3.1-0.9c-0.5-0.5-1-1.2-1.4-1.8c-0.4-0.8-0.8-1.6-1.1-2.4c-0.2-0.4-0.1-0.8,0.2-1
			c0.8-0.7,1.7-1.3,2.6-2c0.1-0.1,0.4-0.1,0.5,0c0.1,0.1,0.2,0.4,0.2,0.6c0,0.2-0.1,0.3-0.2,0.5c-0.1,0.2-0.2,0.4-0.2,0.6
			c0.2,0.5,0.4,1,0.7,1.3c0.6,0.5,1.4,0.1,1.6-0.7c0.2-0.6,0.3-1.3,0.2-2c-0.1-1,0.1-1.8,0.8-2.5c0.3-0.2,0.6-0.5,0.9-0.5
			c1.4-0.3,2.9-0.1,4.3,0.4c0.5,0.2,0.8,0.7,1,1.2c0.3,0.8,0.4,1.7,0.2,2.5c-0.3,1.1-1.7,1.7-2.7,1.1c-0.4-0.2-0.5-0.6-0.5-1.1
			c0-0.1,0.1-0.2,0.2-0.3c0.1,0,0.2,0.1,0.3,0.1c0.3,0.4,0.7,0.5,1.1,0.3c0.1,0,0.3-0.1,0.4-0.2c0.4-0.5,0.1-1.6-0.4-1.8
			c-0.9-0.3-1.7-0.3-2.6,0.1c-0.4,0.2-0.7,0.9-0.6,1.3c0.2,1,0.7,1.8,1.4,2.4c0.6,0.6,0.9,2,0,2.7c-0.6,0.4-1,0.9-1.5,1.4
			C396.2,238.9,395.3,239.2,394.6,239.2z"/>
		<path d="M393.5,210.9c0.6,0,1.1,0,1.7,0c0.3,0,0.4,0.2,0.5,0.5c0,0.4-0.1,0.7-0.4,0.7c-1.2,0-2.3,0.3-3.4,0.7
			c-0.9,0.3-1,0.5-1,1.4c0.1,1.2,0.3,1.5,1.5,1.3c0.8-0.1,1.6-0.3,2.4-0.3c0.6,0,1.2,0.1,1.8,0.1c0.4,0.1,0.5,0.3,0.5,0.7
			c0,0.3-0.3,0.4-0.5,0.5c-1.2,0.3-2.4,0.7-3.6,1c-1.5,0.4-3.1,0.8-4.5,1.5c-0.3,0.2-0.8,0-0.9-0.4c0-0.1,0.1-0.3,0.1-0.4
			c0.8-0.7,0.8-0.7,0.4-1.7c-0.4-0.9-0.8-1.8-1.2-2.7c-0.2-0.5-0.1-0.8,0.4-1.1c0.7-0.4,1.5-0.8,2.2-1.2c0.3-0.1,0.2-0.3,0.2-0.5
			c-0.2-0.7-0.4-1.3-0.6-2c-0.1-0.4-0.2-0.9,0.1-1.3c0.1-0.1,0.3-0.3,0.4-0.3c1.6-0.1,3.2-0.3,4.8-0.3c1,0,1.9,0.4,2.9,0.7
			c0.6,0.2,1.2,0.4,1.7,0.7c0.1,0.1,0.3,0.2,0.4,0.3c0,0.1-0.2,0.3-0.3,0.4c-0.3,0.3-0.7,0.3-1.1,0.2c-1.5-0.5-2.9-0.4-4.4-0.3
			c-0.5,0.1-1,0.1-1.5,0.2c-0.5,0.1-0.8,0.4-0.7,0.9c0,0.6,0.1,0.7,0.7,0.7C392.5,210.9,393,210.9,393.5,210.9
			C393.5,210.9,393.5,210.9,393.5,210.9z"/>
		<path d="M393.5,210.9c0.6,0,1.1,0,1.7,0c0.3,0,0.4,0.2,0.5,0.5c0,0.4-0.1,0.7-0.4,0.7c-1.2,0-2.3,0.3-3.4,0.7
			c-0.9,0.3-1,0.5-1,1.4c0.1,1.2,0.3,1.5,1.5,1.3c0.8-0.1,1.6-0.3,2.4-0.3c0.6,0,1.2,0.1,1.8,0.1c0.4,0.1,0.5,0.3,0.5,0.7
			c0,0.3-0.3,0.4-0.5,0.5c-1.2,0.3-2.4,0.7-3.6,1c-1.5,0.4-3.1,0.8-4.5,1.5c-0.3,0.2-0.8,0-0.9-0.4c0-0.1,0.1-0.3,0.1-0.4
			c0.8-0.7,0.8-0.7,0.4-1.7c-0.4-0.9-0.8-1.8-1.2-2.7c0.4-0.2,0.6-0.7,0.4-1.1c0.7-0.4,1.5-0.8,2.2-1.2c0.3-0.1,0.2-0.3,0.2-0.5
			c-0.2-0.7-0.4-1.3-0.6-2c-0.1-0.4-0.2-0.9,0.1-1.3c0.1-0.1,0.3-0.3,0.4-0.3c1.6-0.1,3.2-0.3,4.8-0.3c1,0,1.9,0.4,2.9,0.7
			c0.6,0.2,1.2,0.4,1.7,0.7c0.1,0.1,0.3,0.2,0.4,0.3c0,0.1-0.2,0.3-0.3,0.4c-0.3,0.3-0.7,0.3-1.1,0.2c-1.5-0.5-2.9-0.4-4.4-0.3
			c-0.5,0.1-1,0.1-1.5,0.2c-0.5,0.1-0.8,0.4-0.7,0.9c0,0.6,0.1,0.7,0.7,0.7C392.5,210.9,393,210.9,393.5,210.9
			C393.5,210.9,393.5,210.9,393.5,210.9z"/>
		<path d="M401.2,198.6c-0.9-0.1-2-0.4-2.9-1.2c-0.4-0.4-0.4-0.8-0.3-1.2c0.3-0.8,0.9-1.4,1.8-1.6c0.5-0.1,1,0,1.4,0.4
			c0.3,0.3,0.1,0.9-0.3,1c-0.1,0-0.2,0-0.3-0.1c-0.1-0.1-0.1-0.2-0.2-0.3c-0.2-0.3-0.5-0.3-0.7,0.1c-0.2,0.3-0.3,0.7-0.4,1
			c-0.1,0.3,0.1,0.4,0.3,0.4c1-0.2,2-0.3,2.8-0.9c0.5-0.4,0.5-0.9,0.4-1.5c-0.3-1-1-1.7-1.9-2.2c-0.5-0.3-1.1-0.5-1.6-0.7
			c-1.3-0.4-2.4,0.1-2.8,1.4c-0.3,0.7-0.4,1.5-0.5,2.2c-0.2,1.1-0.8,1.8-1.7,1.8c-0.9,0.1-1.7-0.1-2.3-0.9c-0.7-0.8-1.1-1.7-1.2-2.8
			c0-0.2,0-0.4,0-0.6c0.1-0.2,0.2-0.4,0.4-0.7c0.2,0.1,0.4,0.2,0.6,0.4c0.4,0.4,0.6,0.8,1.2,1c1.5,0.5,2.3-0.5,2.3-1.8
			c0-0.2-0.2-0.5-0.4-0.7c-0.3-0.3-0.7-0.5-1.1-0.7c-0.5-0.2-1-0.3-1.5-0.5c-0.3-0.1-0.6-0.1-0.9-0.2c-0.3-0.1-0.5-0.3-0.5-0.7
			c0-0.3,0.3-0.5,0.5-0.5c0.5-0.1,1-0.2,1.4-0.1c2.3,0.4,4.6,0.8,6.8,1.2c0.2,0,0.5,0.1,0.7,0.2c2.2,0.4,3.2,1.9,3.8,3.9
			c0.3,1,0.3,2.1-0.2,3.1C403.5,197.9,402.5,198.6,401.2,198.6z"/>
		<path d="M401.2,198.6c-0.9-0.1-2-0.4-2.9-1.2c-0.4-0.4-0.4-0.8-0.3-1.2c0.3-0.8,0.9-1.4,1.8-1.6c0.5-0.1,1,0,1.4,0.4
			c0.3,0.3,0.1,0.9-0.3,1c-0.1,0-0.2,0-0.3-0.1c-0.1-0.1-0.1-0.2-0.2-0.3c-0.2-0.3-0.5-0.3-0.7,0.1c-0.2,0.3-0.3,0.7-0.4,1
			c-0.1,0.3,0.1,0.4,0.3,0.4c1-0.2,2-0.3,2.8-0.9c0.5-0.4,0.5-0.9,0.4-1.5c-0.3-1-1-1.7-1.9-2.2c-0.5-0.3-1.1-0.5-1.6-0.7
			c-1.3-0.4-2.4,0.1-2.8,1.4c-0.3,0.7-0.4,1.5-0.5,2.2c-0.2,1.1-0.8,1.8-1.7,1.8c-0.9,0.1-1.7-0.1-2.3-0.9c-0.7-0.8-1.1-1.7-1.2-2.8
			c0-0.2,0-0.4,0-0.6c0.1-0.2,0.2-0.4,0.4-0.7c0.2,0.1,0.4,0.2,0.6,0.4c0.4,0.4,0.6,0.8,1.2,1c1.5,0.5,2.3-0.5,2.3-1.8
			c0-0.2-0.2-0.5-0.4-0.7c-0.3-0.3-0.7-0.5-1.1-0.7c-0.5-0.2-1-0.3-1.5-0.5c-0.3-0.1-0.6-0.1-0.9-0.2c-0.3-0.1-0.5-0.3-0.5-0.7
			c0-0.3,0.3-0.5,0.5-0.5c0.5-0.1,1-0.2,1.4-0.1c2.3,0.4,4.6,0.8,6.8,1.2c0.2,0,0.5,0.1,0.7,0.2c2.2,0.4,3.2,1.9,3.8,3.9
			c0.3,1,0.3,2.1-0.2,3.1C403.5,197.9,402.5,198.6,401.2,198.6z"/>
	</g>
	<g>
		<path class="st34" d="M743.2,139.7c5.9,0,11.8,0,17.7,0v4.4c-4.4,0-8.9,0-13.3,0c0,4.4,0,8.9,0,13.3h-4.4
			C743.2,151.6,743.2,145.6,743.2,139.7"/>
		<rect x="756.5" y="153" class="st34" width="4.4" height="4.4"/>
		<path class="st34" d="M749.8,146.4c5.9,0,11.8,0,17.7,0v4.4c-4.4,0-8.9,0-13.3,0c0,4.4,0,8.9,0,13.3h-4.4
			C749.8,158.2,749.8,152.3,749.8,146.4"/>
		<polygon class="st35" points="779.3,144.5 779.3,148.2 777.7,148.2 777.7,139.8 785.2,139.8 785.2,141.1 779.3,141.1 779.3,143.2 
			783.4,143.2 783.4,144.5 		"/>
		<polygon class="st35" points="793.5,148.2 795.3,148.2 791.3,139.8 789.8,139.8 785.9,148.2 787.5,148.2 790.5,141.8 		"/>
		<path class="st35" d="M798.7,146.8h3.2c0.6,0,1-0.1,1.3-0.2c0.3-0.2,0.5-0.5,0.5-0.9c0-0.4-0.2-0.7-0.5-0.9
			c-0.3-0.2-0.7-0.2-1.3-0.2h-3.2V146.8z M798.7,143.1h3.3c0.5,0,0.9-0.1,1.1-0.2c0.2-0.2,0.4-0.4,0.4-0.8c0-0.4-0.1-0.6-0.3-0.8
			c-0.2-0.2-0.6-0.2-1.1-0.2h-3.3V143.1z M803.8,143.8c1.1,0.4,1.6,1,1.6,2c0,0.8-0.3,1.4-0.8,1.8c-0.3,0.2-0.6,0.4-0.9,0.5
			c-0.4,0.1-0.8,0.1-1.3,0.1H797v-8.4h5.2c0.5,0,1,0,1.3,0.1c0.3,0.1,0.6,0.2,0.8,0.4c0.5,0.4,0.7,1,0.7,1.7
			C805.1,142.8,804.7,143.4,803.8,143.8z"/>
		<path class="st35" d="M809.3,143.4h3c0.4,0,0.7,0,0.9,0c0.2,0,0.4-0.1,0.5-0.1c0.3-0.2,0.5-0.5,0.5-0.9c0-0.4-0.2-0.8-0.5-0.9
			c-0.2-0.1-0.3-0.1-0.5-0.2c-0.2,0-0.5,0-0.9,0h-3V143.4z M809.3,144.8v3.4h-1.6v-8.4h4.8c0.6,0,1.1,0,1.5,0.1
			c0.4,0.1,0.7,0.2,1,0.4c0.3,0.2,0.5,0.5,0.7,0.9c0.1,0.4,0.2,0.7,0.2,1.1c0,1.4-0.8,2.2-2.4,2.4l2.4,3.5h-1.8l-2.4-3.4H809.3z"/>
		<polygon class="st35" points="825.7,139.8 823.9,139.8 821.5,143.1 819.2,139.8 817.3,139.8 820.7,144.7 820.7,148.2 822.3,148.2 
			822.3,144.7 		"/>
		<polygon class="st35" points="833.5,148.2 835.5,148.2 831.5,143.2 835.5,139.8 833.4,139.8 828.9,143.4 828.9,139.8 827.2,139.8 
			827.2,148.2 828.9,148.2 828.9,145.3 830.3,144.3 		"/>
		<polygon class="st35" points="844.2,148.2 846,148.2 842,139.8 840.5,139.8 836.6,148.2 838.2,148.2 841.3,141.8 		"/>
		<polygon class="st35" points="779.3,154.3 779.3,157.9 777.7,157.9 777.7,149.5 785.2,149.5 785.2,150.9 779.3,150.9 779.3,152.9 
			783.4,152.9 783.4,154.3 		"/>
		<path class="st35" d="M798.8,153.1h2.9c0.4,0,0.7,0,0.9,0c0.2,0,0.3-0.1,0.5-0.1c0.3-0.2,0.5-0.5,0.5-0.9c0-0.4-0.2-0.8-0.5-0.9
			c-0.2-0.1-0.3-0.1-0.5-0.2c-0.2,0-0.5,0-0.9,0h-2.9V153.1z M798.8,154.5v3.4h-1.7v-8.4h4.8c0.6,0,1.1,0,1.5,0.1
			c0.4,0.1,0.7,0.2,1,0.4c0.3,0.2,0.5,0.5,0.7,0.9c0.1,0.4,0.2,0.7,0.2,1.1c0,1.4-0.8,2.2-2.4,2.4l2.4,3.5h-1.8l-2.4-3.4H798.8z"/>
		<polygon class="st35" points="811.4,157.8 808.1,152.1 808.1,157.9 806.6,157.9 806.6,149.5 808.7,149.5 811.5,154.6 814.5,149.5 
			816.4,149.5 816.4,157.9 814.7,157.9 814.7,152.1 		"/>
		<polygon class="st35" points="822.6,154.4 822.6,157.9 820.9,157.9 820.9,154.4 817.5,149.5 819.4,149.5 821.8,152.8 824.1,149.5 
			826,149.5 		"/>
		<path class="st35" d="M795,151.5c0-1.2-1-2.1-2.1-2.1h-4.4c-1.2,0-2.1,1-2.1,2.1v4.4c0,1.2,1,2.1,2.1,2.1h4.4c1.2,0,2.1-1,2.1-2.1
			V151.5z M793.4,155.5c0,0.8-0.5,1.1-1.1,1.1H789c-0.6,0-1.1-0.4-1.1-1.1V152c0-0.7,0.5-1.1,1.1-1.1h3.3c0.5,0,1.1,0.4,1.1,1.1
			V155.5z"/>
		<path class="st35" d="M780.8,161.5c-0.1-0.7-0.6-1-1.3-1c-0.9,0-1.4,0.8-1.4,1.7c0,1,0.5,1.8,1.4,1.8c0.7,0,1.2-0.5,1.3-1.2h0.3
			c-0.1,0.9-0.8,1.4-1.6,1.4c-1.2,0-1.7-0.9-1.7-2c0-1.1,0.6-1.9,1.7-1.9c0.8,0,1.5,0.4,1.5,1.2H780.8z"/>
		<path class="st35" d="M781.8,162.2c0,0.9,0.5,1.7,1.4,1.7c0.7,0,1.2-0.4,1.3-1.1h0.3c-0.1,0.9-0.7,1.4-1.6,1.4
			c-1.1,0-1.7-0.9-1.7-1.9c0-1,0.5-2,1.7-2c1.2,0,1.7,0.9,1.7,2H781.8z M784.5,162c0-0.8-0.5-1.5-1.4-1.5c-0.8,0-1.3,0.8-1.4,1.5
			H784.5z"/>
		<path class="st35" d="M785.4,160.3h0.3v0.8h0c0.2-0.6,0.8-0.9,1.3-0.9c1.3,0,1.3,1.1,1.3,1.5v2.3h-0.3v-2.4c0-0.4,0-1.2-1.1-1.2
			c-0.8,0-1.4,0.7-1.4,1.6v2h-0.3V160.3z"/>
		<path class="st35" d="M790.5,160.5h-0.8v2.6c0,0.6,0.3,0.7,0.8,0.7v0.2c-0.6,0-1.1,0-1.1-0.9v-2.6h-0.7v-0.2h0.7v-1.2h0.3v1.2h0.8
			V160.5z"/>
		<path class="st35" d="M791.2,161.1L791.2,161.1c0.2-0.5,0.8-0.9,1.5-0.9v0.3c-0.3,0-0.7,0-1,0.4c-0.3,0.3-0.4,0.5-0.4,1.1v2.1
			h-0.3v-3.8h0.3V161.1z"/>
		<path class="st35" d="M795.9,164.1h-0.3v-0.8h0c-0.2,0.6-0.8,0.9-1.3,0.9c-1.3,0-1.3-1.1-1.3-1.5v-2.3h0.3v2.4
			c0,0.4,0,1.2,1.1,1.2c0.8,0,1.4-0.7,1.4-1.6v-2h0.3V164.1z"/>
		<path class="st35" d="M796.6,160.3h0.3v0.8h0c0.1-0.5,0.6-0.9,1.2-0.9c0.7,0,1.1,0.4,1.1,0.8h0c0.2-0.5,0.6-0.8,1.2-0.8
			c0.7,0,1.2,0.4,1.2,1.3v2.6h-0.3v-2.6c0-1-0.7-1-0.9-1c-0.7,0-1.2,0.5-1.2,1.4v2.2H799v-2.6c0-0.9-0.7-1-0.9-1
			c-0.5,0-1.2,0.4-1.2,1.4v2.2h-0.3V160.3z"/>
		<path class="st35" d="M803.9,160.3h0.7v-0.8c0-0.5,0.4-0.7,0.8-0.7c0.1,0,0.2,0,0.3,0v0.2c-0.1,0-0.2,0-0.3,0
			c-0.3,0-0.5,0.1-0.5,0.5v0.8h0.8v0.2h-0.8v3.5h-0.3v-3.5h-0.7V160.3z M806,158.8h0.3v0.8H806V158.8z M806,160.3h0.3v3.8H806V160.3
			z"/>
		<path class="st35" d="M808.5,160.5h-0.8v2.6c0,0.6,0.3,0.7,0.8,0.7v0.2c-0.6,0-1.1,0-1.1-0.9v-2.6h-0.7v-0.2h0.7v-1.2h0.3v1.2h0.8
			V160.5z"/>
		<path class="st35" d="M808.9,160.3h0.3v0.8h0c0.2-0.6,0.8-0.9,1.3-0.9c1.3,0,1.3,1.1,1.3,1.5v2.3h-0.3v-2.4c0-0.4,0-1.2-1.1-1.2
			c-0.8,0-1.4,0.7-1.4,1.6v2h-0.3V160.3z"/>
		<path class="st35" d="M812.8,162.2c0,0.9,0.5,1.7,1.4,1.7c0.7,0,1.2-0.4,1.3-1.1h0.3c-0.1,0.9-0.7,1.4-1.6,1.4
			c-1.1,0-1.7-0.9-1.7-1.9c0-1,0.5-2,1.7-2c1.2,0,1.7,0.9,1.7,2H812.8z M815.5,162c0-0.8-0.5-1.5-1.4-1.5c-0.8,0-1.3,0.8-1.4,1.5
			H815.5z"/>
		<path class="st35" d="M816.5,162.8c0,0.7,0.6,1.1,1.2,1.1c0.5,0,1.2-0.1,1.2-0.8c0-1.3-2.6-0.4-2.6-1.9c0-0.7,0.7-1,1.4-1
			c0.8,0,1.4,0.3,1.4,1.2h-0.3c0-0.7-0.5-1-1.1-1c-0.5,0-1.1,0.2-1.1,0.7c0,0.6,0.6,0.7,1.2,0.8c0.7,0.1,1.3,0.3,1.3,1.1
			c0,0.8-0.8,1-1.5,1c-0.9,0-1.5-0.5-1.5-1.3H816.5z"/>
		<path class="st35" d="M820,162.8c0,0.7,0.6,1.1,1.2,1.1c0.5,0,1.2-0.1,1.2-0.8c0-1.3-2.6-0.4-2.6-1.9c0-0.7,0.7-1,1.4-1
			c0.8,0,1.4,0.3,1.4,1.2h-0.3c0-0.7-0.5-1-1.1-1c-0.5,0-1.1,0.2-1.1,0.7c0,0.6,0.6,0.7,1.3,0.8c0.7,0.1,1.3,0.3,1.3,1.1
			c0,0.8-0.8,1-1.5,1c-0.9,0-1.5-0.5-1.5-1.3H820z"/>
	</g>
	<g>
		<g>
			<path class="st36" d="M703.3,569.8c-1.1-0.6-2.3-0.3-3.1,0.4c-0.1,0.1-0.2,0.1-0.2,0.2c-0.1-0.1-0.1-0.1-0.2-0.2
				c-0.9-0.8-2.1-1-3.1-0.5c-1,0.5-1.5,1.3-1.5,2.4c0,0.8,0.3,1.5,0.8,2.1c1.3,1.3,3.2,3.2,3.7,3.7l0,0c0,0,0.1,0,0.1,0c0,0,0,0,0,0
				c0,0,0.1,0,0.1,0c0.1,0,0.1,0,0.2-0.1l0,0c1.3-1.3,2.5-2.5,3.7-3.8c0.6-0.6,0.8-1.3,0.8-2C704.8,571,704.3,570.3,703.3,569.8z
				 M703.4,574.1c-1.1,1.1-3.4,3.4-3.4,3.4c0,0-2.3-2.3-3.4-3.4c-0.5-0.5-0.9-1.1-1-1.7c0-1.1,0.4-1.8,1.3-2.2
				c0.8-0.4,1.8-0.3,2.6,0.5c0.1,0.1,0.4,0.4,0.4,0.5c0.1-0.1,0.3-0.4,0.4-0.4c0.8-0.8,1.8-0.9,2.6-0.5c1.1,0.5,1.3,1.3,1.3,2.1
				C704.3,573,704.1,573.4,703.4,574.1z"/>
			<path class="st36" d="M702.5,573.1c0-0.1-0.1-0.3-0.1-0.4c-0.2-0.2-1.9-1.9-2.2-2.1c-0.1-0.1-0.3-0.1-0.4,0
				c-0.3,0.3-2,1.9-2.1,2.1c0,0.1-0.2,0.2-0.2,0.4c0,0.5,0,1.8,0,2.3c0,0.2,0.1,0.4,0.4,0.4c0.8,0,1.3,0,2.1,0h0h0
				c0.8,0,1.3,0,2.1,0c0.1,0,0.4-0.1,0.4-0.4C702.5,575,702.5,573.6,702.5,573.1z M701.9,575.4c-0.7,0-1.2,0-1.9,0h0h0
				c-0.7,0-2,0-2,0s0-1.8,0-2.2c0-0.1,0-0.1,0-0.1c0.2-0.2,2-1.9,2-1.9c0,0,1.9,1.8,2,1.9c0,0,0,0,0,0.1c0,0.4,0,1.7,0,2.1
				c0,0.1,0,0.1,0,0.1S702,575.4,701.9,575.4z"/>
			<path class="st36" d="M713.7,577.9h-1.6v-3.8h-3.3v3.8h-1.6v-8.5h1.6v3.4h3.3v-3.4h1.6V577.9z"/>
			<path class="st36" d="M721.4,574.9c0,0.5-0.1,0.9-0.3,1.3c-0.2,0.4-0.4,0.7-0.7,1c-0.3,0.3-0.6,0.5-1,0.7
				c-0.4,0.2-0.8,0.2-1.3,0.2c-0.5,0-0.9-0.1-1.3-0.2c-0.4-0.2-0.7-0.4-1-0.7c-0.3-0.3-0.5-0.6-0.7-1c-0.2-0.4-0.3-0.8-0.3-1.3
				c0-0.4,0.1-0.9,0.3-1.3c0.2-0.4,0.4-0.7,0.7-1c0.3-0.3,0.6-0.5,1-0.7c0.4-0.2,0.8-0.2,1.3-0.2c0.5,0,0.9,0.1,1.3,0.2
				c0.4,0.2,0.7,0.4,1,0.7c0.3,0.3,0.5,0.6,0.7,1C721.4,574,721.4,574.4,721.4,574.9z M719.9,574.9c0-0.3,0-0.5-0.1-0.7
				c-0.1-0.2-0.2-0.4-0.4-0.6c-0.2-0.2-0.3-0.3-0.6-0.4c-0.2-0.1-0.4-0.1-0.7-0.1s-0.5,0-0.7,0.1s-0.4,0.2-0.6,0.4
				c-0.2,0.2-0.3,0.4-0.4,0.6c-0.1,0.2-0.1,0.5-0.1,0.7c0,0.3,0,0.5,0.1,0.7c0.1,0.2,0.2,0.4,0.4,0.6c0.2,0.2,0.3,0.3,0.6,0.4
				s0.4,0.1,0.7,0.1s0.5,0,0.7-0.1c0.2-0.1,0.4-0.2,0.6-0.4c0.2-0.2,0.3-0.4,0.4-0.6C719.9,575.4,719.9,575.1,719.9,574.9z"/>
			<path class="st36" d="M731.5,577.9H730v-3.7c0-0.4-0.1-0.8-0.3-1c-0.2-0.2-0.5-0.3-0.8-0.3c-0.2,0-0.5,0-0.7,0.1
				c-0.2,0.1-0.4,0.2-0.6,0.4c0.1,0.2,0.1,0.5,0.1,0.8v3.7h-1.5v-3.7c0-0.4-0.1-0.8-0.3-1c-0.2-0.2-0.5-0.3-0.8-0.3
				c-0.2,0-0.4,0-0.6,0.1c-0.2,0.1-0.4,0.2-0.6,0.4v4.5h-1.5v-6.1h1.5l0,0.5c0.2-0.2,0.4-0.3,0.7-0.4c0.3-0.1,0.5-0.2,0.8-0.2
				c0.3,0,0.6,0.1,0.9,0.2c0.3,0.1,0.6,0.3,0.8,0.6c0.3-0.3,0.6-0.5,1-0.6c0.3-0.1,0.7-0.2,1.1-0.2c0.3,0,0.6,0,0.9,0.1
				s0.5,0.2,0.8,0.5c0.2,0.2,0.4,0.5,0.5,0.8c0.1,0.3,0.2,0.7,0.2,1.2V577.9z"/>
			<path class="st36" d="M735.2,577.9c-0.1,0.1-0.3,0.1-0.4,0.1c-0.2,0-0.3,0.1-0.5,0.1c-0.2,0-0.4,0-0.7-0.1
				c-0.2-0.1-0.4-0.2-0.5-0.3c-0.2-0.1-0.3-0.3-0.4-0.5c-0.1-0.2-0.1-0.5-0.1-0.8v-7.3h1.6v7c0,0.3,0.1,0.4,0.2,0.5
				c0.1,0.1,0.2,0.1,0.4,0.1c0.2,0,0.3-0.1,0.5-0.2V577.9z"/>
			<path class="st36" d="M741,577.9h-1.5v-0.3c-0.3,0.2-0.6,0.3-0.9,0.4s-0.6,0.1-0.9,0.1c-0.3,0-0.6,0-0.8-0.1
				c-0.2-0.1-0.5-0.2-0.6-0.4c-0.2-0.2-0.3-0.4-0.4-0.6c-0.1-0.2-0.1-0.5-0.1-0.8c0-0.3,0.1-0.7,0.2-0.9c0.2-0.3,0.4-0.5,0.6-0.6
				c0.3-0.2,0.6-0.3,0.9-0.4c0.4-0.1,0.7-0.1,1.1-0.1h0.9c0-0.4-0.1-0.6-0.4-0.9c-0.2-0.2-0.6-0.3-1-0.3c-0.2,0-0.4,0-0.7,0.1
				c-0.2,0.1-0.5,0.2-0.7,0.4l-0.9-0.9c0.3-0.3,0.7-0.6,1.1-0.7c0.4-0.2,0.9-0.3,1.3-0.3c0.4,0,0.8,0.1,1.1,0.2
				c0.3,0.1,0.6,0.3,0.8,0.5c0.3,0.3,0.5,0.6,0.6,0.9c0.1,0.3,0.2,0.8,0.2,1.3V577.9z M739.4,576.4v-1.1h-0.7c-0.2,0-0.4,0-0.6,0
				c-0.2,0-0.4,0.1-0.5,0.1c-0.1,0.1-0.2,0.2-0.3,0.3c-0.1,0.1-0.1,0.2-0.1,0.4c0,0.2,0.1,0.4,0.2,0.5c0.2,0.1,0.4,0.2,0.6,0.2
				c0.2,0,0.5,0,0.7-0.1C739,576.6,739.2,576.5,739.4,576.4z"/>
			<path class="st36" d="M697.4,580.3C697.4,580.4,697.4,580.4,697.4,580.3c-0.1,0-0.1,0-0.2,0c0,0-0.1-0.1-0.1-0.1
				c-0.1,0-0.1-0.1-0.2-0.1c-0.1,0-0.2,0-0.3,0s-0.2,0-0.3,0.1c-0.1,0-0.2,0.1-0.3,0.2s-0.1,0.1-0.2,0.2c0,0.1-0.1,0.2-0.1,0.3
				c0,0.1,0,0.2,0.1,0.3c0.1,0.1,0.1,0.1,0.2,0.2c0.1,0.1,0.2,0.1,0.3,0.1c0.1,0,0.2,0.1,0.3,0.1c0.1,0,0.2,0.1,0.3,0.1
				c0.1,0,0.2,0.1,0.3,0.2c0.1,0.1,0.2,0.2,0.2,0.3s0.1,0.2,0.1,0.4c0,0.2,0,0.3-0.1,0.4c-0.1,0.1-0.1,0.3-0.2,0.4
				c-0.1,0.1-0.2,0.2-0.4,0.2c-0.1,0.1-0.3,0.1-0.5,0.1c-0.2,0-0.4,0-0.6-0.1c-0.2-0.1-0.3-0.2-0.5-0.3l0.1-0.1c0,0,0,0,0.1,0
				c0,0,0,0,0.1,0c0,0,0.1,0,0.1,0.1c0,0,0.1,0.1,0.1,0.1c0,0,0.1,0.1,0.2,0.1c0.1,0,0.1,0.1,0.2,0.1c0.1,0,0.2,0,0.3,0
				c0.1,0,0.3,0,0.4-0.1c0.1,0,0.2-0.1,0.3-0.2c0.1-0.1,0.1-0.2,0.2-0.3c0-0.1,0.1-0.2,0.1-0.3c0-0.1,0-0.2-0.1-0.3
				c-0.1-0.1-0.1-0.2-0.2-0.2s-0.2-0.1-0.3-0.1c-0.1,0-0.2-0.1-0.3-0.1c-0.1,0-0.2-0.1-0.3-0.1c-0.1,0-0.2-0.1-0.3-0.2
				c-0.1-0.1-0.2-0.2-0.2-0.3c-0.1-0.1-0.1-0.2-0.1-0.4c0-0.1,0-0.2,0.1-0.4c0-0.1,0.1-0.2,0.2-0.3c0.1-0.1,0.2-0.2,0.3-0.2
				c0.1-0.1,0.3-0.1,0.5-0.1c0.2,0,0.4,0,0.5,0.1c0.2,0.1,0.3,0.2,0.4,0.3L697.4,580.3z"/>
			<path class="st36" d="M698.5,582.2L698.5,582.2c0,0.2,0,0.4,0.1,0.6c0,0.1,0.1,0.3,0.2,0.4c0.1,0.1,0.2,0.2,0.3,0.2
				c0.1,0,0.2,0.1,0.4,0.1c0.1,0,0.2,0,0.3,0c0.1,0,0.2-0.1,0.2-0.1c0.1,0,0.1-0.1,0.2-0.1c0,0,0.1,0,0.1,0c0,0,0,0,0.1,0l0.1,0.1
				c0,0.1-0.1,0.1-0.2,0.1c-0.1,0-0.1,0.1-0.2,0.1c-0.1,0-0.2,0.1-0.3,0.1c-0.1,0-0.2,0-0.3,0c-0.2,0-0.3,0-0.5-0.1
				c-0.1-0.1-0.3-0.2-0.4-0.3c-0.1-0.1-0.2-0.3-0.2-0.4c-0.1-0.2-0.1-0.4-0.1-0.6c0-0.2,0-0.4,0.1-0.5c0.1-0.2,0.1-0.3,0.2-0.4
				c0.1-0.1,0.2-0.2,0.4-0.3c0.1-0.1,0.3-0.1,0.5-0.1c0.1,0,0.3,0,0.4,0.1c0.1,0,0.2,0.1,0.3,0.2c0.1,0.1,0.2,0.2,0.2,0.4
				c0.1,0.1,0.1,0.3,0.1,0.5c0,0,0,0.1,0,0.1c0,0,0,0-0.1,0H698.5z M700.2,582c0-0.1,0-0.3-0.1-0.4c0-0.1-0.1-0.2-0.2-0.3
				c-0.1-0.1-0.2-0.1-0.3-0.2c-0.1,0-0.2-0.1-0.3-0.1c-0.1,0-0.3,0-0.4,0.1c-0.1,0-0.2,0.1-0.3,0.2c-0.1,0.1-0.1,0.2-0.2,0.3
				c0,0.1-0.1,0.2-0.1,0.4H700.2z"/>
			<path class="st36" d="M701.5,581.6c0-0.1,0.1-0.2,0.1-0.3s0.1-0.2,0.2-0.2c0.1-0.1,0.1-0.1,0.2-0.1c0.1,0,0.2,0,0.3,0
				c0.1,0,0.1,0,0.2,0c0.1,0,0.1,0,0.1,0.1l0,0.2c0,0,0,0,0,0c0,0-0.1,0-0.1,0c0,0-0.1,0-0.2,0c-0.1,0-0.2,0-0.3,0s-0.1,0.1-0.2,0.1
				c-0.1,0.1-0.1,0.1-0.2,0.2c0,0.1-0.1,0.2-0.1,0.3v1.7h-0.2V581h0.1c0,0,0,0,0.1,0c0,0,0,0,0,0.1L701.5,581.6z"/>
			<path class="st36" d="M704.8,581.3C704.8,581.3,704.8,581.3,704.8,581.3C704.8,581.4,704.8,581.4,704.8,581.3c-0.1,0-0.1,0-0.1,0
				c0,0-0.1,0-0.1-0.1c0,0-0.1-0.1-0.2-0.1s-0.2,0-0.3,0c-0.1,0-0.3,0-0.4,0.1c-0.1,0.1-0.2,0.1-0.3,0.2c-0.1,0.1-0.1,0.2-0.2,0.4
				c0,0.1-0.1,0.3-0.1,0.5c0,0.2,0,0.3,0.1,0.5c0,0.1,0.1,0.3,0.2,0.4c0.1,0.1,0.2,0.2,0.3,0.2c0.1,0,0.2,0.1,0.4,0.1
				c0.1,0,0.2,0,0.3,0c0.1,0,0.2-0.1,0.2-0.1c0.1,0,0.1-0.1,0.1-0.1c0,0,0.1,0,0.1,0s0,0,0.1,0l0.1,0.1c0,0.1-0.1,0.1-0.1,0.1
				s-0.1,0.1-0.2,0.1c-0.1,0-0.2,0.1-0.2,0.1c-0.1,0-0.2,0-0.3,0c-0.2,0-0.3,0-0.4-0.1s-0.3-0.1-0.3-0.3c-0.1-0.1-0.2-0.3-0.2-0.4
				c-0.1-0.2-0.1-0.3-0.1-0.6c0-0.2,0-0.4,0.1-0.5c0.1-0.2,0.1-0.3,0.2-0.4s0.2-0.2,0.4-0.3c0.1-0.1,0.3-0.1,0.5-0.1
				c0.2,0,0.3,0,0.4,0.1C704.7,581.1,704.8,581.1,704.8,581.3L704.8,581.3z"/>
			<path class="st36" d="M705.7,582.2L705.7,582.2c0,0.2,0,0.4,0.1,0.6c0,0.1,0.1,0.3,0.2,0.4c0.1,0.1,0.2,0.2,0.3,0.2
				c0.1,0,0.2,0.1,0.4,0.1c0.1,0,0.2,0,0.3,0c0.1,0,0.2-0.1,0.2-0.1c0.1,0,0.1-0.1,0.2-0.1c0,0,0.1,0,0.1,0c0,0,0,0,0.1,0l0.1,0.1
				c0,0.1-0.1,0.1-0.2,0.1c-0.1,0-0.1,0.1-0.2,0.1c-0.1,0-0.2,0.1-0.3,0.1c-0.1,0-0.2,0-0.3,0c-0.2,0-0.3,0-0.5-0.1
				c-0.1-0.1-0.3-0.2-0.4-0.3c-0.1-0.1-0.2-0.3-0.2-0.4c-0.1-0.2-0.1-0.4-0.1-0.6c0-0.2,0-0.4,0.1-0.5c0.1-0.2,0.1-0.3,0.2-0.4
				c0.1-0.1,0.2-0.2,0.4-0.3c0.1-0.1,0.3-0.1,0.5-0.1c0.1,0,0.3,0,0.4,0.1c0.1,0,0.2,0.1,0.3,0.2c0.1,0.1,0.2,0.2,0.2,0.4
				c0.1,0.1,0.1,0.3,0.1,0.5c0,0,0,0.1,0,0.1c0,0,0,0-0.1,0H705.7z M707.4,582c0-0.1,0-0.3-0.1-0.4c0-0.1-0.1-0.2-0.2-0.3
				c-0.1-0.1-0.2-0.1-0.3-0.2c-0.1,0-0.2-0.1-0.3-0.1c-0.1,0-0.3,0-0.4,0.1c-0.1,0-0.2,0.1-0.3,0.2c-0.1,0.1-0.1,0.2-0.2,0.3
				c0,0.1-0.1,0.2-0.1,0.4H707.4z"/>
			<path class="st36" d="M710,583.5V581h0.1c0,0,0.1,0,0.1,0.1l0,0.4c0.1-0.1,0.2-0.3,0.3-0.3c0.1-0.1,0.3-0.1,0.4-0.1
				c0.2,0,0.3,0.1,0.5,0.2c0.1,0.1,0.2,0.3,0.2,0.5c0-0.1,0.1-0.2,0.1-0.3c0.1-0.1,0.1-0.1,0.2-0.2c0.1-0.1,0.2-0.1,0.2-0.1
				c0.1,0,0.2,0,0.3,0c0.1,0,0.2,0,0.3,0.1c0.1,0,0.2,0.1,0.3,0.2c0.1,0.1,0.1,0.2,0.2,0.3c0,0.1,0.1,0.3,0.1,0.4v1.6h-0.2v-1.6
				c0-0.3-0.1-0.4-0.2-0.6c-0.1-0.1-0.3-0.2-0.5-0.2c-0.1,0-0.2,0-0.3,0c-0.1,0-0.2,0.1-0.2,0.1c-0.1,0.1-0.1,0.1-0.1,0.2
				c0,0.1-0.1,0.2-0.1,0.3v1.6h-0.2v-1.6c0-0.2,0-0.4-0.1-0.6c-0.1-0.1-0.2-0.2-0.4-0.2c-0.1,0-0.3,0-0.4,0.1
				c-0.1,0.1-0.2,0.2-0.3,0.3v1.9H710z"/>
			<path class="st36" d="M715.3,580.9c0.2,0,0.3,0,0.5,0.1c0.1,0.1,0.3,0.2,0.4,0.3c0.1,0.1,0.2,0.3,0.2,0.4
				c0.1,0.2,0.1,0.3,0.1,0.5c0,0.2,0,0.4-0.1,0.5s-0.1,0.3-0.2,0.4c-0.1,0.1-0.2,0.2-0.4,0.3c-0.1,0.1-0.3,0.1-0.5,0.1
				c-0.2,0-0.3,0-0.5-0.1c-0.1-0.1-0.3-0.2-0.4-0.3c-0.1-0.1-0.2-0.3-0.2-0.4s-0.1-0.3-0.1-0.5c0-0.2,0-0.4,0.1-0.5
				c0.1-0.2,0.1-0.3,0.2-0.4c0.1-0.1,0.2-0.2,0.4-0.3C714.9,581,715.1,580.9,715.3,580.9z M715.3,583.4c0.2,0,0.3,0,0.4-0.1
				c0.1-0.1,0.2-0.1,0.3-0.2c0.1-0.1,0.1-0.2,0.2-0.4c0-0.1,0.1-0.3,0.1-0.5c0-0.2,0-0.3-0.1-0.5c0-0.1-0.1-0.3-0.2-0.4
				c-0.1-0.1-0.2-0.2-0.3-0.2c-0.1-0.1-0.2-0.1-0.4-0.1c-0.2,0-0.3,0-0.4,0.1c-0.1,0.1-0.2,0.1-0.3,0.2c-0.1,0.1-0.1,0.2-0.2,0.4
				c0,0.1-0.1,0.3-0.1,0.5c0,0.2,0,0.3,0.1,0.5c0,0.1,0.1,0.3,0.2,0.4c0.1,0.1,0.2,0.2,0.3,0.2C715,583.4,715.1,583.4,715.3,583.4z"
				/>
			<path class="st36" d="M717.6,581v2.9c0,0.1,0,0.2,0,0.2c0,0.1-0.1,0.1-0.1,0.2c-0.1,0.1-0.1,0.1-0.2,0.1s-0.2,0-0.3,0
				c0,0-0.1,0-0.1,0c0,0-0.1,0-0.1,0l0-0.1c0,0,0,0,0,0c0,0,0,0,0,0c0,0,0,0,0.1,0c0,0,0.1,0,0.1,0c0.1,0,0.2,0,0.3-0.1
				c0.1-0.1,0.1-0.2,0.1-0.3V581H717.6z M717.7,580.1C717.7,580.1,717.7,580.2,717.7,580.1c0,0.1,0,0.1-0.1,0.2c0,0,0,0-0.1,0
				c0,0-0.1,0-0.1,0s-0.1,0-0.1,0c0,0-0.1,0-0.1,0s0,0,0-0.1c0,0,0-0.1,0-0.1c0,0,0-0.1,0-0.1c0,0,0-0.1,0-0.1s0,0,0.1,0
				c0,0,0.1,0,0.1,0s0.1,0,0.1,0c0,0,0.1,0,0.1,0C717.6,580,717.6,580,717.7,580.1C717.7,580,717.7,580.1,717.7,580.1z"/>
			<path class="st36" d="M718.7,582.2L718.7,582.2c0,0.2,0,0.4,0.1,0.6c0,0.1,0.1,0.3,0.2,0.4c0.1,0.1,0.2,0.2,0.3,0.2
				c0.1,0,0.2,0.1,0.4,0.1c0.1,0,0.2,0,0.3,0c0.1,0,0.2-0.1,0.2-0.1s0.1-0.1,0.2-0.1c0,0,0.1,0,0.1,0c0,0,0,0,0.1,0l0.1,0.1
				c0,0.1-0.1,0.1-0.2,0.1c-0.1,0-0.1,0.1-0.2,0.1c-0.1,0-0.2,0.1-0.3,0.1c-0.1,0-0.2,0-0.3,0c-0.2,0-0.3,0-0.5-0.1
				c-0.1-0.1-0.3-0.2-0.4-0.3c-0.1-0.1-0.2-0.3-0.2-0.4c-0.1-0.2-0.1-0.4-0.1-0.6c0-0.2,0-0.4,0.1-0.5c0.1-0.2,0.1-0.3,0.2-0.4
				c0.1-0.1,0.2-0.2,0.4-0.3c0.1-0.1,0.3-0.1,0.5-0.1c0.1,0,0.3,0,0.4,0.1s0.2,0.1,0.3,0.2c0.1,0.1,0.2,0.2,0.2,0.4
				c0.1,0.1,0.1,0.3,0.1,0.5c0,0,0,0.1,0,0.1c0,0,0,0-0.1,0H718.7z M720.4,582c0-0.1,0-0.3-0.1-0.4c0-0.1-0.1-0.2-0.2-0.3
				c-0.1-0.1-0.2-0.1-0.3-0.2c-0.1,0-0.2-0.1-0.3-0.1c-0.1,0-0.3,0-0.4,0.1c-0.1,0-0.2,0.1-0.3,0.2c-0.1,0.1-0.1,0.2-0.2,0.3
				c0,0.1-0.1,0.2-0.1,0.4H720.4z"/>
			<path class="st36" d="M723.5,581.1L723.5,581.1c0,0.1,0,0.1-0.1,0.2l-0.4,0c0,0.1,0.1,0.1,0.1,0.2c0,0.1,0,0.2,0,0.3
				c0,0.1,0,0.2-0.1,0.3c0,0.1-0.1,0.2-0.2,0.3c-0.1,0.1-0.2,0.1-0.3,0.2c-0.1,0-0.2,0.1-0.4,0.1c-0.1,0-0.3,0-0.4-0.1
				c-0.1,0-0.1,0.1-0.2,0.1c0,0.1-0.1,0.1-0.1,0.2c0,0.1,0,0.1,0.1,0.2c0.1,0,0.1,0.1,0.2,0.1c0.1,0,0.2,0,0.3,0c0.1,0,0.2,0,0.3,0
				c0.1,0,0.2,0,0.3,0c0.1,0,0.2,0,0.3,0.1c0.1,0,0.2,0.1,0.2,0.2c0.1,0.1,0.1,0.2,0.1,0.3c0,0.1,0,0.2-0.1,0.3
				c-0.1,0.1-0.1,0.2-0.2,0.3c-0.1,0.1-0.2,0.1-0.4,0.2c-0.1,0-0.3,0.1-0.5,0.1c-0.2,0-0.3,0-0.5-0.1c-0.1,0-0.2-0.1-0.3-0.1
				c-0.1-0.1-0.2-0.1-0.2-0.2c0-0.1-0.1-0.2-0.1-0.3c0-0.1,0-0.3,0.1-0.3c0.1-0.1,0.2-0.2,0.4-0.2c-0.1,0-0.2-0.1-0.2-0.1
				c-0.1-0.1-0.1-0.1-0.1-0.2c0,0,0-0.1,0-0.1c0,0,0-0.1,0.1-0.1c0,0,0.1-0.1,0.1-0.1c0,0,0.1-0.1,0.1-0.1c-0.1-0.1-0.2-0.2-0.3-0.3
				c-0.1-0.1-0.1-0.3-0.1-0.4c0-0.1,0-0.2,0.1-0.3c0-0.1,0.1-0.2,0.2-0.3c0.1-0.1,0.2-0.1,0.3-0.2c0.1,0,0.2-0.1,0.4-0.1
				c0.1,0,0.2,0,0.3,0c0.1,0,0.2,0.1,0.3,0.1H723.5z M723.2,583.7c0-0.1,0-0.1-0.1-0.2c0,0-0.1-0.1-0.2-0.1c-0.1,0-0.2,0-0.2-0.1
				c-0.1,0-0.2,0-0.3,0c-0.1,0-0.2,0-0.3,0c-0.1,0-0.2,0-0.3,0c-0.1,0-0.1,0.1-0.2,0.1c-0.1,0-0.1,0.1-0.1,0.1c0,0-0.1,0.1-0.1,0.1
				c0,0.1,0,0.1,0,0.2c0,0.1,0,0.1,0.1,0.2c0,0.1,0.1,0.1,0.2,0.2c0.1,0,0.2,0.1,0.3,0.1c0.1,0,0.2,0,0.4,0c0.1,0,0.3,0,0.4,0
				s0.2-0.1,0.3-0.1c0.1-0.1,0.1-0.1,0.2-0.2C723.2,583.9,723.2,583.8,723.2,583.7z M722.2,582.4c0.1,0,0.2,0,0.3,0
				c0.1,0,0.2-0.1,0.2-0.1c0.1-0.1,0.1-0.1,0.1-0.2c0-0.1,0-0.2,0-0.3s0-0.2,0-0.3c0-0.1-0.1-0.1-0.1-0.2s-0.1-0.1-0.2-0.1
				c-0.1,0-0.2,0-0.3,0s-0.2,0-0.3,0c-0.1,0-0.2,0.1-0.2,0.1c-0.1,0.1-0.1,0.1-0.1,0.2c0,0.1,0,0.2,0,0.3s0,0.2,0,0.3
				c0,0.1,0.1,0.1,0.1,0.2c0.1,0.1,0.1,0.1,0.2,0.1C722,582.4,722.1,582.4,722.2,582.4z"/>
			<path class="st36" d="M725.2,580.9c0.2,0,0.3,0,0.5,0.1c0.1,0.1,0.3,0.2,0.4,0.3c0.1,0.1,0.2,0.3,0.2,0.4
				c0.1,0.2,0.1,0.3,0.1,0.5c0,0.2,0,0.4-0.1,0.5c-0.1,0.2-0.1,0.3-0.2,0.4c-0.1,0.1-0.2,0.2-0.4,0.3c-0.1,0.1-0.3,0.1-0.5,0.1
				c-0.2,0-0.3,0-0.5-0.1c-0.1-0.1-0.3-0.2-0.4-0.3c-0.1-0.1-0.2-0.3-0.2-0.4c-0.1-0.2-0.1-0.3-0.1-0.5c0-0.2,0-0.4,0.1-0.5
				c0.1-0.2,0.1-0.3,0.2-0.4c0.1-0.1,0.2-0.2,0.4-0.3C724.8,581,725,580.9,725.2,580.9z M725.2,583.4c0.2,0,0.3,0,0.4-0.1
				c0.1-0.1,0.2-0.1,0.3-0.2c0.1-0.1,0.1-0.2,0.2-0.4c0-0.1,0.1-0.3,0.1-0.5c0-0.2,0-0.3-0.1-0.5s-0.1-0.3-0.2-0.4
				c-0.1-0.1-0.2-0.2-0.3-0.2c-0.1-0.1-0.2-0.1-0.4-0.1s-0.3,0-0.4,0.1c-0.1,0.1-0.2,0.1-0.3,0.2c-0.1,0.1-0.1,0.2-0.2,0.4
				s-0.1,0.3-0.1,0.5c0,0.2,0,0.3,0.1,0.5c0,0.1,0.1,0.3,0.2,0.4c0.1,0.1,0.2,0.2,0.3,0.2C724.9,583.4,725,583.4,725.2,583.4z"/>
			<path class="st36" d="M730.7,579.8v3.8h-0.1c0,0-0.1,0-0.1-0.1l0-0.4c-0.1,0.2-0.2,0.3-0.4,0.4c-0.2,0.1-0.3,0.1-0.5,0.1
				c-0.3,0-0.6-0.1-0.7-0.3c-0.2-0.2-0.3-0.5-0.3-1c0-0.2,0-0.4,0.1-0.5c0-0.2,0.1-0.3,0.2-0.4c0.1-0.1,0.2-0.2,0.3-0.3
				c0.1-0.1,0.3-0.1,0.5-0.1c0.2,0,0.3,0,0.5,0.1c0.1,0.1,0.2,0.2,0.3,0.3v-1.5H730.7z M730.5,581.5c-0.1-0.1-0.2-0.3-0.3-0.3
				c-0.1-0.1-0.3-0.1-0.4-0.1c-0.2,0-0.3,0-0.4,0.1c-0.1,0.1-0.2,0.1-0.3,0.2c-0.1,0.1-0.1,0.2-0.2,0.4c0,0.1-0.1,0.3-0.1,0.5
				c0,0.4,0.1,0.7,0.2,0.8c0.1,0.2,0.3,0.3,0.6,0.3c0.2,0,0.3,0,0.5-0.1c0.1-0.1,0.3-0.2,0.4-0.4V581.5z"/>
			<path class="st36" d="M732.7,580.9c0.2,0,0.3,0,0.5,0.1c0.1,0.1,0.3,0.2,0.4,0.3c0.1,0.1,0.2,0.3,0.2,0.4
				c0.1,0.2,0.1,0.3,0.1,0.5c0,0.2,0,0.4-0.1,0.5c-0.1,0.2-0.1,0.3-0.2,0.4c-0.1,0.1-0.2,0.2-0.4,0.3c-0.1,0.1-0.3,0.1-0.5,0.1
				c-0.2,0-0.3,0-0.5-0.1c-0.1-0.1-0.3-0.2-0.4-0.3c-0.1-0.1-0.2-0.3-0.2-0.4c-0.1-0.2-0.1-0.3-0.1-0.5c0-0.2,0-0.4,0.1-0.5
				c0.1-0.2,0.1-0.3,0.2-0.4s0.2-0.2,0.4-0.3C732.3,581,732.5,580.9,732.7,580.9z M732.7,583.4c0.2,0,0.3,0,0.4-0.1
				c0.1-0.1,0.2-0.1,0.3-0.2c0.1-0.1,0.1-0.2,0.2-0.4c0-0.1,0.1-0.3,0.1-0.5c0-0.2,0-0.3-0.1-0.5c0-0.1-0.1-0.3-0.2-0.4
				c-0.1-0.1-0.2-0.2-0.3-0.2c-0.1-0.1-0.2-0.1-0.4-0.1s-0.3,0-0.4,0.1c-0.1,0.1-0.2,0.1-0.3,0.2c-0.1,0.1-0.1,0.2-0.2,0.4
				c0,0.1-0.1,0.3-0.1,0.5c0,0.2,0,0.3,0.1,0.5c0,0.1,0.1,0.3,0.2,0.4c0.1,0.1,0.2,0.2,0.3,0.2C732.4,583.4,732.5,583.4,732.7,583.4
				z"/>
			<path class="st36" d="M734.7,583.5V581h0.1c0,0,0.1,0,0.1,0.1l0,0.4c0.1-0.1,0.2-0.3,0.3-0.3c0.1-0.1,0.3-0.1,0.4-0.1
				c0.2,0,0.3,0.1,0.5,0.2c0.1,0.1,0.2,0.3,0.2,0.5c0-0.1,0.1-0.2,0.1-0.3c0.1-0.1,0.1-0.1,0.2-0.2c0.1-0.1,0.2-0.1,0.2-0.1
				c0.1,0,0.2,0,0.3,0c0.1,0,0.2,0,0.3,0.1c0.1,0,0.2,0.1,0.3,0.2c0.1,0.1,0.1,0.2,0.2,0.3c0,0.1,0.1,0.3,0.1,0.4v1.6h-0.2v-1.6
				c0-0.3-0.1-0.4-0.2-0.6c-0.1-0.1-0.3-0.2-0.5-0.2c-0.1,0-0.2,0-0.3,0c-0.1,0-0.2,0.1-0.2,0.1c-0.1,0.1-0.1,0.1-0.1,0.2
				c0,0.1-0.1,0.2-0.1,0.3v1.6h-0.2v-1.6c0-0.2,0-0.4-0.1-0.6c-0.1-0.1-0.2-0.2-0.4-0.2c-0.1,0-0.3,0-0.4,0.1
				c-0.1,0.1-0.2,0.2-0.3,0.3v1.9H734.7z"/>
			<path class="st36" d="M741,581v2.6h-0.1c0,0-0.1,0-0.1-0.1l0-0.4c-0.1,0.1-0.3,0.3-0.4,0.4c-0.2,0.1-0.3,0.1-0.5,0.1
				c-0.1,0-0.3,0-0.4-0.1c-0.1,0-0.2-0.1-0.3-0.2c-0.1-0.1-0.1-0.2-0.2-0.3c0-0.1-0.1-0.3-0.1-0.4V581h0.2v1.6
				c0,0.2,0.1,0.4,0.2,0.6c0.1,0.1,0.3,0.2,0.5,0.2c0.2,0,0.3,0,0.5-0.1c0.1-0.1,0.3-0.2,0.4-0.4V581H741z"/>
		</g>
	</g>
	<text transform="matrix(1 0 0 1 440.0251 479.8102)"><tspan x="0" y="0" class="st5 st24">PRIMA  </tspan><tspan x="4.1" y="1.6" class="st5 st24"> </tspan><tspan x="-0.7" y="3.3" class="st5 st24">FAMILIA</tspan></text>
</g>
<g id="Layer_4">
	<polygon id="Nova_ParkV1004" class="st37" points="633.3,107.2 633.3,183.2 669.4,183.2 669.4,207.2 733,207.2 733,158 707.2,158 
		707.2,107.2 	"/>
	<polygon id="Nova_ParkV1006" class="st37" points="709.1,107.2 709.1,156.1 734.8,156.1 734.8,207.2 783.8,207.2 783.8,200.4 
		809.3,200.4 809.3,182.2 838.3,182.2 838.3,175.6 854.5,175.6 854.5,165.8 859.3,165.8 859.3,110.7 854.5,107.2 	"/>
	<rect id="Nova_ParkV1002" x="670.1" y="208.8" class="st37" width="22.9" height="26.1"/>
	<polygon id="Nova_ParkV1008" class="st37" points="799.5,216.5 799.5,234.5 810.6,234.5 813.9,240.1 825.4,240.1 825.4,216.5 	"/>
	<rect id="Nova_ParkV1009" x="827.3" y="216.5" class="st37" width="33.9" height="23.7"/>
	<path id="Nova_ParkV1010" class="st37" d="M814.6,241.7h46.6v14h-40.9C818.3,247.5,814.6,241.7,814.6,241.7z"/>
	<path id="Nova_ParkV1012" class="st37" d="M820.7,257.4h40.5v12.9h-39C822.3,263,820.7,257.4,820.7,257.4z"/>
	<path id="Nova_ParkV1014" class="st37" d="M822.2,271.5h39v31h-46.6C823.2,284.5,822.2,271.5,822.2,271.5z"/>
	<polygon id="Nova_ParkV1016" class="st37" points="813.9,304.1 861.2,304.1 861.2,327.6 799.4,327.6 799.4,311.1 810.5,311.1 	"/>
	<rect id="Nova_ParkV1018" x="799.4" y="329.2" class="st37" width="86.5" height="32.5"/>
	<rect id="Nova_ParkV1020" x="799.4" y="363.2" class="st37" width="86.5" height="34"/>
	<polygon id="Nova_ParkV1022" class="st37" points="784,412.1 784,436.8 809.3,436.8 809.3,433.1 823.5,433.1 823.5,412.1 	"/>
	<rect id="Nova_ParkV1024" x="784" y="438.3" class="st37" width="25.3" height="23.9"/>
	<rect id="Nova_ParkV1026" x="784" y="463.7" class="st37" width="25.3" height="40.1"/>
	<polygon id="Nova_ParkV1028" class="st37" points="811.3,434.6 825.5,434.6 825.5,429.8 885.7,429.8 885.7,597.3 790.8,597.3 
		790.8,588.5 779.7,588.5 779.7,561.6 784,555.6 784,505.6 811.3,505.6 	"/>
	<polygon id="Nova_ParkV1030" class="st37" points="684.5,556.4 684.5,572.7 658.4,572.7 658.4,597.2 746,597.2 746,591.5 
		759.6,591.5 759.6,587.8 764,587.8 764,561.8 760,556.4 	"/>
	<rect id="Nova_ParkV1036" x="658.4" y="556.4" class="st37" width="24.2" height="14.7"/>
	<rect id="Nova_ParkV1038" x="632.6" y="556.4" class="st37" width="24.1" height="40.8"/>
	<polygon id="Nova_ParkV1040" class="st37" points="555.6,556.4 630.7,556.4 630.7,597.2 557.6,597.2 557.6,588.1 554.2,588.1 
		554.2,580.1 550.7,580.1 550.7,561 	"/>
	<polygon id="Nova_ParkV1046" class="st37" points="486,556.4 486,596.2 528.9,596.2 528.9,587.8 534.5,587.8 534.5,561.6 
		530.9,556.4 	"/>
	<polygon id="Nova_ParkV1054" class="st37" points="375.2,556.4 375.2,571.2 363.3,571.2 363.3,601.7 484.1,601.7 484.1,556.4 	"/>
	<rect id="Nova_ParkV1056" x="363.3" y="437.6" class="st37" width="30.5" height="67.2"/>
	<rect id="Nova_ParkV1058" x="363.3" y="412.9" class="st37" width="30.5" height="23.2"/>
	<polygon id="Nova_ParkV1060" class="st37" points="355.5,377.9 393.8,377.9 393.8,411 363.3,411 363.3,407.6 355.5,405.4 	"/>
	<polygon id="Nova_ParkV1062" class="st37" points="307.8,346.8 306.9,355.6 304.6,392.5 353.7,405.3 353.7,376.4 393.8,376.4 
		393.8,346.8 387.7,328.5 351.8,328.5 351.8,346.7 	"/>
	<path id="Nova_ParkV1064" class="st37" d="M351.7,297.7V310h10.9v4.7h16.3c-4.3-8.5-3.8-17-3.8-17H351.7z"/>
	<path id="Nova_ParkV1066" class="st37" d="M342.2,227.2l-3.5,8.6l-14.1,53.1h3.2v7.3h47.3c2-16.7,10-26.4,10-26.4L342.2,227.2z"/>
	<path id="Nova_ParkV1068" class="st37" d="M343.1,225.8l28.4-70l56-16.3v110.8c-31.4,0.3-41.5,18.1-41.5,18.1L343.1,225.8z"/>
	<polygon id="Nova_ParkV1070" class="st37" points="429.2,139 429.2,250.4 487.3,250.4 487.3,131.4 455.6,131.4 	"/>
	<path id="Nova_ParkV1072" class="st37" d="M502.5,222.5v28.9c13.3-0.8,26.6,2.3,26.6,2.3v-31.2H502.5z"/>
	<path id="Nova_ParkV1074" class="st37" d="M554.9,262.2v-53.4h-24.1v45C547.7,257.1,554.9,262.2,554.9,262.2z"/>
	<path id="Nova_ParkV1076" class="st37" d="M581,279.1v-70.3h-24.1v54C570.1,269.8,581,279.1,581,279.1z"/>
	<polygon id="Nova_ParkV1078" class="st37" points="582.6,236.3 582.6,280.1 606.1,299 606.1,251.2 586.8,236.3 	"/>
	<polygon id="Nova_ParkV1080" class="st37" points="607.8,252.2 607.8,300.1 611.1,302.4 631.4,302.4 631.4,270.4 	"/>
	<polygon id="Nova_ParkV1082" class="st37" points="632.9,271 632.9,302.4 677.1,302.4 680.5,284.5 650.4,284.5 	"/>
	<polygon id="Nova_ParkV1086" class="st37" points="714.3,264.8 710.3,283.8 721.7,283.8 721.7,266.3 	"/>
	<polygon id="Nova_ParkV1088" class="st37" points="723.4,266.7 723.4,283.8 747.9,283.8 747.9,271.5 	"/>
	<polygon id="Nova_ParkV1090" class="st37" points="749.6,271.5 749.6,283.8 768.8,283.8 770.5,276.1 	"/>
	<polygon id="Nova_ParkV1092" class="st37" points="734.8,285.4 734.8,309.3 763.5,309.3 768.4,285.4 	"/>
	<polygon id="Nova_ParkV1148" class="st37" points="709.6,285.4 733,285.4 733,309.3 704.7,309.3 	"/>
	<polygon id="Nova_ParkV1094" class="st37" points="734.8,311 734.8,335.2 757.7,335.2 763.1,311 	"/>
	<polygon id="Nova_ParkV1098" class="st37" points="704.7,311 733,311 733,336.7 757.7,336.7 747,386.3 747,412.1 759.7,412.1 
		759.7,436.8 687.9,436.8 687.9,361.1 698.2,361.1 698.2,342.3 	"/>
	<rect id="Nova_ParkV1100" x="734.8" y="438.3" class="st37" width="24.9" height="23.9"/>
	<polygon id="Nova_ParkV1105" class="st37" points="638.4,438.3 733.3,438.3 733.3,495.7 615.9,495.7 615.9,452.3 638.4,452.3 	"/>
	<rect id="Nova_ParkV1102" x="734.8" y="463.7" class="st37" width="24.9" height="32.1"/>
	<polygon id="Nova_ParkV1142" class="st37" points="615.9,343.3 615.9,407.5 629.9,407.5 629.9,420.9 638.4,420.9 638.4,436.8 
		686.5,436.8 686.5,367.9 678.8,367.9 678.8,361.1 682.3,361.1 682.3,343.3 	"/>
	<rect id="Nova_ParkV1110" x="581.8" y="438.3" class="st37" width="23.9" height="57.4"/>
	<polygon id="Nova_ParkV0114" class="st37" points="530.5,362 605.7,362 605.7,436.8 580.1,436.8 580.1,495.7 530.5,495.7 	"/>
	<path id="Nova_ParkV1140" class="st37" d="M581.8,334.8v25.6h23.9V344C592.2,343.3,581.8,334.8,581.8,334.8z"/>
	<path id="Nova_ParkV1138" class="st37" d="M562.3,318.1h-6.7v42.3h24.6v-26.6C568.9,325.7,562.3,318.1,562.3,318.1z"/>
	<rect id="Nova_ParkV1136" x="530.5" y="318.1" class="st37" width="23.3" height="42.3"/>
	<path id="Nova_ParkV1130" class="st37" d="M440.9,322.7l11.6,13.4v24.4h-16.8v-29C437.4,325.8,440.9,322.7,440.9,322.7z"/>
	<rect id="Nova_ParkV1128" x="435.7" y="362" class="st37" width="16.8" height="23.5"/>
	<rect id="Nova_ParkV1126" x="435.7" y="387.2" class="st37" width="16.8" height="24.1"/>
	<rect id="Nova_ParkV1124" x="435.7" y="412.9" class="st37" width="42.6" height="24"/>
	<polygon id="Nova_ParkV1114" class="st37" points="435.7,438.3 435.7,462.2 480.2,462.2 480.2,466.3 495.2,466.3 495.2,495.7 
		528.8,495.7 528.8,438.3 	"/>
	<rect id="Nova_ParkV1116" x="480.1" y="467.7" class="st37" width="13.6" height="28"/>
	<rect id="Nova_ParkV1118" x="454.3" y="463.9" class="st37" width="24.5" height="31.8"/>
	<polygon id="Nova_ParkV1120" class="st37" points="435.7,490.5 435.7,463.9 452.5,463.9 452.5,495.7 441.3,495.7 	"/>
	<path id="Nova_ParkV0118" class="st37" d="M442.1,321.5l12.3,14.2v75.6h25.9v25.5h48.5v-75h-25v-43.8h-52.1
		C446.4,318.1,442.1,321.5,442.1,321.5z"/>
	<rect id="Nova_ParkV1134" x="505.3" y="318.1" class="st37" width="23.4" height="42.3"/>
</g>
</svg>
