<?xml version="1.0" encoding="utf-8"?>
<!-- Generator: Adobe Illustrator 25.4.1, SVG Export Plug-In . SVG Version: 6.00 Build 0)  -->
<svg version="1.1" id="Layer_5" xmlns="http://www.w3.org/2000/svg" xmlns:xlink="http://www.w3.org/1999/xlink" x="0px" y="0px"
	 viewBox="0 0 882 697.3" style="enable-background:new 0 0 882 697.3;" xml:space="preserve">
<style type="text/css">
	.st0{fill:#E6E7E8;}
	.st1{fill:#E6E7E8;stroke:#000000;stroke-width:2;stroke-miterlimit:10;}
	.st2{fill:none;stroke:#231F20;stroke-miterlimit:10;}
	.st3{fill:#231F20;}
	.st4{fill-rule:evenodd;clip-rule:evenodd;fill:#231F20;}
	.st5{font-family:'Axiforma-Bold';}
	.st6{font-size:9px;}
	.st7{font-size:5px;}
	.st8{font-size:6px;}
	.st9{font-size:4px;}
	.st10{font-size:13.7072px;}
	.st11{font-size:6.2226px;}
	.st12{font-size:5.7606px;}
	.st13{font-size:4.0088px;}
	.st14{font-size:5.0907px;}
	.st15{font-size:5.7274px;}
	.st16{font-size:6.3642px;}
	.st17{font-size:8.9119px;}
	.st18{font-size:5.7569px;}
	.st19{font-size:6.7313px;}
	.st20{font-size:8.1222px;}
	.st21{font-size:4.686px;}
	.st22{font-size:4.2404px;}
	.st23{fill:#F47525;}
	.st24{fill:#010101;}
	.st25{fill:#E2E2E2;}
	.st26{fill:#262525;}
	.st27{fill:#F47825;}
	.st28{font-size:16px;}
</style>
<g id="outline">
	<polygon class="st0" points="669.5,697.3 669.5,506.5 576.1,506.5 576.1,210.8 0,210.8 0,69 418.5,69 418.5,0 882,0 882,468.5 
		815.3,468.5 815.3,489.5 882,489.5 882,697.3 	"/>
	<polygon class="st1" points="8.5,77.5 8.5,202.3 584.6,202.3 584.6,498 678,498 678,688.8 873.5,688.8 873.5,498 806.8,498 
		806.8,460 873.5,460 873.5,8.5 427,8.5 427,77.5 	"/>
</g>
<g id="spatii">
	<polyline class="st2" points="98.7,202.3 133.4,202.3 133.4,77.5 126.9,77.5 126.9,101.2 98.7,101.2 98.7,202.3 8.5,202.3 
		8.5,77.5 126.9,77.5 	"/>
	<polyline class="st2" points="133.4,77.5 176.4,77.5 176.4,202.3 133.4,202.3 	"/>
	<polyline class="st2" points="176.4,77.5 238.1,77.5 238.1,202.3 176.4,202.3 	"/>
	<polyline class="st2" points="238.1,77.5 299.8,77.5 299.8,202.3 238.1,202.3 	"/>
	<polyline class="st2" points="299.8,77.5 338.4,77.5 338.4,202.3 299.8,202.3 	"/>
	<polyline class="st2" points="338.4,77.5 386.2,77.5 386.2,202.3 338.4,202.3 	"/>
	<polyline class="st2" points="386.2,77.5 427,77.5 427,202.3 386.2,202.3 	"/>
	<polyline class="st2" points="427,105 463,105 463,202.3 427,202.3 	"/>
	<polyline class="st2" points="463,181 515.7,181 515.7,202.3 463,202.3 	"/>
	<path class="st2" d="M463,181"/>
	<polyline class="st2" points="463,105 515.7,105 515.7,138.4 515.7,181 515.7,155.4 463,155.4 	"/>
	<polyline class="st2" points="515.7,105 515.7,98.6 515.7,98.2 495,77.5 427,77.5 427,8.5 873.5,8.5 873.5,460 806.8,460 
		806.8,498 873.5,498 873.5,688.8 678,688.8 678,498 584.6,498 584.6,202.3 515.7,202.3 	"/>
	<line class="st2" x1="499.1" y1="8.5" x2="499.1" y2="41"/>
	<line class="st2" x1="525.1" y1="8.5" x2="525.1" y2="41"/>
	<line class="st2" x1="554.1" y1="8.5" x2="554.1" y2="41"/>
	<line class="st2" x1="591.1" y1="8.5" x2="591.1" y2="41"/>
	<line class="st2" x1="667.1" y1="8.5" x2="667.1" y2="41"/>
	<polyline class="st2" points="653.3,41 653.3,66 688.1,66 688.1,106.3 678,106.3 	"/>
	<line class="st2" x1="678" y1="89.9" x2="688.1" y2="89.9"/>
	<line class="st2" x1="873.5" y1="632.2" x2="678" y2="632.2"/>
	<line class="st2" x1="873.5" y1="574.9" x2="678" y2="574.9"/>
	<polyline class="st2" points="427,41 454.1,41 454.1,67 486,67 486,41 619.1,41 619.1,8.5 	"/>
	<polyline class="st2" points="873.5,418.8 678,418.8 678,41 629.1,41 629.1,8.5 	"/>
	<line class="st2" x1="806.8" y1="498" x2="678" y2="498"/>
	<polyline class="st2" points="678,460 806.8,460 806.8,427.2 678,427.2 678,498 	"/>
	<polyline class="st2" points="750.9,460 750.9,480.8 678,480.8 	"/>
	<polyline class="st2" points="584.6,468.2 645.2,468.2 645.2,498 	"/>
	<line class="st2" x1="645.2" y1="367.4" x2="584.6" y2="367.4"/>
	<line class="st2" x1="645.2" y1="315.8" x2="584.6" y2="315.8"/>
	<polyline class="st2" points="584.6,299.4 645.2,299.4 645.2,435.5 584.6,435.5 	"/>
	<polyline class="st2" points="584.6,289.1 645.2,289.1 645.2,103.2 641.2,99.2 552.5,99.2 548.5,103.2 548.5,202.2 	"/>
	<line class="st2" x1="645.2" y1="251.4" x2="584.6" y2="251.4"/>
	<line class="st2" x1="645.2" y1="224" x2="584.6" y2="224"/>
	<line class="st2" x1="645.2" y1="131.1" x2="548.5" y2="131.1"/>
	<line class="st2" x1="600" y1="131.1" x2="600" y2="224"/>
	<line class="st2" x1="600" y1="151.8" x2="645.2" y2="151.8"/>
	<line class="st2" x1="600" y1="170.3" x2="645.2" y2="170.3"/>
	<line class="st2" x1="600" y1="188.8" x2="645.2" y2="188.8"/>
	<line class="st2" x1="548.5" y1="181" x2="600" y2="181"/>
	<polyline class="st2" points="548.5,145.8 587.8,145.8 587.8,131.1 	"/>
	<line class="st2" x1="600" y1="205.4" x2="645.2" y2="205.4"/>
	<line class="st2" x1="626.7" y1="99.2" x2="626.7" y2="131.1"/>
	<line class="st2" x1="608.2" y1="99.2" x2="608.2" y2="131.1"/>
	<line class="st2" x1="589.8" y1="99.2" x2="589.8" y2="131.1"/>
	<line class="st2" x1="572.4" y1="99.2" x2="572.4" y2="131.1"/>
	<line class="st2" x1="572.4" y1="116.9" x2="548.5" y2="116.9"/>
	<polyline class="st2" points="645.2,273.6 598.3,273.6 598.3,289.1 	"/>
	<polyline class="st2" points="645.2,333.7 606.1,333.7 606.1,346.8 645.2,346.8 	"/>
	<line class="st2" x1="606.1" y1="340.6" x2="584.6" y2="340.6"/>
	<line class="st2" x1="606.1" y1="367.4" x2="606.1" y2="435.5"/>
	<line class="st2" x1="606.1" y1="382.9" x2="645.2" y2="382.9"/>
	<line class="st2" x1="606.1" y1="404.9" x2="624.6" y2="404.9"/>
	<polyline class="st2" points="624.6,435.5 624.6,400.9 645.2,400.9 	"/>
	<line class="st2" x1="624.6" y1="418.2" x2="645.2" y2="418.2"/>
	<path class="st3" d="M525.8,155.4"/>
	<path class="st3" d="M525.8,155.4"/>
</g>
<g id="logos">
	<g>
		<path class="st3" d="M796.3,654.9c-0.8-2.5-0.3-4.4-1.8-6.2c-1.7-1.6-3.6-1.3-5.7-2.5c-2-1.4-2.5-3.2-4.5-4
			c-2.3-0.7-3.7,0.5-6.2,0.1c-2.8-0.5-3.2-2-5.6-2.1h0h0c-2.4,0.1-2.8,1.6-5.6,2.1c-2.6,0.3-4-0.8-6.2-0.1c-2,0.8-2.5,2.6-4.5,4
			c-2.1,1.2-4,0.9-5.7,2.5c-1.4,1.8-0.9,3.6-1.8,6.2c-1,2.4-2.8,3.3-2.8,5.7c0,2.4,1.8,3.3,2.8,5.8c0.8,2.5,0.3,4.4,1.8,6.2
			c1.7,1.6,3.6,1.3,5.7,2.5c2,1.4,2.5,3.2,4.5,4c2.3,0.7,3.7-0.5,6.2-0.1c2.8,0.5,3.2,2,5.6,2.1h0h0c2.4-0.1,2.8-1.6,5.6-2.1
			c2.6-0.3,4,0.8,6.2,0.1c2-0.8,2.5-2.6,4.5-4c2.1-1.2,4-0.9,5.7-2.5c1.4-1.8,0.9-3.6,1.8-6.2c1-2.4,2.8-3.4,2.8-5.8
			C799,658.1,797.3,657.3,796.3,654.9z M772.4,676.5c-13.3,0-22.2-7-22.2-15.9c0-8.9,8.9-15.9,22.2-15.9c13.4,0,22.2,7,22.2,15.9
			C794.7,669.5,785.8,676.5,772.4,676.5z"/>
		<path class="st3" d="M772.4,645.6c-12.8,0-21.3,6.6-21.3,15s8.5,15,21.3,15c12.7,0,21.3-6.6,21.3-15S785.2,645.6,772.4,645.6z
			 M768.8,668c0,0.1-0.1,0.2-0.2,0.2h-0.9c-0.1,0-0.2,0-0.2-0.2c-0.1-0.1-0.2-0.3-0.4-0.3c-0.5,0-1.4,0.5-3.5,0.5
			c-4.7,0-7.2-3.9-7.2-8.1c0-5,3-8.1,7.2-8.1c1.3,0,2,0.3,2.5,0.4c0.4,0.2,0.5,0.3,0.7,0.3c0.3,0,0.4-0.2,0.5-0.4
			c0.1-0.1,0.1-0.2,0.2-0.2h0.9c0.1,0,0.2,0.1,0.2,0.2v4.1c0,0.1-0.1,0.2-0.2,0.2h-0.9c-0.1,0-0.2,0-0.2-0.2c-0.3-1.9-1-3.1-3.2-3.1
			c-2.7,0-3.3,4.2-3.3,6.2c0,3.1,0.4,7.3,3.5,7.3c2.2,0,2.9-1.3,3.2-3.1c0-0.2,0.1-0.2,0.2-0.2h0.9c0.1,0,0.2,0.1,0.2,0.2V668z
			 M770.9,662.9c-1.5,0-2.7-0.8-2.7-2.2c0-1.2,1.1-2,2-2.3c-0.3-0.4-0.5-0.8-0.5-1.4c0-1.3,1.1-2,2.3-2c1.2,0,2,0.7,2,1.7
			c0,0.9-0.9,1.5-1.7,1.8l1.1,1.7c0.4-0.6,0.7-1.2,0.8-1.7c0,0,0.1-0.1,0.2-0.1h1.8c0.1,0,0.2,0,0.1,0.2l-0.2,0.5
			c0,0.1-0.1,0.1-0.2,0.1h-0.2c-0.2,0-0.3,0.1-0.4,0.3c0,0-0.3,0.4-0.4,0.7c-0.3,0.4-0.4,0.6-0.8,1c0,0,0.4,0.6,1.1,0.6h0.3
			c0.1,0,0.2,0,0.2,0.2l-0.2,0.5c0,0.1-0.1,0.1-0.2,0.1h-0.7c0,0-0.9,0.1-1.5-0.5C772.3,662.8,771.5,662.9,770.9,662.9z M789.4,668
			c0,0.1-0.1,0.2-0.2,0.2h-6.6c-0.1,0-0.2-0.1-0.2-0.2v-0.9c0-0.1,0.1-0.2,0.2-0.2l0.5,0c0.4,0,0.5-0.2,0.5-0.4c0-0.1,0-0.2,0-0.2
			c0-0.2-0.2-0.6-0.2-0.6s-0.4-1.2-0.6-1.9h-5.2l-0.9,2.1c-0.1,0.2-0.1,0.4-0.1,0.5c0,0.5,0.4,0.5,0.8,0.5l0.5,0
			c0.1,0,0.2,0.1,0.2,0.2v0.9c0,0.1-0.1,0.2-0.2,0.2h-4.5c-0.1,0-0.2-0.1-0.2-0.2v-0.9c0-0.1,0.1-0.2,0.2-0.2l0.2,0
			c0,0,0.5,0,0.8-0.1c0.3-0.1,0.4-0.3,0.5-0.6l5.7-13.7c0.1-0.2,0.2-0.2,0.3-0.2h1.8c0.2,0,0.3,0.1,0.3,0.2
			c0.5,1.5,4.8,13.7,4.8,13.7c0.2,0.6,0.4,0.8,1.1,0.8h0.3c0.1,0,0.2,0.1,0.2,0.2V668z"/>
		<path class="st3" d="M771.6,657.9c-0.3-0.5-0.5-0.8-0.5-1.3c0-0.4,0.3-0.8,0.7-0.8c0.4,0,0.6,0.4,0.6,0.8
			C772.5,657.2,772.2,657.6,771.6,657.9"/>
		<path class="st3" d="M770.6,659.2l1.7,2.3c-0.3,0.3-0.6,0.6-1.1,0.6c-0.8,0-1.3-0.5-1.3-1.4C769.8,660.1,770.1,659.5,770.6,659.2"
			/>
		<polyline class="st3" points="778.1,662.5 780.6,656.3 782.5,662.5 778.1,662.5 		"/>
	</g>
	<g>
		<g>
			<g>
				<path class="st3" d="M722.6,533.1c-1.8,0-3.7,0.8-4.9,2.6c-1,1.5-9.6,14.1-11.4,16.7c-0.3,0.4,0,0.6,0.4,0.6h6.1
					c0.6,0,0.7,0,1.2-0.6c0.8-1.2,6.5-10.6,7.6-12.3c0.2-0.3,0.6-0.6,1-0.6c0.4,0,0.8,0.2,1,0.6c1.1,1.8,6.9,11.1,7.6,12.3
					c0.4,0.6,0.6,0.5,1.2,0.6h6.1c0.4,0,0.7-0.2,0.4-0.6c-1.8-2.6-10.3-15.2-11.4-16.7C726.4,534,724.5,533.1,722.6,533.1
					L722.6,533.1z"/>
			</g>
			<path class="st3" d="M824,545.8c0.2,0,0.3,0.1,0.4,0.2l5.9,6.8c0.1,0.1,0.3,0.3,0.6,0.3h7.3c0.3,0,0.6-0.3,0.3-0.7
				c-0.1-0.1-7.7-8.9-7.7-8.9s-0.2-0.2-0.2-0.3c0-0.1,0.2-0.3,0.2-0.3l7.8-9.1c0.2-0.2,0.1-0.5-0.3-0.5h-6.9c-0.5,0-0.6,0.2-0.8,0.3
				c0,0-5.6,6.2-6.2,6.8c-0.2,0.2-0.3,0.3-0.4,0.3c-0.1,0-0.3-0.1-0.4-0.3c-0.6-0.6-6.2-6.8-6.2-6.8c-0.1-0.2-0.3-0.3-0.8-0.3h-6.9
				c-0.4,0-0.5,0.3-0.3,0.5l7.8,9.1c0,0,0.2,0.2,0.2,0.3c0,0.1-0.2,0.3-0.2,0.3s-7.6,8.8-7.7,8.9c-0.3,0.3,0,0.7,0.3,0.7h7.3
				c0.4,0,0.5-0.2,0.6-0.3l5.9-6.8C823.7,545.9,823.8,545.8,824,545.8z"/>
			<path class="st3" d="M746.1,533.1c0.3,0,0.6,0,0.6,0.4v9.2c0,5.1,0,5.7,5.9,5.7c4.9,0,9.8,0,9.8,0c0.3,0,0.6,0,0.6,0.4v3.9
				c0,0.4-0.3,0.4-0.6,0.4h-10.8c-2.3,0-4-0.1-5.3-0.2c-3.8-0.5-5.6-1.8-6.2-4.3c-0.3-1.3-0.3-4.9-0.3-4.9v-10.1
				c0-0.4,0.3-0.4,0.6-0.4H746.1z"/>
			<path class="st3" d="M780.5,533.1h-19.6c-0.5,0-0.6,0.1-0.6,0.5v3.8c0,0.4,0.1,0.5,0.6,0.5c0,0,5.9,0,6,0c0.3,0,0.4,0.1,0.4,0.4
				c0,0.2,0,14.6,0,14.6c0,0.1,0.2,0.3,0.4,0.3h6.1c0.2,0,0.4-0.1,0.4-0.3c0,0,0-14.5,0-14.6c0-0.3,0.1-0.4,0.4-0.4c0.1,0,6,0,6,0
				c0.4,0,0.6-0.1,0.6-0.5v-3.7C781.1,533.2,781,533.1,780.5,533.1z"/>
			<g>
				<path class="st3" d="M791.9,545.2c0,0,13.9,0,14.2,0c0.7,0,1.1-0.1,1.1-0.9c0-0.4,0-4.8,0-4.8c0-3.7-3-6.3-7.7-6.3l-8.8,0
					c-4.7,0-7.7,2.6-7.7,6.3v7.3c0,3.7,3,6.3,7.7,6.3h15.8c0.3,0,0.6,0,0.6-0.4v-3.5c0-0.4-0.3-0.4-0.6-0.4h-14.7
					c-1,0-1.8-0.8-1.8-1.8C790.2,546,791,545.2,791.9,545.2z M790.2,539.4c0-0.4,0.1-0.8,0.4-1.1c0.3-0.4,1-0.7,1.8-0.7h6.1
					c0.8,0,1.5,0.2,1.8,0.7c0.3,0.3,0.4,0.6,0.4,1.1c0,0.5-0.2,1-0.6,1.3c-0.4,0.3-0.9,0.5-1.5,0.5h-6.2c-0.6,0-1.2-0.2-1.5-0.5
					C790.4,540.4,790.2,539.9,790.2,539.4z"/>
			</g>
		</g>
		<path class="st3" d="M729.8,523.5L729.8,523.5C729.8,523.5,729.9,523.6,729.8,523.5c-0.1,0.1-2.7,0.9-4.6,2.8
			c-1.9,1.9-2.7,4.5-2.7,4.5c0,0.1-0.1,0.1-0.1,0.1s-0.1,0-0.1-0.1c0,0-0.9-2.6-2.7-4.5c-1.9-1.9-4.5-2.7-4.5-2.7
			c-0.1,0-0.1-0.1-0.1-0.1l0,0l0,0l0,0c0,0,0-0.1,0.1-0.1c0,0,2.6-0.8,4.5-2.7c1.9-1.9,2.7-4.5,2.7-4.5c0-0.1,0.1-0.1,0.1-0.1
			s0.1,0,0.1,0.1c0,0,0.8,2.6,2.7,4.5C727.1,522.6,729.8,523.4,729.8,523.5C729.9,523.5,729.8,523.5,729.8,523.5L729.8,523.5
			L729.8,523.5z"/>
	</g>
	<g>
		<path class="st3" d="M250.1,140.2c0,18.2,8.2,32.4,18.7,32.4c10.5,0,18.7-14.2,18.7-32.4c0-18.2-8.2-32.4-18.7-32.4
			C258.3,107.8,250.1,122,250.1,140.2z M285.2,140.2c0,16.6-7.4,30.1-16.5,30.1c-9.1,0-16.5-13.5-16.5-30.1
			c0-16.6,7.4-30.1,16.5-30.1C277.9,110.1,285.2,123.6,285.2,140.2z"/>
		<path class="st3" d="M278.8,158.1c-1,0-0.9,1.2-1.3,1.2c-0.1,0-0.2-0.1-0.2-0.4c0-0.2,0-0.4,0.1-0.6l-0.8,0c0,0.2-0.1,0.4-0.1,0.6
			c0,0.9,0.4,1.4,1.1,1.4c1.1,0,0.8-1.2,1.3-1.2c0.1,0,0.2,0.1,0.2,0.4c0,0.2-0.1,0.5-0.1,0.7l0.8,0c0-0.2,0.1-0.5,0.1-0.7
			C280,158.6,279.5,158.1,278.8,158.1"/>
		<path class="st4" d="M277.7,154.8c0.3,0,0.4,0.2,0.4,0.4c0,0,0,0,0,0.1h-0.8c0,0,0-0.1,0-0.1C277.4,155,277.5,154.8,277.7,154.8
			 M277.7,153.9c-0.7,0-1.1,0.5-1.1,1.4c0,0.4,0,0.7,0,1h3.3v-0.9h-1c0-0.1,0-0.1,0-0.1C278.9,154.3,278.4,153.9,277.7,153.9z"/>
		<path class="st4" d="M278.3,150.1c0.7,0,0.9,0.4,0.9,0.7c0,0.4-0.3,0.6-0.9,0.6c-0.6,0-0.9-0.3-0.9-0.6
			C277.4,150.3,277.7,150.1,278.3,150.1 M278.2,149.1c-1.2,0-1.6,0.7-1.6,1.5c0,0.9,0.7,1.7,1.7,1.7c1,0,1.7-0.5,1.7-1.5
			C280,149.8,279.3,149.1,278.2,149.1z"/>
		<path class="st4" d="M277.7,145.9c0.2,0,0.4,0.2,0.4,0.4c0,0,0,0.1,0,0.1h-0.7c0,0,0-0.1,0-0.2C277.4,146,277.5,145.9,277.7,145.9
			 M279.9,144.7l-1,0.6c-0.1,0.1-0.2,0.1-0.4,0.2c-0.1-0.4-0.5-0.6-0.9-0.6c-0.7,0-1,0.5-1,1.3c0,0.4,0,0.8,0,1.1h3.3v-0.9h-1.2v0
			l1.2-0.6V144.7z"/>
		<polyline class="st3" points="277.4,141 276.6,141 276.6,143.3 277.4,143.3 277.4,142.6 279.9,142.6 279.9,141.7 277.4,141.7 
			277.4,141 		"/>
		<path class="st3" d="M278.8,137.2c-1,0-0.9,1.2-1.3,1.2c-0.1,0-0.2-0.1-0.2-0.4c0-0.2,0-0.4,0.1-0.6l-0.8,0c0,0.2-0.1,0.4-0.1,0.6
			c0,0.9,0.4,1.4,1.1,1.4c1.1,0,0.8-1.2,1.3-1.2c0.1,0,0.2,0.1,0.2,0.4c0,0.2-0.1,0.5-0.1,0.7l0.8,0c0-0.2,0.1-0.5,0.1-0.7
			C280,137.7,279.5,137.2,278.8,137.2"/>
		<path class="st3" d="M266.4,157.4v3.5c0,0-5.2,0-5.7,0c-0.8,0-1.1-0.5-1.1-0.5l0,4.2c0,0,0.3-0.5,1.1-0.5c0.5,0,12.5,0,13,0
			c0.8,0,1.1,0.5,1.1,0.5v-4.2c0,0-0.3,0.5-1.1,0.5c-0.5,0-3.9,0-6,0v-3.5c0,0,5.5,0,6,0c0.8,0,1.1,0.5,1.1,0.5v-4.2
			c0,0-0.3,0.5-1.1,0.5c-0.5,0-12.5,0-13,0c-0.8,0-1.1-0.5-1.1-0.5l0,4.2c0,0,0.3-0.5,1.1-0.5C261.2,157.4,266.4,157.4,266.4,157.4"
			/>
		<path class="st3" d="M269.5,143.7c-3,0-5.4,1.8-5.4,4.4c0,2.6,2.4,4.6,5.4,4.6c3,0,5.4-2.1,5.4-4.6c0-2.2-1.7-3.9-4.1-4.4l0,1.2
			c0,0,0.9,0.2,1.9,1c0.8,0.7,0.8,1.6,0.8,2.2c-0.2,1.4-1.8,1.5-4,1.5L269.5,143.7L269.5,143.7z M268.4,149.6c-1.8-0.1-3-0.4-3-1.5
			c0-1,1.2-1.5,3-1.5L268.4,149.6z"/>
		<path class="st3" d="M264.4,137.8c0-1.1,0.1-1.7,0.1-1.8c0.2-0.9,0.9-1.4,1.6-1.4c0.8,0,1.4,0.7,1.4,1.6s-0.6,1.6-1.4,1.6
			c-0.4,0-0.8-0.2-1-0.5c0,0-0.3,1,0.4,1.6c0.3,0.3,0.8,0.3,0.8,0.3s7,0,7.5,0c0.8,0,1.1-0.5,1.1-0.5v4.2c0,0-0.3-0.5-1.1-0.5
			c-0.5,0-7.7,0-8.2,0c-0.8,0-1.1,0.5-1.1,0.5V137.8"/>
		<path class="st3" d="M274.7,132.4l-5.2-2.1c-0.5-0.2-0.7,0.3-0.7,0.3v-2.6c0,0,0.1,0.6,0.7,0.9l9,3.5v2.1l-9,3
			c-0.5,0.2-0.7,0.7-0.7,0.7v-4.5c0.3,0.6,0.7,0.3,0.7,0.3L274.7,132.4"/>
		<path class="st3" d="M264.4,124v4.1c0,0,0.3-0.5,1.1-0.5c0.5,0,7.7,0,8.2,0c0.8,0,1.1,0.5,1.1,0.5V124c0,0-0.3,0.5-1.1,0.5
			c-0.5,0-7.7,0-8.2,0C264.7,124.5,264.4,124,264.4,124"/>
		<path class="st3" d="M262.1,127.7c-0.8,0-1.4-0.7-1.4-1.6c0-0.9,0.6-1.6,1.4-1.6c0.8,0,1.4,0.7,1.4,1.6
			C263.5,126.9,262.9,127.7,262.1,127.7"/>
		<path class="st3" d="M270,120.8c0.4-0.8,0.7-1.7,1-2.2c0.3-0.6,0.8-0.9,1.3-0.9c0.9,0,1.6,1,1.6,2.2c0,0.4-0.1,0.9-0.3,1.2
			c-0.2-0.4-0.5-0.9-1.2-0.9c-0.8,0-1.4,0.7-1.4,1.6c0,0.7,0.3,1.2,0.9,1.5c0,0,0.4,0.2,0.8,0.1c0.1,0,0.3-0.1,0.4-0.1
			c1-0.5,1.7-1.8,1.8-4.3c-0.1-2.8-1.5-4.7-3.2-4.7c-0.8,0-1.5,0.3-2,0.9c-0.4,0.4-0.7,0.8-1.2,2c-0.3,0.7-0.5,1.4-0.7,1.8
			c-0.2,0.6-0.7,0.9-1.3,0.9c-0.8,0-1.5-0.8-1.5-1.8c0-0.2,0-0.4,0.1-0.6l0.1,0.1c0.3,0.3,0.6,0.5,1,0.5c0.8,0,1.4-0.7,1.4-1.6
			c0-0.9-0.6-1.6-1.4-1.6c-0.5,0-1,0.4-1.3,0.9c-0.4,0.7-0.7,1.6-0.7,2.6c0,2.4,1.4,4.3,3.2,4.3C268.5,122.8,269.5,122,270,120.8
			L270,120.8"/>
	</g>
	<g>
		<g>
			<path class="st3" d="M406.7,152.1L406.7,152.1L406.7,152.1c2.7,0,5.1,2.2,5.1,4.9c0,2.7-2.4,4.9-5.1,4.9c-2.7,0-5.1-2.2-5.1-4.9
				C401.6,154.3,404,152.1,406.7,152.1 M413.8,149.5h-14.2v2.8c0,0,0.5,0,0.9,0c0.3,0,1-0.1,1-0.1v0.1c-1.2,1-2.3,2.4-2.3,4.6
				c0,4.3,3.3,7.6,7.6,7.6c4.3,0,7.6-3.3,7.6-7.6c0-2.2-1.2-3.6-2.3-4.6v-0.1c0,0,0.7,0.1,1,0.1c0.5,0,0.9,0,0.9,0V149.5z"/>
			<polygon class="st3" points="402.2,170.9 402.2,166.4 399.6,166.1 399.6,178.9 402.2,178.9 402.2,173.8 413.8,173.8 413.8,170.9 
							"/>
			<path class="st3" d="M399.6,142.2v2.7h14.2v-2.7h-5.6l-0.9-0.9l6.6-5.4v-3.6l-8.3,7l-5.9-6v3.5l5.4,5.4v0.1c0,0-0.2-0.1-0.8-0.1
				H399.6z"/>
			<path class="st3" d="M406.7,104.2c2.7,0,5.1,2.2,5.1,4.9c0,2.7-2.4,4.9-5.1,4.9c-2.7,0-5.1-2.2-5.1-4.9
				C401.6,106.4,404,104.2,406.7,104.2 M406.7,101.5c-4.3,0-7.6,3.3-7.6,7.6c0,4.3,3.3,7.6,7.6,7.6c4.3,0,7.6-3.3,7.6-7.6
				C414.3,104.9,411,101.5,406.7,101.5"/>
			<path class="st3" d="M399.6,127v2.7h14.2V127h-5.6l-0.9-0.9l6.6-5.4v-3.6l-8.3,7l-5.9-6v3.5l5.4,5.4v0.1c0,0-0.2-0.1-0.8-0.1
				H399.6z"/>
		</g>
	</g>
	<g id="Brandingmodul_x5F_Deichmann_x5F_quadratisch_x5F_vertikal">
		<path id="Deichmann" class="st3" d="M319.4,181.8c1.3,0,2.7,0.6,2.7,2.2l0,2.1l-5.4,0l0-1.8C316.8,182.8,317.6,181.8,319.4,181.8
			 M319.4,179c-2.7,0-4.8,1.7-4.8,4.9c0,0.2,0,5.1,0,5.1l9.7-0.1c0,0,0-4.8,0-5.1C324.3,180.6,322.1,179,319.4,179 M324.3,177.3
			l-0.1-8.2l-2.1,0l0,5.4l-1.8,0l0-4.5l-2,0l0,4.5l-1.8,0l0-5.4l-2.1,0l0.1,8.2L324.3,177.3z M324.2,167.1l0-2.8l-9.7,0.1l0,2.8
			L324.2,167.1z M319.3,159.6c-1.6,0-3-0.6-3-2.3c0-1.2,0.7-1.8,1.5-2l0-2.8c-2.2,0.1-3.7,2-3.7,4.8c0,3.5,2.3,5.2,5.2,5.1
			c2.9,0,5.2-1.7,5.1-5.2c0-2.9-1.7-4.6-3.8-4.8l0,2.8c0.9,0.2,1.6,0.7,1.6,2C322.3,159,320.9,159.6,319.3,159.6 M324.1,144l0-2.8
			l-9.7,0.1l0,2.8l3.7,0l0,4.1l-3.7,0l0,2.8l9.7-0.1l0-2.8l-3.8,0l0-4.1L324.1,144z M324,129.4l0-2.6l-9.7,0.1l0,4l6.4,1.9v0l-6.4,2
			l0,4l9.7-0.1l0-2.6l-7.3,0v0l7.2-2.3l0-2.3l-7.3-2.2v0L324,129.4z M320.3,119l0,2.4l-3.7-1.1v0L320.3,119z M323.9,117.8l0-3
			l-9.7,3.7l0,3.4l9.7,3.6l0-3l-1.6-0.5l0-3.7L323.9,117.8z M323.8,106.9l0-3.1l-9.7,0.1l0,2.7l6.1,0v0l-6.1,3.9l0,3.2l9.7-0.1
			l0-2.7l-6.1,0v0L323.8,106.9z M323.8,91.5l-9.7,0.1l0,2.7l6.1,0v0l-6.1,3.9l0,3.2l9.7-0.1l0-2.7l-6.1,0v0l6.1-4.1L323.8,91.5z"/>
	</g>
	<g>
		<path class="st3" d="M455.3,18.9h-0.9l-0.2,0.8c0.4,0,1.1,0.4,0.6,0.9c-0.1,0.1-5.2,4-5.2,4l1.1-4c0.2-0.8,1.1-0.9,1.1-0.9
			l0.2-0.8l-6.2,0l-0.2,0.8c0.3,0.1,1.1,0.2,0.9,1.4c-2.1,7.5-1.8,6.8-2,7.2c-0.6,2.2-1.5,2.1-1.8,2.1l-0.2,0.8l0,0.1h0h6.5l0.2-0.9
			c0,0-1-0.2-0.8-1c0.2-0.7,1-3.7,1-3.7c2.9,4.6,3.6,5.4,6.1,5.5c0.8,0,1.9,0,3.3,0l0.2-0.9c-0.8,0-1.4-0.6-1.7-0.9
			c-0.2-0.2-1-1.5-1.8-2.7c-0.7-1.1-1.4-2.1-1.4-2.1l1.4-1.1l3.9-3.1c0.9-0.7,1.5-0.7,1.5-0.7l0.2-0.8L455.3,18.9z"/>
		<path class="st3" d="M481.7,18.8c-0.7,0-1.4,0-2,0.1c-5.2,0.6-8.4,3.9-8.4,7.2c0,2.8,2.2,5.4,7.4,5.4c0.3,0,0.6,0,1,0
			c1.3-0.1,2.4-0.2,3.4-0.4l0.6-2.6c-1,0.3-2.3,0.6-3.3,0.6c-0.2,0-0.5,0-0.7,0c-2.4-0.2-3.9-1.8-3.9-3.7c0-2,1.5-3.6,3.9-4
			c0.4-0.1,0.8-0.1,1.3-0.1c1.6,0,2.4,0.5,2.9,1.2h0.4l0.8-3C484.3,19.1,483.1,18.8,481.7,18.8z"/>
		<path class="st3" d="M468,18.9h-6.1l-0.2,0.8c0,0,1.2,0.1,0.8,1.4l-2.8,10.1l5.6,0l0.2-0.9c0,0-1-0.3-0.8-1.2c0-0.1,0.8-3,0.8-3
			h2.5h0.1c1.3,0,1.7,0.7,1.7,0.7l0.7-3H468h-1.8l0.6-2.4h1.1l2.6,0c0.7,0,1.2,0.5,1.2,0.8h0.4l0.8-3.3H468z"/>
	</g>
	<g>
		<g>
			<path class="st3" d="M364,127.5c0.2-0.3,0.3-0.7,0.3-1.1c0-0.4-0.1-0.8-0.3-1.2c-0.2-0.4-0.5-0.7-0.9-1c-0.4-0.3-0.8-0.4-1.2-0.5
				c-0.4-0.1-0.7,0-1,0.1c-0.3,0.2-0.6,0.4-0.8,0.7c-0.2,0.3-0.3,0.7-0.3,1.1c0,0.4,0.1,0.8,0.3,1.2c0.2,0.4,0.5,0.7,0.8,0.9
				c0.3,0.3,0.7,0.4,1,0.5c0.5,0.1,0.9,0,1.2-0.1C363.6,128.1,363.8,127.8,364,127.5z"/>
			<path class="st3" d="M359.8,154.7c0,0.2,0,0.5,0,0.7v0.4l2,0.3v-0.4c0-0.3,0-0.5,0-0.7c0-0.2-0.1-0.4-0.3-0.6
				c-0.1-0.2-0.4-0.3-0.7-0.3c-0.3,0-0.6,0-0.7,0.1C359.9,154.3,359.8,154.4,359.8,154.7z"/>
			<path class="st3" d="M352.5,140.2c0,13,4.3,23.6,9.6,23.6c5.3,0,9.6-10.5,9.6-23.6c0-13-4.3-23.6-9.6-23.6
				C356.8,116.6,352.5,127.2,352.5,140.2z M361.9,130.5c-0.8-0.1-1.5-0.5-2.2-1c-0.6-0.5-1.1-1.1-1.5-1.9c-0.4-0.7-0.5-1.5-0.5-2.3
				c0-0.8,0.2-1.5,0.5-2.1c0.4-0.6,0.8-1.1,1.5-1.4c0.6-0.3,1.3-0.4,2.2-0.3c0.9,0.1,1.7,0.5,2.3,1c0.7,0.5,1.2,1.1,1.6,1.8
				c0.4,0.7,0.6,1.5,0.6,2.4c0,0.9-0.2,1.6-0.6,2.2c-0.4,0.6-0.9,1.1-1.6,1.3C363.6,130.6,362.8,130.6,361.9,130.5z M362.8,152.9
				c0.4,0.6,0.7,1.3,0.7,2.2v1.2l2.7,0.4v2.1l-8.1-1.3v-3.2c0-0.6,0.1-1.1,0.3-1.5c0.2-0.4,0.5-0.7,0.9-0.9c0.4-0.2,0.9-0.2,1.5-0.1
				C361.6,152,362.3,152.4,362.8,152.9z M361.2,145.4l1.8,0.3v3.6l1.4,0.2v-3.7l1.8,0.3v5.8l-8.1-1.3v-5.8l1.8,0.3v3.7l1.4,0.2
				V145.4z M360.7,137.9c1,0.2,1.6,0.5,2.1,1.1c0.4,0.6,0.7,1.3,0.7,2.2v1.2l2.7,0.4v2.1l-8.1-1.3v-3.2c0-0.6,0.1-1.1,0.3-1.5
				c0.2-0.4,0.5-0.7,0.9-0.9C359.6,137.8,360.1,137.8,360.7,137.9z M362.1,137.5c-0.6-0.1-1.1-0.3-1.6-0.6c-0.5-0.3-1-0.7-1.4-1.1
				c-0.4-0.5-0.7-1-1-1.6c-0.2-0.6-0.3-1.2-0.3-1.7c0-0.7,0.1-1.3,0.4-1.9l2.5,0.4c-0.3,0.2-0.5,0.4-0.7,0.7c-0.2,0.3-0.2,0.6-0.2,1
				c0,0.4,0.1,0.8,0.3,1.2c0.2,0.4,0.5,0.6,0.8,0.9c0.3,0.2,0.7,0.4,1.1,0.5c0.7,0.1,1.2,0,1.6-0.4c0.4-0.3,0.6-0.8,0.6-1.5
				c0-0.3-0.1-0.7-0.2-1c-0.2-0.3-0.4-0.6-0.6-0.9l2.5,0.4c0.1,0.4,0.2,0.7,0.3,1c0.1,0.3,0.1,0.6,0.1,0.9c0,0.6-0.1,1.1-0.3,1.6
				c-0.2,0.5-0.5,0.9-0.9,1.3c-0.4,0.4-0.9,0.6-1.4,0.8C363.3,137.6,362.7,137.6,362.1,137.5z M370.7,133.9c0.6,4.8,0.4,4.3-0.2,0.1
				c-1.3-8.4-4.8-14.9-9-14.9c-1.3,0-2.8,0.5-3.8,1.8c0.5-0.8,1.1-1.7,1.7-2.1c0.8-0.6,1.8-0.9,2.7-0.9
				C366.3,117.8,369.7,125,370.7,133.9z"/>
			<path class="st3" d="M359.8,140.7c0,0.2,0,0.5,0,0.8v0.4l2,0.3v-0.4c0-0.3,0-0.5,0-0.7c0-0.2-0.1-0.4-0.3-0.6
				c-0.1-0.2-0.4-0.3-0.7-0.3c-0.3,0-0.6,0-0.7,0.1C359.9,140.3,359.8,140.5,359.8,140.7z"/>
		</g>
		<path class="st3" d="M352.5,152.2c-5.8-27.6,3.5-39.1,9.6-37.7c0.1,0,0.2,0,0.3,0c-6.1-4.1-17.1-1.1-14.7,20.2
			C348.1,139.2,350.1,146,352.5,152.2"/>
		<path class="st3" d="M371.7,128.2c5.8,27.6-3.5,39.1-9.6,37.7c-0.1,0-0.2,0-0.3,0c6.1,4.1,17.1,1.1,14.7-20.2
			C376,141.2,374.1,134.4,371.7,128.2"/>
	</g>
	<g>
		<path class="st3" d="M51.3,177.9c-1.9,0-2.8-1.4-3-2.4c-0.2-1-0.2-3.6-1-4.5c-0.8-0.9-1.9-1.5-3.3-1.3c-1.4,0.1-4.4,0.4-4.6,5.1
			c-0.1,1.6,0.6,3.3,1.4,4.4h30.3v-8c-0.9-0.2-1.8-0.3-1.8-0.3c-0.3,0-0.5,0-0.8-0.1c-3.1-0.2-6.9,1-10,3.2
			C55.4,176.4,53.2,177.9,51.3,177.9z M41.6,174.1c-0.2-0.1-0.2-0.4-0.2-0.6c0-0.4,0.2-0.8,0.5-1.1c0.3-0.3,0.7-0.5,1.1-0.5
			c0.2,0,0.4,0.1,0.6,0.2c0.4,0.4,0.3,1.1-0.2,1.7c-0.3,0.3-0.7,0.5-1.1,0.5C42,174.4,41.8,174.3,41.6,174.1z"/>
		<path class="st3" d="M44.9,165.4c0-0.9-0.4-0.8-0.4-0.8c-0.4,0.4-1.8,3-1.8,3c0.9,0.4,2-0.1,2-0.1S44.9,166.3,44.9,165.4z"/>
		<path class="st3" d="M35.4,179.2h2.9c-0.5-1.1-1-2.6-1-4.6c0-3.8,2.5-5.6,2.5-5.6s0.9-2.3,2.2-3.9c1.2-1.6,2.6-2.9,2.8-3
			c0.2-0.1,0.9-0.4,1.2,0.6c0.3,1,0.7,2.9,0.7,4.9c0,0,2.3,1.3,3.1,3.4c0.7,2.1,0,4.5,1.9,4.6c1.3,0.1,2.9-1.1,3.5-1.5
			c0.6-0.4,5.6-5.4,13.1-5.1c1.5,0.1,2.6,0.3,2.8,0.3v-68H35.4V179.2z M55.8,153.3c3.2,0,5.6,2.3,5.6,5.6c0,1.7-0.7,3.5-1.8,4.9
			l-5-2c0.8-0.3,1.7-0.6,1.7-1.6c0-1-1.1-1-1.8-1h-9.7v-5.8H55.8z M61.1,140.9v5.8h-7l-9.3,5.7v-6.7l4.3-1.8v-0.2
			c-0.5-0.2-1-0.3-1.5-0.5l-2.7-1.2v-6.7l9.3,5.6H61.1z M61.4,130.3c0,2.1-0.6,4.4-1.5,6.3l-4.6-1.8l0.2-0.3
			c0.8-1.1,1.5-2.3,1.5-3.7c0-0.6-0.2-1.5-1-1.5c-0.7,0-0.8,0.8-0.9,1.3l-0.2,1.2c-0.4,2.3-1.8,4.3-4.3,4.3c-3.9,0-6-3.5-6-7.1
			c0-1.9,0.5-3.6,1.4-5.2l4.2,1.6c-0.7,1-1.2,2.2-1.2,3.4c0,0.5,0.2,1.3,0.9,1.3c0.6,0,0.7-0.7,0.8-1.2l0.3-1.3
			c0.6-2.5,1.9-4.3,4.7-4.3C59.4,123.2,61.4,126.8,61.4,130.3z M61.1,111.9l-4.9,2.8c-0.6,0.3-1.2,0.9-1.9,1v0.1l6.8-0.1v5.8H44.8
			v-5.8l7.1,0.1v-0.1c-0.7-0.1-1.3-0.5-1.8-0.8l-5.2-2.9v-6.5l7.9,5.1l8.4-5.6V111.9z"/>
	</g>
	<g>
		<path id="dm_1_" class="st3" d="M114.1,148.1c0,2.1,2.9,3.3,5,3.3c0.8,0,1.2-0.2,1.2-0.7c0-1.2-3.4-3.2-5.5-3.6l-0.5-0.1
			C114.2,147.3,114.1,147.6,114.1,148.1 M122.9,145.6l0,3c-0.8-0.1-1.7-0.4-2.9-0.8v0c1.6,1,3.2,2.3,3.2,4c0,1.8-1.1,2.7-3.5,2.7
			c-4.2,0-8.1-2.2-8.1-7.1c0-0.3,0-0.5,0.1-1l-2.6-0.5h0c-0.1,0.5-0.2,1.2-0.2,1.9l-2.1-0.4c-0.2-1.6-0.3-3.1-0.2-5L122.9,145.6z
			 M122.9,127.2v3l-6.8-1.1c-1.1-0.2-1.5-0.1-1.5,0.4c0,1,2.7,2.9,5.4,3.3l3,0.5v3l-6.8-1.1c-1.1-0.2-1.5-0.1-1.5,0.4
			c0,1,2.7,2.8,5.3,3.3l3.1,0.6v3l-8.6-1.6h-0.1c-0.1,0.5-0.2,1.2-0.2,1.9l-2.1-0.4c-0.2-1.6-0.3-3.1-0.2-4.8
			c0.9,0.2,1.9,0.5,2.9,0.9v0c-1.7-1-3-2.1-3-4.1c0-1.3,0.7-2.2,2.2-2.2c0.3,0,0.6,0.1,1,0.2l0,0c-1.9-1-3.2-2.3-3.2-4.2
			c0-2.2,1.6-2.6,3.6-2.2L122.9,127.2z"/>
	</g>
	<g>
		<path class="st4" d="M756.9,351.4c0-1.6,1.1-2.7,2.7-2.7c1.5,0,2.8,0.4,4.3,0.4c1.2,0,2.4-0.4,3.5-0.4c2,0,2.9,1.9,2.9,3.6
			c0,2.4-1.1,3.4-3.4,3.2c-1.2,0-1.9,0-2.8,0.8c-1,1-1.3,2.4-1.3,3.7c0,5.4,5.4,6,9.5,6c4.5,0,9.3-0.6,9.3-6.2c0-1.2-0.2-2.5-1-3.3
			c-1-1.1-1.9-1.1-3.1-1.1c-1.1,0-1.8,0.1-2.6-0.6c-0.9-0.6-1.3-1.6-1.3-2.6c0-2.7,2.1-4,4.7-4c6.5,0,9.5,6.2,9.5,12
			c0,3.9-1.2,7.6-4.1,10.4c-2.8,2.6-7.5,3.7-11.3,3.7c-3.4,0-7.7-0.7-10.7-2.6c-3.3-2.2-5.1-6.1-5.1-10c0-2.9,0.9-5.4,3-7.4
			C758.1,354.3,756.9,353.2,756.9,351.4L756.9,351.4z"/>
		<path class="st4" d="M770.1,337.3c2,0,2.8,1.9,2.8,3.7c0,2.1-1.5,3.9-3.6,3.9c-4.5,0-5.2-6.1-5.2-9.4c0-2.2,0.2-5.1,1.3-7
			c1.6-2.5,4-2.7,6.7-2.7h8c0.6,0,2.1,0.1,2.1-0.7c0-0.4-0.1-0.7-0.1-1.1c0-1.4,1.2-2.2,2.5-2.2c2.4,0,3.3,2.5,3.3,4.4
			c0,2-0.8,4.2-2.8,4.9c2,2.1,2.8,4.7,2.8,7.3c0,3.9-2.1,7.7-6.5,7.7c-10.2,0-4.9-13.3-10.6-13.3c-1.7,0-2.4,1.5-2.4,2.8
			c0,0.8,0.1,1.5,1,1.5H770.1L770.1,337.3z M777.4,333c1.4,1.2,0.7,6.2,3,6.2c1.5,0,2-1.2,2-2.4c0-2.5-1.5-3.7-4-3.7H777.4
			L777.4,333z"/>
		<path class="st4" d="M773,316.2c-0.6,0-3-0.2-3,0.8c0,0.4,0.3,0.9,0.3,1.5c0,1.4-1.2,1.9-2.5,1.9c-1.7,0-2.9-0.8-2.9-2.2
			c0-1.3,0.4-2.2,0.4-2.9c0-1-0.4-1.9-0.4-2.8c0-1.3,0.8-1.4,1.8-1.4h3.2c-3.5-0.8-5.5-3.4-5.5-7.1c0-2.9,2.3-5.7,5.4-5.7
			c2.2,0,4.2,1.4,4.2,3.7c0,1.7-1.1,3-2.7,3c-0.7,0-1.2-0.3-1.8-0.5c-0.3,4.8,6.3,4.9,9.7,4.9c0.6,0,3,0.2,3-0.8
			c0-0.4-0.3-0.9-0.3-1.4c0-1.5,1.1-2,2.5-2c1.6,0,2.9,0.8,2.9,2.2c-0.1,2.4-0.5,4.1-0.5,5.9c0,1.6,0.4,3.2,0.5,4.8
			c0,1.4-1.4,2.2-2.9,2.2c-1.4,0-2.5-0.5-2.5-1.9c0-0.6,0.3-1.1,0.3-1.5c0-1-2.5-0.8-3-0.8H773L773,316.2z"/>
		<path class="st4" d="M773,292.6c-0.6,0-3-0.2-3,0.8c0,0.4,0.3,0.9,0.3,1.4c0,1.5-1.2,2-2.5,2c-1.7,0-2.9-0.8-2.9-2.2
			c0-1.3,0.4-2.2,0.4-3c0-0.9-0.4-1.9-0.4-2.8c0-1.2,0.8-1.3,1.8-1.3h3.2c-3.5-0.8-5.5-3.4-5.5-7.1c0-3,2.3-5.7,5.4-5.7
			c2.2,0,4.2,1.4,4.2,3.7c0,1.7-1.1,3-2.7,3c-0.7,0-1.2-0.3-1.8-0.6c-0.3,4.9,6.3,5,9.7,5c0.6,0,3,0.2,3-0.8c0-0.4-0.3-0.9-0.3-1.5
			c0-1.4,1.1-1.9,2.5-1.9c1.6,0,2.9,0.8,2.9,2.2c-0.1,2.4-0.5,4-0.5,5.8c0,1.7,0.4,3.3,0.5,4.9c0,1.4-1.4,2.2-2.9,2.2
			c-1.4,0-2.5-0.5-2.5-2c0-0.5,0.3-1,0.3-1.4c0-1-2.5-0.8-3-0.8H773L773,292.6z"/>
		<path class="st4" d="M777.2,264.9c0,0.9-0.3,2,0.9,2c2.4,0,4.3-2,4.3-4.4c0-3.7-3.3-3.4-3.3-6.8c0-1.7,1-3,2.6-3
			c2,0,3.4,1.5,4.4,3c1.3,2,1.8,4.4,1.8,6.9c0,7.1-4.8,11.4-11.8,11.4c-6.8,0-12-4.2-12-11.3c0-2.5,0.6-5.3,2.4-7.3
			c1.9-2.1,4.8-3.1,7.5-3.1c2.5,0,3.1,0.3,3.1,2.8V264.9L777.2,264.9z M772.4,260.9c0-0.7,0.3-1.5-0.7-1.5c-0.7,0-1.5,0.4-1.9,0.9
			c-0.6,0.7-0.8,1.5-0.8,2.4c0,1.2,0.2,2.1,1.1,2.9c0.4,0.4,1.1,1.1,1.7,1.1c0.9,0,0.6-1.4,0.6-1.9V260.9L772.4,260.9z"/>
		<path class="st4" d="M779.2,240.7c0.6,0,3,0.2,3-0.8c0-0.4-0.3-0.8-0.3-1.4c0-1.5,1.1-1.9,2.5-1.9c1.6,0,2.9,0.7,2.9,2.5
			c-0.1,1.8-0.5,3.5-0.5,5.3c0,1.7,0.4,3.2,0.5,4.7c0,1.7-1.4,2.3-2.9,2.3c-1.4,0-2.5-0.5-2.5-1.9c0-0.6,0.3-1,0.3-1.5
			c0-0.9-2.5-0.8-3-0.8h-7.9c-1.5,0-1.7-0.1-1.7,1.5c0,1.7-0.4,2.6-2.3,2.6c-1.8,0-2.5-0.7-2.5-2.4c0-1.3,0.1-1.7-1.4-1.7
			c-4.7-0.2-6.7-4.2-6.7-8.5c0-1.4,0.3-3.1,0.9-4.4c0.8-1.5,2.2-2.5,3.8-2.5c2,0,3.4,1.3,3.4,3.2c0,1.4-1.1,2.9-2.5,2.9
			c-0.5,0-0.8-0.2-1.2-0.4c-0.2,0.3-0.2,0.5-0.2,0.8c0,1.7,1,2.2,2.5,2.2c1.4,0,1.4-0.1,1.4-1.5c0-1.8,0.1-3,2.4-3
			c2,0,2.5,0.9,2.5,2.7c0,1.8-0.1,1.8,1.7,1.8H779.2L779.2,240.7z"/>
		<path class="st4" d="M775.7,213c7.2,0,12.2,3.5,12.2,11.1c0,7.5-4.5,11.6-11.9,11.6c-7.4,0-11.9-4-11.9-11.5
			C764.2,217.1,768.8,213,775.7,213L775.7,213z M769.7,224.2c-0.1,3.5,3.5,4.3,6.4,4.3c2.5,0,6.4-0.8,6.4-4c0-1.5-0.4-2.7-1.9-3.4
			c-1.3-0.7-3-1-4.5-1C773.3,220.1,769.6,220.7,769.7,224.2L769.7,224.2L769.7,224.2z"/>
		<path class="st4" d="M773,209.9c-0.6,0-3-0.1-3,0.8c0,0.5,0.3,0.9,0.3,1.5c0,1.4-1.2,1.9-2.5,1.9c-1.7,0-2.9-0.7-2.9-3.9
			c0-0.9,0.4-1.8,0.4-2.7c0-1-0.4-2-0.4-3c0-1.5,1.3-1.2,2.4-1.2h10.2c1,0,2.5,0,3.3-0.5c0.8-0.5,1.3-1.5,1.3-2.4
			c0-1.3-0.6-2.4-1.7-3.1c-1.4-0.9-2.8-1-4.5-1H773c-0.6,0-3-0.2-3,0.8c0,0.4,0.3,0.9,0.3,1.4c0,1.5-1.2,2-2.5,2
			c-1.7,0-2.9-0.8-2.9-3.7c0-0.9,0.4-1.8,0.4-2.7c0-1-0.4-2-0.4-3c0-1.5,1-1.4,2.1-1.4h12.3c0.6,0,3,0.2,3-0.8
			c0-0.4-0.3-0.9-0.3-1.5c0-1.4,1.1-1.9,2.5-1.9c1.6,0,2.9,0.8,2.9,2.5c-0.1,1.1-0.5,2.1-0.5,3c0,1,0.4,2,0.5,2.7
			c-0.1,1.7-1.4,1.6-2.3,1.6h-0.9c2.4,1.7,3.6,4.7,3.6,7.6c0,2.2-0.8,4.7-2.7,6c-1.8,1.3-4.3,1.1-6.5,1.1H773L773,209.9z"/>
		<path class="st4" d="M773,179.4c-0.6,0-3-0.1-3,0.8c0,0.5,0.3,0.9,0.3,1.5c0,1.4-1.2,1.9-2.5,1.9c-1.7,0-2.9-0.7-2.9-2.2
			c0-1.3,0.4-2.1,0.4-2.9c0-1-0.4-1.9-0.4-2.8c0-1.3,0.8-1.4,1.8-1.4h3.2c-3.5-0.8-5.5-3.4-5.5-7c0-3,2.3-5.7,5.4-5.7
			c2.2,0,4.2,1.4,4.2,3.6c0,1.7-1.1,3-2.7,3c-0.7,0-1.2-0.3-1.8-0.5c-0.3,4.8,6.3,4.9,9.7,4.9c0.6,0,3,0.2,3-0.8
			c0-0.4-0.3-0.8-0.3-1.4c0-1.5,1.1-1.9,2.5-1.9c1.6,0,2.9,0.7,2.9,2.2c-0.1,2.3-0.5,4-0.5,5.8c0,1.7,0.4,3.2,0.5,4.8
			c0,1.5-1.4,2.2-2.9,2.2c-1.4,0-2.5-0.5-2.5-1.9c0-0.6,0.3-1,0.3-1.5c0-0.9-2.5-0.8-3-0.8H773L773,179.4z"/>
		<path class="st4" d="M775.5,53.1c0.5,0,1,0.5,1,0.5L799.9,77c0.9,0.9,0.3,1.5-0.4,1.2c-1.2-0.6-2.4-1.5-5.3-2.4
			c-4.1-1.2-7.5-1.2-9.5-0.7c-2,0.5-5.8,2.8-5.8,7.7c0,6.4,5.9,8.2,8,8.1c1.4-0.1,3.6,0,5.6-2.3c1.5-1.7,0.9-3.3,0.9-3.7
			c-0.1-0.4-0.6-1.3,0.8-1.3c1.7,0,3.6,1.4,4.5,2.4c0.9,0.9,3.4,4.1,3.4,8.6c0,2.7-1.3,5.9-3.9,8.2c-2,1.8-4.3,2.8-7.5,3.9
			c-6,2-10.5,2.4-15.2,2.4c-4.2,0-8.9-0.5-14.9-2.4c-3.1-1-6.1-2.4-7.8-3.9c-2.7-2.2-3.8-5.5-3.8-8.2c0-4.5,2.5-7.7,3.3-8.6
			c0.9-1,2.8-2.4,4.5-2.4c1.4,0,0.9,0.9,0.8,1.3c0,0.4-0.6,2.1,0.9,3.7c2,2.3,4.2,2.2,5.7,2.3c2.1,0.1,7.9-1.8,7.9-8.1
			c0-4.9-3.8-7.3-5.8-7.7c-2-0.5-5.4-0.5-9.5,0.7c-2.9,0.9-4.1,1.8-5.2,2.4c-0.7,0.3-1.4-0.3-0.4-1.2l23.3-23.4
			C774.6,53.6,775,53.1,775.5,53.1L775.5,53.1z"/>
		<path class="st4" d="M775.3,139.4c0.5,0,1-0.4,1-0.4l24-25.1c0.6-0.6,0-0.8-0.5-0.6c-0.3,0.1-0.5,0.2-1.7,1
			c-9.7,6.9-22.8,6.7-22.8,6.7s-13.1,0.2-22.8-6.7c-1.2-0.8-1.4-0.9-1.7-1c-0.5-0.2-1.1,0-0.5,0.6l24,25.1
			C774.4,139,774.9,139.4,775.3,139.4L775.3,139.4z"/>
	</g>
	<g>
		<path class="st4" d="M160.9,108.8c1.4-1.3,1.8-3.8,0.8-6.5l0,0c-0.1-0.3-0.6-0.4-1.5-0.3l-1.2-3.5c-0.1-0.5-0.6-0.7-1-0.6
			c-0.5,0.2-0.6,0.6-0.5,1.1l1.1,3.3c-0.3,0.1-0.6,0.1-1,0.3c-0.3,0.1-0.6,0.3-1,0.4l-1.1-3.4c-0.1-0.4-0.6-0.6-1-0.5
			c-0.4,0.1-0.6,0.6-0.5,1l1.2,3.6c-0.7,0.4-1.1,0.8-1,1.1l0,0c0.9,2.7,2.7,4.5,4.5,4.7l0,0c0.1,0,0.3,0.2,0.3,0.3
			c0,0,3.1,14.5,3,33.1c-0.1,22.5-4.7,33.1-6.2,38.6c-0.1,0.3-0.1,0.6,0.2,0.9c0.3,0.1,0.6-0.1,0.8-0.4c0.1-0.2,8.7-14.4,8.7-39
			c0-17.1-3-28-4.7-33.7v0v-0.1C160.7,109,160.7,108.9,160.9,108.8L160.9,108.8L160.9,108.8z"/>
		<path class="st4" d="M153,151.2l-0.1-0.1l-4.1-1.8l4.2-0.6V151.2L153,151.2z M144.9,148.2c0,1.7,0.3,2.8,1.9,3.6
			c0,0,10.1,5,10.3,5.1v-3.8c0,0-1.5-0.7-1.5-0.7v-4.1c0,0,1.4-0.2,1.5-0.2v-4.2c-0.2,0-11.9,2.2-12,2.2
			C144.9,146.8,144.9,147.4,144.9,148.2L144.9,148.2L144.9,148.2z M148.1,164.9c-0.1,0-2.8-0.4-3-0.4c0,0.2,0,5.1,0,5.1
			c0,2.6,1.2,3.2,3.4,3.6c0,0,7.3,1.1,7.4,1.2c0.1-0.1,0.9-3.5,1-3.6c-0.2-0.1-3.7-0.6-3.7-0.6s0-2.8,0-3c-0.1,0-2.7-0.4-2.9-0.5
			c0,0.2,0,3,0,3l-2.2-0.4C148.1,169.3,148.1,165,148.1,164.9L148.1,164.9L148.1,164.9z M145.1,159.3v3.8c0.1,0,8.9,1.4,8.9,1.4
			l1.1,0.1c0.6,0,1-0.1,1.4-0.4c0.5-0.4,0.6-1,0.6-2.1c0,0,0-3.9,0-4.1c-0.1-0.1-3.3-0.5-3.5-0.6c0,0.2,0,3.2,0,3.2
			S145.3,159.3,145.1,159.3L145.1,159.3L145.1,159.3z M151.2,109.7c2,0.2,2.8,1.6,2.8,2.8c0,0.6-0.3,1.1-0.7,1.5
			c-0.5,0.5-1.3,0.6-2.2,0.5c-1.9-0.2-2.7-1.4-2.7-2.7c0-0.6,0.2-1.2,0.6-1.5C149.4,109.7,150.2,109.5,151.2,109.7L151.2,109.7
			L151.2,109.7z M146.6,106.8c-1.1,1-1.7,2.6-1.7,4.6c0,3.3,2.4,6.9,6.4,7.2h0.6c1.5,0,2.8-0.5,3.8-1.3c1-1,1.7-2.5,1.7-4.5
			c0-0.6-0.1-1.2-0.2-1.8c-2-0.8-3.8-2.7-4.7-5.2c-0.5-0.1-1.1-0.3-1.7-0.3h-0.6C148.7,105.5,147.5,106,146.6,106.8L146.6,106.8
			L146.6,106.8z M148.1,121.1c0-0.6,0.1-1.3,0.3-1.8c-0.1-0.1-3.1-0.9-3.3-0.9c-0.1,0.6-0.2,1.5-0.2,2c0,4.8,3.4,7.5,6.6,8
			c1.8,0.3,3.2,0,4.3-0.9c1-0.8,1.6-2.4,1.6-4.4c0-0.9-0.1-2-0.3-2.9c-0.1,0-3.2-0.2-3.4-0.3c0.2,0.6,0.3,1.2,0.3,1.8
			c0,0.8-0.3,1.5-0.8,1.9c-0.5,0.5-1.2,0.6-2.1,0.5C149.1,123.9,148.1,122.3,148.1,121.1L148.1,121.1L148.1,121.1z M149.6,133.2
			c0.8,0.1,1.8,0.2,1.8,0.2l1,0.1l-1.5,0.5c-1,0.3-3.5,1.1-5.7,1.5v5.4c0.1,0,11.8,1.9,12,1.9v-3.6c-0.1,0-4.2-0.7-5-0.8
			c-0.9-0.1-2.5-0.3-2.5-0.3s1.4-0.4,1.9-0.5c0.6-0.1,2.6-0.7,3.2-0.9c2.3-0.7,2.6-1.8,2.6-3.8c0-0.7-0.1-1.4-0.3-2.1
			c0,0-11.8-1.9-12-1.9v3.7C145.3,132.4,148.7,133,149.6,133.2L149.6,133.2L149.6,133.2z"/>
	</g>
	<g>
		<path class="st3" d="M216.2,153.8c1.6,2.7,2.4,5.7,2.4,8.9c0,3.7-1.1,6.8-3.3,9.1c-2.3,2.4-5.2,3.6-8.8,3.6
			c-3.6,0-6.5-1.2-8.8-3.6c-2.2-2.4-3.4-5.6-3.4-9.6c0-2.8,0.7-5.6,1.9-8.2h5.5c-1.7,2.6-2.5,5.2-2.5,7.8c0,2.4,0.7,4.2,1.9,5.6
			c1.3,1.4,3.1,2,5.3,2c2.2,0,3.9-0.6,5.2-1.9c1.3-1.3,2-3,2-5.2c0-2.8-1-5.6-2.9-8.4H216.2L216.2,153.8z"/>
		<path class="st3" d="M216.2,105c1.6,2.7,2.4,5.7,2.4,8.9c0,3.7-1.1,6.8-3.3,9.1c-2.3,2.4-5.2,3.6-8.8,3.6c-3.6,0-6.5-1.2-8.8-3.6
			c-2.2-2.4-3.4-5.6-3.4-9.6c0-2.8,0.7-5.5,1.9-8.2h5.5c-1.7,2.6-2.5,5.2-2.5,7.8c0,2.4,0.7,4.2,1.9,5.6c1.3,1.4,3.1,2,5.3,2
			c2.2,0,3.9-0.6,5.2-1.9c1.3-1.3,2-3,2-5.2c0-2.8-1-5.6-2.9-8.4H216.2L216.2,105z"/>
		<path class="st3" d="M216.2,129.4c1.6,2.7,2.4,5.7,2.4,8.9c0,3.7-1.1,6.8-3.3,9.1c-2.3,2.4-5.2,3.6-8.8,3.6
			c-3.6,0-6.5-1.2-8.8-3.6c-2.2-2.4-3.4-5.6-3.4-9.6c0-2.8,0.7-5.5,1.9-8.2h5.5c-1.7,2.6-2.5,5.2-2.5,7.8c0,2.4,0.7,4.2,1.9,5.6
			c1.3,1.4,3.1,2,5.3,2c2.2,0,3.9-0.6,5.2-1.9c1.3-1.3,2-3,2-5.2c0-2.8-1-5.6-2.9-8.4H216.2L216.2,129.4z"/>
	</g>
	<g>
		<g>
			<g>
				<path class="st3" d="M631.2,211.4c0.2,0,0.4,0,0.6,0c0,2.1,0,4.2,0,6.3c-0.2,0-0.4,0-0.6,0c0-0.3,0-0.5,0-0.8
					c-0.3,0.4-0.7,0.7-1.2,0.8c-0.6,0.2-1.2,0.1-1.8-0.2c-0.6-0.4-1.1-1-1.2-1.7c-0.1-0.5,0-1.1,0.3-1.6c0.3-0.5,0.9-1,1.5-1.1
					c0.5-0.1,1-0.1,1.4,0.1c0.4,0.2,0.7,0.4,0.9,0.8C631.2,213.1,631.2,212.2,631.2,211.4z M629.2,213.6c-0.2,0-0.3,0.1-0.4,0.1
					c-0.7,0.3-1.1,1-1.1,1.7c0,0.4,0.2,0.8,0.4,1.1c0.3,0.3,0.6,0.6,1.1,0.7c0.7,0.1,1.5-0.2,1.9-0.8c0.3-0.4,0.3-1,0.2-1.5
					c-0.1-0.5-0.4-0.9-0.8-1.2C630,213.6,629.6,213.5,629.2,213.6z"/>
			</g>
			<path class="st3" d="M605.8,211.5c0.3-0.1,0.7,0.2,0.8,0.5c0,0.3-0.3,0.7-0.6,0.7c-0.3,0-0.6-0.3-0.6-0.6
				C605.3,211.8,605.5,211.5,605.8,211.5z"/>
			<path class="st3" d="M633.9,211.5c0.1,0,0.3,0,0.4,0c0.1,0.1,0.2,0.2,0.2,0.4c0,0.2,0,0.3-0.2,0.4c-0.1,0.1-0.4,0.2-0.5,0.1
				c-0.2-0.1-0.3-0.3-0.3-0.5C633.6,211.8,633.7,211.6,633.9,211.5z"/>
			<path class="st3" d="M609.8,213.1c0.4-0.1,0.8-0.2,1.2,0c0.4,0.1,0.7,0.4,0.8,0.8c0.1,0.4,0.1,0.7,0.1,1.1c0,0.9,0,1.8,0,2.6
				c-0.4,0-0.8,0-1.1,0c0-0.7,0-1.4,0-2.1c0-0.3,0-0.6,0-0.9c0-0.2-0.1-0.4-0.3-0.5c-0.2-0.1-0.4-0.2-0.7-0.1
				c-0.3,0.1-0.5,0.2-0.6,0.5c-0.1,0.2-0.2,0.4-0.2,0.6c0,0.2,0,0.5,0,0.7c0,0.6,0,1.2,0,1.9c-0.4,0-0.8,0-1.1,0c0-1.5,0-3,0-4.5
				c0.4,0,0.8,0,1.1,0c0,0.2,0,0.3,0,0.5C609.3,213.4,609.5,213.2,609.8,213.1z"/>
			<path class="st3" d="M614.7,213.2c0.4-0.2,0.8-0.3,1.3-0.1c0.3,0.1,0.6,0.3,0.7,0.5c0.1,0.2,0.2,0.3,0.2,0.5
				c0.2-0.3,0.5-0.7,0.8-0.8c0.4-0.2,0.8-0.3,1.2-0.2c0.4,0.1,0.7,0.3,0.9,0.6c0.2,0.4,0.3,0.9,0.3,1.3c0,0.9,0,1.8,0,2.6
				c-0.2,0-0.4,0-0.6,0c0-0.7,0-1.5,0-2.2c0-0.4,0-0.7-0.1-1.1c0-0.2-0.1-0.4-0.3-0.6c-0.2-0.2-0.5-0.3-0.8-0.2
				c-0.5,0-0.9,0.3-1.1,0.8c-0.1,0.3-0.2,0.6-0.2,0.9c0,0.5,0,1,0,1.5c0,0.3,0,0.6,0,0.9c-0.2,0-0.4,0-0.6,0c0-0.7,0-1.3,0-2
				c0-0.3,0-0.7,0-1c0-0.2,0-0.4-0.1-0.6c-0.1-0.3-0.4-0.4-0.7-0.5c-0.4,0-0.7,0.1-1,0.3c-0.3,0.2-0.5,0.5-0.5,0.9
				c-0.1,0.6-0.1,1.1-0.1,1.7c0,0.4,0,0.8,0,1.2c-0.2,0-0.4,0-0.6,0c0-1.5,0-3,0-4.5c0.2,0,0.4,0,0.6,0c0,0.3,0,0.5,0,0.8
				C614.2,213.6,614.4,213.4,614.7,213.2z"/>
			<g>
				<path class="st3" d="M622.7,213.2c0.4-0.2,0.9-0.3,1.4-0.2c0.4,0.1,0.8,0.2,1.1,0.5c0.3,0.2,0.5,0.6,0.7,0.9
					c0.1,0.3,0.2,0.7,0.2,1c-1.4,0-2.7,0-4.1,0c0,0.4,0.1,0.8,0.3,1.1c0.2,0.3,0.5,0.6,0.9,0.7c0.5,0.1,1.1,0,1.5-0.2
					c0.3-0.2,0.5-0.5,0.7-0.8c0.2,0.1,0.3,0.2,0.5,0.3c-0.2,0.4-0.4,0.7-0.8,0.9c-0.3,0.2-0.7,0.4-1.1,0.4c-0.5,0-1,0-1.5-0.3
					c-0.4-0.2-0.6-0.5-0.8-0.9c-0.4-0.8-0.4-1.8,0-2.5C622,213.7,622.3,213.4,622.7,213.2z M622.7,213.9c-0.3,0.2-0.5,0.6-0.7,1
					c1.1,0,2.3,0,3.4,0c-0.1-0.3-0.2-0.6-0.4-0.8C624.5,213.5,623.4,213.4,622.7,213.9z"/>
			</g>
			<path class="st3" d="M604.8,214c0-0.3,0-0.6,0-0.9c0.6,0,1.1,0,1.7,0c0,1.5,0,3,0,4.5c-0.4,0-0.7,0-1.1,0c0-1.2,0-2.4,0-3.6
				C605.2,214,605,214,604.8,214z"/>
			<path class="st3" d="M633.1,213.2c0.5,0,0.9,0,1.4,0c0,1.5,0,3,0,4.5c-0.3,0-0.5,0-0.8,0c0-1.3,0-2.5,0-3.8c-0.2,0-0.4,0-0.6,0
				C633.1,213.6,633.1,213.4,633.1,213.2z"/>
		</g>
		<g>
			<g>
				<path class="st3" d="M637.8,213c0.4-0.1,0.9,0,1.3,0.2c0.4,0.2,0.7,0.5,0.9,0.8c0.3,0.5,0.4,1.1,0.3,1.7
					c-0.1,0.7-0.6,1.4-1.2,1.7c-0.5,0.3-1.1,0.4-1.7,0.3c-0.4-0.1-0.8-0.2-1.1-0.5c-0.3-0.3-0.5-0.7-0.6-1.2c-0.1-0.5,0-1,0.2-1.5
					c0.2-0.4,0.4-0.7,0.8-1C636.9,213.3,637.4,213.1,637.8,213z M637.8,214.1c-0.3,0.1-0.5,0.2-0.7,0.4c-0.2,0.3-0.4,0.6-0.4,1
					c0,0.2,0,0.5,0.1,0.7c0.1,0.2,0.3,0.4,0.5,0.5c0.2,0.1,0.5,0.1,0.7,0.1c0.3,0,0.5-0.2,0.7-0.4c0.2-0.3,0.4-0.6,0.4-1
					c0-0.2,0-0.5-0.1-0.7c-0.1-0.3-0.3-0.5-0.6-0.5C638.3,214,638,214,637.8,214.1z"/>
			</g>
		</g>
	</g>
	<g>
		<polygon class="st4" points="597.8,308.7 598.8,306.5 600.5,306.5 598.3,310.8 597.3,310.8 595,306.5 596.7,306.5 597.8,308.7 		
			"/>
		<path class="st4" d="M608.5,307.7c0.6,0,1,0.4,1,1c0,0.6-0.4,1-1,1c-0.6,0-1-0.4-1-1C607.5,308.1,607.9,307.7,608.5,307.7
			L608.5,307.7z M609.4,310.8h1.5v-7h-1.5v3.1c-0.3-0.4-0.8-0.6-1.3-0.6c-1.3,0-2.2,1.1-2.2,2.3c0,1.2,0.9,2.3,2.2,2.3
			c0.5,0,1-0.2,1.3-0.6h0V310.8L609.4,310.8z"/>
		<path class="st4" d="M614,307.7c0.6,0,1,0.4,1,1c0,0.6-0.4,1-1,1c-0.6,0-1-0.4-1-1C613.1,308.1,613.4,307.7,614,307.7L614,307.7z
			 M616.5,306.5H615v0.4c-0.3-0.4-0.8-0.6-1.3-0.6c-1.3,0-2.2,1.1-2.2,2.3c0,1.2,0.9,2.3,2.2,2.3c0.5,0,1-0.2,1.3-0.6h0v0.5h1.5
			V306.5L616.5,306.5z"/>
		<path class="st4" d="M619.1,310.8h-1.5v-3.1H617v-1.3h0.5v-0.5c0-0.6,0-1,0.4-1.5c0.4-0.4,0.9-0.7,1.5-0.7c0.2,0,0.4,0,0.7,0.2
			v1.3c-0.2-0.1-0.3-0.1-0.5-0.1c-0.4,0-0.5,0.2-0.5,0.7v0.7h1.1v1.3h-1.1V310.8L619.1,310.8z"/>
		<path class="st4" d="M627.5,307L627.5,307c0.4-0.5,0.8-0.7,1.4-0.7c1.2,0,1.6,0.7,1.6,1.8v2.7H629v-2.1c0-0.4,0.1-1.1-0.7-1.1
			c-0.6,0-0.8,0.5-0.8,1v2.2h-1.5v-4.3h1.5V307L627.5,307z"/>
		<path class="st4" d="M632.6,308c0.1-0.4,0.5-0.7,0.9-0.7c0.4,0,0.8,0.3,0.9,0.7H632.6L632.6,308z M635.8,308.7
			c0-1.5-0.9-2.4-2.4-2.4c-1.4,0-2.4,0.9-2.4,2.3c0,1.5,1.1,2.3,2.5,2.3c1,0,2-0.5,2.2-1.5h-1.5c-0.2,0.3-0.4,0.4-0.7,0.4
			c-0.6,0-1-0.3-1-1h3.2V308.7L635.8,308.7z"/>
		<path class="st4" d="M605.4,308.7c0,1.3-1.1,2.4-2.4,2.4c-1.3,0-2.4-1.1-2.4-2.4c0-1.4,1.1-2.4,2.4-2.4
			C604.3,306.3,605.4,307.4,605.4,308.7L605.4,308.7z M601.5,308.7c0,0.8,0.6,1.4,1.4,1.4c0.8,0,1.4-0.6,1.4-1.4
			c0-0.8-0.6-1.4-1.4-1.4c0.2-0.7,0.7-1,0.7-1c-1,0-1.9,0.8-2.1,1.9C601.5,308.4,601.5,308.7,601.5,308.7L601.5,308.7z"/>
		<path class="st4" d="M620.5,308.6c0-1.3,1.1-2.4,2.4-2.4c1.3,0,2.4,1.1,2.4,2.4s-1.1,2.4-2.4,2.4
			C621.6,311,620.5,309.9,620.5,308.6L620.5,308.6z M624.3,308.6c0-0.7-0.6-1.4-1.4-1.4c-0.8,0-1.4,0.6-1.4,1.4
			c0,0.8,0.6,1.4,1.4,1.4c-0.2,0.7-0.7,1-0.7,1c1,0,1.9-0.8,2.1-1.9C624.3,308.9,624.3,308.6,624.3,308.6L624.3,308.6z"/>
	</g>
	<g>
		<path class="st3" d="M624,357.8l1.4-1.3c0,0,1.2-1,1.3-1.2c0.1-0.2,0-0.3,0-0.3c0,0-0.2,0-0.3,0c-0.1,0-0.2,0-0.3,0.1
			c-0.1,0-1.3,1.1-1.6,1.4c-0.3,0.3-0.7,0.8-0.8,1c-0.1,0.2-0.3,0.5-0.3,0.6c0,0.1,0.1,0.1,0.2,0C623.7,358.1,624,357.9,624,357.8"
			/>
		<path class="st3" d="M618.7,359.3c0,0-0.2,0.2-0.1,0.4c0.1,0.2,0.1,0.3,0.6,0.2c0.5-0.1,2-1,2.1-1.1c0.1-0.1,0.2-0.2,0.1-0.4
			c-0.1-0.2-0.7-0.2-1.1-0.1C619.3,358.8,618.7,359.3,618.7,359.3"/>
		<path class="st3" d="M619,358.5c0,0,3.4-1.7,3.2-0.1c0.2,0.2,0.5,0.1,0.5,0.1c0,0,0.9-3.2,4.2-4.3c1-0.3,0.6,0.6,0.5,0.9
			c-0.1,0.3-3,2.8-4,3.4c-1,0.7-0.1,2.2,1.6,0.3c1.4-1.7,1.2-1.4,1.3-1.5c0.3-0.2,0.6-0.1,0.6,0c0,0,0.2,0.2,0.1,0.3
			c-0.1,0.1-2.3,1.8-0.9,2c1.4,0.1,2.1-1.5,2.3-1.7c0.2-0.2,1,0,1,0s-0.7,0.9-1.2,1.3c-0.5,0.4,0.5,0.6,0.7,0.5
			c0.2,0,1.5-0.4,2.3-0.7c-0.4-0.4-0.8-0.9-0.7-1.7c0-2.2-1.4-2.5-1.6-2.6c-0.3-0.2-1.6-0.9-1.4-2.3c0.2-1.3-0.3-1.8-0.3-1.8
			l-4.5,2.9L619,358.5z"/>
		<path class="st3" d="M621,354.6c-1.2,1.6-2.5,3.2-3.3,5.1c0,0.1,0.1,0.1,0.4,0c-0.5,1.1,0.6,1,0.6,1c0.2,0,2.1-0.7,2.5-0.9
			c0.8-0.4,0.9-0.9,0.9-0.9s0.2-0.1,0.7,0c-0.3,2,2,1.4,2.5,0.5c0.2,1.6,2.6,0.3,2.6,0.3s0.2,0.3,0.7,0.4c0.4,0.2,2.3-0.4,3.5-0.7
			c0.3,0.2,0.6,0.4,0.8,0.5c0.5,0.4,0.6,0.7,0.6,0.7l-27.1,3.2L621,354.6z"/>
		<path class="st3" d="M615.9,361.6H615l0-1.4l0-1.5l0-2.6l0-3.2h0.8v0.9l0,1.1l0,1.1l0,2.4L615.9,361.6z M611.1,355.6v-0.2l0,0
			v-0.1l0-0.1v0l0-0.1l0-0.1l0-0.1l0-0.1l0-0.1l0-0.1l0,0l0-0.1l0-0.1l0-0.1l0,0l0-0.1l0-0.1l0-0.1l0-0.1l0-0.1l0-0.1l0-0.1l0-0.1
			l0,0l0-0.1l0-0.1l0-0.1l0,0l0-0.1l0-0.1l0,0l0-0.1l0,0l0-0.1l0,0l0,0l0-0.1l0,0l0,0l0,0l0,0l0,0l0,0l0,0l0,0l0,0l0,0l0,0l0,0
			l0.1,0l0,0l0.1,0l0,0l0.1,0l0,0l0.1,0l0.1,0l0.1,0l0.1,0l0.1,0l0.3-0.1l0.2,1.1l-0.2,0.1l0,0h0l0,0l0,0h0l0,0l0,0h0l0,0l0,0l0,0
			l0,0l0,0l0,0l0,0l0,0l0,0l0,0l0,0l0,0l0,0l0,0l0,0l0,0l0,0l0,0l0,0l0,0l0,0l0,0l0,0l0,0l0,0l0,0l0,0l0,0l0,0.1l0,0l0,0l0,0.1l0,0
			l0,0.1l0,0l0,0l0,0.1l0,0l0,0l0,0l0,0.1l0,0v0l0,0v0.2l0,0v0l0,0v0l0,0v0l0,0l0,0l0,0v0l0,0l0,0l0,0l0,0l0,0l0,0l0,0l0,0l0,0l0,0
			l0,0l0,0l0,0l0,0l0,0l0,0l0,0l0,0l0,0l0.1,0l0.1,0.1l0.1,0.1l0.1,0.1l0.1,0l0.1,0.1l0,0.1l0.1,0l0,0.1l0.1,0l0,0l0,0l0,0l0,0l0,0
			l0,0l0,0l0,0l0,0l0,0l0,0l0,0l0,0l0,0l0,0l0,0l0,0l0,0l0,0l0,0l0,0l0,0l0,0l0,0l0,0l0,0.1l0,0l0,0.1l0,0.1v0l0,0.1l0,0.1v0.1
			l0,0.1v0.1l0,0.1v0.1l0,0.1v0.1l0,0.1l0,0.1v0.1l0,0.1l0,0.1l0,0.1l0,0.1l0,0.1l0,0.1l0,0.1l0,0.1l0,0.1l0,0.1l0,0.1l0,0.1l0,0.1
			l0,0.1l0,0.1l0,0.1l0,0.1l0,0.1l0,0.1l0,0.1l0,0.1l0,0.1l0,0.1l0,0l0,0.1l0,0l0,0l0,0l0,0l0,0l0,0l0,0l0,0l0,0l0,0l0,0l0,0l0,0
			l0,0l0,0l-0.1,0.1l0,0l0,0l0,0l0,0l0,0l0,0l0,0l0,0l0,0l0,0l0,0l0,0l0,0l0,0l0,0l-0.3,0.1l-0.2-1l0.2-0.1l0,0l0,0l0,0l0,0l0,0l0,0
			l0,0l0,0l0,0l0,0l0,0l0,0l0,0l0,0l0,0l0,0l0,0l0,0l0,0l0,0l0,0l0,0l0,0l0,0l0,0l0,0l0,0l0-0.1l0,0l0,0l0-0.1l0-0.1l0,0l0-0.1l0,0
			l0-0.1l0-0.1l0-0.1l0-0.1l0-0.1l0-0.1l0-0.1l0-0.1V359l0-0.1v-0.2l0,0v-0.1l0,0v0l0,0v0l0,0v0l0,0l0,0l0,0l0,0l0-0.1l0-0.1l0-0.1
			l0,0l0-0.1l0,0l0,0l0,0l0,0l0,0l0,0l0,0l0,0l0,0l0,0l0,0l0,0l0,0l0,0l0,0l0,0l0,0l0,0l0,0l-0.3-0.3l0,0l0,0l0,0l0,0l0,0l0,0l0,0
			l0,0l0,0l0,0l0,0l0,0l0,0l0,0l0,0l0,0l0,0l0-0.1l0,0l0-0.1l0-0.1l0-0.1l0-0.1l0-0.1l0-0.1l0-0.1l0-0.1l0-0.1v-0.1l0-0.1
			L611.1,355.6L611.1,355.6z M609.8,359.4l0,1.9l-3.9-5.4l-0.1,5.7H605l0.2-8.7l3.8,5.4l0-1.9l0-1.7l0-1.8h0.8l-0.1,2.5l-0.1,2.2
			L609.8,359.4z M601.3,361.5l0-1.5v-6l0-1.2l0.7-0.1l0.6-0.1l0.5,0l0.6-0.1l0,1.1l-0.6,0h-0.3l-0.8,0.1v3l0.3,0l0.3,0l0.8-0.1
			l0,1.1l-0.9,0l-0.5,0v2.9h1.8l0,1.1L601.3,361.5z M597.4,355.5L597.4,355.5l0-0.2l0-0.1l0,0v-0.1l0-0.1l0-0.1l0-0.1l0-0.1l0-0.1
			l0,0l0-0.1l0-0.1l0-0.1l0,0l0-0.1l0-0.1l0-0.1l0-0.1l0-0.1l0-0.1l0-0.1l0-0.1l0,0l0-0.1l0-0.1l0-0.1l0,0l0-0.1l0-0.1l0,0l0-0.1
			l0,0l0-0.1l0,0l0,0l0-0.1l0,0l0,0l0,0l0,0l0,0l0,0l0,0l0,0l0,0l0,0l0,0l0.1,0l0,0l0,0l0.1,0l0,0l0.1,0l0.1,0l0.1,0l0,0l0.1,0
			l0.1,0l0.1,0l0.3-0.1l0.2,1.1l-0.2,0.1l0,0h0l0,0l0,0h0l0,0l0,0h0l0,0l0,0l0,0l0,0l0,0l0,0l0,0l0,0l0,0l0,0l0,0l0,0l0,0l0,0l0,0
			l0,0l0,0l0,0l0,0l0,0l0,0l0,0l0,0l0,0l0,0l0,0l0,0l0,0l0,0.1l0,0l0,0l0,0.1l0,0l0,0.1l0,0l0,0l0,0.1l0,0l0,0l0,0l0,0.1v0l0,0v0
			l0,0.1v0.1l0,0v0l0,0v0l0,0v0l0,0v0l0,0l0,0l0,0v0l0,0l0,0l0,0l0,0l0,0l0,0l0,0l0,0l0,0l0,0l0,0l0,0l0,0l0,0l0,0l0,0l0,0l0,0
			l0.1,0l0.1,0.1l0.1,0.1l0.1,0.1l0.1,0l0.1,0l0.1,0.1l0,0l0.1,0.1l0,0l0,0l0,0l0,0l0,0l0,0l0,0l0,0l0,0l0,0l0,0l0,0l0,0l0,0l0,0
			l0,0l0,0l0,0l0,0l0,0l0,0l0,0l0,0l0,0l0,0l0,0l0,0.1l0,0l0,0.1l0,0.1l0,0v0.1l0,0.1l0,0.1v0.1l0,0.1v0.3l0,0.1v0.1l0,0.1v0.1
			l0,0.1l0,0.1l0,0.1l0,0.1l0,0.1l0,0.1l0,0.1l0,0.1l0,0.1l0,0.1l0,0.1l0,0.1l0,0.1l0,0.1l0,0.1l0,0.1l0,0.1l0,0l0,0.1l0,0.1l0,0.1
			l0,0.1l0,0.1l0,0.1l0,0l0,0.1l0,0l0,0l0,0l0,0l0,0l0,0l0,0l0,0l0,0l0,0l0,0l0,0l0,0l0,0l0,0l-0.1,0.1l0,0l0,0l0,0l0,0l0,0l0,0l0,0
			l0,0l0,0l0,0l0,0l-0.1,0l0,0l0,0l0,0l-0.3,0.1l-0.2-1l0.2-0.1l0,0l0,0l0,0l0,0l0,0l0,0l0,0l0,0l0,0l0,0l0,0l0,0l0,0l0,0l0,0l0,0
			l0,0l0,0l0,0l0,0l0,0l0,0l0,0l0,0l0,0l0,0l0,0l0-0.1l0,0l0,0l0-0.1l0-0.1l0,0l0-0.1l0,0l0-0.1l0-0.1l0-0.1l0-0.1l0-0.1l0-0.1
			l0-0.1l0-0.1V359l0-0.1v-0.3l0,0v-0.1l0,0v0l0,0v0l0,0l0,0l0,0l0,0v0l0-0.1l0-0.1l0-0.1l0,0l0-0.1l0,0l0,0l0,0l0,0l0,0l0,0l0,0
			l0,0l0,0l0,0l0,0l0,0l0,0l0,0l0,0l0,0l0,0l0,0l0,0l-0.3-0.3l0,0l0,0l0,0l0,0l0,0l0,0l0,0l0,0l0,0l0,0l0,0l0,0l0,0l0,0l0,0l0,0l0,0
			l0-0.1l0,0l0-0.1l0-0.1l0-0.1l0-0.1l0-0.1l0-0.1l0-0.1l0-0.1v-0.1l0-0.1v-0.1l0-0.1V355.5L597.4,355.5z"/>
	</g>
	<text transform="matrix(1 0 0 1 767.1391 478.1645)"><tspan x="0" y="0" class="st3 st5 st6">DON</tspan><tspan x="-1.9" y="9" class="st3 st5 st6">CASH</tspan></text>
	<text transform="matrix(1 0 0 1 659.1332 53.6362)"><tspan x="0" y="0" class="st3 st5 st7">LET’S</tspan><tspan x="0.2" y="5" class="st3 st5 st7">PLAY</tspan></text>
	<text transform="matrix(1 0 0 1 637.8237 23.9008)"><tspan x="0" y="0" class="st3 st5 st8">COCO</tspan><tspan x="-0.8" y="6" class="st3 st5 st8">RINOO</tspan></text>
	<text transform="matrix(1 0 0 1 595.2758 23.9008)"><tspan x="0" y="0" class="st3 st5 st9">PRAVALIA</tspan><tspan x="0.3" y="5" class="st3 st5 st9">LUI MIHAI</tspan></text>
	<text transform="matrix(1 0 0 1 563.8696 23.9008)"><tspan x="0" y="0" class="st3 st5 st8">DABO</tspan><tspan x="-2.2" y="6" class="st3 st5 st8">DONER</tspan></text>
	<text transform="matrix(1 0 0 1 528.6459 26.4457)" class="st3 st5 st7">PIZZA 21</text>
	<text transform="matrix(1 0 0 1 502.9018 26.4457)" class="st3 st5 st7">CU SOS</text>
	<text transform="matrix(0 -1 1 0 450.017 179.2905)" class="st3 st5 st10">NORIEL</text>
	<text transform="matrix(1 0 0 1 480.8163 190.9057)"><tspan x="0" y="0" class="st3 st5 st7">DOPO</tspan><tspan x="0" y="5" class="st3 st5 st7">POCO</tspan></text>
	<text transform="matrix(1 0 0 1 552.0414 124.9653)" class="st3 st5 st9">ROBEST</text>
	<text transform="matrix(1 0 0 1 464.6596 133.8206)" class="st3 st5 st11">MESOPOTAMIA</text>
	<text transform="matrix(1 0 0 1 555.8481 137.9828)"><tspan x="0" y="0" class="st3 st5 st7">EXPRESS</tspan><tspan x="1.8" y="5" class="st3 st5 st7">CREDIT</tspan></text>
	<text transform="matrix(1 0 0 1 553.269 166.0078)" class="st3 st5 st12">BOUTIQUE 17</text>
	<text transform="matrix(1 0 0 1 555.0688 194.2368)" class="st3 st5 st12">JUBA CAFFE</text>
	<text transform="matrix(0 -1 1 0 616.6069 126.7953)"><tspan x="0" y="0" class="st3 st5 st9">AVANGARD</tspan><tspan x="0.2" y="4" class="st3 st5 st9">EXCHANGE</tspan></text>
	<g>
		<text transform="matrix(0 -1 1 0 598.4379 125.5502)"><tspan x="0" y="0" class="st3 st5 st9">BUJITERIA</tspan><tspan x="3.4" y="4" class="st3 st5 st9">ROYAL</tspan></text>
	</g>
	<g>
		<text transform="matrix(0 -1.0453 1 0 580.2309 124.7836)"><tspan x="0" y="0" class="st3 st5 st13">DRAGON </tspan><tspan x="4" y="4.5" class="st3 st5 st13">WOK</tspan></text>
	</g>
	<text transform="matrix(1 0 0 1 612.5888 160.3823)"><tspan x="0" y="0" class="st3 st5 st14">MARCO</tspan><tspan x="3.2" y="5.1" class="st3 st5 st14">BEBE</tspan></text>
	<text transform="matrix(1 0 0 1 605.7944 181.8823)" class="st3 st5 st15">SUPERSTAR</text>
	<text transform="matrix(1 0 0 1 590.8774 240.0014)" class="st3 st5 st16">CORINT SHOES</text>
	<text transform="matrix(1 0 0 1 598.6806 266.291)" class="st3 st5 st17">CADOR</text>
	<text transform="matrix(1 0 0 1 601.9127 283.7571)" class="st3 st5 st18">COVER SHOP</text>
	<text transform="matrix(1 0 0 1 611.8051 342.3969)" class="st3 st5 st14">KOSAROM</text>
	<text transform="matrix(1 0 0 1 615.0876 377.558)" class="st3 st5 st14">VITAMIX</text>
	<text transform="matrix(0 -1 1 0 617.2719 431.227)" class="st3 st5 st19">PETRU</text>
	<text transform="matrix(1 0 0 1 693.556 473.8817)" class="st3 st5 st20">BEST LINE</text>
	<g id="g10" transform="matrix(1.25,0,0,-1.25,0,172)">
		<g id="g12" transform="matrix(0.9991569,0,0,0.99581555,-1938.4245,-1808.7215)">
			<path id="path14" class="st3" d="M2535.4,1466.1c0-1-0.2-1.9-0.7-2.6c-1-1.5-2.9-2.3-5.5-2.3c-1.8,0-3.3,0.4-4.5,1.2
				c-1.4,0.9-2.1,2.1-2.1,3.7h3.8c0-0.7,0.3-1.2,0.9-1.6c0.5-0.3,1.2-0.5,1.9-0.5c0.7,0,1.3,0.1,1.8,0.4c0.5,0.3,0.8,0.6,0.8,1.1
				c0,0.6-0.7,1-2.2,1.4c-2.2,0.5-3.6,0.9-4.2,1.2c-1.5,0.7-2.2,1.8-2.2,3.3c0,0.9,0.2,1.7,0.6,2.4c0.4,0.7,1.1,1.3,2.1,1.7
				c1,0.4,2.1,0.7,3.2,0.7c1.6,0,2.9-0.4,4-1.1c1.2-0.8,1.9-2,2-3.6h-3.6c-0.2,1.2-1,1.9-2.5,1.9c-0.6,0-1.1-0.1-1.5-0.4
				c-0.4-0.3-0.7-0.6-0.7-1c0-0.5,0.8-1,2.3-1.3c2.2-0.5,3.6-0.9,4.2-1.2C2534.7,1468.6,2535.4,1467.5,2535.4,1466.1z"/>
			<path id="path16" class="st3" d="M2553.8,1461.6h-3.7v8.5c0,1-0.1,1.7-0.4,2.1c-0.4,0.5-1,0.7-2,0.7c-1.9,0-2.9-1.1-2.9-3.2v-8
				h-3.7v14h3.5v-1.3c0-0.5,0-0.8,0-0.8c0,0,0,0,0,0c0.4,0.8,1.1,1.4,1.9,1.8c0.8,0.4,1.7,0.7,2.6,0.7c1.9,0,3.2-0.7,4-2.2
				c0.4-0.7,0.6-1.5,0.6-2.5V1461.6z"/>
			<path id="path18" class="st3" d="M2567.5,1466.1c0-1-0.2-1.9-0.7-2.6c-1-1.5-2.9-2.3-5.5-2.3c-1.8,0-3.3,0.4-4.5,1.2
				c-1.4,0.9-2.1,2.1-2.1,3.7h3.8c0-0.7,0.3-1.2,0.9-1.6c0.5-0.3,1.2-0.5,1.9-0.5c0.7,0,1.3,0.1,1.8,0.4c0.5,0.3,0.8,0.6,0.8,1.1
				c0,0.6-0.7,1-2.2,1.4c-2.2,0.5-3.6,0.9-4.2,1.2c-1.5,0.7-2.2,1.8-2.2,3.3c0,0.9,0.2,1.7,0.6,2.4c0.4,0.7,1.1,1.3,2.1,1.7
				c1,0.4,2.1,0.7,3.2,0.7c1.6,0,2.9-0.4,4-1.1c1.2-0.8,1.9-2,2-3.6h-3.6c-0.2,1.2-1,1.9-2.5,1.9c-0.6,0-1.1-0.1-1.5-0.4
				c-0.4-0.3-0.7-0.6-0.7-1c0-0.5,0.8-1,2.3-1.3c2.2-0.5,3.6-0.9,4.2-1.2C2566.7,1468.6,2567.5,1467.5,2567.5,1466.1z"/>
			<path id="path20" class="st3" d="M2576.9,1468.4c-0.4-0.3-1-0.5-1.9-0.7c-1-0.2-1.7-0.4-2-0.6c-0.6-0.3-1-0.9-1-1.7
				c0-1.1,0.6-1.6,1.7-1.6c0.5,0,1,0.1,1.6,0.3c0.5,0.2,1,0.5,1.2,0.9c0.4,0.5,0.5,1.1,0.5,2c0,0.2,0,0.4,0,0.7
				C2576.9,1468.1,2576.9,1468.3,2576.9,1468.4L2576.9,1468.4z M2580.8,1461.6h-3.4c-0.1,0.2-0.2,0.6-0.3,1.1
				c-0.9-0.9-2.2-1.4-4.1-1.4c-1.3,0-2.4,0.3-3.2,0.9c-1,0.7-1.5,1.7-1.5,3c0,1.9,0.7,3.2,2.2,3.9c0.7,0.3,2.1,0.6,4.2,0.9
				c1.5,0.2,2.2,0.6,2.2,1.2c0,0.5-0.2,1-0.7,1.3c-0.4,0.3-1,0.5-1.5,0.5c-0.6,0-1.1-0.2-1.6-0.5c-0.4-0.3-0.7-0.7-0.8-1.2h-3.6
				c0.1,1,0.4,1.8,0.8,2.4c0.5,0.7,1.2,1.2,2.2,1.6c0.9,0.4,2,0.5,3.2,0.5c4,0,6-1.9,6-5.7V1461.6L2580.8,1461.6z"/>
			<path id="path22" class="st3" d="M2540,1477.4h-3.7v3.7h3.7V1477.4z"/>
			<path id="path24" class="st3" d="M2540,1461.6h-3.7v7h3.7V1461.6z"/>
			<path id="path26" class="st3" d="M2594.5,1460.8c0-1.9-0.7-3.3-2-4.5c-1.2-1-2.7-1.5-4.4-1.5c-1.7,0-3.1,0.5-4.3,1.5
				c-1.3,1.1-1.9,2.6-1.9,4.5h3.4c0-0.9,0.3-1.6,0.8-2.1c0.5-0.5,1-0.7,1.7-0.7c0.8,0,1.4,0.3,2,0.8c0.6,0.6,0.9,1.4,0.9,2.3v2.2
				c-0.3-0.6-0.7-1.1-1.4-1.5c-0.7-0.3-1.5-0.5-2.3-0.5c-1.4,0-2.5,0.4-3.5,1.2c-1.1,0.9-1.7,2.2-1.7,3.8v9.2h3.7v-8.7
				c0-1.7,0.8-2.6,2.4-2.6c0.8,0,1.5,0.2,2,0.7c0.5,0.5,0.8,1.1,0.8,1.9v8.7h3.7V1460.8z"/>
		</g>
	</g>
	<g>
		<g>
			<path class="st3" d="M482.7,168.2c0-0.3-0.1-0.4-0.3-0.4h-0.1v0.7h0.1C482.6,168.5,482.7,168.5,482.7,168.2z"/>
			<path class="st3" d="M482.5,168.8h-0.2v0.8h0.2c0.2,0,0.4-0.1,0.4-0.4C482.8,168.9,482.7,168.8,482.5,168.8z"/>
			<path class="st3" d="M486.8,166.9L486.8,166.9C486.8,166.8,486.8,166.8,486.8,166.9c0.1-0.3,0.1-0.5,0.2-0.7
				c-1.1-0.4-2.3-0.6-3.5-0.6c-1.1,0-2.2,0.2-3.2,0.6l0,0c-0.1,0-0.2,0.1-0.3,0.1c0.4,1.2,0.4,2.3,0,3.6c0.6,1.7,2,3.2,3.5,3.8
				c0.4-0.2,0.7-0.4,1.1-0.6c1.1-0.8,2-1.9,2.5-3.2C486.7,168.7,486.6,167.8,486.8,166.9z M482.7,169.8h-0.9c-0.1,0-0.1-0.1-0.1-0.1
				V168c0-0.2-0.1-0.2-0.2-0.2v-0.2h1.1c0.4,0,0.7,0.2,0.7,0.6c0,0.3-0.2,0.5-0.5,0.5c0.4,0,0.6,0.2,0.6,0.6
				C483.5,169.6,483.3,169.8,482.7,169.8z M485.2,168.2c-0.1-0.3-0.1-0.4-0.3-0.4h-0.1v2h-0.6v-2h-0.1c-0.2,0-0.2,0.1-0.3,0.4h-0.3
				l0-0.5c0-0.1,0.1-0.1,0.1-0.1h1.6c0.1,0,0.1,0.1,0.1,0.1l0,0l0,0.5H485.2z"/>
		</g>
		<path class="st3" d="M490,167.6l0,0.6h-0.2c-0.1-0.3-0.1-0.4-0.3-0.4h-0.1v1.6c0,0.2,0.1,0.2,0.3,0.2v0.1h-1v-0.1
			c0.2,0,0.3,0,0.3-0.2v-1.6h-0.1c-0.2,0-0.2,0.1-0.3,0.4h-0.2l0-0.6H490z M491.4,168.8c0.1,0,0.3,0.1,0.3,0.2
			c0.1,0.1,0.2,0.3,0.2,0.4c0.1,0.1,0.1,0.2,0.2,0.2v0.1h-0.7c-0.1-0.2-0.2-0.5-0.3-0.7c-0.1-0.2-0.2-0.3-0.4-0.3v0.6
			c0,0.2,0.1,0.2,0.2,0.2v0.1h-0.9v-0.1c0.2,0,0.2,0,0.2-0.2v-1.5c0-0.2-0.1-0.2-0.2-0.2v-0.2h1c0.5,0,0.8,0.2,0.8,0.6
			C492,168.6,491.7,168.8,491.4,168.8L491.4,168.8z M491.1,167.8h-0.2v0.8h0.2c0.2,0,0.4-0.1,0.4-0.4
			C491.4,167.9,491.3,167.8,491.1,167.8L491.1,167.8z M493.5,169.2h-0.7l-0.1,0.3c0,0,0,0.1,0,0.1c0,0.1,0.1,0.1,0.2,0.1v0.1h-0.7
			v-0.1c0.1,0,0.2,0,0.2-0.2l0.6-1.9h0.4l0.6,1.9c0.1,0.1,0.1,0.2,0.2,0.2v0.1h-0.9v-0.1c0.1,0,0.2,0,0.2-0.1c0,0,0-0.1,0-0.1
			L493.5,169.2z M492.9,169h0.6l-0.2-0.6c0-0.1-0.1-0.2-0.1-0.4h0c0,0.1,0,0.2-0.1,0.4L492.9,169z M496.1,167.9
			c0-0.2-0.1-0.2-0.2-0.2v-0.2h0.7v0.2c-0.2,0-0.2,0-0.2,0.2v1.9H496l-0.8-1.2c-0.1-0.2-0.2-0.3-0.3-0.5h0c0,0.2,0,0.3,0,0.5v0.8
			c0,0.2,0.1,0.2,0.2,0.2v0.1h-0.7v-0.1c0.2,0,0.2,0,0.2-0.2v-1.5c0-0.2-0.1-0.2-0.2-0.2v-0.2h0.7l0.7,1.1c0.1,0.1,0.2,0.3,0.2,0.4
			h0c0-0.2,0-0.3,0-0.5L496.1,167.9z M496.8,169.7v-0.4h0.3c0,0.3,0.2,0.4,0.4,0.4c0.2,0,0.4-0.1,0.4-0.4c0-0.2-0.1-0.3-0.3-0.4
			l-0.2-0.1c-0.3-0.1-0.5-0.3-0.5-0.6c0-0.5,0.3-0.7,0.8-0.7c0.2,0,0.5,0,0.7,0.2v0.5h-0.3c0-0.2-0.1-0.4-0.4-0.4
			c-0.2,0-0.3,0.1-0.3,0.3c0,0,0,0,0,0c0,0.2,0.1,0.3,0.3,0.3l0.2,0.1c0.4,0.1,0.6,0.3,0.6,0.7c0,0.5-0.3,0.7-0.9,0.7
			C497.3,169.8,497,169.8,496.8,169.7L496.8,169.7z M498.9,167.9c0-0.2-0.1-0.2-0.2-0.2v-0.2h0.9v0.2c-0.2,0-0.2,0-0.2,0.2v1.5
			c0,0.2,0.1,0.2,0.2,0.2v0.1h-0.9v-0.1c0.2,0,0.2,0,0.2-0.2V167.9z M500.6,169.6h0.3c0.2,0,0.3-0.1,0.4-0.4h0.2l0,0.6h-1.6v-0.1
			c0.2,0,0.2,0,0.2-0.2v-1.5c0-0.2-0.1-0.2-0.2-0.2v-0.2h1v0.2c-0.2,0-0.2,0-0.2,0.2V169.6z M502.2,169.8l-0.6-1.9
			c-0.1-0.2-0.1-0.2-0.2-0.2v-0.1h0.9v0.1c-0.1,0-0.2,0-0.2,0.1c0,0,0,0,0,0.1l0.3,1.1c0,0.1,0.1,0.3,0.1,0.4h0
			c0-0.1,0.1-0.3,0.1-0.4l0.3-1c0,0,0,0,0-0.1c0-0.1-0.1-0.1-0.2-0.1v-0.1h0.7v0.1c-0.1,0-0.2,0-0.2,0.2l-0.6,1.9L502.2,169.8z
			 M504.5,169.2h-0.7l-0.1,0.3c0,0,0,0.1,0,0.1c0,0.1,0.1,0.1,0.2,0.1v0.1h-0.7v-0.1c0.1,0,0.2,0,0.2-0.2l0.6-1.9h0.4l0.6,1.9
			c0.1,0.1,0.1,0.2,0.2,0.2v0.1h-0.9v-0.1c0.1,0,0.2,0,0.2-0.1c0,0,0-0.1,0-0.1L504.5,169.2z M503.8,169h0.6l-0.2-0.6
			c0-0.1-0.1-0.2-0.1-0.4h0c0,0.1,0,0.2-0.1,0.4L503.8,169z M507,167.9c0-0.2-0.1-0.2-0.2-0.2v-0.1h0.7v0.2c-0.2,0-0.2,0-0.2,0.2
			v1.9h-0.4l-0.8-1.2c-0.1-0.2-0.2-0.3-0.3-0.5h0c0,0.2,0,0.3,0,0.5v0.8c0,0.2,0.1,0.2,0.2,0.2v0.1h-0.7v-0.1c0.2,0,0.2,0,0.2-0.2
			v-1.5c0-0.2-0.1-0.2-0.2-0.2v-0.2h0.7l0.7,1.1c0.1,0.1,0.2,0.3,0.2,0.4h0c0-0.2,0-0.3,0-0.5L507,167.9z M508,167.9
			c0-0.2-0.1-0.2-0.2-0.2v-0.1h0.9v0.2c-0.2,0-0.2,0-0.2,0.2v1.5c0,0.2,0.1,0.2,0.2,0.2v0.1h-0.9v-0.1c0.2,0,0.2,0,0.2-0.2V167.9z
			 M510.1,169.2h-0.7l-0.1,0.3c0,0,0,0.1,0,0.1c0,0.1,0.1,0.1,0.2,0.1v0.1h-0.7v-0.1c0.1,0,0.2,0,0.2-0.2l0.6-1.9h0.4l0.6,1.9
			c0.1,0.1,0.1,0.2,0.2,0.2v0.1H510v-0.1c0.1,0,0.2,0,0.2-0.1c0,0,0-0.1,0-0.1L510.1,169.2z M509.5,169h0.6l-0.2-0.6
			c0-0.1-0.1-0.2-0.1-0.4h0c0,0.1,0,0.2-0.1,0.4L509.5,169z M468.2,169.7c0.2,0,0.2,0,0.2-0.2v-1.5c0-0.2-0.1-0.2-0.2-0.2v-0.2h1
			c0.5,0,0.8,0.2,0.8,0.6c0,0.3-0.2,0.5-0.5,0.5v0c0.4,0,0.6,0.2,0.6,0.6c0,0.4-0.2,0.6-0.8,0.6h-1.1V169.7z M469.2,168.5
			c0.2,0,0.3-0.1,0.3-0.4c0-0.3-0.1-0.4-0.4-0.4H469v0.8H469.2z M469.2,169.6c0.3,0,0.4-0.1,0.4-0.4c0-0.3-0.1-0.4-0.4-0.4H469v0.8
			H469.2z M471.6,169.2h-0.7l-0.1,0.3c0,0,0,0.1,0,0.1c0,0.1,0.1,0.1,0.2,0.1v0.1h-0.7v-0.1c0.1,0,0.2,0,0.2-0.2l0.6-1.9h0.4
			l0.7,1.9c0.1,0.1,0.1,0.2,0.2,0.2v0.1h-0.9v-0.1c0.1,0,0.2,0,0.2-0.1c0,0,0-0.1,0-0.1L471.6,169.2z M470.9,169h0.6l-0.2-0.6
			c0-0.1-0.1-0.2-0.1-0.4h0c0,0.1,0,0.2-0.1,0.4L470.9,169z M474.1,167.9c0-0.2-0.1-0.2-0.2-0.2v-0.1h0.7v0.2c-0.2,0-0.2,0-0.2,0.2
			v1.9H474l-0.8-1.2c-0.1-0.2-0.2-0.3-0.3-0.5h0c0,0.2,0,0.3,0,0.5v0.8c0,0.2,0.1,0.2,0.2,0.2v0.1h-0.7v-0.1c0.2,0,0.2,0,0.2-0.2
			v-1.5c0-0.2-0.1-0.2-0.2-0.2v-0.2h0.8l0.7,1.1c0.1,0.1,0.2,0.3,0.2,0.4h0c0-0.2,0-0.3,0-0.5V167.9z M474.9,168.7
			c0-0.8,0.4-1.2,1.1-1.2c0.2,0,0.5,0,0.7,0.2v0.4h-0.3c-0.1-0.2-0.1-0.4-0.4-0.4c-0.3,0-0.5,0.2-0.5,0.9c0,0.8,0.2,0.9,0.5,0.9
			c0.3,0,0.3-0.1,0.4-0.4h0.3v0.4c-0.2,0.1-0.5,0.2-0.7,0.2C475.2,169.8,474.9,169.4,474.9,168.7L474.9,168.7z M478,169.2h-0.7
			l-0.1,0.3c0,0,0,0.1,0,0.1c0,0.1,0.1,0.1,0.2,0.1v0.1h-0.7v-0.1c0.1,0,0.2,0,0.2-0.2l0.6-1.9h0.4l0.6,1.9c0.1,0.1,0.1,0.2,0.2,0.2
			v0.1h-0.9v-0.1c0.1,0,0.2,0,0.2-0.1c0,0,0-0.1,0-0.1L478,169.2z M477.4,169h0.6l-0.2-0.6c0-0.1-0.1-0.2-0.1-0.4h0
			c0,0.1,0,0.2-0.1,0.4L477.4,169z"/>
	</g>
	<text transform="matrix(0.6992 0 0 1 550.2983 110.4623)" class="st3 st5 st21">LE PREMIER</text>
	<text transform="matrix(1 0 0 1 611.4636 140.3774)"><tspan x="0" y="0" class="st3 st5 st14">KRISTALL</tspan><tspan x="4.2" y="5.1" class="st3 st5 st14">OPTIC</tspan></text>
	<text transform="matrix(1 0 0 1 629.1409 408.924)"><tspan x="0" y="0" class="st3 st5 st22">HAIR </tspan><tspan x="-3" y="4.2" class="st3 st5 st22">STUDIO</tspan></text>
	<path class="st23" d="M571.6,53.7c-0.2,0-1,0.2-1.8,0.4c-5.6,1.5-10.1,6-11.7,11.7c-0.5,1.7-0.7,5.1-0.4,7c0.8,5.1,4,9.6,8.6,12
		c1.9,1,5.3,2.1,5.3,1.6c0-0.4-1.8-10-2-10.4c-0.1-0.2-0.8-1-1.7-1.8c-1.7-1.6-2.1-2.2-2.4-3.6c-0.3-1.2-1.6-9.3-1.6-9.8
		c0-0.4,0.5-0.7,0.8-0.4c0.1,0.1,0.6,2.2,1.2,4.7c0.9,4.2,1,4.6,1.4,4.6c0.2,0,0.4,0,0.4-0.2c0-0.1-0.4-2.3-1-4.8
		c-0.6-2.5-1-4.6-1-4.7c0-0.1,0.2-0.1,0.5-0.1h0.4l1,4.7c1.1,4.8,1.2,5,1.7,4.6c0.2-0.1,0.1-0.8-0.8-4.7c-0.6-2.5-1-4.7-0.9-4.8
		c0-0.1,0.2-0.2,0.4-0.2c0.3,0,0.4,0.1,1,2.9c1.5,6.9,1.4,6.5,1.8,6.5c0.2,0,0.4,0,0.4-0.2c0-0.1-0.4-2.3-1-4.8
		c-0.9-4.2-1-4.6-0.8-4.8c0.6-0.4,0.7-0.2,2.2,5c1.4,4.8,1.5,5.2,1.4,6.2c0,0.9-0.2,1.4-0.8,2.7c-0.5,1.1-0.7,1.8-0.7,2.3
		c0,0.8,2.8,10.5,2.9,10.2c0-0.1,0.4-1.7,0.8-3.5l0.7-3.3l-0.3-0.8c-0.3-0.8-0.3-1.5,0.2-5.7c0.3-2.9,0.8-5.3,1.7-8.4
		c1-3.3,2-5.3,3.2-6.6c1.6-1.6,2.5-1.5,2.5,0.4c0,1.3-3.7,20.4-4.1,21.1c-0.2,0.4-0.5,1.7-0.8,3.6c-0.3,1.7-0.6,3.2-0.6,3.4
		l-0.1,0.4l0.8-0.2c3.2-0.9,5.6-2.4,7.8-4.7c3-3.1,4.5-6.9,4.5-11.3c0-4.7-1.7-8.7-4.9-11.9c-2.3-2.3-5.4-3.9-8.6-4.5
		C576.3,53.6,572.5,53.5,571.6,53.7L571.6,53.7z M571.6,53.7"/>
	<g>
		<g>
			<path d="M467.5,88.6c-0.4,0-0.7,0-1.1,0c-0.3,0-0.3,0.1-0.2,0.3c0.2,0.5,0.6,0.9,1.1,1c0.4,0,0.5,0.2,0.5,0.6
				c0.1,1.2,0.3,2.5,0.8,3.6c0,0.1,0.1,0.2,0,0.3c-0.1,0.1-0.2,0-0.3,0c-1.2-0.4-2.5-0.8-3.8-0.9c-1.1-0.1-2.2,0-3.3,0.2
				c-0.5,0.1-0.5,0.1-0.4-0.4c0.2-1.3,0-2.5-0.2-3.8c-0.6-3.1,1.9-4.8,4-4.9c1.1-0.1,2,0.5,2.8,1.2c1.3,1.2,2.2,2.6,3,4.2
				c0.1,0.1,0.3,0.3,0,0.4c-0.3,0.1-0.6,0.1-0.7-0.2c-0.2-0.4-0.3-0.8-0.4-1.2c-0.1-0.3-0.3-0.4-0.6-0.4
				C468.2,88.6,467.8,88.6,467.5,88.6C467.5,88.6,467.5,88.6,467.5,88.6z"/>
			<path d="M457.3,93c0.1-0.3,0.2-0.6,0.3-0.9c0.1-0.5,0-1-0.2-1.4c-0.6-1.4-0.9-2.8-0.9-4.3c0-3.1,1.8-5.6,4.7-6.6
				c1.3-0.5,2.7-0.7,4.1-0.7c1.2,0,2.4,0,3.6,0.1c0.3,0,0.4,0.1,0.3,0.4c-0.4,0.8-0.7,1.5-1.1,2.3c-0.1,0.3-0.3,0.4-0.6,0.2
				c-1.3-0.5-2.5-0.6-3.9-0.5c-2.3,0.1-4.7,1.8-5.3,3.9c-0.3,1-0.2,2,0,3c0.1,0.8,0.2,1.6,0.1,2.4C458.2,91.8,457.9,92.4,457.3,93z"
				/>
			<path d="M464.2,81.9c0.2,0,0.5,0,0.7,0c0.2,0,0.2,0.1,0.1,0.2c-0.4,0.5-0.5,1.2-0.5,1.8c0,0.2-0.1,0.3-0.3,0.3
				c-1.4,0.2-2.6,1-3.4,2.1c-0.1,0.1-0.2,0.2-0.3,0c-0.5-0.4-1.1-0.6-1.7-0.6c-0.3,0-0.2-0.2-0.2-0.4c0.2-0.8,0.7-1.5,1.4-2.1
				C461.3,82.4,462.5,81.9,464.2,81.9z"/>
			<path class="st24" d="M479.6,97.4l-0.1,4c0,0-3.5-3.6-3.6-3.6l-0.1,3.3c0.1,0.1,0.2,0.1,0.5,0.1v0.2l-1.5,0v-0.2
				c0.2,0,0.4,0,0.5-0.1c0-1,0-2,0.1-2.9c0-0.6,0.2-1.5-0.7-1.7c0,0,0.8,0,1.1,0l3.2,3.6l0-2.8c0-0.3,0-0.6-0.4-0.7h1.4
				C479.5,96.6,479.6,97,479.6,97.4z"/>
			<path class="st24" d="M462.1,101.2v0.2h-1.5v-0.2c0.1,0,0.2,0,0.3-0.1c0-0.1,0-0.2-0.1-0.4c-0.3-0.9-0.6-1.8-1-2.7
				c0-0.1-0.1-0.3-0.2-0.4c0,0-0.1,0-0.1,0c-0.3,0.8-0.6,1.6-0.9,2.3c-0.1,0.2-0.2,0.5-0.3,0.7c-0.1,0.2-0.1,0.3-0.1,0.5v0
				c0.1,0,0.2,0,0.3,0.1v0.2h-1.5v-0.2c0.1,0,0.3,0,0.3-0.1c0.4-0.5,0.5-1.1,0.8-1.6c0.4-0.9,0.8-1.9,1.2-2.9c0-0.1,0.1-0.2,0.1-0.2
				c0.1-0.1,0.1-0.2,0.2-0.2c0.1,0,0.2,0.1,0.2,0.2c0.2,0.6,0.5,1.3,0.7,1.9c0.3,0.8,0.6,1.5,0.9,2.3c0,0.1,0,0.1,0.1,0.2
				c0,0.1,0,0.1,0.1,0.2c0,0.1,0.1,0.1,0.1,0.2C461.8,101.1,461.9,101.1,462.1,101.2z"/>
			<path class="st24" d="M456,96.4c-0.7-0.2-1.4,0-2.2,0.1c0.4,0.1,0.4,0.4,0.4,0.7l-0.1,3.4c0,0.2,0,0.3,0,0.5c0,0,0,0,0,0v0
				c-0.1,0.1-0.2,0.1-0.4,0.1v0.2h1.5v-0.2c-0.2,0-0.3,0-0.4-0.1c0,0-0.1-0.1,0-0.2l0-1.6c0-0.2,0.1-0.4,0.3-0.4
				c0.3,0,0.6-0.1,0.8-0.1c0.6-0.2,1-0.8,1-1.6C457,96.9,456.5,96.5,456,96.4z M456.3,97.8c-0.1,0.5-0.7,0.8-1.2,0.7
				c-0.2,0-0.2-0.1-0.2-0.2l0-0.6c0,0-0.1-0.7,0.1-0.8c0.4-0.1,0.8-0.1,1.1,0.2C456.4,97.2,456.3,97.5,456.3,97.8z"/>
			<path d="M450.7,100.4c0.3,0.4,0.7,0.5,1.1,0.5c0.7-0.1,0.9-0.6,0.6-1.2c-0.2-0.3-0.4-0.5-0.7-0.7c-0.3-0.3-0.6-0.5-0.8-0.9
				c-0.4-0.7-0.1-1.6,0.7-1.8c0.4-0.1,0.7,0,1.1-0.1c0.3-0.1,0.4-0.2,0.4-0.2l-0.1,1.1c-0.2-0.5-0.6-0.4-1.1-0.3
				c-0.5,0.1-0.7,0.6-0.5,1c0.3,0.5,0.7,0.8,1.1,1.1c0.3,0.3,0.5,0.5,0.6,0.9c0.1,0.6-0.3,1.3-0.9,1.5c-0.4,0.1-0.7,0.1-1.1,0
				c-0.2,0-0.4-0.1-0.5,0.1C450.6,101.5,450.7,100.7,450.7,100.4z"/>
			<path class="st24" d="M470.1,96.2l0,1c-0.1-0.3-0.3-0.3-0.6-0.3l-0.7,0c-0.3,0-0.4,0.1-0.4,0.4l0,3.5c0,0.1,0,0.3,0,0.4
				c0.1,0,0.2,0.1,0.4,0.1v0.2h-1.5v-0.2c0.2,0,0.3,0,0.4-0.1c0.1-0.2,0-0.3,0.1-0.5l0.1-3.3c0-0.3-0.1-0.4-0.4-0.4
				c0,0-0.8,0-0.9,0.1c0,0,0,0,0,0c-0.1,0-0.2,0.1-0.3,0.1c0,0,0,0,0,0c-0.1,0-0.1,0.1-0.1,0.2l0-1c0.1,0.1,0.3,0.2,0.5,0.2
				c0.1,0,0.6,0,0.8,0c0.5,0,1,0,1.4,0c0.3,0,0.6,0,0.9,0C469.8,96.4,469.9,96.4,470.1,96.2z"/>
			<path d="M459.9,98.9c0-0.1-0.1-0.3-0.3-0.3c-0.1,0-0.3,0.1-0.3,0.3c0,0.1,0.1,0.3,0.3,0.3C459.7,99.2,459.9,99.1,459.9,98.9z"/>
			<path d="M472.3,98.9c0-0.1-0.1-0.3-0.3-0.3c-0.1,0-0.3,0.1-0.3,0.3c0,0.1,0.1,0.3,0.3,0.3C472.2,99.2,472.3,99.1,472.3,98.9z"/>
			<path class="st24" d="M474.6,101.2v0.2l-1.5,0v-0.2c0.1,0,0.2,0,0.3-0.1c0-0.1,0-0.2-0.1-0.4c-0.3-0.9-0.6-1.8-1-2.7
				c0-0.1-0.1-0.3-0.2-0.4c0,0-0.1,0-0.1,0c-0.3,0.8-0.6,1.6-0.9,2.3c-0.1,0.2-0.2,0.5-0.3,0.7c-0.1,0.2-0.1,0.3-0.1,0.5v0
				c0.1,0,0.2,0,0.3,0.1v0.2h-1.5v-0.2c0.1,0,0.3,0,0.3-0.1c0.4-0.5,0.5-1.1,0.8-1.6c0.4-0.9,0.8-1.9,1.2-2.9c0-0.1,0.1-0.2,0.1-0.2
				c0.1-0.1,0.1-0.2,0.2-0.2c0.1,0,0.2,0.1,0.2,0.2c0.2,0.6,0.5,1.3,0.7,1.9c0.3,0.8,0.6,1.5,0.9,2.3c0,0.1,0,0.1,0.1,0.2
				c0,0.1,0,0.1,0.1,0.2c0,0.1,0.1,0.1,0.1,0.2C474.3,101.2,474.4,101.2,474.6,101.2z"/>
		</g>
		<path class="st24" d="M466.3,101.2v0.2h-1.1v-0.2c0,0,0,0,0-0.1c-0.2-0.3-0.2-0.3-0.3-0.5c-0.3-0.6-0.7-1.1-1.1-1.7
			c-0.3-0.4-0.2-0.5,0.2-0.6c0.1,0,0.2-0.1,0.2-0.1c0.5-0.2,0.7-0.6,0.6-1c-0.1-0.4-0.6-0.6-1.1-0.5c-0.2,0-0.2,0.2-0.2,0.4
			c0,0.8,0,1.5,0,2.3c0,0.4,0,0.7,0,1.1c0,0.2,0,0.4,0.1,0.5c0.1,0,0.2,0,0.4,0.1v0.2h-1.5v-0.2c0.2,0,0.3,0,0.4-0.1v0
			c0.1-0.1,0-0.3,0-0.5c0-1.2,0-2.4,0-3.6c0-0.2,0-0.5-0.3-0.6c0.7,0,1.5-0.2,2.2,0c0.8,0.3,0.9,1.3,0.3,1.9c0,0-0.1,0.1-0.1,0.1
			c-0.5,0.4-0.5,0.4-0.2,0.9c0.3,0.4,0.5,0.8,0.8,1.2c0.1,0.1,0.2,0.2,0.2,0.4c0,0,0,0,0,0c0.1,0.1,0.2,0.2,0.3,0.2
			C466.1,101.2,466.2,101.2,466.3,101.2z"/>
	</g>
	<g>
		<g>
			<g>
				<path class="st24" d="M597.3,324.7c0,0.3-0.6,0.6-1.2-0.1c0-1.3,0.3-2.3,1.3-2.3c0.2,0,0.4,0.1,0.5,0.1c0.2,0,0.3,0,0.5,0
					c0.2,0,0.3,0.1,0.4,0.1c0.1,0,0.2,0.1,0.3,0.1c0.5,0.2,0.8,0.6,0.9,1.1c0.2,1-0.1,4.3,0,5.1c-0.4,0.1-1.5,0.2-1.3-0.2
					c0.2-0.2,0.3-0.4,0.2-0.6c-0.2,0-2.1,0-2.1,0c-1.8-0.1-1.4-3.2,2.1-2.4v-1.7C598.9,322.7,597.3,321.9,597.3,324.7z"/>
			</g>
			<g>
				<path class="st25" d="M598.9,326.3v0.8c0,0.1-0.1,0.3-0.3,0.3c-0.4,0-1.1,0-1.3,0c-0.2-0.1-1.2-0.2,0.3-1.1
					c0.2-0.1,0.4-0.2,0.6-0.2h0.3C598.8,326.1,598.9,326.2,598.9,326.3z"/>
				<path class="st24" d="M597.9,327.5c-0.3,0-0.5,0-0.5,0c0,0,0,0-0.1,0c-0.2,0-0.5-0.1-0.5-0.4c0-0.2,0.3-0.5,0.9-0.9
					c0.2-0.1,0.4-0.2,0.7-0.2h0.3c0.2,0,0.3,0.1,0.3,0.3v0.8c0,0.2-0.2,0.3-0.4,0.4C598.4,327.5,598.1,327.5,597.9,327.5z
					 M598.4,326.2c-0.2,0-0.4,0.1-0.6,0.1c-0.8,0.4-0.8,0.6-0.8,0.7c0,0.1,0.3,0.2,0.4,0.2c0,0,0.1,0,0.1,0c0.1,0,0.4,0,1.2,0
					c0.1,0,0.2-0.1,0.2-0.2v-0.8c0-0.1-0.1-0.1-0.1-0.1H598.4z"/>
			</g>
		</g>
		<g>
			<g>
				<path class="st24" d="M627,323.8c0,0.4-0.9,0.8-1.8-0.2c-0.1-0.1,0-0.5,0-0.6c0-0.2,0-0.4,0.1-0.6c0.1-0.4,0.2-0.7,0.3-1
					c0.3-0.6,0.7-1,1.3-1.2c0.2,0,0.4-0.1,0.6,0c0.2,0.1,0.3,0.1,0.5,0.1c0.2,0,0.4,0,0.6,0c0.3,0,0.4,0.2,0.7,0.3
					c0.1,0,0.2,0.1,0.3,0.1c0.8,0.3,1.2,0.7,1.3,1.5c0.2,1.4-0.1,6.4,0,7.7c-0.6,0.2-2.3,0.2-1.9-0.3c0.3-0.3,0.4-0.6,0.3-0.8
					c-0.3,0-3.1,0-3.1,0c-2.7-0.2-2.1-4.8,3.1-3.7v-2.5C629.3,320.8,627,319.6,627,323.8z"/>
			</g>
			<g>
				<path class="st25" d="M629.4,326.2v1.3c0,0.2-0.2,0.4-0.4,0.4c-0.6,0-1.7,0.1-1.9,0c-0.3-0.1-1.8-0.3,0.5-1.8
					c0.3-0.2,0.6-0.3,0.9-0.3h0.5C629.3,325.9,629.4,326.1,629.4,326.2z"/>
			</g>
		</g>
		<g>
			<path class="st24" d="M601.3,327.9c-0.1-0.2,0.1,0,0.1-0.3c0-0.3,0.2-5,0-5.3c0.4-0.1,1.6-0.1,1.5,0.3c-0.2,0.3-0.4,0.6-0.2,0.7
				c1-0.3,3-0.7,3.1,1.1c0,1.8,0,3.8,0,3.8c0.2,0.2,0,0.3,0,0.3c-0.4,0.1-1,0.1-1.2,0c0-0.1,0-0.2,0-0.4c0-0.3,0-0.5,0-0.8
				c0-0.7,0.1-1.4,0.1-2.1c0-0.2,0-0.5,0-0.7c0-0.4-0.1-0.8-0.5-0.9c-0.2-0.1-0.5,0-0.7,0.1c-0.3,0.1-0.5,0.4-0.7,0.7
				c-0.3,0.5-0.3,1.1-0.3,1.7c0,0.7,0,1.4,0.1,2C602.6,328.1,601.7,328.3,601.3,327.9z"/>
		</g>
		<g>
			<path class="st24" d="M607.2,328.3c0.3,0.2,0.9,0.2,1.2,0c0.1,0,0.1-0.1,0.1-0.2c-0.3-0.5,0.2-4,0.2-4.7c0-0.1,0-0.1,0.1-0.1
				c0.5-0.4-0.7-0.6-1.3-0.4c-0.1,0-0.1,0.1-0.1,0.2c0.1,0.8,0.1,4.3-0.2,5.1C607.1,328.1,607.1,328.2,607.2,328.3z"/>
		</g>
		<g>
			<path class="st24" d="M612.9,329.6c0.1-0.1,0.2-0.2,0.1-0.3c-0.7-3.3-0.7-7.2,1.6-7c0.4,0,0.8,0,1.1,0.2c0.4,0.3,0.2,1,0.2,1.4
				c0,0.6,0,1.2-0.1,1.9c-0.1,0.6-0.1,1.2-0.2,1.8c0,0.5-0.1,0.9-0.1,1.4c0,0.1,0,0.2,0.1,0.3c0.1,0.1,0.2,0.2,0.3,0.2
				c0.1,0.1,0.2,0.2,0.3,0.2c0.2,0,0.3,0,0.5-0.1c0.4-0.2,0.4,0,0.6,0.1c0.3,0,0.7-0.1,0.4-0.5c0,0,0,0,0,0
				c-0.4-1.7-0.2-3.7-0.1-4.3c0,0,0.1-0.1,0.1,0c1.1,1.4,2.2,1.5,3.5,0.2c0,0,0.1,0,0.1,0c0,0.8,0,1.6-0.1,2.4
				c0,0.4-0.1,0.8-0.1,1.3c0,0.3-0.1,0.6-0.2,0.9c0,0.1-0.1,0.2-0.1,0.2c0,0.1,0.2,0.2,0.3,0.3c0.1,0.1,0.3,0.1,0.4,0.1
				c0.2,0,0.4-0.1,0.6-0.1c0.2,0,0.6,0,0.8,0c0,0,0,0,0,0c0.4-0.1,0.4-0.3,0.2-0.8c0,0,0,0,0,0c0-0.3,0-5.6,0.1-6c0,0,0,0,0,0
				c-0.4-2.9-4.8-2.8-6.1-1.5c0,0,0,0-0.1,0c-0.2-0.2-1.1-1.2-4.1-0.6c0,0-0.1,0-0.1-0.1c0-0.1,0-0.1,0-0.2c0-0.1,0.1-0.3,0.1-0.4
				c0.1-0.1,0.2-0.2,0.2-0.4c0-0.1,0-0.2-0.1-0.2c-0.1-0.1-0.2-0.1-0.3-0.2c-0.1,0-0.2-0.1-0.4,0c-0.2,0-0.3,0.1-0.5,0.1
				c-0.1,0-0.2,0-0.3,0c-0.2,0-0.4,0-0.6,0c-0.1,0-0.3,0-0.5,0.1c-0.1,0.1,0,0.2,0,0.3c0,0,0,0,0.1,0.1c0,0,0,0.1,0,0.1
				c0,0.3,0,0.6,0.1,0.9c0,0.5,0,1,0,1.5c0,0.6,0,1.2,0,1.8c0,0.6,0,1.2,0,1.8c0,0.5,0,1-0.1,1.5c0,0.3-0.1,0.7-0.1,1
				c0,0.1,0,0.1-0.1,0.2c0,0,0,0,0,0c0,0,0,0,0,0.1c0.1,0,0.2,0.1,0.3,0.1c0.1,0,0.3,0.1,0.4,0.1c0.1,0,0.3,0,0.4,0
				c0.1,0,0.2,0,0.3,0c0.1,0,0.2,0,0.4,0C612.6,329.7,612.8,329.7,612.9,329.6C612.9,329.6,612.9,329.6,612.9,329.6z"/>
		</g>
		<g>
			<path class="st25" d="M620.9,323.8c0-0.7-0.6-1.3-1.3-1.3c-0.7,0-1.3,0.6-1.3,1.3c0,0.7,0.6,1.3,1.3,1.3
				C620.4,325,620.9,324.5,620.9,323.8z"/>
		</g>
		<g>
			<path class="st24" d="M620.3,323.8c0,0.4-0.3,0.7-0.7,0.7c-0.4,0-0.7-0.3-0.7-0.7s0.3-0.7,0.7-0.7
				C620,323.1,620.3,323.4,620.3,323.8z"/>
		</g>
		<g>
			<path class="st24" d="M615.4,323.6c0,0.4-0.3,0.7-0.7,0.7c-0.4,0-0.7-0.3-0.7-0.7s0.3-0.7,0.7-0.7
				C615.1,322.9,615.4,323.2,615.4,323.6z"/>
		</g>
		<g>
			<path class="st24" d="M632.8,321.9l1.6,2.8c0,0,0,0.1,0,0.1c-0.3,0.5-2.1,3.9-2.1,4.1c0,0.1,0.5,0.5,0.8,0.3c0.1,0,0.1,0,0.2,0
				c0.2,0.2,0.5,0.2,0.7,0l0-0.4c0,0,0,0,0-0.1c0.1-0.3,1.1-2.5,1.2-2.5c0.1,0,1.7,2.7,2,2.6c0.3,0,0.5-0.1,1.2-0.2
				c0.1,0,0.4,0,0.5-0.2c0.1-0.2-0.2-0.4-0.4-0.5c-0.2-0.2-0.4-0.4-0.6-0.6c-0.4-0.4-0.7-0.9-1.1-1.3c-0.3-0.4-0.5-0.7-0.7-1.1
				c0,0,0-0.1,0-0.2c0.3-0.5,2.1-3.1,2.4-3.3c0.1-0.1,0.3-0.1,0.3-0.3c0-0.2-0.4-0.4-0.5-0.4c-0.3-0.1-0.5-0.2-0.8-0.2
				c-0.1,0-0.4,0-0.5,0.1c-0.1,0.1-1.6,2.3-1.8,2.6c0,0,0,0,0,0c-0.2-0.5-0.4-1-0.7-1.5c0-0.1-0.1-0.4-0.2-0.4c-0.1,0-0.1,0-0.2,0
				c-0.1,0-0.1,0-0.2,0c-0.2,0-0.3,0-0.5,0.1c-0.2,0-0.3,0.1-0.4,0.1C632.9,321.7,632.7,321.9,632.8,321.9z"/>
		</g>
		<g>
			<path class="st24" d="M608.2,319.5c-0.1,0-0.1,0.1-0.2,0.1c-0.2,0.2-0.5,0.4-0.6,0.6c-0.1,0.1-0.2,0.3-0.1,0.5
				c0.1,0.2,0.4,0.1,0.5,0.1c0.2,0,0.4-0.1,0.5-0.2c0.2-0.1,0.5-0.2,0.7-0.4c0.4-0.2,0.8-0.4,1.2-0.6c0,0,0,0,0,0
				c0.1-0.2-1.1-0.3-1.2-0.3C608.8,319.4,608.5,319.4,608.2,319.5z"/>
		</g>
		<g>
			<path class="st24" d="M622.5,319.3C622.5,319.3,622.5,319.3,622.5,319.3c-0.2,0-0.5-0.1-0.7-0.1c-0.5,0-1,0-1.5,0
				c-0.3,0-0.7,0-1,0.1c-0.3,0.1-0.7,0.2-1,0.3c-0.1,0-0.6,0.2-0.4,0.4C618.2,320.3,622,319.5,622.5,319.3z"/>
		</g>
	</g>
	<g>
		<path class="st26" d="M686.5,100.9c0,0.2-0.1,0.5-0.3,0.7l-3,3c-0.3,0.3-0.9,0.3-1.2,0l-3-3c-0.2-0.2-0.2-0.4-0.2-0.6
			c0-0.2,0.1-0.4,0.2-0.6l1.6-1.6V98h0.4v-4.1l1.6-1.7l1.7,1.7V98h0.4v0.8l1.5,1.5C686.4,100.5,686.5,100.7,686.5,100.9z"/>
		<path class="st3" d="M681.4,94v4.4H681V99l-1.7,1.7c-0.2,0.2-0.2,0.4,0,0.6l3,3c0.2,0.2,0.5,0.2,0.7,0l3-3c0.2-0.2,0.2-0.6,0-0.8
			l-1.6-1.6v-0.6h-0.4v-4.4l-1.3-1.3L681.4,94z"/>
		<polygon class="st25" points="681.9,100.4 681.2,99.6 679.8,101 682.6,103.8 683.2,103.2 683.2,100.2 684,101 683.4,101.6 
			684.1,102.3 685.5,100.9 683.2,98.6 682.1,98.6 682.1,101.7 681.3,101 		"/>
		<polygon class="st25" points="682.1,98.6 681.8,98.6 681.8,98.1 683.5,98.1 683.5,98.7 683.2,98.7 682.6,98.1 		"/>
		<polygon class="st3" points="682.1,98.6 682.6,98.1 683.2,98.7 		"/>
		<polygon class="st25" points="681.8,97.9 683.5,97.9 683.5,96.8 683,96.8 683,97.4 681.8,97.4 		"/>
		<polygon class="st25" points="681.8,96.6 683.5,96.6 683.5,95.4 682.8,95.4 682.8,95.9 682.9,95.9 682.9,96.1 682.3,96.1 
			682.3,95.9 682.5,95.9 682.5,95.4 681.8,95.4 		"/>
		<polygon class="st25" points="683.5,95.2 683.5,94.6 682.8,94.4 683.5,94.3 683.5,93.7 681.8,94.1 681.8,94.8 		"/>
	</g>
	<path d="M609,390.9c0,0-0.3,0-0.6,0.2c-0.2,0.2-0.3,0.4-0.3,0.4l-0.1,0.4c0,0-0.1,0.3,0,0.5c0.1,0.2,0.5,0.2,0.5,0.2h1.1
		c0,0,0,0,0.1,0c0,0,0,0.1,0,0.1l-0.1,0.2c0,0,0,0.1-0.1,0.1c-0.1,0-0.1,0-0.1,0h-1.8l-0.1,0.5h2.4c0,0,0.3,0,0.5-0.2
		c0.2-0.2,0.3-0.5,0.3-0.5c0,0,0.1-0.4,0.1-0.4c0-0.1,0.1-0.3-0.1-0.5c-0.1-0.2-0.4-0.2-0.3-0.2h-1.3c0,0,0,0-0.1,0c0,0,0-0.1,0-0.1
		l0.1-0.2c0,0,0,0,0.1-0.1c0.1,0,0.1,0,0.1,0h1.8l0.1-0.5H609z M616.6,391.4h0.7c0,0,0.1,0,0.1,0c0,0.1,0,0.1,0,0.1l-0.4,1.4
		c0,0,0,0.1-0.1,0.1c-0.1,0-0.1,0-0.1,0h-0.7L616.6,391.4z M615.5,390.9l-1,3.8h1.2l0.3-1h1.4c0,0,0.3,0,0.6-0.2
		c0.3-0.2,0.3-0.6,0.3-0.6l0.3-1.1c0,0,0.1-0.4,0-0.6c-0.2-0.2-0.4-0.2-0.4-0.2H615.5z M623,390.9l-0.7,2.7h1.3l0.4-1.6
		c0,0,0.1-0.1,0.2-0.2c0.2-0.1,0.3-0.1,0.4-0.1l0.7,0l0.2-0.7h-0.8c-0.1,0-0.2,0-0.3,0.1c-0.2,0.1-0.2,0.2-0.2,0.2l0.1-0.2H623z
		 M611.7,390.9l-0.5,1.9c0,0-0.1,0.3,0,0.5c0.1,0.3,0.5,0.3,0.5,0.3h2.7l0.7-2.7h-1.3l-0.5,2.1c0,0,0,0-0.1,0.1c-0.1,0-0.1,0-0.1,0
		h-0.6c0,0-0.1,0-0.1,0c0,0,0-0.1,0-0.1l0.5-2H611.7z M620.3,391.6c0,0,0-0.1,0.1-0.1c0.1-0.1,0.1,0,0.1,0h0.6c0,0,0,0,0.1,0
		c0,0.1,0,0.1,0,0.1l-0.1,0.4h-0.9L620.3,391.6z M619.8,390.9c0,0-0.3,0-0.5,0.2c-0.2,0.2-0.3,0.6-0.3,0.6l-0.3,1.2
		c0,0-0.1,0.4,0,0.6c0.1,0.2,0.4,0.2,0.4,0.2h2.7l0.1-0.5h-1.9c0,0-0.1,0-0.2-0.1c0-0.1,0-0.1,0-0.1l0.1-0.3h2.1l0.3-1
		c0,0,0.1-0.3,0-0.5c-0.1-0.2-0.4-0.2-0.4-0.2H619.8z M637.6,391.6c0,0,0-0.1,0.1-0.1c0.1-0.1,0.1-0.1,0.1-0.1h0.5
		c0,0,0.1,0,0.1,0.1c0,0.1,0,0.1,0,0.1l-0.1,0.4h-0.9L637.6,391.6z M637.1,390.9c0,0-0.3,0-0.5,0.2c-0.2,0.2-0.3,0.5-0.3,0.6
		l-0.3,1.2c0,0-0.1,0.3,0,0.5c0.1,0.2,0.4,0.2,0.4,0.2h2.7l0.1-0.5h-1.9c0,0-0.1,0-0.1-0.1c0-0.1,0-0.1,0-0.2l0.1-0.3h2.1l0.3-1
		c0,0,0.1-0.3,0-0.5c-0.1-0.2-0.4-0.2-0.4-0.2H637.1z M640.7,389.9l-0.3,1h-0.4l-0.1,0.5h0.4l-0.4,1.5c0,0-0.1,0.3,0,0.5
		c0.1,0.2,0.4,0.2,0.4,0.2h1.7l0.1-0.5h-0.9c0,0-0.1,0-0.1,0c0,0,0-0.1,0-0.1l0.4-1.5h0.8l0.1-0.5h-0.8l0.3-1H640.7z M633.9,391.4
		l0.7,0c0,0,0.1,0,0.1,0.1c0,0.1,0,0.1,0,0.1l-0.3,1.3c0,0,0,0.1-0.1,0.1c-0.1,0.1-0.1,0.1-0.1,0.1h-0.7L633.9,391.4z M633,389.9
		l-1,3.7h0.7h0.7h0.7h0.7c0,0,0.3,0,0.6-0.2c0.3-0.2,0.3-0.6,0.3-0.6l0.3-1.1c0,0,0.1-0.4,0-0.6c-0.2-0.3-0.5-0.2-0.5-0.2h-0.3h-0.3
		h-0.3H634l0.3-1H633z M626.3,394.1c1.4,0.8,2.9,0.3,3.4-0.2c0.3-0.1,0.7-0.2,1-0.5C630.4,394.6,628,395.4,626.3,394.1
		c-0.1,0-0.3-0.1-0.3-0.3C626.1,394,626.2,394.1,626.3,394.1z M627.7,390.3c-0.1,0-0.3,0-0.4,0.1c-0.1,0.1-0.2,0.3-0.3,0.4
		c-0.1,0.1,0,0.3,0.1,0.4c0.1,0.1,0.1,0.1,0.3,0.1c0.1,0,0.2,0,0.2,0c0.1,0,0.2-0.1,0.3-0.2c0.1-0.1,0.1-0.1,0.2-0.2
		c0.1-0.1,0-0.2,0-0.3C627.8,390.4,627.8,390.3,627.7,390.3z M626.8,391c0.1-0.3,0.3-0.6,0.6-0.8c0,0,0,0.1-0.1,0.1
		c-0.1,0-0.2,0.1-0.2,0.2c-0.2,0.3-0.1,0.3-0.2,0.3C626.8,390.9,626.8,390.9,626.8,391z M627.7,390c0.2-0.1,0.4-0.1,0.5,0
		c0,0,0,0,0,0.1c-0.1,0-0.2,0.1-0.3,0.2c-0.1,0.1-0.2,0-0.3,0c0,0-0.1,0-0.1,0C627.3,390.3,627.5,390.1,627.7,390z M626.8,391
		C626.9,391,626.9,391,626.8,391c0.1,0.1,0.1,0.2,0.2,0.3c0,0,0,0.1,0,0.1c0,0.1-0.1,0.2-0.1,0.3C626.7,391.6,626.7,391.2,626.8,391
		z M628.1,390.2c0.1-0.1,0.2-0.1,0.4-0.1c0.2,0,0.3,0.1,0.4,0.2c0.1,0.1,0.2,0.4,0.2,0.4c0,0.1-0.2,0.2-0.3,0.2
		c-0.1,0.1-0.2,0.1-0.4,0c-0.1,0-0.3-0.1-0.4-0.2c-0.1-0.1-0.1-0.2-0.2-0.4C627.9,390.3,628,390.2,628.1,390.2z M627.3,392.5
		C627.4,392.5,627.4,392.5,627.3,392.5c-0.2-0.1-0.4-0.4-0.5-0.7c0.1,0.1,0.1,0.1,0.2,0.2c0,0.1,0.1,0.1,0.1,0.2
		C627.1,392.2,627.3,392.4,627.3,392.5z M629.1,392.2c0,0.1-0.1,0.3-0.2,0.4c-0.2,0.1-0.3,0.2-0.5,0.2c-0.1,0-0.3-0.2-0.4-0.2
		c0-0.1,0.1-0.4,0.2-0.5c0,0,0.2,0,0.3-0.1c0.1,0,0.2,0,0.3-0.1c0.1,0,0.2,0.1,0.3,0.1C629,392,629.1,392,629.1,392.2z M628.7,391.6
		c0,0.1-0.2,0.2-0.3,0.2c-0.1,0-0.3,0-0.3,0c-0.1,0-0.3-0.3-0.3-0.4c-0.1-0.1-0.1-0.1,0-0.3c0.1-0.1,0.2-0.2,0.2-0.3
		c0.1-0.1,0.2,0,0.4,0c0.2,0.1,0.3,0.1,0.3,0.2C628.7,391.3,628.7,391.4,628.7,391.6z M628.4,389.9c0.2,0,0.4,0.1,0.6,0.3
		c0,0,0,0,0,0c-0.1,0-0.2-0.1-0.3-0.1C628.6,390.1,628.5,390,628.4,389.9c0,0.1-0.1,0.1-0.1,0c0,0,0,0-0.1,0
		C628.3,389.9,628.3,389.9,628.4,389.9z M629.5,390.9c-0.1-0.2-0.3-0.2-0.4-0.3c0-0.1-0.1-0.3-0.1-0.4c0,0,0,0,0,0
		C629.3,390.4,629.4,390.7,629.5,390.9z M629.1,390.8c0.1-0.1,0.3,0.1,0.4,0.2l0,0c0.1,0.1,0.1,0.4,0.1,0.6c0,0.2-0.1,0.3-0.2,0.3
		c-0.2,0.1-0.4-0.1-0.5-0.2c-0.1-0.1-0.1-0.2-0.1-0.4c0-0.1,0-0.3,0-0.3C628.9,391,629,390.9,629.1,390.8z M631.4,392.1
		c0-0.9-0.7-1.5-1.2-1.7c-0.6-0.3-1.4-0.5-2-0.5c-0.5,0-1,0.2-1.3,0.6c-0.5,0.7-0.4,1.7,0.3,2.2c0.3,0.2,0.7,0.3,1.1,0.3
		c0.4,0,1.5-0.6,1.6,0.1c0.3-0.2,0.5-0.6,0.4-0.8c-0.1-0.2-0.4-0.4-0.6-0.4c0.4,0,0.9,0.2,0.8,0.6c-0.4,1.6-3.7,1.6-4.8,0.5
		c-0.2-0.2-0.3-0.3-0.3-0.5c0,0.2,0.1,0.3,0.2,0.5c1.3,1.8,5.4,1,5.6-0.7c0.1-0.4-0.2-0.9-0.7-1.2c-0.4-0.3-0.9-0.4-0.9-0.4
		C631.1,390.8,631.4,391.7,631.4,392.1z M629.7,391.3c0,0.1,0,0.2,0,0.3c-0.1,0.3-0.2,0.5-0.4,0.7c-0.1,0.1-0.3,0.2-0.4,0.3
		c0,0,0,0,0,0c0,0-0.1,0-0.1,0.1c0,0,0,0-0.1,0c0,0,0,0,0,0c0,0-0.1,0-0.1,0c0,0,0,0,0,0c0,0-0.1,0-0.1,0c0,0,0,0-0.1,0c0,0,0,0,0,0
		c-0.1,0-0.1,0-0.2,0c-0.1,0-0.3,0-0.4,0c-0.5-0.1-1-0.6-1.1-1.1c-0.1-0.3,0-0.6,0-0.9c0.1-0.3,0.3-0.5,0.5-0.7
		c0.3-0.2,0.6-0.3,1-0.3c0.2,0,0.5,0,0.7,0.1c0.3,0.1,0.5,0.3,0.6,0.5c0.1,0.1,0.1,0.2,0.2,0.4C629.7,391,629.7,391.2,629.7,391.3z
		 M629,392.5c-0.2,0.1-0.4,0.2-0.7,0.3c-0.1,0-0.1,0-0.2,0c0.1,0,0.1-0.1,0.2-0.1c0.1,0,0.1,0,0.2-0.1
		C628.8,392.6,629,392.5,629,392.5C629,392.5,629,392.5,629,392.5C629,392.5,629,392.5,629,392.5C629,392.5,629,392.5,629,392.5z
		 M629.1,392.5C629.1,392.5,629.1,392.5,629.1,392.5C629.1,392.5,629,392.5,629.1,392.5c0-0.1,0-0.2,0.1-0.3c0,0,0-0.1,0.1-0.1
		c0.1,0,0.2-0.1,0.3-0.2c0,0,0,0,0,0C629.5,392.1,629.3,392.3,629.1,392.5z M628.2,392.8c-0.2,0.1-0.7-0.1-0.8-0.3
		c0.1,0,0.3,0,0.4,0c0,0,0.1,0,0.1,0C627.9,392.6,628.1,392.7,628.2,392.8C628.2,392.7,628.2,392.8,628.2,392.8z M627.6,391.5
		c0.1,0.1,0.1,0.2,0.2,0.3c0,0.1,0.1,0.2,0.1,0.2c-0.1,0.1-0.1,0.2-0.1,0.3c0,0.1-0.1,0.1-0.2,0.1c-0.1,0-0.2,0-0.3,0
		c-0.1-0.1-0.3-0.3-0.4-0.5c0-0.1,0-0.3,0-0.4c0-0.1,0.1-0.1,0.1-0.1C627.2,391.4,627.5,391.4,627.6,391.5z"/>
	<g>
		<path class="st3" d="M603,482c0.2-0.8-0.4-1.5-2.2-1.5h-3.5l-0.1,0.5l0.8,0.1c-0.1,0.8-0.3,1.6-0.5,2.4l-0.1,0.3
			c-0.2,0.8-0.3,1.6-0.5,2.4l-0.8,0.1l-0.1,0.5h3.1c2.7,0,3.6-1,3.8-1.8c0.2-0.9-0.4-1.4-2-1.6C602.3,483.2,602.9,482.6,603,482z
			 M600.9,485c-0.2,0.8-0.8,1.2-1.8,1.2h-0.4c0.1-0.8,0.3-1.6,0.5-2.5h0.4C600.7,483.7,601.1,484.1,600.9,485z M601.2,482.1
			c-0.2,0.8-0.7,1.1-1.6,1.1h-0.3c0.2-0.7,0.3-1.5,0.5-2.2h0.4C601,481,601.4,481.4,601.2,482.1z"/>
		<path class="st3" d="M610.7,483.6c-0.4,2.2-2.3,3.3-4.2,3.3c-1.8,0-3.3-1.1-2.8-3.3c0.4-2.2,2.4-3.3,4.2-3.3
			C609.7,480.3,611.1,481.4,610.7,483.6z M606.6,486.4c1.1,0,1.8-1.2,2.1-2.8c0.3-1.6,0.1-2.8-1-2.8c-1.1,0-1.8,1.2-2.1,2.8
			C605.3,485.2,605.5,486.4,606.6,486.4z"/>
		<polygon class="st3" points="619.1,480.5 619,481 618.1,481.1 617.2,485.2 616.9,486.8 616,486.8 613.1,482.1 612.3,486.1 
			613.5,486.3 613.4,486.8 610.5,486.8 610.6,486.3 611.5,486.1 612.5,481.3 612.4,481.1 611.7,481 611.8,480.5 614.2,480.5 
			616.7,484.4 617.3,481.1 616.1,481 616.2,480.5 		"/>
		<path class="st3" d="M620.2,485c-0.2,1.1,0.3,1.6,0.9,1.6c0.2,0,0.4,0,0.5-0.1l0.3-0.7h0.5l-0.2,0.8c-0.4,0.2-0.8,0.3-1.4,0.3
			c-1.2,0-2.1-0.6-1.8-1.9c0.3-1.3,1.4-1.9,2.6-1.9c0.5,0,0.8,0.1,1.2,0.3l-0.1,0.8h-0.5l0-0.7c-0.1-0.1-0.3-0.1-0.4-0.1
			C621.1,483.4,620.4,483.9,620.2,485z"/>
		<path class="st3" d="M626.2,486.5l-0.6-3.3H625l-1.9,3.2l-0.5,0.1l-0.1,0.3h1.3l0.1-0.3l-0.5-0.1l0.4-0.7h1.3l0.1,0.7l-0.5,0.1
			l-0.1,0.3h1.9l0.1-0.3L626.2,486.5z M624,485.4l0.8-1.4l0.2,1.4H624z"/>
		<path class="st3" d="M630.8,483.2l-0.1,0.9h-0.5l0-0.6H629c-0.1,0.4-0.2,0.8-0.3,1.3h0.7l0.2-0.4h0.4l-0.3,1.2h-0.4l0-0.5h-0.7
			c-0.1,0.5-0.2,0.9-0.3,1.3l0.5,0.1l-0.1,0.3h-2.1l0.1-0.3l0.5,0c0.1-0.4,0.2-0.9,0.3-1.4l0-0.2c0.1-0.4,0.2-0.9,0.3-1.4l-0.5,0
			l0.1-0.3H630.8z"/>
		<path class="st3" d="M633.7,484.1v-0.6h-1c-0.1,0.4-0.2,0.8-0.3,1.3h0.7l0.2-0.4h0.4l-0.2,1.2H633l0-0.4h-0.7
			c-0.1,0.5-0.2,0.9-0.3,1.4h1.2l0.3-0.6h0.5l-0.2,0.9h-3.3l0.1-0.3l0.5,0c0.1-0.4,0.2-0.9,0.3-1.4l0-0.2c0.1-0.4,0.2-0.9,0.3-1.4
			l-0.5,0l0.1-0.3h3.2l-0.1,0.9H633.7z"/>
	</g>
	<g id="portocaliu">
		<path class="st23" d="M448.4,53.9c0-0.9-0.7-1.6-1.6-1.6h-10.8c-0.9,0-1.6,0.7-1.6,1.6v10.8c0,0.9,0.7,1.6,1.6,1.6h10.8
			c0.9,0,1.6-0.7,1.6-1.6V53.9z M444.4,54.4c0.5,0,0.8,0.4,0.8,0.8c0,0.5-0.4,0.8-0.8,0.8c-0.5,0-0.8-0.4-0.8-0.8
			C443.6,54.7,443.9,54.4,444.4,54.4z M438,54.4c0.5,0,0.8,0.4,0.8,0.8c0,0.5-0.4,0.8-0.8,0.8c-0.5,0-0.8-0.4-0.8-0.8
			C437.2,54.7,437.6,54.4,438,54.4z M439.7,56.7l-0.2,2.8c0,0.2-0.1,0.3-0.3,0.4l0,0c-0.2,0.1-0.3,0.2-0.3,0.4l-0.2,3.6
			c0,0.2-0.2,0.4-0.5,0.4h-0.2h-0.2c-0.2,0-0.4-0.2-0.5-0.4l-0.2-3.6c0-0.2-0.1-0.3-0.3-0.4c-0.2-0.1-0.3-0.2-0.3-0.4l-0.2-2.8
			c0-0.2,0.1-0.4,0.4-0.5l0.2,0c0.2,0,0.3,0,0.4,0.1l0.3,0.3c0.2,0.2,0.5,0.2,0.6,0l0.3-0.3c0.1-0.1,0.3-0.2,0.4-0.1l0.2,0
			C439.6,56.3,439.7,56.5,439.7,56.7z M441.4,64.2c0,0.1-0.1,0.2-0.2,0.2c-0.1,0-0.2-0.1-0.2-0.2v-9.9c0-0.1,0.1-0.2,0.2-0.2
			c0.1,0,0.2,0.1,0.2,0.2V64.2z M446,59.9c-0.2,0-0.3,0.2-0.2,0.3l0.1,0.7c0,0.2-0.1,0.3-0.3,0.3l-0.2,0c-0.1,0-0.3,0.1-0.3,0.3
			l-0.1,2.3c0,0.2-0.2,0.4-0.5,0.4h-0.2h-0.2c-0.2,0-0.4-0.2-0.5-0.4l-0.1-2.3c0-0.1-0.1-0.3-0.3-0.3l-0.2,0c-0.2,0-0.3-0.2-0.3-0.3
			l0.1-0.7c0-0.2-0.1-0.3-0.2-0.3c-0.2,0-0.3-0.2-0.2-0.4l0.6-2.9c0-0.2,0.3-0.3,0.5-0.2l0.6,0.4c0.1,0.1,0.2,0.1,0.3,0l0.6-0.4
			c0.2-0.1,0.4,0,0.5,0.2l0.6,2.9C446.3,59.6,446.2,59.8,446,59.9z"/>
		<path class="st23" d="M846.5,433.6c0-0.9-0.7-1.6-1.6-1.6h-10.8c-0.9,0-1.6,0.7-1.6,1.6v10.8c0,0.9,0.7,1.6,1.6,1.6h10.8
			c0.9,0,1.6-0.7,1.6-1.6V433.6z M842.5,434.1c0.5,0,0.8,0.4,0.8,0.8c0,0.5-0.4,0.8-0.8,0.8c-0.5,0-0.8-0.4-0.8-0.8
			C841.7,434.4,842.1,434.1,842.5,434.1z M836.2,434.1c0.5,0,0.8,0.4,0.8,0.8c0,0.5-0.4,0.8-0.8,0.8c-0.5,0-0.8-0.4-0.8-0.8
			C835.4,434.4,835.7,434.1,836.2,434.1z M837.8,436.4l-0.2,2.8c0,0.2-0.1,0.3-0.3,0.4l0,0c-0.2,0.1-0.3,0.2-0.3,0.4l-0.2,3.6
			c0,0.2-0.2,0.4-0.5,0.4h-0.2H836c-0.2,0-0.4-0.2-0.5-0.4l-0.2-3.6c0-0.2-0.1-0.3-0.3-0.4c-0.2-0.1-0.3-0.2-0.3-0.4l-0.2-2.8
			c0-0.2,0.1-0.4,0.4-0.5l0.2,0c0.2,0,0.3,0,0.4,0.1l0.3,0.3c0.2,0.2,0.5,0.2,0.6,0l0.3-0.3c0.1-0.1,0.3-0.2,0.4-0.1l0.2,0
			C837.7,436,837.8,436.2,837.8,436.4z M839.6,444c0,0.1-0.1,0.2-0.2,0.2c-0.1,0-0.2-0.1-0.2-0.2v-9.9c0-0.1,0.1-0.2,0.2-0.2
			c0.1,0,0.2,0.1,0.2,0.2V444z M844.1,439.6c-0.2,0-0.3,0.2-0.2,0.3l0.1,0.7c0,0.2-0.1,0.3-0.3,0.3l-0.2,0c-0.1,0-0.3,0.1-0.3,0.3
			l-0.1,2.3c0,0.2-0.2,0.4-0.5,0.4h-0.2h-0.2c-0.2,0-0.4-0.2-0.5-0.4l-0.1-2.3c0-0.1-0.1-0.3-0.3-0.3l-0.2,0c-0.2,0-0.3-0.2-0.3-0.3
			l0.1-0.7c0-0.2-0.1-0.3-0.2-0.3c-0.2,0-0.3-0.2-0.2-0.4l0.6-2.9c0-0.2,0.3-0.3,0.5-0.2l0.6,0.4c0.1,0.1,0.2,0.1,0.3,0l0.6-0.4
			c0.2-0.1,0.4,0,0.5,0.2l0.6,2.9C844.4,439.4,844.3,439.5,844.1,439.6z"/>
		<g>
			<polygon class="st23" points="649.1,525.3 644.6,528 644.5,524.9 649,522.3 653.6,524.7 653.7,527.8 			"/>
			<polygon class="st23" points="649.2,529.6 644.7,532.2 644.6,529.1 649.1,526.5 653.7,528.9 653.8,532 			"/>
			<polygon class="st23" points="649.3,533.8 644.8,536.4 644.7,533.3 649.2,530.7 653.8,533.2 653.8,536.2 			"/>
		</g>
		<g>
			<polygon class="st23" points="531.3,229.6 526.8,232.3 526.7,229.2 531.2,226.5 535.8,229 535.9,232.1 			"/>
			<polygon class="st23" points="531.4,233.8 526.9,236.5 526.8,233.4 531.3,230.8 535.9,233.2 536,236.3 			"/>
			<polygon class="st23" points="531.5,238.1 527,240.7 526.9,237.6 531.4,235 536,237.4 536.1,240.5 			"/>
		</g>
		<g>
			<polygon class="st23" points="557.3,450.8 554.7,446.3 557.8,446.2 560.4,450.7 557.9,455.3 554.9,455.4 			"/>
			<polygon class="st23" points="553.1,450.9 550.4,446.4 553.5,446.3 556.2,450.8 553.7,455.4 550.6,455.5 			"/>
			<polygon class="st23" points="548.9,451 546.2,446.5 549.3,446.4 551.9,450.9 549.5,455.5 546.4,455.5 			"/>
		</g>
	</g>
	<g>
		<g>
			<g transform="translate(-19.000000, -107.000000)">
				<path class="st27" d="M268.7,502.6l1.1-1.7c0.6-0.9,1.7-1.5,2.8-1.5h17.8c1.1,0,2.2,0.6,2.8,1.5l1.1,1.7
					c0.6-0.1,1.1-0.2,1.7-0.3l6.8-1.5v-5.3c-0.2,0.1-0.4,0.1-0.7,0.2c-1.3,0.3-2.4,0.4-3.8,0.4c-0.7,0-1.8-0.1-2.7-0.2
					c-1.3-0.2-2.1-0.5-2.6-1c-2,0.8-4.1,1-6.2,0.7c-2.8-0.4-4.6-0.6-5.3-0.6c-0.7,0-2.5,0.2-5.3,0.6c-2.2,0.3-4.4,0-6.4-0.8
					c0,0,0,0-0.1,0c-0.7,0.4-1.5,0.7-2.4,0.9c-1.3,0.3-2.4,0.4-3.8,0.4c-0.7,0-1.8-0.1-2.7-0.2c-0.2,0-0.4-0.1-0.6-0.1v5l6.8,1.5
					C267.6,502.4,268.1,502.5,268.7,502.6z M271.3,502.8c0.1,0,0.2,0,0.4,0h19.7c0.1,0,0.2,0,0.4,0l-0.4-0.6
					c-0.2-0.3-0.6-0.5-0.9-0.5h-17.8c-0.4,0-0.7,0.2-0.9,0.5L271.3,502.8z M260.2,493.4c0.2,0.1,0.6,0.2,1,0.2
					c0.8,0.1,1.8,0.2,2.4,0.2c1.3,0,2.2-0.1,3.3-0.3h0.1c-2.5-1-4.8-1.7-6.8-1.8v0.1V493.4z M258,493.9L258,493.9v-2.1
					c0-0.8,0.2-1.5,0.6-2.2l2.2-3.9l-4-0.6l0,0c-0.1,0-0.2,0-0.3-0.1c-0.5-0.2-0.6-0.8-0.4-1.2l0.3-0.7c0.1-0.3,0.4-0.5,0.7-0.6l0,0
					l3-0.7c0.6-0.1,1.2,0.2,1.3,0.7l0,0l0.4,1.1l3.1-8.5c0.8-2.2,2.9-3.7,5.3-3.7h22.9c2.4,0,4.5,1.5,5.3,3.7l3,8.3l0.2-0.9
					c0.2-0.6,0.8-0.9,1.3-0.8l3.1,0.7c0.3,0.1,0.6,0.3,0.7,0.6l0.4,0.7c0.2,0.4,0.1,1-0.4,1.2c-0.1,0-0.2,0.1-0.3,0.1l-4,0.6
					l2.2,3.9c0.4,0.7,0.6,1.4,0.6,2.2v2v0.1v6.7v4.5c0,1.9-1.5,3.4-3.4,3.4h-5.7c-1.9,0-3.4-1.5-3.4-3.4l0,0c-0.4,0-0.9,0-1.3,0
					h-19.7c-0.4,0-0.9,0-1.3,0l0,0c0,1.9-1.5,3.4-3.4,3.4h-5.6c-1.9,0-3.4-1.5-3.4-3.4v-4.5V493.9z M302.8,493.2v-1.4v-0.1
					c-2.1,0.2-4.5,0.8-7.1,1.9c0.1,0,0.1,0,0.2,0c0.8,0.1,1.8,0.2,2.4,0.2c1.3,0,2.2-0.1,3.3-0.3C302,493.4,302.4,493.3,302.8,493.2
					z M261.1,489.5c2.7,0.4,5.7,1.3,9,2.9c1.8,0.9,3.8,1.2,5.8,0.9c2.9-0.4,4.7-0.6,5.6-0.6c0.9,0,2.7,0.2,5.6,0.6
					c2,0.3,4,0,5.8-0.9c3.3-1.6,6.3-2.6,9-2.9l-1.9-3.4l-5,0.8c-0.7,0.1-1.3,0.2-2,0.2h-22.9c-0.7,0-1.4-0.1-2-0.2l-5-0.8
					L261.1,489.5z M294.9,504.8c0,0.1,0,0.2,0,0.3c0,0.6,0.5,1.1,1.1,1.1h5.6c0.6,0,1.1-0.5,1.1-1.1v-2l-6.3,1.4
					C295.9,504.6,295.4,504.7,294.9,504.8z M268.1,504.8c-0.5-0.1-1-0.2-1.6-0.3l-6.3-1.4v2c0,0.6,0.5,1.1,1.1,1.1h5.6
					c0.6,0,1.1-0.5,1.1-1.1C268,505,268,504.9,268.1,504.8z M296.1,475.9c-0.5-1.3-1.7-2.2-3.2-2.2h-22.8c-1.4,0-2.7,0.9-3.2,2.2
					L264,484l4.5,0.7c0.5,0.1,1.1,0.1,1.7,0.1H293c0.6,0,1.1,0,1.7-0.1l4.5-0.7L296.1,475.9z"/>
			</g>
		</g>
	</g>
	<text transform="matrix(1 0 0 1 300.6938 384.6009)" class="st27 st5 st28">x 700</text>
</g>
<polygon id="RomanGF01" class="st2" points="9.7,78.9 9.7,201.1 97.4,201.1 97.4,100 125.7,100 125.7,78.9 "/>
<polygon id="RomanGF02" class="st2" points="127.7,78.9 132.3,78.9 132.3,201.1 99.8,201.1 99.8,102.7 127.5,102.7 "/>
<rect id="RomanGF03" x="134.6" y="78.9" class="st2" width="40.8" height="122.1"/>
<rect id="RomanGF04" x="177.6" y="78.9" class="st2" width="59.4" height="122.1"/>
<rect id="RomanGF05" x="239" y="78.9" class="st2" width="59.6" height="122.1"/>
<rect id="RomanGF06" x="300.7" y="79" class="st2" width="36.6" height="122"/>
<rect id="RomanGF08" x="339.6" y="79" class="st2" width="45.6" height="122"/>
<rect id="RomanGF07" x="387.2" y="79" class="st2" width="38.9" height="122"/>
<rect id="RomanGF09" x="428.3" y="105.9" class="st2" width="33.8" height="95.1"/>
<polygon id="RomanG01" class="st2" points="463.9,181.9 463.9,201.1 514.9,201.1 514.9,182 "/>
<rect id="RomanG02" x="463.9" y="156.6" class="st2" width="50.9" height="23.3"/>
<rect id="RomanG030405" x="463.9" y="105.9" class="st2" width="50.9" height="48.3"/>
<polygon id="RomanG06-G07" class="st2" points="428.3,104.2 514.9,104.2 514.9,98.7 494.8,78.6 428.3,78.6 "/>
<polygon id="RomanG08" class="st2" points="428.3,39.8 428.3,10.1 498.2,10.1 498.2,39.8 485.2,39.8 485.2,66.3 454.9,66.3 
	454.9,39.9 "/>
<rect id="RomanG09" x="499.9" y="10.1" class="st2" width="24.2" height="29.9"/>
<rect id="RomanG10" x="526" y="10.1" class="st2" width="27.1" height="29.9"/>
<rect id="RomanG11" x="555.2" y="10.1" class="st2" width="34.6" height="29.9"/>
<rect id="RomanG12" x="592" y="10.1" class="st2" width="26.1" height="29.9"/>
<rect id="RomanG13" x="630" y="10.1" class="st2" width="36.4" height="29.9"/>
<rect id="RomanG141515A" x="654" y="41.8" class="st2" width="23" height="23.1"/>
<rect id="RomanG15B" x="678.8" y="90.7" class="st2" width="8.6" height="14.5"/>
<polygon id="RomanG16" class="st2" points="549.5,182 598.9,182 598.9,223.2 586,223.2 586,200.6 549.5,200.6 "/>
<polygon id="RomanG17_x5F_18" class="st2" points="549.5,179.9 549.5,146.7 588.8,146.7 588.8,132 599.4,132 599.4,179.9 "/>
<rect id="RomanG19" x="549.5" y="132" class="st2" width="37.1" height="12.8"/>
<rect id="RomanG20" x="549.5" y="118" class="st2" width="21.9" height="12"/>
<polygon id="RomanG21" class="st2" points="571.4,115.9 571.4,100 553.2,100 549.3,104 549.3,115.9 "/>
<rect id="RomanD01_x5F_B_x5E_G22" x="573.4" y="100" class="st2" width="15.4" height="30"/>
<rect id="RomanG23" x="590.8" y="100" class="st2" width="16.6" height="30"/>
<rect id="RomanG24" x="609" y="100" class="st2" width="16.9" height="30"/>
<polygon id="RomanG25" class="st2" points="627.4,100 627.4,130.1 644,130.1 644,103.8 640.4,100.1 "/>
<rect id="RomanG26" x="600.9" y="132" class="st2" width="43.1" height="18.9"/>
<rect id="RomanG27" x="600.9" y="152.7" class="st2" width="43.1" height="16.6"/>
<rect id="RomanG28" x="600.9" y="171.1" class="st2" width="43.1" height="16.9"/>
<rect id="RomanG28_x5F_A" x="600.9" y="189.6" class="st2" width="43.1" height="15"/>
<rect id="RomanG29" x="600.9" y="206.2" class="st2" width="43.1" height="16.9"/>
<rect id="RomanG30" x="585.8" y="224.8" class="st2" width="58.2" height="25.8"/>
<polygon id="RomanG31" class="st2" points="644,252.1 585.8,252.1 585.8,288.4 597.6,288.4 597.6,272.7 644,272.7 "/>
<rect id="RomanG32" x="599.1" y="274.4" class="st2" width="44.9" height="14"/>
<rect id="RomanG33" x="585.8" y="300.2" class="st2" width="58.2" height="15"/>
<polygon id="RomanG34" class="st2" points="644,316.6 644,333 605.4,333 605.4,339.9 585.8,339.9 585.8,316.6 "/>
<rect id="RomanG35" x="606.8" y="334.5" class="st2" width="37.2" height="11.6"/>
<polygon id="RomanG36" class="st2" points="644,347.6 644,366.6 585.8,366.6 585.8,341.4 605.2,341.4 605.2,347.7 "/>
<rect id="RomanG37" x="606.9" y="368.1" class="st2" width="37.2" height="14"/>
<polygon id="RomanG38" class="st2" points="606.9,383.6 606.9,404.2 623.7,404.2 623.7,400.1 644,400.1 644,383.6 "/>
<rect id="RomanG39" x="625.3" y="401.7" class="st2" width="18.7" height="15.8"/>
<rect id="RomanG40" x="625.3" y="419.1" class="st2" width="18.7" height="15.6"/>
<rect id="RomanD03_x5E_G41" x="606.9" y="405.8" class="st2" width="16.9" height="28.9"/>
<rect id="RomanG42" x="585.8" y="368.1" class="st2" width="19.4" height="66.5"/>
<rect id="RomanD05_x5E_G434445_x5E_T04_x5F_05" x="585.8" y="469.3" class="st2" width="58.2" height="27.5"/>
<rect id="RomanG48" x="678.7" y="427.9" class="st2" width="127.4" height="31.3"/>
<rect id="RomanG47" x="678.7" y="460.8" class="st2" width="71.4" height="19"/>
<polygon id="RomanG46" class="st2" points="751.8,460.8 805.3,460.8 805.3,497.1 678.7,497.1 678.7,481.8 751.7,481.8 "/>
<rect id="RomanGF10" x="678.7" y="498.9" class="st2" width="193.7" height="75.1"/>
<rect id="RomanGF11" x="678.7" y="575.6" class="st2" width="193.7" height="55.6"/>
<rect id="RomanGF12" x="678.7" y="633.1" class="st2" width="193.7" height="54.6"/>
<polygon id="RomanG00" class="st2" points="668.2,10.1 872.2,10.1 872.2,418.2 678.7,418.2 678.7,107.6 688.7,107.6 688.7,65 
	678.9,65 678.9,40.1 668.2,40.1 "/>
</svg>
