<?xml version="1.0" encoding="utf-8"?>
<!-- Generator: Adobe Illustrator 26.3.1, SVG Export Plug-In . SVG Version: 6.00 Build 0)  -->
<svg version="1.1" id="Layer_4" xmlns="http://www.w3.org/2000/svg" xmlns:xlink="http://www.w3.org/1999/xlink" x="0px" y="0px"
	 viewBox="0 0 1190.6 841.9" style="enable-background:new 0 0 1190.6 841.9;" xml:space="preserve">
<style type="text/css">
	.st0{fill:#F6F6F6;}
	.st1{fill:none;stroke:#000000;stroke-width:2;stroke-miterlimit:10;}
	.st2{fill:none;stroke:#000000;stroke-miterlimit:10;}
	.st3{display:none;fill:none;stroke:#000000;stroke-miterlimit:10;}
	.st4{font-family:'Axiforma-Bold';}
	.st5{font-size:7.9967px;}
	.st6{font-size:9.1391px;}
	.st7{font-size:15.9934px;}
	.st8{font-size:6.8543px;}
	.st9{font-size:5.7119px;}
	.st10{font-size:4.5696px;}
	.st11{font-size:6px;}
	.st12{enable-background:new    ;}
	.st13{font-size:4px;}
	.st14{fill:#ED7013;}
	.st15{font-size:29.9066px;}
	.st16{fill-rule:evenodd;clip-rule:evenodd;}
	.st17{fill:#2B2522;}
	.st18{font-size:4.2058px;}
	.st19{display:none;fill:#2B2522;enable-background:new    ;}
	.st20{font-size:3.7845px;}
	.st21{fill:#12100B;}
	.st22{fill:none;stroke:#12100B;stroke-miterlimit:10;}
</style>
<g id="cladire">
	<g>
		<polygon class="st0" points="185.5,232.1 185.5,87.7 464.9,87.7 464.9,37.1 491.4,37.1 491.4,8.8 843.1,8.8 843.1,232.1 		"/>
		<path class="st0" d="M838.1,13.8v213.4H190.5V92.7h279.4V42.1h26.5V13.8H838.1 M848.1,3.8h-10H496.4h-10v10v18.4h-16.5h-10v10
			v40.6H190.5h-10v10v134.4v10h10h647.7h10v-10V13.8L848.1,3.8L848.1,3.8z"/>
		<polygon class="st1" points="190.5,92.7 469.9,92.7 469.9,42.1 496.4,42.1 496.4,13.8 838.1,13.8 838.1,227.1 190.5,227.1 		"/>
	</g>
	<g>
		<polygon class="st0" points="580.2,777.9 580.2,760.2 470,760.2 470,658.3 183.9,658.3 183.9,422.3 1063.2,422.3 1177.7,546.2 
			1054.5,654.6 933.4,654.6 933.4,679.6 946.8,728.1 934.4,735.4 962.6,824.7 927.4,836.5 		"/>
		<path class="st0" d="M1061,427.3l109.5,118.5l-117.9,103.8H928.4v30.7l12.6,45.5l-12.6,7.4l27.9,88.4l-29.3,9.8l-341.9-57.7v-18.4
			H475v-102h-286v-226H1061 M1065.4,417.3h-4.4H188.9h-10v10v226v10h10h276v92v10h10h100.2v8.4v8.5l8.3,1.4l341.8,57.7l2.5,0.4
			l2.4-0.8l29.3-9.8l9.3-3.1l-3-9.4l-25.5-80.8l5.7-3.3l6.6-3.9l-2-7.4l-12.2-44.1v-19.3h114.2h3.8l2.8-2.5l117.9-103.8l7.7-6.8
			l-6.9-7.5l-109.5-118.5L1065.4,417.3L1065.4,417.3z"/>
		<polygon class="st1" points="188.9,427.3 1061,427.3 1170.5,545.8 1052.6,649.6 928.4,649.6 928.4,680.3 941,725.7 928.4,733.1 
			956.3,821.5 927,831.4 585.2,773.6 585.2,755.2 475,755.2 475,653.3 188.9,653.3 		"/>
	</g>
</g>
<g id="magazine">
	<line class="st2" x1="265.6" y1="92.7" x2="265.6" y2="227.1"/>
	<line class="st2" x1="302.7" y1="92.7" x2="302.7" y2="227.1"/>
	<line class="st2" x1="377.3" y1="92.7" x2="377.3" y2="227.1"/>
	<polyline class="st2" points="457.1,227.1 457.1,92.7 496.3,92.7 496.3,42.1 	"/>
	<line class="st2" x1="537.3" y1="13.8" x2="537.3" y2="227.1"/>
	<line class="st2" x1="608.3" y1="13.8" x2="608.3" y2="227.1"/>
	<polyline class="st2" points="689.8,227.1 689.8,70.4 760.3,70.4 760.3,13.8 	"/>
	<polyline class="st2" points="739,227.1 739,78.5 768.8,78.5 768.8,13.8 	"/>
	<polyline class="st2" points="278.5,427.2 278.5,590.6 307.8,590.6 307.8,653.2 	"/>
	<polyline class="st2" points="332.4,427.2 332.4,589.4 396.5,589.4 396.5,653.2 	"/>
	<line class="st2" x1="332.4" y1="653.2" x2="332.4" y2="589.4"/>
	<polyline class="st2" points="332.4,533.4 382.6,533.4 382.6,508.3 396.5,508.3 396.5,589.4 	"/>
	<line class="st2" x1="396.5" y1="508.3" x2="396.5" y2="427.2"/>
	<line class="st2" x1="332.4" y1="467.8" x2="396.5" y2="467.8"/>
	<line class="st2" x1="332.4" y1="442.5" x2="396.5" y2="442.5"/>
	<polyline class="st2" points="430.5,427.2 430.5,484.8 437,489.8 560.8,489.8 560.8,427.2 	"/>
	<line class="st2" x1="527.8" y1="427.2" x2="527.8" y2="489.8"/>
	<line class="st2" x1="461.3" y1="427.2" x2="461.3" y2="489.8"/>
	<line class="st2" x1="484" y1="427.2" x2="484" y2="489.8"/>
	<line class="st2" x1="503.1" y1="427.2" x2="503.1" y2="489.8"/>
	<line class="st2" x1="461.3" y1="467.8" x2="430.5" y2="467.8"/>
	<polyline class="st2" points="571.6,427.2 571.6,489.8 782.1,489.8 782.1,427.2 	"/>
	<line class="st2" x1="672.5" y1="427.2" x2="672.5" y2="489.8"/>
	<polyline class="st2" points="654.6,427.2 654.6,448.8 639,448.8 639,489.8 	"/>
	<polyline class="st2" points="571.6,455.8 591.8,455.8 591.8,489.8 	"/>
	<polyline class="st2" points="700.4,427.2 700.4,448.8 700.4,489.8 	"/>
	<polyline class="st2" points="719.7,489.8 719.7,449.3 700.4,449.3 	"/>
	<polyline class="st2" points="782.1,456.8 763.4,456.8 763.4,489.8 	"/>
	<polyline class="st2" points="793.4,427.2 793.4,489.8 959,489.8 965.2,483.4 965.2,427.2 	"/>
	<line class="st2" x1="912.3" y1="427.2" x2="912.3" y2="489.8"/>
	<line class="st2" x1="856.6" y1="427.2" x2="856.6" y2="489.8"/>
	<line class="st2" x1="838.8" y1="427.2" x2="838.8" y2="489.8"/>
	<polyline class="st2" points="838.8,454.4 820.9,454.4 820.9,489.8 	"/>
	<polyline class="st2" points="856.6,439.2 875.9,439.2 875.9,489.8 	"/>
	<polyline class="st2" points="912.3,454.4 931.7,454.4 931.7,489.8 	"/>
	<line class="st2" x1="965.2" y1="458.5" x2="931.7" y2="458.5"/>
	<polyline class="st2" points="1000.2,427.2 1000.2,483.4 1007,489.8 1108,489.8 1115.1,484 	"/>
	<line class="st2" x1="1053.8" y1="427.2" x2="1053.8" y2="489.8"/>
	<polyline class="st2" points="1000.2,449.5 1035.2,449.5 1053.8,449.5 	"/>
	<line class="st2" x1="1035.2" y1="489.8" x2="1035.2" y2="449.5"/>
	<line class="st2" x1="1000.2" y1="472.1" x2="1035.2" y2="472.1"/>
	<line class="st2" x1="476.7" y1="653.2" x2="508.7" y2="653.2"/>
	<line class="st2" x1="508.7" y1="755.2" x2="508.7" y2="523.8"/>
	<line class="st2" x1="451.2" y1="653.2" x2="451.2" y2="523.8"/>
	<line class="st2" x1="996.6" y1="600.8" x2="996.6" y2="649.5"/>
	<line class="st2" x1="1014.8" y1="600.8" x2="1014.8" y2="649.5"/>
	<polyline class="st2" points="332.4,603.8 345.1,603.8 345.1,617.3 396.5,617.3 	"/>
	<polyline class="st2" points="866.2,523.8 866.2,538.2 965.2,538.2 	"/>
	<line class="st2" x1="919.5" y1="523.8" x2="919.5" y2="538.2"/>
	<polyline class="st2" points="908.8,538.2 908.8,597.7 965.2,597.7 	"/>
	<line class="st2" x1="930.2" y1="597.7" x2="930.2" y2="649.5"/>
	<line class="st2" x1="940.7" y1="597.7" x2="940.7" y2="649.5"/>
	<line class="st2" x1="1041.9" y1="600.8" x2="1068.2" y2="637.3"/>
	<line class="st2" x1="1055" y1="588.8" x2="1085.4" y2="622.1"/>
	<line class="st2" x1="1072.3" y1="573" x2="1103.5" y2="606.3"/>
	<polyline class="st2" points="1141.3,573 1110,538.5 1140.1,511 	"/>
	<polyline class="st2" points="1133.6,580.7 1102.3,546.1 1101.7,546.1 1041.9,600.8 965.2,600.8 965.2,531.1 956.7,523.8 
		407.8,523.8 407.8,563.7 407.8,653.2 	"/>
	<line class="st2" x1="1086.9" y1="559.6" x2="1118" y2="592.7"/>
	<rect x="444.7" y="499.5" class="st3" width="25.9" height="15.3"/>
	<rect x="405.9" y="473.4" class="st3" width="15.3" height="25.9"/>
	<rect x="490.8" y="499.5" class="st3" width="25.9" height="15.3"/>
	<rect x="627" y="499.5" class="st3" width="25.9" height="15.3"/>
	<rect x="668.5" y="499.5" class="st3" width="25.9" height="15.3"/>
	<rect x="710.1" y="499.5" class="st3" width="25.9" height="15.3"/>
	<rect x="756.1" y="499.5" class="st3" width="25.9" height="15.3"/>
	<rect x="875.9" y="499.5" class="st3" width="25.9" height="15.3"/>
	<rect x="918.7" y="499.5" class="st3" width="25.9" height="15.3"/>
	<rect x="975" y="450.6" class="st3" width="15.3" height="25.9"/>
	<polyline class="st2" points="508.7,551.3 492.4,551.3 492.4,523.8 	"/>
</g>
<g id="logo">
	<text transform="matrix(0 -1 1 0 492.3576 474.5685)" class="st4 st5">ADERIX</text>
	<text transform="matrix(0 -1 1 0 500.3576 478.049)" class="st4 st5">FASHION</text>
	<text transform="matrix(0 -1 1 0 518.6164 476.6887)" class="st4 st6">CADOR</text>
	<text transform="matrix(0 -1 1 0 543.4484 467.8791)" class="st4 st5">B&amp;B</text>
	<text transform="matrix(0 -1 1 0 551.4484 486.7599)" class="st4 st5">COLLECTION</text>
	<text transform="matrix(0 -1 1 0 290.0119 190.9738)" class="st4 st7">NORIEL</text>
	<text transform="matrix(1 0 0 1 433.5744 478.1207)" class="st4 st8">TALMA</text>
	<text transform="matrix(1 0 0 1 437.6744 484.9707)" class="st4 st8">GSM</text>
	<text transform="matrix(1 0 0 1 946.175 625.941)" class="st4 st9">MESOPOTAMIA</text>
	<text transform="matrix(0 -1 1 0 1007.8635 641.0129)" class="st4 st9">BIG MAMA</text>
	<text transform="matrix(1 0 0 1 934.7795 474.189)" class="st4 st10">KOLUMBAN</text>
	<text transform="matrix(1 0 0 1 939.8495 478.759)" class="st4 st10">OPTIKA</text>
	<text transform="matrix(1 0 0 1 873.8986 533.2672)" class="st4 st9">PLAY AGAIN</text>
	<text transform="matrix(0 -1 1 0 865.5285 475.2629)" class="st4 st9">HYGEA</text>
	<text transform="matrix(0 -1 1 0 871.2385 473.3234)" class="st4 st9">FARM</text>
	<text transform="matrix(0 -1 1 0 810.2707 475.3762)" class="st4 st6">BERTIS</text>
	<text transform="matrix(0 -1 1 0 829.0236 482.2863)" class="st4 st9">TABAC</text>
	<text transform="matrix(0 -1 1 0 834.7336 483.3771)" class="st4 st9">XPRESS</text>
	<text transform="matrix(0 -1 1 0 712.0322 482.8928)" class="st4 st11">KORALL</text>
	<text transform="matrix(0 -1 1 0 582.5432 486.2014)" class="st4 st10">FINE DRINK </text>
	<text transform="matrix(0 -1 1 0 587.1132 480.5422)" class="st4 st10">STORE</text>
	<text transform="matrix(0 -1 1 0 772.099 484.9709)" class="st12"><tspan x="0" y="0" class="st4 st13">AVANGARD</tspan><tspan x="0" y="4.8" class="st4 st13">EXCHANGE</tspan></text>
	<text transform="matrix(1 0 0 1 585.4362 441.9634)" class="st4 st5">BOUTIQUE 17</text>
	<text transform="matrix(0 -1 1 0 665.5412 483.548)" class="st4 st5">RUFARIE</text>
	<text transform="matrix(1 0 0 1 713.3908 442.481)" class="st4 st5">NOBILACASA</text>
	<text transform="matrix(1 0 0 1 918.8937 444.6519)" class="st4 st8">JUBA CAFE</text>
	<text transform="matrix(1 0 0 1 1003.2722 483.358)" class="st4 st8">CUTURA</text>
	<text transform="matrix(1 0 0 1 357.5344 560.2418)" class="st4 st5">BVB</text>
	<text transform="matrix(1 0 0 1 349.9344 568.2418)" class="st4 st5">CASINO</text>
	<text transform="matrix(1 0 0 1 472.8547 584.2701)" class="st4 st5">SEPSI </text>
	<text transform="matrix(1 0 0 1 467.3147 592.2701)" class="st4 st5">H-JUMP</text>
	<text transform="matrix(1 0 0 1 336.8557 454.5298)" class="st4 st5">CAPPUCCINO</text>
	<text transform="matrix(1 0 0 1 353.8357 462.5298)" class="st4 st5">CAFE</text>
	<g>
		<polygon class="st14" points="413.8,403.7 419,400.8 419,404.3 413.8,407.2 408.6,404.3 408.6,400.8 		"/>
		<polygon class="st14" points="413.8,398.9 419,396 419,399.5 413.8,402.4 408.6,399.5 408.6,396 		"/>
		<polygon class="st14" points="413.8,394 419,391.1 419,394.6 413.8,397.6 408.6,394.7 408.6,391.1 		"/>
	</g>
	<g>
		<polygon class="st14" points="981.9,404 987,401 987,404.6 981.9,407.5 976.7,404.6 976.7,401.1 		"/>
		<polygon class="st14" points="981.8,399.1 987,396.2 987,399.8 981.9,402.7 976.7,399.8 976.7,396.2 		"/>
		<polygon class="st14" points="981.8,394.3 987,391.4 987,394.9 981.8,397.9 976.7,395 976.7,391.4 		"/>
	</g>
	<g>
		<g>
			<text transform="matrix(1 0 0 1 626.8449 342.0298)" class="st14 st4 st15">× 514</text>
		</g>
		<g>
			<g transform="translate(-19.000000, -107.000000)">
				<path class="st14" d="M574.5,455.9l1.6-2.4c0.9-1.4,2.5-2.2,4.1-2.2h26c1.7,0,3.2,0.8,4.1,2.2l1.6,2.4c0.8-0.1,1.7-0.3,2.5-0.5
					l10-2.2v-7.7c-0.3,0.1-0.6,0.2-1,0.3c-1.9,0.4-3.5,0.5-5.6,0.5c-1.1,0-2.7-0.1-4-0.3c-1.8-0.3-3.1-0.7-3.7-1.5
					c-2.9,1.1-6,1.5-9.1,1.1c-4.1-0.6-6.7-0.9-7.7-0.9s-3.7,0.3-7.8,0.9c-3.2,0.5-6.4,0-9.4-1.2c0,0-0.1,0-0.1,0.1
					c-1,0.6-2.2,1-3.5,1.3c-1.9,0.4-3.5,0.5-5.6,0.5c-1.1,0-2.7-0.1-4-0.3c-0.3,0-0.6-0.1-0.9-0.2v7.4l10,2.2
					C572.8,455.6,573.6,455.8,574.5,455.9z M578.2,456.2c0.2,0,0.4,0,0.5,0h28.9c0.2,0,0.4,0,0.5,0l-0.6-0.9
					c-0.3-0.5-0.8-0.7-1.4-0.7h-26c-0.5,0-1.1,0.3-1.4,0.7L578.2,456.2z M562,442.5c0.3,0.1,0.8,0.2,1.4,0.3
					c1.1,0.2,2.6,0.3,3.5,0.3c1.8,0,3.3-0.1,4.8-0.5c0.1,0,0.1,0,0.2,0c-3.7-1.5-7-2.4-10-2.7c0,0,0,0.1,0,0.1V442.5z M558.7,443.1
					C558.7,443.1,558.7,443.1,558.7,443.1v-3c0-1.1,0.3-2.2,0.8-3.2l3.2-5.6l-5.9-0.9l0,0c-0.1,0-0.3-0.1-0.4-0.1
					c-0.7-0.3-0.9-1.1-0.6-1.8l0.5-1c0.2-0.4,0.6-0.7,1.1-0.9l0,0l4.3-1.1c0.8-0.2,1.7,0.3,2,1.1l0,0l0.5,1.7l4.5-12.5
					c1.2-3.2,4.3-5.4,7.7-5.4h33.5c3.5,0,6.5,2.2,7.7,5.4l4.4,12.2l0.3-1.3c0.2-0.9,1.1-1.4,2-1.2l4.6,1.1c0.5,0.1,0.8,0.4,1.1,0.8
					l0.5,1c0.3,0.6,0.1,1.5-0.6,1.8c-0.1,0.1-0.3,0.1-0.4,0.1l-5.9,0.9l3.2,5.6c0.5,1,0.8,2.1,0.8,3.2v3c0,0,0,0.1,0,0.1v9.8v6.6
					c0,2.7-2.2,4.9-4.9,4.9h-8.2c-2.7,0-4.9-2.2-4.9-4.9c0,0,0,0,0-0.1c-0.7,0-1.3,0.1-2,0.1h-28.9c-0.7,0-1.3,0-2-0.1
					c0,0,0,0,0,0.1c0,2.7-2.2,4.9-4.9,4.9h-8.2c-2.7,0-4.9-2.2-4.9-4.9v-6.6L558.7,443.1L558.7,443.1z M624.4,442.1v-2
					c0,0,0-0.1,0-0.1c-3.1,0.3-6.5,1.2-10.4,2.9c0.1,0,0.2,0,0.3,0c1.1,0.2,2.6,0.3,3.5,0.3c1.8,0,3.3-0.1,4.8-0.5
					C623.3,442.5,623.8,442.3,624.4,442.1z M563.4,436.7c3.9,0.5,8.3,2,13.1,4.3c2.6,1.3,5.6,1.7,8.5,1.3c4.2-0.6,6.9-0.9,8.2-0.9
					c1.3,0,4,0.3,8.2,0.9c2.9,0.4,5.8,0,8.5-1.3c4.8-2.3,9.2-3.8,13.1-4.3l-2.8-5l-7.4,1.2c-1,0.2-2,0.2-3,0.2h-33.4
					c-1,0-2-0.1-3-0.2l-7.4-1.2L563.4,436.7z M612.8,459.1c0,0.1,0,0.3,0,0.4c0,0.9,0.7,1.6,1.6,1.6h8.2c0.9,0,1.6-0.7,1.6-1.6v-2.9
					l-9.3,2.1C614.3,458.8,613.6,459,612.8,459.1z M573.5,459.1c-0.8-0.1-1.5-0.3-2.3-0.4l-9.3-2.1v2.9c0,0.9,0.7,1.6,1.6,1.6h8.2
					c0.9,0,1.6-0.7,1.6-1.6C573.5,459.4,573.5,459.2,573.5,459.1z M614.5,416.8c-0.7-2-2.6-3.2-4.6-3.2h-33.5
					c-2.1,0-3.9,1.3-4.6,3.2l-4.3,11.9l6.6,1.1c0.8,0.1,1.6,0.2,2.4,0.2h33.4c0.8,0,1.6-0.1,2.4-0.2l6.6-1.1L614.5,416.8z"/>
			</g>
		</g>
	</g>
	<path class="st14" d="M377.3,597.8c0-1-0.8-1.8-1.8-1.8h-12c-1,0-1.8,0.8-1.8,1.8v12c0,1,0.8,1.8,1.8,1.8h12c1,0,1.8-0.8,1.8-1.8
		V597.8z M372.8,598.3c0.5,0,0.9,0.4,0.9,0.9s-0.4,0.9-0.9,0.9s-0.9-0.4-0.9-0.9C371.9,598.7,372.3,598.3,372.8,598.3z M365.8,598.3
		c0.5,0,0.9,0.4,0.9,0.9s-0.4,0.9-0.9,0.9s-0.9-0.4-0.9-0.9C364.9,598.7,365.3,598.3,365.8,598.3z M367.6,600.9l-0.2,3.1
		c0,0.2-0.1,0.4-0.3,0.4l0,0c-0.2,0.1-0.3,0.2-0.3,0.4l-0.2,4c0,0.3-0.2,0.5-0.5,0.5h-0.2h-0.2c-0.3,0-0.5-0.2-0.5-0.5l-0.2-4
		c0-0.2-0.1-0.4-0.3-0.4c-0.2-0.1-0.3-0.2-0.3-0.4l-0.2-3.1c0-0.2,0.1-0.5,0.4-0.5l0.2,0c0.2,0,0.3,0,0.5,0.1l0.4,0.3
		c0.2,0.2,0.5,0.2,0.7,0l0.4-0.3c0.1-0.1,0.3-0.2,0.5-0.1l0.2,0C367.4,600.4,367.6,600.7,367.6,600.9z M369.5,609.3
		c0,0.1-0.1,0.2-0.2,0.2c-0.1,0-0.2-0.1-0.2-0.2v-11c0-0.1,0.1-0.2,0.2-0.2c0.1,0,0.2,0.1,0.2,0.2V609.3z M374.6,604.4
		c-0.2,0-0.3,0.2-0.3,0.4l0.1,0.8c0,0.2-0.1,0.4-0.3,0.4l-0.2,0c-0.2,0-0.3,0.2-0.3,0.3l-0.2,2.5c0,0.3-0.2,0.5-0.5,0.5h-0.2h-0.2
		c-0.3,0-0.5-0.2-0.5-0.5l-0.2-2.5c0-0.2-0.1-0.3-0.3-0.3l-0.2,0c-0.2,0-0.3-0.2-0.3-0.4l0.1-0.8c0-0.2-0.1-0.3-0.3-0.4
		c-0.2,0-0.3-0.2-0.2-0.4l0.7-3.3c0-0.2,0.3-0.3,0.5-0.2l0.6,0.4c0.1,0.1,0.2,0.1,0.4,0l0.6-0.4c0.2-0.1,0.5,0,0.5,0.2l0.7,3.3
		C374.9,604.2,374.8,604.4,374.6,604.4z"/>
	<path class="st14" d="M1147.9,534.3c0-1-0.8-1.8-1.8-1.8h-12c-1,0-1.8,0.8-1.8,1.8v12c0,1,0.8,1.8,1.8,1.8h12c1,0,1.8-0.8,1.8-1.8
		V534.3z M1143.5,534.8c0.5,0,0.9,0.4,0.9,0.9s-0.4,0.9-0.9,0.9s-0.9-0.4-0.9-0.9C1142.6,535.2,1143,534.8,1143.5,534.8z
		 M1136.4,534.8c0.5,0,0.9,0.4,0.9,0.9s-0.4,0.9-0.9,0.9s-0.9-0.4-0.9-0.9S1135.9,534.8,1136.4,534.8z M1138.2,537.4l-0.2,3.1
		c0,0.2-0.1,0.4-0.3,0.4l0,0c-0.2,0.1-0.3,0.2-0.3,0.4l-0.2,4c0,0.3-0.2,0.5-0.5,0.5h-0.2h-0.2c-0.3,0-0.5-0.2-0.5-0.5l-0.2-4
		c0-0.2-0.1-0.4-0.3-0.4c-0.2-0.1-0.3-0.2-0.3-0.4l-0.2-3.1c0-0.2,0.2-0.5,0.4-0.5l0.2,0c0.2,0,0.3,0,0.5,0.1l0.3,0.3
		c0.2,0.2,0.5,0.2,0.7,0l0.4-0.3c0.1-0.1,0.3-0.2,0.5-0.1l0.2,0C1138.1,537,1138.2,537.2,1138.2,537.4z M1140.2,545.8
		c0,0.1-0.1,0.2-0.2,0.2c-0.1,0-0.2-0.1-0.2-0.2v-11c0-0.1,0.1-0.2,0.2-0.2c0.1,0,0.2,0.1,0.2,0.2V545.8z M1145.3,540.9
		c-0.2,0-0.3,0.2-0.3,0.4l0.1,0.8c0,0.2-0.1,0.4-0.3,0.4l-0.2,0c-0.2,0-0.3,0.2-0.3,0.3l-0.2,2.5c0,0.3-0.2,0.5-0.5,0.5h-0.2h-0.2
		c-0.3,0-0.5-0.2-0.5-0.5l-0.2-2.5c0-0.2-0.1-0.3-0.3-0.3l-0.2,0c-0.2,0-0.3-0.2-0.3-0.4l0.1-0.8c0-0.2-0.1-0.3-0.3-0.4
		s-0.3-0.2-0.2-0.4l0.7-3.3c0.1-0.2,0.3-0.3,0.5-0.2l0.7,0.4c0.1,0.1,0.2,0.1,0.4,0l0.7-0.4c0.2-0.1,0.5,0,0.5,0.2l0.7,3.3
		C1145.6,540.7,1145.4,540.9,1145.3,540.9z"/>
	<g>
		<polygon points="631.5,208.9 635.2,200 652.9,189.6 638.5,189.6 640.3,182.2 667.9,182.2 667.9,188.9 647.5,201.1 667.9,201.1 
			667.9,208.9 		"/>
		<polygon points="641.1,178.9 667.9,178.9 667.9,161.7 661.6,161.7 661.6,171.1 657.4,171.1 657.5,163.5 652.6,163.5 652,171.1 
			648.6,171.1 649.4,163.3 643.7,163.3 		"/>
		<polygon points="643.9,161.6 667.9,156.3 667.9,149.6 655.2,145.1 667.9,141.9 667.9,135.4 647.2,129.6 646.9,135.9 657.4,138.9 
			646.3,141.7 645.7,147.9 657.5,152 645,154.4 		"/>
		<polygon points="667.9,122.7 667.9,118.4 647.6,118.4 628.1,105.1 628.1,114.7 641.4,122.7 628.1,130.7 628.1,140.3 647.6,127 
			667.9,127 		"/>
		<path d="M646.3,106.4l0.4,6.5l2.9,3.1h3.3h11.6l3.3-3.2v-6.2l-3.4-3.1h-15.4L646.3,106.4L646.3,106.4z M663.8,108v3.3h-12.5V108
			H663.8L663.8,108z"/>
		<path d="M647.5,88.9l-2.4,2.4l1,10.2h6.2l15.6,0v-5h-8.8v-2.7h8.8v-4.8H658l-1.8,1.6l-1.8-1.6L647.5,88.9L647.5,88.9z M654.5,93.7
			v2.7h-4.8v-2.7H654.5L654.5,93.7z"/>
		<polygon points="644.3,86.3 667.9,86.3 667.9,80.3 658.1,80.3 667.9,75.5 667.9,69.2 654.1,76 641.7,70.1 642.8,76.3 650.8,80.3 
			643.5,80.3 		"/>
		<polygon points="641.5,68.8 638.6,56.3 644.1,56.3 645.5,62 649.6,62 648.8,56.3 655.3,56.3 655.8,62 661.4,62 661.4,56 667.9,56 
			667.9,68.8 		"/>
		<path class="st16" d="M648.4,47.2h-6.5l-1.1-4h7.1L648.4,47.2L648.4,47.2z M667.9,53.7v-6.5h-12.8l-0.2-4h13v-6.9H654l-3.1,2.3
			l-3.4-2.1h-11l-3.4,2.9l4.7,14.3h6.7L667.9,53.7L667.9,53.7z"/>
	</g>
	<g>
		<g>
			<path d="M420,138.5c0.4-0.5,0.5-1.1,0.5-1.8c0-0.7-0.2-1.4-0.5-2c-0.4-0.6-0.8-1.2-1.4-1.6s-1.3-0.7-2.1-0.9
				c-0.6-0.1-1.2,0-1.8,0.2s-1,0.6-1.3,1.2s-0.5,1.1-0.5,1.8c0,0.7,0.2,1.4,0.5,2c0.3,0.6,0.8,1.2,1.3,1.6c0.5,0.4,1.1,0.7,1.8,0.8
				c0.8,0.1,1.5,0.1,2.1-0.2S419.7,139.1,420,138.5z"/>
			<path d="M412.9,183.9c0,0.4-0.1,0.8-0.1,1.2v0.6l3.4,0.5v-0.6c0-0.4,0-0.8-0.1-1.2s-0.2-0.7-0.4-1c-0.2-0.3-0.6-0.5-1.2-0.6
				c-0.6-0.1-1,0-1.2,0.2C413.1,183.3,412.9,183.6,412.9,183.9z"/>
			<path d="M400.7,159.7c0,21.8,7.2,39.4,16,39.4c8.9,0,16-17.6,16-39.4s-7.2-39.4-16-39.4C407.9,120.3,400.7,138,400.7,159.7z
				 M416.5,143.5c-1.4-0.2-2.6-0.8-3.6-1.6s-1.9-1.9-2.5-3.1c-0.6-1.2-0.9-2.5-0.9-3.8c0-1.3,0.3-2.5,0.9-3.5s1.4-1.8,2.5-2.4
				c1-0.5,2.2-0.7,3.6-0.5c1.5,0.2,2.8,0.8,3.9,1.6c1.1,0.8,2,1.8,2.6,3.1s1,2.6,1,4c0,1.5-0.3,2.7-1,3.7s-1.5,1.8-2.6,2.2
				C419.2,143.6,418,143.8,416.5,143.5z M417.9,181.1c0.7,0.9,1.1,2.2,1.1,3.7v2l4.5,0.7v3.5l-13.5-2.1v-5.4c0-1,0.1-1.8,0.5-2.5
				c0.3-0.7,0.8-1.2,1.5-1.5c0.7-0.3,1.5-0.4,2.5-0.2C416,179.5,417.2,180.1,417.9,181.1z M415.2,168.4l3,0.5v6l2.3,0.4V169l3,0.5
				v9.8l-13.5-2.1v-9.8l3,0.5v6.2l2.3,0.4L415.2,168.4L415.2,168.4z M414.4,155.9c1.6,0.3,2.8,0.9,3.5,1.8s1.1,2.2,1.1,3.7v2
				l4.5,0.7v3.5l-13.5-2.1v-5.4c0-1,0.1-1.8,0.5-2.5c0.3-0.7,0.8-1.2,1.5-1.5C412.5,155.8,413.4,155.7,414.4,155.9z M416.8,155.2
				c-0.9-0.1-1.8-0.5-2.7-0.9c-0.9-0.5-1.6-1.1-2.3-1.8c-0.7-0.8-1.2-1.7-1.6-2.6c-0.4-1-0.6-1.9-0.6-2.9c0-1.1,0.2-2.1,0.7-3.1
				l4.2,0.7c-0.5,0.3-0.9,0.7-1.1,1.2c-0.2,0.5-0.4,1.1-0.4,1.7c0,0.7,0.2,1.4,0.5,2c0.3,0.6,0.8,1.1,1.3,1.5
				c0.6,0.4,1.2,0.6,1.9,0.8c1.1,0.2,2,0,2.6-0.6s1-1.4,1-2.5c0-0.6-0.1-1.2-0.4-1.7c-0.2-0.6-0.6-1.1-1-1.5l4.2,0.7
				c0.2,0.6,0.3,1.2,0.5,1.7c0.1,0.5,0.2,1,0.2,1.6c0,0.9-0.2,1.8-0.5,2.6s-0.8,1.5-1.5,2.1c-0.7,0.6-1.5,1.1-2.3,1.3
				C418.7,155.3,417.8,155.4,416.8,155.2z M431.2,149.1c0.9,8,0.7,7.2-0.4,0.1c-2.2-14.1-8-24.9-15-24.9c-2.2,0-4.6,0.9-6.4,3
				c0.8-1.3,1.8-2.8,2.9-3.5c1.3-1,3-1.6,4.5-1.6C423.7,122.3,429.5,134.3,431.2,149.1z"/>
			<path d="M412.9,160.6c0,0.4-0.1,0.8-0.1,1.2v0.6l3.4,0.5v-0.6c0-0.4,0-0.8-0.1-1.2s-0.2-0.7-0.4-1c-0.2-0.3-0.6-0.5-1.2-0.6
				c-0.6-0.1-1,0-1.2,0.2C413.1,159.9,412.9,160.2,412.9,160.6z"/>
		</g>
		<path d="M400.6,179.7c-9.7-46.2,5.9-65.3,16.1-63.1c0.1,0,0.3,0,0.5,0.1c-10.2-6.8-28.6-1.8-24.6,33.8
			C393.4,158.1,396.7,169.5,400.6,179.7"/>
		<path d="M432.8,139.7c9.7,46.2-5.9,65.3-16.1,63.1c-0.1,0-0.3,0-0.5-0.1c10.2,6.8,28.6,1.9,24.6-33.8
			C440,161.3,436.8,150,432.8,139.7"/>
	</g>
	<g>
		<path class="st16" d="M562,629.7c1.8,0,3.1,1.2,3.1,3.1c0,1.7-0.5,3.2-0.5,4.9c0,1.3,0.5,2.7,0.5,4c0,2.2-2.1,3.3-4.1,3.3
			c-2.7,0-3.9-1.2-3.7-3.9c0-1.3,0-2.1-0.9-3.2c-1.1-1.1-2.7-1.5-4.2-1.5c-6.1,0-6.8,6.1-6.8,10.8c0,5.1,0.7,10.6,7,10.6
			c1.3,0,2.9-0.2,3.8-1.1c1.2-1.1,1.2-2.1,1.2-3.6c0-1.2-0.1-2,0.7-3c0.7-1,1.8-1.5,3-1.5c3.1,0,4.6,2.3,4.6,5.3
			c0,7.3-7,10.8-13.6,10.8c-4.5,0-8.7-1.3-11.8-4.7c-3-3.2-4.2-8.6-4.2-12.8c0-3.9,0.8-8.8,3-12.1c2.5-3.8,6.9-5.8,11.3-5.8
			c3.3,0,6.1,1,8.5,3.5C558.7,631,560,629.7,562,629.7L562,629.7z"/>
		<path class="st16" d="M578,644.7c0,2.2-2.1,3.2-4.2,3.2c-2.3,0-4.5-1.7-4.5-4.1c0-5.1,6.9-5.9,10.7-5.9c2.5,0,5.8,0.2,7.9,1.5
			c2.9,1.8,3.1,4.6,3.1,7.6v9.1c0,0.7-0.1,2.3,0.8,2.3c0.5,0,0.8-0.1,1.2-0.1c1.5,0,2.5,1.3,2.5,2.8c0,2.7-2.8,3.8-5,3.8
			s-4.8-0.9-5.6-3.2c-2.3,2.2-5.3,3.2-8.3,3.2c-4.5,0-8.8-2.3-8.8-7.3c0-11.6,15.1-5.6,15.1-12c0-1.9-1.7-2.8-3.2-2.8
			c-0.9,0-1.7,0.1-1.7,1.1V644.7L578,644.7z M582.9,652.9c-1.3,1.6-7,0.8-7,3.5c0,1.7,1.3,2.2,2.8,2.2c2.9,0,4.2-1.7,4.2-4.6V652.9
			L582.9,652.9z"/>
		<path class="st16" d="M601.9,647.9c0-0.7,0.2-3.5-0.9-3.5c-0.4,0-1,0.3-1.7,0.3c-1.6,0-2.1-1.3-2.1-2.8c0-1.9,0.9-3.3,2.5-3.3
			c1.4,0,2.4,0.4,3.3,0.4c1.1,0,2.1-0.4,3.2-0.4c1.4,0,1.5,0.9,1.5,2v3.7c0.9-4,3.9-6.2,8-6.2c3.3,0,6.5,2.6,6.5,6.1
			c0,2.4-1.6,4.8-4.2,4.8c-1.9,0-3.4-1.2-3.4-3.1c0-0.8,0.3-1.3,0.5-2c-5.4-0.3-5.6,7.1-5.6,11c0,0.7-0.2,3.5,0.9,3.5
			c0.4,0,1-0.3,1.6-0.3c1.7,0,2.2,1.2,2.2,2.8c0,1.8-0.9,3.3-2.5,3.3c-2.7-0.1-4.7-0.6-6.7-0.6c-1.8,0-3.7,0.4-5.5,0.6
			c-1.6,0-2.5-1.6-2.5-3.3c0-1.6,0.5-2.8,2.1-2.8c0.7,0,1.2,0.3,1.7,0.3c1.1,0,0.9-2.8,0.9-3.5L601.9,647.9L601.9,647.9z"/>
		<path class="st16" d="M628.7,647.9c0-0.7,0.2-3.5-0.9-3.5c-0.5,0-1,0.3-1.6,0.3c-1.7,0-2.2-1.3-2.2-2.8c0-1.9,0.9-3.3,2.5-3.3
			c1.4,0,2.5,0.4,3.5,0.4s2.1-0.4,3.2-0.4c1.3,0,1.4,0.9,1.4,2v3.7c0.9-4,3.9-6.2,8-6.2c3.5,0,6.5,2.6,6.5,6.1
			c0,2.4-1.6,4.8-4.2,4.8c-1.9,0-3.4-1.2-3.4-3.1c0-0.8,0.3-1.3,0.7-2c-5.6-0.3-5.7,7.1-5.7,11c0,0.7-0.2,3.5,0.9,3.5
			c0.5,0,1-0.3,1.7-0.3c1.6,0,2.1,1.2,2.1,2.8c0,1.8-0.9,3.3-2.5,3.3c-2.7-0.1-4.6-0.6-6.6-0.6c-1.9,0-3.8,0.4-5.6,0.6
			c-1.6,0-2.5-1.6-2.5-3.3c0-1.6,0.6-2.8,2.2-2.8c0.6,0,1.1,0.3,1.6,0.3c1.1,0,0.9-2.8,0.9-3.5V647.9L628.7,647.9z"/>
		<path class="st16" d="M660,652.7c-1,0-2.2-0.3-2.2,1c0,2.8,2.2,4.9,5,4.9c4.2,0,3.9-3.8,7.7-3.8c1.9,0,3.4,1.1,3.4,3
			c0,2.2-1.7,3.9-3.4,5c-2.2,1.4-5,2-7.8,2c-8,0-12.9-5.4-12.9-13.3c0-7.7,4.8-13.6,12.8-13.6c2.9,0,6,0.7,8.2,2.7
			c2.3,2.1,3.6,5.5,3.6,8.6c0,2.8-0.3,3.6-3.2,3.6L660,652.7L660,652.7z M664.6,647.3c0.8,0,1.7,0.3,1.7-0.8c0-0.8-0.5-1.7-1-2.1
			c-0.8-0.7-1.7-0.9-2.7-0.9c-1.3,0-2.3,0.2-3.3,1.2c-0.5,0.4-1.2,1.2-1.2,1.9c0,1,1.5,0.7,2.1,0.7L664.6,647.3L664.6,647.3z"/>
		<path class="st16" d="M687.5,654.9c0,0.7-0.2,3.5,0.9,3.5c0.4,0,0.9-0.3,1.5-0.3c1.7,0,2.1,1.2,2.1,2.8c0,1.8-0.8,3.3-2.9,3.3
			c-2-0.1-4-0.6-6-0.6c-1.9,0-3.7,0.4-5.3,0.6c-1.9,0-2.7-1.6-2.7-3.3c0-1.6,0.5-2.8,2.1-2.8c0.7,0,1.1,0.3,1.7,0.3
			c1,0,0.9-2.8,0.9-3.5v-9c0-1.7,0.1-1.9-1.7-1.9c-1.9,0-3-0.5-3-2.6c0-2,0.8-2.9,2.8-2.9c1.4,0,1.9,0.1,1.9-1.6
			c0.2-5.3,4.8-7.6,9.7-7.6c1.6,0,3.6,0.3,5,1c1.7,0.9,2.9,2.5,2.9,4.3c0,2.2-1.5,3.9-3.7,3.9c-1.6,0-3.3-1.2-3.3-2.9
			c0-0.6,0.2-0.9,0.5-1.3c-0.3-0.2-0.6-0.2-0.9-0.2c-1.9,0-2.4,1.1-2.4,2.8c0,1.6,0.1,1.6,1.7,1.6c2,0,3.5,0.1,3.5,2.7
			c0,2.2-1,2.8-3.1,2.8c-2,0-2-0.1-2,1.9L687.5,654.9L687.5,654.9z"/>
		<path class="st16" d="M718.9,651c0,8.1-4,13.8-12.6,13.8s-13.1-5.1-13.1-13.5s4.6-13.5,13-13.5C714.3,637.9,718.9,643.2,718.9,651
			L718.9,651z M706.3,644.2c-4-0.1-4.9,4-4.9,7.2c0,2.9,0.9,7.2,4.6,7.2c1.7,0,3.1-0.5,3.9-2.1c0.8-1.5,1.1-3.4,1.1-5.1
			C710.9,648.3,710.1,644.1,706.3,644.2L706.3,644.2L706.3,644.2z"/>
		<path class="st16" d="M722.5,647.9c0-0.7,0.1-3.5-0.9-3.5c-0.5,0-1,0.3-1.7,0.3c-1.6,0-2.1-1.3-2.1-2.8c0-1.9,0.8-3.3,4.4-3.3
			c1,0,2,0.4,3.1,0.4s2.2-0.4,3.5-0.4c1.7,0,1.3,1.4,1.3,2.7v11.6c0,1.1,0,2.8,0.5,3.8c0.6,0.9,1.7,1.5,2.7,1.5
			c1.4,0,2.8-0.7,3.6-1.9c1-1.6,1.1-3.2,1.1-5.1v-3.2c0-0.7,0.2-3.5-0.9-3.5c-0.5,0-1,0.3-1.5,0.3c-1.7,0-2.2-1.3-2.2-2.8
			c0-1.9,0.9-3.3,4.2-3.3c1,0,2,0.4,3.1,0.4s2.2-0.4,3.4-0.4c1.7,0,1.6,1.1,1.6,2.3v13.9c0,0.7-0.2,3.5,0.9,3.5c0.4,0,1-0.3,1.7-0.3
			c1.6,0,2.1,1.2,2.1,2.8c0,1.8-0.9,3.3-2.9,3.3c-1.2-0.1-2.3-0.6-3.4-0.6s-2.2,0.4-3.1,0.6c-1.9-0.1-1.8-1.6-1.8-2.6v-1
			c-1.9,2.7-5.3,4.1-8.7,4.1c-2.5,0-5.3-0.9-6.8-3.1c-1.5-2-1.2-4.9-1.2-7.3L722.5,647.9L722.5,647.9z"/>
		<path class="st16" d="M757.1,647.9c0-0.7,0.1-3.5-0.9-3.5c-0.6,0-1,0.3-1.7,0.3c-1.6,0-2.1-1.3-2.1-2.8c0-1.9,0.8-3.3,2.5-3.3
			c1.4,0,2.3,0.4,3.3,0.4c1.1,0,2.1-0.4,3.2-0.4c1.5,0,1.6,0.9,1.6,2v3.7c0.9-4,3.9-6.2,7.9-6.2c3.5,0,6.5,2.6,6.5,6.1
			c0,2.4-1.5,4.8-4.1,4.8c-1.9,0-3.4-1.2-3.4-3.1c0-0.8,0.3-1.3,0.5-2c-5.5-0.3-5.6,7.1-5.6,11c0,0.7-0.2,3.5,0.9,3.5
			c0.5,0,0.9-0.3,1.6-0.3c1.7,0,2.1,1.2,2.1,2.8c0,1.8-0.8,3.3-2.4,3.3c-2.6-0.1-4.6-0.6-6.6-0.6c-1.9,0-3.7,0.4-5.4,0.6
			c-1.7,0-2.5-1.6-2.5-3.3c0-1.6,0.6-2.8,2.1-2.8c0.7,0,1.1,0.3,1.7,0.3c1,0,0.9-2.8,0.9-3.5L757.1,647.9L757.1,647.9z"/>
		<path class="st16" d="M900.3,650.8c0,0.5-0.5,1.1-0.5,1.1l-26.6,26.6c-1,1-1.7,0.3-1.3-0.5c0.7-1.3,1.7-2.7,2.7-6
			c1.3-4.7,1.3-8.6,0.8-10.8c-0.6-2.2-3.2-6.6-8.8-6.6c-7.2,0-9.3,6.7-9.2,9.1c0.1,1.5,0,4.1,2.6,6.3c1.9,1.7,3.8,1,4.2,1
			c0.5-0.1,1.5-0.7,1.5,0.9c0,1.9-1.5,4.1-2.7,5.1c-1,1-4.7,3.9-9.8,3.9c-3.1,0-6.7-1.5-9.3-4.5c-2-2.2-3.2-4.9-4.5-8.6
			c-2.2-6.8-2.7-11.9-2.7-17.2c0-4.8,0.6-10.1,2.7-16.9c1.1-3.6,2.8-6.9,4.5-8.9c2.5-3.1,6.2-4.3,9.3-4.3c5.1,0,8.8,2.8,9.8,3.8
			c1.1,1,2.7,3.2,2.7,5.1c0,1.6-1,1-1.5,0.9c-0.4,0-2.3-0.7-4.2,1c-2.6,2.2-2.4,4.8-2.6,6.5c-0.1,2.3,2,9,9.2,9
			c5.6,0,8.2-4.3,8.8-6.6c0.5-2.2,0.5-6.1-0.8-10.8c-1-3.3-2-4.7-2.7-5.9c-0.3-0.8,0.3-1.6,1.3-0.5l26.6,26.5
			C899.8,649.7,900.3,650.3,900.3,650.8L900.3,650.8z"/>
		<path class="st16" d="M802.4,650.6c0,0.6,0.5,1.1,0.5,1.1l28.5,27.2c0.7,0.7,0.9,0,0.7-0.6c-0.1-0.3-0.2-0.5-1.1-1.9
			c-7.8-11-7.6-25.9-7.6-25.9s-0.2-14.9,7.6-25.9c0.9-1.3,1-1.5,1.1-1.9c0.2-0.5,0-1.2-0.7-0.5l-28.5,27.2
			C802.8,649.5,802.4,650,802.4,650.6L802.4,650.6z"/>
	</g>
	<g>
		<path class="st16" d="M235.3,121.7c1.7-1.5,2.1-4.6,1-7.9l0,0c-0.1-0.4-0.8-0.4-1.8-0.4l-1.4-4.2c-0.2-0.6-0.7-0.9-1.3-0.7
			c-0.6,0.3-0.8,0.8-0.6,1.4l1.4,4c-0.4,0.1-0.8,0.2-1.2,0.3c-0.4,0.1-0.8,0.3-1.2,0.5l-1.4-4.2c-0.2-0.5-0.7-0.8-1.3-0.6
			c-0.5,0.1-0.8,0.8-0.6,1.3l1.4,4.4c-0.9,0.5-1.4,1-1.3,1.3l0,0c1.1,3.3,3.2,5.4,5.5,5.7l0,0c0.2,0,0.4,0.2,0.4,0.4
			c0,0,3.7,17.5,3.7,40.2c-0.1,27.3-5.7,40.1-7.6,46.8c-0.1,0.4-0.1,0.8,0.3,1.1c0.4,0.2,0.8-0.1,1-0.5c0.1-0.2,10.6-17.4,10.6-47.3
			c0-20.7-3.6-33.9-5.7-40.9v0v-0.2C235.1,121.9,235.1,121.8,235.3,121.7L235.3,121.7L235.3,121.7z"/>
		<path class="st16" d="M225.7,173.1l-0.1-0.1l-5-2.2l5.1-0.8V173.1L225.7,173.1z M215.9,169.4c0,2.1,0.4,3.4,2.4,4.3
			c0,0,12.3,6,12.5,6.2v-4.6c0,0-1.9-0.8-1.9-0.8v-5c0,0,1.8-0.2,1.9-0.2v-5.1c-0.2,0-14.4,2.6-14.5,2.6
			C215.9,167.7,215.9,168.5,215.9,169.4L215.9,169.4L215.9,169.4z M219.8,189.7c-0.1,0-3.4-0.5-3.6-0.5c0,0.2,0,6.2,0,6.2
			c0,3.1,1.5,3.9,4.1,4.4c0,0,8.9,1.3,9,1.4c0.1-0.1,1.1-4.3,1.2-4.4c-0.3-0.1-4.4-0.7-4.4-0.7s0-3.4,0-3.6c-0.1,0-3.3-0.5-3.5-0.6
			c0,0.3,0,3.7,0,3.7l-2.7-0.5C219.8,195,219.8,189.9,219.8,189.7L219.8,189.7L219.8,189.7z M216.2,182.9v4.6
			c0.2,0,10.7,1.7,10.7,1.7l1.4,0.1c0.7,0,1.3-0.1,1.7-0.5c0.6-0.4,0.8-1.3,0.8-2.6c0,0,0-4.8,0-4.9c-0.1-0.1-4-0.6-4.3-0.7
			c0,0.2,0,3.9,0,3.9S216.4,182.9,216.2,182.9L216.2,182.9L216.2,182.9z M223.5,122.7c2.4,0.3,3.4,1.9,3.4,3.4
			c0,0.7-0.4,1.3-0.8,1.8c-0.6,0.6-1.6,0.8-2.7,0.7c-2.3-0.3-3.3-1.8-3.3-3.3c0-0.8,0.2-1.4,0.8-1.9
			C221.4,122.8,222.3,122.6,223.5,122.7L223.5,122.7L223.5,122.7z M217.9,119.2c-1.4,1.2-2.1,3.1-2.1,5.5c0,4,2.9,8.4,7.8,8.8h0.8
			c1.8,0,3.4-0.6,4.6-1.6c1.3-1.2,2-3.1,2-5.5c0-0.7-0.1-1.4-0.3-2.1c-2.4-0.9-4.6-3.2-5.7-6.3c-0.6-0.1-1.4-0.3-2-0.4h-0.8
			C220.6,117.6,219,118.2,217.9,119.2L217.9,119.2L217.9,119.2z M219.8,136.6c0-0.7,0.2-1.6,0.3-2.2c-0.1-0.1-3.8-1.1-4-1.1
			c-0.2,0.8-0.2,1.8-0.2,2.4c0,5.9,4.1,9.1,8,9.7c2.2,0.3,3.9,0,5.2-1.1c1.3-1,1.9-2.9,1.9-5.3c0-1.1-0.2-2.4-0.4-3.5
			c-0.2,0-3.9-0.2-4.1-0.3c0.3,0.7,0.4,1.4,0.4,2.2c0,0.9-0.4,1.8-1,2.3c-0.6,0.6-1.5,0.8-2.5,0.6
			C220.9,139.9,219.8,138.1,219.8,136.6L219.8,136.6L219.8,136.6z M221.6,151.2c1,0.1,2.1,0.2,2.1,0.2l1.3,0.2l-1.9,0.6
			c-1.3,0.4-4.3,1.4-6.9,1.8v6.6c0.2,0,14.3,2.3,14.5,2.3v-4.4c-0.1,0-5.1-0.9-6.1-1c-1.1-0.2-3-0.4-3-0.4s1.8-0.5,2.4-0.7
			c0.7-0.1,3.2-0.9,3.9-1.1c2.8-0.9,3.2-2.2,3.2-4.7c0-0.9-0.1-1.7-0.4-2.5c0,0-14.3-2.3-14.5-2.3v4.4
			C216.4,150.3,220.6,151,221.6,151.2L221.6,151.2L221.6,151.2z"/>
	</g>
	<g>
		<path d="M585.6,142.1c2.3,3.9,3.4,8.2,3.4,12.9c0,5.4-1.6,9.7-4.7,13c-3.3,3.5-7.5,5.2-12.6,5.2c-5.2,0-9.4-1.7-12.6-5.2
			c-3.2-3.4-4.8-8.1-4.8-13.9c0-4.1,0.9-8,2.8-11.8h7.9c-2.4,3.7-3.6,7.4-3.6,11.2c0,3.4,0.9,6.1,2.8,8s4.4,2.9,7.6,2.9
			c3.1,0,5.6-0.9,7.5-2.8c1.9-1.9,2.9-4.4,2.9-7.5c0-4-1.4-8.1-4.2-12.1L585.6,142.1L585.6,142.1z"/>
		<path d="M585.6,72c2.3,3.9,3.4,8.2,3.4,12.8c0,5.4-1.6,9.7-4.7,13c-3.3,3.5-7.5,5.2-12.6,5.2c-5.2,0-9.4-1.7-12.6-5.2
			c-3.2-3.4-4.8-8.1-4.8-13.8c0-4.1,0.9-8,2.8-11.8h7.9c-2.4,3.7-3.6,7.4-3.6,11.2c0,3.4,0.9,6.1,2.8,8c1.9,1.9,4.4,2.9,7.6,2.9
			c3.1,0,5.6-0.9,7.5-2.8c1.9-1.9,2.9-4.4,2.9-7.5c0-4-1.4-8.1-4.2-12.1L585.6,72L585.6,72z"/>
		<path d="M585.6,107.1c2.3,3.9,3.4,8.2,3.4,12.8c0,5.4-1.6,9.7-4.7,13c-3.3,3.5-7.5,5.2-12.6,5.2c-5.2,0-9.4-1.7-12.6-5.2
			c-3.2-3.4-4.8-8.1-4.8-13.8c0-4,0.9-8,2.8-11.7h7.9c-2.4,3.7-3.6,7.4-3.6,11.2c0,3.4,0.9,6.1,2.8,8c1.9,1.9,4.4,2.9,7.6,2.9
			c3.1,0,5.6-0.9,7.5-2.8c1.9-1.9,2.9-4.4,2.9-7.5c0-4-1.4-8.1-4.2-12.1L585.6,107.1L585.6,107.1z"/>
	</g>
	<g>
		<path d="M929.3,562.3h-0.8l-0.2,0.7c0.4,0,1,0.4,0.5,0.8c-0.1,0-4.7,3.6-4.7,3.6l1-3.6c0.2-0.7,1-0.8,1-0.8l0.2-0.7h-5.6l-0.2,0.7
			c0.3,0.1,1,0.2,0.8,1.2c-1.9,6.7-1.6,6-1.8,6.4c-0.5,1.9-1.3,1.8-1.6,1.9l-0.2,0.7l0,0h0h5.8l0.2-0.8c0,0-0.9-0.2-0.8-0.8
			s0.9-3.3,0.9-3.3c2.6,4.1,3.2,4.8,5.5,5c0.8,0,1.7,0,3,0l0.2-0.8c-0.7,0-1.2-0.5-1.5-0.8c-0.2-0.2-0.9-1.3-1.6-2.4
			c-0.6-1-1.2-1.9-1.2-1.9l1.2-1l3.5-2.8c0.8-0.7,1.3-0.6,1.3-0.6l0.2-0.7L929.3,562.3z"/>
		<path d="M952.8,562.2c-0.6,0-1.2,0-1.8,0.1c-4.7,0.5-7.5,3.5-7.5,6.4c0,2.5,2,4.8,6.6,4.8c0.3,0,0.6,0,0.8,0
			c1.1-0.1,2.1-0.2,3-0.4l0.5-2.3c-0.9,0.3-2,0.5-2.9,0.5c-0.2,0-0.4,0-0.6,0c-2.1-0.2-3.5-1.6-3.5-3.3c0-1.8,1.3-3.2,3.5-3.6
			c0.4-0.1,0.8-0.1,1.2-0.1c1.4,0,2.1,0.5,2.6,1.1h0.4l0.8-2.7C955.2,562.4,954.1,562.2,952.8,562.2z"/>
		<path d="M940.6,562.3h-5.5l-0.2,0.7c0,0,1.1,0.1,0.8,1.2l-2.5,9l5,0l0.2-0.8c0,0-0.9-0.2-0.7-1.1c0-0.1,0.7-2.7,0.7-2.7h2.2h0.1
			c1.1,0,1.5,0.6,1.5,0.6l0.7-2.7h-2.3H939l0.6-2.1h1h2.3c0.6,0,1,0.4,1,0.7h0.4l0.7-2.9H940.6z"/>
	</g>
	<g>
		<rect x="788.8" y="98.7" width="23.2" height="5.8"/>
		<polygon points="789,125.8 812,133.2 812,139.7 796.6,144.6 812,149.6 812,156 789,163.4 789,157.5 803.5,152.8 789,148.1 
			789,141.1 803.5,136.4 789,131.8 		"/>
		<polygon points="788.8,208.7 788.8,202.9 806.9,202.9 806.9,192.2 812,192.2 812,202.9 812,208.7 806.9,208.7 		"/>
		<polygon points="801.3,89.7 812,89.7 812,95.5 788.8,95.5 788.8,89.7 797.7,89.7 788.8,83 788.8,75.4 799.5,83.5 812,74.3 
			812,81.8 		"/>
		<rect x="788.8" y="67.7" width="23.2" height="5.8"/>
		<polygon points="801.3,59 812,59 812,64.8 788.8,64.8 788.8,59 797.7,59 788.8,52.2 788.8,44.7 799.5,52.8 812,43.6 812,51.1 		
			"/>
		<rect x="788.8" y="36.5" width="23.2" height="5.8"/>
		<path class="st16" d="M799.3,192.5c-6.1,0-11-4.9-11-11v-2.8c0-5,3.3-9.2,7.8-10.6v6c-2.1,1.1-3.5,3.3-3.5,5.8v0.1
			c0,3.6,3,6.6,6.6,6.6h2.4c3.7,0,6.6-3,6.6-6.6v-0.1c0-2.5-1.4-4.7-3.5-5.8v-6c4.5,1.4,7.8,5.6,7.8,10.6v2.8c0,6.1-4.9,11-11,11
			H799.3z"/>
		<path class="st16" d="M790.1,125.3c0,0-4.1-8.3-0.1-15c0,0,2.1-3.3,8.1-3.2l14-0.1v5.3h-10.7c0,0-0.8,9.2,3.3,9.4s3.6-3.6,3.6-3.6
			s-0.4-3.2-2.5-4.4h4.5c0,0,2.7,2.7,2.4,6.7c-0.3,4-3.2,6.2-3.2,6.2s-2.5,2.1-6.7,0.7c-4.2-1.4-4.8-6.7-4.8-6.7s-0.4-2.1-0.3-7.5
			c0,0-3.6-0.4-4.4,1.9c-0.7,2.4-0.2,5.9-0.2,5.9s0.8,3.2,2.6,5.7L790.1,125.3z"/>
	</g>
	<g>
		<path class="st16" d="M381.5,485.6c0.3,0,0.5,0,0.7,0.1c0.2,0.2,0.5,0.7,0.6,1c0.5,0.8,0.9,1.5,1.4,2.3c0.1,0.2,0.5,1,0.7,1
			c0.3,0.1,0.7-0.7,0.8-0.9c0.5-0.7,1-1.4,1.4-2.2c0.2-0.5,0.4-0.8,0-1.2v0c0.8,0,1.6,0,2.5,0c0,0,0,0,0,0c-0.3,0.1-0.7,0.7-0.9,1
			c-0.6,0.8-1.3,1.6-1.9,2.4c-0.6,0.8-1.2,1.5-1.8,2.2c-1.5,1.9-3.1,3.7-5.2,5c-0.3,0.2-0.6,0.3-1,0.4c-1.3,0.4-2.6,0.5-4,0.2
			c-0.2,0-0.4-0.1-0.5-0.3c-0.2-0.3,0.1-0.4,0.4-0.4c1.4,0,2.6,0,3.9-0.4c0.7-0.2,1.3-0.5,1.9-0.9c1.2-0.7,2.8-2.3,3.1-3.8
			c0.1-0.5-0.6-1.3-0.8-1.6c-0.5-0.7-0.9-1.5-1.3-2.2c-0.3-0.4-0.6-0.7-0.8-1.1c-0.2-0.2-0.5-0.4-0.7-0.6v0
			C380.3,485.6,380.9,485.6,381.5,485.6L381.5,485.6z M345.1,485.5c1.6,0.1,3,0.5,3.7,1.4c0.4,0.5,0.8,1.3,0.4,2.2
			c-0.2,0.5-0.5,0.9-0.9,1.1c-0.4,0.3-0.9,0.6-1.5,0.8c-2.4,0.8-6.7,0.7-8-0.9c-0.2-0.2-0.3-0.5-0.4-0.7c-0.2-0.6,0-1.4,0.2-1.8
			c0.5-0.9,1.4-1.3,2.5-1.6C342.5,485.5,343.9,485.4,345.1,485.5L345.1,485.5z M341.9,486.2c-0.5,0.2-0.9,0.5-1.1,1
			c-0.3,0.7-0.2,1.5,0.1,2.2c0.4,0.9,1.2,1.3,2.2,1.5c1.2,0.3,2.7,0,3.4-0.5c0.8-0.6,1-2,0.4-3c-0.5-0.9-1.5-1.3-2.8-1.4
			C343.3,485.9,342.6,485.9,341.9,486.2L341.9,486.2z M356.6,485.5c0.4,0,0.7,0,1,0.1c0.2,0.1,0.5,0.2,0.3,0.4
			c-0.1,0.3-0.7,0.3-1.1,0.2c-0.7-0.1-1.8-0.5-2.4-0.1c-0.4,0.3-0.4,1-0.4,1.7c0,0.5,0,1.1,0,1.6c0,0.4,0,0.9,0.1,1.2
			c0.1,0.3,0.2,0.4,0.4,0.6c-0.9,0-1.9,0-2.8,0v0c0,0,0,0,0,0c0.4-0.2,0.4-0.9,0.4-1.4c0-0.7,0-1.5,0-2.2c0-0.4,0-0.8,0.1-1.1
			c0.2-0.5,0.6-0.7,1.2-0.8C354.3,485.5,355.5,485.5,356.6,485.5L356.6,485.5z M365.2,485.6c0.3,0,0.6,0.1,0.8,0.1
			c0,0.2,0,0.7-0.1,0.9c-0.3-0.2-0.6-0.4-1-0.5c-0.6-0.2-1.8-0.3-2.6-0.1c-0.4,0.1-1.1,0.2-1,0.8c0.1,0.5,0.6,0.7,1.1,0.9
			c1.1,0.4,2.4,0.6,3.4,1.1c0.6,0.3,1.2,0.9,0.6,1.6c-0.5,0.6-1.5,0.8-2.5,1c-1.6,0.3-3.1,0.1-4.7-0.1c-0.1,0-0.3,0-0.3-0.1
			c-0.1-0.1,0-0.9,0.1-1c0.4,0.2,0.6,0.5,1.1,0.7c0.8,0.3,2.2,0.5,3.2,0.2c0.5-0.1,1.4-0.4,1.3-1.1c-0.1-0.6-0.9-0.8-1.4-1
			c-1.1-0.4-3-0.6-3.6-1.5c-0.2-0.4-0.1-0.8,0.1-1.1c0.4-0.4,1-0.5,1.6-0.6c1.1-0.2,2.3-0.2,3.4-0.1
			C364.9,485.5,365,485.6,365.2,485.6L365.2,485.6z M375.3,485.5c0.9,0,2.1,0,3,0.3c0,1.1,0,2.2,0,3.2c0,0.5-0.1,1.2,0.1,1.6
			c0.1,0.2,0.1,0.3,0.2,0.5c0,0,0.1,0.1,0.1,0.1c-0.8,0-1.5,0.1-2.3,0.1c0,0,0,0,0,0c-0.1-0.2,0-0.4-0.1-0.5
			c-0.2-0.1-0.5,0.1-0.6,0.2c-1.2,0.5-3,0.6-4.2,0.3c-1.4-0.3-2.5-0.8-3-2c-0.3-0.7,0-1.5,0.3-2c0.6-0.8,1.5-1.2,2.6-1.5
			C372.7,485.6,374,485.5,375.3,485.5L375.3,485.5z M372.4,486.2c-0.9,0.3-1.7,0.7-2,1.6c-0.1,0.3-0.1,0.7,0,1
			c0,0.2,0.1,0.4,0.2,0.5c0.2,0.3,0.4,0.5,0.7,0.7c0.3,0.2,0.7,0.4,1.1,0.5c1.2,0.4,3.5,0.4,3.9-0.7c0.1-0.2,0.1-0.6,0.1-0.9
			c0-0.7,0.1-2.4-0.1-2.7c-0.2-0.2-0.6-0.3-1.1-0.4C374.2,485.9,373.3,486,372.4,486.2L372.4,486.2z"/>
	</g>
	<g id="g10_1_" transform="matrix(1.25,0,0,-1.25,0,172)">
		<g id="g12_1_" transform="matrix(0.9991569,0,0,0.99581555,-1938.4245,-1808.7215)">
			<path id="path14_1_" d="M2131.2,1488.8c1.4,0,2.7-0.4,3.8-1.1c2.2-1.5,3.3-4.2,3.3-7.9c0-2.6-0.6-4.8-1.8-6.6
				c-1.3-2-3.1-3.1-5.3-3.1v5.5c1,0,1.8,0.4,2.3,1.3c0.5,0.8,0.7,1.7,0.7,2.8c0,1-0.2,1.8-0.6,2.6c-0.4,0.7-0.9,1.1-1.6,1.1
				c-0.8,0-1.5-1.1-2-3.2c-0.7-3.2-1.3-5.2-1.7-6.1c-1-2.2-2.6-3.2-4.8-3.2c-1.3,0-2.4,0.3-3.4,0.9c-1,0.6-1.9,1.6-2.5,3.1
				c-0.6,1.4-0.9,3-0.9,4.7c0,2.3,0.5,4.2,1.6,5.8c1.2,1.8,2.9,2.7,5.2,2.9v-5.3c-1.8-0.3-2.7-1.5-2.7-3.6c0-0.9,0.2-1.6,0.6-2.2
				c0.4-0.6,0.9-1,1.4-1c0.8,0,1.4,1.1,1.9,3.3c0.7,3.2,1.3,5.2,1.7,6.2C2127.5,1487.7,2129.1,1488.8,2131.2,1488.8z"/>
			<path id="path16_1_" d="M2137.6,1515.5v-5.4h-12.2c-1.4,0-2.4-0.2-3-0.7c-0.7-0.5-1-1.5-1-2.9c0-2.8,1.6-4.2,4.7-4.2h11.6v-5.4
				h-20.2v5.2h1.9c0.7,0,1.1,0,1.1,0c0,0,0,0,0,0c-1.1,0.6-2,1.5-2.6,2.7c-0.6,1.2-0.9,2.4-0.9,3.8c0,2.7,1.1,4.7,3.1,5.9
				c1,0.6,2.2,0.8,3.6,0.8L2137.6,1515.5L2137.6,1515.5z"/>
			<path id="path18_1_" d="M2131.2,1535.5c1.4,0,2.7-0.4,3.8-1.1c2.2-1.5,3.3-4.2,3.3-7.9c0-2.6-0.6-4.8-1.8-6.6
				c-1.3-2-3.1-3.1-5.3-3.1v5.5c1,0,1.8,0.4,2.3,1.3c0.5,0.8,0.7,1.7,0.7,2.8c0,1-0.2,1.8-0.6,2.6c-0.4,0.7-0.9,1.1-1.6,1.1
				c-0.8,0-1.5-1.1-2-3.2c-0.7-3.2-1.3-5.2-1.7-6.1c-1-2.2-2.6-3.2-4.8-3.2c-1.3,0-2.4,0.3-3.4,0.9c-1,0.6-1.9,1.6-2.5,3.1
				c-0.6,1.4-0.9,3-0.9,4.7c0,2.3,0.5,4.2,1.6,5.8c1.2,1.8,2.9,2.7,5.2,2.9v-5.3c-1.8-0.3-2.7-1.5-2.7-3.6c0-0.9,0.2-1.6,0.6-2.2
				c0.4-0.6,0.9-1,1.4-1c0.8,0,1.4,1.1,1.9,3.3c0.7,3.2,1.3,5.2,1.7,6.2C2127.5,1534.4,2129.1,1535.5,2131.2,1535.5z"/>
			<path id="path20_1_" d="M2127.7,1549.2c0.4-0.5,0.8-1.5,1-2.8c0.3-1.5,0.6-2.5,0.8-3c0.5-0.9,1.3-1.4,2.5-1.4
				c1.5,0,2.3,0.8,2.3,2.4c0,0.7-0.2,1.5-0.5,2.3c-0.4,0.8-0.8,1.4-1.2,1.8c-0.7,0.5-1.6,0.8-2.9,0.8c-0.2,0-0.6,0-1,0
				C2128.3,1549.2,2127.9,1549.2,2127.7,1549.2L2127.7,1549.2z M2137.6,1554.9v-5c-0.3-0.2-0.8-0.3-1.6-0.5c1.4-1.2,2.1-3.2,2.1-6
				c0-1.9-0.4-3.4-1.3-4.7c-1-1.4-2.5-2.1-4.4-2.1c-2.8,0-4.6,1.1-5.7,3.2c-0.5,1-0.9,3-1.3,6.1c-0.3,2.2-0.9,3.2-1.8,3.2
				c-0.8,0-1.4-0.3-1.9-1c-0.5-0.6-0.7-1.4-0.7-2.2c0-0.9,0.2-1.7,0.7-2.3c0.4-0.6,1-1,1.8-1.2v-5.2c-1.4,0.2-2.6,0.6-3.5,1.2
				c-1,0.7-1.8,1.7-2.4,3.2c-0.5,1.3-0.8,2.9-0.8,4.6c0.1,5.8,2.8,8.7,8.2,8.7H2137.6L2137.6,1554.9z"/>
			<path id="path22_1_" d="M2114.8,1495.4v-5.4h-5.4v5.4H2114.8z"/>
			<path id="path24_1_" d="M2137.6,1495.4v-5.4h-10.1v5.4H2137.6z"/>
			<path id="path26_1_" d="M2138.7,1574.8c2.7,0,4.8-1,6.4-2.9c1.4-1.8,2.2-3.9,2.2-6.4c0-2.4-0.7-4.5-2.1-6.2
				c-1.6-1.9-3.8-2.8-6.5-2.8v5c1.3,0,2.3,0.4,3,1.2c0.7,0.7,1,1.5,1,2.5c0,1.1-0.4,2.1-1.1,2.9c-0.9,0.9-2,1.3-3.4,1.3h-3.1
				c0.9-0.4,1.6-1.1,2.1-2.1c0.5-1,0.8-2.1,0.8-3.4c0-2-0.6-3.7-1.7-5.1c-1.3-1.6-3.2-2.4-5.5-2.4h-13.3v5.4h12.5
				c2.5,0,3.8,1.2,3.8,3.4c0,1.2-0.4,2.2-1.1,3c-0.7,0.8-1.6,1.2-2.7,1.2h-12.5v5.3L2138.7,1574.8L2138.7,1574.8z"/>
		</g>
	</g>
	<g>
		<polygon class="st16" points="849.2,480.6 846.5,479.3 846.5,477.1 851.9,480 851.9,481.2 846.5,484 846.5,481.9 		"/>
		<path class="st16" d="M848,467.3c0-0.8,0.6-1.2,1.2-1.2c0.7,0,1.2,0.5,1.2,1.2c0,0.8-0.5,1.2-1.2,1.2
			C848.5,468.5,848,468,848,467.3L848,467.3z M851.9,466.1v-1.9h-8.7v1.9h3.8c-0.5,0.4-0.7,1-0.7,1.7c0,1.6,1.3,2.7,2.9,2.7
			s2.9-1.1,2.9-2.7c0-0.6-0.2-1.3-0.8-1.6v0L851.9,466.1L851.9,466.1z"/>
		<path class="st16" d="M848,460.4c0-0.8,0.6-1.2,1.2-1.2c0.7,0,1.2,0.5,1.2,1.2c0,0.8-0.5,1.2-1.2,1.2
			C848.5,461.6,848,461.2,848,460.4L848,460.4z M846.5,457.4v1.9h0.5c-0.5,0.4-0.7,1-0.7,1.7c0,1.6,1.3,2.7,2.9,2.7s2.9-1.1,2.9-2.7
			c0-0.6-0.2-1.3-0.8-1.6v0h0.6v-1.9L846.5,457.4L846.5,457.4z"/>
		<path class="st16" d="M851.9,454.2v1.9h-3.8v0.7h-1.6v-0.7h-0.7c-0.8,0-1.3,0-1.9-0.5c-0.6-0.5-0.9-1.1-0.9-1.9
			c0-0.3,0-0.6,0.2-0.8h1.6c-0.1,0.2-0.2,0.4-0.2,0.7c0,0.5,0.3,0.7,0.9,0.7h0.9v-1.3h1.6v1.3L851.9,454.2L851.9,454.2z"/>
		<path class="st16" d="M847.2,443.8L847.2,443.8c-0.7-0.5-0.9-1-0.9-1.7c0-1.5,0.9-2,2.2-2h3.3v1.9h-2.6c-0.5,0-1.4-0.1-1.4,0.9
			c0,0.8,0.6,1,1.2,1h2.8v1.9h-5.4v-1.9L847.2,443.8L847.2,443.8z"/>
		<path class="st16" d="M848.4,437.5c-0.5-0.1-0.8-0.6-0.8-1.1c0-0.5,0.3-1,0.8-1.1V437.5L848.4,437.5z M849.3,433.5
			c-1.8,0-3,1.1-3,2.9c0,1.8,1.1,3,2.9,3c1.8,0,2.9-1.3,2.9-3.1c0-1.2-0.6-2.4-1.8-2.7v1.8c0.4,0.2,0.5,0.5,0.5,0.9
			c0,0.8-0.4,1.2-1.2,1.2v-4L849.3,433.5L849.3,433.5z"/>
		<path class="st16" d="M849.3,471.2c1.7,0,3,1.4,3,3s-1.3,3-3,3c-1.7,0-3-1.4-3-3S847.7,471.2,849.3,471.2L849.3,471.2z
			 M849.3,475.9c0.9,0,1.7-0.8,1.7-1.7s-0.8-1.7-1.7-1.7s-1.7,0.8-1.7,1.7c-0.8-0.3-1.2-0.9-1.2-0.9c0,1.3,1,2.3,2.4,2.6
			C848.9,475.9,849.3,475.9,849.3,475.9L849.3,475.9z"/>
		<path class="st16" d="M849.1,452.4c-1.7,0-3-1.4-3-3s1.3-3,3-3c1.7,0,3,1.4,3,3S850.8,452.4,849.1,452.4L849.1,452.4z
			 M849.1,447.7c-0.9,0-1.7,0.8-1.7,1.7s0.8,1.7,1.7,1.7s1.7-0.8,1.7-1.7c0.8,0.3,1.2,0.9,1.2,0.9c0-1.3-1-2.3-2.4-2.6
			C849.5,447.7,849.1,447.7,849.1,447.7L849.1,447.7z"/>
	</g>
	<g>
		<path d="M508.5,184.8c-0.1,1.4-0.1,2.7-0.2,4c-0.2,1.6-0.7,2.2-2.3,2.3c-1.6,0.1-3.3,0.1-5,0c-1.3-0.1-2-0.9-2-2.2
			c0-2.6-0.1-5.2,0-7.9c0-1.4,0.8-2.2,2.2-2.3c1.7-0.1,3.4-0.1,5,0c1.2,0.1,2,0.8,2.1,2.1C508.4,182.1,508.4,183.5,508.5,184.8z
			 M505.9,184.9C505.9,184.9,505.9,184.9,505.9,184.9c0-0.7,0-1.4-0.1-2.1c0-0.9-0.4-1.3-1-1.3c-0.8,0-1.5,0-2.2,0
			c-0.8,0.1-1.1,0.4-1.1,1.2c0,1.5,0,3,0,4.5c0,0.7,0.3,1,1,1c0.8,0,1.5,0,2.2,0c0.7,0,1-0.2,1-0.9
			C505.9,186.5,505.9,185.7,505.9,184.9z"/>
		<path d="M502.1,204.3c0,0.8,0,1.6,0,2.4c0,0.1-0.2,0.3-0.3,0.3c-0.4,0.1-0.6,0.3-0.6,0.7c0,1.3,0,2.6,0,3.9c0,0.2,0.2,0.5,0.3,0.6
			c0.4,0.2,0.8-0.1,0.8-0.6c0.1-1.5,0.1-3,0.2-4.5c0-0.5,0.1-0.9,0.1-1.4c0.2-1.1,0.8-1.8,1.9-1.9c0.7-0.1,1.4,0,2.1,0.1
			c0.9,0.1,1.5,0.8,1.6,1.7c0.1,1.7,0.1,3.4,0.2,5.1c0,0.8,0,1.7-0.2,2.5c-0.2,1.5-1.4,2.3-2.8,1.9c-0.1,0-0.3-0.2-0.3-0.4
			c0-0.7,0-1.4,0-2.1c0-0.1,0.2-0.3,0.3-0.4c0.5-0.1,0.7-0.4,0.7-0.9c0-1.3,0-2.6,0-4c0-0.4-0.1-0.8-0.6-0.8s-0.6,0.3-0.6,0.7
			c-0.1,1.4-0.1,2.8-0.2,4.2c0,0.6,0,1.1-0.1,1.7c-0.1,1-0.7,1.7-1.6,1.8c-0.7,0.1-1.4,0.1-2.1,0c-1-0.1-1.7-0.8-1.8-1.8
			c-0.2-2.4-0.3-4.8,0-7.2C499.2,204.9,500,203.9,502.1,204.3z"/>
		<path d="M501.9,139c0,0.8,0,1.6,0,2.4c0,0.1-0.2,0.3-0.3,0.3c-0.4,0-0.6,0.3-0.6,0.7c0,1.3,0,2.6,0,3.9c0,0.2,0.1,0.5,0.3,0.6
			c0.4,0.3,0.8,0,0.8-0.6c0.1-1.5,0.1-3.1,0.2-4.6c0-0.5,0.1-1,0.1-1.4c0.2-1,0.8-1.6,1.7-1.7c0.7-0.1,1.5-0.1,2.2,0.1
			c1,0.2,1.6,0.8,1.7,1.8c0.1,1.7,0.1,3.3,0.2,5c0,0.8,0,1.6-0.2,2.5c-0.2,1.7-1.2,2.1-2.8,2c-0.1,0-0.3-0.2-0.3-0.4
			c0-0.7,0-1.4,0-2.1c0-0.1,0.2-0.4,0.4-0.4c0.4-0.1,0.6-0.3,0.6-0.8c0-1.4,0-2.7,0-4.1c0-0.4-0.1-0.8-0.6-0.8
			c-0.6,0-0.6,0.4-0.7,0.8c-0.1,1.5-0.1,2.9-0.2,4.4c0,0.5,0,1-0.1,1.5c-0.1,1-0.7,1.6-1.6,1.7c-0.7,0.1-1.5,0.1-2.2,0
			c-1-0.1-1.6-0.8-1.7-1.7c-0.3-2.4-0.4-4.9,0-7.4C499.2,139.1,500.4,138.5,501.9,139z"/>
		<path d="M508.3,166.1c0,0.9,0,1.7,0,2.5c0,0.4-0.2,0.5-0.5,0.5c-0.2,0-0.5,0-0.7,0c-0.8,0-1.1,0.2-1.1,0.9c0,1.5,0,3.1,0,4.6
			c0.8,0,1.5,0,2.3,0c0,0.9,0,1.8,0,2.6c0,0.4-0.3,0.3-0.5,0.3c-1.5,0-3.1,0-4.6,0c-1.2,0-2.4,0-3.6,0c-0.4,0-0.5-0.1-0.5-0.5
			c0-2.9,0-5.8,0-8.7c0-1.6,0.8-2.3,2.4-2.4c0.5,0,1.1,0,1.7,0c0.8,0,1.3,0.4,1.6,1.2c0.3-1,1.1-1.1,1.9-1.1
			C507.1,166.1,507.6,166.1,508.3,166.1z M501.5,174.6c0.7,0,1.4,0,2,0c0-1.7,0-3.4,0-5.1c0-0.6-0.6-0.5-1-0.5c-0.4,0-0.9,0-1,0.6
			C501.4,171.2,501.4,172.9,501.5,174.6z"/>
		<path d="M506.1,200.1c0.8,0,1.5,0,2.2,0c0,0.9,0,1.8,0,2.6c0,0.1-0.3,0.3-0.5,0.3c-1.9,0-3.8,0-5.8,0c-0.9,0-1.7,0-2.5,0
			c-0.3,0-0.5-0.1-0.5-0.4c0-2.8,0-5.6,0.1-8.4c0-1.4,0.8-2.1,2.2-2.3c0.9-0.1,1.9,0,2.8,0.1c1.1,0.1,1.7,0.8,1.9,1.9
			c0.1,0.9,0.1,1.8,0.1,2.7C506.1,197.8,506.1,198.9,506.1,200.1z M503.6,200.1c0-1.5,0-2.9,0-4.4c0-0.6-0.2-0.8-0.9-0.8
			c-0.9,0-1.2,0.1-1.2,0.8c0,0.8,0,1.6,0,2.4c0,0.7,0,1.4,0,2.1C502.2,200.1,502.9,200.1,503.6,200.1z"/>
		<path d="M504.7,125.6c-1.8-0.8-3.5-1.6-5.2-2.4c-0.5-0.2-0.6-0.5-0.6-1c0-1.3,0-2.6,0-3.9c0-0.4,0.1-0.5,0.5-0.5
			c2.8,0,5.5,0,8.3,0c0.4,0,0.5,0.1,0.5,0.5c0,0.6,0,1.2,0,1.7c0,0.5-0.1,0.7-0.7,0.7c-1.8,0-3.7,0-5.5-0.1c-0.2,0-0.4,0-0.6,0
			c0,0.1-0.1,0.1-0.1,0.2c0.1,0.1,0.3,0.3,0.4,0.3c1.9,1,3.8,1.9,5.7,2.8c0.6,0.3,0.7,0.6,0.8,1.3c0.1,1.2-0.3,1.8-1.4,2.3
			c-1.7,0.8-3.4,1.7-5,2.5c-0.2,0.1-0.4,0.2-0.7,0.3c-0.2-0.9-0.4-1.8-0.5-2.7c0-0.1,0.2-0.3,0.4-0.4
			C502.2,126.8,503.4,126.2,504.7,125.6z"/>
		<path d="M501.4,158.4c1.3,0,2.5,0,3.7,0c0.8,0,1.7,0,2.5,0c0.4,0,0.6,0.1,0.6,0.6c0,0.6,0,1.3,0,2c0,0.5-0.2,0.6-0.6,0.6
			c-1.8,0-3.6,0-5.5,0c-0.6,0-0.8,0.2-0.7,0.8c0,1,0,1.9,0,2.9c0,0.3-0.1,0.5-0.5,0.5c-0.5,0-1,0-1.5,0c-0.3,0-0.5-0.1-0.5-0.5
			c0-3.4,0-6.9,0-10.3c0-0.4,0.1-0.5,0.5-0.5c0.5,0,1,0,1.5,0c0.4,0,0.5,0.1,0.5,0.5C501.4,156,501.4,157.1,501.4,158.4z"/>
		<path d="M503.5,153.9c-1.4,0-2.7,0-4.1,0c-0.4,0-0.6-0.1-0.6-0.6c0-0.7,0-1.3,0-2c0-0.4,0.1-0.5,0.5-0.5c2.8,0,5.6,0,8.4,0
			c0.4,0,0.5,0.1,0.5,0.5c0,0.7,0,1.4,0,2.1c0,0.4-0.2,0.5-0.5,0.5C506.3,153.8,504.9,153.8,503.5,153.9z"/>
		<path d="M504.7,137.8c-1,0-2,0-2.9,0c-0.4,0-0.6-0.1-0.5-0.6c0.1-0.7,0.1-1.4,0.1-2.1c0-0.4,0.2-0.5,0.5-0.5c1.9,0,3.8,0,5.8,0
			c0.4,0,0.5,0.1,0.5,0.6c0,0.7,0,1.3,0,2c0,0.4-0.1,0.6-0.6,0.6C506.6,137.8,505.7,137.8,504.7,137.8z"/>
		<path d="M504.7,130.6c1,0,2,0,2.9,0c0.4,0,0.6,0.1,0.6,0.5c0,0.6,0,1.3,0,1.9c0,0.3-0.1,0.5-0.5,0.5c-2,0-4,0-5.9,0
			c-0.3,0-0.4-0.1-0.5-0.4c0-0.6-0.1-1.3-0.2-1.9c-0.1-0.4,0.1-0.6,0.5-0.6C502.7,130.6,503.7,130.6,504.7,130.6
			C504.7,130.6,504.7,130.6,504.7,130.6z"/>
		<path d="M491.8,138.1c0.4,0.2,1.9,0.9,3,0.9c0-1.2-0.9-3.9-1.2-3.9C492.8,135.6,493.2,138,491.8,138.1
			C491.8,138,491.7,138.1,491.8,138.1z"/>
		<path d="M507.8,133.5c-2,0-4,0-5.9,0c-0.3,0-0.4-0.1-0.5-0.4c0-0.6-0.1-1.3-0.2-1.9c-0.1-0.4,0.1-0.6,0.5-0.6c1,0,2,0,3,0
			c0,0,0,0,0,0c1,0,2,0,2.9,0c0.4,0,0.6,0.1,0.6,0.5c0,0.6,0,1.3,0,1.9C508.2,133.3,508.1,133.5,507.8,133.5z"/>
		<path d="M508.2,137.2c0,0.4-0.1,0.6-0.6,0.6c-1,0-2,0-2.9,0c-1,0-2,0-2.9,0c-0.4,0-0.6-0.1-0.5-0.6c0.1-0.7,0.1-1.4,0.1-2.1
			c0-0.4,0.2-0.5,0.5-0.5c1.9,0,3.8,0,5.8,0c0.4,0,0.5,0.1,0.5,0.6C508.1,135.9,508.1,136.5,508.2,137.2z"/>
		<path d="M499.5,123.2c-0.5-0.2-0.6-0.5-0.6-1c0-1.3,0-2.6,0-3.9c0-0.4,0.1-0.5,0.5-0.5c2.8,0,5.5,0,8.3,0c0.4,0,0.5,0.1,0.5,0.5
			c0,0.6,0,1.2,0,1.7c0,0.5-0.1,0.7-0.7,0.7c-1.8,0-3.7,0-5.5-0.1c-0.2,0-0.4,0-0.6,0c0,0.1-0.1,0.1-0.1,0.2
			c0.1,0.1,0.3,0.3,0.4,0.3c1.9,1,3.8,1.9,5.7,2.8c0.6,0.3,0.7,0.6,0.8,1.3c0.1,1.2-0.3,1.8-1.4,2.3c-1.7,0.8-3.4,1.7-5,2.5
			c-0.2,0.1-0.4,0.2-0.7,0.3c-0.2-0.9-0.4-1.8-0.5-2.7c0-0.1,0.2-0.3,0.4-0.4c1.2-0.6,2.4-1.1,3.7-1.7
			C502.9,124.8,501.2,124,499.5,123.2z"/>
		<path d="M491.3,143.9l0.1,71.3h-1l-0.1-72.1c-4.5-3.9-6.6-15.3-5.7-19.7c0,0,0.3,3.4,0.5,3.2c0.2-0.2,0.2-3.3,1.7-3.7
			c0,0,1.8,12.8,4.8,15.1c0,0-2.2-1.1-4.3-4.4c0,0,3.9,9.9,9,10.6C496.2,144.1,494.2,145.9,491.3,143.9z"/>
		<path d="M488.9,122.1c1.3,0.1,2.9,0.9,2.9,0.9c-0.7-0.5-1.7,3-1.8,3C489.9,126.1,488.9,123.4,488.9,122.1z"/>
		<path d="M498.5,134.6c-0.2,2-0.3,2.8-1.6,3.7c-0.8-5.7-2.4-13.2-4.6-15c0,0,2.5,1.8,4.2,4.2c-1.9-4.1-4.6-9.8-9-10.6
			c0,0,1-1,2.7-0.8l0-12h0.9l0,12.4c3.9,1.5,8.8,9.9,8,21.2C499.1,137.8,498.8,134.4,498.5,134.6z"/>
		<path d="M499,140.6c0.2-1.5,1.4-2.1,3-1.6c0,0.8,0,1.6,0,2.4c0,0.1-0.2,0.3-0.3,0.3c-0.4,0-0.6,0.3-0.6,0.7c0,1.3,0,2.6,0,3.9
			c0,0.2,0.1,0.5,0.3,0.6c0.4,0.3,0.8,0,0.8-0.6c0.1-1.5,0.1-3.1,0.2-4.6c0-0.5,0.1-1,0.1-1.4c0.2-1,0.8-1.6,1.7-1.7
			c0.7-0.1,1.5-0.1,2.2,0.1c1,0.2,1.6,0.8,1.7,1.8c0.1,1.7,0.1,3.3,0.2,5c0,0.8,0,1.6-0.2,2.5c-0.2,1.7-1.2,2.1-2.8,2
			c-0.1,0-0.3-0.2-0.3-0.4c0-0.7,0-1.4,0-2.1c0-0.1,0.2-0.4,0.4-0.4c0.4-0.1,0.6-0.3,0.6-0.8c0-1.4,0-2.7,0-4.1
			c0-0.4-0.1-0.8-0.6-0.8c-0.6,0-0.6,0.4-0.7,0.8c-0.1,1.5-0.1,2.9-0.2,4.4c0,0.5,0,1-0.1,1.5c-0.1,1-0.7,1.6-1.6,1.7
			c-0.7,0.1-1.5,0.1-2.2,0c-1-0.1-1.6-0.8-1.7-1.7C498.7,145.5,498.6,143.1,499,140.6z"/>
		<path d="M499.4,154.3c0.5,0,1,0,1.5,0c0.4,0,0.5,0.1,0.5,0.5c0,1.1,0,2.3,0,3.5c1.3,0,2.5,0,3.7,0c0.8,0,1.7,0,2.5,0
			c0.4,0,0.6,0.1,0.6,0.6c0,0.6,0,1.3,0,2c0,0.5-0.2,0.6-0.6,0.6c-1.8,0-3.6,0-5.5,0c-0.6,0-0.8,0.2-0.7,0.8c0,1,0,1.9,0,2.9
			c0,0.3-0.1,0.5-0.5,0.5c-0.5,0-1,0-1.5,0c-0.3,0-0.5-0.1-0.5-0.5c0-3.4,0-6.9,0-10.3C498.9,154.5,499,154.3,499.4,154.3z"/>
		<path d="M498.9,153.3c0-0.7,0-1.3,0-2c0-0.4,0.1-0.5,0.5-0.5c2.8,0,5.6,0,8.4,0c0.4,0,0.5,0.1,0.5,0.5c0,0.7,0,1.4,0,2.1
			c0,0.4-0.2,0.5-0.5,0.5c-1.4,0-2.8,0-4.1,0c-1.4,0-2.7,0-4.1,0C499,153.9,498.9,153.7,498.9,153.3z"/>
		<path d="M508.3,213.3c-0.2,1.5-1.4,2.3-2.8,1.9c-0.1,0-0.3-0.2-0.3-0.4c0-0.7,0-1.4,0-2.1c0-0.1,0.2-0.3,0.3-0.4
			c0.5-0.1,0.7-0.4,0.7-0.9c0-1.3,0-2.6,0-4c0-0.4-0.1-0.8-0.6-0.8s-0.6,0.3-0.6,0.7c-0.1,1.4-0.1,2.8-0.2,4.2c0,0.6,0,1.1-0.1,1.7
			c-0.1,1-0.7,1.7-1.6,1.8c-0.7,0.1-1.4,0.1-2.1,0c-1-0.1-1.7-0.8-1.8-1.8c-0.2-2.4-0.3-4.8,0-7.2c0.2-1.3,1-2.2,3-1.8
			c0,0.8,0,1.6,0,2.4c0,0.1-0.2,0.3-0.3,0.3c-0.4,0.1-0.6,0.3-0.6,0.7c0,1.3,0,2.6,0,3.9c0,0.2,0.2,0.5,0.3,0.6
			c0.4,0.2,0.8-0.1,0.8-0.6c0.1-1.5,0.1-3,0.2-4.5c0-0.5,0.1-0.9,0.1-1.4c0.2-1.1,0.8-1.8,1.9-1.9c0.7-0.1,1.4,0,2.1,0.1
			c0.9,0.1,1.5,0.8,1.6,1.7c0.1,1.7,0.1,3.4,0.2,5.1C508.5,211.6,508.4,212.5,508.3,213.3z"/>
		<path d="M508.3,110.3c-0.1,1.4-0.1,2.7-0.2,4.1c-0.1,1.4-0.7,2-2.1,2.2c-1.7,0.2-3.5,0.3-5.2,0c-1.2-0.2-1.9-0.9-2-2.2
			c-0.1-2.7-0.1-5.4,0-8.1c0-1.3,0.9-2.1,2.2-2.2c1.7-0.1,3.3-0.1,5,0c1.2,0.1,2,0.8,2.1,2C508.2,107.6,508.2,109,508.3,110.3z
			 M505.7,110.4C505.7,110.4,505.7,110.4,505.7,110.4c0-0.8,0-1.6,0-2.5c0-0.6-0.4-0.9-1-0.9c-0.8,0-1.5-0.1-2.2,0
			c-0.8,0.1-1.1,0.3-1.1,1c0,1.6,0,3.2,0,4.8c0,0.5,0.4,0.8,0.9,0.9c0.8,0,1.6,0.1,2.4,0s1-0.3,1.1-1
			C505.7,112,505.7,111.2,505.7,110.4z"/>
	</g>
	<g>
		<path id="dm_1_" d="M303.2,528.1c0,3.2,4.6,5.1,7.8,5.1c1.3,0,1.9-0.3,1.9-1c0-1.8-5.3-5-8.6-5.6l-0.9-0.2
			C303.4,526.9,303.2,527.4,303.2,528.1 M316.9,524.2l0,4.7c-1.2-0.2-2.6-0.6-4.5-1.3v0.1c2.5,1.5,4.9,3.6,4.9,6.3
			c0,2.8-1.8,4.1-5.5,4.1c-6.5,0-12.5-3.4-12.5-11c0-0.4,0-0.8,0.1-1.5l-4-0.8h0c-0.1,0.8-0.3,1.9-0.4,2.9l-3.2-0.7
			c-0.2-2.4-0.4-4.9-0.3-7.8L316.9,524.2z M316.9,495.7v4.7l-10.6-1.7c-1.7-0.4-2.4-0.1-2.4,0.7c0,1.6,4.2,4.5,8.4,5.2l4.6,0.8v4.7
			l-10.6-1.8c-1.7-0.4-2.4-0.1-2.4,0.7c0,1.6,4.2,4.4,8.3,5.2l4.8,0.9v4.7l-13.3-2.5h-0.1c-0.1,0.8-0.3,1.9-0.4,2.9l-3.2-0.7
			c-0.3-2.5-0.4-4.9-0.3-7.5c1.4,0.3,2.9,0.7,4.5,1.3v-0.1c-2.7-1.6-4.7-3.2-4.7-6.3c0-2,1.1-3.4,3.4-3.4c0.4,0,0.9,0.1,1.6,0.3l0,0
			c-2.9-1.6-5-3.5-5-6.6c0-3.4,2.4-4.1,5.7-3.4L316.9,495.7z"/>
	</g>
	<g>
		<g>
			<path d="M1039.1,625c-0.4,0-0.7,0-1.1,0c-0.3,0-0.3,0.1-0.2,0.3c0.2,0.5,0.6,0.9,1.1,1c0.4,0,0.5,0.2,0.5,0.6
				c0.1,1.2,0.3,2.4,0.8,3.6c0,0.1,0.1,0.2,0.1,0.3c-0.1,0.1-0.2,0-0.3,0c-1.2-0.4-2.4-0.8-3.7-0.9c-1.1-0.1-2.2,0-3.3,0.2
				c-0.5,0.1-0.5,0.1-0.4-0.4c0.2-1.3,0-2.5-0.2-3.8c-0.6-3.1,1.9-4.7,3.9-4.8c1.1,0,1.9,0.4,2.7,1.1c1.3,1.2,2.2,2.6,2.9,4.2
				c0.1,0.1,0.2,0.3,0,0.4c-0.3,0.1-0.6,0.1-0.7-0.2c-0.2-0.4-0.3-0.8-0.4-1.2c-0.1-0.3-0.2-0.4-0.6-0.4
				C1039.8,625,1039.4,625,1039.1,625L1039.1,625z"/>
			<path d="M1029.1,629.3c0.1-0.3,0.2-0.5,0.3-0.9c0.1-0.5,0-1-0.2-1.4c-0.6-1.4-0.9-2.8-0.9-4.3c0-3,1.8-5.5,4.6-6.5
				c1.3-0.5,2.7-0.7,4.1-0.7c1.2,0,2.4,0,3.6,0.1c0.3,0,0.4,0.1,0.2,0.4c-0.4,0.8-0.7,1.5-1.1,2.3c-0.1,0.3-0.3,0.3-0.6,0.2
				c-1.2-0.5-2.5-0.6-3.8-0.5c-2.3,0.1-4.6,1.8-5.2,3.9c-0.3,1-0.2,2,0,3c0.1,0.8,0.2,1.6,0.1,2.3
				C1030,628.1,1029.6,628.7,1029.1,629.3z"/>
			<path d="M1035.9,618.4c0.2,0,0.5,0,0.7,0c0.2,0,0.2,0.1,0.1,0.2c-0.4,0.5-0.5,1.2-0.5,1.8c0,0.2-0.1,0.3-0.3,0.3
				c-1.4,0.2-2.6,1-3.4,2.1c-0.1,0.1-0.2,0.2-0.3,0c-0.5-0.4-1-0.6-1.7-0.6c-0.3,0-0.2-0.2-0.2-0.3c0.2-0.8,0.7-1.5,1.4-2.1
				C1033,618.8,1034.2,618.4,1035.9,618.4z"/>
			<path d="M1051,633.6l-0.1,3.9c0,0-3.4-3.6-3.5-3.5l-0.1,3.3c0.1,0.1,0.2,0.1,0.5,0.1v0.2l-1.5,0v-0.2c0.2,0,0.4,0,0.5-0.1
				c0-1,0-1.9,0.1-2.9c0-0.6,0.2-1.5-0.7-1.7c0,0,0.8,0,1.1,0l3.2,3.5l0-2.8c0-0.3,0-0.6-0.4-0.7h1.4
				C1050.9,632.9,1051,633.3,1051,633.6z"/>
			<path d="M1033.8,637.3v0.2h-1.5v-0.2c0.1,0,0.2,0,0.3-0.1c0-0.1,0-0.2-0.1-0.3c-0.3-0.9-0.6-1.8-0.9-2.7
				c-0.1-0.1-0.1-0.3-0.2-0.4c0,0-0.1,0-0.1,0c-0.3,0.8-0.6,1.5-0.9,2.3c-0.1,0.2-0.2,0.5-0.3,0.7c-0.1,0.2-0.1,0.3-0.1,0.5l0,0
				c0.1,0,0.2,0,0.3,0v0.2h-1.5v-0.2c0.2,0,0.2,0,0.3-0.1c0.4-0.5,0.5-1.1,0.8-1.6c0.4-0.9,0.8-1.9,1.2-2.8c0-0.1,0.1-0.2,0.1-0.2
				c0.1-0.1,0.1-0.2,0.2-0.2c0.1,0,0.2,0.1,0.2,0.2c0.2,0.6,0.5,1.2,0.7,1.9c0.3,0.7,0.6,1.5,0.8,2.2c0,0,0,0.1,0.1,0.2
				c0,0.1,0.1,0.1,0.1,0.2c0,0.1,0.1,0.1,0.1,0.2C1033.5,637.3,1033.6,637.3,1033.8,637.3z"/>
			<path d="M1027.8,632.6c-0.7-0.2-1.4,0-2.1,0.1c0.4,0.1,0.4,0.4,0.4,0.7l-0.1,3.4c0,0.2,0,0.3,0,0.5c0,0,0,0,0,0l0,0
				c-0.1,0.1-0.2,0.1-0.4,0.1v0.2h1.5v-0.2c-0.2,0-0.3,0-0.4-0.1c0,0-0.1-0.1,0-0.2l0-1.6c0-0.2,0.1-0.4,0.3-0.4
				c0.3,0,0.6,0,0.8-0.1c0.6-0.2,1-0.8,0.9-1.5C1028.7,633.2,1028.3,632.7,1027.8,632.6z M1028,634c-0.1,0.5-0.7,0.8-1.2,0.7
				c-0.2,0-0.2-0.1-0.2-0.2l0-0.6c0,0-0.1-0.7,0.2-0.8c0.3-0.1,0.8-0.1,1.1,0.2C1028.1,633.5,1028.1,633.8,1028,634z"/>
			<path d="M1022.6,636.6c0.3,0.4,0.7,0.5,1.1,0.5c0.6,0,0.9-0.6,0.6-1.2c-0.2-0.3-0.4-0.5-0.7-0.7c-0.3-0.2-0.6-0.5-0.8-0.8
				c-0.4-0.7-0.1-1.6,0.7-1.8c0.4-0.1,0.7,0,1.1-0.1c0.3-0.1,0.4-0.2,0.4-0.2l-0.1,1.1c-0.2-0.5-0.6-0.4-1-0.3
				c-0.5,0.1-0.7,0.6-0.5,1c0.2,0.5,0.7,0.7,1.1,1.1c0.3,0.3,0.5,0.5,0.6,0.9c0.1,0.6-0.3,1.3-0.9,1.4c-0.4,0.1-0.7,0.1-1.1,0
				c-0.2,0-0.4-0.1-0.5,0.2C1022.5,637.7,1022.5,636.9,1022.6,636.6z"/>
			<path d="M1041.7,632.5l0,1c-0.1-0.2-0.3-0.3-0.6-0.3l-0.7,0c-0.3,0-0.4,0.1-0.4,0.4l0,3.4c0,0.1,0,0.3,0,0.4c0.1,0,0.2,0,0.4,0.1
				v0.2h-1.5v-0.2c0.2,0,0.3,0,0.3-0.1c0.1-0.2,0-0.3,0.1-0.5l0.1-3.2c0-0.3-0.1-0.4-0.4-0.4c0,0-0.7,0-0.9,0.1l0,0
				c-0.1,0-0.2,0-0.3,0.1l0,0c-0.1,0-0.1,0.1-0.1,0.2l0-1c0.1,0.1,0.3,0.2,0.4,0.2c0.1,0,0.6,0,0.8,0c0.5,0,0.9,0,1.4,0
				c0.3,0,0.6,0,0.9,0C1041.4,632.7,1041.6,632.7,1041.7,632.5z"/>
			<path d="M1031.6,635.1c0-0.1-0.1-0.2-0.2-0.2s-0.2,0.1-0.2,0.2s0.1,0.2,0.2,0.2S1031.6,635.3,1031.6,635.1z"/>
			<path d="M1043.9,635.1c0-0.1-0.1-0.2-0.2-0.2s-0.2,0.1-0.2,0.2s0.1,0.2,0.2,0.2S1043.9,635.3,1043.9,635.1z"/>
			<path d="M1046.1,637.4v0.2h-1.5v-0.2c0.1,0,0.2,0,0.3-0.1c0-0.1,0-0.2-0.1-0.3c-0.3-0.9-0.6-1.8-0.9-2.7
				c-0.1-0.1-0.1-0.3-0.2-0.4c0,0-0.1,0-0.1,0c-0.3,0.8-0.6,1.5-0.9,2.3c-0.1,0.2-0.2,0.5-0.3,0.7c-0.1,0.2-0.1,0.3-0.1,0.5l0,0
				c0.1,0,0.2,0,0.3,0v0.2h-1.5v-0.2c0.2,0,0.2,0,0.3-0.1c0.4-0.5,0.5-1.1,0.8-1.6c0.4-0.9,0.8-1.9,1.2-2.8c0-0.1,0.1-0.2,0.1-0.2
				c0.1-0.1,0.1-0.2,0.2-0.2c0.1,0,0.2,0.1,0.2,0.2c0.2,0.6,0.5,1.2,0.7,1.9c0.3,0.7,0.6,1.5,0.8,2.2c0,0,0,0.1,0.1,0.2
				c0,0.1,0.1,0.1,0.1,0.2c0,0.1,0.1,0.1,0.1,0.2C1045.9,637.4,1046,637.4,1046.1,637.4z"/>
		</g>
		<path d="M1037.9,637.4v0.2h-1.1v-0.2c0,0,0,0,0-0.1c-0.2-0.3-0.2-0.3-0.3-0.5c-0.3-0.6-0.7-1.1-1.1-1.7c-0.2-0.3-0.2-0.5,0.2-0.6
			c0.1,0,0.2-0.1,0.2-0.1c0.5-0.2,0.7-0.5,0.6-1c-0.1-0.4-0.6-0.6-1.1-0.5c-0.2,0-0.2,0.2-0.2,0.4c0,0.8,0,1.5,0,2.2
			c0,0.3,0,0.7,0,1c0,0.2,0,0.4,0.1,0.5c0.1,0,0.2,0,0.4,0.1v0.2h-1.5v-0.2c0.2,0,0.3,0,0.4-0.1l0,0c0.1-0.1,0-0.3,0-0.5
			c0-1.2,0-2.3,0-3.5c0-0.2,0-0.5-0.3-0.6c0.7,0,1.4-0.2,2.2,0c0.8,0.2,0.9,1.3,0.3,1.9c0,0-0.1,0.1-0.1,0.1
			c-0.5,0.4-0.5,0.4-0.2,0.9c0.3,0.4,0.5,0.8,0.8,1.1c0.1,0.1,0.2,0.2,0.2,0.4l0,0c0.1,0.1,0.2,0.2,0.3,0.2
			C1037.7,637.3,1037.8,637.4,1037.9,637.4z"/>
	</g>
	<g>
		<text transform="matrix(1 0 0 1 448.5046 506.0435)" class="st17 st4 st18">INFINITE </text>
		<text transform="matrix(1 0 0 1 451.1946 510.2535)" class="st17 st4 st18"> LOVE</text>
	</g>
	<g>
		<text transform="matrix(1 0 0 1 496.073 506.0425)" class="st17 st4 st18">COVER </text>
		<text transform="matrix(1 0 0 1 497.233 510.2525)" class="st17 st4 st18"> SHOP</text>
	</g>
	<text transform="matrix(1 0 0 1 628.5392 508.1451)" class="st19 st4 st18">MOBICELL</text>
	<text transform="matrix(1 0 0 1 673.7033 508.1451)" class="st19 st4 st18">MINIER</text>
	<g>
		<text transform="matrix(1 0 0 1 761.7521 506.0425)" class="st17 st4 st18">KIDDIE </text>
		<text transform="matrix(1 0 0 1 762.8021 510.2525)" class="st17 st4 st18">RIDES</text>
	</g>
	<text transform="matrix(1 0 0 1 882.2189 505.7672)" class="st17 st4 st20">HELLO </text>
	<text transform="matrix(1 0 0 1 880.6189 510.3072)" class="st17 st4 st20">DONUTS</text>
	<text transform="matrix(1 0 0 1 926.5392 505.7672)" class="st17 st4 st20">ACTE </text>
	<text transform="matrix(1 0 0 1 922.1192 510.3072)" class="st17 st4 st20">AUTO BSL</text>
	<text transform="matrix(1 0 0 1 975.9152 462.3004)" class="st17 st4 st20">TALMA </text>
	<text transform="matrix(1 0 0 1 978.1752 466.8404)" class="st17 st4 st20">GSM</text>
	<g>
		<path d="M336.7,217.9c-0.2-0.4-0.4-0.6-0.6-0.9c-0.1,0.1-0.1,0.2-0.3,0.5c-0.1-0.5-0.2-0.9-0.2-1.2s0-0.8,0-1.1
			c-0.1,0-0.1,0-0.2,0c-0.1,0.7-0.1,1.4-0.2,2.2c-0.7-0.8-0.6-1.8-0.5-2.7c-0.5,1.3-0.8,2.6-0.4,3.9c-0.1,0-0.1,0.1-0.2,0.1
			c-0.2-0.4-0.4-0.9-0.5-1.4c-0.1-0.5,0-1.1,0.1-1.6c0.1-0.5,0.3-1,0.4-1.5c-0.9,1.7-1.7,3.4-1.7,5.3c-0.5-2,0.1-3.7,0.9-5.5
			c-1,1.2-1.8,2.5-1.8,4.1c-0.3-0.6-0.3-0.6-0.1-2.4c-0.2,0.6-0.5,1.1-0.7,1.7c-0.3-1.3,0-2.2,0.8-3.3c-0.8,0.2-1.5,1-2.1,2.3
			c0,0-0.1,0-0.1-0.1c0.2-0.6,0.5-1.1,0.7-1.8c-0.8,0.6-1.2,1.3-1.5,2.1c-0.1,0-0.1,0-0.2-0.1c0.2-0.7,0.4-1.4,0.5-2.2
			c0,0-0.1-0.1-0.1-0.1c-0.3,0.5-0.6,1.1-0.8,1.5c-0.1-0.5,0.1-1.4,0.7-2.1c0.5-0.6,1.2-1,1.8-1.6c-0.5,0-1.1,0.1-1.7,0.1
			c0.8-0.4,1.6-0.5,2.4-0.4c1,0.1,2,0.2,3,0.1c0.6,0,1.3-0.2,1.9-0.5c0.9-0.4,1.4-1.1,1.4-2.2c0-2,0.1-3.9,0.8-5.8
			c0.6-1.6,1.6-2.8,3.1-3.6c0.1-0.1,0.3-0.1,0.4-0.3c0.8-1.3,1.9-2.3,3.2-3c-0.6-0.3-1.1-0.6-1.7-0.9c0-0.1,0-0.1,0.1-0.1
			c0.5,0.1,0.9,0.1,1.3,0.2c0,0,0-0.1,0-0.1c-0.3-0.3-0.7-0.5-1.1-0.9c0.6,0.1,1,0.2,1.6,0.3c-0.3-0.4-0.5-0.7-0.7-0.9
			c0,0,0,0,0.1-0.1c0.3,0.2,0.6,0.3,0.9,0.5c0,0,0.1-0.1,0.1-0.1c-0.1-0.1-0.2-0.3-0.3-0.5c2.1-0.2,2.2-0.2,2.2,1.3
			c0.5,0,0.9,0.1,1.6,0.1c-0.3,0.3-0.5,0.4-0.6,0.5c0.4,0.4,0.8,0.9,1.2,1.2c0.6,0.6,0.6,1.1,0,1.8c-0.5,0.5-1.1,0.5-1.8,0.3
			c0.1,0.6,0.1,1.1,0.2,1.5c0.1,0.8,0,1.4-0.3,2.1c-0.3,0.8-0.4,1.7-0.5,2.5c0,0.1,0.1,0.1,0.1,0.2c0.5,0.8,0.9,0.9,1.8,0.4
			c0.4-0.3,0.9-0.6,1.3-0.8c0.7-0.4,0.8-0.8,0.5-1.6c-0.1-0.2-0.1-0.5-0.1-0.7c0.1,0.2,0.2,0.3,0.4,0.6c0-0.6,0-1.1,0-1.6
			c0.1,0,0.1,0,0.2,0c0.1,0.7,0.3,1.4,0.4,2.2c0.3-0.6,0.5-1.1,0.8-1.7c0,0.7,0.2,1.3-0.3,1.9c-0.3,0.3-0.6,0.8-0.2,1.3
			c-0.2,0.3-0.4,0.6-0.6,0.8c0-0.1,0-0.1,0-0.2c-0.1-0.2-0.1-0.4-0.2-0.6c-0.2,0.2-0.6,0.3-0.7,0.5c-0.2,0.2-0.2,0.6-0.3,1
			c0-0.3-0.1-0.4-0.1-0.8c-0.8,0.6-1.5,1-2.2,1.5c0.6,0.7,1.3,0.8,2.1,0.3c0.4-0.3,0.9-0.5,1.3-0.6c1.1-0.4,1.4-1.2,1.5-2.3
			c0-0.2,0-0.4,0.1-0.6c0,0,0.1,0,0.2,0c0,0.7,0,1.4,0,2.3c0.3-0.5,0.6-0.9,0.8-1.2c0.1,0.6,0,1.2-0.6,1.5c-0.2,0.1-0.3,0.5-0.4,0.8
			c-0.1,0.7-0.1,1.4-0.2,2.1c0,0-0.1,0-0.2,0c0-0.7-0.1-1.4-0.1-2.1c-1,0.2-1.8,0.7-2.3,1.6c0-0.1,0-0.3,0-0.6
			c-0.4,0.1-0.6,0.2-0.9,0.3c-1,0.5-1.9,1-3,1.2c-0.5,0.1-0.9,0.7-1.4,1.1c0.1,0,0.2,0.1,0.4,0.1c-0.4,0.3-0.8,0.6-1.2,0.9
			c0,0,0,0.1,0,0.1c0.3-0.1,0.7-0.1,1-0.2c0,0,0,0.1,0,0.1c-0.5,0.3-1,0.5-1.6,0.8c0.4,0,0.8,0,1.1,0c0,0,0,0.1,0,0.1
			c-0.4,0.1-0.9,0.2-1.3,0.3c0,0,0,0,0,0.1c0.4,0,0.8,0,1.2,0c0,0.1,0,0.1,0,0.2c-0.7,0.1-1.3,0.2-2.1,0.3c0.6,0.2,1.1,0.3,1.5,0.5
			c0,0,0,0.1,0,0.1c-0.6,0-1.2-0.1-1.9-0.1c0.1,0.1,0.1,0.2,0.2,0.3c-0.7-0.1-1.4-0.1-2.1-0.2c0.4,1,1.2,1.5,4,2.4
			c-0.5,0-1,0-1.5-0.1c-0.5-0.1-1-0.2-1.5-0.2c0.6,0.2,1.1,0.5,1.7,0.8c0,0.1,0,0.1,0,0.1c-1.4-0.4-2.7-0.8-4.2-1.2
			c0.4,0.4,0.7,0.8,1,1.2c0,0,0,0.1,0,0.1c-0.5-0.3-1-0.6-1.6-1c0.2,0.4,0.4,0.7,0.5,1c0,0,0,0.1,0,0.1c-0.4-0.3-0.8-0.6-1.3-1
			C336.6,217.1,336.6,217.4,336.7,217.9z"/>
		<path d="M336.3,107.4c-0.8,0-1.6,0-2.3,0c-0.2,0-0.5,0.2-0.5,0.3c-0.2,0.7-0.7,0.5-1.1,0.4c-0.1,0-0.3-0.4-0.3-0.7
			c0-1.1,0-2.2,0-3.3c0-0.6,0.2-0.8,0.8-0.8c5.5,0,11,0,16.6,0c0.6,0,1-0.1,1.3-0.7c0.1-0.2,0.7-0.2,1-0.2c0.1,0,0.2,0.3,0.2,0.6
			c0,1.4,0,2.8,0,4.2c-0.3,0-0.6,0.1-1,0.1c0.2,0.2,0.3,0.4,0.4,0.5c1.4,1.8,1,3.8-1,4.8c-1.4,0.7-2.9,0.9-4.4,1
			c-2.6,0.1-5.2,0.1-7.8-0.5c-0.7-0.2-1.4-0.5-1.9-0.9c-1.4-1-1.6-2.5-0.8-4C335.7,108.2,336,107.9,336.3,107.4z M343.5,107.4
			c-1.8,0-3.5,0-5.3,0c-0.5,0-0.7,0.2-0.8,0.7c-0.1,0.4,0,0.8,0.4,1c0.3,0.2,0.7,0.3,1.1,0.3c3.3,0,6.6,0,9.9,0c0.1,0,0.3,0.1,0.4,0
			c0.3-0.2,0.8-0.5,0.9-0.7c0-0.3-0.3-0.8-0.5-1.1c-0.1-0.1-0.4-0.1-0.7-0.1C347,107.4,345.2,107.4,343.5,107.4z"/>
		<path d="M351.7,176.5c-2,2.4-3.4,2.2-5.6-0.9c-0.1,0.2-0.2,0.4-0.3,0.6c-2.6,2.6-7.4,2.4-9.7-0.5c-1-1.2-1.2-2.5-1-4
			c0.1-0.4,0.1-0.8-0.4-1c-0.5-0.2-0.7,0.1-0.9,0.5c-0.3,0.4-0.6,0.7-1.2,0.6c-0.6-0.1-0.7-0.6-0.8-1.1c0-0.1,0-0.1,0-0.2
			c0-0.7,0-1.4,0.7-1.8c0.7-0.4,1.3-0.1,1.9,0.3c0.5,0.3,0.9,0.7,1.4,1.1c0.1-0.1,0.2-0.2,0.2-0.3c1.9-2.5,5.1-2.9,7.7-2
			c2.2,0.7,4.2,3.2,3.4,6.1c-0.2,0.7-0.2,1.3,0.4,1.8c0.4,0.4,0.9,0.3,1-0.2c0.1-0.2,0.1-0.5,0.1-0.8c0-1.6,0-3.1,0.1-4.7
			c0.1-1.2,0.6-2.3,1.9-2.7c1.6-0.6,3.2,0.1,3.9,1.7c0.3,0.7,0.5,1.5,0.6,2.3c0.2,1.8,0.2,3.5-0.3,5.3c-0.1,0.4-0.3,0.7-0.5,1
			c-0.5,0.7-1.5,0.7-2,0C352.1,177.1,351.9,176.8,351.7,176.5z M341.2,171.7C341.2,171.7,341.2,171.7,341.2,171.7c-1,0-2.1,0-3.1,0
			c-0.3,0-0.6,0-0.9,0.2c-0.7,0.3-0.7,1.1-0.1,1.4c0.4,0.2,0.9,0.3,1.3,0.4c2,0,4,0,5.9,0c0.3,0,0.6-0.1,0.9-0.2
			c0.6-0.3,0.7-1.1,0.1-1.5c-0.3-0.2-0.6-0.2-1-0.2C343.3,171.7,342.2,171.7,341.2,171.7z M352.1,172.5
			C352.1,172.5,352.1,172.5,352.1,172.5c0,0.7,0,1.4,0,2.1c0,0.5,0.2,0.9,0.8,1c0.5,0.1,0.8-0.4,0.8-0.8c0.1-1,0.2-2,0.2-3
			c0-0.6-0.2-1.3-0.4-1.8c-0.1-0.2-0.5-0.6-0.8-0.5c-0.2,0-0.5,0.5-0.5,0.8C352,171,352.1,171.8,352.1,172.5z"/>
		<path d="M336.9,121.5c-0.2-0.1-0.4-0.2-0.6-0.3c-0.8-0.8-1.2-1.6-1.2-2.7c0-1.6,1-2.7,2.6-2.7c1.8,0,3.6,0,5.4,0
			c2.1,0,4.2,0,6.3,0c0.4,0,0.8-0.3,1.1-0.4c0.4-0.1,0.9-0.2,1.3-0.2c0.1,0,0.2,0.3,0.3,0.5c0,1,0,2,0,3c0,0.2-0.2,0.6-0.4,0.6
			c-0.5,0.2-1,0.4-1.4,0.4c-3.8,0-7.6,0-11.5,0c-0.4,0-1,0.2-1,0.4c-0.1,0.4,0.1,0.9,0.2,1.3c0.1,0.2,0.4,0.3,0.6,0.3
			c3.7,0,7.4,0,11.1,0c0.3,0,0.6-0.2,0.8-0.4c0.4-0.4,0.8-0.4,1.2-0.3c0.2,0.1,0.4,0.4,0.4,0.7c0,1.3,0,2.6,0,3.9
			c0,0.2-0.1,0.7-0.2,0.7c-0.4,0-0.9,0.1-1.2-0.1c-0.4-0.4-0.9-0.5-1.4-0.5c-3.9,0-7.8,0-11.7,0c-0.4,0-0.8,0.1-1.1,0.4
			c-0.2,0.2-0.7,0.2-1.1,0.2c-0.1,0-0.2-0.4-0.2-0.6c0-1.1,0-2.2,0-3.3c0-0.5,0.1-0.7,0.6-0.6c0.3,0,0.6,0,0.9,0
			C336.8,121.7,336.8,121.6,336.9,121.5z"/>
		<path d="M350.7,184.1c0.1,0.1,0.3,0.4,0.5,0.6c1.8,1.7,1.5,4.9-1.7,5.4c-1.6,0.3-3.3,0.3-5,0c-1-0.2-1.9-0.7-2.3-1.7
			c-0.6-1.2-1.2-2.5-1.7-3.8c-0.2-0.6-0.5-0.9-1.2-0.8c-0.6,0.1-1.2,0-1.8,0.1c-0.4,0-0.7,0.2-0.8,0.7c-0.1,0.5,0.1,1,0.6,1.1
			c0.4,0.1,0.8,0.2,1.2,0.2c1,0.1,1.4,0.4,1.7,1.3c0.1,0.3,0.1,0.6,0.1,0.9c0,1.4-0.7,2-2.1,1.8c-1.5-0.3-2.3-1.3-2.7-2.7
			c-0.5-1.6-0.5-3.2,0.1-4.8c0.5-1.6,1.9-2.5,3.5-2.5c3.5,0,7.1,0,10.6,0c0.3,0,0.7-0.2,0.9-0.4c0.6-0.4,1.3-0.3,1.5,0.4
			c0.3,0.9,0.4,1.9,0,2.8C351.7,183.2,351.2,183.6,350.7,184.1z M341.8,183.9c0.2,0.9,0.8,1.8,1.5,1.8c1.9,0.1,3.7,0.1,5.6,0.1
			c0.5,0,0.8-0.4,0.8-0.8c0-0.5-0.3-0.8-0.8-0.9c-0.4-0.1-0.8-0.1-1.1-0.1c-1.8,0-3.6,0-5.4,0C342.2,183.9,342,183.9,341.8,183.9z"
			/>
		<path d="M350.6,132.3c0.3,0.3,0.6,0.6,0.8,0.9c1.4,1.5,1.3,4.5-1.6,5.1c-1.9,0.4-3.7,0.4-5.6,0c-0.8-0.2-1.4-0.6-1.8-1.3
			c-0.6-1.1-1.2-2.3-1.7-3.4c-0.6-1.4-0.6-1.4-2.1-1.4c-0.4,0-0.8-0.1-1.1,0c-0.3,0.1-0.7,0.3-0.9,0.6c-0.2,0.4,0,1,0.5,1.2
			c0.4,0.1,0.8,0.2,1.2,0.2c1.5,0.1,2.5,2,1.7,3.3c-0.3,0.6-1.2,0.8-2.2,0.6c-1.4-0.4-2.1-1.4-2.5-2.7c-0.5-1.6-0.4-3.1,0.1-4.7
			c0.5-1.7,1.8-2.6,3.5-2.6c3.5,0,7,0,10.5,0c0.4,0,0.8-0.1,1.1-0.4c0.4-0.4,1.2-0.2,1.4,0.4C352.7,129.8,352.2,131.3,350.6,132.3z
			 M341.8,132.2c0.2,1.1,0.8,1.8,1.8,1.8c1.5,0.1,3.1,0.1,4.6,0.1c1,0,1.5-0.4,1.5-1c0-0.6-0.5-1-1.6-1c-1.6,0-3.3,0-4.9,0
			C342.7,132.2,342.2,132.2,341.8,132.2z"/>
		<path d="M343.3,146.6c1.8,0,3.5,0.2,5.1,0.8c1.1,0.4,2.1,1.1,2.9,2c1.4,1.8,1.3,4.2-0.3,5.8c-1.3,1.3-2.9,1.9-4.6,2.1
			c-2.5,0.3-4.9,0.3-7.3-0.5c-1.8-0.6-3.2-1.6-3.8-3.4c-0.7-2.3,0.4-4.6,2.8-5.8C339.7,146.7,341.5,146.6,343.3,146.6z M343.5,151.1
			c-1.8,0-3.5,0-5.3,0c-0.4,0-0.8,0-1,0.1c-0.3,0.1-0.6,0.5-0.6,0.8s0.3,0.7,0.5,0.8c0.4,0.2,0.9,0.3,1.3,0.3c3.5,0,6.9,0,10.4,0
			c0.4,0,0.9-0.1,1.3-0.2c0.3-0.1,0.6-0.5,0.6-0.7c0-0.3-0.3-0.7-0.5-0.8c-0.4-0.2-0.9-0.2-1.3-0.2
			C347.1,151.1,345.3,151.1,343.5,151.1z"/>
		<path d="M332.1,140.5c0.4,0,0.7,0,1,0c5.4,0,10.9,0,16.3,0c0.5,0,0.9,0,1.3-0.5c0.2-0.2,0.7-0.2,1-0.1c0.1,0,0.3,0.4,0.3,0.7
			c0,1.3,0,2.6,0,3.9c0,0.3-0.1,0.8-0.2,0.8c-0.4,0-1.1,0.1-1.3-0.2c-0.4-0.4-0.8-0.5-1.3-0.5c-4.9,0-9.7,0-14.5,0
			c-0.5,0-0.8,0.1-1.2,0.4c-0.2,0.2-0.8,0.3-1.2,0.2c-0.1,0-0.3-0.5-0.3-0.8C332.1,143.1,332.1,141.9,332.1,140.5z"/>
		<path d="M338.2,161.5c-0.3-0.1-0.6-0.2-1-0.3c-0.5-0.2-1-0.4-1.5-0.6c-0.5-0.3-0.8-0.8-0.7-1.4c0-0.6,0.4-0.9,0.9-1
			c1-0.4,1.9-0.4,2.9-0.1c0.4,0.1,0.8,0.4,0.8,0.9s-0.2,0.8-0.6,1.1c-0.2,0.1-0.3,0.4-0.5,0.6c0.2,0.1,0.5,0.3,0.7,0.4
			c0.2,0.1,0.4,0,0.6,0c3.2,0,6.4,0,9.6,0c0.5,0,0.8-0.1,1.1-0.5c0.3-0.6,0.9-0.4,1.4-0.3c0.1,0,0.2,0.3,0.2,0.4c0,1.5,0,3,0,4.6
			c0,0.2-0.2,0.5-0.3,0.5c-0.4,0-0.9,0.1-1.2-0.2c-0.4-0.3-0.7-0.4-1.2-0.4c-3.9,0-7.8,0-11.7,0c-0.5,0-0.8,0.1-1.2,0.5
			c-0.2,0.2-0.7,0.2-1,0.2c-0.1,0-0.3-0.4-0.3-0.7c0-0.9,0-1.9,0-2.9c0-0.5,0.2-0.6,0.6-0.6c0.8,0,1.6,0,2.4,0
			C338.2,161.6,338.2,161.5,338.2,161.5z"/>
		<path d="M332.3,99.6c0,2-1.7,3.8-3.7,3.8c-2,0-3.8-1.7-3.8-3.7c0-2,1.7-3.8,3.8-3.8C330.6,95.9,332.3,97.6,332.3,99.6z
			 M331.8,99.6c0-1.8-1.4-3.2-3.2-3.2s-3.2,1.4-3.2,3.2c0,1.8,1.4,3.2,3.2,3.2C330.4,102.8,331.8,101.4,331.8,99.6z"/>
		<path d="M354.5,197.3c0,0,0.2,0,0.2,0.1c0.5,1.1,0.5,2.4,0.2,3.5c-0.2,0.6-0.3,1.2-0.3,1.8c-0.2,3.3-0.3,6.7-0.5,10
			c0,0.7,0,1.3-0.1,2C353.9,209,353.9,203.1,354.5,197.3z"/>
		<path d="M330.4,100.5c0,0.3,0,0.5,0,0.7c-1.2,0-2.3,0-3.5,0c0-0.9-0.1-1.7,0-2.6c0-0.2,0.5-0.6,0.8-0.6c0.3,0,0.6,0.2,0.9,0.4
			c0.1,0.1,0.1,0.3,0.2,0.5c0.5-0.4,1-0.8,1.5-1.2c0.2,0.5,0.1,0.9-0.3,1.2c-0.3,0.2-0.7,0.5-0.9,0.8c-0.1,0.2-0.2,0.5-0.2,0.7
			c0,0.1,0.3,0.2,0.5,0.2C329.7,100.5,330,100.5,330.4,100.5z M328.4,99.7c0-0.4,0.1-0.9-0.5-0.9c-0.6,0-0.5,0.6-0.5,1
			c0,0.4-0.1,0.8,0.5,0.8C328.5,100.5,328.3,100.1,328.4,99.7z"/>
	</g>
	<g>
		<path d="M710.3,158.1c-0.6,0-1.2,0-1.8,0c-0.3,0-0.5-0.1-0.6-0.4c-1-3.1-1.7-6.4-1.9-9.6c-0.2-3,0.4-5.9,1.1-8.8
			c0.3-1.1,0.6-2.1,0.9-3.1c0-0.2,0.2-0.4,0.4-0.4c1.4,0,2.8-0.1,4.2,0.1c2,0.2,3.6,1.2,5,2.5c2.4,2.3,4,5.2,5.3,8.3
			c0.1,0.1,0.1,0.4,0,0.6c-1.2,3-2.8,5.9-5.1,8.2c-1.4,1.4-3.1,2.4-5.1,2.7C711.8,158.1,710.3,158.1,710.3,158.1z M715.8,154.9
			c0.1,0,0.1,0,0.2,0c0.2-0.8,0.5-1.5,0.7-2.3c0.6-2.2,0.8-4.3,0.1-6.5c-0.6-1.8-2.1-2.1-3.4-0.8c-1.1,1.1-1.8,2.4-2.4,3.9
			c-0.2,0.5-0.4,1.1-0.6,1.7c-1.3-0.9-1.4-2.4-2-3.6c0,2.1,0.2,4.1,1,6.1c0.2,0.5,0.4,0.9,0.8,1.3c0.4,0.5,1,0.4,1.4-0.1
			c0.9-1.3,1-2.8,1.3-4.3c-0.1-0.1-0.1-0.1-0.2-0.1c-0.7,0.6-1.4,1.3-2,1.9c0.3-0.8,1.9-2.4,2.8-2.6c0.9-0.2,1.7,0.1,2,1
			c0.2,0.5,0.3,1,0.4,1.5C715.8,152.8,715.8,153.9,715.8,154.9z M709.3,142.9c2.1-2.2,3.9-2.7,4.7-1.4c-0.6,0.2-1.4,0.3-1.9,0.6
			c-0.7,0.5-1.3,1.1-2,1.7c-0.7,0.6-0.9,1.4-0.7,2.3c0.2,0.8,0.3,1.5,0.5,2.2c0,0.1,0.1,0.2,0.2,0.5c0.1-0.3,0.1-0.4,0.2-0.6
			c0.4-1.4,1-2.7,2-3.8c1.4-1.5,3.1-1.5,4.5-0.1c0.3,0.3,0.5,0.5,0.7,0.8c-0.4-1.6-0.8-3.3-1.7-4.7c-0.4-0.7-1-1.3-1.6-1.8
			c-0.4-0.3-1-0.6-1.5-0.6C710.8,138.2,708.9,140.8,709.3,142.9z"/>
		<path d="M717.2,158.1c4.7-2.3,7.2-6.4,9.3-10.8c0.1-0.2,0.1-0.5,0-0.7c-1.3-2.9-2.9-5.6-5.1-7.8c-1.2-1.3-2.6-2.3-4.2-2.9
			c3.5-0.5,6.2,0.8,8.5,3.3c2,2.2,3.4,4.7,4.5,7.5c0.1,0.2,0.1,0.5,0,0.7c-1.1,2.9-2.6,5.5-4.8,7.8
			C723.2,157.4,721.3,158.1,717.2,158.1z"/>
		<path d="M720,172.8c0,0.7,0,1.3,0,1.9c0,0.2-0.2,0.3-0.3,0.4c-0.6,0.4-1.2,0.9-1.7,1.3c-0.1,0.1-0.3,0.3-0.3,0.5
			c0,0.9,0,1.8,0,2.8h2.4v1.7c-2.3,0-4.5,0-6.8,0c0,0-0.1-0.1-0.1-0.1c0-2,0-3.9,0-5.9c0-1.2,0.7-2,1.7-2.2c1.2-0.2,1.9,0.2,2.6,1.4
			c0,0,0.1,0,0.1,0.1C718.3,174.1,719.2,173.5,720,172.8z M714.7,179.7h1.4c0-1.4,0-2.7,0-4c0-0.4-0.2-0.7-0.7-0.7
			c-0.4,0-0.7,0.3-0.7,0.7C714.7,177,714.7,178.3,714.7,179.7z"/>
		<path d="M718.7,211c-0.3-0.2-0.6-0.5-0.9-0.7c-0.1-0.1-0.1-0.2,0-0.3c0.8-1.3,1-2.7,0.8-4.2c0,0,0,0,0,0c-0.3-2.7-1.1-2.7-1.4,0
			c0,0.1,0,0.2,0,0.3c-0.1,0.9-0.1,1.9-0.2,2.8c0,0.3-0.1,0.5-0.2,0.8c-0.5,1.3-2.1,1.6-2.9,0.4c-0.4-0.6-0.7-1.4-0.8-2.2
			c-0.2-1.6-0.1-3.1,0.7-4.5c0.1-0.1,0.2-0.3,0.3-0.4c0.1-0.1,0.3-0.1,0.4,0c0.2,0.3,0.5,0.5,0.7,0.8c0.1,0.1,0.1,0.4,0,0.5
			c-0.5,1.2-0.7,2.5-0.5,3.8c0,0.2,0.1,0.6,0.4,0.7c0.2,0.1,0.4-0.2,0.5-0.4c0.1-0.9,0.2-1.8,0.3-2.6c0.1-0.7,0.2-1.3,0.4-1.9
			c0.6-1.5,2.4-1.7,3.3-0.4c0.3,0.5,0.6,1.1,0.7,1.7c0.3,2,0.2,3.9-0.9,5.7c0,0.1-0.1,0.1-0.1,0.2
			C718.9,211.1,718.8,211.1,718.7,211z"/>
		<path d="M718.9,117.6c-0.4-0.3-0.8-0.7-1.2-1c0.9-1.3,1.1-2.8,1-4.3c0-0.3-0.1-0.6-0.2-0.9c-0.1-0.2-0.3-0.5-0.5-0.4
			c-0.2,0-0.4,0.3-0.5,0.5c-0.1,0.4-0.2,0.9-0.2,1.3c-0.1,0.9-0.1,1.7-0.2,2.6c0,0.3-0.1,0.6-0.2,0.8c-0.5,1.2-2.2,1.4-2.9,0.3
			c-0.4-0.6-0.6-1.3-0.8-2c-0.2-1.5-0.1-3,0.6-4.4c0.1-0.2,0.3-0.5,0.4-0.7c0.1,0.1,0.1,0.1,0.2,0.1c0.7,0.5,1,1,0.6,2
			c-0.5,1-0.4,2.2-0.2,3.2c0,0.1,0.1,0.2,0.2,0.3c0.1,0.2,0.4,0.2,0.5,0c0.1-0.1,0.1-0.2,0.1-0.3c0.2-1.1,0.2-2.2,0.4-3.3
			c0-0.4,0.2-0.8,0.3-1.2c0.6-1.3,2.2-1.6,3.2-0.5c0.3,0.3,0.5,0.8,0.6,1.2c0.5,1.9,0.4,3.9-0.4,5.7
			C719.3,116.9,719.1,117.2,718.9,117.6z"/>
		<path d="M720,93.6h-6.9c0-0.8,0-1.5,0-2.2c0-0.2,0.2-0.3,0.4-0.4c1.5-1.3,3-2.6,4.6-3.9h-4.9v-1.8h6.9c0,0.7,0,1.4,0,2.1
			c0,0.2-0.2,0.3-0.3,0.4c-1.4,1.2-2.8,2.4-4.1,3.5c-0.1,0.1-0.3,0.3-0.5,0.5h5V93.6z"/>
		<path d="M712.9,187.7c0-1.2,0.2-2.2,0.9-3.2c1.2-1.8,3.8-2,5.2-0.4c1.6,1.8,1.6,5.3,0,7.2c-1.4,1.6-4,1.4-5.2-0.3
			C713.2,190,712.9,188.9,712.9,187.7z M718.7,187.8c0-0.7-0.2-1.5-0.6-2.1c-0.7-1.1-2.3-1.1-3,0c-0.8,1.1-0.8,3.1,0,4.2
			c0.8,1.1,2.4,1.1,3.1-0.1C718.5,189.1,718.7,188.5,718.7,187.8z"/>
		<path d="M720.2,100c0,1-0.3,2.1-1,3.1c-1.2,1.7-3.8,1.9-5.1,0.3c-1.8-2-1.6-5.8,0.4-7.6c1.4-1.2,3.5-0.9,4.7,0.6
			C719.9,97.3,720.2,98.4,720.2,100z M718.6,100.6c0.2-0.6,0.2-1.2,0-1.7c-0.1-0.4-0.2-0.8-0.5-1.1c-0.7-1.2-2.2-1.2-3.1-0.1
			c-0.8,1.1-0.8,3.1,0,4.2c0.8,1.1,2.4,1.1,3.1-0.1C718.3,101.4,718.5,101,718.6,100.6z"/>
		<path d="M717.7,199.6h2.3v1.8h-6.9l0-0.5c0-1.7,0-3.5,0-5.2c0-0.6,0.2-1.2,0.4-1.7c0.5-0.8,1.3-1.1,2.2-1c0.9,0.1,1.5,0.7,1.8,1.6
			c0.1,0.6,0.2,1.2,0.2,1.8C717.7,197.4,717.7,198.5,717.7,199.6z M716.1,199.6c0-1.3,0-2.6,0-3.9c0-0.4-0.1-0.9-0.7-0.9
			c-0.6,0-0.7,0.4-0.7,0.9c0,1.1,0,2.3,0,3.4v0.4L716.1,199.6L716.1,199.6z"/>
		<path d="M713.1,131c0-0.6,0-1.2,0-1.7c0-0.2,0.2-0.4,0.4-0.5c1.4-0.8,2.8-1.6,4.2-2.4c0.2-0.1,0.3-0.2,0.5-0.3
			c-1.6-0.9-3.1-1.8-4.6-2.6c-0.4-0.2-0.6-0.5-0.6-1c0-0.4,0-0.8,0-1.3c0.4,0.2,0.6,0.3,1,0.6c1.6,1.1,3.8,2.2,5,2.9
			c0.7,0.3,0.9,0.5,0.9,1.1c0.1,0.9-0.3,1.4-1.1,1.9C717,128.6,715.1,129.8,713.1,131z"/>
		<polygon points="714.7,169.2 714.7,172.4 713.2,172.4 713.2,164.2 714.7,164.2 714.7,167.4 720,167.4 720,169.2 		"/>
		<rect x="713.2" y="118.8" width="6.8" height="1.7"/>
		<rect x="713.2" y="106" width="6.8" height="1.7"/>
	</g>
	<g>
		<path d="M689.2,459.6c-0.6-0.2-1.2-0.3-1.7-0.5c-1.3-0.4-2.5-0.7-3.8-1c-0.3-0.1-0.5-0.2-0.5-0.6c0-0.6,0-1.3,0-2
			c0-0.3,0.1-0.4,0.4-0.5c1.8-0.2,3.5-0.3,5.3-0.5c1.2-0.1,2.4-0.2,3.6-0.3c0.3,0,0.4,0,0.4,0.4c0,0.5,0,1,0,1.4
			c0,0.3-0.1,0.4-0.4,0.4c-1.8,0.2-3.7,0.3-5.5,0.5c0,0-0.1,0-0.2,0.1c0.4,0.1,0.8,0.2,1.2,0.3c1.5,0.4,3,0.8,4.5,1.2
			c0.3,0.1,0.3,0.1,0.3,0.5c0,0.4,0,0.7,0,1c0,0.4,0,0.4-0.4,0.5c-1.5,0.4-3.1,0.9-4.6,1.3c-0.3,0.1-0.7,0.2-1,0.3
			c0.4,0,0.8,0.1,1.1,0.1c1.4,0.1,2.7,0.3,4.1,0.4c0.2,0,0.3,0,0.5,0.1c0.2,0,0.3,0.1,0.3,0.4c0,0.5,0,1,0,1.5
			c0,0.2-0.1,0.3-0.3,0.3c-1-0.1-2-0.2-3-0.3c-1.1-0.1-2.2-0.2-3.2-0.3c-0.9-0.1-1.8-0.2-2.7-0.2c-0.3,0-0.4-0.2-0.4-0.4
			c0-0.7,0-1.3,0-2c0-0.3,0.1-0.5,0.4-0.5c1.8-0.5,3.6-1,5.4-1.5C689.1,459.8,689.1,459.7,689.2,459.6
			C689.2,459.7,689.2,459.7,689.2,459.6z"/>
		<path d="M688,480.5c-1.5,0-2.9,0-4.4,0c-0.4,0-0.5-0.1-0.5-0.5c0-1,0-1.9,0-2.8c0-0.7,0.1-1.5,0.3-2.1c0.4-1.2,1.2-2,2.5-2.4
			c1.3-0.4,2.6-0.4,3.8,0c1.6,0.4,2.5,1.5,2.9,3.1c0.1,0.5,0.2,1,0.2,1.4c0,1,0,2,0,2.9c0,0.2-0.1,0.3-0.4,0.3c-1.1,0-2.2,0-3.4,0
			C688.8,480.5,688.4,480.5,688,480.5z M691,478.2c0-0.4,0-0.9,0-1.3c-0.1-1.1-0.6-1.8-1.7-2c-0.8-0.2-1.5-0.2-2.3,0
			c-0.5,0.1-0.9,0.2-1.2,0.6c-0.8,0.8-0.6,1.8-0.6,2.7C687.1,478.2,689,478.2,691,478.2z"/>
		<path d="M691.8,448.7C691.8,448.8,691.9,448.8,691.8,448.7c1.4,1,1.6,2.8,0.8,4.1c-0.8,1.2-3,1.2-3.8-0.3
			c-0.3-0.7-0.5-1.4-0.5-2.1c0-0.5,0-1,0-1.5c-0.5,0-0.9,0.2-1.1,0.7c-0.2,0.5-0.2,1-0.1,1.6c0.1,0.4,0.2,0.9,0.3,1.3
			c0.1,0.2,0,0.3-0.2,0.3c-0.4,0-0.7,0-1.1,0c-0.2,0-0.3-0.1-0.3-0.2c-0.4-1.3-0.6-2.7-0.2-4c0.3-1.2,1.2-2,2.5-2c1.4,0,2.9,0,4.3,0
			c0.3,0,0.4,0.1,0.4,0.4c0,0.4,0,0.9,0,1.3c0,0.3-0.1,0.4-0.5,0.4C692.2,448.7,692,448.7,691.8,448.7
			C691.8,448.7,691.8,448.7,691.8,448.7z M689.7,448.8c0,0.2,0,0.4,0,0.6c0,0.5,0,0.9,0.2,1.4c0.2,0.4,0.5,0.6,0.9,0.5
			c0.3,0,0.6-0.3,0.7-0.7C691.6,449.7,690.8,448.8,689.7,448.8z"/>
		<path d="M687.5,442.3c-0.5-0.4-1-0.7-1.5-1.1c-0.2-0.2-0.3-0.4-0.3-0.6c0-0.5,0-1,0-1.5c0-0.1,0.1-0.2,0.1-0.3
			c0.1,0,0.2,0,0.3,0.1c1,0.7,2,1.4,2.9,2.1c0.1,0.1,0.2,0.1,0.4,0c1-0.8,2-1.5,3-2.2c0,0,0.1-0.1,0.2-0.1c0.2-0.1,0.3,0,0.3,0.2
			c0,0.6,0,1.2,0,1.8c0,0.1-0.2,0.3-0.3,0.4c-0.5,0.4-1.1,0.8-1.6,1.2c0,0-0.1,0.1-0.1,0.1c0.1,0.1,0.2,0.1,0.2,0.2
			c0.5,0.4,1,0.7,1.5,1.1c0.2,0.1,0.3,0.3,0.3,0.6c0,0.5,0,1.1,0,1.6c0,0.1,0,0.2-0.1,0.3c-0.1,0-0.2,0-0.3-0.1
			c-1-0.8-2.1-1.5-3.1-2.3c-0.1-0.1-0.2-0.1-0.3,0c-1,0.7-2,1.4-2.9,2.1c-0.1,0.1-0.2,0.1-0.3,0.1c0-0.1-0.1-0.2-0.1-0.3
			c0-0.5,0-1.1,0-1.6c0-0.2,0.1-0.4,0.3-0.5C686.5,443,687,442.6,687.5,442.3z"/>
		<path d="M686.5,469.5c-0.1-0.1-0.2-0.2-0.3-0.2c-0.8-0.7-0.8-1.7-0.5-2.5c0-0.2,0.2-0.2,0.3-0.2c0.4,0.1,0.8,0.3,1.2,0.4
			c0.2,0.1,0.3,0.2,0.2,0.4c-0.2,1.2,0.4,2,1.6,2.1c0.6,0.1,1.2,0,1.9,0c0.5,0,1,0,1.5,0c0.3,0,0.4,0.1,0.4,0.4c0,0.4,0,0.8,0,1.2
			c0,0.4-0.1,0.5-0.5,0.5c-1.5,0-2.9,0-4.4,0c-0.6,0-1.3,0-1.9,0c-0.3,0-0.4-0.1-0.4-0.4c0-0.4,0-0.9,0-1.3c0-0.3,0.1-0.4,0.4-0.4
			C686.2,469.5,686.3,469.5,686.5,469.5C686.5,469.5,686.5,469.5,686.5,469.5z"/>
		<path d="M691.9,468.2c-0.6,0-1.1-0.5-1.1-1s0.5-1,1.1-1c0.6,0,1.1,0.5,1.1,1C693,467.7,692.5,468.2,691.9,468.2z"/>
		<path class="st21" d="M681.7,437.6h1.4v1.4c0,0.9,1.6,0.8,1.6,0v-1.4h1.4c0.9,0,1-1.6,0-1.6h-1.4v-1.5c0-0.8-1.6-0.8-1.6,0v1.4
			h-1.5C681,436,680.9,437.6,681.7,437.6z"/>
	</g>
</g>
<rect id="SepsiGF10" x="191.9" y="94" class="st22" width="72.6" height="131.6"/>
<rect id="SepsiGF09" x="266.6" y="94" class="st22" width="35.4" height="131.6"/>
<rect id="SepsiGF08" x="303.5" y="94" class="st22" width="72.9" height="131.6"/>
<rect id="SepsiGF07" x="378.5" y="94" class="st22" width="77.7" height="131.6"/>
<polygon id="SepsiGF06" class="st22" points="458.4,94 458.4,225.6 536.4,225.6 536.4,15.2 497.4,15.2 497.4,43.9 496.2,43.9 
	496.2,94 "/>
<rect id="SepsiGF05" x="538.3" y="15.2" class="st22" width="68.6" height="210.4"/>
<polygon id="SepsiGF04" class="st22" points="609.5,15.2 609.5,225.6 688.8,225.6 688.8,68.8 759.1,68.8 759.1,15.2 "/>
<polygon id="SepsiGF03" class="st22" points="690.9,225.6 690.9,72 761.2,72 761.2,15.2 767.6,15.2 767.6,76.8 737.8,76.8 
	737.8,225.6 "/>
<polygon id="SepsiGF01_x5F_02" class="st22" points="770,15.2 770,79.6 740.3,79.6 740.3,225.6 836.6,225.6 836.6,15.2 "/>
<polygon id="SepsiGF11" class="st22" points="192.1,427.2 192.1,651.4 306.5,651.4 306.5,591.9 277.4,591.9 277.4,427.2 "/>
<polygon id="SepsiGF12" class="st22" points="279.8,427.2 279.8,589 309.1,589 309.1,651.4 331.3,651.4 331.3,427.2 "/>
<rect id="SepsiG43_x5E_T01" x="333.1" y="443.3" class="st22" width="62.8" height="23.4"/>
<polygon id="SepsiG40" class="st22" points="333.1,468.9 333.1,532.3 381.6,532.3 381.6,507.1 395.8,507.1 395.8,468.9 "/>
<polygon id="SepsiG42" class="st22" points="333.1,534.3 333.1,588.5 395.8,588.5 395.8,509.6 383.7,509.6 383.7,534.5 "/>
<polygon id="SepsiG44" class="st22" points="451,524.8 408.9,524.8 408.9,651.4 449.9,651.4 "/>
<polygon id="SepsiG39_x5F_40" class="st22" points="452,524.8 452,651.4 477.6,651.4 477.6,652.3 507.9,652.3 507.9,552.5 
	491.5,552.5 491.5,524.8 "/>
<rect id="SepsiG41" x="493.5" y="524.8" class="st22" width="14.4" height="25.4"/>
<polygon id="SepsiG00" class="st22" points="509.6,524.8 509.6,754.1 587.9,754.1 587.9,772 928.8,829.8 956.1,820.8 928.8,732.8 
	942.4,724.8 929.2,681.1 929.2,598.9 908.3,598.9 908.3,539.5 865.5,539.5 865.5,524.8 "/>
<rect id="SepsiG39" x="867" y="524.8" class="st22" width="51.7" height="12.5"/>
<polygon id="SepsiG37" class="st22" points="920.4,524.8 920.4,537.3 964.1,537.3 964.1,531.5 956.1,524.8 "/>
<rect id="SepsiG34" x="909.7" y="539.1" class="st22" width="54.4" height="57.6"/>
<polygon id="SepsiG35" class="st22" points="964.1,598.7 941.7,598.7 941.7,648.4 995.8,648.4 995.8,601.6 964.1,601.6 "/>
<rect id="SepsiG33" x="997.5" y="601.2" class="st22" width="16.5" height="47.2"/>
<polygon id="SepsiG32" class="st22" points="1015.4,648.4 1053.9,648.4 1066.9,636.9 1041.4,601.2 1015.4,601.2 "/>
<polygon id="SepsiG31" class="st22" points="1043.1,600.8 1068.2,635.7 1084,621.8 1055,589.6 "/>
<polygon id="SepsiG30" class="st22" points="1056.3,588.8 1085.1,620.7 1101.7,605.9 1072.3,574.2 "/>
<polygon id="SepsiG29" class="st22" points="1073.4,573 1103.2,605 1116.9,592.7 1086.9,560.8 "/>
<polygon id="SepsiG28" class="st22" points="1088.3,559.6 1118,591.5 1131.5,579.6 1101.7,547 "/>
<polygon id="SepsiG26" class="st2" points="1054.5,428.6 1054.5,489.1 1107.7,489.1 1113.4,484.1 1062.2,428.6 "/>
<rect id="SepsiG22" x="1000.8" y="428.6" class="st2" width="52.2" height="20"/>
<rect id="SepsiG25" x="1036" y="450.4" class="st2" width="17" height="38.8"/>
<rect id="SepsiG23" x="1000.8" y="450.6" class="st2" width="33.5" height="20.6"/>
<polygon id="SepsiG24" class="st2" points="1034.4,472.9 1000.8,472.9 1000.8,482.7 1007.2,488.8 1034.4,488.8 "/>
<polygon id="SepsiG21" class="st2" points="964.4,428.6 913.1,428.6 913.1,453.6 932.3,453.6 932.3,457.7 964.4,457.7 "/>
<polygon id="SepsiG20" class="st2" points="964.4,459.5 964.4,483 958.5,488.9 932.5,488.9 932.5,459.5 "/>
<rect id="SepsiG17" x="913.1" y="455.3" class="st2" width="17.8" height="33.6"/>
<polygon id="SepsiG14" class="st2" points="911.4,428.6 857.4,428.6 857.4,438.2 876.8,438.2 876.8,488.9 911.4,488.9 "/>
<rect id="SepsiG13" x="857.4" y="440" class="st2" width="17.5" height="48.7"/>
<rect id="SepsiG19" x="839.6" y="428.6" class="st2" width="15.9" height="60.3"/>
<rect id="SepsiG18" x="821.7" y="455.3" class="st2" width="16" height="33.5"/>
<polygon id="SepsiG12" class="st2" points="837.8,453.4 837.8,428.6 794.3,428.6 794.3,488.9 820.1,488.9 820.1,453.5 "/>
<rect id="SepsiG10" x="764.4" y="457.7" class="st2" width="17" height="31.2"/>
<polygon id="SepsiG11" class="st2" points="781.4,456.1 781.4,428.6 701.3,428.6 701.3,448.4 720.6,448.4 720.6,488.8 762.4,488.8 
	762.4,455.8 "/>
<rect id="SepsiG16" x="701.3" y="450.2" class="st2" width="17.6" height="38.6"/>
<rect id="SepsiG15" x="673.5" y="428.6" class="st2" width="26" height="60.3"/>
<polygon id="SepsiG07" class="st2" points="671.6,428.6 655.5,428.6 655.5,449.9 640,449.9 640,488.9 671.6,488.9 "/>
<polygon id="SepsiG09" class="st2" points="653.8,428.6 653.8,447.9 637.9,447.9 637.9,488.8 592.7,488.8 592.7,454.9 572.4,454.9 
	572.4,428.6 "/>
<rect id="SepsiG08" x="572.4" y="456.6" class="st2" width="18.5" height="32.3"/>
<rect id="SepsiG06" x="528.7" y="428.6" class="st2" width="31.3" height="60.2"/>
<rect id="SepsiG05" x="503.8" y="428.6" class="st2" width="23.1" height="60.3"/>
<rect id="SepsiG04" x="484.9" y="428.6" class="st2" width="17.2" height="60.2"/>
<rect id="SepsiG03" x="462.2" y="428.6" class="st2" width="21" height="60.3"/>
<rect id="SepsiG01" x="431.4" y="428.6" class="st2" width="29.1" height="38"/>
<polygon id="SepsiG02" class="st2" points="431.4,468.9 431.4,484.3 437,488.8 460.5,488.8 460.5,468.9 "/>
</svg>
