<?xml version="1.0" encoding="utf-8"?>
<!-- Generator: Adobe Illustrator 25.4.1, SVG Export Plug-In . SVG Version: 6.00 Build 0)  -->
<svg version="1.1" id="Layer_4" xmlns="http://www.w3.org/2000/svg" xmlns:xlink="http://www.w3.org/1999/xlink" x="0px" y="0px"
	 viewBox="0 0 1014.4 841.9" style="enable-background:new 0 0 1014.4 841.9;" xml:space="preserve">
<style type="text/css">
	.st0{fill:#F1F2F2;}
	.st1{fill:none;stroke:#000000;stroke-width:2;stroke-miterlimit:10;}
	.st2{fill:none;stroke:#000000;stroke-miterlimit:10;}
	.st3{font-family:'Axiforma-Bold';}
	.st4{font-size:7.9967px;}
	.st5{font-size:9.1391px;}
	.st6{font-size:15.9934px;}
	.st7{font-size:6.8543px;}
	.st8{font-size:5.7119px;}
	.st9{font-size:4.5696px;}
	.st10{fill:#F47725;}
	.st11{font-size:29.9066px;}
	.st12{fill-rule:evenodd;clip-rule:evenodd;}
</style>
<g id="cladire">
	<g>
		<polygon class="st0" points="9.3,232.1 9.3,87.7 288.7,87.7 288.7,37.1 315.2,37.1 315.2,8.8 666.9,8.8 666.9,232.1 		"/>
		<path class="st0" d="M661.9,13.8v213.3H14.3V92.7h279.4V42.1h26.5V13.8H661.9 M671.9,3.8h-10H320.2h-10v10v18.4h-16.5h-10v10v40.6
			H14.3h-10v10v134.4v10h10h647.6h10v-10V13.8V3.8L671.9,3.8z"/>
		<polygon class="st1" points="14.3,92.7 293.7,92.7 293.7,42.1 320.2,42.1 320.2,13.8 661.9,13.8 661.9,227.1 14.3,227.1 		"/>
	</g>
	<g>
		<polygon class="st0" points="405.7,777.8 405.7,760.2 295.5,760.2 295.5,658.2 9.4,658.2 9.4,422.2 888.7,422.2 1003.2,546.1 
			880,654.6 758.9,654.6 758.9,679.6 772.3,728.1 759.9,735.4 788.1,824.7 752.9,836.5 		"/>
		<path class="st0" d="M886.5,427.2L996,545.8L878.1,649.5H753.9v30.7l12.6,45.4l-12.6,7.4l27.9,88.4l-29.3,9.8l-341.8-57.7v-18.4
			H300.5V653.2h-286v-226H886.5 M890.9,417.2h-4.4H14.4h-10v10v226v10h10h276v91.9v10h10h100.2v8.4v8.5l8.3,1.4l341.8,57.7l2.5,0.4
			l2.4-0.8L785,831l9.3-3.1l-3-9.4l-25.5-80.8l5.7-3.3l6.6-3.9l-2-7.4l-12.2-44.1v-19.4h114.2h3.8l2.8-2.5l117.9-103.8l7.7-6.8
			l-7-7.5L893.8,420.4L890.9,417.2L890.9,417.2z"/>
		<polygon class="st1" points="14.4,427.2 886.5,427.2 996,545.8 878.1,649.6 753.9,649.6 753.9,680.3 766.5,725.7 753.9,733.1 
			781.8,821.5 752.5,831.3 410.7,773.6 410.7,755.2 300.5,755.2 300.5,653.2 14.4,653.2 		"/>
	</g>
</g>
<g id="magazine">
	<line class="st2" x1="89.4" y1="92.7" x2="89.4" y2="227.1"/>
	<line class="st2" x1="126.5" y1="92.7" x2="126.5" y2="227.1"/>
	<line class="st2" x1="201.1" y1="92.7" x2="201.1" y2="227.1"/>
	<polyline class="st2" points="280.9,227.1 280.9,92.7 320.1,92.7 320.1,42.1 	"/>
	<line class="st2" x1="361.1" y1="13.8" x2="361.1" y2="227.1"/>
	<line class="st2" x1="432.1" y1="13.8" x2="432.1" y2="227.1"/>
	<polyline class="st2" points="513.6,227.1 513.6,70.4 584.1,70.4 584.1,13.8 	"/>
	<polyline class="st2" points="562.8,227.1 562.8,78.5 592.6,78.5 592.6,13.8 	"/>
	<polyline class="st2" points="102.3,427.2 102.3,590.6 131.6,590.6 131.6,653.2 	"/>
	<polyline class="st2" points="156.2,427.2 156.2,589.4 220.3,589.4 220.3,653.2 	"/>
	<line class="st2" x1="156.2" y1="653.2" x2="156.2" y2="589.4"/>
	<polyline class="st2" points="156.2,533.4 206.4,533.4 206.4,508.3 220.3,508.3 220.3,589.4 	"/>
	<line class="st2" x1="220.3" y1="508.3" x2="220.3" y2="427.2"/>
	<line class="st2" x1="156.2" y1="467.8" x2="220.3" y2="467.8"/>
	<line class="st2" x1="156.2" y1="442.5" x2="220.3" y2="442.5"/>
	<polyline class="st2" points="254.3,427.2 254.3,484.8 260.8,489.8 384.6,489.8 384.6,427.2 	"/>
	<line class="st2" x1="351.6" y1="427.2" x2="351.6" y2="489.8"/>
	<line class="st2" x1="285.1" y1="427.2" x2="285.1" y2="489.8"/>
	<line class="st2" x1="307.9" y1="427.2" x2="307.9" y2="489.8"/>
	<line class="st2" x1="326.9" y1="427.2" x2="326.9" y2="489.8"/>
	<line class="st2" x1="285.1" y1="467.8" x2="254.3" y2="467.8"/>
	<polyline class="st2" points="395.4,427.2 395.4,489.8 605.9,489.8 605.9,427.2 	"/>
	<line class="st2" x1="496.3" y1="427.2" x2="496.3" y2="489.8"/>
	<polyline class="st2" points="478.4,427.2 478.4,448.8 462.8,448.8 462.8,489.8 	"/>
	<polyline class="st2" points="395.4,455.8 415.6,455.8 415.6,489.8 	"/>
	<polyline class="st2" points="524.2,427.2 524.2,448.8 524.2,489.8 	"/>
	<polyline class="st2" points="543.5,489.8 543.5,449.3 524.2,449.3 	"/>
	<polyline class="st2" points="605.9,456.8 587.2,456.8 587.2,489.8 	"/>
	<polyline class="st2" points="617.2,427.2 617.2,489.8 782.8,489.8 789,483.4 789,427.2 	"/>
	<line class="st2" x1="736.1" y1="427.2" x2="736.1" y2="489.8"/>
	<line class="st2" x1="680.4" y1="427.2" x2="680.4" y2="489.8"/>
	<line class="st2" x1="662.6" y1="427.2" x2="662.6" y2="489.8"/>
	<polyline class="st2" points="662.6,454.4 644.7,454.4 644.7,489.8 	"/>
	<polyline class="st2" points="680.4,439.2 699.7,439.2 699.7,489.8 	"/>
	<polyline class="st2" points="736.1,454.4 755.5,454.4 755.5,489.8 	"/>
	<line class="st2" x1="789" y1="458.5" x2="755.5" y2="458.5"/>
	<polyline class="st2" points="824,427.2 824,483.4 830.9,489.8 931.8,489.8 938.9,483.9 	"/>
	<line class="st2" x1="877.6" y1="427.2" x2="877.6" y2="489.8"/>
	<polyline class="st2" points="824,449.5 859,449.5 877.6,449.5 	"/>
	<line class="st2" x1="859" y1="489.8" x2="859" y2="449.5"/>
	<line class="st2" x1="824" y1="472.1" x2="859" y2="472.1"/>
	<line class="st2" x1="300.5" y1="653.2" x2="332.5" y2="653.2"/>
	<line class="st2" x1="332.5" y1="755.2" x2="332.5" y2="523.8"/>
	<line class="st2" x1="275" y1="653.2" x2="275" y2="523.8"/>
	<line class="st2" x1="820.4" y1="600.8" x2="820.4" y2="649.6"/>
	<line class="st2" x1="838.5" y1="600.8" x2="838.5" y2="649.6"/>
	<polyline class="st2" points="156.2,603.8 168.9,603.8 168.9,617.3 220.3,617.3 	"/>
	<polyline class="st2" points="690,523.8 690,538.3 789,538.3 	"/>
	<line class="st2" x1="743.3" y1="523.8" x2="743.3" y2="538.3"/>
	<polyline class="st2" points="732.6,538.3 732.6,597.7 789,597.7 	"/>
	<line class="st2" x1="754" y1="597.7" x2="754" y2="649.6"/>
	<line class="st2" x1="764.5" y1="597.7" x2="764.5" y2="649.6"/>
	<line class="st2" x1="865.7" y1="600.8" x2="892" y2="637.3"/>
	<line class="st2" x1="878.8" y1="588.8" x2="909.2" y2="622.1"/>
	<line class="st2" x1="896.1" y1="573" x2="927.3" y2="606.3"/>
	<polyline class="st2" points="965.1,573 933.8,538.5 963.9,511 	"/>
	<polyline class="st2" points="957.4,580.6 926.1,546.1 925.5,546.1 865.7,600.8 789,600.8 789,531.1 780.5,523.8 231.6,523.8 
		231.6,563.6 231.6,653.2 	"/>
	<line class="st2" x1="910.7" y1="559.6" x2="941.8" y2="592.7"/>
	<polyline class="st2" points="332.5,551.3 316.2,551.3 316.2,523.8 	"/>
</g>
<g id="logo">
	<text transform="matrix(0 -1 1 0 316.1592 474.5689)"><tspan x="0" y="0" class="st3 st4">ADERIX</tspan><tspan x="-3.5" y="8" class="st3 st4">FASHION</tspan></text>
	<text transform="matrix(0 -1 1 0 342.418 476.689)" class="st3 st5">CADOR</text>
	<text transform="matrix(0 -1 1 0 299.4883 469.6148)" class="st3 st5">DIGI</text>
	<text transform="matrix(0 -1 1 0 367.25 467.8795)"><tspan x="0" y="0" class="st3 st4">B&amp;B</tspan><tspan x="-18.9" y="8" class="st3 st4">COLLECTION</tspan></text>
	<text transform="matrix(0 -1 1 0 113.8135 190.9737)" class="st3 st6">NORIEL</text>
	<text transform="matrix(1 0 0 1 257.376 478.1207)"><tspan x="0" y="0" class="st3 st7">TALMA</tspan><tspan x="4.1" y="6.9" class="st3 st7">GSM</tspan></text>
	<text transform="matrix(1 0 0 1 769.9766 625.941)" class="st3 st8">MESOPOTAMIA</text>
	<text transform="matrix(0 -1 1 0 831.665 641.0132)" class="st3 st8">BIG MAMA</text>
	<text transform="matrix(1 0 0 1 835.1592 479.5113)"><tspan x="0" y="0" class="st3 st9">PRIMA</tspan><tspan x="-4.9" y="4.6" class="st3 st9">ICECREAM</tspan></text>
	<text transform="matrix(1 0 0 1 758.5811 474.189)"><tspan x="0" y="0" class="st3 st9">KOLUMBAN</tspan><tspan x="5.1" y="4.6" class="st3 st9">OPTIKA</tspan></text>
	<text transform="matrix(1 0 0 1 697.7002 533.2672)" class="st3 st8">PLAY AGAIN</text>
	<text transform="matrix(0 -1 1 0 689.3301 475.2632)"><tspan x="0" y="0" class="st3 st8">HYGEA</tspan><tspan x="1.9" y="5.7" class="st3 st8">FARM</tspan></text>
	<text transform="matrix(0 -1 1 0 634.0723 475.3765)" class="st3 st5">BERTIS</text>
	<text transform="matrix(0 -1 1 0 652.8252 482.2867)"><tspan x="0" y="0" class="st3 st8">TABAC</tspan><tspan x="-1.1" y="5.7" class="st3 st8">XPRESS</tspan></text>
	<text transform="matrix(0 -1 1 0 535.707 484.605)" class="st3 st9">COVERSHOP</text>
	<text transform="matrix(0 -1 1 0 406.3447 486.2017)"><tspan x="0" y="0" class="st3 st9">FINE DRINK </tspan><tspan x="5.7" y="4.6" class="st3 st9">STORE</tspan></text>
	<text transform="matrix(0 -1 1 0 597.4609 486.5054)" class="st3 st9">EXCHANGE</text>
	<text transform="matrix(0 -1 1 0 512.6279 484.4576)" class="st3 st5">DR.MAX+</text>
	<text transform="matrix(1 0 0 1 409.2378 441.9634)" class="st3 st4">BOUTIQUE 17</text>
	<text transform="matrix(0 -1 1 0 489.3428 483.5484)" class="st3 st4">RUFARIE</text>
	<text transform="matrix(1 0 0 1 537.1924 442.481)" class="st3 st4">NOBILACASA</text>
	<text transform="matrix(1 0 0 1 745.6289 444.6519)" class="st3 st7">CAFFE 42</text>
	<text transform="matrix(1 0 0 1 181.3359 560.2418)"><tspan x="0" y="0" class="st3 st4">BVB</tspan><tspan x="-7.6" y="8" class="st3 st4">CASINO</tspan></text>
	<text transform="matrix(1 0 0 1 296.6562 584.2701)"><tspan x="0" y="0" class="st3 st4">SEPSI </tspan><tspan x="-5.5" y="8" class="st3 st4">H-JUMP</tspan></text>
	<text transform="matrix(1 0 0 1 160.6572 454.5298)"><tspan x="0" y="0" class="st3 st4">CAPPUCCINO</tspan><tspan x="17" y="8" class="st3 st4">CAFE</tspan></text>
	<g>
		<polygon class="st10" points="237.6,403.7 242.8,400.8 242.8,404.3 237.6,407.2 232.5,404.3 232.4,400.8 		"/>
		<polygon class="st10" points="237.6,398.9 242.8,395.9 242.8,399.5 237.6,402.4 232.4,399.5 232.4,396 		"/>
		<polygon class="st10" points="237.6,394 242.8,391.1 242.8,394.6 237.6,397.6 232.4,394.7 232.4,391.1 		"/>
	</g>
	<g>
		<polygon class="st10" points="805.7,404 810.8,401.1 810.9,404.6 805.7,407.5 800.5,404.6 800.5,401.1 		"/>
		<polygon class="st10" points="805.7,399.2 810.8,396.2 810.8,399.8 805.7,402.7 800.5,399.8 800.5,396.3 		"/>
		<polygon class="st10" points="805.6,394.3 810.8,391.4 810.8,394.9 805.7,397.8 800.5,394.9 800.5,391.4 		"/>
	</g>
	<g>
		<g>
			<text transform="matrix(1 0 0 1 450.6465 342.0298)" class="st10 st3 st11">× 514</text>
		</g>
		<g>
			<g transform="translate(-19.000000, -107.000000)">
				<path class="st10" d="M398.2,455.9l1.6-2.4c0.9-1.4,2.5-2.2,4.1-2.2h26c1.6,0,3.2,0.8,4.1,2.2l1.6,2.4c0.8-0.1,1.7-0.3,2.5-0.4
					l10-2.2v-7.7c-0.3,0.1-0.6,0.2-1,0.3c-1.9,0.4-3.5,0.5-5.6,0.5c-1.1,0-2.7-0.1-4-0.3c-1.8-0.3-3.1-0.7-3.7-1.5
					c-2.9,1.1-6,1.5-9.1,1.1c-4.1-0.6-6.7-0.9-7.7-0.9c-1.1,0-3.7,0.3-7.7,0.9c-3.2,0.4-6.4,0-9.4-1.2c0,0-0.1,0-0.1,0.1
					c-1,0.6-2.2,1-3.5,1.3c-1.9,0.4-3.5,0.5-5.6,0.5c-1.1,0-2.7-0.1-4-0.3c-0.3-0.1-0.6-0.1-0.9-0.2v7.4l10,2.2
					C396.6,455.6,397.4,455.8,398.2,455.9z M402,456.2c0.2,0,0.4,0,0.5,0h28.9c0.2,0,0.4,0,0.5,0l-0.6-0.9c-0.3-0.5-0.8-0.7-1.4-0.7
					h-26c-0.5,0-1.1,0.3-1.4,0.7L402,456.2z M385.8,442.5c0.3,0.1,0.8,0.2,1.4,0.3c1.1,0.2,2.6,0.3,3.5,0.3c1.8,0,3.3-0.1,4.8-0.5
					c0.1,0,0.1,0,0.2,0c-3.7-1.5-7-2.4-9.9-2.7c0,0,0,0.1,0,0.1V442.5z M382.5,443.1C382.5,443.1,382.5,443.1,382.5,443.1V440
					c0-1.1,0.3-2.2,0.8-3.2l3.2-5.6l-5.9-0.9l0,0c-0.1,0-0.3-0.1-0.4-0.1c-0.7-0.3-0.9-1.1-0.6-1.8l0.5-1c0.2-0.4,0.6-0.7,1.1-0.9
					l0,0l4.3-1.1c0.8-0.2,1.7,0.3,2,1.1l0,0l0.5,1.7l4.5-12.5c1.2-3.2,4.3-5.4,7.7-5.4h33.5c3.5,0,6.5,2.2,7.7,5.4l4.4,12.2l0.3-1.3
					c0.2-0.9,1.1-1.4,2-1.2l4.6,1.1c0.5,0.1,0.9,0.4,1.1,0.8l0.5,1c0.3,0.7,0.1,1.5-0.6,1.8c-0.1,0.1-0.3,0.1-0.4,0.1l-5.9,0.9
					l3.2,5.6c0.5,1,0.8,2.1,0.8,3.2v3c0,0,0,0.1,0,0.1v9.8v6.6c0,2.7-2.2,4.9-4.9,4.9h-8.2c-2.7,0-4.9-2.2-4.9-4.9c0,0,0,0,0-0.1
					c-0.7,0-1.3,0.1-2,0.1h-28.9c-0.7,0-1.3,0-2-0.1c0,0,0,0,0,0.1c0,2.7-2.2,4.9-4.9,4.9h-8.2c-2.7,0-4.9-2.2-4.9-4.9v-6.6V443.1z
					 M448.2,442.1v-2c0,0,0-0.1,0-0.1c-3.1,0.3-6.5,1.2-10.4,2.9c0.1,0,0.2,0,0.3,0.1c1.1,0.2,2.6,0.3,3.5,0.3
					c1.8,0,3.3-0.1,4.8-0.5C447.1,442.5,447.6,442.3,448.2,442.1z M387.2,436.7c3.9,0.5,8.3,1.9,13.1,4.3c2.6,1.3,5.6,1.7,8.5,1.3
					c4.2-0.6,6.9-0.9,8.2-0.9c1.3,0,4,0.3,8.2,0.9c2.9,0.4,5.8,0,8.5-1.3c4.8-2.3,9.2-3.7,13.1-4.3l-2.8-5l-7.4,1.2
					c-1,0.2-2,0.2-3,0.2h-33.4c-1,0-2-0.1-3-0.2l-7.4-1.2L387.2,436.7z M436.6,459.1c0,0.1,0,0.3,0,0.4c0,0.9,0.7,1.6,1.6,1.6h8.2
					c0.9,0,1.6-0.7,1.6-1.6v-2.9l-9.3,2.1C438.1,458.8,437.4,459,436.6,459.1z M397.3,459.1c-0.8-0.1-1.5-0.3-2.3-0.4l-9.3-2.1v2.9
					c0,0.9,0.7,1.6,1.6,1.6h8.2c0.9,0,1.6-0.7,1.6-1.6C397.3,459.4,397.3,459.2,397.3,459.1z M438.3,416.8c-0.7-1.9-2.6-3.2-4.6-3.2
					h-33.5c-2.1,0-3.9,1.3-4.6,3.2l-4.3,11.9l6.6,1.1c0.8,0.1,1.6,0.2,2.4,0.2h33.4c0.8,0,1.6-0.1,2.4-0.2l6.6-1.1L438.3,416.8z"/>
			</g>
		</g>
	</g>
	<path class="st10" d="M201.1,597.8c0-1-0.8-1.8-1.8-1.8h-12c-1,0-1.8,0.8-1.8,1.8v12c0,1,0.8,1.8,1.8,1.8h12c1,0,1.8-0.8,1.8-1.8
		V597.8z M196.6,598.3c0.5,0,0.9,0.4,0.9,0.9c0,0.5-0.4,0.9-0.9,0.9c-0.5,0-0.9-0.4-0.9-0.9C195.7,598.7,196.1,598.3,196.6,598.3z
		 M189.6,598.3c0.5,0,0.9,0.4,0.9,0.9c0,0.5-0.4,0.9-0.9,0.9c-0.5,0-0.9-0.4-0.9-0.9C188.7,598.7,189.1,598.3,189.6,598.3z
		 M191.4,600.9l-0.3,3.1c0,0.2-0.1,0.4-0.3,0.4l0,0c-0.2,0.1-0.3,0.2-0.3,0.4l-0.2,4c0,0.3-0.2,0.5-0.5,0.5h-0.2h-0.2
		c-0.3,0-0.5-0.2-0.5-0.5l-0.2-4c0-0.2-0.1-0.4-0.3-0.4c-0.2-0.1-0.3-0.2-0.3-0.4l-0.3-3.1c0-0.3,0.1-0.5,0.4-0.5l0.3-0.1
		c0.2,0,0.3,0,0.5,0.1l0.4,0.4c0.2,0.2,0.5,0.2,0.7,0l0.4-0.4c0.1-0.1,0.3-0.2,0.5-0.1l0.3,0.1C191.2,600.4,191.4,600.7,191.4,600.9
		z M193.3,609.3c0,0.1-0.1,0.2-0.2,0.2c-0.1,0-0.2-0.1-0.2-0.2v-11c0-0.1,0.1-0.2,0.2-0.2c0.1,0,0.2,0.1,0.2,0.2V609.3z
		 M198.4,604.4c-0.2,0-0.3,0.2-0.3,0.4l0.1,0.8c0,0.2-0.1,0.4-0.3,0.4l-0.2,0c-0.2,0-0.3,0.2-0.3,0.3l-0.2,2.5
		c0,0.3-0.2,0.5-0.5,0.5h-0.2h-0.2c-0.3,0-0.5-0.2-0.5-0.5l-0.2-2.5c0-0.2-0.1-0.3-0.3-0.3l-0.2,0c-0.2,0-0.3-0.2-0.3-0.4l0.1-0.8
		c0-0.2-0.1-0.3-0.3-0.4c-0.2,0-0.3-0.2-0.2-0.4l0.7-3.3c0-0.2,0.3-0.4,0.5-0.2l0.7,0.4c0.1,0.1,0.3,0.1,0.4,0l0.6-0.4
		c0.2-0.1,0.5,0,0.5,0.2l0.7,3.3C198.7,604.2,198.6,604.4,198.4,604.4z"/>
	<path class="st10" d="M971.7,534.3c0-1-0.8-1.8-1.8-1.8h-12c-1,0-1.8,0.8-1.8,1.8v12c0,1,0.8,1.8,1.8,1.8h12c1,0,1.8-0.8,1.8-1.8
		V534.3z M967.3,534.8c0.5,0,0.9,0.4,0.9,0.9c0,0.5-0.4,0.9-0.9,0.9c-0.5,0-0.9-0.4-0.9-0.9C966.4,535.2,966.8,534.8,967.3,534.8z
		 M960.2,534.8c0.5,0,0.9,0.4,0.9,0.9c0,0.5-0.4,0.9-0.9,0.9c-0.5,0-0.9-0.4-0.9-0.9C959.3,535.2,959.7,534.8,960.2,534.8z
		 M962,537.4l-0.3,3.1c0,0.2-0.1,0.4-0.3,0.4l0,0c-0.2,0.1-0.3,0.2-0.3,0.4l-0.2,4c0,0.3-0.2,0.5-0.5,0.5h-0.2H960
		c-0.3,0-0.5-0.2-0.5-0.5l-0.2-4c0-0.2-0.1-0.4-0.3-0.4c-0.2-0.1-0.3-0.2-0.3-0.4l-0.3-3.1c0-0.3,0.1-0.5,0.4-0.5l0.3-0.1
		c0.2,0,0.3,0,0.5,0.1l0.4,0.4c0.2,0.2,0.5,0.2,0.7,0l0.4-0.4c0.1-0.1,0.3-0.2,0.5-0.1l0.3,0.1C961.9,536.9,962.1,537.2,962,537.4z
		 M964,545.8c0,0.1-0.1,0.2-0.2,0.2c-0.1,0-0.2-0.1-0.2-0.2v-11c0-0.1,0.1-0.2,0.2-0.2c0.1,0,0.2,0.1,0.2,0.2V545.8z M969.1,540.9
		c-0.2,0-0.3,0.2-0.3,0.4l0.1,0.8c0,0.2-0.1,0.4-0.3,0.4l-0.2,0c-0.2,0-0.3,0.2-0.3,0.3l-0.2,2.5c0,0.3-0.2,0.5-0.5,0.5h-0.2h-0.2
		c-0.3,0-0.5-0.2-0.5-0.5l-0.2-2.5c0-0.2-0.1-0.3-0.3-0.3l-0.2,0c-0.2,0-0.3-0.2-0.3-0.4l0.1-0.8c0-0.2-0.1-0.3-0.3-0.4
		c-0.2,0-0.3-0.2-0.2-0.4l0.7-3.3c0-0.2,0.3-0.4,0.5-0.2l0.7,0.4c0.1,0.1,0.3,0.1,0.4,0l0.6-0.4c0.2-0.1,0.5,0,0.5,0.2l0.7,3.3
		C969.4,540.7,969.3,540.9,969.1,540.9z"/>
	<g>
		<polygon points="455.3,208.9 459,200 476.7,189.6 462.3,189.6 464.1,182.2 491.7,182.2 491.7,188.9 471.3,201.1 491.7,201.1 
			491.7,208.9 455.3,208.9 		"/>
		<polygon points="464.9,178.9 491.7,178.9 491.7,161.7 485.4,161.7 485.4,171.1 481.2,171.1 481.3,163.5 476.4,163.5 475.8,171.1 
			472.4,171.1 473.2,163.3 467.5,163.3 464.9,178.9 		"/>
		<polygon points="467.7,161.6 491.7,156.3 491.7,149.6 479,145.1 491.7,141.9 491.7,135.4 471.1,129.6 470.7,135.9 481.2,138.9 
			470.1,141.7 469.5,147.9 481.3,152 468.8,154.4 467.7,161.6 		"/>
		<polygon points="491.7,122.7 491.7,118.4 471.4,118.4 451.9,105.1 451.9,114.7 465.2,122.7 451.9,130.7 451.9,140.3 471.4,127 
			491.7,127 491.7,122.7 		"/>
		<path d="M470.1,106.4l0.4,6.5l2.9,3.1h3.3h11.6l3.3-3.2v-6.3l-3.4-3.1h-15.4L470.1,106.4L470.1,106.4z M487.6,108v3.3h-12.5V108
			H487.6L487.6,108z"/>
		<path d="M471.3,88.9l-2.4,2.4l1,10.2h6.2l15.6,0v-5h-8.8v-2.7h8.8v-4.8h-9.9l-1.7,1.6l-1.8-1.6H471.3L471.3,88.9z M478.3,93.7v2.7
			h-4.8v-2.7H478.3L478.3,93.7z"/>
		<polygon points="468.1,86.4 491.7,86.4 491.7,80.3 481.9,80.3 491.7,75.5 491.7,69.2 477.9,76 465.5,70 466.6,76.3 474.6,80.3 
			467.3,80.3 468.1,86.4 		"/>
		<polygon points="465.3,68.9 462.4,56.3 467.9,56.3 469.3,62 473.4,62 472.6,56.3 479.1,56.3 479.6,62 485.2,62 485.2,56 491.7,56 
			491.7,68.9 465.3,68.9 		"/>
		<path class="st12" d="M472.2,47.2h-6.5l-1.1-4h7.1L472.2,47.2L472.2,47.2z M491.7,53.7v-6.5h-12.8l-0.2-4h13v-6.9h-13.9l-3.1,2.3
			l-3.4-2.1h-10.9l-3.4,2.9l4.7,14.3h6.6H491.7L491.7,53.7z"/>
	</g>
	<g>
		<g>
			<path d="M243.8,138.5c0.3-0.5,0.5-1.1,0.5-1.8c0-0.7-0.2-1.4-0.5-2c-0.3-0.6-0.8-1.2-1.4-1.6c-0.6-0.4-1.3-0.7-2.1-0.9
				c-0.6-0.1-1.2,0-1.8,0.3c-0.5,0.3-1,0.6-1.3,1.2c-0.3,0.5-0.5,1.1-0.5,1.8c0,0.7,0.2,1.4,0.5,2c0.3,0.6,0.8,1.2,1.3,1.6
				c0.5,0.4,1.1,0.7,1.8,0.8c0.8,0.1,1.5,0.1,2.1-0.2C243,139.4,243.5,139,243.8,138.5z"/>
			<path d="M236.7,183.9c-0.1,0.4-0.1,0.8-0.1,1.3v0.6l3.4,0.5v-0.6c0-0.4,0-0.8-0.1-1.2c0-0.4-0.2-0.7-0.4-1
				c-0.2-0.3-0.6-0.5-1.2-0.6c-0.6-0.1-1,0-1.2,0.2C236.9,183.3,236.7,183.6,236.7,183.9z"/>
			<path d="M224.5,159.7c0,21.8,7.2,39.4,16,39.4c8.9,0,16-17.6,16-39.4c0-21.8-7.2-39.4-16-39.4C231.7,120.3,224.5,138,224.5,159.7
				z M240.3,143.5c-1.4-0.2-2.6-0.8-3.6-1.7c-1-0.9-1.9-1.9-2.4-3.1c-0.6-1.2-0.9-2.5-0.9-3.8c0-1.3,0.3-2.5,0.9-3.5
				c0.6-1,1.4-1.8,2.4-2.4c1-0.5,2.3-0.7,3.6-0.5c1.5,0.2,2.8,0.8,3.9,1.6c1.1,0.8,2,1.8,2.6,3.1c0.6,1.2,0.9,2.6,1,4
				c0,1.5-0.3,2.7-1,3.7c-0.6,1-1.5,1.8-2.6,2.2C243,143.6,241.8,143.8,240.3,143.5z M241.7,181.1c0.7,0.9,1.1,2.2,1.1,3.7v2
				l4.5,0.7v3.5l-13.6-2.1v-5.4c0-1,0.2-1.8,0.5-2.5c0.3-0.7,0.8-1.2,1.5-1.5c0.7-0.3,1.5-0.4,2.5-0.2
				C239.8,179.5,241,180.1,241.7,181.1z M239,168.4l3,0.5v6l2.3,0.4V169l3,0.5v9.8l-13.5-2.1v-9.8l3,0.5v6.3l2.3,0.4V168.4z
				 M238.2,155.9c1.6,0.3,2.8,0.9,3.5,1.8c0.7,0.9,1.1,2.2,1.1,3.7v2l4.5,0.7v3.5l-13.6-2.1v-5.4c0-1,0.2-1.8,0.5-2.5
				c0.3-0.7,0.8-1.2,1.5-1.5C236.3,155.8,237.2,155.7,238.2,155.9z M240.6,155.2c-0.9-0.1-1.8-0.5-2.7-0.9c-0.8-0.5-1.6-1.1-2.3-1.8
				c-0.7-0.8-1.2-1.7-1.6-2.6c-0.4-1-0.6-1.9-0.6-2.9c0-1.1,0.2-2.2,0.7-3.1l4.2,0.7c-0.5,0.3-0.9,0.7-1.1,1.2
				c-0.3,0.5-0.4,1.1-0.4,1.7c0,0.7,0.2,1.4,0.5,2c0.3,0.6,0.8,1.1,1.3,1.5c0.6,0.4,1.2,0.6,1.9,0.8c1.1,0.2,2,0,2.6-0.6
				c0.7-0.6,1-1.4,1-2.5c0-0.6-0.1-1.2-0.4-1.7c-0.3-0.6-0.6-1.1-1.1-1.5l4.2,0.7c0.2,0.6,0.3,1.2,0.4,1.7c0.1,0.5,0.2,1,0.2,1.6
				c0,1-0.2,1.8-0.5,2.6c-0.3,0.8-0.8,1.5-1.5,2.1c-0.7,0.6-1.4,1.1-2.3,1.3C242.5,155.3,241.6,155.4,240.6,155.2z M255,149.1
				c0.9,8,0.7,7.2-0.4,0.1c-2.2-14.1-8-24.9-15-24.9c-2.2,0-4.6,0.9-6.4,3c0.8-1.3,1.8-2.8,2.9-3.5c1.3-1,3-1.6,4.5-1.6
				C247.5,122.3,253.3,134.3,255,149.1z"/>
			<path d="M236.7,160.6c-0.1,0.4-0.1,0.8-0.1,1.3v0.6l3.4,0.5v-0.6c0-0.4,0-0.8-0.1-1.2c0-0.4-0.2-0.7-0.4-1
				c-0.2-0.3-0.6-0.5-1.2-0.6c-0.6-0.1-1,0-1.2,0.2C236.9,159.9,236.7,160.2,236.7,160.6z"/>
		</g>
		<path d="M224.4,179.7c-9.7-46.2,5.9-65.3,16.1-63.1c0.1,0,0.3,0,0.5,0.1c-10.2-6.8-28.6-1.9-24.6,33.8
			C217.2,158.1,220.5,169.5,224.4,179.7"/>
		<path d="M256.6,139.7c9.7,46.2-5.9,65.4-16.1,63.1c-0.2,0-0.3,0-0.5-0.1c10.2,6.8,28.6,1.9,24.6-33.8
			C263.8,161.3,260.6,150,256.6,139.7"/>
	</g>
	<g>
		<path class="st12" d="M385.8,629.7c1.8,0,3.1,1.2,3.1,3.1c0,1.7-0.4,3.2-0.4,4.9c0,1.3,0.4,2.7,0.4,4c0,2.2-2.1,3.3-4.1,3.3
			c-2.7,0-3.9-1.2-3.7-3.9c0-1.3,0-2.1-0.9-3.2c-1.1-1.1-2.7-1.4-4.2-1.4c-6.1,0-6.8,6.1-6.8,10.8c0,5.1,0.7,10.6,7,10.6
			c1.3,0,2.9-0.2,3.8-1.1c1.2-1.1,1.2-2.1,1.2-3.6c0-1.2-0.1-2,0.7-3c0.7-1,1.8-1.4,3-1.4c3.1,0,4.6,2.3,4.6,5.3
			c0,7.3-7,10.8-13.6,10.8c-4.4,0-8.7-1.3-11.8-4.7c-3-3.2-4.2-8.6-4.2-12.8c0-3.9,0.8-8.8,3-12.1c2.4-3.8,6.9-5.8,11.3-5.8
			c3.3,0,6.1,1,8.4,3.4C382.5,631,383.8,629.7,385.8,629.7L385.8,629.7z"/>
		<path class="st12" d="M401.8,644.7c0,2.2-2.1,3.2-4.2,3.2c-2.3,0-4.5-1.7-4.5-4.1c0-5.1,6.9-5.9,10.7-5.9c2.4,0,5.8,0.2,7.9,1.4
			c2.9,1.8,3.1,4.6,3.1,7.6v9.1c0,0.7-0.1,2.3,0.8,2.3c0.4,0,0.8-0.1,1.2-0.1c1.6,0,2.4,1.3,2.4,2.8c0,2.7-2.8,3.8-5,3.8
			c-2.2,0-4.8-0.9-5.6-3.2c-2.3,2.2-5.3,3.2-8.3,3.2c-4.4,0-8.8-2.3-8.8-7.3c0-11.6,15.1-5.6,15.1-12c0-1.9-1.7-2.8-3.2-2.8
			c-0.9,0-1.7,0.1-1.7,1.1V644.7L401.8,644.7z M406.7,652.9c-1.3,1.6-7,0.8-7,3.4c0,1.7,1.3,2.2,2.8,2.2c2.9,0,4.2-1.7,4.2-4.6
			V652.9L406.7,652.9z"/>
		<path class="st12" d="M425.7,647.9c0-0.7,0.2-3.4-0.9-3.4c-0.4,0-1,0.3-1.7,0.3c-1.6,0-2.1-1.3-2.1-2.8c0-1.9,0.9-3.3,2.4-3.3
			c1.4,0,2.4,0.4,3.3,0.4c1.1,0,2.1-0.4,3.2-0.4c1.4,0,1.6,0.9,1.6,2v3.7c0.9-4,3.9-6.2,8-6.2c3.3,0,6.4,2.6,6.4,6.1
			c0,2.4-1.6,4.8-4.2,4.8c-1.9,0-3.4-1.2-3.4-3.1c0-0.8,0.3-1.3,0.6-2c-5.4-0.3-5.6,7.1-5.6,11c0,0.7-0.2,3.4,0.9,3.4
			c0.4,0,1-0.3,1.6-0.3c1.7,0,2.2,1.2,2.2,2.8c0,1.8-0.9,3.3-2.4,3.3c-2.7-0.1-4.7-0.6-6.7-0.6c-1.8,0-3.7,0.4-5.4,0.6
			c-1.6,0-2.4-1.6-2.4-3.3c0-1.6,0.6-2.8,2.1-2.8c0.7,0,1.2,0.3,1.7,0.3c1.1,0,0.9-2.8,0.9-3.4V647.9L425.7,647.9z"/>
		<path class="st12" d="M452.5,647.9c0-0.7,0.2-3.4-0.9-3.4c-0.4,0-1,0.3-1.6,0.3c-1.7,0-2.2-1.3-2.2-2.8c0-1.9,0.9-3.3,2.4-3.3
			c1.4,0,2.4,0.4,3.4,0.4c1,0,2.1-0.4,3.2-0.4c1.3,0,1.4,0.9,1.4,2v3.7c0.9-4,3.9-6.2,8-6.2c3.4,0,6.4,2.6,6.4,6.1
			c0,2.4-1.6,4.8-4.2,4.8c-1.9,0-3.4-1.2-3.4-3.1c0-0.8,0.3-1.3,0.7-2c-5.6-0.3-5.7,7.1-5.7,11c0,0.7-0.2,3.4,0.9,3.4
			c0.4,0,1-0.3,1.7-0.3c1.6,0,2.1,1.2,2.1,2.8c0,1.8-0.9,3.3-2.4,3.3c-2.7-0.1-4.6-0.6-6.6-0.6c-1.9,0-3.8,0.4-5.6,0.6
			c-1.6,0-2.4-1.6-2.4-3.3c0-1.6,0.6-2.8,2.2-2.8c0.6,0,1.1,0.3,1.6,0.3c1.1,0,0.9-2.8,0.9-3.4V647.9L452.5,647.9z"/>
		<path class="st12" d="M483.8,652.7c-1,0-2.2-0.3-2.2,1c0,2.8,2.2,4.9,5,4.9c4.2,0,3.9-3.8,7.7-3.8c1.9,0,3.4,1.1,3.4,3
			c0,2.2-1.7,3.9-3.4,5c-2.2,1.4-5,2-7.8,2c-8,0-12.9-5.4-12.9-13.3c0-7.7,4.8-13.6,12.8-13.6c2.9,0,6,0.7,8.2,2.7
			c2.3,2.1,3.6,5.4,3.6,8.6c0,2.8-0.3,3.6-3.2,3.6H483.8L483.8,652.7z M488.4,647.3c0.8,0,1.7,0.3,1.7-0.8c0-0.8-0.4-1.7-1-2.1
			c-0.8-0.7-1.7-0.9-2.7-0.9c-1.3,0-2.3,0.2-3.3,1.2c-0.4,0.4-1.2,1.2-1.2,1.9c0,1,1.6,0.7,2.1,0.7H488.4L488.4,647.3z"/>
		<path class="st12" d="M511.3,654.9c0,0.7-0.2,3.4,0.9,3.4c0.4,0,0.9-0.3,1.6-0.3c1.7,0,2.1,1.2,2.1,2.8c0,1.8-0.8,3.3-2.9,3.3
			c-2-0.1-4-0.6-6-0.6c-1.9,0-3.7,0.4-5.3,0.6c-1.9,0-2.7-1.6-2.7-3.3c0-1.6,0.6-2.8,2.1-2.8c0.7,0,1.1,0.3,1.7,0.3
			c1,0,0.9-2.8,0.9-3.4v-9c0-1.7,0.1-1.9-1.7-1.9c-1.9,0-3-0.4-3-2.6c0-2,0.8-2.9,2.8-2.9c1.4,0,1.9,0.1,1.9-1.6
			c0.2-5.3,4.8-7.6,9.7-7.6c1.6,0,3.6,0.3,5,1c1.7,0.9,2.9,2.4,2.9,4.3c0,2.2-1.4,3.9-3.7,3.9c-1.6,0-3.3-1.2-3.3-2.9
			c0-0.6,0.2-0.9,0.4-1.3c-0.3-0.2-0.6-0.2-0.9-0.2c-1.9,0-2.4,1.1-2.4,2.8c0,1.6,0.1,1.6,1.7,1.6c2,0,3.4,0.1,3.4,2.7
			c0,2.2-1,2.8-3.1,2.8c-2,0-2-0.1-2,1.9V654.9L511.3,654.9z"/>
		<path class="st12" d="M542.7,651.1c0,8.1-4,13.8-12.6,13.8c-8.6,0-13.1-5.1-13.1-13.4c0-8.3,4.6-13.4,13-13.4
			C538.1,637.9,542.7,643.2,542.7,651.1L542.7,651.1z M530.1,644.2c-4-0.1-4.9,4-4.9,7.2c0,2.9,0.9,7.2,4.6,7.2
			c1.7,0,3.1-0.4,3.9-2.1c0.8-1.4,1.1-3.4,1.1-5.1c0-3.1-0.8-7.3-4.7-7.3V644.2L530.1,644.2z"/>
		<path class="st12" d="M546.3,647.9c0-0.7,0.1-3.4-0.9-3.4c-0.6,0-1,0.3-1.7,0.3c-1.6,0-2.1-1.3-2.1-2.8c0-1.9,0.8-3.3,4.4-3.3
			c1,0,2,0.4,3.1,0.4c1.1,0,2.2-0.4,3.4-0.4c1.7,0,1.3,1.4,1.3,2.7v11.6c0,1.1,0,2.8,0.6,3.8c0.6,0.9,1.7,1.4,2.7,1.4
			c1.4,0,2.8-0.7,3.6-1.9c1-1.6,1.1-3.2,1.1-5.1v-3.2c0-0.7,0.2-3.4-0.9-3.4c-0.4,0-1,0.3-1.6,0.3c-1.7,0-2.2-1.3-2.2-2.8
			c0-1.9,0.9-3.3,4.2-3.3c1,0,2,0.4,3.1,0.4c1.1,0,2.2-0.4,3.4-0.4c1.7,0,1.6,1.1,1.6,2.3v13.9c0,0.7-0.2,3.4,0.9,3.4
			c0.4,0,1-0.3,1.7-0.3c1.6,0,2.1,1.2,2.1,2.8c0,1.8-0.9,3.3-2.9,3.3c-1.2-0.1-2.3-0.6-3.4-0.6c-1.1,0-2.2,0.4-3.1,0.6
			c-1.9-0.1-1.8-1.6-1.8-2.6v-1c-1.9,2.7-5.3,4.1-8.7,4.1c-2.4,0-5.3-0.9-6.8-3.1c-1.4-2-1.2-4.9-1.2-7.3V647.9L546.3,647.9z"/>
		<path class="st12" d="M580.9,647.9c0-0.7,0.1-3.4-0.9-3.4c-0.6,0-1,0.3-1.7,0.3c-1.6,0-2.1-1.3-2.1-2.8c0-1.9,0.8-3.3,2.4-3.3
			c1.4,0,2.3,0.4,3.3,0.4c1.1,0,2.1-0.4,3.2-0.4c1.4,0,1.6,0.9,1.6,2v3.7c0.9-4,3.9-6.2,7.9-6.2c3.4,0,6.4,2.6,6.4,6.1
			c0,2.4-1.6,4.8-4.1,4.8c-1.9,0-3.4-1.2-3.4-3.1c0-0.8,0.3-1.3,0.6-2c-5.4-0.3-5.6,7.1-5.6,11c0,0.7-0.2,3.4,0.9,3.4
			c0.4,0,0.9-0.3,1.6-0.3c1.7,0,2.1,1.2,2.1,2.8c0,1.8-0.8,3.3-2.4,3.3c-2.6-0.1-4.6-0.6-6.6-0.6c-1.9,0-3.7,0.4-5.4,0.6
			c-1.7,0-2.4-1.6-2.4-3.3c0-1.6,0.6-2.8,2.1-2.8c0.7,0,1.1,0.3,1.7,0.3c1,0,0.9-2.8,0.9-3.4V647.9L580.9,647.9z"/>
		<path class="st12" d="M724.1,650.8c0,0.6-0.6,1.1-0.6,1.1L697,678.5c-1,1-1.7,0.3-1.3-0.4c0.7-1.3,1.7-2.7,2.7-6
			c1.3-4.7,1.3-8.6,0.8-10.8c-0.6-2.2-3.2-6.6-8.8-6.6c-7.2,0-9.3,6.7-9.2,9.1c0.1,1.6,0,4.1,2.6,6.3c1.9,1.7,3.8,1,4.2,1
			c0.4-0.1,1.4-0.7,1.4,0.9c0,1.9-1.6,4.1-2.7,5.1c-1,1-4.7,3.9-9.8,3.9c-3.1,0-6.7-1.4-9.3-4.4c-2-2.2-3.2-4.9-4.4-8.6
			c-2.2-6.8-2.7-11.9-2.7-17.2c0-4.8,0.6-10.1,2.7-16.9c1.1-3.6,2.8-6.9,4.4-8.9c2.4-3.1,6.2-4.3,9.3-4.3c5.1,0,8.8,2.8,9.8,3.8
			c1.1,1,2.7,3.2,2.7,5.1c0,1.6-1,1-1.4,0.9c-0.4,0-2.3-0.7-4.2,1c-2.6,2.2-2.4,4.8-2.6,6.4c-0.1,2.3,2,9,9.2,9
			c5.6,0,8.2-4.3,8.8-6.6c0.6-2.2,0.6-6.1-0.8-10.8c-1-3.3-2-4.7-2.7-5.9c-0.3-0.8,0.3-1.6,1.3-0.4l26.6,26.5
			C723.6,649.7,724.1,650.3,724.1,650.8L724.1,650.8z"/>
		<path class="st12" d="M626.2,650.6c0,0.6,0.4,1.1,0.4,1.1l28.5,27.2c0.7,0.7,0.9,0,0.7-0.6c-0.1-0.3-0.2-0.6-1.1-1.9
			c-7.8-11-7.6-25.9-7.6-25.9s-0.2-14.9,7.6-25.9c0.9-1.3,1-1.6,1.1-1.9c0.2-0.6,0-1.2-0.7-0.6l-28.5,27.2
			C626.7,649.5,626.2,650.1,626.2,650.6L626.2,650.6z"/>
	</g>
	<g>
		<path class="st12" d="M59.1,121.7c1.7-1.5,2.1-4.6,1-7.9l0,0c-0.1-0.4-0.8-0.4-1.8-0.4l-1.4-4.2c-0.2-0.6-0.7-0.9-1.3-0.7
			c-0.6,0.3-0.8,0.8-0.7,1.4l1.4,4c-0.4,0.1-0.8,0.2-1.2,0.4c-0.4,0.1-0.8,0.3-1.2,0.5l-1.4-4.1c-0.2-0.5-0.7-0.8-1.3-0.6
			c-0.5,0.1-0.8,0.8-0.6,1.3l1.4,4.4c-0.9,0.5-1.4,1-1.3,1.3l0,0c1,3.3,3.2,5.5,5.5,5.7l0,0c0.2,0,0.4,0.2,0.4,0.4
			c0,0,3.7,17.5,3.7,40.2c-0.1,27.3-5.7,40.1-7.6,46.8c-0.1,0.4-0.1,0.8,0.3,1c0.4,0.2,0.8-0.1,1-0.5c0.1-0.2,10.6-17.5,10.6-47.3
			c0-20.7-3.6-33.9-5.7-40.9v0v-0.2C58.9,121.9,58.9,121.8,59.1,121.7L59.1,121.7L59.1,121.7z"/>
		<path class="st12" d="M49.5,173.1l-0.1-0.1l-5-2.2l5.1-0.8V173.1L49.5,173.1z M39.7,169.4c0,2.1,0.4,3.4,2.4,4.3
			c0,0,12.3,6,12.5,6.2v-4.6c0,0-1.9-0.8-1.9-0.8v-5c0,0,1.7-0.2,1.9-0.2v-5.1c-0.2,0-14.4,2.6-14.5,2.6
			C39.7,167.7,39.7,168.5,39.7,169.4L39.7,169.4L39.7,169.4z M43.6,189.7c-0.1,0-3.4-0.5-3.6-0.5c0,0.2,0,6.2,0,6.2
			c0,3.1,1.5,3.9,4.1,4.4c0,0,8.9,1.3,9,1.4c0.1-0.1,1.1-4.3,1.2-4.4c-0.3-0.1-4.5-0.7-4.5-0.7s0-3.4,0-3.6c-0.1,0-3.3-0.5-3.5-0.6
			c0,0.3,0,3.7,0,3.7l-2.7-0.5C43.6,195,43.6,189.9,43.6,189.7L43.6,189.7L43.6,189.7z M40,182.9v4.6c0.2,0,10.7,1.7,10.7,1.7
			l1.4,0.1c0.7,0,1.3-0.1,1.7-0.5c0.6-0.4,0.8-1.3,0.8-2.6c0,0,0-4.8,0-4.9c-0.1-0.1-4-0.6-4.3-0.7c0,0.2,0,3.9,0,3.9
			S40.2,182.9,40,182.9L40,182.9L40,182.9z M47.3,122.7c2.4,0.3,3.4,1.9,3.4,3.4c0,0.7-0.3,1.3-0.8,1.8c-0.6,0.6-1.6,0.8-2.7,0.7
			c-2.3-0.3-3.3-1.7-3.3-3.3c0-0.8,0.2-1.4,0.8-1.9C45.2,122.8,46.1,122.6,47.3,122.7L47.3,122.7L47.3,122.7z M41.7,119.2
			c-1.4,1.2-2.1,3.1-2.1,5.5c0,4,2.9,8.4,7.8,8.8h0.8c1.8,0,3.4-0.6,4.6-1.6c1.3-1.2,2-3.1,2-5.5c0-0.7-0.1-1.4-0.3-2.1
			c-2.4-0.9-4.6-3.2-5.7-6.3c-0.7-0.1-1.4-0.3-2-0.4h-0.8C44.4,117.6,42.8,118.2,41.7,119.2L41.7,119.2L41.7,119.2z M43.6,136.6
			c0-0.7,0.2-1.6,0.3-2.2c-0.1-0.1-3.8-1-4-1c-0.2,0.8-0.2,1.8-0.2,2.4c0,5.8,4.1,9.1,8,9.7c2.2,0.3,3.9,0,5.2-1.1
			c1.3-1,1.9-2.9,1.9-5.3c0-1.1-0.2-2.4-0.4-3.5c-0.2,0-3.9-0.2-4.1-0.3c0.3,0.7,0.3,1.4,0.3,2.2c0,0.9-0.3,1.8-1,2.3
			c-0.7,0.6-1.5,0.8-2.5,0.6C44.7,139.9,43.6,138.1,43.6,136.6L43.6,136.6L43.6,136.6z M45.4,151.2c1,0.1,2.1,0.2,2.1,0.2l1.3,0.2
			l-1.9,0.6c-1.3,0.4-4.3,1.4-6.9,1.8v6.5c0.2,0,14.3,2.3,14.5,2.3v-4.4c-0.1,0-5.1-0.9-6.1-1c-1-0.2-3-0.4-3-0.4s1.7-0.5,2.4-0.7
			c0.7-0.1,3.2-0.9,3.9-1.1c2.8-0.9,3.2-2.2,3.2-4.7c0-0.9-0.1-1.7-0.4-2.5c0,0-14.3-2.3-14.5-2.3v4.5
			C40.2,150.3,44.4,151,45.4,151.2L45.4,151.2L45.4,151.2z"/>
	</g>
	<g>
		<path d="M409.4,142.1c2.3,3.9,3.4,8.3,3.4,12.9c0,5.4-1.6,9.7-4.7,13c-3.3,3.5-7.5,5.2-12.6,5.2c-5.2,0-9.4-1.7-12.6-5.2
			c-3.2-3.4-4.8-8.1-4.8-13.9c0-4.1,0.9-8,2.8-11.8h7.9c-2.4,3.7-3.6,7.4-3.6,11.2c0,3.4,0.9,6.1,2.8,8c1.9,1.9,4.4,2.9,7.6,2.9
			c3.1,0,5.6-0.9,7.5-2.8c1.9-1.9,2.9-4.4,2.9-7.5c0-4-1.4-8.1-4.2-12.1H409.4L409.4,142.1z"/>
		<path d="M409.4,72c2.3,3.9,3.4,8.3,3.4,12.8c0,5.4-1.6,9.7-4.7,13c-3.3,3.5-7.5,5.2-12.6,5.2c-5.2,0-9.4-1.7-12.6-5.2
			c-3.2-3.4-4.8-8.1-4.8-13.9c0-4.1,0.9-8,2.8-11.8h7.9c-2.4,3.7-3.6,7.4-3.6,11.2c0,3.4,0.9,6.1,2.8,8c1.9,1.9,4.4,2.9,7.6,2.9
			c3.1,0,5.6-0.9,7.5-2.8c1.9-1.9,2.9-4.4,2.9-7.5c0-4-1.4-8.1-4.2-12.1H409.4L409.4,72z"/>
		<path d="M409.4,107.1c2.3,4,3.4,8.3,3.4,12.8c0,5.4-1.6,9.7-4.7,13c-3.3,3.5-7.5,5.2-12.6,5.2c-5.2,0-9.4-1.7-12.6-5.2
			c-3.2-3.4-4.8-8.1-4.8-13.9c0-4,0.9-8,2.8-11.7h7.9c-2.4,3.7-3.6,7.4-3.6,11.2c0,3.4,0.9,6.1,2.8,8c1.9,1.9,4.4,2.9,7.6,2.9
			c3.1,0,5.6-0.9,7.5-2.8c1.9-1.9,2.9-4.4,2.9-7.5c0-4-1.4-8-4.2-12.1H409.4L409.4,107.1z"/>
	</g>
	<g>
		<path d="M753.1,562.3h-0.8l-0.2,0.7c0.4,0,1,0.4,0.5,0.8c-0.1,0.1-4.7,3.6-4.7,3.6l1-3.6c0.2-0.7,1-0.8,1-0.8l0.2-0.7l-5.6,0
			l-0.2,0.7c0.3,0.1,1,0.2,0.8,1.2c-1.9,6.7-1.6,6-1.8,6.4c-0.5,1.9-1.3,1.8-1.6,1.9l-0.2,0.7l0,0.1h0h5.8l0.2-0.8
			c0,0-0.9-0.2-0.7-0.9c0.2-0.7,0.9-3.3,0.9-3.3c2.6,4.1,3.2,4.8,5.4,4.9c0.8,0,1.7,0,3,0l0.2-0.8c-0.7,0-1.2-0.5-1.5-0.8
			c-0.2-0.2-0.9-1.3-1.6-2.4c-0.6-1-1.2-1.9-1.2-1.9l1.2-1l3.5-2.8c0.8-0.7,1.3-0.6,1.3-0.6l0.2-0.7L753.1,562.3z"/>
		<path d="M776.7,562.2c-0.6,0-1.2,0-1.8,0.1c-4.7,0.5-7.5,3.5-7.5,6.4c0,2.5,2,4.8,6.6,4.8c0.3,0,0.6,0,0.9,0
			c1.1-0.1,2.1-0.2,3-0.4l0.5-2.3c-0.9,0.3-2,0.5-2.9,0.6c-0.2,0-0.4,0-0.6,0c-2.1-0.2-3.5-1.6-3.5-3.3c0-1.8,1.3-3.2,3.5-3.6
			c0.4-0.1,0.8-0.1,1.2-0.1c1.4,0,2.1,0.5,2.6,1.1h0.4l0.8-2.7C779,562.4,777.9,562.2,776.7,562.2z"/>
		<path d="M764.4,562.3h-5.5l-0.2,0.7c0,0,1.1,0.1,0.8,1.2l-2.5,9.1l5,0l0.2-0.8c0,0-0.9-0.2-0.7-1.1c0-0.1,0.7-2.7,0.7-2.7l2.2,0
			h0.1c1.1,0,1.5,0.6,1.5,0.6l0.7-2.7h-2.3h-1.6l0.6-2.1h1l2.3,0c0.6,0,1,0.4,1,0.7h0.4l0.7-2.9H764.4z"/>
	</g>
	<g>
		<rect x="612.6" y="98.7" width="23.2" height="5.8"/>
		<polygon points="612.8,125.8 635.8,133.2 635.8,139.7 620.4,144.6 635.8,149.6 635.8,156 612.8,163.4 612.8,157.5 627.3,152.8 
			612.8,148.1 612.8,141.1 627.3,136.4 612.8,131.8 		"/>
		<polygon points="612.6,208.7 612.6,202.9 630.7,202.9 630.7,192.3 635.8,192.3 635.8,202.9 635.8,208.7 630.7,208.7 		"/>
		<polygon points="625.1,89.7 635.8,89.7 635.8,95.5 612.6,95.5 612.6,89.7 621.4,89.7 612.6,83 612.6,75.4 623.3,83.5 635.8,74.3 
			635.8,81.9 		"/>
		<rect x="612.6" y="67.7" width="23.2" height="5.8"/>
		<polygon points="625.1,59 635.8,59 635.8,64.8 612.6,64.8 612.6,59 621.4,59 612.6,52.2 612.6,44.7 623.3,52.8 635.8,43.6 
			635.8,51.1 		"/>
		<rect x="612.6" y="36.5" width="23.2" height="5.8"/>
		<path class="st12" d="M623.1,192.5c-6.1,0-11-4.9-11-11v-2.8c0-5,3.3-9.2,7.8-10.6v6c-2.1,1.1-3.4,3.3-3.4,5.8v0.1
			c0,3.7,3,6.6,6.6,6.6h2.4c3.7,0,6.6-3,6.6-6.6v-0.1c0-2.5-1.4-4.7-3.5-5.8v-6c4.5,1.4,7.8,5.6,7.8,10.6v2.8c0,6.1-4.9,11-11,11
			H623.1z"/>
		<path class="st12" d="M613.9,125.3c0,0-4.1-8.3-0.1-15c0,0,2.1-3.3,8.1-3.2l14-0.1v5.3h-10.7c0,0-0.8,9.2,3.3,9.4
			c4.1,0.2,3.6-3.6,3.6-3.6s-0.4-3.3-2.5-4.4h4.5c0,0,2.7,2.7,2.4,6.7c-0.3,4-3.2,6.2-3.2,6.2s-2.5,2.1-6.7,0.7
			c-4.2-1.4-4.8-6.7-4.8-6.7s-0.4-2.1-0.3-7.5c0,0-3.6-0.4-4.4,1.9c-0.7,2.4-0.1,5.9-0.1,5.9s0.8,3.3,2.6,5.7L613.9,125.3z"/>
	</g>
	<g>
		<path class="st12" d="M205.3,485.6c0.3,0,0.5,0,0.7,0.1c0.3,0.2,0.5,0.7,0.6,1c0.5,0.8,0.9,1.5,1.4,2.3c0.1,0.2,0.5,1,0.7,1
			c0.3,0.1,0.7-0.7,0.8-0.9c0.5-0.7,1-1.4,1.4-2.2c0.2-0.5,0.4-0.8,0-1.2c0,0,0,0,0,0c0.8,0,1.6,0,2.5,0c0,0,0,0,0,0
			c-0.3,0.1-0.7,0.7-0.9,1c-0.6,0.8-1.3,1.6-1.9,2.4c-0.6,0.7-1.2,1.5-1.8,2.2c-1.5,1.9-3.1,3.7-5.2,5c-0.3,0.2-0.7,0.3-1,0.4
			c-1.3,0.4-2.6,0.5-3.9,0.2c-0.2,0-0.4-0.1-0.5-0.3c-0.2-0.3,0.1-0.4,0.4-0.4c1.4,0,2.6,0,3.9-0.4c0.7-0.2,1.3-0.5,1.9-0.9
			c1.2-0.7,2.8-2.3,3.1-3.8c0.1-0.5-0.6-1.3-0.8-1.6c-0.5-0.7-0.9-1.5-1.3-2.2c-0.3-0.4-0.6-0.7-0.8-1.1c-0.2-0.3-0.5-0.4-0.7-0.6
			c0,0,0,0,0,0C204.1,485.7,204.7,485.6,205.3,485.6L205.3,485.6z M169,485.5c1.6,0.1,3,0.5,3.7,1.4c0.4,0.5,0.8,1.3,0.4,2.2
			c-0.2,0.5-0.5,0.9-0.9,1.1c-0.4,0.3-0.9,0.6-1.5,0.8c-2.4,0.8-6.7,0.7-8-0.9c-0.2-0.2-0.3-0.4-0.4-0.7c-0.2-0.6,0-1.4,0.2-1.8
			c0.5-0.9,1.4-1.3,2.5-1.6C166.3,485.5,167.7,485.4,169,485.5L169,485.5z M165.7,486.2c-0.5,0.2-0.9,0.5-1.1,1
			c-0.3,0.7-0.2,1.5,0.1,2.2c0.4,0.9,1.2,1.3,2.2,1.5c1.2,0.3,2.7,0,3.4-0.5c0.8-0.6,1-2,0.4-3c-0.5-0.9-1.5-1.3-2.8-1.4
			C167.1,485.9,166.4,485.9,165.7,486.2L165.7,486.2z M180.4,485.5c0.4,0,0.7,0,1,0.1c0.2,0.1,0.5,0.2,0.3,0.4
			c-0.2,0.3-0.7,0.3-1.1,0.2c-0.7-0.1-1.8-0.5-2.4-0.1c-0.4,0.3-0.4,1-0.4,1.7c0,0.5,0,1.1,0,1.6c0,0.4,0,0.9,0.1,1.2
			c0.1,0.3,0.2,0.4,0.4,0.6c-0.9,0-1.9,0-2.8,0c0,0,0,0,0,0c0,0,0,0,0,0c0.3-0.2,0.4-0.9,0.4-1.4c0-0.7,0-1.5,0-2.2
			c0-0.4,0-0.8,0.1-1.1c0.2-0.5,0.7-0.7,1.2-0.8C178.1,485.5,179.3,485.5,180.4,485.5L180.4,485.5z M189,485.6
			c0.3,0,0.6,0.1,0.8,0.1c0,0.2,0,0.7-0.1,0.9c-0.3-0.2-0.7-0.4-1-0.5c-0.6-0.2-1.8-0.3-2.6-0.1c-0.4,0.1-1.1,0.2-1,0.8
			c0.1,0.5,0.6,0.7,1.1,0.9c1.1,0.4,2.4,0.6,3.4,1.1c0.6,0.3,1.2,0.9,0.6,1.6c-0.5,0.6-1.5,0.8-2.5,1c-1.6,0.3-3.1,0.1-4.7-0.1
			c-0.1,0-0.3-0.1-0.3-0.1c-0.1-0.1,0-0.9,0.1-1c0.4,0.2,0.7,0.5,1.1,0.7c0.8,0.3,2.2,0.5,3.2,0.2c0.5-0.1,1.4-0.3,1.3-1.1
			c-0.1-0.6-0.8-0.8-1.4-1c-1.1-0.4-3-0.6-3.6-1.5c-0.2-0.4-0.1-0.8,0.1-1.1c0.4-0.4,1-0.5,1.6-0.6c1.1-0.2,2.3-0.2,3.4-0.1
			C188.7,485.5,188.8,485.6,189,485.6L189,485.6z M199.1,485.5c0.9,0,2.1,0,2.9,0.3c0,1.1,0,2.2,0,3.2c0,0.5-0.1,1.2,0.1,1.6
			c0.1,0.2,0.1,0.3,0.2,0.5c0,0,0.1,0.1,0.1,0.1c-0.8,0.1-1.5,0.1-2.3,0.2c0,0,0,0,0,0c-0.1-0.2-0.1-0.4-0.1-0.5
			c-0.2-0.1-0.5,0.1-0.6,0.2c-1.2,0.5-3,0.6-4.2,0.3c-1.4-0.3-2.5-0.8-3-2c-0.3-0.7,0-1.5,0.3-2c0.6-0.8,1.5-1.2,2.6-1.5
			C196.5,485.6,197.7,485.5,199.1,485.5L199.1,485.5z M196.2,486.2c-0.9,0.3-1.7,0.7-2,1.6c-0.1,0.3-0.1,0.7,0,1
			c0,0.2,0.1,0.4,0.2,0.5c0.2,0.3,0.4,0.5,0.7,0.7c0.3,0.2,0.7,0.4,1.1,0.5c1.2,0.4,3.4,0.4,3.9-0.7c0.1-0.2,0.1-0.6,0.1-0.9
			c0-0.7,0.1-2.4-0.2-2.7c-0.2-0.3-0.6-0.3-1.1-0.3C198,485.9,197.1,486,196.2,486.2L196.2,486.2z"/>
	</g>
	<g id="g10_1_" transform="matrix(1.25,0,0,-1.25,0,172)">
		<g id="g12_1_" transform="matrix(0.9991569,0,0,0.99581555,-1938.4245,-1808.7215)">
			<path id="path14_1_" d="M1990.1,1488.8c1.4,0,2.7-0.4,3.8-1.1c2.2-1.5,3.3-4.2,3.3-7.9c0-2.6-0.6-4.8-1.7-6.6
				c-1.3-2-3.1-3.1-5.3-3.1v5.5c1,0,1.8,0.4,2.3,1.3c0.5,0.8,0.7,1.7,0.7,2.8c0,1-0.2,1.8-0.6,2.6c-0.4,0.7-0.9,1.1-1.6,1.1
				c-0.8,0-1.5-1.1-2-3.2c-0.7-3.2-1.3-5.2-1.7-6.1c-1-2.2-2.6-3.3-4.8-3.3c-1.3,0-2.4,0.3-3.5,0.9c-1,0.6-1.9,1.6-2.5,3.1
				c-0.6,1.4-0.9,3-0.9,4.7c0,2.3,0.5,4.2,1.6,5.8c1.2,1.8,2.9,2.7,5.2,2.9v-5.3c-1.8-0.3-2.7-1.5-2.7-3.6c0-0.9,0.2-1.6,0.6-2.3
				c0.4-0.6,0.9-1,1.4-1c0.8,0,1.4,1.1,1.9,3.3c0.7,3.2,1.3,5.2,1.7,6.2C1986.4,1487.7,1988,1488.8,1990.1,1488.8z"/>
			<path id="path16_1_" d="M1996.5,1515.5v-5.4h-12.2c-1.4,0-2.4-0.2-3-0.6c-0.7-0.5-1-1.5-1-2.9c0-2.8,1.6-4.2,4.7-4.2h11.6v-5.4
				h-20.2v5.2h1.9c0.7,0,1.1,0,1.1,0c0,0,0,0,0,0c-1.1,0.6-2,1.5-2.6,2.7c-0.6,1.2-1,2.5-1,3.8c0,2.7,1,4.7,3.2,5.9
				c1,0.6,2.2,0.8,3.6,0.8H1996.5z"/>
			<path id="path18_1_" d="M1990.1,1535.5c1.4,0,2.7-0.4,3.8-1.1c2.2-1.5,3.3-4.2,3.3-7.9c0-2.6-0.6-4.8-1.7-6.6
				c-1.3-2-3.1-3.1-5.3-3.1v5.5c1,0,1.8,0.4,2.3,1.3c0.5,0.8,0.7,1.7,0.7,2.8c0,1-0.2,1.8-0.6,2.6c-0.4,0.7-0.9,1.1-1.6,1.1
				c-0.8,0-1.5-1.1-2-3.3c-0.7-3.2-1.3-5.2-1.7-6.1c-1-2.2-2.6-3.2-4.8-3.2c-1.3,0-2.4,0.3-3.5,0.9c-1,0.6-1.9,1.6-2.5,3.1
				c-0.6,1.4-0.9,3-0.9,4.7c0,2.3,0.5,4.2,1.6,5.8c1.2,1.8,2.9,2.7,5.2,2.9v-5.3c-1.8-0.3-2.7-1.5-2.7-3.6c0-0.9,0.2-1.6,0.6-2.3
				c0.4-0.6,0.9-1,1.4-1c0.8,0,1.4,1.1,1.9,3.3c0.7,3.2,1.3,5.2,1.7,6.2C1986.4,1534.4,1988,1535.5,1990.1,1535.5z"/>
			<path id="path20_1_" d="M1986.7,1549.2c0.4-0.5,0.8-1.5,1-2.8c0.3-1.5,0.5-2.5,0.8-3c0.5-0.9,1.3-1.4,2.5-1.4
				c1.5,0,2.3,0.8,2.3,2.4c0,0.7-0.2,1.5-0.5,2.3c-0.4,0.8-0.8,1.4-1.3,1.8c-0.7,0.5-1.6,0.8-2.9,0.8c-0.2,0-0.6,0-1,0
				C1987.2,1549.2,1986.9,1549.2,1986.7,1549.2L1986.7,1549.2z M1996.5,1554.9v-5c-0.3-0.2-0.8-0.3-1.6-0.5c1.4-1.2,2-3.2,2-6
				c0-1.9-0.4-3.4-1.3-4.7c-1-1.4-2.5-2.1-4.4-2.1c-2.8,0-4.7,1.1-5.7,3.2c-0.5,1-0.9,3-1.3,6.1c-0.3,2.2-0.9,3.3-1.7,3.3
				c-0.8,0-1.4-0.3-1.9-1c-0.5-0.6-0.7-1.4-0.7-2.3c0-0.9,0.2-1.7,0.7-2.3c0.4-0.6,1-1,1.8-1.2v-5.2c-1.4,0.2-2.6,0.6-3.5,1.2
				c-1,0.7-1.8,1.7-2.4,3.2c-0.5,1.4-0.8,2.9-0.8,4.6c0.1,5.8,2.8,8.7,8.2,8.7H1996.5L1996.5,1554.9z"/>
			<path id="path22_1_" d="M1973.7,1495.4v-5.4h-5.4v5.4H1973.7z"/>
			<path id="path24_1_" d="M1996.5,1495.4v-5.4h-10.1v5.4H1996.5z"/>
			<path id="path26_1_" d="M1997.7,1574.8c2.7,0,4.8-1,6.5-2.9c1.4-1.8,2.2-3.9,2.2-6.4c0-2.4-0.7-4.5-2.1-6.2
				c-1.6-1.9-3.8-2.8-6.5-2.8v5c1.3,0,2.3,0.4,3,1.2c0.7,0.7,1,1.5,1,2.5c0,1.1-0.4,2.1-1.1,2.9c-0.9,0.9-2,1.3-3.4,1.3h-3.1
				c0.9-0.4,1.6-1.1,2.1-2.1c0.5-1,0.8-2.1,0.8-3.4c0-2-0.6-3.7-1.7-5.1c-1.3-1.6-3.2-2.4-5.5-2.4h-13.3v5.4h12.5
				c2.5,0,3.8,1.1,3.8,3.4c0,1.2-0.4,2.2-1.1,3c-0.7,0.8-1.6,1.1-2.7,1.1h-12.5v5.3H1997.7z"/>
		</g>
	</g>
	<g>
		<polygon class="st12" points="673.1,480.6 670.3,479.3 670.3,477.1 675.7,480 675.7,481.2 670.3,484 670.3,481.9 673.1,480.6 		
			"/>
		<path class="st12" d="M671.8,467.3c0-0.8,0.6-1.2,1.2-1.2c0.7,0,1.2,0.4,1.2,1.2c0,0.8-0.5,1.2-1.2,1.2
			C672.3,468.5,671.8,468.1,671.8,467.3L671.8,467.3z M675.7,466.1v-1.9H667v1.9h3.8c-0.5,0.4-0.7,1-0.7,1.7c0,1.6,1.3,2.7,2.9,2.7
			c1.5,0,2.9-1.1,2.9-2.7c0-0.6-0.2-1.3-0.8-1.6v0H675.7L675.7,466.1z"/>
		<path class="st12" d="M671.8,460.4c0-0.8,0.6-1.2,1.2-1.2c0.7,0,1.2,0.5,1.2,1.2c0,0.8-0.5,1.2-1.2,1.2
			C672.3,461.6,671.8,461.2,671.8,460.4L671.8,460.4z M670.3,457.3v1.9h0.5c-0.5,0.4-0.7,1-0.7,1.7c0,1.6,1.3,2.7,2.9,2.7
			c1.5,0,2.9-1.1,2.9-2.7c0-0.6-0.2-1.3-0.8-1.6v0h0.6v-1.9H670.3L670.3,457.3z"/>
		<path class="st12" d="M675.7,454.2v1.9h-3.8v0.7h-1.6v-0.7h-0.7c-0.7,0-1.3,0-1.9-0.5c-0.6-0.5-0.9-1.2-0.9-1.9
			c0-0.3,0-0.6,0.2-0.8h1.6c-0.1,0.2-0.2,0.4-0.2,0.7c0,0.5,0.3,0.7,0.9,0.7h0.9v-1.3h1.6v1.3H675.7L675.7,454.2z"/>
		<path class="st12" d="M671,443.8L671,443.8c-0.6-0.5-0.9-1-0.9-1.7c0-1.4,0.9-2,2.2-2h3.3v1.9h-2.6c-0.5,0-1.4-0.1-1.4,0.9
			c0,0.8,0.6,1,1.3,1h2.8v1.9h-5.4v-1.9H671L671,443.8z"/>
		<path class="st12" d="M672.2,437.5c-0.6-0.1-0.8-0.6-0.8-1.1c0-0.5,0.3-1,0.8-1.1V437.5L672.2,437.5z M673.1,433.5
			c-1.8,0-3,1.1-3,2.9c0,1.7,1.1,3,2.9,3c1.9,0,2.9-1.3,2.9-3.1c0-1.2-0.6-2.4-1.8-2.7v1.8c0.4,0.2,0.5,0.5,0.5,0.9
			c0,0.8-0.4,1.2-1.2,1.2v-4H673.1L673.1,433.5z"/>
		<path class="st12" d="M673.1,471.2c1.7,0,3,1.4,3,3s-1.4,3-3,3c-1.7,0-3-1.4-3-3S671.5,471.2,673.1,471.2L673.1,471.2z
			 M673.1,475.9c0.9,0,1.7-0.8,1.7-1.7s-0.8-1.7-1.7-1.7c-0.9,0-1.7,0.8-1.7,1.7c-0.9-0.3-1.2-0.9-1.2-0.9c0,1.3,1,2.3,2.4,2.6
			C672.7,475.9,673.1,475.9,673.1,475.9L673.1,475.9z"/>
		<path class="st12" d="M672.9,452.4c-1.7,0-3-1.4-3-3s1.4-3,3-3c1.7,0,3,1.4,3,3S674.6,452.4,672.9,452.4L672.9,452.4z
			 M672.9,447.7c-0.9,0-1.7,0.8-1.7,1.7c0,0.9,0.8,1.7,1.7,1.7c0.9,0,1.7-0.8,1.7-1.7c0.9,0.3,1.2,0.9,1.2,0.9c0-1.3-1-2.3-2.4-2.6
			C673.3,447.7,672.9,447.7,672.9,447.7L672.9,447.7z"/>
	</g>
	<g>
		<path d="M332.3,184.8c-0.1,1.4-0.1,2.7-0.2,4c-0.2,1.6-0.7,2.2-2.3,2.3c-1.7,0.1-3.3,0.1-5,0c-1.3-0.1-2-0.9-2-2.2
			c-0.1-2.6-0.1-5.3,0-7.9c0-1.4,0.8-2.2,2.2-2.3c1.7-0.1,3.4-0.1,5,0c1.2,0.1,1.9,0.8,2.1,2.1C332.2,182.1,332.2,183.5,332.3,184.8
			z M329.7,184.9C329.7,184.9,329.7,184.9,329.7,184.9c-0.1-0.7,0-1.4-0.1-2.1c0-0.9-0.3-1.3-1.1-1.3c-0.7,0-1.5,0-2.2,0
			c-0.8,0.1-1.1,0.4-1.1,1.2c0,1.5,0,3,0,4.5c0,0.7,0.3,1,1,1c0.7,0,1.5,0,2.2,0c0.7,0,1-0.2,1-0.9
			C329.7,186.5,329.7,185.7,329.7,184.9z"/>
		<path d="M325.9,204.3c0,0.8,0,1.6,0,2.4c0,0.1-0.2,0.3-0.3,0.3c-0.4,0.1-0.6,0.3-0.6,0.7c0,1.3,0,2.6,0,3.9c0,0.2,0.2,0.5,0.3,0.6
			c0.4,0.2,0.8,0,0.8-0.6c0.1-1.5,0.1-3,0.2-4.5c0-0.5,0.1-0.9,0.1-1.4c0.2-1.1,0.8-1.8,1.9-1.9c0.7-0.1,1.4,0,2.1,0.1
			c0.9,0.1,1.5,0.8,1.6,1.7c0.1,1.7,0.2,3.4,0.2,5.1c0,0.8,0,1.7-0.2,2.5c-0.2,1.5-1.4,2.3-2.8,1.9c-0.1,0-0.3-0.2-0.3-0.4
			c0-0.7,0-1.4,0-2.1c0-0.1,0.2-0.3,0.3-0.4c0.5-0.1,0.7-0.4,0.7-0.9c0-1.3,0-2.6,0-4c0-0.4-0.1-0.8-0.6-0.8c-0.5,0-0.6,0.3-0.6,0.7
			c-0.1,1.4-0.1,2.8-0.2,4.2c0,0.6-0.1,1.1-0.1,1.7c-0.1,1-0.7,1.7-1.6,1.8c-0.7,0.1-1.4,0.1-2.1,0c-1-0.1-1.7-0.8-1.8-1.8
			c-0.2-2.4-0.3-4.8,0-7.2C323.1,204.8,323.9,203.9,325.9,204.3z"/>
		<path d="M325.7,139c0,0.8,0,1.6,0,2.4c0,0.1-0.2,0.3-0.3,0.3c-0.4,0-0.6,0.3-0.6,0.7c0,1.3,0,2.6,0,3.9c0,0.2,0.1,0.5,0.3,0.6
			c0.4,0.3,0.8,0,0.8-0.6c0.1-1.5,0.1-3.1,0.2-4.6c0-0.5,0.1-1,0.1-1.4c0.2-1,0.7-1.6,1.7-1.7c0.7-0.1,1.5-0.1,2.2,0
			c1,0.2,1.6,0.8,1.7,1.8c0.1,1.7,0.1,3.3,0.2,5c0,0.8,0,1.7-0.2,2.5c-0.3,1.7-1.2,2.1-2.8,2c-0.1,0-0.3-0.2-0.3-0.4
			c0-0.7,0-1.4,0-2.1c0-0.2,0.2-0.4,0.4-0.4c0.4-0.1,0.6-0.3,0.6-0.8c0-1.4,0-2.7,0-4.1c0-0.4-0.1-0.8-0.6-0.8
			c-0.6,0-0.6,0.4-0.7,0.7c-0.1,1.5-0.1,2.9-0.2,4.4c0,0.5,0,1-0.1,1.5c-0.1,1-0.7,1.6-1.6,1.7c-0.7,0.1-1.5,0.1-2.2,0
			c-1-0.1-1.6-0.8-1.7-1.7c-0.3-2.4-0.4-4.9,0-7.3C323,139.2,324.2,138.5,325.7,139z"/>
		<path d="M332.1,166.1c0,0.9,0,1.7,0,2.5c0,0.4-0.2,0.5-0.5,0.5c-0.2,0-0.5,0-0.7,0c-0.8,0-1.1,0.2-1.1,0.9c0,1.5,0,3.1,0,4.6
			c0.8,0,1.5,0,2.3,0c0,0.9,0,1.8,0,2.6c0,0.4-0.3,0.3-0.5,0.3c-1.5,0-3.1,0-4.6,0c-1.2,0-2.4,0-3.6,0c-0.4,0-0.5-0.1-0.5-0.5
			c0-2.9,0-5.8,0-8.7c0-1.6,0.8-2.3,2.4-2.4c0.6,0,1.1,0,1.7,0c0.8,0,1.3,0.4,1.6,1.2c0.3-1,1.1-1.1,1.9-1.1
			C330.9,166.1,331.4,166.1,332.1,166.1z M325.2,174.6c0.7,0,1.4,0,2,0c0-1.7,0-3.4,0-5.1c0-0.6-0.6-0.5-1-0.5c-0.4,0-0.9,0-0.9,0.6
			C325.2,171.2,325.2,172.9,325.2,174.6z"/>
		<path d="M329.9,200.1c0.8,0,1.5,0,2.2,0c0,0.9,0,1.8,0,2.6c0,0.1-0.3,0.3-0.5,0.3c-1.9,0-3.8,0-5.8,0c-0.8,0-1.7,0-2.5,0
			c-0.3,0-0.5-0.1-0.5-0.4c0-2.8,0-5.6,0.1-8.4c0-1.4,0.8-2.2,2.2-2.3c0.9-0.1,1.9,0,2.8,0.1c1.1,0.1,1.7,0.8,1.9,1.9
			c0.1,0.9,0.1,1.8,0.1,2.7C329.9,197.8,329.9,198.9,329.9,200.1z M327.4,200.1c0-1.5,0-2.9,0-4.4c0-0.6-0.2-0.8-0.9-0.8
			c-0.9,0-1.2,0.1-1.2,0.8c0,0.8,0,1.6,0,2.4c0,0.7,0,1.4,0,2.1C326,200.1,326.7,200.1,327.4,200.1z"/>
		<path d="M328.5,125.6c-1.8-0.8-3.5-1.6-5.2-2.4c-0.5-0.2-0.6-0.5-0.6-1c0-1.3,0-2.6,0-3.9c0-0.4,0.1-0.5,0.5-0.5
			c2.8,0,5.5,0,8.3,0c0.4,0,0.5,0.1,0.5,0.5c0,0.6,0,1.2,0,1.7c0,0.5-0.1,0.7-0.7,0.7c-1.8,0-3.7,0-5.5-0.1c-0.2,0-0.4,0-0.6,0
			c0,0.1-0.1,0.1-0.1,0.2c0.1,0.1,0.3,0.3,0.4,0.4c1.9,1,3.8,1.9,5.7,2.8c0.6,0.3,0.7,0.6,0.8,1.3c0.1,1.2-0.3,1.8-1.4,2.3
			c-1.7,0.7-3.4,1.7-5,2.5c-0.2,0.1-0.4,0.2-0.7,0.3c-0.2-0.9-0.4-1.8-0.5-2.7c0-0.1,0.2-0.3,0.4-0.4
			C326,126.8,327.2,126.2,328.5,125.6z"/>
		<path d="M325.2,158.4c1.3,0,2.5,0,3.7,0c0.8,0,1.7,0,2.5,0c0.4,0,0.6,0.1,0.6,0.6c0,0.7,0,1.3,0,2c0,0.5-0.2,0.6-0.6,0.6
			c-1.8,0-3.6,0-5.5,0c-0.6,0-0.8,0.2-0.7,0.7c0.1,1,0,1.9,0,2.9c0,0.3-0.1,0.5-0.5,0.5c-0.5,0-1,0-1.6,0c-0.3,0-0.5-0.1-0.5-0.5
			c0-3.4,0-6.9,0-10.3c0-0.4,0.2-0.5,0.5-0.5c0.5,0,1,0,1.5,0c0.4,0,0.5,0.1,0.5,0.5C325.2,156,325.2,157.1,325.2,158.4z"/>
		<path d="M327.4,153.8c-1.4,0-2.7,0-4.1,0c-0.4,0-0.6-0.1-0.6-0.6c0-0.7,0-1.3,0-2c0-0.4,0.1-0.5,0.5-0.5c2.8,0,5.6,0,8.4,0
			c0.4,0,0.5,0.1,0.5,0.5c0,0.7,0,1.4,0,2.1c0,0.4-0.2,0.5-0.5,0.5C330.1,153.8,328.7,153.8,327.4,153.8z"/>
		<path d="M328.5,137.8c-1,0-2,0-2.9,0c-0.4,0-0.6-0.1-0.5-0.6c0.1-0.7,0.1-1.4,0.1-2.1c0-0.4,0.2-0.5,0.5-0.5c1.9,0,3.8,0,5.7,0
			c0.4,0,0.5,0.2,0.5,0.5c0,0.7,0,1.3,0,2c0,0.4-0.1,0.6-0.6,0.6C330.4,137.8,329.5,137.8,328.5,137.8z"/>
		<path d="M328.5,130.6c1,0,2,0,2.9,0c0.4,0,0.6,0.1,0.6,0.5c0,0.6,0,1.3,0,1.9c0,0.3-0.1,0.5-0.5,0.5c-2,0-3.9,0-5.9,0
			c-0.3,0-0.4-0.1-0.5-0.4c0-0.6-0.1-1.3-0.2-1.9c-0.1-0.4,0.1-0.6,0.5-0.6C326.5,130.6,327.5,130.6,328.5,130.6
			C328.5,130.6,328.5,130.6,328.5,130.6z"/>
		<path d="M315.6,138.1c0.4,0.2,1.9,1,3,0.9c0-1.2-0.9-3.9-1.2-3.9C316.6,135.6,317,138,315.6,138.1
			C315.6,138,315.5,138.1,315.6,138.1z"/>
		<path d="M331.5,133.5c-2,0-3.9,0-5.9,0c-0.3,0-0.4-0.1-0.5-0.4c0-0.6-0.1-1.3-0.2-1.9c-0.1-0.4,0.1-0.6,0.5-0.6c1,0,2,0,3,0
			c0,0,0,0,0,0c1,0,2,0,2.9,0c0.4,0,0.6,0.1,0.6,0.5c0,0.6,0,1.3,0,1.9C332,133.3,331.9,133.5,331.5,133.5z"/>
		<path d="M332,137.2c0,0.4-0.1,0.6-0.6,0.6c-1,0-2,0-2.9,0c-1,0-2,0-2.9,0c-0.4,0-0.6-0.1-0.5-0.6c0.1-0.7,0.1-1.4,0.1-2.1
			c0-0.4,0.2-0.5,0.5-0.5c1.9,0,3.8,0,5.7,0c0.4,0,0.5,0.2,0.5,0.5C332,135.9,332,136.5,332,137.2z"/>
		<path d="M323.3,123.2c-0.5-0.2-0.6-0.5-0.6-1c0-1.3,0-2.6,0-3.9c0-0.4,0.1-0.5,0.5-0.5c2.8,0,5.5,0,8.3,0c0.4,0,0.5,0.1,0.5,0.5
			c0,0.6,0,1.2,0,1.7c0,0.5-0.1,0.7-0.7,0.7c-1.8,0-3.7,0-5.5-0.1c-0.2,0-0.4,0-0.6,0c0,0.1-0.1,0.1-0.1,0.2
			c0.1,0.1,0.3,0.3,0.4,0.4c1.9,1,3.8,1.9,5.7,2.8c0.6,0.3,0.7,0.6,0.8,1.3c0.1,1.2-0.3,1.8-1.4,2.3c-1.7,0.7-3.4,1.7-5,2.5
			c-0.2,0.1-0.4,0.2-0.7,0.3c-0.2-0.9-0.4-1.8-0.5-2.7c0-0.1,0.2-0.3,0.4-0.4c1.2-0.6,2.4-1.1,3.7-1.7
			C326.7,124.8,325,124,323.3,123.2z"/>
		<path d="M315.1,143.9l0.1,71.3l-1,0l-0.1-72.1c-4.5-3.9-6.6-15.3-5.7-19.7c0,0,0.3,3.4,0.5,3.2c0.2-0.2,0.2-3.3,1.7-3.7
			c0,0,1.8,12.8,4.8,15.1c0,0-2.2-1.1-4.3-4.4c0,0,3.9,9.9,8.9,10.6C320,144.1,318,145.9,315.1,143.9z"/>
		<path d="M312.7,122.1c1.3,0.1,2.9,1,2.9,1c-0.7-0.5-1.7,3-1.8,3C313.7,126.1,312.7,123.4,312.7,122.1z"/>
		<path d="M322.3,134.6c-0.2,2-0.3,2.8-1.6,3.7c-0.8-5.7-2.4-13.2-4.6-15c0,0,2.5,1.8,4.2,4.2c-1.9-4.1-4.6-9.8-9-10.6
			c0,0,1-1,2.7-0.8l0-12l0.9,0l0,12.4c3.8,1.5,8.8,9.9,8,21.3C323,137.8,322.6,134.4,322.3,134.6z"/>
		<path d="M322.8,140.6c0.3-1.5,1.4-2.1,2.9-1.6c0,0.8,0,1.6,0,2.4c0,0.1-0.2,0.3-0.3,0.3c-0.4,0-0.6,0.3-0.6,0.7c0,1.3,0,2.6,0,3.9
			c0,0.2,0.1,0.5,0.3,0.6c0.4,0.3,0.8,0,0.8-0.6c0.1-1.5,0.1-3.1,0.2-4.6c0-0.5,0.1-1,0.1-1.4c0.2-1,0.7-1.6,1.7-1.7
			c0.7-0.1,1.5-0.1,2.2,0c1,0.2,1.6,0.8,1.7,1.8c0.1,1.7,0.1,3.3,0.2,5c0,0.8,0,1.7-0.2,2.5c-0.3,1.7-1.2,2.1-2.8,2
			c-0.1,0-0.3-0.2-0.3-0.4c0-0.7,0-1.4,0-2.1c0-0.2,0.2-0.4,0.4-0.4c0.4-0.1,0.6-0.3,0.6-0.8c0-1.4,0-2.7,0-4.1
			c0-0.4-0.1-0.8-0.6-0.8c-0.6,0-0.6,0.4-0.7,0.7c-0.1,1.5-0.1,2.9-0.2,4.4c0,0.5,0,1-0.1,1.5c-0.1,1-0.7,1.6-1.6,1.7
			c-0.7,0.1-1.5,0.1-2.2,0c-1-0.1-1.6-0.8-1.7-1.7C322.5,145.5,322.4,143.1,322.8,140.6z"/>
		<path d="M323.2,154.3c0.5,0,1,0,1.5,0c0.4,0,0.5,0.1,0.5,0.5c0,1.1,0,2.3,0,3.5c1.3,0,2.5,0,3.7,0c0.8,0,1.7,0,2.5,0
			c0.4,0,0.6,0.1,0.6,0.6c0,0.7,0,1.3,0,2c0,0.5-0.2,0.6-0.6,0.6c-1.8,0-3.6,0-5.5,0c-0.6,0-0.8,0.2-0.7,0.7c0.1,1,0,1.9,0,2.9
			c0,0.3-0.1,0.5-0.5,0.5c-0.5,0-1,0-1.6,0c-0.3,0-0.5-0.1-0.5-0.5c0-3.4,0-6.9,0-10.3C322.7,154.5,322.9,154.3,323.2,154.3z"/>
		<path d="M322.7,153.3c0-0.7,0-1.3,0-2c0-0.4,0.1-0.5,0.5-0.5c2.8,0,5.6,0,8.4,0c0.4,0,0.5,0.1,0.5,0.5c0,0.7,0,1.4,0,2.1
			c0,0.4-0.2,0.5-0.5,0.5c-1.4,0-2.8,0-4.1,0c-1.4,0-2.7,0-4.1,0C322.8,153.9,322.7,153.7,322.7,153.3z"/>
		<path d="M332.1,213.3c-0.2,1.5-1.4,2.3-2.8,1.9c-0.1,0-0.3-0.2-0.3-0.4c0-0.7,0-1.4,0-2.1c0-0.1,0.2-0.3,0.3-0.4
			c0.5-0.1,0.7-0.4,0.7-0.9c0-1.3,0-2.6,0-4c0-0.4-0.1-0.8-0.6-0.8c-0.5,0-0.6,0.3-0.6,0.7c-0.1,1.4-0.1,2.8-0.2,4.2
			c0,0.6-0.1,1.1-0.1,1.7c-0.1,1-0.7,1.7-1.6,1.8c-0.7,0.1-1.4,0.1-2.1,0c-1-0.1-1.7-0.8-1.8-1.8c-0.2-2.4-0.3-4.8,0-7.2
			c0.2-1.3,1-2.2,3-1.8c0,0.8,0,1.6,0,2.4c0,0.1-0.2,0.3-0.3,0.3c-0.4,0.1-0.6,0.3-0.6,0.7c0,1.3,0,2.6,0,3.9c0,0.2,0.2,0.5,0.3,0.6
			c0.4,0.2,0.8,0,0.8-0.6c0.1-1.5,0.1-3,0.2-4.5c0-0.5,0.1-0.9,0.1-1.4c0.2-1.1,0.8-1.8,1.9-1.9c0.7-0.1,1.4,0,2.1,0.1
			c0.9,0.1,1.5,0.8,1.6,1.7c0.1,1.7,0.2,3.4,0.2,5.1C332.3,211.6,332.2,212.5,332.1,213.3z"/>
		<path d="M332.1,110.3c-0.1,1.4-0.1,2.7-0.2,4.1c-0.1,1.4-0.7,2-2.1,2.2c-1.7,0.3-3.5,0.3-5.2,0c-1.2-0.2-1.9-0.9-2-2.2
			c-0.1-2.7-0.1-5.4,0-8.1c0-1.3,0.8-2.1,2.2-2.2c1.7-0.1,3.3-0.1,5,0c1.2,0.1,2,0.8,2.1,2C332,107.6,332.1,109,332.1,110.3z
			 M329.5,110.4C329.5,110.4,329.5,110.4,329.5,110.4c0-0.8,0-1.6,0-2.5c0-0.6-0.4-0.9-1-0.9c-0.7,0-1.5,0-2.2,0
			c-0.8,0.1-1.1,0.3-1.1,1c0,1.6,0,3.2,0,4.8c0,0.5,0.3,0.9,0.9,0.9c0.8,0,1.6,0.1,2.3,0c0.8,0,1-0.3,1.1-1
			C329.5,112,329.5,111.2,329.5,110.4z"/>
	</g>
	<g>
		<path id="dm_1_" d="M127,528.1c0,3.2,4.6,5.1,7.8,5.1c1.3,0,1.9-0.3,1.9-1c0-1.8-5.3-5-8.6-5.6l-0.9-0.2
			C127.1,526.9,127,527.4,127,528.1 M140.7,524.2l0,4.7c-1.2-0.2-2.6-0.6-4.5-1.3v0.1c2.5,1.5,4.9,3.6,4.9,6.3
			c0,2.8-1.8,4.1-5.5,4.1c-6.5,0-12.5-3.4-12.5-11c0-0.4,0-0.8,0.1-1.5l-4-0.8h0c-0.1,0.8-0.3,1.9-0.3,2.9l-3.2-0.7
			c-0.2-2.4-0.4-4.9-0.3-7.8L140.7,524.2z M140.7,495.7v4.7l-10.6-1.7c-1.7-0.4-2.4-0.1-2.4,0.7c0,1.6,4.2,4.5,8.4,5.2l4.6,0.8v4.7
			l-10.6-1.8c-1.7-0.3-2.4-0.1-2.4,0.7c0,1.6,4.2,4.4,8.3,5.2l4.8,0.9v4.7l-13.3-2.5h-0.1c-0.1,0.8-0.3,1.9-0.3,2.9l-3.2-0.7
			c-0.3-2.5-0.4-4.9-0.3-7.5c1.4,0.3,2.9,0.7,4.5,1.3v-0.1c-2.7-1.6-4.7-3.2-4.7-6.3c0-2.1,1.1-3.4,3.4-3.4c0.4,0,0.9,0.1,1.6,0.3
			l0,0c-2.9-1.6-5-3.5-5-6.6c0-3.4,2.4-4.1,5.7-3.4L140.7,495.7z"/>
	</g>
	<g>
		<g>
			<path d="M862.9,625c-0.4,0-0.7,0-1.1,0c-0.3,0-0.3,0.1-0.2,0.3c0.2,0.5,0.6,0.9,1.1,1c0.4,0,0.5,0.2,0.5,0.6
				c0.1,1.2,0.3,2.4,0.8,3.6c0,0.1,0.1,0.2,0,0.3c-0.1,0.1-0.2,0-0.3,0c-1.2-0.4-2.4-0.8-3.7-0.9c-1.1-0.1-2.2,0-3.3,0.2
				c-0.5,0.1-0.5,0.1-0.4-0.4c0.2-1.3,0-2.5-0.2-3.7c-0.5-3.1,1.9-4.7,3.9-4.8c1.1-0.1,1.9,0.4,2.7,1.1c1.3,1.2,2.2,2.6,2.9,4.2
				c0.1,0.1,0.2,0.3,0,0.4c-0.3,0.1-0.6,0.1-0.7-0.2c-0.2-0.4-0.3-0.8-0.4-1.2c-0.1-0.3-0.3-0.4-0.6-0.4
				C863.6,625,863.2,625,862.9,625C862.9,625,862.9,625,862.9,625z"/>
			<path d="M852.9,629.3c0.1-0.3,0.2-0.6,0.3-0.9c0.1-0.5,0-1-0.2-1.4c-0.5-1.4-0.9-2.8-0.9-4.3c0-3,1.8-5.5,4.6-6.5
				c1.3-0.5,2.7-0.7,4.1-0.7c1.2,0,2.4,0,3.5,0.1c0.3,0,0.4,0.1,0.2,0.4c-0.4,0.8-0.7,1.5-1.1,2.3c-0.1,0.3-0.3,0.3-0.6,0.2
				c-1.2-0.5-2.5-0.6-3.8-0.5c-2.3,0.1-4.6,1.8-5.2,3.9c-0.3,1-0.2,2,0,3c0.1,0.8,0.2,1.6,0.1,2.3
				C853.8,628.1,853.4,628.7,852.9,629.3z"/>
			<path d="M859.7,618.4c0.2,0,0.5,0,0.7,0c0.2,0,0.2,0.1,0.1,0.2c-0.4,0.5-0.5,1.2-0.5,1.8c0,0.2-0.1,0.3-0.3,0.3
				c-1.4,0.2-2.5,0.9-3.4,2.1c-0.1,0.1-0.2,0.2-0.3,0c-0.5-0.4-1-0.6-1.7-0.6c-0.3,0-0.2-0.2-0.2-0.3c0.2-0.8,0.7-1.5,1.4-2.1
				C856.8,618.8,858,618.4,859.7,618.4z"/>
			<path d="M874.8,633.6l-0.1,3.9c0,0-3.4-3.6-3.5-3.5l-0.1,3.3c0.1,0.1,0.2,0.1,0.5,0.1v0.2l-1.5,0v-0.2c0.2,0,0.4,0,0.5-0.1
				c0-1,0-1.9,0.1-2.9c0-0.6,0.2-1.5-0.7-1.7c0,0,0.8,0,1.1,0l3.2,3.5l0-2.8c0-0.3,0-0.6-0.4-0.7h1.4
				C874.7,632.9,874.8,633.3,874.8,633.6z"/>
			<path d="M857.6,637.3v0.2h-1.5v-0.2c0.1,0,0.2,0,0.3-0.1c0-0.1,0-0.2-0.1-0.3c-0.3-0.9-0.6-1.8-1-2.7c0-0.1-0.1-0.3-0.2-0.4
				c0,0-0.1,0-0.1,0c-0.3,0.8-0.6,1.5-0.9,2.3c-0.1,0.2-0.2,0.5-0.3,0.7c-0.1,0.2-0.1,0.3-0.1,0.5v0c0.1,0,0.2,0,0.3,0.1v0.2h-1.5
				v-0.2c0.1,0,0.3,0,0.3-0.1c0.4-0.5,0.5-1.1,0.7-1.6c0.4-0.9,0.8-1.9,1.2-2.8c0-0.1,0.1-0.2,0.1-0.2c0.1-0.1,0.1-0.2,0.2-0.2
				c0.1,0,0.2,0.1,0.2,0.2c0.2,0.6,0.5,1.2,0.7,1.9c0.3,0.7,0.6,1.5,0.8,2.2c0,0.1,0,0.1,0.1,0.2c0,0.1,0,0.1,0.1,0.2
				c0,0.1,0.1,0.1,0.1,0.2C857.3,637.3,857.4,637.3,857.6,637.3z"/>
			<path d="M851.6,632.6c-0.7-0.2-1.4,0-2.1,0.1c0.4,0.1,0.4,0.4,0.4,0.7l-0.1,3.4c0,0.2,0,0.3,0,0.5c0,0,0,0,0,0v0
				c-0.1,0.1-0.2,0.1-0.4,0.1v0.2h1.5v-0.2c-0.2,0-0.3,0-0.4-0.1c0,0-0.1-0.1,0-0.2l0-1.6c0-0.2,0.1-0.4,0.3-0.4
				c0.3,0,0.5-0.1,0.8-0.1c0.6-0.2,1-0.8,1-1.6C852.5,633.2,852.1,632.7,851.6,632.6z M851.8,634c-0.1,0.5-0.7,0.8-1.1,0.7
				c-0.1,0-0.2-0.1-0.2-0.2l0-0.6c0,0-0.1-0.7,0.1-0.8c0.4-0.1,0.8-0.1,1.1,0.2C851.9,633.5,851.9,633.7,851.8,634z"/>
			<path d="M846.4,636.6c0.3,0.4,0.7,0.5,1.1,0.5c0.6-0.1,0.9-0.6,0.6-1.2c-0.2-0.3-0.4-0.5-0.7-0.7c-0.3-0.3-0.6-0.5-0.8-0.9
				c-0.4-0.7-0.1-1.6,0.7-1.8c0.4-0.1,0.7,0,1.1-0.1c0.3-0.1,0.4-0.2,0.4-0.2l-0.1,1.1c-0.2-0.5-0.6-0.4-1.1-0.3
				c-0.5,0.1-0.7,0.6-0.5,1c0.2,0.5,0.7,0.7,1.1,1.1c0.3,0.3,0.5,0.5,0.6,0.9c0.1,0.6-0.3,1.3-0.9,1.4c-0.4,0.1-0.7,0.1-1.1,0
				c-0.2,0-0.4-0.1-0.5,0.1C846.3,637.7,846.3,636.9,846.4,636.6z"/>
			<path d="M865.5,632.5l0,1c-0.1-0.3-0.3-0.3-0.6-0.3l-0.7,0c-0.3,0-0.4,0.1-0.4,0.4l0,3.4c0,0.1,0,0.3,0,0.4
				c0.1,0,0.2,0.1,0.4,0.1v0.2h-1.5v-0.2c0.2,0,0.3,0,0.4-0.1c0.1-0.1,0-0.3,0-0.5l0.1-3.2c0-0.3-0.1-0.4-0.4-0.4c0,0-0.7,0-0.9,0.1
				c0,0,0,0,0,0c-0.1,0-0.2,0.1-0.3,0.1c0,0,0,0,0,0c-0.1,0-0.1,0.1-0.1,0.2l0-1c0.1,0.1,0.3,0.2,0.5,0.2c0.1,0,0.6,0,0.8,0
				c0.5,0,0.9,0,1.4,0c0.3,0,0.6,0,0.9,0C865.2,632.7,865.3,632.7,865.5,632.5z"/>
			<path d="M855.4,635.1c0-0.1-0.1-0.2-0.2-0.2c-0.1,0-0.2,0.1-0.2,0.2s0.1,0.2,0.2,0.2C855.3,635.4,855.4,635.3,855.4,635.1z"/>
			<path d="M867.7,635.1c0-0.1-0.1-0.2-0.2-0.2c-0.1,0-0.2,0.1-0.2,0.2s0.1,0.2,0.2,0.2C867.6,635.4,867.7,635.3,867.7,635.1z"/>
			<path d="M869.9,637.4v0.2l-1.5,0v-0.2c0.1,0,0.2,0,0.3-0.1c0-0.1,0-0.2-0.1-0.3c-0.3-0.9-0.6-1.8-1-2.7c0-0.1-0.1-0.3-0.2-0.4
				c0,0-0.1,0-0.1,0c-0.3,0.8-0.6,1.5-0.9,2.3c-0.1,0.2-0.2,0.5-0.3,0.7c-0.1,0.2-0.1,0.3-0.1,0.5v0c0.1,0,0.2,0,0.3,0.1v0.2H865
				v-0.2c0.1,0,0.3,0,0.3-0.1c0.4-0.5,0.5-1.1,0.7-1.6c0.4-0.9,0.8-1.9,1.2-2.8c0-0.1,0.1-0.2,0.1-0.2c0.1-0.1,0.1-0.2,0.2-0.2
				c0.1,0,0.2,0.1,0.2,0.2c0.2,0.6,0.5,1.2,0.7,1.9c0.3,0.7,0.6,1.5,0.8,2.2c0,0.1,0,0.1,0.1,0.2c0,0.1,0,0.1,0.1,0.2
				c0,0.1,0.1,0.1,0.1,0.2C869.7,637.4,869.8,637.4,869.9,637.4z"/>
		</g>
		<path d="M861.7,637.4v0.2h-1.1v-0.1c0,0,0,0,0-0.1c-0.2-0.3-0.2-0.3-0.3-0.5c-0.3-0.6-0.7-1.1-1.1-1.6c-0.3-0.4-0.2-0.5,0.2-0.6
			c0.1,0,0.2-0.1,0.2-0.1c0.5-0.2,0.7-0.6,0.6-1c-0.1-0.4-0.6-0.6-1-0.5c-0.2,0-0.2,0.2-0.2,0.4c0,0.8,0,1.5,0,2.3
			c0,0.4,0,0.7,0,1.1c0,0.2,0,0.4,0.1,0.5c0.1,0,0.2,0,0.4,0.1v0.2h-1.5v-0.2c0.2,0,0.3,0,0.4-0.1v0c0.1-0.1,0-0.3,0-0.5
			c0-1.2,0-2.3,0-3.5c0-0.2,0-0.5-0.3-0.6c0.7,0,1.4-0.2,2.1,0c0.8,0.2,0.9,1.3,0.3,1.9c0,0-0.1,0.1-0.1,0.1
			c-0.5,0.4-0.5,0.4-0.2,0.9c0.3,0.4,0.5,0.8,0.8,1.1c0.1,0.1,0.2,0.2,0.2,0.4c0,0,0,0,0,0c0.1,0.1,0.2,0.2,0.3,0.2
			C861.5,637.4,861.6,637.4,861.7,637.4z"/>
	</g>
	<g>
		<path d="M160.5,217.9c-0.2-0.4-0.4-0.6-0.6-0.9c-0.1,0.1-0.1,0.2-0.3,0.5c-0.1-0.5-0.2-0.9-0.2-1.2c0-0.4,0-0.8,0-1.1
			c-0.1,0-0.2,0-0.2,0c-0.1,0.7-0.2,1.4-0.2,2.2c-0.7-0.8-0.6-1.8-0.5-2.7c-0.5,1.3-0.8,2.6-0.4,4c-0.1,0-0.1,0-0.2,0.1
			c-0.2-0.5-0.4-0.9-0.5-1.4c-0.1-0.5,0-1.1,0.1-1.6c0.1-0.5,0.3-1,0.4-1.5c-0.9,1.7-1.7,3.4-1.7,5.3c-0.5-2,0.1-3.7,0.9-5.5
			c-1,1.2-1.8,2.5-1.8,4.1c-0.3-0.6-0.3-0.6-0.1-2.4c-0.3,0.6-0.5,1.2-0.7,1.7c-0.3-1.3,0-2.3,0.8-3.3c-0.8,0.2-1.5,1-2.1,2.3
			c-0.1,0-0.1,0-0.2-0.1c0.2-0.6,0.4-1.1,0.7-1.8c-0.8,0.6-1.2,1.3-1.5,2.1c-0.1,0-0.1,0-0.2-0.1c0.2-0.7,0.4-1.5,0.5-2.2
			c0,0-0.1,0-0.1-0.1c-0.3,0.5-0.6,1-0.8,1.5c-0.1-0.5,0.1-1.4,0.7-2.1c0.5-0.6,1.2-1,1.8-1.6c-0.5,0-1.1,0.1-1.7,0.1
			c0.8-0.4,1.6-0.5,2.4-0.4c1,0.1,2,0.2,3,0.1c0.6,0,1.3-0.2,1.9-0.5c0.8-0.5,1.4-1.1,1.4-2.2c0-2,0.1-3.9,0.8-5.8
			c0.6-1.6,1.6-2.8,3.1-3.6c0.1-0.1,0.3-0.1,0.3-0.3c0.8-1.3,1.9-2.3,3.2-3c-0.6-0.3-1.1-0.6-1.7-0.9c0,0,0.1-0.1,0.1-0.1
			c0.4,0.1,0.9,0.1,1.3,0.2c0,0,0-0.1,0-0.1c-0.3-0.3-0.7-0.5-1.1-0.9c0.6,0.1,1,0.2,1.6,0.3c-0.3-0.4-0.5-0.7-0.7-0.9
			c0,0,0.1,0,0.1-0.1c0.3,0.2,0.6,0.3,0.8,0.5c0,0,0.1-0.1,0.1-0.1c-0.1-0.1-0.2-0.3-0.3-0.5c2.1-0.2,2.2-0.2,2.2,1.3
			c0.5,0,0.9,0.1,1.6,0.1c-0.3,0.3-0.5,0.4-0.6,0.5c0.4,0.4,0.8,0.8,1.2,1.3c0.6,0.6,0.6,1.2,0,1.8c-0.5,0.5-1.1,0.5-1.8,0.3
			c0.1,0.6,0.1,1.1,0.2,1.5c0.1,0.7,0,1.4-0.3,2.1c-0.3,0.8-0.4,1.7-0.5,2.5c0,0.1,0.1,0.1,0.1,0.2c0.5,0.8,0.9,0.9,1.7,0.3
			c0.4-0.3,0.8-0.6,1.3-0.8c0.7-0.4,0.8-0.8,0.5-1.6c-0.1-0.2-0.1-0.5-0.1-0.7c0.1,0.2,0.2,0.3,0.4,0.6c0-0.6,0-1.1,0-1.6
			c0.1,0,0.1,0,0.2,0c0.1,0.7,0.3,1.4,0.4,2.2c0.3-0.6,0.5-1.1,0.8-1.7c0,0.7,0.2,1.3-0.3,1.9c-0.3,0.3-0.6,0.8-0.3,1.3
			c-0.2,0.3-0.4,0.6-0.6,0.8c0,0,0-0.1,0-0.2c-0.1-0.2-0.2-0.4-0.2-0.7c-0.3,0.2-0.6,0.3-0.7,0.5c-0.2,0.2-0.2,0.6-0.3,1
			c0-0.3-0.1-0.4-0.1-0.8c-0.8,0.5-1.5,1-2.2,1.5c0.6,0.7,1.3,0.8,2.1,0.3c0.4-0.3,0.9-0.5,1.3-0.6c1.1-0.4,1.4-1.3,1.5-2.3
			c0-0.2,0-0.4,0.1-0.6c0.1,0,0.1,0,0.2,0c0,0.7,0,1.4,0,2.3c0.3-0.5,0.6-0.9,0.8-1.3c0.1,0.6,0,1.2-0.6,1.5
			c-0.2,0.1-0.3,0.5-0.4,0.7c-0.1,0.7-0.1,1.4-0.2,2.1c-0.1,0-0.1,0-0.2,0c0-0.7-0.1-1.4-0.1-2.1c-1,0.2-1.8,0.7-2.3,1.6
			c0-0.2,0-0.3,0.1-0.6c-0.3,0.1-0.6,0.2-0.9,0.3c-1,0.5-1.9,1-3,1.2c-0.5,0.1-0.9,0.7-1.4,1.1c0.1,0,0.2,0.1,0.4,0.1
			c-0.4,0.3-0.8,0.6-1.2,0.9c0,0,0,0.1,0,0.1c0.3-0.1,0.7-0.2,1-0.2c0,0,0,0,0,0.1c-0.5,0.3-1,0.5-1.6,0.8c0.4,0,0.8,0,1.1,0
			c0,0,0,0.1,0,0.1c-0.4,0.1-0.9,0.2-1.3,0.3c0,0,0,0,0,0.1c0.4,0,0.8,0,1.2,0c0,0.1,0,0.1,0,0.2c-0.7,0.1-1.3,0.2-2.2,0.3
			c0.6,0.2,1.1,0.3,1.5,0.5c0,0,0,0.1,0,0.1c-0.6,0-1.2-0.1-1.9-0.1c0.1,0.1,0.1,0.2,0.2,0.3c-0.7-0.1-1.4-0.1-2.1-0.2
			c0.4,1,1.2,1.5,4,2.4c-0.5,0-1,0-1.5-0.1c-0.5-0.1-1-0.2-1.5-0.2c0.6,0.3,1.1,0.5,1.7,0.8c0,0.1,0,0.1-0.1,0.2
			c-1.4-0.4-2.7-0.8-4.2-1.2c0.4,0.4,0.7,0.8,1,1.2c0,0,0,0.1,0,0.1c-0.5-0.3-1-0.6-1.6-1c0.2,0.4,0.4,0.7,0.5,1c0,0,0,0.1,0,0.1
			c-0.4-0.3-0.8-0.6-1.3-1C160.4,217.1,160.4,217.4,160.5,217.9z"/>
		<path d="M160.1,107.4c-0.8,0-1.6,0-2.3,0c-0.2,0-0.5,0.2-0.5,0.4c-0.2,0.7-0.7,0.5-1.1,0.4c-0.1,0-0.3-0.4-0.3-0.7
			c0-1.1,0-2.2,0-3.4c0-0.6,0.2-0.8,0.8-0.8c5.5,0,11.1,0,16.6,0c0.6,0,1-0.1,1.3-0.7c0.1-0.2,0.7-0.2,1-0.2c0.1,0,0.2,0.4,0.2,0.5
			c0,1.4,0,2.8,0,4.2c-0.3,0-0.6,0.1-1,0.1c0.2,0.2,0.3,0.4,0.4,0.5c1.4,1.8,1,3.8-1,4.8c-1.4,0.7-2.9,0.9-4.4,1
			c-2.6,0.1-5.2,0.1-7.8-0.5c-0.7-0.2-1.4-0.5-1.9-0.9c-1.4-1-1.6-2.5-0.8-4C159.5,108.2,159.8,107.9,160.1,107.4z M167.3,107.4
			c-1.8,0-3.5,0-5.3,0c-0.5,0-0.7,0.2-0.8,0.7c-0.2,0.4,0,0.8,0.4,1c0.3,0.2,0.7,0.3,1.1,0.3c3.3,0,6.6,0,9.9,0c0.1,0,0.3,0,0.4,0
			c0.3-0.2,0.8-0.5,0.9-0.7c0-0.3-0.3-0.8-0.5-1.1c-0.1-0.1-0.4-0.1-0.7-0.1C170.8,107.4,169,107.4,167.3,107.4z"/>
		<path d="M175.5,176.5c-2,2.4-3.4,2.2-5.6-0.9c-0.1,0.2-0.2,0.4-0.3,0.6c-2.6,2.6-7.4,2.4-9.7-0.5c-1-1.2-1.2-2.5-1-4
			c0.1-0.4,0.1-0.8-0.4-1c-0.5-0.2-0.7,0.1-0.9,0.5c-0.3,0.4-0.6,0.7-1.2,0.6c-0.6-0.1-0.7-0.6-0.8-1.1c0-0.1,0-0.1,0-0.2
			c0-0.7,0-1.4,0.7-1.8c0.7-0.4,1.3-0.1,1.9,0.3c0.5,0.3,0.9,0.7,1.4,1.1c0.1-0.1,0.2-0.2,0.2-0.3c1.9-2.5,5.1-2.9,7.7-2
			c2.2,0.7,4.2,3.2,3.4,6.1c-0.2,0.7-0.2,1.3,0.4,1.8c0.4,0.4,0.9,0.3,1.1-0.2c0.1-0.3,0.1-0.5,0.1-0.8c0-1.6,0-3.1,0.1-4.7
			c0.1-1.2,0.6-2.3,1.9-2.7c1.6-0.5,3.2,0.1,3.8,1.7c0.3,0.7,0.5,1.5,0.6,2.3c0.2,1.8,0.2,3.5-0.3,5.3c-0.1,0.4-0.3,0.7-0.5,1
			c-0.5,0.7-1.5,0.7-2,0C175.9,177.2,175.7,176.8,175.5,176.5z M165,171.7C165,171.7,165,171.7,165,171.7c-1,0-2.1,0-3.1,0
			c-0.3,0-0.6,0-0.9,0.2c-0.7,0.3-0.7,1.1-0.1,1.4c0.4,0.2,0.9,0.3,1.3,0.3c2,0,4,0,5.9,0c0.3,0,0.6-0.1,0.9-0.2
			c0.6-0.3,0.7-1.1,0.1-1.5c-0.3-0.2-0.6-0.2-1-0.2C167.1,171.7,166,171.7,165,171.7z M175.9,172.5
			C175.9,172.5,175.9,172.5,175.9,172.5c0,0.7,0,1.4,0,2.2c0,0.5,0.3,0.9,0.8,1c0.5,0.1,0.8-0.3,0.8-0.8c0.1-1,0.2-2,0.2-3
			c0-0.6-0.2-1.3-0.4-1.8c-0.1-0.3-0.6-0.5-0.8-0.5c-0.2,0-0.5,0.5-0.5,0.8C175.8,171,175.9,171.8,175.9,172.5z"/>
		<path d="M160.7,121.5c-0.2-0.1-0.4-0.2-0.6-0.4c-0.7-0.8-1.2-1.6-1.2-2.7c0-1.6,1-2.7,2.6-2.7c1.8,0,3.6,0,5.4,0
			c2.1,0,4.2,0,6.3,0c0.4,0,0.8-0.3,1.1-0.4c0.4-0.1,0.8-0.2,1.3-0.2c0.1,0,0.3,0.3,0.3,0.5c0,1,0,2,0,3c0,0.2-0.2,0.6-0.4,0.6
			c-0.4,0.2-0.9,0.4-1.4,0.4c-3.8,0-7.6,0-11.4,0c-0.4,0-1,0.2-1.1,0.4c-0.1,0.4,0.1,0.9,0.2,1.3c0.1,0.2,0.4,0.3,0.6,0.3
			c3.7,0,7.4,0,11.1,0c0.3,0,0.6-0.2,0.8-0.4c0.4-0.4,0.8-0.4,1.2-0.3c0.2,0,0.4,0.4,0.4,0.7c0,1.3,0,2.6,0,3.9
			c0,0.2-0.1,0.7-0.2,0.7c-0.4,0-0.9,0.1-1.2-0.1c-0.4-0.4-0.9-0.5-1.4-0.5c-3.9,0-7.8,0-11.7,0c-0.4,0-0.8,0.1-1.1,0.4
			c-0.2,0.2-0.7,0.2-1.1,0.2c-0.1,0-0.2-0.4-0.2-0.6c0-1.1,0-2.2,0-3.4c0-0.5,0.2-0.7,0.6-0.6c0.3,0,0.6,0,0.9,0
			C160.5,121.7,160.6,121.6,160.7,121.5z"/>
		<path d="M174.5,184.1c0.1,0.1,0.3,0.4,0.5,0.6c1.8,1.7,1.5,4.9-1.7,5.4c-1.7,0.3-3.3,0.3-5,0c-1-0.2-1.9-0.7-2.3-1.7
			c-0.6-1.2-1.2-2.5-1.7-3.8c-0.2-0.6-0.6-0.9-1.2-0.8c-0.6,0.1-1.2,0-1.8,0.1c-0.4,0-0.7,0.2-0.8,0.7c-0.1,0.5,0.1,1,0.6,1.1
			c0.4,0.1,0.8,0.2,1.2,0.2c1,0.1,1.4,0.3,1.7,1.3c0.1,0.3,0.1,0.6,0.1,0.9c0.1,1.4-0.7,2-2.1,1.8c-1.5-0.3-2.3-1.3-2.7-2.7
			c-0.5-1.6-0.4-3.2,0.1-4.8c0.5-1.6,1.9-2.5,3.5-2.5c3.5,0,7.1,0,10.6,0c0.3,0,0.7-0.2,0.9-0.4c0.6-0.4,1.3-0.3,1.5,0.4
			c0.3,0.9,0.4,1.9,0,2.8C175.5,183.2,175,183.6,174.5,184.1z M165.6,183.9c0.2,0.9,0.8,1.8,1.5,1.8c1.9,0.1,3.7,0.1,5.6,0.1
			c0.5,0,0.8-0.4,0.8-0.8c0-0.5-0.3-0.8-0.8-0.9c-0.4-0.1-0.7-0.1-1.1-0.1c-1.8,0-3.6,0-5.4,0C166,183.9,165.8,183.9,165.6,183.9z"
			/>
		<path d="M174.4,132.3c0.3,0.3,0.6,0.6,0.8,0.9c1.4,1.5,1.3,4.5-1.6,5.1c-1.9,0.4-3.7,0.4-5.6,0c-0.8-0.2-1.4-0.6-1.8-1.3
			c-0.6-1.1-1.2-2.3-1.7-3.5c-0.6-1.4-0.6-1.4-2.1-1.4c-0.4,0-0.8-0.1-1.1,0c-0.3,0.1-0.7,0.3-0.8,0.6c-0.2,0.4-0.1,1,0.5,1.2
			c0.4,0.2,0.8,0.2,1.2,0.2c1.5,0.1,2.5,2,1.7,3.3c-0.3,0.6-1.3,0.8-2.2,0.6c-1.4-0.4-2.1-1.4-2.5-2.7c-0.5-1.5-0.4-3.1,0.1-4.7
			c0.5-1.7,1.8-2.6,3.6-2.6c3.5,0,7,0,10.5,0c0.4,0,0.8-0.1,1.1-0.4c0.4-0.5,1.2-0.2,1.4,0.4C176.5,129.8,176,131.3,174.4,132.3z
			 M165.6,132.2c0.2,1.1,0.8,1.8,1.8,1.8c1.5,0.1,3.1,0.1,4.7,0.1c1,0,1.5-0.4,1.5-1c0-0.6-0.5-1-1.6-1c-1.6,0-3.3,0-4.9,0
			C166.5,132.2,166.1,132.2,165.6,132.2z"/>
		<path d="M167.1,146.6c1.8,0,3.5,0.2,5.1,0.8c1.1,0.4,2.1,1.1,2.9,2c1.4,1.8,1.3,4.2-0.3,5.8c-1.3,1.3-2.9,1.9-4.6,2.1
			c-2.5,0.3-4.9,0.3-7.3-0.5c-1.8-0.6-3.3-1.6-3.8-3.4c-0.7-2.3,0.4-4.6,2.8-5.8C163.5,146.7,165.3,146.6,167.1,146.6z M167.3,151.1
			c-1.8,0-3.5,0-5.3,0c-0.4,0-0.7,0-1,0.1c-0.3,0.1-0.6,0.5-0.6,0.7c0,0.3,0.3,0.7,0.5,0.8c0.4,0.2,0.9,0.3,1.3,0.3
			c3.5,0,6.9,0,10.4,0c0.4,0,0.9-0.1,1.3-0.2c0.3-0.1,0.6-0.5,0.6-0.7c0-0.3-0.3-0.7-0.5-0.8c-0.4-0.2-0.9-0.2-1.3-0.2
			C170.9,151,169.1,151.1,167.3,151.1z"/>
		<path d="M155.9,140.5c0.4,0,0.7,0,1,0c5.4,0,10.9,0,16.3,0c0.5,0,0.9,0,1.3-0.5c0.2-0.2,0.7-0.2,1.1-0.1c0.1,0,0.3,0.4,0.3,0.7
			c0,1.3,0,2.6,0,3.9c0,0.3-0.1,0.8-0.2,0.8c-0.4,0-1.1,0.1-1.3-0.2c-0.4-0.4-0.8-0.5-1.3-0.5c-4.9,0-9.7,0-14.6,0
			c-0.5,0-0.8,0.1-1.2,0.5c-0.2,0.3-0.8,0.3-1.2,0.3c-0.1,0-0.3-0.5-0.3-0.8C155.9,143.1,155.9,141.9,155.9,140.5z"/>
		<path d="M162.1,161.5c-0.3-0.1-0.6-0.2-1-0.3c-0.5-0.2-1-0.4-1.5-0.6c-0.5-0.3-0.8-0.8-0.7-1.4c0-0.6,0.4-0.9,0.9-1
			c1-0.4,1.9-0.4,2.9-0.1c0.4,0.1,0.8,0.4,0.8,0.9c0.1,0.5-0.2,0.8-0.6,1.1c-0.2,0.1-0.3,0.4-0.5,0.6c0.2,0.2,0.5,0.3,0.7,0.4
			c0.2,0.1,0.4,0,0.6,0c3.2,0,6.4,0,9.6,0c0.5,0,0.8-0.1,1.1-0.5c0.3-0.5,0.9-0.4,1.4-0.3c0.1,0,0.2,0.3,0.2,0.4c0,1.5,0,3,0,4.6
			c0,0.2-0.2,0.5-0.3,0.5c-0.4,0-0.9,0.1-1.2-0.2c-0.4-0.3-0.7-0.4-1.2-0.4c-3.9,0-7.8,0-11.7,0c-0.5,0-0.8,0.1-1.2,0.5
			c-0.2,0.2-0.7,0.2-1,0.2c-0.2,0-0.3-0.4-0.3-0.7c0-0.9,0-1.9,0-2.8c0-0.5,0.2-0.6,0.6-0.6c0.8,0,1.6,0,2.4,0
			C162,161.6,162,161.5,162.1,161.5z"/>
		<path d="M156.1,99.6c0,2-1.7,3.7-3.7,3.8c-2,0-3.7-1.7-3.8-3.7c0-2,1.7-3.8,3.7-3.8C154.4,95.9,156.1,97.6,156.1,99.6z
			 M155.6,99.6c0-1.7-1.4-3.2-3.2-3.2c-1.7,0-3.2,1.5-3.2,3.2c0,1.8,1.4,3.2,3.2,3.2C154.2,102.8,155.6,101.4,155.6,99.6z"/>
		<path d="M178.3,197.3c0,0,0.2,0,0.2,0.1c0.5,1.1,0.5,2.4,0.2,3.5c-0.2,0.6-0.3,1.2-0.3,1.8c-0.2,3.3-0.3,6.7-0.5,10
			c0,0.7,0,1.3-0.1,2C177.7,209,177.7,203.1,178.3,197.3z"/>
		<path d="M154.2,100.5c0,0.3,0,0.5,0,0.7c-1.2,0-2.3,0-3.5,0c0-0.9-0.1-1.7,0-2.6c0-0.2,0.5-0.6,0.7-0.6c0.3,0,0.6,0.2,0.9,0.4
			c0.1,0.1,0.2,0.3,0.2,0.5c0.5-0.4,1-0.8,1.5-1.2c0.2,0.5,0.1,0.9-0.3,1.2c-0.3,0.2-0.7,0.5-0.9,0.8c-0.1,0.2-0.2,0.5-0.2,0.7
			c0,0.1,0.3,0.2,0.5,0.2C153.5,100.5,153.8,100.5,154.2,100.5z M152.1,99.7c0-0.4,0.1-0.9-0.5-0.9c-0.6,0-0.5,0.6-0.6,1
			c0,0.4-0.1,0.8,0.5,0.8C152.3,100.5,152.1,100.1,152.1,99.7z"/>
	</g>
	<g>
		<path d="M534.1,158.1c-0.6,0-1.2,0-1.8,0c-0.3,0-0.5-0.1-0.6-0.4c-1-3.2-1.7-6.3-1.9-9.6c-0.2-3,0.4-5.9,1.1-8.8
			c0.3-1.1,0.6-2.1,0.9-3.1c0-0.2,0.3-0.4,0.4-0.4c1.4,0,2.8-0.1,4.2,0c2,0.2,3.6,1.2,5,2.5c2.4,2.3,4,5.2,5.3,8.3
			c0.1,0.2,0.1,0.4,0,0.6c-1.2,3-2.8,5.9-5.1,8.2c-1.4,1.4-3.1,2.4-5.1,2.7C535.6,158.1,534.1,158.1,534.1,158.1z M539.6,154.9
			c0.1,0,0.1,0,0.2,0c0.2-0.8,0.5-1.5,0.7-2.3c0.6-2.2,0.8-4.3,0.1-6.5c-0.6-1.8-2.1-2.1-3.4-0.8c-1.1,1.1-1.8,2.4-2.4,3.9
			c-0.2,0.5-0.4,1.1-0.6,1.7c-1.3-0.9-1.4-2.4-2-3.6c0,2.1,0.2,4.1,1,6.1c0.2,0.5,0.4,0.9,0.7,1.3c0.4,0.5,1.1,0.4,1.4-0.1
			c0.9-1.3,1-2.8,1.3-4.3c-0.1-0.1-0.1-0.1-0.2-0.1c-0.7,0.6-1.4,1.3-2,1.9c0.3-0.8,1.9-2.4,2.8-2.7c0.9-0.2,1.7,0.1,2,1
			c0.2,0.5,0.4,1,0.4,1.5C539.6,152.8,539.6,153.9,539.6,154.9z M533.1,142.9c2.1-2.2,3.9-2.7,4.7-1.4c-0.6,0.2-1.4,0.3-1.9,0.7
			c-0.7,0.5-1.3,1.1-2,1.7c-0.7,0.6-0.9,1.4-0.7,2.3c0.1,0.8,0.3,1.5,0.5,2.2c0,0.1,0.1,0.2,0.2,0.5c0.1-0.3,0.1-0.4,0.2-0.6
			c0.4-1.4,1-2.7,2-3.8c1.4-1.5,3.1-1.5,4.5-0.1c0.3,0.3,0.5,0.5,0.7,0.8c-0.4-1.6-0.8-3.3-1.7-4.7c-0.4-0.7-1-1.3-1.6-1.8
			c-0.4-0.3-1-0.5-1.6-0.6C534.6,138.2,532.7,140.8,533.1,142.9z"/>
		<path d="M541,158.1c4.7-2.3,7.2-6.4,9.3-10.8c0.1-0.2,0.1-0.5,0-0.7c-1.3-2.9-2.9-5.6-5.1-7.8c-1.2-1.3-2.6-2.3-4.2-3
			c3.5-0.5,6.2,0.8,8.5,3.3c2,2.2,3.4,4.7,4.5,7.5c0.1,0.2,0.1,0.5,0,0.7c-1.1,2.9-2.6,5.5-4.8,7.7C547,157.4,545.1,158.1,541,158.1
			z"/>
		<path d="M543.8,172.8c0,0.7,0,1.3,0,1.9c0,0.2-0.2,0.3-0.3,0.4c-0.6,0.4-1.2,0.9-1.7,1.3c-0.1,0.1-0.3,0.3-0.3,0.5
			c0,0.9,0,1.8,0,2.8h2.3v1.7c-2.3,0-4.5,0-6.8,0c0,0-0.1-0.1-0.1-0.1c0-2,0-3.9,0-5.9c0-1.2,0.7-2,1.7-2.2c1.2-0.2,1.9,0.2,2.6,1.4
			c0,0,0.1,0,0.1,0.1C542.2,174.1,542.9,173.5,543.8,172.8z M538.5,179.7h1.4c0-1.4,0-2.7,0-4c0-0.4-0.2-0.7-0.7-0.7
			c-0.4,0-0.7,0.3-0.7,0.7C538.5,177,538.5,178.3,538.5,179.7z"/>
		<path d="M542.5,211c-0.3-0.2-0.6-0.5-0.9-0.7c-0.1-0.1-0.1-0.2,0-0.3c0.8-1.3,1-2.7,0.8-4.2c0,0,0,0,0,0c-0.3-2.7-1.1-2.7-1.4,0
			c0,0.1,0,0.2,0,0.3c-0.1,0.9-0.1,1.9-0.2,2.8c0,0.3-0.1,0.5-0.2,0.8c-0.5,1.3-2.1,1.6-2.9,0.4c-0.4-0.6-0.7-1.4-0.8-2.2
			c-0.2-1.6-0.1-3.1,0.7-4.5c0.1-0.1,0.1-0.3,0.3-0.4c0.1-0.1,0.3-0.1,0.4,0c0.3,0.3,0.5,0.5,0.7,0.8c0.1,0.1,0.1,0.4,0,0.5
			c-0.5,1.2-0.7,2.5-0.5,3.8c0,0.2,0.1,0.6,0.4,0.7c0.2,0.1,0.4-0.2,0.5-0.4c0.1-0.9,0.1-1.8,0.3-2.6c0.1-0.7,0.2-1.3,0.4-2
			c0.6-1.5,2.4-1.7,3.3-0.4c0.3,0.5,0.6,1.1,0.7,1.7c0.3,2,0.2,3.9-0.9,5.7c0,0.1-0.1,0.1-0.1,0.2
			C542.7,211.1,542.6,211.1,542.5,211z"/>
		<path d="M542.7,117.6c-0.4-0.3-0.8-0.6-1.2-1c0.9-1.3,1.1-2.8,0.9-4.3c0-0.3-0.1-0.6-0.2-0.9c-0.1-0.2-0.4-0.5-0.5-0.5
			c-0.2,0-0.4,0.3-0.5,0.5c-0.1,0.4-0.1,0.9-0.2,1.3c-0.1,0.9-0.1,1.7-0.2,2.6c0,0.3-0.1,0.6-0.2,0.8c-0.5,1.2-2.2,1.4-2.9,0.3
			c-0.4-0.6-0.6-1.3-0.8-2c-0.3-1.5-0.1-3,0.6-4.4c0.1-0.2,0.3-0.5,0.4-0.7c0.1,0.1,0.1,0.1,0.2,0.1c0.7,0.5,1,1,0.6,2
			c-0.5,1-0.4,2.2-0.2,3.3c0,0.1,0.1,0.2,0.2,0.3c0.1,0.2,0.4,0.2,0.5,0c0.1-0.1,0.1-0.2,0.1-0.3c0.1-1.1,0.2-2.2,0.4-3.3
			c0.1-0.4,0.2-0.8,0.3-1.2c0.6-1.3,2.3-1.6,3.2-0.5c0.3,0.3,0.5,0.8,0.6,1.2c0.5,1.9,0.4,3.9-0.4,5.7
			C543.1,116.9,542.9,117.2,542.7,117.6z"/>
		<path d="M543.8,93.5h-6.9c0-0.7,0-1.5,0-2.2c0-0.1,0.2-0.3,0.4-0.4c1.5-1.3,3-2.6,4.6-3.9H537v-1.8h6.9c0,0.7,0,1.4,0,2.1
			c0,0.2-0.2,0.3-0.3,0.4c-1.4,1.2-2.7,2.4-4.1,3.5c-0.1,0.1-0.3,0.3-0.5,0.5h5V93.5z"/>
		<path d="M536.7,187.7c0-1.2,0.3-2.2,0.9-3.2c1.2-1.8,3.8-2,5.2-0.4c1.6,1.8,1.6,5.3,0,7.2c-1.4,1.6-4,1.4-5.2-0.3
			C537,190,536.7,188.9,536.7,187.7z M542.5,187.8c0-0.7-0.2-1.5-0.6-2.1c-0.7-1.1-2.3-1.1-3,0c-0.8,1.1-0.8,3.1,0,4.2
			c0.8,1.1,2.4,1.1,3.1-0.1C542.3,189.1,542.5,188.5,542.5,187.8z"/>
		<path d="M544,100c0,1-0.3,2.1-1,3.1c-1.2,1.7-3.8,1.9-5.1,0.3c-1.8-2-1.6-5.8,0.4-7.6c1.4-1.2,3.5-0.9,4.7,0.6
			C543.7,97.3,544,98.4,544,100z M542.4,100.6c0.2-0.6,0.2-1.2,0-1.7c-0.1-0.4-0.2-0.8-0.5-1.1c-0.7-1.2-2.2-1.2-3.1-0.1
			c-0.8,1.1-0.8,3.1,0,4.2c0.8,1.1,2.4,1.1,3.1-0.1C542.1,101.4,542.3,101,542.4,100.6z"/>
		<path d="M541.5,199.6h2.3v1.7h-6.9l0-0.5c0-1.7,0-3.5,0-5.2c0-0.6,0.2-1.2,0.4-1.7c0.4-0.8,1.3-1.1,2.2-1c0.9,0.1,1.5,0.7,1.7,1.6
			c0.1,0.6,0.1,1.2,0.2,1.8C541.5,197.4,541.5,198.5,541.5,199.6z M539.9,199.5c0-1.3,0-2.6,0-3.9c0-0.4-0.1-0.9-0.7-0.9
			c-0.6,0-0.7,0.4-0.7,0.9c0,1.1,0,2.3,0,3.4l0,0.4H539.9z"/>
		<path d="M536.9,131c0-0.6,0-1.2,0-1.7c0-0.2,0.2-0.4,0.4-0.5c1.4-0.8,2.8-1.6,4.2-2.4c0.2-0.1,0.3-0.2,0.5-0.3
			c-1.6-0.9-3.1-1.8-4.6-2.6c-0.4-0.2-0.6-0.5-0.6-1c0-0.4,0-0.8,0-1.3c0.4,0.2,0.6,0.3,1,0.6c1.6,1.1,3.7,2.2,5,2.9
			c0.7,0.3,0.9,0.5,0.9,1.1c0.1,0.9-0.3,1.4-1.1,1.9C540.8,128.6,538.9,129.8,536.9,131z"/>
		<polygon points="538.5,169.2 538.5,172.4 536.9,172.4 536.9,164.2 538.5,164.2 538.5,167.4 543.8,167.4 543.8,169.2 		"/>
		<rect x="537" y="118.7" width="6.8" height="1.7"/>
		<rect x="537" y="106" width="6.8" height="1.7"/>
	</g>
</g>
<rect id="SepsiGF10" x="15.7" y="94" class="st2" width="72.6" height="131.6"/>
<rect id="SepsiGF09" x="90.4" y="94" class="st2" width="35.3" height="131.6"/>
<rect id="SepsiGF08" x="127.3" y="94" class="st2" width="72.9" height="131.6"/>
<rect id="SepsiGF07" x="202.3" y="94" class="st2" width="77.7" height="131.6"/>
<polygon id="SepsiGF06" class="st2" points="282.2,94 282.2,225.6 360.2,225.6 360.2,15.2 321.2,15.2 321.2,43.9 320,43.9 320,94 
	"/>
<rect id="SepsiGF05" x="362.1" y="15.2" class="st2" width="68.6" height="210.4"/>
<polygon id="SepsiGF04" class="st2" points="433.3,15.2 433.3,225.6 512.6,225.6 512.6,68.9 582.9,68.9 582.9,15.2 "/>
<polygon id="SepsiGF03" class="st2" points="514.7,225.6 514.7,72 585,72 585,15.2 591.4,15.2 591.4,76.9 561.6,76.9 561.6,225.6 
	"/>
<polygon id="SepsiGF01_x5F_02" class="st2" points="593.8,15.2 593.8,79.6 564.1,79.6 564.1,225.6 660.4,225.6 660.4,15.2 "/>
<polygon id="SepsiGF11" class="st2" points="15.9,427.2 15.9,651.4 130.3,651.4 130.3,591.9 101.1,591.9 101.1,427.2 "/>
<polygon id="SepsiGF12" class="st2" points="103.6,427.2 103.6,589 132.9,589 132.9,651.4 155.1,651.4 155.1,427.2 "/>
<rect id="SepsiG43_x5E_T01" x="156.9" y="443.3" class="st2" width="62.7" height="23.4"/>
<polygon id="SepsiG40" class="st2" points="156.9,468.9 156.9,532.4 205.4,532.4 205.4,507.1 219.6,507.1 219.6,468.9 "/>
<polygon id="SepsiG42" class="st2" points="156.9,534.4 156.9,588.5 219.6,588.5 219.6,509.6 207.5,509.6 207.5,534.5 "/>
<polygon id="SepsiG44" class="st2" points="274.8,524.8 232.7,524.8 232.7,651.4 273.7,651.4 "/>
<polygon id="SepsiG39_x5F_40" class="st2" points="275.8,524.8 275.8,651.4 301.4,651.4 301.4,652.3 331.7,652.3 331.7,552.5 
	315.3,552.5 315.3,524.8 "/>
<rect id="SepsiG41" x="317.3" y="524.8" class="st2" width="14.4" height="25.4"/>
<polygon id="SepsiG00" class="st2" points="333.4,524.8 333.4,754.1 411.7,754.1 411.7,772 752.6,829.8 779.9,820.8 752.6,732.8 
	766.2,724.8 753,681.1 753,598.9 732.1,598.9 732.1,539.5 689.3,539.5 689.3,524.8 "/>
<rect id="SepsiG39" x="690.8" y="524.8" class="st2" width="51.7" height="12.5"/>
<polygon id="SepsiG37" class="st2" points="744.2,524.8 744.2,537.3 787.9,537.3 787.9,531.5 779.9,524.8 "/>
<rect id="SepsiG34" x="733.5" y="539.1" class="st2" width="54.4" height="57.6"/>
<polygon id="SepsiG35" class="st2" points="787.9,598.7 765.5,598.7 765.5,648.4 819.6,648.4 819.6,601.6 787.9,601.6 "/>
<rect id="SepsiG33" x="821.3" y="601.2" class="st2" width="16.5" height="47.2"/>
<polygon id="SepsiG32" class="st2" points="839.2,648.4 877.7,648.4 890.7,636.9 865.2,601.2 839.2,601.2 "/>
<polygon id="SepsiG31" class="st2" points="866.9,600.8 892,635.7 907.8,621.8 878.8,589.6 "/>
<polygon id="SepsiG30" class="st2" points="880.1,588.8 908.9,620.7 925.5,605.9 896.1,574.2 "/>
<polygon id="SepsiG29" class="st2" points="897.2,573 927,605 940.7,592.7 910.7,560.8 "/>
<polygon id="SepsiG28" class="st2" points="912.1,559.6 941.8,591.5 955.3,579.6 925.5,547 "/>
<polygon id="SepsiG26" class="st2" points="878.3,428.6 878.3,489.1 931.4,489.1 937.3,484.1 886,428.6 "/>
<rect id="SepsiG22" x="824.7" y="428.6" class="st2" width="52.2" height="20"/>
<rect id="SepsiG25" x="859.8" y="450.3" class="st2" width="17" height="38.8"/>
<rect id="SepsiG23" x="824.7" y="450.6" class="st2" width="33.5" height="20.6"/>
<polygon id="SepsiG24" class="st2" points="858.2,472.9 824.7,472.9 824.7,482.7 831,488.8 858.2,488.8 "/>
<polygon id="SepsiG21_x5E_T02" class="st2" points="788.2,428.6 736.9,428.6 736.9,453.6 756.1,453.6 756.1,457.7 788.2,457.7 "/>
<polygon id="SepsiG20" class="st2" points="788.2,459.5 788.2,483 782.3,488.9 756.3,488.9 756.3,459.5 "/>
<rect id="SepsiG17" x="736.9" y="455.3" class="st2" width="17.8" height="33.6"/>
<polygon id="SepsiG14" class="st2" points="735.2,428.6 681.2,428.6 681.2,438.2 700.6,438.2 700.6,488.9 735.2,488.9 "/>
<rect id="SepsiG13" x="681.2" y="440" class="st2" width="17.5" height="48.7"/>
<rect id="SepsiG19" x="663.4" y="428.6" class="st2" width="15.9" height="60.3"/>
<rect id="SepsiG18" x="645.5" y="455.3" class="st2" width="16" height="33.5"/>
<polygon id="SepsiG12" class="st2" points="661.5,453.4 661.5,428.6 618.1,428.6 618.1,488.9 643.9,488.9 643.9,453.5 "/>
<rect id="SepsiG10" x="588.2" y="457.7" class="st2" width="17" height="31.2"/>
<polygon id="SepsiG11" class="st2" points="605.2,456.1 605.2,428.6 525.1,428.6 525.1,448.4 544.4,448.4 544.4,488.8 586.2,488.8 
	586.2,455.8 "/>
<rect id="SepsiG16" x="525.1" y="450.2" class="st2" width="17.6" height="38.6"/>
<rect id="SepsiG15" x="497.3" y="428.6" class="st2" width="26" height="60.3"/>
<polygon id="SepsiG07" class="st2" points="495.4,428.6 479.3,428.6 479.3,449.9 463.8,449.9 463.8,488.9 495.4,488.9 "/>
<polygon id="SepsiG09" class="st2" points="477.6,428.6 477.6,447.9 461.7,447.9 461.7,488.8 416.5,488.8 416.5,454.9 396.2,454.9 
	396.2,428.6 "/>
<rect id="SepsiG08" x="396.2" y="456.6" class="st2" width="18.5" height="32.3"/>
<rect id="SepsiG06" x="352.5" y="428.6" class="st2" width="31.3" height="60.2"/>
<rect id="SepsiG05" x="327.6" y="428.6" class="st2" width="23.1" height="60.3"/>
<rect id="SepsiG04" x="308.7" y="428.6" class="st2" width="17.2" height="60.2"/>
<rect id="SepsiG03" x="286" y="428.6" class="st2" width="21" height="60.3"/>
<rect id="SepsiG01" x="255.2" y="428.6" class="st2" width="29.1" height="38.1"/>
<polygon id="SepsiG02" class="st2" points="255.2,468.9 255.2,484.3 260.8,488.8 284.3,488.8 284.3,468.9 "/>
</svg>
