<?xml version="1.0" encoding="utf-8"?>
<!-- Generator: Adobe Illustrator 25.4.1, SVG Export Plug-In . SVG Version: 6.00 Build 0)  -->
<svg version="1.1" id="Layer_5" xmlns="http://www.w3.org/2000/svg" xmlns:xlink="http://www.w3.org/1999/xlink" x="0px" y="0px"
	 viewBox="0 0 1008.6 524.8" style="enable-background:new 0 0 1008.6 524.8;" xml:space="preserve">
<style type="text/css">
	.st0{fill:#F1F2F2;}
	.st1{fill:#F1F2F2;stroke:#000000;stroke-width:2;stroke-miterlimit:10;}
	.st2{fill:none;stroke:#000000;stroke-width:2;stroke-miterlimit:10;}
	.st3{fill:#231F20;}
	.st4{fill:none;stroke:#000000;stroke-miterlimit:10;}
</style>
<g id="cladire">
	<polygon class="st0" points="748.5,524.8 651.1,500.7 637.9,450.8 645.5,409.9 604.4,409.9 604.4,480.4 497.1,499.3 381,470.6 
		381,409.9 348.7,409.9 348.7,425.1 335,457.7 195,424.6 201.1,410.6 2.4,362.7 60.2,71 185.1,71 185.1,0 606.8,0 606.8,39.9 
		1008.6,71.2 1008.6,326 957.9,326 957.9,330.7 913.3,464.8 919.8,468.5 900.5,524.8 	"/>
	<polygon class="st1" points="8.2,359 64.3,76 190.1,76 190.1,5 601.8,5 601.8,44.6 1003.6,75.8 1003.6,321 952.9,321 952.9,329.9 
		907.2,467.1 913.7,470.7 896.9,519.8 749.1,519.8 655.2,496.5 643,450.6 651.5,404.9 599.4,404.9 599.4,476.2 497.3,494.2 
		386,466.7 386,404.9 343.7,404.9 343.7,424.1 332,451.9 202,421.1 208,407.1 	"/>
</g>
<g id="magazine">
	<polyline class="st2" points="151.7,393.9 171.1,317.6 147.1,250.1 229.7,136.2 229.7,74.5 210.3,74.5 210.3,93.4 172.1,93.4 
		172.1,76 	"/>
	<polyline class="st2" points="147.1,250.1 112.7,250.1 112.7,164.1 73.9,164.1 55.5,250 60.7,250 44.8,326.3 53.7,328.2 
		54.4,334.5 35.8,334.6 31.3,356.4 36.1,357.4 34.5,365.5 	"/>
	<line class="st2" x1="54.4" y1="334.5" x2="166.9" y2="334.5"/>
	<polyline class="st2" points="44.8,326.3 23,321.9 22.2,325.3 14.2,323.6 	"/>
	<line class="st2" x1="73.9" y1="164.1" x2="48.7" y2="158.5"/>
</g>
<g id="logo">
	<g>
		<path d="M57.8,202.4c0.1-0.7,0.3-1.4,0.4-2.2c0.3,0,0.6,0.1,0.9,0.1c0.1-0.3,0.1-0.5,0.2-0.8c0-0.1,0-0.1,0-0.2
			c0-0.1-0.1-0.2-0.3-0.3c-0.5-0.1-0.9-0.2-1.4-0.3c-0.2,0-0.3-0.1-0.5-0.1c0,0.1,0.1,0.2,0.1,0.3c0.1,0.2,0.1,0.4,0,0.6
			c-0.1,0.5-0.2,1.1-0.3,1.6c-0.1,0.6-0.7,0.9-1.2,0.8c-1.8-0.4-3.6-0.7-5.4-1.1c-0.5-0.1-0.9-0.6-0.8-1.2c0.1-0.4,0.1-0.8,0.2-1.2
			c0.1-0.4,0.3-0.7,0.6-1c0,0,0.1-0.1,0.2-0.1c-0.2,0-0.3-0.1-0.5-0.1c0.2-0.8,0.3-1.5,0.5-2.3c0,0,0.1,0,0.1,0
			c3.1,0.6,6.3,1.3,9.4,1.9c0.6,0.1,0.9,0.6,0.8,1.2c-0.2,1.1-0.4,2.2-0.7,3.3c0,0.2-0.1,0.3-0.1,0.5c-0.1,0.4-0.6,0.8-1.1,0.8
			C58.7,202.6,58.2,202.5,57.8,202.4z M51.6,197.7c-0.1,0.3-0.1,0.5-0.2,0.8c0,0.1,0,0.1,0.1,0.2c1.4,0.3,2.9,0.6,4.3,0.9
			c0,0,0.1,0,0.1,0c0.1-0.3,0.1-0.6,0.2-0.9C54.6,198.3,53.1,198,51.6,197.7z"/>
		<path d="M38,296.2c-3.6-0.7-7.2-1.4-10.8-2.2c0,0,0-0.1,0-0.1c0.3-1.4,0.6-2.9,0.9-4.3c0.1-0.3,0.1-0.5,0.2-0.8
			c0.1-0.6,0.7-0.9,1.3-0.8c1.3,0.3,2.6,0.5,3.9,0.8c0.4,0.1,0.8,0.1,1.1,0.2c0.6,0.1,1,0.7,0.9,1.2c-0.1,0.5-0.2,0.9-0.3,1.4
			c-0.1,0.3-0.1,0.6-0.2,0.9c0,0.2,0.1,0.4,0.3,0.5c0.3,0.1,0.6,0.1,0.9,0.2c0.7,0.1,1.4,0.3,2.2,0.4c0,0,0.1,0,0.1,0
			C38.3,294.6,38.1,295.4,38,296.2z M29.1,291.7c0.2,0,0.3,0.1,0.4,0.1c1.3,0.3,2.7,0.5,4,0.8c0.1,0,0.1,0,0.1-0.1
			c0-0.2,0.1-0.5,0.1-0.7c0,0,0-0.1,0-0.1c-1.5-0.3-3-0.6-4.5-0.9C29.2,291.1,29.2,291.4,29.1,291.7z"/>
		<path d="M38.2,259.5c-0.4-0.1-0.9-0.2-1.3-0.3c-0.3-0.1-0.6-0.1-0.9-0.1c-0.2,0-0.3,0-0.4,0.2c-0.1,0.2-0.1,0.4-0.1,0.6
			c0,0.3,0,0.4,0.3,0.5c2.4,0.5,4.8,1,7.2,1.4c0,0,0.1,0,0.1,0c0.2,0.1,0.4-0.1,0.5-0.3c0.1-0.2,0.1-0.4,0.1-0.6
			c0-0.2-0.1-0.3-0.3-0.4c-0.8-0.2-1.5-0.3-2.3-0.5c0,0-0.1,0-0.1,0c0.2-0.8,0.3-1.5,0.5-2.3c0,0,0.1,0,0.1,0c1,0.2,2,0.4,3,0.6
			c0.6,0.1,1,0.6,0.9,1.2c-0.1,0.7-0.3,1.4-0.4,2.1c-0.1,0.5-0.2,1.1-0.3,1.6c0,0.2-0.1,0.4-0.2,0.6c-0.3,0.4-0.6,0.5-1.1,0.4
			c-0.5-0.1-0.9-0.2-1.4-0.3c-2.5-0.5-5-1-7.5-1.5c-0.5-0.1-0.9-0.6-0.9-1.1c0-0.2,0.1-0.4,0.1-0.6c0.2-1.2,0.5-2.3,0.7-3.5
			c0.1-0.6,0.7-0.9,1.3-0.8c0.9,0.2,1.8,0.4,2.8,0.5c0.1,0,0.1,0,0.1,0.1C38.5,258,38.3,258.8,38.2,259.5
			C38.2,259.5,38.2,259.5,38.2,259.5z"/>
		<path d="M41.7,239.2c0.2-0.8,0.3-1.5,0.5-2.3c0.2,0,0.3,0.1,0.5,0.1c0,0,0,0,0-0.1c-0.2-0.3-0.3-0.6-0.2-1
			c0.1-0.5,0.2-1.1,0.3-1.6c0.1-0.5,0.6-0.8,1.1-0.7c0.4,0.1,0.8,0.1,1.1,0.2c1.4,0.3,2.8,0.6,4.2,0.8c0.3,0.1,0.5,0.1,0.7,0.4
			c0.2,0.3,0.3,0.6,0.3,0.9c-0.1,0.5-0.2,1.1-0.3,1.6c-0.1,0.3-0.2,0.5-0.4,0.7c0,0,0,0,0,0c0.9,0.2,1.8,0.4,2.7,0.5
			c-0.2,0.8-0.3,1.5-0.5,2.3C48.3,240.5,45,239.9,41.7,239.2z M43.9,236.2c0,0.1-0.1,0.3-0.1,0.4c0,0.1,0,0.3-0.1,0.4
			c0,0.1,0,0.2,0.1,0.2c0.1,0,0.2,0,0.2,0.1c1.3,0.3,2.7,0.5,4,0.8c0,0,0,0,0.1,0c0.1-0.3,0.1-0.6,0.2-0.9
			C46.9,236.8,45.4,236.5,43.9,236.2z"/>
		<path d="M40.8,243.7c0.2,0,0.3,0.1,0.5,0.1c0-0.1-0.1-0.1-0.1-0.2c-0.2-0.3-0.2-0.7-0.1-1.1c0.1-0.4,0.2-0.9,0.3-1.3
			c0.1-0.5,0.7-0.8,1.2-0.7c1.7,0.3,3.4,0.7,5,1c0.2,0,0.4,0.1,0.6,0.2c0.4,0.2,0.6,0.6,0.6,1.1c-0.1,0.6-0.2,1.1-0.3,1.7
			c0,0.2-0.2,0.4-0.3,0.6c0,0-0.1,0.1-0.1,0.1c0.9,0.2,1.8,0.4,2.7,0.5c-0.2,0.8-0.3,1.5-0.5,2.3c0,0-0.1,0-0.1,0
			c-3.2-0.6-6.4-1.3-9.6-1.9c-0.1,0-0.1,0-0.1-0.2c0.1-0.7,0.3-1.4,0.4-2.1C40.8,243.8,40.8,243.7,40.8,243.7z M47,243.8
			c-1.5-0.3-3-0.6-4.5-0.9c-0.1,0.3-0.1,0.6-0.2,0.9c1.5,0.3,3,0.6,4.5,0.9C46.9,244.5,47,244.2,47,243.8z"/>
		<path d="M53.2,217.9c0.1,0,0.3,0.1,0.4,0.1c0,0,0,0.1,0,0.1c-0.1,0.7-0.3,1.3-0.4,2c0,0.2,0,0.2-0.2,0.1c-3-0.6-6-1.2-9-1.8
			c-0.2,0-0.4-0.1-0.6-0.1c-0.1,0-0.1,0-0.1-0.1c0.1-0.7,0.3-1.4,0.4-2.2c0,0,0,0,0-0.1c0.9,0.2,1.8,0.4,2.7,0.5
			c0-0.1-0.1-0.2-0.1-0.3c0-0.2,0-0.4,0-0.6c0.1-0.5,0.2-1.1,0.3-1.6c0.1-0.6,0.6-0.9,1.2-0.8c0.5,0.1,1.1,0.2,1.6,0.3
			c1.3,0.3,2.5,0.5,3.8,0.8c0.5,0.1,0.9,0.6,0.8,1.2c-0.1,0.4-0.1,0.8-0.2,1.2c-0.1,0.3-0.2,0.7-0.4,0.9
			C53.4,217.7,53.3,217.8,53.2,217.9z M52.3,217.6c0.1-0.3,0.1-0.6,0.2-0.9c-1.5-0.3-3-0.6-4.5-0.9c-0.1,0.3-0.1,0.6-0.2,0.9
			C49.3,217,50.8,217.3,52.3,217.6z"/>
		<path d="M39.6,272.9c1,0.2,2,0.4,2.9,0.6c0,0,0,0.1,0,0.1c-0.1,0.7-0.3,1.4-0.4,2.1c0,0.1,0,0.1-0.2,0.1c-1.4-0.3-2.8-0.6-4.2-0.8
			c-1.8-0.4-3.6-0.7-5.4-1.1c0,0-0.1,0-0.1,0c0.2-0.8,0.3-1.5,0.5-2.3c1.8,0.4,3.6,0.7,5.4,1.1c0,0,0,0,0,0c0,0-0.1-0.1-0.1-0.1
			c-0.8-0.6-1.6-1.2-2.4-1.8c-0.1-0.1-0.1-0.1-0.1-0.2c0.1-0.6,0.2-1.2,0.4-1.8c0,0,0-0.1,0-0.1c1,0.8,2,1.5,3,2.3
			c0-0.1,0-0.1,0-0.1c0.1-0.2,0.1-0.5,0.2-0.7c0.2-0.5,0.6-0.8,1.1-0.7c1,0.2,2,0.4,3.1,0.6c0,0,0.1,0,0.1,0
			c-0.2,0.8-0.3,1.5-0.5,2.3c0,0-0.1,0-0.1,0c-0.5-0.1-1.1-0.2-1.6-0.3c-0.3-0.1-0.5-0.1-0.8-0.1c-0.2,0-0.4,0.1-0.5,0.4
			c0,0.1-0.1,0.2-0.1,0.4C39.7,272.6,39.6,272.8,39.6,272.9z"/>
		<path d="M48.4,227.5c0,0.1,0,0.1,0,0.1c-0.2,1-0.4,2.1-0.6,3.1c0,0.1,0,0.1,0.1,0.2c0.6,0.1,1.1,0.2,1.7,0.3c0,0,0,0,0.1,0
			c0-0.2,0.1-0.5,0.1-0.7c0-0.2,0-0.2-0.2-0.3c-0.2-0.1-0.3-0.1-0.5-0.1c-0.1,0-0.3-0.1-0.4-0.1c0.2-0.8,0.3-1.6,0.5-2.4
			c0,0,0,0,0,0c0.5,0.1,1,0.2,1.5,0.3c0.5,0.1,0.8,0.6,0.7,1.1c-0.1,0.4-0.1,0.7-0.2,1.1c-0.2,0.9-0.4,1.8-0.6,2.7
			c-0.1,0.6-0.7,0.9-1.2,0.8c-1.8-0.4-3.6-0.7-5.3-1.1c-0.6-0.1-0.9-0.6-0.8-1.2c0.2-1.3,0.5-2.6,0.8-3.8c0.1-0.5,0.6-0.9,1.2-0.8
			c1,0.2,2.1,0.4,3.1,0.6C48.4,227.5,48.4,227.5,48.4,227.5z M45,230.4C45.1,230.4,45.1,230.4,45,230.4c0.4,0.1,0.8,0.2,1.2,0.3
			c0.1,0,0.2,0,0.2-0.1c0.1-0.2,0.1-0.5,0.2-0.7c0,0,0,0,0,0c-0.4-0.1-0.9-0.2-1.3-0.3c0,0-0.1,0-0.1,0
			C45.2,229.8,45.1,230.1,45,230.4z"/>
		<path d="M37.6,285.6c0.2-0.8,0.3-1.6,0.5-2.4c0,0,0,0,0,0c0.5,0.1,1,0.2,1.5,0.3c0.5,0.1,0.8,0.6,0.7,1.2
			c-0.3,1.3-0.5,2.6-0.8,3.9c-0.1,0.5-0.7,0.8-1.2,0.7c-0.8-0.2-1.7-0.3-2.5-0.5c-1-0.2-1.9-0.4-2.9-0.6c-0.5-0.1-0.9-0.6-0.8-1.2
			c0.2-0.8,0.3-1.7,0.5-2.5c0.1-0.4,0.2-0.9,0.3-1.3c0.1-0.5,0.5-0.8,1-0.8c0.1,0,0.2,0,0.3,0c1,0.2,2,0.4,3,0.6c0,0,0,0,0.1,0
			c-0.2,1.1-0.4,2.2-0.7,3.4c0.6,0.1,1.3,0.3,1.9,0.4c0.1-0.3,0.2-0.5,0.2-0.8c0,0,0-0.1-0.1-0.1c-0.1-0.1-0.2-0.1-0.4-0.1
			c-0.2,0-0.3-0.1-0.5-0.1C37.7,285.6,37.7,285.6,37.6,285.6z M34.1,284.9c-0.1,0.3-0.1,0.6-0.2,0.9c0.5,0.1,0.9,0.2,1.4,0.3
			c0.1-0.3,0.1-0.6,0.2-0.9C35.1,285.1,34.6,285,34.1,284.9z"/>
		<path d="M43.8,247.8c0.9,0.2,1.8,0.4,2.7,0.5c0.5,0.1,0.9,0.6,0.8,1.2c-0.2,1.2-0.5,2.5-0.7,3.7c-0.1,0.5-0.6,0.9-1.2,0.8
			c-1.8-0.4-3.6-0.7-5.3-1.1c-0.5-0.1-0.8-0.5-0.8-0.9c0-0.1,0-0.2,0-0.3c0.2-0.8,0.3-1.7,0.5-2.5c0.1-0.4,0.2-0.7,0.2-1.1
			c0.1-0.6,0.7-1,1.3-0.9C42.1,247.5,43,247.7,43.8,247.8z M41,250.7c1.5,0.3,3,0.6,4.5,0.9c0.1-0.3,0.1-0.5,0.1-0.7
			c0-0.2,0-0.2-0.2-0.2c-0.1,0-0.2,0-0.4-0.1c-1-0.2-2-0.4-3-0.6c-0.3-0.1-0.6-0.1-0.9-0.2c0,0-0.1,0-0.1,0
			C41.1,250.1,41,250.4,41,250.7z"/>
		<path d="M38.7,276.1c-0.2,1.1-0.4,2.2-0.7,3.3c0.6,0.1,1.3,0.3,1.9,0.4c0.1-0.3,0.1-0.6,0.2-0.9c-0.4-0.1-0.7-0.1-1.1-0.2
			c0.2-0.8,0.3-1.6,0.5-2.4c0,0,0,0,0,0c0.5,0.1,1,0.2,1.5,0.3c0.4,0.1,0.7,0.6,0.7,1c0,0.1,0,0.1,0,0.2c-0.2,1.2-0.5,2.5-0.7,3.7
			c-0.1,0.6-0.7,0.9-1.3,0.8c-1.8-0.4-3.5-0.7-5.3-1.1c-0.5-0.1-0.8-0.5-0.9-1c0-0.1,0-0.2,0-0.3c0.3-1.3,0.5-2.5,0.8-3.8
			c0.1-0.5,0.6-0.9,1.2-0.8C36.5,275.7,37.6,275.9,38.7,276.1C38.6,276.1,38.7,276.1,38.7,276.1z M36.9,278.3
			C36.9,278.3,36.9,278.3,36.9,278.3c-0.5-0.1-0.9-0.2-1.3-0.3c-0.1,0-0.1,0-0.1,0.1c-0.1,0.3-0.1,0.5-0.2,0.8c0,0.1,0,0.1,0.1,0.1
			c0.2,0,0.4,0.1,0.6,0.1c0.2,0,0.5,0.1,0.7,0.1C36.8,278.9,36.8,278.6,36.9,278.3z"/>
		<path d="M47.1,212.1c0.1-0.7,0.3-1.4,0.4-2.2c0,0,0.1,0,0.1,0c1.8,0.4,3.7,0.7,5.5,1.1c0.1,0,0.2,0.1,0.3,0c0.1,0,0.1-0.1,0.2-0.2
			c0.1-0.2,0.1-0.4,0.1-0.6c0-0.3,0-0.4-0.3-0.5c-1.8-0.4-3.7-0.7-5.5-1.1c0,0-0.1,0-0.1,0c0.2-0.8,0.3-1.5,0.5-2.3
			c2.5,0.5,4.9,1,7.4,1.5c-0.2,0.8-0.3,1.5-0.5,2.3c-0.1,0-0.3-0.1-0.4-0.1c0,0,0,0,0,0c0.3,0.4,0.3,0.8,0.2,1.3
			c-0.1,0.4-0.2,0.9-0.3,1.3c-0.1,0.5-0.7,0.8-1.2,0.7c-2.1-0.4-4.2-0.8-6.3-1.3C47.2,212.1,47.2,212.1,47.1,212.1z"/>
		<path d="M44.4,225.6c0.2-0.8,0.3-1.5,0.5-2.3c0.2,0,0.3,0.1,0.5,0.1c0,0,0-0.1,0-0.1c-0.2-0.4-0.3-0.8-0.2-1.2
			c0.1-0.4,0.2-0.8,0.3-1.2c0.1-0.6,0.6-0.9,1.2-0.8c1.4,0.3,2.7,0.5,4.1,0.8c0.7,0.1,1.4,0.3,2.2,0.4c0.1,0,0.1,0,0.1,0.1
			c-0.1,0.6-0.3,1.3-0.4,1.9c0,0,0,0.1,0,0.1c-0.1,0-0.1,0-0.1,0c-1.3-0.3-2.5-0.5-3.8-0.8c-0.6-0.1-1.2-0.2-1.8-0.3
			c-0.2,0-0.4,0-0.4,0.3c-0.1,0.2-0.1,0.4-0.1,0.6c0,0.2,0.1,0.3,0.3,0.4c1.9,0.4,3.7,0.7,5.6,1.1c0,0,0.1,0,0.1,0
			c-0.2,0.8-0.3,1.5-0.5,2.3C49.4,226.6,46.9,226.1,44.4,225.6z"/>
		<path d="M35.7,255.7c0.2-0.8,0.3-1.5,0.5-2.3c3.3,0.7,6.6,1.3,10,2c-0.2,0.8-0.3,1.5-0.5,2.3C42.4,257,39.1,256.4,35.7,255.7z"/>
		<path d="M56.4,204.4c-0.2,0.8-0.3,1.5-0.5,2.3c-2.5-0.5-4.9-1-7.4-1.5c0,0,0-0.1,0-0.1c0.1-0.7,0.3-1.4,0.4-2.1
			c0-0.1,0-0.1,0.1-0.1c0.4,0.1,0.7,0.2,1.1,0.2c0,0,0.1,0,0.1,0c0,0-0.1-0.1-0.1-0.1c-0.3-0.3-0.6-0.6-0.8-1
			c-0.1-0.3-0.2-0.5-0.2-0.8c0,0,0,0,0-0.1c0.8,0.2,1.7,0.3,2.5,0.5c0,0.1,0,0.1-0.1,0.2c-0.1,0.4-0.1,0.7-0.1,1.1c0,0,0,0.1,0,0.1
			c0,0.3,0.1,0.4,0.4,0.5c0.8,0.1,1.6,0.3,2.3,0.5C54.9,204.1,55.6,204.3,56.4,204.4C56.3,204.4,56.3,204.4,56.4,204.4z"/>
		<path d="M41.2,267.3c-0.3,0.1-0.5,0.1-0.8,0.2c-0.3,0.1-0.5,0-0.8-0.1c-0.3-0.1-0.5-0.4-0.5-0.8c0-0.4,0.1-0.7,0.3-1
			c0.3-0.3,0.7-0.3,1.2-0.1c0.3,0.2,0.6,0.4,0.8,0.7c0.1,0.1,0.1,0.1,0.2,0c0.3-0.1,0.6-0.3,0.9-0.4c-0.1-0.1-0.1-0.2-0.2-0.3
			c0.2-0.1,0.4-0.2,0.7-0.3c0.1,0.1,0.1,0.2,0.2,0.3c0.3-0.2,0.7-0.3,1-0.5c0,0.1,0,0.1,0,0.2c0,0.2-0.1,0.4-0.1,0.6
			c0,0,0,0.1-0.1,0.1c-0.1,0.1-0.3,0.2-0.5,0.2c0,0.1,0.1,0.2,0.1,0.3c0.1,0.2,0.2,0.4,0.2,0.6c0,0.7-0.6,1.4-1.3,1.2
			c-0.4-0.1-0.7-0.3-0.9-0.6C41.4,267.7,41.3,267.5,41.2,267.3z M42.8,266.6c-0.3,0.1-0.7,0.3-1,0.4c0.1,0.2,0.3,0.4,0.4,0.6
			c0.2,0.1,0.4,0.1,0.5,0c0.2-0.1,0.3-0.3,0.2-0.5C43,266.9,42.9,266.8,42.8,266.6z M40.8,266.7c-0.2-0.2-0.4-0.4-0.6-0.5
			c-0.1,0-0.3-0.1-0.4,0.1c-0.1,0.1-0.2,0.2-0.1,0.4c0,0.2,0.2,0.2,0.3,0.3C40.3,267,40.5,266.8,40.8,266.7z"/>
	</g>
	<g>
		<path class="st3" d="M115.4,111.6c0,2.3-1.5,4.4-5,4.4h-2.1v4.7h-2.7v-13.6h5C114,107.1,115.4,109.3,115.4,111.6z M112.6,111.6
			c0-1-0.7-1.9-2-1.9h-2.3v3.9h2.2C112,113.5,112.6,112.5,112.6,111.6z"/>
		<path class="st3" d="M117.2,115.7v-8.6h2.7v8.5c0,1.9,1.1,2.7,2.6,2.7c1.5,0,2.5-0.9,2.5-2.7v-8.5h2.8v8.6c0,3.6-2.5,5.2-5.3,5.2
			C119.6,121,117.2,119.3,117.2,115.7z"/>
		<path class="st3" d="M130.7,107.1h2.7v11h6.9v2.6h-9.7V107.1z"/>
		<path class="st3" d="M141,118.4l1.6-1.9c0.9,1.2,2.2,1.9,3.6,1.9c1.1,0,2-0.6,2-1.5c0-0.7-0.5-1.1-1.2-1.4c-0.9-0.4-2-0.7-2.9-1.3
			c-1.2-0.7-2.2-1.7-2.2-3.4c0-2.2,1.9-4,4.6-4c1.6,0,3.2,0.6,4.5,1.8l-1.5,2c-0.8-0.8-2-1.3-3-1.3c-1.1,0-1.8,0.5-1.8,1.3
			c0,0.7,0.6,1.1,1.1,1.3c0.7,0.3,2.1,0.8,3,1.3c1.3,0.6,2.3,1.7,2.3,3.4c0,2.4-2,4.1-5,4.1C144,120.9,142.1,120.1,141,118.4z"/>
		<path class="st3" d="M153.3,107.1h9.2v2.5H156v2.9h6v2.5h-6v3.1h6.5v2.5h-9.2V107.1z"/>
		<path class="st3" d="M101,129.2h9.1v2.6h-6.4v3.1h5.6v2.6h-5.6v5.4H101V129.2z"/>
		<path class="st3" d="M114.9,129.2v13.6h-2.7v-13.6H114.9z"/>
		<path class="st3" d="M116.6,131.8v-2.6h10.5v2.6h-3.9v11h-2.8v-11H116.6z"/>
		<path class="st3" d="M140.6,129.2v13.6h-1.9l-7.1-8.4v8.4h-2.7v-13.6h1.7l7.2,8.4v-8.4H140.6z"/>
		<path class="st3" d="M143.6,129.2h9.2v2.5h-6.5v2.9h6v2.5h-6v3.1h6.5v2.5h-9.2V129.2z"/>
		<path class="st3" d="M154.1,140.5l1.6-1.9c0.9,1.2,2.2,1.9,3.6,1.9c1.1,0,2-0.6,2-1.5c0-0.7-0.5-1.1-1.2-1.4
			c-0.9-0.4-2-0.7-2.9-1.3c-1.2-0.7-2.2-1.7-2.2-3.4c0-2.2,1.9-4,4.6-4c1.6,0,3.2,0.6,4.5,1.8l-1.5,2c-0.8-0.8-2-1.3-3-1.3
			c-1.1,0-1.8,0.5-1.8,1.3c0,0.7,0.6,1.1,1.1,1.3c0.7,0.3,2.1,0.8,3,1.3c1.3,0.6,2.3,1.7,2.3,3.4c0,2.4-2,4.1-5,4.1
			C157.2,143,155.3,142.2,154.1,140.5z"/>
		<path class="st3" d="M165.3,140.5l1.6-1.9c0.9,1.2,2.2,1.9,3.6,1.9c1.1,0,2-0.6,2-1.5c0-0.7-0.5-1.1-1.2-1.4
			c-0.9-0.4-2-0.7-2.9-1.3c-1.2-0.7-2.2-1.7-2.2-3.4c0-2.2,1.9-4,4.6-4c1.6,0,3.2,0.6,4.5,1.8l-1.5,2c-0.8-0.8-2-1.3-3-1.3
			c-1.1,0-1.8,0.5-1.8,1.3c0,0.7,0.6,1.1,1.1,1.3c0.7,0.3,2.1,0.8,3,1.3c1.3,0.6,2.3,1.7,2.3,3.4c0,2.4-2,4.1-5,4.1
			C168.4,143,166.5,142.2,165.3,140.5z"/>
	</g>
</g>
<polygon id="Sofia3.03" class="st4" points="65.4,77.3 49.6,157.1 73.9,162.6 114,162.6 114,248.7 146.5,248.7 228.1,135.8 
	228.1,76.2 211.6,76.2 211.6,94.7 170.6,94.7 170.6,77.3 "/>
<polygon id="Sofia3.01b" class="st4" points="48.8,159.7 16.7,322.8 21.2,324.1 22.1,319.9 43.4,324.8 58.6,251.6 53.7,251.6 
	72.1,165.1 "/>
<polygon id="Sofia3.01a" class="st4" points="74.8,165.5 57.1,248.7 62.3,247.9 46.2,324.8 55.3,327.2 55.7,333.2 165.6,333.2 
	169.8,317.4 145.9,251.6 111.6,251.6 111.5,165.5 "/>
<polygon id="Sofia3.02" class="st4" points="36.9,336 32.8,355.4 37.6,356.5 36.2,364.1 150.8,392 165.2,336 "/>
</svg>
