<?xml version="1.0" encoding="utf-8"?>
<!-- Generator: Adobe Illustrator 25.4.1, SVG Export Plug-In . SVG Version: 6.00 Build 0)  -->
<svg version="1.1" id="Layer_5" xmlns="http://www.w3.org/2000/svg" xmlns:xlink="http://www.w3.org/1999/xlink" x="0px" y="0px"
	 viewBox="0 0 857.8 436" style="enable-background:new 0 0 857.8 436;" xml:space="preserve">
<style type="text/css">
	.st0{fill:#F1F2F2;}
	.st1{fill:#F1F2F2;stroke:#000000;stroke-width:2;stroke-miterlimit:10;}
	.st2{fill:none;stroke:#000000;stroke-miterlimit:10;}
	.st3{fill:none;stroke:#231F20;stroke-miterlimit:10;}
	.st4{fill-rule:evenodd;clip-rule:evenodd;fill:#231F20;}
	.st5{fill:#231F20;}
	.st6{fill:#E2E2E2;}
	.st7{fill:#F47825;}
</style>
<g id="cladire">
	<polygon class="st0" points="303.8,399 303.8,386.2 277.7,386.2 279.7,379.9 254.2,373.6 255.2,368.9 248.6,367.1 248.6,385.3 
		0,325.2 60.6,37.4 93.7,44.2 103.2,0 196.9,0 196.9,10.3 217.3,10.3 217.3,20.1 244,20.1 244,0 558,0 558,7.1 847.6,6.9 
		847.6,58.4 857.8,58.4 857.8,82.3 829,82.3 829,86.7 847.8,86.7 847.8,300 812.6,300 812.6,323.8 786.5,323.8 786.5,334.7 
		770.7,337 770.7,362.6 749.9,362.6 749.9,340.1 689,342 689,378 592.3,378 592.3,398 578.4,398 578.4,403.4 558.6,403.4 
		558.6,390.8 452.8,390.8 452.8,436 	"/>
	<polygon class="st1" points="842.6,11.9 842.6,63.4 852.8,63.4 852.8,77.3 824,77.3 824,91.7 842.8,91.7 842.8,295 807.6,295 
		807.6,318.8 781.5,318.8 781.5,330.4 765.7,332.7 765.7,357.6 754.9,357.6 754.9,334.9 684,337.2 684,373 587.3,373 587.3,393 
		573.4,393 573.4,398.4 563.6,398.4 563.6,385.8 457.1,385.8 457.1,380.3 447.8,380.3 447.8,429.7 308.8,395.1 308.8,381.2 
		284.5,381.2 286,376.3 260.1,370 261.1,365.3 243.6,360.6 243.6,378.9 5.9,321.5 64.4,43.3 97.5,50.1 107.3,5 191.9,5 191.9,15.3 
		212.3,15.3 212.3,25.1 249,25.1 249,5 553,5 553,12.1 	"/>
</g>
<g id="magazine">
	<polyline class="st2" points="842.5,63.4 731.6,63.4 731.6,12.3 	"/>
	<line class="st2" x1="731.6" y1="63.4" x2="731.6" y2="114.2"/>
	<polyline class="st2" points="824,91.7 824,114.2 828.6,114.2 828.6,279.1 752,279.1 752,293.4 651,293.4 651,294.8 624.2,294.8 
		624.2,293.4 445.2,293.4 445.2,294.8 435.1,294.8 435.1,241.4 450.3,241.4 450.3,219.2 447.8,219.2 447.8,182.9 445.2,182.9 
		445.2,114.2 511,114.2 511,88.9 658.4,88.9 658.4,96.5 661.3,96.5 661.3,106.1 657.9,106.1 657.9,114.2 675,114.2 675,12.3 	"/>
	<polyline class="st2" points="824,114.2 625.6,114.2 625.6,266.7 651.2,266.7 651.2,293.4 	"/>
	<polyline class="st2" points="625.6,266.7 624.2,266.7 624.2,293.4 	"/>
	<line class="st2" x1="573.4" y1="88.8" x2="573.4" y2="293.3"/>
	<polyline class="st2" points="445,166.3 497.2,166.3 497.2,293.3 	"/>
	<line class="st2" x1="522.6" y1="88.8" x2="522.6" y2="114.9"/>
	<polyline class="st2" points="511,114.2 548.3,114.2 548.3,88.7 	"/>
	<polyline class="st2" points="245.7,53.8 343,53.8 343,40.6 447.5,40.6 447.5,91.4 422.3,91.4 422.4,293.4 69.1,293.4 69.1,302.3 
		46.3,302.3 87.5,102.2 108.6,106.5 108.6,139.8 116,139.8 116,63.6 245.7,63.6 245.7,26.1 	"/>
	<line class="st2" x1="116" y1="139.8" x2="116" y2="293.4"/>
	<line class="st2" x1="320.1" y1="91" x2="320.1" y2="292.9"/>
	<polyline class="st2" points="320.7,242.3 344.8,242.3 344.8,293.3 	"/>
	<polyline class="st2" points="421.7,191.8 370.3,191.8 370.3,293.3 	"/>
	<line class="st2" x1="422.4" y1="217.2" x2="370.3" y2="217.2"/>
	<polyline class="st2" points="243.3,293.3 243.3,266.6 193.7,266.6 193.7,91 422.3,91 	"/>
	<line class="st2" x1="219.1" y1="266.6" x2="219.1" y2="293.3"/>
	<polyline class="st2" points="245.1,51.5 226,51.5 226,55.3 107.3,55.3 107.3,96.1 101.1,96.6 100.2,98.4 88.7,96 97.7,49.5 	"/>
	<line class="st2" x1="167.1" y1="4.9" x2="167.1" y2="55.9"/>
	<polyline class="st2" points="60,334 60,317.1 71.9,317.1 71.9,314.9 201.5,314.9 221.9,335.3 296.4,333.8 296.4,343 307.5,343 
		307.5,371.5 285.6,371.5 260.2,365.1 	"/>
	<line class="st2" x1="116.3" y1="314.9" x2="116.3" y2="347.8"/>
	<polyline class="st2" points="221.9,335.3 218.2,337.6 218.2,372 	"/>
	<line class="st2" x1="230.9" y1="335.1" x2="230.9" y2="375.8"/>
	<polyline class="st2" points="243.6,360 243.6,350.1 255.9,350.1 255.9,334.8 	"/>
	<line class="st2" x1="269.6" y1="334.2" x2="269.6" y2="367.3"/>
	<polyline class="st2" points="456.5,379.7 456.5,370.4 459.8,370.4 460.6,332.5 437.8,333.6 422.6,321.1 343.5,324.7 343.5,331.4 
		318.9,333 318.9,390.8 447.7,422.8 	"/>
	<line class="st2" x1="370.3" y1="323.5" x2="370.3" y2="403.5"/>
	<line class="st2" x1="395.3" y1="322.5" x2="395.3" y2="410"/>
	<polyline class="st2" points="456.5,370.4 421.3,370.4 421.3,321.1 	"/>
	<line class="st2" x1="446.2" y1="333.7" x2="446.2" y2="370.3"/>
	<polygon class="st2" points="470.8,332 470.8,374.4 574.6,374.4 574.6,326.5 	"/>
	<line class="st2" x1="497.2" y1="330.3" x2="497.2" y2="374.2"/>
	<line class="st2" x1="522.6" y1="329.2" x2="522.6" y2="374.2"/>
	<polyline class="st2" points="522.6,351.5 548.3,351.5 548.3,328.1 	"/>
	<polyline class="st2" points="682.9,338.8 631.8,343 610.5,324.7 584.7,326 584.7,373.6 588.2,373.6 	"/>
	<line class="st2" x1="598.8" y1="325.1" x2="598.8" y2="373"/>
	<line class="st2" x1="623.8" y1="336.3" x2="623.8" y2="373"/>
	<line class="st2" x1="637" y1="342.8" x2="637" y2="373"/>
	<line class="st2" x1="649.8" y1="341.3" x2="649.8" y2="373"/>
	<polyline class="st3" points="219.1,279.9 231,279.9 231,293.3 	"/>
	<line class="st3" x1="243.6" y1="350.1" x2="243.6" y2="335.1"/>
	<line class="st3" x1="343" y1="53.8" x2="343" y2="90.8"/>
	<line class="st2" x1="343" y1="64.8" x2="447.5" y2="64.8"/>
	<polyline class="st2" points="35.1,185.8 50.2,188.9 40.2,237.2 24,234 	"/>
	<polyline class="st2" points="24.2,236.5 43.1,240.5 41.5,245.4 44.4,246.2 42.9,254.9 34.6,253.5 29.5,277.1 16,274.3 	"/>
</g>
<g id="logo">
	<g>
		<polygon class="st4" points="136.4,193.7 144.6,184.2 151.7,192.1 155.3,188.1 155.4,191.5 143.6,204.8 142.1,203.1 144,201 
			138.6,194.6 136.5,196.9 136.4,193.7 		"/>
		<polygon class="st4" points="172.2,181.5 183.8,181.5 183.8,184.5 182,184.5 182,195.1 189.2,190.6 189.2,198.4 172.1,198.4 
			172.1,195.3 174,195.3 174,184.5 172.2,184.5 172.2,181.5 		"/>
		<path class="st4" d="M143.6,183.5c2.5,0,4.5-2.3,4.5-5.2c0-2.9-2-5.2-4.5-5.2c-2.5,0-4.6,2.3-4.6,5.2
			C139.1,181.1,141.1,183.5,143.6,183.5L143.6,183.5z"/>
		<polygon class="st4" points="119.7,181.7 131.4,181.7 131.4,184.7 129.5,184.7 129.5,195.3 136.7,190.8 136.7,198.6 119.6,198.6 
			119.6,195.6 121.5,195.6 121.6,184.7 119.7,184.7 119.7,181.7 		"/>
		<path class="st4" d="M165.2,198.4H153v-3h2.1l0-10.8H153v-2.9h12.3c3.6,0,6.4,2.8,6.4,8.4C171.6,195.7,168.5,198.4,165.2,198.4
			L165.2,198.4z M162.8,193.2c1.4,0,2.6-0.9,2.6-3.4c0-2.4-1.2-3.4-2.6-3.4L162.8,193.2L162.8,193.2z"/>
	</g>
	<g>
		<path class="st5" d="M220.9,191.7l0,6.2l-3.6,0l0-6.2l-6.2-11.7l4.2,0l3.9,7.9l3.8-7.9l4.2,0L220.9,191.7z"/>
		<path class="st5" d="M237.2,193.9l-6.3,0l-1.4,3.9l-3.8,0l6.7-18l2.9,0l6.9,17.9l-3.8,0L237.2,193.9z M231.9,190.8l4.2,0l-2.1-6
			L231.9,190.8z"/>
		<path class="st5" d="M258.6,179.7l-7.2,18l-2.9,0l-7.6-17.9l4.2,0l4.8,12.4l4.6-12.5L258.6,179.7z"/>
		<path class="st5" d="M259,188.7c0-5.2,4-9.4,9.3-9.4c5.3,0,9.4,4.1,9.4,9.3c0,5.1-4,9.3-9.3,9.3C263,197.9,259,193.9,259,188.7z
			 M274,188.6c0-3.4-2.6-5.7-5.7-5.7c-3.1,0-5.6,2.5-5.6,5.8c0,3.3,2.5,5.7,5.7,5.7C271.5,194.3,274,191.9,274,188.6z"/>
		<path class="st5" d="M286.4,190.9l-2.1,0l0,6.5l-3.6,0l-0.1-18l6.9-0.1c4.2,0,6.2,2.7,6.2,5.6c0,2.2-1.1,4.4-3.6,5.3l4.4,7l-4.2,0
			L286.4,190.9z M284.3,187.7l2.9,0c2,0,2.8-1.2,2.8-2.5c0-1.3-0.9-2.4-2.5-2.4l-3.3,0L284.3,187.7z"/>
	</g>
	<g>
		<path class="st5" d="M220.9,275.8c0-1,0.8-1.8,1.8-1.8c1,0,1.8,0.8,1.8,1.7c0,1-0.8,1.8-1.8,1.8
			C221.7,277.5,220.9,276.7,220.9,275.8z M223.8,275.7c0-0.6-0.5-1.1-1.1-1.1c-0.6,0-1.1,0.5-1.1,1.1c0,0.6,0.5,1.1,1.1,1.1
			C223.3,276.8,223.8,276.4,223.8,275.7z"/>
		<path class="st5" d="M226.1,276.1l-0.4,0.5l0,0.8l-0.7,0l0-3.4l0.7,0l0,1.6l1.3-1.6l0.8,0l-1.2,1.6l1.3,1.8l-0.8,0L226.1,276.1z"
			/>
		<path class="st5" d="M227.8,275.7c0-1,0.8-1.8,1.8-1.8c1,0,1.8,0.8,1.8,1.7c0,1-0.8,1.8-1.8,1.8
			C228.6,277.5,227.8,276.7,227.8,275.7z M230.6,275.7c0-0.6-0.5-1.1-1.1-1.1c-0.6,0-1.1,0.5-1.1,1.1c0,0.6,0.5,1.1,1.1,1.1
			C230.2,276.8,230.7,276.3,230.6,275.7z"/>
		<path class="st5" d="M235.1,276.7l0,0.6l-2.2,0l0-0.6l1-1.1c0.2-0.2,0.4-0.4,0.4-0.7c0-0.3-0.2-0.4-0.5-0.4
			c-0.3,0-0.5,0.1-0.8,0.4l-0.4-0.5c0.4-0.4,0.8-0.5,1.2-0.5c0.6,0,1.1,0.4,1.1,1c0,0.3-0.2,0.7-0.6,1.2l-0.6,0.6L235.1,276.7z"/>
		<path class="st5" d="M235.7,274l2.3,0l0,0.6l-1.6,0l0,0.8l1.4,0l0,0.6l-1.4,0l0,1.4l-0.7,0L235.7,274z"/>
		<path class="st5" d="M239.2,273.9l0,3.4l-0.7,0l0-3.4L239.2,273.9z"/>
		<path class="st5" d="M240.6,275.6l-1-1.7l0.8,0l0.7,1.2l0.7-1.2l0.8,0l-1.1,1.7l1.1,1.7l-0.8,0l-0.7-1.2l-0.7,1.2l-0.8,0
			L240.6,275.6z"/>
	</g>
	<g>
		<path class="st5" d="M272,358.6l1.7,0c1.3,0,2.1,0.8,2.1,2.2c0,1.3-0.8,2.2-2.1,2.2l-1.7,0L272,358.6z M273.7,362
			c0.8,0,1.2-0.6,1.2-1.4c0-0.7-0.4-1.3-1.2-1.3l-0.8,0l0,2.7L273.7,362z"/>
		<path class="st5" d="M276.5,361.3l0-2.8l0.9,0l0,2.7c0,0.6,0.3,0.9,0.8,0.9c0.5,0,0.8-0.3,0.8-0.9l0-2.7l0.9,0l0,2.8
			c0,1.1-0.8,1.7-1.7,1.7C277.3,362.9,276.5,362.4,276.5,361.3z"/>
		<path class="st5" d="M283.9,359.9c0,0.7-0.5,1.4-1.6,1.4l-0.7,0l0,1.5l-0.9,0l0-4.3l1.6,0C283.5,358.5,283.9,359.2,283.9,359.9z
			 M283,359.9c0-0.3-0.2-0.6-0.6-0.6l-0.7,0l0,1.3l0.7,0C282.8,360.5,283,360.2,283,359.9z"/>
		<path class="st5" d="M285.4,358.5l0,4.3l-0.9,0l0-4.3L285.4,358.5z"/>
		<path class="st5" d="M286,362.1l0.5-0.6c0.3,0.4,0.7,0.6,1.2,0.6c0.4,0,0.6-0.2,0.6-0.5c0-0.2-0.2-0.3-0.4-0.4
			c-0.3-0.1-0.6-0.2-0.9-0.4c-0.4-0.2-0.7-0.5-0.7-1.1c0-0.7,0.6-1.3,1.5-1.3c0.5,0,1,0.2,1.4,0.6l-0.5,0.6c-0.3-0.3-0.7-0.4-1-0.4
			c-0.3,0-0.6,0.2-0.6,0.4c0,0.2,0.2,0.3,0.4,0.4c0.2,0.1,0.7,0.3,1,0.4c0.4,0.2,0.7,0.5,0.7,1.1c0,0.8-0.6,1.3-1.6,1.3
			C287,362.9,286.4,362.6,286,362.1z"/>
		<path class="st5" d="M289.6,362l0.5-0.6c0.3,0.4,0.7,0.6,1.2,0.6c0.4,0,0.6-0.2,0.6-0.5c0-0.2-0.2-0.3-0.4-0.4
			c-0.3-0.1-0.6-0.2-0.9-0.4c-0.4-0.2-0.7-0.5-0.7-1.1c0-0.7,0.6-1.3,1.5-1.3c0.5,0,1,0.2,1.4,0.6l-0.5,0.6c-0.3-0.3-0.7-0.4-1-0.4
			c-0.3,0-0.6,0.2-0.6,0.4c0,0.2,0.2,0.3,0.4,0.4c0.2,0.1,0.7,0.3,1,0.4c0.4,0.2,0.7,0.5,0.7,1.1c0,0.8-0.6,1.3-1.6,1.3
			C290.6,362.8,290,362.6,289.6,362z"/>
		<path class="st5" d="M294.4,358.4l0,4.3l-0.9,0l0-4.3L294.4,358.4z"/>
		<path class="st5" d="M295.3,358.4l0.6,0l1.7,2.4l1.7-2.5l0.6,0l0,4.3l-0.9,0l0-2.5l-1.2,1.8l-0.3,0l-1.3-1.8l0,2.5l-0.9,0
			L295.3,358.4z"/>
		<path class="st5" d="M303.2,361.7l-1.5,0l-0.3,0.9l-0.9,0l1.6-4.4l0.7,0l1.7,4.3l-0.9,0L303.2,361.7z M301.9,361l1,0l-0.5-1.4
			L301.9,361z"/>
	</g>
	<g>
		<path class="st5" d="M238.4,365.9c0.8,0,1.5,0.6,1.5,1.6l0,2.3l-5,0l0-2.2c0-1,0.6-1.4,1.2-1.4c0.4,0,0.9,0.3,1,0.7
			C237.2,366.2,237.8,365.9,238.4,365.9z M235.7,368.8l1.1,0l0-1c0-0.4-0.3-0.6-0.6-0.6c-0.3,0-0.5,0.2-0.5,0.6L235.7,368.8z
			 M238.3,366.9c-0.3,0-0.7,0.2-0.7,0.7l0,1.1l1.3,0l0-1.1C238.9,367.2,238.6,366.9,238.3,366.9z"/>
		<path class="st5" d="M234.8,365.1l0-3.4l0.9,0l0,2.4l1.1,0l0-2.2l0.9,0l0,2.2l1.1,0l0-2.4l0.9,0l0,3.4L234.8,365.1z"/>
		<path class="st5" d="M238,359.2l0,0.6l1.8,0l0,1l-5,0l0-1.9c0-1.2,0.7-1.7,1.6-1.7c0.6,0,1.2,0.3,1.5,1l1.9-1.2l0,1.2L238,359.2z
			 M237.1,359.8l0-0.8c0-0.6-0.3-0.8-0.7-0.8c-0.4,0-0.7,0.2-0.7,0.7l0,0.9L237.1,359.8z"/>
		<path class="st5" d="M234.8,356.3l0-3.4l0.9,0l0,2.4l1.1,0l0-2.2l0.9,0l0,2.2l1.1,0l0-2.4l0.9,0l0,3.4L234.8,356.3z"/>
		<path class="st5" d="M239,352.2l-3.4-2.4l0,2.4l-0.9,0l0-3.7l0.7,0l3.3,2.4l0-2.5l0.9,0l0,3.9L239,352.2z"/>
		<path class="st5" d="M237.7,345.9l0.7,0.6l1.2,0l0,1l-5,0l0-1l2.4,0l-2.4-1.9l0-1.2l2.3,1.8l2.7-2l0,1.2L237.7,345.9z"/>
		<path class="st5" d="M238.5,340.2l0,1.7l1.1,0.4l0,1l-5-1.9l0-0.8l5-1.9l0,1.1L238.5,340.2z M237.7,341.6l0-1.2l-1.7,0.6
			L237.7,341.6z"/>
	</g>
	<g>
		<path class="st5" d="M321,276.4l0.5-0.7c0.3,0.4,0.8,0.7,1.3,0.7c0.4,0,0.7-0.2,0.7-0.5c0-0.2-0.2-0.4-0.4-0.5
			c-0.3-0.1-0.7-0.3-1-0.4c-0.4-0.2-0.8-0.6-0.8-1.2c0-0.8,0.7-1.4,1.6-1.4c0.6,0,1.1,0.2,1.6,0.6l-0.5,0.7
			c-0.3-0.3-0.7-0.4-1.1-0.4c-0.4,0-0.6,0.2-0.6,0.5c0,0.2,0.2,0.4,0.4,0.5c0.3,0.1,0.7,0.3,1.1,0.5c0.5,0.2,0.8,0.6,0.8,1.2
			c0,0.9-0.7,1.5-1.8,1.5C322.1,277.3,321.4,277,321,276.4z"/>
		<path class="st5" d="M327.8,276.1l-1.7,0l-0.4,1l-1,0l1.8-4.8l0.8,0l1.8,4.8l-1,0L327.8,276.1z M326.3,275.3l1.1,0l-0.6-1.6
			L326.3,275.3z"/>
		<path class="st5" d="M333.8,272.3l0,4.8l-0.7,0l-2.5-2.9l0,2.9l-0.9,0l0-4.8l0.6,0l2.6,3l0-3L333.8,272.3z"/>
		<path class="st5" d="M335.8,272.3l0,4.8l-1,0l0-4.8L335.8,272.3z"/>
		<path class="st5" d="M336.4,273.2l0-0.9l3.7,0l0,0.9l-1.4,0l0,3.9l-1,0l0-3.9L336.4,273.2z"/>
		<path class="st5" d="M342.9,276l-1.7,0l-0.4,1l-1,0l1.8-4.8l0.8,0l1.8,4.8l-1,0L342.9,276z M341.5,275.2l1.1,0l-0.6-1.6
			L341.5,275.2z"/>
	</g>
	<g>
		<path class="st5" d="M327.3,364.2l-1,0l0,3.1l-1.7,0l-0.1-8.4l3.2,0c2,0,2.9,1.2,2.9,2.6c0,1-0.5,2-1.7,2.5l2.1,3.3l-2,0
			L327.3,364.2z M326.3,362.7l1.4,0c0.9,0,1.3-0.6,1.3-1.2c0-0.6-0.4-1.1-1.2-1.1l-1.5,0L326.3,362.7z"/>
		<path class="st5" d="M336.8,365.4l-2.9,0l-0.6,1.8l-1.8,0l3.2-8.4l1.4,0l3.2,8.4l-1.8,0L336.8,365.4z M334.3,363.9l2,0l-1-2.8
			L334.3,363.9z"/>
		<path class="st5" d="M340.2,358.7l1.7,0l0.1,6.8l4.3,0l0,1.6l-6,0L340.2,358.7z"/>
		<path class="st5" d="M348.9,358.7l0.1,8.4l-1.7,0l-0.1-8.4L348.9,358.7z"/>
		<path class="st5" d="M350.4,362.9c0-2.6,2-4.4,4.3-4.4c1.6,0,2.9,0.7,3.6,1.7l-1.1,1.1c-0.6-0.7-1.4-1.2-2.4-1.2
			c-1.5,0-2.7,1.2-2.7,2.8c0,1.6,1.2,2.7,2.7,2.7c1,0,1.9-0.5,2.4-1.2l1.2,1.1c-0.7,1-2.1,1.8-3.7,1.8
			C352.3,367.2,350.4,365.5,350.4,362.9z"/>
		<path class="st5" d="M363.9,365.2l-2.9,0l-0.6,1.8l-1.8,0l3.2-8.4l1.4,0l3.2,8.4l-1.8,0L363.9,365.2z M361.4,363.7l2,0l-1-2.8
			L361.4,363.7z"/>
	</g>
	<g>
		<path class="st5" d="M453.9,364.7c0.5,0,0.9,0.4,0.9,1l0,1.5l-3.2,0l0-1.4c0-0.6,0.4-0.9,0.8-0.9c0.3,0,0.6,0.2,0.7,0.4
			C453.2,364.9,453.5,364.7,453.9,364.7z M452.2,366.5l0.7,0l0-0.6c0-0.3-0.2-0.4-0.4-0.4c-0.2,0-0.3,0.1-0.3,0.4L452.2,366.5z
			 M453.9,365.3c-0.2,0-0.4,0.1-0.4,0.5l0,0.7l0.8,0l0-0.7C454.3,365.5,454.1,365.3,453.9,365.3z"/>
		<path class="st5" d="M453.3,364.3c-0.9,0-1.7-0.7-1.7-1.7s0.7-1.7,1.6-1.7c0.9,0,1.7,0.7,1.7,1.7
			C454.9,363.6,454.2,364.3,453.3,364.3z M453.2,361.7c-0.6,0-1,0.5-1,1c0,0.6,0.4,1,1,1c0.6,0,1-0.4,1-1
			C454.2,362.1,453.8,361.7,453.2,361.7z"/>
		<path class="st5" d="M453.2,360.7c-0.9,0-1.7-0.7-1.7-1.7s0.7-1.7,1.6-1.7c0.9,0,1.7,0.7,1.7,1.7
			C454.9,360,454.1,360.7,453.2,360.7z M453.2,358c-0.6,0-1,0.5-1,1c0,0.6,0.4,1,1,1c0.6,0,1-0.4,1-1
			C454.2,358.5,453.8,358,453.2,358z"/>
		<path class="st5" d="M453.5,355.8l0.5,0.4l0.8,0l0,0.6l-3.2,0l0-0.6l1.5,0l-1.5-1.2l0-0.8l1.5,1.2l1.7-1.3l0,0.8L453.5,355.8z"/>
		<path class="st5" d="M452.2,354.1l-0.6,0l0-2.5l0.6,0l0,0.9l2.6,0l0,0.6l-2.6,0L452.2,354.1z"/>
		<path class="st5" d="M453.6,350.2l0,0.4l1.2,0l0,0.6l-3.2,0l0-1.2c0-0.7,0.5-1.1,1-1.1c0.4,0,0.8,0.2,0.9,0.6l1.2-0.8l0,0.7
			L453.6,350.2z M453,350.6l0-0.5c0-0.4-0.2-0.5-0.4-0.5c-0.2,0-0.4,0.2-0.4,0.4l0,0.6L453,350.6z"/>
		<path class="st5" d="M454,346.6l0,1.1l0.7,0.2l0,0.7l-3.2-1.2l0-0.5l3.2-1.2l0,0.7L454,346.6z M453.5,347.6l0-0.8l-1.1,0.4
			L453.5,347.6z"/>
		<path class="st5" d="M451.5,345.4l0-1.2c0-1,0.6-1.5,1.6-1.5c1,0,1.6,0.6,1.6,1.6l0,1.2L451.5,345.4z M454.1,344.1
			c0-0.6-0.5-0.9-1-0.9c-0.5,0-1,0.3-1,0.9l0,0.6l2,0L454.1,344.1z"/>
		<path class="st5" d="M451.5,341.4l3.2,0l0,0.6l-3.2,0L451.5,341.4z"/>
		<path class="st5" d="M451.5,338l3.2,0l0,0.4l-1.9,1.7l2,0l0,0.6l-3.2,0l0-0.4l2-1.7l-2,0L451.5,338z"/>
		<path class="st5" d="M453,337.4c-1,0-1.7-0.7-1.7-1.7c0-0.5,0.2-1,0.5-1.3l0.5,0.4c-0.2,0.2-0.4,0.5-0.4,0.9c0,0.6,0.4,1,1,1
			c0.6,0,1-0.4,1-1c0-0.3-0.2-0.7-0.3-0.9l-0.4,0l0,0.9l-0.6,0l0-1.5l1.3,0c0.4,0.4,0.6,0.9,0.6,1.5
			C454.7,336.7,454,337.4,453,337.4z"/>
	</g>
	<g>
		<path class="st5" d="M400.1,390.8l2.5-3.4l-2.4,0l0-0.9l3.8,0l0,0.8l-2.4,3.4l2.5,0l0,0.9l-3.9,0L400.1,390.8z"/>
		<path class="st5" d="M404.4,389c0-1.5,1.1-2.6,2.6-2.6c1.5,0,2.6,1.1,2.6,2.6c0,1.4-1.1,2.6-2.6,2.6
			C405.5,391.6,404.4,390.5,404.4,389z M408.6,389c0-0.9-0.7-1.6-1.6-1.6c-0.9,0-1.6,0.7-1.6,1.6c0,0.9,0.7,1.6,1.6,1.6
			C407.9,390.6,408.6,389.9,408.6,389z"/>
		<path class="st5" d="M410.2,389c0-1.5,1.1-2.6,2.6-2.6s2.6,1.1,2.6,2.6c0,1.4-1.1,2.6-2.6,2.6C411.3,391.6,410.2,390.4,410.2,389z
			 M414.4,388.9c0-0.9-0.7-1.6-1.6-1.6c-0.9,0-1.6,0.7-1.6,1.6c0,0.9,0.7,1.6,1.6,1.6S414.4,389.9,414.4,388.9z"/>
		<path class="st5" d="M417.6,388.9c0-1.6,1.2-2.6,2.6-2.6c0.9,0,1.7,0.4,2.2,1l-0.7,0.7c-0.4-0.4-0.9-0.7-1.4-0.7
			c-0.9,0-1.6,0.7-1.6,1.7c0,0.9,0.7,1.6,1.6,1.6c0.6,0,1.1-0.3,1.5-0.7l0.7,0.6c-0.4,0.6-1.2,1.1-2.2,1.1
			C418.8,391.5,417.7,390.5,417.6,388.9z"/>
		<path class="st5" d="M423.1,386.4l3.4,0l0,0.9l-2.4,0l0,1.1l2.2,0l0,0.9l-2.2,0l0,1.1l2.4,0l0,0.9l-3.4,0L423.1,386.4z"/>
		<path class="st5" d="M431.8,386.3l0,5l-0.7,0l-2.6-3.1l0,3.1l-1,0l0-5l0.6,0l2.7,3.1l0-3.1L431.8,386.3z"/>
		<path class="st5" d="M432.4,387.3l0-1l3.9,0l0,1l-1.4,0l0,4.1l-1,0l0-4.1L432.4,387.3z"/>
		<path class="st5" d="M437,386.3l3.4,0l0,0.9l-2.4,0l0,1.1l2.2,0l0,0.9l-2.2,0l0,1.1l2.4,0l0,0.9l-3.4,0L437,386.3z"/>
		<path class="st5" d="M443,389.4l-0.6,0l0,1.8l-1,0l0-5l1.9,0c1.2,0,1.7,0.7,1.7,1.6c0,0.6-0.3,1.2-1,1.5l1.2,2l-1.2,0L443,389.4z
			 M442.3,388.5l0.8,0c0.6,0,0.8-0.3,0.8-0.7c0-0.4-0.2-0.7-0.7-0.7l-0.9,0L442.3,388.5z"/>
	</g>
	<g>
		<path class="st5" d="M371.2,356.4l0.5-0.6c0.3,0.4,0.7,0.6,1.1,0.6c0.4,0,0.6-0.2,0.6-0.5c0-0.2-0.2-0.3-0.4-0.4
			c-0.3-0.1-0.6-0.2-0.9-0.4c-0.4-0.2-0.7-0.5-0.7-1.1c0-0.7,0.6-1.3,1.4-1.3c0.5,0,1,0.2,1.4,0.6l-0.5,0.6
			c-0.3-0.3-0.6-0.4-0.9-0.4c-0.3,0-0.5,0.2-0.5,0.4c0,0.2,0.2,0.3,0.4,0.4c0.2,0.1,0.7,0.3,0.9,0.4c0.4,0.2,0.7,0.5,0.7,1.1
			c0,0.8-0.6,1.3-1.6,1.3C372.2,357.2,371.6,357,371.2,356.4z"/>
		<path class="st5" d="M375,355.2l2.4,0l0,0.8l-2.4,0L375,355.2z"/>
		<path class="st5" d="M377.9,355c0-1.3,1-2.2,2.2-2.2c0.7,0,1.4,0.3,1.7,0.7l-0.6,0.6c-0.3-0.3-0.7-0.5-1.2-0.5
			c-0.8,0-1.4,0.6-1.4,1.4c0,0.8,0.6,1.4,1.4,1.4c0.5,0,0.9-0.2,1.1-0.5l0-0.6l-1.2,0l0-0.7l2,0l0,1.8c-0.5,0.5-1.2,0.9-1.9,0.9
			C378.8,357.2,377.9,356.3,377.9,355z"/>
		<path class="st5" d="M383.7,352.8l0,4.3l-0.9,0l0-4.3L383.7,352.8z"/>
		<path class="st5" d="M384.6,352.8l2.9,0l0,0.8l-2,0l0,1l1.8,0l0,0.8l-1.8,0l0,1.7l-0.9,0L384.6,352.8z"/>
		<path class="st5" d="M387.7,353.6l0-0.8l3.3,0l0,0.8l-1.2,0l0,3.4l-0.9,0l0-3.4L387.7,353.6z"/>
		<path class="st5" d="M391.2,356.3l0.5-0.6c0.3,0.4,0.7,0.6,1.1,0.6c0.4,0,0.6-0.2,0.6-0.5c0-0.2-0.2-0.3-0.4-0.4
			c-0.3-0.1-0.6-0.2-0.9-0.4c-0.4-0.2-0.7-0.5-0.7-1.1c0-0.7,0.6-1.3,1.4-1.3c0.5,0,1,0.2,1.4,0.6l-0.5,0.6
			c-0.3-0.3-0.6-0.4-0.9-0.4c-0.3,0-0.5,0.2-0.5,0.4c0,0.2,0.2,0.3,0.4,0.4c0.2,0.1,0.7,0.3,0.9,0.4c0.4,0.2,0.7,0.5,0.7,1.1
			c0,0.8-0.6,1.3-1.6,1.3C392.1,357.1,391.5,356.8,391.2,356.3z"/>
	</g>
	<g>
		<path class="st5" d="M501.8,357.5c0,0.5-0.4,1-1.1,1l-1.5,0l0-3.4l1.5,0c0.6,0,1,0.4,1,0.8c0,0.3-0.2,0.6-0.5,0.7
			C501.6,356.8,501.8,357.2,501.8,357.5z M499.9,355.8l0,0.7l0.7,0c0.3,0,0.4-0.2,0.4-0.4c0-0.2-0.1-0.4-0.4-0.4L499.9,355.8z
			 M501.1,357.5c0-0.2-0.2-0.4-0.5-0.4l-0.7,0l0,0.9l0.7,0C501,357.9,501.1,357.7,501.1,357.5z"/>
		<path class="st5" d="M502.2,356.8c0-1,0.8-1.8,1.7-1.8c1,0,1.8,0.8,1.8,1.7c0,1-0.8,1.8-1.8,1.8
			C502.9,358.6,502.2,357.8,502.2,356.8z M505,356.8c0-0.6-0.5-1.1-1.1-1.1c-0.6,0-1.1,0.5-1,1.1c0,0.6,0.5,1.1,1.1,1.1
			C504.5,357.9,505,357.4,505,356.8z"/>
		<path class="st5" d="M506.2,355.1l0.7,0l0,1.4l1.4,0l0-1.4l0.7,0l0,3.4l-0.7,0l0-1.4l-1.4,0l0,1.4l-0.7,0L506.2,355.1z"/>
		<path class="st5" d="M509.8,355.1l2.3,0l0,0.6l-1.6,0l0,0.7l1.5,0l0,0.6l-1.5,0l0,0.8l1.6,0l0,0.6l-2.3,0L509.8,355.1z"/>
		<path class="st5" d="M512.7,355.1l0.4,0l1.3,1.9l1.3-1.9l0.5,0l0,3.4l-0.7,0l0-1.9l-1,1.4l-0.2,0l-1-1.4l0,1.9l-0.7,0L512.7,355.1
			z"/>
		<path class="st5" d="M517.7,355l0,3.4l-0.7,0l0-3.4L517.7,355z"/>
		<path class="st5" d="M520.2,357.7l-1.2,0l-0.3,0.7l-0.7,0l1.3-3.4l0.6,0l1.3,3.4l-0.7,0L520.2,357.7z M519.2,357.1l0.8,0l-0.4-1.1
			L519.2,357.1z"/>
	</g>
	<g>
		<path class="st5" d="M527.9,342.5c0,0.5-0.4,1-1.1,1l-1.5,0l0-3.4l1.5,0c0.6,0,1,0.4,1,0.8c0,0.3-0.2,0.6-0.5,0.7
			C527.7,341.7,527.9,342.1,527.9,342.5z M526,340.7l0,0.7l0.7,0c0.3,0,0.4-0.2,0.4-0.4c0-0.2-0.1-0.4-0.4-0.4L526,340.7z
			 M527.2,342.4c0-0.2-0.2-0.4-0.5-0.4l-0.7,0l0,0.9l0.7,0C527.1,342.9,527.2,342.6,527.2,342.4z"/>
		<path class="st5" d="M528.3,341.8c0-1,0.8-1.8,1.7-1.8c1,0,1.8,0.8,1.8,1.7c0,1-0.8,1.8-1.8,1.8
			C529.1,343.5,528.3,342.7,528.3,341.8z M531.1,341.7c0-0.6-0.5-1.1-1.1-1.1c-0.6,0-1.1,0.5-1,1.1c0,0.6,0.5,1.1,1.1,1.1
			C530.7,342.8,531.1,342.4,531.1,341.7z"/>
		<path class="st5" d="M532.4,340l0.7,0l0,1.4l1.4,0l0-1.4l0.7,0l0,3.4l-0.7,0l0-1.4l-1.4,0l0,1.4l-0.7,0L532.4,340z"/>
		<path class="st5" d="M535.9,340l2.3,0l0,0.6l-1.6,0l0,0.7l1.5,0l0,0.6l-1.5,0l0,0.8l1.6,0l0,0.6l-2.3,0L535.9,340z"/>
		<path class="st5" d="M538.8,340l0.4,0l1.3,1.9l1.3-1.9l0.5,0l0,3.4l-0.7,0l0-1.9l-1,1.4l-0.2,0l-1-1.4l0,1.9l-0.7,0L538.8,340z"/>
		<path class="st5" d="M543.8,339.9l0,3.4l-0.7,0l0-3.4L543.8,339.9z"/>
		<path class="st5" d="M546.3,342.6l-1.2,0l-0.3,0.7l-0.7,0l1.3-3.4l0.6,0l1.3,3.4l-0.7,0L546.3,342.6z M545.4,342l0.8,0l-0.4-1.1
			L545.4,342z"/>
	</g>
	<g>
		<path class="st5" d="M593.5,362c0.9,0,1.6,0.6,1.6,1.7l0,2.5l-5.5,0l0-2.4c0-1,0.7-1.6,1.3-1.6c0.5,0,0.9,0.3,1.1,0.7
			C592.3,362.4,592.9,362,593.5,362z M590.6,365.2l1.2,0l0-1.1c0-0.5-0.3-0.7-0.6-0.7c-0.3,0-0.6,0.2-0.6,0.7L590.6,365.2z
			 M593.4,363.2c-0.4,0-0.7,0.3-0.7,0.8l0,1.2l1.4,0l0-1.2C594.1,363.4,593.8,363.1,593.4,363.2z"/>
		<path class="st5" d="M592.4,361.4c-1.7,0-2.8-1.3-2.8-2.9c0-0.9,0.4-1.7,0.9-2.2l0.8,0.7c-0.4,0.4-0.6,0.9-0.6,1.5
			c0,1,0.8,1.8,1.8,1.8c1,0,1.8-0.7,1.8-1.8c0-0.6-0.3-1.1-0.6-1.5l-0.7,0l0,1.5l-1,0l0-2.5l2.2,0c0.7,0.7,1.1,1.5,1.1,2.5
			C595.2,360.2,594,361.4,592.4,361.4z"/>
		<path class="st5" d="M594.1,353.8l-0.8-0.6c0.5-0.4,0.8-0.9,0.8-1.5c0-0.5-0.2-0.8-0.6-0.8c-0.3,0-0.4,0.2-0.6,0.5
			c-0.2,0.3-0.3,0.8-0.5,1.2c-0.3,0.5-0.7,0.9-1.4,0.9c-0.9,0-1.6-0.7-1.6-1.8c0-0.6,0.2-1.3,0.7-1.8l0.8,0.6
			c-0.3,0.3-0.5,0.8-0.5,1.2c0,0.4,0.2,0.7,0.5,0.7c0.3,0,0.4-0.2,0.5-0.4c0.1-0.3,0.3-0.8,0.5-1.2c0.3-0.5,0.7-0.9,1.4-0.9
			c1,0,1.7,0.8,1.7,2C595.1,352.5,594.8,353.3,594.1,353.8z"/>
		<path class="st5" d="M589.5,348.9l0-1.1l2.2,0l0-2.3l-2.2,0l0-1.1l5.5,0l0,1.1l-2.2,0l0,2.3l2.2,0l0,1.1L589.5,348.9z"/>
		<path class="st5" d="M592.2,343.5c-1.6,0-2.9-1.2-2.9-2.8c0-1.6,1.2-2.9,2.8-2.9c1.6,0,2.8,1.2,2.8,2.8
			C595,342.2,593.8,343.5,592.2,343.5z M592.2,338.9c-1,0-1.7,0.8-1.7,1.7c0,0.9,0.8,1.7,1.8,1.7c1,0,1.7-0.8,1.7-1.7
			C593.9,339.7,593.2,338.9,592.2,338.9z"/>
		<path class="st5" d="M591.2,333c0.9,0,1.8,0.6,1.8,2l0,0.8l1.9,0l0,1.1l-5.5,0l0-2C589.4,333.5,590.3,333,591.2,333z M591.2,334.1
			c-0.4,0-0.8,0.3-0.8,0.8l0,0.9l1.6,0l0-0.9C592,334.3,591.6,334.1,591.2,334.1z"/>
	</g>
	<g>
		<path class="st5" d="M640.4,365l0-3.7l1,0l0,2.6l1.2,0l0-2.4l1,0l0,2.4l1.2,0l0-2.6l1,0l0,3.7L640.4,365z"/>
		<path class="st5" d="M643.1,360.7c-1.7,0-2.8-1.3-2.8-2.9c0-0.9,0.4-1.7,0.9-2.2l0.8,0.7c-0.4,0.4-0.6,0.9-0.6,1.5
			c0,1,0.8,1.8,1.8,1.8c1,0,1.8-0.7,1.8-1.8c0-0.6-0.3-1.1-0.6-1.5l-0.7,0l0,1.5l-1,0l0-2.5l2.2,0c0.7,0.7,1.1,1.5,1.1,2.5
			C645.9,359.5,644.7,360.7,643.1,360.7z"/>
		<path class="st5" d="M643.1,354.7c-1.6,0-2.9-1.2-2.9-2.8c0-1.6,1.2-2.9,2.8-2.9c1.6,0,2.8,1.2,2.8,2.8
			C645.9,353.5,644.7,354.7,643.1,354.7z M643,350.2c-1,0-1.7,0.8-1.7,1.7c0,0.9,0.8,1.7,1.8,1.7c1,0,1.7-0.8,1.7-1.7
			C644.8,350.9,644,350.2,643,350.2z"/>
	</g>
	<g>
		<path class="st5" d="M628.8,364.7c-0.8,0-1.3-0.6-1.3-1.3c0-0.5,0.2-0.8,0.5-1.1l0.3,0.3c-0.2,0.2-0.4,0.4-0.3,0.7
			c0,0.4,0.3,0.8,0.8,0.8c0.5,0,0.8-0.3,0.8-0.8c0-0.3-0.1-0.5-0.4-0.7l0.3-0.3c0.3,0.2,0.5,0.6,0.5,1.1
			C630.1,364.2,629.6,364.7,628.8,364.7z"/>
		<path class="st5" d="M629.1,361.3l0,0.3l0.9,0l0,0.5l-2.4,0l0-0.9c0-0.6,0.4-0.8,0.8-0.8c0.3,0,0.6,0.1,0.7,0.5l0.9-0.6l0,0.6
			L629.1,361.3z M628.7,361.6l0-0.4c0-0.3-0.2-0.4-0.3-0.4c-0.2,0-0.3,0.1-0.3,0.3l0,0.4L628.7,361.6z"/>
		<path class="st5" d="M627.5,359.3l2.4,0l0,0.5l-2.4,0L627.5,359.3z"/>
		<path class="st5" d="M629.6,359l-0.3-0.3c0.2-0.2,0.3-0.4,0.3-0.7c0-0.2-0.1-0.4-0.3-0.3c-0.1,0-0.2,0.1-0.3,0.2
			c-0.1,0.2-0.1,0.4-0.2,0.5c-0.1,0.2-0.3,0.4-0.6,0.4c-0.4,0-0.7-0.3-0.7-0.8c0-0.3,0.1-0.6,0.3-0.8l0.4,0.3
			c-0.2,0.1-0.2,0.4-0.2,0.5c0,0.2,0.1,0.3,0.2,0.3c0.1,0,0.2-0.1,0.2-0.2c0.1-0.1,0.1-0.4,0.2-0.5c0.1-0.2,0.3-0.4,0.6-0.4
			c0.4,0,0.7,0.4,0.8,0.9C630,358.4,629.9,358.8,629.6,359z"/>
		<path class="st5" d="M628.8,356.9c-0.7,0-1.3-0.5-1.3-1.3c0-0.7,0.6-1.3,1.3-1.3c0.7,0,1.3,0.5,1.3,1.3
			C630,356.4,629.5,356.9,628.8,356.9z M628.7,354.9c-0.5,0-0.8,0.4-0.8,0.8c0,0.4,0.3,0.8,0.8,0.8c0.4,0,0.8-0.3,0.8-0.8
			C629.5,355.2,629.2,354.9,628.7,354.9z"/>
		<path class="st5" d="M628.3,352.2c0.4,0,0.8,0.3,0.8,0.9l0,0.4l0.8,0l0,0.5l-2.4,0l0-0.9C627.5,352.5,627.9,352.2,628.3,352.2z
			 M628.3,352.7c-0.2,0-0.3,0.1-0.3,0.4l0,0.4l0.7,0l0-0.4C628.7,352.8,628.5,352.7,628.3,352.7z"/>
		<path class="st5" d="M629.4,350.7l0,0.9l0.5,0.2l0,0.5l-2.5-0.9l0-0.4l2.4-0.9l0,0.5L629.4,350.7z M629,351.4l0-0.6l-0.8,0.3
			L629,351.4z"/>
		<path class="st5" d="M628.7,350c-0.8,0-1.3-0.6-1.3-1.3c0-0.5,0.2-0.8,0.5-1.1l0.3,0.3c-0.2,0.2-0.4,0.4-0.3,0.7
			c0,0.4,0.3,0.8,0.8,0.8c0.5,0,0.8-0.3,0.8-0.8c0-0.3-0.1-0.5-0.4-0.7l0.3-0.3c0.3,0.2,0.5,0.6,0.5,1.1
			C630,349.4,629.5,350,628.7,350z"/>
		<path class="st5" d="M628.9,346.5l0.4,0.3l0.6,0l0,0.5l-2.4,0l0-0.5l1.2,0l-1.2-0.9l0-0.6l1.1,0.9l1.3-1l0,0.6L628.9,346.5z"/>
		<path class="st5" d="M631.5,363.7l0-1.6l0.5,0l0,1.1l0.5,0l0-1l0.5,0l0,1l1,0l0,0.5L631.5,363.7z"/>
		<path class="st5" d="M631.5,361.8l0-0.5l2,0l0-1.2l0.5,0l0,1.7L631.5,361.8z"/>
		<path class="st5" d="M632.8,359.9c-0.7,0-1.3-0.5-1.3-1.3c0-0.7,0.6-1.3,1.3-1.3c0.7,0,1.3,0.5,1.3,1.3
			C634,359.4,633.5,359.9,632.8,359.9z M632.7,357.9c-0.5,0-0.8,0.4-0.8,0.8c0,0.4,0.3,0.8,0.8,0.8c0.4,0,0.8-0.3,0.8-0.8
			C633.5,358.2,633.2,357.9,632.7,357.9z"/>
		<path class="st5" d="M631.5,357.3l0-0.5l1.6-0.5l-1.6-0.5l0-0.3l1.6-0.6l-1.6-0.5l0-0.5l2.5,0.8l0,0.4l-1.6,0.5l1.6,0.5l0,0.4
			L631.5,357.3z"/>
		<path class="st5" d="M631.5,353.5l0-1.7l0.5,0l0,1.2l0.5,0l0-1.1l0.5,0l0,1.1l0.5,0l0-1.2l0.5,0l0,1.7L631.5,353.5z"/>
		<path class="st5" d="M633,350.6l0,0.3l0.9,0l0,0.5l-2.4,0l0-0.9c0-0.6,0.4-0.8,0.8-0.8c0.3,0,0.6,0.1,0.7,0.5l0.9-0.6l0,0.6
			L633,350.6z M632.6,350.9l0-0.4c0-0.3-0.2-0.4-0.3-0.4c-0.2,0-0.3,0.1-0.3,0.3l0,0.4L632.6,350.9z"/>
		<path class="st5" d="M633.5,349.4l-0.3-0.3c0.2-0.2,0.3-0.4,0.3-0.7c0-0.2-0.1-0.4-0.3-0.3c-0.1,0-0.2,0.1-0.3,0.2
			c-0.1,0.2-0.1,0.4-0.2,0.5c-0.1,0.2-0.3,0.4-0.6,0.4c-0.4,0-0.7-0.3-0.7-0.8c0-0.3,0.1-0.6,0.3-0.8l0.4,0.3
			c-0.2,0.1-0.2,0.4-0.2,0.5c0,0.2,0.1,0.3,0.2,0.3c0.1,0,0.2-0.1,0.2-0.2c0.1-0.1,0.1-0.4,0.2-0.5c0.1-0.2,0.3-0.4,0.6-0.4
			c0.4,0,0.7,0.4,0.8,0.9C633.9,348.8,633.8,349.2,633.5,349.4z"/>
	</g>
	<g>
		<path class="st5" d="M219.6,287.5l0.5-0.7c0.3,0.4,0.8,0.7,1.3,0.7c0.4,0,0.7-0.2,0.7-0.5c0-0.2-0.2-0.4-0.4-0.5
			c-0.3-0.1-0.7-0.3-1-0.4c-0.4-0.2-0.8-0.6-0.8-1.2c0-0.8,0.6-1.4,1.6-1.4c0.6,0,1.1,0.2,1.6,0.6l-0.5,0.7c-0.3-0.3-0.7-0.4-1-0.4
			c-0.4,0-0.6,0.2-0.6,0.5c0,0.2,0.2,0.4,0.4,0.5c0.3,0.1,0.7,0.3,1.1,0.5c0.5,0.2,0.8,0.6,0.8,1.2c0,0.8-0.7,1.5-1.7,1.5
			C220.7,288.4,220,288.1,219.6,287.5z"/>
		<path class="st5" d="M223.9,283.5l1.9,0c1.4,0,2.3,0.9,2.3,2.4c0,1.5-0.9,2.4-2.3,2.4l-1.8,0L223.9,283.5z M225.8,287.3
			c0.9,0,1.3-0.7,1.3-1.5c0-0.8-0.4-1.5-1.3-1.4l-0.9,0l0,2.9L225.8,287.3z"/>
		<path class="st5" d="M229.8,283.5l0,4.8l-1,0l0-4.8L229.8,283.5z"/>
	</g>
	<g>
		<path class="st5" d="M326.4,150.3l0-1.8l7.3-0.1l0,1.8l-2.7,0l0.1,7.6l-1.9,0l-0.1-7.6L326.4,150.3z"/>
		<path class="st5" d="M338,154.4l-1.1,0l0,3.4l-1.9,0l-0.1-9.5l3.6,0c2.2,0,3.3,1.4,3.3,3c0,1.1-0.6,2.3-1.9,2.8l2.3,3.7l-2.2,0
			L338,154.4z M336.8,152.7l1.6,0c1.1,0,1.5-0.7,1.5-1.3c0-0.7-0.5-1.3-1.3-1.3l-1.7,0L336.8,152.7z"/>
		<path class="st5" d="M348.7,155.8l-3.3,0l-0.7,2.1l-2,0l3.5-9.5l1.6,0l3.6,9.4l-2,0L348.7,155.8z M345.9,154.1l2.2,0l-1.1-3.1
			L345.9,154.1z"/>
		<path class="st5" d="M352.5,148.3l1.3,0l3.8,5.3l3.6-5.4l1.3,0l0.1,9.5l-1.9,0l0-5.4l-2.7,4l-0.7,0l-2.8-3.9l0,5.4l-1.9,0
			L352.5,148.3z"/>
		<path class="st5" d="M371.4,151.3c0,1.6-1,3.1-3.5,3.1l-1.5,0l0,3.3l-1.9,0l-0.1-9.5l3.5,0C370.4,148.2,371.4,149.7,371.4,151.3z
			 M369.4,151.3c0-0.7-0.5-1.3-1.4-1.3l-1.6,0l0,2.7l1.5,0C369,152.7,369.5,152,369.4,151.3z"/>
		<path class="st5" d="M372.2,152.9c0-2.8,2.1-5,4.9-5s5,2.2,5,4.9c0,2.7-2.1,4.9-4.9,4.9C374.3,157.8,372.2,155.7,372.2,152.9z
			 M380.1,152.8c0-1.8-1.4-3-3-3c-1.6,0-3,1.3-2.9,3.1c0,1.7,1.3,3,3,3S380.1,154.6,380.1,152.8z"/>
		<path class="st5" d="M383.6,148.1l1.9,0l0.1,7.7l4.8,0l0,1.8l-6.7,0L383.6,148.1z"/>
		<path class="st5" d="M393.4,148l0.1,9.5l-1.9,0l-0.1-9.5L393.4,148z"/>
		<path class="st5" d="M403.6,147.9l0.1,9.5l-1.3,0l-5-5.8l0,5.8l-1.9,0l-0.1-9.5l1.2,0l5,5.8l0-5.9L403.6,147.9z"/>
		<path class="st5" d="M405.7,147.9l6.4,0l0,1.8l-4.5,0l0,2l4.2,0l0,1.8l-4.2,0l0,2.1l4.5,0l0,1.8l-6.4,0L405.7,147.9z"/>
		<path class="st5" d="M356.4,166.8c0,1.6-1,3.1-3.5,3.1l-1.5,0l0,3.3l-1.9,0l-0.1-9.5l3.5,0C355.4,163.7,356.3,165.2,356.4,166.8z
			 M354.4,166.8c0-0.7-0.5-1.3-1.4-1.3l-1.6,0l0,2.7l1.5,0C354,168.2,354.4,167.5,354.4,166.8z"/>
		<path class="st5" d="M362.2,171l-3.3,0l-0.7,2.1l-2,0l3.5-9.5l1.6,0l3.6,9.4l-2,0L362.2,171z M359.4,169.4l2.2,0l-1.1-3.1
			L359.4,169.4z"/>
		<path class="st5" d="M369,169.6l-1.1,0l0,3.4l-1.9,0l-0.1-9.5l3.6,0c2.2,0,3.3,1.4,3.3,3c0,1.1-0.6,2.3-1.9,2.8l2.3,3.7l-2.2,0
			L369,169.6z M367.9,167.9l1.6,0c1.1,0,1.5-0.7,1.5-1.3c0-0.7-0.5-1.3-1.3-1.3l-1.7,0L367.9,167.9z"/>
		<path class="st5" d="M377.7,169.2l-1.2,1.4l0,2.4l-1.9,0l-0.1-9.5l1.9,0l0,4.5l3.6-4.5l2.3,0l-3.4,4.3l3.8,5.1l-2.3,0L377.7,169.2
			z"/>
	</g>
	<g>
		<path class="st5" d="M379.6,259.1c0,1-0.7,1.9-2,1.9l-2.9,0l0-6.4l2.8,0c1.2,0,1.8,0.8,1.8,1.6c0,0.6-0.3,1.1-0.9,1.3
			C379.2,257.7,379.6,258.4,379.6,259.1z M375.9,255.7l0,1.4l1.2,0c0.6,0,0.8-0.4,0.8-0.7c0-0.3-0.3-0.7-0.8-0.7L375.9,255.7z
			 M378.3,259c0-0.4-0.3-0.8-1-0.8l-1.4,0l0,1.7l1.4,0C378,259.8,378.3,259.4,378.3,259z"/>
		<path class="st5" d="M380.6,254.6l4.3,0l0,1.2l-3,0l0,1.4l2.8,0l0,1.2l-2.8,0l0,1.4l3,0l0,1.2l-4.3,0L380.6,254.6z"/>
		<path class="st5" d="M386.1,254.5l2.5,0c1.9,0,3.1,1.2,3.1,3.2c0,1.9-1.1,3.2-3.1,3.2l-2.4,0L386.1,254.5z M388.6,259.7
			c1.1,0,1.7-0.9,1.7-2c0-1.1-0.6-1.9-1.7-1.9l-1.2,0l0,3.9L388.6,259.7z"/>
		<path class="st5" d="M399.8,258.9c0,1-0.7,1.9-2,1.9l-2.9,0l0-6.4l2.8,0c1.2,0,1.8,0.8,1.8,1.6c0,0.6-0.3,1.1-0.9,1.3
			C399.4,257.5,399.8,258.2,399.8,258.9z M396.1,255.6l0,1.4l1.2,0c0.6,0,0.8-0.4,0.8-0.7c0-0.3-0.3-0.7-0.8-0.7L396.1,255.6z
			 M398.5,258.8c0-0.4-0.3-0.8-1-0.8l-1.4,0l0,1.7l1.4,0C398.2,259.7,398.5,259.3,398.5,258.8z"/>
		<path class="st5" d="M404,259.4l-2.2,0l-0.5,1.4l-1.3,0l2.4-6.4l1,0l2.4,6.3l-1.3,0L404,259.4z M402.2,258.3l1.5,0l-0.8-2.1
			L402.2,258.3z"/>
		<path class="st5" d="M405.4,255.6l0-1.2l4.9,0l0,1.2l-1.8,0l0,5.1l-1.3,0l0-5.1L405.4,255.6z"/>
		<path class="st5" d="M411.2,254.3l1.3,0l0,2.5l2.7,0l0-2.5l1.3,0l0,6.4l-1.3,0l0-2.6l-2.7,0l0,2.6l-1.3,0L411.2,254.3z"/>
		<path class="st5" d="M383.7,271.4l-0.9-0.8c-0.6,0.6-1.3,0.8-2,0.8c-1.3,0-2.2-0.8-2.2-1.9c0-0.9,0.5-1.5,1.1-1.8
			c-0.2-0.4-0.4-0.7-0.4-1.2c0-0.8,0.7-1.7,1.8-1.7c0.9,0,1.6,0.6,1.6,1.4c0,0.9-0.8,1.3-1.5,1.7c0.1,0.1,0.2,0.2,0.3,0.3l1.1,1
			c0.2-0.3,0.5-0.6,0.7-0.9l0.8,0.6c-0.2,0.4-0.5,0.7-0.7,0.9l0.9,0.8L383.7,271.4z M382,269.9l-1.3-1.1c-0.1-0.1-0.3-0.2-0.4-0.3
			c-0.3,0.2-0.6,0.5-0.6,1c0,0.5,0.4,0.9,1.1,0.9C381.3,270.3,381.6,270.2,382,269.9z M380.4,266.5c0,0.3,0.1,0.5,0.2,0.7
			c0.6-0.3,1.1-0.5,1.1-0.9c0-0.3-0.2-0.5-0.6-0.5C380.7,265.7,380.4,266,380.4,266.5z"/>
		<path class="st5" d="M384.1,266.1l0-1.2l4.9,0l0,1.2l-1.8,0l0,5.1l-1.3,0l0-5.1L384.1,266.1z"/>
		<path class="st5" d="M392.7,269.8l-2.2,0l-0.5,1.4l-1.3,0l2.4-6.4l1,0l2.4,6.3l-1.3,0L392.7,269.8z M390.8,268.7l1.5,0l-0.8-2.1
			L390.8,268.7z"/>
		<path class="st5" d="M400.2,269.3c0,1-0.7,1.9-2,1.9l-2.9,0l0-6.4l2.8,0c1.2,0,1.8,0.8,1.8,1.6c0,0.6-0.3,1.1-0.9,1.3
			C399.8,267.8,400.2,268.5,400.2,269.3z M396.5,265.9l0,1.4l1.2,0c0.6,0,0.8-0.4,0.8-0.7c0-0.3-0.3-0.7-0.8-0.7L396.5,265.9z
			 M398.9,269.2c0-0.4-0.3-0.8-1-0.8l-1.4,0l0,1.7l1.4,0C398.6,270,398.9,269.6,398.9,269.2z"/>
		<path class="st5" d="M401.2,264.7l1.3,0l0,5.1l3.2,0l0,1.2l-4.5,0L401.2,264.7z"/>
		<path class="st5" d="M406.5,264.7l4.3,0l0,1.2l-3,0l0,1.4l2.8,0l0,1.2l-2.8,0l0,1.4l3,0l0,1.2l-4.3,0L406.5,264.7z"/>
	</g>
	<g>
		<path class="st5" d="M244.5,340.5c0-0.7,0.5-1.2,1.2-1.2c0.4,0,0.8,0.2,1,0.5l-0.3,0.3c-0.2-0.2-0.4-0.3-0.7-0.3
			c-0.4,0-0.7,0.3-0.7,0.8c0,0.4,0.3,0.7,0.7,0.7c0.3,0,0.5-0.1,0.7-0.3l0.3,0.3c-0.2,0.3-0.6,0.5-1,0.5
			C245.1,341.7,244.5,341.2,244.5,340.5z"/>
		<path class="st5" d="M247,339.3l0.5,0l0,1.9l1.2,0l0,0.4l-1.6,0L247,339.3z"/>
		<path class="st5" d="M249,339.3l1.6,0l0,0.4l-1.1,0l0,0.5l1,0l0,0.4l-1,0l0,0.5l1.1,0l0,0.4l-1.6,0L249,339.3z"/>
		<path class="st5" d="M252.3,341.1l-0.8,0l-0.2,0.5l-0.5,0l0.9-2.3l0.4,0l0.9,2.3l-0.5,0L252.3,341.1z M251.6,340.7l0.5,0l-0.3-0.8
			L251.6,340.7z"/>
		<path class="st5" d="M255.2,339.2l0,2.3l-0.3,0l-1.2-1.4l0,1.4l-0.5,0l0-2.3l0.3,0l1.2,1.4l0-1.4L255.2,339.2z"/>
		<path class="st5" d="M245.3,345.1l1.1-1.6l-1.1,0l0-0.4l1.7,0l0,0.3L246,345l1.2,0l0,0.4l-1.8,0L245.3,345.1z"/>
		<path class="st5" d="M247.3,344.2c0-0.7,0.5-1.2,1.2-1.2c0.7,0,1.2,0.5,1.2,1.2c0,0.7-0.5,1.2-1.2,1.2
			C247.8,345.4,247.3,344.9,247.3,344.2z M249.3,344.2c0-0.4-0.3-0.7-0.7-0.7c-0.4,0-0.7,0.3-0.7,0.8c0,0.4,0.3,0.7,0.7,0.7
			C248.9,345,249.3,344.6,249.3,344.2z"/>
		<path class="st5" d="M252.1,343l0,2.3l-0.3,0l-1.2-1.4l0,1.4l-0.5,0l0-2.3l0.3,0l1.2,1.4l0-1.4L252.1,343z"/>
		<path class="st5" d="M252.6,343l1.6,0l0,0.4l-1.1,0l0,0.5l1,0l0,0.4l-1,0l0,0.5l1.1,0l0,0.4l-1.6,0L252.6,343z"/>
	</g>
	<g>
		<path class="st5" d="M422.8,348.1c0-0.8,0.6-1.4,1.4-1.4c0.5,0,0.9,0.2,1.1,0.4l-0.4,0.4c-0.2-0.2-0.5-0.3-0.7-0.3
			c-0.5,0-0.9,0.4-0.9,0.9c0,0.5,0.4,0.9,0.9,0.9c0.3,0,0.6-0.1,0.7-0.3l0-0.4l-0.8,0l0-0.5l1.2,0l0,1.1c-0.3,0.3-0.8,0.5-1.2,0.5
			C423.4,349.4,422.8,348.9,422.8,348.1z"/>
		<path class="st5" d="M426.8,348.4l-0.3,0l0,1l-0.5,0l0-2.7l1,0c0.6,0,0.9,0.4,0.9,0.9c0,0.3-0.2,0.7-0.5,0.8l0.7,1.1l-0.6,0
			L426.8,348.4z M426.5,347.9l0.4,0c0.3,0,0.4-0.2,0.4-0.4c0-0.2-0.1-0.4-0.4-0.4l-0.5,0L426.5,347.9z"/>
		<path class="st5" d="M428.4,346.7l1.8,0l0,0.5l-1.3,0l0,0.6l1.2,0l0,0.5l-1.2,0l0,0.6l1.3,0l0,0.5l-1.8,0L428.4,346.7z"/>
		<path class="st5" d="M430.8,346.6l1.8,0l0,0.5l-1.3,0l0,0.6l1.2,0l0,0.5l-1.2,0l0,0.6l1.3,0l0,0.5l-1.8,0L430.8,346.6z"/>
		<path class="st5" d="M435.4,346.6l0,2.7l-0.4,0l-1.4-1.7l0,1.7l-0.5,0l0-2.7l0.3,0l1.4,1.7l0-1.7L435.4,346.6z"/>
		<path class="st5" d="M436.9,346.6l0.5,0l0,2.2l1.4,0l0,0.5l-1.9,0L436.9,346.6z"/>
		<path class="st5" d="M439.8,346.6l0,2.7l-0.5,0l0-2.7L439.8,346.6z"/>
		<path class="st5" d="M440.4,346.6l1.8,0l0,0.5l-1.3,0l0,0.6l1.1,0l0,0.5l-1.1,0l0,1.1l-0.5,0L440.4,346.6z"/>
		<path class="st5" d="M442.6,346.5l1.8,0l0,0.5l-1.3,0l0,0.6l1.2,0l0,0.5l-1.2,0l0,0.6l1.3,0l0,0.5l-1.8,0L442.6,346.5z"/>
		<path class="st5" d="M429.2,352.4c0-0.8,0.6-1.4,1.4-1.4c0.5,0,0.9,0.2,1.2,0.6l-0.4,0.4c-0.2-0.2-0.5-0.4-0.8-0.4
			c-0.5,0-0.9,0.4-0.9,0.9c0,0.5,0.4,0.9,0.9,0.9c0.3,0,0.6-0.2,0.8-0.4l0.4,0.3c-0.2,0.3-0.7,0.6-1.2,0.6
			C429.8,353.8,429.2,353.3,429.2,352.4z"/>
		<path class="st5" d="M433.6,353.2l-0.9,0l-0.2,0.6l-0.6,0l1-2.7l0.4,0l1,2.7l-0.6,0L433.6,353.2z M432.8,352.7l0.6,0l-0.3-0.9
			L432.8,352.7z"/>
		<path class="st5" d="M434.7,351l1.8,0l0,0.5l-1.3,0l0,0.6l1.1,0l0,0.5l-1.1,0l0,1.1l-0.5,0L434.7,351z"/>
		<path class="st5" d="M436.9,351l1.8,0l0,0.5l-1.3,0l0,0.6l1.2,0l0,0.5l-1.2,0l0,0.6l1.3,0l0,0.5l-1.8,0L436.9,351z"/>
	</g>
	<g>
		<path class="st5" d="M474.2,354.7l-0.5,0l0,1.5l-0.8,0l0-4l1.5,0c0.9,0,1.4,0.6,1.4,1.3c0,0.5-0.2,1-0.8,1.2l1,1.6l-0.9,0
			L474.2,354.7z M473.7,354l0.7,0c0.5,0,0.6-0.3,0.6-0.6c0-0.3-0.2-0.5-0.6-0.5l-0.7,0L473.7,354z"/>
		<path class="st5" d="M476.3,354.1c0-1.2,0.9-2.1,2.1-2.1s2.1,0.9,2.1,2.1c0,1.1-0.9,2.1-2.1,2.1
			C477.3,356.2,476.4,355.3,476.3,354.1z M479.7,354.1c0-0.8-0.6-1.3-1.3-1.3c-0.7,0-1.3,0.6-1.2,1.3c0,0.7,0.6,1.3,1.3,1.3
			C479.2,355.4,479.7,354.8,479.7,354.1z"/>
		<path class="st5" d="M481.8,354.1l-1.2-2l0.9,0l0.8,1.4l0.8-1.4l0.9,0l-1.3,2l1.3,2l-0.9,0l-0.8-1.4l-0.8,1.4l-0.9,0L481.8,354.1z
			"/>
		<path class="st5" d="M486.4,354.7l0,1.4l-0.8,0l0-1.4l-1.4-2.6l0.9,0l0.9,1.8l0.9-1.8l0.9,0L486.4,354.7z"/>
		<path class="st5" d="M488.3,352l0.5,0l1.6,2.3l1.5-2.3l0.5,0l0,4l-0.8,0l0-2.3l-1.2,1.7l-0.3,0l-1.2-1.7l0,2.3l-0.8,0L488.3,352z"
			/>
		<path class="st5" d="M495.6,355.1l-1.4,0l-0.3,0.9l-0.8,0l1.5-4l0.7,0l1.5,4l-0.8,0L495.6,355.1z M494.4,354.4l0.9,0l-0.5-1.3
			L494.4,354.4z"/>
		<path class="st5" d="M475.7,358.7l1.6,0c1.2,0,1.9,0.8,2,2c0,1.2-0.7,2-2,2l-1.5,0L475.7,358.7z M477.3,361.9
			c0.7,0,1.1-0.6,1.1-1.3c0-0.7-0.4-1.2-1.1-1.2l-0.8,0l0,2.5L477.3,361.9z"/>
		<path class="st5" d="M481.2,361.2l-0.5,0l0,1.5l-0.8,0l0-4l1.5,0c0.9,0,1.4,0.6,1.4,1.3c0,0.5-0.2,1-0.8,1.2l1,1.6l-0.9,0
			L481.2,361.2z M480.7,360.5l0.7,0c0.5,0,0.6-0.3,0.6-0.6c0-0.3-0.2-0.5-0.6-0.5l-0.7,0L480.7,360.5z"/>
		<path class="st5" d="M483.5,358.6l2.7,0l0,0.8l-1.9,0l0,0.9l1.8,0l0,0.8l-1.8,0l0,0.9l1.9,0l0,0.8l-2.7,0L483.5,358.6z"/>
		<path class="st5" d="M489.2,361.7l-1.4,0l-0.3,0.9l-0.8,0l1.5-4l0.7,0l1.5,4l-0.8,0L489.2,361.7z M488,361l0.9,0l-0.5-1.3L488,361
			z"/>
		<path class="st5" d="M490.8,358.5l0.5,0l1.6,2.3l1.5-2.3l0.5,0l0,4l-0.8,0l0-2.3l-1.2,1.7l-0.3,0l-1.2-1.7l0,2.3l-0.8,0
			L490.8,358.5z"/>
	</g>
	<g>
		<path class="st5" d="M599.9,347.8c0-1.2,0.9-2.1,2.1-2.1c0.7,0,1.4,0.3,1.7,0.8l-0.5,0.5c-0.3-0.3-0.7-0.6-1.2-0.6
			c-0.7,0-1.3,0.6-1.3,1.3c0,0.7,0.6,1.3,1.3,1.3c0.5,0,0.9-0.2,1.2-0.6l0.6,0.5c-0.4,0.5-1,0.9-1.8,0.9
			C600.9,349.9,600,349,599.9,347.8z"/>
		<path class="st5" d="M604,347.8c0-1.2,0.9-2.1,2.1-2.1c1.2,0,2.1,0.9,2.1,2.1c0,1.1-0.9,2.1-2.1,2.1
			C605,349.8,604.1,348.9,604,347.8z M607.4,347.8c0-0.8-0.6-1.3-1.3-1.3c-0.7,0-1.3,0.6-1.2,1.3c0,0.7,0.6,1.3,1.3,1.3
			C606.9,349,607.4,348.5,607.4,347.8z"/>
		<path class="st5" d="M608.7,347.8c0-1.2,0.9-2.1,2.1-2.1s2.1,0.9,2.1,2.1c0,1.1-0.9,2.1-2.1,2.1
			C609.6,349.8,608.7,348.9,608.7,347.8z M612,347.7c0-0.8-0.6-1.3-1.3-1.3c-0.7,0-1.3,0.6-1.2,1.3c0,0.7,0.6,1.3,1.3,1.3
			C611.5,349,612,348.5,612,347.7z"/>
		<path class="st5" d="M614.8,348.1l-0.5,0.6l0,1l-0.8,0l0-4l0.8,0l0,1.9l1.5-1.9l1,0l-1.5,1.8l1.6,2.2l-1,0L614.8,348.1z"/>
		<path class="st5" d="M621.5,349.7l-0.6-0.5c-0.4,0.4-0.8,0.5-1.2,0.5c-0.8,0-1.4-0.5-1.4-1.2c0-0.6,0.3-0.9,0.7-1.2
			c-0.1-0.2-0.2-0.5-0.2-0.8c0-0.5,0.4-1,1.1-1.1c0.6,0,1,0.4,1,0.9c0,0.6-0.5,0.8-1,1.1c0.1,0.1,0.1,0.1,0.2,0.2l0.7,0.6
			c0.1-0.2,0.3-0.4,0.4-0.6l0.5,0.4c-0.2,0.2-0.3,0.4-0.4,0.6l0.6,0.5L621.5,349.7z M620.4,348.8l-0.8-0.7c-0.1-0.1-0.2-0.1-0.2-0.2
			c-0.2,0.2-0.4,0.3-0.3,0.6c0,0.3,0.3,0.6,0.7,0.6C620,349.1,620.2,349,620.4,348.8z M619.4,346.6c0,0.2,0.1,0.3,0.1,0.5
			c0.4-0.2,0.7-0.3,0.7-0.6c0-0.2-0.1-0.3-0.4-0.3C619.6,346.2,619.4,346.4,619.4,346.6z"/>
		<path class="st5" d="M602.9,352.3l0.8,0l0,1.6l1.7,0l0-1.6l0.8,0l0,4l-0.8,0l0-1.6l-1.7,0l0,1.6l-0.8,0L602.9,352.3z"/>
		<path class="st5" d="M606.9,354.3c0-1.2,0.9-2.1,2.1-2.1s2.1,0.9,2.1,2.1c0,1.1-0.9,2.1-2.1,2.1
			C607.8,356.4,606.9,355.5,606.9,354.3z M610.2,354.3c0-0.8-0.6-1.3-1.3-1.3c-0.7,0-1.3,0.6-1.2,1.3c0,0.7,0.6,1.3,1.3,1.3
			C609.7,355.5,610.2,355,610.2,354.3z"/>
		<path class="st5" d="M611.7,352.2l0.5,0l1.6,2.3l1.5-2.3l0.5,0l0,4l-0.8,0l0-2.3l-1.2,1.7l-0.3,0l-1.2-1.7l0,2.3l-0.8,0
			L611.7,352.2z"/>
		<path class="st5" d="M616.8,352.2l2.7,0l0,0.8l-1.9,0l0,0.9l1.8,0l0,0.8l-1.8,0l0,0.9l1.9,0l0,0.8l-2.7,0L616.8,352.2z"/>
	</g>
	<g>
		<path class="st5" d="M629,271.6l2.3,0c1.8,0,2.8,1.1,2.8,2.9c0,1.8-1,2.9-2.8,2.9l-2.2,0L629,271.6z M631.3,276.3
			c1.1,0,1.6-0.8,1.6-1.8c0-1-0.6-1.8-1.6-1.8l-1.1,0l0,3.6L631.3,276.3z"/>
		<path class="st5" d="M634.6,276.4l0.7-0.8c0.4,0.5,1,0.8,1.6,0.8c0.5,0,0.8-0.3,0.8-0.6c0-0.3-0.2-0.5-0.5-0.6
			c-0.4-0.2-0.9-0.3-1.3-0.5c-0.5-0.3-0.9-0.7-0.9-1.4c0-1,0.8-1.7,2-1.7c0.7,0,1.4,0.2,1.9,0.8l-0.6,0.9c-0.4-0.4-0.9-0.5-1.3-0.5
			c-0.5,0-0.7,0.2-0.7,0.6c0,0.3,0.2,0.5,0.5,0.6c0.3,0.1,0.9,0.4,1.3,0.6c0.6,0.3,1,0.7,1,1.4c0,1-0.8,1.8-2.1,1.8
			C635.9,277.5,635.1,277.1,634.6,276.4z"/>
		<path class="st5" d="M641.8,275l-0.7,0.9l0,1.5l-1.2,0l0-5.8l1.2,0l0,2.8l2.2-2.8l1.4,0l-2.1,2.7l2.3,3.2l-1.4,0L641.8,275z"/>
		<path class="st5" d="M631.7,285.2c0,0.9-0.7,1.7-1.8,1.7l-2.7,0l0-5.8l2.5,0c1.1,0,1.7,0.7,1.7,1.4c0,0.5-0.3,1-0.8,1.2
			C631.3,283.9,631.7,284.5,631.7,285.2z M628.3,282.1l0,1.3l1.1,0c0.5,0,0.7-0.3,0.7-0.7c0-0.3-0.2-0.6-0.7-0.6L628.3,282.1z
			 M630.5,285.1c0-0.4-0.3-0.8-0.9-0.8l-1.3,0l0,1.5l1.3,0C630.2,285.9,630.5,285.5,630.5,285.1z"/>
		<path class="st5" d="M635.6,285.6l-2,0l-0.4,1.3l-1.2,0l2.2-5.9l1,0l2.2,5.8l-1.2,0L635.6,285.6z M633.9,284.6l1.4,0l-0.7-1.9
			L633.9,284.6z"/>
		<path class="st5" d="M642.9,281l0,5.8l-0.8,0l-3.1-3.6l0,3.6l-1.2,0l0-5.8l0.7,0l3.1,3.6l0-3.6L642.9,281z"/>
		<path class="st5" d="M646.1,284.5l-0.7,0.9l0,1.5l-1.2,0l0-5.8l1.2,0l0,2.8l2.2-2.8l1.4,0l-2.1,2.7l2.3,3.2l-1.4,0L646.1,284.5z"
			/>
	</g>
	<g>
		<path class="st5" d="M656.2,357.9c0,0.6-0.4,1.1-1.2,1.1l-1.7,0l0-3.8l1.7,0c0.7,0,1.1,0.5,1.1,0.9c0,0.3-0.2,0.7-0.5,0.8
			C656,357,656.2,357.4,656.2,357.9z M654,355.8l0,0.8l0.8,0c0.3,0,0.5-0.2,0.5-0.4c0-0.2-0.2-0.4-0.5-0.4L654,355.8z M655.4,357.8
			c0-0.3-0.2-0.5-0.6-0.5l-0.8,0l0,1l0.8,0C655.2,358.3,655.4,358.1,655.4,357.8z"/>
		<path class="st5" d="M656.8,355.1l2.6,0l0,0.7l-1.8,0l0,0.8l1.7,0l0,0.7l-1.7,0l0,0.9l1.8,0l0,0.7l-2.6,0L656.8,355.1z"/>
		<path class="st5" d="M663.4,355.1l0,3.8l-0.5,0l-2-2.3l0,2.4l-0.8,0l0-3.8l0.5,0l2,2.4l0-2.4L663.4,355.1z"/>
		<path class="st5" d="M663.8,358.5l0.4-0.6c0.2,0.2,0.5,0.3,0.8,0.3c0.4,0,0.7-0.3,0.7-0.8l0-2.4l0.8,0l0,2.4c0,1-0.6,1.5-1.4,1.5
			C664.6,359,664.2,358.8,663.8,358.5z"/>
		<path class="st5" d="M669.2,358.1l-1.3,0l-0.3,0.8l-0.8,0l1.4-3.8l0.6,0l1.5,3.8l-0.8,0L669.2,358.1z M668.1,357.4l0.9,0l-0.5-1.3
			L668.1,357.4z"/>
		<path class="st5" d="M670.7,355l0.5,0l1.5,2.2l1.5-2.2l0.5,0l0,3.8l-0.8,0l0-2.2l-1.1,1.6l-0.3,0l-1.1-1.6l0,2.2l-0.8,0L670.7,355
			z"/>
		<path class="st5" d="M676.4,355l0,3.8l-0.8,0l0-3.8L676.4,355z"/>
		<path class="st5" d="M680.5,355l0,3.8l-0.5,0l-2-2.3l0,2.4l-0.8,0l0-3.8l0.5,0l2,2.4l0-2.4L680.5,355z"/>
		<path class="st5" d="M657.1,361.4l0.5,0l1.5,2.2l1.5-2.2l0.5,0l0,3.8l-0.8,0l0-2.2l-1.1,1.6l-0.3,0l-1.1-1.6l0,2.2l-0.8,0
			L657.1,361.4z"/>
		<path class="st5" d="M661.8,363.3c0-1.1,0.9-2,2-2c1.1,0,2,0.9,2,2c0,1.1-0.9,2-2,2C662.6,365.2,661.8,364.4,661.8,363.3z
			 M664.9,363.2c0-0.7-0.5-1.2-1.2-1.2c-0.7,0-1.2,0.5-1.2,1.2c0,0.7,0.5,1.2,1.2,1.2C664.4,364.4,665,363.9,664.9,363.2z"/>
		<path class="st5" d="M666.1,363.2c0-1.1,0.9-2,2-2c1.1,0,2,0.9,2,2c0,1.1-0.9,2-2,2C667,365.2,666.2,364.3,666.1,363.2z
			 M669.3,363.2c0-0.7-0.5-1.2-1.2-1.2c-0.7,0-1.2,0.5-1.2,1.2c0,0.7,0.5,1.2,1.2,1.2C668.8,364.4,669.4,363.9,669.3,363.2z"/>
		<path class="st5" d="M672,363.7l-0.5,0l0,1.4l-0.8,0l0-3.8l1.5,0c0.9,0,1.3,0.6,1.3,1.2c0,0.5-0.2,0.9-0.8,1.1l0.9,1.5l-0.9,0
			L672,363.7z M671.5,363l0.6,0c0.4,0,0.6-0.3,0.6-0.5c0-0.3-0.2-0.5-0.5-0.5l-0.7,0L671.5,363z"/>
		<path class="st5" d="M674.2,361.2l2.6,0l0,0.7l-1.8,0l0,0.8l1.7,0l0,0.7l-1.7,0l0,0.9l1.8,0l0,0.7l-2.6,0L674.2,361.2z"/>
	</g>
	<g>
		<path class="st5" d="M631.9,191.9l2.4,0l7.2,10.2l6.9-10.3l2.4,0l0.1,18l-3.6,0l-0.1-10.2l-5.2,7.6l-1.2,0l-5.3-7.5l0.1,10.2
			l-3.6,0L631.9,191.9z"/>
		<path class="st5" d="M660.7,203.2l-2.1,0l0,6.6l-3.6,0l-0.1-18l6.9-0.1c4.2,0,6.2,2.7,6.2,5.7c0,2.2-1.1,4.4-3.6,5.3l4.4,7l-4.2,0
			L660.7,203.2z M658.5,199.9l3,0c2,0,2.8-1.2,2.8-2.5c0-1.3-0.9-2.4-2.5-2.4l-3.3,0L658.5,199.9z"/>
		<path class="st5" d="M670.4,208c0-1.1,0.9-2,2-2c1.1,0,2,0.8,2,1.9c0,1.1-0.9,2-1.9,2C671.4,210,670.4,209.2,670.4,208z"/>
		<path class="st5" d="M691.2,204.2c0,2.8-2.1,5.3-5.7,5.3l-8.2,0.1l-0.1-18l7.9-0.1c3.4,0,5.1,2.3,5.2,4.5c0,1.6-1,3.1-2.4,3.7
			C690.1,200.2,691.2,202.1,691.2,204.2z M680.8,194.7l0,3.9l3.5,0c1.6,0,2.3-1.1,2.3-2c0-1-0.8-1.9-2.2-1.9L680.8,194.7z
			 M687.5,204c0-1.2-0.8-2.4-2.7-2.4l-4,0l0,4.8l4,0C686.6,206.4,687.5,205.1,687.5,204z"/>
		<path class="st5" d="M699.9,202.9l-2.1,0l0,6.6l-3.6,0l-0.1-18l6.9-0.1c4.2,0,6.2,2.7,6.2,5.7c0,2.2-1.1,4.4-3.6,5.3l4.4,7l-4.2,0
			L699.9,202.9z M697.8,199.6l3,0c2,0,2.8-1.2,2.8-2.5c0-1.3-0.9-2.4-2.5-2.4l-3.3,0L697.8,199.6z"/>
		<path class="st5" d="M714.2,191.3l0.1,18l-3.6,0l-0.1-18L714.2,191.3z"/>
		<path class="st5" d="M717.2,200.3c0-5.6,4.2-9.4,9.2-9.5c3.3,0,6.2,1.5,7.8,3.7l-2.4,2.4c-1.3-1.5-3-2.6-5.2-2.6
			c-3.2,0-5.7,2.5-5.7,5.9c0,3.3,2.5,5.7,5.8,5.7c2.1,0,4-1.1,5.2-2.7l2.5,2.2c-1.6,2.2-4.5,3.9-7.9,3.9
			C721.4,209.5,717.3,205.9,717.2,200.3z"/>
		<path class="st5" d="M735.6,200.2c0-5.2,4.1-9.4,9.3-9.5c5.3,0,9.4,4.1,9.5,9.3c0,5.1-4,9.3-9.3,9.4
			C739.7,209.4,735.7,205.4,735.6,200.2z M750.7,200c0-3.4-2.6-5.8-5.7-5.7c-3.1,0-5.6,2.5-5.6,5.8c0,3.3,2.5,5.7,5.7,5.7
			S750.7,203.3,750.7,200z"/>
		<path class="st5" d="M757.3,191l3.6,0l0.1,14.6l9.2-0.1l0,3.5l-12.8,0.1L757.3,191z"/>
		<path class="st5" d="M782.2,204.9l-6.3,0l-1.4,3.9l-3.8,0l6.7-18.1l3,0l6.9,18l-3.8,0L782.2,204.9z M776.9,201.7l4.2,0l-2.1-6
			L776.9,201.7z"/>
		<path class="st5" d="M787.8,199.8c0-5.5,4.2-9.4,9.5-9.4c3,0,5.7,1.2,7.3,2.9l-2.3,2.6c-1.3-1.2-3-2-4.9-2c-3.4,0-5.8,2.5-5.8,5.9
			c0,3.2,2.4,5.8,5.8,5.8c1.9,0,3.7-0.9,4.8-2l0-2.5l-5,0l0-3.1l8.3-0.1l0.1,7.4c-2.2,2.3-5,3.6-8.2,3.6
			C791.8,209,787.8,205.1,787.8,199.8z"/>
		<path class="st5" d="M808.5,190.6l12.2-0.1l0,3.4l-8.6,0.1l0,3.9l8-0.1l0,3.4l-8,0.1l0,4l8.6-0.1l0,3.4l-12.2,0.1L808.5,190.6z"/>
	</g>
	<g>
		<path class="st5" d="M455,154.1l0-1.9l7.6-0.1l0,1.9l-2.8,0l0.1,7.9l-2,0l-0.1-7.9L455,154.1z"/>
		<path class="st5" d="M463.9,152.1l6.7,0l0,1.8l-4.7,0l0,2.1l4.3,0l0,1.8l-4.3,0l0,2.2l4.7,0l0,1.8l-6.7,0L463.9,152.1z"/>
		<path class="st5" d="M471.6,157c0-3,2.3-5.1,5-5.2c1.8,0,3.4,0.8,4.2,2l-1.3,1.3c-0.7-0.8-1.7-1.4-2.8-1.4c-1.8,0-3.1,1.4-3.1,3.2
			c0,1.8,1.4,3.1,3.1,3.1c1.2,0,2.2-0.6,2.9-1.5l1.4,1.2c-0.9,1.2-2.4,2.1-4.3,2.1C473.9,162,471.7,160,471.6,157z"/>
		<path class="st5" d="M482.3,152l2,0l0,3.9l4.1,0l0-3.9l2,0l0.1,9.8l-2,0l0-4l-4.1,0l0,4l-2,0L482.3,152z"/>
		<path class="st5" d="M501,151.8l0.1,9.8l-1.3,0l-5.1-6l0,6l-1.9,0l-0.1-9.8l1.3,0l5.2,6l0-6.1L501,151.8z"/>
		<path class="st5" d="M502.6,156.8c0-2.9,2.2-5.1,5.1-5.2c2.9,0,5.1,2.2,5.2,5.1c0,2.8-2.2,5.1-5.1,5.1
			C504.8,161.8,502.6,159.6,502.6,156.8z M510.8,156.7c0-1.8-1.4-3.1-3.1-3.1c-1.7,0-3.1,1.4-3.1,3.2c0,1.8,1.4,3.1,3.1,3.1
			S510.8,158.5,510.8,156.7z"/>
		<path class="st5" d="M514.4,151.7l1.3,0l3.9,5.5l3.8-5.6l1.3,0l0.1,9.8l-2,0l0-5.6L520,160l-0.7,0l-2.9-4.1l0,5.6l-1.9,0
			L514.4,151.7z"/>
		<path class="st5" d="M532.2,159.3l-3.4,0l-0.7,2.1l-2.1,0l3.7-9.9l1.6,0l3.8,9.8l-2.1,0L532.2,159.3z M529.3,157.6l2.3,0l-1.2-3.3
			L529.3,157.6z"/>
		<path class="st5" d="M539.4,157.8l-1.2,0l0,3.6l-2,0l-0.1-9.8l3.8,0c2.3,0,3.4,1.5,3.4,3.1c0,1.2-0.6,2.4-2,2.9l2.4,3.8l-2.3,0
			L539.4,157.8z M538.2,156l1.6,0c1.1,0,1.5-0.7,1.5-1.4c0-0.7-0.5-1.3-1.4-1.3l-1.8,0L538.2,156z"/>
		<path class="st5" d="M548.4,157.4l-1.2,1.5l0,2.4l-2,0l-0.1-9.8l2,0l0,4.6l3.7-4.7l2.4,0l-3.6,4.5l3.9,5.3l-2.4,0L548.4,157.4z"/>
		<path class="st5" d="M554.4,151.4l6.7,0l0,1.8l-4.7,0l0,2.1l4.3,0l0,1.8l-4.3,0l0,2.2l4.7,0l0,1.8l-6.7,0L554.4,151.4z"/>
		<path class="st5" d="M562,153.3l0-1.9l7.6-0.1l0,1.9l-2.8,0l0.1,7.9l-2,0l-0.1-7.9L562,153.3z"/>
	</g>
	<g>
		<g>
			<path d="M577.9,224.1c0-7.8,0-15.6,0-23.5c0-0.2,0-0.3,0-0.5c0-0.1,0.1-0.1,0.2-0.2c0.1,0,0.3,0,0.4,0c4,0,8,0,12.1,0
				c0.1,0,0.2,0,0.2,0c0.1,0,0.2,0,0.2-0.2c0-0.1,0-0.1,0-0.2c0-1.1,0-2.2,0-3.3c0-0.2,0.1-0.4,0.2-0.5c0.5-0.4,0.9-0.9,1.3-1.3
				c0.3-0.3,0.6-0.6,0.9-0.9c0.1-0.1,0.3-0.2,0.5-0.2c1.7,0,3.5,0,5.2,0c2.3,0,4.7,0,7,0c0.3,0,0.5,0.1,0.6,0.3
				c0,0.1,0.1,0.1,0.2,0.2c0.6,0.6,1.2,1.2,1.9,1.9c0.1,0.1,0.2,0.3,0.2,0.5c0,1.1,0,2.3,0,3.4c0,0.3,0,0.3,0.3,0.3
				c4,0,8.1,0,12.1,0c0.1,0,0.3,0,0.4,0c0.1,0,0.2,0.1,0.2,0.2c0,0,0,0.1,0,0.1c0,0.1,0,0.1,0,0.2c0,15.7,0,31.4,0,47.2
				c0,0.1,0,0.2,0,0.3c0,0.2,0,0.2-0.2,0.2c-0.1,0-0.2,0-0.3,0c-0.1,0-0.1,0-0.2,0c-14.3,0-28.5,0-42.8,0c-0.2,0-0.3,0-0.5,0
				c-0.2,0-0.2,0-0.2-0.2c0-0.1,0-0.2,0-0.3c0-4.4,0-8.8,0-13.2C577.9,230.9,577.9,227.5,577.9,224.1z M600.1,199.9c2,0,4,0,6,0
				c0.3,0,0.3,0,0.3-0.3c0-1.1,0-2.1,0-3.2c0-0.4,0-0.4-0.4-0.4c-3.9,0-7.9,0-11.8,0c-0.1,0-0.1,0-0.2,0c-0.1,0-0.2,0-0.2,0.2
				c0,0.1,0,0.1,0,0.2c0,1.1,0,2.1,0,3.2c0,0.3,0,0.3,0.3,0.3C596.1,199.9,598.1,199.9,600.1,199.9z"/>
		</g>
		<path class="st6" d="M583.2,216.7c0,1.8,0,3.6,0,5.4c0,0.3,0,0.3,0.3,0.3c0.4,0,0.8,0,1.2,0c0.3,0,0.3,0,0.3-0.3
			c0-1.9,0-3.7,0-5.6c0-0.1,0-0.2,0-0.3c0-0.1,0-0.1,0.1-0.1c0.1,0,0.1,0,0.1,0.1c0.1,0.1,0.1,0.2,0.2,0.3c0.2,0.4,0.4,0.9,0.6,1.3
			c0.5,1,1,2,1.5,3c0.2,0.5,0.5,0.9,0.7,1.4c0,0.1,0.1,0.2,0.2,0.2c0.4,0,0.8,0,1.1,0c0.1,0,0.2,0,0.3-0.2c0,0,0.1-0.1,0.1-0.1
			c0.5-1,1.1-2,1.6-3c0.4-0.7,0.8-1.5,1.2-2.2c0.1-0.2,0.2-0.4,0.4-0.6c0,0,0.1-0.1,0.1-0.1c0.1,0,0.1,0.1,0.1,0.1
			c0,0.1,0,0.2,0,0.3c0,1.8,0,3.6,0,5.5c0,0.1,0,0.1,0,0.2c0,0.1,0.1,0.1,0.1,0.1c0.1,0,0.1,0,0.2,0c0.6,0,1.2,0,1.7,0
			c0.4,0,0.4,0,0.4-0.4c0-3.5,0-7.1,0-10.6c0,0,0-0.1,0-0.1c0-0.2,0-0.2-0.2-0.2c-0.5,0-0.9,0-1.4,0c-0.2,0-0.3,0.1-0.4,0.2
			c-0.1,0.3-0.3,0.6-0.4,0.8c-0.6,1.1-1.2,2.3-1.8,3.4c-0.2,0.5-0.5,0.9-0.7,1.4c-0.4,0.7-0.8,1.4-1.1,2.2c0,0.1-0.1,0.1-0.1,0.2
			c-0.1,0.1-0.1,0.1-0.2,0c0,0,0-0.1-0.1-0.1c-0.2-0.4-0.4-0.7-0.6-1.1c-0.4-0.9-0.9-1.7-1.3-2.6c-0.4-0.8-0.8-1.5-1.2-2.2
			c-0.3-0.7-0.7-1.3-1-2c-0.1-0.2-0.2-0.2-0.4-0.2c-0.5,0-0.9,0-1.4,0c-0.3,0-0.3,0-0.3,0.3C583.2,213.1,583.2,214.9,583.2,216.7z"
			/>
		<path class="st6" d="M611.7,216.7c0-0.8,0-1.6,0-2.5c0-1,0-2,0-3c0-0.3,0-0.3-0.3-0.3c-0.4,0-0.8,0-1.2,0c-0.4,0-0.4,0-0.4,0.4
			c0,2,0,4.1,0,6.1c0,0.1,0,0.2,0,0.2c0,0,0,0.1-0.1,0.1c0,0-0.1,0-0.1,0c-0.1-0.1-0.2-0.2-0.3-0.3c-0.3-0.4-0.7-0.8-1-1.3
			c-0.2-0.3-0.5-0.6-0.7-0.9c-0.5-0.7-1.1-1.3-1.6-2c-0.6-0.7-1.2-1.5-1.8-2.2c-0.1-0.1-0.2-0.1-0.3-0.1c-0.3,0-0.5,0-0.8,0
			c-0.4,0-0.4,0-0.4,0.4c0,3.5,0,7.1,0,10.6c0,0.1,0,0.1,0,0.2c0,0.2,0,0.3,0.3,0.3c0.4,0,0.8,0,1.3,0c0.4,0,0.4,0,0.4-0.4
			c0-2.1,0-4.1,0-6.2c0-0.1,0-0.2,0-0.2c0-0.1,0-0.2,0.1-0.2c0.1,0,0.1,0.1,0.2,0.1c0.1,0.1,0.2,0.2,0.3,0.4c0.7,0.8,1.3,1.6,2,2.4
			c0.6,0.7,1.3,1.5,1.9,2.2c0.5,0.6,1,1.2,1.5,1.8c0.1,0.1,0.1,0.1,0.3,0.1c0.2,0,0.4,0,0.5,0c0.3,0,0.3,0,0.3-0.3
			C611.7,220.3,611.7,218.5,611.7,216.7z"/>
		<path class="st6" d="M602.1,231.9c-0.1-0.4-0.2-0.9-0.3-1.3c-0.2-0.7-0.6-1.3-1-1.8c-0.3-0.4-0.8-0.7-1.2-1
			c-0.5-0.2-1.1-0.4-1.7-0.4c-0.2,0-0.5,0-0.7,0c-0.6,0-1.1,0.1-1.6,0.3c-0.6,0.2-1.1,0.7-1.5,1.2c-0.8,0.9-1.1,2-1.2,3.2
			c-0.1,0.4-0.1,0.9-0.1,1.3c0,0.2,0.1,1.3,0.2,1.7c0.1,0.4,0.2,0.9,0.3,1.3c0.3,0.8,0.7,1.6,1.4,2.2c0.5,0.4,1.1,0.7,1.7,0.8
			c0.6,0.1,1.1,0.2,1.7,0.1c0.5,0,1-0.1,1.4-0.3c0.4-0.2,0.8-0.4,1.2-0.7c0.4-0.4,0.7-0.9,1-1.4c0.3-0.7,0.5-1.4,0.6-2.2
			C602.2,234.3,602.2,232.3,602.1,231.9z M599.6,235.2c-0.1,0.6-0.3,1.2-0.6,1.8c-0.3,0.5-0.8,0.9-1.5,1c-0.5,0-0.9-0.1-1.3-0.5
			c-0.3-0.3-0.5-0.7-0.7-1.1c-0.2-0.5-0.3-1-0.3-1.5c0-0.3,0-0.6-0.1-0.9c0-0.7,0-1.3,0.1-2c0-0.3,0.1-0.6,0.1-0.9
			c0.1-0.3,0.1-0.6,0.3-0.9c0.2-0.5,0.6-0.9,1.1-1.1c1-0.3,1.9,0,2.4,1c0.1,0.2,0.2,0.5,0.3,0.7c0.1,0.2,0.1,0.5,0.2,0.7
			c0,0.3,0.1,1.6,0.1,1.9h0C599.7,233.5,599.7,234.7,599.6,235.2z"/>
		<path class="st6" d="M589,236.4c0,0.2-0.1,0.5-0.3,0.7c-0.3,0.3-0.7,0.5-1.2,0.6c-0.6,0.1-1.1,0.1-1.7,0c-0.7,0-1.4-0.2-2-0.4
			c-0.2-0.1-0.2-0.1-0.3,0.1c0,0.2-0.1,0.4-0.1,0.6c-0.1,0.3-0.1,0.5-0.1,0.8c0,0.2,0,0.2,0.1,0.3c0.4,0.1,0.8,0.2,1.1,0.3
			c0.5,0.1,0.9,0.1,1.4,0.2c0.3,0,0.6,0.1,0.8,0c0.2,0,0.4,0,0.6-0.1c0.6,0,1.3-0.2,1.9-0.4c1.3-0.5,2.1-1.7,2.1-3.1
			c0-0.2,0-0.4-0.1-0.6c-0.1-0.5-0.3-0.9-0.6-1.3c-0.6-0.6-1.3-1.1-2.1-1.4c-0.5-0.2-1.1-0.5-1.6-0.7c-0.5-0.2-0.9-0.5-1.2-0.9
			c-0.4-0.5-0.4-0.9,0-1.4c0.2-0.3,0.5-0.5,0.9-0.6c0.7-0.2,1.3-0.2,2-0.1c0.6,0,1.1,0.1,1.6,0.3c0.1,0.1,0.2,0,0.2-0.1
			c0.1-0.3,0.1-0.5,0.2-0.8c0-0.2,0.1-0.3,0.1-0.5c0-0.2,0-0.2-0.2-0.3c-0.2,0-0.4-0.1-0.7-0.1c-0.6-0.1-1.3-0.2-1.9-0.2
			c-0.4,0-0.8,0-1.2,0.1c-0.6,0.1-1.1,0.2-1.6,0.4c-0.2,0.1-0.5,0.2-0.7,0.4c-0.7,0.5-1,1.2-1.2,2c-0.1,0.5-0.1,1.1,0.1,1.6
			c0.1,0.3,0.3,0.7,0.5,0.9c0.4,0.5,0.9,0.8,1.4,1.1c0.7,0.3,1.3,0.6,2,0.9c0.3,0.2,0.7,0.3,1,0.5C588.7,235.4,589,235.8,589,236.4z
			"/>
		<path class="st6" d="M604.6,232.7C604.6,232.7,604.6,232.7,604.6,232.7c-0.2,0-0.4,0-0.5,0c-0.3,0-0.3,0-0.3,0.3
			c0,0.5,0.1,0.9,0.2,1.4c0.1,0.7,0.4,1.3,0.7,1.9c0.2,0.4,0.5,0.7,0.7,1c0.4,0.5,0.9,0.9,1.4,1.3c0.5,0.4,1.1,0.6,1.7,0.8
			c0.4,0.1,0.7,0.2,1.1,0.2c0.3,0,0.7,0,1,0c0.5,0,1-0.1,1.5-0.3c0.7-0.2,1.4-0.6,2-1c0.4-0.3,0.7-0.6,1.1-1
			c0.4-0.4,0.6-0.9,0.9-1.4c0.4-0.9,0.7-1.9,0.6-2.9c0-0.2,0-0.3-0.3-0.3c-0.4,0-0.8,0-1.2,0c-0.2,0-0.2,0-0.2,0.2
			c0,0.4-0.1,0.9-0.2,1.3c-0.3,1-0.8,1.9-1.6,2.6c-0.5,0.4-1.1,0.7-1.8,0.9c-0.8,0.2-1.6,0.2-2.4,0c-0.9-0.2-1.7-0.7-2.3-1.4
			c-0.5-0.6-0.8-1.2-1.1-1.9c-0.2-0.5-0.2-1-0.3-1.5c0-0.2,0-0.2-0.2-0.2C605,232.7,604.8,232.7,604.6,232.7z"/>
		<path class="st6" d="M616.6,216.7c0-1.8,0-3.6,0-5.3c0-0.1,0-0.1,0-0.2c0-0.1,0-0.1-0.1-0.1c-0.1,0-0.1,0-0.2,0
			c-0.7,0-1.4,0-2.1,0c-0.3,0-0.3,0-0.3,0.3c0,3.6,0,7.2,0,10.8c0,0.1,0,0.1,0,0.2c0,0.1,0,0.1,0.1,0.1c0.1,0,0.1,0,0.2,0
			c0.7,0,1.4,0,2.1,0c0.3,0,0.3,0,0.3-0.3C616.6,220.3,616.6,218.5,616.6,216.7z"/>
		<path class="st6" d="M600.6,216.7c0-1.8,0-3.6,0-5.4c0-0.1,0-0.1,0-0.2c0-0.1,0-0.1-0.1-0.1c-0.1,0-0.1,0-0.2,0c-0.7,0-1.4,0-2,0
			c-0.3,0-0.3,0-0.3,0.3c0,3.6,0,7.3,0,10.9c0,0.1,0,0.1,0,0.2c0,0.1,0.1,0.1,0.1,0.1c0.1,0,0.1,0,0.2,0c0.7,0,1.3,0,2,0
			c0.3,0,0.3,0,0.3-0.3C600.6,220.3,600.6,218.5,600.6,216.7z"/>
		<path class="st6" d="M613.6,229.2c0.9,0,1.8,0,2.7,0c0.3,0,0.3,0,0.3-0.3c0-0.4,0-0.8,0-1.2c0-0.3,0-0.4-0.4-0.4
			c-1.7,0-3.5,0-5.2,0c0,0-0.1,0-0.1,0c-0.2,0-0.2,0-0.2,0.2c0,0.5,0,0.9,0,1.4c0,0.2,0,0.2,0.2,0.2c0.1,0,0.1,0,0.2,0
			C611.9,229.2,612.8,229.2,613.6,229.2z"/>
		<path class="st6" d="M605.5,230c0.8,0,1.4-0.6,1.4-1.4c0-0.8-0.6-1.5-1.4-1.5c-0.8,0-1.4,0.6-1.4,1.5
			C604.1,229.3,604.6,229.9,605.5,230z"/>
	</g>
	<g>
		<g>
			<path class="st5" d="M478.9,258.9c0.3,0.2,0.7,0.3,1.1,0.3c0.4,0,0.8-0.1,1.2-0.3c0.4-0.2,0.7-0.5,1-0.9c0.3-0.4,0.4-0.8,0.5-1.3
				c0.1-0.4,0-0.7-0.2-1.1c-0.2-0.3-0.4-0.6-0.7-0.8c-0.3-0.2-0.7-0.3-1.1-0.3c-0.4,0-0.8,0.1-1.2,0.3c-0.4,0.2-0.7,0.5-0.9,0.8
				c-0.3,0.3-0.4,0.7-0.5,1.1c-0.1,0.5,0,0.9,0.1,1.3C478.4,258.4,478.6,258.7,478.9,258.9z"/>
			<path class="st5" d="M451.7,254.6c-0.2,0-0.5,0-0.8,0h-0.4l-0.3,2h0.4c0.3,0,0.5,0,0.7,0c0.2,0,0.4-0.1,0.6-0.3
				c0.2-0.1,0.3-0.4,0.3-0.7c0.1-0.3,0-0.6-0.1-0.7C452.1,254.7,451.9,254.7,451.7,254.6z"/>
			<path class="st5" d="M466.2,247.3c-13.1,0-23.6,4.3-23.6,9.6c0,5.3,10.6,9.6,23.6,9.6c13.1,0,23.6-4.3,23.6-9.6
				C489.8,251.6,479.3,247.3,466.2,247.3z M475.9,256.8c0.1-0.8,0.5-1.6,1-2.2c0.5-0.6,1.1-1.1,1.9-1.5c0.7-0.4,1.5-0.5,2.3-0.5
				c0.8,0,1.5,0.2,2.1,0.5c0.6,0.4,1.1,0.8,1.4,1.5c0.3,0.6,0.4,1.4,0.3,2.2c-0.1,0.9-0.5,1.7-1,2.3c-0.5,0.7-1.1,1.2-1.8,1.6
				c-0.7,0.4-1.5,0.6-2.4,0.6c-0.9,0-1.6-0.2-2.2-0.6c-0.6-0.4-1.1-0.9-1.3-1.6C475.9,258.5,475.8,257.7,475.9,256.8z M453.4,257.6
				c-0.6,0.4-1.3,0.7-2.2,0.7H450l-0.4,2.7h-2.1l1.3-8.1h3.2c0.6,0,1.1,0.1,1.5,0.3c0.4,0.2,0.7,0.5,0.9,0.9
				c0.2,0.4,0.2,0.9,0.1,1.5C454.3,256.5,454,257.2,453.4,257.6z M461,256l-0.3,1.8h-3.6l-0.2,1.4h3.7l-0.3,1.8h-5.9l1.3-8.1h5.9
				l-0.3,1.8h-3.8l-0.2,1.4H461z M468.5,255.5c-0.2,1-0.5,1.7-1.1,2.1c-0.6,0.4-1.3,0.7-2.2,0.7H464l-0.4,2.7h-2.1l1.3-8.1h3.2
				c0.6,0,1.1,0.1,1.5,0.3c0.4,0.2,0.7,0.5,0.9,0.9C468.6,254.4,468.6,254.9,468.5,255.5z M468.9,257c0.1-0.6,0.3-1.1,0.6-1.6
				c0.3-0.5,0.7-1,1.1-1.4c0.5-0.4,1-0.7,1.6-1c0.6-0.2,1.2-0.3,1.7-0.3c0.7,0,1.3,0.1,1.9,0.4l-0.4,2.5c-0.2-0.3-0.4-0.5-0.7-0.7
				c-0.3-0.2-0.6-0.2-1-0.2c-0.4,0-0.8,0.1-1.2,0.3c-0.4,0.2-0.7,0.5-0.9,0.8c-0.2,0.3-0.4,0.7-0.5,1.1c-0.1,0.7,0,1.2,0.4,1.6
				c0.3,0.4,0.8,0.6,1.5,0.6c0.4,0,0.7-0.1,1-0.2c0.3-0.2,0.7-0.4,0.9-0.6l-0.4,2.5c-0.4,0.1-0.7,0.2-1,0.3
				c-0.3,0.1-0.6,0.1-0.9,0.1c-0.6,0-1.1-0.1-1.6-0.3c-0.5-0.2-0.9-0.5-1.3-0.9c-0.4-0.4-0.6-0.9-0.8-1.4
				C468.8,258.1,468.8,257.6,468.9,257z M472.6,265.6c-4.8,0.6-4.3,0.4-0.1-0.2c8.4-1.3,14.9-4.8,14.9-9c0-1.3-0.5-2.8-1.8-3.9
				c0.8,0.5,1.7,1.1,2.1,1.8c0.6,0.8,0.9,1.8,0.9,2.7C488.7,261.1,481.5,264.6,472.6,265.6z"/>
			<path class="st5" d="M465.7,254.6c-0.2,0-0.5,0-0.8,0h-0.4l-0.3,2h0.4c0.3,0,0.5,0,0.7,0c0.2,0,0.4-0.1,0.6-0.3
				c0.2-0.1,0.3-0.4,0.3-0.7c0-0.3,0-0.6-0.1-0.7C466.1,254.7,465.9,254.7,465.7,254.6z"/>
		</g>
		<path class="st5" d="M454.2,247.3c27.7-5.8,39.2,3.5,37.9,9.7c0,0.1,0,0.2,0,0.3c4.1-6.1,1.1-17.2-20.3-14.8
			C467.2,243,460.3,244.9,454.2,247.3"/>
		<path class="st5" d="M478.2,266.6c-27.7,5.8-39.2-3.5-37.9-9.7c0-0.1,0-0.2,0-0.3c-4.1,6.1-1.1,17.2,20.3,14.8
			C465.2,270.9,472.1,269,478.2,266.6"/>
	</g>
	<g>
		<path id="dm_2_" class="st5" d="M162.7,336.2c-3,0-4.8,4.3-4.8,7.3c0,1.2,0.3,1.8,1,1.8c1.7,0,4.7-5,5.2-8.1l0.2-0.8
			C163.8,336.3,163.3,336.2,162.7,336.2 M166.3,349l-4.5,0c0.2-1.2,0.6-2.5,1.2-4.2H163c-1.4,2.4-3.4,4.6-5.9,4.6
			c-2.6,0-3.9-1.7-3.9-5.2c0-6.2,3.2-11.8,10.4-11.8c0.4,0,0.8,0,1.4,0.1l0.7-3.8v0c-0.7-0.1-1.8-0.3-2.8-0.3l0.6-3.1
			c2.3-0.2,4.6-0.4,7.3-0.3L166.3,349z M193.2,349h-4.4l1.6-10c0.3-1.6,0.1-2.3-0.7-2.3c-1.5,0-4.2,4-4.9,7.9l-0.7,4.4h-4.4l1.7-10
			c0.3-1.6,0.1-2.3-0.7-2.3c-1.5,0-4.2,3.9-4.9,7.8L175,349h-4.4l2.4-12.5v-0.1c-0.7-0.1-1.8-0.3-2.8-0.3l0.6-3.1
			c2.4-0.3,4.6-0.4,7-0.3c-0.3,1.3-0.7,2.7-1.2,4.2h0.1c1.5-2.5,3-4.5,5.9-4.5c1.9,0,3.2,1,3.2,3.2c0,0.4-0.1,0.8-0.3,1.5l0,0
			c1.5-2.7,3.3-4.7,6.2-4.7c3.2,0,3.8,2.3,3.2,5.3L193.2,349z"/>
	</g>
	<g>
		<path class="st5" d="M73,189.5c0-1,0.7-1.5,1.3-1.6c0.5-0.1,1.9-0.1,2.4-0.5c0.5-0.4,0.8-1,0.7-1.8c-0.1-0.7-0.2-2.4-2.8-2.5
			c-0.9,0-1.8,0.3-2.4,0.8v16.3h4.3c0.1-0.5,0.2-0.9,0.2-0.9c0-0.1,0-0.3,0-0.4c0.1-1.7-0.5-3.7-1.7-5.4
			C73.8,191.7,73,190.5,73,189.5z M75,184.3c0.1-0.1,0.2-0.1,0.3-0.1c0.2,0,0.4,0.1,0.6,0.3c0.2,0.2,0.3,0.4,0.3,0.6
			c0,0.1,0,0.2-0.1,0.3c-0.2,0.2-0.6,0.2-0.9-0.1c-0.2-0.2-0.3-0.4-0.3-0.6C74.9,184.5,75,184.3,75,184.3z"/>
		<path class="st5" d="M79.8,186c0.5,0,0.4-0.2,0.4-0.2c-0.2-0.2-1.6-1-1.6-1c-0.2,0.5,0.1,1.1,0.1,1.1S79.3,186,79.8,186z"/>
		<path class="st5" d="M72.3,180.9v1.6c0.6-0.3,1.4-0.6,2.5-0.6c2.1,0,3,1.3,3,1.3s1.2,0.5,2.1,1.2c0.9,0.7,1.6,1.4,1.6,1.5
			c0.1,0.1,0.2,0.5-0.3,0.6c-0.5,0.2-1.6,0.4-2.7,0.4c0,0-0.7,1.3-1.8,1.6c-1.1,0.4-2.4,0-2.5,1c0,0.7,0.6,1.5,0.8,1.9
			c0.2,0.3,2.9,3,2.8,7.1c0,0.8-0.1,1.4-0.2,1.5h36.7v-19.2H72.3z M86.3,191.9c0,1.8-1.2,3-3,3c-0.9,0-1.9-0.4-2.6-1l1.1-2.7
			c0.2,0.4,0.4,0.9,0.9,0.9c0.5,0,0.6-0.6,0.6-1V186h3.1V191.9z M93,194.8h-3.1V191l-3.1-5h3.6l1,2.3h0.1c0.1-0.3,0.2-0.6,0.3-0.8
			l0.6-1.5H96l-3,5V194.8z M98.7,194.9c-1.1,0-2.4-0.3-3.4-0.8l1-2.5l0.2,0.1c0.6,0.4,1.3,0.8,2,0.8c0.3,0,0.8-0.1,0.8-0.5
			c0-0.4-0.4-0.4-0.7-0.5l-0.6-0.1c-1.3-0.2-2.3-1-2.3-2.3c0-2.1,1.9-3.3,3.8-3.3c1,0,1.9,0.2,2.8,0.8l-0.9,2.3
			c-0.5-0.4-1.2-0.7-1.9-0.7c-0.3,0-0.7,0.1-0.7,0.5c0,0.3,0.4,0.4,0.6,0.4l0.7,0.2c1.4,0.3,2.3,1,2.3,2.5
			C102.5,193.9,100.6,194.9,98.7,194.9z M108.6,194.8l-1.5-2.7c-0.2-0.3-0.5-0.7-0.5-1h-0.1l0.1,3.7h-3.1V186h3.1l-0.1,3.8h0.1
			c0.1-0.4,0.3-0.7,0.4-1l1.5-2.8h3.5l-2.8,4.3l3,4.5H108.6z"/>
	</g>
	<g>
		<path d="M567.4,360.3c-0.3,0.6-0.6,1.3-0.9,1.9c-0.2,0.5-0.4,0.9-0.6,1.4c0,0.1-0.1,0.1-0.1,0.1c0-0.1-0.1-0.1-0.1-0.2
			c-0.4-1-0.9-2-1.3-3c0-0.1-0.1-0.1-0.1-0.2c0,0.1,0,0.3,0,0.4c0,0.7-0.1,1.5-0.1,2.2c0,0.5,0,0.5,0.5,0.6c0.1,0,0.1,0.1,0.1,0.1
			c0,0,0,0,0,0.1c-0.5,0-1,0-1.5,0c0,0,0,0,0-0.1c0,0,0.1-0.1,0.1-0.1c0.3,0,0.4-0.2,0.4-0.5c0.1-1,0.2-2,0.2-2.9
			c0-0.3-0.1-0.4-0.4-0.5c-0.1,0-0.2,0-0.1-0.2c0.3,0,0.6,0,0.9,0c0.1,0,0.1,0.1,0.2,0.2c0.4,0.9,0.9,1.9,1.3,2.8
			c0,0.1,0.1,0.1,0.1,0.3c0.1-0.1,0.1-0.2,0.1-0.2c0.4-0.9,0.9-1.9,1.3-2.8c0.1-0.1,0.1-0.2,0.3-0.2c0.3,0,0.6,0,0.9,0
			c0,0,0,0,0,0.1c0,0-0.1,0.1-0.1,0.1c-0.5,0.1-0.5,0.1-0.5,0.6c0,0.9,0,1.9,0.1,2.8c0,0.4,0.1,0.4,0.4,0.5c0.1,0,0.1,0.1,0.1,0.1
			c-0.1,0-0.1,0.1-0.2,0.1c-0.5,0-1,0-1.6,0c0,0,0.1-0.1,0.1-0.1c0.4-0.1,0.4-0.1,0.4-0.5C567.5,362.2,567.5,361.3,567.4,360.3
			C567.5,360.3,567.4,360.3,567.4,360.3z"/>
		<path d="M556.3,363.8c0,0,0.1-0.1,0.1-0.1c0.5-0.1,0.5-0.1,0.5-0.6c0-0.4,0-0.9,0-1.3c-0.7,0-1.5,0-2.2,0c0,0.2,0,0.4,0,0.6
			c0,0.3,0,0.5,0,0.8c0,0.4,0.1,0.4,0.4,0.5c0.1,0,0.1,0.1,0.2,0.1c0,0,0,0.1,0,0.1c-0.5,0-1.1,0-1.6,0c0,0-0.1-0.1-0.1-0.1
			c0,0,0.1-0.1,0.1-0.1c0.1,0,0.1,0,0.2,0c0.1,0,0.2-0.1,0.2-0.3c0-0.1,0-0.2,0-0.3c0-0.9,0-1.8,0-2.7c0,0,0-0.1,0-0.1
			c0-0.4-0.1-0.4-0.4-0.5c-0.1,0-0.1-0.1-0.2-0.1c0,0,0,0,0-0.1c0.5,0,1.1,0,1.6,0c0,0,0,0,0,0c0,0-0.1,0.1-0.1,0.1
			c-0.4,0.1-0.4,0.1-0.4,0.5c0,0.4,0,0.8,0,1.2c0.7,0,1.5,0,2.2,0c0-0.5,0-0.9,0-1.4c0-0.2-0.2-0.3-0.4-0.3c-0.1,0-0.1-0.1-0.2-0.1
			c0.1,0,0.1-0.1,0.2-0.1c0.5,0,0.9,0,1.4,0c0.1,0,0.1,0.1,0.2,0.1c-0.1,0-0.1,0.1-0.2,0.1c-0.4,0.1-0.4,0.1-0.4,0.5
			c0,1,0,1.9,0,2.9c0,0.4,0,0.4,0.4,0.5c0,0,0.1,0.1,0.1,0.1c0,0-0.1,0.1-0.1,0.1C557.4,363.9,556.9,363.9,556.3,363.8
			C556.4,363.8,556.3,363.8,556.3,363.8z"/>
		<path d="M548.2,361.8c0,0.5,0,1,0,1.5c0,0.3,0.1,0.3,0.4,0.4c0.1,0,0.1,0.1,0.2,0.1c0,0,0,0.1,0,0.1c-0.5,0-1.1,0-1.6,0
			c0,0-0.1,0-0.1-0.1c0,0,0.1-0.1,0.1-0.1c0.4-0.1,0.5-0.1,0.5-0.6c0-0.9,0-1.9,0-2.8c0-0.4,0-0.5-0.5-0.5c-0.1,0-0.1-0.1-0.1-0.1
			c0,0,0,0,0-0.1c0.5,0,1.1,0,1.6,0c0,0,0,0,0,0.1c0,0-0.1,0.1-0.1,0.1c-0.4,0.1-0.4,0.1-0.4,0.5c0,0.4,0,0.8,0,1.2
			c0.4,0,0.8,0,1.1,0c0.4,0,0.7,0,1.1,0c0-0.5,0-0.9,0-1.4c0-0.2-0.2-0.3-0.4-0.3c-0.1,0-0.2,0-0.1-0.2c0.5,0,1.1,0,1.6,0
			c0,0,0,0,0,0c0,0-0.1,0.1-0.1,0.1c-0.4,0.1-0.5,0.1-0.5,0.6c0,0.9,0,1.9,0,2.8c0,0.4,0,0.5,0.4,0.5c0.1,0,0.1,0.1,0.1,0.1
			c0,0,0,0.1,0,0.1c-0.2,0-0.4,0-0.6,0c-0.3,0-0.7,0-1,0c0,0-0.1-0.1-0.1-0.1c0,0,0.1-0.1,0.1-0.1c0.4-0.1,0.5-0.1,0.5-0.6
			c0-0.4,0-0.9,0-1.3C549.7,361.8,549,361.8,548.2,361.8z"/>
		<path d="M560.7,364c-1.2,0-2.1-0.9-2.1-2.2c0-1.3,1-2.3,2.2-2.3c1.2,0,2.1,1,2.1,2.2C562.9,363,561.9,364,560.7,364z M562.2,361.9
			c0-0.6-0.1-1.1-0.4-1.5c-0.7-0.9-1.9-0.8-2.4,0.3c-0.1,0.3-0.2,0.6-0.2,0.9c0,0.7,0.1,1.3,0.6,1.8c0.7,0.7,1.7,0.5,2.1-0.4
			C562.1,362.6,562.2,361.9,562.2,361.9z"/>
		<path d="M528.8,363.8c0,0,0.1-0.1,0.1-0.1c0.4-0.1,0.5-0.1,0.5-0.5c0-0.9,0-1.9,0-2.8c0-0.3-0.2-0.4-0.5-0.5
			c-0.1,0-0.1-0.1-0.2-0.1c0,0,0,0,0-0.1c0.3,0,0.6,0,0.9,0c0.1,0,0.1,0.1,0.2,0.1c0.8,1,1.6,1.9,2.4,2.9c0,0.1,0.1,0.1,0.2,0.2
			c0-0.1,0-0.1,0-0.2c0-0.8,0-1.6,0-2.4c0-0.4-0.1-0.5-0.5-0.6c-0.1,0-0.1-0.1-0.2-0.1c0,0,0,0,0-0.1c0.5,0,1,0,1.5,0
			c-0.1,0.1-0.1,0.2-0.1,0.2c-0.5,0.1-0.5,0.3-0.5,0.6c0,0.6,0,1.2,0,1.8c0,0.6,0,1.1,0,1.7c-0.2,0.1-0.2,0-0.3-0.1
			c-0.8-1-1.6-2-2.5-3c-0.1-0.1-0.1-0.2-0.2-0.3c0,0.1,0,0.1,0,0.1c0,0.8,0,1.7,0,2.5c0,0.4,0.1,0.5,0.5,0.6c0.1,0,0.1,0.1,0.1,0.1
			c0,0-0.1,0.1-0.2,0.1C529.8,363.9,529.3,363.9,528.8,363.8C528.9,363.8,528.8,363.8,528.8,363.8z"/>
		<path d="M537.3,363.7c-0.9,0.2-1.8,0.4-2.6,0c-0.8-0.4-1.3-1.2-1.1-2.2c0.1-0.9,0.7-1.6,1.6-1.8c0.7-0.2,1.3-0.1,2,0.1
			c0,0,0.1,0.1,0.1,0.1c0,0.3,0.1,0.5,0.1,0.8c0,0-0.1,0.1-0.1,0.1c0,0-0.1,0-0.1-0.1c-0.1-0.5-0.4-0.8-0.9-0.9
			c-0.6-0.1-1.2,0-1.6,0.5c-0.4,0.5-0.5,1.1-0.5,1.7c0,0.4,0.2,0.7,0.4,1c0.4,0.6,1.2,0.9,1.8,0.7c0.3-0.1,0.4-0.2,0.4-0.5
			c0-0.2,0-0.4,0-0.7c0-0.3-0.1-0.4-0.4-0.4c-0.1,0-0.1,0-0.2,0c0,0-0.1-0.1-0.1-0.1c0,0,0.1-0.1,0.1-0.1c0,0,0.1,0,0.1,0
			c0.4,0,0.9,0,1.3,0c0.1,0,0.1,0,0.2,0.1c0,0-0.1,0.1-0.1,0.1c-0.2,0-0.3,0.2-0.3,0.3C537.3,362.9,537.3,363.3,537.3,363.7z"/>
		<path d="M525.1,359.6c0.9,0,1.8,0,2.7,0c0.1,0,0.1,0,0.2,0c0,0.3,0,0.6,0.1,0.8c0,0-0.1,0.1-0.1,0.1c0,0-0.1,0-0.1-0.1
			c0,0,0,0,0,0c-0.2-0.6-0.3-0.6-0.9-0.6c-0.2,0-0.4,0-0.6,0c-0.1,0-0.2,0.1-0.2,0.1c0,0.5,0,1,0,1.6c0.3,0,0.7,0,1,0
			c0.2,0,0.2-0.2,0.3-0.3c0-0.1,0.1-0.1,0.1-0.2c0,0,0,0,0.1,0c0,0.4,0,0.8,0,1.2c-0.1,0-0.2,0-0.2-0.1c-0.1-0.3-0.1-0.4-0.4-0.4
			c-0.3,0-0.5,0-0.9,0c0,0.3,0,0.5,0,0.8c0,0.2,0,0.5,0,0.7c0,0.2,0.1,0.4,0.3,0.4c0.3,0,0.6,0,0.9,0c0.4,0,0.5-0.4,0.7-0.6
			c0-0.1,0.1-0.1,0.2-0.2c0,0,0.1,0,0.1,0.1c-0.1,0.3-0.1,0.6-0.2,0.9c0,0-0.1,0.1-0.2,0.1c-0.9,0-1.9,0-2.8,0c-0.1,0-0.1,0-0.2-0.1
			c0,0,0.1-0.1,0.1-0.1c0.5-0.1,0.5-0.1,0.5-0.6c0-0.9,0-1.9,0-2.8c0-0.4,0-0.4-0.4-0.5C525.1,359.8,525.1,359.7,525.1,359.6
			C525,359.7,525.1,359.6,525.1,359.6z"/>
		<path d="M572.4,362.9c-0.1,0.3-0.1,0.6-0.2,0.9c0,0-0.1,0.1-0.1,0.1c-1,0-1.9,0-2.9,0c0,0-0.1,0-0.1-0.1c0,0,0.1-0.1,0.1-0.1
			c0.1,0,0.1,0,0.2,0c0.2,0,0.3-0.2,0.3-0.4c0-0.5,0-0.9,0-1.4c0-0.5,0-1.1,0-1.6c0-0.4,0-0.4-0.4-0.5c0,0-0.1-0.1-0.1-0.1
			c0,0,0.1-0.1,0.1-0.1c0.9,0,1.8,0,2.7,0c0,0,0,0,0.1,0c0,0.3,0,0.5,0.1,0.8c0,0,0,0.1-0.1,0.1c0,0-0.1,0-0.1-0.1
			c-0.1-0.6-0.5-0.7-1-0.7c-0.2,0-0.3,0-0.5,0c-0.1,0-0.2,0.1-0.2,0.2c0,0.5,0,1,0,1.5c0.4,0,0.7,0,1.1,0c0.1,0,0.2-0.2,0.2-0.3
			c0-0.1,0.1-0.2,0.2-0.1c0,0.4,0,0.8,0,1.2c0,0,0,0,0,0c0-0.1-0.1-0.1-0.1-0.2c-0.1-0.3-0.2-0.4-0.5-0.4c-0.3,0-0.5,0-0.8,0
			c0,0,0,0.1,0,0.1c0,0.4,0,0.8,0,1.2c0,0.4,0.1,0.5,0.5,0.5c0.1,0,0.2,0,0.4,0c0.5,0.1,0.9-0.2,1.1-0.7
			C572.2,362.9,572.3,362.9,572.4,362.9C572.4,362.8,572.4,362.8,572.4,362.9z"/>
		<path d="M546.4,360.6c-0.1,0-0.1-0.1-0.2-0.1c-0.1-0.1-0.1-0.2-0.2-0.4c-0.2-0.4-0.8-0.5-1.1-0.2c-0.3,0.2-0.4,0.8-0.1,1.1
			c0.1,0.1,0.3,0.3,0.5,0.4c0.2,0.1,0.4,0.2,0.6,0.3c0.5,0.3,0.7,0.7,0.6,1.3c-0.1,0.5-0.5,0.9-1,1c-0.4,0.1-0.8,0-1.2-0.1
			c-0.1,0-0.2-0.1-0.2-0.2c-0.1-0.2-0.1-0.5-0.1-0.7c0-0.1,0-0.1,0.1-0.2c0,0,0.1,0.1,0.1,0.1c0.1,0.2,0.2,0.4,0.3,0.5
			c0.2,0.2,0.4,0.4,0.7,0.4c0.3,0,0.6-0.1,0.7-0.4c0.1-0.3,0.1-0.6-0.1-0.9c-0.2-0.2-0.4-0.3-0.6-0.4c-0.2-0.1-0.5-0.3-0.7-0.4
			c-0.4-0.3-0.6-0.8-0.4-1.2c0.1-0.4,0.5-0.8,1-0.8c0.3,0,0.6,0,0.9,0.1c0.1,0,0.1,0.1,0.2,0.2C546.4,360,546.5,360.3,546.4,360.6
			C546.5,360.6,546.5,360.6,546.4,360.6z"/>
		<path d="M538.1,363.8c0,0,0.1-0.1,0.1-0.1c0.4-0.1,0.5-0.1,0.5-0.6c0-0.9,0-1.9,0-2.8c0-0.4,0-0.5-0.5-0.5c0,0-0.1-0.1-0.1-0.1
			c0,0,0,0,0-0.1c0.5,0,1.1,0,1.6,0c0,0,0.1,0.1,0.1,0.1c0,0-0.1,0.1-0.1,0.1c-0.4,0-0.5,0.2-0.5,0.6c0,0.9,0,1.8,0,2.6
			c0,0.1,0,0.1,0,0.2c0,0.3,0.1,0.4,0.4,0.4c0.2,0,0.4,0,0.6,0c0.3,0,0.5-0.1,0.6-0.4c0.1-0.1,0.1-0.2,0.2-0.4c0,0,0.1-0.1,0.1-0.1
			c0,0,0.1,0.1,0.1,0.1c-0.1,0.3-0.1,0.5-0.2,0.8c0,0-0.1,0.1-0.1,0.1C540,363.9,539,363.9,538.1,363.8
			C538.1,363.8,538.1,363.8,538.1,363.8z"/>
		<path d="M542.3,361.7c0-0.5,0-1,0-1.4c0-0.4-0.1-0.4-0.4-0.5c-0.1,0-0.1-0.1-0.2-0.1c0.1,0,0.1-0.1,0.2-0.1c0.5,0,0.9,0,1.4,0
			c0,0,0.1,0,0.1,0.1c0,0-0.1,0.1-0.1,0.1c-0.4,0.1-0.4,0.1-0.4,0.5c0,1,0,1.9,0,2.9c0,0.4,0.1,0.4,0.4,0.5c0,0,0.1,0.1,0.1,0.1
			c-0.1,0-0.1,0.1-0.2,0.1c-0.5,0-0.9,0-1.4,0c-0.1,0-0.1-0.1-0.2-0.1c0,0,0.1-0.1,0.1-0.1c0.4-0.1,0.4-0.1,0.4-0.5
			C542.3,362.7,542.3,362.2,542.3,361.7z"/>
	</g>
	<g>
		<polygon class="st7" points="821.7,307.5 825,313.2 821.1,313.3 817.8,307.6 820.9,301.8 824.8,301.7 		"/>
		<polygon class="st7" points="827,307.4 830.4,313.1 826.5,313.2 823.1,307.5 826.3,301.7 830.2,301.6 		"/>
		<polygon class="st7" points="832.4,307.3 835.7,313 831.8,313.1 828.5,307.4 831.6,301.6 835.5,301.5 		"/>
	</g>
	<g>
		<path d="M781.3,94.7H780v-3.3c0-0.3-0.2-0.5-0.5-0.5H776c-0.3,0-0.5,0.2-0.5,0.5v3.3h-1.3c-0.3,0-0.5,0.2-0.5,0.5v3.5
			c0,0.3,0.2,0.5,0.5,0.5h7.1c0.3,0,0.5-0.2,0.5-0.5v-3.5C781.8,94.9,781.6,94.7,781.3,94.7z M776.5,91.9h0.8v0.5
			c0,0.3,0.2,0.5,0.5,0.5c0.3,0,0.5-0.2,0.5-0.5v-0.5h0.8v2.6h-2.6L776.5,91.9z M774.7,95.7h0.7v0.5c0,0.3,0.2,0.5,0.5,0.5
			c0.3,0,0.5-0.2,0.5-0.5v-0.5h0.9v2.6h-2.6V95.7z M780.8,98.3h-2.6v-2.6h0.9v0.5c0,0.3,0.2,0.5,0.5,0.5s0.5-0.2,0.5-0.5v-0.5h0.7
			V98.3z"/>
		<path d="M788.3,84.9C788.3,84.9,788.3,84.8,788.3,84.9C788.3,84.8,788.3,84.8,788.3,84.9c0-0.1,0-0.1,0-0.1c0,0,0,0,0,0
			c0,0,0,0,0,0l0,0l0,0c0,0,0,0,0,0l0,0l0,0l0,0L778,78.2c-0.2-0.1-0.3-0.1-0.5,0l-10.1,6.3l0,0l0,0l0,0c0,0,0,0,0,0l0,0l0,0
			c0,0,0,0,0,0c0,0,0,0,0,0c0,0,0,0,0,0c0,0,0,0,0,0c0,0,0,0,0,0.1v13.8c0,0.3,0.2,0.5,0.5,0.5h4.2c0.3,0,0.5-0.2,0.5-0.5v-9.2h10.8
			v9.2c0,0.3,0.2,0.5,0.5,0.5c0,0,0.1,0,0.1,0c0,0,0.1,0,0.1,0h4.1c0.3,0,0.5-0.2,0.5-0.5V84.9z M772.4,88.6v-0.5h10.8v0.5H772.4z
			 M784.1,98.3V87.7c0-0.3-0.2-0.5-0.5-0.5h-11.7c-0.3,0-0.5,0.2-0.5,0.5v10.6h-3.3V85.1l9.6-6l9.6,6v13.1H784.1z"/>
		<path d="M778.9,82.8h-2.6c-0.3,0-0.5,0.2-0.5,0.5c0,0.3,0.2,0.5,0.5,0.5h2.6c0.3,0,0.5-0.2,0.5-0.5
			C779.4,83,779.2,82.8,778.9,82.8z"/>
		<path d="M778.9,84.2h-2.6c-0.3,0-0.5,0.2-0.5,0.5c0,0.3,0.2,0.5,0.5,0.5h2.6c0.3,0,0.5-0.2,0.5-0.5
			C779.4,84.4,779.2,84.2,778.9,84.2z"/>
	</g>
	<g>
		<path d="M536.2,104h-0.5v-1.2c0-0.1-0.1-0.2-0.2-0.2h-1.3c-0.1,0-0.2,0.1-0.2,0.2v1.2h-0.5c-0.1,0-0.2,0.1-0.2,0.2v1.3
			c0,0.1,0.1,0.2,0.2,0.2h2.6c0.1,0,0.2-0.1,0.2-0.2v-1.3C536.4,104.1,536.3,104,536.2,104z M534.5,103h0.3v0.2
			c0,0.1,0.1,0.2,0.2,0.2c0.1,0,0.2-0.1,0.2-0.2V103h0.3v0.9h-0.9L534.5,103z M533.8,104.4h0.3v0.2c0,0.1,0.1,0.2,0.2,0.2
			c0.1,0,0.2-0.1,0.2-0.2v-0.2h0.3v0.9h-0.9V104.4z M536.1,105.3h-0.9v-0.9h0.3v0.2c0,0.1,0.1,0.2,0.2,0.2c0.1,0,0.2-0.1,0.2-0.2
			v-0.2h0.3V105.3z"/>
		<path d="M538.8,100.5C538.8,100.5,538.8,100.5,538.8,100.5C538.8,100.5,538.8,100.4,538.8,100.5
			C538.8,100.4,538.8,100.4,538.8,100.5C538.8,100.4,538.8,100.4,538.8,100.5C538.8,100.4,538.8,100.4,538.8,100.5L538.8,100.5
			l0-0.1c0,0,0,0,0,0l0,0l0,0l0,0L535,98c-0.1,0-0.1,0-0.2,0l-3.7,2.3l0,0l0,0l0,0c0,0,0,0,0,0l0,0l0,0c0,0,0,0,0,0c0,0,0,0,0,0
			c0,0,0,0,0,0c0,0,0,0,0,0c0,0,0,0,0,0v5c0,0.1,0.1,0.2,0.2,0.2h1.5c0.1,0,0.2-0.1,0.2-0.2v-3.3h3.9v3.3c0,0.1,0.1,0.2,0.2,0.2
			c0,0,0,0,0,0c0,0,0,0,0,0h1.5c0.1,0,0.2-0.1,0.2-0.2V100.5z M533,101.8v-0.2h3.9v0.2H533z M537.2,105.3v-3.8
			c0-0.1-0.1-0.2-0.2-0.2h-4.3c-0.1,0-0.2,0.1-0.2,0.2v3.8h-1.2v-4.8l3.5-2.2l3.5,2.2v4.8H537.2z"/>
		<path d="M535.4,99.7h-0.9c-0.1,0-0.2,0.1-0.2,0.2s0.1,0.2,0.2,0.2h0.9c0.1,0,0.2-0.1,0.2-0.2S535.5,99.7,535.4,99.7z"/>
		<path d="M535.4,100.2h-0.9c-0.1,0-0.2,0.1-0.2,0.2c0,0.1,0.1,0.2,0.2,0.2h0.9c0.1,0,0.2-0.1,0.2-0.2
			C535.5,100.3,535.5,100.2,535.4,100.2z"/>
	</g>
	<g>
		<path d="M518.4,104h-0.5v-1.2c0-0.1-0.1-0.2-0.2-0.2h-1.3c-0.1,0-0.2,0.1-0.2,0.2v1.2h-0.5c-0.1,0-0.2,0.1-0.2,0.2v1.3
			c0,0.1,0.1,0.2,0.2,0.2h2.6c0.1,0,0.2-0.1,0.2-0.2v-1.3C518.6,104.1,518.5,104,518.4,104z M516.7,103h0.3v0.2
			c0,0.1,0.1,0.2,0.2,0.2c0.1,0,0.2-0.1,0.2-0.2V103h0.3v0.9h-0.9L516.7,103z M516,104.4h0.3v0.2c0,0.1,0.1,0.2,0.2,0.2
			s0.2-0.1,0.2-0.2v-0.2h0.3v0.9H516V104.4z M518.2,105.3h-0.9v-0.9h0.3v0.2c0,0.1,0.1,0.2,0.2,0.2c0.1,0,0.2-0.1,0.2-0.2v-0.2h0.3
			V105.3z"/>
		<path d="M521,100.5C521,100.5,521,100.5,521,100.5C521,100.5,521,100.4,521,100.5C521,100.4,521,100.4,521,100.5
			C521,100.4,521,100.4,521,100.5C520.9,100.4,520.9,100.4,521,100.5L521,100.5l0-0.1c0,0,0,0,0,0l0,0l0,0l0,0l-3.7-2.3
			c-0.1,0-0.1,0-0.2,0l-3.7,2.3l0,0l0,0l0,0c0,0,0,0,0,0l0,0l0,0c0,0,0,0,0,0c0,0,0,0,0,0c0,0,0,0,0,0c0,0,0,0,0,0c0,0,0,0,0,0v5
			c0,0.1,0.1,0.2,0.2,0.2h1.5c0.1,0,0.2-0.1,0.2-0.2v-3.3h3.9v3.3c0,0.1,0.1,0.2,0.2,0.2c0,0,0,0,0,0c0,0,0,0,0,0h1.5
			c0.1,0,0.2-0.1,0.2-0.2V100.5z M515.2,101.8v-0.2h3.9v0.2H515.2z M519.4,105.3v-3.8c0-0.1-0.1-0.2-0.2-0.2H515
			c-0.1,0-0.2,0.1-0.2,0.2v3.8h-1.2v-4.8l3.5-2.2l3.5,2.2v4.8H519.4z"/>
		<path d="M517.6,99.7h-0.9c-0.1,0-0.2,0.1-0.2,0.2s0.1,0.2,0.2,0.2h0.9c0.1,0,0.2-0.1,0.2-0.2S517.7,99.7,517.6,99.7z"/>
		<path d="M517.6,100.2h-0.9c-0.1,0-0.2,0.1-0.2,0.2c0,0.1,0.1,0.2,0.2,0.2h0.9c0.1,0,0.2-0.1,0.2-0.2
			C517.7,100.3,517.7,100.2,517.6,100.2z"/>
	</g>
	<g>
		<path d="M397.2,81.3h-0.8v-2.1c0-0.2-0.1-0.3-0.3-0.3h-2.3c-0.2,0-0.3,0.1-0.3,0.3v2.1h-0.8c-0.2,0-0.3,0.1-0.3,0.3v2.3
			c0,0.2,0.1,0.3,0.3,0.3h4.6c0.2,0,0.3-0.1,0.3-0.3v-2.3C397.5,81.5,397.4,81.3,397.2,81.3z M394.1,79.5h0.5v0.3
			c0,0.2,0.1,0.3,0.3,0.3c0.2,0,0.3-0.1,0.3-0.3v-0.3h0.5v1.7h-1.7L394.1,79.5z M392.9,81.9h0.5v0.3c0,0.2,0.1,0.3,0.3,0.3
			c0.2,0,0.3-0.1,0.3-0.3v-0.3h0.6v1.7h-1.7V81.9z M396.9,83.6h-1.7v-1.7h0.6v0.3c0,0.2,0.1,0.3,0.3,0.3s0.3-0.1,0.3-0.3v-0.3h0.5
			V83.6z"/>
		<path d="M401.8,74.9C401.8,74.9,401.8,74.9,401.8,74.9C401.8,74.8,401.8,74.8,401.8,74.9C401.8,74.8,401.8,74.8,401.8,74.9
			c0-0.1,0-0.1,0-0.1c0,0,0,0,0,0l0,0l0,0c0,0,0,0,0,0l0,0l0,0l0,0l-6.6-4.1c-0.1-0.1-0.2-0.1-0.3,0l-6.6,4.1l0,0l0,0l0,0
			c0,0,0,0,0,0l0,0l0,0c0,0,0,0,0,0c0,0,0,0,0,0c0,0,0,0,0,0c0,0,0,0,0,0c0,0,0,0,0,0v9c0,0.2,0.1,0.3,0.3,0.3h2.8
			c0.2,0,0.3-0.1,0.3-0.3v-6h7v6c0,0.2,0.1,0.3,0.3,0.3c0,0,0,0,0.1,0c0,0,0,0,0.1,0h2.6c0.2,0,0.3-0.1,0.3-0.3V74.9z M391.4,77.3
			V77h7v0.3H391.4z M399,83.6v-6.9c0-0.2-0.1-0.3-0.3-0.3h-7.6c-0.2,0-0.3,0.1-0.3,0.3v6.9h-2.1v-8.5l6.3-3.9l6.3,3.9v8.5H399z"/>
		<path d="M395.7,73.5H394c-0.2,0-0.3,0.1-0.3,0.3s0.1,0.3,0.3,0.3h1.7c0.2,0,0.3-0.1,0.3-0.3S395.8,73.5,395.7,73.5z"/>
		<path d="M395.7,74.4H394c-0.2,0-0.3,0.1-0.3,0.3s0.1,0.3,0.3,0.3h1.7c0.2,0,0.3-0.1,0.3-0.3S395.8,74.4,395.7,74.4z"/>
	</g>
	<g>
		<path d="M397.2,209.6h-0.8v-2.1c0-0.2-0.1-0.3-0.3-0.3h-2.3c-0.2,0-0.3,0.1-0.3,0.3v2.1h-0.8c-0.2,0-0.3,0.1-0.3,0.3v2.3
			c0,0.2,0.1,0.3,0.3,0.3h4.6c0.2,0,0.3-0.1,0.3-0.3v-2.3C397.5,209.7,397.4,209.6,397.2,209.6z M394.1,207.7h0.5v0.3
			c0,0.2,0.1,0.3,0.3,0.3c0.2,0,0.3-0.1,0.3-0.3v-0.3h0.5v1.7h-1.7L394.1,207.7z M392.9,210.2h0.5v0.3c0,0.2,0.1,0.3,0.3,0.3
			c0.2,0,0.3-0.1,0.3-0.3v-0.3h0.6v1.7h-1.7V210.2z M396.9,211.9h-1.7v-1.7h0.6v0.3c0,0.2,0.1,0.3,0.3,0.3s0.3-0.1,0.3-0.3v-0.3h0.5
			V211.9z"/>
		<path d="M401.8,203.2C401.8,203.1,401.8,203.1,401.8,203.2C401.8,203.1,401.8,203.1,401.8,203.2
			C401.8,203.1,401.8,203.1,401.8,203.2c0-0.1,0-0.1,0-0.1c0,0,0,0,0,0l0,0l0,0c0,0,0,0,0,0l0,0l0,0l0,0l-6.6-4.1
			c-0.1-0.1-0.2-0.1-0.3,0l-6.6,4.1l0,0l0,0l0,0c0,0,0,0,0,0l0,0l0,0c0,0,0,0,0,0c0,0,0,0,0,0c0,0,0,0,0,0c0,0,0,0,0,0c0,0,0,0,0,0
			v9c0,0.2,0.1,0.3,0.3,0.3h2.8c0.2,0,0.3-0.1,0.3-0.3v-6h7v6c0,0.2,0.1,0.3,0.3,0.3c0,0,0,0,0.1,0c0,0,0,0,0.1,0h2.6
			c0.2,0,0.3-0.1,0.3-0.3V203.2z M391.4,205.6v-0.3h7v0.3H391.4z M399,211.9V205c0-0.2-0.1-0.3-0.3-0.3h-7.6c-0.2,0-0.3,0.1-0.3,0.3
			v6.9h-2.1v-8.5l6.3-3.9l6.3,3.9v8.5H399z"/>
		<path d="M395.7,201.8H394c-0.2,0-0.3,0.1-0.3,0.3s0.1,0.3,0.3,0.3h1.7c0.2,0,0.3-0.1,0.3-0.3S395.8,201.8,395.7,201.8z"/>
		<path d="M395.7,202.7H394c-0.2,0-0.3,0.1-0.3,0.3s0.1,0.3,0.3,0.3h1.7c0.2,0,0.3-0.1,0.3-0.3S395.8,202.7,395.7,202.7z"/>
	</g>
	<g>
		<path d="M397.2,58.1h-0.8V56c0-0.2-0.1-0.3-0.3-0.3h-2.3c-0.2,0-0.3,0.1-0.3,0.3v2.1h-0.8c-0.2,0-0.3,0.1-0.3,0.3v2.3
			c0,0.2,0.1,0.3,0.3,0.3h4.6c0.2,0,0.3-0.1,0.3-0.3v-2.3C397.5,58.3,397.4,58.1,397.2,58.1z M394.1,56.3h0.5v0.3
			c0,0.2,0.1,0.3,0.3,0.3c0.2,0,0.3-0.1,0.3-0.3v-0.3h0.5V58h-1.7L394.1,56.3z M392.9,58.7h0.5V59c0,0.2,0.1,0.3,0.3,0.3
			c0.2,0,0.3-0.1,0.3-0.3v-0.3h0.6v1.7h-1.7V58.7z M396.9,60.4h-1.7v-1.7h0.6V59c0,0.2,0.1,0.3,0.3,0.3s0.3-0.1,0.3-0.3v-0.3h0.5
			V60.4z"/>
		<path d="M401.8,51.7C401.8,51.7,401.8,51.7,401.8,51.7C401.8,51.7,401.8,51.7,401.8,51.7C401.8,51.6,401.8,51.6,401.8,51.7
			c0-0.1,0-0.1,0-0.1c0,0,0,0,0,0l0,0l0,0c0,0,0,0,0,0l0,0l0,0l0,0l-6.6-4.1c-0.1-0.1-0.2-0.1-0.3,0l-6.6,4.1l0,0l0,0l0,0
			c0,0,0,0,0,0l0,0l0,0c0,0,0,0,0,0c0,0,0,0,0,0c0,0,0,0,0,0c0,0,0,0,0,0c0,0,0,0,0,0v9c0,0.2,0.1,0.3,0.3,0.3h2.8
			c0.2,0,0.3-0.1,0.3-0.3v-6h7v6c0,0.2,0.1,0.3,0.3,0.3c0,0,0,0,0.1,0c0,0,0,0,0.1,0h2.6c0.2,0,0.3-0.1,0.3-0.3V51.7z M391.4,54.2
			v-0.3h7v0.3H391.4z M399,60.4v-6.9c0-0.2-0.1-0.3-0.3-0.3h-7.6c-0.2,0-0.3,0.1-0.3,0.3v6.9h-2.1v-8.5l6.3-3.9l6.3,3.9v8.5H399z"/>
		<path d="M395.7,50.3H394c-0.2,0-0.3,0.1-0.3,0.3s0.1,0.3,0.3,0.3h1.7c0.2,0,0.3-0.1,0.3-0.3S395.8,50.3,395.7,50.3z"/>
		<path d="M395.7,51.2H394c-0.2,0-0.3,0.1-0.3,0.3s0.1,0.3,0.3,0.3h1.7c0.2,0,0.3-0.1,0.3-0.3S395.8,51.2,395.7,51.2z"/>
	</g>
	<g>
		<path d="M203.1,41.4h-0.8v-2.1c0-0.2-0.1-0.3-0.3-0.3h-2.3c-0.2,0-0.3,0.1-0.3,0.3v2.1h-0.8c-0.2,0-0.3,0.1-0.3,0.3V44
			c0,0.2,0.1,0.3,0.3,0.3h4.6c0.2,0,0.3-0.1,0.3-0.3v-2.3C203.4,41.5,203.2,41.4,203.1,41.4z M199.9,39.6h0.5v0.3
			c0,0.2,0.1,0.3,0.3,0.3s0.3-0.1,0.3-0.3v-0.3h0.5v1.7h-1.7L199.9,39.6z M198.8,42h0.5v0.3c0,0.2,0.1,0.3,0.3,0.3s0.3-0.1,0.3-0.3
			V42h0.6v1.7h-1.7V42z M202.8,43.7h-1.7V42h0.6v0.3c0,0.2,0.1,0.3,0.3,0.3s0.3-0.1,0.3-0.3V42h0.5V43.7z"/>
		<path d="M207.6,35C207.6,35,207.6,35,207.6,35C207.6,34.9,207.6,34.9,207.6,35C207.6,34.9,207.6,34.9,207.6,35c0-0.1,0-0.1,0-0.1
			c0,0,0,0,0,0l0,0l0,0c0,0,0,0,0,0l0,0l0,0l0,0l-6.6-4.1c-0.1-0.1-0.2-0.1-0.3,0l-6.6,4.1l0,0l0,0l0,0c0,0,0,0,0,0l0,0l0,0
			c0,0,0,0,0,0c0,0,0,0,0,0c0,0,0,0,0,0c0,0,0,0,0,0c0,0,0,0,0,0v9c0,0.2,0.1,0.3,0.3,0.3h2.8c0.2,0,0.3-0.1,0.3-0.3v-6h7v6
			c0,0.2,0.1,0.3,0.3,0.3c0,0,0,0,0.1,0c0,0,0,0,0.1,0h2.6c0.2,0,0.3-0.1,0.3-0.3V35z M197.2,37.4v-0.3h7v0.3H197.2z M204.9,43.7
			v-6.9c0-0.2-0.1-0.3-0.3-0.3h-7.6c-0.2,0-0.3,0.1-0.3,0.3v6.9h-2.1v-8.5l6.3-3.9l6.3,3.9v8.5H204.9z"/>
		<path d="M201.5,33.6h-1.7c-0.2,0-0.3,0.1-0.3,0.3s0.1,0.3,0.3,0.3h1.7c0.2,0,0.3-0.1,0.3-0.3S201.7,33.6,201.5,33.6z"/>
		<path d="M201.5,34.5h-1.7c-0.2,0-0.3,0.1-0.3,0.3s0.1,0.3,0.3,0.3h1.7c0.2,0,0.3-0.1,0.3-0.3S201.7,34.5,201.5,34.5z"/>
	</g>
	<g>
		<path d="M150.5,39.8h-0.8v-2.1c0-0.2-0.1-0.3-0.3-0.3H147c-0.2,0-0.3,0.1-0.3,0.3v2.1h-0.8c-0.2,0-0.3,0.1-0.3,0.3v2.3
			c0,0.2,0.1,0.3,0.3,0.3h4.6c0.2,0,0.3-0.1,0.3-0.3v-2.3C150.8,40,150.6,39.8,150.5,39.8z M147.3,38h0.5v0.3c0,0.2,0.1,0.3,0.3,0.3
			s0.3-0.1,0.3-0.3V38h0.5v1.7h-1.7L147.3,38z M146.2,40.5h0.5v0.3c0,0.2,0.1,0.3,0.3,0.3s0.3-0.1,0.3-0.3v-0.3h0.6v1.7h-1.7V40.5z
			 M150.2,42.1h-1.7v-1.7h0.6v0.3c0,0.2,0.1,0.3,0.3,0.3s0.3-0.1,0.3-0.3v-0.3h0.5V42.1z"/>
		<path d="M155.1,33.4C155.1,33.4,155.1,33.4,155.1,33.4C155.1,33.4,155.1,33.4,155.1,33.4C155.1,33.3,155.1,33.3,155.1,33.4
			c0-0.1,0-0.1,0-0.1c0,0,0,0,0,0l0,0l0,0c0,0,0,0,0,0l0,0l0,0l0,0l-6.6-4.1c-0.1-0.1-0.2-0.1-0.3,0l-6.6,4.1l0,0l0,0l0,0
			c0,0,0,0,0,0l0,0l0,0c0,0,0,0,0,0c0,0,0,0,0,0c0,0,0,0,0,0c0,0,0,0,0,0c0,0,0,0,0,0v9c0,0.2,0.1,0.3,0.3,0.3h2.8
			c0.2,0,0.3-0.1,0.3-0.3v-6h7v6c0,0.2,0.1,0.3,0.3,0.3c0,0,0,0,0.1,0c0,0,0,0,0.1,0h2.6c0.2,0,0.3-0.1,0.3-0.3V33.4z M144.7,35.9
			v-0.3h7v0.3H144.7z M152.3,42.1v-6.9c0-0.2-0.1-0.3-0.3-0.3h-7.6c-0.2,0-0.3,0.1-0.3,0.3v6.9h-2.1v-8.5l6.3-3.9l6.3,3.9v8.5H152.3
			z"/>
		<path d="M148.9,32h-1.7c-0.2,0-0.3,0.1-0.3,0.3s0.1,0.3,0.3,0.3h1.7c0.2,0,0.3-0.1,0.3-0.3S149.1,32,148.9,32z"/>
		<path d="M148.9,33h-1.7c-0.2,0-0.3,0.1-0.3,0.3s0.1,0.3,0.3,0.3h1.7c0.2,0,0.3-0.1,0.3-0.3S149.1,33,148.9,33z"/>
	</g>
	<g>
		<path d="M39.8,211.5l-0.7-0.1l0.3-1.7c0-0.1-0.1-0.3-0.2-0.3l-1.8-0.3c-0.1,0-0.3,0.1-0.3,0.2l-0.3,1.7l-0.7-0.1
			c-0.1,0-0.3,0.1-0.3,0.2l-0.3,1.8c0,0.1,0.1,0.3,0.2,0.3l3.6,0.7c0.1,0,0.3-0.1,0.3-0.2l0.3-1.8C40.1,211.7,40,211.5,39.8,211.5z
			 M37.6,209.6l0.4,0.1l0,0.2c0,0.1,0.1,0.3,0.2,0.3s0.3-0.1,0.3-0.2l0-0.2l0.4,0.1l-0.3,1.3l-1.3-0.3L37.6,209.6z M36.4,211.3
			l0.4,0.1l0,0.2c0,0.1,0.1,0.3,0.2,0.3c0.1,0,0.3-0.1,0.3-0.2l0-0.2l0.5,0.1l-0.3,1.3l-1.3-0.3L36.4,211.3z M39.3,213.3l-1.3-0.3
			l0.3-1.3l0.5,0.1l0,0.2c0,0.1,0.1,0.3,0.2,0.3c0.1,0,0.3-0.1,0.3-0.2l0-0.2l0.4,0.1L39.3,213.3z"/>
		<path d="M44.4,207.1C44.4,207.1,44.4,207.1,44.4,207.1C44.4,207.1,44.4,207.1,44.4,207.1C44.4,207.1,44.4,207.1,44.4,207.1
			C44.4,207.1,44.4,207.1,44.4,207.1c0-0.1,0-0.1,0-0.1l0,0l0,0c0,0,0,0,0,0l0,0l0,0l0,0l-4.5-4.2c-0.1-0.1-0.2-0.1-0.3,0l-5.8,2.3
			l0,0l0,0l0,0c0,0,0,0,0,0l0,0l0,0c0,0,0,0,0,0c0,0,0,0,0,0c0,0,0,0,0,0c0,0,0,0,0,0c0,0,0,0,0,0l-1.4,7.1c0,0.1,0.1,0.3,0.2,0.3
			l2.2,0.4c0.1,0,0.3-0.1,0.3-0.2l0.9-4.7l5.5,1.1l-0.9,4.7c0,0.1,0.1,0.3,0.2,0.3c0,0,0,0,0,0c0,0,0,0,0,0l2.1,0.4
			c0.1,0,0.3-0.1,0.3-0.2L44.4,207.1z M35.9,207.5l0-0.2l5.5,1.1l0,0.2L35.9,207.5z M40.9,213.6l1-5.4c0-0.1-0.1-0.3-0.2-0.3l-6-1.1
			c-0.1,0-0.3,0.1-0.3,0.2l-1,5.4l-1.7-0.3l1.3-6.7l5.5-2.2l4.3,4l-1.3,6.7L40.9,213.6z"/>
		<path d="M39.8,205.1l-1.3-0.3c-0.1,0-0.3,0.1-0.3,0.2c0,0.1,0.1,0.3,0.2,0.3l1.3,0.3c0.1,0,0.3-0.1,0.3-0.2
			C40,205.3,39.9,205.2,39.8,205.1z"/>
		<path d="M39.7,205.9l-1.3-0.3c-0.1,0-0.3,0.1-0.3,0.2c0,0.1,0.1,0.3,0.2,0.3l1.3,0.3c0.1,0,0.3-0.1,0.3-0.2
			C39.9,206,39.8,205.9,39.7,205.9z"/>
	</g>
	<g>
		<path d="M29.7,254.8l-0.7-0.1l0.3-1.7c0-0.1-0.1-0.3-0.2-0.3l-1.8-0.3c-0.1,0-0.3,0.1-0.3,0.2l-0.3,1.7l-0.7-0.1
			c-0.1,0-0.3,0.1-0.3,0.2l-0.3,1.8c0,0.1,0.1,0.3,0.2,0.3l3.6,0.7c0.1,0,0.3-0.1,0.3-0.2l0.3-1.8C29.9,254.9,29.9,254.8,29.7,254.8
			z M27.5,252.9L28,253l0,0.2c0,0.1,0.1,0.3,0.2,0.3c0.1,0,0.3-0.1,0.3-0.2l0-0.2l0.4,0.1l-0.3,1.3l-1.3-0.3L27.5,252.9z
			 M26.3,254.6l0.4,0.1l0,0.2c0,0.1,0.1,0.3,0.2,0.3c0.1,0,0.3-0.1,0.3-0.2l0-0.2l0.5,0.1l-0.3,1.3l-1.3-0.3L26.3,254.6z
			 M29.1,256.5l-1.3-0.3l0.3-1.3l0.5,0.1l0,0.2c0,0.1,0.1,0.3,0.2,0.3c0.1,0,0.3-0.1,0.3-0.2l0-0.2l0.4,0.1L29.1,256.5z"/>
		<path d="M34.3,250.4C34.3,250.4,34.3,250.4,34.3,250.4C34.3,250.4,34.3,250.4,34.3,250.4C34.3,250.4,34.3,250.4,34.3,250.4
			C34.3,250.3,34.3,250.3,34.3,250.4c0-0.1,0-0.1,0-0.1l0,0l0,0c0,0,0,0,0,0l0,0l0,0l0,0l-4.5-4.2c-0.1-0.1-0.2-0.1-0.3,0l-5.8,2.3
			l0,0l0,0l0,0c0,0,0,0,0,0l0,0l0,0c0,0,0,0,0,0c0,0,0,0,0,0c0,0,0,0,0,0c0,0,0,0,0,0c0,0,0,0,0,0l-1.4,7.1c0,0.1,0.1,0.3,0.2,0.3
			l2.2,0.4c0.1,0,0.3-0.1,0.3-0.2l0.9-4.7l5.5,1.1l-0.9,4.7c0,0.1,0.1,0.3,0.2,0.3c0,0,0,0,0,0c0,0,0,0,0,0l2.1,0.4
			c0.1,0,0.3-0.1,0.3-0.2L34.3,250.4z M25.8,250.8l0-0.2l5.5,1.1l0,0.2L25.8,250.8z M30.8,256.9l1-5.4c0-0.1-0.1-0.3-0.2-0.3l-6-1.1
			c-0.1,0-0.3,0.1-0.3,0.2l-1,5.4l-1.7-0.3l1.3-6.7l5.5-2.2l4.3,4l-1.3,6.7L30.8,256.9z"/>
		<path d="M29.7,248.4l-1.3-0.3c-0.1,0-0.3,0.1-0.3,0.2c0,0.1,0.1,0.3,0.2,0.3l1.3,0.3c0.1,0,0.3-0.1,0.3-0.2
			C29.9,248.6,29.8,248.5,29.7,248.4z"/>
		<path d="M29.5,249.2l-1.3-0.3c-0.1,0-0.3,0.1-0.3,0.2c0,0.1,0.1,0.3,0.2,0.3l1.3,0.3c0.1,0,0.3-0.1,0.3-0.2S29.7,249.2,29.5,249.2
			z"/>
	</g>
</g>
<polygon id="Sofia0.31" class="st2" points="626.5,115.1 626.5,265.6 652.1,265.6 652.1,292.3 751.4,292.3 751.4,278.3 827.7,278.3 
	827.7,115.1 "/>
<rect id="Sofia0.3" x="624.9" y="267.7" class="st2" width="26.1" height="26.4"/>
<polygon id="Sofia0.29_Hub" class="st2" points="574.4,89.8 574.4,292.3 623.4,292.3 623.4,265.5 624.9,265.5 624.9,113.4 
	657,113.4 657,104.9 660.3,104.9 660.3,97 657.8,97 657.8,89.8 "/>
<polygon id="Sofia0.26" class="st2" points="549,89.8 572.3,89.8 572.3,292.3 498.1,292.3 498.1,165.6 446.1,165.6 446.1,115.1 
	549.1,115.1 "/>
<polygon id="Sofia0.26a" class="st2" points="446.1,167.1 446.1,182 448.6,182 448.6,218.1 451.3,218.1 451.3,242.3 436.1,242.3 
	436.1,294.1 445,294.1 445,292.3 496.3,292.3 496.3,167.1 "/>
<rect id="Sofia0.28" x="371.1" y="217.3" class="st2" width="50.6" height="75"/>
<polygon id="Sofia0.27" class="st2" points="320.9,92.1 320.9,241.1 346,241.1 346,292.3 369.5,292.3 369.5,191.1 421.7,191.1 
	421.7,92.1 "/>
<rect id="Sofia0.27a" x="320.9" y="243.1" class="st2" width="22.9" height="49.2"/>
<polygon id="Sofia0.23b" class="st2" points="244.4,265.4 194.9,265.4 
	194.9,92.1 319.3,92.1 319.3,292.3 244.4,292.3 "/>
<polygon id="Sofia0.24b" class="st2" points="219.5,267.7 219.5,278.7 232.3,278.7 232.3,292.3 242.2,292.3 242.2,267.7 "/>
<rect id="Sofia0.24a" x="219.5" y="280.9" class="st2" width="11.3" height="11.4"/>
<polygon id="Sofia0.23a" class="st2" points="218,267.8 218,292.3 116,292.3 116,64.8 246.9,64.8 246.9,54.2 342.1,54.2 342.1,89.8 
	192.5,90.8 192.5,267.8 "/>
<polygon id="Sofia0.23c" class="st2" points="88.7,103.4 47.7,301 68.2,301 68.2,292.3 115.2,292.3 115.2,140.9 107.9,140.9 
	107.9,107.6 "/>
<polygon id="Sofia0.22" class="st2" points="60.7,317.8 60.7,333.4 116,346.7 116,315.4 72.5,315.4 72.8,317.7 "/>
<polygon id="Sofia0.18" class="st2" points="117.1,315.4 117.1,346.7 217.6,371.5 217.6,337.3 220.8,335.1 201.1,315.4 "/>
<polygon id="Sofia0.17b" class="st2" points="221.9,336.2 219.1,338.1 219.1,371.5 229.8,374.1 229.8,336.2 "/>
<polygon id="Sofia0.17" class="st2" points="231.6,336.2 231.6,374.7 242.2,377.5 242.2,359 243.3,359 243.3,335.3 "/>
<rect id="Sofia0.16b" x="244.4" y="335.3" class="st2" width="10.7" height="14.1"/>
<polygon id="Sofia0.16a" class="st2" points="244.4,350.8 244.4,360 268.4,366.4 268.4,335.3 256.4,335.3 256.4,350.9 "/>
<polygon id="Sofia0.15" class="st2" points="270.4,335.3 270.4,366.8 285.9,370.8 306.5,370.8 306.5,344.1 295.7,343.9 295.6,334.8 
	"/>
<polygon id="Sofia0.12" class="st2" points="319.6,333.7 319.6,390.3 369.5,402.5 369.5,324.3 344.5,325.6 344.5,332.1 "/>
<polygon id="Sofia0.11" class="st2" points="371.1,324.3 371.1,402.5 394.3,408.6 394.3,323.5 "/>
<polygon id="Sofia0.1" class="st2" points="396,323.5 396,409.1 446.2,421.7 446.2,379 455.9,379 455.9,370.8 420.4,370.8 
	420.4,321.9 "/>
<polygon id="Sofia0.09b" class="st2" points="421.7,321.9 421.7,369.5 445.6,369.5 445.6,333.7 437.4,334.2 422.7,321.9 "/>
<polygon id="Sofia0.09a" class="st2" points="447,333.7 447,369.5 458.9,369.5 459.9,333.2 "/>
<polygon id="Sofia0.07b" class="st2" points="471.1,332.6 471.1,373.6 496.3,373.6 496.3,331.6 "/>
<polygon id="Sofia0.07a" class="st2" points="497.9,331.6 497.9,373.6 521.9,373.6 521.9,330.3 "/>
<polygon id="Sofia0.06" class="st2" points="523.5,330.3 523.5,350.4 547.6,350.4 547.6,328.7 "/>
<polygon id="Sofia0.05" class="st2" points="523.5,352.3 523.5,373.6 573.4,373.6 573.4,327.2 549.4,328.7 549.4,352.6 "/>
<polygon id="Sofia0.04" class="st2" points="585.5,326.5 585.5,373 586.5,371.6 597.9,371.6 597.9,326.1 "/>
<polygon id="Sofia0.03" class="st2" points="599.7,326.1 599.7,371.5 623,371.5 623,336.3 610.1,325.1 "/>
<polygon id="Sofia0.02b" class="st2" points="624.9,337.8 624.9,371.5 636.2,371.5 636.2,343.6 631.9,344.2 "/>
<polygon id="Sofia0.02a" class="st2" points="637.9,343.4 637.9,371.5 649,371.5 649,342.3 "/>
<polygon id="Sofia0.01" class="st2" points="650.4,342.3 650.4,371.5 682.9,371.5 682.9,339.8 "/>
</svg>
