<?xml version="1.0" encoding="UTF-8"?><svg id="Layer_4" xmlns="http://www.w3.org/2000/svg" viewBox="0 0 499.7 427.5"><defs><style>.cls-1{font-size:1.59px;}.cls-1,.cls-2,.cls-3,.cls-4,.cls-5,.cls-6,.cls-7,.cls-8{font-family:Axiforma-Bold, Axiforma;font-weight:700;}.cls-1,.cls-3,.cls-9,.cls-5,.cls-8{isolation:isolate;}.cls-1,.cls-3,.cls-5,.cls-8,.cls-10{fill:#1d1d1b;}.cls-2{font-size:3.86px;}.cls-11{fill:#ed7013;}.cls-12{letter-spacing:-.02em;}.cls-13{letter-spacing:-.07em;}.cls-14{letter-spacing:-.03em;}.cls-15{letter-spacing:-.04em;}.cls-16{fill:#f47825;}.cls-17,.cls-18,.cls-19{fill:none;}.cls-17,.cls-18,.cls-20{stroke:#000;stroke-miterlimit:10;}.cls-21{fill:#f47725;}.cls-22{fill:#e2e2e2;}.cls-3{font-size:.84px;}.cls-4{font-size:3.26px;}.cls-23{letter-spacing:-.02em;}.cls-24{letter-spacing:0em;}.cls-25,.cls-26{fill:#231f20;}.cls-25,.cls-27{fill-rule:evenodd;}.cls-28{letter-spacing:0em;}.cls-18{stroke-width:2px;}.cls-5{font-size:2.42px;}.cls-29{fill:#f1f2f2;}.cls-30{letter-spacing:-.03em;}.cls-6{font-size:6.44px;}.cls-20{fill:#fff;}.cls-7{font-size:3.65px;}.cls-8{font-size:1px;}.cls-31{letter-spacing:-.02em;}.cls-32{letter-spacing:0em;}.cls-33{letter-spacing:-.02em;}.cls-34{letter-spacing:-.08em;}.cls-35{letter-spacing:-.01em;}.cls-36{fill:#010101;}</style></defs><g id="cladire"><g><polygon class="cls-29" points="302.2 422.5 302.2 173.4 5 173.4 5 81.9 286.1 81.9 286.1 122.4 302.2 122.4 302.2 5 494.7 5 494.7 284.3 429.1 284.3 429.1 422.5 302.2 422.5"/><path class="cls-29" d="m489.7,10v269.2h-65.6v138.2h-116.9v-249H10v-81.5h271.1v40.5h26.1V10h182.5m10-10h-202.5v117.4h-6.1v-40.5H0v101.5h297.2v249.1h136.9v-138.2h65.6V0h0Z"/><polygon class="cls-18" points="281.1 86.9 10 86.9 10 168.4 307.2 168.4 307.2 417.5 424.1 417.5 424.1 279.3 489.7 279.3 489.7 10 307.2 10 307.2 86.9 307.2 127.4 281.1 127.4 281.1 86.9"/></g></g><g id="magazine"><line class="cls-17" x1="424.1" y1="343.1" x2="307.2" y2="343.1"/><line class="cls-17" x1="424.1" y1="306.3" x2="307.2" y2="306.3"/><line class="cls-17" x1="424.1" y1="281.8" x2="307.2" y2="281.8"/><polyline class="cls-17" points="307.2 379.7 402.9 379.7 402.9 367.6 424.1 367.6"/><line class="cls-17" x1="369.5" y1="281.6" x2="369.5" y2="306.3"/><line class="cls-17" x1="408.1" y1="281.6" x2="408.1" y2="306.3"/><polyline class="cls-17" points="369.5 295.7 378.5 295.7 378.5 281.8"/><polyline class="cls-17" points="386.9 10 386.9 279.3 387.5 279.3 424.1 279.3 424.1 240.2 386.9 240.3"/><polyline class="cls-17" points="407.3 240.2 407.3 260.2 386.9 260.2"/><polyline class="cls-17" points="401.1 260.2 401.1 252.2 386.9 252.2"/><polyline class="cls-17" points="386.9 28.5 395.1 28.5 395.1 72.6 386.9 72.6"/><line class="cls-17" x1="395.1" y1="62.5" x2="386.9" y2="62.5"/><line class="cls-17" x1="395.1" y1="54.2" x2="386.9" y2="54.2"/><polyline class="cls-17" points="381.7 10 381.7 34.8 365.7 34.8 365.7 10"/><line class="cls-17" x1="386.9" y1="31.6" x2="381.7" y2="31.6"/><polyline class="cls-17" points="365.7 34.8 349.6 34.8 349.6 10"/><polyline class="cls-17" points="349.6 34.8 322.9 34.8 322.9 10"/><line class="cls-17" x1="322.9" y1="34.8" x2="307.2" y2="34.8"/><polyline class="cls-17" points="307.2 39.9 333.5 39.9 333.5 150.9 311.8 150.9 311.8 121.9"/><line class="cls-17" x1="307.2" y1="127.4" x2="307.2" y2="168.4"/><line class="cls-17" x1="307.2" y1="121.9" x2="333.5" y2="121.9"/><line class="cls-17" x1="333.5" y1="130" x2="311.8" y2="130"/><polyline class="cls-17" points="317.4 121.9 317.4 113.3 333.5 113.3"/><line class="cls-17" x1="307.2" y1="81.3" x2="333.5" y2="81.3"/><polyline class="cls-17" points="317.4 81.3 317.4 89.9 333.5 89.9"/><line class="cls-17" x1="307.2" y1="69.2" x2="333.5" y2="69.2"/><polyline class="cls-17" points="307.2 155.9 333.5 155.9 333.5 225.5 307.2 225.5"/><line class="cls-17" x1="307.2" y1="212.9" x2="333.5" y2="212.9"/><line class="cls-17" x1="307.2" y1="203.8" x2="333.5" y2="203.8"/><polyline class="cls-17" points="333.5 184.1 321 184.1 321 168.4"/><line class="cls-17" x1="333.5" y1="168.4" x2="307.2" y2="168.4"/><polyline class="cls-17" points="307.2 230.6 333.5 230.6 333.5 261.3 329.3 265.5 307.2 265.5"/><line class="cls-17" x1="307.2" y1="241.7" x2="333.5" y2="241.7"/><line class="cls-17" x1="316.4" y1="241.7" x2="316.4" y2="265.5"/><line class="cls-17" x1="316.4" y1="253.4" x2="333.5" y2="253.4"/><polyline class="cls-17" points="281.1 168.4 281.1 127.4 265.2 127.4 265.2 168.4"/><line class="cls-17" x1="226.6" y1="168.4" x2="226.6" y2="86.9"/><line class="cls-17" x1="202.4" y1="168.4" x2="202.4" y2="86.9"/><line class="cls-17" x1="163.7" y1="168.4" x2="163.7" y2="86.9"/><line class="cls-17" x1="139.5" y1="168.4" x2="139.5" y2="86.9"/><line class="cls-17" x1="115.3" y1="168.4" x2="115.3" y2="86.9"/><line class="cls-17" x1="88.8" y1="168.4" x2="88.8" y2="86.9"/><polyline class="cls-17" points="57.3 168.4 57.3 103.3 42.9 103.3 42.9 86.9"/><line class="cls-17" x1="38" y1="168.4" x2="38" y2="86.9"/><line class="cls-17" x1="333.5" y1="176.3" x2="321" y2="176.3"/><polygon class="cls-17" points="377.8 150.9 349.6 150.9 349.6 100.6 355.7 94.5 371.7 94.5 377.8 100.6 377.8 105.5 377.8 150.9"/><line class="cls-17" x1="377.8" y1="126" x2="349.6" y2="126"/><line class="cls-17" x1="377.8" y1="113.9" x2="349.6" y2="113.9"/><line class="cls-17" x1="377.8" y1="105.5" x2="349.6" y2="105.5"/><line class="cls-17" x1="360.5" y1="105.5" x2="360.5" y2="94.5"/><polygon class="cls-17" points="377.8 155.9 349.6 155.9 349.6 225.5 352.6 225.5 352.6 230.6 349.6 230.6 349.6 254.9 349.6 261.4 353.7 265.5 373.7 265.5 377.8 261.4 377.8 230.6 374.8 230.6 374.8 225.5 377.8 225.5 377.8 155.9"/><path class="cls-17" d="m377.8,165.4h-28.2"/><line class="cls-17" x1="377.8" y1="177.5" x2="349.6" y2="177.5"/><line class="cls-17" x1="377.8" y1="189.4" x2="349.6" y2="189.4"/><line class="cls-17" x1="377.8" y1="203.8" x2="349.6" y2="203.8"/><line class="cls-17" x1="377.8" y1="215.5" x2="349.6" y2="215.5"/><line class="cls-17" x1="374.8" y1="225.5" x2="352.6" y2="225.5"/><line class="cls-17" x1="374.8" y1="230.6" x2="352.6" y2="230.6"/><line class="cls-17" x1="377.8" y1="254.9" x2="349.6" y2="254.9"/><line class="cls-17" x1="363.7" y1="265.5" x2="363.7" y2="254.9"/><line class="cls-17" x1="329.2" y1="150.9" x2="329.2" y2="155.9"/><line class="cls-17" x1="329.7" y1="225.5" x2="329.7" y2="230.5"/><line class="cls-17" x1="329.2" y1="34.8" x2="329.2" y2="39.9"/><line class="cls-17" x1="374.3" y1="150.9" x2="374.3" y2="155.9"/><line class="cls-17" x1="352.6" y1="150.9" x2="352.6" y2="155.9"/><polyline class="cls-20" points="364.86 231.08 364.86 237.5 367.61 237.5 367.61 254.85"/><polyline class="cls-17" points="333.5 56.1 316.8 56.1 316.8 64.1 307.2 64.1"/><line class="cls-17" x1="324.9" y1="253.4" x2="324.9" y2="265.5"/></g><g id="logo"><g><polygon class="cls-21" points="285.9 273.4 283.3 268.9 286.4 268.8 289 273.3 286.6 277.9 283.5 278 285.9 273.4"/><polygon class="cls-21" points="281.7 273.5 279.1 269 282.2 268.9 284.8 273.4 282.3 278 279.3 278 281.7 273.5"/><polygon class="cls-21" points="277.5 273.5 274.9 269 277.9 269 280.6 273.5 278.1 278.1 275 278.1 277.5 273.5"/></g><path class="cls-21" d="m419.6,290.4c0-.6-.5-1.1-1.1-1.1h-7.2c-.6,0-1.1.5-1.1,1.1v7.1c0,.6.5,1.1,1.1,1.1h7.2c.6,0,1.1-.5,1.1-1.1v-7.1Zm-2.6.3c.3,0,.5.2.5.5s-.2.5-.5.5-.5-.2-.5-.5c0-.2.2-.5.5-.5Zm-4.2,0c.3,0,.5.2.5.5s-.2.5-.5.5-.5-.2-.5-.5c-.1-.2.2-.5.5-.5Zm1.1,1.6l-.2,1.8c0,.1-.1.2-.2.3h0c-.1,0-.2.1-.2.3l-.1,2.4c0,.2-.1.3-.3.3h-.2c-.2,0-.3-.1-.3-.3l-.1-2.4c0-.1-.1-.2-.2-.3-.1,0-.2-.1-.2-.3l-.1-1.8c0-.1.1-.3.2-.3h.1c.1,0,.2,0,.3.1l.2.2c.1.1.3.1.4,0l.2-.2c.1-.1.2-.1.3-.1h.2c.1,0,.2.1.2.3Zm1.1,5c0,.1-.1.1-.1.1-.1,0-.1-.1-.1-.1v-6.5c0-.1.1-.1.1-.1.1,0,.1.1.1.1v6.5Zm3.1-2.9c-.1,0-.2.1-.2.2l.1.5c0,.1-.1.2-.2.2h-.1c-.1,0-.2.1-.2.2l-.1,1.5c0,.2-.1.3-.3.3h-.2c-.2,0-.3-.1-.3-.3l-.1-1.5c0-.1-.1-.2-.2-.2h-.1c-.1,0-.2-.1-.2-.2l.1-.5c0-.1,0-.2-.2-.2-.1,0-.2-.1-.1-.2l.4-1.9c0-.1.2-.2.3-.1l.4.2h.2l.4-.2c.1-.1.3,0,.3.1l.4,1.9c.1,0,0,.1-.1.2Z"/><path class="cls-21" d="m320.1,18.5c0-.7-.5-1.2-1.2-1.2h-7.7c-.7,0-1.2.5-1.2,1.2v7.7c0,.7.5,1.2,1.2,1.2h7.7c.7,0,1.2-.5,1.2-1.2v-7.7Zm-2.8.3c.3,0,.6.3.6.6s-.3.6-.6.6-.6-.3-.6-.6.2-.6.6-.6Zm-4.6,0c.3,0,.6.3.6.6s-.3.6-.6.6-.6-.3-.6-.6.3-.6.6-.6Zm1.2,1.7l-.2,2c0,.1-.1.2-.2.3h0c-.1,0-.2.2-.2.3l-.2,2.6c0,.2-.2.3-.3.3h-.2c-.2,0-.3-.1-.3-.3l-.2-2.6c0-.1-.1-.2-.2-.3-.1,0-.2-.2-.2-.3l-.2-2c0-.2.1-.3.3-.3h.2c.1,0,.2,0,.3.1l.2.2c.1.1.3.1.5,0l.2-.2c.1-.1.2-.1.3-.1h.2c.1,0,.2.2.2.3Zm1.2,5.4c0,.1-.1.2-.2.2s-.2-.1-.2-.2v-7.1c0-.1.1-.2.2-.2s.2.1.2.2v7.1Zm3.3-3.1c-.1,0-.2.1-.2.2l.1.5c0,.1-.1.2-.2.2h-.2c-.1,0-.2.1-.2.2l-.1,1.6c0,.2-.2.3-.3.3h-.2c-.2,0-.3-.1-.3-.3l-.1-1.6c0-.1-.1-.2-.2-.2h-.2c-.1,0-.2-.1-.2-.2l.1-.5c0-.1-.1-.2-.2-.2s-.2-.1-.2-.3l.4-2.1c0-.2.2-.2.3-.1l.4.3h.2l.4-.3c.1-.1.3,0,.3.1l.4,2.1c.4.1.3.3.2.3Z"/><path class="cls-21" d="m357.5,48c-.2,0-1,.2-1.8.4-5.6,1.5-10.2,6-11.8,11.7-.5,1.7-.7,5.2-.4,7,.8,5.1,4,9.7,8.6,12.1,1.9,1,5.3,2.1,5.3,1.6,0-.4-1.8-10-2-10.4-.1-.2-.8-1-1.7-1.8-1.7-1.6-2.1-2.2-2.5-3.6-.3-1.2-1.6-9.3-1.6-9.8,0-.4.5-.7.8-.4.1.1.6,2.2,1.2,4.7,1,4.3,1,4.6,1.4,4.6.2,0,.4,0,.4-.2,0-.1-.4-2.3-1-4.8-.6-2.5-1-4.7-1-4.7,0-.1.2-.1.5-.1h.4l1,4.7c1.1,4.8,1.2,5,1.7,4.7.2-.1.1-.8-.8-4.8-.6-2.5-1-4.7-.9-4.8,0-.1.2-.2.4-.2.3,0,.4.1,1,2.9,1.5,6.9,1.4,6.5,1.8,6.6.2,0,.4,0,.4-.2,0-.1-.4-2.3-1-4.8-1-4.2-1-4.6-.8-4.8.6-.4.7-.2,2.2,5,1.4,4.8,1.5,5.2,1.4,6.3,0,.9-.2,1.4-.8,2.7-.5,1.1-.7,1.8-.7,2.3,0,.8,2.8,10.6,2.9,10.3,0-.1.4-1.7.8-3.5l.7-3.3-.3-.8c-.3-.8-.3-1.6.2-5.7.3-2.9.8-5.3,1.7-8.4,1-3.3,2-5.3,3.2-6.6,1.6-1.6,2.5-1.5,2.5.4,0,1.3-3.7,20.5-4.1,21.2-.2.4-.5,1.7-.8,3.6-.3,1.7-.6,3.2-.6,3.4l-.1.4.8-.2c3.2-.9,5.6-2.4,7.9-4.7,3-3.1,4.5-7,4.5-11.4,0-4.7-1.7-8.8-5-12-2.3-2.3-5.4-3.9-8.6-4.5-.6-.2-4.4-.3-5.4-.1h0Z"/><g><g><path d="m326.3,358.4c-1.1,0-2.2.5-2.9,1.6-.6.9-5.5,8.5-6.6,10.1-.2.3,0,.4.2.3l3.6-.1q.4,0,.7-.4c.4-.7,3.8-6.4,4.4-7.4.1-.2.3-.3.6-.3.2,0,.5.1.6.3.7,1,4.2,6.5,4.7,7.2.3.3.4.3.7.3l3.6-.1c.2,0,.4-.1.2-.4-1.1-1.5-6.3-8.9-6.9-9.8-.6-.9-1.8-1.4-2.9-1.3h0Z"/><path d="m386.8,364.8c.1,0,.2,0,.3.1l3.6,3.9c.1.1.2.2.4.2l4.3-.1c.2,0,.3-.2.1-.4-.1-.1-4.7-5.2-4.7-5.2,0,0-.1-.1-.1-.2s.1-.2.1-.2l4.6-5.5c.1-.1.1-.3-.2-.3l-4.1.1c-.3,0-.4.1-.5.2,0,0-3.3,3.7-3.6,4.1-.1.1-.2.2-.3.2s-.2-.1-.3-.1c-.3-.3-3.7-4-3.7-4-.1-.1-.2-.2-.5-.2l-4.1.1c-.2,0-.3.2-.2.3l4.8,5.3s.1.1.1.2-.1.2-.1.2c0,0-4.4,5.3-4.5,5.4-.2.2,0,.4.2.4l4.3-.1c.2,0,.3-.1.4-.2l3.4-4.1q.1-.1.3-.1Z"/><path d="m340.3,358.1c.2,0,.4,0,.4.2l.1,5.4c.1,3,.1,3.4,3.5,3.4,2.9-.1,5.8-.1,5.8-.1.2,0,.4,0,.4.2v2.3c0,.2-.2.2-.4.2l-6.4.1c-1.4,0-2.4,0-3.2-.1-2.2-.2-3.3-1-3.7-2.5-.2-.8-.2-2.9-.2-2.9l-.1-6c0-.2.2-.2.4-.2h3.4Z"/><path d="m360.7,357.7l-11.7.2c-.3,0-.3.1-.3.3v2.2c0,.2.1.3.3.3,0,0,3.5-.1,3.6-.1q.2,0,.2.2c0,.1.2,8.7.2,8.7,0,.1.1.1.2.1l3.6-.1c.1,0,.2-.1.2-.2,0,0-.2-8.6-.2-8.7,0-.2.1-.2.2-.2l3.6-.1c.3,0,.3-.1.3-.3v-2.2c.2,0,.1-.1-.2-.1Z"/><path d="m367.7,364.8s8.3-.2,8.5-.2c.4,0,.6,0,.6-.6,0-.2-.1-2.8-.1-2.8,0-2.2-1.9-3.7-4.6-3.7l-5.2.1c-2.8.1-4.5,1.6-4.5,3.9l.1,4.3c0,2.2,1.9,3.7,4.6,3.7l9.4-.2c.2,0,.4,0,.4-.2v-2.1c0-.2-.2-.2-.4-.2l-8.7.2c-.6,0-1.1-.5-1.1-1-.1-.7.4-1.2,1-1.2Zm-1.1-3.5c0-.3.1-.5.2-.7.2-.3.6-.4,1.1-.4l3.6-.1c.5,0,.9.1,1.1.4.2.2.2.4.2.6,0,.3-.1.6-.3.8s-.5.3-.9.3l-3.7.1c-.4,0-.7-.1-.9-.3-.3-.1-.4-.3-.4-.7Z"/></g><path d="m330.5,352.6h0c-.1.1-1.6.6-2.7,1.7s-1.6,2.7-1.6,2.7c0,.1-.1.1-.1.1l-.1-.1s-.5-1.5-1.7-2.6c-1.1-1.1-2.7-1.6-2.7-1.6-.1,0-.1-.1-.1-.1h0l.1-.1s1.5-.5,2.6-1.7c1.1-1.1,1.6-2.7,1.6-2.7,0-.1.1-.1.1-.1l.1.1s.5,1.5,1.7,2.6c1.2,1.3,2.8,1.7,2.8,1.8,0-.1,0,0,0,0h0Z"/></g><g><path class="cls-27" d="m425.5,217.2c0-1,.7-1.8,1.8-1.8,1,0,1.9.3,2.8.3.8,0,1.5-.3,2.3-.3,1.3,0,1.9,1.2,1.9,2.4,0,1.6-.7,2.3-2.3,2.1-.8,0-1.2,0-1.9.5-.6.6-.8,1.5-.8,2.5,0,3.6,3.6,3.9,6.3,3.9,3,0,6.1-.4,6.1-4.1,0-.8-.1-1.7-.6-2.2-.6-.7-1.2-.7-2.1-.7-.7,0-1.2.1-1.7-.4-.6-.4-.8-1-.8-1.7,0-1.8,1.4-2.6,3.1-2.6,4.3,0,6.3,4.1,6.3,7.9,0,2.6-.8,5-2.7,6.8-1.9,1.7-5,2.5-7.4,2.5s-5.1-.5-7-1.7c-2.2-1.4-3.4-4-3.4-6.6,0-1.9.6-3.5,2-4.9-1.1.1-1.9-.7-1.9-1.9h0Z"/><path class="cls-27" d="m434.2,207.9c1.3,0,1.9,1.2,1.9,2.5,0,1.4-1,2.6-2.4,2.6-3,0-3.4-4-3.4-6.2,0-1.4.1-3.4.8-4.6,1-1.7,2.6-1.8,4.4-1.8h5.3c.4,0,1.4.1,1.4-.5,0-.3-.1-.5-.1-.7,0-.9.8-1.4,1.6-1.4,1.5,0,2.2,1.6,2.2,2.9s-.5,2.8-1.9,3.2c1.3,1.4,1.9,3.1,1.9,4.8,0,2.6-1.4,5.1-4.3,5.1-6.7,0-3.2-8.8-7-8.8-1.1,0-1.6,1-1.6,1.9,0,.5.1,1,.6,1h.6Zm4.8-2.8c.9.8.5,4.1,2,4.1,1,0,1.3-.8,1.3-1.6,0-1.7-1-2.5-2.6-2.5h-.7Z"/><path class="cls-27" d="m436.1,194c-.4,0-2-.1-2,.5,0,.3.2.6.2,1,0,.9-.8,1.2-1.6,1.2-1.1,0-1.9-.5-1.9-1.4,0-.8.3-1.4.3-1.9,0-.6-.3-1.2-.3-1.9,0-.8.5-.9,1.2-.9h2.1c-2.3-.5-3.6-2.3-3.6-4.6,0-1.9,1.5-3.7,3.6-3.7,1.4,0,2.8.9,2.8,2.5,0,1.1-.7,2-1.8,2-.5,0-.8-.2-1.2-.3-.2,3.2,4.1,3.2,6.4,3.2.4,0,2,.1,2-.5,0-.3-.2-.6-.2-.9,0-1,.7-1.3,1.6-1.3,1,0,1.9.5,1.9,1.4-.1,1.6-.3,2.7-.3,3.9,0,1,.3,2.1.3,3.2,0,.9-.9,1.4-1.9,1.4-.9,0-1.6-.3-1.6-1.2,0-.4.2-.7.2-1,0-.6-1.6-.5-2-.5h-4.2v-.2Z"/><path class="cls-27" d="m436.1,178.5c-.4,0-2-.1-2,.5,0,.3.2.6.2.9,0,1-.8,1.3-1.6,1.3-1.1,0-1.9-.5-1.9-1.4,0-.8.3-1.4.3-2s-.3-1.2-.3-1.9c0-.8.5-.8,1.2-.8h2.1c-2.3-.5-3.6-2.3-3.6-4.6,0-2,1.5-3.7,3.6-3.7,1.4,0,2.8.9,2.8,2.5,0,1.1-.7,2-1.8,2-.5,0-.8-.2-1.2-.4-.2,3.2,4.1,3.3,6.4,3.3.4,0,2,.1,2-.5,0-.3-.2-.6-.2-1,0-.9.7-1.2,1.6-1.2,1,0,1.9.5,1.9,1.4-.1,1.5-.3,2.6-.3,3.8,0,1.1.3,2.2.3,3.2,0,.9-.9,1.4-1.9,1.4-.9,0-1.6-.3-1.6-1.3,0-.3.2-.6.2-.9,0-.6-1.6-.5-2-.5h-4.2v-.1Z"/><path class="cls-27" d="m438.9,160.3c0,.6-.2,1.3.6,1.3,1.6,0,2.8-1.3,2.8-2.9,0-2.5-2.2-2.3-2.2-4.5,0-1.1.6-2,1.7-2,1.3,0,2.3,1,2.9,2,.8,1.3,1.2,2.9,1.2,4.5,0,4.6-3.2,7.5-7.7,7.5s-7.9-2.8-7.9-7.4c0-1.7.4-3.5,1.5-4.8,1.2-1.4,3.2-2.1,5-2.1,1.6,0,2.1.2,2.1,1.9v6.5h0Zm-3.2-2.7c0-.5.2-1-.5-1-.5,0-1,.3-1.2.6-.4.5-.5,1-.5,1.5,0,.8.1,1.4.7,1.9.3.3.7.7,1.1.7.6,0,.4-.9.4-1.2v-2.5h0Z"/><path class="cls-27" d="m440.2,144.3c.4,0,2,.1,2-.5,0-.3-.2-.5-.2-.9,0-1,.7-1.2,1.6-1.2,1,0,1.9.5,1.9,1.7-.1,1.2-.3,2.3-.3,3.5,0,1.1.3,2.1.3,3.1,0,1.1-.9,1.5-1.9,1.5-.9,0-1.6-.3-1.6-1.2,0-.4.2-.6.2-1,0-.6-1.6-.5-2-.5h-5.2c-1,0-1.1-.1-1.1,1s-.3,1.7-1.5,1.7-1.7-.5-1.7-1.6c0-.8.1-1.1-.9-1.1-3.1-.1-4.4-2.8-4.4-5.6,0-.9.2-2.1.6-2.9.5-1,1.4-1.7,2.5-1.7,1.3,0,2.3.8,2.3,2.1,0,.9-.7,1.9-1.7,1.9-.3,0-.5-.1-.8-.3-.1.2-.1.3-.1.5,0,1.1.6,1.4,1.6,1.4.9,0,.9-.1.9-1,0-1.2.1-2,1.5-2,1.3,0,1.6.6,1.6,1.8s-.1,1.2,1.1,1.2h5.3v.1h0Z"/><path class="cls-27" d="m437.9,126.1c4.7,0,8,2.3,8,7.3s-3,7.6-7.8,7.6-7.8-2.6-7.8-7.6c0-4.6,3-7.3,7.6-7.3h0Zm-4,7.3c-.1,2.3,2.3,2.8,4.2,2.8,1.7,0,4.2-.5,4.2-2.6,0-1-.3-1.8-1.2-2.3-.8-.5-2-.6-3-.6-1.8,0-4.3.5-4.2,2.7h0Z"/><path class="cls-27" d="m436.1,124c-.4,0-2-.1-2,.5,0,.3.2.6.2,1,0,.9-.8,1.2-1.6,1.2-1.1,0-1.9-.5-1.9-2.6,0-.6.3-1.2.3-1.8s-.3-1.3-.3-2c0-1,.8-.8,1.5-.8h6.7c.6,0,1.6,0,2.2-.3.5-.3.8-1,.8-1.6,0-.8-.4-1.6-1.1-2.1-.9-.6-1.9-.6-3-.6h-1.8c-.4,0-2-.1-2,.5,0,.3.2.6.2.9,0,1-.8,1.3-1.6,1.3-1.1,0-1.9-.5-1.9-2.5,0-.6.3-1.2.3-1.8s-.3-1.3-.3-2c0-1,.6-.9,1.4-.9h8.1c.4,0,2,.1,2-.5,0-.3-.2-.6-.2-1,0-.9.7-1.2,1.6-1.2,1,0,1.9.5,1.9,1.7-.1.7-.3,1.4-.3,2s.3,1.3.3,1.8c-.1,1.1-.9,1-1.5,1h-.6c1.5,1.1,2.4,3.1,2.4,5,0,1.4-.5,3.1-1.8,3.9-1.2.8-2.8.7-4.3.7h-3.7v.2Z"/><path class="cls-27" d="m436.1,103.9c-.4,0-2-.1-2,.5,0,.3.2.6.2,1,0,.9-.8,1.2-1.6,1.2-1.1,0-1.9-.5-1.9-1.4,0-.8.3-1.4.3-1.9,0-.6-.3-1.2-.3-1.9,0-.8.5-.9,1.2-.9h2.1c-2.3-.5-3.6-2.3-3.6-4.6,0-2,1.5-3.7,3.6-3.7,1.4,0,2.8.9,2.8,2.4,0,1.1-.7,2-1.8,2-.5,0-.8-.2-1.2-.3-.2,3.2,4.1,3.2,6.4,3.2.4,0,2,.1,2-.5,0-.3-.2-.5-.2-.9,0-1,.7-1.2,1.6-1.2,1,0,1.9.5,1.9,1.4-.1,1.5-.3,2.6-.3,3.8,0,1.1.3,2.1.3,3.2,0,1-.9,1.4-1.9,1.4-.9,0-1.6-.3-1.6-1.2,0-.4.2-.6.2-1,0-.6-1.6-.5-2-.5l-4.2-.1h0Z"/><path class="cls-27" d="m437.8,20.7c.3,0,.6.3.6.3l15.4,15.4c.6.6.2,1-.3.8-.8-.4-1.5-1-3.5-1.6-2.7-.8-5-.8-6.3-.5s-3.8,1.9-3.8,5.1c0,4.2,3.9,5.4,5.3,5.4.9-.1,2.4,0,3.7-1.5,1-1.1.6-2.2.6-2.5-.1-.3-.4-.8.5-.8,1.1,0,2.4.9,3,1.5s2.3,2.7,2.3,5.7c0,1.8-.8,3.9-2.6,5.4-1.3,1.2-2.8,1.9-5,2.6-3.9,1.3-6.9,1.6-10,1.6-2.8,0-5.9-.3-9.8-1.6-2.1-.6-4-1.6-5.2-2.6-1.8-1.4-2.5-3.6-2.5-5.4,0-3,1.6-5.1,2.2-5.7.6-.6,1.9-1.5,3-1.5.9,0,.6.6.5.8,0,.3-.4,1.4.6,2.5,1.3,1.5,2.8,1.4,3.7,1.5,1.4.1,5.2-1.2,5.2-5.4,0-3.2-2.5-4.8-3.8-5.1s-3.6-.3-6.3.5c-1.9.6-2.7,1.2-3.4,1.6-.5.2-.9-.2-.3-.8l15.5-15.4s.4-.3.7-.3h0Z"/><path class="cls-27" d="m437.7,77.6c.3,0,.6-.3.6-.3l15.8-16.5c.4-.4,0-.5-.3-.4-.2.1-.3.1-1.1.6-6.4,4.5-15,4.4-15,4.4,0,0-8.6.1-15-4.4-.8-.5-.9-.6-1.1-.6-.3-.1-.7,0-.3.4l15.8,16.5c-.1,0,.2.3.6.3h0Z"/></g><g><path d="m191.1,137.4c1.3,2.3,2,4.8,2,7.4,0,3.1-.9,5.6-2.7,7.5-1.9,2-4.3,3-7.3,3s-5.4-1-7.3-3c-1.9-2-2.8-4.7-2.8-8,0-2.3.5-4.6,1.6-6.8h4.5c-1.4,2.1-2.1,4.3-2.1,6.5,0,2,.5,3.5,1.6,4.6s2.5,1.7,4.4,1.7c1.8,0,3.2-.5,4.3-1.6s1.6-2.5,1.6-4.3c0-2.3-.8-4.7-2.4-7h4.6Z"/><path d="m191.1,97c1.3,2.3,2,4.8,2,7.4,0,3.1-.9,5.6-2.7,7.5-1.9,2-4.3,3-7.3,3s-5.4-1-7.3-3c-1.9-2-2.8-4.7-2.8-8,0-2.3.5-4.6,1.6-6.8h4.5c-1.4,2.1-2.1,4.3-2.1,6.4s.5,3.5,1.6,4.6,2.5,1.7,4.4,1.7c1.8,0,3.2-.5,4.3-1.6s1.6-2.5,1.6-4.3c0-2.3-.8-4.7-2.4-7h4.6v.1h0Z"/><path d="m191.1,117.2c1.3,2.3,2,4.8,2,7.4,0,3.1-.9,5.6-2.7,7.5-1.9,2-4.3,3-7.3,3s-5.4-1-7.3-3c-1.9-2-2.8-4.7-2.8-8,0-2.3.5-4.6,1.6-6.8h4.5c-1.4,2.1-2.1,4.3-2.1,6.4s.5,3.5,1.6,4.6,2.5,1.7,4.4,1.7c1.8,0,3.2-.5,4.3-1.6s1.6-2.5,1.6-4.3c0-2.3-.8-4.6-2.4-7h4.6v.1h0Z"/></g><g><path d="m151.6,137.9h0c2.1,0,4,1.7,4,3.9s-1.9,3.9-4,3.9-4-1.7-4-3.9,1.8-3.9,4-3.9m5.7-2.1h-11.4v2.2h1.5v.1c-1,.8-1.9,1.9-1.9,3.7,0,3.4,2.6,6.1,6,6.1s6-2.7,6-6.1c0-1.8-.9-2.9-1.9-3.7v-.1h1.5v-2.2h.2Z"/><polygon points="148 152.9 148 149.4 145.9 149.1 145.9 159.3 148 159.3 148 155.2 157.3 155.2 157.3 152.9 148 152.9"/><path d="m145.9,130v2.2h11.4v-2.2h-4.5l-.8-.8,5.3-4.3v-2.8l-6.7,5.6-4.7-4.8v2.8l4.3,4.3v.1s-.2-.1-.6-.1h-3.7Z"/><path d="m151.6,99.8c2.1,0,4,1.7,4,3.9s-1.9,3.9-4,3.9-4-1.7-4-3.9,1.8-3.9,4-3.9m0-2.2c-3.4,0-6,2.7-6,6.1s2.6,6.1,6,6.1,6-2.7,6-6.1-2.6-6.1-6-6.1"/><path d="m145.9,117.9v2.2h11.4v-2.2h-4.5l-.8-.8,5.3-4.3v-2.8l-6.7,5.6-4.7-4.8v2.8l4.3,4.3v.1s-.2-.1-.6-.1h-3.7Z"/></g><g id="Brandingmodul_Deichmann_quadratisch_vertikal"><path id="Deichmann" d="m127.5,157.4c1,0,2.1.4,2.1,1.5v1.5h-4.1v-1.3c0-1,.6-1.6,2-1.7m0-2c-2.1,0-3.7,1.2-3.7,3.5v3.6h7.5v-3.6c0-2.4-1.7-3.5-3.8-3.5m3.8-1.2v-5.9h-1.6v3.9h-1.4v-3.2h-1.6v3.2h-1.4v-3.9h-1.6v5.9h7.6Zm-.1-7.3v-2h-7.5v2h7.5Zm-3.8-5.3c-1.3,0-2.3-.4-2.3-1.6,0-.9.6-1.3,1.2-1.4v-2c-1.7.1-2.8,1.4-2.8,3.4,0,2.5,1.8,3.7,4,3.7s4-1.2,4-3.7c0-2.1-1.3-3.3-2.9-3.4v2c.7.1,1.2.5,1.2,1.4,0,1.1-1.1,1.6-2.4,1.6m3.7-11.2v-2h-7.5v2h2.9v2.9h-2.9v2h7.5v-2h-3v-2.9h3Zm0-10.5v-1.8h-7.5v2.9l5,1.3h0l-4.9,1.4v2.9h7.5v-1.8h-5.6l5.6-1.6v-1.7l-5.6-1.6h5.5Zm-2.9-7.4v1.7l-2.8-.8h0l2.8-.9Zm2.8-.9v-2.1l-7.5,2.6v2.5l7.5,2.6v-2.2l-1.2-.4v-2.6l1.2-.4Zm0-7.8v-2.2h-7.5v1.9h4.7l-4.7,2.8v2.3h7.5v-1.9h-4.7l4.7-2.9Zm-.1-11h-7.5v1.9h4.7l-4.7,2.8v2.3h7.5v-1.9h-4.7l4.7-2.9v-2.2Z"/></g><g><g><path d="m102.6,119.1c.1-.2.2-.4.2-.6,0-.3-.1-.5-.2-.7s-.3-.4-.5-.6-.5-.3-.7-.3-.4,0-.6.1-.3.2-.5.4c-.1.2-.2.4-.2.7,0,.2.1.5.2.7s.3.4.5.6c.2.1.4.2.6.3.3,0,.5,0,.7-.1.2-.2.4-.4.5-.5Z"/><path d="m100.1,135.1v.6l1.2.2v-.6c0-.1-.1-.3-.2-.4-.1-.1-.2-.2-.4-.2s-.3,0-.4.1-.2.1-.2.3Z"/><path d="m95.8,126.5c0,7.7,2.5,13.9,5.7,13.9s5.7-6.2,5.7-13.9-2.5-13.9-5.7-13.9c-3.2,0-5.7,6.3-5.7,13.9Zm5.6-5.7c-.5-.1-.9-.3-1.3-.6-.4-.3-.7-.7-.9-1.1-.2-.4-.3-.9-.3-1.3,0-.5.1-.9.3-1.2.2-.4.5-.6.9-.8.4-.2.8-.2,1.3-.2.5.1,1,.3,1.4.6.4.3.7.6.9,1.1.2.4.3.9.3,1.4s-.1,1-.3,1.3c-.2.4-.5.6-.9.8-.4.1-.9.1-1.4,0Zm.5,13.2c.3.3.4.8.4,1.3v.7l1.6.3v1.2l-4.8-.7v-1.9c0-.3.1-.6.2-.9.1-.2.3-.4.5-.5s.5-.1.9-.1c.5.1.9.3,1.2.6Zm-1-4.4l1,.2v2.1l.8.1v-2.2l1.1.2v3.4l-4.8-.8v-3.4l1.1.2v2.2l.8.1v-2.1Zm-.2-4.4c.6.1,1,.3,1.2.6.3.3.4.8.4,1.3v.7l1.6.3v1.2l-4.8-.8v-1.9c0-.3.1-.6.2-.9.1-.2.3-.4.5-.5.2-.1.5-.1.9,0Zm.8-.3c-.3-.1-.6-.2-.9-.3-.3-.2-.6-.4-.8-.6-.2-.3-.4-.6-.6-.9-.1-.3-.2-.7-.2-1,0-.4.1-.8.2-1.1l1.5.2c-.2.1-.3.2-.4.4-.1.2-.1.4-.1.6,0,.3.1.5.2.7s.3.4.5.5.4.2.7.3c.4.1.7,0,.9-.2.2-.2.4-.5.4-.9,0-.2,0-.4-.1-.6s-.2-.4-.4-.5l1.5.2c.1.2.1.4.2.6,0,.2.1.4.1.5,0,.3-.1.6-.2.9s-.3.5-.5.7-.5.4-.8.5c-.5.1-.9.1-1.2,0Zm5.1-2.1c.3,2.8.2,2.5,0,0-.9-5-2.9-8.8-5.4-8.8-.8,0-1.6.3-2.3,1.1.3-.5.6-1,1-1.2.5-.4,1.1-.6,1.6-.6,2.4,0,4.5,4.3,5.1,9.5Z"/><path d="m100.1,126.8v.6l1.2.2v-.6c0-.1-.1-.3-.2-.4-.1-.1-.2-.2-.4-.2s-.3,0-.4.1c-.1.1-.2.2-.2.3Z"/></g><path d="m95.8,133.6c-3.4-16.3,2.1-23,5.7-22.2h.2c-3.6-2.4-10.1-.7-8.7,11.9.3,2.7,1.4,6.7,2.8,10.3"/><path d="m107.1,119.5c3.4,16.3-2.1,23-5.7,22.2h-.2c3.6,2.4,10.1.7,8.7-11.9-.2-2.7-1.4-6.7-2.8-10.3"/></g><g><path d="m59,127.7c0,13.7,6.2,24.3,14.1,24.3s14.1-10.7,14.1-24.3-6.2-24.3-14.1-24.3c-7.9-.1-14.1,10.6-14.1,24.3Zm26.4,0c0,12.5-5.5,22.7-12.4,22.7s-12.4-10.1-12.4-22.7,5.5-22.7,12.4-22.7,12.4,10.1,12.4,22.7Z"/><path d="m80.6,141.1c-.8,0-.6.9-1,.9-.1,0-.2-.1-.2-.3,0-.1,0-.3.1-.4h-.6v.4c0,.6.3,1,.8,1,.8,0,.6-.9,1-.9.1,0,.2.1.2.3s0,.4-.1.5h.6v-.5c.1-.6-.3-1-.8-1"/><path class="cls-27" d="m79.8,138.7c.2,0,.3.2.3.3v.1h-.6v-.1c0-.3.1-.3.3-.3m0-.7c-.5,0-.8.4-.8,1v.7h2.5v-.7h-.8v-.1c0-.6-.5-.9-.9-.9Z"/><path class="cls-27" d="m80.2,135.1c.5,0,.7.3.7.5,0,.3-.3.5-.7.5-.5,0-.6-.2-.6-.5-.1-.4.2-.5.6-.5m0-.8c-.9,0-1.2.5-1.2,1.2s.5,1.2,1.3,1.2,1.2-.4,1.2-1.2c0-.6-.5-1.2-1.3-1.2Z"/><path class="cls-27" d="m79.8,131.9c.2,0,.3.1.3.3v.1h-.5v-.1c-.1-.2,0-.3.2-.3m1.6-.9l-.7.4c-.1.1-.2.1-.3.2-.1-.3-.4-.4-.7-.4-.5,0-.8.3-.8,1v.8h2.5v-.7h-.9l.9-.5v-.8Z"/><polyline points="79.5 128.2 79 128.2 79 130 79.5 130 79.5 129.4 81.4 129.4 81.4 128.8 79.5 128.8 79.5 128.2"/><path d="m80.6,125.4c-.8,0-.6.9-1,.9-.1,0-.2-.1-.2-.3s0-.3.1-.4h-.6v.4c0,.6.3,1,.8,1,.8,0,.6-.9,1-.9.1,0,.2.1.2.3s0,.4-.1.5h.6v-.5c.1-.6-.3-1-.8-1"/><path d="m71.2,140.6v2.6h-4.3c-.6,0-.8-.3-.8-.3v3.2s.2-.3.8-.3h9.8c.6,0,.8.4.8.4v-3.4s-.2.3-.8.3h-4.5v-2.6h4.5c.6,0,.8.3.8.3v-3.2s-.2.3-.8.3h-9.8c-.6,0-.8-.4-.8-.4v3.2s.2-.3.8-.3c.4.2,4.3.2,4.3.2"/><path d="m73.6,130.3c-2.2,0-4.1,1.4-4.1,3.3s1.8,3.5,4.1,3.5,4.1-1.6,4.1-3.5c0-1.6-1.3-2.9-3.1-3.3v.9s.7.1,1.4.7c.6.5.6,1.2.6,1.6-.1,1.1-1.3,1.2-3,1.2v-4.4h0Zm-.8,4.4c-1.3,0-2.3-.3-2.3-1.1s.9-1.1,2.3-1.1v2.2Z"/><path d="m69.7,125.8c0-.8.1-1.3.1-1.4.2-.7.7-1,1.2-1,.6,0,1,.5,1,1.2s-.5,1.2-1,1.2c-.3,0-.6-.2-.8-.4,0,0-.2.7.3,1.2.3.2.6.2.6.2h5.6c.6,0,.8-.3.8-.3v3.2s-.2-.3-.8-.3h-6.2c-.6,0-.8.4-.8.4v-4"/><path d="m77.5,121.8l-3.9-1.6c-.4-.1-.5.3-.5.3v-1.9s.1.4.5.7l6.7,2.7v1.6l-6.7,2.2c-.4.1-.5.5-.5.5v-3.5c.2.4.5.3.5.3l3.9-1.3"/><path d="m69.7,115.5v3.1s.2-.3.8-.3h6.2c.6,0,.8.3.8.3v-3.1s-.2.3-.8.3h-6.2c-.5,0-.8-.3-.8-.3"/><path d="m68.1,118.2c-.6,0-1-.5-1-1.2s.5-1.2,1-1.2,1,.5,1,1.2-.5,1.2-1,1.2"/><path d="m74,113.1c.3-.6.5-1.3.7-1.7.2-.4.6-.7,1-.7.7,0,1.2.7,1.2,1.6,0,.3-.1.7-.2.9-.1-.3-.4-.7-.9-.7-.6,0-1,.5-1,1.2,0,.5.3.9.6,1.1,0,0,.3.1.6.1.1,0,.2-.1.3-.1.8-.4,1.3-1.3,1.3-3.2,0-2.1-1.1-3.6-2.4-3.6-.6,0-1.1.2-1.5.7-.3.3-.5.6-.9,1.5-.2.5-.4,1.1-.6,1.4-.2.4-.5.7-1,.7-.6,0-1.1-.6-1.1-1.3,0-.2,0-.3.1-.5v.1c.2.2.5.4.8.4.6,0,1-.5,1-1.2s-.5-1.2-1-1.2c-.4,0-.8.3-1,.7-.3.5-.5,1.2-.5,2,0,1.8,1.1,3.2,2.4,3.2.9,0,1.7-.5,2.1-1.4h0"/></g><g><path d="m360.5,174.2v-6.9h.8v6.9h-.8Z"/><polygon points="367.6 167.3 367.6 171.7 366.5 167.3 365.6 167.3 365.6 174.2 366.4 174.2 366.4 169.8 367.6 174.2 368.4 174.2 368.4 167.3 367.6 167.3"/><polygon points="356.1 167.3 356.1 170.3 355.1 170.3 355.1 167.3 354.3 167.3 354.3 174.2 355.1 174.2 355.1 171.1 356.1 171.1 356.1 174.2 356.8 174.2 356.8 167.3 356.1 167.3"/><path d="m362.7,168.7v.4c.1-.1.3-.4.8-.4.7,0,.8.6.8.9v3.7c0,.5-.1,1.1-.8,1.1-.3,0-.6-.2-.7-.4v1.7h-.8v-6.9h.7v-.1Zm.7,1.1c0-.3,0-.5-.3-.5-.4,0-.4.4-.4.6v3.2c0,.1,0,.5.4.5.3,0,.4-.3.4-.5v-3.3h-.1Z"/><path d="m371.7,169.3v-.7h.5v-1.4h.8v1.4h.4v.7h-.4v3.9c0,.3.1.3.3.3h.1v.6c-.1,0-.2.1-.4.1-.7,0-.8-.2-.8-.8v-4.1h-.5Z"/><path d="m359.8,173c0,.9-.4,1.3-1.2,1.3-.6,0-1.1-.2-1.1-1.2v-3.4c0-.6.3-1.1,1.2-1.1.7,0,1.1.4,1.1,1.2v2h-1.5v1.5c0,.2,0,.4.4.4s.4-.3.4-.5v-.8h.8l-.1.6h0Zm-.8-3.3c0-.3,0-.5-.4-.5s-.4.3-.4.6v1.3h.8v-1.4Z"/><path d="m371.4,173c0,.9-.4,1.3-1.2,1.3-.6,0-1.1-.2-1.1-1.2v-3.4c0-.6.3-1.1,1.2-1.1.7,0,1.1.4,1.1,1.2v2h-1.5v1.5c0,.2,0,.4.4.4s.4-.3.4-.5v-.8h.8l-.1.6h0Zm-.8-3.3c0-.3,0-.5-.4-.5s-.4.3-.4.6v1.3h.8v-1.4Z"/></g><g><g><path d="m359.3,258.5h.2v2.1h-.2v-.3l-.3.3c-.2.1-.4,0-.5-.1-.2-.1-.3-.3-.3-.6,0-.2,0-.4.1-.5.1-.2.2-.3.4-.4h.4c.1.1.2.1.3.3-.1-.2-.1-.5-.1-.8Zm-.6.7h-.1c-.2.1-.3.3-.3.6,0,.1,0,.3.1.4s.2.2.3.2c.2,0,.4-.1.5-.3.1-.1.1-.3.1-.5s-.1-.3-.2-.4c-.1,0-.3,0-.4,0Z"/><path d="m352.1,258.5c.1,0,.2.1.2.2s-.1.2-.2.2-.2-.1-.2-.2.1-.2.2-.2Z"/><path d="m360.1,258.5h.1l.1.1v.1s-.1.1-.2,0l-.1-.1s0,0,.1-.1Z"/><path d="m353.2,259.1c.1,0,.2-.1.3,0,.1,0,.2.1.2.3v1.3h-.3v-1q0-.1-.1-.2c-.1,0-.1-.1-.2,0-.1,0-.1.1-.2.2v1h-.3v-1.5h.3v.2c.1-.2.2-.3.3-.3Z"/><path d="m354.6,259.1c.1-.1.2-.1.4,0,.1,0,.2.1.2.2s.1.1.1.2c.1-.1.1-.2.2-.3.1-.1.2-.1.3-.1s.2.1.3.2c.1.1.1.3.1.4v.9h-.2v-1.1q0-.1-.1-.2c-.1-.1-.2-.1-.2-.1-.1,0-.3.1-.3.3,0,.1-.1.2-.1.3v.8h-.2v-1.2c0-.1-.1-.1-.2-.2-.1,0-.2,0-.3.1-.1.1-.1.2-.1.3v1h-.2v-1.5h.2v.3c-.1-.2,0-.3.1-.3Z"/><path d="m356.9,259.1c.1-.1.3-.1.4-.1s.2.1.3.2c.1.1.2.2.2.3s.1.2.1.3h-1.2c0,.1,0,.3.1.4s.2.2.3.2.3,0,.4-.1.1-.2.2-.3l.1.1c-.1.1-.1.2-.2.3-.1.1-.2.1-.3.1s-.3,0-.4-.1-.2-.2-.2-.3c-.1-.3-.1-.6,0-.8,0,0,.1-.1.2-.2Zm0,.2c-.1.1-.2.2-.2.3h1c0-.1-.1-.2-.1-.3-.2-.1-.5-.2-.7,0Z"/><path d="m351.8,259.4v-.3h.5v1.5h-.3v-1.2h-.2Z"/><path d="m359.8,259.1h.4v1.5h-.2v-1.3h-.2q0-.1,0-.2Z"/></g><path d="m361.2,259c.1,0,.3,0,.4.1l.3.3c.1.2.1.4.1.5,0,.2-.2.5-.4.6-.1.1-.3.1-.5.1-.1,0-.2-.1-.3-.2-.1-.1-.1-.2-.2-.4,0-.2,0-.3.1-.5,0-.1.1-.2.2-.3,0-.1.2-.2.3-.2Zm0,.4c-.1,0-.1.1-.2.1-.1.1-.1.2-.1.3v.2c0,.1.1.1.2.2h.2c.1,0,.2-.1.2-.1.1-.1.1-.2.1-.3v-.2c0-.1-.1-.2-.2-.2h-.2Z"/></g><g><path class="cls-27" d="m29.1,101.2c1.1-1,1.4-3.1.7-5.3h0c-.1-.3-.5-.3-1.2-.3l-1-2.9c-.1-.4-.5-.6-.9-.5-.4.2-.5.5-.4.9l.9,2.7c-.3.1-.5.1-.8.2s-.5.2-.8.3l-.9-2.8c-.1-.3-.5-.5-.9-.4-.3.1-.5.5-.4.9l1,3c-.6.4-.9.7-.9.9h0c.7,2.2,2.2,3.7,3.7,3.9h0c.1,0,.3.1.3.3,0,0,2.6,11.9,2.6,27.3,0,18.6-3.8,27.3-5,31.8-.1.3-.1.5.2.7.3.1.5-.1.7-.3.1-.1,7.1-11.9,7.1-32.2,0-14.1-2.5-23-3.9-27.8h0v-.1c-.3-.1-.3-.2-.1-.3h0Z"/><path class="cls-27" d="m22.6,136.2h0l-3.5-1.6,3.5-.5v2.1h0Zm-6.6-2.5c0,1.4.3,2.3,1.6,2.9,0,0,8.3,4.1,8.5,4.2v-3.1l-1.3-.6v-3.4s1.2-.2,1.3-.2v-3.5c-.1,0-9.8,1.8-9.9,1.8-.2.7-.2,1.3-.2,1.9h0Zm2.7,13.7c-.1,0-2.3-.3-2.5-.3v4.2c0,2.1,1,2.7,2.8,3,0,0,6,.9,6.1.9.1-.1.7-2.9.8-3-.2-.1-3-.5-3-.5v-2.5c-.1,0-2.3-.3-2.4-.4v2.5l-1.8-.3c0,.1,0-3.4,0-3.6h0Zm-2.5-4.5v3.1c.1,0,7.3,1.1,7.3,1.1l.9.1c.5,0,.9-.1,1.1-.3.4-.3.5-.9.5-1.8v-3.4c-.1-.1-2.7-.4-2.9-.5v2.6s-6.7-.9-6.9-.9h0Zm4.9-41c1.7.2,2.3,1.3,2.3,2.3,0,.5-.2.9-.6,1.2-.4.4-1.1.5-1.8.5-1.6-.2-2.3-1.2-2.3-2.2,0-.5.1-.9.5-1.3s1.1-.6,1.9-.5h0Zm-3.8-2.3c-.9.8-1.4,2.1-1.4,3.8,0,2.7,2,5.7,5.3,5.9h.5c1.2,0,2.3-.4,3.1-1.1.9-.8,1.4-2.1,1.4-3.7,0-.5-.1-.9-.2-1.5-1.7-.6-3.1-2.2-3.9-4.3-.4-.1-.9-.2-1.4-.3h-.5c-1.1.1-2.2.5-2.9,1.2h0Zm1.3,11.8c0-.5.1-1.1.2-1.5-.1-.1-2.6-.7-2.7-.7-.1.5-.1,1.2-.1,1.6,0,4,2.8,6.2,5.4,6.6,1.5.2,2.7,0,3.5-.8.9-.7,1.3-2,1.3-3.6,0-.8-.1-1.6-.3-2.4-.1,0-2.6-.1-2.8-.2.2.5.2.9.2,1.5s-.2,1.2-.6,1.5c-.4.4-1,.5-1.7.4-1.6-.2-2.4-1.4-2.4-2.4h0Zm1.2,9.9c.7.1,1.5.1,1.5.1l.9.1-1.3.4c-.9.3-2.9.9-4.7,1.3v4.4c.1,0,9.7,1.5,9.9,1.5v-3c-.1,0-3.5-.6-4.1-.6-.7-.1-2-.3-2-.3,0,0,1.2-.3,1.6-.5.5-.1,2.2-.6,2.6-.7,1.9-.6,2.2-1.5,2.2-3.2,0-.6-.1-1.1-.2-1.7,0,0-9.7-1.5-9.9-1.5v3c0,.1,2.8.6,3.5.7h0Z"/></g><g><path d="m337.5,396.5c0-1.4,1-2.1,1.8-2.3.7-.2,2.7-.2,3.4-.8.7-.6,1.1-1.4,1-2.4s-.3-3.3-3.8-3.5c-1.2-.1-2.4.4-3.3,1.1v22.7h6c.2-.6.2-1.3.2-1.3v-.6c.1-2.3-.7-5.2-2.4-7.5-1.8-2.3-2.9-4-2.9-5.4Zm2.8-7.3c.1-.1.3-.2.4-.2.3,0,.6.1.8.4.3.3.4.6.4.8s-.1.3-.2.4c-.3.3-.9.2-1.3-.2-.2-.2-.4-.5-.4-.8.1-.1.2-.3.3-.4Z"/><path d="m346.9,391.7c.7,0,.6-.3.6-.3-.3-.3-2.3-1.4-2.3-1.4-.3.7.1,1.5.1,1.5,0,0,.9.1,1.6.2Z"/><path d="m336.5,384.6v2.2c.8-.4,2-.8,3.5-.8,2.9,0,4.2,1.9,4.2,1.9,0,0,1.7.7,2.9,1.6,1.2.9,2.2,1.9,2.3,2.1.1.1.3.7-.4.9-.7.2-2.2.5-3.7.5,0,0-1,1.7-2.5,2.3-1.6.5-3.3,0-3.4,1.4-.1,1,.8,2.2,1.1,2.6.3.5,4,4.2,3.8,9.8,0,1.1-.2,1.9-.2,2.1h50.9v-26.7h-58.5v.1h0Zm19.4,15.2c0,2.4-1.7,4.2-4.2,4.2-1.3,0-2.7-.6-3.6-1.3l1.5-3.8c.2.6.5,1.3,1.2,1.3s.8-.8.8-1.3v-7.3h4.3v8.2h0Zm9.3,4h-4.3v-5.3l-4.3-6.9h5l1.4,3.2h.1c.1-.4.2-.8.4-1.2l.9-2h5l-4.2,6.9v5.3Zm7.9.2c-1.5,0-3.3-.4-4.7-1.1l1.4-3.4.2.2c.8.6,1.7,1.1,2.8,1.1.4,0,1.1-.2,1.1-.7s-.6-.6-1-.7l-.9-.2c-1.7-.3-3.2-1.3-3.2-3.2,0-2.9,2.6-4.5,5.3-4.5,1.4,0,2.7.3,3.9,1.1l-1.2,3.1c-.8-.5-1.6-.9-2.6-.9-.4,0-1,.1-1,.6s.6.5.9.6l1,.2c1.9.4,3.2,1.4,3.2,3.5.1,2.9-2.5,4.3-5.2,4.3Zm13.8-.2l-2.1-3.7c-.3-.5-.6-.9-.7-1.4h-.1l.1,5.1h-4.3v-12.2h4.3l-.1,5.3h.1c.1-.5.4-.9.6-1.4l2.1-3.9h4.8l-3.8,5.9,4.2,6.3h-5.1Z"/></g><g class="cls-9"><path d="m209,146.3h11.3v1.5l-6.9,5.8h6.9v2.2h-11.3v-1.4l7-6h-7v-2.1Z"/><path d="m214.7,144.5c-3.3,0-5.9-2.6-5.9-5.9s2.6-5.9,5.8-5.9,5.8,2.5,5.8,5.9c0,3.4-2.5,5.9-5.7,5.9Zm-.1-9.4c-2.1,0-3.6,1.6-3.6,3.5,0,2,1.5,3.5,3.6,3.5s3.6-1.5,3.6-3.5-1.5-3.5-3.6-3.5Z"/><path d="m216.2,127.3v1.3h4.1v2.3h-11.3v-4.3c0-2.6,1.7-3.9,3.6-3.9,1.4,0,2.7.7,3.3,2.3l4.4-2.7v2.6l-4.1,2.4Zm-2.1,1.3v-1.8c0-1.3-.8-1.8-1.5-1.8-.8,0-1.5.5-1.5,1.6v2h3Z"/><path d="m209,118.3h11.3v2.3h-11.3v-2.3Z"/><path d="m209,115.8v-7.6h2.1v5.4h2.4v-5h2.1v5h2.5v-5.4h2.1v7.6h-11.2Z"/><path d="m209,106.1v-2.3h9.1v-5.7h2.2v8h-11.3Z"/></g><g><polygon points="239.6 161.2 241.1 157.7 248.1 153.6 242.4 153.6 243.1 150.6 254 150.6 254 153.3 246 158.1 254 158.1 254 161.2 239.6 161.2"/><polygon points="243.4 149.4 254 149.4 254 142.5 251.5 142.5 251.5 146.2 249.9 146.2 249.9 143.3 248 143.3 247.7 146.2 246.4 146.2 246.7 143.2 244.4 143.2 243.4 149.4"/><polygon points="244.5 142.5 254 140.4 254 137.8 249 136 254 134.7 254 132.1 245.9 129.8 245.7 132.3 249.9 133.5 245.5 134.6 245.3 137.1 249.9 138.7 244.9 139.7 244.5 142.5"/><polygon points="254 127.1 254 125.4 246 125.4 238.3 120.1 238.3 123.9 243.5 127.1 238.3 130.3 238.3 134.1 246 128.8 254 128.8 254 127.1"/><path d="m245.5,120.6l.2,2.6,1.2,1.2h5.9l1.3-1.3v-2.5l-1.3-1.2h-6.1l-1.2,1.2h0Zm6.9.7v1.3h-4.9v-1.3h4.9Z"/><path d="m246,113.7l-1,.9.4,4h8.7v-2h-3.5v-1.1h3.5v-1.9h-4l-.7.6-.7-.6-2.7.1h0Zm2.7,1.9v1.1h-1.9v-1.1h1.9Z"/><polygon points="244.7 112.7 254 112.7 254 110.3 250.2 110.3 254 108.4 254 105.9 248.6 108.6 243.6 106.3 244.1 108.7 247.3 110.3 244.4 110.3 244.7 112.7"/><polygon points="243.6 105.8 242.4 100.8 244.6 100.8 245.2 103.1 246.8 103.1 246.5 100.8 249 100.8 249.2 103.1 251.5 103.1 251.5 100.7 254 100.7 254 105.8 243.6 105.8"/><path class="cls-27" d="m246.3,97.2h-2.6l-.4-1.6h2.8l.2,1.6h0Zm7.7,2.6v-2.6h-5.1l-.1-1.6h5.2v-2.7h-5.5l-1.2.9-1.3-.8h-4.3l-1.3,1.2,1.9,5.6h11.7Z"/></g><g class="cls-9"><path d="m353.6,197.4c0-1.3,1-2.2,2.2-2.2.8,0,1.4.4,1.8.9l-.6.6c-.3-.4-.7-.6-1.2-.6-.8,0-1.3.6-1.3,1.4s.6,1.3,1.3,1.3c.5,0,.9-.2,1.2-.6l.6.5c-.4.5-1,.9-1.9.9-1.2,0-2.1-.9-2.1-2.2Z"/><path d="m360.3,198.6h-1.5l-.3.9h-.9l1.6-4.2h.7l1.6,4.2h-.9l-.3-.9Zm-1.2-.8h1l-.5-1.4-.5,1.4Z"/><path d="m362,195.3h1.6c1.3,0,2,.8,2,2.1s-.8,2.1-2.1,2.1h-1.6v-4.2h.1Zm1.6,3.4c.8,0,1.1-.6,1.1-1.3s-.4-1.3-1.1-1.3h-.8v2.6h.8Z"/><path d="m366.1,197.4c0-1.2,1-2.2,2.2-2.2s2.2,1,2.2,2.2-.9,2.2-2.2,2.2-2.2-1-2.2-2.2Zm3.5,0c0-.8-.6-1.3-1.3-1.3s-1.3.6-1.3,1.3c0,.8.6,1.3,1.3,1.3.7,0,1.3-.5,1.3-1.3Z"/><path d="m372.5,198h-.5v1.5h-.8v-4.2h1.6c1,0,1.4.6,1.4,1.3,0,.5-.3,1-.9,1.2l1,1.6h-1l-.8-1.4Zm-.5-.8h.7c.5,0,.7-.3.7-.6s-.2-.6-.6-.6h-.8v1.2h0Z"/></g><g class="cls-9"><path d="m353.2,218.9v3.3h-.7v-3.3h.7Z"/><path d="m356.8,218.9v3.3h-.5l-1.7-2v2h-.7v-3.3h.4l1.8,2.1v-2.1h.7Z"/><path d="m361.5,218.9l-1.4,3.3h-.5l-1.4-3.3h.8l.9,2.3.9-2.3h.7Z"/><path d="m361.5,220.5c0-1,.8-1.7,1.7-1.7s1.7.8,1.7,1.7c0,1-.8,1.7-1.7,1.7s-1.7-.7-1.7-1.7Zm2.8,0c0-.6-.5-1.1-1-1.1-.6,0-1,.5-1,1.1s.5,1.1,1,1.1,1-.5,1-1.1Z"/><path d="m365.4,220.5c0-1,.8-1.7,1.8-1.7.6,0,1.1.2,1.3.5l-.4.5c-.2-.2-.6-.4-.9-.4-.6,0-1.1.5-1.1,1.1s.4,1.1,1.1,1.1c.4,0,.7-.2.9-.4v-.4h-1v-.6h1.5v1.4c-.4.4-.9.7-1.5.7-1-.1-1.7-.8-1.7-1.8Z"/><path d="m369.2,221v-2.1h.7v2.1c0,.5.3.7.6.7.4,0,.6-.2.6-.7v-2.1h.7v2.1c0,.9-.6,1.3-1.3,1.3-.7-.1-1.3-.5-1.3-1.3Z"/><path d="m372.5,218.9h2.3v.6h-1.7v.7h1.5v.6h-1.5v.7h1.6v.6h-2.3l.1-3.2h0Z"/></g><g class="cls-9"><path d="m352.3,184.1l-.3,1v1.7h-.5v-6.8h.5v3.2l.9-3.2h.6l-.9,3.1.9,3.7h-.6l-.6-2.7Z"/><path d="m353.8,184.3v-4.3h.5v4.2c0,.9.2,1.4.4,1.4.3,0,.4-.5.4-1.4v-4.2h.5v4.3c0,1.8-.4,2.6-.9,2.6s-.9-.8-.9-2.6Z"/><path d="m356.1,180h.5v5.5h1.2v1.3h-1.7v-6.8Z"/><path d="m357.8,185.6l.3-.9c.2.6.4.9.6.9s.3-.3.3-.7c0-.3-.1-.5-.2-.7s-.3-.4-.5-.6c-.2-.3-.4-.8-.4-1.7,0-1.1.3-2,.8-2,.3,0,.5.3.8.9l-.2,1c-.1-.4-.3-.6-.5-.6s-.3.3-.3.7c0,.3.1.5.2.7s.4.4.5.7c.2.3.4.8.4,1.7,0,1.2-.3,2.1-.9,2.1-.4-.2-.7-.6-.9-1.5Z"/><path d="m361.1,185.3h-.8l-.2,1.5h-.5l.9-6.8h.4l.9,6.8h-.5l-.2-1.5Zm-.7-1.2h.5l-.3-2.3-.2,2.3Z"/><path d="m361.8,185.6l.3-.9c.2.6.4.9.6.9s.3-.3.3-.7c0-.3-.1-.5-.2-.7s-.3-.4-.5-.6c-.2-.3-.4-.8-.4-1.7,0-1.1.3-2,.8-2,.3,0,.5.3.8.9l-.2,1c-.1-.4-.3-.6-.5-.6s-.3.3-.3.7c0,.3.1.5.2.7s.4.4.5.7c.2.3.4.8.4,1.7,0,1.2-.3,2.1-.9,2.1-.4-.2-.7-.6-.9-1.5Z"/><path d="m364.6,184.3h-.3v2.5h-.5v-6.8h.9c.5,0,.8,1,.8,2.2,0,.8-.1,1.6-.5,2l.6,2.7h-.5l-.5-2.6Zm-.3-1.2h.4c.3,0,.4-.5.4-.9,0-.5-.1-.9-.3-.9h-.4v1.8h-.1Z"/><path d="m366.6,183.4c0-2.1.5-3.5,1.2-3.5.4,0,.8.6,1,1.4l-.3.9c-.2-.6-.4-1-.7-1-.4,0-.7.9-.7,2.2s.3,2.2.7,2.2c.3,0,.5-.4.7-1l.3.9c-.2.8-.6,1.4-1,1.4-.6,0-1.2-1.4-1.2-3.5Z"/><path d="m369,183.4c0-2,.5-3.5,1.2-3.5s1.2,1.6,1.2,3.5-.5,3.5-1.2,3.5-1.2-1.5-1.2-3.5Zm1.9,0c0-1.3-.3-2.2-.7-2.2s-.7.9-.7,2.2c0,1.2.3,2.2.7,2.2s.7-.9.7-2.2Z"/><path d="m373.8,180v6.8h-.3l-1.2-4.2v4.2h-.5v-6.8h.3l1.2,4.2v-4.2h.5Z"/><path d="m374.3,180h1.5v1.3h-1.1v1.5h1v1.3h-1v2.7h-.5v-6.8h.1Z"/></g><g><path d="m331.8,20.1h-.4l-.1.4c.2,0,.5.2.3.4l-2.5,1.9.5-1.9c.1-.4.5-.4.5-.4l.1-.4h-3l-.1.4c.1,0,.5.1.4.7-1,3.6-.9,3.2-.9,3.4-.3,1-.7,1-.9,1l-.1.4h3.1l.1-.4s-.5-.1-.4-.5.5-1.8.5-1.8c1.4,2.2,1.7,2.6,2.9,2.7h1.6l.1-.4c-.4,0-.7-.3-.8-.5-.1-.1-.5-.7-.9-1.3-.3-.5-.7-1-.7-1l.7-.5,1.9-1.5c.4-.4.7-.3.7-.3l.1-.4h-2.7Z"/><path d="m344.5,20h-1c-2.5.3-4,1.9-4,3.4,0,1.3,1.1,2.6,3.5,2.6h.5c.6,0,1.1-.1,1.6-.2l.3-1.2c-.5.2-1.1.3-1.6.3h-.3c-1.1-.1-1.9-.8-1.9-1.8s.7-1.7,1.9-1.9c.2,0,.4-.1.6-.1.8,0,1.1.2,1.4.6h.2l.4-1.5c-.3,0-1-.2-1.6-.2Z"/><path d="m337.9,20.1h-2.9l-.1.4s.6.1.4.7l-1.3,4.9h2.7l.1-.4s-.5-.1-.4-.6l.4-1.4h1.2c.6,0,.8.3.8.3l.4-1.4h-2.1l.3-1.1h1.7c.3,0,.6.2.6.4h.2l.4-1.6h-2.4v-.2h0Z"/></g><g class="cls-9"><path d="m313.5,125.8c0-.6.4-1,1-1,.3,0,.6.2.8.4l-.3.2c-.1-.2-.3-.3-.5-.3-.3,0-.6.3-.6.6s.3.6.6.6c.2,0,.4-.1.5-.3l.3.2c-.2.2-.5.4-.8.4-.6.2-1-.2-1-.8Z"/><path d="m315.5,126.1v-1.2h.4v1.2c0,.3.1.4.4.4.2,0,.4-.1.4-.4v-1.2h.4v1.2c0,.5-.3.7-.7.7-.5,0-.9-.2-.9-.7Z"/><path d="m318,126.1h-.2v.7h-.4v-1.9h.7c.4,0,.6.3.6.6,0,.2-.1.5-.4.6l.5.7h-.4l-.4-.7Zm-.2-.3h.3c.2,0,.3-.1.3-.3,0-.1-.1-.3-.3-.3h-.3v.6Z"/><path d="m320.1,126.4h-.7l-.1.4h-.4l.7-1.9h.3l.7,1.9h-.4l-.1-.4Zm-.5-.4h.4l-.2-.6-.2.6Z"/><path d="m320.6,125.3v-.4h1.5v.4h-.5v1.5h-.5v-1.5h-.5Z"/><path d="m323.1,126.4h-.7l-.1.4h-.4l.7-1.9h.3l.7,1.9h-.4l-.1-.4Zm-.6-.4h.4l-.2-.6-.2.6Z"/><path d="m323.5,125.3v-.4h1.5v.4h-.5v1.5h-.4v-1.5h-.6Z"/><path d="m325,125.8c0-.5.4-1,1-1s1,.4,1,1c0,.5-.4,1-1,1-.5,0-1-.4-1-1Zm1.6,0c0-.4-.3-.6-.6-.6s-.6.3-.6.6.3.6.6.6.6-.2.6-.6Z"/><path d="m327.9,126.1h-.2v.7h-.4v-1.9h.7c.4,0,.6.3.6.6,0,.2-.1.5-.4.6l.5.7h-.4l-.4-.7Zm-.2-.3h.3c.2,0,.3-.1.3-.3,0-.1-.1-.3-.3-.3h-.3v.6Z"/><path d="m329.4,124.9v1.9h-.4v-1.9h.4Z"/><path d="m329.8,124.9h1.3v.4h-.9v.4h.8v.4h-.8v.4h.9v.4h-1.3v-2Z"/></g><g class="cls-9"><path d="m352.3,136.5h.4l1.2,1.5,1.1-1.5h.4v2.6h-.6v-1.5l-.9,1.1h-.2l-.9-1.1v1.5h-.6v-2.6h.1Z"/><path d="m357.6,138.6h-1l-.2.6h-.6l1.1-2.6h.5l1.1,2.6h-.6l-.3-.6Zm-.8-.5h.7l-.3-.9-.4.9Z"/><path d="m359.5,137.8l-.9-1.3h.7l.6.9.6-.9h.7l-.9,1.3.9,1.3h-.7l-.6-.9-.6.9h-.7l.9-1.3Z"/><path d="m362.1,137.8l-.9-1.3h.7l.6.9.6-.9h.7l-.9,1.3.9,1.3h-.7l-.6-.9-.6.9h-.7l.9-1.3Z"/><path d="m364.7,136.5v2.6h-.6v-2.6h.6Z"/><path d="m365.4,136.5h.4l1.2,1.5,1.1-1.5h.4v2.6h-.6v-1.5l-.9,1.1h-.2l-.9-1.1v1.5h-.6v-2.6h.1Z"/><path d="m369.1,138.2v-1.7h.6v1.6c0,.4.2.5.6.5.3,0,.5-.2.5-.5v-1.6h.6v1.7c0,.7-.5,1-1.1,1-.7,0-1.2-.3-1.2-1Z"/><path d="m371.8,138.7l.3-.4c.2.2.5.4.8.4.2,0,.4-.1.4-.3,0-.1-.1-.2-.3-.3-.2-.1-.4-.1-.6-.2-.3-.1-.5-.3-.5-.7s.4-.8,1-.8c.3,0,.7.1,1,.4l-.3.4c-.2-.2-.4-.2-.6-.2s-.4.1-.4.3c0,.1.1.2.2.3.2.1.5.2.6.3.3.1.5.3.5.7,0,.5-.4.8-1.1.8-.4-.2-.8-.3-1-.7Z"/></g><g class="cls-9"><path d="m310.6,162.8v.9h-.6v-.9l-1-1.7h.7l.6,1.2.6-1.2h.7l-1,1.7Z"/><path d="m312,162.7v-1.7h.6v1.6c0,.4.2.5.6.5.3,0,.5-.2.5-.5v-1.6h.6v1.7c0,.7-.5,1-1.1,1-.7.1-1.2-.3-1.2-1Z"/><path d="m317,161.9c0,.5-.3.9-1.1.9h-.5v.9h-.6v-2.6h1.1c.8,0,1.1.4,1.1.8Zm-.6,0c0-.2-.2-.4-.4-.4h-.5v.8h.5c.3,0,.4-.2.4-.4Z"/><path d="m319.6,161.9c0,.5-.3.9-1.1.9h-.5v.9h-.6v-2.6h1.1c.8,0,1.1.4,1.1.8Zm-.6,0c0-.2-.2-.4-.4-.4h-.5v.8h.5c.2,0,.4-.2.4-.4Z"/><path d="m320.6,161.1v2.6h-.6v-2.6h.6Z"/><path d="m323.2,162.7l-.4.4v.7h-.6v-2.6h.6v1.3l1.1-1.3h.7l-1.1,1.2,1.2,1.4h-.7l-.8-1.1Z"/><path d="m325.6,161.1v2.6h-.6v-2.6h.6Z"/><path d="m326.2,161.1h1.2c.9,0,1.4.5,1.4,1.3s-.5,1.3-1.4,1.3h-1.1v-2.6h-.1Zm1.2,2.1c.5,0,.8-.4.8-.8s-.3-.8-.8-.8h-.6v1.6h.6Z"/><path d="m329,163.3l.3-.4c.2.2.5.4.8.4.2,0,.4-.1.4-.3,0-.1-.1-.2-.3-.3-.2-.1-.4-.1-.6-.2-.3-.1-.5-.3-.5-.7s.4-.8,1-.8c.3,0,.7.1,1,.4l-.3.4c-.2-.2-.4-.2-.6-.2s-.4.1-.4.3c0,.1.1.2.2.3.2.1.5.2.6.3.3.1.5.3.5.7,0,.5-.4.8-1.1.8-.3-.2-.7-.4-1-.7Z"/></g><g class="cls-9"><path d="m309.4,47.1h.3l.9,1.5.9-1.5h.3v2.7h-.4v-1.5l-.6,1.1h-.2l-.6-1.1v1.5h-.4v-2.7h-.2Z"/><path d="m312.2,47.1h1.5v.5h-1v.6h1v.5h-1v.6h1v.5h-1.5v-2.7Z"/><path d="m313.9,49.4l.3-.4c.1.2.4.4.6.4s.3-.1.3-.3c0-.1-.1-.2-.2-.3s-.3-.1-.5-.3c-.2-.1-.3-.3-.3-.7s.3-.8.8-.8c.3,0,.5.1.7.4l-.2.4c-.1-.2-.3-.3-.5-.3s-.3.1-.3.3c0,.1.1.2.2.3s.3.2.5.3.4.3.4.7c0,.5-.3.8-.8.8-.5,0-.8-.2-1-.5Z"/><path d="m315.8,48.5c0-.8.5-1.4,1.1-1.4s1.1.6,1.1,1.4-.5,1.4-1.1,1.4c-.6,0-1.1-.6-1.1-1.4Zm1.8,0c0-.5-.3-.9-.7-.9s-.7.4-.7.9.3.9.7.9.7-.4.7-.9Z"/><path d="m320,48c0,.5-.2.9-.8.9h-.3v.9h-.4v-2.7h.8c.5,0,.7.5.7.9Zm-.4,0c0-.2-.1-.4-.3-.4h-.4v.8h.4c.2,0,.3-.2.3-.4Z"/><path d="m320.2,48.5c0-.8.5-1.4,1.1-1.4s1.1.6,1.1,1.4-.5,1.4-1.1,1.4c-.6,0-1.1-.6-1.1-1.4Zm1.8,0c0-.5-.3-.9-.7-.9s-.7.4-.7.9.3.9.7.9.7-.4.7-.9Z"/><path d="m322.6,47.6v-.5h1.7v.5h-.6v2.2h-.4v-2.2h-.7Z"/><path d="m325.5,49.2h-.8l-.2.6h-.4l.8-2.7h.4l.8,2.7h-.5l-.1-.6Zm-.6-.4h.5l-.3-.9-.2.9Z"/><path d="m326.4,47.1h.3l.9,1.5.9-1.5h.3v2.7h-.4v-1.5l-.6,1.1h-.2l-.6-1.1v1.5h-.4v-2.7h-.2Z"/><path d="m329.7,47.1v2.7h-.4v-2.7h.4Z"/><path d="m331.3,49.2h-.8l-.2.6h-.5l.8-2.7h.4l.8,2.7h-.5v-.6Zm-.6-.4h.5l-.3-.9-.2.9Z"/></g><g><path d="m319.7,139.57c0,.27-.2.5-.54.5h-.78v-1.7h.74c.32,0,.48.22.48.42,0,.15-.09.29-.23.34.22.06.32.24.32.44Zm-.98-.91v.37h.33c.15,0,.22-.1.22-.19s-.07-.18-.2-.18h-.35Zm.63.88c0-.11-.08-.23-.25-.23h-.37v.45h.37c.17,0,.25-.12.25-.22Z"/><path d="m320.84,139.7h-.59l-.13.37h-.36l.65-1.7h.28l.64,1.7h-.36l-.13-.37Zm-.5-.3h.4l-.2-.57-.2.57Z"/><path d="m322.99,138.37v1.7h-.23l-.88-1.04v1.04h-.34v-1.7h.22l.9,1.05v-1.05h.34Z"/><path d="m323.28,139.22c0-.53.4-.89.88-.89.32,0,.58.14.73.35l-.23.22c-.12-.15-.29-.25-.49-.25-.3,0-.54.23-.54.56s.23.54.54.54c.2,0,.38-.1.5-.25l.23.21c-.15.21-.42.36-.75.36-.49,0-.88-.35-.88-.87Z"/><path d="m326.01,139.7h-.59l-.13.37h-.36l.65-1.7h.28l.64,1.7h-.36l-.13-.37Zm-.5-.3h.4l-.2-.57-.2.57Z"/><path d="m314.16,141.47v-.33h1.32v.33h-.49v1.37h-.35v-1.37h-.49Z"/><path d="m316.25,142.22h-.2v.62h-.34v-1.7h.65c.4,0,.58.26.58.54,0,.21-.1.41-.35.5l.41.66h-.4l-.36-.62Zm-.2-.31h.28c.19,0,.27-.12.27-.23s-.08-.23-.24-.23h-.31v.46Z"/><path d="m318.18,142.47h-.59l-.13.37h-.36l.65-1.7h.28l.64,1.7h-.36l-.13-.37Zm-.5-.3h.4l-.2-.57-.2.57Z"/><path d="m320.33,141.14v1.7h-.23l-.88-1.04v1.04h-.34v-1.7h.22l.9,1.05v-1.05h.34Z"/><path d="m320.56,142.55l.2-.24c.11.15.28.24.45.24.14,0,.24-.08.24-.18,0-.08-.07-.14-.15-.18-.11-.05-.25-.09-.37-.16-.15-.08-.27-.21-.27-.42,0-.28.23-.5.58-.5.2,0,.4.07.56.23l-.18.25c-.1-.11-.26-.16-.37-.16-.14,0-.22.07-.22.16,0,.08.07.13.14.17.09.04.26.11.38.16.17.08.29.21.29.42,0,.3-.25.52-.62.52-.26,0-.5-.11-.65-.32Z"/><path d="m322.45,141.14v1.7h-.34v-1.7h.34Z"/><path d="m322.83,141.14h.34v1.38h.87v.33h-1.21v-1.7Z"/><path d="m325.52,141.14l-.7,1.7h-.27l-.71-1.7h.39l.45,1.18.45-1.18h.39Z"/><path d="m326.48,142.47h-.59l-.13.37h-.36l.65-1.7h.28l.64,1.7h-.36l-.13-.37Zm-.5-.3h.4l-.2-.57-.2.57Z"/><path d="m328.63,141.14v1.7h-.23l-.88-1.04v1.04h-.34v-1.7h.22l.9,1.05v-1.05h.34Z"/><path d="m329.36,141.14v1.7h-.34v-1.7h.34Z"/><path d="m330.65,142.47h-.59l-.13.37h-.36l.65-1.7h.28l.64,1.7h-.36l-.13-.37Zm-.5-.3h.4l-.2-.57-.2.57Z"/></g><g class="cls-9"><path d="m357.1,108.6h1.7c1.3,0,2.1.5,2.1,1.2s-.8,1.2-2.2,1.2h-1.6v-2.4Zm1.8,1.9c.8,0,1.2-.3,1.2-.7s-.4-.7-1.2-.7h-.9v1.5h.9v-.1Z"/><path d="m362.6,108.6v2.4h-.9v-2.4h.9Z"/><path d="m363.4,109.8c0-.7,1-1.2,2.4-1.2.7,0,1.4.2,1.8.4l-.6.3c-.3-.2-.7-.3-1.2-.3-.8,0-1.4.3-1.4.8,0,.4.6.8,1.4.8.5,0,.9-.1,1.2-.3v-.3h-1.2v-.4h2v1c-.5.3-1.2.5-2,.5-1.5-.1-2.4-.6-2.4-1.3Z"/><path d="m369.4,108.6v2.4h-.9v-2.4h.9Z"/></g><g class="cls-9"><path d="m310.1,263v-.5l2.1-1.5-2.1-1.5v-.5h3.8v.8h-2.1l1.6,1.1v.3l-1.6,1.1h2.1v.7h-3.8Z"/><path d="m310.1,258.1v-2.6h.7v1.8h.8v-1.7h.7v1.7h.9v-1.8h.7v2.6h-3.8Z"/><path d="m312.5,253.7v.5h1.4v.8h-3.8v-1.5c0-.9.6-1.3,1.2-1.3.5,0,.9.2,1.1.8l1.5-.9v.9l-1.4.7Zm-.7.4v-.6c0-.4-.3-.6-.5-.6-.3,0-.5.2-.5.5v.7h1Z"/><path d="m312,251.7c-1.1,0-2-.9-2-2s.9-2,2-2,2,.9,2,2c-.1,1.1-.9,2-2,2Zm0-3.2c-.7,0-1.2.5-1.2,1.2s.5,1.2,1.2,1.2,1.2-.5,1.2-1.2-.5-1.2-1.2-1.2Z"/><path d="m310.1,243.9h3.8v.5l-2.3,2h2.3v.7h-3.8v-.5l2.3-2h-2.3v-.7Z"/></g><g class="cls-9"><path d="m363.4,99.5c0,.3-.2.5-.6.5h-.7v-1.7h.8c.3,0,.5.2.5.4s-.1.3-.2.4c.1,0,.2.2.2.4Zm-1-.9v.4h.3c.2,0,.2-.1.2-.2s-.1-.2-.2-.2c0,0-.3,0-.3,0Zm.6.9c0-.1-.1-.2-.3-.2h-.4v.5h.4c.3-.1.3-.2.3-.3Z"/><path d="m363.7,99.4v-1.1h.4v1.1c0,.2.1.4.3.4s.3-.1.3-.4v-1.1h.4v1.1c0,.5-.3.7-.7.7-.4-.1-.7-.3-.7-.7Z"/><path d="m366.9,98.3v1.7h-.2l-.9-1.1v1.1h-.3v-1.7h.2l.9,1.1v-1.1h.3Z"/><path d="m368.2,99.6h-.6l-.1.4h-.4l.7-1.7h.3l.7,1.7h-.4l-.2-.4Zm-.5-.3h.4l-.2-.6-.2.6Z"/><path d="m368.6,98.6v-.3h1.4v.3h-.5v1.4h-.4v-1.4h-.5Z"/><path d="m370.9,99.6h-.6l-.1.4h-.4l.7-1.7h.3l.7,1.7h-.4l-.2-.4Zm-.5-.3h.4l-.2-.6-.2.6Z"/><path d="m371.3,98.6v-.3h1.4v.3h-.5v1.4h-.4v-1.4h-.5Z"/><path d="m373.3,98.3v1.7h-.4v-1.7h.4Z"/></g><g class="cls-9"><path d="m362.5,101.1h.7c.5,0,.8.3.8.9,0,.5-.3.9-.9.9h-.7v-1.8h.1Zm.6,1.4c.3,0,.5-.2.5-.5s-.2-.5-.5-.5h-.3v1.1l.3-.1h0Z"/><path d="m364.6,101.1v1.7h-.4v-1.7h.4Z"/><path d="m366.5,101.1v1.7h-.2l-.9-1.1v1.1h-.3v-1.7h.2l.9,1.1v-1.1h.3Z"/><path d="m367.3,102.5l.2-.2c.1.2.3.2.5.2.1,0,.3-.1.3-.2s-.1-.1-.2-.2-.3-.1-.4-.2c-.2-.1-.3-.2-.3-.4,0-.3.2-.5.6-.5.2,0,.4.1.6.2l-.2.3c-.1-.1-.3-.2-.4-.2s-.2.1-.2.2.1.1.1.2c.1,0,.3.1.4.2.2.1.3.2.3.4,0,.3-.3.5-.6.5s-.5-.1-.7-.3Z"/><path d="m369.2,101.1v1.7h-.4v-1.7h.4Z"/><path d="m371,102.3c0,.3-.2.5-.6.5h-.8v-1.7h.8c.3,0,.5.2.5.4s-.1.3-.2.4c.2,0,.3.2.3.4Zm-1-.9v.4h.3c.2,0,.2-.1.2-.2s-.1-.2-.2-.2c0,0-.3,0-.3,0Zm.6.9c0-.1-.1-.2-.3-.2h-.4v.5h.4c.2-.1.3-.2.3-.3Z"/><path d="m371.6,101.1v1.7h-.4v-1.7h.4Z"/><path d="m372,102.2v-1.1h.4v1.1c0,.2.1.4.3.4s.3-.1.3-.4v-1.1h.4v1.1c0,.5-.3.7-.7.7-.4-.1-.7-.3-.7-.7Z"/></g><g class="cls-9"><path d="m385.9,290.3h.9v3.6h2.3v.9h-3.2v-4.5h0Z"/><path d="m392.1,293.9h-1.6l-.3,1h-.9l1.7-4.5h.7l1.7,4.5h-1l-.3-1Zm-1.3-.8h1.1l-.5-1.5-.6,1.5Z"/><path d="m393.4,294.1l.5-.6c.3.4.7.6,1.2.6.4,0,.6-.2.6-.5,0-.2-.2-.4-.4-.5-.3-.1-.7-.2-1-.4-.4-.2-.7-.6-.7-1.1,0-.7.6-1.3,1.5-1.3.5,0,1.1.2,1.5.6l-.5.7c-.3-.3-.7-.4-1-.4-.4,0-.6.2-.6.4s.2.4.4.4c.2.1.7.3,1,.4.4.2.8.5.8,1.1,0,.8-.7,1.4-1.7,1.4-.5,0-1.2-.3-1.6-.8Z"/></g><g class="cls-9"><path d="m385.9,296.4l-1.8,4.5h-.7l-1.9-4.5h1l1.2,3.1,1.2-3.1h1Z"/><path d="m386.4,296.4h3.1v.8h-2.1v1h2v.8h-2v1h2.1v.8h-3.1v-4.4Z"/><path d="m390,298.7c0-1.4,1.1-2.3,2.4-2.3.8,0,1.4.3,1.8.7l-.6.6c-.3-.3-.8-.5-1.2-.5-.8,0-1.5.6-1.5,1.5,0,.8.6,1.5,1.4,1.5.5,0,.9-.2,1.2-.5v-.6h-1.2v-.8h2.1v1.9c-.5.6-1.3.9-2.1.9-1.3-.1-2.3-1.1-2.3-2.4Z"/><path d="m397.5,300h-1.6l-.3,1h-.9l1.7-4.5h.7l1.7,4.5h-1l-.3-1Zm-1.4-.8h1.1l-.5-1.5-.6,1.5Z"/><path d="m398.8,300.2l.5-.6c.3.4.7.6,1.2.6.4,0,.6-.2.6-.5,0-.2-.2-.4-.4-.5-.3-.1-.7-.2-1-.4-.4-.2-.7-.6-.7-1.1,0-.7.6-1.3,1.5-1.3.5,0,1.1.2,1.5.6l-.5.7c-.3-.3-.7-.4-1-.4-.4,0-.6.2-.6.4s.2.4.4.4c.2.1.7.3,1,.4.4.2.8.5.8,1.1,0,.8-.7,1.4-1.7,1.4-.6,0-1.3-.3-1.6-.8Z"/></g><g class="cls-9"><path d="m273.9,162.4v1.2l.7.3v.7l-3.4-1.3v-.5l3.4-1.3v.7l-.7.2Zm-.6,1.1v-.8l-1.1.4,1.1.4Z"/><path d="m273.4,159.9v.4h1.3v.7h-3.4v-1.3c0-.8.5-1.2,1.1-1.2.4,0,.8.2,1,.7l1.3-.8v.8l-1.3.7Zm-.6.5v-.6c0-.4-.2-.5-.5-.5-.2,0-.5.2-.5.5v.6h1Z"/><path d="m271.2,157.9v-.5l2-1.3-2-1.3v-.5h3.4v.7h-2l1.4,1v.2l-1.4,1h2v.7h-3.4Z"/><path d="m273.9,151.7v1.2l.7.3v.7l-3.4-1.3v-.6l3.4-1.3v.7l-.7.3Zm-.6,1v-.8l-1.1.4,1.1.4Z"/><path d="m271.2,147.4h3.4v.5l-2.1,1.8h2.1v.7h-3.4v-.4l2.1-1.8h-2.1v-.8Z"/><path d="m274.1,145.8l-.5-.4c.3-.2.5-.6.5-.9s-.2-.5-.4-.5-.3.1-.4.3-.2.5-.3.7c-.2.3-.4.5-.9.5-.6,0-1-.5-1-1.2,0-.4.1-.8.5-1.1l.5.4c-.2.2-.3.5-.3.8s.1.4.3.4.3-.1.3-.3c.1-.2.2-.5.3-.8.2-.3.4-.6.9-.6.6,0,1,.5,1,1.3.1.6-.1,1.1-.5,1.4Z"/><path d="m272.4,140.2c.6,0,1.1.4,1.1,1.3v.5h1.2v.7h-3.4v-1.3c-.1-.9.5-1.2,1.1-1.2Zm-.1.7c-.3,0-.5.2-.5.5v.6h1v-.6c0-.4-.2-.5-.5-.5Z"/><path d="m272.9,139.9c-1,0-1.8-.8-1.8-1.8s.8-1.8,1.8-1.8,1.8.8,1.8,1.8c0,1-.8,1.8-1.8,1.8Zm0-2.9c-.6,0-1.1.5-1.1,1.1s.5,1.1,1.1,1.1,1.1-.5,1.1-1.1-.4-1.1-1.1-1.1Z"/><path d="m273.4,134.6v.4h1.3v.7h-3.4v-1.3c0-.8.5-1.2,1.1-1.2.4,0,.8.2,1,.7l1.3-.8v.8l-1.3.7Zm-.6.4v-.6c0-.4-.2-.5-.5-.5-.2,0-.5.2-.5.5v.6h1Z"/><path d="m271.9,133h-.7v-2.7h.7v1h2.8v.7h-2.8v1Z"/></g><g class="cls-9"><path d="m317.1,217.5c0,.4-.3.7-.7.7h-1v-2.3h1c.4,0,.7.3.7.6,0,.2-.1.4-.3.5.2,0,.3.2.3.5Zm-1.3-1.2v.5h.4c.2,0,.3-.1.3-.3,0-.1-.1-.2-.3-.2h-.4Zm.8,1.2c0-.2-.1-.3-.3-.3h-.5v.6h.5c.2,0,.3-.2.3-.3Z"/><path d="m317.5,215.9h1.6v.4h-1.1v.5h1v.4h-1v.5h1.1v.4h-1.6v-2.2Z"/><path d="m319.5,215.9h.5v1.8h1.2v.4h-1.6v-2.2h-.1Z"/><path d="m321.4,215.9h.5v1.8h1.2v.4h-1.6v-2.2h-.1Z"/><path d="m324.5,217.7h-.8l-.2.5h-.4l.9-2.3h.4l.9,2.3h-.5l-.3-.5Zm-.6-.4h.5l-.3-.8-.2.8Z"/></g><g class="cls-9"><path d="m313.2,219.6h1.5v.4h-1.1v.5h.9v.4h-.9v.9h-.5v-2.2h.1Z"/><path d="m316.2,221.4h-.8l-.2.5h-.5l.9-2.3h.4l.9,2.3h-.5l-.2-.5Zm-.7-.4h.5l-.3-.8-.2.8Z"/><path d="m316.9,221.5l.3-.3c.2.2.4.3.6.3s.3-.1.3-.2-.1-.2-.2-.2c-.1-.1-.3-.1-.5-.2-.2-.1-.4-.3-.4-.6,0-.4.3-.7.8-.7.3,0,.5.1.8.3l-.2.3c-.1-.1-.3-.2-.5-.2s-.3.1-.3.2.1.2.2.2c.1.1.3.1.5.2.2.1.4.3.4.6,0,.4-.3.7-.8.7s-.8-.1-1-.4Z"/><path d="m318.9,219.6h.5v.9h1v-.9h.5v2.3h-.5v-.9h-1v.9h-.5v-2.3Z"/><path d="m321.8,219.6v2.3h-.5v-2.3h.5Z"/><path d="m322.2,220.7c0-.7.5-1.2,1.2-1.2s1.2.5,1.2,1.2-.5,1.2-1.2,1.2c-.7,0-1.2-.5-1.2-1.2Zm1.9,0c0-.4-.3-.7-.7-.7s-.7.3-.7.7.3.7.7.7c.4,0,.7-.3.7-.7Z"/><path d="m326.9,219.6v2.3h-.3l-1.2-1.4v1.4h-.5v-2.3h.3l1.2,1.4v-1.4h.5Z"/></g><g class="cls-9"><path d="m320.5,246.5l-.9,2.3h-.4l-1-2.3h.5l.6,1.6.6-1.6h.6Z"/><path d="m321.2,246.5v2.3h-.5v-2.3h.5Z"/><path d="m321.5,246.9v-.4h1.8v.4h-.7v1.8h-.5v-1.8h-.6Z"/><path d="m324.6,248.3h-.8l-.2.5h-.5l.9-2.3h.4l.9,2.3h-.5l-.2-.5Zm-.7-.4h.5l-.3-.8-.2.8Z"/><path d="m325.5,246.5h.3l.9,1.3.9-1.3h.3v2.3h-.5v-1.3l-.7,1h-.2l-.7-1v1.3h-.5v-2.3h.2Z"/><path d="m328.9,246.5v2.3h-.5v-2.3h.5Z"/><path d="m329.9,247.6l-.7-1.1h.5l.4.8.5-.8h.5l-.7,1.1.7,1.2h-.5l-.5-.8-.5.8h-.5l.8-1.2Z"/></g><g class="cls-9"><path d="m320.9,264.8c-.4,0-.7-.3-.7-.7,0-.3.1-.5.3-.6l.2.2c-.1.1-.2.2-.2.4,0,.3.2.5.5.5s.5-.2.5-.4-.1-.3-.2-.4l.2-.2c.2.1.3.4.3.6-.2.3-.5.6-.9.6Z"/><path d="m320.9,263.4c-.4,0-.7-.3-.7-.7s.3-.7.7-.7.7.3.7.7c0,.3-.3.7-.7.7Zm0-1.2c-.3,0-.5.2-.5.4s.2.4.5.4.4-.2.4-.4-.2-.4-.4-.4Z"/><path d="m321.8,260.2v.3c0,.2-.1.4-.3.5,0,.4-.3.7-.7.7s-.7-.3-.7-.7.3-.7.7-.7c.3,0,.6.2.7.4q.1-.1.1-.2v-.2l.2-.1Zm-.5.8c0-.2-.2-.4-.5-.4s-.5.2-.5.4.2.4.5.4.5-.2.5-.4Z"/><path d="m321,260.1h-.9v-.3h.9c.2,0,.3-.1.3-.3s-.1-.3-.3-.3h-.9v-.3h.9c.4,0,.5.3.5.5.1.4-.1.7-.5.7Z"/><path d="m320.2,258.7v-1h.3v.7h.3v-.6h.3v.6h.3v-.7h.3v1h-1.5Z"/><path d="m320.4,257.6h-.3v-1.1h.3v.4h1.1v.3h-1.1v.4Z"/><path d="m320.4,256.4h-.3v-1.1h.3v.4h1.1v.3h-1.1v.4Z"/><path d="m320.2,255.2v-1h.3v.7h.3v-.6h.3v.6h.3v-.7h.3v1h-1.5Z"/></g><g><path class="cls-25" d="m365.6,258.5c-.4.4-.5.6-.5.8,0,.5.6.9,1.4,1.3-.3-.2-.5-.5-.7-.7-.1-.2-.1-.3,0-.4l.2-.2c.6-.5.6-1,.1-1.8.2.8-.1,1.3-.6,1.9-.1-.2-.1-.3,0-.6,0,0,.1-.2.1-.3h0Z"/><path class="cls-25" d="m367.9,259.7c0-.2.1-.3.3-.4.1-.1.3-.2.5-.2s.3.1.4.2.1.3.1.4c0,.2-.1.3-.3.4-.1.1-.3.2-.5.2s-.3-.1-.4-.2c-.1-.1-.1-.2-.1-.4h0Z"/><path class="cls-25" d="m366.7,258.1c.1.4,0,.9-.4,1.4-.2.3-.1.6.1.8-.1-.4.1-.7.4-1l.1-.4h.3c.1-.1-.1-.4-.5-.8Z"/><path class="cls-25" d="m369.8,259.6h.3l.1-.1v-.1h-.3l-.1.2Zm-3,.7l.2-1.2h.9l-.1.3h-.5v.2h.4l-.1.3h-.4l-.1.4h-.3Zm2.4,0l.2-1.2h.6c.2,0,.3,0,.4.1s.1.1.1.3q0,.1-.1.2s-.1.1-.2.1q.1,0,.1.1v.4h0v.1h-.4v-.1h0v-.2h-.3l-.1.4-.3-.2h0Zm1.4,0l.2-1.2h.4l.3.6.1-.6h.4l-.2,1.2h-.4l-.3-.6-.1.6h-.4Zm1.4,0l.2-1.2h1l-.1.3h-.6v.2h.5l-.1.3h-.5v.2h.6l-.1.3-.9-.1h0Zm1.5,0l.2-.9h-.4l.1-.3h1.1l-.1.3h-.3l-.2.9h-.4Zm1.2,0l.2-.9h-.4l.1-.3h1.1l-.1.3h-.3l-.2.9h-.4Zm.9,0l.2-1.2h.4l-.2,1.2h-.4Z"/></g><path class="cls-21" d="m100.82,295.11l.9-1.4c.5-.8,1.4-1.2,2.3-1.2h14.8c.9,0,1.8.5,2.3,1.2l.9,1.4c.5-.1.9-.1,1.4-.3l5.6-1.3v-4.4c-.2.1-.4.1-.6.1-1.1.2-2,.3-3.2.3-.6,0-1.5-.1-2.3-.2-1-.2-1.8-.4-2.1-.9-1.6.6-3.4.8-5.2.6-2.3-.3-3.8-.5-4.4-.5s-2.1.2-4.4.5c-1.8.3-3.6,0-5.3-.7h-.1c-.6.3-1.2.6-2,.7-1.1.2-2,.3-3.2.3-.6,0-1.5-.1-2.3-.2-.2,0-.4-.1-.5-.1v4.2l5.6,1.3c.9.4,1.3.5,1.8.6Zm2.1.1h17l-.3-.5c-.2-.3-.5-.4-.8-.4h-14.7c-.3,0-.6.2-.8.4l-.4.5Zm-9.1-7.8c.2.1.5.1.8.2.6.1,1.5.2,2,.2,1,0,1.9-.1,2.7-.3h.1c-2.1-.9-4-1.4-5.6-1.5v1.4Zm-1.9.4h0v-1.7c0-.6.2-1.3.5-1.8l1.8-3.2-3.4-.6h0c-.1,0-.2,0-.2-.1-.4-.2-.5-.6-.3-1l.3-.5c.1-.2.3-.4.6-.5h0l2.5-.6c.5-.1,1,.2,1.1.6h0l.3.9,2.6-7.1c.7-1.8,2.4-3.1,4.4-3.1h19c2,0,3.7,1.2,4.4,3.1l2.5,6.9.2-.7c.1-.5.6-.8,1.1-.7l2.6.6c.3.1.5.2.6.5l.3.6c.2.4.1.8-.3,1-.1,0-.2.1-.2.1l-3.4.5,1.8,3.2c.3.6.5,1.2.5,1.8v11c0,1.5-1.2,2.8-2.8,2.8h-4.6c-1.5,0-2.8-1.2-2.8-2.8h-18.6c0,1.5-1.2,2.8-2.8,2.8h-4.6c-1.5,0-2.8-1.2-2.8-2.8v-9.2h-.3Zm37.2-.6v-1.3c-1.7.2-3.7.7-5.9,1.6h.2c.6.1,1.5.2,2,.2,1,0,1.9-.1,2.7-.3.4,0,.7-.1,1-.2Zm-34.6-3c2.2.3,4.7,1.1,7.4,2.4,1.5.7,3.2,1,4.8.7,2.4-.3,3.9-.5,4.6-.5s2.3.2,4.6.5c1.6.2,3.3,0,4.8-.7,2.7-1.3,5.2-2.1,7.4-2.4l-1.6-2.8-4.2.7c-.6.1-1.1.1-1.7.1h-18.9c-.6,0-1.1,0-1.7-.1l-4.2-.7-1.3,2.8Zm28.1,12.7v.2c0,.5.4.9.9.9h4.6c.5,0,.9-.4.9-.9v-1.6l-5.2,1.2c-.4,0-.8.1-1.2.2Zm-22.3,0c-.4-.1-.9-.1-1.3-.2l-5.2-1.2v1.6c0,.5.4.9.9.9h4.6c.5,0,.9-.4.9-.9.1-.1.1-.2.1-.2Zm23.2-24c-.4-1.1-1.4-1.8-2.6-1.8h-19c-1.2,0-2.2.7-2.6,1.8l-2.4,6.7,3.7.6c.5.1.9.1,1.4.1h18.9c.5,0,.9,0,1.4-.1l3.7-.6-2.5-6.7Z"/><g><path d="m382.6,337.4h-4.9c-.5,0-.7-.2-.7-.7v-.1q0-1.3,1.3-1.5c.6-.1.9-.4.7-1-.4-1.2-.7-2.4-1.2-3.6,0-.1-.3-.3-.4-.3h-7.5c-.1,0-.4.2-.4.3-.5,1.1-.9,2.1-1.3,3.2-.3.9-.1,1.3.9,1.4h1.1c.6.4.2,1.1.3,1.7.1.3-.2.5-.5.5h-6.7c-.4,0-.6-.2-.6-.6v-.1c0-.4-.1-1,.1-1.3.2-.2.8-.2,1.2-.3.7-.1,1.1-.5,1.3-1.2,1.9-4.6,3.8-9.2,5.7-13.8,1-2.4,2.1-4.9,3.1-7.3.2-.5.5-.7,1-.6h2.2c.5,0,.8.2.9.7,2,5.9,4.1,11.8,6.2,17.6.4,1.2.8,2.3,1.2,3.5.3.9.7,1.2,1.7,1.2q.8,0,.8.8c0,1.5.1,1.3-1.3,1.3-1.4.2-2.8.2-4.2.2Zm-8.3-18.7c-1.3,3.3-2.6,6.5-3.9,9.7h6.8c-.9-3.3-1.9-6.4-2.9-9.7Z"/><path d="m358.7,333.8v3c0,.4-.2.6-.6.6h-1.1c-.2,0-.4-.1-.5-.3-.3-.4-.5-.4-.9-.3-1.3.3-2.7.6-4,.7-5.8.4-10.1-2.6-11.7-8.2-1.1-3.9-.9-7.7.9-11.3,2.1-4.3,6.4-6.2,10.9-5.8,1.1.1,2.2.4,3.2.9.7.3,1,.2,1.4-.4.1-.2.4-.3.6-.3.4-.1.8,0,1.1,0,.4,0,.5.2.5.5v6c0,.4-.2.6-.6.6q-1.5.1-1.8-1.4c-.3-1.4-.9-2.7-2.3-3.3-2.4-1.1-4.6-.6-6,1.7-.9,1.5-1.3,3.1-1.5,4.8-.4,3.4-.3,6.7.6,10,.3.9.7,1.7,1.2,2.5,1.6,2.4,6.8,2.2,7.8-1.2.2-.6.4-1.3.5-1.9.1-.3.2-.5.6-.5,2,0,1.6-.3,1.6,1.6.1.7.1,1.3.1,2Z"/><path d="m362.6,323.5c.4.6.8,1.2,1.3,2,.3-.7.6-1.3.9-1.9.1-.3.3-.4.6-.4h2.2c-.2.5-.2,1.1-.9,1.1-.2,0-.3.2-.5.4-.5.7-.9,1.3-1.4,2.1.4.6,1.1.7,1.8.7-.1.9-.2,1-1.1,1-.7,0-1.4-.1-2-.6-1,.7-2.1.9-3.3.7-1.3-.2-2.2-1-2.4-2.1-.2-1,.3-2,1.4-2.7.3-.2.6-.3.7-.4-.1-.6-.4-1.2-.4-1.8,0-.5.3-1,.6-1.4.9-1,2.8-1.1,3.8-.3,1,.7,1.1,2.1.1,2.9-.5.1-.9.4-1.4.7Zm-.1,3.3c-.7-.9-1.3-1.8-2-2.7-.7.5-1,1.2-.9,2,.1.6.4,1.1,1,1.3.8.2,1.4.1,1.9-.6Zm-.8-4.2c.8-.4,1.1-.9,1.1-1.5s-.3-1-.8-1-.9.4-.8.9c.1.5.4,1,.5,1.6Z"/></g><g><g><path d="m356.9,21.4v.6c0,.1.1.2.2.1.3-.1.5-.3.5-.6,0-.2.1-.2.3-.3.6,0,1.2-.2,1.8-.4,0,0,.1-.1.1,0v.1c-.2.6-.4,1.3-.5,1.9s0,1.1.1,1.7c0,.2,0,.3-.2.2-.7-.1-1.3,0-1.9.1-1.6.3-2.4-1-2.5-2,0-.5.2-1,.6-1.4.6-.7,1.3-1.1,2.1-1.5.1,0,.2-.1.2,0,.1.2,0,.3-.1.4-.2.1-.4.2-.6.2-.1,0-.2.1-.2.3.1.2.1.4.1.6h0Z"/><path d="m359.1,26.5c-.2,0-.3-.1-.4-.1-.3,0-.5,0-.7.1-.7.3-1.4.5-2.2.5-1.6,0-2.8-.9-3.3-2.4-.2-.7-.3-1.4-.4-2.1,0-.6,0-1.2.1-1.8,0-.2.1-.2.2-.1.4.2.8.4,1.2.5.1.1.2.1.1.3-.2.6-.3,1.3-.3,2,0,1.2.9,2.4,2,2.7.5.2,1,.1,1.5,0,.4,0,.8-.1,1.2-.1.4.1.7.2,1,.5Z"/><path d="m353.5,23v-.4c0-.1.1-.1.1-.1.3.2.6.2.9.3q.1,0,.2.1c.1.7.5,1.3,1.1,1.7q.1.1,0,.2c-.2.3-.3.5-.3.9,0,.1-.1.1-.2.1-.4-.1-.8-.4-1.1-.7-.5-.6-.7-1.2-.7-2.1Z"/><path d="m361.3,15.3l2,.1-1.8,1.8h1.7s0-.1.1-.2h.1v.8h-.1v-.2h-1.5c-.3,0-.8-.1-.9.3v-.6l1.8-1.6h-1.4c-.2,0-.3,0-.3.2v-.7c-.1.1.1.1.3.1Z"/><path d="m363.2,24.1h0l.1.8h-.1v-.2h-.2c-.5.2-.9.3-1.4.5-.1,0-.1.1-.2.1h0c.4.2.8.3,1.2.5.1,0,.2.1.4.1.1,0,.2.1.2,0h0v-.2h.1v.8h-.1v-.2c-.3-.2-.5-.3-.8-.4-.5-.2-1-.4-1.4-.6,0,0-.1,0-.1-.1,0,0-.1,0-.1-.1s.1-.1.1-.1c.3-.1.6-.2,1-.4.4-.1.8-.3,1.1-.4l.2-.1h0c0,.1.1.1.1,0q-.1.1-.1,0Z"/><path d="m360.8,27.2c-.1.4,0,.7,0,1.1,0-.2.2-.2.3-.2h2c0,.1.1.1.1.2h.1v-.8h-.1v.2h-.9c-.1,0-.2,0-.2-.2,0-.1,0-.3-.1-.4-.1-.3-.4-.5-.8-.5-.1.1-.4.3-.4.6Zm.7-.1c.2.1.4.3.4.6,0,.1-.1.1-.1.1h-.3s-.4,0-.4-.1c-.1-.2-.1-.4.1-.5,0-.2.2-.2.3-.1Z"/><path d="m362.8,29.9c.2-.1.3-.4.2-.6,0-.3-.3-.5-.6-.3-.1.1-.3.2-.4.3-.1.2-.3.3-.4.4-.4.2-.8,0-.9-.4v-.6c0-.2-.1-.2-.1-.2h.6c-.3.1-.2.3-.2.5.1.3.3.4.5.2.2-.1.4-.4.6-.5.1-.1.3-.3.5-.3.3-.1.7.2.7.5v.6c0,.1,0,.2.1.3,0,.1-.4.1-.6.1Z"/><path d="m360.7,20.1h.5c-.1,0-.2.2-.2.3v.4c0,.1,0,.2.2.2h1.9v-.2h.1v.8h-.1v-.2h-2q-.2,0-.2.2v.5h0q0,.1.1.1h0s.1,0,.1.1h-.5c.1,0,.1-.1.1-.2v-1.6c.1-.3.1-.4,0-.4Z"/><circle cx="362.1" cy="25.4" r=".1"/><circle cx="362.1" cy="19.1" r=".1"/><path d="m363.2,17.8h0l.1.8h-.1v-.2h-.2c-.5.2-.9.3-1.4.5-.1,0-.1.1-.2.1h0c.4.2.8.3,1.2.5.1,0,.2.1.4.1.1,0,.2.1.2,0h0v-.2h.1v.8h-.1v-.2c-.3-.2-.5-.3-.8-.4-.5-.2-1-.4-1.4-.6,0,0-.1,0-.1-.1,0,0-.1,0-.1-.1s.1-.1.1-.1c.3-.1.6-.2,1-.4.4-.1.8-.3,1.1-.4l.2-.1h0c0,.1.1.1.1,0q-.1.1-.1,0Z"/></g><path d="m363.2,22h0l.1.6h-.1c-.1.1-.2.1-.2.2-.3.2-.6.4-.8.6-.2.1-.3.1-.3-.1v-.1c-.1-.3-.3-.4-.5-.3s-.3.3-.3.5c0,.1.1.1.2.1h2v-.2h.1v.8h-.1c0-.1,0-.2-.1-.2h-2c-.1,0-.2,0-.3.2,0-.4-.1-.7,0-1.1s.7-.5,1-.1v.1q.2.3.5.1c.2-.1.4-.3.6-.4.1,0,.1-.1.2-.1h0c.1,0,.1-.1.1-.2-.1-.3-.1-.4-.1-.4Z"/></g><g><path d="m392.7,68.6c0,.1-.1.2-.1.3l-1.1,1.1c-.1.1-.3.1-.5,0l-1.2-1.2c-.1-.1-.1-.2-.1-.2,0-.1.1-.2.1-.2l.6-.6v-.3h.2v-1.6l.7-.7.7.7v1.6h.2v.3l.6.6c-.1.1-.1.2-.1.2Z"/><path d="m390.7,66v1.7h-.2v.3l-.7.7c-.1.1-.1.2,0,.2l1.2,1.2c.1.1.2.1.3,0l1.1-1.1c.1-.1.1-.2,0-.3l-.7-.7v-.2h-.2v-1.7l-.5-.5-.3.4Z"/><polygon class="cls-29" points="390.9 68.4 390.6 68.2 390.1 68.6 391.2 69.8 391.4 69.6 391.4 68.4 391.8 68.6 391.5 68.9 391.8 69.2 392.3 68.6 391.4 67.8 391 67.8 391 69 390.7 68.6 390.9 68.4"/><polygon class="cls-29" points="391 67.8 390.9 67.8 390.9 67.5 391.5 67.5 391.5 67.8 391.4 67.8 391.2 67.5 391 67.8"/><polygon points="391 67.8 391.2 67.5 391.4 67.8 391 67.8"/><polygon class="cls-29" points="390.9 67.5 391.5 67.5 391.5 67.1 391.3 67.1 391.3 67.3 390.9 67.3 390.9 67.5"/><polygon class="cls-29" points="390.9 67 391.5 67 391.5 66.5 391.3 66.5 391.3 66.7 391.3 66.7 391.3 66.8 391.1 66.8 391.1 66.7 391.2 66.7 391.2 66.5 390.9 66.5 390.9 67"/><polygon class="cls-29" points="391.5 66.4 391.5 66.2 391.3 66.1 391.5 66.1 391.5 65.9 390.9 66 390.9 66.2 391.5 66.4"/></g><g><path class="cls-19" d="m373,15.3h-.2l-.1.1v.2l.1.1h.2l.1-.1v-.2l-.1-.1Zm0,.2h0l-.1.1v.1h.1v.1h-.3v-.2h.1v.1h0q.1-.2.2-.2h0Z"/><path class="cls-19" d="m372.8,15.5h0s0,.1,0,0v.2h.1l-.1-.2q.1,0,0,0h0Z"/><path d="m373,15.3h-.2l-.1.1v.4c0,.1.1.1.1.1h.2l.1-.1v-.4q0-.1-.1-.1Zm.1.3v.1l-.1.1h-.2l-.1-.1v-.2l.1-.1h.2l.1.1v.1Z"/><path d="m372.9,15.5h0l-.1-.1h0v.2h.3v-.1h-.2q0,.1,0,0c0,.1,0,0,0,0h.1v-.1l-.1.1h0Zm0,.1h0c-.1,0-.1-.1,0,0q-.1-.1,0,0-.1-.1,0,0-.1-.1,0,0,0-.1,0,0Z"/><path d="m372.9,24h0v.8h0l1.7,1v-.4l-.5-.3v-.9l.5-.3-.3-.7-1.4.8Zm1,.9l-.6-.3.6-.4v.7Z"/><path d="m374.5,27.1h.2v-.8h-1.4c.1.3.2.5.4.8h.8Z"/><polygon points="374.7 29.1 374.7 28.7 374.3 28.7 374.5 29.1 374.7 29.1"/><path d="m374.7,28h0c-.3-.3-.7-.6-1-.8l.5,1.1s.3-.2.5-.3Z"/><path d="m373.6,19.6h0c-.2.1-.4.3-.5.4h0l.2.4h0q0-.1.1-.1h0c.1-.2.2-.3.5-.3s.4.1.5.3h0c.1.1.1.3.1.6v.3h-.9l.2.5h0l.1.3h.8v-1.2c0-.4-.1-.9-.3-1.2-.1-.2-.3-.4-.6-.4q-.1.4-.2.4Z"/><path d="m373,20.4c-.1.2-.1.4-.1.6v1.2h1l-.1-.3h0l-.2-.5h-.4v-.6h0l-.2-.4h0Z"/><polygon points="374.6 23.8 374.7 23.8 374.7 23 374.3 23.2 374.6 23.8"/><polygon points="373.8 33.6 374.1 33.6 374.1 31.6 373.8 31 373.8 33.6"/><polygon points="374.3 33.6 374.7 33.6 374.7 32.8 374.3 32.1 374.3 33.6"/><g><path d="m373.7,16.4l.3.6c.3,0,.6.2.6.6,0,.2,0,.3-.1.4h0v.1l.1.3c.1-.2.1-.5.1-.8,0-.6-.2-1.5-.9-1.5h-.3l.2.3Z"/><path d="m373.6,16.1q-.1,0,0,0-.1.1,0,0-.1.1,0,0-.1.1,0,0c-.1,0-.1.1-.1.1h0v.1h0v.1h0v.1h0v.1h0v.1h0v.1h0v.1h0v.1h0v.1c0,.3,0,.6.1.9s.3.6.7.6h0l-.2-.4h0c-.4,0-.7-.2-.7-.7h.1l-.3-.6.4-.8h0Z"/></g><polygon points="373.6 27.2 373.5 27.1 373.6 27.1 373.3 26.3 372.9 26.3 372.9 27.1 373.9 27.7 372.9 28.3 372.9 29.1 374.5 29.1 374.3 28.7 373.6 28.7 374.2 28.3 373.6 27.2"/><polygon points="374.1 31.6 374.1 29.7 373.8 29.7 373.8 31 374.1 31.6"/><polygon points="374.7 32.8 374.7 29.7 374.3 29.7 374.3 32.1 374.7 32.8"/><polygon points="373.8 15.4 374.1 15.4 374.1 13.5 373.8 12.8 373.8 15.4"/><polygon points="374.3 15.4 374.7 15.4 374.7 14.6 374.3 14 374.3 15.4"/><polygon points="373.8 12.8 374.1 13.5 374.1 11.6 373.8 11.6 373.8 12.8"/><polygon points="374.7 14.6 374.7 11.6 374.3 11.6 374.3 14 374.7 14.6"/></g><g><g><path class="cls-36" d="m293.6,163.8c.2,0,.4.5-.1,1-1,0-1.8-.3-1.9-1.1,0-.1.1-.3.1-.4v-.4c0-.1.1-.2.1-.3s0-.1.1-.2c.2-.4.4-.6.9-.7.8-.1,3.4.1,4.1,0,.1.3.1,1.2-.1,1-.2-.1-.3-.2-.5-.1v1.6c-.1,1.4-2.5,1.1-1.9-1.6h-1.3c-1.1,0-1.8,1.2.5,1.2Z"/><g><path class="cls-22" d="m294.9,162.5h.6c.1,0,.2.1.2.2v1c0,.1-.2,1-.9-.3-.1-.1-.1-.3-.1-.5v-.3s.1-.1.2-.1Z"/><path class="cls-36" d="m295.8,163.3v.4h0c0,.1-.1.4-.3.4s-.4-.2-.7-.7c-.1-.2-.1-.3-.1-.5v-.3c0-.1.1-.3.2-.3h.6c.2,0,.3.1.3.3v.7Zm-1-.3c0,.2,0,.3.1.5.3.6.5.6.6.6s.2-.2.2-.3v-1.1c0-.1-.1-.1-.1-.1h-.6q-.1,0-.1.1v.3h-.1Z"/></g></g><g><path class="cls-36" d="m292.8,140.2c.3,0,.7.7-.1,1.4-.1.1-.4,0-.5,0-.2,0-.3,0-.5-.1-.3,0-.6-.1-.8-.2-.5-.2-.8-.5-.9-1v-.5c0-.1.1-.3.1-.4v-.5c0-.2.1-.3.2-.5,0-.1.1-.1.1-.2.2-.6.6-1,1.2-1.1,1.1-.2,5.1.1,6.1,0,.1.5.2,1.8-.2,1.5-.3-.2-.5-.3-.7-.2v2.4c-.2,2.1-3.8,1.7-2.9-2.4h-2c-1.4,0-2.4,1.9.9,1.8Z"/><path class="cls-22" d="m294.8,138.3h1c.2,0,.3.1.3.3v1.5c-.1.2-.3,1.4-1.4-.4-.1-.2-.2-.5-.2-.7v-.4c0-.2.1-.3.3-.3Z"/></g><path class="cls-36" d="m296.1,160.6c-.1.1,0-.1-.2-.1s-4-.2-4.2,0c-.1-.3-.1-1.3.2-1.2.2.2.5.3.5.1-.3-.8-.6-2.4.9-2.5h3c.1-.1.2,0,.2,0,.1.3.1.8,0,.9h-3.2c-.3,0-.6.1-.7.4,0,.2,0,.4.1.5.1.2.3.4.6.5.4.2.9.3,1.4.3s1.1,0,1.6-.1c-.1.2.2.9-.2,1.2Z"/><path class="cls-36" d="m296.4,155.9c.1-.2.1-.7,0-1,0-.1-.1-.1-.2,0-.4.2-3.2-.1-3.7-.2,0,0-.1,0-.1-.1-.3-.4-.5.5-.3,1.1,0,.1.1.1.1.1.6-.1,3.4-.1,4,.2.1,0,.2,0,.2-.1Z"/><path class="cls-36" d="m297.5,151.4c-.1-.1-.2-.1-.3-.1-2.6.6-5.7.5-5.6-1.3,0-.3,0-.6.2-.8.2-.3.8-.2,1.1-.2.5,0,1,0,1.5.1.5,0,1,.1,1.5.2.4,0,.7.1,1.1,0,.1,0,.2,0,.3-.1.1,0,.1-.1.2-.2.1-.1.1-.2.2-.3,0-.1,0-.3-.1-.4-.1-.3,0-.3.1-.5,0-.2-.1-.5-.4-.3h0c-1.4.3-2.9.1-3.4.1v-.1c1.1-.8,1.2-1.8.2-2.8v-.1h1.9c.3,0,.7,0,1,.1.2,0,.5.1.7.2.1,0,.1.1.2.1s.2-.1.2-.2.1-.2.1-.3v-1.1h0c-.1-.3-.3-.4-.6-.2h0c-.2,0-4.4,0-4.8-.1h0c-2.3.3-2.2,3.8-1.2,4.9v.1c-.2.1-1,.9-.5,3.2h-.1c-.1,0-.2,0-.3-.1-.1,0-.2-.1-.3-.2q-.1,0-.2.1t-.1.2v1.4c0,.1,0,.3.1.4.1.1.2,0,.2,0h4.9c.4,0,.8,0,1.2.1.3,0,.5,0,.8.1h.1c0-.1.1-.2.1-.2,0-.1.1-.2.1-.3v-.8c-.1-.4-.1-.5-.1-.6h0Z"/><path class="cls-22" d="m292.8,145.1c-.6,0-1,.4-1,1s.4,1,1,1,1-.4,1-1-.4-1-1-1Z"/><path class="cls-36" d="m292.9,145.5c.3,0,.5.2.5.5s-.2.5-.5.5-.5-.2-.5-.5c-.1-.2.2-.5.5-.5Z"/><path class="cls-36" d="m292.7,149.5c.3,0,.5.2.5.5s-.2.5-.5.5-.5-.2-.5-.5.2-.5.5-.5Z"/><path class="cls-36" d="m291.4,135.7l2.3-1.2h.1c.4.2,3.1,1.7,3.2,1.7s.4-.4.2-.7v-.2c.1-.2.2-.4,0-.5h-.3c-.2-.1-2-.9-2-1s2.1-1.4,2.1-1.6-.1-.4-.2-.9c0-.1,0-.3-.1-.4-.1-.1-.3.2-.4.3-.1.2-.3.3-.5.4-.3.3-.7.6-1,.8s-.6.4-.9.6h-.1c-.4-.3-2.5-1.7-2.7-1.9-.1-.1-.1-.3-.2-.3-.2,0-.3.3-.3.4-.1.2-.1.4-.1.6,0,.1,0,.3.1.4.1.1,1.8,1.2,2,1.4h0c-.4.2-.8.3-1.2.5-.1,0-.3.1-.3.2v.4c0,.1,0,.3.1.4,0,.1.1.2.1.4-.1,0,0,.2.1.2Z"/><path class="cls-36" d="m289.5,155.1s0,.1.1.1c.1.2.3.4.5.5.1.1.2.2.4.1.1,0,.1-.3.1-.4,0-.2-.1-.3-.2-.4-.1-.2-.2-.4-.3-.6-.2-.3-.3-.6-.5-.9h0c-.2-.1-.2.9-.2.9,0,.3,0,.5.1.7Z"/><path class="cls-36" d="m289.3,143.8h0c0,.2,0,.4-.1.6v1.2c0,.3,0,.5.1.8s.1.5.3.8c0,.1.2.4.3.3.2-.3-.4-3.3-.6-3.7Z"/></g><g><path d="m44.9,140.4h-.8c-.1,0-.2,0-.3-.2-.4-1.5-.8-2.9-.9-4.4-.1-1.4.2-2.7.5-4.1.1-.5.3-1,.4-1.4,0-.1.1-.2.2-.2h2c.9.1,1.7.5,2.3,1.2,1.1,1.1,1.9,2.4,2.4,3.8v.3c-.6,1.4-1.3,2.7-2.4,3.8-.7.6-1.4,1.1-2.4,1.2-.3,0-1,0-1,0Zm2.5-1.4h0c.2-.3.3-.7.4-1,.3-1,.4-2,0-3-.3-.8-1-1-1.6-.4-.5.5-.8,1.1-1.1,1.8-.1.2-.2.5-.3.8-.6-.4-.7-1.1-.9-1.7,0,1,.1,1.9.4,2.8.1.2.2.4.3.6.2.2.5.2.7,0,.4-.6.5-1.3.6-2h-.1c-.3.3-.6.6-.9.9.1-.4.9-1.1,1.3-1.2.4-.1.8,0,.9.4.1.2.2.5.2.7.1.3.1.8.1,1.3Zm-3-5.5c1-1,1.8-1.2,2.2-.6-.3.1-.6.1-.9.3-.3.2-.6.5-.9.8-.3.3-.4.6-.3,1.1.1.3.1.7.2,1,0,.1.1.1.1.2,0-.1.1-.2.1-.3.2-.6.5-1.3.9-1.8.7-.7,1.4-.7,2.1,0,.1.1.2.3.3.4-.2-.8-.4-1.5-.8-2.2-.2-.3-.4-.6-.7-.8-.2-.2-.5-.3-.7-.3-.9,0-1.8,1.2-1.6,2.2Z"/><path d="m48.1,140.4c2.2-1,3.3-2.9,4.3-5v-.3c-.6-1.3-1.3-2.6-2.3-3.6-.6-.6-1.2-1.1-2-1.4,1.6-.2,2.9.4,3.9,1.5.9,1,1.6,2.2,2.1,3.4v.3c-.5,1.3-1.2,2.5-2.2,3.6-1.1,1.2-1.9,1.5-3.8,1.5Z"/><path d="m49.4,147.2v.9c0,.1-.1.2-.1.2-.3.2-.5.4-.8.6q-.1.1-.1.2v1.3h1.1v.8h-3.1v-2.8c0-.6.3-.9.8-1s.9.1,1.2.6h.1c.1-.2.5-.5.9-.8Zm-2.5,3.2h.6v-1.8c0-.2-.1-.3-.3-.3s-.3.1-.3.3v1.8Z"/><path d="m48.7,164.8c-.1-.1-.3-.2-.4-.3,0,0-.1-.1,0-.1.4-.6.5-1.3.4-1.9h0c-.2-1.2-.5-1.2-.6,0v.1c0,.4-.1.9-.1,1.3,0,.1-.1.2-.1.4-.2.6-1,.7-1.3.2-.2-.3-.3-.7-.4-1-.1-.7,0-1.4.3-2.1,0-.1.1-.1.1-.2s.1-.1.2,0c.1.1.2.2.3.4v.2c-.2.6-.3,1.2-.2,1.8,0,.1.1.3.2.3.1.1.2-.1.2-.2.1-.4.1-.8.1-1.2,0-.3.1-.6.2-.9.3-.7,1.1-.8,1.5-.2.2.2.3.5.3.8.1.9.1,1.8-.4,2.6,0,0,0,.1-.1.1,0-.1-.1-.1-.2-.1Z"/><path d="m48.8,121.8c-.2-.2-.4-.3-.6-.5.4-.6.5-1.3.4-2,0-.1,0-.3-.1-.4,0-.1-.2-.2-.2-.2-.1,0-.2.1-.2.2-.1.2-.1.4-.1.6,0,.4-.1.8-.1,1.2,0,.1-.1.3-.1.4-.2.6-1,.7-1.3.1-.2-.3-.3-.6-.3-.9-.1-.7,0-1.4.3-2,.1-.1.1-.2.2-.3,0,0,.1,0,.1.1.3.2.5.5.3.9-.2.5-.2,1-.1,1.5q0,.1.1.2c.1.1.2.1.2,0s.1-.1.1-.2c.1-.5.1-1,.2-1.5,0-.2.1-.4.2-.5.3-.6,1-.7,1.5-.2.1.2.2.4.3.5.2.9.2,1.8-.2,2.6-.4.1-.5.2-.6.4Z"/><path d="m49.3,110.7h-3.2v-1c0-.1.1-.1.2-.2.7-.6,1.4-1.2,2.1-1.8h-2.3v-.8h3.2v1c0,.1-.1.1-.2.2-.6.5-1.3,1.1-1.9,1.6q-.1.1-.2.2h2.3v.8Z"/><path d="m46.1,154.1c0-.5.1-1,.4-1.5.6-.8,1.7-.9,2.4-.2.7.8.7,2.4,0,3.3-.6.7-1.8.6-2.4-.2-.3-.4-.4-.9-.4-1.4Zm2.6,0c0-.3-.1-.7-.3-1-.3-.5-1-.5-1.4,0s-.4,1.4,0,1.9,1.1.5,1.4-.1c.3-.2.3-.5.3-.8Z"/><path d="m49.5,113.7c0,.5-.1,1-.5,1.4-.6.8-1.7.9-2.4.1-.8-.9-.8-2.7.2-3.5.6-.6,1.6-.4,2.2.3.3.5.5,1,.5,1.7Zm-.8.3c.1-.3.1-.5,0-.8-.1-.2-.1-.4-.2-.5-.3-.5-1-.5-1.4,0s-.4,1.4,0,1.9,1.1.5,1.4,0c.1-.2.1-.4.2-.6Z"/><path d="m48.3,159.5h1.1v.8h-3.2v-2.6c0-.3.1-.5.2-.8.2-.4.6-.5,1-.4s.7.3.8.7c.1.3.1.6.1.8,0,.5,0,1,0,1.5Zm-.8,0v-1.8c0-.2-.1-.4-.3-.4-.3,0-.3.2-.3.4v1.8h.6Z"/><path d="m46.2,128v-.8c0-.1.1-.2.2-.2.6-.4,1.3-.7,1.9-1.1.1,0,.1-.1.2-.2-.7-.4-1.4-.8-2.1-1.2-.2-.1-.3-.2-.3-.5v-.6c.2.1.3.2.4.3.7.5,1.7,1,2.3,1.3.3.2.4.2.4.5.1.4-.1.7-.5.9-.7.5-1.6,1-2.5,1.6Z"/><polygon points="46.9 145.5 46.9 147 46.2 147 46.2 143.2 46.9 143.2 46.9 144.7 49.3 144.7 49.3 145.5 46.9 145.5"/><rect x="46.2" y="122.3" width="3.1" height=".8"/><rect x="46.2" y="116.5" width="3.1" height=".8"/></g><g class="cls-9"><path class="cls-16" d="m147.7,288.6l-1.6-2.7-1.6,2.7h-2.5l2.7-4.2-2.4-4h2.4l1.4,2.5,1.5-2.5h2.4l-2.6,4.1,2.6,4.1h-2.3Z"/><path class="cls-16" d="m162.9,285c0,2.1-1.6,3.7-4,3.7-2.9,0-4.3-2.4-4.3-5.4s1.5-6.1,4.8-6.1c1,0,2.1.3,3.1,1l-1,1.7c-.6-.4-1.3-.7-2-.7-1.8,0-2.7,1.7-2.8,3.4.6-.9,1.5-1.2,2.5-1.2,2.2,0,3.7,1.5,3.7,3.6Zm-2.2,0c0-1-.8-1.7-1.8-1.7s-1.8.7-1.8,1.8c0,1,.8,1.8,1.8,1.8,1.1-.1,1.8-.9,1.8-1.9Z"/><path class="cls-16" d="m171.8,285c0,2.1-1.6,3.8-4.2,3.8-1.3,0-2.6-.4-3.7-1.2l.9-1.8c.9.6,1.9,1,2.7,1,1.3,0,2-.8,2-1.7,0-1-.8-1.7-1.9-1.7-.6,0-1.3.2-1.8.7l-1.3-1,.6-5.6h5.9v2h-4.2l-.2,2.2c.4-.2.9-.3,1.5-.3,2,.1,3.7,1.5,3.7,3.6Z"/><path class="cls-16" d="m173,283c0-3.1,1.4-5.7,4.5-5.7s4.5,2.7,4.5,5.7-1.4,5.7-4.5,5.7c-3.1.1-4.5-2.6-4.5-5.7Zm6.8,0c0-2-.7-3.7-2.3-3.7s-2.3,1.6-2.3,3.7.7,3.7,2.3,3.7,2.3-1.6,2.3-3.7Z"/></g><g><path d="m396.3,247.2c.1-.2.1-.4.2-.6.1-.4.2-.8.4-1.3,0-.1.1-.1.2-.1h.7q.1,0,.2.1c.1.6.1,1.2.2,1.8,0,.4.1.8.1,1.2q0,.1-.1.1h-.5q-.1,0-.1-.1c-.1-.6-.1-1.2-.2-1.8h0c0,.1-.1.3-.1.4-.1.5-.3,1-.4,1.5q0,.1-.2.1h-.3q-.1,0-.2-.1c-.1-.5-.3-1-.4-1.5,0-.1-.1-.2-.1-.3v.4c0,.5-.1.9-.1,1.4v.2c0,.1-.1.1-.1.1h-.5q-.1,0-.1-.1c0-.3.1-.7.1-1,0-.4.1-.7.1-1.1,0-.3.1-.6.1-.9,0-.1.1-.1.1-.1h.7c.1,0,.2,0,.2.1-.3.3-.1.9.1,1.6h0Z"/><path d="m389.4,246.8v-1.5c0-.1,0-.2.2-.2h.9c.2,0,.5,0,.7.1.4.1.7.4.8.8.1.4.1.9,0,1.3-.1.5-.5.8-1,1-.2,0-.3.1-.5.1h-1q-.1,0-.1-.1v-1.5Zm.7,1h.4c.4,0,.6-.2.7-.6.1-.3.1-.5,0-.8,0-.2-.1-.3-.2-.4-.3-.3-.6-.2-.9-.2v2Z"/><path d="m399.9,248.1h0c-.3.5-.9.5-1.4.3-.4-.3-.4-1,.1-1.3.2-.1.5-.2.7-.2h.5c0-.2-.1-.3-.2-.4-.2-.1-.3-.1-.5,0-.1,0-.3.1-.4.1s-.1,0-.1-.1v-.4q0-.1.1-.1c.4-.1.9-.2,1.3-.1.4.1.7.4.7.8v1.4q0,.1-.1.1h-.4q-.1,0-.1-.2c-.2.2-.2.1-.2.1h0Zm0-.7h-.2c-.2,0-.3,0-.5.1-.1.1-.2.2-.2.3s.1.2.2.2c.4,0,.7-.3.7-.6Z"/><path d="m402.1,246.6c.1-.2.2-.3.4-.5q.1-.1.2-.1h.6v.1c-.2.3-.5.7-.7,1v.1c.2.3.5.7.7,1v.1q0,.1-.1.1h-.6s-.1,0-.1-.1c-.1-.2-.3-.4-.4-.5h0s0,.1-.1.1c-.1.2-.2.3-.4.5,0,.1-.1.1-.2.1h-.6v-.1c.3-.3.5-.7.8-1v-.1c-.2-.3-.5-.7-.7-1v-.1h.6q.1,0,.2.1c.1,0,.3.2.4.3Z"/><path d="m393,246.3s.1-.1,0,0c.3-.4.6-.4.9-.3.1,0,.1.1.1.1,0,.1-.1.3-.1.4s-.1.1-.1.1c-.4-.1-.7.1-.7.5v1.1q0,.1-.1.1h-.4c-.1,0-.2,0-.2-.2v-2.1q0-.1.1-.1h.4q.1,0,.1.1c0,.2,0,.3,0,.3h0Z"/><path d="m393.5,248.1c0-.2.1-.4.3-.4s.3.2.3.4-.1.4-.3.4-.3-.2-.3-.4Z"/><path d="m403.6,244.7v.5h-.5c-.3,0-.3.5,0,.5h.5v.5c0,.3.5.3.5,0v-.5h.5c.3,0,.3-.5,0-.5h-.5v-.5c.1-.2-.5-.3-.5,0Z"/></g><g><path class="cls-26" d="m312.3,67.8l.3-.4c.2.2.4.4.7.4.2,0,.4-.1.4-.3,0-.1-.1-.2-.2-.3-.2-.1-.4-.1-.6-.2s-.4-.3-.4-.7.4-.8.9-.8c.3,0,.6.1.9.4l-.3.4c-.2-.2-.4-.2-.6-.2s-.3.1-.3.3c0,.1.1.2.2.3.1.1.4.2.6.3.3.1.4.3.4.7,0,.5-.4.8-1,.8-.4-.2-.8-.3-1-.7Z"/><path class="cls-26" d="m314.6,65.7h.5v1h1.1v-1h.5v2.6h-.5v-1.1h-1.1v1.1h-.5v-2.6Z"/><path class="cls-26" d="m318.8,67.7h-.9l-.2.6h-.6l1-2.6h.4l1,2.6h-.6l-.1-.6Zm-.8-.5h.6l-.3-.9-.3.9Z"/><path class="cls-26" d="m322.1,65.7v2.6h-.4l-1.4-1.6v1.6h-.5v-2.6h.3l1.4,1.6v-1.6h.6Z"/><path class="cls-26" d="m322.5,67c0-.8.6-1.4,1.4-1.4.4,0,.8.2,1.1.4l-.3.4c-.2-.2-.4-.3-.7-.3-.5,0-.8.4-.8.8,0,.5.3.8.8.8.3,0,.5-.1.7-.3v-.4h-.7v-.5h1.2v1.3c-.3.3-.7.5-1.2.5-.9,0-1.5-.6-1.5-1.3Z"/><path class="cls-26" d="m325.6,65.7h.5v1h1.1v-1h.5v2.6h-.5v-1.1h-1.1v1.1h-.5v-2.6Z"/><path class="cls-26" d="m329.7,67.7h-.9l-.2.6h-.6l1-2.6h.4l1,2.6h-.6l-.1-.6Zm-.8-.5h.6l-.3-.9-.3.9Z"/><path class="cls-26" d="m331.3,65.7v2.6h-.5v-2.6h.5Z"/></g><g><path class="cls-26" d="m356.6,208.2l-.3.4v.6h-.5v-2.4h.5v1.2l.9-1.2h.6l-.9,1.1,1,1.3h-.6l-.7-1Z"/><path class="cls-26" d="m358.8,208.3h-.3v.9h-.4v-2.4h.9c.6,0,.8.4.8.8,0,.3-.1.6-.5.7l.6,1h-.6l-.5-1Zm-.2-.4h.4c.3,0,.4-.2.4-.3,0-.2-.1-.3-.3-.3h-.4v.6h-.1Z"/><path class="cls-26" d="m360.8,206.8v2.4h-.5v-2.4h.5Z"/><path class="cls-26" d="m361.1,208.8l.3-.3c.2.2.4.3.6.3s.4-.1.4-.3c0-.1-.1-.2-.2-.3-.2-.1-.4-.1-.5-.2-.2-.1-.4-.3-.4-.6,0-.4.3-.7.8-.7.3,0,.6.1.8.3l-.3.4c-.1-.2-.4-.2-.5-.2-.2,0-.3.1-.3.2s.1.2.2.2c.1.1.4.2.5.2.2.1.4.3.4.6,0,.4-.4.7-.9.7-.3.1-.7,0-.9-.3Z"/><path class="cls-26" d="m363.1,207.2v-.4h1.9v.5h-.7v2h-.5v-2h-.7v-.1Z"/><path class="cls-26" d="m366.4,208.7h-.9l-.2.5h-.5l.9-2.4h.4l.9,2.4h-.5l-.1-.5Zm-.7-.5h.6l-.3-.8-.3.8Z"/><path class="cls-26" d="m367.4,206.8h.5v2h1.2v.5h-1.7v-2.5Z"/><path class="cls-26" d="m369.4,206.8h.5v2h1.2v.5h-1.7v-2.5Z"/><path class="cls-26" d="m358.2,212.4c0-.7.6-1.3,1.3-1.3s1.3.6,1.3,1.3-.6,1.3-1.3,1.3c-.8-.1-1.3-.6-1.3-1.3Zm2,0c0-.5-.3-.8-.8-.8-.4,0-.8.3-.8.8,0,.4.3.8.8.8.5-.1.8-.4.8-.8Z"/><path class="cls-26" d="m362.9,211.9c0,.4-.3.8-.9.8h-.4v.8h-.5v-2.4h.9c.7,0,.9.4.9.8Zm-.5,0c0-.2-.1-.3-.4-.3h-.4v.7h.4c.3,0,.4-.2.4-.4Z"/><path class="cls-26" d="m363,211.6v-.5h1.9v.5h-.7v2h-.5v-2h-.7Z"/><path class="cls-26" d="m365.7,211.1v2.4h-.5v-2.4h.5Z"/><path class="cls-26" d="m366.1,212.4c0-.8.6-1.3,1.3-1.3.5,0,.8.2,1.1.5l-.3.3c-.2-.2-.4-.4-.7-.4-.4,0-.8.3-.8.8s.3.8.8.8c.3,0,.5-.1.7-.4l.3.3c-.2.3-.6.5-1.1.5-.7.1-1.3-.4-1.3-1.1Z"/></g><path id="dm" class="cls-26" d="m331,292.6c-2,0-3.2,2.8-3.2,4.8,0,.8.2,1.2.6,1.2,1.1,0,3.1-3.3,3.4-5.3l.1-.5c-.2-.1-.5-.2-.9-.2m2.4,8.5h-2.9c.1-.8.4-1.6.8-2.8h0c-.9,1.5-2.2,3-3.9,3s-2.5-1.1-2.5-3.4c0-4,2.1-7.7,6.8-7.7.3,0,.5,0,.9.1l.5-2.5h0c-.5-.1-1.2-.2-1.8-.2l.4-2c1.5-.1,3-.3,4.8-.2l-3.1,15.7Zm17.6,0h-2.9l1.1-6.6c.2-1.1.1-1.5-.4-1.5-1,0-2.8,2.6-3.2,5.2l-.5,2.9h-2.9l1.1-6.6c.2-1.1.1-1.5-.4-1.5-1,0-2.7,2.6-3.2,5.1l-.6,2.9h-2.9l1.6-8.2h0c-.5-.1-1.2-.2-1.8-.2l.4-2c1.5-.2,3-.3,4.6-.2-.2.8-.5,1.8-.8,2.7h0c1-1.7,2-2.9,3.9-2.9,1.3,0,2.1.7,2.1,2.1,0,.3-.1.5-.2,1h0c1-1.8,2.2-3.1,4.1-3.1,2.1,0,2.5,1.5,2.1,3.5l-1.2,7.4Z"/><g><path class="cls-26" d="m322.2,84.4h-.1v.4h-.2v-1.1h.4c.3,0,.4.2.4.3s-.1.3-.2.3l.3.4h-.3l-.3-.3Zm-.2-.2h.2c.1,0,.2-.1.2-.1,0-.1-.1-.1-.2-.1h-.2v.2Z"/><path class="cls-26" d="m322.8,83.7h.7v.2h-.5v.2h.5v.2h-.5v.2h.5v.3h-.7v-1.1Z"/><path class="cls-26" d="m323.8,83.7h.7v.2h-.5v.2h.4v.2h-.4v.5h-.2v-1.1Z"/><path class="cls-26" d="m324.6,84.4v-.7h.2v.7c0,.1.1.2.2.2s.2-.1.2-.2v-.7h.2v.7c0,.3-.2.4-.4.4s-.4-.1-.4-.4Z"/><path class="cls-26" d="m325.7,84.3c0-.3.3-.6.6-.6.2,0,.3.1.4.2l-.1.2c-.1-.1-.2-.1-.3-.1-.2,0-.4.2-.4.4s.1.4.4.4c.1,0,.2-.1.3-.1v-.1h-.3v-.2h.5v.5c-.1.1-.3.2-.5.2-.4-.3-.6-.5-.6-.8Z"/><path class="cls-26" d="m327.1,83.7v1.1h-.2v-1.1h.2Z"/><path class="cls-26" d="m327.4,84.4v-.7h.2v.7c0,.1.1.2.2.2s.2-.1.2-.2v-.7h.2v.7c0,.3-.2.4-.4.4s-.4-.1-.4-.4Z"/><path class="cls-26" d="m328.5,83.7h.2v.9h.6v.2h-.8v-1.1h0Z"/><path class="cls-26" d="m319.8,85.8c0-.3.3-.6.6-.6.2,0,.3.1.4.2l-.1.2c-.1-.1-.2-.1-.3-.1-.2,0-.4.2-.4.4s.1.4.4.4c.1,0,.2-.1.3-.1v-.1h-.3v-.2h.5v.5c-.1.1-.3.2-.5.2-.4-.2-.6-.5-.6-.8Z"/><path class="cls-26" d="m321,86v-.7h.2v.7c0,.1.1.2.2.2s.2-.1.2-.2v-.7h.2v.7c0,.3-.2.4-.4.4s-.4-.2-.4-.4Z"/><path class="cls-26" d="m322.5,86h-.1v.4h-.3v-1.1h.4c.3,0,.4.2.4.3s-.1.3-.2.3l.3.4h-.3l-.2-.3Zm-.2-.2h.2c.1,0,.2-.1.2-.1,0-.1-.1-.1-.2-.1h-.2v.2Z"/><path class="cls-26" d="m323.1,85.3h.1l.4.6.4-.6h.1v1.1h0v-.6l-.3.5h-.1l-.3-.5v.6h-.3v-1.1Z"/><path class="cls-26" d="m325.1,86.1h-.4l-.1.2h-.2l.4-1.1h.2l.4,1.1h-.2l-.1-.2Zm-.3-.2h.3l-.1-.4-.2.4Z"/><path class="cls-26" d="m326.5,85.3v1.1h-.1l-.6-.7v.7h-.2v-1.1h.1l.6.7v-.7h.2Z"/><path class="cls-26" d="m326.7,86.2l.5-.7h-.5v-.2h.8v.2l-.5.7h.5v.2h-.9v-.2h.1Z"/><path class="cls-26" d="m327.9,85.3v1.1h-.2v-1.1h.2Z"/><path class="cls-26" d="m328.2,85.3h.2v.9h.6v.2h-.8v-1.1h0Z"/><path class="cls-26" d="m329,85.8c0-.3.2-.6.6-.6.3,0,.6.3.6.6s-.2.6-.6.6-.6-.3-.6-.6Zm.9,0c0-.2-.2-.4-.3-.4-.2,0-.3.1-.3.4,0,.2.1.3.3.3s.3-.1.3-.3Z"/><path class="cls-26" d="m330.6,86h-.1v.4h-.2v-1.1h.4c.3,0,.4.2.4.3s-.1.3-.2.3l.3.4h-.3l-.3-.3Zm-.1-.2h.2c.1,0,.2-.1.2-.1,0-.1-.1-.1-.2-.1h-.2v.2Z"/></g><text class="cls-5" transform="translate(319.73 118.3)"><tspan x="0" y="0">N</tspan><tspan class="cls-35" x="1.92" y="0">E</tspan><tspan class="cls-14" x="3.43" y="0">O</tspan><tspan class="cls-28" x="5.41" y="0">TTI</tspan><tspan class="cls-12" x="9.07" y="0">A</tspan></text><text class="cls-8" transform="translate(352.05 102.35)"><tspan x="0" y="0">DONUTERIE</tspan></text><text class="cls-3" transform="translate(391.24 60.86) rotate(-90)"><tspan class="cls-13" x="0" y="0">AV</tspan><tspan x="1.09" y="0">AN</tspan><tspan class="cls-31" x="2.34" y="0">G</tspan><tspan x="3" y="0">ARD </tspan></text><g><path d="m372.92,292.44c.21,0,.38.15.38.42v.6h-1.32v-.58c0-.25.17-.37.33-.37.12,0,.23.07.27.18.04-.17.19-.25.34-.25Zm-.71.76h.29v-.26c0-.12-.08-.17-.15-.17s-.14.06-.14.16v.27Zm.68-.49c-.09,0-.17.06-.17.2v.29h.35v-.29c0-.13-.09-.2-.17-.2Z"/><path d="m371.98,291.96h1.32v.27h-1.32v-.27Z"/><path d="m373.16,291.81l-.21-.13c.08-.08.12-.17.12-.26,0-.15-.1-.25-.27-.25h-.82v-.26h.83c.36,0,.52.22.52.49,0,.14-.05.3-.16.41Z"/><path d="m372.82,290.64h-.84v-.27h.82c.18,0,.27-.1.27-.25s-.09-.25-.27-.25h-.82v-.27h.84c.35,0,.51.24.51.51s-.16.52-.51.52Z"/><path d="m372.24,289.46h-.25v-1.02h.25v.38h1.06v.27h-1.06v.38Z"/><path d="m371.98,288.27v-.89h.25v.63h.28v-.58h.25v.58h.3v-.63h.25v.89h-1.32Z"/><path d="m372.82,286.72v.16h.48v.26h-1.32v-.5c0-.31.2-.45.42-.45.16,0,.32.08.39.27l.51-.32v.31l-.48.28Zm-.24.16v-.22c0-.15-.09-.21-.18-.21s-.18.06-.18.18v.24h.36Z"/><path d="m371.98,285.68h1.32v.27h-1.32v-.27Z"/><path d="m373.02,284.68v.46l.29.1v.28l-1.32-.5v-.22l1.32-.5v.28l-.29.1Zm-.24.39v-.31l-.44.15.44.16Z"/><path d="m374.78,291.33c-.38,0-.69-.3-.69-.69s.31-.69.68-.69.68.3.68.69-.3.69-.68.69Zm0-1.1c-.25,0-.42.19-.42.41s.18.41.42.41.42-.18.42-.41-.18-.41-.42-.41Z"/><path d="m374.11,288.62h1.32v.18l-.81.68h.81v.26h-1.32v-.17l.82-.7h-.82v-.26Z"/><path d="m374.98,287.74h.46v.26h-.46l-.86.45v-.31l.58-.28-.58-.28v-.31l.86.46Z"/><path d="m374.77,286.84l-.65.39v-.3l.45-.26-.45-.27v-.31l.65.42.67-.41v.31l-.46.27.46.28v.31l-.67-.42Z"/></g><text class="cls-7" transform="translate(312.01 209.63)"><tspan x="0" y="0">JOLIDON</tspan></text><text class="cls-6" transform="translate(311.85 195.17)"><tspan x="0" y="0">ARES</tspan></text><g><polygon class="cls-27" points="328.15 262.6 327.75 262.42 327.76 262.06 328.55 262.51 328.55 262.69 327.75 263.12 327.75 262.81 328.15 262.6"/><path class="cls-27" d="m327.99,260.56c0-.13.09-.18.18-.18s.18.09.18.18c0,.13-.09.18-.18.18s-.18-.05-.18-.18h0Zm.58-.17v-.31s-1.32-.01-1.32-.01v.31s.57,0,.57,0c-.09.04-.09.18-.09.26,0,.27.22.4.44.4s.44-.17.45-.39c0-.09-.04-.18-.13-.27h.09Z"/><path class="cls-27" d="m328,259.5c0-.13.09-.18.18-.18s.18.09.18.18c0,.13-.09.18-.18.18-.09,0-.18-.05-.18-.18h0Zm-.22-.49v.31s.09,0,.09,0c-.09.04-.09.18-.09.26,0,.27.22.4.44.4s.44-.17.45-.39c0-.09-.04-.18-.13-.27h.09s0-.31,0-.31h-.84Z"/><path class="cls-27" d="m328.59,258.53v.31s-.58,0-.58,0v.09s-.22,0-.22,0v-.09s-.09,0-.09,0c-.13,0-.18,0-.31-.09-.09-.09-.13-.18-.13-.31,0-.04,0-.09.05-.13h.27s-.04.05-.05.09c0,.09.04.09.13.09h.13s0-.22,0-.22h.22s0,.22,0,.22l.57.05h0Z"/><path class="cls-27" d="m327.89,256.93h0c-.09-.09-.13-.13-.13-.27,0-.22.14-.31.36-.31h.53s0,.31,0,.31h-.4c-.09,0-.22,0-.22.13s.09.13.18.13h.44s0,.31,0,.31h-.84s0-.32,0-.32h.09Z"/><path class="cls-27" d="m328.08,255.96c-.09,0-.13-.09-.13-.18s.05-.13.13-.18v.35h0Zm.18-.62c-.27,0-.44.17-.45.44s.17.44.44.45.44-.22.45-.48c0-.18-.09-.35-.26-.44v.27s.09.09.08.13c0,.13-.05.18-.18.18l-.08-.53h0Z"/><path class="cls-27" d="m328.21,261.14c.27,0,.44.23.44.49s-.23.48-.45.48c-.27,0-.48-.23-.48-.49s.23-.48.49-.48h0Zm0,.75c.13,0,.27-.13.27-.26s-.13-.27-.26-.27-.27.13-.27.26c-.13-.05-.18-.13-.18-.13,0,.18.17.36.35.4h.09Z"/><path class="cls-27" d="m328.19,258.26c-.27,0-.48-.23-.48-.49s.23-.48.49-.48.48.23.48.49-.23.48-.49.48h0Zm0-.71c-.13,0-.27.13-.27.26s.13.27.26.27.27-.13.27-.26c.13.05.18.13.18.13,0-.18-.17-.36-.35-.4h-.09Z"/></g><text class="cls-1" transform="translate(392.09 44.66) rotate(-90)"><tspan x="0" y="0">LET</tspan><tspan class="cls-23" x="2.96" y="0"></tspan><tspan x="3.33" y="0">S PL</tspan><tspan class="cls-34" x="6.7" y="0">A</tspan><tspan class="cls-33" x="7.68" y="0">Y</tspan></text><text class="cls-2" transform="translate(373.28 250.9) rotate(-90)"><tspan x="0" y="0">KENDR</tspan><tspan class="cls-30" x="13.78" y="0">A</tspan></text><text id="sPLENDOR" class="cls-4" transform="translate(358.6 253.16) rotate(-90) scale(1.11 1)"><tspan x="0" y="0">SPLEN</tspan><tspan class="cls-32" x="10.76" y="0">D</tspan><tspan class="cls-15" x="13.25" y="0"></tspan><tspan class="cls-24" x="13.94" y="0">OR</tspan></text><g><path class="cls-10" d="m419.52,270.29c.04-.13.04-.23.02-.28-.01-.07-.05-.11-.12-.13l-.31-.04-.36.04c-.07.04-.14.07-.19.13-.05.06-.09.16-.12.28-.02.12-.02.19-.01.25.01.06.05.11.12.14l.31.04h.22s.17-.05.17-.05l.15-.08.07-.12v-.02s-.35,0-.35,0l-.07.08h-.14c-.07.01-.12,0-.15-.04-.03-.02-.01-.08.02-.17h.71v-.04Zm-.36-.25s.05.01.06.04l-.03.11h-.36c.02-.07.05-.11.07-.13l.15-.02h.1Z"/><path class="cls-10" d="m415.64,269.47h-.35l-.35,1.23h.36s.14-.47.14-.47c0-.06.04-.11.06-.13.04-.05.1-.06.19-.06.06,0,.1.01.11.04.01.02.01.05.01.1l-.15.53h.35s.16-.6.16-.6c.02-.1.01-.16-.02-.19-.04-.05-.14-.07-.25-.07l-.21.04c-.06.02-.12.07-.17.13h-.01s.14-.54.14-.54Z"/><path class="cls-10" d="m414.48,270.54h-.02s.01-.68.01-.68h-.41l-.37.68h-.02s.07-.68.07-.68h-.35s-.04.85-.04.85h.52s.31-.61.31-.61h.02v.61s.49.01.49.01l.42-.86h-.31l-.32.68Z"/><path class="cls-10" d="m416.55,269.88c-.09.04-.16.07-.2.13-.05.08-.1.17-.11.28-.04.1-.04.18-.02.25.01.06.05.11.11.14l.34.04h.21s.19-.05.19-.05l.12-.08.09-.13h.01s-.35-.01-.35-.01l-.09.08h-.14c-.07.01-.12,0-.15-.04-.01-.02-.01-.08.01-.17h.72v-.04c.05-.12.06-.22.05-.28-.02-.07-.06-.11-.14-.13l-.31-.04-.35.04Zm.29.14h.1s.05.02.06.05v.11h-.39.01c0-.07.04-.11.06-.13l.15-.02Z"/><path class="cls-10" d="m418.22,269.84l-.17.02s-.1.06-.14.12h-.04s.05-.12.05-.12h0s-.35-.02-.35-.02l-.25.86h.36s.14-.52.14-.52c.02-.05.04-.07.06-.1.04-.04.09-.05.12-.05.05,0,.09.01.09.05v.08s-.02.04-.02.04h.31s.02-.06.02-.06l.02-.16s-.01-.07-.05-.12c-.02-.02-.09-.04-.16-.04Z"/><path class="cls-10" d="m410.26,270.19h-.11c-.14,0-.25.01-.31.06-.07.04-.14.11-.15.22-.02.06-.02.12,0,.16.01.05.05.06.1.07l.21.02h.14s.12-.05.12-.05l.1-.08h.02l-.05.12h.35s.15-.54.15-.54c.02-.1.02-.17,0-.22l-.14-.1h-.55c-.07,0-.15.02-.2.07-.05.02-.09.07-.12.14v.02s.35.01.35.01c.01-.05.02-.07.06-.1h.12s.1,0,.1,0l.05.06v.07s-.06.14-.06.14h-.02l-.05-.06-.11-.04Zm.15.25l-.07.08-.16.02h-.06l-.06-.02-.02-.05v-.04s.05-.06.09-.08h.11s.15,0,.15,0l.04.06v.02Z"/><path class="cls-10" d="m411.42,269.88v-.02s-.35,0-.35,0l-.24.85h.36s.12-.48.12-.48c.01-.05.04-.1.06-.12.05-.05.11-.06.19-.06.06,0,.1,0,.12.02.01.04.01.06,0,.11l-.15.53h.35s.17-.6.17-.6c.01-.08,0-.16-.04-.19-.04-.05-.12-.07-.24-.07l-.22.02c-.06.02-.11.07-.17.14h-.01s.04-.13.04-.13Z"/><path class="cls-10" d="m412.47,270.73l-.09.13s-.09.05-.17.05h-.04l-.06.16v.02h.12s.25-.02.25-.02l.16-.1.14-.18.54-.93h-.36l-.37.71h-.01v-.71s-.39-.01-.39-.01l.07.86h.2v.02h.01Z"/><path class="cls-10" d="m419.77,267.58c0-.24-.04-.43-.12-.56-.09-.12-.21-.22-.36-.28-.16-.05-.35-.07-.56-.07h-1.19l-.57.07c-.15.06-.27.16-.36.28-.09.13-.12.32-.12.56v.73c0,.23.04.42.12.56.09.12.21.2.36.26l.57.07h1.19c.21,0,.4-.02.56-.07.15-.06.27-.14.36-.26.09-.14.12-.34.12-.56v-.73Zm-2.53.22c0-.12.01-.22.02-.31.02-.08.06-.14.14-.2.07-.04.16-.06.29-.06h.87c.12,0,.22.02.29.06.07.06.11.12.14.2l.02.61c.01.2-.01.35-.07.44-.06.08-.17.12-.34.12h-.94c-.17,0-.29-.04-.35-.12-.06-.1-.09-.24-.07-.44v-.3Z"/><path class="cls-10" d="m416.28,269.18v-.65h-1.79v-1.82h-.77v2.47h2.56Z"/><path class="cls-10" d="m413.32,267.28v-.56h-2.71v2.47h2.76v-.6h-1.99v-.4h1.75v-.52h-1.75v-.4h1.94Z"/><path class="cls-10" d="m410.33,266.71h-.89l-.9,1.88-.9-1.88h-.84l1.17,2.47h1.17l1.17-2.47Z"/><path class="cls-10" d="m406.57,266.71h-.82v1.8s-1.32-1.8-1.32-1.8h-1.25v2.47h.77v-1.8l1.32,1.8h1.3v-2.47Z"/><path class="cls-10" d="m402.75,267.28v-.56h-2.72v2.47h2.76v-.6h-1.99v-.4h1.75v-.52h-1.75v-.4h1.95Z"/><path class="cls-10" d="m399.73,269.18h0s-1.65-1.27-1.65-1.27l1.5-1.2h-1.1l-1.11.9h-.32v-.9h-.76v2.47h.76v-.95h.3l1.26.95h1.12Z"/><path class="cls-10" d="m395.13,266.73c-.02-.19-.14-.32-.35-.37l-1.81,1.44s-.02.04-.04.06h0v.06l.04.06,1.99,1.56c.1-.08.16-.19.19-.32.16-.83.16-1.65-.01-2.48Z"/><path class="cls-10" d="m393.91,266.27h0c-1.12-.08-2.25-.06-3.33.07-.29.01-.44.14-.45.4-.17.83-.17,1.65,0,2.47.01.26.16.41.45.41l3.12.08-1.76-1.4-.35.87h-.79l-.09-.02c-.1-.04-.12-.1-.09-.19l.94-2.35h1.04l-.41,1.03,1.72-1.37Z"/></g></g><polygon id="ZalauGF01" class="cls-17" points="308.6 380.6 308.6 416 422.6 416 422.6 369.3 404 369.3 404 380.6 308.6 380.6"/><polygon id="ZalauGF02" class="cls-17" points="422.6 366.9 422.6 344 308.6 344 308.6 378.8 402.2 378.8 402.2 366.9 422.6 366.9"/><rect id="ZalauGF03" class="cls-17" x="308.6" y="307.2" width="114" height="35"/><rect id="ZalauG08_G13" class="cls-17" x="308.6" y="282.9" width="59.9" height="22.4"/><rect id="ZalauG07_" class="cls-17" x="370.1" y="282.9" width="7.7" height="12"/><polygon id="ZalauG06" class="cls-17" points="370.1 296.4 370.1 305.4 407.3 305.4 407.3 282.9 379.2 282.9 379.2 296.4 370.1 296.4"/><polygon id="ZalauG04_G05_" class="cls-17" points="387.6 260.6 387.6 278.1 423.5 278.1 423.5 241.3 408.1 241.3 408.1 260.6 387.6 260.6"/><polygon id="ZalauG02" class="cls-17" points="387.6 241.3 406.6 241.3 406.6 259.6 401.4 259.6 401.4 251.3 387.6 251.3 387.6 241.3"/><rect id="ZalauG03" class="cls-17" x="387.6" y="252.9" width="13" height="6.5"/><polygon id="ZalauG01" class="cls-17" points="387.6 239.3 425 239.3 425 277.7 488.4 277.7 488.4 11.6 387.6 11.6 387.6 27.7 396.1 27.7 396.1 73.2 387.6 73.2 387.6 239.3"/><rect id="ZalauG41" class="cls-17" x="387.6" y="63" width="6.9" height="9"/><rect id="ZalauG40" class="cls-17" x="387.6" y="55" width="6.9" height="6.8"/><rect id="ZalauG39" class="cls-17" x="387.6" y="29.1" width="6.9" height="24.2"/><rect id="ZalauG38" class="cls-17" x="366.5" y="11.6" width="14.4" height="22.6"/><rect id="ZalauG37" class="cls-17" x="350.3" y="11.6" width="14.6" height="22.6"/><rect id="ZalauG36" class="cls-17" x="323.6" y="11.6" width="25.3" height="22.6"/><polygon id="ZalauG35" class="cls-17" points="308.2 40.4 332.9 40.4 332.9 55.6 315.9 55.6 315.9 63.3 308.2 63.3 308.2 40.4"/><polygon id="ZalauG33" class="cls-17" points="308.2 64.6 317.9 64.6 317.9 56.7 332.9 56.7 332.9 69 308.2 69 308.2 64.6"/><rect id="ZalauG32" class="cls-17" x="308.2" y="70" width="24.7" height="10.4"/><rect id="ZalauG31" class="cls-17" x="317.9" y="82.1" width="15.1" height="7.3"/><polygon id="ZalauG28_30" class="cls-17" points="316.7 82.1 308.2 82.1 308.2 121 316.7 121 316.7 112.6 332.9 112.6 332.9 90.8 316.7 90.8 316.7 82.1"/><rect id="ZalauG29" class="cls-17" x="317.9" y="113.9" width="14.6" height="7"/><rect id="ZalauG26_1" class="cls-17" x="312.2" y="122.7" width="20.3" height="6.6"/><rect id="ZalauG26_2G27" class="cls-17" x="312.2" y="130.7" width="20.3" height="19.8"/><rect id="ZalauG25" class="cls-17" x="308.2" y="156.7" width="24.3" height="10.6"/><rect id="ZalauG24" class="cls-17" x="321.6" y="169.3" width="10.9" height="6.3"/><rect id="ZalauG23" class="cls-17" x="321.6" y="177" width="10.9" height="6.3"/><polygon id="ZalauG22_" class="cls-17" points="320.2 169.2 308.2 169.2 308.2 203 332.9 203 332.9 184.8 320.2 184.8 320.2 169.2"/><rect id="ZalauG21" class="cls-17" x="308.2" y="204.5" width="24.7" height="7.5"/><rect id="ZalauG20" class="cls-17" x="308.2" y="213.9" width="24.7" height="11.2"/><rect id="ZalauG18" class="cls-17" x="308.2" y="231.2" width="24.3" height="10.1"/><rect id="ZalauG17" class="cls-17" x="316.9" y="242.6" width="15.6" height="10.3"/><rect id="ZalauG14" class="cls-17" x="308.2" y="242.6" width="7.3" height="22.2"/><rect id="ZalauG15" class="cls-17" x="317.2" y="254.2" width="7" height="10.6"/><polygon id="ZalauG16" class="cls-17" points="325.4 254.2 332.5 254.2 332.5 261.2 329 264.7 325.4 264.7 325.4 254.2"/><polygon id="ZalauG61" class="cls-17" points="363 255.6 350.4 255.6 350.4 261 354 264.6 363 264.6 363 255.6"/><polygon id="ZalauG62" class="cls-17" points="364.4 255.6 377.2 255.6 377.2 261 373.5 264.7 364.4 264.7 364.4 255.6"/><rect id="ZalauG57" class="cls-17" x="350.4" y="216.4" width="26.5" height="8.4"/><rect id="ZalauG56" class="cls-17" x="350.4" y="204.9" width="26.5" height="10.1"/><rect id="ZalauG55" class="cls-17" x="350.4" y="190.4" width="26.5" height="12.5"/><rect id="ZalauG53_54" class="cls-17" x="350.4" y="178.3" width="26.5" height="10.8"/><rect id="ZalauG51" class="cls-17" x="350.4" y="166.2" width="26.5" height="10.8"/><rect id="ZalauG52" class="cls-17" x="350.4" y="156.7" width="26.5" height="8"/><rect id="ZalauG47_48" class="cls-17" x="350.4" y="114.9" width="26.5" height="10.4"/><rect id="ZalauG45_46" class="cls-17" x="350.4" y="106.2" width="26.5" height="6.8"/><rect id="ZalauG49_50" class="cls-17" x="350.4" y="127.1" width="26.5" height="23"/><polygon id="ZalauG44" class="cls-17" points="350.4 104.8 359.7 104.8 359.7 95.4 356 95.4 350.4 101.1 350.4 104.8"/><polygon id="ZalauG42_43" class="cls-17" points="361.2 95.4 361.2 104.8 376.9 104.8 376.9 101.1 371.1 95.2 361.2 95.4"/><rect id="ZalauGF04" class="cls-17" x="282" y="128.8" width="24.4" height="38.5"/><rect id="ZalauGF05" class="cls-17" x="266.3" y="128.3" width="13.9" height="39"/><polygon id="ZalauGF06" class="cls-17" points="280.2 126.7 280.2 88.1 227.3 88.1 227.3 167.3 264.4 167.3 264.4 126.7 280.2 126.7"/><rect id="ZalauGF07" class="cls-17" x="203.2" y="88.1" width="22.5" height="79.2"/><rect id="ZalauGF09" class="cls-17" x="140.3" y="88.1" width="22.5" height="79.2"/><rect id="ZalauGF10" class="cls-17" x="116.3" y="88.1" width="22.5" height="79.2"/><rect id="ZalauGF11" class="cls-17" x="89.3" y="88.1" width="25.2" height="79.2"/><polygon id="ZalauGF12" class="cls-17" points="87.9 88.1 87.9 167.3 57.8 167.3 57.8 102.4 44 102.4 44 88.1 87.9 88.1"/><polygon id="ZalauGF13" class="cls-17" points="42.3 88.1 38.8 88.1 38.8 167.3 56.5 167.3 56.5 103.9 42.3 103.9 42.3 88.1"/><rect id="ZalauGF14" class="cls-17" x="11.3" y="88.1" width="25.8" height="79.2"/><rect id="ZalauGF08" class="cls-17" x="164.8" y="88.1" width="36.6" height="79.2"/><g><path class="cls-11" d="m235.13,263.47h.95l2.82,4.08,2.79-4.08h.97v7.19h-1.44v-4.08l-2.09,3.01h-.5l-2.09-3.01v4.08h-1.42v-7.19Z"/><path class="cls-11" d="m249.37,265.35v5.31h-1.3v-.61c-.39.42-.94.74-1.69.74-1.54,0-2.63-1.23-2.63-2.8s1.12-2.76,2.63-2.76c.75,0,1.29.33,1.69.77v-.63h1.3Zm-1.29,2.65c0-.83-.61-1.53-1.49-1.53s-1.48.7-1.48,1.53.6,1.54,1.48,1.54,1.49-.7,1.49-1.54Z"/><path class="cls-11" d="m250.47,263.91c0-.48.37-.84.85-.84s.85.36.85.84-.37.85-.85.85-.85-.36-.85-.85Zm.16,6.75v-5.31h1.37v5.31h-1.37Z"/><path class="cls-11" d="m253.23,265.35h1.34v.74c.27-.5.88-.89,1.67-.89,1.07,0,2.07.71,2.07,2.21v3.24h-1.37v-2.87c0-.86-.46-1.31-1.12-1.31-.72,0-1.22.54-1.22,1.34v2.84h-1.37v-5.31Z"/><path class="cls-11" d="m225.8,275.15h4.88v1.34h-3.43v1.55h3.17v1.34h-3.17v1.62h3.43v1.34h-4.88v-7.19Z"/><path class="cls-11" d="m231.81,277.04h1.34v.74c.27-.5.88-.89,1.67-.89,1.07,0,2.07.71,2.07,2.21v3.24h-1.37v-2.87c0-.86-.46-1.31-1.12-1.31-.72,0-1.22.54-1.22,1.34v2.84h-1.37v-5.31Z"/><path class="cls-11" d="m241.85,282.04c-.42.28-1.02.44-1.57.44-1.22,0-1.85-.72-1.85-2.09v-2.19h-.87v-1.15h.88v-1.88h1.36v1.88h1.75v1.15h-1.75v2.1c0,.61.23.93.75.93.34,0,.62-.13.89-.27l.41,1.08Z"/><path class="cls-11" d="m242.51,277.04h1.31v.71c.33-.58.84-.86,1.46-.86.19,0,.43.04.64.12l-.12,1.31c-.21-.07-.43-.11-.63-.11-.72,0-1.29.45-1.29,1.61v2.52h-1.37v-5.31Z"/><path class="cls-11" d="m251.77,277.04v5.31h-1.31v-.61c-.39.42-.94.74-1.69.74-1.54,0-2.63-1.23-2.63-2.8s1.12-2.76,2.63-2.76c.75,0,1.29.33,1.69.77v-.63h1.31Zm-1.29,2.65c0-.83-.61-1.53-1.49-1.53s-1.48.7-1.48,1.53.6,1.54,1.48,1.54,1.49-.7,1.49-1.54Z"/><path class="cls-11" d="m253.01,277.04h1.34v.74c.27-.5.88-.89,1.67-.89,1.07,0,2.07.71,2.07,2.21v3.24h-1.37v-2.87c0-.86-.46-1.31-1.12-1.31-.72,0-1.22.54-1.22,1.34v2.84h-1.37v-5.31Z"/><path class="cls-11" d="m258.99,279.69c0-1.62,1.17-2.78,2.85-2.78,1.05,0,2.03.52,2.47,1.48l-1.1.6c-.3-.5-.79-.81-1.35-.81-.87,0-1.51.65-1.51,1.51s.63,1.52,1.48,1.52c.56,0,1.12-.34,1.35-.8l1.11.65c-.45.85-1.39,1.4-2.49,1.4-1.66,0-2.81-1.16-2.81-2.77Z"/><path class="cls-11" d="m270.23,280.18h-3.98c.17.64.64,1.13,1.55,1.13.58,0,1.27-.22,1.71-.54l.54.96c-.51.37-1.33.73-2.32.73-1.99,0-2.88-1.35-2.88-2.77,0-1.59,1.11-2.78,2.76-2.78,1.51,0,2.66.98,2.66,2.67,0,.21-.02.41-.05.6Zm-3.98-1.02h2.7c-.13-.68-.62-1.11-1.32-1.11s-1.21.42-1.37,1.11Z"/></g><polygon id="ZalauG58" class="cls-17" points="350.26 231.23 350.26 254.16 366.77 254.16 366.77 238.27 364.17 238.27 364.17 231.31 350.26 231.23"/><path id="ZalauG63" class="cls-17" d="m365.62,231.39l.08,5.35h2.6v17.27h8.87v-22.62s-11.54-.08-11.54,0Z"/></svg>