<?xml version="1.0" encoding="UTF-8"?>
<svg id="Layer_4" xmlns="http://www.w3.org/2000/svg" viewBox="0 0 499.7 427.5">
  <defs>
    <style>
      .cls-1 {
        letter-spacing: -.06em;
      }

      .cls-2 {
        font-size: 3.65px;
      }

      .cls-2, .cls-3, .cls-4, .cls-5, .cls-6, .cls-7, .cls-8, .cls-9, .cls-10, .cls-11, .cls-12, .cls-13, .cls-14, .cls-15, .cls-16, .cls-17, .cls-18 {
        font-family: Axiforma-Bold, 'Axiforma Bold';
        font-weight: 700;
      }

      .cls-19, .cls-20, .cls-21 {
        stroke: #000;
        stroke-miterlimit: 10;
      }

      .cls-19, .cls-22, .cls-21 {
        fill: none;
      }

      .cls-23 {
        fill: #010101;
      }

      .cls-24 {
        letter-spacing: -.08em;
      }

      .cls-25 {
        font-family: Bauhaus93, 'Bauhaus 93';
        font-size: 5.77px;
      }

      .cls-26 {
        fill: #f47725;
      }

      .cls-27 {
        letter-spacing: -.03em;
      }

      .cls-28 {
        letter-spacing: .02em;
      }

      .cls-29 {
        letter-spacing: 0em;
      }

      .cls-30 {
        fill: #1d1d1b;
      }

      .cls-31 {
        letter-spacing: .03em;
      }

      .cls-32 {
        letter-spacing: -.08em;
      }

      .cls-33 {
        letter-spacing: .04em;
      }

      .cls-20 {
        fill: #fff;
      }

      .cls-34, .cls-35 {
        fill: #231f20;
      }

      .cls-34, .cls-36 {
        fill-rule: evenodd;
      }

      .cls-37 {
        letter-spacing: 0em;
      }

      .cls-38 {
        letter-spacing: -.04em;
      }

      .cls-3 {
        font-size: 3.86px;
      }

      .cls-4 {
        font-size: .84px;
      }

      .cls-4, .cls-5, .cls-39, .cls-8 {
        isolation: isolate;
      }

      .cls-4, .cls-5, .cls-8 {
        fill: #1d1d1b;
      }

      .cls-40 {
        letter-spacing: 0em;
      }

      .cls-41 {
        fill: #e2e2e2;
      }

      .cls-5 {
        font-size: 1px;
      }

      .cls-42 {
        letter-spacing: -.08em;
      }

      .cls-43 {
        letter-spacing: 0em;
      }

      .cls-6 {
        font-size: 2.36px;
      }

      .cls-44 {
        letter-spacing: 0em;
      }

      .cls-45 {
        fill: #f1f2f2;
      }

      .cls-7 {
        font-size: 4.18px;
      }

      .cls-21 {
        stroke-width: 2px;
      }

      .cls-46 {
        letter-spacing: 0em;
      }

      .cls-47 {
        letter-spacing: -.02em;
      }

      .cls-48 {
        letter-spacing: -.05em;
      }

      .cls-8 {
        font-size: 1.59px;
      }

      .cls-9 {
        font-size: 3.88px;
      }

      .cls-10 {
        font-size: 2.07px;
      }

      .cls-49 {
        letter-spacing: -.02em;
      }

      .cls-50 {
        letter-spacing: -.03em;
      }

      .cls-11 {
        font-size: 7.67px;
      }

      .cls-51 {
        letter-spacing: 0em;
      }

      .cls-52 {
        letter-spacing: -.08em;
      }

      .cls-53 {
        letter-spacing: 0em;
      }

      .cls-54 {
        letter-spacing: .02em;
      }

      .cls-55 {
        letter-spacing: 0em;
      }

      .cls-12 {
        font-size: 3.26px;
      }

      .cls-56 {
        fill: #f47825;
      }

      .cls-57 {
        letter-spacing: 0em;
      }

      .cls-13 {
        font-size: 2.85px;
      }

      .cls-58 {
        letter-spacing: 0em;
      }

      .cls-59 {
        letter-spacing: -.04em;
      }

      .cls-60 {
        fill: #ed7013;
      }

      .cls-61 {
        letter-spacing: 0em;
      }

      .cls-62 {
        letter-spacing: -.01em;
      }

      .cls-14 {
        font-size: 2.07px;
      }

      .cls-63 {
        letter-spacing: 0em;
      }

      .cls-64 {
        letter-spacing: 0em;
      }

      .cls-15 {
        font-size: 4.24px;
      }

      .cls-16 {
        font-size: 5.77px;
      }

      .cls-65 {
        letter-spacing: 0em;
      }

      .cls-17 {
        font-size: 3.38px;
      }

      .cls-66 {
        letter-spacing: -.04em;
      }

      .cls-67 {
        letter-spacing: -.02em;
      }

      .cls-18 {
        font-size: 13.66px;
      }

      .cls-68 {
        letter-spacing: -.07em;
      }
    </style>
  </defs>
  <g id="cladire">
    <g>
      <polygon class="cls-45" points="302.2 422.5 302.2 173.4 5 173.4 5 81.9 286.1 81.9 286.1 122.4 302.2 122.4 302.2 5 494.7 5 494.7 284.3 429.1 284.3 429.1 422.5 302.2 422.5"/>
      <path class="cls-45" d="M489.7,10v269.2h-65.6v138.2h-116.9v-249H10v-81.5h271.1v40.5h26.1V10h182.5M499.7,0h-202.5v117.4h-6.1v-40.5H0v101.5h297.2v249.1h136.9v-138.2h65.6V0h0Z"/>
      <polygon class="cls-21" points="281.1 86.9 10 86.9 10 168.4 307.2 168.4 307.2 417.5 424.1 417.5 424.1 279.3 489.7 279.3 489.7 10 307.2 10 307.2 86.9 307.2 127.4 281.1 127.4 281.1 86.9"/>
    </g>
  </g>
  <g id="magazine">
    <line class="cls-19" x1="424.1" y1="343.1" x2="307.2" y2="343.1"/>
    <line class="cls-19" x1="424.1" y1="306.3" x2="307.2" y2="306.3"/>
    <line class="cls-19" x1="424.1" y1="281.8" x2="307.2" y2="281.8"/>
    <polyline class="cls-19" points="307.2 379.7 402.9 379.7 402.9 367.6 424.1 367.6"/>
    <line class="cls-19" x1="369.5" y1="281.6" x2="369.5" y2="306.3"/>
    <line class="cls-19" x1="408.1" y1="281.6" x2="408.1" y2="306.3"/>
    <polyline class="cls-19" points="369.5 295.7 378.5 295.7 378.5 281.8"/>
    <polyline class="cls-19" points="386.9 10 386.9 279.3 387.5 279.3 424.1 279.3 424.1 240.2 386.9 240.3"/>
    <polyline class="cls-19" points="407.3 240.2 407.3 260.2 386.9 260.2"/>
    <polyline class="cls-19" points="401.1 260.2 401.1 252.2 386.9 252.2"/>
    <polyline class="cls-19" points="386.9 28.5 395.1 28.5 395.1 72.6 386.9 72.6"/>
    <line class="cls-19" x1="395.1" y1="62.5" x2="386.9" y2="62.5"/>
    <line class="cls-19" x1="395.1" y1="54.2" x2="386.9" y2="54.2"/>
    <polyline class="cls-19" points="381.7 10 381.7 34.8 365.7 34.8 365.7 10"/>
    <line class="cls-19" x1="386.9" y1="31.6" x2="381.7" y2="31.6"/>
    <polyline class="cls-19" points="365.7 34.8 349.6 34.8 349.6 10"/>
    <polyline class="cls-19" points="349.6 34.8 322.9 34.8 322.9 10"/>
    <line class="cls-19" x1="322.9" y1="34.8" x2="307.2" y2="34.8"/>
    <polyline class="cls-19" points="307.2 39.9 333.5 39.9 333.5 150.9 311.8 150.9 311.8 121.9"/>
    <line class="cls-19" x1="307.2" y1="127.4" x2="307.2" y2="168.4"/>
    <line class="cls-19" x1="307.2" y1="121.9" x2="333.5" y2="121.9"/>
    <line class="cls-19" x1="333.5" y1="130" x2="311.8" y2="130"/>
    <line class="cls-19" x1="307.2" y1="81.3" x2="333.5" y2="81.3"/>
    <polyline class="cls-19" points="317.4 81.3 317.4 89.9 333.5 89.9"/>
    <line class="cls-19" x1="307.2" y1="69.2" x2="333.5" y2="69.2"/>
    <polyline class="cls-19" points="307.2 155.9 333.5 155.9 333.5 225.5 307.2 225.5"/>
    <line class="cls-19" x1="307.2" y1="212.9" x2="333.5" y2="212.9"/>
    <line class="cls-19" x1="307.2" y1="203.8" x2="333.5" y2="203.8"/>
    <polyline class="cls-19" points="333.5 184.1 321 184.1 321 168.4"/>
    <line class="cls-19" x1="333.5" y1="168.4" x2="307.2" y2="168.4"/>
    <polyline class="cls-19" points="307.2 230.6 333.5 230.6 333.5 261.3 329.3 265.5 307.2 265.5"/>
    <line class="cls-19" x1="307.2" y1="241.7" x2="333.5" y2="241.7"/>
    <line class="cls-19" x1="316.4" y1="241.7" x2="316.4" y2="265.5"/>
    <line class="cls-19" x1="316.4" y1="253.4" x2="333.5" y2="253.4"/>
    <polyline class="cls-19" points="281.1 168.4 281.1 127.4 265.2 127.4 265.2 168.4"/>
    <line class="cls-19" x1="226.6" y1="168.4" x2="226.6" y2="86.9"/>
    <line class="cls-19" x1="202.4" y1="168.4" x2="202.4" y2="86.9"/>
    <line class="cls-19" x1="163.7" y1="168.4" x2="163.7" y2="86.9"/>
    <line class="cls-19" x1="139.5" y1="168.4" x2="139.5" y2="86.9"/>
    <line class="cls-19" x1="115.3" y1="168.4" x2="115.3" y2="86.9"/>
    <line class="cls-19" x1="88.8" y1="168.4" x2="88.8" y2="86.9"/>
    <polyline class="cls-19" points="57.3 168.4 57.3 103.3 42.9 103.3 42.9 86.9"/>
    <line class="cls-19" x1="38" y1="168.4" x2="38" y2="86.9"/>
    <polygon class="cls-19" points="377.8 150.9 349.6 150.9 349.6 100.6 355.7 94.5 371.7 94.5 377.8 100.6 377.8 105.5 377.8 150.9"/>
    <line class="cls-19" x1="377.8" y1="126" x2="349.6" y2="126"/>
    <line class="cls-19" x1="377.8" y1="113.9" x2="349.6" y2="113.9"/>
    <line class="cls-19" x1="377.8" y1="105.5" x2="349.6" y2="105.5"/>
    <line class="cls-19" x1="360.5" y1="105.5" x2="360.5" y2="94.5"/>
    <polygon class="cls-19" points="377.8 155.9 349.6 155.9 349.6 225.5 352.6 225.5 352.6 230.6 349.6 230.6 349.6 254.9 349.6 261.4 353.7 265.5 373.7 265.5 377.8 261.4 377.8 230.6 374.8 230.6 374.8 225.5 377.8 225.5 377.8 155.9"/>
    <path class="cls-19" d="M377.8,165.4h-28.2"/>
    <line class="cls-19" x1="377.8" y1="177.5" x2="349.6" y2="177.5"/>
    <line class="cls-19" x1="377.8" y1="203.8" x2="349.6" y2="203.8"/>
    <line class="cls-19" x1="374.8" y1="225.5" x2="352.6" y2="225.5"/>
    <line class="cls-19" x1="374.8" y1="230.6" x2="352.6" y2="230.6"/>
    <line class="cls-19" x1="377.8" y1="254.9" x2="349.6" y2="254.9"/>
    <line class="cls-19" x1="363.7" y1="265.5" x2="363.7" y2="254.9"/>
    <line class="cls-19" x1="329.2" y1="150.9" x2="329.2" y2="155.9"/>
    <line class="cls-19" x1="329.7" y1="225.5" x2="329.7" y2="230.5"/>
    <line class="cls-19" x1="329.2" y1="34.8" x2="329.2" y2="39.9"/>
    <line class="cls-19" x1="374.3" y1="150.9" x2="374.3" y2="155.9"/>
    <line class="cls-19" x1="352.6" y1="150.9" x2="352.6" y2="155.9"/>
    <line class="cls-19" x1="307.54" y1="104.27" x2="333.43" y2="104.27"/>
    <polyline class="cls-20" points="364.86 231.08 364.86 237.5 367.61 237.5 367.61 254.85"/>
    <polyline class="cls-19" points="333.5 56.1 316.8 56.1 316.8 64.1 307.2 64.1"/>
    <line class="cls-19" x1="324.9" y1="253.4" x2="324.9" y2="265.5"/>
  </g>
  <g id="logo">
    <g>
      <polygon class="cls-26" points="285.9 273.4 283.3 268.9 286.4 268.8 289 273.3 286.6 277.9 283.5 278 285.9 273.4"/>
      <polygon class="cls-26" points="281.7 273.5 279.1 269 282.2 268.9 284.8 273.4 282.3 278 279.3 278 281.7 273.5"/>
      <polygon class="cls-26" points="277.5 273.5 274.9 269 277.9 269 280.6 273.5 278.1 278.1 275 278.1 277.5 273.5"/>
    </g>
    <path class="cls-26" d="M419.6,290.4c0-.6-.5-1.1-1.1-1.1h-7.2c-.6,0-1.1.5-1.1,1.1v7.1c0,.6.5,1.1,1.1,1.1h7.2c.6,0,1.1-.5,1.1-1.1v-7.1ZM417,290.7c.3,0,.5.2.5.5s-.2.5-.5.5-.5-.2-.5-.5c0-.2.2-.5.5-.5ZM412.8,290.7c.3,0,.5.2.5.5s-.2.5-.5.5-.5-.2-.5-.5c-.1-.2.2-.5.5-.5ZM413.9,292.3l-.2,1.8c0,.1-.1.2-.2.3h0c-.1,0-.2.1-.2.3l-.1,2.4c0,.2-.1.3-.3.3h-.2c-.2,0-.3-.1-.3-.3l-.1-2.4c0-.1-.1-.2-.2-.3-.1,0-.2-.1-.2-.3l-.1-1.8c0-.1.1-.3.2-.3h.1c.1,0,.2,0,.3.1l.2.2c.1.1.3.1.4,0l.2-.2c.1-.1.2-.1.3-.1h.2c.1,0,.2.1.2.3ZM415,297.3c0,.1-.1.1-.1.1-.1,0-.1-.1-.1-.1v-6.5c0-.1.1-.1.1-.1.1,0,.1.1.1.1v6.5ZM418.1,294.4c-.1,0-.2.1-.2.2l.1.5c0,.1-.1.2-.2.2h-.1c-.1,0-.2.1-.2.2l-.1,1.5c0,.2-.1.3-.3.3h-.2c-.2,0-.3-.1-.3-.3l-.1-1.5c0-.1-.1-.2-.2-.2h-.1c-.1,0-.2-.1-.2-.2l.1-.5c0-.1,0-.2-.2-.2-.1,0-.2-.1-.1-.2l.4-1.9c0-.1.2-.2.3-.1l.4.2h.2l.4-.2c.1-.1.3,0,.3.1l.4,1.9c.1,0,0,.1-.1.2Z"/>
    <path class="cls-26" d="M320.1,18.5c0-.7-.5-1.2-1.2-1.2h-7.7c-.7,0-1.2.5-1.2,1.2v7.7c0,.7.5,1.2,1.2,1.2h7.7c.7,0,1.2-.5,1.2-1.2v-7.7ZM317.3,18.8c.3,0,.6.3.6.6s-.3.6-.6.6-.6-.3-.6-.6.2-.6.6-.6ZM312.7,18.8c.3,0,.6.3.6.6s-.3.6-.6.6-.6-.3-.6-.6.3-.6.6-.6ZM313.9,20.5l-.2,2c0,.1-.1.2-.2.3h0c-.1,0-.2.2-.2.3l-.2,2.6c0,.2-.2.3-.3.3h-.2c-.2,0-.3-.1-.3-.3l-.2-2.6c0-.1-.1-.2-.2-.3-.1,0-.2-.2-.2-.3l-.2-2c0-.2.1-.3.3-.3h.2c.1,0,.2,0,.3.1l.2.2c.1.1.3.1.5,0l.2-.2c.1-.1.2-.1.3-.1h.2c.1,0,.2.2.2.3ZM315.1,25.9c0,.1-.1.2-.2.2s-.2-.1-.2-.2v-7.1c0-.1.1-.2.2-.2s.2.1.2.2v7.1ZM318.4,22.8c-.1,0-.2.1-.2.2l.1.5c0,.1-.1.2-.2.2h-.2c-.1,0-.2.1-.2.2l-.1,1.6c0,.2-.2.3-.3.3h-.2c-.2,0-.3-.1-.3-.3l-.1-1.6c0-.1-.1-.2-.2-.2h-.2c-.1,0-.2-.1-.2-.2l.1-.5c0-.1-.1-.2-.2-.2s-.2-.1-.2-.3l.4-2.1c0-.2.2-.2.3-.1l.4.3h.2l.4-.3c.1-.1.3,0,.3.1l.4,2.1c.4.1.3.3.2.3Z"/>
    <path class="cls-26" d="M357.5,48c-.2,0-1,.2-1.8.4-5.6,1.5-10.2,6-11.8,11.7-.5,1.7-.7,5.2-.4,7,.8,5.1,4,9.7,8.6,12.1,1.9,1,5.3,2.1,5.3,1.6,0-.4-1.8-10-2-10.4-.1-.2-.8-1-1.7-1.8-1.7-1.6-2.1-2.2-2.5-3.6-.3-1.2-1.6-9.3-1.6-9.8,0-.4.5-.7.8-.4.1.1.6,2.2,1.2,4.7,1,4.3,1,4.6,1.4,4.6.2,0,.4,0,.4-.2,0-.1-.4-2.3-1-4.8-.6-2.5-1-4.7-1-4.7,0-.1.2-.1.5-.1h.4l1,4.7c1.1,4.8,1.2,5,1.7,4.7.2-.1.1-.8-.8-4.8-.6-2.5-1-4.7-.9-4.8,0-.1.2-.2.4-.2.3,0,.4.1,1,2.9,1.5,6.9,1.4,6.5,1.8,6.6.2,0,.4,0,.4-.2,0-.1-.4-2.3-1-4.8-1-4.2-1-4.6-.8-4.8.6-.4.7-.2,2.2,5,1.4,4.8,1.5,5.2,1.4,6.3,0,.9-.2,1.4-.8,2.7-.5,1.1-.7,1.8-.7,2.3,0,.8,2.8,10.6,2.9,10.3,0-.1.4-1.7.8-3.5l.7-3.3-.3-.8c-.3-.8-.3-1.6.2-5.7.3-2.9.8-5.3,1.7-8.4,1-3.3,2-5.3,3.2-6.6,1.6-1.6,2.5-1.5,2.5.4,0,1.3-3.7,20.5-4.1,21.2-.2.4-.5,1.7-.8,3.6-.3,1.7-.6,3.2-.6,3.4l-.1.4.8-.2c3.2-.9,5.6-2.4,7.9-4.7,3-3.1,4.5-7,4.5-11.4,0-4.7-1.7-8.8-5-12-2.3-2.3-5.4-3.9-8.6-4.5-.6-.2-4.4-.3-5.4-.1h0Z"/>
    <g>
      <g>
        <path d="M326.3,358.4c-1.1,0-2.2.5-2.9,1.6-.6.9-5.5,8.5-6.6,10.1-.2.3,0,.4.2.3l3.6-.1q.4,0,.7-.4c.4-.7,3.8-6.4,4.4-7.4.1-.2.3-.3.6-.3.2,0,.5.1.6.3.7,1,4.2,6.5,4.7,7.2.3.3.4.3.7.3l3.6-.1c.2,0,.4-.1.2-.4-1.1-1.5-6.3-8.9-6.9-9.8-.6-.9-1.8-1.4-2.9-1.3h0Z"/>
        <path d="M386.8,364.8c.1,0,.2,0,.3.1l3.6,3.9c.1.1.2.2.4.2l4.3-.1c.2,0,.3-.2.1-.4-.1-.1-4.7-5.2-4.7-5.2,0,0-.1-.1-.1-.2s.1-.2.1-.2l4.6-5.5c.1-.1.1-.3-.2-.3l-4.1.1c-.3,0-.4.1-.5.2,0,0-3.3,3.7-3.6,4.1-.1.1-.2.2-.3.2s-.2-.1-.3-.1c-.3-.3-3.7-4-3.7-4-.1-.1-.2-.2-.5-.2l-4.1.1c-.2,0-.3.2-.2.3l4.8,5.3s.1.1.1.2-.1.2-.1.2c0,0-4.4,5.3-4.5,5.4-.2.2,0,.4.2.4l4.3-.1c.2,0,.3-.1.4-.2l3.4-4.1q.1-.1.3-.1Z"/>
        <path d="M340.3,358.1c.2,0,.4,0,.4.2l.1,5.4c.1,3,.1,3.4,3.5,3.4,2.9-.1,5.8-.1,5.8-.1.2,0,.4,0,.4.2v2.3c0,.2-.2.2-.4.2l-6.4.1c-1.4,0-2.4,0-3.2-.1-2.2-.2-3.3-1-3.7-2.5-.2-.8-.2-2.9-.2-2.9l-.1-6c0-.2.2-.2.4-.2h3.4Z"/>
        <path d="M360.7,357.7l-11.7.2c-.3,0-.3.1-.3.3v2.2c0,.2.1.3.3.3,0,0,3.5-.1,3.6-.1q.2,0,.2.2c0,.1.2,8.7.2,8.7,0,.1.1.1.2.1l3.6-.1c.1,0,.2-.1.2-.2,0,0-.2-8.6-.2-8.7,0-.2.1-.2.2-.2l3.6-.1c.3,0,.3-.1.3-.3v-2.2c.2,0,.1-.1-.2-.1Z"/>
        <path d="M367.7,364.8s8.3-.2,8.5-.2c.4,0,.6,0,.6-.6,0-.2-.1-2.8-.1-2.8,0-2.2-1.9-3.7-4.6-3.7l-5.2.1c-2.8.1-4.5,1.6-4.5,3.9l.1,4.3c0,2.2,1.9,3.7,4.6,3.7l9.4-.2c.2,0,.4,0,.4-.2v-2.1c0-.2-.2-.2-.4-.2l-8.7.2c-.6,0-1.1-.5-1.1-1-.1-.7.4-1.2,1-1.2ZM366.6,361.3c0-.3.1-.5.2-.7.2-.3.6-.4,1.1-.4l3.6-.1c.5,0,.9.1,1.1.4.2.2.2.4.2.6,0,.3-.1.6-.3.8s-.5.3-.9.3l-3.7.1c-.4,0-.7-.1-.9-.3-.3-.1-.4-.3-.4-.7Z"/>
      </g>
      <path d="M330.5,352.6h0c-.1.1-1.6.6-2.7,1.7s-1.6,2.7-1.6,2.7c0,.1-.1.1-.1.1l-.1-.1s-.5-1.5-1.7-2.6c-1.1-1.1-2.7-1.6-2.7-1.6-.1,0-.1-.1-.1-.1h0l.1-.1s1.5-.5,2.6-1.7c1.1-1.1,1.6-2.7,1.6-2.7,0-.1.1-.1.1-.1l.1.1s.5,1.5,1.7,2.6c1.2,1.3,2.8,1.7,2.8,1.8,0-.1,0,0,0,0h0Z"/>
    </g>
    <g>
      <path class="cls-36" d="M425.5,217.2c0-1,.7-1.8,1.8-1.8,1,0,1.9.3,2.8.3.8,0,1.5-.3,2.3-.3,1.3,0,1.9,1.2,1.9,2.4,0,1.6-.7,2.3-2.3,2.1-.8,0-1.2,0-1.9.5-.6.6-.8,1.5-.8,2.5,0,3.6,3.6,3.9,6.3,3.9,3,0,6.1-.4,6.1-4.1,0-.8-.1-1.7-.6-2.2-.6-.7-1.2-.7-2.1-.7-.7,0-1.2.1-1.7-.4-.6-.4-.8-1-.8-1.7,0-1.8,1.4-2.6,3.1-2.6,4.3,0,6.3,4.1,6.3,7.9,0,2.6-.8,5-2.7,6.8-1.9,1.7-5,2.5-7.4,2.5s-5.1-.5-7-1.7c-2.2-1.4-3.4-4-3.4-6.6,0-1.9.6-3.5,2-4.9-1.1.1-1.9-.7-1.9-1.9h0Z"/>
      <path class="cls-36" d="M434.2,207.9c1.3,0,1.9,1.2,1.9,2.5,0,1.4-1,2.6-2.4,2.6-3,0-3.4-4-3.4-6.2,0-1.4.1-3.4.8-4.6,1-1.7,2.6-1.8,4.4-1.8h5.3c.4,0,1.4.1,1.4-.5,0-.3-.1-.5-.1-.7,0-.9.8-1.4,1.6-1.4,1.5,0,2.2,1.6,2.2,2.9s-.5,2.8-1.9,3.2c1.3,1.4,1.9,3.1,1.9,4.8,0,2.6-1.4,5.1-4.3,5.1-6.7,0-3.2-8.8-7-8.8-1.1,0-1.6,1-1.6,1.9,0,.5.1,1,.6,1h.6ZM439,205.1c.9.8.5,4.1,2,4.1,1,0,1.3-.8,1.3-1.6,0-1.7-1-2.5-2.6-2.5h-.7Z"/>
      <path class="cls-36" d="M436.1,194c-.4,0-2-.1-2,.5,0,.3.2.6.2,1,0,.9-.8,1.2-1.6,1.2-1.1,0-1.9-.5-1.9-1.4,0-.8.3-1.4.3-1.9,0-.6-.3-1.2-.3-1.9,0-.8.5-.9,1.2-.9h2.1c-2.3-.5-3.6-2.3-3.6-4.6,0-1.9,1.5-3.7,3.6-3.7,1.4,0,2.8.9,2.8,2.5,0,1.1-.7,2-1.8,2-.5,0-.8-.2-1.2-.3-.2,3.2,4.1,3.2,6.4,3.2.4,0,2,.1,2-.5,0-.3-.2-.6-.2-.9,0-1,.7-1.3,1.6-1.3,1,0,1.9.5,1.9,1.4-.1,1.6-.3,2.7-.3,3.9,0,1,.3,2.1.3,3.2,0,.9-.9,1.4-1.9,1.4-.9,0-1.6-.3-1.6-1.2,0-.4.2-.7.2-1,0-.6-1.6-.5-2-.5h-4.2v-.2Z"/>
      <path class="cls-36" d="M436.1,178.5c-.4,0-2-.1-2,.5,0,.3.2.6.2.9,0,1-.8,1.3-1.6,1.3-1.1,0-1.9-.5-1.9-1.4,0-.8.3-1.4.3-2s-.3-1.2-.3-1.9c0-.8.5-.8,1.2-.8h2.1c-2.3-.5-3.6-2.3-3.6-4.6,0-2,1.5-3.7,3.6-3.7,1.4,0,2.8.9,2.8,2.5,0,1.1-.7,2-1.8,2-.5,0-.8-.2-1.2-.4-.2,3.2,4.1,3.3,6.4,3.3.4,0,2,.1,2-.5,0-.3-.2-.6-.2-1,0-.9.7-1.2,1.6-1.2,1,0,1.9.5,1.9,1.4-.1,1.5-.3,2.6-.3,3.8,0,1.1.3,2.2.3,3.2,0,.9-.9,1.4-1.9,1.4-.9,0-1.6-.3-1.6-1.3,0-.3.2-.6.2-.9,0-.6-1.6-.5-2-.5h-4.2v-.1Z"/>
      <path class="cls-36" d="M438.9,160.3c0,.6-.2,1.3.6,1.3,1.6,0,2.8-1.3,2.8-2.9,0-2.5-2.2-2.3-2.2-4.5,0-1.1.6-2,1.7-2,1.3,0,2.3,1,2.9,2,.8,1.3,1.2,2.9,1.2,4.5,0,4.6-3.2,7.5-7.7,7.5s-7.9-2.8-7.9-7.4c0-1.7.4-3.5,1.5-4.8,1.2-1.4,3.2-2.1,5-2.1,1.6,0,2.1.2,2.1,1.9v6.5h0ZM435.7,157.6c0-.5.2-1-.5-1-.5,0-1,.3-1.2.6-.4.5-.5,1-.5,1.5,0,.8.1,1.4.7,1.9.3.3.7.7,1.1.7.6,0,.4-.9.4-1.2v-2.5h0Z"/>
      <path class="cls-36" d="M440.2,144.3c.4,0,2,.1,2-.5,0-.3-.2-.5-.2-.9,0-1,.7-1.2,1.6-1.2,1,0,1.9.5,1.9,1.7-.1,1.2-.3,2.3-.3,3.5,0,1.1.3,2.1.3,3.1,0,1.1-.9,1.5-1.9,1.5-.9,0-1.6-.3-1.6-1.2,0-.4.2-.6.2-1,0-.6-1.6-.5-2-.5h-5.2c-1,0-1.1-.1-1.1,1s-.3,1.7-1.5,1.7-1.7-.5-1.7-1.6c0-.8.1-1.1-.9-1.1-3.1-.1-4.4-2.8-4.4-5.6,0-.9.2-2.1.6-2.9.5-1,1.4-1.7,2.5-1.7,1.3,0,2.3.8,2.3,2.1,0,.9-.7,1.9-1.7,1.9-.3,0-.5-.1-.8-.3-.1.2-.1.3-.1.5,0,1.1.6,1.4,1.6,1.4.9,0,.9-.1.9-1,0-1.2.1-2,1.5-2,1.3,0,1.6.6,1.6,1.8s-.1,1.2,1.1,1.2h5.3v.1h0Z"/>
      <path class="cls-36" d="M437.9,126.1c4.7,0,8,2.3,8,7.3s-3,7.6-7.8,7.6-7.8-2.6-7.8-7.6c0-4.6,3-7.3,7.6-7.3h0ZM433.9,133.4c-.1,2.3,2.3,2.8,4.2,2.8,1.7,0,4.2-.5,4.2-2.6,0-1-.3-1.8-1.2-2.3-.8-.5-2-.6-3-.6-1.8,0-4.3.5-4.2,2.7h0Z"/>
      <path class="cls-36" d="M436.1,124c-.4,0-2-.1-2,.5,0,.3.2.6.2,1,0,.9-.8,1.2-1.6,1.2-1.1,0-1.9-.5-1.9-2.6,0-.6.3-1.2.3-1.8s-.3-1.3-.3-2c0-1,.8-.8,1.5-.8h6.7c.6,0,1.6,0,2.2-.3.5-.3.8-1,.8-1.6,0-.8-.4-1.6-1.1-2.1-.9-.6-1.9-.6-3-.6h-1.8c-.4,0-2-.1-2,.5,0,.3.2.6.2.9,0,1-.8,1.3-1.6,1.3-1.1,0-1.9-.5-1.9-2.5,0-.6.3-1.2.3-1.8s-.3-1.3-.3-2c0-1,.6-.9,1.4-.9h8.1c.4,0,2,.1,2-.5,0-.3-.2-.6-.2-1,0-.9.7-1.2,1.6-1.2,1,0,1.9.5,1.9,1.7-.1.7-.3,1.4-.3,2s.3,1.3.3,1.8c-.1,1.1-.9,1-1.5,1h-.6c1.5,1.1,2.4,3.1,2.4,5,0,1.4-.5,3.1-1.8,3.9-1.2.8-2.8.7-4.3.7h-3.7v.2Z"/>
      <path class="cls-36" d="M436.1,103.9c-.4,0-2-.1-2,.5,0,.3.2.6.2,1,0,.9-.8,1.2-1.6,1.2-1.1,0-1.9-.5-1.9-1.4,0-.8.3-1.4.3-1.9,0-.6-.3-1.2-.3-1.9,0-.8.5-.9,1.2-.9h2.1c-2.3-.5-3.6-2.3-3.6-4.6,0-2,1.5-3.7,3.6-3.7,1.4,0,2.8.9,2.8,2.4,0,1.1-.7,2-1.8,2-.5,0-.8-.2-1.2-.3-.2,3.2,4.1,3.2,6.4,3.2.4,0,2,.1,2-.5,0-.3-.2-.5-.2-.9,0-1,.7-1.2,1.6-1.2,1,0,1.9.5,1.9,1.4-.1,1.5-.3,2.6-.3,3.8,0,1.1.3,2.1.3,3.2,0,1-.9,1.4-1.9,1.4-.9,0-1.6-.3-1.6-1.2,0-.4.2-.6.2-1,0-.6-1.6-.5-2-.5l-4.2-.1h0Z"/>
      <path class="cls-36" d="M437.8,20.7c.3,0,.6.3.6.3l15.4,15.4c.6.6.2,1-.3.8-.8-.4-1.5-1-3.5-1.6-2.7-.8-5-.8-6.3-.5s-3.8,1.9-3.8,5.1c0,4.2,3.9,5.4,5.3,5.4.9-.1,2.4,0,3.7-1.5,1-1.1.6-2.2.6-2.5-.1-.3-.4-.8.5-.8,1.1,0,2.4.9,3,1.5s2.3,2.7,2.3,5.7c0,1.8-.8,3.9-2.6,5.4-1.3,1.2-2.8,1.9-5,2.6-3.9,1.3-6.9,1.6-10,1.6-2.8,0-5.9-.3-9.8-1.6-2.1-.6-4-1.6-5.2-2.6-1.8-1.4-2.5-3.6-2.5-5.4,0-3,1.6-5.1,2.2-5.7.6-.6,1.9-1.5,3-1.5.9,0,.6.6.5.8,0,.3-.4,1.4.6,2.5,1.3,1.5,2.8,1.4,3.7,1.5,1.4.1,5.2-1.2,5.2-5.4,0-3.2-2.5-4.8-3.8-5.1s-3.6-.3-6.3.5c-1.9.6-2.7,1.2-3.4,1.6-.5.2-.9-.2-.3-.8l15.5-15.4s.4-.3.7-.3h0Z"/>
      <path class="cls-36" d="M437.7,77.6c.3,0,.6-.3.6-.3l15.8-16.5c.4-.4,0-.5-.3-.4-.2.1-.3.1-1.1.6-6.4,4.5-15,4.4-15,4.4,0,0-8.6.1-15-4.4-.8-.5-.9-.6-1.1-.6-.3-.1-.7,0-.3.4l15.8,16.5c-.1,0,.2.3.6.3h0Z"/>
    </g>
    <g>
      <path d="M191.1,137.4c1.3,2.3,2,4.8,2,7.4,0,3.1-.9,5.6-2.7,7.5-1.9,2-4.3,3-7.3,3s-5.4-1-7.3-3c-1.9-2-2.8-4.7-2.8-8,0-2.3.5-4.6,1.6-6.8h4.5c-1.4,2.1-2.1,4.3-2.1,6.5,0,2,.5,3.5,1.6,4.6s2.5,1.7,4.4,1.7c1.8,0,3.2-.5,4.3-1.6s1.6-2.5,1.6-4.3c0-2.3-.8-4.7-2.4-7h4.6Z"/>
      <path d="M191.1,97c1.3,2.3,2,4.8,2,7.4,0,3.1-.9,5.6-2.7,7.5-1.9,2-4.3,3-7.3,3s-5.4-1-7.3-3c-1.9-2-2.8-4.7-2.8-8,0-2.3.5-4.6,1.6-6.8h4.5c-1.4,2.1-2.1,4.3-2.1,6.4s.5,3.5,1.6,4.6,2.5,1.7,4.4,1.7c1.8,0,3.2-.5,4.3-1.6s1.6-2.5,1.6-4.3c0-2.3-.8-4.7-2.4-7h4.6v.1h0Z"/>
      <path d="M191.1,117.2c1.3,2.3,2,4.8,2,7.4,0,3.1-.9,5.6-2.7,7.5-1.9,2-4.3,3-7.3,3s-5.4-1-7.3-3c-1.9-2-2.8-4.7-2.8-8,0-2.3.5-4.6,1.6-6.8h4.5c-1.4,2.1-2.1,4.3-2.1,6.4s.5,3.5,1.6,4.6,2.5,1.7,4.4,1.7c1.8,0,3.2-.5,4.3-1.6s1.6-2.5,1.6-4.3c0-2.3-.8-4.6-2.4-7h4.6v.1h0Z"/>
    </g>
    <g>
      <path d="M151.6,137.9h0c2.1,0,4,1.7,4,3.9s-1.9,3.9-4,3.9-4-1.7-4-3.9,1.8-3.9,4-3.9M157.3,135.8h-11.4v2.2h1.5v.1c-1,.8-1.9,1.9-1.9,3.7,0,3.4,2.6,6.1,6,6.1s6-2.7,6-6.1c0-1.8-.9-2.9-1.9-3.7v-.1h1.5v-2.2h.2Z"/>
      <polygon points="148 152.9 148 149.4 145.9 149.1 145.9 159.3 148 159.3 148 155.2 157.3 155.2 157.3 152.9 148 152.9"/>
      <path d="M145.9,130v2.2h11.4v-2.2h-4.5l-.8-.8,5.3-4.3v-2.8l-6.7,5.6-4.7-4.8v2.8l4.3,4.3v.1s-.2-.1-.6-.1h-3.7Z"/>
      <path d="M151.6,99.8c2.1,0,4,1.7,4,3.9s-1.9,3.9-4,3.9-4-1.7-4-3.9,1.8-3.9,4-3.9M151.6,97.6c-3.4,0-6,2.7-6,6.1s2.6,6.1,6,6.1,6-2.7,6-6.1-2.6-6.1-6-6.1"/>
      <path d="M145.9,117.9v2.2h11.4v-2.2h-4.5l-.8-.8,5.3-4.3v-2.8l-6.7,5.6-4.7-4.8v2.8l4.3,4.3v.1s-.2-.1-.6-.1h-3.7Z"/>
    </g>
    <g id="Brandingmodul_x5F_Deichmann_x5F_quadratisch_x5F_vertikal">
      <path id="Deichmann" d="M127.5,157.4c1,0,2.1.4,2.1,1.5v1.5h-4.1v-1.3c0-1,.6-1.6,2-1.7M127.5,155.4c-2.1,0-3.7,1.2-3.7,3.5v3.6h7.5v-3.6c0-2.4-1.7-3.5-3.8-3.5M131.3,154.2v-5.9h-1.6v3.9h-1.4v-3.2h-1.6v3.2h-1.4v-3.9h-1.6v5.9h7.6ZM131.2,146.9v-2h-7.5v2h7.5ZM127.4,141.6c-1.3,0-2.3-.4-2.3-1.6,0-.9.6-1.3,1.2-1.4v-2c-1.7.1-2.8,1.4-2.8,3.4,0,2.5,1.8,3.7,4,3.7s4-1.2,4-3.7c0-2.1-1.3-3.3-2.9-3.4v2c.7.1,1.2.5,1.2,1.4,0,1.1-1.1,1.6-2.4,1.6M131.1,130.4v-2h-7.5v2h2.9v2.9h-2.9v2h7.5v-2h-3v-2.9h3ZM131.1,119.9v-1.8h-7.5v2.9l5,1.3h0l-4.9,1.4v2.9h7.5v-1.8h-5.6l5.6-1.6v-1.7l-5.6-1.6h5.5ZM128.2,112.5v1.7l-2.8-.8h0l2.8-.9ZM131,111.6v-2.1l-7.5,2.6v2.5l7.5,2.6v-2.2l-1.2-.4v-2.6l1.2-.4ZM131,103.8v-2.2h-7.5v1.9h4.7l-4.7,2.8v2.3h7.5v-1.9h-4.7l4.7-2.9ZM130.9,92.8h-7.5v1.9h4.7l-4.7,2.8v2.3h7.5v-1.9h-4.7l4.7-2.9v-2.2Z"/>
    </g>
    <g>
      <g>
        <path d="M102.6,119.1c.1-.2.2-.4.2-.6,0-.3-.1-.5-.2-.7s-.3-.4-.5-.6-.5-.3-.7-.3-.4,0-.6.1-.3.2-.5.4c-.1.2-.2.4-.2.7,0,.2.1.5.2.7s.3.4.5.6c.2.1.4.2.6.3.3,0,.5,0,.7-.1.2-.2.4-.4.5-.5Z"/>
        <path d="M100.1,135.1v.6l1.2.2v-.6c0-.1-.1-.3-.2-.4-.1-.1-.2-.2-.4-.2s-.3,0-.4.1-.2.1-.2.3Z"/>
        <path d="M95.8,126.5c0,7.7,2.5,13.9,5.7,13.9s5.7-6.2,5.7-13.9-2.5-13.9-5.7-13.9c-3.2,0-5.7,6.3-5.7,13.9ZM101.4,120.8c-.5-.1-.9-.3-1.3-.6-.4-.3-.7-.7-.9-1.1-.2-.4-.3-.9-.3-1.3,0-.5.1-.9.3-1.2.2-.4.5-.6.9-.8.4-.2.8-.2,1.3-.2.5.1,1,.3,1.4.6.4.3.7.6.9,1.1.2.4.3.9.3,1.4s-.1,1-.3,1.3c-.2.4-.5.6-.9.8-.4.1-.9.1-1.4,0ZM101.9,134c.3.3.4.8.4,1.3v.7l1.6.3v1.2l-4.8-.7v-1.9c0-.3.1-.6.2-.9.1-.2.3-.4.5-.5s.5-.1.9-.1c.5.1.9.3,1.2.6ZM100.9,129.6l1,.2v2.1l.8.1v-2.2l1.1.2v3.4l-4.8-.8v-3.4l1.1.2v2.2l.8.1v-2.1ZM100.7,125.2c.6.1,1,.3,1.2.6.3.3.4.8.4,1.3v.7l1.6.3v1.2l-4.8-.8v-1.9c0-.3.1-.6.2-.9.1-.2.3-.4.5-.5.2-.1.5-.1.9,0ZM101.5,124.9c-.3-.1-.6-.2-.9-.3-.3-.2-.6-.4-.8-.6-.2-.3-.4-.6-.6-.9-.1-.3-.2-.7-.2-1,0-.4.1-.8.2-1.1l1.5.2c-.2.1-.3.2-.4.4-.1.2-.1.4-.1.6,0,.3.1.5.2.7s.3.4.5.5.4.2.7.3c.4.1.7,0,.9-.2.2-.2.4-.5.4-.9,0-.2,0-.4-.1-.6s-.2-.4-.4-.5l1.5.2c.1.2.1.4.2.6,0,.2.1.4.1.5,0,.3-.1.6-.2.9s-.3.5-.5.7-.5.4-.8.5c-.5.1-.9.1-1.2,0ZM106.6,122.8c.3,2.8.2,2.5,0,0-.9-5-2.9-8.8-5.4-8.8-.8,0-1.6.3-2.3,1.1.3-.5.6-1,1-1.2.5-.4,1.1-.6,1.6-.6,2.4,0,4.5,4.3,5.1,9.5Z"/>
        <path d="M100.1,126.8v.6l1.2.2v-.6c0-.1-.1-.3-.2-.4-.1-.1-.2-.2-.4-.2s-.3,0-.4.1c-.1.1-.2.2-.2.3Z"/>
      </g>
      <path d="M95.8,133.6c-3.4-16.3,2.1-23,5.7-22.2h.2c-3.6-2.4-10.1-.7-8.7,11.9.3,2.7,1.4,6.7,2.8,10.3"/>
      <path d="M107.1,119.5c3.4,16.3-2.1,23-5.7,22.2h-.2c3.6,2.4,10.1.7,8.7-11.9-.2-2.7-1.4-6.7-2.8-10.3"/>
    </g>
    <g>
      <path d="M59,127.7c0,13.7,6.2,24.3,14.1,24.3s14.1-10.7,14.1-24.3-6.2-24.3-14.1-24.3c-7.9-.1-14.1,10.6-14.1,24.3ZM85.4,127.7c0,12.5-5.5,22.7-12.4,22.7s-12.4-10.1-12.4-22.7,5.5-22.7,12.4-22.7,12.4,10.1,12.4,22.7Z"/>
      <path d="M80.6,141.1c-.8,0-.6.9-1,.9-.1,0-.2-.1-.2-.3,0-.1,0-.3.1-.4h-.6v.4c0,.6.3,1,.8,1,.8,0,.6-.9,1-.9.1,0,.2.1.2.3s0,.4-.1.5h.6v-.5c.1-.6-.3-1-.8-1"/>
      <path class="cls-36" d="M79.8,138.7c.2,0,.3.2.3.3v.1h-.6v-.1c0-.3.1-.3.3-.3M79.8,138c-.5,0-.8.4-.8,1v.7h2.5v-.7h-.8v-.1c0-.6-.5-.9-.9-.9Z"/>
      <path class="cls-36" d="M80.2,135.1c.5,0,.7.3.7.5,0,.3-.3.5-.7.5-.5,0-.6-.2-.6-.5-.1-.4.2-.5.6-.5M80.2,134.3c-.9,0-1.2.5-1.2,1.2s.5,1.2,1.3,1.2,1.2-.4,1.2-1.2c0-.6-.5-1.2-1.3-1.2Z"/>
      <path class="cls-36" d="M79.8,131.9c.2,0,.3.1.3.3v.1h-.5v-.1c-.1-.2,0-.3.2-.3M81.4,131l-.7.4c-.1.1-.2.1-.3.2-.1-.3-.4-.4-.7-.4-.5,0-.8.3-.8,1v.8h2.5v-.7h-.9l.9-.5v-.8Z"/>
      <polyline points="79.5 128.2 79 128.2 79 130 79.5 130 79.5 129.4 81.4 129.4 81.4 128.8 79.5 128.8 79.5 128.2"/>
      <path d="M80.6,125.4c-.8,0-.6.9-1,.9-.1,0-.2-.1-.2-.3s0-.3.1-.4h-.6v.4c0,.6.3,1,.8,1,.8,0,.6-.9,1-.9.1,0,.2.1.2.3s0,.4-.1.5h.6v-.5c.1-.6-.3-1-.8-1"/>
      <path d="M71.2,140.6v2.6h-4.3c-.6,0-.8-.3-.8-.3v3.2s.2-.3.8-.3h9.8c.6,0,.8.4.8.4v-3.4s-.2.3-.8.3h-4.5v-2.6h4.5c.6,0,.8.3.8.3v-3.2s-.2.3-.8.3h-9.8c-.6,0-.8-.4-.8-.4v3.2s.2-.3.8-.3c.4.2,4.3.2,4.3.2"/>
      <path d="M73.6,130.3c-2.2,0-4.1,1.4-4.1,3.3s1.8,3.5,4.1,3.5,4.1-1.6,4.1-3.5c0-1.6-1.3-2.9-3.1-3.3v.9s.7.1,1.4.7c.6.5.6,1.2.6,1.6-.1,1.1-1.3,1.2-3,1.2v-4.4h0ZM72.8,134.7c-1.3,0-2.3-.3-2.3-1.1s.9-1.1,2.3-1.1v2.2Z"/>
      <path d="M69.7,125.8c0-.8.1-1.3.1-1.4.2-.7.7-1,1.2-1,.6,0,1,.5,1,1.2s-.5,1.2-1,1.2c-.3,0-.6-.2-.8-.4,0,0-.2.7.3,1.2.3.2.6.2.6.2h5.6c.6,0,.8-.3.8-.3v3.2s-.2-.3-.8-.3h-6.2c-.6,0-.8.4-.8.4v-4"/>
      <path d="M77.5,121.8l-3.9-1.6c-.4-.1-.5.3-.5.3v-1.9s.1.4.5.7l6.7,2.7v1.6l-6.7,2.2c-.4.1-.5.5-.5.5v-3.5c.2.4.5.3.5.3l3.9-1.3"/>
      <path d="M69.7,115.5v3.1s.2-.3.8-.3h6.2c.6,0,.8.3.8.3v-3.1s-.2.3-.8.3h-6.2c-.5,0-.8-.3-.8-.3"/>
      <path d="M68.1,118.2c-.6,0-1-.5-1-1.2s.5-1.2,1-1.2,1,.5,1,1.2-.5,1.2-1,1.2"/>
      <path d="M74,113.1c.3-.6.5-1.3.7-1.7.2-.4.6-.7,1-.7.7,0,1.2.7,1.2,1.6,0,.3-.1.7-.2.9-.1-.3-.4-.7-.9-.7-.6,0-1,.5-1,1.2,0,.5.3.9.6,1.1,0,0,.3.1.6.1.1,0,.2-.1.3-.1.8-.4,1.3-1.3,1.3-3.2,0-2.1-1.1-3.6-2.4-3.6-.6,0-1.1.2-1.5.7-.3.3-.5.6-.9,1.5-.2.5-.4,1.1-.6,1.4-.2.4-.5.7-1,.7-.6,0-1.1-.6-1.1-1.3,0-.2,0-.3.1-.5v.1c.2.2.5.4.8.4.6,0,1-.5,1-1.2s-.5-1.2-1-1.2c-.4,0-.8.3-1,.7-.3.5-.5,1.2-.5,2,0,1.8,1.1,3.2,2.4,3.2.9,0,1.7-.5,2.1-1.4h0"/>
    </g>
    <g>
      <path d="M360.5,174.2v-6.9h.8v6.9h-.8Z"/>
      <polygon points="367.6 167.3 367.6 171.7 366.5 167.3 365.6 167.3 365.6 174.2 366.4 174.2 366.4 169.8 367.6 174.2 368.4 174.2 368.4 167.3 367.6 167.3"/>
      <polygon points="356.1 167.3 356.1 170.3 355.1 170.3 355.1 167.3 354.3 167.3 354.3 174.2 355.1 174.2 355.1 171.1 356.1 171.1 356.1 174.2 356.8 174.2 356.8 167.3 356.1 167.3"/>
      <path d="M362.7,168.7v.4c.1-.1.3-.4.8-.4.7,0,.8.6.8.9v3.7c0,.5-.1,1.1-.8,1.1-.3,0-.6-.2-.7-.4v1.7h-.8v-6.9h.7v-.1ZM363.4,169.8c0-.3,0-.5-.3-.5-.4,0-.4.4-.4.6v3.2c0,.1,0,.5.4.5.3,0,.4-.3.4-.5v-3.3h-.1Z"/>
      <path d="M371.7,169.3v-.7h.5v-1.4h.8v1.4h.4v.7h-.4v3.9c0,.3.1.3.3.3h.1v.6c-.1,0-.2.1-.4.1-.7,0-.8-.2-.8-.8v-4.1h-.5Z"/>
      <path d="M359.8,173c0,.9-.4,1.3-1.2,1.3-.6,0-1.1-.2-1.1-1.2v-3.4c0-.6.3-1.1,1.2-1.1.7,0,1.1.4,1.1,1.2v2h-1.5v1.5c0,.2,0,.4.4.4s.4-.3.4-.5v-.8h.8l-.1.6h0ZM359,169.7c0-.3,0-.5-.4-.5s-.4.3-.4.6v1.3h.8v-1.4Z"/>
      <path d="M371.4,173c0,.9-.4,1.3-1.2,1.3-.6,0-1.1-.2-1.1-1.2v-3.4c0-.6.3-1.1,1.2-1.1.7,0,1.1.4,1.1,1.2v2h-1.5v1.5c0,.2,0,.4.4.4s.4-.3.4-.5v-.8h.8l-.1.6h0ZM370.6,169.7c0-.3,0-.5-.4-.5s-.4.3-.4.6v1.3h.8v-1.4Z"/>
    </g>
    <g>
      <g>
        <path d="M359.3,258.5h.2v2.1h-.2v-.3l-.3.3c-.2.1-.4,0-.5-.1-.2-.1-.3-.3-.3-.6,0-.2,0-.4.1-.5.1-.2.2-.3.4-.4h.4c.1.1.2.1.3.3-.1-.2-.1-.5-.1-.8ZM358.7,259.2h-.1c-.2.1-.3.3-.3.6,0,.1,0,.3.1.4s.2.2.3.2c.2,0,.4-.1.5-.3.1-.1.1-.3.1-.5s-.1-.3-.2-.4c-.1,0-.3,0-.4,0Z"/>
        <path d="M352.1,258.5c.1,0,.2.1.2.2s-.1.2-.2.2-.2-.1-.2-.2.1-.2.2-.2Z"/>
        <path d="M360.1,258.5h.1l.1.1v.1s-.1.1-.2,0l-.1-.1s0,0,.1-.1Z"/>
        <path d="M353.2,259.1c.1,0,.2-.1.3,0,.1,0,.2.1.2.3v1.3h-.3v-1q0-.1-.1-.2c-.1,0-.1-.1-.2,0-.1,0-.1.1-.2.2v1h-.3v-1.5h.3v.2c.1-.2.2-.3.3-.3Z"/>
        <path d="M354.6,259.1c.1-.1.2-.1.4,0,.1,0,.2.1.2.2s.1.1.1.2c.1-.1.1-.2.2-.3.1-.1.2-.1.3-.1s.2.1.3.2c.1.1.1.3.1.4v.9h-.2v-1.1q0-.1-.1-.2c-.1-.1-.2-.1-.2-.1-.1,0-.3.1-.3.3,0,.1-.1.2-.1.3v.8h-.2v-1.2c0-.1-.1-.1-.2-.2-.1,0-.2,0-.3.1-.1.1-.1.2-.1.3v1h-.2v-1.5h.2v.3c-.1-.2,0-.3.1-.3Z"/>
        <path d="M356.9,259.1c.1-.1.3-.1.4-.1s.2.1.3.2c.1.1.2.2.2.3s.1.2.1.3h-1.2c0,.1,0,.3.1.4s.2.2.3.2.3,0,.4-.1.1-.2.2-.3l.1.1c-.1.1-.1.2-.2.3-.1.1-.2.1-.3.1s-.3,0-.4-.1-.2-.2-.2-.3c-.1-.3-.1-.6,0-.8,0,0,.1-.1.2-.2ZM356.9,259.3c-.1.1-.2.2-.2.3h1c0-.1-.1-.2-.1-.3-.2-.1-.5-.2-.7,0Z"/>
        <path d="M351.8,259.4v-.3h.5v1.5h-.3v-1.2h-.2Z"/>
        <path d="M359.8,259.1h.4v1.5h-.2v-1.3h-.2q0-.1,0-.2Z"/>
      </g>
      <path d="M361.2,259c.1,0,.3,0,.4.1l.3.3c.1.2.1.4.1.5,0,.2-.2.5-.4.6-.1.1-.3.1-.5.1-.1,0-.2-.1-.3-.2-.1-.1-.1-.2-.2-.4,0-.2,0-.3.1-.5,0-.1.1-.2.2-.3,0-.1.2-.2.3-.2ZM361.2,259.4c-.1,0-.1.1-.2.1-.1.1-.1.2-.1.3v.2c0,.1.1.1.2.2h.2c.1,0,.2-.1.2-.1.1-.1.1-.2.1-.3v-.2c0-.1-.1-.2-.2-.2h-.2Z"/>
    </g>
    <g>
      <path class="cls-36" d="M29.1,101.2c1.1-1,1.4-3.1.7-5.3h0c-.1-.3-.5-.3-1.2-.3l-1-2.9c-.1-.4-.5-.6-.9-.5-.4.2-.5.5-.4.9l.9,2.7c-.3.1-.5.1-.8.2s-.5.2-.8.3l-.9-2.8c-.1-.3-.5-.5-.9-.4-.3.1-.5.5-.4.9l1,3c-.6.4-.9.7-.9.9h0c.7,2.2,2.2,3.7,3.7,3.9h0c.1,0,.3.1.3.3,0,0,2.6,11.9,2.6,27.3,0,18.6-3.8,27.3-5,31.8-.1.3-.1.5.2.7.3.1.5-.1.7-.3.1-.1,7.1-11.9,7.1-32.2,0-14.1-2.5-23-3.9-27.8h0v-.1c-.3-.1-.3-.2-.1-.3h0Z"/>
      <path class="cls-36" d="M22.6,136.2h0l-3.5-1.6,3.5-.5v2.1h0ZM16,133.7c0,1.4.3,2.3,1.6,2.9,0,0,8.3,4.1,8.5,4.2v-3.1l-1.3-.6v-3.4s1.2-.2,1.3-.2v-3.5c-.1,0-9.8,1.8-9.9,1.8-.2.7-.2,1.3-.2,1.9h0ZM18.7,147.4c-.1,0-2.3-.3-2.5-.3v4.2c0,2.1,1,2.7,2.8,3,0,0,6,.9,6.1.9.1-.1.7-2.9.8-3-.2-.1-3-.5-3-.5v-2.5c-.1,0-2.3-.3-2.4-.4v2.5l-1.8-.3c0,.1,0-3.4,0-3.6h0ZM16.2,142.9v3.1c.1,0,7.3,1.1,7.3,1.1l.9.1c.5,0,.9-.1,1.1-.3.4-.3.5-.9.5-1.8v-3.4c-.1-.1-2.7-.4-2.9-.5v2.6s-6.7-.9-6.9-.9h0ZM21.1,101.9c1.7.2,2.3,1.3,2.3,2.3,0,.5-.2.9-.6,1.2-.4.4-1.1.5-1.8.5-1.6-.2-2.3-1.2-2.3-2.2,0-.5.1-.9.5-1.3s1.1-.6,1.9-.5h0ZM17.3,99.6c-.9.8-1.4,2.1-1.4,3.8,0,2.7,2,5.7,5.3,5.9h.5c1.2,0,2.3-.4,3.1-1.1.9-.8,1.4-2.1,1.4-3.7,0-.5-.1-.9-.2-1.5-1.7-.6-3.1-2.2-3.9-4.3-.4-.1-.9-.2-1.4-.3h-.5c-1.1.1-2.2.5-2.9,1.2h0ZM18.6,111.4c0-.5.1-1.1.2-1.5-.1-.1-2.6-.7-2.7-.7-.1.5-.1,1.2-.1,1.6,0,4,2.8,6.2,5.4,6.6,1.5.2,2.7,0,3.5-.8.9-.7,1.3-2,1.3-3.6,0-.8-.1-1.6-.3-2.4-.1,0-2.6-.1-2.8-.2.2.5.2.9.2,1.5s-.2,1.2-.6,1.5c-.4.4-1,.5-1.7.4-1.6-.2-2.4-1.4-2.4-2.4h0ZM19.8,121.3c.7.1,1.5.1,1.5.1l.9.1-1.3.4c-.9.3-2.9.9-4.7,1.3v4.4c.1,0,9.7,1.5,9.9,1.5v-3c-.1,0-3.5-.6-4.1-.6-.7-.1-2-.3-2-.3,0,0,1.2-.3,1.6-.5.5-.1,2.2-.6,2.6-.7,1.9-.6,2.2-1.5,2.2-3.2,0-.6-.1-1.1-.2-1.7,0,0-9.7-1.5-9.9-1.5v3c0,.1,2.8.6,3.5.7h0Z"/>
    </g>
    <g>
      <path d="M337.5,396.5c0-1.4,1-2.1,1.8-2.3.7-.2,2.7-.2,3.4-.8.7-.6,1.1-1.4,1-2.4s-.3-3.3-3.8-3.5c-1.2-.1-2.4.4-3.3,1.1v22.7h6c.2-.6.2-1.3.2-1.3v-.6c.1-2.3-.7-5.2-2.4-7.5-1.8-2.3-2.9-4-2.9-5.4ZM340.3,389.2c.1-.1.3-.2.4-.2.3,0,.6.1.8.4.3.3.4.6.4.8s-.1.3-.2.4c-.3.3-.9.2-1.3-.2-.2-.2-.4-.5-.4-.8.1-.1.2-.3.3-.4Z"/>
      <path d="M346.9,391.7c.7,0,.6-.3.6-.3-.3-.3-2.3-1.4-2.3-1.4-.3.7.1,1.5.1,1.5,0,0,.9.1,1.6.2Z"/>
      <path d="M336.5,384.6v2.2c.8-.4,2-.8,3.5-.8,2.9,0,4.2,1.9,4.2,1.9,0,0,1.7.7,2.9,1.6,1.2.9,2.2,1.9,2.3,2.1.1.1.3.7-.4.9-.7.2-2.2.5-3.7.5,0,0-1,1.7-2.5,2.3-1.6.5-3.3,0-3.4,1.4-.1,1,.8,2.2,1.1,2.6.3.5,4,4.2,3.8,9.8,0,1.1-.2,1.9-.2,2.1h50.9v-26.7h-58.5v.1h0ZM355.9,399.8c0,2.4-1.7,4.2-4.2,4.2-1.3,0-2.7-.6-3.6-1.3l1.5-3.8c.2.6.5,1.3,1.2,1.3s.8-.8.8-1.3v-7.3h4.3v8.2h0ZM365.2,403.8h-4.3v-5.3l-4.3-6.9h5l1.4,3.2h.1c.1-.4.2-.8.4-1.2l.9-2h5l-4.2,6.9v5.3ZM373.1,404c-1.5,0-3.3-.4-4.7-1.1l1.4-3.4.2.2c.8.6,1.7,1.1,2.8,1.1.4,0,1.1-.2,1.1-.7s-.6-.6-1-.7l-.9-.2c-1.7-.3-3.2-1.3-3.2-3.2,0-2.9,2.6-4.5,5.3-4.5,1.4,0,2.7.3,3.9,1.1l-1.2,3.1c-.8-.5-1.6-.9-2.6-.9-.4,0-1,.1-1,.6s.6.5.9.6l1,.2c1.9.4,3.2,1.4,3.2,3.5.1,2.9-2.5,4.3-5.2,4.3ZM386.9,403.8l-2.1-3.7c-.3-.5-.6-.9-.7-1.4h-.1l.1,5.1h-4.3v-12.2h4.3l-.1,5.3h.1c.1-.5.4-.9.6-1.4l2.1-3.9h4.8l-3.8,5.9,4.2,6.3h-5.1Z"/>
    </g>
    <g>
      <polygon points="239.6 161.2 241.1 157.7 248.1 153.6 242.4 153.6 243.1 150.6 254 150.6 254 153.3 246 158.1 254 158.1 254 161.2 239.6 161.2"/>
      <polygon points="243.4 149.4 254 149.4 254 142.5 251.5 142.5 251.5 146.2 249.9 146.2 249.9 143.3 248 143.3 247.7 146.2 246.4 146.2 246.7 143.2 244.4 143.2 243.4 149.4"/>
      <polygon points="244.5 142.5 254 140.4 254 137.8 249 136 254 134.7 254 132.1 245.9 129.8 245.7 132.3 249.9 133.5 245.5 134.6 245.3 137.1 249.9 138.7 244.9 139.7 244.5 142.5"/>
      <polygon points="254 127.1 254 125.4 246 125.4 238.3 120.1 238.3 123.9 243.5 127.1 238.3 130.3 238.3 134.1 246 128.8 254 128.8 254 127.1"/>
      <path d="M245.5,120.6l.2,2.6,1.2,1.2h5.9l1.3-1.3v-2.5l-1.3-1.2h-6.1l-1.2,1.2h0ZM252.4,121.3v1.3h-4.9v-1.3h4.9Z"/>
      <path d="M246,113.7l-1,.9.4,4h8.7v-2h-3.5v-1.1h3.5v-1.9h-4l-.7.6-.7-.6-2.7.1h0ZM248.7,115.6v1.1h-1.9v-1.1h1.9Z"/>
      <polygon points="244.7 112.7 254 112.7 254 110.3 250.2 110.3 254 108.4 254 105.9 248.6 108.6 243.6 106.3 244.1 108.7 247.3 110.3 244.4 110.3 244.7 112.7"/>
      <polygon points="243.6 105.8 242.4 100.8 244.6 100.8 245.2 103.1 246.8 103.1 246.5 100.8 249 100.8 249.2 103.1 251.5 103.1 251.5 100.7 254 100.7 254 105.8 243.6 105.8"/>
      <path class="cls-36" d="M246.3,97.2h-2.6l-.4-1.6h2.8l.2,1.6h0ZM254,99.8v-2.6h-5.1l-.1-1.6h5.2v-2.7h-5.5l-1.2.9-1.3-.8h-4.3l-1.3,1.2,1.9,5.6h11.7Z"/>
    </g>
    <g>
      <path d="M331.8,20.1h-.4l-.1.4c.2,0,.5.2.3.4l-2.5,1.9.5-1.9c.1-.4.5-.4.5-.4l.1-.4h-3l-.1.4c.1,0,.5.1.4.7-1,3.6-.9,3.2-.9,3.4-.3,1-.7,1-.9,1l-.1.4h3.1l.1-.4s-.5-.1-.4-.5.5-1.8.5-1.8c1.4,2.2,1.7,2.6,2.9,2.7h1.6l.1-.4c-.4,0-.7-.3-.8-.5-.1-.1-.5-.7-.9-1.3-.3-.5-.7-1-.7-1l.7-.5,1.9-1.5c.4-.4.7-.3.7-.3l.1-.4h-2.7Z"/>
      <path d="M344.5,20h-1c-2.5.3-4,1.9-4,3.4,0,1.3,1.1,2.6,3.5,2.6h.5c.6,0,1.1-.1,1.6-.2l.3-1.2c-.5.2-1.1.3-1.6.3h-.3c-1.1-.1-1.9-.8-1.9-1.8s.7-1.7,1.9-1.9c.2,0,.4-.1.6-.1.8,0,1.1.2,1.4.6h.2l.4-1.5c-.3,0-1-.2-1.6-.2Z"/>
      <path d="M337.9,20.1h-2.9l-.1.4s.6.1.4.7l-1.3,4.9h2.7l.1-.4s-.5-.1-.4-.6l.4-1.4h1.2c.6,0,.8.3.8.3l.4-1.4h-2.1l.3-1.1h1.7c.3,0,.6.2.6.4h.2l.4-1.6h-2.4v-.2h0Z"/>
    </g>
    <g class="cls-39">
      <path d="M313.5,125.8c0-.6.4-1,1-1,.3,0,.6.2.8.4l-.3.2c-.1-.2-.3-.3-.5-.3-.3,0-.6.3-.6.6s.3.6.6.6c.2,0,.4-.1.5-.3l.3.2c-.2.2-.5.4-.8.4-.6.2-1-.2-1-.8Z"/>
      <path d="M315.5,126.1v-1.2h.4v1.2c0,.3.1.4.4.4.2,0,.4-.1.4-.4v-1.2h.4v1.2c0,.5-.3.7-.7.7-.5,0-.9-.2-.9-.7Z"/>
      <path d="M318,126.1h-.2v.7h-.4v-1.9h.7c.4,0,.6.3.6.6,0,.2-.1.5-.4.6l.5.7h-.4l-.4-.7ZM317.8,125.8h.3c.2,0,.3-.1.3-.3,0-.1-.1-.3-.3-.3h-.3v.6Z"/>
      <path d="M320.1,126.4h-.7l-.1.4h-.4l.7-1.9h.3l.7,1.9h-.4l-.1-.4ZM319.6,126h.4l-.2-.6-.2.6Z"/>
      <path d="M320.6,125.3v-.4h1.5v.4h-.5v1.5h-.5v-1.5h-.5Z"/>
      <path d="M323.1,126.4h-.7l-.1.4h-.4l.7-1.9h.3l.7,1.9h-.4l-.1-.4ZM322.5,126h.4l-.2-.6-.2.6Z"/>
      <path d="M323.5,125.3v-.4h1.5v.4h-.5v1.5h-.4v-1.5h-.6Z"/>
      <path d="M325,125.8c0-.5.4-1,1-1s1,.4,1,1c0,.5-.4,1-1,1-.5,0-1-.4-1-1ZM326.6,125.8c0-.4-.3-.6-.6-.6s-.6.3-.6.6.3.6.6.6.6-.2.6-.6Z"/>
      <path d="M327.9,126.1h-.2v.7h-.4v-1.9h.7c.4,0,.6.3.6.6,0,.2-.1.5-.4.6l.5.7h-.4l-.4-.7ZM327.7,125.8h.3c.2,0,.3-.1.3-.3,0-.1-.1-.3-.3-.3h-.3v.6Z"/>
      <path d="M329.4,124.9v1.9h-.4v-1.9h.4Z"/>
      <path d="M329.8,124.9h1.3v.4h-.9v.4h.8v.4h-.8v.4h.9v.4h-1.3v-2Z"/>
    </g>
    <g>
      <path class="cls-34" d="M365.6,258.5c-.4.4-.5.6-.5.8,0,.5.6.9,1.4,1.3-.3-.2-.5-.5-.7-.7-.1-.2-.1-.3,0-.4l.2-.2c.6-.5.6-1,.1-1.8.2.8-.1,1.3-.6,1.9-.1-.2-.1-.3,0-.6,0,0,.1-.2.1-.3h0Z"/>
      <path class="cls-34" d="M367.9,259.7c0-.2.1-.3.3-.4.1-.1.3-.2.5-.2s.3.1.4.2.1.3.1.4c0,.2-.1.3-.3.4-.1.1-.3.2-.5.2s-.3-.1-.4-.2c-.1-.1-.1-.2-.1-.4h0Z"/>
      <path class="cls-34" d="M366.7,258.1c.1.4,0,.9-.4,1.4-.2.3-.1.6.1.8-.1-.4.1-.7.4-1l.1-.4h.3c.1-.1-.1-.4-.5-.8Z"/>
      <path class="cls-34" d="M369.8,259.6h.3l.1-.1v-.1h-.3l-.1.2ZM366.8,260.3l.2-1.2h.9l-.1.3h-.5v.2h.4l-.1.3h-.4l-.1.4h-.3ZM369.2,260.3l.2-1.2h.6c.2,0,.3,0,.4.1s.1.1.1.3q0,.1-.1.2s-.1.1-.2.1q.1,0,.1.1v.4h0v.1h-.4v-.1h0v-.2h-.3l-.1.4-.3-.2h0ZM370.6,260.3l.2-1.2h.4l.3.6.1-.6h.4l-.2,1.2h-.4l-.3-.6-.1.6h-.4ZM372,260.3l.2-1.2h1l-.1.3h-.6v.2h.5l-.1.3h-.5v.2h.6l-.1.3-.9-.1h0ZM373.5,260.3l.2-.9h-.4l.1-.3h1.1l-.1.3h-.3l-.2.9h-.4ZM374.7,260.3l.2-.9h-.4l.1-.3h1.1l-.1.3h-.3l-.2.9h-.4ZM375.6,260.3l.2-1.2h.4l-.2,1.2h-.4Z"/>
    </g>
    <path class="cls-26" d="M100.82,295.11l.9-1.4c.5-.8,1.4-1.2,2.3-1.2h14.8c.9,0,1.8.5,2.3,1.2l.9,1.4c.5-.1.9-.1,1.4-.3l5.6-1.3v-4.4c-.2.1-.4.1-.6.1-1.1.2-2,.3-3.2.3-.6,0-1.5-.1-2.3-.2-1-.2-1.8-.4-2.1-.9-1.6.6-3.4.8-5.2.6-2.3-.3-3.8-.5-4.4-.5s-2.1.2-4.4.5c-1.8.3-3.6,0-5.3-.7h-.1c-.6.3-1.2.6-2,.7-1.1.2-2,.3-3.2.3-.6,0-1.5-.1-2.3-.2-.2,0-.4-.1-.5-.1v4.2l5.6,1.3c.9.4,1.3.5,1.8.6ZM102.92,295.21h17l-.3-.5c-.2-.3-.5-.4-.8-.4h-14.7c-.3,0-.6.2-.8.4l-.4.5ZM93.82,287.41c.2.1.5.1.8.2.6.1,1.5.2,2,.2,1,0,1.9-.1,2.7-.3h.1c-2.1-.9-4-1.4-5.6-1.5v1.4ZM91.92,287.81h0v-1.7c0-.6.2-1.3.5-1.8l1.8-3.2-3.4-.6h0c-.1,0-.2,0-.2-.1-.4-.2-.5-.6-.3-1l.3-.5c.1-.2.3-.4.6-.5h0l2.5-.6c.5-.1,1,.2,1.1.6h0l.3.9,2.6-7.1c.7-1.8,2.4-3.1,4.4-3.1h19c2,0,3.7,1.2,4.4,3.1l2.5,6.9.2-.7c.1-.5.6-.8,1.1-.7l2.6.6c.3.1.5.2.6.5l.3.6c.2.4.1.8-.3,1-.1,0-.2.1-.2.1l-3.4.5,1.8,3.2c.3.6.5,1.2.5,1.8v11c0,1.5-1.2,2.8-2.8,2.8h-4.6c-1.5,0-2.8-1.2-2.8-2.8h-18.6c0,1.5-1.2,2.8-2.8,2.8h-4.6c-1.5,0-2.8-1.2-2.8-2.8v-9.2h-.3ZM129.12,287.21v-1.3c-1.7.2-3.7.7-5.9,1.6h.2c.6.1,1.5.2,2,.2,1,0,1.9-.1,2.7-.3.4,0,.7-.1,1-.2ZM94.52,284.21c2.2.3,4.7,1.1,7.4,2.4,1.5.7,3.2,1,4.8.7,2.4-.3,3.9-.5,4.6-.5s2.3.2,4.6.5c1.6.2,3.3,0,4.8-.7,2.7-1.3,5.2-2.1,7.4-2.4l-1.6-2.8-4.2.7c-.6.1-1.1.1-1.7.1h-18.9c-.6,0-1.1,0-1.7-.1l-4.2-.7-1.3,2.8ZM122.62,296.91v.2c0,.5.4.9.9.9h4.6c.5,0,.9-.4.9-.9v-1.6l-5.2,1.2c-.4,0-.8.1-1.2.2ZM100.32,296.91c-.4-.1-.9-.1-1.3-.2l-5.2-1.2v1.6c0,.5.4.9.9.9h4.6c.5,0,.9-.4.9-.9.1-.1.1-.2.1-.2ZM123.52,272.91c-.4-1.1-1.4-1.8-2.6-1.8h-19c-1.2,0-2.2.7-2.6,1.8l-2.4,6.7,3.7.6c.5.1.9.1,1.4.1h18.9c.5,0,.9,0,1.4-.1l3.7-.6-2.5-6.7Z"/>
    <g>
      <path d="M382.6,337.4h-4.9c-.5,0-.7-.2-.7-.7v-.1q0-1.3,1.3-1.5c.6-.1.9-.4.7-1-.4-1.2-.7-2.4-1.2-3.6,0-.1-.3-.3-.4-.3h-7.5c-.1,0-.4.2-.4.3-.5,1.1-.9,2.1-1.3,3.2-.3.9-.1,1.3.9,1.4h1.1c.6.4.2,1.1.3,1.7.1.3-.2.5-.5.5h-6.7c-.4,0-.6-.2-.6-.6v-.1c0-.4-.1-1,.1-1.3.2-.2.8-.2,1.2-.3.7-.1,1.1-.5,1.3-1.2,1.9-4.6,3.8-9.2,5.7-13.8,1-2.4,2.1-4.9,3.1-7.3.2-.5.5-.7,1-.6h2.2c.5,0,.8.2.9.7,2,5.9,4.1,11.8,6.2,17.6.4,1.2.8,2.3,1.2,3.5.3.9.7,1.2,1.7,1.2q.8,0,.8.8c0,1.5.1,1.3-1.3,1.3-1.4.2-2.8.2-4.2.2ZM374.3,318.7c-1.3,3.3-2.6,6.5-3.9,9.7h6.8c-.9-3.3-1.9-6.4-2.9-9.7Z"/>
      <path d="M358.7,333.8v3c0,.4-.2.6-.6.6h-1.1c-.2,0-.4-.1-.5-.3-.3-.4-.5-.4-.9-.3-1.3.3-2.7.6-4,.7-5.8.4-10.1-2.6-11.7-8.2-1.1-3.9-.9-7.7.9-11.3,2.1-4.3,6.4-6.2,10.9-5.8,1.1.1,2.2.4,3.2.9.7.3,1,.2,1.4-.4.1-.2.4-.3.6-.3.4-.1.8,0,1.1,0,.4,0,.5.2.5.5v6c0,.4-.2.6-.6.6q-1.5.1-1.8-1.4c-.3-1.4-.9-2.7-2.3-3.3-2.4-1.1-4.6-.6-6,1.7-.9,1.5-1.3,3.1-1.5,4.8-.4,3.4-.3,6.7.6,10,.3.9.7,1.7,1.2,2.5,1.6,2.4,6.8,2.2,7.8-1.2.2-.6.4-1.3.5-1.9.1-.3.2-.5.6-.5,2,0,1.6-.3,1.6,1.6.1.7.1,1.3.1,2Z"/>
      <path d="M362.6,323.5c.4.6.8,1.2,1.3,2,.3-.7.6-1.3.9-1.9.1-.3.3-.4.6-.4h2.2c-.2.5-.2,1.1-.9,1.1-.2,0-.3.2-.5.4-.5.7-.9,1.3-1.4,2.1.4.6,1.1.7,1.8.7-.1.9-.2,1-1.1,1-.7,0-1.4-.1-2-.6-1,.7-2.1.9-3.3.7-1.3-.2-2.2-1-2.4-2.1-.2-1,.3-2,1.4-2.7.3-.2.6-.3.7-.4-.1-.6-.4-1.2-.4-1.8,0-.5.3-1,.6-1.4.9-1,2.8-1.1,3.8-.3,1,.7,1.1,2.1.1,2.9-.5.1-.9.4-1.4.7ZM362.5,326.8c-.7-.9-1.3-1.8-2-2.7-.7.5-1,1.2-.9,2,.1.6.4,1.1,1,1.3.8.2,1.4.1,1.9-.6ZM361.7,322.6c.8-.4,1.1-.9,1.1-1.5s-.3-1-.8-1-.9.4-.8.9c.1.5.4,1,.5,1.6Z"/>
    </g>
    <g>
      <g>
        <path d="M356.9,21.4v.6c0,.1.1.2.2.1.3-.1.5-.3.5-.6,0-.2.1-.2.3-.3.6,0,1.2-.2,1.8-.4,0,0,.1-.1.1,0v.1c-.2.6-.4,1.3-.5,1.9s0,1.1.1,1.7c0,.2,0,.3-.2.2-.7-.1-1.3,0-1.9.1-1.6.3-2.4-1-2.5-2,0-.5.2-1,.6-1.4.6-.7,1.3-1.1,2.1-1.5.1,0,.2-.1.2,0,.1.2,0,.3-.1.4-.2.1-.4.2-.6.2-.1,0-.2.1-.2.3.1.2.1.4.1.6h0Z"/>
        <path d="M359.1,26.5c-.2,0-.3-.1-.4-.1-.3,0-.5,0-.7.1-.7.3-1.4.5-2.2.5-1.6,0-2.8-.9-3.3-2.4-.2-.7-.3-1.4-.4-2.1,0-.6,0-1.2.1-1.8,0-.2.1-.2.2-.1.4.2.8.4,1.2.5.1.1.2.1.1.3-.2.6-.3,1.3-.3,2,0,1.2.9,2.4,2,2.7.5.2,1,.1,1.5,0,.4,0,.8-.1,1.2-.1.4.1.7.2,1,.5Z"/>
        <path d="M353.5,23v-.4c0-.1.1-.1.1-.1.3.2.6.2.9.3q.1,0,.2.1c.1.7.5,1.3,1.1,1.7q.1.1,0,.2c-.2.3-.3.5-.3.9,0,.1-.1.1-.2.1-.4-.1-.8-.4-1.1-.7-.5-.6-.7-1.2-.7-2.1Z"/>
        <path d="M361.3,15.3l2,.1-1.8,1.8h1.7s0-.1.1-.2h.1v.8h-.1v-.2h-1.5c-.3,0-.8-.1-.9.3v-.6l1.8-1.6h-1.4c-.2,0-.3,0-.3.2v-.7c-.1.1.1.1.3.1Z"/>
        <path d="M363.2,24.1h0l.1.8h-.1v-.2h-.2c-.5.2-.9.3-1.4.5-.1,0-.1.1-.2.1h0c.4.2.8.3,1.2.5.1,0,.2.1.4.1.1,0,.2.1.2,0h0v-.2h.1v.8h-.1v-.2c-.3-.2-.5-.3-.8-.4-.5-.2-1-.4-1.4-.6,0,0-.1,0-.1-.1,0,0-.1,0-.1-.1s.1-.1.1-.1c.3-.1.6-.2,1-.4.4-.1.8-.3,1.1-.4l.2-.1h0c0,.1.1.1.1,0q-.1.1-.1,0Z"/>
        <path d="M360.8,27.2c-.1.4,0,.7,0,1.1,0-.2.2-.2.3-.2h2c0,.1.1.1.1.2h.1v-.8h-.1v.2h-.9c-.1,0-.2,0-.2-.2,0-.1,0-.3-.1-.4-.1-.3-.4-.5-.8-.5-.1.1-.4.3-.4.6ZM361.5,27.1c.2.1.4.3.4.6,0,.1-.1.1-.1.1h-.3s-.4,0-.4-.1c-.1-.2-.1-.4.1-.5,0-.2.2-.2.3-.1Z"/>
        <path d="M362.8,29.9c.2-.1.3-.4.2-.6,0-.3-.3-.5-.6-.3-.1.1-.3.2-.4.3-.1.2-.3.3-.4.4-.4.2-.8,0-.9-.4v-.6c0-.2-.1-.2-.1-.2h.6c-.3.1-.2.3-.2.5.1.3.3.4.5.2.2-.1.4-.4.6-.5.1-.1.3-.3.5-.3.3-.1.7.2.7.5v.6c0,.1,0,.2.1.3,0,.1-.4.1-.6.1Z"/>
        <path d="M360.7,20.1h.5c-.1,0-.2.2-.2.3v.4c0,.1,0,.2.2.2h1.9v-.2h.1v.8h-.1v-.2h-2q-.2,0-.2.2v.5h0q0,.1.1.1h0s.1,0,.1.1h-.5c.1,0,.1-.1.1-.2v-1.6c.1-.3.1-.4,0-.4Z"/>
        <circle cx="362.1" cy="25.4" r=".1"/>
        <circle cx="362.1" cy="19.1" r=".1"/>
        <path d="M363.2,17.8h0l.1.8h-.1v-.2h-.2c-.5.2-.9.3-1.4.5-.1,0-.1.1-.2.1h0c.4.2.8.3,1.2.5.1,0,.2.1.4.1.1,0,.2.1.2,0h0v-.2h.1v.8h-.1v-.2c-.3-.2-.5-.3-.8-.4-.5-.2-1-.4-1.4-.6,0,0-.1,0-.1-.1,0,0-.1,0-.1-.1s.1-.1.1-.1c.3-.1.6-.2,1-.4.4-.1.8-.3,1.1-.4l.2-.1h0c0,.1.1.1.1,0q-.1.1-.1,0Z"/>
      </g>
      <path d="M363.2,22h0l.1.6h-.1c-.1.1-.2.1-.2.2-.3.2-.6.4-.8.6-.2.1-.3.1-.3-.1v-.1c-.1-.3-.3-.4-.5-.3s-.3.3-.3.5c0,.1.1.1.2.1h2v-.2h.1v.8h-.1c0-.1,0-.2-.1-.2h-2c-.1,0-.2,0-.3.2,0-.4-.1-.7,0-1.1s.7-.5,1-.1v.1q.2.3.5.1c.2-.1.4-.3.6-.4.1,0,.1-.1.2-.1h0c.1,0,.1-.1.1-.2-.1-.3-.1-.4-.1-.4Z"/>
    </g>
    <g>
      <path d="M392.7,68.6c0,.1-.1.2-.1.3l-1.1,1.1c-.1.1-.3.1-.5,0l-1.2-1.2c-.1-.1-.1-.2-.1-.2,0-.1.1-.2.1-.2l.6-.6v-.3h.2v-1.6l.7-.7.7.7v1.6h.2v.3l.6.6c-.1.1-.1.2-.1.2Z"/>
      <path d="M390.7,66v1.7h-.2v.3l-.7.7c-.1.1-.1.2,0,.2l1.2,1.2c.1.1.2.1.3,0l1.1-1.1c.1-.1.1-.2,0-.3l-.7-.7v-.2h-.2v-1.7l-.5-.5-.3.4Z"/>
      <polygon class="cls-45" points="390.9 68.4 390.6 68.2 390.1 68.6 391.2 69.8 391.4 69.6 391.4 68.4 391.8 68.6 391.5 68.9 391.8 69.2 392.3 68.6 391.4 67.8 391 67.8 391 69 390.7 68.6 390.9 68.4"/>
      <polygon class="cls-45" points="391 67.8 390.9 67.8 390.9 67.5 391.5 67.5 391.5 67.8 391.4 67.8 391.2 67.5 391 67.8"/>
      <polygon points="391 67.8 391.2 67.5 391.4 67.8 391 67.8"/>
      <polygon class="cls-45" points="390.9 67.5 391.5 67.5 391.5 67.1 391.3 67.1 391.3 67.3 390.9 67.3 390.9 67.5"/>
      <polygon class="cls-45" points="390.9 67 391.5 67 391.5 66.5 391.3 66.5 391.3 66.7 391.3 66.7 391.3 66.8 391.1 66.8 391.1 66.7 391.2 66.7 391.2 66.5 390.9 66.5 390.9 67"/>
      <polygon class="cls-45" points="391.5 66.4 391.5 66.2 391.3 66.1 391.5 66.1 391.5 65.9 390.9 66 390.9 66.2 391.5 66.4"/>
    </g>
    <g>
      <path class="cls-22" d="M373,15.3h-.2l-.1.1v.2l.1.1h.2l.1-.1v-.2l-.1-.1ZM373,15.5h0l-.1.1v.1h.1v.1h-.3v-.2h.1v.1h0q.1-.2.2-.2h0Z"/>
      <path class="cls-22" d="M372.8,15.5h0s0,.1,0,0v.2h.1l-.1-.2q.1,0,0,0h0Z"/>
      <path d="M373,15.3h-.2l-.1.1v.4c0,.1.1.1.1.1h.2l.1-.1v-.4q0-.1-.1-.1ZM373.1,15.6v.1l-.1.1h-.2l-.1-.1v-.2l.1-.1h.2l.1.1v.1Z"/>
      <path d="M372.9,15.5h0l-.1-.1h0v.2h.3v-.1h-.2q0,.1,0,0c0,.1,0,0,0,0h.1v-.1l-.1.1h0ZM372.9,15.6h0c-.1,0-.1-.1,0,0q-.1-.1,0,0-.1-.1,0,0-.1-.1,0,0,0-.1,0,0Z"/>
      <path d="M372.9,24h0v.8h0l1.7,1v-.4l-.5-.3v-.9l.5-.3-.3-.7-1.4.8ZM373.9,24.9l-.6-.3.6-.4v.7Z"/>
      <path d="M374.5,27.1h.2v-.8h-1.4c.1.3.2.5.4.8h.8Z"/>
      <polygon points="374.7 29.1 374.7 28.7 374.3 28.7 374.5 29.1 374.7 29.1"/>
      <path d="M374.7,28h0c-.3-.3-.7-.6-1-.8l.5,1.1s.3-.2.5-.3Z"/>
      <path d="M373.6,19.6h0c-.2.1-.4.3-.5.4h0l.2.4h0q0-.1.1-.1h0c.1-.2.2-.3.5-.3s.4.1.5.3h0c.1.1.1.3.1.6v.3h-.9l.2.5h0l.1.3h.8v-1.2c0-.4-.1-.9-.3-1.2-.1-.2-.3-.4-.6-.4q-.1.4-.2.4Z"/>
      <path d="M373,20.4c-.1.2-.1.4-.1.6v1.2h1l-.1-.3h0l-.2-.5h-.4v-.6h0l-.2-.4h0Z"/>
      <polygon points="374.6 23.8 374.7 23.8 374.7 23 374.3 23.2 374.6 23.8"/>
      <polygon points="373.8 33.6 374.1 33.6 374.1 31.6 373.8 31 373.8 33.6"/>
      <polygon points="374.3 33.6 374.7 33.6 374.7 32.8 374.3 32.1 374.3 33.6"/>
      <g>
        <path d="M373.7,16.4l.3.6c.3,0,.6.2.6.6,0,.2,0,.3-.1.4h0v.1l.1.3c.1-.2.1-.5.1-.8,0-.6-.2-1.5-.9-1.5h-.3l.2.3Z"/>
        <path d="M373.6,16.1q-.1,0,0,0-.1.1,0,0-.1.1,0,0-.1.1,0,0c-.1,0-.1.1-.1.1h0v.1h0v.1h0v.1h0v.1h0v.1h0v.1h0v.1h0v.1h0v.1c0,.3,0,.6.1.9s.3.6.7.6h0l-.2-.4h0c-.4,0-.7-.2-.7-.7h.1l-.3-.6.4-.8h0Z"/>
      </g>
      <polygon points="373.6 27.2 373.5 27.1 373.6 27.1 373.3 26.3 372.9 26.3 372.9 27.1 373.9 27.7 372.9 28.3 372.9 29.1 374.5 29.1 374.3 28.7 373.6 28.7 374.2 28.3 373.6 27.2"/>
      <polygon points="374.1 31.6 374.1 29.7 373.8 29.7 373.8 31 374.1 31.6"/>
      <polygon points="374.7 32.8 374.7 29.7 374.3 29.7 374.3 32.1 374.7 32.8"/>
      <polygon points="373.8 15.4 374.1 15.4 374.1 13.5 373.8 12.8 373.8 15.4"/>
      <polygon points="374.3 15.4 374.7 15.4 374.7 14.6 374.3 14 374.3 15.4"/>
      <polygon points="373.8 12.8 374.1 13.5 374.1 11.6 373.8 11.6 373.8 12.8"/>
      <polygon points="374.7 14.6 374.7 11.6 374.3 11.6 374.3 14 374.7 14.6"/>
    </g>
    <g>
      <g>
        <path class="cls-23" d="M293.6,163.8c.2,0,.4.5-.1,1-1,0-1.8-.3-1.9-1.1,0-.1.1-.3.1-.4v-.4c0-.1.1-.2.1-.3s0-.1.1-.2c.2-.4.4-.6.9-.7.8-.1,3.4.1,4.1,0,.1.3.1,1.2-.1,1-.2-.1-.3-.2-.5-.1v1.6c-.1,1.4-2.5,1.1-1.9-1.6h-1.3c-1.1,0-1.8,1.2.5,1.2Z"/>
        <g>
          <path class="cls-41" d="M294.9,162.5h.6c.1,0,.2.1.2.2v1c0,.1-.2,1-.9-.3-.1-.1-.1-.3-.1-.5v-.3s.1-.1.2-.1Z"/>
          <path class="cls-23" d="M295.8,163.3v.4h0c0,.1-.1.4-.3.4s-.4-.2-.7-.7c-.1-.2-.1-.3-.1-.5v-.3c0-.1.1-.3.2-.3h.6c.2,0,.3.1.3.3v.7ZM294.8,163c0,.2,0,.3.1.5.3.6.5.6.6.6s.2-.2.2-.3v-1.1c0-.1-.1-.1-.1-.1h-.6q-.1,0-.1.1v.3h-.1Z"/>
        </g>
      </g>
      <g>
        <path class="cls-23" d="M292.8,140.2c.3,0,.7.7-.1,1.4-.1.1-.4,0-.5,0-.2,0-.3,0-.5-.1-.3,0-.6-.1-.8-.2-.5-.2-.8-.5-.9-1v-.5c0-.1.1-.3.1-.4v-.5c0-.2.1-.3.2-.5,0-.1.1-.1.1-.2.2-.6.6-1,1.2-1.1,1.1-.2,5.1.1,6.1,0,.1.5.2,1.8-.2,1.5-.3-.2-.5-.3-.7-.2v2.4c-.2,2.1-3.8,1.7-2.9-2.4h-2c-1.4,0-2.4,1.9.9,1.8Z"/>
        <path class="cls-41" d="M294.8,138.3h1c.2,0,.3.1.3.3v1.5c-.1.2-.3,1.4-1.4-.4-.1-.2-.2-.5-.2-.7v-.4c0-.2.1-.3.3-.3Z"/>
      </g>
      <path class="cls-23" d="M296.1,160.6c-.1.1,0-.1-.2-.1s-4-.2-4.2,0c-.1-.3-.1-1.3.2-1.2.2.2.5.3.5.1-.3-.8-.6-2.4.9-2.5h3c.1-.1.2,0,.2,0,.1.3.1.8,0,.9h-3.2c-.3,0-.6.1-.7.4,0,.2,0,.4.1.5.1.2.3.4.6.5.4.2.9.3,1.4.3s1.1,0,1.6-.1c-.1.2.2.9-.2,1.2Z"/>
      <path class="cls-23" d="M296.4,155.9c.1-.2.1-.7,0-1,0-.1-.1-.1-.2,0-.4.2-3.2-.1-3.7-.2,0,0-.1,0-.1-.1-.3-.4-.5.5-.3,1.1,0,.1.1.1.1.1.6-.1,3.4-.1,4,.2.1,0,.2,0,.2-.1Z"/>
      <path class="cls-23" d="M297.5,151.4c-.1-.1-.2-.1-.3-.1-2.6.6-5.7.5-5.6-1.3,0-.3,0-.6.2-.8.2-.3.8-.2,1.1-.2.5,0,1,0,1.5.1.5,0,1,.1,1.5.2.4,0,.7.1,1.1,0,.1,0,.2,0,.3-.1.1,0,.1-.1.2-.2.1-.1.1-.2.2-.3,0-.1,0-.3-.1-.4-.1-.3,0-.3.1-.5,0-.2-.1-.5-.4-.3h0c-1.4.3-2.9.1-3.4.1v-.1c1.1-.8,1.2-1.8.2-2.8v-.1h1.9c.3,0,.7,0,1,.1.2,0,.5.1.7.2.1,0,.1.1.2.1s.2-.1.2-.2.1-.2.1-.3v-1.1h0c-.1-.3-.3-.4-.6-.2h0c-.2,0-4.4,0-4.8-.1h0c-2.3.3-2.2,3.8-1.2,4.9v.1c-.2.1-1,.9-.5,3.2h-.1c-.1,0-.2,0-.3-.1-.1,0-.2-.1-.3-.2q-.1,0-.2.1t-.1.2v1.4c0,.1,0,.3.1.4.1.1.2,0,.2,0h4.9c.4,0,.8,0,1.2.1.3,0,.5,0,.8.1h.1c0-.1.1-.2.1-.2,0-.1.1-.2.1-.3v-.8c-.1-.4-.1-.5-.1-.6h0Z"/>
      <path class="cls-41" d="M292.8,145.1c-.6,0-1,.4-1,1s.4,1,1,1,1-.4,1-1-.4-1-1-1Z"/>
      <path class="cls-23" d="M292.9,145.5c.3,0,.5.2.5.5s-.2.5-.5.5-.5-.2-.5-.5c-.1-.2.2-.5.5-.5Z"/>
      <path class="cls-23" d="M292.7,149.5c.3,0,.5.2.5.5s-.2.5-.5.5-.5-.2-.5-.5.2-.5.5-.5Z"/>
      <path class="cls-23" d="M291.4,135.7l2.3-1.2h.1c.4.2,3.1,1.7,3.2,1.7s.4-.4.2-.7v-.2c.1-.2.2-.4,0-.5h-.3c-.2-.1-2-.9-2-1s2.1-1.4,2.1-1.6-.1-.4-.2-.9c0-.1,0-.3-.1-.4-.1-.1-.3.2-.4.3-.1.2-.3.3-.5.4-.3.3-.7.6-1,.8s-.6.4-.9.6h-.1c-.4-.3-2.5-1.7-2.7-1.9-.1-.1-.1-.3-.2-.3-.2,0-.3.3-.3.4-.1.2-.1.4-.1.6,0,.1,0,.3.1.4.1.1,1.8,1.2,2,1.4h0c-.4.2-.8.3-1.2.5-.1,0-.3.1-.3.2v.4c0,.1,0,.3.1.4,0,.1.1.2.1.4-.1,0,0,.2.1.2Z"/>
      <path class="cls-23" d="M289.5,155.1s0,.1.1.1c.1.2.3.4.5.5.1.1.2.2.4.1.1,0,.1-.3.1-.4,0-.2-.1-.3-.2-.4-.1-.2-.2-.4-.3-.6-.2-.3-.3-.6-.5-.9h0c-.2-.1-.2.9-.2.9,0,.3,0,.5.1.7Z"/>
      <path class="cls-23" d="M289.3,143.8h0c0,.2,0,.4-.1.6v1.2c0,.3,0,.5.1.8s.1.5.3.8c0,.1.2.4.3.3.2-.3-.4-3.3-.6-3.7Z"/>
    </g>
    <g>
      <path d="M44.9,140.4h-.8c-.1,0-.2,0-.3-.2-.4-1.5-.8-2.9-.9-4.4-.1-1.4.2-2.7.5-4.1.1-.5.3-1,.4-1.4,0-.1.1-.2.2-.2h2c.9.1,1.7.5,2.3,1.2,1.1,1.1,1.9,2.4,2.4,3.8v.3c-.6,1.4-1.3,2.7-2.4,3.8-.7.6-1.4,1.1-2.4,1.2-.3,0-1,0-1,0ZM47.4,139h0c.2-.3.3-.7.4-1,.3-1,.4-2,0-3-.3-.8-1-1-1.6-.4-.5.5-.8,1.1-1.1,1.8-.1.2-.2.5-.3.8-.6-.4-.7-1.1-.9-1.7,0,1,.1,1.9.4,2.8.1.2.2.4.3.6.2.2.5.2.7,0,.4-.6.5-1.3.6-2h-.1c-.3.3-.6.6-.9.9.1-.4.9-1.1,1.3-1.2.4-.1.8,0,.9.4.1.2.2.5.2.7.1.3.1.8.1,1.3ZM44.4,133.5c1-1,1.8-1.2,2.2-.6-.3.1-.6.1-.9.3-.3.2-.6.5-.9.8-.3.3-.4.6-.3,1.1.1.3.1.7.2,1,0,.1.1.1.1.2,0-.1.1-.2.1-.3.2-.6.5-1.3.9-1.8.7-.7,1.4-.7,2.1,0,.1.1.2.3.3.4-.2-.8-.4-1.5-.8-2.2-.2-.3-.4-.6-.7-.8-.2-.2-.5-.3-.7-.3-.9,0-1.8,1.2-1.6,2.2Z"/>
      <path d="M48.1,140.4c2.2-1,3.3-2.9,4.3-5v-.3c-.6-1.3-1.3-2.6-2.3-3.6-.6-.6-1.2-1.1-2-1.4,1.6-.2,2.9.4,3.9,1.5.9,1,1.6,2.2,2.1,3.4v.3c-.5,1.3-1.2,2.5-2.2,3.6-1.1,1.2-1.9,1.5-3.8,1.5Z"/>
      <path d="M49.4,147.2v.9c0,.1-.1.2-.1.2-.3.2-.5.4-.8.6q-.1.1-.1.2v1.3h1.1v.8h-3.1v-2.8c0-.6.3-.9.8-1s.9.1,1.2.6h.1c.1-.2.5-.5.9-.8ZM46.9,150.4h.6v-1.8c0-.2-.1-.3-.3-.3s-.3.1-.3.3v1.8Z"/>
      <path d="M48.7,164.8c-.1-.1-.3-.2-.4-.3,0,0-.1-.1,0-.1.4-.6.5-1.3.4-1.9h0c-.2-1.2-.5-1.2-.6,0v.1c0,.4-.1.9-.1,1.3,0,.1-.1.2-.1.4-.2.6-1,.7-1.3.2-.2-.3-.3-.7-.4-1-.1-.7,0-1.4.3-2.1,0-.1.1-.1.1-.2s.1-.1.2,0c.1.1.2.2.3.4v.2c-.2.6-.3,1.2-.2,1.8,0,.1.1.3.2.3.1.1.2-.1.2-.2.1-.4.1-.8.1-1.2,0-.3.1-.6.2-.9.3-.7,1.1-.8,1.5-.2.2.2.3.5.3.8.1.9.1,1.8-.4,2.6,0,0,0,.1-.1.1,0-.1-.1-.1-.2-.1Z"/>
      <path d="M48.8,121.8c-.2-.2-.4-.3-.6-.5.4-.6.5-1.3.4-2,0-.1,0-.3-.1-.4,0-.1-.2-.2-.2-.2-.1,0-.2.1-.2.2-.1.2-.1.4-.1.6,0,.4-.1.8-.1,1.2,0,.1-.1.3-.1.4-.2.6-1,.7-1.3.1-.2-.3-.3-.6-.3-.9-.1-.7,0-1.4.3-2,.1-.1.1-.2.2-.3,0,0,.1,0,.1.1.3.2.5.5.3.9-.2.5-.2,1-.1,1.5q0,.1.1.2c.1.1.2.1.2,0s.1-.1.1-.2c.1-.5.1-1,.2-1.5,0-.2.1-.4.2-.5.3-.6,1-.7,1.5-.2.1.2.2.4.3.5.2.9.2,1.8-.2,2.6-.4.1-.5.2-.6.4Z"/>
      <path d="M49.3,110.7h-3.2v-1c0-.1.1-.1.2-.2.7-.6,1.4-1.2,2.1-1.8h-2.3v-.8h3.2v1c0,.1-.1.1-.2.2-.6.5-1.3,1.1-1.9,1.6q-.1.1-.2.2h2.3v.8Z"/>
      <path d="M46.1,154.1c0-.5.1-1,.4-1.5.6-.8,1.7-.9,2.4-.2.7.8.7,2.4,0,3.3-.6.7-1.8.6-2.4-.2-.3-.4-.4-.9-.4-1.4ZM48.7,154.1c0-.3-.1-.7-.3-1-.3-.5-1-.5-1.4,0s-.4,1.4,0,1.9,1.1.5,1.4-.1c.3-.2.3-.5.3-.8Z"/>
      <path d="M49.5,113.7c0,.5-.1,1-.5,1.4-.6.8-1.7.9-2.4.1-.8-.9-.8-2.7.2-3.5.6-.6,1.6-.4,2.2.3.3.5.5,1,.5,1.7ZM48.7,114c.1-.3.1-.5,0-.8-.1-.2-.1-.4-.2-.5-.3-.5-1-.5-1.4,0s-.4,1.4,0,1.9,1.1.5,1.4,0c.1-.2.1-.4.2-.6Z"/>
      <path d="M48.3,159.5h1.1v.8h-3.2v-2.6c0-.3.1-.5.2-.8.2-.4.6-.5,1-.4s.7.3.8.7c.1.3.1.6.1.8,0,.5,0,1,0,1.5ZM47.5,159.5v-1.8c0-.2-.1-.4-.3-.4-.3,0-.3.2-.3.4v1.8h.6Z"/>
      <path d="M46.2,128v-.8c0-.1.1-.2.2-.2.6-.4,1.3-.7,1.9-1.1.1,0,.1-.1.2-.2-.7-.4-1.4-.8-2.1-1.2-.2-.1-.3-.2-.3-.5v-.6c.2.1.3.2.4.3.7.5,1.7,1,2.3,1.3.3.2.4.2.4.5.1.4-.1.7-.5.9-.7.5-1.6,1-2.5,1.6Z"/>
      <polygon points="46.9 145.5 46.9 147 46.2 147 46.2 143.2 46.9 143.2 46.9 144.7 49.3 144.7 49.3 145.5 46.9 145.5"/>
      <rect x="46.2" y="122.3" width="3.1" height=".8"/>
      <rect x="46.2" y="116.5" width="3.1" height=".8"/>
    </g>
    <g class="cls-39">
      <path class="cls-56" d="M147.7,288.6l-1.6-2.7-1.6,2.7h-2.5l2.7-4.2-2.4-4h2.4l1.4,2.5,1.5-2.5h2.4l-2.6,4.1,2.6,4.1h-2.3Z"/>
      <path class="cls-56" d="M162.9,285c0,2.1-1.6,3.7-4,3.7-2.9,0-4.3-2.4-4.3-5.4s1.5-6.1,4.8-6.1c1,0,2.1.3,3.1,1l-1,1.7c-.6-.4-1.3-.7-2-.7-1.8,0-2.7,1.7-2.8,3.4.6-.9,1.5-1.2,2.5-1.2,2.2,0,3.7,1.5,3.7,3.6ZM160.7,285c0-1-.8-1.7-1.8-1.7s-1.8.7-1.8,1.8c0,1,.8,1.8,1.8,1.8,1.1-.1,1.8-.9,1.8-1.9Z"/>
      <path class="cls-56" d="M171.8,285c0,2.1-1.6,3.8-4.2,3.8-1.3,0-2.6-.4-3.7-1.2l.9-1.8c.9.6,1.9,1,2.7,1,1.3,0,2-.8,2-1.7,0-1-.8-1.7-1.9-1.7-.6,0-1.3.2-1.8.7l-1.3-1,.6-5.6h5.9v2h-4.2l-.2,2.2c.4-.2.9-.3,1.5-.3,2,.1,3.7,1.5,3.7,3.6Z"/>
      <path class="cls-56" d="M173,283c0-3.1,1.4-5.7,4.5-5.7s4.5,2.7,4.5,5.7-1.4,5.7-4.5,5.7c-3.1.1-4.5-2.6-4.5-5.7ZM179.8,283c0-2-.7-3.7-2.3-3.7s-2.3,1.6-2.3,3.7.7,3.7,2.3,3.7,2.3-1.6,2.3-3.7Z"/>
    </g>
    <g>
      <path d="M396.3,247.2c.1-.2.1-.4.2-.6.1-.4.2-.8.4-1.3,0-.1.1-.1.2-.1h.7q.1,0,.2.1c.1.6.1,1.2.2,1.8,0,.4.1.8.1,1.2q0,.1-.1.1h-.5q-.1,0-.1-.1c-.1-.6-.1-1.2-.2-1.8h0c0,.1-.1.3-.1.4-.1.5-.3,1-.4,1.5q0,.1-.2.1h-.3q-.1,0-.2-.1c-.1-.5-.3-1-.4-1.5,0-.1-.1-.2-.1-.3v.4c0,.5-.1.9-.1,1.4v.2c0,.1-.1.1-.1.1h-.5q-.1,0-.1-.1c0-.3.1-.7.1-1,0-.4.1-.7.1-1.1,0-.3.1-.6.1-.9,0-.1.1-.1.1-.1h.7c.1,0,.2,0,.2.1-.3.3-.1.9.1,1.6h0Z"/>
      <path d="M389.4,246.8v-1.5c0-.1,0-.2.2-.2h.9c.2,0,.5,0,.7.1.4.1.7.4.8.8.1.4.1.9,0,1.3-.1.5-.5.8-1,1-.2,0-.3.1-.5.1h-1q-.1,0-.1-.1v-1.5ZM390.1,247.8h.4c.4,0,.6-.2.7-.6.1-.3.1-.5,0-.8,0-.2-.1-.3-.2-.4-.3-.3-.6-.2-.9-.2v2Z"/>
      <path d="M399.9,248.1h0c-.3.5-.9.5-1.4.3-.4-.3-.4-1,.1-1.3.2-.1.5-.2.7-.2h.5c0-.2-.1-.3-.2-.4-.2-.1-.3-.1-.5,0-.1,0-.3.1-.4.1s-.1,0-.1-.1v-.4q0-.1.1-.1c.4-.1.9-.2,1.3-.1.4.1.7.4.7.8v1.4q0,.1-.1.1h-.4q-.1,0-.1-.2c-.2.2-.2.1-.2.1h0ZM399.9,247.4h-.2c-.2,0-.3,0-.5.1-.1.1-.2.2-.2.3s.1.2.2.2c.4,0,.7-.3.7-.6Z"/>
      <path d="M402.1,246.6c.1-.2.2-.3.4-.5q.1-.1.2-.1h.6v.1c-.2.3-.5.7-.7,1v.1c.2.3.5.7.7,1v.1q0,.1-.1.1h-.6s-.1,0-.1-.1c-.1-.2-.3-.4-.4-.5h0s0,.1-.1.1c-.1.2-.2.3-.4.5,0,.1-.1.1-.2.1h-.6v-.1c.3-.3.5-.7.8-1v-.1c-.2-.3-.5-.7-.7-1v-.1h.6q.1,0,.2.1c.1,0,.3.2.4.3Z"/>
      <path d="M393,246.3s.1-.1,0,0c.3-.4.6-.4.9-.3.1,0,.1.1.1.1,0,.1-.1.3-.1.4s-.1.1-.1.1c-.4-.1-.7.1-.7.5v1.1q0,.1-.1.1h-.4c-.1,0-.2,0-.2-.2v-2.1q0-.1.1-.1h.4q.1,0,.1.1c0,.2,0,.3,0,.3h0Z"/>
      <path d="M393.5,248.1c0-.2.1-.4.3-.4s.3.2.3.4-.1.4-.3.4-.3-.2-.3-.4Z"/>
      <path d="M403.6,244.7v.5h-.5c-.3,0-.3.5,0,.5h.5v.5c0,.3.5.3.5,0v-.5h.5c.3,0,.3-.5,0-.5h-.5v-.5c.1-.2-.5-.3-.5,0Z"/>
    </g>
    <path id="dm" class="cls-35" d="M331,292.6c-2,0-3.2,2.8-3.2,4.8,0,.8.2,1.2.6,1.2,1.1,0,3.1-3.3,3.4-5.3l.1-.5c-.2-.1-.5-.2-.9-.2M333.4,301.1h-2.9c.1-.8.4-1.6.8-2.8h0c-.9,1.5-2.2,3-3.9,3s-2.5-1.1-2.5-3.4c0-4,2.1-7.7,6.8-7.7.3,0,.5,0,.9.1l.5-2.5h0c-.5-.1-1.2-.2-1.8-.2l.4-2c1.5-.1,3-.3,4.8-.2l-3.1,15.7ZM351,301.1h-2.9l1.1-6.6c.2-1.1.1-1.5-.4-1.5-1,0-2.8,2.6-3.2,5.2l-.5,2.9h-2.9l1.1-6.6c.2-1.1.1-1.5-.4-1.5-1,0-2.7,2.6-3.2,5.1l-.6,2.9h-2.9l1.6-8.2h0c-.5-.1-1.2-.2-1.8-.2l.4-2c1.5-.2,3-.3,4.6-.2-.2.8-.5,1.8-.8,2.7h0c1-1.7,2-2.9,3.9-2.9,1.3,0,2.1.7,2.1,2.1,0,.3-.1.5-.2,1h0c1-1.8,2.2-3.1,4.1-3.1,2.1,0,2.5,1.5,2.1,3.5l-1.2,7.4Z"/>
    <g>
      <path class="cls-35" d="M322.2,84.4h-.1v.4h-.2v-1.1h.4c.3,0,.4.2.4.3s-.1.3-.2.3l.3.4h-.3l-.3-.3ZM322,84.2h.2c.1,0,.2-.1.2-.1,0-.1-.1-.1-.2-.1h-.2v.2Z"/>
      <path class="cls-35" d="M322.8,83.7h.7v.2h-.5v.2h.5v.2h-.5v.2h.5v.3h-.7v-1.1Z"/>
      <path class="cls-35" d="M323.8,83.7h.7v.2h-.5v.2h.4v.2h-.4v.5h-.2v-1.1Z"/>
      <path class="cls-35" d="M324.6,84.4v-.7h.2v.7c0,.1.1.2.2.2s.2-.1.2-.2v-.7h.2v.7c0,.3-.2.4-.4.4s-.4-.1-.4-.4Z"/>
      <path class="cls-35" d="M325.7,84.3c0-.3.3-.6.6-.6.2,0,.3.1.4.2l-.1.2c-.1-.1-.2-.1-.3-.1-.2,0-.4.2-.4.4s.1.4.4.4c.1,0,.2-.1.3-.1v-.1h-.3v-.2h.5v.5c-.1.1-.3.2-.5.2-.4-.3-.6-.5-.6-.8Z"/>
      <path class="cls-35" d="M327.1,83.7v1.1h-.2v-1.1h.2Z"/>
      <path class="cls-35" d="M327.4,84.4v-.7h.2v.7c0,.1.1.2.2.2s.2-.1.2-.2v-.7h.2v.7c0,.3-.2.4-.4.4s-.4-.1-.4-.4Z"/>
      <path class="cls-35" d="M328.5,83.7h.2v.9h.6v.2h-.8v-1.1h0Z"/>
      <path class="cls-35" d="M319.8,85.8c0-.3.3-.6.6-.6.2,0,.3.1.4.2l-.1.2c-.1-.1-.2-.1-.3-.1-.2,0-.4.2-.4.4s.1.4.4.4c.1,0,.2-.1.3-.1v-.1h-.3v-.2h.5v.5c-.1.1-.3.2-.5.2-.4-.2-.6-.5-.6-.8Z"/>
      <path class="cls-35" d="M321,86v-.7h.2v.7c0,.1.1.2.2.2s.2-.1.2-.2v-.7h.2v.7c0,.3-.2.4-.4.4s-.4-.2-.4-.4Z"/>
      <path class="cls-35" d="M322.5,86h-.1v.4h-.3v-1.1h.4c.3,0,.4.2.4.3s-.1.3-.2.3l.3.4h-.3l-.2-.3ZM322.3,85.8h.2c.1,0,.2-.1.2-.1,0-.1-.1-.1-.2-.1h-.2v.2Z"/>
      <path class="cls-35" d="M323.1,85.3h.1l.4.6.4-.6h.1v1.1h0v-.6l-.3.5h-.1l-.3-.5v.6h-.3v-1.1Z"/>
      <path class="cls-35" d="M325.1,86.1h-.4l-.1.2h-.2l.4-1.1h.2l.4,1.1h-.2l-.1-.2ZM324.8,85.9h.3l-.1-.4-.2.4Z"/>
      <path class="cls-35" d="M326.5,85.3v1.1h-.1l-.6-.7v.7h-.2v-1.1h.1l.6.7v-.7h.2Z"/>
      <path class="cls-35" d="M326.7,86.2l.5-.7h-.5v-.2h.8v.2l-.5.7h.5v.2h-.9v-.2h.1Z"/>
      <path class="cls-35" d="M327.9,85.3v1.1h-.2v-1.1h.2Z"/>
      <path class="cls-35" d="M328.2,85.3h.2v.9h.6v.2h-.8v-1.1h0Z"/>
      <path class="cls-35" d="M329,85.8c0-.3.2-.6.6-.6.3,0,.6.3.6.6s-.2.6-.6.6-.6-.3-.6-.6ZM329.9,85.8c0-.2-.2-.4-.3-.4-.2,0-.3.1-.3.4,0,.2.1.3.3.3s.3-.1.3-.3Z"/>
      <path class="cls-35" d="M330.6,86h-.1v.4h-.2v-1.1h.4c.3,0,.4.2.4.3s-.1.3-.2.3l.3.4h-.3l-.3-.3ZM330.5,85.8h.2c.1,0,.2-.1.2-.1,0-.1-.1-.1-.2-.1h-.2v.2Z"/>
    </g>
    <text class="cls-5" transform="translate(352.05 102.35)"><tspan x="0" y="0">DONUTERIE</tspan></text>
    <text class="cls-4" transform="translate(391.24 60.86) rotate(-90)"><tspan class="cls-48" x="0" y="0">AV</tspan><tspan x=".89" y="0">ANGARD </tspan></text>
    <g>
      <path d="M372.11,292.52c-.01-.07-.02-.17-.02-.28,0-.16.03-.25.09-.33.05-.06.12-.1.21-.1.12,0,.22.08.26.2h0c.03-.11.12-.25.3-.25.1,0,.18.04.24.1.08.08.11.22.11.42,0,.11,0,.19-.01.24h-1.18ZM372.61,292.36v-.14c0-.17-.09-.26-.2-.26-.14,0-.2.11-.2.26,0,.07,0,.11.01.14h.39ZM373.18,292.36s0-.08,0-.13c0-.16-.06-.31-.23-.31-.16,0-.23.14-.23.31v.13h.46Z"/>
      <path d="M372.1,291.4h1.2v.16h-1.2v-.16Z"/>
      <path d="M372.1,290.88v-.16h.8c.32,0,.42.16.42.36,0,.06-.01.13-.03.17l-.13-.02s.02-.08.02-.13c0-.14-.06-.22-.3-.22h-.79Z"/>
      <path d="M372.1,290.31h.71c.27,0,.38-.12.38-.28,0-.18-.12-.29-.38-.29h-.71v-.16h.7c.37,0,.52.2.52.46s-.14.43-.51.43h-.71v-.16Z"/>
      <path d="M372.23,289.09v.37h-.13v-.89h.13v.37h1.07v.16h-1.07Z"/>
      <path d="M372.74,287.81v.47h.43v-.52h.13v.68h-1.2v-.65h.13v.49h.38v-.47h.13Z"/>
      <path d="M372.11,287.56c-.02-.08-.02-.19-.02-.3,0-.17.03-.27.1-.35.05-.06.14-.09.23-.09.16,0,.26.1.31.23h0c.03-.09.12-.15.24-.18.17-.04.28-.07.33-.09v.16s-.14.05-.29.08c-.17.04-.23.1-.23.24v.15h.52v.16h-1.19ZM372.66,287.4v-.16c0-.17-.09-.27-.23-.27-.16,0-.22.11-.23.28,0,.08,0,.13.01.15h.44Z"/>
      <path d="M372.1,286.45h1.2v.16h-1.2v-.16Z"/>
      <path d="M372.92,285.98l.38.12v.16l-1.2-.41v-.19l1.2-.41v.17l-.38.13v.43ZM372.8,285.59l-.35.12c-.08.03-.15.04-.22.06h0c.07.02.14.04.22.06l.35.12v-.36Z"/>
      <path d="M374.82,289.76c.41,0,.63.25.63.56s-.25.54-.61.54-.63-.24-.63-.56.25-.54.61-.54ZM374.84,290.7c.26,0,.49-.14.49-.38s-.23-.39-.5-.39c-.24,0-.49.12-.49.38s.24.39.5.39Z"/>
      <path d="M375.43,289.57h-1.2v-.17l.61-.38c.14-.09.27-.16.39-.22h0c-.16.01-.31.01-.5.01h-.5v-.15h1.2v.16l-.61.38c-.13.08-.27.16-.4.22h0c.15,0,.3,0,.5,0h.51v.15Z"/>
      <path d="M375.43,288.14h-.51l-.69.38v-.18l.33-.17c.09-.05.16-.08.25-.12h0c-.08-.04-.16-.08-.25-.12l-.33-.17v-.18l.69.4h.51v.16Z"/>
      <path d="M375.43,286.79l-.27.15c-.1.06-.17.1-.24.14h0c.07.04.13.07.24.13l.26.14v.18l-.61-.37-.59.35v-.18l.28-.16c.08-.04.14-.08.2-.11h0c-.07-.04-.13-.07-.2-.11l-.28-.16v-.18l.58.37.62-.38v.18Z"/>
    </g>
    <text class="cls-2" transform="translate(312.01 209.63)"><tspan x="0" y="0">JOLIDON</tspan></text>
    <g>
      <polygon class="cls-36" points="328.15 262.6 327.75 262.42 327.76 262.06 328.55 262.51 328.55 262.69 327.75 263.12 327.75 262.81 328.15 262.6"/>
      <path class="cls-36" d="M327.99,260.56c0-.13.09-.18.18-.18s.18.09.18.18c0,.13-.09.18-.18.18s-.18-.05-.18-.18h0ZM328.57,260.39v-.31s-1.32-.01-1.32-.01v.31s.57,0,.57,0c-.09.04-.09.18-.09.26,0,.27.22.4.44.4s.44-.17.45-.39c0-.09-.04-.18-.13-.27h.09Z"/>
      <path class="cls-36" d="M328,259.5c0-.13.09-.18.18-.18s.18.09.18.18c0,.13-.09.18-.18.18-.09,0-.18-.05-.18-.18h0ZM327.79,259.01v.31s.09,0,.09,0c-.09.04-.09.18-.09.26,0,.27.22.4.44.4s.44-.17.45-.39c0-.09-.04-.18-.13-.27h.09s0-.31,0-.31h-.84Z"/>
      <path class="cls-36" d="M328.59,258.53v.31s-.58,0-.58,0v.09s-.22,0-.22,0v-.09s-.09,0-.09,0c-.13,0-.18,0-.31-.09-.09-.09-.13-.18-.13-.31,0-.04,0-.09.05-.13h.27s-.04.05-.05.09c0,.09.04.09.13.09h.13s0-.22,0-.22h.22s0,.22,0,.22l.57.05h0Z"/>
      <path class="cls-36" d="M327.89,256.93h0c-.09-.09-.13-.13-.13-.27,0-.22.14-.31.36-.31h.53s0,.31,0,.31h-.4c-.09,0-.22,0-.22.13s.09.13.18.13h.44s0,.31,0,.31h-.84s0-.32,0-.32h.09Z"/>
      <path class="cls-36" d="M328.08,255.96c-.09,0-.13-.09-.13-.18s.05-.13.13-.18v.35h0ZM328.26,255.34c-.27,0-.44.17-.45.44s.17.44.44.45.44-.22.45-.48c0-.18-.09-.35-.26-.44v.27s.09.09.08.13c0,.13-.05.18-.18.18l-.08-.53h0Z"/>
      <path class="cls-36" d="M328.21,261.14c.27,0,.44.23.44.49s-.23.48-.45.48c-.27,0-.48-.23-.48-.49s.23-.48.49-.48h0ZM328.2,261.89c.13,0,.27-.13.27-.26s-.13-.27-.26-.27-.27.13-.27.26c-.13-.05-.18-.13-.18-.13,0,.18.17.36.35.4h.09Z"/>
      <path class="cls-36" d="M328.19,258.26c-.27,0-.48-.23-.48-.49s.23-.48.49-.48.48.23.48.49-.23.48-.49.48h0ZM328.2,257.55c-.13,0-.27.13-.27.26s.13.27.26.27.27-.13.27-.26c.13.05.18.13.18.13,0-.18-.17-.36-.35-.4h-.09Z"/>
    </g>
    <text class="cls-8" transform="translate(392.09 44.66) rotate(-90)"><tspan x="0" y="0">L</tspan><tspan class="cls-54" x=".75" y="0">E</tspan><tspan class="cls-31" x="1.56" y="0">T</tspan><tspan class="cls-40" x="2.41" y="0"></tspan><tspan x="2.73" y="0">S PL</tspan><tspan class="cls-52" x="5.45" y="0">A</tspan><tspan x="6.3" y="0">Y</tspan></text>
    <text class="cls-3" transform="translate(373.28 250.9) rotate(-90)"><tspan x="0" y="0">KEND</tspan><tspan class="cls-53" x="9.09" y="0">R</tspan><tspan x="11.19" y="0">A</tspan></text>
    <text id="sPLENDOR" class="cls-12" transform="translate(358.6 253.16) rotate(-90) scale(1.11 1)"><tspan x="0" y="0">SPLEN</tspan><tspan class="cls-55" x="8.64" y="0">D</tspan><tspan class="cls-47" x="10.84" y="0"></tspan><tspan x="11.44" y="0">OR</tspan></text>
    <text class="cls-11" transform="translate(310.3 194.84)"><tspan x="0" y="0">ARES</tspan></text>
    <g>
      <path d="M315.8,110.95c0,.95-.58,1.46-1.28,1.46s-1.24-.57-1.24-1.4c0-.88.55-1.45,1.29-1.45s1.24.58,1.24,1.4ZM313.65,110.99c0,.59.32,1.12.88,1.12s.89-.52.89-1.15c0-.55-.29-1.12-.88-1.12s-.89.55-.89,1.15Z"/>
      <path d="M316.26,109.59h1.49v.3h-1.13v.92h1.05v.3h-1.05v1.25h-.36v-2.77Z"/>
      <path d="M318.25,109.59h1.49v.3h-1.13v.92h1.05v.3h-1.05v1.25h-.36v-2.77Z"/>
      <path d="M320.6,109.59v2.77h-.36v-2.77h.36Z"/>
      <path d="M323.16,112.27c-.13.07-.39.13-.73.13-.78,0-1.37-.49-1.37-1.4s.59-1.45,1.45-1.45c.34,0,.56.07.66.12l-.09.29c-.14-.07-.33-.12-.56-.12-.65,0-1.08.41-1.08,1.14,0,.68.39,1.11,1.06,1.11.22,0,.44-.04.58-.11l.07.28Z"/>
      <path d="M325.04,111.06h-1.08v1h1.2v.3h-1.56v-2.77h1.49v.3h-1.14v.87h1.08v.3Z"/>
      <path d="M314.25,116.84c.16.1.39.18.64.18.37,0,.58-.19.58-.47,0-.26-.15-.41-.52-.55-.45-.16-.73-.39-.73-.78,0-.43.36-.75.9-.75.28,0,.49.07.61.14l-.1.29c-.09-.05-.28-.13-.53-.13-.38,0-.52.23-.52.41,0,.26.17.39.55.53.47.18.71.41.71.81,0,.43-.32.8-.97.8-.27,0-.56-.08-.71-.18l.09-.3Z"/>
      <path d="M316.68,114.51v1.16h1.34v-1.16h.36v2.77h-.36v-1.3h-1.34v1.3h-.36v-2.77h.36Z"/>
      <path d="M321.36,115.86c0,.95-.58,1.46-1.28,1.46s-1.24-.57-1.24-1.4c0-.88.55-1.45,1.29-1.45s1.24.58,1.24,1.4ZM319.21,115.91c0,.59.32,1.12.88,1.12s.89-.52.89-1.15c0-.55-.29-1.12-.88-1.12s-.89.55-.89,1.15Z"/>
      <path d="M323.25,115.98h-1.08v1h1.2v.3h-1.56v-2.77h1.49v.3h-1.14v.87h1.08v.3Z"/>
      <path d="M323.78,116.84c.16.1.39.18.64.18.37,0,.58-.19.58-.47,0-.26-.15-.41-.52-.55-.45-.16-.73-.39-.73-.78,0-.43.36-.75.9-.75.28,0,.49.07.61.14l-.1.29c-.09-.05-.28-.13-.53-.13-.38,0-.52.23-.52.41,0,.26.17.39.55.53.47.18.71.41.71.81,0,.43-.32.8-.97.8-.27,0-.56-.08-.71-.18l.09-.3Z"/>
    </g>
    <g>
      <path d="M318.82,137.63c.1-.02.25-.04.41-.04.22,0,.37.04.48.13.09.07.14.17.14.31,0,.17-.11.31-.29.38h0c.17.05.36.18.36.44,0,.15-.06.26-.15.35-.12.11-.32.16-.6.16-.15,0-.27-.01-.35-.02v-1.71ZM319.04,138.34h.2c.24,0,.38-.12.38-.29,0-.2-.16-.28-.38-.28-.1,0-.16,0-.2.02v.56ZM319.04,139.18s.11.01.19.01c.23,0,.45-.09.45-.34,0-.24-.2-.34-.45-.34h-.19v.66Z"/>
      <path d="M320.49,138.8l-.18.55h-.23l.59-1.74h.27l.59,1.74h-.24l-.19-.55h-.62ZM321.06,138.63l-.17-.5c-.04-.11-.06-.22-.09-.32h0c-.03.1-.05.21-.09.31l-.17.5h.52Z"/>
      <path d="M321.79,139.35v-1.74h.25l.56.88c.13.2.23.39.31.56h0c-.02-.23-.03-.45-.03-.72v-.73h.21v1.74h-.23l-.55-.88c-.12-.19-.24-.39-.32-.58h0c.01.22.02.43.02.72v.74h-.21Z"/>
      <path d="M324.69,139.29c-.08.04-.25.08-.46.08-.49,0-.86-.31-.86-.88s.37-.91.91-.91c.22,0,.35.05.41.08l-.05.18c-.09-.04-.21-.07-.35-.07-.41,0-.68.26-.68.72,0,.43.25.7.67.7.14,0,.28-.03.37-.07l.05.18Z"/>
      <path d="M325.27,138.8l-.18.55h-.23l.59-1.74h.27l.59,1.74h-.24l-.19-.55h-.62ZM325.83,138.63l-.17-.5c-.04-.11-.06-.22-.09-.32h0c-.03.1-.05.21-.09.31l-.17.5h.52Z"/>
      <path d="M315.2,140.89h-.53v-.19h1.29v.19h-.53v1.55h-.23v-1.55Z"/>
      <path d="M316.15,140.72c.11-.02.28-.04.43-.04.24,0,.39.04.5.14.09.08.14.2.14.33,0,.23-.14.38-.33.44h0c.13.05.21.18.26.36.06.24.1.41.13.48h-.23s-.07-.2-.12-.42c-.05-.24-.14-.33-.35-.34h-.21v.75h-.22v-1.71ZM316.37,141.51h.23c.24,0,.39-.13.39-.33,0-.22-.16-.32-.4-.32-.11,0-.19.01-.22.02v.63Z"/>
      <path d="M317.83,141.89l-.18.55h-.23l.59-1.74h.27l.59,1.74h-.24l-.19-.55h-.62ZM318.4,141.71l-.17-.5c-.04-.11-.06-.22-.09-.32h0c-.03.1-.05.21-.09.31l-.17.5h.52Z"/>
      <path d="M319.12,142.44v-1.74h.25l.56.88c.13.2.23.39.31.56h0c-.02-.23-.03-.45-.03-.72v-.73h.21v1.74h-.23l-.55-.88c-.12-.19-.24-.39-.32-.58h0c.01.22.02.43.02.72v.74h-.21Z"/>
      <path d="M320.78,142.16c.1.06.25.11.4.11.23,0,.36-.12.36-.3,0-.16-.09-.26-.33-.35-.28-.1-.46-.25-.46-.49,0-.27.22-.47.56-.47.18,0,.31.04.38.09l-.06.18c-.06-.03-.17-.08-.33-.08-.24,0-.33.14-.33.26,0,.16.11.24.35.34.29.11.44.25.44.51,0,.27-.2.5-.61.5-.17,0-.35-.05-.44-.11l.06-.19Z"/>
      <path d="M322.31,140.7v1.74h-.22v-1.74h.22Z"/>
      <path d="M322.7,140.7h.22v1.55h.74v.19h-.97v-1.74Z"/>
      <path d="M324.14,142.44l-.57-1.74h.24l.27.86c.08.23.14.45.19.65h0c.05-.2.12-.42.2-.65l.29-.86h.24l-.62,1.74h-.25Z"/>
      <path d="M325.33,141.89l-.18.55h-.23l.59-1.74h.27l.59,1.74h-.24l-.19-.55h-.62ZM325.9,141.71l-.17-.5c-.04-.11-.06-.22-.09-.32h0c-.03.1-.05.21-.09.31l-.17.5h.52Z"/>
      <path d="M326.63,142.44v-1.74h.25l.56.88c.13.2.23.39.31.56h0c-.02-.23-.03-.45-.03-.72v-.73h.21v1.74h-.23l-.55-.88c-.12-.19-.24-.39-.32-.58h0c.01.22.02.43.02.72v.74h-.21Z"/>
      <path d="M328.54,140.7v1.74h-.22v-1.74h.22Z"/>
      <path d="M329.22,141.89l-.18.55h-.23l.59-1.74h.27l.59,1.74h-.24l-.19-.55h-.62ZM329.78,141.71l-.17-.5c-.04-.11-.06-.22-.09-.32h0c-.03.1-.05.21-.09.31l-.17.5h.52Z"/>
    </g>
    <text class="cls-6" transform="translate(389.59 255.65)"><tspan x="0" y="0">SI</tspan><tspan class="cls-1" x="1.73" y="0">LV</tspan><tspan class="cls-57" x="3.88" y="0">ANIA</tspan><tspan x="2.71" y="2.83">BIO</tspan></text>
    <text class="cls-9" transform="translate(351.76 216.14)"><tspan class="cls-50" x="0" y="0">T</tspan><tspan x="1.82" y="0">OM</tspan><tspan class="cls-59" x="7.61" y="0"> </tspan><tspan class="cls-68" x="8.28" y="0">T</tspan><tspan x="9.92" y="0">AI</tspan><tspan class="cls-38" x="13.22" y="0">L</tspan><tspan x="14.9" y="0">OR</tspan></text>
    <g>
      <path class="cls-30" d="M419.52,270.29c.04-.13.04-.23.02-.28-.01-.07-.05-.11-.12-.13l-.31-.04-.36.04c-.07.04-.14.07-.19.13-.05.06-.09.16-.12.28-.02.12-.02.19-.01.25.01.06.05.11.12.14l.31.04h.22s.17-.05.17-.05l.15-.08.07-.12v-.02s-.35,0-.35,0l-.07.08h-.14c-.07.01-.12,0-.15-.04-.03-.02-.01-.08.02-.17h.71v-.04ZM419.15,270.03s.05.01.06.04l-.03.11h-.36c.02-.07.05-.11.07-.13l.15-.02h.1Z"/>
      <path class="cls-30" d="M415.64,269.47h-.35l-.35,1.23h.36s.14-.47.14-.47c0-.06.04-.11.06-.13.04-.05.1-.06.19-.06.06,0,.1.01.11.04.01.02.01.05.01.1l-.15.53h.35s.16-.6.16-.6c.02-.1.01-.16-.02-.19-.04-.05-.14-.07-.25-.07l-.21.04c-.06.02-.12.07-.17.13h-.01s.14-.54.14-.54Z"/>
      <path class="cls-30" d="M414.48,270.54h-.02s.01-.68.01-.68h-.41l-.37.68h-.02s.07-.68.07-.68h-.35s-.04.85-.04.85h.52s.31-.61.31-.61h.02v.61s.49.01.49.01l.42-.86h-.31l-.32.68Z"/>
      <path class="cls-30" d="M416.55,269.88c-.09.04-.16.07-.2.13-.05.08-.1.17-.11.28-.04.1-.04.18-.02.25.01.06.05.11.11.14l.34.04h.21s.19-.05.19-.05l.12-.08.09-.13h.01s-.35-.01-.35-.01l-.09.08h-.14c-.07.01-.12,0-.15-.04-.01-.02-.01-.08.01-.17h.72v-.04c.05-.12.06-.22.05-.28-.02-.07-.06-.11-.14-.13l-.31-.04-.35.04ZM416.84,270.02h.1s.05.02.06.05v.11h-.39.01c0-.07.04-.11.06-.13l.15-.02Z"/>
      <path class="cls-30" d="M418.22,269.84l-.17.02s-.1.06-.14.12h-.04s.05-.12.05-.12h0s-.35-.02-.35-.02l-.25.86h.36s.14-.52.14-.52c.02-.05.04-.07.06-.1.04-.04.09-.05.12-.05.05,0,.09.01.09.05v.08s-.02.04-.02.04h.31s.02-.06.02-.06l.02-.16s-.01-.07-.05-.12c-.02-.02-.09-.04-.16-.04Z"/>
      <path class="cls-30" d="M410.26,270.19h-.11c-.14,0-.25.01-.31.06-.07.04-.14.11-.15.22-.02.06-.02.12,0,.16.01.05.05.06.1.07l.21.02h.14s.12-.05.12-.05l.1-.08h.02l-.05.12h.35s.15-.54.15-.54c.02-.1.02-.17,0-.22l-.14-.1h-.55c-.07,0-.15.02-.2.07-.05.02-.09.07-.12.14v.02s.35.01.35.01c.01-.05.02-.07.06-.1h.12s.1,0,.1,0l.05.06v.07s-.06.14-.06.14h-.02l-.05-.06-.11-.04ZM410.41,270.44l-.07.08-.16.02h-.06l-.06-.02-.02-.05v-.04s.05-.06.09-.08h.11s.15,0,.15,0l.04.06v.02Z"/>
      <path class="cls-30" d="M411.42,269.88v-.02s-.35,0-.35,0l-.24.85h.36s.12-.48.12-.48c.01-.05.04-.1.06-.12.05-.05.11-.06.19-.06.06,0,.1,0,.12.02.01.04.01.06,0,.11l-.15.53h.35s.17-.6.17-.6c.01-.08,0-.16-.04-.19-.04-.05-.12-.07-.24-.07l-.22.02c-.06.02-.11.07-.17.14h-.01s.04-.13.04-.13Z"/>
      <path class="cls-30" d="M412.47,270.73l-.09.13s-.09.05-.17.05h-.04l-.06.16v.02h.12s.25-.02.25-.02l.16-.1.14-.18.54-.93h-.36l-.37.71h-.01v-.71s-.39-.01-.39-.01l.07.86h.2v.02h.01Z"/>
      <path class="cls-30" d="M419.77,267.58c0-.24-.04-.43-.12-.56-.09-.12-.21-.22-.36-.28-.16-.05-.35-.07-.56-.07h-1.19l-.57.07c-.15.06-.27.16-.36.28-.09.13-.12.32-.12.56v.73c0,.23.04.42.12.56.09.12.21.2.36.26l.57.07h1.19c.21,0,.4-.02.56-.07.15-.06.27-.14.36-.26.09-.14.12-.34.12-.56v-.73ZM417.24,267.79c0-.12.01-.22.02-.31.02-.08.06-.14.14-.2.07-.04.16-.06.29-.06h.87c.12,0,.22.02.29.06.07.06.11.12.14.2l.02.61c.01.2-.01.35-.07.44-.06.08-.17.12-.34.12h-.94c-.17,0-.29-.04-.35-.12-.06-.1-.09-.24-.07-.44v-.3Z"/>
      <path class="cls-30" d="M416.28,269.18v-.65h-1.79v-1.82h-.77v2.47h2.56Z"/>
      <path class="cls-30" d="M413.32,267.28v-.56h-2.71v2.47h2.76v-.6h-1.99v-.4h1.75v-.52h-1.75v-.4h1.94Z"/>
      <path class="cls-30" d="M410.33,266.71h-.89l-.9,1.88-.9-1.88h-.84l1.17,2.47h1.17l1.17-2.47Z"/>
      <path class="cls-30" d="M406.57,266.71h-.82v1.8s-1.32-1.8-1.32-1.8h-1.25v2.47h.77v-1.8l1.32,1.8h1.3v-2.47Z"/>
      <path class="cls-30" d="M402.75,267.28v-.56h-2.72v2.47h2.76v-.6h-1.99v-.4h1.75v-.52h-1.75v-.4h1.95Z"/>
      <path class="cls-30" d="M399.73,269.18h0s-1.65-1.27-1.65-1.27l1.5-1.2h-1.1l-1.11.9h-.32v-.9h-.76v2.47h.76v-.95h.3l1.26.95h1.12Z"/>
      <path class="cls-30" d="M395.13,266.73c-.02-.19-.14-.32-.35-.37l-1.81,1.44s-.02.04-.04.06h0v.06l.04.06,1.99,1.56c.1-.08.16-.19.19-.32.16-.83.16-1.65-.01-2.48Z"/>
      <path class="cls-30" d="M393.91,266.27h0c-1.12-.08-2.25-.06-3.33.07-.29.01-.44.14-.45.4-.17.83-.17,1.65,0,2.47.01.26.16.41.45.41l3.12.08-1.76-1.4-.35.87h-.79l-.09-.02c-.1-.04-.12-.1-.09-.19l.94-2.35h1.04l-.41,1.03,1.72-1.37Z"/>
    </g>
    <text class="cls-9" transform="translate(353.5 141.45)"><tspan class="cls-58" x="0" y="0">C</tspan><tspan x="2.27" y="0">A</tspan><tspan class="cls-29" x="4.64" y="0">R</tspan><tspan x="6.76" y="0">TURESTI</tspan></text>
    <text class="cls-15" transform="translate(355.85 162.32)"><tspan x="0" y="0">LENSA</tspan></text>
    <text class="cls-14" transform="translate(322.75 177.57)"><tspan x="0" y="0">NE</tspan><tspan class="cls-49" x="2.38" y="0">O</tspan><tspan class="cls-33" x="3.76" y="0">T</tspan><tspan x="4.87" y="0">TIA</tspan></text>
    <g>
      <path d="M387.22,290.14h.36v2.48h1.19v.3h-1.54v-2.78Z"/>
      <path d="M389.61,292.04l-.29.87h-.37l.94-2.78h.43l.95,2.78h-.38l-.3-.87h-.99ZM390.52,291.76l-.27-.8c-.06-.18-.1-.35-.14-.51h0c-.04.17-.09.33-.14.5l-.27.8h.84Z"/>
      <path d="M391.64,292.48c.16.1.4.18.64.18.37,0,.58-.19.58-.47,0-.26-.15-.41-.52-.55-.45-.16-.73-.4-.73-.79,0-.43.36-.75.9-.75.28,0,.49.07.61.14l-.1.29c-.09-.05-.28-.13-.53-.13-.38,0-.52.23-.52.42,0,.26.17.39.55.54.47.18.71.41.71.82s-.32.8-.97.8c-.27,0-.56-.08-.71-.18l.09-.3Z"/>
      <path d="M385.21,297.86l-.91-2.78h.39l.43,1.37c.12.38.22.71.3,1.04h0c.08-.32.19-.67.32-1.03l.47-1.37h.38l-.99,2.78h-.4Z"/>
      <path d="M388.34,296.56h-1.08v1h1.2v.3h-1.56v-2.78h1.5v.3h-1.14v.88h1.08v.3Z"/>
      <path d="M391.04,297.74c-.16.06-.48.15-.85.15-.42,0-.77-.11-1.04-.37-.24-.23-.39-.6-.39-1.03,0-.83.57-1.43,1.5-1.43.32,0,.57.07.69.13l-.09.29c-.15-.07-.33-.12-.61-.12-.68,0-1.12.42-1.12,1.12s.42,1.12,1.07,1.12c.23,0,.4-.03.48-.07v-.83h-.56v-.29h.92v1.33Z"/>
      <path d="M392.04,296.99l-.29.87h-.37l.94-2.78h.43l.95,2.78h-.38l-.3-.87h-.99ZM392.95,296.71l-.27-.8c-.06-.18-.1-.35-.14-.51h0c-.04.17-.09.33-.14.5l-.27.8h.84Z"/>
      <path d="M394.06,297.43c.16.1.4.18.64.18.37,0,.58-.19.58-.47,0-.26-.15-.41-.52-.55-.45-.16-.73-.4-.73-.79,0-.43.36-.75.9-.75.28,0,.49.07.61.14l-.1.29c-.09-.05-.28-.13-.53-.13-.38,0-.52.23-.52.42,0,.26.17.39.55.54.47.18.71.41.71.82,0,.43-.32.8-.97.8-.27,0-.56-.08-.71-.18l.09-.3Z"/>
    </g>
    <g>
      <path d="M356.87,117.02c.13-.03.34-.05.55-.05.3,0,.49.05.64.17.12.09.19.23.19.41,0,.22-.15.42-.39.51h0c.22.06.48.25.48.59,0,.2-.08.35-.2.47-.16.15-.42.22-.8.22-.21,0-.37-.01-.47-.03v-2.29ZM357.17,117.97h.27c.32,0,.5-.17.5-.39,0-.27-.21-.38-.51-.38-.14,0-.22.01-.26.02v.75ZM357.17,119.08c.06.01.14.01.25.01.31,0,.6-.11.6-.45,0-.32-.27-.45-.6-.45h-.25v.89Z"/>
      <path d="M360.73,118.12c0,.8-.49,1.22-1.08,1.22s-1.04-.48-1.04-1.18.46-1.22,1.08-1.22,1.04.49,1.04,1.18ZM358.93,118.16c0,.5.27.94.74.94s.74-.44.74-.97c0-.46-.24-.94-.74-.94s-.74.46-.74.97Z"/>
      <path d="M361.48,117.24h-.71v-.26h1.72v.26h-.71v2.07h-.3v-2.07Z"/>
      <path d="M363.33,117.24h-.71v-.26h1.72v.26h-.71v2.07h-.3v-2.07Z"/>
      <path d="M365.81,118.22h-.9v.84h1.01v.25h-1.31v-2.32h1.26v.25h-.96v.73h.9v.25Z"/>
      <path d="M368.07,119.21c-.13.05-.4.13-.71.13-.35,0-.64-.09-.87-.31-.2-.19-.32-.5-.32-.87,0-.69.48-1.2,1.26-1.2.27,0,.48.06.58.11l-.07.25c-.12-.06-.28-.1-.51-.1-.57,0-.93.35-.93.93s.36.94.9.94c.2,0,.33-.03.4-.06v-.69h-.47v-.24h.77v1.12Z"/>
      <path d="M368.91,118.58l-.24.73h-.31l.79-2.32h.36l.79,2.32h-.32l-.25-.73h-.82ZM369.68,118.34l-.23-.67c-.05-.15-.09-.29-.12-.42h0c-.03.14-.07.28-.12.42l-.23.67h.7Z"/>
      <path d="M357.38,121.13v2.32h-.3v-2.32h.3Z"/>
      <path d="M358.35,121.39h-.71v-.25h1.72v.25h-.71v2.07h-.3v-2.07Z"/>
      <path d="M359.74,122.72l-.24.73h-.31l.79-2.32h.36l.79,2.32h-.32l-.25-.73h-.82ZM360.51,122.49l-.23-.67c-.05-.15-.09-.29-.12-.42h0c-.03.14-.07.28-.12.42l-.23.67h.7Z"/>
      <path d="M361.48,121.13h.3v2.07h.99v.25h-1.29v-2.32Z"/>
      <path d="M363.41,121.13v2.32h-.3v-2.32h.3Z"/>
      <path d="M364.31,122.72l-.24.73h-.31l.79-2.32h.36l.79,2.32h-.32l-.25-.73h-.82ZM365.08,122.49l-.23-.67c-.05-.15-.09-.29-.12-.42h0c-.03.14-.07.28-.12.42l-.23.67h.7Z"/>
      <path d="M366.05,123.46v-2.32h.33l.75,1.18c.17.27.31.52.42.76h0c-.03-.31-.03-.6-.03-.96v-.97h.28v2.32h-.3l-.74-1.18c-.16-.26-.32-.52-.43-.78h-.01c.02.3.02.58.02.96v.99h-.28Z"/>
      <path d="M368.7,122.72l-.24.73h-.31l.79-2.32h.36l.79,2.32h-.32l-.25-.73h-.82ZM369.46,122.49l-.23-.67c-.05-.15-.09-.29-.12-.42h0c-.03.14-.07.28-.12.42l-.23.67h.7Z"/>
    </g>
    <text class="cls-9" transform="translate(360.2 111)"><tspan x="0" y="0">DIGI</tspan></text>
    <g>
      <path d="M363.27,98.3c.09-.02.22-.03.36-.03.2,0,.32.03.42.11.08.06.13.15.13.27,0,.15-.1.28-.26.33h0c.14.04.31.16.31.39,0,.13-.05.23-.13.3-.11.1-.28.14-.53.14-.14,0-.24,0-.3-.02v-1.5ZM363.47,98.92h.18c.21,0,.33-.11.33-.26,0-.18-.13-.25-.33-.25-.09,0-.14,0-.17.01v.49ZM363.47,99.65s.09,0,.17,0c.2,0,.39-.07.39-.3,0-.21-.18-.29-.39-.29h-.16v.58Z"/>
      <path d="M364.69,98.28v.9c0,.34.15.49.35.49.23,0,.37-.15.37-.49v-.9h.2v.89c0,.47-.25.66-.58.66-.31,0-.55-.18-.55-.65v-.9h.2Z"/>
      <path d="M365.96,99.8v-1.52h.21l.49.77c.11.18.2.34.27.49h0c-.02-.21-.02-.39-.02-.63v-.64h.19v1.52h-.2l-.48-.77c-.11-.17-.21-.34-.28-.51h0c.01.19.02.38.02.63v.65h-.18Z"/>
      <path d="M367.69,99.32l-.16.48h-.2l.52-1.52h.24l.52,1.52h-.21l-.16-.48h-.54ZM368.19,99.17l-.15-.44c-.03-.1-.06-.19-.08-.28h0c-.02.09-.05.18-.08.28l-.15.44h.46Z"/>
      <path d="M368.94,98.45h-.46v-.17h1.13v.17h-.47v1.35h-.2v-1.35Z"/>
      <path d="M369.85,99.32l-.16.48h-.2l.52-1.52h.24l.52,1.52h-.21l-.16-.48h-.54ZM370.35,99.17l-.15-.44c-.03-.1-.06-.19-.08-.28h0c-.02.09-.05.18-.08.28l-.15.44h.46Z"/>
      <path d="M371.1,98.45h-.46v-.17h1.13v.17h-.47v1.35h-.2v-1.35Z"/>
      <path d="M372.13,98.28v1.52h-.2v-1.52h.2Z"/>
      <path d="M365.16,102.27c.09.05.22.1.35.1.2,0,.32-.11.32-.26,0-.14-.08-.22-.29-.3-.25-.09-.4-.22-.4-.43,0-.24.2-.41.49-.41.16,0,.27.04.34.07l-.05.16s-.15-.07-.29-.07c-.21,0-.29.12-.29.23,0,.14.09.21.3.29.26.1.39.22.39.45,0,.23-.17.44-.53.44-.15,0-.31-.04-.39-.1l.05-.16Z"/>
      <path d="M366.5,100.99v1.52h-.2v-1.52h.2Z"/>
      <path d="M366.84,101.01c.09-.02.22-.03.36-.03.2,0,.32.03.42.11.08.06.13.15.13.27,0,.15-.1.28-.26.33h0c.14.04.31.16.31.39,0,.13-.05.23-.13.3-.11.1-.28.14-.53.14-.14,0-.24,0-.3-.02v-1.5ZM367.03,101.63h.18c.21,0,.33-.11.33-.26,0-.18-.13-.25-.33-.25-.09,0-.14,0-.17.01v.49ZM367.03,102.36s.09,0,.17,0c.2,0,.39-.07.39-.3,0-.21-.18-.29-.39-.29h-.16v.58Z"/>
      <path d="M368.26,100.99v1.52h-.2v-1.52h.2Z"/>
      <path d="M368.8,100.99v.9c0,.34.15.49.35.49.23,0,.37-.15.37-.49v-.9h.2v.89c0,.47-.25.66-.58.66-.31,0-.55-.18-.55-.65v-.9h.2Z"/>
    </g>
    <text class="cls-13" transform="translate(311.3 220.05)"><tspan x="0" y="0">BELLA </tspan><tspan class="cls-32" x="7.99" y="0">F</tspan><tspan class="cls-63" x="9.15" y="0">ASHION</tspan></text>
    <text class="cls-2" transform="translate(313.15 237.44)"><tspan x="0" y="0">IN</tspan><tspan class="cls-66" x="3.28" y="0"> </tspan><tspan class="cls-51" x="3.92" y="0">VOGUE</tspan></text>
    <text class="cls-7" transform="translate(313.15 262.06) rotate(-90)"><tspan x="0" y="0">ME</tspan><tspan class="cls-44" x="5.42" y="0">R</tspan><tspan x="7.67" y="0">ON</tspan></text>
    <text class="cls-2" transform="translate(318.4 249.08)"><tspan x="0" y="0">VI</tspan><tspan class="cls-24" x="2.91" y="0">T</tspan><tspan class="cls-37" x="4.45" y="0">A</tspan><tspan x="6.68" y="0">MIX</tspan></text>
    <text class="cls-10" transform="translate(321.35 264.08) rotate(-90)"><tspan class="cls-67" x="0" y="0">C</tspan><tspan class="cls-43" x="1.16" y="0">OQU</tspan><tspan class="cls-28" x="5.36" y="0">E</tspan><tspan x="6.41" y="0">TE</tspan></text>
    <text class="cls-16" transform="translate(275.46 165.4) rotate(-90)"><tspan x="0" y="0">AR</tspan><tspan class="cls-62" x="6.63" y="0">M</tspan><tspan x="11.21" y="0">AN SPO</tspan><tspan class="cls-64" x="29.64" y="0">R</tspan><tspan class="cls-65" x="32.79" y="0">T</tspan></text>
    <text class="cls-18" transform="translate(219.01 151.9) rotate(-90)"><tspan x="0" y="0">NORIEL</tspan></text>
    <text class="cls-25" transform="translate(352.34 193.24)"><tspan x="0" y="0">DOUGLAS</tspan></text>
    <g>
      <path d="M316.52,160.7v-1.04l-.78-1.42h.36l.35.68c.09.19.17.34.24.51h0c.07-.16.15-.32.25-.51l.35-.68h.36l-.82,1.41v1.05h-.32Z"/>
      <path d="M318.27,158.24v1.46c0,.55.24.78.57.78.36,0,.6-.24.6-.78v-1.46h.32v1.43c0,.75-.4,1.06-.93,1.06-.5,0-.88-.29-.88-1.05v-1.45h.32Z"/>
      <path d="M320.31,158.27c.15-.03.35-.05.61-.05.31,0,.54.07.69.2.13.12.22.3.22.51s-.07.4-.19.53c-.17.18-.44.27-.75.27-.09,0-.18,0-.25-.02v.98h-.32v-2.43ZM320.63,159.46c.07.02.16.03.26.03.38,0,.62-.19.62-.52s-.23-.48-.58-.48c-.14,0-.24.01-.3.03v.96Z"/>
      <path d="M322.25,158.27c.15-.03.35-.05.61-.05.31,0,.54.07.69.2.13.12.22.3.22.51s-.07.4-.19.53c-.17.18-.44.27-.75.27-.09,0-.18,0-.25-.02v.98h-.32v-2.43ZM322.57,159.46c.07.02.16.03.26.03.38,0,.62-.19.62-.52s-.23-.48-.58-.48c-.14,0-.24.01-.3.03v.96Z"/>
      <path d="M324.51,158.24v2.46h-.32v-2.46h.32Z"/>
      <path d="M317.52,162.62h.32v1.19h.01c.07-.09.13-.18.19-.26l.75-.92h.39l-.89,1.04.96,1.42h-.38l-.81-1.21-.23.27v.94h-.32v-2.46Z"/>
      <path d="M319.82,162.62v2.46h-.32v-2.46h.32Z"/>
      <path d="M320.38,162.65c.19-.03.42-.05.67-.05.46,0,.78.11,1,.31.22.2.35.48.35.88s-.12.73-.35.96c-.23.23-.61.35-1.09.35-.23,0-.42-.01-.58-.03v-2.42ZM320.69,164.83c.08.01.2.02.32.02.68,0,1.05-.38,1.05-1.04,0-.58-.32-.95-1-.95-.16,0-.29.01-.37.03v1.94Z"/>
      <path d="M322.76,164.69c.14.09.35.16.57.16.32,0,.51-.17.51-.42,0-.23-.13-.36-.46-.49-.4-.14-.65-.35-.65-.7,0-.38.32-.67.79-.67.25,0,.43.06.54.12l-.09.26c-.08-.04-.24-.12-.47-.12-.34,0-.46.2-.46.37,0,.23.15.34.49.47.42.16.63.36.63.72s-.28.71-.86.71c-.24,0-.5-.07-.63-.16l.08-.27Z"/>
    </g>
    <text class="cls-17" transform="translate(310 49.66)"><tspan x="0" y="0">MESOP</tspan><tspan class="cls-27" x="10.18" y="0">O</tspan><tspan class="cls-42" x="12.42" y="0">T</tspan><tspan class="cls-61" x="13.85" y="0">A</tspan><tspan class="cls-46" x="15.91" y="0">MIA</tspan></text>
    <g>
      <path d="M312.79,92.63v2.97h-.88v-2.97h.88ZM314.48,92.63l-.78,1.35.78,1.62h-.99l-.67-1.64.76-1.33h.91Z"/>
      <path d="M316.87,92.63v1.92c0,.34-.1.61-.3.81s-.47.3-.81.3-.59-.1-.77-.3c-.18-.2-.27-.48-.27-.85v-1.9h.88v1.89c0,.18.06.27.19.27s.19-.09.19-.27v-1.89h.88Z"/>
      <path d="M317.34,92.63h.88v1.76c0,.14.02.23.07.27.04.05.13.07.26.07h.05v.86h-.24c-.32,0-.57-.09-.75-.28-.18-.19-.27-.45-.27-.78v-1.9Z"/>
      <path d="M320.9,94.15l.92.02c-.06.48-.23.85-.5,1.11-.27.26-.62.39-1.06.39s-.81-.15-1.11-.44c-.3-.3-.45-.66-.45-1.1s.15-.81.46-1.12c.3-.3.68-.45,1.12-.45s.8.15,1.1.44c.2.2.35.49.43.85l-.95.06c-.11-.32-.31-.49-.6-.49-.19,0-.34.06-.47.2-.12.13-.18.3-.18.5s.06.35.18.48c.12.13.27.19.46.19s.34-.06.45-.17c.11-.11.18-.27.2-.48Z"/>
      <path d="M323.64,92.62v.85c-.06-.02-.11-.03-.15-.03-.07,0-.12.02-.17.07s-.07.11-.07.18c0,.06.03.13.08.23l.07.12c.12.21.18.42.18.61,0,.29-.1.53-.31.73s-.46.3-.75.3c-.14,0-.28-.03-.42-.1v-.86c.08.05.16.08.22.08.08,0,.14-.02.19-.07.05-.04.08-.1.08-.17,0-.04-.04-.14-.12-.28-.13-.23-.2-.46-.2-.7,0-.28.1-.52.3-.72.2-.2.44-.3.71-.3.12,0,.24.02.36.06Z"/>
      <path d="M325.16,94.11v.78h-.25v.71h-.88v-1.89c0-.37.1-.65.3-.85.2-.2.48-.3.84-.3s.6.09.77.28c.17.18.25.47.25.85v1.92h-.88v-1.86c0-.12-.01-.2-.04-.24s-.08-.07-.15-.07c-.14,0-.21.1-.21.31v.37h.25Z"/>
      <path d="M327.61,93.43v2.17h-.88v-2.97h1.13c.35,0,.61.09.8.26.21.19.32.43.32.73s-.13.55-.39.76l.51,1.22h-.93l-.43-.96v-.76h.07c.19,0,.28-.08.28-.24,0-.14-.11-.21-.32-.21h-.16Z"/>
      <path d="M316.92,99.49l.92.02c-.06.48-.23.85-.5,1.11-.27.26-.62.39-1.06.39s-.81-.15-1.11-.44c-.3-.3-.45-.66-.45-1.1s.15-.81.46-1.12c.3-.3.68-.45,1.12-.45s.8.15,1.1.44c.2.2.35.49.43.85l-.95.06c-.11-.32-.31-.49-.6-.49-.19,0-.34.06-.47.2-.12.13-.18.3-.18.5s.06.35.18.48c.12.13.27.19.46.19s.34-.06.45-.17c.11-.11.18-.27.2-.48Z"/>
      <path d="M319.67,97.9c.42,0,.78.15,1.08.46s.45.67.45,1.1-.15.8-.46,1.1c-.3.3-.67.45-1.1.45s-.8-.15-1.1-.46c-.3-.3-.46-.67-.46-1.1s.15-.8.46-1.1c.31-.3.68-.45,1.13-.45ZM319.64,98.78c-.18,0-.34.07-.46.2-.13.13-.19.29-.19.48s.06.35.19.48.28.2.46.2.34-.07.46-.2c.13-.13.19-.29.19-.48s-.06-.35-.19-.48c-.13-.13-.28-.2-.46-.2Z"/>
      <path d="M321.56,100.94v-1.93c0-.34.1-.61.3-.81.2-.2.47-.3.81-.3s.59.1.77.3.27.48.27.85v1.9h-.88v-1.9c0-.18-.07-.27-.19-.27s-.19.09-.19.27v1.9h-.88Z"/>
      <path d="M325.35,99.37v.8h-.29v.77h-.88v-1.84c0-.35.11-.63.32-.86.21-.23.48-.34.81-.34.36,0,.66.15.9.46l-.72.53c-.04-.11-.11-.17-.22-.17-.14,0-.2.09-.2.28v.37h.29Z"/>
    </g>
  </g>
  <polygon id="ZalauGF01" class="cls-19" points="308.6 380.6 308.6 416 422.6 416 422.6 369.3 404 369.3 404 380.6 308.6 380.6"/>
  <polygon id="ZalauGF02" class="cls-19" points="422.6 366.9 422.6 344 308.6 344 308.6 378.8 402.2 378.8 402.2 366.9 422.6 366.9"/>
  <rect id="ZalauGF03" class="cls-19" x="308.6" y="307.2" width="114" height="35"/>
  <rect id="ZalauG08_x5F_G13" class="cls-19" x="308.6" y="282.9" width="59.9" height="22.4"/>
  <rect id="ZalauG07_x5F_" class="cls-19" x="370.1" y="282.9" width="7.7" height="12"/>
  <polygon id="ZalauG06" class="cls-19" points="370.1 296.4 370.1 305.4 407.3 305.4 407.3 282.9 379.2 282.9 379.2 296.4 370.1 296.4"/>
  <polygon id="ZalauG04_x5F_G05_x5F_" class="cls-19" points="387.6 260.6 387.6 278.1 423.5 278.1 423.5 241.3 408.1 241.3 408.1 260.6 387.6 260.6"/>
  <polygon id="ZalauG02" class="cls-19" points="387.6 241.3 406.6 241.3 406.6 259.6 401.4 259.6 401.4 251.3 387.6 251.3 387.6 241.3"/>
  <rect id="ZalauG03_x5F_" class="cls-19" x="387.6" y="252.9" width="13" height="6.5"/>
  <polygon id="ZalauG01" class="cls-19" points="387.6 239.3 425 239.3 425 277.7 488.4 277.7 488.4 11.6 387.6 11.6 387.6 27.7 396.1 27.7 396.1 73.2 387.6 73.2 387.6 239.3"/>
  <rect id="ZalauG41" class="cls-19" x="387.6" y="63" width="6.9" height="9"/>
  <rect id="ZalauG40" class="cls-19" x="387.6" y="55" width="6.9" height="6.8"/>
  <rect id="ZalauG39" class="cls-19" x="387.6" y="29.1" width="6.9" height="24.2"/>
  <rect id="ZalauG38" class="cls-19" x="366.5" y="11.6" width="14.4" height="22.6"/>
  <rect id="ZalauG37" class="cls-19" x="350.3" y="11.6" width="14.6" height="22.6"/>
  <rect id="ZalauG36" class="cls-19" x="323.6" y="11.6" width="25.3" height="22.6"/>
  <polygon id="ZalauG35" class="cls-19" points="308.2 40.4 332.9 40.4 332.9 55.6 315.9 55.6 315.9 63.3 308.2 63.3 308.2 40.4"/>
  <polygon id="ZalauG33" class="cls-19" points="308.2 64.6 317.9 64.6 317.9 56.7 332.9 56.7 332.9 69 308.2 69 308.2 64.6"/>
  <rect id="ZalauG32" class="cls-19" x="308.2" y="70" width="24.7" height="10.4"/>
  <rect id="ZalauG31" class="cls-19" x="317.9" y="82.1" width="15.1" height="7.3"/>
  <rect id="ZalauG26_x5F_1" class="cls-19" x="312.2" y="122.7" width="20.3" height="6.6"/>
  <rect id="ZalauG26_x5F_2G27" class="cls-19" x="312.2" y="130.7" width="20.3" height="19.8"/>
  <rect id="ZalauG25" class="cls-19" x="308.2" y="156.71" width="24.3" height="10.88"/>
  <rect id="ZalauG21" class="cls-19" x="308.2" y="204.5" width="24.7" height="7.5"/>
  <rect id="ZalauG20" class="cls-19" x="308.2" y="213.9" width="24.7" height="11.2"/>
  <rect id="ZalauG18" class="cls-19" x="308.2" y="231.2" width="24.3" height="10.1"/>
  <rect id="ZalauG17" class="cls-19" x="316.9" y="242.6" width="15.6" height="10.3"/>
  <rect id="ZalauG14_x5E_T01" class="cls-19" x="308.2" y="242.6" width="7.3" height="22.2"/>
  <rect id="ZalauG15" class="cls-19" x="317.2" y="254.2" width="7" height="10.6"/>
  <polygon id="ZalauG16" class="cls-19" points="325.4 254.2 332.5 254.2 332.5 261.2 329 264.7 325.4 264.7 325.4 254.2"/>
  <polygon id="ZalauG61" class="cls-19" points="363 255.6 350.4 255.6 350.4 261 354 264.6 363 264.6 363 255.6"/>
  <polygon id="ZalauG62" class="cls-19" points="364.4 255.6 377.2 255.6 377.2 261 373.5 264.7 364.4 264.7 364.4 255.6"/>
  <rect id="ZalauG51" class="cls-19" x="350.4" y="166.2" width="26.5" height="10.8"/>
  <rect id="ZalauG52" class="cls-19" x="350.4" y="156.7" width="26.5" height="8"/>
  <rect id="ZalauG47_x5F_48_x5F_" class="cls-19" x="350.4" y="114.9" width="26.5" height="10.4"/>
  <rect id="ZalauG45_x5F_46" class="cls-19" x="350.4" y="106.2" width="26.5" height="6.8"/>
  <rect id="ZalauG49_x5F_50" class="cls-19" x="350.4" y="127.1" width="26.5" height="23"/>
  <polygon id="ZalauG44" class="cls-19" points="350.4 104.8 359.7 104.8 359.7 95.4 356 95.4 350.4 101.1 350.4 104.8"/>
  <polygon id="ZalauG42_x5F_43" class="cls-19" points="361.2 95.4 361.2 104.8 376.9 104.8 376.9 101.1 371.1 95.2 361.2 95.4"/>
  <rect id="ZalauGF04" class="cls-19" x="282" y="128.8" width="24.4" height="38.5"/>
  <rect id="ZalauGF05" class="cls-19" x="266.3" y="128.3" width="13.9" height="39"/>
  <polygon id="ZalauGF06" class="cls-19" points="280.2 126.7 280.2 88.1 227.3 88.1 227.3 167.3 264.4 167.3 264.4 126.7 280.2 126.7"/>
  <rect id="ZalauGF07" class="cls-19" x="203.2" y="88.1" width="22.5" height="79.2"/>
  <rect id="ZalauGF09" class="cls-19" x="140.3" y="88.1" width="22.5" height="79.2"/>
  <rect id="ZalauGF10" class="cls-19" x="116.3" y="88.1" width="22.5" height="79.2"/>
  <rect id="ZalauGF11" class="cls-19" x="89.3" y="88.1" width="25.2" height="79.2"/>
  <polygon id="ZalauGF12" class="cls-19" points="87.9 88.1 87.9 167.3 57.8 167.3 57.8 102.4 44 102.4 44 88.1 87.9 88.1"/>
  <polygon id="ZalauGF13" class="cls-19" points="42.3 88.1 38.8 88.1 38.8 167.3 56.5 167.3 56.5 103.9 42.3 103.9 42.3 88.1"/>
  <rect id="ZalauGF14" class="cls-19" x="11.3" y="88.1" width="25.8" height="79.2"/>
  <rect id="ZalauGF08" class="cls-19" x="164.8" y="88.1" width="36.6" height="79.2"/>
  <g>
    <path class="cls-60" d="M242.9,267.78c-.05-.92-.11-2.02-.1-2.83h-.03c-.22.77-.5,1.59-.83,2.49l-1.16,3.18h-.64l-1.06-3.12c-.31-.92-.57-1.77-.76-2.55h-.02c-.02.82-.07,1.92-.13,2.9l-.18,2.81h-.81l.46-6.56h1.08l1.12,3.17c.27.81.5,1.53.66,2.21h.03c.17-.66.4-1.38.69-2.21l1.17-3.17h1.08l.41,6.56h-.83l-.17-2.88Z"/>
    <path class="cls-60" d="M247.84,270.66l-.07-.59h-.03c-.26.37-.77.7-1.44.7-.95,0-1.44-.67-1.44-1.35,0-1.14,1.01-1.76,2.83-1.75v-.1c0-.39-.11-1.09-1.07-1.09-.44,0-.9.14-1.23.35l-.19-.56c.39-.25.95-.42,1.55-.42,1.44,0,1.79.98,1.79,1.93v1.76c0,.41.02.81.08,1.13h-.78ZM247.72,268.25c-.93-.02-2,.15-2,1.06,0,.55.37.82.81.82.61,0,1-.39,1.14-.79.03-.09.05-.18.05-.27v-.82Z"/>
    <path class="cls-60" d="M250.88,264.62c0,.29-.2.53-.54.53-.3,0-.52-.23-.52-.53s.22-.54.54-.54.53.23.53.54ZM249.93,270.66v-4.71h.86v4.71h-.86Z"/>
    <path class="cls-60" d="M252.21,267.22c0-.49,0-.89-.04-1.28h.76l.05.78h.02c.23-.45.78-.89,1.56-.89.65,0,1.67.39,1.67,2.01v2.81h-.86v-2.72c0-.76-.28-1.39-1.09-1.39-.56,0-1,.4-1.15.88-.04.11-.06.25-.06.4v2.83h-.86v-3.44Z"/>
    <path class="cls-60" d="M234.03,279.27h-2.55v2.37h2.84v.71h-3.69v-6.56h3.54v.71h-2.7v2.07h2.55v.7Z"/>
    <path class="cls-60" d="M235.4,278.91c0-.49,0-.89-.04-1.28h.76l.05.78h.02c.23-.45.78-.89,1.56-.89.65,0,1.67.39,1.67,2v2.81h-.86v-2.72c0-.76-.28-1.39-1.09-1.39-.56,0-1,.4-1.15.88-.04.11-.06.25-.06.4v2.83h-.86v-3.44Z"/>
    <path class="cls-60" d="M241.8,276.28v1.35h1.23v.65h-1.23v2.54c0,.58.17.92.64.92.22,0,.39-.03.5-.06l.04.64c-.17.07-.43.12-.76.12-.4,0-.72-.13-.92-.36-.24-.25-.33-.67-.33-1.23v-2.57h-.73v-.65h.73v-1.13l.84-.22Z"/>
    <path class="cls-60" d="M243.99,279.11c0-.56,0-1.03-.04-1.47h.75l.03.92h.04c.21-.63.73-1.03,1.3-1.03.1,0,.17,0,.24.03v.81c-.09-.02-.17-.03-.29-.03-.6,0-1.03.46-1.15,1.1-.02.12-.04.25-.04.4v2.51h-.85v-3.24Z"/>
    <path class="cls-60" d="M249.74,282.35l-.07-.59h-.03c-.26.37-.77.7-1.44.7-.95,0-1.44-.67-1.44-1.35,0-1.14,1.01-1.76,2.83-1.75v-.1c0-.39-.11-1.09-1.07-1.09-.44,0-.9.14-1.23.35l-.19-.57c.39-.25.95-.42,1.55-.42,1.44,0,1.79.98,1.79,1.93v1.76c0,.41.02.81.08,1.13h-.78ZM249.61,279.94c-.93-.02-2,.15-2,1.06,0,.55.37.82.81.82.61,0,1-.39,1.14-.79.03-.09.05-.18.05-.27v-.82Z"/>
    <path class="cls-60" d="M251.82,278.91c0-.49,0-.89-.04-1.28h.76l.05.78h.02c.23-.45.78-.89,1.56-.89.65,0,1.67.39,1.67,2v2.81h-.86v-2.72c0-.76-.28-1.39-1.09-1.39-.56,0-1,.4-1.15.88-.04.11-.06.25-.06.4v2.83h-.86v-3.44Z"/>
    <path class="cls-60" d="M260.59,282.17c-.22.12-.72.27-1.35.27-1.42,0-2.35-.96-2.35-2.4s.99-2.5,2.53-2.5c.51,0,.95.13,1.19.24l-.19.66c-.21-.12-.53-.22-.99-.22-1.08,0-1.67.8-1.67,1.78,0,1.09.7,1.76,1.64,1.76.49,0,.81-.13,1.05-.23l.15.64Z"/>
    <path class="cls-60" d="M262.01,280.15c.02,1.16.76,1.64,1.62,1.64.61,0,.98-.11,1.3-.24l.15.61c-.3.14-.82.29-1.57.29-1.45,0-2.32-.95-2.32-2.38s.84-2.54,2.21-2.54c1.54,0,1.95,1.35,1.95,2.22,0,.17-.02.31-.03.4h-3.31ZM264.52,279.53c0-.54-.22-1.39-1.19-1.39-.87,0-1.25.8-1.31,1.39h2.5Z"/>
  </g>
  <polygon id="ZalauG58" class="cls-19" points="350.26 231.23 350.26 254.16 366.77 254.16 366.77 238.27 364.17 238.27 364.17 231.31 350.26 231.23"/>
  <path id="ZalauG63" class="cls-19" d="M365.62,231.39l.08,5.35h2.6v17.27h8.87v-22.62s-11.54-.08-11.54,0Z"/>
  <path id="ZalauG22_x5F_" class="cls-19" d="M308.26,169.11v33.74h24.66v-18.16h-12.62v-15.58s-12.03-.07-12.03,0Z"/>
  <polygon id="ZalauG30" class="cls-19" points="308.36 81.84 308.36 103.24 332.75 103.24 332.75 90.43 316.65 90.43 316.65 81.91 308.36 81.84"/>
  <path id="ZalauG28_x5F_29" class="cls-19" d="M308.37,105.02v16.21h24.37v-16.21s-24.52-.15-24.37,0Z"/>
  <path id="ZalauG23_x5F_24" class="cls-19" d="M321.78,169.21v14.22h10.92v-14.22s-11.03.11-10.92,0Z"/>
  <path id="ZalauG56_x5F_57" class="cls-19" d="M350.3,204.4v20.46h26.61v-20.38s-26.76.07-26.61-.07Z"/>
  <rect id="ZalauG53_x5F_55" class="cls-19" x="350.4" y="178.48" width="26.76" height="24.37"/>
</svg>